<svg width="108" height="108" viewBox="0 0 108 108" fill="none" xmlns="http://www.w3.org/2000/svg">
<path fill-rule="evenodd" clip-rule="evenodd" d="M47.054 94.9692C86.5667 100.999 106.856 92.8629 107.922 70.5573C109.522 37.1 85.9789 40.773 75.7701 32.1061C65.5623 23.4402 71.4287 31.9057 57.9853 13.0768C49.0241 0.523457 34.2723 -0.196434 13.7301 10.9161C-1.74128 22.38 -4.13753 38.2095 6.54131 58.4068C17.2201 78.604 30.7244 90.7908 47.054 94.9692Z" fill="#191919"/>
<path fill-rule="evenodd" clip-rule="evenodd" d="M68.635 29.396L68.674 18.0711L68.646 12.6895C68.4724 12.6603 68.2967 12.6412 68.1181 12.6421L34.9748 12.8214L32.0326 12.8375C30.327 12.8466 28.9467 14.2541 28.9557 15.9748L29.1004 43.085C29.1024 43.5854 28.7022 43.9932 28.2062 43.9952C28.0545 43.9962 27.9177 43.9499 27.792 43.8835L27.8199 49.261C27.9447 49.1935 28.0814 49.1452 28.2341 49.1452C28.7301 49.1422 29.1343 49.5459 29.1373 50.0463L29.1603 54.561C29.1633 55.0614 28.7631 55.4692 28.2671 55.4722C28.1154 55.4722 27.9786 55.4259 27.8529 55.3594L27.8798 60.3524C28.0046 60.2849 28.1403 60.2366 28.292 60.2356C28.788 60.2326 29.1922 60.6363 29.1952 61.1367L29.3349 87.4596C29.3449 89.1813 30.7391 90.5737 32.4448 90.5647L33.9757 90.5566C33.9498 90.5244 33.9308 90.4871 33.9049 90.4549L59.5481 90.317L80.3678 90.2042C81.8449 90.1962 83.0764 89.136 83.3728 87.7334C83.4058 87.5492 83.4277 87.3619 83.4258 87.1676L83.2481 53.384L83.1113 27.7025L68.635 29.396Z" fill="white"/>
<path fill-rule="evenodd" clip-rule="evenodd" d="M70.9232 25.6048L81.9184 24.5708L70.8623 14.1792L70.9232 25.6048Z" fill="white"/>
<path fill-rule="evenodd" clip-rule="evenodd" d="M28.0768 7.00963C28.0798 7.56038 28.5259 8.00439 29.0728 8.00139C29.6207 7.99835 30.0609 7.55031 30.0579 6.99856L30.0269 0.992746C30.0239 0.442004 29.5778 -0.00201347 29.0309 0.000991728C28.483 0.00402758 28.0429 0.452072 28.0458 1.00382L28.0768 7.00963ZM22.5907 14.6641C23.1376 14.6611 23.5787 14.2121 23.5757 13.6613C23.5727 13.1106 23.1266 12.6666 22.5797 12.6696L16.6355 12.7018C16.0876 12.7048 15.6474 13.1539 15.6504 13.7046C15.6534 14.2554 16.0985 14.6994 16.6464 14.6964L22.5907 14.6641ZM24.1335 10.1644C24.5237 10.552 25.1505 10.549 25.5327 10.1573C25.917 9.76566 25.912 9.13336 25.5238 8.74472L20.1943 3.5907C19.8051 3.20307 19.1783 3.20609 18.7941 3.59875C18.4109 3.99042 18.4158 4.62271 18.8041 5.01035L24.1335 10.1644Z" fill="#EC0000"/>
<path fill-rule="evenodd" clip-rule="evenodd" d="M19.8583 39.2678L19.8663 40.7851L17.8034 40.7962L17.8154 42.8773L16.3104 42.8854L16.3004 40.8043L14.2375 40.8153L14.2295 39.298L16.2924 39.288L16.2804 37.2058L17.7854 37.1978L17.7964 39.2789L19.8583 39.2678Z" fill="#0D4F80"/>
<path fill-rule="evenodd" clip-rule="evenodd" d="M10.9711 83.551C9.04192 83.561 7.47004 81.9923 7.45902 80.0461C7.45008 78.0999 9.005 76.5131 10.9342 76.503C12.8633 76.493 14.4362 78.0616 14.4453 80.0078C14.4562 81.9541 12.9013 83.5409 10.9711 83.551ZM10.9601 81.5373C11.7875 81.5332 12.4542 80.8526 12.4492 80.0189C12.4462 79.1842 11.7715 78.5127 10.9452 78.5167C10.1188 78.5207 9.45211 79.2004 9.4551 80.035C9.4601 80.8687 10.1338 81.5413 10.9601 81.5373Z" fill="#0D4F80"/>
<path fill-rule="evenodd" clip-rule="evenodd" d="M97.8348 67.7032C97.6242 68.5731 96.7859 69.1209 95.9037 68.9034C95.0424 68.6919 94.5284 67.812 94.738 66.9421C94.9485 66.0721 95.8018 65.5486 96.6631 65.761C97.5454 65.9775 98.0444 66.8333 97.8348 67.7032ZM94.3787 56.5716C94.5453 55.8799 95.1162 55.5798 95.9316 55.2989C97.0005 54.9123 98.252 54.8016 99.6033 55.1338C102.033 55.7309 103.484 57.804 102.95 60.019C102.605 61.4417 101.768 62.1575 100.173 62.7496C99.4606 63.0345 98.8019 63.3547 98.4097 64.0333C98.0175 64.7119 97.5684 64.9364 96.8627 64.7632C96.1971 64.5991 95.8068 63.8964 95.9835 63.1644C96.1312 62.5512 96.5733 62.0951 97.0693 61.6722C97.6921 61.1557 98.4696 60.8648 99.3418 60.4298C99.9077 60.1509 100.204 59.7834 100.305 59.3686C100.515 58.4987 99.9566 57.7123 98.8398 57.4375C98.0175 57.2361 97.5384 57.3267 96.8837 57.5432C96.205 57.7748 95.8557 58.1916 95.209 58.0325C94.5823 57.8785 94.221 57.224 94.3787 56.5716Z" fill="white"/>
<path fill-rule="evenodd" clip-rule="evenodd" d="M94.2787 12.9048L93.2208 13.9831L91.7557 12.5202L90.3046 13.9992L89.2347 12.932L90.6858 11.4529L89.2197 9.98897L90.2776 8.91064L91.7437 10.3746L93.1948 8.89453L94.2637 9.96178L92.8126 11.4418L94.2787 12.9048Z" fill="#6EE3FF"/>
<path fill-rule="evenodd" clip-rule="evenodd" d="M89.9512 104.974C89.9602 106.544 75.0597 107.895 56.6742 107.995C38.2876 108.095 23.3762 106.904 23.3682 105.334C23.3592 103.765 38.2587 102.413 56.6442 102.313C75.0298 102.215 89.9422 103.406 89.9512 104.974Z" fill="#191919"/>
<path fill-rule="evenodd" clip-rule="evenodd" d="M83.1065 26.8521C83.1055 26.6487 83.0815 26.4464 83.0415 26.249L82.8135 26.2702L83.0705 26.5158C83.0845 26.6276 83.1065 26.7383 83.1065 26.8521Z" fill="white"/>
<path fill-rule="evenodd" clip-rule="evenodd" d="M70.5101 25.6073L81.5053 24.5743L70.4492 14.1816L70.5101 25.6073Z" fill="#0D4F80"/>
<path fill-rule="evenodd" clip-rule="evenodd" d="M29.1603 54.5613L29.1373 50.0467C29.1343 49.5463 28.7291 49.1425 28.2331 49.1455C28.0814 49.1455 27.9447 49.1939 27.8199 49.2613C27.5365 49.4154 27.3379 49.7084 27.3399 50.0557L27.3628 54.5714C27.3648 54.9178 27.5674 55.2097 27.8519 55.3598C27.9776 55.4262 28.1153 55.4725 28.266 55.4725C28.7631 55.4695 29.1633 55.0617 29.1603 54.5613Z" fill="#0F2B4A"/>
<path fill-rule="evenodd" clip-rule="evenodd" d="M83.337 23.2501L71.4595 12.1447C70.5444 11.2898 69.3537 10.8237 68.1082 10.8306L32.0227 11.025C29.3261 11.0401 27.1434 13.2653 27.1583 15.9847L27.3021 43.094C27.3041 43.4423 27.5067 43.7333 27.7921 43.8833C27.9178 43.9498 28.0536 43.9961 28.2063 43.9951C28.7023 43.9931 29.1015 43.5853 29.0995 43.0849L28.9558 15.9747C28.9468 14.254 30.3271 12.8464 32.0327 12.8374L34.9749 12.8212L68.1182 12.642C68.2968 12.641 68.4715 12.6602 68.6451 12.6894L68.6741 18.0709L68.72 26.6059C68.72 26.8596 68.8278 27.1023 69.0144 27.2724C69.1811 27.4255 69.3986 27.508 69.6222 27.508C69.6481 27.507 69.6751 27.506 69.701 27.504L82.814 26.2696L83.0406 26.2485C83.0805 26.4458 83.1055 26.6482 83.1065 26.8516L83.1105 27.7024L83.2472 53.3839L83.4258 87.1675C83.4278 87.3618 83.4049 87.549 83.3719 87.7333C83.1144 89.1862 81.8629 90.2977 80.3489 90.3058L33.9758 90.5565L32.4449 90.5645C30.7393 90.5736 29.344 89.1811 29.335 87.4594L29.1953 61.1366C29.1923 60.6362 28.7881 60.2324 28.2921 60.2354C28.1394 60.2364 28.0047 60.2848 27.8799 60.3522C27.5945 60.5053 27.3959 60.7983 27.3979 61.1466L27.5376 87.4695C27.5516 90.189 29.7572 92.391 32.4549 92.3769L80.3589 92.1181C83.0556 92.103 85.2372 89.8779 85.2233 87.1584L84.9029 26.8425C84.8959 25.4833 84.3251 24.1734 83.337 23.2501Z" fill="white"/>
<path fill-rule="evenodd" clip-rule="evenodd" d="M80.3662 90.2044L59.5465 90.3172L33.9033 90.4551C33.9293 90.4873 33.9482 90.5246 33.9752 90.5568L80.3473 90.3061C81.8054 90.298 83.011 89.263 83.3294 87.8897V87.8726C82.9821 89.2036 81.7944 90.1964 80.3662 90.2044Z" fill="white"/>
<path fill-rule="evenodd" clip-rule="evenodd" d="M83.337 23.2501L71.4595 12.1447C70.5444 11.2898 69.3537 10.8237 68.1082 10.8306L32.0227 11.025C29.3261 11.0401 27.1434 13.2653 27.1583 15.9847L27.3021 43.094C27.3041 43.4423 27.5067 43.7333 27.7921 43.8833L27.82 49.2609C27.9448 49.1934 28.0815 49.1451 28.2332 49.1451C28.7292 49.1421 29.1334 49.5458 29.1364 50.0462L29.1604 54.5609C29.1634 55.0613 28.7622 55.4691 28.2662 55.4721C28.1155 55.4721 27.9777 55.4258 27.852 55.3593L27.8799 60.3522C27.5945 60.5053 27.3959 60.7983 27.3979 61.1466L27.5376 87.4695C27.5516 90.189 29.7572 92.391 32.4549 92.3769L80.3589 92.1181C83.0556 92.103 85.2372 89.8779 85.2233 87.1584L84.9029 26.8425C84.8959 25.4833 84.3251 24.1734 83.337 23.2501Z" fill="#5C5C5C"/>
<path fill-rule="evenodd" clip-rule="evenodd" d="M70.5101 25.6073L81.5053 24.5743L70.4492 14.1816L70.5101 25.6073Z" fill="#0D4F80"/>
<path fill-rule="evenodd" clip-rule="evenodd" d="M83.2471 53.3835L83.1103 27.702L68.634 29.3955L68.673 18.0705L68.645 12.69C68.4714 12.6598 68.2967 12.6416 68.1181 12.6426L34.9758 12.8209L32.0326 12.837C30.327 12.846 28.9467 14.2536 28.9557 15.9753L29.0994 43.0845C29.1014 43.5849 28.7022 43.9927 28.2062 43.9957C28.0535 43.9967 27.9177 43.9494 27.792 43.8829L27.8199 49.2615C27.9447 49.193 28.0814 49.1457 28.2331 49.1447C28.7291 49.1417 29.1333 49.5454 29.1363 50.0458L29.1603 54.5605C29.1633 55.0619 28.7621 55.4687 28.2661 55.4717C28.1153 55.4727 27.9776 55.4254 27.8529 55.3589L27.8788 60.3518C28.0036 60.2844 28.1393 60.2361 28.292 60.2351C28.788 60.233 29.1922 60.6368 29.1952 61.1372L29.3339 87.4601C29.3439 89.1807 30.7392 90.5732 32.4448 90.5642L33.9757 90.5561C33.9488 90.5249 33.9298 90.4876 33.9049 90.4544L59.5471 90.3165L80.3668 90.2037C81.8449 90.1966 83.0754 89.1364 83.3718 87.7339C83.4048 87.5497 83.4267 87.3614 83.4258 87.1681L83.2471 53.3835Z" fill="white"/>
<path fill-rule="evenodd" clip-rule="evenodd" d="M32.6364 16.5013C32.6274 14.8652 33.5905 13.4596 34.9748 12.8213L32.0326 12.8374C30.327 12.8465 28.9467 14.254 28.9557 15.9757L29.0994 43.0849C29.1014 43.5853 28.7022 43.9931 28.2062 43.9961C28.0535 43.9971 27.9167 43.9498 27.792 43.8834L27.8199 49.2619C27.9447 49.1934 28.0814 49.1451 28.2331 49.1451C28.7291 49.1421 29.1333 49.5458 29.1363 50.0462L29.1603 54.5609C29.1633 55.0613 28.7621 55.4691 28.2661 55.4721C28.1154 55.4731 27.9776 55.4258 27.8519 55.3593L27.8788 60.3523C28.0036 60.2848 28.1393 60.2365 28.291 60.2365C28.788 60.2335 29.1922 60.6362 29.1952 61.1376L29.3339 87.4605C29.3439 89.1812 30.7392 90.5736 32.4448 90.5646L33.9757 90.5565C33.9488 90.5253 33.9298 90.487 33.9049 90.4548C33.364 89.7732 33.0206 88.9264 33.0156 87.986L32.6364 16.5013ZM80.367 90.2042C81.8441 90.1962 83.0756 89.136 83.372 87.7334C83.405 87.5492 83.4269 87.3619 83.425 87.1676L83.2473 53.384L59.5473 90.317L80.367 90.2042Z" fill="#E8E8E8"/>
<path fill-rule="evenodd" clip-rule="evenodd" d="M67.1944 51.8796L69.403 49.6524L71.6097 51.8786L72.8402 50.6371L70.6326 48.41L72.8412 46.1829L71.6107 44.9404L69.4021 47.1686L67.1954 44.9414L65.9649 46.1829L68.1715 48.41L65.9639 50.6371L67.1944 51.8796Z" fill="#0F2B4A"/>
<path fill-rule="evenodd" clip-rule="evenodd" d="M43.2423 51.8796L45.4509 49.6524L47.6575 51.8786L48.8881 50.6371L46.6805 48.41L48.8891 46.1829L47.6585 44.9404L45.4499 47.1686L43.2433 44.9414L42.0127 46.1829L44.2193 48.41L42.0117 50.6371L43.2423 51.8796Z" fill="#0F2B4A"/>
<path fill-rule="evenodd" clip-rule="evenodd" d="M51.4385 64.9212H61.4187V63.1089H51.4385V64.9212Z" fill="#EC0000"/>
<path fill-rule="evenodd" clip-rule="evenodd" d="M83.1105 27.7022L83.1055 26.8515C83.1055 26.7377 83.0835 26.6279 83.0696 26.5152L82.8131 26.2695L69.7001 27.5039C69.6741 27.5059 69.6482 27.5069 69.6212 27.5079C69.3987 27.5089 69.1811 27.4254 69.0144 27.2723C68.8268 27.1022 68.72 26.8605 68.719 26.6068L68.6731 18.0708L67.6811 29.1974C67.6481 29.5659 67.9645 29.868 68.3268 29.8166L83.1105 27.7022Z" fill="#6EE3FF"/>
</svg>
