<svg width="120" height="100" viewBox="0 0 120 100" fill="none" xmlns="http://www.w3.org/2000/svg">
<path fill-rule="evenodd" clip-rule="evenodd" d="M64.3312 99.2956C103.672 93.4663 109.709 84.7328 115.411 75.1198C126.454 56.5036 116.864 23.0889 94.1791 23.2644C72.0534 27.8854 76.5959 -9.74315 34.0679 2.44102C7.42171 10.0754 -4.46564 31.7703 1.51718 52.6167C7.49999 73.4632 24.9908 105.125 64.3312 99.2956Z" fill="#E5E5E5"/>
<path fill-rule="evenodd" clip-rule="evenodd" d="M86.3295 10.1875H86.3536C86.4941 10.1895 86.6306 10.2025 86.7681 10.2126C86.8775 10.2216 86.9869 10.2276 87.0953 10.2406C87.2117 10.2547 87.3251 10.2767 87.4396 10.2968C87.546 10.3159 87.6523 10.3319 87.7577 10.356C87.8701 10.381 87.9795 10.4141 88.0899 10.4452C88.1913 10.4743 88.2957 10.5004 88.3971 10.5335C88.5044 10.5696 88.6088 10.6127 88.7152 10.6538C88.8136 10.6919 88.9119 10.728 89.0083 10.7701C89.1117 10.8163 89.213 10.8704 89.3154 10.9216C89.4067 10.9687 89.5001 11.0128 89.5894 11.063C89.6898 11.1201 89.7841 11.1833 89.8815 11.2445C89.9668 11.2986 90.0551 11.3508 90.1384 11.4089C90.2327 11.4741 90.3211 11.5463 90.4104 11.6165C90.4907 11.6787 90.574 11.7378 90.6513 11.804C90.7386 11.8782 90.8199 11.9585 90.9032 12.0377C90.9765 12.1069 91.0527 12.1721 91.122 12.2453C91.2023 12.3275 91.2776 12.4157 91.3538 12.503C91.4191 12.5782 91.4893 12.6504 91.5516 12.7286C91.6238 12.8189 91.6901 12.9151 91.7583 13.0084C91.8175 13.0906 91.8788 13.1689 91.934 13.2521C91.9982 13.3494 92.0554 13.4527 92.1146 13.5529C92.1648 13.6392 92.22 13.7234 92.2672 13.8127C92.3234 13.917 92.3695 14.0263 92.4197 14.1336C92.4619 14.2238 92.508 14.3121 92.5462 14.4053C92.5944 14.5196 92.6325 14.64 92.6747 14.7583C92.7068 14.8476 92.7419 14.9348 92.77 15.0261C92.8091 15.1554 92.8372 15.2878 92.8704 15.4202C92.8904 15.5054 92.9155 15.5886 92.9336 15.6749C92.9627 15.8233 92.9818 15.9747 93.0008 16.1272C93.0109 16.2004 93.0269 16.2716 93.035 16.3468C93.0571 16.5734 93.0691 16.8041 93.0691 17.0377L93.0681 27.4439L26.0798 27.4449C26.0256 27.4409 25.8199 27.4178 25.5459 27.3647C25.0872 27.2774 24.6295 27.138 24.211 26.9415C23.0969 26.417 22.4771 25.6087 22.4771 24.3502C22.4616 23.5209 22.7677 21.8763 24.6466 21.2666C24.7319 21.2395 24.8313 21.2074 25.018 21.1472C25.5017 20.9918 25.7928 20.8925 26.0889 20.7762C26.2856 20.7321 26.4823 20.6869 26.688 20.6488C35.9317 19.0273 35.9317 19.0273 41.8192 17.9944L86.3295 10.1875Z" fill="#0F2B4A"/>
<path fill-rule="evenodd" clip-rule="evenodd" d="M93.2072 29.25L26.0313 29.249H28.1901C25.9179 30.322 24.3421 32.6265 24.3421 35.304V78.9775C24.3421 81.5156 25.7533 83.7228 27.8348 84.86C26.1969 84.6985 24.852 84.3495 23.752 83.8411C25.3177 84.5722 27.3852 84.9773 30.0911 84.9773H59.7271L91.7981 29.25H93.2072Z" fill="white"/>
<path fill-rule="evenodd" clip-rule="evenodd" d="M24.3418 78.9774V35.304C24.3418 32.6264 25.9175 30.322 28.1898 29.249H26.0319C25.3625 29.2129 24.412 29.0304 23.4425 28.5741C21.7413 27.7738 20.6704 26.3779 20.6714 24.3663C20.6694 24.256 20.6714 24.1497 20.6764 24.0464C20.6292 24.1206 20.5851 24.1988 20.5399 24.275C20.4395 24.4475 20.3482 24.625 20.2649 24.8085C20.2428 24.8587 20.2177 24.9078 20.1957 24.9579C20.1003 25.1886 20.019 25.4273 19.9518 25.6729C19.9357 25.7301 19.9257 25.7903 19.9116 25.8484C19.8624 26.048 19.8233 26.2536 19.7932 26.4632C19.7821 26.5384 19.7711 26.6126 19.7631 26.6878C19.733 26.9565 19.7129 27.2303 19.7129 27.5151V75.6892C19.7129 78.476 19.9658 80.0424 20.9875 81.5727C21.1531 81.8204 21.3428 82.053 21.5466 82.2757C21.6269 82.3629 21.7172 82.4441 21.8035 82.5274C21.933 82.6517 22.0625 82.7751 22.205 82.8904C22.3294 82.9927 22.4629 83.09 22.5994 83.1842C22.7128 83.2644 22.8313 83.3417 22.9537 83.4169C23.1263 83.5222 23.303 83.6255 23.4907 83.7207C23.575 83.7628 23.6653 83.8019 23.7516 83.8421C24.8516 84.3495 26.1975 84.6985 27.8345 84.8599C25.7529 83.7227 24.3418 81.5155 24.3418 78.9774Z" fill="#C6EDF6"/>
<path fill-rule="evenodd" clip-rule="evenodd" d="M93.589 29.222L93.5238 29.1929C93.4254 29.23 93.3181 29.25 93.2066 29.25H91.7975L59.7266 84.9773H90.7176C94.4743 84.9733 97.5204 81.9077 97.5204 78.1261V35.4173C97.5204 32.7589 95.9858 30.3421 93.589 29.222Z" fill="#F5F5F5"/>
<path fill-rule="evenodd" clip-rule="evenodd" d="M97.5206 78.1259C97.5206 81.9075 94.4744 84.9731 90.7177 84.9781H30.0907C25.2892 84.9781 22.4378 83.7417 20.9875 81.5726C19.9658 80.0423 19.7128 78.4759 19.7128 75.6891V27.515C19.7128 27.2312 19.7329 26.9574 19.762 26.6877C19.7711 26.6125 19.7821 26.5383 19.7931 26.4631C19.8232 26.2535 19.8624 26.0479 19.9116 25.8483C19.9246 25.7902 19.9357 25.73 19.9517 25.6728C20.019 25.4271 20.1003 25.1885 20.1956 24.9578C20.2177 24.9077 20.2428 24.8586 20.2649 24.8094C20.3472 24.6249 20.4395 24.4474 20.5399 24.2749C20.585 24.1987 20.6292 24.1205 20.6764 24.0463C20.6713 24.1496 20.6693 24.2559 20.6713 24.3672C20.6703 26.3778 21.7412 27.7747 23.4414 28.574C24.412 29.0303 25.3614 29.2128 26.0309 29.2489L93.2068 29.2499H93.5892C95.986 30.37 97.5206 32.7587 97.5206 35.4182V78.1259ZM94.8749 27.853V17.0376C94.8749 12.2572 91.0178 8.38135 86.2575 8.38135L86.1009 8.39438L26.3671 18.8728C26.3651 18.8728 26.3631 18.8738 26.3611 18.8738H26.3601C21.39 19.7913 18.3087 22.528 17.9434 26.6686C17.9183 26.9444 17.9062 27.2272 17.9062 27.515V75.6891C17.9062 78.8159 18.2023 80.655 19.486 82.5754C21.3056 85.298 24.7311 86.7832 30.0907 86.7832H90.7188C95.4761 86.7772 99.3271 82.9023 99.3271 78.1259V35.4182C99.3271 32.2553 97.6079 29.3632 94.8749 27.853Z" fill="#0F2B4A"/>
<path fill-rule="evenodd" clip-rule="evenodd" d="M93.0015 16.1267C92.9814 15.9752 92.9633 15.8228 92.9342 15.6744C92.9161 15.5882 92.8911 15.5049 92.87 15.4197C92.8379 15.2873 92.8098 15.1549 92.7706 15.0256C92.7415 14.9353 92.7064 14.8471 92.6753 14.7578C92.6331 14.6395 92.595 14.5192 92.5468 14.4048C92.5087 14.3116 92.4625 14.2233 92.4203 14.1331C92.3692 14.0258 92.323 13.9165 92.2678 13.8122C92.2206 13.7229 92.1654 13.6397 92.1142 13.5524C92.056 13.4522 91.9988 13.3489 91.9346 13.2516C91.8794 13.1684 91.8171 13.0902 91.7589 13.0089C91.6897 12.9147 91.6244 12.8184 91.5522 12.7281C91.4889 12.6499 91.4197 12.5777 91.3535 12.5025C91.2772 12.4153 91.2029 12.327 91.1226 12.2448C91.0534 12.1726 90.9761 12.1064 90.9028 12.0372C90.8195 11.958 90.7382 11.8778 90.6509 11.8035C90.5736 11.7384 90.4913 11.6782 90.411 11.616C90.3207 11.5458 90.2324 11.4736 90.138 11.4084C90.0547 11.3503 89.9674 11.2981 89.8821 11.244C89.7847 11.1828 89.6894 11.1196 89.59 11.0625C89.5007 11.0123 89.4074 10.9682 89.315 10.9221C89.2136 10.8699 89.1123 10.8168 89.0079 10.7696C88.9125 10.7275 88.8132 10.6924 88.7148 10.6533C88.6094 10.6122 88.5051 10.5691 88.3967 10.533C88.2963 10.4999 88.1919 10.4738 88.0896 10.4447C87.9791 10.4136 87.8708 10.3816 87.7573 10.3555C87.653 10.3314 87.5456 10.3154 87.4402 10.2973C87.3258 10.2763 87.2113 10.2552 87.0949 10.2402C86.9875 10.2271 86.8771 10.2211 86.7687 10.2131C86.6302 10.2021 86.4947 10.189 86.3542 10.187H86.3301L63.818 14.1361L55.9082 27.4444H93.0677L93.0687 17.0372C93.0687 16.8036 93.0577 16.5729 93.0346 16.3463C93.0265 16.2721 93.0115 16.1999 93.0015 16.1267Z" fill="#0D4F80"/>
<mask id="mask0" mask-type="alpha" maskUnits="userSpaceOnUse" x="22" y="1" width="72" height="27">
<path d="M28.8559 8.73502L24.6466 21.2672C22.7667 21.8759 22.4616 23.5215 22.4771 24.3498C22.4771 25.6093 23.0969 26.4166 24.212 26.9411C24.6295 27.1376 25.0882 27.277 25.5469 27.3653C25.8199 27.4174 26.0256 27.4415 26.0798 27.4445H93.0681L93.0691 17.0373C93.0691 16.8036 93.0571 16.574 93.034 16.3464C93.0259 16.2711 93.0109 16.1999 93.0008 16.1267C92.9808 15.9753 92.9627 15.8229 92.9336 15.6745C92.9165 15.5882 92.8904 15.505 92.8704 15.4188C92.8372 15.2874 92.8091 15.155 92.77 15.0257C92.7419 14.9344 92.7068 14.8472 92.6747 14.7579C92.6325 14.6396 92.5944 14.5192 92.5472 14.4049C92.508 14.3117 92.4619 14.2234 92.4197 14.1332C92.3685 14.0259 92.3224 13.9165 92.2662 13.8123C92.22 13.723 92.1658 13.6398 92.1136 13.5525C92.0554 13.4522 91.9982 13.35 91.934 13.2527C91.8788 13.1684 91.8165 13.0902 91.7583 13.009C91.6891 12.9147 91.6248 12.8195 91.5516 12.7292C91.4893 12.65 91.4191 12.5778 91.3538 12.5026C91.2776 12.4153 91.2023 12.3271 91.122 12.2449C91.0527 12.1717 90.9755 12.1065 90.9032 12.0373C90.8199 11.9581 90.7386 11.8778 90.6503 11.8036C90.573 11.7374 90.4907 11.6793 90.4104 11.6171C90.3201 11.5459 90.2327 11.4747 90.1384 11.4085C90.0541 11.3493 89.9668 11.2982 89.8815 11.2441C89.7841 11.1829 89.6898 11.1197 89.5894 11.0625C89.5001 11.0124 89.4067 10.9683 89.3144 10.9221C89.213 10.87 89.1127 10.8159 89.0083 10.7707C88.9119 10.7276 88.8136 10.6915 88.7152 10.6534C88.6088 10.6123 88.5044 10.5692 88.396 10.5341C88.2957 10.5 88.1923 10.4739 88.0899 10.4448C87.9785 10.4137 87.8701 10.3816 87.7577 10.3556C87.6523 10.3315 87.546 10.3154 87.4396 10.2964C87.3262 10.2763 87.2117 10.2553 87.0953 10.2402C86.9869 10.2272 86.8775 10.2212 86.7681 10.2122C86.6296 10.2021 86.4941 10.1891 86.3536 10.1871H86.3295L76.028 1.71533C70.1405 2.74723 38.1007 7.11347 28.8559 8.73502Z" fill="white"/>
</mask>
<g mask="url(#mask0)">
<path fill-rule="evenodd" clip-rule="evenodd" d="M82.6276 19.9746L33.6631 43.652L39.8276 56.3797C41.057 58.9178 44.1242 59.9838 46.6645 58.7554L86.4144 39.5335C88.9567 38.305 90.0216 35.2404 88.7931 32.7023L82.6276 19.9746Z" fill="white"/>
</g>
<mask id="mask1" mask-type="alpha" maskUnits="userSpaceOnUse" x="22" y="1" width="72" height="27">
<path d="M28.8559 8.73502L24.6466 21.2672C22.7667 21.8759 22.4616 23.5215 22.4771 24.3498C22.4771 25.6093 23.0969 26.4166 24.212 26.9411C24.6295 27.1376 25.0882 27.277 25.5469 27.3653C25.8199 27.4174 26.0256 27.4415 26.0798 27.4445H93.0681L93.0691 17.0373C93.0691 16.8036 93.0571 16.574 93.034 16.3464C93.0259 16.2711 93.0109 16.1999 93.0008 16.1267C92.9808 15.9753 92.9627 15.8229 92.9336 15.6745C92.9165 15.5882 92.8904 15.505 92.8704 15.4188C92.8372 15.2874 92.8091 15.155 92.77 15.0257C92.7419 14.9344 92.7068 14.8472 92.6747 14.7579C92.6325 14.6396 92.5944 14.5192 92.5472 14.4049C92.508 14.3117 92.4619 14.2234 92.4197 14.1332C92.3685 14.0259 92.3224 13.9165 92.2662 13.8123C92.22 13.723 92.1658 13.6398 92.1136 13.5525C92.0554 13.4522 91.9982 13.35 91.934 13.2527C91.8788 13.1684 91.8165 13.0902 91.7583 13.009C91.6891 12.9147 91.6248 12.8195 91.5516 12.7292C91.4893 12.65 91.4191 12.5778 91.3538 12.5026C91.2776 12.4153 91.2023 12.3271 91.122 12.2449C91.0527 12.1717 90.9755 12.1065 90.9032 12.0373C90.8199 11.9581 90.7386 11.8778 90.6503 11.8036C90.573 11.7374 90.4907 11.6793 90.4104 11.6171C90.3201 11.5459 90.2327 11.4747 90.1384 11.4085C90.0541 11.3493 89.9668 11.2982 89.8815 11.2441C89.7841 11.1829 89.6898 11.1197 89.5894 11.0625C89.5001 11.0124 89.4067 10.9683 89.3144 10.9221C89.213 10.87 89.1127 10.8159 89.0083 10.7707C88.9119 10.7276 88.8136 10.6915 88.7152 10.6534C88.6088 10.6123 88.5044 10.5692 88.396 10.5341C88.2957 10.5 88.1923 10.4739 88.0899 10.4448C87.9785 10.4137 87.8701 10.3816 87.7577 10.3556C87.6523 10.3315 87.546 10.3154 87.4396 10.2964C87.3262 10.2763 87.2117 10.2553 87.0953 10.2402C86.9869 10.2272 86.8775 10.2212 86.7681 10.2122C86.6296 10.2021 86.4941 10.1891 86.3536 10.1871H86.3295L76.028 1.71533C70.1405 2.74723 38.1007 7.11347 28.8559 8.73502Z" fill="white"/>
</mask>
<g mask="url(#mask1)">
<path fill-rule="evenodd" clip-rule="evenodd" d="M86.4153 39.5336L46.6653 58.7545C44.1241 59.9839 41.0579 58.918 39.8284 56.3788L33.6629 43.6521L82.6285 19.9748L88.7929 32.7024C90.0224 35.2406 88.9565 38.3052 86.4153 39.5336ZM28.8564 35.8112L58.6571 20.769L58.5828 22.6894L79.1297 12.7535L81.8406 18.3502L58.3088 29.7291L58.2676 30.7971L32.871 42.8308L28.8564 35.8112ZM30.8376 26.0789L59.1047 12.4105L70.5876 6.85797C73.1288 5.62852 76.195 6.69451 77.4245 9.23363L78.3428 11.1289L58.6189 20.6667L29.3783 34.8063L28.4599 32.91C27.2305 30.3719 28.2964 27.3073 30.8376 26.0789ZM90.4189 31.9152L84.2544 19.1875L79.9698 10.3417L79.0514 8.44642C77.3884 5.01179 73.2382 3.57075 69.8007 5.23241L30.0507 24.4543C26.6132 26.117 25.17 30.2626 26.834 33.6972L27.7514 35.5925L28.2231 36.5653L32.036 44.4383L38.2015 57.166C39.8645 60.6007 44.0147 62.0417 47.4522 60.3801L87.2021 41.1581C90.6397 39.4955 92.0829 35.3499 90.4189 31.9152Z" fill="#0F2B4A"/>
<path fill-rule="evenodd" clip-rule="evenodd" d="M58.3088 29.7292L58.4072 27.2171L58.5818 22.6894L58.6571 20.769L28.8564 35.8112L32.8711 42.8309L58.2677 30.7972L58.3088 29.7292Z" fill="#0F2B4A"/>
</g>
<mask id="mask2" mask-type="alpha" maskUnits="userSpaceOnUse" x="22" y="1" width="72" height="27">
<path d="M28.8559 8.73502L24.6466 21.2672C22.7667 21.8759 22.4616 23.5215 22.4771 24.3498C22.4771 25.6093 23.0969 26.4166 24.212 26.9411C24.6295 27.1376 25.0882 27.277 25.5469 27.3653C25.8199 27.4174 26.0256 27.4415 26.0798 27.4445H93.0681L93.0691 17.0373C93.0691 16.8036 93.0571 16.574 93.034 16.3464C93.0259 16.2711 93.0109 16.1999 93.0008 16.1267C92.9808 15.9753 92.9627 15.8229 92.9336 15.6745C92.9165 15.5882 92.8904 15.505 92.8704 15.4188C92.8372 15.2874 92.8091 15.155 92.77 15.0257C92.7419 14.9344 92.7068 14.8472 92.6747 14.7579C92.6325 14.6396 92.5944 14.5192 92.5472 14.4049C92.508 14.3117 92.4619 14.2234 92.4197 14.1332C92.3685 14.0259 92.3224 13.9165 92.2662 13.8123C92.22 13.723 92.1658 13.6398 92.1136 13.5525C92.0554 13.4522 91.9982 13.35 91.934 13.2527C91.8788 13.1684 91.8165 13.0902 91.7583 13.009C91.6891 12.9147 91.6248 12.8195 91.5516 12.7292C91.4893 12.65 91.4191 12.5778 91.3538 12.5026C91.2776 12.4153 91.2023 12.3271 91.122 12.2449C91.0527 12.1717 90.9755 12.1065 90.9032 12.0373C90.8199 11.9581 90.7386 11.8778 90.6503 11.8036C90.573 11.7374 90.4907 11.6793 90.4104 11.6171C90.3201 11.5459 90.2327 11.4747 90.1384 11.4085C90.0541 11.3493 89.9668 11.2982 89.8815 11.2441C89.7841 11.1829 89.6898 11.1197 89.5894 11.0625C89.5001 11.0124 89.4067 10.9683 89.3144 10.9221C89.213 10.87 89.1127 10.8159 89.0083 10.7707C88.9119 10.7276 88.8136 10.6915 88.7152 10.6534C88.6088 10.6123 88.5044 10.5692 88.396 10.5341C88.2957 10.5 88.1923 10.4739 88.0899 10.4448C87.9785 10.4137 87.8701 10.3816 87.7577 10.3556C87.6523 10.3315 87.546 10.3154 87.4396 10.2964C87.3262 10.2763 87.2117 10.2553 87.0953 10.2402C86.9869 10.2272 86.8775 10.2212 86.7681 10.2122C86.6296 10.2021 86.4941 10.1891 86.3536 10.1871H86.3295L76.028 1.71533C70.1405 2.74723 38.1007 7.11347 28.8559 8.73502Z" fill="white"/>
</mask>
<g mask="url(#mask2)">
<path fill-rule="evenodd" clip-rule="evenodd" d="M77.4237 9.23358C76.1942 6.69547 73.128 5.62848 70.5868 6.85792L59.1039 12.4105L30.8368 26.0788C28.2956 27.3073 27.2297 30.3729 28.4592 32.91L29.3775 34.8063L58.6181 20.6666L78.3421 11.1289L77.4237 9.23358Z" fill="white"/>
</g>
<mask id="mask3" mask-type="alpha" maskUnits="userSpaceOnUse" x="22" y="1" width="72" height="27">
<path d="M28.8559 8.73502L24.6466 21.2672C22.7667 21.8759 22.4616 23.5215 22.4771 24.3498C22.4771 25.6093 23.0969 26.4166 24.212 26.9411C24.6295 27.1376 25.0882 27.277 25.5469 27.3653C25.8199 27.4174 26.0256 27.4415 26.0798 27.4445H93.0681L93.0691 17.0373C93.0691 16.8036 93.0571 16.574 93.034 16.3464C93.0259 16.2711 93.0109 16.1999 93.0008 16.1267C92.9808 15.9753 92.9627 15.8229 92.9336 15.6745C92.9165 15.5882 92.8904 15.505 92.8704 15.4188C92.8372 15.2874 92.8091 15.155 92.77 15.0257C92.7419 14.9344 92.7068 14.8472 92.6747 14.7579C92.6325 14.6396 92.5944 14.5192 92.5472 14.4049C92.508 14.3117 92.4619 14.2234 92.4197 14.1332C92.3685 14.0259 92.3224 13.9165 92.2662 13.8123C92.22 13.723 92.1658 13.6398 92.1136 13.5525C92.0554 13.4522 91.9982 13.35 91.934 13.2527C91.8788 13.1684 91.8165 13.0902 91.7583 13.009C91.6891 12.9147 91.6248 12.8195 91.5516 12.7292C91.4893 12.65 91.4191 12.5778 91.3538 12.5026C91.2776 12.4153 91.2023 12.3271 91.122 12.2449C91.0527 12.1717 90.9755 12.1065 90.9032 12.0373C90.8199 11.9581 90.7386 11.8778 90.6503 11.8036C90.573 11.7374 90.4907 11.6793 90.4104 11.6171C90.3201 11.5459 90.2327 11.4747 90.1384 11.4085C90.0541 11.3493 89.9668 11.2982 89.8815 11.2441C89.7841 11.1829 89.6898 11.1197 89.5894 11.0625C89.5001 11.0124 89.4067 10.9683 89.3144 10.9221C89.213 10.87 89.1127 10.8159 89.0083 10.7707C88.9119 10.7276 88.8136 10.6915 88.7152 10.6534C88.6088 10.6123 88.5044 10.5692 88.396 10.5341C88.2957 10.5 88.1923 10.4739 88.0899 10.4448C87.9785 10.4137 87.8701 10.3816 87.7577 10.3556C87.6523 10.3315 87.546 10.3154 87.4396 10.2964C87.3262 10.2763 87.2117 10.2553 87.0953 10.2402C86.9869 10.2272 86.8775 10.2212 86.7681 10.2122C86.6296 10.2021 86.4941 10.1891 86.3536 10.1871H86.3295L76.028 1.71533C70.1405 2.74723 38.1007 7.11347 28.8559 8.73502Z" fill="white"/>
</mask>
<g mask="url(#mask3)">
<path fill-rule="evenodd" clip-rule="evenodd" d="M58.6177 20.6668L59.1035 12.4106L30.8364 26.079C28.2951 27.3074 27.2302 30.372 28.4587 32.9101L29.3771 34.8064L58.6177 20.6668Z" fill="#C6ECF6"/>
</g>
<path fill-rule="evenodd" clip-rule="evenodd" d="M91.0228 64.8277H88.344C87.7358 64.8277 87.1537 64.5871 86.7241 64.1609C86.2945 63.7337 86.0547 63.155 86.0567 62.5524V59.8979C86.0547 59.2962 86.2945 58.7176 86.7241 58.2904C87.1537 57.8632 87.7358 57.6235 88.344 57.6235H91.0228C91.631 57.6235 92.2141 57.8632 92.6437 58.2904C93.0722 58.7176 93.3121 59.2962 93.3101 59.8979V62.5524C93.3121 63.155 93.0722 63.7337 92.6437 64.1609C92.2141 64.5871 91.631 64.8277 91.0228 64.8277Z" fill="#6EE3FF"/>
<path fill-rule="evenodd" clip-rule="evenodd" d="M89.1288 63.1805H86.2242C85.5658 63.1805 84.9335 62.9167 84.4678 62.4474C84.0041 61.9781 83.7431 61.3413 83.7461 60.6785V57.7613C83.7431 57.0984 84.0041 56.4616 84.4678 55.9923C84.9335 55.523 85.5658 55.2593 86.2242 55.2593H89.1288C89.7872 55.2593 90.4195 55.523 90.8852 55.9923C91.3499 56.4616 91.6108 57.0984 91.6078 57.7613V60.6785C91.6108 61.3413 91.3499 61.9781 90.8852 62.4474C90.4195 62.9167 89.7872 63.1805 89.1288 63.1805Z" fill="#0F2B4A"/>
<path fill-rule="evenodd" clip-rule="evenodd" d="M27.3969 75.487C29.3249 76.2822 31.4216 77.1847 31.4216 79.3709C31.4216 81.4206 30.0978 82.8155 27.702 83.1555V86.2492H25.7459V83.2106L25.6867 83.2427C24.3287 83.1655 23.022 82.7102 21.9129 81.928L22.7951 80.3707C23.8299 81.1178 25.0724 81.5289 26.3511 81.55C28.252 81.55 29.3249 80.8681 29.3249 79.6627C29.3249 78.1855 27.3698 77.6942 25.512 76.8719C23.8299 76.1308 22.2441 75.1731 22.2441 73.0421C22.2441 71.7916 22.8915 70.7477 23.9945 70.1179C24.4843 69.8371 25.0544 69.6305 25.7138 69.5373V66.6873H27.6689V69.5052C28.8512 69.6295 29.9793 70.0648 30.9358 70.7657L29.9723 72.2419C29.0248 71.5499 27.8817 71.1709 26.7054 71.1608C26.1865 71.1608 25.7379 71.2391 25.3645 71.3835C24.6499 71.6582 24.2273 72.1827 24.2273 72.9398C24.2273 74.2274 25.7419 74.8 27.3969 75.487ZM37.8641 79.9886C38.0247 79.6928 38.2063 79.3648 38.4061 79.0098C38.9771 77.998 39.5793 76.9852 40.1845 76.0365C40.584 75.4128 40.9714 74.8371 41.3448 74.3187C42.8181 72.275 43.9121 71.225 45.0744 71.3253C45.1406 71.3313 45.2028 71.3484 45.2671 71.3604C44.2433 67.7382 42.1888 64.5543 39.4318 62.1265C39.4137 62.316 39.3585 62.5036 39.227 62.661C38.8768 63.0832 38.2485 63.1434 37.8239 62.7954C32.0218 58.0471 23.862 57.3782 17.3553 61.1177C16.722 61.4817 16.1258 61.8868 15.5507 62.316C10.6047 66.0124 7.89078 71.9982 8.43777 78.1565C8.86834 77.7423 9.37118 77.1567 9.93222 76.4156C10.2785 75.9583 10.6428 75.4499 11.0172 74.9003C11.6435 73.9838 12.2707 72.999 12.8679 72.0142C13.0777 71.6683 13.2684 71.3484 13.437 71.0606L13.5835 70.8078C13.6096 70.7657 13.6287 70.7306 13.6428 70.7056C13.9137 70.2292 14.523 70.0608 15.0017 70.3305C15.4815 70.5993 15.6511 71.204 15.3791 71.6803C15.3399 71.7505 15.2657 71.8789 15.1623 72.0574C14.9887 72.3532 14.7919 72.6821 14.5772 73.0371C13.9619 74.0499 13.3166 75.0638 12.6682 76.0114C12.2768 76.5871 11.8944 77.1206 11.526 77.6069C10.0547 79.5504 8.95165 80.6254 7.8707 80.7066C7.84963 80.7116 7.82755 80.7166 7.80446 80.7196C7.70911 80.7357 7.61577 80.7297 7.52344 80.7186C8.33138 84.399 10.1851 87.6912 12.7726 90.2604C12.8147 90.1631 12.8619 90.0679 12.9362 89.9856C13.3035 89.5775 13.9348 89.5444 14.3443 89.9094C20.1495 95.0829 28.6475 95.9584 35.3981 92.0785C37.9283 90.6244 39.9888 88.6218 41.5013 86.2933C43.8338 82.7032 44.8536 78.333 44.1932 73.9527C43.8318 74.3327 43.4183 74.8462 42.9677 75.4719C42.6174 75.9573 42.2501 76.5038 41.8697 77.0985C41.2855 78.0131 40.7014 78.9958 40.1464 79.9786C39.9517 80.3235 39.775 80.6434 39.6195 80.9292C39.5261 81.1007 39.4619 81.2221 39.4278 81.2842C39.1728 81.7696 38.5707 81.9561 38.0819 81.7024C37.5941 81.4487 37.4054 80.85 37.6613 80.3656C37.6985 80.2955 37.7667 80.1671 37.8641 79.9886Z" fill="white"/>
<path fill-rule="evenodd" clip-rule="evenodd" d="M7.80507 80.7199C7.82715 80.7169 7.85024 80.7119 7.87031 80.7058C8.95225 80.6256 10.0543 79.5506 11.5266 77.6072C11.894 77.1208 12.2764 76.5863 12.6688 76.0117C13.3162 75.063 13.9625 74.0502 14.5768 73.0363C14.7926 72.6823 14.9883 72.3524 15.1619 72.0566C15.2663 71.8791 15.3405 71.7507 15.3797 71.6805C15.6507 71.2042 15.4811 70.5995 15.0023 70.3308C14.5226 70.061 13.9143 70.2295 13.6424 70.7058C13.6293 70.7309 13.6092 70.765 13.5841 70.8081L13.4366 71.0608C13.268 71.3486 13.0783 71.6685 12.8685 72.0135C12.2704 72.9992 11.6431 73.984 11.0168 74.9006C10.6424 75.4501 10.2791 75.9575 9.93183 76.4158C9.37178 77.1559 8.86895 77.7415 8.43838 78.1567C7.89139 71.9984 10.6043 66.0126 15.5513 62.3163C16.1254 61.8871 16.7226 61.4819 17.3559 61.1179C23.8616 57.3784 32.0224 58.0473 37.8235 62.7956C38.2481 63.1436 38.8774 63.0834 39.2276 62.6612C39.3581 62.5028 39.4133 62.3163 39.4324 62.1267C39.4635 61.8099 39.3581 61.4839 39.0922 61.2663C32.6487 55.9925 23.5836 55.2505 16.3563 59.4031C10.252 62.9119 6.54448 69.2888 6.37987 76.113C6.18617 75.6326 5.98744 75.1021 5.78772 74.5275C5.42539 73.4826 5.07913 72.3594 4.76198 71.2353C4.64957 70.8412 4.55121 70.4762 4.46389 70.1482C4.4117 69.9527 4.37657 69.8143 4.3585 69.7421C4.22602 69.2116 3.68505 68.8877 3.1501 69.0201C2.61615 69.1514 2.28996 69.689 2.42345 70.2204C2.44252 70.2997 2.48066 70.4471 2.53385 70.6506C2.62418 70.9886 2.72555 71.3657 2.84097 71.7708C3.16816 72.929 3.52547 74.0883 3.90184 75.1733C4.55321 77.0446 5.19054 78.4997 5.82485 79.4243C6.23033 80.0159 6.64986 80.4271 7.14868 80.6066C7.25908 80.6677 7.38253 80.7018 7.512 80.7189C7.51602 80.7189 7.52003 80.7179 7.52405 80.7189C7.61638 80.7289 7.70872 80.7359 7.80507 80.7199ZM50.6381 81.6023C50.615 81.523 50.5708 81.3786 50.5066 81.1791C50.4032 80.8461 50.2828 80.4761 50.1513 80.078C49.7719 78.9398 49.3624 77.8006 48.9389 76.7336C48.4089 75.4039 47.893 74.2797 47.3952 73.4183C46.7067 72.23 46.0694 71.521 45.2665 71.3605C45.2032 71.3475 45.14 71.3315 45.0748 71.3254C43.9125 71.2242 42.8185 72.2751 41.3452 74.3188C40.9718 74.8363 40.5834 75.4129 40.1849 76.0366C39.5787 76.9853 38.9775 77.9982 38.4055 79.01C38.2057 79.365 38.0251 79.6929 37.8635 79.9887C37.7671 80.1672 37.6979 80.2956 37.6607 80.3658C37.4048 80.8501 37.5945 81.4488 38.0823 81.7025C38.5711 81.9562 39.1733 81.7697 39.4282 81.2844C39.4613 81.2222 39.5265 81.1009 39.6189 80.9294C39.7754 80.6426 39.9521 80.3237 40.1468 79.9787C40.7018 78.996 41.286 78.0122 41.8701 77.0986C42.2505 76.504 42.6178 75.9574 42.9671 75.4721C43.4187 74.8463 43.8322 74.3319 44.1936 73.9528C44.853 78.3331 43.8342 82.7033 41.5007 86.2934C39.9892 88.6219 37.9287 90.6246 35.3975 92.0786C28.6479 95.9575 20.1499 95.0821 14.3447 89.9096C13.9352 89.5435 13.3039 89.5776 12.9366 89.9848C12.8613 90.068 12.8141 90.1633 12.772 90.2605C12.7499 90.3137 12.7338 90.3668 12.7218 90.423C12.6415 90.7629 12.7308 91.134 13.0129 91.3837C19.4604 97.1298 28.8998 98.1025 36.3981 93.7934C42.9069 90.0519 46.6696 83.0694 46.3695 75.7859C46.6023 76.2904 46.8402 76.8519 47.0831 77.4616C47.4916 78.4895 47.889 79.5946 48.2564 80.6997C48.3858 81.0868 48.5013 81.4468 48.6026 81.7687C48.6629 81.9613 48.705 82.0976 48.7261 82.1678C48.8837 82.6923 49.4397 82.9912 49.9666 82.8347C50.4945 82.6783 50.7956 82.1257 50.6381 81.6023Z" fill="#EC0000"/>
<path fill-rule="evenodd" clip-rule="evenodd" d="M22.2443 73.0428C22.2443 75.1738 23.8301 76.1315 25.5122 76.8715C27.369 77.6939 29.3251 78.1862 29.3251 79.6624C29.3251 80.8688 28.2512 81.5497 26.3513 81.5497C25.0716 81.5286 23.8301 81.1175 22.7953 80.3714L21.9131 81.9287C23.0211 82.7099 24.3289 83.1652 25.6868 83.2424L25.7461 83.2103V86.2498H27.7012V83.1562C30.0979 82.8162 31.4218 81.4203 31.4218 79.3706C31.4218 77.1854 29.3251 76.2819 27.3971 75.4877C25.741 74.7997 24.2275 74.2271 24.2275 72.9395C24.2275 72.1834 24.6491 71.6579 25.3637 71.3832C25.737 71.2398 26.1867 71.1605 26.7046 71.1605C27.8819 71.1716 29.025 71.5496 29.9725 72.2426L30.936 70.7654C29.9795 70.0655 28.8514 69.6302 27.6691 69.5059V66.688H25.7139V69.538C25.0545 69.6312 24.4835 69.8378 23.9947 70.1176C22.8917 70.7474 22.2443 71.7913 22.2443 73.0428Z" fill="#EC0000"/>
<path fill-rule="evenodd" clip-rule="evenodd" d="M107.152 15.806L106.232 16.7256L105.091 15.5864L103.958 16.7186L103.033 15.793L104.165 14.6608L103.026 13.5226L103.947 12.603L105.085 13.7412L106.219 12.609L107.145 13.5346L106.012 14.6668L107.152 15.806Z" fill="#6EE3FF"/>
</svg>
