<svg width="132" height="114" viewBox="0 0 132 114" fill="none" xmlns="http://www.w3.org/2000/svg">
<path fill-rule="evenodd" clip-rule="evenodd" d="M57.5988 109.591C100.239 115.079 109.121 108.016 117.916 99.9682C134.951 84.3845 134.951 47.916 111.315 41.5373C86.9343 39.8045 102.882 3.16895 55.035 3.16895C25.0548 3.16895 6.22363 21.613 6.22363 44.3658C6.22363 67.1186 14.9596 104.103 57.5988 109.591Z" fill="#262626"/>
<path fill-rule="evenodd" clip-rule="evenodd" d="M124.783 3.16414C123.918 1.86475 122.507 0.954077 120.549 0.431139C118.282 -0.173322 116.061 -0.142503 113.884 0.525586L114.678 4.23984C116.317 3.77854 117.777 3.71889 119.058 4.05989C119.828 4.26668 120.332 4.6395 120.568 5.18133C120.804 5.72316 120.826 6.3485 120.637 7.05635C120.429 7.82883 120.136 8.43329 119.758 8.86974C119.379 9.30618 118.633 9.84801 117.517 10.4962C116.352 11.1414 115.489 11.8075 114.93 12.4925C114.37 13.1775 113.95 14.0425 113.668 15.0883L113.361 16.2326L117.562 17.3531L117.83 16.3569C118.028 15.6162 118.296 15.0605 118.631 14.6887C118.966 14.3168 119.639 13.8396 120.647 13.2571C122.21 12.3663 123.303 11.5411 123.928 10.7796C124.553 10.019 125.031 9.01687 125.365 7.77514C125.843 6.00053 125.648 4.46353 124.783 3.16414ZM115.028 19.8118C114.077 19.5583 113.288 19.602 112.66 19.945C112.033 20.288 111.6 20.9014 111.363 21.7862C111.128 22.6601 111.198 23.4047 111.573 24.0211C111.948 24.6375 112.606 25.072 113.546 25.3225C114.485 25.573 115.273 25.5194 115.911 25.1615C116.548 24.8036 116.981 24.1991 117.21 23.3481C117.442 22.4851 117.377 21.7445 117.015 21.1251C116.653 20.5067 115.991 20.0683 115.028 19.8118Z" fill="#A6A6A6"/>
<path fill-rule="evenodd" clip-rule="evenodd" d="M106.072 105.857L106.343 104.845C106.593 103.92 106.958 103.153 107.439 102.543C107.922 101.934 108.659 101.339 109.655 100.758C110.608 100.175 111.248 99.6902 111.572 99.3025C111.898 98.9137 112.152 98.3779 112.336 97.6939C112.504 97.0676 112.492 96.5168 112.296 96.0406C112.101 95.5653 111.677 95.2412 111.025 95.0663C109.94 94.777 108.7 94.8436 107.306 95.2671L106.669 91.9992C108.522 91.3888 110.408 91.3391 112.326 91.8511C113.983 92.2935 115.171 93.0839 115.894 94.2212C116.614 95.3586 116.765 96.7126 116.343 98.2824C116.046 99.381 115.63 100.269 115.093 100.947C114.555 101.624 113.619 102.363 112.286 103.164C111.423 103.687 110.848 104.114 110.561 104.445C110.272 104.776 110.041 105.27 109.864 105.925L109.628 106.807L106.072 105.857ZM104.322 110.775C104.533 109.993 104.906 109.447 105.441 109.139C105.977 108.831 106.648 108.784 107.452 108.999C108.267 109.215 108.825 109.596 109.127 110.138C109.428 110.681 109.476 111.333 109.27 112.097C109.069 112.849 108.694 113.387 108.151 113.708C107.606 114.031 106.936 114.086 106.141 113.873C105.345 113.661 104.792 113.286 104.479 112.745C104.168 112.205 104.115 111.549 104.322 110.775Z" fill="#7F7F7F"/>
<path fill-rule="evenodd" clip-rule="evenodd" d="M31.2267 32.2217L30.9423 31.4422C30.6818 30.7294 30.56 30.0703 30.576 29.4638C30.591 28.8564 30.7646 28.1485 31.0959 27.3393C31.4033 26.5469 31.566 25.9544 31.5869 25.5597C31.6079 25.166 31.5221 24.7047 31.3305 24.1788C31.1538 23.6956 30.9033 23.3407 30.579 23.114C30.2537 22.8873 29.8615 22.8575 29.3994 23.0245C28.632 23.3029 27.9305 23.8805 27.2938 24.7594L25.4785 22.8953C26.3038 21.6973 27.3946 20.8512 28.7528 20.3601C29.9234 19.9346 30.9732 19.9386 31.9003 20.3721C32.8274 20.8055 33.511 21.6267 33.9521 22.8366C34.2624 23.6827 34.4071 24.4432 34.3882 25.1173C34.3692 25.7933 34.1427 26.6801 33.7066 27.7797C33.4291 28.4935 33.2784 29.0214 33.2535 29.3624C33.2295 29.7034 33.3094 30.1259 33.493 30.63L33.7425 31.31L31.2267 32.2217ZM32.3201 35.9829C32.0996 35.3804 32.0916 34.8584 32.2932 34.418C32.4938 33.9766 32.8999 33.6465 33.5097 33.4248C34.1284 33.2011 34.6553 33.1982 35.0924 33.4149C35.5305 33.6326 35.8568 34.0353 36.0714 34.6228C36.2839 35.2024 36.2889 35.7194 36.0874 36.1727C35.8858 36.6261 35.4846 36.9621 34.8818 37.1808C34.2791 37.3996 33.7562 37.4035 33.3121 37.1918C32.869 36.981 32.5387 36.5784 32.3201 35.9829Z" fill="#BFBFBF"/>
<path fill-rule="evenodd" clip-rule="evenodd" d="M15.48 63.4762H2.39298C-1.64171e-05 62.2216 -0.597858 61.5943 0.597678 61.5943H6.47058L5.12136 58.2866H15.48C16.6227 61.7464 16.6227 63.4762 15.48 63.4762ZM117.758 65.1374H129.799C132 63.8828 132.55 63.2554 131.45 63.2554H126.048L127.289 59.9478H117.758C116.709 63.4075 116.709 65.1374 117.758 65.1374Z" fill="#E5E5E5"/>
<path fill-rule="evenodd" clip-rule="evenodd" d="M81.9833 96.8225L86.5779 68.2399L103.085 81.7309L117.269 65.7604L116.088 59.8967L101.925 69.924L84.563 48.0809L75.3979 45.2057L68.0411 50.8845L60.4018 44.5366L49.7308 47.4804L32.1371 69.9707L17.1829 58.3219C16.0562 60.703 15.4065 62.6416 15.2339 64.1359C15.0613 65.6301 15.3706 65.8449 16.159 64.7801L30.8697 81.7309L47.6541 71.1946L52.4991 100.758" fill="white"/>
<path fill-rule="evenodd" clip-rule="evenodd" d="M61.0097 46.0645L49.0344 48.0528L32.0693 69.9248L49.5703 55.4545L64.0035 48.0528L61.0097 46.0645Z" fill="#E5E5E5"/>
<path fill-rule="evenodd" clip-rule="evenodd" d="M102.924 81.8547L116.966 66.0691L115.785 60.8129L101.633 71.8165L84.2942 47.5913L66.6445 99.0202L81.8482 96.8092L84.2942 71.8165L102.924 81.8547Z" fill="#E5E5E5"/>
<path fill-rule="evenodd" clip-rule="evenodd" d="M74.6687 28.6801C74.6687 29.3422 74.6028 30.0063 74.498 30.6625L75.505 29.8283C75.491 28.8103 75.3283 26.4879 75.1846 25.1219L74.5499 24.0024C74.6747 25.4579 74.6687 27.0397 74.6687 28.6801Z" fill="#CCCCCC"/>
<path fill-rule="evenodd" clip-rule="evenodd" d="M74.55 24.0028L73.8694 22.8018L72.7488 21.5074L72.6879 21.4428C71.8845 21.4398 71.1131 21.4199 70.3876 21.3742C67.8039 21.2131 65.7113 20.7856 64.1086 20.0907C62.4151 19.357 60.7535 20.4625 59.1228 23.3944L58.9372 26.3749C58.9053 26.9038 58.4213 27.2886 57.8964 27.2021C57.8455 27.1941 57.7916 27.1902 57.7357 27.1902C57.3186 27.1902 56.8595 28.5989 57.2108 30.0067C57.2966 30.3516 57.6429 30.8209 58.2766 31.3747C58.3754 31.4592 58.4532 31.5655 58.5061 31.6838L60.8812 37.0017C60.9321 37.116 60.9591 37.2393 60.9591 37.3646V44.5893L63.2433 46.4037C63.6315 46.7119 63.6954 47.2746 63.3851 47.6613C63.3391 47.72 63.2763 47.7577 63.2194 47.8015L67.4587 50.2462L72.6819 45.6043V36.2958V33.8094C72.6819 33.7269 72.6939 33.6444 72.7168 33.5648L73.2407 31.7286C73.3565 31.3259 73.6639 31.1191 73.9912 31.0834L74.4991 30.6628C74.6029 30.0077 74.6689 29.3426 74.6689 28.6804C74.6689 27.04 74.6758 25.4583 74.55 24.0028Z" fill="#E5E5E5"/>
<path fill-rule="evenodd" clip-rule="evenodd" d="M72.6875 21.4429L72.7494 21.5075L73.8691 22.8019L73.1007 21.4468C72.9589 21.4478 72.8272 21.4429 72.6875 21.4429Z" fill="#F6C7B4"/>
<path fill-rule="evenodd" clip-rule="evenodd" d="M72.9448 18.9249C73.5086 19.3942 74.0475 19.9251 74.5505 20.3287C73.3869 17.9337 71.6555 16.18 69.3292 14.812C70.2054 15.6938 71.0826 16.5777 71.9628 17.4615C71.1495 16.9674 70.3412 16.4703 69.5318 15.9772C69.8552 16.3818 70.1785 16.7865 70.5008 17.1911C70.6266 17.3492 70.7523 17.5062 70.8781 17.6633C70.882 17.6683 70.885 17.6733 70.888 17.6782C70.883 17.6723 70.8761 17.6683 70.8701 17.6633C70.7443 17.5579 70.6086 17.4635 70.4769 17.3631C69.4959 16.6115 68.3942 16.006 67.2146 15.5944C67.038 15.5308 66.8603 15.4731 66.6787 15.4204C67.6806 16.1074 68.6297 16.865 69.5398 17.6633C69.6426 17.7548 69.7534 17.8403 69.8552 17.9337C70.9579 18.9289 71.9888 19.9986 72.9258 21.141C72.5466 20.0692 72.1644 19.0641 71.6335 18.055C71.854 18.1525 72.0716 18.2827 72.2881 18.4278C72.5097 18.578 72.7292 18.745 72.9448 18.9249Z" fill="#0F2B4A"/>
<path fill-rule="evenodd" clip-rule="evenodd" d="M81.8477 96.8101L66.645 99.0202L53.1508 100.982L52.4922 108.731C54.1438 109.063 55.8323 109.364 57.5977 109.59C68.2318 110.959 78.0026 111.547 84.9603 111.534L81.8637 96.8081L81.8477 96.8101Z" fill="#4C4C4C"/>
<path fill-rule="evenodd" clip-rule="evenodd" d="M102.038 69.0471L84.7587 47.4485L74.4789 44.643V33.9347L74.8242 32.7198L76.9817 30.9342C77.1873 30.7632 77.3061 30.5097 77.3051 30.2433C77.3021 28.9896 77.2462 27.9656 77.1324 27.1186C77.5036 25.6134 77.6992 23.7373 77.6992 21.4478C77.6992 17.2464 76.2812 12.8362 71.1338 12.8362C65.9864 12.8362 64.9605 11.5765 59.9987 13.9268C56.6915 15.4926 55.2725 17.5476 55.7425 20.0907L55.7634 26.7666C55.2655 27.7568 55.1447 29.1397 55.4671 30.4371C55.6457 31.1569 56.1457 31.8618 56.943 32.5865L59.1624 37.5555V44.9323L49.1092 47.4366L46.1413 50.9292C45.8209 51.3069 45.8678 51.8716 46.2471 52.1908C46.6253 52.5099 47.1921 52.4632 47.5114 52.0854L50.1061 49.0323L59.1624 46.7765L60.4338 46.4603L60.9587 46.8779L62.1233 47.8025C62.4517 48.0639 62.8987 48.044 63.2191 47.8015C63.276 47.7567 63.3388 47.7199 63.3857 47.6613C63.6951 47.2746 63.6312 46.7118 63.243 46.4037L60.9587 44.5883V37.3646C60.9587 37.2393 60.9328 37.116 60.8809 37.0017L58.5058 31.6838C58.4529 31.5655 58.3751 31.4591 58.2763 31.3736C57.6426 30.8209 57.2963 30.3516 57.2105 30.0057C56.8602 28.5989 57.3182 27.1901 57.7354 27.1901C57.7913 27.1901 57.8452 27.1941 57.896 27.2021C58.421 27.2886 58.905 26.9038 58.9379 26.3749L59.1225 23.3944C60.7532 20.4625 62.4147 19.357 64.1082 20.0907C65.7109 20.7856 67.8036 21.2131 70.3873 21.3742C71.1128 21.4199 71.8842 21.4398 72.6876 21.4428C72.8273 21.4438 72.959 21.4487 73.1017 21.4478L73.8691 22.8018L74.5497 24.0028L75.1854 25.1222C75.3281 26.4882 75.4918 28.8106 75.5058 29.8287L74.4988 30.6628C74.1496 32.8679 73.3213 34.9418 72.6816 36.2958V45.6043L67.4583 50.2462L67.2667 50.4162C66.8396 50.442 66.5073 50.7611 66.4454 51.1737C66.4394 51.2165 66.4215 51.2552 66.4215 51.3V53.2714V56.2401C66.4215 56.7342 66.8227 57.1348 67.3186 57.1348C67.8146 57.1348 68.2168 56.7342 68.2168 56.2401V54.3949V52.2812V51.9184C68.2727 51.8875 68.3325 51.8677 68.3814 51.8229L72.6816 48.0023L74.4 46.4762L74.4789 46.4981L83.7198 49.0203L101.666 71.452L116.465 61.549V64.7403C112.048 70.1307 108.572 74.2118 106.039 76.9806C103.65 79.5904 102.037 81.0627 101.68 81.1323C101.379 81.191 99.7308 80.3867 97.243 78.7712C94.5146 76.9995 90.7284 74.2685 85.8904 70.5821L84.6439 69.6327L81.212 97.6268C81.1811 97.8793 81.2619 98.1179 81.4116 98.2998L83.8995 111.532C84.4912 111.53 85.0611 111.52 85.6319 111.509L83.0432 97.7481L83.0063 97.75L86.047 72.9512C95.4227 80.0467 100.381 83.2082 102.024 82.889C103.661 82.5699 108.658 77.1099 118.06 65.6251L118.262 65.3786V58.1906L102.038 69.0471Z" fill="#4C4C4C"/>
<path fill-rule="evenodd" clip-rule="evenodd" d="M72.9448 18.9249C73.5086 19.3942 74.0475 19.9251 74.5505 20.3287C73.3869 17.9337 71.6555 16.18 69.3292 14.812C70.2054 15.6938 71.0826 16.5777 71.9628 17.4615C71.1495 16.9674 70.3412 16.4703 69.5318 15.9772C69.8552 16.3818 70.1785 16.7865 70.5008 17.1911C70.6266 17.3492 70.7523 17.5062 70.8781 17.6633C70.882 17.6683 70.885 17.6733 70.888 17.6782C70.883 17.6723 70.8761 17.6683 70.8701 17.6633C70.7443 17.5579 70.6086 17.4635 70.4769 17.3631C69.4959 16.6115 68.3942 16.006 67.2146 15.5944C67.038 15.5308 66.8603 15.4731 66.6787 15.4204C67.6806 16.1074 68.6297 16.865 69.5398 17.6633C69.6426 17.7548 69.7534 17.8403 69.8552 17.9337C70.9579 18.9289 71.9888 19.9986 72.9258 21.141C72.5466 20.0692 72.1644 19.0641 71.6335 18.055C71.854 18.1525 72.0716 18.2827 72.2881 18.4278C72.5097 18.578 72.7292 18.745 72.9448 18.9249Z" fill="#5C5C5C"/>
<path fill-rule="evenodd" clip-rule="evenodd" d="M51.7699 94.6823C51.3049 94.7638 50.9955 95.2042 51.0774 95.6665L51.735 99.4006L51.0664 108.431C51.6222 108.554 52.1821 108.673 52.7499 108.786L53.4525 99.3152L52.7569 95.3722C52.6761 94.9099 52.238 94.6027 51.7699 94.6823ZM50.4914 81.8496L48.251 69.6391L47.0714 70.6015C38.1907 77.854 32.6132 81.4251 31.0724 81.1318C29.4727 80.8266 24.2135 75.2632 15.9236 64.872L17.5163 59.7241L30.9985 71.5231L37.559 63.8003C37.8794 63.4235 37.8324 62.8588 37.4542 62.5396C37.076 62.2205 36.5082 62.2672 36.1878 62.645L30.8089 68.976L16.6162 56.5547L13.9287 65.2468L14.2221 65.6156C23.1607 76.8449 28.4468 82.4531 30.7351 82.8895C33.0024 83.321 38.2187 80.0601 47.0305 72.9437L48.724 82.1717C48.8128 82.6579 49.2809 82.98 49.7689 82.8905C50.2578 82.802 50.5802 82.3358 50.4914 81.8496ZM51.463 87.5031L51.1127 85.1568C51.0408 84.6687 50.5738 84.3297 50.0928 84.4033C49.6018 84.4758 49.2635 84.9312 49.3353 85.4203L49.6856 87.7666C49.7515 88.21 50.1357 88.5291 50.5728 88.5291C50.6167 88.5291 50.6616 88.5261 50.7055 88.5192C51.1965 88.4476 51.5348 87.9922 51.463 87.5031Z" fill="#4C4C4C"/>
<path fill-rule="evenodd" clip-rule="evenodd" d="M74.5496 24.0026L73.869 22.8017L72.7483 21.5072L72.6874 21.4426C71.8841 21.4396 71.1127 21.4198 70.3872 21.374C70.7724 21.4854 71.1266 21.5778 71.41 21.6206C72.0976 21.7339 71.9 23.8436 72.3661 24.4053C72.4309 24.5405 72.4918 24.6856 72.5607 24.8169C73.6135 26.9961 72.8102 30.4698 72.0527 32.8369C71.6046 34.4713 70.0878 35.7499 69.0329 37.2113C67.9083 38.9074 66.0601 38.8169 64.0771 39.1907C64.7039 39.8031 65.4024 40.6054 65.4024 41.0757H68.499C69.1647 40.8689 71.8631 37.8754 71.8631 37.8754C71.8631 37.8754 72.2224 37.27 72.6814 36.2957C73.3211 34.9416 74.1494 32.8677 74.4987 30.6626C74.6025 30.0075 74.6684 29.3424 74.6684 28.6803C74.6684 27.0399 74.6753 25.4581 74.5496 24.0026Z" fill="#BFBFBF"/>
</svg>
