<svg width="138" height="106" viewBox="0 0 138 106" fill="none" xmlns="http://www.w3.org/2000/svg">
<path fill-rule="evenodd" clip-rule="evenodd" d="M101.001 94.5229C101.001 94.5229 104.012 94.5229 101.001 94.5229C84.4175 94.5229 70.2694 95.4744 44.96 103.539C8.17218 115.261 7.73059 82.2472 14.5111 64.8969C-8.24109 55.0118 -0.058541 23.3061 10.8318 11.5633C18.8608 2.90529 29.715 -0.889913 43.3924 0.175689C48.552 0.175689 56.5308 3.59651 67.3308 10.4372C80.9621 19.072 86.8072 19.0205 98.8828 21.1477C145.059 29.282 143.031 66.575 129.754 80.4228C121.074 89.4774 111.038 94.5229 101.001 94.5229Z" fill="#262626"/>
<path fill-rule="evenodd" clip-rule="evenodd" d="M13.7515 66.8637V74.0555V74.7892C13.7555 79.2261 16.391 83.0324 20.1586 84.7136C21.4774 85.3029 22.9326 85.6369 24.4682 85.6379H105.086C110.998 85.6258 115.787 80.7751 115.793 74.7902V26.9824C115.787 20.9914 110.992 16.1397 105.076 16.1336H50.3898C49.891 16.1336 49.4855 15.7269 49.4855 15.2254C49.4855 15.2062 49.4966 15.1891 49.4976 15.1699H44.3851C44.3861 15.1891 44.3962 15.2062 44.3962 15.2254C44.3962 15.7269 43.9927 16.1336 43.4939 16.1336H37.7752H24.4692C21.4061 16.1366 18.6502 17.4464 16.6971 19.5332C14.8776 21.4757 13.7545 24.0933 13.7515 26.9814V31.9592V47.0956V50.3166C13.7515 50.6809 13.5337 50.9917 13.2256 51.136V54.4882C13.5337 54.6325 13.7515 54.9433 13.7515 55.3076V55.568V56.1754V57.4106C13.7515 57.7758 13.5337 58.0856 13.2256 58.2299V66.0444C13.5337 66.1887 13.7515 66.4995 13.7515 66.8637Z" fill="white"/>
<path fill-rule="evenodd" clip-rule="evenodd" d="M13.7519 57.4105V56.1754V55.5679V55.3076C13.7519 54.9433 13.5341 54.6325 13.226 54.4882C13.1095 54.4347 12.9841 54.3994 12.8486 54.3994C12.7894 54.3994 12.7382 54.4226 12.683 54.4327C12.2665 54.5134 11.9443 54.8656 11.9443 55.3076V55.5679V56.1754V57.4105C11.9443 57.8525 12.2665 58.2047 12.683 58.2854C12.7382 58.2955 12.7894 58.3187 12.8486 58.3187C12.9841 58.3187 13.1095 58.2844 13.226 58.2299C13.5341 58.0856 13.7519 57.7758 13.7519 57.4105Z" fill="#4C4C4C"/>
<path fill-rule="evenodd" clip-rule="evenodd" d="M43.9312 85.638H105.087C110.997 85.6259 115.788 80.7752 115.794 74.7903V47.0957H65.8915L43.9312 85.638Z" fill="#E5E5E5"/>
<path fill-rule="evenodd" clip-rule="evenodd" d="M105.078 14.3174H50.3903C49.9105 14.3174 49.5282 14.6958 49.4981 15.1701C49.4971 15.1892 49.486 15.2054 49.486 15.2256C49.486 15.7271 49.8915 16.1338 50.3903 16.1338H105.077C110.992 16.1398 115.787 20.9915 115.793 26.9825V74.7903C115.787 80.7752 110.997 85.626 105.087 85.6381H24.4687C22.9331 85.636 21.4779 85.303 20.1591 84.7137C16.3915 83.0326 13.756 79.2263 13.752 74.7893V74.0557V66.8639C13.752 66.4986 13.5342 66.1888 13.2251 66.0445C13.1096 65.991 12.9842 65.9557 12.8487 65.9557C12.7895 65.9557 12.7383 65.9779 12.6821 65.989C12.2656 66.0697 11.9444 66.4209 11.9444 66.8639V74.7903C11.9525 81.7803 17.5527 87.4474 24.4677 87.4544H105.089C111.999 87.4403 117.593 81.7763 117.6 74.7913V26.9815C117.593 19.9905 111.992 14.3244 105.078 14.3174ZM13.7519 50.3162V47.0951V31.9588V26.9809C13.7549 24.0929 14.8779 21.4763 16.6975 19.5328C18.6506 17.446 21.4065 16.1362 24.4696 16.1331H37.7756H43.4943C43.9931 16.1331 44.3965 15.7275 44.3965 15.226C44.3965 15.2058 44.3865 15.1886 44.3855 15.1695C44.3554 14.6962 43.973 14.3178 43.4943 14.3178H24.4686C17.5526 14.3249 11.9524 19.9909 11.9443 26.9799V50.3162C11.9443 50.7582 12.2665 51.1103 12.683 51.1911C12.7382 51.2011 12.7894 51.2244 12.8486 51.2244C12.9841 51.2244 13.1095 51.19 13.226 51.1356C13.5341 50.9913 13.7519 50.6815 13.7519 50.3162Z" fill="#4C4C4C"/>
<path fill-rule="evenodd" clip-rule="evenodd" d="M13.752 47.0954H16.6976V31.959H13.752V47.0954Z" fill="#A6A6A6"/>
<path fill-rule="evenodd" clip-rule="evenodd" d="M105.076 16.1338H83.5306L74.515 31.9594H115.793V26.9825C115.787 20.9916 110.992 16.1398 105.076 16.1338ZM13.7515 50.3164C13.7515 50.8179 13.347 51.2246 12.8482 51.2246C12.789 51.2246 12.7378 51.2014 12.6826 51.1913V54.4335C12.7378 54.4224 12.789 54.3992 12.8482 54.3992C13.347 54.3992 13.7515 54.8059 13.7515 55.3074V55.5677V56.1752V57.4103C13.7515 57.9119 13.347 58.3185 12.8482 58.3185C12.789 58.3185 12.7378 58.2963 12.6826 58.2852V65.9897C12.7378 65.9785 12.789 65.9563 12.8482 65.9563C13.347 65.9563 13.7515 66.362 13.7515 66.8635V74.0553V74.7899C13.7555 79.2259 16.391 83.0322 20.1586 84.7144C21.3901 85.1745 22.7159 85.4399 24.1049 85.4409H27.2552C21.3489 84.9515 16.7031 79.9585 16.6971 73.8586V47.0954H13.7515V50.3164ZM16.6966 19.5331C14.878 21.4766 13.754 24.0932 13.751 26.9812V31.9591H16.6966V19.5331Z" fill="#E5E5E5"/>
<path fill-rule="evenodd" clip-rule="evenodd" d="M16.6968 47.0954H115.052V31.959H16.6968V47.0954Z" fill="#4C4C4C"/>
<path fill-rule="evenodd" clip-rule="evenodd" d="M65.8911 47.0954H116.171V31.959H74.5153L65.8911 47.0954Z" fill="#404040"/>
<path fill-rule="evenodd" clip-rule="evenodd" d="M79.4278 62.4012L78.3198 63.5153L76.9569 62.1459L75.5899 63.5203L74.4819 62.4073L75.8499 61.0329L74.487 59.6625L75.596 58.5485L76.9579 59.9189L78.3258 58.5435L79.4328 59.6565L78.0659 61.0319L79.4278 62.4012Z" fill="#4C4C4C"/>
<path fill-rule="evenodd" clip-rule="evenodd" d="M128.749 17.0333L127.559 18.2301L125.602 16.2623L123.65 18.226L122.454 17.0232L124.406 15.0605L122.449 13.0928L123.64 11.896L125.597 13.8627L127.55 11.9L128.745 13.1019L126.793 15.0656L128.749 17.0333Z" fill="#999999"/>
<path fill-rule="evenodd" clip-rule="evenodd" d="M99.4284 72.9063V60.3047C99.4144 59.1402 99.593 57.9818 99.9563 56.8758C100.273 55.9233 100.778 55.0453 101.442 54.2946C102.096 53.5741 102.9 53.006 103.796 52.6306C104.066 52.5236 104.342 52.4328 104.62 52.3551C104.627 52.3531 104.634 52.3521 104.64 52.3501C104.913 52.2754 105.189 52.2128 105.468 52.1634C107.031 51.8879 108.652 52.0413 110.151 52.6306C111.028 53.011 111.813 53.5761 112.454 54.2885C113.118 55.0383 113.623 55.9172 113.939 56.8698C114.302 57.9778 114.481 59.1382 114.467 60.3047V72.9063H99.4284ZM110.696 88.9892C110.702 89.7571 110.404 90.4958 109.866 91.0407C109.328 91.5866 108.597 91.8924 107.833 91.8924H106.027C104.749 91.8894 103.68 91.0397 103.315 89.8742C103.314 89.8742 103.314 89.8742 103.314 89.8742C103.275 89.747 103.243 89.6179 103.217 89.4857C103.189 89.3343 103.171 89.1799 103.171 89.0205V82.9215C103.173 81.3363 104.451 80.0527 106.027 80.0497H107.541H107.833C109.411 80.0497 110.693 81.3342 110.696 82.9215V88.9892ZM125.203 72.9083C125.195 72.9083 125.188 72.9063 125.181 72.9063H122.193V60.7487C122.225 58.5318 121.892 56.3259 121.204 54.2189C120.569 52.3158 119.557 50.5619 118.227 49.0634C116.897 47.5962 115.266 46.4398 113.446 45.6719C111.736 44.9897 109.943 44.6073 108.138 44.5054C108.216 44.5256 108.293 44.5518 108.373 44.573C105.778 44.354 103.148 44.7284 100.687 45.7092C98.8664 46.4771 97.2345 47.6346 95.9047 49.1008C94.5829 50.6013 93.5763 52.3551 92.947 54.2572C92.2535 56.3602 91.9103 58.5641 91.9343 60.779V72.9063H89.073H88.6856C87.3438 72.9063 86.2568 74.0001 86.2568 75.3483V92.627C86.2588 95.0256 87.3568 97.1659 89.073 98.5716C90.3847 99.6462 92.0578 100.293 93.8834 100.295H119.984C122.006 100.293 123.839 99.4959 125.203 98.2032C126.679 96.8067 127.606 94.8319 127.61 92.6331V75.3483C127.61 74.0072 126.534 72.9214 125.203 72.9083Z" fill="#A6A6A6"/>
<path fill-rule="evenodd" clip-rule="evenodd" d="M88.6856 72.9062C87.3438 72.9062 86.2568 74.0001 86.2568 75.3483V92.627C86.2588 95.0256 87.3568 97.1659 89.073 98.5715V72.9062H88.6856Z" fill="#BFBFBF"/>
<path fill-rule="evenodd" clip-rule="evenodd" d="M125.203 72.9087V98.2036C126.679 96.807 127.606 94.8312 127.609 92.6324V75.3487C127.609 74.0076 126.533 72.9208 125.203 72.9087ZM107.832 80.0492H107.54H106.027C104.45 80.0523 103.172 81.3368 103.169 82.9221V89.0211C103.169 89.1805 103.188 89.3349 103.217 89.4863C103.243 89.6175 103.275 89.7476 103.314 89.8738C103.314 89.8748 103.314 89.8748 103.315 89.8748C103.679 91.0393 104.748 91.8899 106.027 91.893H107.832C108.596 91.893 109.328 91.5862 109.866 91.0413C110.404 90.4954 110.702 89.7567 110.696 88.9888V82.9221C110.693 81.3338 109.411 80.0492 107.832 80.0492Z" fill="#7F7F7F"/>
<path fill-rule="evenodd" clip-rule="evenodd" d="M106.856 89.0227C107.393 88.4768 107.692 87.7391 107.685 86.9702V80.9035C107.685 80.6038 107.627 80.3203 107.541 80.0488H106.028C104.451 80.0529 103.173 81.3364 103.17 82.9217V89.0207C103.17 89.1801 103.189 89.3345 103.218 89.4859C103.243 89.6181 103.276 89.7472 103.315 89.8744H103.316H104.822C105.585 89.8744 106.318 89.5686 106.856 89.0227Z" fill="#404040"/>
<path fill-rule="evenodd" clip-rule="evenodd" d="M121.204 54.2194C120.569 52.3162 119.557 50.5614 118.228 49.0629C116.898 47.5967 115.266 46.4403 113.446 45.6724C111.735 44.9902 109.943 44.6068 108.137 44.5059C108.217 44.526 108.294 44.5523 108.373 44.5725C105.779 44.3545 103.148 44.7279 100.687 45.7087C98.8668 46.4766 97.2349 47.634 95.9051 49.1003C94.5833 50.6008 93.5767 52.3546 92.9474 54.2567C92.2529 56.3597 91.9107 58.5635 91.9348 60.7795V72.9068H96.418H99.4288V60.3052C99.4148 59.1407 99.5934 57.9823 99.9567 56.8763C100.274 55.9227 100.778 55.0448 101.442 54.2951C102.096 53.5746 102.9 53.0065 103.796 52.6311C104.067 52.5241 104.342 52.4323 104.621 52.3556C104.627 52.3536 104.634 52.3526 104.641 52.3506C104.914 52.2749 105.19 52.2133 105.468 52.1639C107.031 51.8884 108.652 52.0408 110.151 52.6311C111.028 53.0115 111.814 53.5766 112.454 54.288C113.117 55.0388 113.622 55.9167 113.939 56.8693C114.303 57.9773 114.481 59.1387 114.467 60.3052V72.9068H119.181H122.192V60.7482C122.225 58.5323 121.892 56.3254 121.204 54.2194Z" fill="#A6A6A6"/>
<path fill-rule="evenodd" clip-rule="evenodd" d="M114.986 48.5609C116.035 49.7426 116.877 51.0887 117.501 52.5367C117.762 53.0837 118 53.6417 118.193 54.2189C118.88 56.3259 119.213 58.5318 119.181 60.7487V72.9063H122.192V60.7487C122.224 58.5318 121.891 56.3259 121.203 54.2189C120.568 52.3158 119.556 50.5619 118.227 49.0634C116.897 47.5962 115.265 46.4398 113.445 45.6719C111.735 44.9897 109.943 44.6073 108.137 44.5054C108.215 44.5256 108.293 44.5518 108.372 44.573C108.989 44.7385 109.603 44.9302 110.204 45.1704C112.024 45.9373 113.656 47.0947 114.986 48.5609ZM99.956 56.876C100.272 55.9235 100.777 55.0455 101.44 54.2948C102.096 53.5743 102.9 53.0062 103.795 52.6308C104.066 52.5238 104.341 52.433 104.619 52.3553C104.626 52.3533 104.633 52.3523 104.64 52.3503C104.912 52.2746 105.189 52.213 105.467 52.1636C103.903 51.8881 102.282 52.0405 100.784 52.6308C99.8888 53.0062 99.0849 53.5743 98.4295 54.2948C97.7661 55.0455 97.2613 55.9235 96.9452 56.876C96.5819 57.982 96.4032 59.1404 96.4173 60.3049V72.9065H99.4281V60.3049C99.4141 59.1404 99.5927 57.982 99.956 56.876Z" fill="#7F7F7F"/>
</svg>
