<svg width="118" height="106" viewBox="0 0 118 106" fill="none" xmlns="http://www.w3.org/2000/svg">
<path fill-rule="evenodd" clip-rule="evenodd" d="M59.6599 99.177C100.412 98.7179 119.816 86.098 117.867 61.3182C114.945 24.1485 84.2094 31.7648 73.8494 23.0796C63.4884 14.3955 78.4866 29.0395 55.3373 8.90368C39.9044 -4.51989 24.8238 -2.76598 10.0945 14.1664C-3.40525 30.5403 -3.36456 48.0212 10.2156 66.6091C23.7938 85.1969 40.2765 96.0529 59.6599 99.177Z" fill="#E5E5E5"/>
<path fill-rule="evenodd" clip-rule="evenodd" d="M84.6525 42.4118V67.9631V99.2533H29.5231V10.989H84.6525V42.4118ZM25.5537 100.258H87.0788V7.84082H25.5537V100.258Z" fill="white"/>
<path fill-rule="evenodd" clip-rule="evenodd" d="M29.5234 99.254H84.6529V67.9628V42.4126V10.9888H29.5234V99.254Z" fill="#0D4F80"/>
<path fill-rule="evenodd" clip-rule="evenodd" d="M87.5293 70.5509L106.045 56.3468L87.5293 42.0513V49.4939H86.6362H72.7891V63.1033H87.5293V70.5509Z" fill="#EC0000"/>
<path fill-rule="evenodd" clip-rule="evenodd" d="M108.999 56.3505L85.744 38.3975V47.6854H72.791V48.5895V49.4935H86.6371H87.5302V42.0509L106.046 56.3465L87.5302 70.5506V63.1029H72.791V64.007V64.9111H85.744V74.189L108.999 56.3505Z" fill="white"/>
<path fill-rule="evenodd" clip-rule="evenodd" d="M16.999 89.2106L15.9392 90.2834L14.2075 88.5315L12.469 90.2925L11.4111 89.2227L13.1497 87.4617L11.4201 85.7098L12.4799 84.636L14.2105 86.3889L15.9491 84.6279L17.0069 85.6978L15.2684 87.4587L16.999 89.2106Z" fill="#0F2B4A"/>
<path fill-rule="evenodd" clip-rule="evenodd" d="M101.513 19.2556C99.8032 19.2556 98.4199 17.8472 98.4199 16.1124C98.4199 14.3776 99.8032 12.9702 101.513 12.9702C103.223 12.9702 104.606 14.3776 104.606 16.1124C104.606 17.8472 103.223 19.2556 101.513 19.2556ZM101.513 17.4645C102.244 17.4645 102.839 16.8598 102.839 16.1124C102.839 15.365 102.244 14.7613 101.513 14.7613C100.782 14.7613 100.187 15.365 100.187 16.1124C100.187 16.8598 100.782 17.4645 101.513 17.4645Z" fill="#6EE3FF"/>
<path fill-rule="evenodd" clip-rule="evenodd" d="M65.4332 53.153V58.5946C65.4332 60.0873 64.2374 61.2978 62.7628 61.2978C62.0919 61.2978 61.4856 61.0396 61.0172 60.6268C59.7133 60.447 58.7071 59.3279 58.7071 57.9597V52.5182C58.7071 51.0244 59.9019 49.814 61.3775 49.814C62.0473 49.814 62.6526 50.0731 63.122 50.486C64.4249 50.6658 65.4332 51.7849 65.4332 53.153ZM62.5832 7.8014L61.1542 7.97117L29.835 11.8597V98.6965L34.0078 99.2109L48.6934 101.019L73.1853 104.277V5.83252L66.2082 7.36945C65.719 7.42772 65.2764 7.07312 65.2168 6.57889L63.3651 6.79888C63.4217 7.29512 63.0724 7.74214 62.5832 7.8014Z" fill="white"/>
<path fill-rule="evenodd" clip-rule="evenodd" d="M64.0492 52.5185V57.9601C64.0492 59.4528 62.8534 60.6632 61.3788 60.6632C61.2557 60.6632 61.1367 60.6432 61.0176 60.6271C61.487 61.0399 62.0923 61.2981 62.7631 61.2981C64.2377 61.2981 65.4345 60.0877 65.4345 58.5949V53.1534C65.4345 51.7852 64.4263 50.6661 63.1223 50.4863C63.686 50.9816 64.0492 51.7038 64.0492 52.5185Z" fill="#6EE3FF"/>
<path fill-rule="evenodd" clip-rule="evenodd" d="M64.0494 57.9592V52.5177C64.0494 51.703 63.6862 50.9817 63.1226 50.4865C62.6542 50.0726 62.0478 49.8145 61.379 49.8145C59.9024 49.8145 58.7076 51.0249 58.7076 52.5177V57.9592C58.7076 59.3274 59.7149 60.4474 61.0178 60.6262C61.1369 60.6423 61.256 60.6634 61.379 60.6634C62.8536 60.6634 64.0494 59.4529 64.0494 57.9592ZM17.6575 99.2107H12.6958L12.5847 99.2178C12.1431 99.273 11.8037 99.6537 11.8037 100.115C11.8037 100.614 12.2026 101.019 12.6958 101.019H17.6575L17.7697 101.012C18.2103 100.956 18.5506 100.575 18.5506 100.115C18.5506 99.6156 18.1507 99.2107 17.6575 99.2107Z" fill="#0F2B4A"/>
<path fill-rule="evenodd" clip-rule="evenodd" d="M103.907 99.2106H74.3507V4.57861L65.9992 5.5731C65.5099 5.63136 65.1587 6.08139 65.2172 6.57663V6.57864C65.2758 7.07287 65.7193 7.42747 66.2086 7.3692L69.2163 7.01059L72.5645 6.61179V99.2106V101.019V103.958L69.2163 103.545L48.6928 101.019L34.0081 99.2106L29.8343 98.6963V62.8164V11.7018L61.1536 7.97092L62.5825 7.80015C63.0728 7.74189 63.4211 7.29487 63.3655 6.79863V6.79662C63.3079 6.30139 62.8644 5.94679 62.3732 6.00505L28.7864 10.0061L26.6291 7.81622L26.5378 7.73486C26.1895 7.46363 25.6874 7.49075 25.3668 7.81321C25.0175 8.1658 25.0165 8.73838 25.3648 9.09198L28.0491 11.8173V99.2106H21.7369L21.6247 99.2177C21.1851 99.2729 20.8438 99.6536 20.8438 100.115C20.8438 100.614 21.2437 101.019 21.7369 101.019H33.899L74.3507 105.999V101.019H103.907L104.018 101.012C104.459 100.956 104.799 100.575 104.799 100.115C104.799 99.6155 104.4 99.2106 103.907 99.2106ZM85.0482 12.0125L87.923 9.09228C88.2723 8.73869 88.2713 8.1661 87.922 7.81351C87.5727 7.46092 87.0071 7.46192 86.6588 7.81552L83.784 10.7357C83.4347 11.0893 83.4357 11.6619 83.786 12.0145C84.1343 12.3671 84.6999 12.3661 85.0482 12.0125Z" fill="#0F2B4A"/>
<path fill-rule="evenodd" clip-rule="evenodd" d="M29.8359 11.702V62.8167L61.1552 7.97119L29.8359 11.702Z" fill="#E9F4F7"/>
<path fill-rule="evenodd" clip-rule="evenodd" d="M72.565 103.958V101.019V99.2106V6.61182L69.2168 7.01062V103.546L72.565 103.958Z" fill="#6EE3FF"/>
</svg>
