<svg width="138" height="106" viewBox="0 0 138 106" fill="none" xmlns="http://www.w3.org/2000/svg">
<path fill-rule="evenodd" clip-rule="evenodd" d="M101.002 94.5229C101.002 94.5229 104.013 94.5229 101.002 94.5229C84.417 94.5229 70.2689 95.4744 44.9605 103.539C8.17164 115.261 7.73104 82.2472 14.5115 64.8969C-8.24064 55.0118 -0.0590914 23.3061 10.8312 11.5633C18.8612 2.90529 29.7144 -0.889913 43.3918 0.175689C48.5515 0.175689 56.5313 3.59651 67.3313 10.4372C80.9625 19.072 86.8066 19.0205 98.8823 21.1477C145.059 29.282 143.031 66.575 129.755 80.4228C121.074 89.4774 111.038 94.5229 101.002 94.5229Z" fill="#D9D9D9"/>
<path fill-rule="evenodd" clip-rule="evenodd" d="M13.7515 66.8637V74.0555V74.7892C13.7555 79.2261 16.391 83.0324 20.1586 84.7136C21.4784 85.3029 22.9336 85.6369 24.4682 85.6379H105.086C110.999 85.6258 115.787 80.7751 115.793 74.7902V26.9824C115.787 20.9914 110.992 16.1397 105.077 16.1336H50.3898C49.891 16.1336 49.4865 15.7269 49.4865 15.2254C49.4865 15.2062 49.4966 15.1891 49.4986 15.1699H44.3861C44.3871 15.1891 44.3972 15.2062 44.3972 15.2254C44.3972 15.7269 43.9927 16.1336 43.4939 16.1336H37.7763H24.4692C21.4061 16.1366 18.6502 17.4464 16.6981 19.5332C14.8786 21.4757 13.7545 24.0933 13.7515 26.9814V31.9592V47.0956V50.3166C13.7515 50.6809 13.5347 50.9917 13.2256 51.136V54.4882C13.5347 54.6325 13.7515 54.9433 13.7515 55.3076V55.568V56.1754V57.4106C13.7515 57.7758 13.5347 58.0856 13.2256 58.2299V66.0444C13.5347 66.1887 13.7515 66.4995 13.7515 66.8637Z" fill="white"/>
<path fill-rule="evenodd" clip-rule="evenodd" d="M13.7509 57.4108V56.1757V55.5682V55.3078C13.7509 54.9436 13.5341 54.6328 13.225 54.4885C13.1095 54.435 12.9831 54.3997 12.8476 54.3997C12.7894 54.3997 12.7382 54.4229 12.683 54.433C12.2655 54.5137 11.9443 54.8659 11.9443 55.3078V55.5682V56.1757V57.4108C11.9443 57.8528 12.2655 58.2049 12.683 58.2857C12.7382 58.2958 12.7894 58.319 12.8476 58.319C12.9831 58.319 13.1095 58.2847 13.225 58.2302C13.5341 58.0859 13.7509 57.7761 13.7509 57.4108ZM105.077 14.3179H50.3898C49.9101 14.3179 49.5277 14.6963 49.4976 15.1706C49.4966 15.1897 49.4865 15.2059 49.4865 15.2261C49.4865 15.7276 49.891 16.1342 50.3898 16.1342H105.076C110.991 16.1403 115.787 20.992 115.793 26.983V74.7908C115.787 80.7757 110.998 85.6264 105.086 85.6385H24.4682C22.9336 85.6365 21.4774 85.3035 20.1586 84.7142C16.39 83.0331 13.7555 79.2268 13.7505 74.7898V74.0562V66.8644C13.7505 66.4991 13.5337 66.1893 13.2246 66.045C13.1091 65.9915 12.9837 65.9562 12.8482 65.9562C12.789 65.9562 12.7378 65.9784 12.6826 65.9895C12.2651 66.0702 11.9449 66.4214 11.9449 66.8644V74.7908C11.951 81.7808 17.5522 87.4479 24.4672 87.4549H105.088C111.999 87.4408 117.593 81.7767 117.6 74.7918V26.982C117.593 19.991 111.991 14.3249 105.077 14.3179ZM13.7509 50.3167V47.0956V31.9592V26.9814C13.7539 24.0934 14.8779 21.4768 16.6975 19.5333C18.6496 17.4465 21.4055 16.1367 24.4686 16.1336H37.7756H43.4933C43.9921 16.1336 44.3965 15.728 44.3965 15.2265C44.3965 15.2063 44.3865 15.1891 44.3855 15.1699C44.3554 14.6967 43.973 14.3183 43.4933 14.3183H24.4676C17.5526 14.3253 11.9514 19.9914 11.9443 26.9804V50.3167C11.9443 50.7586 12.2655 51.1108 12.683 51.1915C12.7382 51.2016 12.7894 51.2248 12.8476 51.2248C12.9831 51.2248 13.1095 51.1905 13.225 51.136C13.5341 50.9917 13.7509 50.682 13.7509 50.3167Z" fill="#595959"/>
<path fill-rule="evenodd" clip-rule="evenodd" d="M13.752 47.0954H16.6986V31.959H13.752V47.0954Z" fill="#999999"/>
<path fill-rule="evenodd" clip-rule="evenodd" d="M105.077 16.1338H83.5321L74.5155 31.9594H115.794V26.9825C115.788 20.9916 110.991 16.1398 105.077 16.1338ZM43.9318 85.6381H105.087C110.998 85.626 115.787 80.7753 115.793 74.7904V47.0958H65.8911L43.9318 85.6381ZM13.7515 50.3164C13.7515 50.8179 13.347 51.2246 12.8482 51.2246C12.79 51.2246 12.7388 51.2014 12.6836 51.1913V54.4335C12.7388 54.4224 12.79 54.3992 12.8482 54.3992C13.347 54.3992 13.7515 54.8059 13.7515 55.3074V55.5677V56.1752V57.4103C13.7515 57.9119 13.347 58.3185 12.8482 58.3185C12.79 58.3185 12.7388 58.2963 12.6836 58.2852V65.9897C12.7388 65.9785 12.79 65.9563 12.8482 65.9563C13.347 65.9563 13.7515 66.362 13.7515 66.8635V74.0553V74.7899C13.7555 79.2259 16.391 83.0322 20.1586 84.7144C21.39 85.1745 22.7158 85.4399 24.1058 85.4409H27.2562C21.3489 84.9515 16.7031 79.9585 16.6981 73.8586V47.0954H13.7515V50.3164ZM16.6976 19.5331C14.879 21.4766 13.754 24.0932 13.7509 26.9812V31.9591H16.6976V19.5331Z" fill="#F2F2F2"/>
<path fill-rule="evenodd" clip-rule="evenodd" d="M16.6973 47.0954H115.052V31.959H16.6973V47.0954Z" fill="#767676"/>
<path fill-rule="evenodd" clip-rule="evenodd" d="M65.8916 47.0954H117.175V31.959H74.5158L65.8916 47.0954Z" fill="#595959"/>
<path fill-rule="evenodd" clip-rule="evenodd" d="M56.7509 55.1411H104.615C105.114 55.1411 105.518 55.5478 105.518 56.0493C105.518 56.5508 105.114 56.9575 104.615 56.9575H56.7509C56.2521 56.9575 55.8477 56.5508 55.8477 56.0493C55.8477 55.5478 56.2521 55.1411 56.7509 55.1411ZM72.1062 60.5901H104.615C105.113 60.5901 105.519 60.9968 105.519 61.4983C105.519 61.9998 105.113 62.4065 104.615 62.4065H72.1062C71.6074 62.4065 71.2029 61.9998 71.2029 61.4983C71.2029 60.9968 71.6074 60.5901 72.1062 60.5901Z" fill="#595959"/>
<path fill-rule="evenodd" clip-rule="evenodd" d="M86.9503 74.8456C86.9503 63.9777 95.712 55.1683 106.521 55.1683C108.735 55.1683 110.855 55.5548 112.839 56.2369C110.172 54.919 107.183 54.1592 104.012 54.1592C92.9259 54.1592 83.9395 63.1956 83.9395 74.341C83.9395 85.4875 92.9259 94.5229 104.012 94.5229C104.435 94.5229 104.849 94.4856 105.266 94.4593C95.0446 93.8064 86.9503 85.2877 86.9503 74.8456Z" fill="#E5E5E5"/>
<path fill-rule="evenodd" clip-rule="evenodd" d="M112.841 56.2366H112.84C112.411 56.0893 111.975 55.9621 111.533 55.8441C111.398 55.8077 111.266 55.7734 111.13 55.7401C110.77 55.6523 110.406 55.5726 110.038 55.505C110.022 55.502 110.008 55.499 109.994 55.4959C109.727 55.4465 109.457 55.4102 109.187 55.3728C108.899 55.3325 108.613 55.287 108.32 55.2598C107.728 55.2033 107.13 55.168 106.523 55.168C101.425 55.168 96.7997 57.1428 93.3171 60.3527C89.414 63.9501 86.9521 69.1025 86.9521 74.8453C86.9521 75.5123 86.9863 76.1692 87.0505 76.8181C87.0736 77.0502 87.1198 77.2752 87.1509 77.5053C87.2061 77.916 87.2562 78.3297 87.3365 78.7313C87.3927 79.0118 87.473 79.2823 87.5403 79.5577C87.6236 79.8988 87.6988 80.2419 87.8002 80.5759C87.8925 80.8807 88.008 81.1763 88.1143 81.475C88.2177 81.7636 88.3131 82.0563 88.4295 82.3388C88.562 82.6627 88.7155 82.9745 88.8651 83.2894C88.9805 83.5316 89.0879 83.7768 89.2123 84.0129C89.3889 84.3499 89.5857 84.6728 89.7804 84.9978C89.8998 85.1955 90.0122 85.3964 90.1387 85.5901C90.3625 85.9342 90.6033 86.2632 90.8472 86.5921C90.9646 86.7485 91.076 86.909 91.1975 87.0624C91.4715 87.4085 91.7605 87.7395 92.0566 88.0654C92.164 88.1845 92.2673 88.3056 92.3777 88.4216C92.7029 88.7637 93.0431 89.0886 93.3914 89.4065C93.4847 89.4923 93.5771 89.579 93.6724 89.6628C94.0488 89.9938 94.4402 90.3056 94.8406 90.6073C94.9179 90.6648 94.9922 90.7234 95.0695 90.7789C95.498 91.0907 95.9396 91.3823 96.3922 91.6588C96.4494 91.6941 96.5067 91.7294 96.5639 91.7637C96.7616 91.8818 96.9713 91.9817 97.1741 92.0927C97.4591 92.2481 97.7381 92.4116 98.0312 92.5539C98.0703 92.573 98.1094 92.5922 98.1486 92.6104C98.6695 92.8596 99.2024 93.0846 99.7474 93.2875C99.7714 93.2955 99.7935 93.3036 99.8166 93.3127C100.378 93.5186 100.949 93.6992 101.532 93.8526C101.542 93.8556 101.553 93.8586 101.563 93.8606C102.156 94.017 102.76 94.1452 103.373 94.2461C103.376 94.2461 103.379 94.2461 103.382 94.2471C104.002 94.348 104.63 94.4187 105.267 94.459C105.308 94.4621 105.351 94.4631 105.391 94.4661C105.767 94.4913 106.14 94.5226 106.523 94.5226C117.331 94.5226 126.094 85.7132 126.094 74.8453C126.094 66.2044 120.544 58.8814 112.841 56.2366Z" fill="#767676"/>
<path fill-rule="evenodd" clip-rule="evenodd" d="M112.841 56.2365H112.84C112.411 56.0892 111.974 55.962 111.533 55.8439C111.398 55.8076 111.266 55.7733 111.13 55.74C110.77 55.6522 110.406 55.5725 110.037 55.5049C115.897 58.399 120.072 65.724 120.072 74.3406C120.072 85.1036 113.572 93.8726 105.391 94.466C105.767 94.4912 106.14 94.5225 106.523 94.5225C117.331 94.5225 126.093 85.7131 126.093 74.8452C126.093 66.2043 120.544 58.8813 112.841 56.2365Z" fill="#595959"/>
<path fill-rule="evenodd" clip-rule="evenodd" d="M104.727 85.1129C104.563 85.1129 104.408 85.0372 104.306 84.905L98.66 77.5457C97.9494 76.6194 98.125 75.2853 99.0534 74.5749C99.9807 73.8625 101.316 74.0401 102.027 74.9665L104.316 77.9514L111.436 66.1793C112.028 65.1702 113.331 64.8331 114.339 65.4235C115.347 66.0148 115.685 67.3155 115.094 68.3236L105.185 84.8515C105.095 85.0029 104.936 85.1008 104.76 85.1119C104.749 85.1129 104.738 85.1129 104.727 85.1129Z" fill="white"/>
<path fill-rule="evenodd" clip-rule="evenodd" d="M103.659 6.94247L102.468 8.13925L100.512 6.17152L98.5587 8.13522L97.3634 6.93238L99.3155 4.96969L97.3584 3.00196L98.5497 1.80518L100.506 3.7719L102.459 1.80921L103.655 3.01104L101.702 4.97474L103.659 6.94247Z" fill="#999999"/>
<path fill-rule="evenodd" clip-rule="evenodd" d="M31.2525 97.7196L30.1455 98.8336L28.7816 97.4643L27.4146 98.8387L26.3066 97.7256L27.6756 96.3513L26.3127 94.9809L27.4217 93.8669L28.7836 95.2372L30.1515 93.8618L31.2575 94.9749L29.8916 96.3502L31.2525 97.7196Z" fill="#595959"/>
</svg>
