<svg width="126" height="98" viewBox="0 0 126 98" fill="none" xmlns="http://www.w3.org/2000/svg">
<path fill-rule="evenodd" clip-rule="evenodd" d="M63.7907 93.9434C105.265 97.2731 126.002 87.9605 126 66.0036C125.996 33.0703 101.647 36.4742 90.5762 28.0627C79.5054 19.6522 86.0416 28.0627 71.0942 9.37433C61.129 -3.08455 45.721 -3.12465 24.8713 9.25405C9.32057 21.753 7.61363 38.114 19.7495 58.3368C31.8853 78.5597 46.5654 90.4292 63.7907 93.9434Z" fill="#191919"/>
<path fill-rule="evenodd" clip-rule="evenodd" d="M79.3203 54.8679C77.1912 56.5278 75.7303 57.5111 74.8951 57.7125L74.6784 57.7386H66.8301L66.6216 57.7145C65.6071 57.478 63.9265 56.3414 61.5747 54.456C61.2912 54.2295 61.0017 53.9939 60.706 53.7504C60.2525 53.3765 59.7928 52.9886 59.3332 52.5967L59.0386 58.5224L69.4685 64.0182L80.2315 58.347L79.6686 54.5943C79.5522 54.6855 79.4337 54.7787 79.3203 54.8679Z" fill="#F6C7B4"/>
<path fill-rule="evenodd" clip-rule="evenodd" d="M51.4459 36.8782C51.4691 36.8732 51.4924 36.8652 51.5157 36.8542L52.5221 36.3971L52.7812 37.4626C53.2662 39.4572 53.986 41.4849 54.8769 43.4956C55.4874 44.8728 56.1425 46.1588 56.7965 47.3174C57.0253 47.7214 57.2369 48.0802 57.4252 48.3889C57.4971 48.5052 57.5538 48.5964 57.5963 48.6636C57.6226 48.6866 57.6672 48.7277 57.6996 48.7568C57.7522 48.8039 57.7967 48.845 57.8666 48.9071C58.1531 49.1657 58.4761 49.4534 58.8284 49.7641C59.0329 49.9445 59.2405 50.1219 59.447 50.3014C60.2549 51.006 61.0719 51.7046 61.8707 52.3631C62.1603 52.6027 62.4437 52.8322 62.7211 53.0537C64.7207 54.6575 66.2737 55.7179 66.9531 55.9344H74.5462C75.0787 55.744 76.4394 54.8168 78.1929 53.4507C78.3903 53.2953 78.5938 53.1359 78.8014 52.9715C78.9836 52.8262 79.1719 52.6719 79.3572 52.5215C79.9019 52.0825 80.4486 51.6334 80.9973 51.1764C81.1482 51.0501 81.3 50.9258 81.4509 50.7995C81.7586 50.5399 82.0421 50.2994 82.2942 50.0829C82.3944 49.9967 82.4754 49.9275 82.5352 49.8764C82.5666 49.8343 82.607 49.7781 82.6577 49.709C82.8045 49.5065 82.9725 49.269 83.1578 48.9973C83.6893 48.2205 84.2502 47.3405 84.8151 46.3743C86.4259 43.6199 87.742 40.7392 88.553 37.8846L88.7879 37.0627L89.6292 37.2491L89.6433 37.2521C90.6153 37.4626 92.057 35.9431 92.5956 33.6668C93.1423 31.4015 92.553 29.4761 91.6085 29.2616C91.3685 29.2105 91.084 29.2686 90.7651 29.454L89.4145 30.2398L89.3923 28.6893C89.292 21.4615 88.5216 16.925 86.3327 13.3707C83.6073 8.94648 78.7052 6.62109 70.7557 6.62109C63.1464 6.62109 58.303 9.03268 55.4935 13.5993C53.2054 17.3179 52.2892 22.2102 52.1333 29.3007L52.0918 31.1991L50.6309 29.9672C50.3383 29.7206 50.1044 29.6445 49.9535 29.6796C49.2823 29.8519 48.7994 31.611 49.2307 33.6598C49.6761 35.7005 50.807 37.0336 51.4459 36.8782Z" fill="#FEDAC6"/>
<path fill-rule="evenodd" clip-rule="evenodd" d="M79.5907 16.2335C77.58 15.6983 75.4722 15.7835 73.3755 15.998C68.9218 16.451 63.1916 18.7584 58.8149 17.0273C58.5911 16.9361 58.4261 17.1436 58.503 17.327C59.5904 20.6618 65.6163 20.1857 68.3437 19.894C71.4154 19.5702 74.5792 19.1833 77.6843 19.5702C79.3892 19.8008 80.6365 20.8903 81.7927 22.034C81.9547 22.3086 82.1045 22.6033 82.2746 22.8719C84.8846 27.3062 85.2633 34.3736 83.3883 39.1897C82.2746 42.5164 78.5185 45.1175 75.9035 48.0904C73.1153 51.5414 68.5381 51.3579 63.6239 52.1197C65.1769 53.3636 66.9081 54.9974 66.9081 55.9546H74.5792C76.2315 55.5336 82.9165 49.4425 82.9165 49.4425C82.9165 49.4425 89.869 39.8753 89.869 30.7331C89.869 20.2258 90.054 10.8951 79.5907 7.05322C79.0399 10.9132 78.7484 12.5359 79.5907 16.2335Z" fill="#F6C7B4"/>
<path fill-rule="evenodd" clip-rule="evenodd" d="M79.3853 52.9242C79.2081 53.0665 79.0289 53.2138 78.8558 53.3522C78.6583 53.5085 78.465 53.6609 78.2757 53.8082C76.6072 55.1102 75.3113 55.9923 74.8041 56.1747H67.5714C66.9244 55.9682 65.4453 54.9579 63.5409 53.4303C63.2777 53.2199 63.0074 53.0004 62.732 52.7728C61.9707 52.1464 61.1931 51.4798 60.4237 50.8093C60.2263 50.6379 60.0288 50.4695 59.8335 50.2981C59.7838 50.253 59.7464 50.2189 59.6968 50.1748V52.7768C60.3184 53.5847 61.0301 54.2994 61.8259 54.8907L67.544 59.1456C70.806 61.5732 74.9013 61.5732 78.1643 59.1456L79.9451 57.8205V52.4651C79.7588 52.6175 79.5715 52.7748 79.3853 52.9242Z" fill="#EABCAC"/>
<path fill-rule="evenodd" clip-rule="evenodd" d="M37.1726 70.9189C35.415 72.5207 33.9207 74.396 32.7544 76.4798C33.6079 77.3689 34.4755 78.2159 35.3482 79.0428L33.3355 75.8624L37.1726 70.9189Z" fill="white"/>
<path fill-rule="evenodd" clip-rule="evenodd" d="M50.8653 63.7483L52.4751 65.7559C52.7099 66.0506 53.0916 66.1609 53.4358 66.0696C53.0936 65.4923 52.5105 64.508 51.6732 63.0938L39.425 68.0152L37.1724 70.9189C38.9805 69.2711 41.0671 67.9139 43.3754 66.9337L50.8653 63.7483Z" fill="#E8E8E8"/>
<path fill-rule="evenodd" clip-rule="evenodd" d="M107.741 79.9619C105.702 74.1063 101.266 69.3744 95.5237 66.9327L87.0163 63.3163L83.6551 67.929L82.5607 69.3303L76.6087 76.954L73.2353 72.4074L70.9523 69.3303L69.5967 67.503L69.0591 66.7794L68.5033 67.503L67.1011 69.3303L64.9041 72.1959L61.2675 76.9369L54.8468 68.7148C54.5349 68.3159 54.6099 67.7426 55.0118 67.4339C55.3844 67.1492 55.9068 67.1893 56.2297 67.5121L56.3067 67.5983L56.5699 67.934L57.6593 69.3303L61.2544 73.934L64.7847 69.3303L66.1859 67.503L67.8685 65.31L58.7861 60.5259L56.986 59.5777L56.9486 59.5576L53.6744 62.5556L52.6235 63.0016L53.9214 64.6204C54.214 64.9862 54.1796 65.5034 53.8576 65.8272L53.7716 65.9043C53.6693 65.9845 53.5549 66.0376 53.4365 66.0697C53.0923 66.1609 52.7116 66.0507 52.4757 65.756L50.8659 63.7483L43.3761 66.9327C41.0688 67.914 38.9812 69.2701 37.173 70.919L33.3359 75.8624L35.3486 79.0428C37.661 81.2329 40.0402 83.2054 42.4862 84.9605C49.075 89.6865 56.1417 92.8378 63.7004 94.3793C83.5711 95.975 98.7341 94.7011 109.202 90.5645L107.741 79.9619Z" fill="white"/>
<path fill-rule="evenodd" clip-rule="evenodd" d="M113.43 21.4549L112.228 22.6446L110.255 20.6901L108.285 22.6396L107.079 21.4459L109.048 19.4953L107.075 17.5408L108.275 16.3521L110.249 18.3066L112.22 16.3561L113.426 17.5498L111.455 19.5004L113.43 21.4549Z" fill="#6EE3FF"/>
<path fill-rule="evenodd" clip-rule="evenodd" d="M69.288 74.4234C69.0309 74.4004 68.7798 74.3432 68.5895 74.225L67.0475 73.3068L64.6157 94.4438L73.7275 94.4468L71.8059 73.1094L69.9825 74.2189C69.7851 74.3362 69.5381 74.4004 69.288 74.4234Z" fill="#0D4F80"/>
<path fill-rule="evenodd" clip-rule="evenodd" d="M71.8398 73.3444L73.7503 94.4473H75.9543L72.5161 72.9014L71.8398 73.3444Z" fill="#6EE3FF"/>
<path fill-rule="evenodd" clip-rule="evenodd" d="M76.9102 7.2194C78.2617 8.07839 79.6153 8.9444 80.974 9.8064C80.3291 9.13083 79.6872 8.45727 79.0433 7.7827C77.4093 7.23744 75.5495 6.87861 73.4355 6.71924C75.5302 7.53413 77.4862 8.69983 79.178 10.1823C78.4207 9.19398 77.6675 8.20669 76.9102 7.2194Z" fill="#0F2B4A"/>
<path fill-rule="evenodd" clip-rule="evenodd" d="M85.007 62.9709L83.1249 65.3504L81.579 67.329L81.5901 67.4032H81.5213L80.112 69.2084L76.5746 73.7379L73.2134 69.2084L71.875 67.4032L70.4819 65.5268L80.5149 60.2406L81.8118 59.558L82.3261 60.0281L85.0445 62.5179L85.007 62.9709ZM69.4674 64.0183L59.0385 58.5226L59.3331 52.5969C59.7928 52.9888 60.2524 53.3767 60.706 53.7505C61.0016 53.9941 61.2911 54.2296 61.5736 54.4562C63.9265 56.3415 65.6071 57.4782 66.6215 57.7147L66.8301 57.7388H74.6783L74.895 57.7127C75.7302 57.5112 77.1912 56.528 79.3203 54.8681C79.4337 54.7789 79.5511 54.6857 79.6685 54.5945L80.2315 58.3472L69.4674 64.0183ZM49.4884 30.1047C50.194 32.809 51.5537 37.9148 52.0812 32.9433C52.1156 31.8357 53.0217 21.7804 54.2943 19.9903C54.6821 19.434 55.0962 18.9539 55.5305 18.5459C55.9253 18.7113 56.2787 18.8757 56.6168 18.9629C58.4321 19.4079 60.3425 19.3277 62.2114 19.2165C68.3406 18.8175 75.2959 17.4494 81.4069 18.3354C82.7443 18.5219 84.1495 18.8165 85.5294 19.2526C85.7228 19.4821 85.9131 19.7277 86.0954 19.9903C87.3568 21.7804 88.2761 31.8357 88.3136 32.9433C88.8886 38.4681 90.4923 31.5501 91.1149 29.3099C91.2931 29.2557 91.4612 29.2307 91.609 29.2618C92.5526 29.4763 93.1418 31.4017 92.5951 33.667C92.0575 35.9432 90.6158 37.4628 89.6439 37.2523L89.6287 37.2493L88.7874 37.0628L88.5535 37.8847C87.7416 40.7394 86.4254 43.62 84.8157 46.3744C84.2508 47.3407 83.6889 48.2207 83.1584 48.9975C82.9721 49.2691 82.804 49.5067 82.6582 49.7092C82.6076 49.7783 82.5671 49.8345 82.5357 49.8765C82.476 49.9277 82.395 49.9968 82.2938 50.083C82.0417 50.2995 81.7592 50.5401 81.4504 50.7997C81.3006 50.926 81.1477 51.0503 80.9979 51.1756C80.4491 51.6336 79.9024 52.0827 79.3577 52.5217C79.1715 52.672 78.9842 52.8264 78.8009 52.9717C78.5944 53.1361 78.3909 53.2955 78.1935 53.4498C76.4399 54.817 75.0783 55.7442 74.5467 55.9346H66.9536C66.2743 55.7181 64.7212 54.6576 62.7207 53.0539C62.4443 52.8324 62.1608 52.6019 61.8703 52.3633C61.0715 51.7048 60.2554 51.0052 59.4475 50.3015C59.241 50.1221 59.0335 49.9437 58.829 49.7643C58.4766 49.4536 58.1537 49.1659 57.8661 48.9073C57.7973 48.8452 57.7517 48.8041 57.6991 48.757C57.6667 48.7279 57.6221 48.6868 57.5968 48.6637C57.5543 48.5966 57.4966 48.5044 57.4257 48.3891C57.2364 48.0804 57.0248 47.7216 56.797 47.3166C56.142 46.1589 55.488 44.8719 54.8765 43.4948C53.9855 41.4851 53.2657 39.4574 52.7818 37.4628L52.5226 36.3973L51.5163 36.8544C51.492 36.8654 51.4697 36.8724 51.4464 36.8784C50.8076 37.0338 49.6767 35.7007 49.2312 33.66C48.9103 32.1354 49.0956 30.7743 49.4884 30.1047ZM64.5937 5.43552C63.2309 5.73321 61.9776 6.13915 60.8265 6.65033C61.9766 6.13815 63.2309 5.73321 64.5937 5.43552ZM76.8085 5.34531C76.771 5.33829 76.7356 5.32927 76.6971 5.32226C76.6556 5.27715 76.6131 5.23305 76.5716 5.18995C76.6526 5.23906 76.7275 5.29519 76.8085 5.34531ZM48.9791 28.1592C47.4666 28.9871 46.9027 31.4478 47.4484 34.0338C48.0113 36.6148 49.5208 38.6094 51.2186 38.6946C51.7177 40.5349 52.395 42.3872 53.208 44.2204C53.8438 45.6538 54.5252 46.9909 55.2055 48.1977C55.4454 48.6206 55.6682 48.9985 55.8676 49.3253C55.9891 49.5237 56.0782 49.6631 56.1268 49.7382L56.1896 49.8335L56.2736 49.9106C56.3414 49.9718 56.466 50.085 56.6401 50.2424C56.9226 50.496 57.2405 50.7796 57.5837 51.0823L57.2597 57.5854L56.8375 57.3629L52.884 60.9823L43.0028 65.183C38.3164 67.1747 34.4479 70.5946 31.9067 74.8835C32.3431 75.3606 32.7906 75.8067 33.233 76.2667C35.5707 72.0921 39.2296 68.7503 43.7217 66.8409L51.1174 63.6956L52.7069 65.6782C53.0197 66.0691 53.5927 66.1342 53.9866 65.8245L54.0716 65.7483C54.3895 65.4286 54.4229 64.9174 54.1344 64.5576L52.8526 62.9579L53.8914 62.5179L57.124 59.558L57.1605 59.577L58.9383 60.5132L67.9063 65.2382L66.2459 67.4032L64.8619 69.2084L61.3752 73.7529L57.8256 69.2084L56.7494 67.8292L56.4903 67.4974L56.4143 67.4122C56.0944 67.0935 55.5801 67.0534 55.2116 67.335C54.8137 67.6397 54.7398 68.206 55.0486 68.601L61.3883 76.7198L64.9804 72.0369C65.0148 72.071 65.0482 72.1071 65.0897 72.1321L65.9554 72.6554L67.0478 73.3069L68.5886 74.225C68.78 74.3433 69.0311 74.4004 69.2882 74.4235C69.5383 74.4004 69.7853 74.3363 69.9817 74.219L71.8061 73.1094L72.6059 72.6223L73.2073 72.2464L76.5371 76.7348L82.4142 69.2084L83.4955 67.8242L86.8142 63.2686L95.2142 66.8409C100.886 69.2515 105.267 73.9243 107.279 79.7057L108.723 90.176C109.316 89.9414 109.9 89.7019 110.462 89.4493L109.073 79.3749L109.032 79.2066C106.866 72.9029 102.106 67.8071 95.9341 65.183L86.0518 60.9823L82.0984 57.3629L81.9384 57.4471L81.3127 53.2704C81.7531 52.9086 82.1945 52.5417 82.6309 52.1739C82.9437 51.9113 83.2302 51.6667 83.4864 51.4472C83.6403 51.3159 83.7506 51.2207 83.8083 51.1706L83.9349 51.0352C83.9734 50.9851 84.0422 50.8939 84.1374 50.7616C84.2943 50.5461 84.4725 50.2945 84.6669 50.0089C85.2207 49.199 85.8048 48.2829 86.392 47.2785C87.9451 44.6224 89.2379 41.8499 90.1015 39.0655C91.9887 38.8851 93.729 36.7882 94.3689 34.0819C94.6888 32.7569 94.704 31.4599 94.4488 30.3653C94.1046 28.8919 93.2684 27.7873 92.0039 27.5007C91.8591 27.4696 91.7143 27.4526 91.5685 27.4455C91.8611 25.916 92.1294 23.8011 92.2944 21.6381C92.4017 20.7821 92.4898 19.5963 92.4584 18.2943C92.4949 16.2065 92.3784 14.3813 92.0261 13.411C91.4946 11.9416 90.712 10.6827 89.7391 9.59616C89.5619 9.20927 89.3665 8.84743 89.1417 8.52568C85.3928 3.1392 75.628 -1.49755 63.1692 0.76469C58.4746 1.60464 56.2534 3.94607 55.2207 5.44654C52.0093 6.61826 49.5593 8.6189 48.3535 11.9476C47.422 14.5326 48.1571 24.4235 48.9791 28.1592Z" fill="#5C5C5C"/>
<path fill-rule="evenodd" clip-rule="evenodd" d="M85.0076 62.9715L85.045 62.5185L82.3267 60.0287L81.8124 59.5586L80.5155 60.2412L70.4824 65.5274L71.8755 67.4038L73.2139 69.209L76.5752 73.7385L80.1125 69.209L81.5218 67.4038H81.5907L81.5795 67.3296L83.1255 65.351L85.0076 62.9715Z" fill="#E8E8E8"/>
<path fill-rule="evenodd" clip-rule="evenodd" d="M82.5862 16.2149C81.9514 14.3486 81.3115 12.5975 80.4226 10.8394C82.1721 11.6403 83.8284 13.5668 85.3025 14.8006C84.1564 12.3429 82.6712 10.2811 80.858 8.50803C80.287 8.2374 79.6836 7.99484 79.0447 7.78235C79.6886 8.45691 80.3295 9.13047 80.9744 9.80504C79.6157 8.94404 78.2621 8.07803 76.9116 7.21904C77.6689 8.20633 78.4221 9.19362 79.1794 10.1809C77.4876 8.69947 75.5306 7.53377 73.437 6.71888C73.194 6.70084 72.9439 6.68881 72.6938 6.67578C76.3922 9.39308 79.7393 12.6015 82.5862 16.2149Z" fill="#191919"/>
<path fill-rule="evenodd" clip-rule="evenodd" d="M72.3202 50.5977C71.7856 50.5977 71.2896 50.2489 71.1255 49.7097C70.9261 49.0482 71.2987 48.3495 71.9588 48.1491L76.458 46.7809C82.8696 44.8334 87.8922 39.8428 89.8927 33.434C90.0993 32.7744 90.7988 32.4066 91.4569 32.6141C92.115 32.8195 92.4815 33.5222 92.276 34.1817C90.0274 41.3814 84.3852 46.9874 77.1828 49.1765L72.6826 50.5436C72.5622 50.5797 72.4397 50.5977 72.3202 50.5977Z" fill="#990000"/>
<path fill-rule="evenodd" clip-rule="evenodd" d="M49.8788 38.3857H47.291V24.729C47.291 13.4689 57.5093 4.30664 70.0694 4.30664C82.6315 4.30664 92.8498 13.4689 92.8498 24.729V37.8344H90.2621V24.729C90.2621 14.7478 81.204 6.62702 70.0694 6.62702C58.9369 6.62702 49.8788 14.7478 49.8788 24.729V38.3857Z" fill="#990000"/>
<path fill-rule="evenodd" clip-rule="evenodd" d="M48.8341 24.3154C46.0378 24.3154 43.772 26.3431 43.772 28.8459V34.8208C43.772 37.3226 46.0378 39.3503 48.8341 39.3503V39.3483V24.3184V24.3154Z" fill="#EC0000"/>
<path fill-rule="evenodd" clip-rule="evenodd" d="M51.7457 23.3135H49.97C49.3423 23.3135 48.833 23.7635 48.833 24.3188V39.3487C48.833 39.9029 49.3423 40.353 49.97 40.353H51.7457C52.3734 40.353 52.8827 39.9029 52.8827 39.3487V24.3188C52.8827 23.7635 52.3734 23.3135 51.7457 23.3135Z" fill="#990000"/>
<path fill-rule="evenodd" clip-rule="evenodd" d="M92.3687 24.3154V24.3174V39.3483V39.3503C95.1649 39.3503 97.4307 37.3226 97.4307 34.8208V28.8459C97.4307 26.3431 95.1649 24.3154 92.3687 24.3154Z" fill="#EC0000"/>
<path fill-rule="evenodd" clip-rule="evenodd" d="M91.2306 23.3135H89.4548C88.8271 23.3135 88.3179 23.7635 88.3179 24.3178V39.3487C88.3179 39.9029 88.8271 40.353 89.4548 40.353H91.2306C91.8583 40.353 92.3675 39.9029 92.3675 39.3487V24.3178C92.3675 23.7635 91.8583 23.3135 91.2306 23.3135Z" fill="#990000"/>
<path fill-rule="evenodd" clip-rule="evenodd" d="M53.7969 66.6778C53.7969 66.6778 53.6724 66.4684 53.4365 66.0694C53.0923 66.1606 52.7106 66.0504 52.4747 65.7567L50.865 63.748L43.3751 66.9334C41.0678 67.9137 38.9802 69.2709 37.172 70.9187L33.335 75.8621L35.3476 79.0425C37.661 81.2326 40.0392 83.2062 42.4852 84.9602V81.404C43.369 73.0927 47.1393 68.1843 53.7969 66.6778Z" fill="#E8E8E8"/>
<path fill-rule="evenodd" clip-rule="evenodd" d="M19.5167 97.3598C30.14 97.3598 38.7526 88.833 38.7526 78.3156C38.7526 67.7972 30.14 59.2715 19.5167 59.2715C8.89239 59.2715 0.280762 67.7972 0.280762 78.3156C0.280762 88.833 8.89239 97.3598 19.5167 97.3598Z" fill="white"/>
<path fill-rule="evenodd" clip-rule="evenodd" d="M10.4826 60.6075C11.2034 61.1607 11.2388 62.3645 10.9321 64.3602C10.8551 64.8663 10.7539 65.4146 10.6304 65.997C10.4441 66.882 10.2193 67.8041 9.97738 68.7092C9.89334 69.025 9.81235 69.3177 9.73845 69.5793C9.6939 69.7366 9.66049 69.8489 9.64227 69.91C9.51571 70.334 9.07126 70.5916 8.6501 70.4854C8.22893 70.3791 7.98899 69.9491 8.11554 69.5251C8.13275 69.471 8.16312 69.3638 8.20564 69.2134C8.27753 68.9598 8.3565 68.6762 8.4385 68.3685C8.67439 67.4894 8.89206 66.5953 9.07126 65.7414C9.1887 65.1861 9.28488 64.6659 9.35778 64.1918C9.40738 63.872 9.44484 63.5753 9.47015 63.3057C4.71685 66.6845 1.82134 72.1242 1.82134 78.0539C1.82134 88.0731 10.027 96.195 20.1471 96.195C30.2672 96.195 38.4719 88.0731 38.4719 78.0539C38.4719 74.9958 37.7075 72.05 36.2709 69.4249L36.038 69.0129L37.6174 68.1129C39.3618 71.1118 40.2932 74.5167 40.2932 78.0539C40.2932 89.0695 31.2736 98.0001 20.1471 98.0001C9.02064 98.0001 0 89.0695 0 78.0539C0 71.8626 2.87122 66.1553 7.63565 62.4177C7.1173 62.6271 6.52908 62.8928 5.88721 63.2065C5.07626 63.6034 4.22887 64.0534 3.39767 64.5185C3.10711 64.6809 2.83781 64.8343 2.59989 64.9726C2.45714 65.0558 2.35691 65.1149 2.30527 65.146C1.92056 65.3755 1.4346 65.2602 1.22199 64.8884C1.00736 64.5165 1.14504 64.0294 1.52976 63.7999C1.58747 63.7648 1.69377 63.7026 1.8426 63.6164C2.08862 63.4731 2.36501 63.3157 2.66367 63.1484C3.52018 62.6692 4.39389 62.2052 5.23521 61.7932C6.28509 61.279 7.21246 60.8821 7.97988 60.6305C9.12492 60.2576 9.92574 60.1805 10.4826 60.6075ZM15.3928 71.5418C16.6695 71.5418 17.693 71.8716 18.4635 72.5311C19.2339 73.1916 19.6186 74.0797 19.6186 75.1963C19.6186 75.8097 19.5073 76.3931 19.2855 76.9443C19.0638 77.4956 18.7226 78.0649 18.262 78.6503C17.8013 79.2356 17.036 80.0285 15.9648 81.0268L13.5796 83.3141V83.4073H20.0975V85.3318H10.7903V83.6769L14.3308 80.1528C15.3766 79.0923 16.0701 78.3406 16.4113 77.8975C16.7525 77.4545 17.0005 77.0375 17.1585 76.6466C17.3144 76.2557 17.3923 75.8378 17.3923 75.3917C17.3923 74.7773 17.2071 74.2942 16.8335 73.9404C16.4609 73.5876 15.9456 73.4101 15.2885 73.4101C14.7631 73.4101 14.2548 73.5064 13.7628 73.6988C13.2708 73.8913 12.7028 74.2381 12.0579 74.7402L10.8653 73.2989C11.6286 72.6604 12.3707 72.2084 13.0906 71.9417C13.8114 71.6751 14.5778 71.5418 15.3928 71.5418ZM29.3206 71.6992V80.5517H31.1723V82.3659H29.3206V85.3318H27.1703V82.3659H20.8963V80.682L27.1703 71.6992H29.3206ZM27.2644 74.1549H27.1895C27.0143 74.5638 26.739 75.059 26.3634 75.6423L22.9525 80.5517H27.1703V77.1398C27.1703 75.924 27.2027 74.9297 27.2644 74.1549Z" fill="#EC0000"/>
</svg>
