<svg width="108" height="114" viewBox="0 0 108 114" fill="none" xmlns="http://www.w3.org/2000/svg">
<path fill-rule="evenodd" clip-rule="evenodd" d="M30.6793 27.0357C10.8498 32.671 0.0928971 46.872 0 62.1247V62.526C0.0191853 65.5914 0.468524 68.6958 1.36114 71.7801C6.73807 90.3624 22.468 118.582 57.8779 113.369C93.2889 108.155 98.7264 100.368 103.863 91.7955C113.809 75.1948 105.19 45.4098 84.7747 45.574C75.6354 47.4684 71.554 41.4298 66.1134 35.3911C61.3676 30.1231 55.5858 24.854 44.5098 24.853C40.6142 24.853 36.0683 25.5045 30.6793 27.0357Z" fill="#191919"/>
<path fill-rule="evenodd" clip-rule="evenodd" d="M48.2527 15.7988L31.7302 87.9193H19.5576V98.7276H87.009V87.9193H75.7341L59.2166 15.7988H48.2527Z" fill="#5C5C5C"/>
<path fill-rule="evenodd" clip-rule="evenodd" d="M62.8334 88.8525C62.8334 88.8535 62.8323 88.8545 62.8313 88.8575C62.8222 89.0957 62.7233 89.3119 62.5597 89.466C62.5446 89.48 62.5264 89.487 62.5092 89.499C62.4385 89.5591 62.3668 89.6171 62.278 89.6522C62.171 89.6972 62.0538 89.7212 61.9296 89.7212H21.375V93.8564H85.1913V89.7212H68.492C68.3688 89.7212 68.2517 89.6972 68.1436 89.6522C68.0568 89.6161 67.9821 89.5581 67.9124 89.498C67.8952 89.486 67.8771 89.48 67.8629 89.466C67.7004 89.3109 67.5984 89.0947 67.5903 88.8525H62.8334Z" fill="white"/>
<path fill-rule="evenodd" clip-rule="evenodd" d="M53.9217 17.6006L61.2344 48.2682H42.6802L40.7748 56.5816H63.2175L65.4521 65.9528H38.627L36.7227 74.2642H67.4332L70.6897 87.9197H73.8704L70.3272 72.4428L68.8388 65.9528L67.7584 61.2322L66.6931 56.5816L64.7887 48.2682L57.7649 17.6006H53.9217Z" fill="white"/>
<path fill-rule="evenodd" clip-rule="evenodd" d="M46.6151 0.000976562C46.0799 0.0229935 45.6548 0.457328 45.6548 0.991739V6.96133C45.6548 7.50976 46.1011 7.9531 46.6565 7.9531C47.2088 7.9531 47.6571 7.50976 47.6571 6.96133V0.991739C47.6571 0.457328 47.23 0.0229935 46.6968 0.000976562H46.6151Z" fill="#EC0000"/>
<path fill-rule="evenodd" clip-rule="evenodd" d="M34.0466 12.5586C33.4933 12.5586 33.0439 13.0019 33.0439 13.5494C33.0439 14.0978 33.4933 14.5411 34.0466 14.5411H40.0607C40.6161 14.5411 41.0624 14.0978 41.0624 13.5494C41.0624 13.0019 40.6161 12.5586 40.0607 12.5586H34.0466Z" fill="#EC0000"/>
<path fill-rule="evenodd" clip-rule="evenodd" d="M36.2815 3.52169C35.8897 3.90899 35.8907 4.53747 36.2835 4.92477L41.6463 10.0767C42.0391 10.464 42.6732 10.464 43.063 10.0767C43.4527 9.69044 43.4517 9.06096 43.0599 8.67266L37.6962 3.52169C37.5003 3.32754 37.2438 3.23047 36.9873 3.23047C36.7318 3.23047 36.4764 3.32754 36.2815 3.52169Z" fill="#EC0000"/>
<path fill-rule="evenodd" clip-rule="evenodd" d="M88.8905 19.5539L87.4143 18.0918L86.3379 19.1586L87.8142 20.6208L86.3379 22.0829L87.4143 23.1497L88.8905 21.6866L90.3658 23.1497L91.4402 22.0829L89.9659 20.6208L91.4412 19.1576L90.3658 18.0908L88.8905 19.5539Z" fill="#6EE3FF"/>
<path fill-rule="evenodd" clip-rule="evenodd" d="M14.3496 64.3343C14.3496 66.2678 15.9309 67.836 17.8837 67.836C19.8376 67.836 21.4179 66.2678 21.4179 64.3343C21.4179 62.3988 19.8376 60.8306 17.8837 60.8306C15.9309 60.8306 14.3496 62.3988 14.3496 64.3343ZM16.3691 64.3343C16.3691 63.5036 17.0477 62.8321 17.8837 62.8321C18.7208 62.8321 19.3984 63.5036 19.3984 64.3343C19.3984 65.1639 18.7208 65.8344 17.8837 65.8344C17.0477 65.8344 16.3691 65.1639 16.3691 64.3343Z" fill="#0D4F80"/>
<path fill-rule="evenodd" clip-rule="evenodd" d="M88.8905 67.5921L87.4143 66.1279L86.3379 67.1957L87.8142 68.6579L86.3379 70.12L87.4143 71.1878L88.8905 69.7237L90.3658 71.1858L91.4402 70.12L89.9659 68.6579L91.4412 67.1957L90.3658 66.1279L88.8905 67.5921Z" fill="white"/>
<path fill-rule="evenodd" clip-rule="evenodd" d="M21.375 93.8564H85.1913V96.9268H21.375V93.8564Z" fill="#EC0000"/>
<path fill-rule="evenodd" clip-rule="evenodd" d="M40.7747 56.5815L38.627 65.9528H65.451L63.2164 56.5815H40.7747Z" fill="#EC0000"/>
<path fill-rule="evenodd" clip-rule="evenodd" d="M49.7046 17.6006L42.6787 48.2682H61.2329L53.9213 17.6006H49.7046Z" fill="#EC0000"/>
<path fill-rule="evenodd" clip-rule="evenodd" d="M36.723 74.2646L33.5938 87.9202H61.9304C62.4332 87.9202 62.8392 88.3235 62.8392 88.8208C62.8392 88.8319 62.8321 88.8419 62.8321 88.8529H67.59C67.59 88.8419 67.583 88.8319 67.583 88.8208C67.583 88.3235 67.9899 87.9202 68.4938 87.9202H70.689L67.4335 74.2646H36.723Z" fill="#EC0000"/>
</svg>
