<svg width="118" height="96" viewBox="0 0 118 96" fill="none" xmlns="http://www.w3.org/2000/svg">
<path fill-rule="evenodd" clip-rule="evenodd" d="M55.756 95.1221C95.963 99.1376 116.685 89.3782 117.921 65.8437C119.776 30.5414 88.5273 34.355 79.4273 25.0506C70.3253 15.7472 80.521 28.9692 62.994 9.68932C51.3083 -3.16359 35.7386 -3.2296 16.2838 9.49229C0.590371 22.0952 -1.10739 38.6226 11.1905 59.0747C23.4884 79.5277 38.3435 91.5435 55.756 95.1221Z" fill="#E5E5E5"/>
<path fill-rule="evenodd" clip-rule="evenodd" d="M26.5831 59.8993C26.581 61.5295 26.58 62.8627 26.578 64.2369C26.574 67.9535 26.5709 71.517 26.5679 75.0945L61.5316 75.0955C62.306 75.1005 62.9304 75.7306 62.9253 76.5007V78.362C62.9142 82.5467 65.7421 86.2102 69.8066 87.2774C70.7259 87.5134 71.6908 87.5134 72.6102 87.2774C73.5457 87.0343 74.4123 86.6483 75.1978 86.1552C77.6659 84.4869 79.234 81.6825 79.24 78.5831V26.2573V17.2839C79.2441 14.5325 80.5405 12.0691 82.5727 10.4829H78.7687H54.472L26.5861 57.925C26.5851 58.4501 26.5841 59.0842 26.5831 59.8993Z" fill="white"/>
<path fill-rule="evenodd" clip-rule="evenodd" d="M26.5925 51.2805V52.4617C26.5915 53.3098 26.5905 54.406 26.5884 55.9122V56.2672C26.5874 56.6943 26.5874 57.2024 26.5864 57.9245L54.4723 10.4824H37.4166C35.209 10.4864 33.1585 11.1385 31.4293 12.2477C28.5143 14.235 26.5986 17.5685 26.5925 21.351V36.6473C26.5925 37.0264 26.3543 37.3464 26.0188 37.4794C25.9843 37.5094 25.9438 37.5304 25.9053 37.5545V41.149C26.3675 41.193 26.7344 41.5651 26.7344 42.0321V43.8704C26.7344 44.3385 26.3675 44.7105 25.9053 44.7535V50.4254C26.2975 50.5264 26.5925 50.8624 26.5925 51.2805Z" fill="#E9F4F7"/>
<path fill-rule="evenodd" clip-rule="evenodd" d="M89.6647 11.7758L88.5 11.5338C88.2801 11.5088 88.0551 11.4958 87.828 11.4958C87.6486 11.4858 87.4712 11.4858 87.2918 11.4958C86.2407 11.5888 85.2839 11.9549 84.4619 12.4979C83.0236 13.5591 82.0952 15.2283 82.0698 17.1006V24.0917H93.8518V17.3587C93.8467 14.7463 92.0912 12.5339 89.6647 11.7758Z" fill="#0D4F80"/>
<path fill-rule="evenodd" clip-rule="evenodd" d="M26.7336 43.8698V42.0328C26.7336 41.5648 26.3677 41.1928 25.9055 41.1488C25.8761 41.1468 25.8518 41.1328 25.8224 41.1328C25.3187 41.1328 24.9092 41.5358 24.9092 42.0328V43.8698C24.9092 44.3668 25.3187 44.7698 25.8224 44.7698C25.8518 44.7698 25.8761 44.7558 25.9055 44.7528C26.3677 44.7098 26.7336 44.3378 26.7336 43.8698Z" fill="#0F2B4A"/>
<path fill-rule="evenodd" clip-rule="evenodd" d="M68.5212 36.0961H37.4415C36.9378 36.0961 36.5293 36.4991 36.5293 36.9962C36.5293 37.4933 36.9378 37.8963 37.4415 37.8963H68.5212C69.025 37.8963 69.4324 37.4933 69.4324 36.9962C69.4324 36.4991 69.025 36.0961 68.5212 36.0961ZM72.1124 23.1938H37.4415C36.9378 23.1938 36.5293 23.5969 36.5293 24.094C36.5293 24.5911 36.9378 24.9941 37.4415 24.9941H72.1124C72.6161 24.9941 73.0236 24.5911 73.0236 24.094C73.0236 23.5969 72.6161 23.1938 72.1124 23.1938Z" fill="#0D4F80"/>
<path fill-rule="evenodd" clip-rule="evenodd" d="M51.1524 48.998H37.4416C36.9378 48.998 36.5283 49.4011 36.5283 49.8982C36.5283 50.3953 36.9378 50.7983 37.4416 50.7983H51.1524C51.6561 50.7983 52.0646 50.3953 52.0646 49.8982C52.0646 49.4011 51.6561 48.998 51.1524 48.998ZM51.1524 61.8999H37.4416C36.9378 61.8999 36.5283 62.3029 36.5283 62.8C36.5283 63.2971 36.9378 63.7001 37.4416 63.7001H51.1524C51.6561 63.7001 52.0646 63.2971 52.0646 62.8C52.0646 62.3029 51.6561 61.8999 51.1524 61.8999Z" fill="#A6CED7"/>
<path fill-rule="evenodd" clip-rule="evenodd" d="M6.3471 73.9715L5.14396 75.1585L3.17557 73.2155L1.20313 75.1615L0 73.9735L1.97244 72.0285L0.00304077 70.0855L1.20617 68.8995L3.17456 70.8425L5.14599 68.8965L6.35014 70.0835L4.37769 72.0295L6.3471 73.9715Z" fill="#0F2B4A"/>
<path fill-rule="evenodd" clip-rule="evenodd" d="M109.241 28.7101C107.495 28.7101 106.082 27.3091 106.082 25.5811C106.082 23.8541 107.495 22.4531 109.241 22.4531C110.988 22.4531 112.401 23.8541 112.401 25.5811C112.401 27.3091 110.988 28.7101 109.241 28.7101ZM109.241 26.9271C109.988 26.9271 110.596 26.3251 110.596 25.5811C110.596 24.8371 109.988 24.2361 109.241 24.2361C108.494 24.2361 107.887 24.8371 107.887 25.5811C107.887 26.3251 108.494 26.9271 109.241 26.9271Z" fill="#6EE3FF"/>
<path fill-rule="evenodd" clip-rule="evenodd" d="M87.9905 8.65723H87.0934L37.4144 8.68323C34.8277 8.68723 32.4255 9.45334 30.4064 10.7575C26.8639 13.0459 24.5144 17.0045 24.5073 21.5151V36.8124C24.5073 37.3095 24.9158 37.7126 25.4206 37.7126C25.602 37.7126 25.7622 37.6465 25.9051 37.5555C25.9436 37.5305 25.9831 37.5095 26.0176 37.4795C26.2071 37.3145 26.3318 37.0805 26.3318 36.8124V21.5161C26.3379 17.6246 28.3711 14.2121 31.4291 12.2478C33.1573 11.1386 35.2088 10.4865 37.4164 10.4835H54.4721L78.7688 10.4825H82.5718C80.5406 12.0687 79.2442 14.5331 79.2401 17.2835V26.2578V78.5836C79.2341 81.6821 77.666 84.4865 75.1979 86.1548C74.3465 86.7309 73.3897 87.1729 72.3498 87.442C71.4304 87.679 70.4655 87.679 69.5462 87.442C65.4817 86.3758 62.6538 82.7113 62.6649 78.5276V76.6664C62.671 75.8962 62.0456 75.2662 61.2723 75.2612L26.3085 75.2602C26.3105 71.6816 26.3136 68.1191 26.3176 64.4015C26.3196 63.0273 26.3207 61.6951 26.3227 60.0639C26.3257 58.1276 26.3267 57.1695 26.3277 56.4333V56.0783C26.3298 54.5711 26.3308 53.4759 26.3318 52.6268V51.4456C26.3318 50.9485 25.9243 50.5455 25.4206 50.5455C25.3 50.5455 25.1864 50.5715 25.082 50.6135C24.7465 50.7465 24.5073 51.0665 24.5073 51.4456C24.5073 52.4627 24.5063 53.894 24.5033 56.4303L24.5023 56.5554C24.5023 57.2765 24.5002 58.2326 24.4982 60.0619C24.4962 61.6931 24.4942 63.0253 24.4932 64.3995C24.4901 68.0601 24.4871 71.5716 24.484 75.0951V75.2602L15.7915 75.2612C15.5705 75.2612 15.3658 75.3152 15.1803 75.4062C14.713 75.6322 14.3887 76.1053 14.3887 76.6564V78.6296C14.3826 85.2186 19.7455 90.5644 26.3642 90.5694H70.0783C70.3875 90.5694 70.8649 90.5694 71.172 90.5234C71.7173 90.4734 72.2585 90.3834 72.7897 90.2524C74.1996 89.9263 75.498 89.3562 76.6545 88.6001C79.9547 86.4418 82.0681 82.7393 82.0731 78.6296V26.2578V24.0915H93.852H95.2488H95.2548C95.5853 24.0915 95.8853 23.8745 96.1255 23.6835C96.4478 23.4274 96.6577 23.0384 96.6577 22.5973V17.3585C96.6769 12.5738 92.7979 8.67823 87.9905 8.65723Z" fill="#0F2B4A"/>
<path fill-rule="evenodd" clip-rule="evenodd" d="M89.6647 11.7758L88.5 11.5338C88.2801 11.5088 88.0551 11.4958 87.828 11.4958C87.6486 11.4858 87.4712 11.4858 87.2918 11.4958C86.2407 11.5888 85.2839 11.9549 84.4619 12.4979C83.0236 13.5591 82.0952 15.2283 82.0698 17.1006V24.0917H93.8518V17.3587C93.8467 14.7463 92.0912 12.5339 89.6647 11.7758Z" fill="#0D4F80"/>
<path fill-rule="evenodd" clip-rule="evenodd" d="M85.8105 56.3118L81.3588 51.9202L76.9416 56.2778L75.2033 54.5626L79.6205 50.2049L75.1688 45.8123L76.898 44.106L81.3497 48.4987L85.7659 44.14L87.5052 45.8553L83.087 50.2139L87.5386 54.6066L85.8105 56.3118ZM81.5676 32.8203C71.975 32.8203 64.1987 40.4775 64.1987 49.9229C64.1987 59.3683 71.975 67.0254 81.5676 67.0254C85.1689 67.0254 88.5127 65.9462 91.2869 64.1C92.6441 63.1958 93.8614 62.1047 94.9095 60.8695C97.4221 57.9031 98.9375 54.0885 98.9375 49.9229C98.9375 40.4775 91.1612 32.8203 81.5676 32.8203Z" fill="white"/>
<path fill-rule="evenodd" clip-rule="evenodd" d="M91.2871 64.0999C88.5129 65.9472 85.1691 67.0254 81.5678 67.0254C71.9742 67.0254 64.198 59.3682 64.198 49.9228C64.198 40.4784 71.9742 32.8203 81.5678 32.8203C91.1615 32.8203 98.9377 40.4784 98.9377 49.9228C98.9377 54.0885 97.4224 57.904 94.9087 60.8705C93.8617 62.1056 92.6443 63.1958 91.2871 64.0999ZM106.834 72.6182L96.2 62.1417C99.0401 58.8462 100.763 54.5855 100.763 49.9228C100.763 39.4833 92.1679 31.02 81.5678 31.02C74.9856 31.02 69.1808 34.2865 65.7234 39.2602C65.5683 39.4843 65.4295 39.7203 65.2845 39.9513C65.1244 40.2054 64.9592 40.4564 64.8112 40.7185C64.6764 40.9545 64.5558 41.2005 64.4311 41.4436C64.2922 41.7156 64.1534 41.9887 64.0267 42.2687C63.9182 42.5117 63.8168 42.7588 63.7185 43.0068C63.5999 43.3038 63.4874 43.6029 63.384 43.9069C63.3009 44.151 63.2219 44.396 63.1479 44.644C63.0516 44.9721 62.9675 45.3051 62.8874 45.6402C62.8327 45.8742 62.7749 46.1083 62.7283 46.3463C62.6543 46.7284 62.5985 47.1174 62.5478 47.5065C62.5225 47.7075 62.487 47.9055 62.4667 48.1086C62.41 48.7067 62.3745 49.3107 62.3745 49.9228C62.3745 50.5499 62.409 51.169 62.4688 51.7801C62.4901 51.9911 62.5306 52.1952 62.558 52.4032C62.6107 52.7993 62.6644 53.1953 62.7414 53.5834C62.7911 53.8324 62.858 54.0755 62.9178 54.3205C62.9989 54.6565 63.08 54.9926 63.1793 55.3206C63.2594 55.5857 63.3536 55.8447 63.4449 56.1048C63.5493 56.3998 63.6537 56.6948 63.7723 56.9839C63.8848 57.2569 64.0074 57.525 64.1321 57.792C64.2527 58.051 64.3763 58.3081 64.5091 58.5611C64.6561 58.8402 64.8102 59.1152 64.9693 59.3852C65.1011 59.6073 65.2359 59.8273 65.3758 60.0433C65.5592 60.3284 65.7498 60.6084 65.9484 60.8815C66.0802 61.0635 66.218 61.2415 66.3559 61.4185C66.5829 61.7086 66.814 61.9966 67.0583 62.2737C67.1779 62.4097 67.3036 62.5397 67.4272 62.6727C67.707 62.9738 67.9908 63.2698 68.2898 63.5519C68.375 63.6319 68.4642 63.7069 68.5503 63.7869C71.3873 66.3643 75.0089 68.1175 79.0298 68.6416C79.863 68.7506 80.7063 68.8256 81.5678 68.8256C85.6719 68.8256 89.4657 67.5475 92.5856 65.3871L103.376 76.0177C104.331 76.9579 105.877 76.9579 106.833 76.0187C106.834 76.0177 106.836 76.0157 106.837 76.0147C107.786 75.0756 107.784 73.5554 106.834 72.6182Z" fill="#EC0000"/>
<path fill-rule="evenodd" clip-rule="evenodd" d="M87.5039 45.8557L85.7645 44.1405L81.3483 48.4991L76.8967 44.1064L75.1675 45.8127L79.6192 50.2044L75.2019 54.563L76.9402 56.2783L81.3585 51.9196L85.8091 56.3123L87.5373 54.607L83.0866 50.2144L87.5039 45.8557Z" fill="#EC0000"/>
<path fill-rule="evenodd" clip-rule="evenodd" d="M68.2892 63.5522C67.9902 63.2701 67.7074 62.9731 67.4267 62.673C67.303 62.541 67.1773 62.41 67.0577 62.274C66.8145 61.9969 66.5824 61.7089 66.3563 61.4188C66.2175 61.2418 66.0806 61.0638 65.9479 60.8818C65.7492 60.6087 65.5596 60.3277 65.3752 60.0436C65.2353 59.8266 65.1005 59.6076 64.9697 59.3855C64.8096 59.1145 64.6555 58.8405 64.5096 58.5614C64.3768 58.3084 64.2541 58.0513 64.1315 57.7923C64.0068 57.5253 63.8842 57.2572 63.7717 56.9842C63.6541 56.6951 63.5497 56.4001 63.4453 56.1051C63.3541 55.845 63.2588 55.586 63.1787 55.3209C63.0784 54.9919 62.9983 54.6558 62.9172 54.3208C62.8584 54.0748 62.7905 53.8327 62.7409 53.5837C62.6628 53.1956 62.6101 52.7996 62.5584 52.4035C62.53 52.1955 62.4895 51.9904 62.4692 51.7804C62.4084 51.1693 62.3739 50.5502 62.3739 49.9231C62.3739 49.311 62.4094 48.707 62.4672 48.1089C62.4864 47.9058 62.5229 47.7078 62.5483 47.5068C62.599 47.1167 62.6527 46.7287 62.7287 46.3466C62.7753 46.1086 62.8321 45.8745 62.8878 45.6405C62.9669 45.3054 63.051 44.9724 63.1483 44.6443C63.2213 44.3963 63.3004 44.1513 63.3835 43.9072C63.4879 43.6032 63.5994 43.3041 63.718 43.0071C63.8173 42.7591 63.9187 42.512 64.0271 42.269C64.1538 41.9889 64.2917 41.7159 64.4305 41.4439C64.5552 41.2008 64.6768 40.9548 64.8106 40.7178C64.9596 40.4567 65.1228 40.2057 65.284 39.9516C65.4299 39.7206 65.5678 39.4846 65.7239 39.2605C66.0289 38.8215 66.3523 38.3954 66.6928 37.9854C63.0419 41.6019 60.7856 46.5886 60.7856 52.0955C60.7856 62.468 68.7859 70.9943 79.0302 71.9974V68.6419C75.0093 68.1168 71.3878 66.3646 68.5508 63.7862C68.4646 63.7072 68.3744 63.6322 68.2892 63.5522Z" fill="#C6ECF6"/>
</svg>
