<svg width="120" height="124" viewBox="0 0 120 124" fill="none" xmlns="http://www.w3.org/2000/svg">
<path fill-rule="evenodd" clip-rule="evenodd" d="M47.0824 31.783C10.0361 45.086 5.72917 54.5862 1.90219 64.8558C-5.50927 84.7434 9.64834 114.64 31.5701 110.001C52.169 101.241 54.3916 137.933 93.405 117.956C117.848 105.44 125.536 82.4562 116.08 63.8033C106.624 45.1515 84.1287 18.4799 47.0824 31.783Z" fill="#191919"/>
<path fill-rule="evenodd" clip-rule="evenodd" d="M29.8624 20.4231L28.7952 21.4952L27.3311 20.0241L25.8661 21.4962L24.7979 20.4231L26.2619 18.952L24.7979 17.4789L25.8661 16.4068L27.3301 17.8779L28.7952 16.4058L29.8634 17.4789L28.3984 18.952L29.8624 20.4231Z" fill="#6EE3FF"/>
<path fill-rule="evenodd" clip-rule="evenodd" d="M104.466 31.3467C102.528 31.3467 100.959 29.7686 100.959 27.8218C100.959 25.875 102.528 24.2969 104.466 24.2969C106.404 24.2969 107.974 25.875 107.974 27.8218C107.974 29.7686 106.404 31.3467 104.466 31.3467ZM104.466 29.3325C105.296 29.3325 105.969 28.6567 105.969 27.8218C105.969 26.9869 105.296 26.3111 104.466 26.3111C103.637 26.3111 102.963 26.9869 102.963 27.8218C102.963 28.6567 103.637 29.3325 104.466 29.3325Z" fill="#0D4F80"/>
<path fill-rule="evenodd" clip-rule="evenodd" d="M74.5636 6.34619C74.8372 6.82356 74.6738 7.43489 74.1989 7.70983C73.7229 7.98578 73.1156 7.82364 72.841 7.34626L69.8518 2.14348C69.5772 1.6661 69.7416 1.05579 70.2166 0.778829C70.6935 0.502878 71.3008 0.666032 71.5754 1.14341L74.5636 6.34619ZM83.1646 10.1627C82.6886 10.4386 82.0813 10.2755 81.8077 9.79809C81.5332 9.32173 81.6965 8.7104 82.1725 8.43445L87.3413 5.43525C87.8173 5.1593 88.4245 5.32245 88.6981 5.79882C88.9737 6.2772 88.8103 6.88752 88.3333 7.16347L83.1646 10.1627ZM79.5673 7.06265C79.424 7.59542 78.8788 7.91166 78.3497 7.76865C77.8206 7.62564 77.507 7.07776 77.6493 6.54399L79.2015 0.740962C79.3438 0.208195 79.8889 -0.10804 80.419 0.0339635C80.9481 0.177982 81.2608 0.725855 81.1195 1.25862L79.5673 7.06265Z" fill="#EC0000"/>
<path fill-rule="evenodd" clip-rule="evenodd" d="M97.6615 88.0196L36.7414 104.426C31.9043 105.728 28.6946 105.253 26.6454 103.454C25.2003 102.186 24.5249 100.673 23.7764 97.8642L10.8514 49.3875C10.7713 49.0884 10.7171 48.7953 10.6741 48.5052C10.664 48.4277 10.654 48.3522 10.645 48.2756C10.6159 48.0218 10.5989 47.77 10.5979 47.5233C10.5979 47.486 10.5947 47.4498 10.5947 47.4135C10.5989 47.1366 10.625 46.8646 10.664 46.5967C10.6731 46.5283 10.6871 46.4598 10.6991 46.3923C10.7402 46.1687 10.7923 45.9492 10.8574 45.7336C10.8775 45.6642 10.8925 45.5947 10.9166 45.5262L10.9236 45.503C10.9336 45.4748 10.9476 45.4476 10.9576 45.4204C10.9947 45.7115 11.0528 46.0036 11.137 46.2926C11.6461 48.2041 13.0891 49.2193 15.0091 49.4993L15.3017 49.5365C16.2697 49.6413 17.1486 49.5567 17.7638 49.4227L85.7556 31.1133C88.4001 31.6471 90.5276 33.6351 91.2281 36.2647L102.687 79.2415C103.705 83.0646 101.456 86.9923 97.6615 88.0196Z" fill="white"/>
<path fill-rule="evenodd" clip-rule="evenodd" d="M97.6615 88.0196L36.7414 104.426C31.9043 105.728 28.6946 105.253 26.6454 103.454C25.2003 102.186 24.5249 100.673 23.7764 97.8642L10.8514 49.3875C10.7713 49.0884 10.7171 48.7953 10.6741 48.5052C10.664 48.4277 10.654 48.3522 10.645 48.2756C10.6159 48.0218 10.5989 47.77 10.5979 47.5233C10.5979 47.486 10.5947 47.4498 10.5947 47.4135C10.5989 47.1366 10.625 46.8646 10.664 46.5967C10.6731 46.5283 10.6871 46.4598 10.6991 46.3923C10.7402 46.1687 10.7923 45.9492 10.8574 45.7336C10.8775 45.6642 10.8925 45.5947 10.9166 45.5262L10.9236 45.503C10.9336 45.4748 10.9476 45.4476 10.9576 45.4204C10.9947 45.7115 11.0528 46.0036 11.137 46.2926C11.6461 48.2041 13.0891 49.2193 15.0091 49.4993L15.3017 49.5365C16.2697 49.6413 17.1486 49.5567 17.7638 49.4227L85.7556 31.1133C88.4001 31.6471 90.5276 33.6351 91.2281 36.2647L102.687 79.2415C103.705 83.0646 101.456 86.9923 97.6615 88.0196Z" fill="white"/>
<path fill-rule="evenodd" clip-rule="evenodd" d="M95.7772 64.596C95.4345 65.1943 94.8713 65.6303 94.209 65.8086L91.2909 66.5942C90.6285 66.7734 89.923 66.6777 89.3288 66.3323C89.0342 66.1591 88.7786 65.9315 88.5752 65.6636C88.1393 65.6555 87.7084 65.5488 87.3246 65.3252C86.7324 64.9787 86.3005 64.4087 86.1241 63.741L85.3415 60.8042C85.1611 60.1385 85.2523 59.4275 85.594 58.8293C85.9357 58.232 86.4999 57.7949 87.1613 57.6167L90.0793 56.8311C90.7417 56.6529 91.4482 56.7475 92.0404 57.094C92.3361 57.2662 92.5916 57.4948 92.795 57.7627C93.2309 57.7708 93.6618 57.8765 94.0446 58.1011C94.6379 58.4476 95.0708 59.0166 95.2461 59.6843L96.0288 62.6211C96.2091 63.2868 96.1179 63.9978 95.7772 64.596ZM91.2287 36.2647C90.5283 33.6341 88.4008 31.6471 85.7563 31.1123L69.6898 35.4389L52.2394 100.251L97.6622 88.0196C101.457 86.9924 103.706 83.0646 102.688 79.2416L91.2287 36.2647ZM37.6384 104.011C33.9347 105.009 30.1277 102.8 29.1346 99.0776L17.4182 55.1309C16.854 53.0139 17.324 50.8647 18.5125 49.2211L17.7639 49.4226C17.1496 49.5565 16.2708 49.6411 15.3018 49.5364L15.0092 49.5001C14.2887 49.3944 13.6373 49.1859 13.0752 48.8656C12.3256 48.4386 11.7384 47.8122 11.3716 46.9672C11.2794 46.7557 11.2012 46.5311 11.1381 46.2924C11.0539 46.0034 10.9948 45.7113 10.9577 45.4203C10.9477 45.4485 10.9347 45.4746 10.9247 45.5028L10.9166 45.526C10.8936 45.5945 10.8786 45.664 10.8575 45.7335C10.7924 45.949 10.7403 46.1686 10.6992 46.3921C10.6872 46.4596 10.6741 46.5281 10.6641 46.5966C10.625 46.8645 10.6 47.1364 10.5958 47.4133C10.595 47.4496 10.599 47.4869 10.599 47.5231C10.6 47.7699 10.616 48.0216 10.6451 48.2754C10.6541 48.352 10.6641 48.4285 10.6751 48.5051C10.7182 48.7951 10.7713 49.0882 10.8525 49.3873L23.7765 97.864C24.525 100.674 25.2014 102.186 26.6455 103.454C28.6947 105.253 31.9044 105.728 36.7415 104.425L37.6985 104.168L37.6384 104.011Z" fill="#E8E8E8"/>
<path fill-rule="evenodd" clip-rule="evenodd" d="M95.2451 59.6843C95.0698 59.0166 94.6379 58.4465 94.0446 58.1011C93.6608 57.8765 93.2299 57.7708 92.795 57.7627C93.0004 58.0316 93.1528 58.3418 93.2409 58.6772L94.0236 61.6139C94.204 62.2796 94.1128 62.9907 93.7721 63.5889C93.4293 64.1871 92.8662 64.6232 92.2038 64.8015L89.2867 65.587C89.0512 65.6505 88.8127 65.6666 88.5742 65.6636C88.7776 65.9314 89.0332 66.1591 89.3288 66.3323C89.922 66.6777 90.6285 66.7734 91.2909 66.5941L94.208 65.8086C94.8704 65.6303 95.4335 65.1942 95.7762 64.596C96.1169 63.9978 96.2081 63.2868 96.0278 62.621L95.2451 59.6843Z" fill="#6EE3FF"/>
<path fill-rule="evenodd" clip-rule="evenodd" d="M92.2033 64.8013C92.8657 64.6231 93.4298 64.187 93.7716 63.5887C94.1123 62.9905 94.2035 62.2795 94.0231 61.6138L93.2404 58.677C93.1523 58.3416 92.9999 58.0315 92.7945 57.7626C92.5911 57.4947 92.3356 57.266 92.0399 57.0938C91.4467 56.7464 90.7402 56.6527 90.0789 56.831L87.1608 57.6165C86.4994 57.7948 85.9342 58.2319 85.5925 58.8291C85.2518 59.4273 85.1606 60.1384 85.34 60.8041L86.1236 63.7408C86.299 64.4085 86.7309 64.9786 87.3241 65.325C87.7079 65.5486 88.1378 65.6554 88.5737 65.6624C88.8122 65.6664 89.0507 65.6503 89.2862 65.5869L92.2033 64.8013Z" fill="#0F2B4A"/>
<path fill-rule="evenodd" clip-rule="evenodd" d="M97.6617 88.0196L36.7416 104.426C31.9045 105.728 28.6948 105.253 26.6456 103.454C25.2005 102.186 24.5251 100.673 23.7766 97.8642L10.8516 49.3874C10.7715 49.0883 10.7173 48.7952 10.6743 48.5052C10.6642 48.4276 10.6542 48.3521 10.6452 48.2756C10.6161 48.0218 10.5991 47.77 10.5981 47.5233C10.5981 47.486 10.5949 47.4497 10.5949 47.4135C10.5991 47.1365 10.6252 46.8646 10.6642 46.5967C10.6733 46.5282 10.6873 46.4597 10.6993 46.3923C10.7404 46.1687 10.7925 45.9491 10.8576 45.7336C10.8777 45.6641 10.8927 45.5946 10.9168 45.5261L10.9238 45.503C10.9338 45.4748 10.9478 45.4476 10.9578 45.4204C10.9949 45.7114 11.053 46.0035 11.1372 46.2926C11.2014 46.5312 11.2795 46.7558 11.3717 46.9673C11.7385 47.8123 12.3257 48.4387 13.0753 48.8657C13.6364 49.186 14.2888 49.3945 15.0093 49.4992L15.3019 49.5365C16.2699 49.6412 17.1488 49.5566 17.764 49.4227L18.5126 49.2213L69.6893 35.4398L85.7558 31.1132C88.4003 31.647 90.5278 33.6351 91.2282 36.2647L102.687 79.2415C103.705 83.0645 101.457 86.9923 97.6617 88.0196ZM104.429 78.7722L92.9709 35.7963C92.1241 32.6179 89.6209 30.1776 86.4723 29.4062L83.5673 18.5051C82.2886 13.7122 77.3924 10.8661 72.6305 12.1482L72.4832 12.2015L15.2718 38.9094L15.2648 38.9124H15.2638C10.8466 41.0223 8.50273 44.2763 8.81237 48.1567C8.85646 48.7106 8.95567 49.2777 9.10899 49.8557L22.0329 98.3335C22.8707 101.474 23.6603 103.24 25.4581 104.819C28.0074 107.058 31.8354 107.623 37.2086 106.176L98.1296 89.7709C102.888 88.4828 105.705 83.561 104.429 78.7722Z" fill="#5C5C5C"/>
<path fill-rule="evenodd" clip-rule="evenodd" d="M81.7902 18.9326L84.6071 29.4953L17.3478 47.6094C17.3088 47.6164 13.5439 48.404 12.8344 45.7462C12.3685 44.1268 12.9777 42.3935 14.3536 41.4337C14.3616 41.4277 14.3656 41.4186 14.3736 41.4126C14.9098 41.0691 15.4619 40.768 16.006 40.5092V40.5082L73.1232 13.8447C73.2414 13.8145 73.3607 13.7923 73.4789 13.7681C73.5801 13.747 73.6813 13.7208 73.7835 13.7047C73.9238 13.6815 74.0661 13.6694 74.2074 13.6553C74.2956 13.6463 74.3838 13.6322 74.472 13.6261C74.6173 13.6181 74.7626 13.6201 74.9079 13.6201C74.9931 13.6201 75.0792 13.614 75.1634 13.6171C75.3057 13.6221 75.447 13.6382 75.5893 13.6523C75.6755 13.6604 75.7637 13.6644 75.8509 13.6755C75.9871 13.6936 76.1214 13.7238 76.2557 13.75C76.3469 13.7681 76.4391 13.7802 76.5303 13.8014C76.6565 13.8316 76.7808 13.8729 76.9061 13.9101C77.0033 13.9383 77.0995 13.9615 77.1957 13.9947C77.3259 14.039 77.4532 14.0954 77.5815 14.1478C77.6676 14.1841 77.7568 14.2133 77.842 14.2525C78.0535 14.3492 78.2629 14.458 78.4683 14.5768C80.1168 15.5346 81.2972 17.0826 81.7902 18.9326Z" fill="#0F2B4A"/>
<path fill-rule="evenodd" clip-rule="evenodd" d="M81.7902 18.9326L84.6071 29.4953L17.3478 47.6094C17.3088 47.6164 13.5439 48.404 12.8344 45.7462C12.3685 44.1268 12.9777 42.3935 14.3536 41.4337C14.3616 41.4277 14.3656 41.4186 14.3736 41.4126C14.9098 41.0691 15.4619 40.768 16.006 40.5092V40.5082L73.1232 13.8447C73.2414 13.8145 73.3607 13.7923 73.4789 13.7681C73.5801 13.747 73.6813 13.7208 73.7835 13.7047C73.9238 13.6815 74.0661 13.6694 74.2074 13.6553C74.2956 13.6463 74.3838 13.6322 74.472 13.6261C74.6173 13.6181 74.7626 13.6201 74.9079 13.6201C74.9931 13.6201 75.0792 13.614 75.1634 13.6171C75.3057 13.6221 75.447 13.6382 75.5893 13.6523C75.6755 13.6604 75.7637 13.6644 75.8509 13.6755C75.9871 13.6936 76.1214 13.7238 76.2557 13.75C76.3469 13.7681 76.4391 13.7802 76.5303 13.8014C76.6565 13.8316 76.7808 13.8729 76.9061 13.9101C77.0033 13.9383 77.0995 13.9615 77.1957 13.9947C77.3259 14.039 77.4532 14.0954 77.5815 14.1478C77.6676 14.1841 77.7568 14.2133 77.842 14.2525C78.0535 14.3492 78.2629 14.458 78.4683 14.5768C80.1168 15.5346 81.2972 17.0826 81.7902 18.9326V18.9326Z" stroke="#0F2B4A" stroke-width="0.1"/>
<path fill-rule="evenodd" clip-rule="evenodd" d="M54.5615 37.5839L84.6072 29.4927L81.7913 18.93C81.7282 18.6943 81.654 18.4647 81.5698 18.2401C81.5428 18.1656 81.5067 18.0961 81.4756 18.0226C81.4155 17.8766 81.3564 17.7285 81.2873 17.5885C81.2462 17.5049 81.1971 17.4274 81.153 17.3458C81.0868 17.2219 81.0207 17.096 80.9475 16.9782C80.8944 16.8926 80.8343 16.813 80.7772 16.7304C80.704 16.6227 80.6329 16.5129 80.5537 16.4092C80.4916 16.3276 80.4225 16.2531 80.3563 16.1745C80.2751 16.0778 80.197 15.9781 80.1118 15.8865C80.0417 15.8099 79.9655 15.7415 79.8913 15.67C79.8022 15.5823 79.717 15.4927 79.6248 15.4101C79.5466 15.3416 79.4635 15.2792 79.3823 15.2137C79.2881 15.1362 79.1949 15.0576 79.0967 14.9861C79.0115 14.9237 78.9233 14.8683 78.8351 14.8109C78.7349 14.7434 78.6357 14.6739 78.5325 14.6125C78.4423 14.5591 78.3481 14.5128 78.2569 14.4634C78.1497 14.406 78.0455 14.3466 77.9353 14.2952C77.8401 14.2499 77.7419 14.2126 77.6447 14.1714C77.5344 14.125 77.4242 14.0757 77.312 14.0354C77.2128 13.9991 77.1095 13.9709 77.0073 13.9387C76.8931 13.9035 76.7809 13.8652 76.6646 13.835C76.5604 13.8088 76.4542 13.7897 76.348 13.7675C76.2317 13.7433 76.1155 13.7161 75.9982 13.698C75.89 13.6809 75.7808 13.6718 75.6715 13.6597C75.5533 13.6466 75.434 13.6315 75.3148 13.6245C75.2056 13.6184 75.0943 13.6205 74.9851 13.6195C74.8639 13.6174 74.7436 13.6144 74.6214 13.6195C74.5101 13.6235 74.3979 13.6366 74.2877 13.6456C74.1644 13.6567 74.0421 13.6658 73.9209 13.6839C73.8077 13.699 73.6954 13.7232 73.5822 13.7453C73.4409 13.7715 73.2986 13.7957 73.1583 13.832L73.1333 13.838L59.2403 20.3239L54.5615 37.5839Z" fill="#0D4F80"/>
</svg>
