<svg width="116" height="94" viewBox="0 0 116 94" fill="none" xmlns="http://www.w3.org/2000/svg">
<path fill-rule="evenodd" clip-rule="evenodd" d="M51.6503 92.0762C92.2309 98.1681 114.69 89.8243 114.688 66.5838C114.684 31.7231 90.2851 36.6717 79.1914 28.1513C74.133 24.9601 71.7742 22.9488 68.7063 19.6734C66.7209 17.5565 65.3645 16.266 59.668 9.22079C50.0007 -2.73754 30.3455 -3.36297 13.3493 9.09794C-2.84134 20.97 -3.9989 38.3653 8.21789 58.8177C20.2003 78.8772 38.4616 90.0456 51.6503 92.0762Z" fill="#191919"/>
<path fill-rule="evenodd" clip-rule="evenodd" d="M108.381 42.3527L107.723 42.3172L107.895 41.6795C108.245 40.386 108.424 39.0408 108.424 37.6701C108.424 29.5811 102.182 23.0354 94.4943 23.0354C89.438 23.0354 84.9822 25.8925 82.5423 30.1913C82.5393 30.1903 82.5372 30.1893 82.5342 30.1883C82.5078 30.235 82.4865 30.2868 82.4601 30.3345C82.2552 30.7061 82.0594 31.0858 81.8839 31.4777C81.8677 31.5143 81.8514 31.5498 81.8352 31.5863C81.6607 31.9833 81.5075 32.3915 81.3665 32.8068C81.3391 32.8859 81.3107 32.9631 81.2853 33.0433C81.1626 33.4251 81.0611 33.816 80.9688 34.2109C80.9455 34.3155 80.915 34.418 80.8927 34.5226C80.7913 35.012 80.7071 35.5065 80.6533 36.0131L80.5853 36.6467L79.9736 36.469C79.5962 36.3583 79.2096 36.2751 78.816 36.2192C78.4234 36.1634 78.0247 36.1349 77.6209 36.1349C75.668 36.1349 73.8773 36.799 72.4824 37.9036C72.2825 38.062 72.0918 38.2285 71.9092 38.4031C71.544 38.7544 71.2132 39.1372 70.9231 39.5494C70.779 39.7555 70.6431 39.9688 70.5193 40.1881C70.2707 40.6267 70.0648 41.0907 69.9086 41.575C69.6722 42.3019 69.5454 43.0746 69.5454 43.8757C69.5454 44.1193 69.5575 44.362 69.5809 44.6026C69.6042 44.8433 69.6387 45.0819 69.6854 45.3174L69.799 45.8972L62.1688 46.6069C62.0471 46.6089 61.9761 46.6099 61.9061 46.6129C60.8043 46.6596 59.807 47.0241 58.9903 47.6242C57.6289 48.6253 56.7686 50.2823 56.7686 52.2175C56.7686 52.6043 56.8061 52.983 56.8771 53.3475C57.0557 54.2613 57.4442 55.0918 57.989 55.7842C58.2061 56.0604 58.4496 56.3142 58.7124 56.5427C59.2399 56.9986 59.8527 57.3509 60.5202 57.5692C60.854 57.6778 61.202 57.7529 61.5611 57.7915C61.7397 57.8108 61.9213 57.8199 62.1049 57.8199H62.1232H75.8983H107.248V57.8108L107.781 57.8189C107.829 57.8199 107.877 57.8199 107.924 57.8199C108.205 57.8199 108.481 57.8067 108.754 57.7793C108.812 57.7743 108.867 57.7621 108.924 57.755C109.139 57.7296 109.353 57.7022 109.562 57.6616C109.607 57.6524 109.649 57.6382 109.694 57.628C109.912 57.5813 110.13 57.5306 110.341 57.4676C110.37 57.4585 110.399 57.4463 110.428 57.4362C110.653 57.3671 110.875 57.291 111.089 57.2026C111.096 57.1996 111.103 57.1965 111.109 57.1935C112.073 56.7965 112.939 56.2249 113.666 55.5213C113.666 55.5213 113.666 55.5213 113.666 55.5203C115.108 54.1222 116 52.2002 116 50.0802C116 45.9733 112.65 42.5801 108.381 42.3527Z" fill="#0D4F80"/>
<path fill-rule="evenodd" clip-rule="evenodd" d="M81.8838 31.478C82.0593 31.086 82.2551 30.7063 82.46 30.3347C82.2541 30.7063 82.0583 31.085 81.8838 31.478ZM113.666 55.5212C112.939 56.2248 112.073 56.7965 111.109 57.1934C112.073 56.7965 112.939 56.2248 113.666 55.5212Z" fill="#0D4F80"/>
<path fill-rule="evenodd" clip-rule="evenodd" d="M82.5423 30.1915C82.5393 30.1905 82.5372 30.1895 82.5342 30.1885C82.5068 30.2352 82.4865 30.287 82.4601 30.3347C82.2542 30.7063 82.0584 31.086 81.8839 31.4779C81.8666 31.5145 81.8504 31.55 81.8352 31.5866C81.6607 31.9835 81.5065 32.3917 81.3655 32.807C81.3391 32.8862 81.3107 32.9633 81.2853 33.0435C81.1626 33.4253 81.0611 33.8162 80.9688 34.2111C80.9445 34.3157 80.915 34.4183 80.8927 34.5228C80.7903 35.0122 80.7071 35.5067 80.6533 36.0133L80.5853 36.6469L79.9736 36.4692C79.5962 36.3585 79.2086 36.2753 78.816 36.2194C78.4234 36.1636 78.0237 36.1352 77.6209 36.1352C75.668 36.1352 73.8773 36.7992 72.4814 37.9038C72.2825 38.0622 72.0918 38.2287 71.9092 38.4034C71.544 38.7547 71.2132 39.1384 70.9231 39.5496C70.778 39.7557 70.6431 39.969 70.5183 40.1883C70.2707 40.6269 70.0648 41.0909 69.9075 41.5752C69.6722 42.3022 69.5454 43.0748 69.5454 43.8759C69.5454 44.1196 69.5575 44.3622 69.5809 44.6028C69.6042 44.8435 69.6387 45.0821 69.6854 45.3176L69.799 45.8974L62.1678 46.6071C62.0461 46.6091 61.9761 46.6101 61.9061 46.6132C60.8043 46.6599 59.807 47.0244 58.9903 47.6244C57.6278 48.6255 56.7686 50.2825 56.7686 52.2177C56.7686 52.6045 56.8061 52.9832 56.8771 53.3477C57.0546 54.2615 57.4442 55.092 57.989 55.7845C58.2061 56.0606 58.4486 56.3145 58.7124 56.5429C59.2399 56.9988 59.8517 57.3511 60.5202 57.5694C60.854 57.678 61.202 57.7531 61.5601 57.7917C61.7397 57.811 61.9213 57.8202 62.1049 57.8202H62.1232H75.8983H107.248V57.811L107.781 57.8191C107.829 57.8202 107.877 57.8202 107.924 57.8202C108.204 57.8202 108.481 57.807 108.754 57.7795C108.812 57.7745 108.867 57.7623 108.923 57.7552C109.138 57.7298 109.352 57.7024 109.561 57.6618C109.607 57.6526 109.649 57.6384 109.694 57.6283C109.912 57.5816 110.129 57.5308 110.34 57.4678C110.37 57.4587 110.399 57.4465 110.428 57.4364C110.653 57.3673 110.874 57.2912 111.089 57.2029C111.096 57.1998 111.102 57.1968 111.109 57.1937C112.073 56.7967 112.939 56.2251 113.666 55.5215C113.666 55.5215 113.666 55.5215 113.666 55.5205C109.426 35.1066 92.936 35.3067 82.5423 30.1915Z" fill="#083F6B"/>
<path fill-rule="evenodd" clip-rule="evenodd" d="M94.6867 44.9268C94.5386 44.9208 94.3894 44.9177 94.2413 44.9187L83.2399 43.8922C83.316 43.2892 83.3545 42.679 83.3545 42.0647C83.3545 33.727 76.3382 26.9833 67.6996 26.9833C66.5085 26.9833 65.3337 27.1122 64.1924 27.364C62.3064 14.3609 51.5799 4.552 38.8072 4.552C24.6161 4.552 13.1298 16.5987 13.1298 31.4384C13.1298 33.5777 13.3692 35.6845 13.8369 37.7283C6.10225 38.6654 0.158203 45.0263 0.158203 52.6899C0.158203 60.8215 6.83168 67.4363 15.174 67.7581V67.7713H70.6488H94.2332H94.2677C100.332 67.7713 105.232 62.6481 105.232 56.3491C105.232 50.0816 100.706 45.1817 94.6867 44.9268Z" fill="#0F2B4A"/>
<path fill-rule="evenodd" clip-rule="evenodd" d="M4.98287 90.0456C2.7418 90.0456 0.924805 88.2272 0.924805 85.9843C0.924805 83.7415 2.7418 81.9231 4.98287 81.9231C7.22393 81.9231 9.04093 83.7415 9.04093 85.9843C9.04093 88.2272 7.22393 90.0456 4.98287 90.0456ZM4.98287 87.9815C6.08463 87.9815 6.9774 87.088 6.9774 85.9843C6.9774 84.8807 6.08463 83.9862 4.98287 83.9862C3.88212 83.9862 2.98833 84.8807 2.98833 85.9843C2.98833 87.088 3.88212 87.9815 4.98287 87.9815Z" fill="#0D4F80"/>
<path fill-rule="evenodd" clip-rule="evenodd" d="M83.982 10.9573L82.6946 12.2457L80.3856 9.9349L78.0755 12.2468L76.7871 10.9573L79.0972 8.64546L76.7881 6.33461L78.0755 5.04618L80.3856 7.35703L82.6946 5.04517L83.9831 6.33461L81.673 8.64647L83.982 10.9573Z" fill="#6EE3FF"/>
<path fill-rule="evenodd" clip-rule="evenodd" d="M96.1371 79.1709L95.0567 80.2522L93.5745 78.7689L92.0912 80.2532L91.0098 79.1709L92.493 77.6865L91.0098 76.2032L92.0912 75.1219L93.5734 76.6052L95.0567 75.1208L96.1371 76.2032L94.6549 77.6876L96.1371 79.1709Z" fill="#0D4F80"/>
<path fill-rule="evenodd" clip-rule="evenodd" d="M62.8096 63.6479H50.1575L40.4902 91.0613L62.8096 63.6479Z" fill="#990000"/>
<path fill-rule="evenodd" clip-rule="evenodd" d="M94.6106 46.7527C94.4899 46.7476 94.3691 46.7456 94.1612 46.7415L81.0942 45.5272L81.29 44.5342C81.4483 43.7271 81.5284 42.9006 81.5284 42.064C81.5284 34.7527 75.347 28.8111 67.7016 28.8111C66.3198 28.8111 64.9675 29.0051 63.673 29.3828L62.626 29.6874L62.5093 28.603C61.158 15.9939 50.9682 6.37988 38.8092 6.37988C37.5512 6.37988 36.3166 6.48344 35.1103 6.68143C35.1093 6.68143 35.1083 6.68143 35.1072 6.68245C34.4164 6.79514 33.7377 6.94236 33.0681 7.11497C33.0376 7.12309 33.0072 7.1302 32.9768 7.1373C32.3386 7.30585 31.7117 7.50586 31.0959 7.7272C31.0259 7.75258 30.9548 7.77695 30.8848 7.80233C30.2883 8.02266 29.7029 8.26938 29.1297 8.53742C29.0516 8.57397 28.9755 8.61052 28.8984 8.64707C28.3272 8.92222 27.7672 9.21768 27.2214 9.5375C27.1585 9.57304 27.0987 9.61162 27.0368 9.64918C26.4768 9.98322 25.9279 10.3365 25.3983 10.7163C25.377 10.7305 25.3578 10.7467 25.3375 10.762C24.7947 11.1529 24.2672 11.5671 23.7579 12.0027C23.7406 12.0179 23.7234 12.0311 23.7061 12.0453C23.2131 12.4697 22.7393 12.9185 22.2807 13.3825C22.2259 13.4373 22.1701 13.4911 22.1164 13.5459C21.6781 13.9978 21.2581 14.4678 20.8543 14.9521C20.7935 15.0263 20.7316 15.1004 20.6707 15.1755C20.276 15.6608 19.8966 16.1634 19.5365 16.6802C19.4847 16.7553 19.434 16.8325 19.3823 16.9087C19.0211 17.4407 18.6751 17.9859 18.3535 18.5484C18.3251 18.5981 18.2988 18.6499 18.2704 18.7007C17.9437 19.2814 17.6353 19.8744 17.3532 20.4846C17.3451 20.5018 17.336 20.5181 17.3279 20.5353C17.0489 21.1415 16.7973 21.7639 16.5649 22.3954C16.5345 22.4756 16.5031 22.5538 16.4747 22.635C16.2576 23.2432 16.0658 23.8625 15.8933 24.492C15.8639 24.5986 15.8345 24.7042 15.8071 24.8108C15.6438 25.4362 15.5028 26.0708 15.3861 26.7145C15.3668 26.8232 15.3496 26.9318 15.3303 27.0404C15.2207 27.6973 15.1294 28.3624 15.0685 29.0376C15.0614 29.1178 15.0574 29.199 15.0513 29.2812C14.9935 29.993 14.9569 30.7108 14.9569 31.4388C14.9569 32.6125 15.034 33.776 15.1852 34.9223C15.3374 36.0696 15.5636 37.1986 15.8639 38.3063L16.1591 39.3968L15.031 39.4567C13.6604 39.5308 12.3456 39.7938 11.1129 40.2202C10.7021 40.3633 10.3003 40.5227 9.90973 40.7004C8.73492 41.2324 7.65243 41.9178 6.68966 42.73C6.36806 43.0001 6.06066 43.2844 5.76746 43.5819C3.41988 45.9628 1.98535 49.1732 1.98535 52.6902C1.98535 53.1309 2.0097 53.5664 2.05434 53.9959C2.06956 54.1431 2.09898 54.2853 2.11825 54.4315C2.1568 54.7107 2.19434 54.9909 2.25115 55.264C2.28666 55.4377 2.33536 55.6062 2.37797 55.7778C2.43783 56.0164 2.49565 56.255 2.5687 56.4875C2.62653 56.6713 2.6945 56.8489 2.75943 57.0287C2.83653 57.2419 2.91262 57.4541 3.00088 57.6612C3.079 57.848 3.16726 58.0287 3.25451 58.2115C3.34582 58.4024 3.43814 58.5922 3.53857 58.777C3.64104 58.9649 3.74858 59.1476 3.85916 59.3293C3.96163 59.4979 4.06511 59.6654 4.17569 59.8289C4.30048 60.0157 4.43033 60.1985 4.56425 60.3782C4.67382 60.5244 4.78541 60.6685 4.90107 60.8107C5.05223 60.9955 5.20542 61.1782 5.36673 61.3549C5.47731 61.4777 5.59094 61.5965 5.70659 61.7143C5.88515 61.8981 6.06573 62.0788 6.25545 62.2524C6.36096 62.3489 6.47052 62.4413 6.57908 62.5347C6.7901 62.7164 7.00213 62.8961 7.22532 63.0657C7.3146 63.1337 7.40794 63.1956 7.49924 63.2616C7.75084 63.4444 8.00447 63.6231 8.26926 63.7886C8.31897 63.8201 8.37173 63.8465 8.42144 63.8779C8.80797 64.1125 9.21174 64.3247 9.62364 64.5227C9.69262 64.5562 9.76263 64.5907 9.83263 64.6232C10.2547 64.8181 10.6858 64.9968 11.1292 65.1511C11.1424 65.1552 11.1556 65.1582 11.1687 65.1633C11.6101 65.3146 12.0646 65.4405 12.5262 65.5491C12.6185 65.5715 12.7128 65.5887 12.8062 65.609C13.214 65.6964 13.6269 65.7684 14.0479 65.8202C14.0814 65.8253 14.1149 65.8294 14.1484 65.8334C14.6952 65.8984 15.2471 65.9431 15.8132 65.9431C15.8944 65.9431 15.9765 65.9421 16.0577 65.9411L16.9708 65.9258V65.9431H70.6498H94.2383H94.2687C99.3068 65.9431 103.406 61.6564 103.406 56.3484C103.406 51.0464 99.6375 46.9659 94.6106 46.7527Z" fill="white"/>
<path fill-rule="evenodd" clip-rule="evenodd" d="M7.05793 53.6819C7.05793 46.0975 13.2444 39.8331 21.1252 39.4127L22.3416 39.3478L22.023 38.171C21.3778 35.784 21.0461 33.2985 21.0461 30.7664C21.0461 20.2467 26.7679 11.1465 35.1093 6.68115H35.1103C35.1093 6.68115 35.1073 6.68115 35.1062 6.68217C34.4164 6.79487 33.7376 6.94209 33.0681 7.11571C33.0376 7.12383 33.0072 7.12992 32.9768 7.13804C32.3376 7.30658 31.7117 7.50558 31.0948 7.72794C31.0259 7.75332 30.9548 7.77667 30.8848 7.80206C30.2873 8.02339 29.7029 8.2691 29.1287 8.53816C29.0516 8.57369 28.9755 8.61024 28.8984 8.64781C28.3272 8.92194 27.7672 9.2174 27.2214 9.53722C27.1585 9.57377 27.0976 9.61134 27.0358 9.64891C26.4768 9.98294 25.9289 10.3373 25.3983 10.717C25.377 10.7312 25.3578 10.7465 25.3375 10.7617C24.7937 11.1526 24.2671 11.5668 23.7568 12.0034C23.7406 12.0176 23.7234 12.0308 23.7061 12.045C23.2131 12.4694 22.7393 12.9182 22.2797 13.3822C22.2259 13.437 22.1701 13.4908 22.1164 13.5467C21.6781 13.9975 21.2581 14.4676 20.8543 14.9519C20.7934 15.027 20.7316 15.1001 20.6707 15.1752C20.275 15.6616 19.8966 16.1621 19.5365 16.6799C19.4847 16.7551 19.434 16.8322 19.3823 16.9084C19.0211 17.4414 18.6751 17.9856 18.3535 18.5481C18.3241 18.5989 18.2988 18.6507 18.2704 18.7004C17.9427 19.2812 17.6353 19.8751 17.3522 20.4843C17.3451 20.5016 17.336 20.5178 17.3279 20.5361C17.0489 21.1412 16.7973 21.7636 16.565 22.3951C16.5345 22.4753 16.5031 22.5545 16.4747 22.6347C16.2576 23.2429 16.0648 23.8622 15.8923 24.4917C15.8639 24.5983 15.8345 24.7039 15.8071 24.8105C15.6438 25.436 15.5028 26.0705 15.3861 26.7142C15.3668 26.8229 15.3485 26.9315 15.3303 27.0402C15.2197 27.6981 15.1294 28.3621 15.0685 29.0373C15.0614 29.1175 15.0574 29.1997 15.0513 29.2799C14.9935 29.9927 14.9569 30.7105 14.9569 31.4385C14.9569 32.6132 15.034 33.7767 15.1852 34.922C15.3374 36.0693 15.5636 37.1994 15.8639 38.3061L16.1591 39.3975L15.031 39.4574C13.6604 39.5305 12.3456 39.7945 11.1129 40.2209C10.7021 40.3631 10.3003 40.5235 9.90973 40.7002C8.73492 41.2322 7.65243 41.9185 6.68966 42.7298C6.36806 42.9998 6.06066 43.2851 5.76746 43.5826C3.41988 45.9625 1.98535 49.1729 1.98535 52.69C1.98535 53.1316 2.0097 53.5662 2.05332 53.9956C2.06956 54.1429 2.09796 54.286 2.11825 54.4312C2.1568 54.7114 2.19434 54.9907 2.25115 55.2648C2.28666 55.4374 2.33536 55.6069 2.37797 55.7775C2.43783 56.0161 2.49565 56.2547 2.5687 56.4882C2.62551 56.671 2.6945 56.8497 2.75943 57.0284C2.83653 57.2416 2.91262 57.4538 2.99987 57.6609C3.079 57.8477 3.16726 58.0295 3.25451 58.2112C3.34582 58.4021 3.43814 58.592 3.53857 58.7778C3.64003 58.9646 3.74858 59.1473 3.85916 59.3291C3.96163 59.4986 4.06511 59.6651 4.17569 59.8296C4.30048 60.0154 4.43033 60.1982 4.56425 60.3779C4.67382 60.5251 4.78643 60.6683 4.90107 60.8104C5.05122 60.9962 5.20542 61.178 5.36673 61.3556C5.4763 61.4775 5.59094 61.5952 5.70558 61.714C5.88515 61.8978 6.06573 62.0785 6.25443 62.2522C6.36096 62.3496 6.47052 62.441 6.57908 62.5354C6.7901 62.7162 7.00213 62.8959 7.22532 63.0654C7.31359 63.1334 7.40794 63.1964 7.49924 63.2624C7.75084 63.4441 8.00447 63.6228 8.26825 63.7883C8.31897 63.8198 8.37071 63.8472 8.42144 63.8777C8.80797 64.1122 9.21174 64.3244 9.62262 64.5224C9.69262 64.5559 9.76263 64.5904 9.83263 64.6229C10.2537 64.8178 10.6858 64.9965 11.1302 65.1499C11.1424 65.1549 11.1556 65.159 11.1687 65.1631C11.6101 65.3153 12.0646 65.4402 12.5262 65.5489C12.6185 65.5712 12.7128 65.5885 12.8062 65.6088C13.213 65.6961 13.6269 65.7692 14.0479 65.821C14.0814 65.825 14.1149 65.8291 14.1484 65.8332C9.89654 63.3142 7.05793 58.8184 7.05793 53.6819Z" fill="#E8E8E8"/>
<path fill-rule="evenodd" clip-rule="evenodd" d="M34.403 56.5408L25.5352 71.342L40.4901 71.2354V91.0613L50.1574 63.6479L52.6643 56.5408H34.403Z" fill="#292929"/>
<path fill-rule="evenodd" clip-rule="evenodd" d="M62.8101 63.6479H50.158L52.6649 56.5408H34.4036L25.3633 71.0719L40.4907 71.2354V91.0613L62.8101 63.6479Z" fill="#EC0000"/>
</svg>
