<svg width="138" height="106" viewBox="0 0 138 106" fill="none" xmlns="http://www.w3.org/2000/svg">
<path fill-rule="evenodd" clip-rule="evenodd" d="M10.8393 11.5627C18.8744 2.90545 29.7357 -0.890386 43.4232 0.175166C48.5872 0.175166 56.5729 3.59561 67.38 10.4365C81.0218 19.0717 86.8707 19.0205 98.9547 21.1474C145.165 29.2812 142.906 66.3556 129.85 80.4231C124.771 85.8954 118.111 88.3793 110.823 88.5125C109.32 91.8241 108.226 94.1697 107.542 95.5495C91.1704 92.8114 70.3207 95.4744 44.9929 103.539C8.17565 115.261 7.73634 82.2436 14.523 64.8941C-8.24681 55.0101 -0.0593877 23.3051 10.8393 11.5627Z" fill="#E5E5E5"/>
<path d="M105.063 86.8277H24.3832C17.9638 86.8212 12.7614 81.5618 12.7549 75.0719V27.2626C12.7614 20.7728 17.9638 15.5134 24.3832 15.5068H105.051C111.471 15.5134 116.673 20.7728 116.68 27.2626V75.0719C116.673 81.5571 111.478 86.8146 105.063 86.8277Z" fill="#E9F4F7"/>
<path d="M24.3832 15.5068C17.9638 15.5134 12.7614 20.7728 12.7549 27.2626V75.0719C12.7614 81.5618 17.9638 86.8212 24.3832 86.8277H42.244L82.9845 15.5068H24.3832Z" fill="white"/>
<path d="M18.0683 22.0217C18.0687 20.1611 18.509 18.3275 19.3525 16.6738C15.3254 18.6306 12.7616 22.7452 12.7549 27.2624V32.372H18.0683V22.0217ZM12.7549 47.4628V75.0717C12.7614 81.5615 17.9638 86.8209 24.3832 86.8275H29.6967C23.2772 86.8209 18.0748 81.5615 18.0683 75.0717V47.4628H12.7549Z" fill="#F2F2F2"/>
<path d="M18.0674 32.3716H116.691V47.4505H18.0674V32.3716Z" fill="#394D71"/>
<path d="M12.7549 32.3716H18.068V47.4505H12.7549V32.3716Z" fill="#6EE3FF"/>
<path d="M18.0674 32.3716H116.691V47.4505H18.0674V32.3716Z" fill="#0F2B4A"/>
<path d="M73.3465 32.3716H18.0674V47.4626H64.7341L73.3465 32.3716Z" fill="#0D4F80"/>
<path d="M12.7549 50.5976C12.7549 46.7446 12.7549 38.9662 12.7549 27.2626C12.7614 20.7728 17.9638 15.5134 24.3832 15.5068H37.7012H43.4231M50.3244 15.5068H105.051C111.471 15.5134 116.673 20.7728 116.68 27.2626V75.0719C116.673 81.5571 111.478 86.8146 105.063 86.8277H24.3832C17.9638 86.8212 12.7614 81.5618 12.7549 75.0719C12.7549 73.5293 12.7549 75.382 12.7549 67.1454L50.3244 15.5068ZM12.7549 57.6919C12.7549 53.4229 12.7549 58.2891 12.7549 55.5891V57.6919Z" stroke="#0F2B4A" stroke-width="1.8" stroke-linecap="round"/>
<path d="M129.812 17.2801L128.62 18.4774L126.662 16.5095L124.707 18.4731L123.51 17.2708L125.465 15.3072L123.507 13.3399L124.699 12.1426L126.657 14.1099L128.61 12.1469L129.807 13.3492L127.853 15.3122L129.812 17.2801Z" fill="#6EE3FF"/>
<path d="M120.37 53.9056C119.734 52.0021 118.721 50.2479 117.391 48.7494C116.06 47.283 114.427 46.1257 112.605 45.3583C108.579 43.7536 104.094 43.7536 100.068 45.3583C98.2464 46.1257 96.6132 47.283 95.2822 48.7494C93.9591 50.2496 92.9523 52.0037 92.3226 53.9056C91.6275 56.0085 91.2848 58.2128 91.3088 60.4284V73.3855C91.3088 73.9096 91.7317 74.3345 92.2533 74.3345H97.864C98.3856 74.3345 98.8085 73.9096 98.8085 73.3855V59.9539C98.7949 58.7894 98.9736 57.6306 99.3375 56.5249C99.6538 55.5722 100.159 54.694 100.824 53.9436C101.479 53.2233 102.282 52.6554 103.179 52.2797C105.223 51.476 107.494 51.476 109.539 52.2797C110.416 52.6601 111.202 53.2253 111.843 53.9373C112.507 54.6878 113.013 55.566 113.329 56.5186C113.694 57.6264 113.872 58.7873 113.858 59.9539V73.3982C113.858 73.9223 114.281 74.3472 114.803 74.3472H120.414C120.935 74.3472 121.358 73.9223 121.358 73.3982V60.4348C121.391 58.2184 121.057 56.0119 120.37 53.9056Z" fill="#C2DDE7"/>
<path d="M120.37 53.9056C119.734 52.0021 118.721 50.2479 117.391 48.7494C116.06 47.283 114.427 46.1257 112.605 45.3583C108.579 43.7536 104.094 43.7536 100.068 45.3583C98.2464 46.1257 96.6132 47.283 95.2822 48.7494C93.9591 50.2496 92.9523 52.0037 92.3226 53.9056C91.6275 56.0085 91.2848 58.2128 91.3088 60.4284V73.3855C91.3088 73.9096 91.7317 74.3345 92.2533 74.3345H97.864C98.3856 74.3345 98.8085 73.9096 98.8085 73.3855V59.9539C98.7949 58.7894 98.9736 57.6306 99.3375 56.5249C99.6538 55.5722 100.159 54.694 100.824 53.9436C101.479 53.2233 102.282 52.6554 103.179 52.2797C105.223 51.476 107.494 51.476 109.539 52.2797C110.416 52.6601 111.202 53.2253 111.843 53.9373C112.507 54.6878 113.013 55.566 113.329 56.5186C113.694 57.6264 113.872 58.7873 113.858 59.9539V73.3982C113.858 73.9223 114.281 74.3472 114.803 74.3472H120.414C120.935 74.3472 121.358 73.9223 121.358 73.3982V60.4348C121.391 58.2184 121.057 56.0119 120.37 53.9056Z" fill="#EC0000"/>
<path d="M120.369 53.9056C119.734 52.0021 118.721 50.2479 117.391 48.7494C116.06 47.283 114.427 46.1257 112.605 45.3583C110.609 44.5317 108.467 44.1227 106.308 44.1562C105.823 44.1562 105.345 44.1562 104.872 44.2131C106.534 44.3273 108.165 44.7141 109.702 45.3583C111.524 46.1257 113.157 47.283 114.488 48.7494C115.834 50.244 116.862 51.9985 117.51 53.9056C118.206 56.0085 118.548 58.2128 118.524 60.4284V73.3855C118.524 73.9096 118.101 74.3345 117.58 74.3345H120.451C120.973 74.3345 121.396 73.9096 121.396 73.3855V60.4348C121.416 58.2163 121.069 56.0098 120.369 53.9056ZM103.468 51.6723C102.387 51.6689 101.316 51.8841 100.32 52.305C99.4233 52.6807 98.6196 53.2486 97.9645 53.9689C97.3002 54.7193 96.7947 55.5975 96.4784 56.5502C96.1145 57.6559 95.9358 58.8147 95.9494 59.9792V73.4235C95.9494 73.9476 95.5265 74.3725 95.0049 74.3725H97.8763C98.398 74.3725 98.8209 73.9476 98.8209 73.4235V59.9539C98.8072 58.7894 98.9859 57.6306 99.3498 56.5249C99.6661 55.5722 100.172 54.694 100.836 53.9436C101.491 53.2233 102.295 52.6554 103.191 52.2797C103.75 52.0457 104.336 51.882 104.935 51.7925C104.45 51.713 103.96 51.6729 103.468 51.6723Z" fill="#990000"/>
<path d="M119.399 99.8375H93.2794C89.0659 99.834 85.6509 96.403 85.6475 92.1695V74.8913C85.6475 73.5426 86.7357 72.4492 88.0781 72.4492H124.601C125.943 72.4492 127.031 73.5426 127.031 74.8913V92.1758C127.025 96.4068 123.611 99.834 119.399 99.8375Z" fill="#EC0000"/>
<path fill-rule="evenodd" clip-rule="evenodd" d="M107.215 91.347H105.408C103.83 91.3435 102.552 90.0596 102.549 88.4747V82.3757C102.552 80.7908 103.83 79.5069 105.408 79.5034H107.215C108.795 79.5034 110.077 80.7884 110.08 82.3757V88.443C110.087 89.2109 109.788 89.9496 109.25 90.4949C108.712 91.0403 107.979 91.347 107.215 91.347Z" fill="#990000"/>
<path d="M88.4244 72.4492H88.0781C86.7357 72.4492 85.6475 73.5426 85.6475 74.8913V92.1758C85.6482 94.4602 86.6643 96.6249 88.4181 98.0786V72.4492H88.4244Z" fill="#F38F95"/>
<path fill-rule="evenodd" clip-rule="evenodd" d="M124.249 72.4492H124.589C125.234 72.4492 125.852 72.7065 126.308 73.1645C126.764 73.6225 127.02 74.2436 127.02 74.8913V92.1758C127.019 94.4602 126.003 96.6249 124.249 98.0786V72.4492Z" fill="#990000"/>
<path d="M107.309 87.3486V79.5415H105.42C103.843 79.545 102.565 80.8289 102.562 82.4138V88.4811C102.565 88.8141 102.627 89.1439 102.744 89.4554H105.263C106.403 89.4313 107.313 88.4941 107.309 87.3486Z" fill="#700309"/>
<path d="M81.1581 62.6574L79.7718 64.0502L78.0674 62.3377L76.3565 64.0566L74.9717 62.6652L76.6825 60.9463L74.978 59.2338L76.3643 57.841L78.0688 59.5535L79.7797 57.8346L81.1645 59.226L79.4537 60.9449L81.1581 62.6574Z" fill="#0D4F80"/>
</svg>
