<svg width="120" height="100" viewBox="0 0 120 100" fill="none" xmlns="http://www.w3.org/2000/svg">
<path fill-rule="evenodd" clip-rule="evenodd" d="M64.3317 99.2961C103.672 93.4668 109.709 84.7333 115.412 75.1203C126.454 56.5041 116.864 23.0894 94.1796 23.2649C72.0539 27.8859 76.5964 -9.74266 34.0684 2.4415C7.4222 10.0759 -4.46515 31.7707 1.51767 52.6172C7.50048 73.4637 24.9913 105.125 64.3317 99.2961Z" fill="#D9D9D9"/>
<path fill-rule="evenodd" clip-rule="evenodd" d="M86.33 10.188H86.3541C86.4946 10.19 86.6311 10.203 86.7686 10.2131C86.878 10.2221 86.9874 10.2281 87.0958 10.2411C87.2122 10.2552 87.3256 10.2772 87.4401 10.2973C87.5464 10.3163 87.6528 10.3324 87.7582 10.3565C87.8706 10.3815 87.98 10.4146 88.0904 10.4457C88.1918 10.4748 88.2962 10.5009 88.3975 10.534C88.5049 10.5701 88.6093 10.6132 88.7157 10.6543C88.8141 10.6924 88.9124 10.7285 89.0088 10.7706C89.1122 10.8168 89.2135 10.8709 89.3159 10.922C89.4072 10.9692 89.5006 11.0133 89.5899 11.0634C89.6903 11.1206 89.7846 11.1838 89.882 11.245C89.9673 11.2991 90.0556 11.3512 90.1389 11.4094C90.2332 11.4746 90.3216 11.5468 90.4109 11.617C90.4912 11.6792 90.5745 11.7383 90.6518 11.8045C90.7391 11.8787 90.8204 11.959 90.9037 12.0382C90.977 12.1074 91.0532 12.1726 91.1225 12.2458C91.2028 12.328 91.278 12.4162 91.3543 12.5035C91.4196 12.5787 91.4898 12.6509 91.5521 12.7291C91.6243 12.8194 91.6906 12.9156 91.7588 13.0089C91.818 13.0911 91.8792 13.1693 91.9344 13.2526C91.9987 13.3499 92.0559 13.4531 92.1151 13.5534C92.1653 13.6397 92.2205 13.7239 92.2677 13.8132C92.3239 13.9174 92.37 14.0268 92.4202 14.1341C92.4624 14.2243 92.5085 14.3126 92.5467 14.4058C92.5948 14.5201 92.633 14.6405 92.6751 14.7588C92.7073 14.8481 92.7424 14.9353 92.7705 15.0266C92.8096 15.1559 92.8377 15.2883 92.8709 15.4207C92.8909 15.5059 92.916 15.5891 92.9341 15.6754C92.9632 15.8238 92.9823 15.9752 93.0013 16.1276C93.0114 16.2008 93.0274 16.272 93.0355 16.3473C93.0575 16.5739 93.0696 16.8045 93.0696 17.0382L93.0686 27.4444L26.0803 27.4454C26.0261 27.4414 25.8204 27.4183 25.5464 27.3652C25.0877 27.2779 24.63 27.1385 24.2115 26.942C23.0974 26.4175 22.4776 25.6092 22.4776 24.3507C22.4621 23.5214 22.7682 21.8768 24.6471 21.2671C24.7324 21.24 24.8318 21.2079 25.0184 21.1477C25.5022 20.9923 25.7933 20.893 26.0893 20.7767C26.2861 20.7326 26.4828 20.6874 26.6885 20.6493C35.9322 19.0278 35.9322 19.0278 41.8197 17.9949L86.33 10.188Z" fill="#0F2B4A"/>
<path fill-rule="evenodd" clip-rule="evenodd" d="M93.2077 29.2505L26.0318 29.2495H28.1906C25.9183 30.3225 24.3426 32.627 24.3426 35.3045V78.978C24.3426 81.5161 25.7537 83.7233 27.8353 84.8605C26.1974 84.699 24.8525 84.35 23.7524 83.8416C25.3182 84.5726 27.3857 84.9778 30.0916 84.9778H59.7276L91.7986 29.2505H93.2077Z" fill="white"/>
<path fill-rule="evenodd" clip-rule="evenodd" d="M24.3423 78.9779V35.3044C24.3423 32.6269 25.918 30.3225 28.1903 29.2495H26.0324C25.363 29.2134 24.4125 29.0309 23.443 28.5746C21.7418 27.7743 20.6709 26.3784 20.6719 24.3668C20.6699 24.2565 20.6719 24.1502 20.6769 24.0469C20.6297 24.1211 20.5856 24.1993 20.5404 24.2755C20.44 24.448 20.3487 24.6255 20.2654 24.809C20.2433 24.8592 20.2182 24.9083 20.1961 24.9584C20.1008 25.1891 20.0195 25.4277 19.9523 25.6734C19.9362 25.7306 19.9262 25.7908 19.9121 25.8489C19.8629 26.0485 19.8238 26.2541 19.7937 26.4637C19.7826 26.5389 19.7716 26.6131 19.7636 26.6883C19.7335 26.957 19.7134 27.2308 19.7134 27.5156V75.6897C19.7134 78.4765 19.9663 80.0429 20.988 81.5732C21.1536 81.8209 21.3433 82.0535 21.5471 82.2762C21.6274 82.3634 21.7177 82.4446 21.804 82.5279C21.9335 82.6522 22.0629 82.7756 22.2055 82.8909C22.3299 82.9932 22.4634 83.0904 22.5999 83.1847C22.7133 83.2649 22.8317 83.3422 22.9542 83.4174C23.1268 83.5227 23.3035 83.6259 23.4912 83.7212C23.5755 83.7633 23.6658 83.8024 23.7521 83.8425C24.8521 84.35 26.198 84.6989 27.835 84.8604C25.7534 83.7232 24.3423 81.516 24.3423 78.9779Z" fill="#E5E5E5"/>
<path fill-rule="evenodd" clip-rule="evenodd" d="M93.5895 29.2224L93.5243 29.1934C93.4259 29.2305 93.3185 29.2505 93.2071 29.2505H91.798L59.7271 84.9778H90.7181C94.4748 84.9738 97.5209 81.9082 97.5209 78.1266V35.4178C97.5209 32.7594 95.9863 30.3426 93.5895 29.2224Z" fill="#F2F2F2"/>
<path fill-rule="evenodd" clip-rule="evenodd" d="M97.521 78.1264C97.521 81.908 94.4749 84.9736 90.7182 84.9786H30.0912C25.2897 84.9786 22.4383 83.7422 20.988 81.5731C19.9662 80.0428 19.7133 78.4764 19.7133 75.6896V27.5155C19.7133 27.2317 19.7334 26.9579 19.7625 26.6882C19.7715 26.613 19.7826 26.5388 19.7936 26.4635C19.8237 26.254 19.8629 26.0484 19.9121 25.8488C19.9251 25.7907 19.9361 25.7305 19.9522 25.6733C20.0194 25.4276 20.1007 25.189 20.1961 24.9583C20.2182 24.9082 20.2433 24.859 20.2653 24.8099C20.3476 24.6254 20.44 24.4479 20.5403 24.2754C20.5855 24.1992 20.6297 24.121 20.6768 24.0468C20.6718 24.1501 20.6698 24.2564 20.6718 24.3677C20.6708 26.3783 21.7417 27.7752 23.4419 28.5745C24.4125 29.0307 25.3619 29.2133 26.0314 29.2494L93.2073 29.2504H93.5897C95.9864 30.3705 97.521 32.7592 97.521 35.4187V78.1264ZM94.8754 27.8534V17.0381C94.8754 12.2577 91.0183 8.38184 86.258 8.38184L86.1014 8.39487L26.3676 18.8733C26.3656 18.8733 26.3636 18.8743 26.3616 18.8743H26.3606C21.3904 19.7918 18.3092 22.5285 17.9439 26.6691C17.9188 26.9449 17.9067 27.2277 17.9067 27.5155V75.6896C17.9067 78.8164 18.2028 80.6555 19.4865 82.5759C21.3061 85.2985 24.7316 86.7837 30.0912 86.7837H90.7192C95.4766 86.7777 99.3276 82.9028 99.3276 78.1264V35.4187C99.3276 32.2558 97.6084 29.3637 94.8754 27.8534Z" fill="#595959"/>
<path fill-rule="evenodd" clip-rule="evenodd" d="M93.0019 16.1272C92.9819 15.9757 92.9638 15.8233 92.9347 15.6749C92.9166 15.5886 92.8915 15.5054 92.8705 15.4202C92.8384 15.2878 92.8102 15.1554 92.7711 15.0261C92.742 14.9358 92.7069 14.8476 92.6758 14.7583C92.6336 14.64 92.5955 14.5196 92.5473 14.4053C92.5091 14.3121 92.463 14.2238 92.4208 14.1336C92.3696 14.0263 92.3235 13.917 92.2683 13.8127C92.2211 13.7234 92.1659 13.6402 92.1147 13.5529C92.0565 13.4527 91.9993 13.3494 91.9351 13.2521C91.8799 13.1689 91.8176 13.0906 91.7594 13.0094C91.6902 12.9151 91.6249 12.8189 91.5527 12.7286C91.4894 12.6504 91.4202 12.5782 91.3539 12.503C91.2777 12.4157 91.2034 12.3275 91.1231 12.2453C91.0538 12.1731 90.9766 12.1069 90.9033 12.0377C90.82 11.9585 90.7387 11.8782 90.6514 11.804C90.5741 11.7388 90.4918 11.6787 90.4115 11.6165C90.3212 11.5463 90.2329 11.4741 90.1385 11.4089C90.0552 11.3508 89.9679 11.2986 89.8826 11.2445C89.7852 11.1833 89.6899 11.1201 89.5905 11.063C89.5012 11.0128 89.4078 10.9687 89.3155 10.9226C89.2141 10.8704 89.1128 10.8173 89.0084 10.7701C88.913 10.728 88.8137 10.6929 88.7153 10.6538C88.6099 10.6127 88.5056 10.5696 88.3972 10.5335C88.2968 10.5004 88.1924 10.4743 88.09 10.4452C87.9796 10.4141 87.8712 10.382 87.7578 10.356C87.6534 10.3319 87.5461 10.3159 87.4407 10.2978C87.3263 10.2767 87.2118 10.2557 87.0954 10.2406C86.988 10.2276 86.8776 10.2216 86.7692 10.2136C86.6307 10.2025 86.4952 10.1895 86.3547 10.1875H86.3306L63.8185 14.1366L55.9087 27.4449H93.0682L93.0692 17.0377C93.0692 16.8041 93.0582 16.5734 93.0351 16.3468C93.027 16.2726 93.012 16.2004 93.0019 16.1272Z" fill="#767676"/>
<mask id="mask0" mask-type="alpha" maskUnits="userSpaceOnUse" x="22" y="1" width="72" height="27">
<path d="M28.8564 8.7355L24.6471 21.2676C22.7672 21.8764 22.4621 23.522 22.4776 24.3503C22.4776 25.6098 23.0974 26.4171 24.2125 26.9416C24.63 27.1381 25.0887 27.2775 25.5474 27.3657C25.8204 27.4179 26.0261 27.442 26.0803 27.445H93.0686L93.0696 17.0378C93.0696 16.8041 93.0575 16.5745 93.0345 16.3468C93.0264 16.2716 93.0114 16.2004 93.0013 16.1272C92.9813 15.9758 92.9632 15.8234 92.9341 15.675C92.917 15.5887 92.8909 15.5055 92.8709 15.4192C92.8377 15.2879 92.8096 15.1555 92.7705 15.0261C92.7424 14.9349 92.7073 14.8476 92.6751 14.7584C92.633 14.6401 92.5948 14.5197 92.5477 14.4054C92.5085 14.3121 92.4624 14.2239 92.4202 14.1336C92.369 14.0263 92.3229 13.917 92.2667 13.8127C92.2205 13.7235 92.1663 13.6403 92.1141 13.553C92.0559 13.4527 91.9987 13.3504 91.9344 13.2532C91.8792 13.1689 91.817 13.0907 91.7588 13.0095C91.6896 12.9152 91.6253 12.82 91.5521 12.7297C91.4898 12.6505 91.4196 12.5783 91.3543 12.5031C91.2781 12.4158 91.2028 12.3276 91.1225 12.2453C91.0532 12.1721 90.9759 12.107 90.9037 12.0378C90.8204 11.9585 90.7391 11.8783 90.6508 11.8041C90.5735 11.7379 90.4912 11.6798 90.4109 11.6176C90.3206 11.5464 90.2332 11.4752 90.1389 11.409C90.0546 11.3498 89.9673 11.2987 89.882 11.2445C89.7846 11.1834 89.6903 11.1202 89.5899 11.063C89.5006 11.0129 89.4072 10.9688 89.3149 10.9226C89.2135 10.8705 89.1132 10.8163 89.0088 10.7712C88.9124 10.7281 88.8141 10.692 88.7157 10.6539C88.6093 10.6128 88.5049 10.5696 88.3965 10.5345C88.2962 10.5005 88.1928 10.4744 88.0904 10.4453C87.979 10.4142 87.8706 10.3821 87.7582 10.356C87.6528 10.332 87.5464 10.3159 87.4401 10.2969C87.3266 10.2768 87.2122 10.2558 87.0958 10.2407C86.9874 10.2277 86.878 10.2217 86.7686 10.2126C86.6301 10.2026 86.4946 10.1896 86.3541 10.1876H86.33L76.0284 1.71582C70.141 2.74771 38.1011 7.11396 28.8564 8.7355Z" fill="white"/>
</mask>
<g mask="url(#mask0)">
<path fill-rule="evenodd" clip-rule="evenodd" d="M82.6281 19.9751L33.6636 43.6525L39.8281 56.3802C41.0575 58.9183 44.1247 59.9843 46.665 58.7558L86.4149 39.5339C88.9572 38.3055 90.0221 35.2409 88.7936 32.7028L82.6281 19.9751Z" fill="white"/>
</g>
<mask id="mask1" mask-type="alpha" maskUnits="userSpaceOnUse" x="22" y="1" width="72" height="27">
<path d="M28.8564 8.7355L24.6471 21.2676C22.7672 21.8764 22.4621 23.522 22.4776 24.3503C22.4776 25.6098 23.0974 26.4171 24.2125 26.9416C24.63 27.1381 25.0887 27.2775 25.5474 27.3657C25.8204 27.4179 26.0261 27.442 26.0803 27.445H93.0686L93.0696 17.0378C93.0696 16.8041 93.0575 16.5745 93.0345 16.3468C93.0264 16.2716 93.0114 16.2004 93.0013 16.1272C92.9813 15.9758 92.9632 15.8234 92.9341 15.675C92.917 15.5887 92.8909 15.5055 92.8709 15.4192C92.8377 15.2879 92.8096 15.1555 92.7705 15.0261C92.7424 14.9349 92.7073 14.8476 92.6751 14.7584C92.633 14.6401 92.5948 14.5197 92.5477 14.4054C92.5085 14.3121 92.4624 14.2239 92.4202 14.1336C92.369 14.0263 92.3229 13.917 92.2667 13.8127C92.2205 13.7235 92.1663 13.6403 92.1141 13.553C92.0559 13.4527 91.9987 13.3504 91.9344 13.2532C91.8792 13.1689 91.817 13.0907 91.7588 13.0095C91.6896 12.9152 91.6253 12.82 91.5521 12.7297C91.4898 12.6505 91.4196 12.5783 91.3543 12.5031C91.2781 12.4158 91.2028 12.3276 91.1225 12.2453C91.0532 12.1721 90.9759 12.107 90.9037 12.0378C90.8204 11.9585 90.7391 11.8783 90.6508 11.8041C90.5735 11.7379 90.4912 11.6798 90.4109 11.6176C90.3206 11.5464 90.2332 11.4752 90.1389 11.409C90.0546 11.3498 89.9673 11.2987 89.882 11.2445C89.7846 11.1834 89.6903 11.1202 89.5899 11.063C89.5006 11.0129 89.4072 10.9688 89.3149 10.9226C89.2135 10.8705 89.1132 10.8163 89.0088 10.7712C88.9124 10.7281 88.8141 10.692 88.7157 10.6539C88.6093 10.6128 88.5049 10.5696 88.3965 10.5345C88.2962 10.5005 88.1928 10.4744 88.0904 10.4453C87.979 10.4142 87.8706 10.3821 87.7582 10.356C87.6528 10.332 87.5464 10.3159 87.4401 10.2969C87.3266 10.2768 87.2122 10.2558 87.0958 10.2407C86.9874 10.2277 86.878 10.2217 86.7686 10.2126C86.6301 10.2026 86.4946 10.1896 86.3541 10.1876H86.33L76.0284 1.71582C70.141 2.74771 38.1011 7.11396 28.8564 8.7355Z" fill="white"/>
</mask>
<g mask="url(#mask1)">
<path fill-rule="evenodd" clip-rule="evenodd" d="M86.4158 39.5341L46.6658 58.755C44.1246 59.9844 41.0584 58.9184 39.8289 56.3793L33.6634 43.6526L82.629 19.9752L88.7934 32.7029C90.0229 35.241 88.957 38.3056 86.4158 39.5341ZM28.8569 35.8116L58.6575 20.7695L58.5833 22.6899L79.1302 12.754L81.8411 18.3507L58.3093 29.7296L58.2681 30.7976L32.8715 42.8313L28.8569 35.8116ZM30.8381 26.0794L59.1052 12.411L70.5881 6.85846C73.1293 5.62901 76.1955 6.695 77.425 9.23412L78.3433 11.1294L58.6194 20.6672L29.3788 34.8068L28.4604 32.9105C27.231 30.3724 28.2968 27.3078 30.8381 26.0794ZM90.4194 31.9157L84.2549 19.188L79.9703 10.3422L79.0519 8.44691C77.3888 5.01228 73.2387 3.57124 69.8012 5.2329L30.0512 24.4548C26.6137 26.1175 25.1704 30.2631 26.8345 33.6977L27.7519 35.593L28.2236 36.5658L32.0365 44.4388L38.202 57.1665C39.865 60.6012 44.0152 62.0422 47.4527 60.3805L87.2026 41.1586C90.6402 39.496 92.0834 35.3504 90.4194 31.9157Z" fill="#595959"/>
</g>
<mask id="mask2" mask-type="alpha" maskUnits="userSpaceOnUse" x="22" y="1" width="72" height="27">
<path d="M28.8564 8.7355L24.6471 21.2676C22.7672 21.8764 22.4621 23.522 22.4776 24.3503C22.4776 25.6098 23.0974 26.4171 24.2125 26.9416C24.63 27.1381 25.0887 27.2775 25.5474 27.3657C25.8204 27.4179 26.0261 27.442 26.0803 27.445H93.0686L93.0696 17.0378C93.0696 16.8041 93.0575 16.5745 93.0345 16.3468C93.0264 16.2716 93.0114 16.2004 93.0013 16.1272C92.9813 15.9758 92.9632 15.8234 92.9341 15.675C92.917 15.5887 92.8909 15.5055 92.8709 15.4192C92.8377 15.2879 92.8096 15.1555 92.7705 15.0261C92.7424 14.9349 92.7073 14.8476 92.6751 14.7584C92.633 14.6401 92.5948 14.5197 92.5477 14.4054C92.5085 14.3121 92.4624 14.2239 92.4202 14.1336C92.369 14.0263 92.3229 13.917 92.2667 13.8127C92.2205 13.7235 92.1663 13.6403 92.1141 13.553C92.0559 13.4527 91.9987 13.3504 91.9344 13.2532C91.8792 13.1689 91.817 13.0907 91.7588 13.0095C91.6896 12.9152 91.6253 12.82 91.5521 12.7297C91.4898 12.6505 91.4196 12.5783 91.3543 12.5031C91.2781 12.4158 91.2028 12.3276 91.1225 12.2453C91.0532 12.1721 90.9759 12.107 90.9037 12.0378C90.8204 11.9585 90.7391 11.8783 90.6508 11.8041C90.5735 11.7379 90.4912 11.6798 90.4109 11.6176C90.3206 11.5464 90.2332 11.4752 90.1389 11.409C90.0546 11.3498 89.9673 11.2987 89.882 11.2445C89.7846 11.1834 89.6903 11.1202 89.5899 11.063C89.5006 11.0129 89.4072 10.9688 89.3149 10.9226C89.2135 10.8705 89.1132 10.8163 89.0088 10.7712C88.9124 10.7281 88.8141 10.692 88.7157 10.6539C88.6093 10.6128 88.5049 10.5696 88.3965 10.5345C88.2962 10.5005 88.1928 10.4744 88.0904 10.4453C87.979 10.4142 87.8706 10.3821 87.7582 10.356C87.6528 10.332 87.5464 10.3159 87.4401 10.2969C87.3266 10.2768 87.2122 10.2558 87.0958 10.2407C86.9874 10.2277 86.878 10.2217 86.7686 10.2126C86.6301 10.2026 86.4946 10.1896 86.3541 10.1876H86.33L76.0284 1.71582C70.141 2.74771 38.1011 7.11396 28.8564 8.7355Z" fill="white"/>
</mask>
<g mask="url(#mask2)">
<path fill-rule="evenodd" clip-rule="evenodd" d="M58.3093 29.7297L58.4077 27.2176L58.5823 22.6899L58.6576 20.7695L28.8569 35.8117L32.8716 42.8314L58.2682 30.7977L58.3093 29.7297Z" fill="#595959"/>
</g>
<mask id="mask3" mask-type="alpha" maskUnits="userSpaceOnUse" x="22" y="1" width="72" height="27">
<path d="M28.8564 8.7355L24.6471 21.2676C22.7672 21.8764 22.4621 23.522 22.4776 24.3503C22.4776 25.6098 23.0974 26.4171 24.2125 26.9416C24.63 27.1381 25.0887 27.2775 25.5474 27.3657C25.8204 27.4179 26.0261 27.442 26.0803 27.445H93.0686L93.0696 17.0378C93.0696 16.8041 93.0575 16.5745 93.0345 16.3468C93.0264 16.2716 93.0114 16.2004 93.0013 16.1272C92.9813 15.9758 92.9632 15.8234 92.9341 15.675C92.917 15.5887 92.8909 15.5055 92.8709 15.4192C92.8377 15.2879 92.8096 15.1555 92.7705 15.0261C92.7424 14.9349 92.7073 14.8476 92.6751 14.7584C92.633 14.6401 92.5948 14.5197 92.5477 14.4054C92.5085 14.3121 92.4624 14.2239 92.4202 14.1336C92.369 14.0263 92.3229 13.917 92.2667 13.8127C92.2205 13.7235 92.1663 13.6403 92.1141 13.553C92.0559 13.4527 91.9987 13.3504 91.9344 13.2532C91.8792 13.1689 91.817 13.0907 91.7588 13.0095C91.6896 12.9152 91.6253 12.82 91.5521 12.7297C91.4898 12.6505 91.4196 12.5783 91.3543 12.5031C91.2781 12.4158 91.2028 12.3276 91.1225 12.2453C91.0532 12.1721 90.9759 12.107 90.9037 12.0378C90.8204 11.9585 90.7391 11.8783 90.6508 11.8041C90.5735 11.7379 90.4912 11.6798 90.4109 11.6176C90.3206 11.5464 90.2332 11.4752 90.1389 11.409C90.0546 11.3498 89.9673 11.2987 89.882 11.2445C89.7846 11.1834 89.6903 11.1202 89.5899 11.063C89.5006 11.0129 89.4072 10.9688 89.3149 10.9226C89.2135 10.8705 89.1132 10.8163 89.0088 10.7712C88.9124 10.7281 88.8141 10.692 88.7157 10.6539C88.6093 10.6128 88.5049 10.5696 88.3965 10.5345C88.2962 10.5005 88.1928 10.4744 88.0904 10.4453C87.979 10.4142 87.8706 10.3821 87.7582 10.356C87.6528 10.332 87.5464 10.3159 87.4401 10.2969C87.3266 10.2768 87.2122 10.2558 87.0958 10.2407C86.9874 10.2277 86.878 10.2217 86.7686 10.2126C86.6301 10.2026 86.4946 10.1896 86.3541 10.1876H86.33L76.0284 1.71582C70.141 2.74771 38.1011 7.11396 28.8564 8.7355Z" fill="white"/>
</mask>
<g mask="url(#mask3)">
<path fill-rule="evenodd" clip-rule="evenodd" d="M77.4242 9.23407C76.1947 6.69596 73.1285 5.62896 70.5873 6.85841L59.1044 12.411L30.8373 26.0793C28.2961 27.3078 27.2302 30.3734 28.4597 32.9105L29.378 34.8068L58.6186 20.6671L78.3425 11.1294L77.4242 9.23407Z" fill="white"/>
</g>
<mask id="mask4" mask-type="alpha" maskUnits="userSpaceOnUse" x="22" y="1" width="72" height="27">
<path d="M28.8564 8.7355L24.6471 21.2676C22.7672 21.8764 22.4621 23.522 22.4776 24.3503C22.4776 25.6098 23.0974 26.4171 24.2125 26.9416C24.63 27.1381 25.0887 27.2775 25.5474 27.3657C25.8204 27.4179 26.0261 27.442 26.0803 27.445H93.0686L93.0696 17.0378C93.0696 16.8041 93.0575 16.5745 93.0345 16.3468C93.0264 16.2716 93.0114 16.2004 93.0013 16.1272C92.9813 15.9758 92.9632 15.8234 92.9341 15.675C92.917 15.5887 92.8909 15.5055 92.8709 15.4192C92.8377 15.2879 92.8096 15.1555 92.7705 15.0261C92.7424 14.9349 92.7073 14.8476 92.6751 14.7584C92.633 14.6401 92.5948 14.5197 92.5477 14.4054C92.5085 14.3121 92.4624 14.2239 92.4202 14.1336C92.369 14.0263 92.3229 13.917 92.2667 13.8127C92.2205 13.7235 92.1663 13.6403 92.1141 13.553C92.0559 13.4527 91.9987 13.3504 91.9344 13.2532C91.8792 13.1689 91.817 13.0907 91.7588 13.0095C91.6896 12.9152 91.6253 12.82 91.5521 12.7297C91.4898 12.6505 91.4196 12.5783 91.3543 12.5031C91.2781 12.4158 91.2028 12.3276 91.1225 12.2453C91.0532 12.1721 90.9759 12.107 90.9037 12.0378C90.8204 11.9585 90.7391 11.8783 90.6508 11.8041C90.5735 11.7379 90.4912 11.6798 90.4109 11.6176C90.3206 11.5464 90.2332 11.4752 90.1389 11.409C90.0546 11.3498 89.9673 11.2987 89.882 11.2445C89.7846 11.1834 89.6903 11.1202 89.5899 11.063C89.5006 11.0129 89.4072 10.9688 89.3149 10.9226C89.2135 10.8705 89.1132 10.8163 89.0088 10.7712C88.9124 10.7281 88.8141 10.692 88.7157 10.6539C88.6093 10.6128 88.5049 10.5696 88.3965 10.5345C88.2962 10.5005 88.1928 10.4744 88.0904 10.4453C87.979 10.4142 87.8706 10.3821 87.7582 10.356C87.6528 10.332 87.5464 10.3159 87.4401 10.2969C87.3266 10.2768 87.2122 10.2558 87.0958 10.2407C86.9874 10.2277 86.878 10.2217 86.7686 10.2126C86.6301 10.2026 86.4946 10.1896 86.3541 10.1876H86.33L76.0284 1.71582C70.141 2.74771 38.1011 7.11396 28.8564 8.7355Z" fill="white"/>
</mask>
<g mask="url(#mask4)">
<path fill-rule="evenodd" clip-rule="evenodd" d="M58.6182 20.6673L59.104 12.4111L30.8369 26.0795C28.2956 27.3079 27.2307 30.3725 28.4592 32.9106L29.3776 34.8069L58.6182 20.6673Z" fill="#F2F2F2"/>
</g>
<mask id="mask5" mask-type="alpha" maskUnits="userSpaceOnUse" x="22" y="1" width="72" height="27">
<path d="M28.8564 8.7355L24.6471 21.2676C22.7672 21.8764 22.4621 23.522 22.4776 24.3503C22.4776 25.6098 23.0974 26.4171 24.2125 26.9416C24.63 27.1381 25.0887 27.2775 25.5474 27.3657C25.8204 27.4179 26.0261 27.442 26.0803 27.445H93.0686L93.0696 17.0378C93.0696 16.8041 93.0575 16.5745 93.0345 16.3468C93.0264 16.2716 93.0114 16.2004 93.0013 16.1272C92.9813 15.9758 92.9632 15.8234 92.9341 15.675C92.917 15.5887 92.8909 15.5055 92.8709 15.4192C92.8377 15.2879 92.8096 15.1555 92.7705 15.0261C92.7424 14.9349 92.7073 14.8476 92.6751 14.7584C92.633 14.6401 92.5948 14.5197 92.5477 14.4054C92.5085 14.3121 92.4624 14.2239 92.4202 14.1336C92.369 14.0263 92.3229 13.917 92.2667 13.8127C92.2205 13.7235 92.1663 13.6403 92.1141 13.553C92.0559 13.4527 91.9987 13.3504 91.9344 13.2532C91.8792 13.1689 91.817 13.0907 91.7588 13.0095C91.6896 12.9152 91.6253 12.82 91.5521 12.7297C91.4898 12.6505 91.4196 12.5783 91.3543 12.5031C91.2781 12.4158 91.2028 12.3276 91.1225 12.2453C91.0532 12.1721 90.9759 12.107 90.9037 12.0378C90.8204 11.9585 90.7391 11.8783 90.6508 11.8041C90.5735 11.7379 90.4912 11.6798 90.4109 11.6176C90.3206 11.5464 90.2332 11.4752 90.1389 11.409C90.0546 11.3498 89.9673 11.2987 89.882 11.2445C89.7846 11.1834 89.6903 11.1202 89.5899 11.063C89.5006 11.0129 89.4072 10.9688 89.3149 10.9226C89.2135 10.8705 89.1132 10.8163 89.0088 10.7712C88.9124 10.7281 88.8141 10.692 88.7157 10.6539C88.6093 10.6128 88.5049 10.5696 88.3965 10.5345C88.2962 10.5005 88.1928 10.4744 88.0904 10.4453C87.979 10.4142 87.8706 10.3821 87.7582 10.356C87.6528 10.332 87.5464 10.3159 87.4401 10.2969C87.3266 10.2768 87.2122 10.2558 87.0958 10.2407C86.9874 10.2277 86.878 10.2217 86.7686 10.2126C86.6301 10.2026 86.4946 10.1896 86.3541 10.1876H86.33L76.0284 1.71582C70.141 2.74771 38.1011 7.11396 28.8564 8.7355Z" fill="white"/>
</mask>
<g mask="url(#mask5)">
<path fill-rule="evenodd" clip-rule="evenodd" d="M59.1045 12.4111L30.8374 26.0795L59.1045 12.4111Z" fill="#595959"/>
</g>
<mask id="mask6" mask-type="alpha" maskUnits="userSpaceOnUse" x="22" y="1" width="72" height="27">
<path d="M28.8564 8.7355L24.6471 21.2676C22.7672 21.8764 22.4621 23.522 22.4776 24.3503C22.4776 25.6098 23.0974 26.4171 24.2125 26.9416C24.63 27.1381 25.0887 27.2775 25.5474 27.3657C25.8204 27.4179 26.0261 27.442 26.0803 27.445H93.0686L93.0696 17.0378C93.0696 16.8041 93.0575 16.5745 93.0345 16.3468C93.0264 16.2716 93.0114 16.2004 93.0013 16.1272C92.9813 15.9758 92.9632 15.8234 92.9341 15.675C92.917 15.5887 92.8909 15.5055 92.8709 15.4192C92.8377 15.2879 92.8096 15.1555 92.7705 15.0261C92.7424 14.9349 92.7073 14.8476 92.6751 14.7584C92.633 14.6401 92.5948 14.5197 92.5477 14.4054C92.5085 14.3121 92.4624 14.2239 92.4202 14.1336C92.369 14.0263 92.3229 13.917 92.2667 13.8127C92.2205 13.7235 92.1663 13.6403 92.1141 13.553C92.0559 13.4527 91.9987 13.3504 91.9344 13.2532C91.8792 13.1689 91.817 13.0907 91.7588 13.0095C91.6896 12.9152 91.6253 12.82 91.5521 12.7297C91.4898 12.6505 91.4196 12.5783 91.3543 12.5031C91.2781 12.4158 91.2028 12.3276 91.1225 12.2453C91.0532 12.1721 90.9759 12.107 90.9037 12.0378C90.8204 11.9585 90.7391 11.8783 90.6508 11.8041C90.5735 11.7379 90.4912 11.6798 90.4109 11.6176C90.3206 11.5464 90.2332 11.4752 90.1389 11.409C90.0546 11.3498 89.9673 11.2987 89.882 11.2445C89.7846 11.1834 89.6903 11.1202 89.5899 11.063C89.5006 11.0129 89.4072 10.9688 89.3149 10.9226C89.2135 10.8705 89.1132 10.8163 89.0088 10.7712C88.9124 10.7281 88.8141 10.692 88.7157 10.6539C88.6093 10.6128 88.5049 10.5696 88.3965 10.5345C88.2962 10.5005 88.1928 10.4744 88.0904 10.4453C87.979 10.4142 87.8706 10.3821 87.7582 10.356C87.6528 10.332 87.5464 10.3159 87.4401 10.2969C87.3266 10.2768 87.2122 10.2558 87.0958 10.2407C86.9874 10.2277 86.878 10.2217 86.7686 10.2126C86.6301 10.2026 86.4946 10.1896 86.3541 10.1876H86.33L76.0284 1.71582C70.141 2.74771 38.1011 7.11396 28.8564 8.7355Z" fill="white"/>
</mask>
<g mask="url(#mask6)">
<path fill-rule="evenodd" clip-rule="evenodd" d="M58.618 20.667L29.3784 34.8066L58.618 20.667Z" fill="#595959"/>
</g>
<mask id="mask7" mask-type="alpha" maskUnits="userSpaceOnUse" x="22" y="1" width="72" height="27">
<path d="M28.8564 8.7355L24.6471 21.2676C22.7672 21.8764 22.4621 23.522 22.4776 24.3503C22.4776 25.6098 23.0974 26.4171 24.2125 26.9416C24.63 27.1381 25.0887 27.2775 25.5474 27.3657C25.8204 27.4179 26.0261 27.442 26.0803 27.445H93.0686L93.0696 17.0378C93.0696 16.8041 93.0575 16.5745 93.0345 16.3468C93.0264 16.2716 93.0114 16.2004 93.0013 16.1272C92.9813 15.9758 92.9632 15.8234 92.9341 15.675C92.917 15.5887 92.8909 15.5055 92.8709 15.4192C92.8377 15.2879 92.8096 15.1555 92.7705 15.0261C92.7424 14.9349 92.7073 14.8476 92.6751 14.7584C92.633 14.6401 92.5948 14.5197 92.5477 14.4054C92.5085 14.3121 92.4624 14.2239 92.4202 14.1336C92.369 14.0263 92.3229 13.917 92.2667 13.8127C92.2205 13.7235 92.1663 13.6403 92.1141 13.553C92.0559 13.4527 91.9987 13.3504 91.9344 13.2532C91.8792 13.1689 91.817 13.0907 91.7588 13.0095C91.6896 12.9152 91.6253 12.82 91.5521 12.7297C91.4898 12.6505 91.4196 12.5783 91.3543 12.5031C91.2781 12.4158 91.2028 12.3276 91.1225 12.2453C91.0532 12.1721 90.9759 12.107 90.9037 12.0378C90.8204 11.9585 90.7391 11.8783 90.6508 11.8041C90.5735 11.7379 90.4912 11.6798 90.4109 11.6176C90.3206 11.5464 90.2332 11.4752 90.1389 11.409C90.0546 11.3498 89.9673 11.2987 89.882 11.2445C89.7846 11.1834 89.6903 11.1202 89.5899 11.063C89.5006 11.0129 89.4072 10.9688 89.3149 10.9226C89.2135 10.8705 89.1132 10.8163 89.0088 10.7712C88.9124 10.7281 88.8141 10.692 88.7157 10.6539C88.6093 10.6128 88.5049 10.5696 88.3965 10.5345C88.2962 10.5005 88.1928 10.4744 88.0904 10.4453C87.979 10.4142 87.8706 10.3821 87.7582 10.356C87.6528 10.332 87.5464 10.3159 87.4401 10.2969C87.3266 10.2768 87.2122 10.2558 87.0958 10.2407C86.9874 10.2277 86.878 10.2217 86.7686 10.2126C86.6301 10.2026 86.4946 10.1896 86.3541 10.1876H86.33L76.0284 1.71582C70.141 2.74771 38.1011 7.11396 28.8564 8.7355Z" fill="white"/>
</mask>
<g mask="url(#mask7)">
<path fill-rule="evenodd" clip-rule="evenodd" d="M58.618 20.667L29.3784 34.8066L58.618 20.667Z" fill="#C6ECF6"/>
</g>
<path fill-rule="evenodd" clip-rule="evenodd" d="M91.0233 64.8282H88.3445C87.7363 64.8282 87.1541 64.5876 86.7246 64.1614C86.295 63.7342 86.0551 63.1555 86.0571 62.5528V59.8984C86.0551 59.2967 86.295 58.7181 86.7246 58.2909C87.1541 57.8637 87.7363 57.624 88.3445 57.624H91.0233C91.6315 57.624 92.2146 57.8637 92.6442 58.2909C93.0727 58.7181 93.3126 59.2967 93.3106 59.8984V62.5528C93.3126 63.1555 93.0727 63.7342 92.6442 64.1614C92.2146 64.5876 91.6315 64.8282 91.0233 64.8282Z" fill="#999999"/>
<path fill-rule="evenodd" clip-rule="evenodd" d="M89.1293 63.181H86.2247C85.5663 63.181 84.934 62.9172 84.4683 62.4479C84.0046 61.9786 83.7436 61.3418 83.7466 60.679V57.7618C83.7436 57.0989 84.0046 56.4621 84.4683 55.9928C84.934 55.5235 85.5663 55.2598 86.2247 55.2598H89.1293C89.7877 55.2598 90.42 55.5235 90.8857 55.9928C91.3504 56.4621 91.6113 57.0989 91.6083 57.7618V60.679C91.6113 61.3418 91.3504 61.9786 90.8857 62.4479C90.42 62.9172 89.7877 63.181 89.1293 63.181Z" fill="#595959"/>
<path fill-rule="evenodd" clip-rule="evenodd" d="M27.3974 75.4875C29.3254 76.2827 31.4221 77.1852 31.4221 79.3714C31.4221 81.4211 30.0982 82.816 27.7025 83.156V86.2496H25.7464V83.2111L25.6872 83.2432C24.3292 83.166 23.0224 82.7107 21.9134 81.9285L22.7956 80.3712C23.8304 81.1183 25.0729 81.5294 26.3516 81.5505C28.2525 81.5505 29.3254 80.8685 29.3254 79.6632C29.3254 78.186 27.3703 77.6946 25.5125 76.8723C23.8304 76.1313 22.2446 75.1736 22.2446 73.0426C22.2446 71.7921 22.892 70.7482 23.995 70.1184C24.4848 69.8376 25.0549 69.631 25.7143 69.5378V66.6878H27.6694V69.5057C28.8517 69.63 29.9798 70.0653 30.9363 70.7662L29.9728 72.2424C29.0253 71.5504 27.8822 71.1714 26.7059 71.1613C26.187 71.1613 25.7383 71.2395 25.365 71.384C24.6504 71.6587 24.2278 72.1832 24.2278 72.9403C24.2278 74.2279 25.7424 74.8005 27.3974 75.4875ZM37.8646 79.9891C38.0252 79.6933 38.2068 79.3653 38.4065 79.0103C38.9776 77.9985 39.5798 76.9857 40.185 76.037C40.5845 75.4132 40.9719 74.8376 41.3453 74.3192C42.8186 72.2755 43.9126 71.2255 45.0749 71.3258C45.1411 71.3318 45.2033 71.3489 45.2676 71.3609C44.2438 67.7387 42.1893 64.5548 39.4323 62.127C39.4142 62.3165 39.359 62.5041 39.2275 62.6615C38.8773 63.0837 38.249 63.1438 37.8244 62.7959C32.0223 58.0476 23.8625 57.3787 17.3558 61.1182C16.7225 61.4822 16.1263 61.8873 15.5512 62.3165C10.6052 66.0129 7.89127 71.9987 8.43826 78.1569C8.86883 77.7428 9.37166 77.1571 9.93271 76.4161C10.279 75.9588 10.6433 75.4504 11.0177 74.9008C11.6439 73.9842 12.2712 72.9995 12.8684 72.0147C13.0782 71.6688 13.2689 71.3489 13.4375 71.061L13.584 70.8083C13.6101 70.7662 13.6292 70.7311 13.6432 70.7061C13.9142 70.2297 14.5234 70.0612 15.0022 70.331C15.4819 70.5998 15.6516 71.2044 15.3796 71.6808C15.3404 71.751 15.2662 71.8793 15.1628 72.0578C14.9891 72.3537 14.7924 72.6826 14.5776 73.0376C13.9624 74.0504 13.3171 75.0643 12.6687 76.0119C12.2773 76.5875 11.8949 77.121 11.5265 77.6074C10.0552 79.5509 8.95213 80.6259 7.87119 80.7071C7.85012 80.7121 7.82803 80.7171 7.80495 80.7201C7.7096 80.7362 7.61626 80.7302 7.52393 80.7191C8.33187 84.3995 10.1856 87.6917 12.7731 90.2609C12.8152 90.1636 12.8624 90.0683 12.9367 89.9861C13.304 89.578 13.9353 89.5449 14.3448 89.9099C20.15 95.0834 28.648 95.9589 35.3986 92.079C37.9288 90.6249 39.9893 88.6223 41.5018 86.2938C43.8343 82.7037 44.854 78.3334 44.1936 73.9532C43.8323 74.3332 43.4188 74.8467 42.9682 75.4724C42.6179 75.9578 42.2506 76.5043 41.8702 77.099C41.286 78.0135 40.7019 78.9963 40.1469 79.979C39.9522 80.324 39.7755 80.6439 39.62 80.9297C39.5266 81.1012 39.4624 81.2225 39.4283 81.2847C39.1733 81.7701 38.5711 81.9566 38.0824 81.7029C37.5946 81.4492 37.4059 80.8505 37.6618 80.3661C37.699 80.2959 37.7672 80.1676 37.8646 79.9891Z" fill="white"/>
<path fill-rule="evenodd" clip-rule="evenodd" d="M7.80556 80.7204C7.82764 80.7174 7.85072 80.7124 7.8708 80.7063C8.95274 80.6261 10.0548 79.5511 11.5271 77.6076C11.8945 77.1213 12.2769 76.5868 12.6693 76.0122C13.3167 75.0635 13.963 74.0507 14.5773 73.0368C14.793 72.6828 14.9888 72.3529 15.1624 72.0571C15.2668 71.8796 15.341 71.7512 15.3802 71.681C15.6512 71.2047 15.4816 70.6 15.0028 70.3312C14.5231 70.0615 13.9148 70.23 13.6428 70.7063C13.6298 70.7314 13.6097 70.7655 13.5846 70.8086L13.4371 71.0613C13.2685 71.3491 13.0788 71.669 12.869 72.014C12.2708 72.9997 11.6436 73.9845 11.0173 74.9011C10.6429 75.4506 10.2796 75.958 9.93231 76.4163C9.37227 77.1564 8.86944 77.742 8.43887 78.1572C7.89187 71.9989 10.6048 66.0131 15.5518 62.3168C16.1259 61.8876 16.7231 61.4824 17.3564 61.1184C23.8621 57.3789 32.0229 58.0478 37.824 62.7961C38.2486 63.1441 38.8779 63.0839 39.2281 62.6617C39.3586 62.5033 39.4138 62.3168 39.4329 62.1272C39.464 61.8103 39.3586 61.4844 39.0926 61.2668C32.6491 55.993 23.5841 55.251 16.3567 59.4036C10.2525 62.9124 6.54496 69.2893 6.38036 76.1135C6.18666 75.6331 5.98793 75.1026 5.7882 74.528C5.42588 73.4831 5.07962 72.3599 4.76246 71.2358C4.65005 70.8417 4.5517 70.4766 4.46438 70.1487C4.41219 69.9532 4.37706 69.8148 4.35899 69.7426C4.22651 69.2121 3.68554 68.8882 3.15059 69.0206C2.61664 69.1519 2.29045 69.6894 2.42394 70.2209C2.44301 70.3002 2.48115 70.4476 2.53434 70.6511C2.62467 70.9891 2.72604 71.3661 2.84146 71.7713C3.16865 72.9295 3.52596 74.0888 3.90233 75.1738C4.5537 77.0451 5.19103 78.5001 5.82534 79.4247C6.23082 80.0164 6.65035 80.4276 7.14917 80.6071C7.25957 80.6682 7.38302 80.7023 7.51249 80.7194C7.51651 80.7194 7.52052 80.7184 7.52454 80.7194C7.61687 80.7294 7.70921 80.7364 7.80556 80.7204ZM50.6385 81.6027C50.6155 81.5235 50.5713 81.3791 50.5071 81.1796C50.4037 80.8466 50.2832 80.4766 50.1518 80.0785C49.7724 78.9403 49.3629 77.8011 48.9394 76.7341C48.4094 75.4044 47.8935 74.2802 47.3957 73.4188C46.7072 72.2305 46.0699 71.5215 45.267 71.361C45.2037 71.348 45.1405 71.3319 45.0753 71.3259C43.913 71.2246 42.819 72.2756 41.3457 74.3193C40.9723 74.8368 40.5839 75.4134 40.1854 76.0371C39.5792 76.9858 38.978 77.9986 38.4059 79.0105C38.2062 79.3655 38.0256 79.6934 37.864 79.9892C37.7676 80.1677 37.6984 80.2961 37.6612 80.3663C37.4053 80.8506 37.595 81.4493 38.0828 81.703C38.5715 81.9567 39.1737 81.7702 39.4287 81.2849C39.4618 81.2227 39.527 81.1013 39.6194 80.9299C39.7759 80.6431 39.9526 80.3242 40.1473 79.9792C40.7023 78.9964 41.2864 78.0127 41.8706 77.0991C42.251 76.5045 42.6183 75.9579 42.9676 75.4726C43.4192 74.8468 43.8327 74.3324 44.194 73.9533C44.8535 78.3336 43.8347 82.7038 41.5012 86.2939C39.9897 88.6224 37.9292 90.625 35.398 92.0791C28.6484 95.958 20.1504 95.0825 14.3452 89.91C13.9357 89.544 13.3044 89.5781 12.9371 89.9852C12.8618 90.0685 12.8146 90.1638 12.7725 90.261C12.7504 90.3142 12.7343 90.3673 12.7223 90.4235C12.642 90.7634 12.7313 91.1345 13.0133 91.3842C19.4609 97.1303 28.9003 98.103 36.3986 93.7939C42.9074 90.0524 46.6701 83.0699 46.37 75.7864C46.6028 76.2909 46.8407 76.8524 47.0836 77.4621C47.4921 78.49 47.8895 79.5951 48.2569 80.7002C48.3863 81.0873 48.5018 81.4473 48.6031 81.7692C48.6633 81.9618 48.7055 82.0981 48.7266 82.1683C48.8841 82.6928 49.4402 82.9916 49.9671 82.8352C50.495 82.6788 50.7961 82.1262 50.6385 81.6027Z" fill="#767676"/>
<path fill-rule="evenodd" clip-rule="evenodd" d="M22.2448 73.0433C22.2448 75.1743 23.8306 76.132 25.5127 76.872C27.3695 77.6943 29.3256 78.1867 29.3256 79.6629C29.3256 80.8692 28.2517 81.5502 26.3518 81.5502C25.0721 81.5291 23.8306 81.1179 22.7958 80.3718L21.9136 81.9292C23.0216 82.7104 24.3294 83.1657 25.6873 83.2429L25.7466 83.2108V86.2503H27.7017V83.1567C30.0984 82.8167 31.4222 81.4208 31.4222 79.371C31.4222 77.1859 29.3256 76.2824 27.3976 75.4882C25.7415 74.8002 24.228 74.2276 24.228 72.94C24.228 72.1839 24.6496 71.6584 25.3642 71.3836C25.7375 71.2402 26.1872 71.161 26.705 71.161C27.8823 71.1721 29.0255 71.5501 29.973 72.2431L30.9365 70.7659C29.98 70.0659 28.8519 69.6307 27.6696 69.5064V66.6885H25.7144V69.5385C25.055 69.6317 24.4839 69.8383 23.9952 70.1181C22.8921 70.7479 22.2448 71.7918 22.2448 73.0433Z" fill="#767676"/>
<path fill-rule="evenodd" clip-rule="evenodd" d="M107.152 15.8065L106.232 16.7261L105.092 15.5869L103.959 16.7191L103.033 15.7935L104.166 14.6613L103.026 13.5231L103.948 12.6035L105.086 13.7417L106.219 12.6095L107.145 13.5351L106.012 14.6673L107.152 15.8065Z" fill="#999999"/>
</svg>
