<svg width="126" height="98" viewBox="0 0 126 98" fill="none" xmlns="http://www.w3.org/2000/svg">
<path fill-rule="evenodd" clip-rule="evenodd" d="M63.7918 93.9437C105.267 97.2735 126.003 87.9608 126.001 66.0039C125.997 33.0704 101.648 36.4743 90.5774 28.0628C79.5066 19.6522 86.0428 28.0628 71.0954 9.37436C61.1302 -3.08457 45.7222 -3.12466 24.8714 9.25408C9.32162 21.7531 7.61468 38.1141 19.7506 58.3371C31.8864 78.56 46.5665 90.4296 63.7918 93.9437Z" fill="#262626"/>
<path fill-rule="evenodd" clip-rule="evenodd" d="M95.2143 66.841L86.8142 63.2697L83.4955 67.8243L82.4142 69.2085L76.5371 76.736L73.2063 72.2476L70.9516 69.2085L69.6132 67.4043L69.0817 66.6887L68.533 67.4043L67.149 69.2085L64.9804 72.0381L61.3883 76.72L55.0475 68.6011C54.7397 68.2062 54.8137 67.6399 55.2115 67.3352C55.5801 67.0535 56.0944 67.0936 56.4143 67.4123L56.4902 67.4975L56.7494 67.8303L57.8256 69.2085L61.3751 73.7531L64.8619 69.2085L66.2459 67.4043L67.9063 65.2383L58.9382 60.5143L57.1604 59.5772L57.124 59.5581L53.8913 62.518L52.8526 62.958L54.1343 64.5577C54.4229 64.9186 54.3894 65.4287 54.0715 65.7495L53.9865 65.8247C53.5927 66.1344 53.0196 66.0692 52.7068 65.6783L51.1173 63.6957L43.7216 66.841C39.2295 68.7505 35.5706 72.0932 33.2329 76.2669C42.3305 85.7339 52.5104 91.6426 63.7908 93.9439C83.4125 95.5186 98.3852 94.2597 108.723 90.1762L107.278 79.7059C105.266 73.9245 100.886 69.2516 95.2143 66.841Z" fill="white"/>
<path fill-rule="evenodd" clip-rule="evenodd" d="M79.3214 54.8689C77.1922 56.5288 75.7313 57.5121 74.8961 57.7135L74.6794 57.7396H66.8311L66.6226 57.7155C65.6081 57.479 63.9275 56.3424 61.5757 54.457C61.2922 54.2304 61.0026 53.9949 60.706 53.7513C60.2534 53.3775 59.7938 52.9896 59.3342 52.5977L59.0396 58.5234L69.4695 64.0192L80.2325 58.348L79.6696 54.5953C79.5532 54.6865 79.4348 54.7797 79.3214 54.8689Z" fill="#BFBFBF"/>
<path fill-rule="evenodd" clip-rule="evenodd" d="M51.4459 36.8788C51.4691 36.8738 51.4924 36.8658 51.5157 36.8548L52.5221 36.3977L52.7812 37.4632C53.2662 39.4578 53.986 41.4855 54.8769 43.4962C55.4874 44.8734 56.1425 46.1594 56.7965 47.3181C57.0253 47.722 57.2369 48.0808 57.4252 48.3896C57.4971 48.5058 57.5528 48.597 57.5963 48.6642C57.6226 48.6873 57.6672 48.7283 57.6996 48.7574C57.7522 48.8045 57.7958 48.8456 57.8666 48.9078C58.1531 49.1664 58.4761 49.455 58.8284 49.7648C59.0329 49.9452 59.2405 50.1226 59.447 50.302C60.2549 51.0066 61.0719 51.7053 61.8707 52.3638C62.1603 52.6033 62.4438 52.8329 62.7212 53.0554C64.7207 54.6581 66.2738 55.7186 66.9531 55.9351H74.5462C75.0788 55.7446 76.4395 54.8175 78.193 53.4513C78.3904 53.296 78.5939 53.1366 78.8014 52.9722C78.9837 52.8269 79.172 52.6725 79.3573 52.5222C79.9009 52.0831 80.4487 51.6341 80.9974 51.177C81.1482 51.0507 81.3001 50.9265 81.4509 50.8002C81.7577 50.5406 82.0422 50.3 82.2943 50.0835C82.3945 49.9973 82.4755 49.9281 82.5352 49.877C82.5666 49.8349 82.6071 49.7788 82.6577 49.7106C82.8046 49.5072 82.9726 49.2696 83.1579 48.999C83.6894 48.2212 84.2493 47.3411 84.8152 46.3749C86.426 43.6205 87.7421 40.7398 88.5531 37.8852L88.788 37.0633L89.6293 37.2497L89.6434 37.2527C90.6154 37.4632 92.057 35.9437 92.5957 33.6674C93.1424 31.4021 92.5531 29.4766 91.6085 29.2621C91.3686 29.211 91.0841 29.2692 90.7652 29.4546L89.4146 30.2404L89.3924 28.6898C89.2921 21.462 88.5217 16.9255 86.3328 13.3713C83.6074 8.94698 78.7053 6.62158 70.7557 6.62158C63.1464 6.62158 58.303 9.03318 55.4935 13.5998C53.2054 17.3184 52.2892 22.2108 52.1333 29.3012L52.0918 31.1996L50.6309 29.9678C50.3383 29.7212 50.1044 29.645 49.9536 29.6801C49.2823 29.8525 48.7994 31.6116 49.2307 33.6604C49.6761 35.7011 50.807 37.0342 51.4459 36.8788Z" fill="#E5E5E5"/>
<path fill-rule="evenodd" clip-rule="evenodd" d="M79.5911 16.2335C77.5814 15.6983 75.4735 15.7835 73.3768 15.998C68.9232 16.451 63.1929 18.7584 58.8162 17.0274C58.5925 16.9362 58.4264 17.1437 58.5044 17.3271C59.5917 20.6618 65.6176 20.1857 68.3451 19.894C71.4168 19.5703 74.5806 19.1834 77.6847 19.5703C79.3896 19.8008 80.6379 20.8904 81.7941 22.034C81.9561 22.3086 82.1059 22.6033 82.276 22.872C84.885 27.3062 85.2647 34.3737 83.3886 39.1898C82.276 42.5166 78.5199 45.1176 75.9048 48.0905C73.1166 51.5415 68.5395 51.3581 63.6252 52.1199C65.1783 53.3638 66.9095 54.9975 66.9095 55.9548H74.5806C76.2329 55.5338 82.9179 49.4426 82.9179 49.4426C82.9179 49.4426 89.8704 39.8754 89.8704 30.7332C89.8704 20.2258 90.0554 10.8951 79.5911 7.05322C79.0413 10.9132 78.7497 12.536 79.5911 16.2335Z" fill="#BFBFBF"/>
<path fill-rule="evenodd" clip-rule="evenodd" d="M113.431 21.4553L112.229 22.6451L110.255 20.6908L108.286 22.641L107.08 21.4462L109.049 19.496L107.076 17.5408L108.276 16.3521L110.25 18.3073L112.22 16.3561L113.427 17.5499L111.456 19.5011L113.431 21.4553Z" fill="#999999"/>
<path fill-rule="evenodd" clip-rule="evenodd" d="M69.288 74.4239C69.0309 74.4009 68.7798 74.3437 68.5904 74.2255L67.0485 73.3073L64.6167 94.4444L73.7285 94.4474L71.8069 73.1099L69.9835 74.2194C69.7861 74.3367 69.5391 74.4009 69.288 74.4239Z" fill="#4C4C4C"/>
<path fill-rule="evenodd" clip-rule="evenodd" d="M71.8403 73.3449L73.7508 94.4475H75.9548L72.5166 72.9014L71.8403 73.3449Z" fill="#999999"/>
<path fill-rule="evenodd" clip-rule="evenodd" d="M54.8092 66.6783C54.8092 66.6783 54.6847 66.4689 54.4488 66.0699C54.1045 66.1611 53.7229 66.0509 53.487 65.7572L51.8772 63.7485L44.3873 66.9339C42.08 67.9142 39.9924 69.2714 38.1842 70.9192L34.3472 75.8627L36.3599 79.043C38.6732 81.2331 41.0514 83.2067 43.4974 84.9608V81.4045C44.3813 73.0932 48.1515 68.1848 54.8092 66.6783Z" fill="#E5E5E5"/>
<path fill-rule="evenodd" clip-rule="evenodd" d="M85.0081 62.9716L83.126 65.3511L81.5791 67.3297L81.5912 67.4049H81.5224L80.1121 69.2091L76.5757 73.7386L73.2144 69.2091L71.876 67.4049L70.4829 65.5275L80.516 60.2413L81.8129 59.5587L82.3272 60.0288L85.0456 62.5186L85.0081 62.9716ZM69.4685 64.0191L59.0396 58.5233L59.3342 52.5975C59.7938 52.9894 60.2534 53.3773 60.706 53.7512C61.0026 53.9948 61.2922 54.2303 61.5747 54.4568C63.9275 56.3422 65.6081 57.4789 66.6226 57.7154L66.8311 57.7395H74.6794L74.8961 57.7134C75.7313 57.5119 77.1922 56.5287 79.3214 54.8688C79.4348 54.7796 79.5522 54.6864 79.6696 54.5952L80.2325 58.3479L69.4685 64.0191ZM58.83 49.765C58.4777 49.4552 58.1547 49.1666 57.8672 48.908C57.7973 48.8458 57.7528 48.8047 57.7001 48.7576C57.6677 48.7285 57.6232 48.6875 57.5979 48.6644C57.5543 48.5972 57.4976 48.505 57.4268 48.3898C57.2374 48.081 57.0259 47.7222 56.7981 47.3173C56.143 46.1596 55.489 44.8726 54.8775 43.4954C53.9866 41.4857 53.2667 39.458 52.7828 37.4634L52.5236 36.3979L51.5173 36.855C51.493 36.866 51.4707 36.873 51.4474 36.879C50.8086 37.0344 49.6777 35.7013 49.2322 33.6606C48.9113 32.136 49.0966 30.7749 49.4894 30.1053C50.194 32.8096 51.5547 37.9164 52.0822 32.9439C52.1166 31.8363 53.0227 21.781 54.2954 19.9908C54.6831 19.4345 55.0972 18.9544 55.5315 18.5465C55.9264 18.7119 56.2797 18.8762 56.6178 18.9634C58.4331 19.4085 60.3436 19.3283 62.2125 19.217C68.3417 18.8181 75.297 17.4499 81.408 18.336C82.7454 18.5224 84.1506 18.8171 85.5305 19.2541C85.7239 19.4826 85.9142 19.7282 86.0955 19.9908C87.3579 21.781 88.2772 31.8363 88.3147 32.9439C88.8897 38.4687 90.4934 31.5507 91.1161 29.3115C91.2942 29.2563 91.4623 29.2313 91.6101 29.2623C92.5537 29.4768 93.1429 31.4023 92.5962 33.6676C92.0586 35.9439 90.6169 37.4634 89.645 37.2529L89.6298 37.2499L88.7885 37.0635L88.5546 37.8854C87.7427 40.74 86.4265 43.6207 84.8168 46.3751C84.2508 47.3413 83.69 48.2214 83.1594 48.9992C82.9732 49.2698 82.8051 49.5074 82.6593 49.7108C82.6087 49.779 82.5682 49.8351 82.5368 49.8772C82.4771 49.9283 82.3961 49.9975 82.2948 50.0837C82.0427 50.3002 81.7593 50.5408 81.4515 50.8004C81.3017 50.9266 81.1488 51.0509 80.9989 51.1762C80.4502 51.6343 79.9025 52.0833 79.3588 52.5224C79.1725 52.6727 78.9852 52.8271 78.802 52.9724C78.5955 53.1368 78.392 53.2962 78.1945 53.4515C76.441 54.8177 75.0793 55.7448 74.5478 55.9353H66.9546C66.2753 55.7188 64.7223 54.6583 62.7217 53.0546C62.4453 52.8331 62.1619 52.6025 61.8713 52.364C61.0725 51.7055 60.2565 51.0058 59.4486 50.3022C59.242 50.1228 59.0345 49.9454 58.83 49.765ZM64.5937 5.43603C63.231 5.73372 61.9786 6.13966 60.8275 6.65085C61.9776 6.13866 63.232 5.73372 64.5937 5.43603ZM76.8095 5.34582C76.7721 5.3388 76.7366 5.32978 76.6982 5.32276C76.6567 5.27766 76.6141 5.23356 76.5726 5.19046C76.6536 5.23957 76.7285 5.2957 76.8095 5.34582ZM109.073 79.3757L109.033 79.2073C106.867 72.9037 102.107 67.8078 95.9352 65.1838L86.0529 60.983L82.0994 57.3636L81.9395 57.4478L81.3138 53.2711C81.7532 52.9093 82.1956 52.5424 82.632 52.1745C82.9448 51.9119 83.2313 51.6674 83.4875 51.4479C83.6414 51.3166 83.7517 51.2213 83.8094 51.1712L83.936 51.0359C83.9744 50.9858 84.0433 50.8946 84.1385 50.7623C84.2954 50.5468 84.4736 50.2952 84.6679 50.0095C85.2217 49.1996 85.8059 48.2835 86.3931 47.2792C87.9462 44.623 89.239 41.8506 90.1026 39.0661C91.9898 38.8857 93.7301 36.7888 94.369 34.0825C94.6899 32.7575 94.7051 31.4604 94.45 30.3659C94.1057 28.8925 93.2695 27.7879 92.005 27.5013C91.8602 27.4702 91.7154 27.4531 91.5696 27.4461C91.8622 25.9166 92.1305 23.8017 92.2955 21.6386C92.4028 20.7827 92.4909 19.5969 92.4595 18.2949C92.496 16.207 92.3795 14.3818 92.0272 13.4115C91.4957 11.9421 90.7131 10.6832 89.7402 9.59669C89.563 9.20979 89.3666 8.84795 89.1428 8.5262C85.3939 3.13969 75.6291 -1.49707 63.1702 0.765181C58.4756 1.60513 56.2544 3.94657 55.2207 5.44705C52.0103 6.61877 49.5593 8.61942 48.3545 11.9481C47.423 14.5331 48.1581 24.4241 48.9802 28.1598C47.4676 28.9877 46.9037 31.4484 47.4494 34.0354C48.0113 36.6154 49.5218 38.6101 51.2196 38.6952C51.7187 40.5355 52.3961 42.3878 53.209 44.2211C53.8448 45.6544 54.5262 46.9915 55.2065 48.1983C55.4465 48.6213 55.6692 48.9992 55.8687 49.3259C55.9901 49.5244 56.0792 49.6637 56.1278 49.7389L56.1896 49.8341L56.2746 49.9113C56.3425 49.9724 56.467 50.0857 56.6411 50.2431C56.9236 50.4967 57.2415 50.7803 57.5847 51.083L57.2607 57.5861L56.8386 57.3636L52.8851 60.983L43.0038 65.1838C38.3173 67.1754 34.4489 70.5953 31.9077 74.8843C32.3441 75.3614 32.7916 75.8074 33.234 76.2675C35.5717 72.0938 39.2305 68.751 43.7227 66.8416L51.1184 63.6963L52.7079 65.6789C53.0207 66.0698 53.5937 66.135 53.9876 65.8252L54.0726 65.7491C54.3905 65.4293 54.4239 64.9181 54.1354 64.5583L52.8537 62.9586L53.8924 62.5186L57.1251 59.5587L57.1615 59.5777L58.9393 60.5149L67.9073 65.2389L66.247 67.4049L64.863 69.2091L61.3762 73.7536L57.8267 69.2091L56.7505 67.8309L56.4913 67.4981L56.4154 67.4129C56.0954 67.0942 55.5811 67.0541 55.2126 67.3358C54.8147 67.6405 54.7408 68.2068 55.0486 68.6017L61.3894 76.7205L64.9814 72.0377C65.0159 72.0717 65.0493 72.1078 65.0908 72.1329L65.9564 72.6561L67.0488 73.3076L68.5897 74.2258C68.78 74.344 69.0311 74.4012 69.2883 74.4242C69.5394 74.4012 69.7864 74.337 69.9828 74.2197L71.8072 73.1102L72.607 72.623L73.2074 72.2472L76.5382 76.7356L82.4153 69.2091L83.4966 67.8249L86.8153 63.2693L95.2153 66.8416C100.887 69.2522 105.267 73.925 107.279 79.7065L108.724 90.1768C109.317 89.9422 109.901 89.7027 110.463 89.4501L109.073 79.3757Z" fill="#4C4C4C"/>
<path fill-rule="evenodd" clip-rule="evenodd" d="M19.5167 97.3599C30.1411 97.3599 38.7527 88.8331 38.7527 78.3157C38.7527 67.7973 30.1411 59.2715 19.5167 59.2715C8.89342 59.2715 0.280762 67.7973 0.280762 78.3157C0.280762 88.8331 8.89342 97.3599 19.5167 97.3599Z" fill="#191919"/>
<path fill-rule="evenodd" clip-rule="evenodd" d="M1.29248 77.9709C1.57697 72.3077 4.1394 67.0044 8.39056 63.2808L35.2197 88.3881C31.6023 93.3396 25.9459 96.3706 19.841 96.6282C9.61558 97.2025 1.29248 88.2778 1.29248 77.9709Z" fill="#262626"/>
<path fill-rule="evenodd" clip-rule="evenodd" d="M10.4831 60.607C11.2039 61.1603 11.2394 62.3641 10.9326 64.3597C10.8557 64.8659 10.7544 65.4141 10.6309 65.9965C10.4446 66.8815 10.2199 67.8037 9.97789 68.7088C9.89284 69.0255 9.81286 69.3172 9.73895 69.5788C9.69339 69.7362 9.661 69.8484 9.64277 69.9096C9.51622 70.3336 9.07177 70.5912 8.6506 70.4849C8.22944 70.3787 7.98949 69.9497 8.11604 69.5247C8.13224 69.4706 8.16363 69.3633 8.20615 69.213C8.27803 68.9594 8.35599 68.6757 8.43901 68.368C8.67389 67.489 8.89257 66.5949 9.07177 65.7409C9.18921 65.1856 9.28539 64.6654 9.35828 64.1913C9.40789 63.8716 9.44535 63.5749 9.47066 63.3052C4.71735 66.6841 1.82183 72.1237 1.82183 78.0535C1.82183 88.0727 10.0275 96.1946 20.1476 96.1946C30.2678 96.1946 38.4724 88.0727 38.4724 78.0535C38.4724 74.9954 37.7081 72.0495 36.2714 69.4244L36.0386 69.0125L37.618 68.1124C39.3624 71.1114 40.2938 74.5163 40.2938 78.0535C40.2938 89.0691 31.2741 97.9998 20.1476 97.9998C9.02115 97.9998 0.000488281 89.0691 0.000488281 78.0535C0.000488281 71.8621 2.87171 66.1549 7.63616 62.4172C7.1178 62.6267 6.52958 62.8923 5.88771 63.206C5.07676 63.6029 4.22937 64.053 3.39817 64.5181C3.1076 64.6804 2.8383 64.8338 2.60038 64.9721C2.45763 65.0553 2.3574 65.1144 2.30476 65.1455C1.92105 65.375 1.43509 65.2598 1.22248 64.8879C1.00785 64.5161 1.14553 64.0289 1.53025 63.7994C1.58796 63.7643 1.69427 63.7022 1.84309 63.616C2.08911 63.4726 2.3655 63.3153 2.66416 63.1479C3.52067 62.6688 4.39439 62.2047 5.23571 61.7927C6.28559 61.2785 7.21297 60.8816 7.98038 60.63C9.12543 60.2572 9.92524 60.18 10.4831 60.607ZM15.3933 71.5414C16.67 71.5414 17.6935 71.8711 18.464 72.5307C19.2344 73.1912 19.6192 74.0793 19.6192 75.1958C19.6192 75.8093 19.5078 76.3926 19.2851 76.9439C19.0644 77.4952 18.7222 78.0645 18.2625 78.6499C17.8019 79.2352 17.0365 80.0281 15.9653 81.0264L13.5801 83.3137V83.4069H20.098V85.3314H10.7909V83.6765L14.3313 80.1524C15.3771 79.0919 16.0706 78.3401 16.4108 77.8971C16.753 77.4541 17.001 77.0371 17.159 76.6462C17.3149 76.2553 17.3928 75.8373 17.3928 75.3913C17.3928 74.7769 17.2076 74.2938 16.834 73.9399C16.4614 73.5871 15.9461 73.4097 15.289 73.4097C14.7636 73.4097 14.2554 73.5059 13.7623 73.6984C13.2713 73.8908 12.7023 74.2376 12.0584 74.7398L10.8658 73.2984C11.6291 72.66 12.3712 72.2079 13.0911 71.9413C13.8109 71.6747 14.5783 71.5414 15.3933 71.5414ZM29.3212 71.6987V80.5513H31.1729V82.3655H29.3212V85.3314H27.1708V82.3655H20.8968V80.6816L27.1708 71.6987H29.3212ZM27.265 74.1544H27.19C27.0139 74.5634 26.7395 75.0585 26.3639 75.6419L22.9531 80.5513H27.1708V77.1394C27.1708 75.9235 27.2022 74.9292 27.265 74.1544Z" fill="#A6A6A6"/>
<path fill-rule="evenodd" clip-rule="evenodd" d="M85.0081 62.9719L85.0456 62.5183L82.3272 60.0284L81.8129 59.5586L80.516 60.2411L70.4829 65.5276L71.876 67.4049L73.2144 69.2093L76.5757 73.7384L80.112 69.2093L81.5223 67.4049H81.5912L81.579 67.33L83.126 65.3514L85.0081 62.9719Z" fill="#E5E5E5"/>
<path fill-rule="evenodd" clip-rule="evenodd" d="M82.5862 16.2154C81.9504 14.3491 81.3116 12.598 80.4227 10.8399C82.1721 11.6408 83.8284 13.5673 85.3025 14.8011C84.1565 12.3434 82.6712 10.2816 80.857 8.50852C80.287 8.2379 79.6836 7.99533 79.0448 7.78284C79.6887 8.4574 80.3295 9.13097 80.9734 9.80553C79.6158 8.94454 78.2622 8.07853 76.9106 7.21953C77.6689 8.20682 78.4211 9.19412 79.1794 10.1814C77.4877 8.69997 75.5306 7.53426 73.437 6.71937C73.194 6.70133 72.9439 6.6893 72.6938 6.67627C76.3922 9.39358 79.7393 12.603 82.5862 16.2154Z" fill="#333333"/>
<path fill-rule="evenodd" clip-rule="evenodd" d="M72.3212 50.5978C71.7856 50.5978 71.2905 50.25 71.1265 49.7097C70.9271 49.0482 71.2996 48.3496 71.9597 48.1491L76.4589 46.7809C82.8706 44.8334 87.8932 39.8428 89.8937 33.434C90.1003 32.7744 90.7999 32.4066 91.4579 32.6141C92.116 32.8195 92.4825 33.5222 92.277 34.1817C90.0284 41.3814 84.3862 46.9874 77.1838 49.1765L72.6836 50.5437C72.5631 50.5798 72.4406 50.5978 72.3212 50.5978Z" fill="#7F7F7F"/>
<path fill-rule="evenodd" clip-rule="evenodd" d="M49.8793 38.3858H47.2905V24.7291C47.2905 13.4689 57.5099 4.30664 70.07 4.30664C82.6321 4.30664 92.8494 13.4689 92.8494 24.7291V37.8345H90.2627V24.7291C90.2627 14.7479 81.2036 6.62703 70.07 6.62703C58.9374 6.62703 49.8793 14.7479 49.8793 24.7291V38.3858Z" fill="#7F7F7F"/>
<path fill-rule="evenodd" clip-rule="evenodd" d="M48.835 24.3154C46.0387 24.3154 43.7729 26.3431 43.7729 28.8459V34.8208C43.7729 37.3226 46.0387 39.3503 48.835 39.3503V39.3483V24.3184V24.3154Z" fill="#A6A6A6"/>
<path fill-rule="evenodd" clip-rule="evenodd" d="M51.7462 23.3135H49.9704C49.3427 23.3135 48.8335 23.7635 48.8335 24.3188V39.3487C48.8335 39.903 49.3427 40.353 49.9704 40.353H51.7462C52.3739 40.353 52.8832 39.903 52.8832 39.3487V24.3188C52.8832 23.7635 52.3739 23.3135 51.7462 23.3135Z" fill="#7F7F7F"/>
<path fill-rule="evenodd" clip-rule="evenodd" d="M92.3687 24.3154V24.3174V39.3483V39.3503C95.165 39.3503 97.4308 37.3226 97.4308 34.8208V28.8459C97.4308 26.3431 95.165 24.3154 92.3687 24.3154Z" fill="#A6A6A6"/>
<path fill-rule="evenodd" clip-rule="evenodd" d="M91.2306 23.3135H89.4548C88.8271 23.3135 88.3179 23.7635 88.3179 24.3178V39.3487C88.3179 39.903 88.8271 40.353 89.4548 40.353H91.2306C91.8583 40.353 92.3676 39.903 92.3676 39.3487V24.3178C92.3676 23.7635 91.8583 23.3135 91.2306 23.3135Z" fill="#7F7F7F"/>
</svg>
