<svg width="116" height="104" viewBox="0 0 116 104" fill="none" xmlns="http://www.w3.org/2000/svg">
<path fill-rule="evenodd" clip-rule="evenodd" d="M63.3455 103.471C101.115 98.3416 106.726 89.4139 111.994 79.5659C122.196 60.4938 112.169 25.5716 90.3161 25.22C69.1066 29.499 72.5953 -9.46805 31.9055 2.18438C6.41068 9.48649 -4.53307 31.7354 1.72194 53.5232C7.97795 75.311 25.5761 108.599 63.3455 103.471Z" fill="#262626"/>
<path fill-rule="evenodd" clip-rule="evenodd" d="M15.4644 30.327H18.8303V28.5186H15.4644V30.327Z" fill="#7F7F7F"/>
<path fill-rule="evenodd" clip-rule="evenodd" d="M20.4478 26.9017H22.2585V23.541H20.4478V26.9017Z" fill="#7F7F7F"/>
<path fill-rule="evenodd" clip-rule="evenodd" d="M23.8774 30.327H27.2434V28.5186H23.8774V30.327Z" fill="#7F7F7F"/>
<path fill-rule="evenodd" clip-rule="evenodd" d="M20.4478 35.3041H22.2585V31.9424H20.4478V35.3041Z" fill="#7F7F7F"/>
<path fill-rule="evenodd" clip-rule="evenodd" d="M98.1108 58.8095L100.429 58.8185L100.437 57.011L98.1189 57L98.1108 58.8095Z" fill="#A6A6A6"/>
<path fill-rule="evenodd" clip-rule="evenodd" d="M101.274 56.2648L103.085 56.2729L103.095 54.0676L101.284 54.0605L101.274 56.2648Z" fill="#A6A6A6"/>
<path fill-rule="evenodd" clip-rule="evenodd" d="M103.915 57.0259L103.907 58.8343L106.224 58.8444L106.232 57.0359L103.915 57.0259Z" fill="#A6A6A6"/>
<path fill-rule="evenodd" clip-rule="evenodd" d="M101.249 61.7766L103.059 61.7836L103.069 59.5793L101.259 59.5723L101.249 61.7766Z" fill="#A6A6A6"/>
<path fill-rule="evenodd" clip-rule="evenodd" d="M23.9452 60.7163H23.8862C23.9062 60.7403 23.9272 60.7633 23.9452 60.7883V60.7163Z" fill="white"/>
<path fill-rule="evenodd" clip-rule="evenodd" d="M89.7958 41.1055C87.1692 39.6909 84.2017 38.9424 81.216 38.9424C77.9306 38.9424 74.7065 39.8466 71.8908 41.5556C67.1558 44.431 64.0595 49.344 63.4429 54.7512C63.5334 55.55 63.5726 56.3598 63.5525 57.1756C63.5475 57.3634 63.5032 57.5423 63.4429 57.7141C63.5857 58.1129 63.8634 58.4575 64.2486 58.6655C66.8752 60.0801 69.8417 60.8276 72.8304 60.8276C76.1138 60.8276 79.3379 59.9244 82.1536 58.2144C87.5887 54.914 90.8681 48.93 90.7132 42.5944C90.6971 41.9705 90.3481 41.4029 89.7958 41.1055Z" fill="#0D0D0D"/>
<path fill-rule="evenodd" clip-rule="evenodd" d="M63.4431 54.7508C62.8255 49.3446 59.7281 44.4306 54.9941 41.5562C52.1785 39.8462 48.9544 38.942 45.6689 38.942C42.6813 38.942 39.7147 39.6905 37.0892 41.1051C36.5369 41.4025 36.1868 41.9711 36.1718 42.595C36.0168 48.9296 39.2962 54.9146 44.7304 58.215C47.5461 59.924 50.7701 60.8272 54.0556 60.8272C57.0422 60.8272 60.0098 60.0807 62.6353 58.6651C63.0206 58.4571 63.2993 58.1135 63.4431 57.7147C63.5045 57.5419 63.5477 57.363 63.5528 57.1751C63.5729 56.3593 63.5336 55.5495 63.4431 54.7508ZM63.4431 30.5876C63.587 30.9865 63.8636 31.3311 64.2499 31.5381C66.8754 32.9537 69.842 33.7012 72.8307 33.7012C76.1151 33.7012 79.3392 32.798 82.1548 31.088C87.589 27.7876 90.8694 21.8026 90.7135 15.468C90.6984 14.8441 90.3483 14.2764 89.796 13.9791C87.1695 12.5644 84.2029 11.8149 81.2163 11.8149C77.9308 11.8149 74.7067 12.7192 71.8911 14.4292C67.1561 17.3036 64.0598 22.2175 63.4431 27.6238C63.5336 28.4235 63.5729 29.2323 63.5528 30.0481C63.5477 30.236 63.5045 30.4158 63.4431 30.5876Z" fill="#0D0D0D"/>
<path fill-rule="evenodd" clip-rule="evenodd" d="M44.7304 31.088C47.546 32.798 50.7701 33.7012 54.0555 33.7012C57.0412 33.7012 60.0088 32.9537 62.6353 31.5381C63.0206 31.3311 63.2992 30.9865 63.4431 30.5876C63.5034 30.4158 63.5477 30.236 63.5527 30.0481C63.5718 29.2323 63.5326 28.4235 63.4431 27.6238C62.8244 22.2175 59.7271 17.3036 54.9931 14.4292C52.1774 12.7192 48.9533 11.8149 45.6689 11.8149C42.6812 11.8149 39.7147 12.5644 37.0881 13.9791C36.5359 14.2764 36.1868 14.8441 36.1707 15.468C36.0168 21.8026 39.2962 27.7876 44.7304 31.088Z" fill="#0D0D0D"/>
<path fill-rule="evenodd" clip-rule="evenodd" d="M81.0887 41.0494C77.755 41.0494 74.4817 41.9738 71.6237 43.7219C68.3675 45.7152 65.8757 48.6479 64.4111 52.0639L64.3205 33.46C66.4532 34.2999 68.7467 34.7631 71.0242 34.7631C74.3599 34.7631 77.6333 33.8388 80.4882 32.0896C85.6286 28.9459 88.8708 23.4613 89.1635 17.4191L89.1937 16.8052L88.6334 16.551C86.2774 15.485 83.669 14.9214 81.0887 14.9214C77.753 14.9214 74.4796 15.8457 71.6237 17.5949C67.4078 20.1749 64.4734 24.3283 63.39 29.0695C62.3086 24.3273 59.3723 20.1739 55.1583 17.5959C52.3024 15.8467 49.0291 14.9214 45.6933 14.9214C43.1141 14.9214 40.5046 15.485 38.1497 16.551L37.5884 16.8042L37.6176 17.418C37.9103 23.4603 41.1535 28.9459 46.2929 32.0906C49.1518 33.8398 52.4242 34.7641 55.7569 34.7641C58.0525 34.7641 60.3631 34.2939 62.5088 33.4419L62.6024 52.6406C61.1769 48.9795 58.5957 45.8268 55.1583 43.7219C52.3014 41.9738 49.0291 41.0494 45.6933 41.0494C43.11 41.0494 40.5016 41.6131 38.1487 42.6781L37.5884 42.9322L37.6176 43.5461C37.9103 49.5883 41.1535 55.074 46.2929 58.2187C49.1528 59.9678 52.4252 60.8921 55.7569 60.8921C58.0967 60.8921 60.4537 60.4049 62.6356 59.5207L62.713 75.5426C62.716 76.0409 63.1214 76.4428 63.6194 76.4428H63.6234C64.1234 76.4398 64.5268 76.0339 64.5247 75.5345L64.4473 59.6383C66.5447 60.4451 68.792 60.8921 71.0252 60.8921H71.0333C74.3599 60.8921 77.6293 59.9678 80.4882 58.2187H80.4892C85.6296 55.0719 88.8718 49.5873 89.1635 43.5461L89.1937 42.9312L88.6324 42.6781C86.2764 41.6131 83.668 41.0494 81.0887 41.0494Z" fill="#4C4C4C"/>
<path fill-rule="evenodd" clip-rule="evenodd" d="M79.5414 56.6765H79.5424C76.9661 58.2518 74.0247 59.0837 71.032 59.0837H71.024C68.9095 59.0837 66.7708 58.6627 64.8002 57.86C65.2438 52.6657 68.1158 47.9899 72.5681 45.2642C75.1413 43.6898 78.0878 42.8579 81.0875 42.8579C83.2041 42.8579 85.3437 43.2799 87.3124 44.0796C86.8657 49.2769 83.9947 53.9517 79.5414 56.6765ZM47.2373 56.6765C42.7859 53.9527 39.9139 49.2779 39.4673 44.0796C41.4339 43.2789 43.5726 42.8579 45.6921 42.8579C48.6929 42.8579 51.6393 43.6898 54.2095 45.2642C58.6629 47.9899 61.5348 52.6657 61.9805 57.86C57.2123 59.7991 51.6272 59.362 47.2373 56.6765Z" fill="#7F7F7F"/>
<path fill-rule="evenodd" clip-rule="evenodd" d="M55.7557 32.9553C52.7569 32.9553 49.8115 32.1234 47.2373 30.548C42.7859 27.8243 39.9139 23.1495 39.4673 17.9522C41.4369 17.1515 43.5756 16.7295 45.6921 16.7295C48.6939 16.7295 51.6403 17.5624 54.2105 19.1377C58.6629 21.8615 61.5348 26.5353 61.9805 31.7316C60.0098 32.5333 57.8702 32.9553 55.7557 32.9553ZM72.5691 19.1367C75.1393 17.5614 78.0858 16.7295 81.0875 16.7295C83.2051 16.7295 85.3437 17.1515 87.3124 17.9522C86.8647 23.1495 83.9937 27.8243 79.5414 30.548C76.9692 32.1224 74.0247 32.9553 71.023 32.9553C68.9095 32.9553 66.7698 32.5333 64.7992 31.7316C65.2448 26.5363 68.1168 21.8615 72.5691 19.1367Z" fill="#191919"/>
<path fill-rule="evenodd" clip-rule="evenodd" d="M15.7595 66.5552C14.6489 66.5552 13.7476 67.4554 13.7476 68.5646C13.7476 69.6737 14.6489 70.5739 15.7595 70.5739C16.87 70.5739 17.7714 69.6737 17.7714 68.5646C17.7714 67.4554 16.87 66.5552 15.7595 66.5552Z" fill="#999999"/>
<path fill-rule="evenodd" clip-rule="evenodd" d="M4.6086 61.6652C4.10864 61.6652 3.70325 61.2603 3.70325 60.761C3.70325 60.7449 3.71129 60.7319 3.71129 60.7168H3.34814L10.087 95.3174H10.1273C10.1524 94.8402 10.5397 94.4574 11.0246 94.4574H14.3472L8.7823 61.6652H4.6086Z" fill="#0D0D0D"/>
<path fill-rule="evenodd" clip-rule="evenodd" d="M15.759 70.5737C14.6484 70.5737 13.7471 69.6735 13.7471 68.5643C13.7471 67.4551 14.6484 66.5549 15.759 66.5549C16.8696 66.5549 17.7709 67.4551 17.7709 68.5643C17.7709 69.6735 16.8696 70.5737 15.759 70.5737ZM22.1106 61.665H8.78271L14.3476 94.4572H22.1106C22.3751 94.4572 22.5904 94.2422 22.5904 93.977V62.1443C22.5904 61.88 22.3751 61.665 22.1106 61.665Z" fill="#4C4C4C"/>
<path fill-rule="evenodd" clip-rule="evenodd" d="M25.0909 89.5036L31.4616 91.0056L24.4019 89.1419V89.3449C24.4019 89.3449 24.8455 89.4453 25.0909 89.5036ZM93.6824 79.5498C93.6139 79.6774 93.5214 79.814 93.4097 79.9567C93.5214 79.814 93.6139 79.6774 93.6824 79.5498Z" fill="#FEDAC6"/>
<path fill-rule="evenodd" clip-rule="evenodd" d="M95.2935 77.2125C93.7675 74.4476 90.5887 71.2456 80.5966 75.3558C76.8514 76.896 72.8859 78.4081 68.7454 79.88V78.0042C68.7454 75.4764 64.4239 74.7108 58.4425 73.6519C53.2719 72.7356 46.8368 71.5973 45.0372 69.175C42.2929 65.4827 37.9301 63.7566 32.0705 64.04L24.6355 66.1207C24.548 66.1458 24.4755 66.194 24.4011 66.2412V62.1451C24.4011 61.6357 24.2271 61.1695 23.9444 60.7888C23.9273 60.7637 23.9052 60.7405 23.886 60.7164C23.4656 60.196 22.8308 59.8574 22.1105 59.8574H4.609C4.12413 59.8574 3.73583 60.2392 3.71169 60.7164C3.71169 60.7325 3.70264 60.7456 3.70264 60.7606C3.70264 61.261 4.10804 61.6649 4.609 61.6649H8.78269H22.1105C22.3751 61.6649 22.5904 61.8809 22.5904 62.1451V93.9778C22.5904 94.242 22.3751 94.4581 22.1105 94.4581H14.3466H11.024C10.5401 94.4581 10.1518 94.8398 10.1276 95.3171C10.1266 95.3331 10.1186 95.3462 10.1186 95.3613C10.1186 95.8616 10.524 96.2655 11.024 96.2655H22.1105C23.374 96.2655 24.4011 95.2397 24.4011 93.9778V91.1386C24.4846 91.1918 24.5721 91.24 24.6737 91.2641L53.8564 98.1433C55.8391 98.735 57.7554 99.0304 59.5903 99.0304C60.211 99.0304 60.8186 98.9832 61.4211 98.9159C61.4865 98.9088 61.5509 98.8998 61.6143 98.8918C62.7399 98.7511 63.8354 98.506 64.8876 98.1282C68.1379 96.9608 77.5204 91.7836 93.5703 82.2993L93.678 82.2259C96.1878 80.2105 95.9424 78.387 95.2935 77.2125Z" fill="#4C4C4C"/>
<path fill-rule="evenodd" clip-rule="evenodd" d="M93.7089 78.0852C92.8075 76.4526 90.9385 73.0577 81.2864 77.0272C74.5203 79.8123 67.0582 82.5048 59.1082 85.0337L58.8396 85.118L43.0119 80.3106C42.5331 80.1649 42.2625 79.6605 42.4084 79.1823C42.5532 78.7041 43.0612 78.4348 43.538 78.5805L58.8275 83.2252C61.5939 82.3421 64.2979 81.4389 66.9355 80.5196V78.0038C66.9355 76.9921 61.2056 75.9773 58.1274 75.4328C52.3552 74.41 45.8125 73.2516 43.5843 70.2516C41.2062 67.0516 37.5104 65.6089 32.2623 65.841L25.1291 67.8604C24.8696 67.9338 24.4028 68.0664 24.4028 68.0664V89.0253V89.1418L31.4616 91.0055L54.3239 96.3977C57.9805 97.4858 61.3122 97.4898 64.2757 96.4259C64.481 96.3525 64.7194 96.2581 64.9809 96.1476C65.0614 96.1134 65.158 96.0692 65.2435 96.032C65.4376 95.9476 65.6378 95.8602 65.8591 95.7567C65.9728 95.7055 66.0995 95.6442 66.2202 95.5869C66.4416 95.4825 66.6669 95.375 66.9123 95.2554C67.0491 95.1881 67.196 95.1147 67.3399 95.0434C67.5984 94.9138 67.866 94.7802 68.1487 94.6365C68.2985 94.5591 68.4545 94.4798 68.6124 94.3984C68.9202 94.2397 69.2411 94.0719 69.5761 93.896C69.732 93.8137 69.8889 93.7313 70.0499 93.6459C70.4211 93.449 70.8074 93.242 71.2077 93.027C71.3566 92.9466 71.5015 92.8682 71.6534 92.7859C72.1111 92.5377 72.5909 92.2765 73.0838 92.0042C73.2005 91.9409 73.3122 91.8796 73.4299 91.8153C74.0506 91.4727 74.6954 91.1151 75.3714 90.7373C75.3714 90.7373 75.3714 90.7373 75.3714 90.7363C79.8841 88.2135 85.6271 84.892 92.5923 80.7778C92.9584 80.4784 93.2109 80.2091 93.4081 79.9579C93.4091 79.9579 93.4091 79.9579 93.4091 79.9569C93.5208 79.8143 93.6133 79.6776 93.6827 79.55C94.0851 78.8046 93.8346 78.3143 93.7089 78.0852Z" fill="#E5E5E5"/>
<path fill-rule="evenodd" clip-rule="evenodd" d="M60.1735 94.1304L24.4019 89.0246V89.1421L31.4616 91.0058L54.3239 96.397C57.9805 97.4851 61.3122 97.4891 64.2758 96.4262C64.481 96.3518 64.7194 96.2574 64.9809 96.1469C65.0614 96.1127 65.158 96.0695 65.2435 96.0323C65.4376 95.9469 65.6378 95.8595 65.8591 95.757C65.9728 95.7048 66.0996 95.6435 66.2203 95.5862C66.4406 95.4828 66.6669 95.3753 66.9124 95.2547C67.0492 95.1884 67.195 95.114 67.3399 95.0427C67.5984 94.9141 67.865 94.7795 68.1487 94.6358C68.2986 94.5594 68.4535 94.4791 68.6124 94.3987C68.9202 94.2389 69.2411 94.0712 69.5761 93.8953C69.732 93.814 69.889 93.7316 70.0499 93.6452C70.4211 93.4493 70.8074 93.2413 71.2078 93.0263C71.3567 92.9459 71.5015 92.8685 71.6534 92.7852C72.1111 92.538 72.591 92.2758 73.0839 92.0045C73.2006 91.9402 73.3122 91.8799 73.4299 91.8146C74.0506 91.472 74.6954 91.1153 75.3704 90.7376C75.3704 90.7366 75.3704 90.7366 75.3714 90.7366C79.8841 88.2128 85.6271 84.8913 92.5923 80.7771C92.9585 80.4777 93.211 80.2094 93.4081 79.9572H93.4091C93.5208 79.8136 93.6133 79.6779 93.6828 79.5493L60.1735 94.1304Z" fill="#BFBFBF"/>
</svg>
