<svg width="160" height="96" viewBox="0 0 160 96" fill="none" xmlns="http://www.w3.org/2000/svg">
<path fill-rule="evenodd" clip-rule="evenodd" d="M80.0064 3.07178C55.2185 3.07178 35.124 23.0231 35.124 47.6332C35.124 72.2433 55.2185 92.1947 80.0054 92.1947C104.782 92.1665 124.861 72.2313 124.889 47.6332C124.889 23.0231 104.794 3.07178 80.0064 3.07178Z" fill="#E5E5E5"/>
<path fill-rule="evenodd" clip-rule="evenodd" d="M69.021 43.4829C69.9234 50.6804 75.5282 56.4073 82.7488 57.5095C81.8444 57.6751 80.928 57.7565 80.0095 57.7544C86.9259 57.9402 92.8602 52.8939 93.7372 46.0808L95.5227 31.8192C96.0996 28.2576 95.0508 24.6247 92.6601 21.9073C89.457 18.3166 84.8565 16.2607 80.0246 16.2607C80.0155 16.2607 80.0065 16.2617 79.9974 16.2617L68.146 36.6025L69.021 43.4829Z" fill="#FEDAC6"/>
<path fill-rule="evenodd" clip-rule="evenodd" d="M66.2933 46.0391C67.137 52.8722 73.0773 57.9456 80.0079 57.7539H80.0099C80.9284 57.7559 81.8459 57.6746 82.7492 57.509C75.5297 56.4078 69.9238 50.6798 69.0215 43.4823L68.1464 36.602L65.6567 40.8743L64.5069 31.7775C64.1562 29.5791 64.427 27.3556 65.2465 25.3369C64.4139 27.3607 64.132 29.5842 64.4877 31.7775L66.2933 46.0391Z" fill="#F6C7B4"/>
<path fill-rule="evenodd" clip-rule="evenodd" d="M65.7351 24.296C65.5806 24.5932 65.43 24.8933 65.3007 25.2005C65.2825 25.2467 65.2643 25.2918 65.2471 25.338C64.4276 27.3557 64.1568 29.5792 64.5075 31.7786L65.6573 40.8754L68.1471 36.6021L79.9984 16.2623L80.0217 16.2231C75.1928 16.2322 70.5984 18.285 67.3912 21.8667C66.9568 22.3586 66.5829 22.8886 66.2383 23.4347" fill="#FEE5D7"/>
<path fill-rule="evenodd" clip-rule="evenodd" d="M114.606 75.1399C112.227 68.5698 105.465 64.4852 96.9488 64.4852C92.1169 64.4852 86.4635 66.3894 82.5865 67.9996C82.1823 68.1622 81.767 68.2817 81.3467 68.366C81.764 68.2807 82.1773 68.1713 82.5754 68.0086C86.4635 66.3995 90.9579 67.9886 87.0698 69.5877C85.4056 70.2613 83.5424 70.2613 81.8772 69.5877C80.9132 69.1801 79.8563 68.7836 78.7276 68.4062C78.8701 68.4323 79.0126 68.4262 79.1551 68.4423C78.5559 68.37 77.9628 68.2295 77.3949 67.9996C73.4451 66.3894 67.7503 64.4741 63.0316 64.4741C55.1108 64.4741 48.0833 68.7023 45.5178 75.0074L45.3228 75.425C45.3238 75.426 45.3258 75.428 45.3268 75.429L45.5178 75.0174C48.0833 68.7123 55.1108 64.4852 63.0316 64.4852C67.432 64.4852 72.664 66.1556 76.5643 67.6834C76.4542 67.6473 76.343 67.6212 76.2329 67.587C76.6259 67.7386 77.02 67.8912 77.3838 68.0398L77.7435 68.1622L65.4991 89.1967C70.1228 90.7617 75.0143 91.6029 80.0109 91.6029C93.4214 91.6029 106.136 85.6732 114.699 75.425L114.606 75.1399Z" fill="#083F6B"/>
<path fill-rule="evenodd" clip-rule="evenodd" d="M63.0205 64.5155C67.3037 64.5155 72.3771 66.0915 76.2329 67.5872C76.3431 67.6213 76.4542 67.6474 76.5633 67.6836C72.6641 66.1557 67.4321 64.4854 63.0316 64.4854C55.1108 64.4854 48.0833 68.7125 45.5178 75.0176L45.3258 75.4292L45.3218 75.4352C45.3228 75.4362 45.3238 75.4372 45.3248 75.4382L45.5077 75.0487C48.0722 68.7426 55.0997 64.5155 63.0205 64.5155Z" fill="#990000"/>
<path fill-rule="evenodd" clip-rule="evenodd" d="M115.276 75.0832C112.851 68.3856 105.958 64.2217 97.2781 64.2217C93.8254 64.2217 89.9727 65.1803 86.6089 66.3157C85.2054 66.3147 83.5605 66.5817 81.9852 67.2342C81.4396 67.4561 80.8717 67.6066 80.2998 67.7231C80.2543 67.7331 80.2078 67.7391 80.1624 67.7472C79.6834 67.8375 79.1974 67.8747 78.7104 67.8947C78.4093 67.9078 78.1092 67.8867 77.805 67.8696C77.6898 67.8636 77.5736 67.8516 77.4574 67.8415C77.4201 67.8265 77.3807 67.8194 77.3433 67.8044C75.1365 66.9049 72.3942 65.9232 69.5741 65.2095C69.5589 65.2075 69.5427 65.2074 69.5286 65.2054C72.0112 65.8338 74.4363 66.6751 76.4965 67.4822C76.3854 67.446 76.2712 67.4189 76.1601 67.3838C74.1301 66.5968 71.7697 65.7927 69.3609 65.1934C68.7708 65.1422 68.1807 65.09 67.5886 65.0699C59.4556 65.0699 52.2391 69.4115 49.6059 75.8853L48.7218 78.8135C47.3738 77.5617 46.1047 76.2286 44.9134 74.8282C44.8912 74.8835 44.8609 74.9347 44.8397 74.9899L44.6538 75.3874L44.6406 75.4155C45.6945 76.6693 46.8302 77.8428 48.0064 78.9711C48.07 79.0323 48.1337 79.0956 48.1984 79.1568C48.7197 79.6517 49.2502 80.1335 49.7938 80.6033C49.9828 80.766 50.1758 80.9256 50.3678 81.0852C50.8528 81.4917 51.3398 81.8963 51.842 82.2818C52.1744 82.5367 52.5169 82.7777 52.8554 83.0236C53.4364 83.4442 54.0225 83.8568 54.6227 84.2503C55.1885 84.6217 55.7584 84.9901 56.3414 85.3364C56.6213 85.5031 56.9053 85.6597 57.1902 85.8193C57.7823 86.1556 58.3785 86.4818 58.9857 86.792C59.2353 86.9185 59.4849 87.044 59.7375 87.1664C60.4761 87.5268 61.2238 87.8691 61.9827 88.1894C62.1039 88.2406 62.2242 88.2968 62.3464 88.347C63.1932 88.6973 64.0551 89.0155 64.924 89.3157C65.021 89.3488 65.114 89.3899 65.212 89.4231L65.2181 89.412C69.9307 91.0071 74.9182 91.8644 80.0108 91.8644C93.682 91.8644 106.642 85.8203 115.371 75.3743L115.276 75.0832Z" fill="#083F6B"/>
<path fill-rule="evenodd" clip-rule="evenodd" d="M77.6999 67.9709L77.5171 67.9087L77.3342 67.8454C76.9623 67.6948 76.5602 67.5392 76.1611 67.3847C74.1311 66.5966 71.7697 65.7926 69.3608 65.1943C68.7708 65.1431 68.1807 65.0909 67.5875 65.0708C59.4556 65.0708 52.2401 69.4114 49.6059 75.8852L48.7218 78.8144C47.3728 77.5616 46.1047 76.2295 44.9145 74.8291C44.8912 74.8833 44.8619 74.9345 44.8397 74.9897L44.6548 75.3883L44.6406 75.4164C45.6945 76.6702 46.8302 77.8427 48.0064 78.971C48.071 79.0332 48.1337 79.0954 48.1994 79.1567C48.7197 79.6516 49.2512 80.1344 49.7948 80.6032C49.9828 80.7668 50.1768 80.9264 50.3678 81.0861C50.8538 81.4926 51.3398 81.8972 51.842 82.2816C52.1744 82.5366 52.5169 82.7775 52.8554 83.0235C53.4364 83.4451 54.0225 83.8567 54.6227 84.2502C55.1895 84.6226 55.7584 84.991 56.3414 85.3373C56.6223 85.503 56.9063 85.6595 57.1892 85.8202C57.7823 86.1554 58.3795 86.4827 58.9857 86.7919C59.2363 86.9184 59.4859 87.0438 59.7375 87.1673C60.4761 87.5267 61.2238 87.869 61.9827 88.1902C62.1039 88.2414 62.2252 88.2976 62.3464 88.3478C63.1942 88.6962 64.0551 89.0154 64.924 89.3155C65.021 89.3487 65.115 89.3908 65.213 89.4239L65.2181 89.4129L71.4585 78.6919L77.6999 67.9709Z" fill="#0D4F80"/>
<path fill-rule="evenodd" clip-rule="evenodd" d="M48.5955 79.1927L49.4867 76.2444C52.137 69.7275 59.4 65.3588 67.5865 65.3588C68.1837 65.3789 68.7778 65.4311 69.371 65.4833C69.4265 65.4883 69.4831 65.4903 69.5397 65.4943C69.5549 65.4963 69.571 65.4963 69.5852 65.4983C72.0819 65.7342 74.5464 66.2412 76.928 67.0332C72.8994 65.4532 67.4905 63.7266 62.9416 63.7266C54.7571 63.7266 47.4931 68.0963 44.8417 74.6132L44.6406 75.0449C44.678 75.089 44.7194 75.1302 44.7568 75.1744C44.7578 75.1764 44.7599 75.1774 44.7609 75.1784C44.7609 75.1794 44.7619 75.1804 44.7629 75.1814C45.9623 76.5908 47.2384 77.9319 48.5955 79.1927Z" fill="#083F6B"/>
<path fill-rule="evenodd" clip-rule="evenodd" d="M79.2741 2.02539C80.3664 2.02539 81.4496 2.06354 82.5227 2.13882C62.0725 3.79215 45.9299 23.3218 45.9299 47.1711C45.9299 71.0112 62.0604 90.5359 82.4994 92.2013C81.4355 92.2766 80.3583 92.3157 79.2741 92.3167C54.1619 92.3167 33.8047 72.1044 33.8047 47.1711C33.8047 22.2377 54.1619 2.02539 79.2741 2.02539Z" fill="white" fill-opacity="0.1"/>
<path fill-rule="evenodd" clip-rule="evenodd" d="M66.1403 25.5488C66.2595 25.2637 66.399 24.9867 66.5414 24.7116C66.7728 24.2689 66.599 23.7238 66.1534 23.494C65.7058 23.2661 65.1592 23.4367 64.9278 23.8804C64.7611 24.1997 64.6004 24.5219 64.4589 24.8592L64.4044 24.9957C63.496 27.2031 63.2141 29.5983 63.5849 31.8911L65.3906 46.1486C66.2797 53.3502 72.3595 58.6635 79.575 58.6625C79.7114 58.6625 79.8478 58.6605 79.9852 58.6575C87.4079 58.8351 93.6988 53.4987 94.6406 46.1908L96.4209 31.9623C97.0424 28.1227 95.9218 24.2408 93.3411 21.3086C90.3038 17.9026 86.0681 15.8055 81.5191 15.4221L81.5787 15.3177L80.0176 15.3207C74.9381 15.3287 70.0871 17.496 66.7102 21.2664C66.3767 21.6389 66.4111 22.21 66.786 22.5413C67.1619 22.8736 67.7348 22.8395 68.0702 22.467C70.8671 19.3441 74.7896 17.4468 78.9607 17.1637H80.0257C84.5948 17.1637 88.9508 19.1112 91.975 22.5022C94.196 25.0248 95.1609 28.3686 94.6203 31.7074L92.8359 45.9649C92.0144 52.3453 86.5197 57.0031 79.9822 56.8515C73.5266 57.0081 67.9864 52.3353 67.1952 45.9268L65.3845 31.6351C65.0622 29.6395 65.3057 27.5806 66.0938 25.6633L66.1403 25.5488ZM51.6874 13.3885C52.4007 12.8043 53.1323 12.2431 53.88 11.7051C54.2862 11.4119 54.3772 10.8468 54.0821 10.4432C53.7881 10.0387 53.2202 9.94834 52.813 10.2415C52.034 10.8016 51.2731 11.3858 50.5304 11.9932C50.1434 12.3104 50.0879 12.8806 50.4072 13.265C50.7265 13.6505 51.2994 13.7057 51.6874 13.3885Z" fill="#0F2B4A"/>
<path fill-rule="evenodd" clip-rule="evenodd" d="M80.0043 91.7904C66.3715 91.7904 54.1756 85.7051 46.0022 76.1275L46.1144 75.8865C46.1275 75.8645 46.1386 75.8424 46.1498 75.8193L46.3498 75.3866C48.7759 69.4248 55.475 65.4185 63.0199 65.4185C66.3685 65.4185 70.8225 66.4595 75.9555 68.4471L76.2768 68.5405C76.2768 68.5405 76.8012 68.7342 77.0508 68.8356C77.5035 69.0183 78.1118 69.1789 78.4371 69.2632C78.623 69.3244 78.8655 69.3706 79.1404 69.3997L79.4476 69.4258C79.9204 69.4519 80.7025 69.3626 81.1602 69.3024C81.3987 69.3977 81.6493 69.4921 81.8776 69.5875C83.5418 70.261 85.4051 70.261 87.0682 69.5875C89.4751 68.5987 88.6688 67.6149 86.7853 67.388C89.9914 66.3039 93.6552 65.3884 96.9492 65.3884C105.065 65.3884 111.504 69.2421 113.741 75.4178L113.833 75.7028C113.877 75.8394 113.957 75.9518 114.05 76.0472C105.877 85.6599 93.6643 91.7753 80.0043 91.7904ZM80.0053 1.49902C71.4813 1.49902 63.2938 3.78677 56.145 8.05309C55.7145 8.31008 55.5751 8.8652 55.8337 9.29283C56.0924 9.72047 56.6512 9.859 57.0806 9.60202C63.9485 5.50334 71.8137 3.30593 80.0053 3.30593C104.614 3.30593 124.565 23.1137 124.565 47.5482C124.553 57.6889 121.102 67.0247 115.317 74.4852C112.693 67.7524 105.701 63.5815 96.9492 63.5815C91.9244 63.5815 86.174 65.5299 82.2434 67.1622C81.9241 67.2907 81.5806 67.3941 81.2198 67.4684L81.1623 67.4804L81.1461 67.4904C80.8945 67.5567 79.9285 67.7143 79.2697 67.6099L78.8756 67.5085C78.6645 67.4543 78.1006 67.3097 77.7399 67.1632C73.7174 65.5239 67.9013 63.5714 63.0311 63.5714C54.7809 63.5714 47.43 68.0004 44.724 74.5575C38.911 67.0849 35.4452 57.7211 35.4452 47.5482C35.4452 37.7888 38.6362 28.5113 44.4391 20.8912C45.79 19.1174 47.2724 17.446 48.8749 15.8931C49.2346 15.5447 49.2427 14.9726 48.8911 14.6152C48.5394 14.2588 47.9645 14.2508 47.6048 14.6001C45.9376 16.2163 44.3936 17.955 42.9881 19.801C36.9478 27.7324 33.6265 37.3923 33.6265 47.5482C33.6265 72.9804 54.3909 93.5973 80.0053 93.5973C105.608 93.5682 126.355 72.9694 126.384 47.5492C126.384 22.1159 105.62 1.49902 80.0053 1.49902Z" fill="#0F2B4A"/>
<path fill-rule="evenodd" clip-rule="evenodd" d="M98.2007 76.4254C98.2007 65.614 107.022 56.8505 117.904 56.8505C120.133 56.8505 122.267 57.235 124.265 57.9126C121.58 56.6026 118.571 55.8467 115.378 55.8467C104.217 55.8467 95.1694 64.8351 95.1694 75.9235C95.1694 87.0109 104.217 96.0003 115.378 96.0003C115.804 96.0003 116.221 95.9621 116.641 95.937C106.35 95.2865 98.2007 86.8121 98.2007 76.4254Z" fill="white"/>
<path fill-rule="evenodd" clip-rule="evenodd" d="M124.266 57.9127H124.265C123.833 57.7661 123.394 57.6386 122.949 57.5222C122.814 57.486 122.681 57.4519 122.545 57.4188C122.182 57.3315 121.815 57.2521 121.444 57.1849C121.429 57.1819 121.415 57.1789 121.4 57.1759C121.132 57.1267 120.86 57.0905 120.588 57.0524C120.297 57.0132 120.009 56.9681 119.715 56.941C119.118 56.8847 118.517 56.8496 117.905 56.8496C112.774 56.8496 108.117 58.8141 104.61 62.0073C100.681 65.586 98.2012 70.7116 98.2012 76.4245C98.2012 77.087 98.2355 77.7415 98.3012 78.387C98.3244 78.6179 98.3709 78.8417 98.4012 79.0706C98.4578 79.4792 98.5083 79.8897 98.5892 80.2903C98.6458 80.5693 98.7266 80.8384 98.7943 81.1124C98.8782 81.4517 98.9539 81.793 99.056 82.1253C99.149 82.4284 99.2652 82.7216 99.3723 83.0197C99.4763 83.3068 99.5723 83.5979 99.6895 83.879C99.8229 84.2012 99.9775 84.5114 100.128 84.8246C100.244 85.0645 100.352 85.3095 100.478 85.5444C100.656 85.8796 100.853 86.2009 101.049 86.5241C101.17 86.7209 101.283 86.9206 101.41 87.1134C101.636 87.4557 101.878 87.7829 102.124 88.1102C102.241 88.2658 102.353 88.4254 102.476 88.578C102.751 88.9223 103.043 89.2505 103.34 89.5758C103.448 89.6942 103.553 89.8147 103.665 89.9301C103.992 90.2704 104.333 90.5937 104.685 90.9099C104.779 90.9952 104.872 91.0815 104.967 91.1649C105.347 91.4941 105.741 91.8043 106.144 92.1045C106.222 92.1607 106.297 92.2189 106.375 92.2751C106.806 92.5853 107.25 92.8754 107.706 93.1505C107.764 93.1846 107.821 93.2207 107.879 93.2549C108.078 93.3723 108.289 93.4707 108.493 93.5811C108.78 93.7367 109.061 93.8993 109.356 94.0409C109.396 94.0599 109.434 94.079 109.474 94.0971C109.999 94.345 110.536 94.5689 111.084 94.7696C111.108 94.7787 111.131 94.7867 111.154 94.7957C111.719 95.0005 112.294 95.1792 112.881 95.3328C112.891 95.3358 112.902 95.3378 112.912 95.3408C113.509 95.4964 114.116 95.6239 114.735 95.7233L114.744 95.7243C115.367 95.8247 115.999 95.896 116.642 95.9361C116.683 95.9391 116.724 95.9401 116.766 95.9421C117.144 95.9682 117.52 95.9994 117.905 95.9994C128.787 95.9994 137.608 87.2358 137.608 76.4245C137.608 67.8286 132.022 60.5437 124.266 57.9127Z" fill="#EC0000"/>
<path fill-rule="evenodd" clip-rule="evenodd" d="M124.266 57.9128H124.265C123.832 57.7663 123.394 57.6388 122.948 57.5223C122.814 57.4862 122.68 57.4521 122.544 57.419C122.181 57.3316 121.814 57.2523 121.443 57.1851C127.342 60.0641 131.545 67.3509 131.545 75.9227C131.545 86.6297 125.002 95.3531 116.765 95.9423C117.143 95.9684 117.519 95.9995 117.904 95.9995C128.786 95.9995 137.607 87.236 137.607 76.4246C137.607 67.8288 132.022 60.5439 124.266 57.9128Z" fill="#990000"/>
<path fill-rule="evenodd" clip-rule="evenodd" d="M125.272 75.2942V77.9845H118.313V84.8588H115.597V77.9845H108.638V75.2942H115.597V68.4199H118.313V75.2942H125.272Z" fill="white"/>
<path fill-rule="evenodd" clip-rule="evenodd" d="M142.417 0C134.112 0 127.356 6.70866 127.356 14.9552C127.356 23.2017 134.112 29.9104 142.417 29.9104C150.713 29.9014 157.47 23.1927 157.48 14.9552C157.48 6.70866 150.723 0 142.417 0Z" fill="#E5E5E5"/>
<path fill-rule="evenodd" clip-rule="evenodd" d="M138.716 13.678C139.02 16.1042 140.91 18.0336 143.342 18.405C143.038 18.4603 142.729 18.4884 142.419 18.4874C144.75 18.5506 146.749 16.8501 147.045 14.5533L147.646 9.74794C147.841 8.54734 147.488 7.32266 146.682 6.40816C145.602 5.19753 144.052 4.50488 142.424 4.50488C142.421 4.50488 142.418 4.50488 142.415 4.50488L138.421 11.3591L138.716 13.678Z" fill="#FEDAC6"/>
<path fill-rule="evenodd" clip-rule="evenodd" d="M137.796 14.5396C138.081 16.8425 140.083 18.552 142.418 18.4877H142.419C142.729 18.4877 143.037 18.4606 143.341 18.4054C140.909 18.033 139.02 16.1036 138.716 13.6784L138.42 11.3595L137.582 12.8L137.195 9.73427C137.076 8.99343 137.168 8.24457 137.443 7.56396C137.163 8.24557 137.068 8.99444 137.188 9.73427L137.796 14.5396Z" fill="#F6C7B4"/>
<path fill-rule="evenodd" clip-rule="evenodd" d="M137.609 7.21259C137.557 7.31298 137.506 7.41336 137.462 7.51776C137.457 7.53282 137.45 7.54788 137.444 7.56394C137.168 8.24354 137.077 8.9924 137.196 9.73424L137.583 12.799L138.421 11.3595L142.416 4.50524L142.423 4.49219C140.796 4.4942 139.248 5.18684 138.167 6.39446C138.02 6.5601 137.894 6.73778 137.778 6.92148" fill="#FEE5D7"/>
<path fill-rule="evenodd" clip-rule="evenodd" d="M154.078 24.3462C153.275 22.1317 150.997 20.7555 148.127 20.7555C146.499 20.7555 144.594 21.3969 143.287 21.94C143.152 21.9942 143.011 22.0354 142.869 22.0635C143.01 22.0344 143.15 21.9982 143.283 21.943C144.594 21.4009 146.108 21.936 144.798 22.4751C144.237 22.7019 143.609 22.7019 143.049 22.4751C142.724 22.3385 142.368 22.204 141.987 22.0765C142.034 22.0856 142.083 22.0836 142.131 22.0886C141.929 22.0655 141.729 22.0173 141.538 21.94C140.206 21.3969 138.287 20.7515 136.698 20.7515C134.029 20.7515 131.66 22.1769 130.796 24.302L130.73 24.4426C130.73 24.4426 130.731 24.4426 130.731 24.4436L130.796 24.3051C131.66 22.1799 134.029 20.7555 136.698 20.7555C138.181 20.7555 139.944 21.3186 141.257 21.8336C141.221 21.8206 141.182 21.8125 141.146 21.8005C141.278 21.8517 141.412 21.9029 141.534 21.9531L141.655 21.9942L137.529 29.0833C139.087 29.6103 140.736 29.8934 142.419 29.8934C146.939 29.8934 151.223 27.8958 154.108 24.4426L154.078 24.3462Z" fill="#083F6B"/>
<path fill-rule="evenodd" clip-rule="evenodd" d="M143.048 22.4749C143.609 22.7018 144.237 22.7018 144.797 22.4749C146.108 21.9358 144.593 21.4008 143.283 21.9429C143.149 21.9971 143.01 22.0342 142.868 22.0623C142.858 22.0653 142.847 22.0663 142.835 22.0684C142.718 22.0914 142.599 22.0995 142.479 22.1045C142.405 22.1085 142.331 22.1025 142.257 22.0985C142.215 22.0965 142.172 22.0934 142.131 22.0884C142.082 22.0834 142.034 22.0854 141.986 22.0764C142.367 22.2039 142.724 22.3374 143.048 22.4749Z" fill="black"/>
<path fill-rule="evenodd" clip-rule="evenodd" d="M136.694 20.7654C138.138 20.7654 139.847 21.2964 141.146 21.8004C141.182 21.8124 141.221 21.8204 141.258 21.8325C139.944 21.3185 138.181 20.7554 136.698 20.7554C134.029 20.7554 131.661 22.1798 130.796 24.3049L130.731 24.4435L130.73 24.4455L130.731 24.4465L130.792 24.315C131.657 22.1899 134.024 20.7654 136.694 20.7654Z" fill="#990000"/>
<path fill-rule="evenodd" clip-rule="evenodd" d="M154.078 24.3456C153.275 22.1311 150.997 20.7549 148.127 20.7549C146.499 20.7549 144.594 21.3973 143.286 21.9394C143.152 21.9946 143.011 22.0348 142.869 22.0629C143.01 22.0348 143.15 21.9976 143.283 21.9424C144.594 21.4004 146.108 21.9364 144.798 22.4755C144.238 22.7013 143.61 22.7013 143.049 22.4755C142.724 22.3379 142.367 22.2034 141.987 22.0769C142.035 22.086 142.083 22.084 142.131 22.089C141.929 22.0649 141.729 22.0167 141.538 21.9394C140.808 21.6423 139.901 21.317 138.97 21.0821C138.965 21.0811 138.959 21.0811 138.953 21.0811C139.775 21.2879 140.577 21.566 141.257 21.833C141.22 21.821 141.182 21.8129 141.146 21.8009C140.475 21.5409 139.695 21.2739 138.899 21.0771C138.704 21.06 138.509 21.042 138.312 21.036C135.624 21.036 133.238 22.4704 132.368 24.6106L132.075 25.5793C131.63 25.1647 131.211 24.7241 130.816 24.2623C130.809 24.2804 130.8 24.2964 130.792 24.3155L130.732 24.447L130.728 24.456C131.075 24.8696 131.45 25.2581 131.839 25.6305C131.86 25.6516 131.881 25.6717 131.904 25.6928C132.075 25.8554 132.25 26.016 132.43 26.1706C132.494 26.2248 132.556 26.277 132.62 26.3302C132.781 26.4647 132.941 26.5982 133.107 26.7257C133.217 26.81 133.33 26.8893 133.443 26.9707C133.635 27.1102 133.828 27.2467 134.027 27.3762C134.215 27.4997 134.401 27.6211 134.595 27.7356C134.687 27.7908 134.781 27.842 134.875 27.8952C135.07 28.0056 135.268 28.114 135.469 28.2164C135.551 28.2586 135.634 28.2997 135.717 28.3399C135.962 28.4594 136.208 28.5728 136.46 28.6782C136.5 28.6953 136.54 28.7143 136.58 28.7304C136.86 28.8458 137.145 28.9512 137.432 29.0506C137.465 29.0617 137.495 29.0757 137.527 29.0868L137.53 29.0827C139.087 29.6098 140.736 29.8938 142.419 29.8938C146.939 29.8938 151.223 27.8952 154.108 24.442L154.078 24.3456Z" fill="#083F6B"/>
<path fill-rule="evenodd" clip-rule="evenodd" d="M137.99 21.2298C138.178 21.2358 138.365 21.2528 138.552 21.2689C138.569 21.2709 138.587 21.2709 138.603 21.2729C138.608 21.2729 138.613 21.2729 138.618 21.2739C139.403 21.3482 140.178 21.5068 140.927 21.7558C139.66 21.2599 137.961 20.7168 136.53 20.7168C133.956 20.7168 131.673 22.09 130.839 24.1389L130.775 24.2754C130.788 24.2885 130.801 24.3025 130.812 24.3156C130.813 24.3166 130.813 24.3166 130.813 24.3176H130.814C131.191 24.7613 132.121 25.7641 132.548 26.1606" fill="#083F6B"/>
<path fill-rule="evenodd" clip-rule="evenodd" d="M141.655 21.9943L141.595 21.9732L141.534 21.9532C141.412 21.903 141.278 21.8518 141.146 21.8006C140.475 21.5406 139.695 21.2746 138.898 21.0768C138.704 21.0597 138.509 21.0427 138.312 21.0356C135.624 21.0356 133.238 22.4711 132.368 24.6103L132.076 25.579C131.63 25.1654 131.211 24.7248 130.816 24.262C130.809 24.2801 130.8 24.2961 130.792 24.3152L130.731 24.4467L130.728 24.4557C131.075 24.8703 131.45 25.2578 131.839 25.6312C131.861 25.6513 131.881 25.6724 131.903 25.6925C132.075 25.8561 132.25 26.0157 132.43 26.1703C132.493 26.2245 132.556 26.2777 132.62 26.3299C132.781 26.4644 132.941 26.5979 133.107 26.7254C133.216 26.8097 133.33 26.889 133.443 26.9713C133.635 27.1099 133.829 27.2464 134.027 27.3759C134.215 27.4994 134.401 27.6208 134.594 27.7353C134.687 27.7905 134.781 27.8417 134.875 27.8949C135.07 28.0063 135.268 28.1137 135.47 28.2161C135.551 28.2583 135.634 28.2994 135.717 28.3406C135.962 28.459 136.208 28.5725 136.459 28.6789C136.499 28.6959 136.54 28.714 136.58 28.7301C136.86 28.8465 137.145 28.9519 137.432 29.0503C137.464 29.0623 137.495 29.0754 137.527 29.0864L137.529 29.0834L139.592 25.5389L141.655 21.9943Z" fill="#0D4F80"/>
<path fill-rule="evenodd" clip-rule="evenodd" d="M154.806 17.9302C154.638 17.873 154.466 17.8238 154.294 17.7786C154.241 17.7635 154.19 17.7505 154.137 17.7385C153.995 17.7043 153.853 17.6732 153.708 17.6471C153.702 17.6461 153.696 17.6441 153.69 17.6431C153.586 17.624 153.48 17.61 153.375 17.5959C153.262 17.5798 153.149 17.5628 153.035 17.5517C152.803 17.5307 152.568 17.5166 152.329 17.5166C150.332 17.5166 148.519 18.2815 147.155 19.5243C145.624 20.9176 144.659 22.9132 144.659 25.1378C144.659 25.3957 144.672 25.6497 144.698 25.9007C144.707 25.991 144.725 26.0784 144.737 26.1677C144.759 26.3263 144.778 26.4859 144.81 26.6425C144.832 26.7509 144.863 26.8563 144.89 26.9627C144.923 27.0942 144.952 27.2277 144.992 27.3562C145.027 27.4747 145.072 27.5891 145.115 27.7046C145.155 27.817 145.193 27.9294 145.238 28.0399C145.29 28.1653 145.351 28.2858 145.409 28.4073C145.453 28.5016 145.496 28.596 145.545 28.6883C145.614 28.8188 145.691 28.9433 145.768 29.0688C145.815 29.1461 145.859 29.2234 145.907 29.2987C145.996 29.4322 146.091 29.5587 146.186 29.6861C146.232 29.7474 146.276 29.8096 146.322 29.8688C146.43 30.0034 146.544 30.1308 146.659 30.2573C146.701 30.3035 146.743 30.3507 146.786 30.3949C146.912 30.5274 147.046 30.6539 147.183 30.7763C147.22 30.8104 147.255 30.8436 147.292 30.8757C147.441 31.0042 147.593 31.1257 147.752 31.2421C147.781 31.2642 147.811 31.2863 147.841 31.3084C148.009 31.4288 148.182 31.5422 148.359 31.6497C148.383 31.6627 148.404 31.6758 148.427 31.6898C148.505 31.735 148.587 31.7741 148.667 31.8163C148.777 31.8775 148.888 31.9408 149.002 31.996C149.017 32.003 149.032 32.01 149.047 32.0181C149.253 32.1134 149.461 32.2008 149.675 32.2791C149.684 32.2831 149.692 32.2861 149.701 32.2891C149.922 32.3694 150.146 32.4387 150.373 32.4989C150.377 32.4999 150.381 32.5009 150.386 32.5019C150.618 32.5621 150.855 32.6113 151.096 32.6515H151.1C151.342 32.6906 151.588 32.7177 151.837 32.7338C151.853 32.7348 151.871 32.7348 151.887 32.7368C152.033 32.7459 152.18 32.7579 152.329 32.7579C156.566 32.7579 160.001 29.3469 160.001 25.1378C160.001 21.791 157.825 18.9551 154.806 17.9302Z" fill="#6EE3FF"/>
<path fill-rule="evenodd" clip-rule="evenodd" d="M152.858 22.0215H151.799V24.6977H149.09V25.7447H151.799V28.421H152.858V25.7447H155.567V24.6977H152.858V22.0215Z" fill="white"/>
<path fill-rule="evenodd" clip-rule="evenodd" d="M15.1024 28.0674C6.77544 28.0674 0.000488281 34.7941 0.000488281 43.0627C0.000488281 51.3314 6.77544 58.0581 15.1024 58.0581C23.4203 58.0491 30.1963 51.3223 30.2053 43.0627C30.2053 34.7941 23.4304 28.0674 15.1024 28.0674Z" fill="#E5E5E5"/>
<path fill-rule="evenodd" clip-rule="evenodd" d="M11.401 41.7854C11.7051 44.2117 13.5947 46.1411 16.0268 46.5125C15.7226 46.5677 15.4144 46.5958 15.1042 46.5948C17.4353 46.658 19.4339 44.9575 19.73 42.6607L20.3312 37.8554C20.5262 36.6548 20.1726 35.4301 19.3673 34.5156C18.2871 33.305 16.7371 32.6123 15.1093 32.6123C15.1063 32.6123 15.1032 32.6123 15.1002 32.6123L11.106 39.4665L11.401 41.7854Z" fill="#FEDAC6"/>
<path fill-rule="evenodd" clip-rule="evenodd" d="M10.4811 42.6471C10.766 44.9499 12.7677 46.6594 15.1028 46.5952H15.1038C15.414 46.5952 15.7222 46.5681 16.0264 46.5129C13.5942 46.1404 11.7047 44.2111 11.4006 41.7858L11.1055 39.4669L10.2669 40.9074L9.87989 37.8417C9.76066 37.1009 9.85261 36.352 10.1285 35.6714C9.84756 36.353 9.75258 37.1019 9.87282 37.8417L10.4811 42.6471Z" fill="#F6C7B4"/>
<path fill-rule="evenodd" clip-rule="evenodd" d="M10.2942 35.32C10.2416 35.4204 10.1911 35.5208 10.1466 35.6252C10.1416 35.6402 10.1355 35.6553 10.1295 35.6714C9.8526 36.351 9.76166 37.0998 9.88089 37.8417L10.2679 40.9064L11.1065 39.4669L15.1008 32.6127L15.1079 32.5996C13.4811 32.6016 11.9331 33.2943 10.8519 34.5019C10.7054 34.6675 10.5791 34.8452 10.4629 35.0289" fill="#FEE5D7"/>
<path fill-rule="evenodd" clip-rule="evenodd" d="M26.7626 52.4536C25.9603 50.2392 23.6818 48.8629 20.8121 48.8629C19.1843 48.8629 17.2787 49.5044 15.9722 50.0474C15.8368 50.1016 15.6963 50.1428 15.5539 50.1709C15.6953 50.1418 15.8348 50.1057 15.9681 50.0504C17.2787 49.5084 18.7933 50.0434 17.4828 50.5825C16.922 50.8093 16.2945 50.8093 15.7337 50.5825C15.4094 50.446 15.0527 50.3114 14.6717 50.184C14.7192 50.193 14.7677 50.191 14.8162 50.196C14.6141 50.1729 14.4141 50.1247 14.2231 50.0474C12.8914 49.5044 10.9726 48.8589 9.38314 48.8589C6.71358 48.8589 4.34513 50.2843 3.48121 52.4095L3.41553 52.55C3.41553 52.55 3.41654 52.55 3.41654 52.551L3.48121 52.4125C4.34513 50.2874 6.71358 48.8629 9.38314 48.8629C10.8665 48.8629 12.6286 49.4261 13.9422 49.941C13.9058 49.928 13.8674 49.9199 13.8311 49.9079C13.9634 49.9591 14.0968 50.0103 14.2191 50.0605L14.3403 50.1016L10.2137 57.1908C11.7718 57.7178 13.4208 58.0009 15.1042 58.0009C19.6239 58.0009 23.9081 56.0032 26.7929 52.55L26.7626 52.4536Z" fill="#083F6B"/>
<path fill-rule="evenodd" clip-rule="evenodd" d="M15.7334 50.5828C16.2941 50.8097 16.9216 50.8097 17.4824 50.5828C18.7929 50.0438 17.2783 49.5087 15.9678 50.0508C15.8344 50.105 15.695 50.1421 15.5535 50.1702C15.5434 50.1733 15.5323 50.1743 15.5202 50.1763C15.4029 50.1994 15.2837 50.2074 15.1645 50.2124C15.0897 50.2164 15.0159 50.2104 14.9422 50.2064C14.8997 50.2044 14.8573 50.2014 14.8159 50.1963C14.7674 50.1913 14.7189 50.1933 14.6714 50.1843C15.0523 50.3118 15.409 50.4453 15.7334 50.5828Z" fill="black"/>
<path fill-rule="evenodd" clip-rule="evenodd" d="M9.3791 48.8733C10.823 48.8733 12.5316 49.4043 13.8311 49.9083C13.8674 49.9203 13.9058 49.9284 13.9432 49.9404C12.6287 49.4264 10.8665 48.8633 9.38314 48.8633C6.71358 48.8633 4.34614 50.2877 3.48121 52.4129L3.41654 52.5514L3.41553 52.5534L3.41654 52.5544L3.47716 52.4229C4.34209 50.2978 6.70954 48.8733 9.3791 48.8733Z" fill="#990000"/>
<path fill-rule="evenodd" clip-rule="evenodd" d="M26.7627 52.453C25.9604 50.2386 23.6819 48.8623 20.8122 48.8623C19.1844 48.8623 17.2788 49.5048 15.9713 50.0468C15.8369 50.102 15.6964 50.1422 15.554 50.1703C15.6954 50.1422 15.8349 50.1051 15.9682 50.0498C17.2788 49.5078 18.7934 50.0438 17.4829 50.5829C16.9231 50.8088 16.2946 50.8088 15.7338 50.5829C15.4095 50.4454 15.0518 50.3108 14.6718 50.1844C14.7203 50.1934 14.7678 50.1914 14.8163 50.1964C14.6143 50.1723 14.4142 50.1241 14.2232 50.0468C13.4927 49.7497 12.5863 49.4245 11.6547 49.1896C11.6496 49.1886 11.6436 49.1886 11.6385 49.1886C12.46 49.3953 13.2623 49.6734 13.9423 49.9404C13.9049 49.9284 13.8675 49.9204 13.8312 49.9083C13.1602 49.6483 12.3802 49.3813 11.584 49.1845C11.389 49.1675 11.1939 49.1494 10.9969 49.1434C8.30915 49.1434 5.92352 50.5779 5.05354 52.7181L4.76051 53.6868C4.31491 53.2722 3.89558 52.8315 3.50152 52.3697C3.49444 52.3878 3.48535 52.4039 3.47727 52.4229L3.41664 52.5544L3.4126 52.5635C3.76019 52.977 4.13506 53.3655 4.52407 53.738C4.54529 53.759 4.56651 53.7791 4.58874 53.8002C4.76051 53.9628 4.93532 54.1234 5.11518 54.278C5.17883 54.3322 5.24148 54.3844 5.30514 54.4376C5.4658 54.5721 5.62646 54.7057 5.79217 54.8331C5.9023 54.9175 6.01547 54.9968 6.12763 55.0781C6.31961 55.2176 6.5126 55.3541 6.71166 55.4836C6.8996 55.6071 7.08653 55.7286 7.28053 55.843C7.37248 55.8982 7.46645 55.9494 7.56042 56.0026C7.75544 56.113 7.95348 56.2215 8.15456 56.3238C8.2364 56.366 8.31926 56.4072 8.40211 56.4473C8.64664 56.5668 8.89318 56.6802 9.14478 56.7856C9.1852 56.8027 9.22461 56.8217 9.26502 56.8378C9.54491 56.9533 9.82985 57.0587 10.1168 57.158C10.1502 57.1691 10.1805 57.1831 10.2118 57.1942L10.2148 57.1902C11.7719 57.7172 13.4209 58.0013 15.1043 58.0013C19.624 58.0013 23.9082 56.0026 26.793 52.5494L26.7627 52.453Z" fill="#083F6B"/>
<path fill-rule="evenodd" clip-rule="evenodd" d="M4.22329 53.2642L5.23372 54.268C6.06733 52.2192 8.10234 49.3372 10.6759 49.3372C10.8628 49.3442 11.0508 49.3602 11.2367 49.3763C11.2549 49.3783 11.2731 49.3783 11.2892 49.3803C11.2943 49.3813 11.2993 49.3813 11.3044 49.3813C12.0895 49.4556 12.8645 49.6152 13.6132 49.8642C12.3462 49.3673 10.6456 48.8252 9.21483 48.8252C6.64227 48.8252 4.35869 50.1984 3.52508 52.2473L3.46143 52.3828C3.47355 52.3969 3.48669 52.4099 3.4978 52.424C3.49881 52.424 3.49881 52.425 3.49881 52.425C3.49982 52.425 3.49982 52.426 3.49982 52.426C3.87671 52.8687 3.79689 52.8677 4.22329 53.2642Z" fill="#083F6B"/>
<path fill-rule="evenodd" clip-rule="evenodd" d="M14.3404 50.1017L14.2798 50.0807L14.2192 50.0606C14.0969 50.0104 13.9635 49.9592 13.8312 49.908C13.1602 49.648 12.3802 49.382 11.583 49.1842C11.389 49.1672 11.1939 49.1501 10.9969 49.1431C8.30915 49.1431 5.92352 50.5786 5.05354 52.7177L4.76152 53.6864C4.31491 53.2729 3.89558 52.8322 3.50152 52.3694C3.49444 52.3875 3.48535 52.4035 3.47727 52.4226L3.41563 52.5541L3.4126 52.5631C3.76019 52.9777 4.13506 53.3652 4.52407 53.7386C4.5463 53.7587 4.56651 53.7798 4.58773 53.7999C4.76051 53.9635 4.93532 54.1231 5.11518 54.2777C5.17782 54.3319 5.24148 54.3851 5.30514 54.4373C5.4658 54.5718 5.62646 54.7053 5.79217 54.8328C5.90129 54.9172 6.01547 54.9965 6.12763 55.0788C6.31961 55.2173 6.51361 55.3538 6.71166 55.4833C6.8996 55.6068 7.08653 55.7283 7.27952 55.8427C7.37248 55.8979 7.46645 55.9491 7.56042 56.0023C7.75544 56.1137 7.95348 56.2211 8.15456 56.3235C8.2364 56.3657 8.31926 56.4068 8.40211 56.448C8.64664 56.5665 8.89318 56.6799 9.14377 56.7863C9.18419 56.8034 9.22461 56.8214 9.26502 56.8375C9.54491 56.9539 9.82985 57.0593 10.1168 57.1577C10.1491 57.1698 10.1805 57.1828 10.2118 57.1939L10.2138 57.1908L12.2771 53.6463L14.3404 50.1017Z" fill="#0D4F80"/>
<path fill-rule="evenodd" clip-rule="evenodd" d="M27.491 46.0376C27.3233 45.9804 27.1515 45.9312 26.9787 45.886C26.9262 45.871 26.8746 45.8579 26.8221 45.8459C26.6796 45.8117 26.5382 45.7806 26.3927 45.7545C26.3866 45.7535 26.3815 45.7515 26.3755 45.7505C26.2714 45.7314 26.1653 45.7174 26.0602 45.7033C25.9471 45.6873 25.8339 45.6702 25.7197 45.6592C25.4883 45.6381 25.2529 45.624 25.0144 45.624C23.0168 45.624 21.2041 46.3889 19.84 47.6317C18.3092 49.025 17.3442 51.0207 17.3442 53.2452C17.3442 53.5032 17.3574 53.7571 17.3826 54.0081C17.3917 54.0984 17.4099 54.1858 17.422 54.2751C17.4443 54.4337 17.4635 54.5933 17.4948 54.7499C17.517 54.8583 17.5483 54.9637 17.5746 55.0702C17.608 55.2017 17.6373 55.3352 17.6767 55.4637C17.712 55.5821 17.7575 55.6965 17.7999 55.812C17.8404 55.9244 17.8777 56.0368 17.9232 56.1473C17.9747 56.2728 18.0364 56.3932 18.094 56.5147C18.1384 56.609 18.1809 56.7034 18.2304 56.7958C18.2991 56.9263 18.3759 57.0507 18.4527 57.1762C18.5002 57.2535 18.5436 57.3308 18.5921 57.4061C18.681 57.5396 18.776 57.6661 18.871 57.7936C18.9175 57.8548 18.9609 57.917 19.0074 57.9763C19.1155 58.1108 19.2287 58.2383 19.3439 58.3648C19.3863 58.4109 19.4277 58.4581 19.4712 58.5023C19.5975 58.6348 19.7309 58.7613 19.8683 58.8837C19.9047 58.9179 19.94 58.951 19.9774 58.9831C20.126 59.1116 20.2785 59.2331 20.4372 59.3495C20.4665 59.3716 20.4958 59.3937 20.5261 59.4158C20.6938 59.5362 20.8666 59.6497 21.0444 59.7571C21.0677 59.7701 21.0889 59.7832 21.1121 59.7972C21.1899 59.8424 21.2718 59.8816 21.3516 59.9237C21.4617 59.985 21.5729 60.0482 21.6871 60.1034C21.7022 60.1104 21.7174 60.1175 21.7325 60.1255C21.9377 60.2209 22.1458 60.3082 22.36 60.3865C22.3691 60.3905 22.3772 60.3935 22.3863 60.3965C22.6066 60.4768 22.8309 60.5461 23.0582 60.6063C23.0623 60.6073 23.0663 60.6083 23.0714 60.6093C23.3028 60.6696 23.5402 60.7188 23.7807 60.7589H23.7847C24.0272 60.7981 24.2728 60.8252 24.5223 60.8412C24.5385 60.8422 24.5557 60.8422 24.5719 60.8442C24.7184 60.8533 24.8649 60.8653 25.0144 60.8653C29.2512 60.8653 32.6856 57.4543 32.6856 53.2452C32.6856 49.8984 30.5102 47.0625 27.491 46.0376Z" fill="#0F2B4A"/>
<path fill-rule="evenodd" clip-rule="evenodd" d="M25.5443 50.1289H24.4853V52.8051H21.7764V53.8521H24.4853V56.5284H25.5443V53.8521H28.2532V52.8051H25.5443V50.1289Z" fill="white"/>
</svg>
