<svg width="136" height="102" viewBox="0 0 136 102" fill="none" xmlns="http://www.w3.org/2000/svg">
<path fill-rule="evenodd" clip-rule="evenodd" d="M73.1727 95.1427C109.793 90.2992 116.939 81.8935 122.587 72.8027C133.527 55.1992 124.931 25.4569 103.187 25.3009C81.8955 29.3942 85.8337 -9.0248 44.8447 1.99464C19.1617 8.89879 10.5086 30.3715 13.8676 49.7125C17.2265 69.0545 35.3581 100.144 73.1727 95.1427Z" fill="#262626"/>
<path fill-rule="evenodd" clip-rule="evenodd" d="M114.316 13.9072C103.882 13.9072 95.4248 22.3879 95.4248 32.8501C95.4248 43.3114 103.882 51.792 114.316 51.792C124.745 51.78 133.197 43.3054 133.207 32.8501C133.207 22.3879 124.75 13.9072 114.316 13.9072Z" fill="#262626"/>
<path fill-rule="evenodd" clip-rule="evenodd" d="M119.778 21.635C118.396 20.0695 116.41 19.1732 114.325 19.1732C114.32 19.1732 114.316 19.1742 114.314 19.1742L114.322 19.1572C112.239 19.1612 110.255 20.0555 108.871 21.617C108.684 21.8321 108.522 22.0631 108.374 22.3012C108.326 22.3772 108.276 22.4513 108.232 22.5293C108.206 22.5773 108.181 22.6273 108.156 22.6763C108.089 22.8054 108.025 22.9364 107.969 23.0714C107.96 23.0905 107.953 23.1105 107.945 23.1305C107.586 24.0117 107.464 24.982 107.618 25.9383L108.398 32.1553C108.761 35.1332 111.325 37.3459 114.317 37.2619H114.318C117.304 37.3429 119.865 35.1432 120.244 32.1723L121.014 25.9553C121.263 24.4029 120.81 22.8194 119.778 21.635Z" fill="#D9D9D9"/>
<path fill-rule="evenodd" clip-rule="evenodd" d="M108.398 32.1547C108.761 35.1336 111.327 37.3453 114.317 37.2613H114.318C114.715 37.2623 115.11 37.2263 115.5 37.1553C112.384 36.6751 109.964 34.1773 109.575 31.0403L109.197 28.0414L108.123 29.904L107.627 25.9378C107.474 24.9795 107.591 24.0102 107.945 23.1299C107.586 24.0122 107.464 24.9815 107.618 25.9378L108.398 32.1547Z" fill="#E5E5E5"/>
<path fill-rule="evenodd" clip-rule="evenodd" d="M107.626 25.9379L108.123 29.9031L109.197 28.0415L114.313 19.1737L114.323 19.1567C112.239 19.1607 110.256 20.056 108.871 21.6175C108.684 21.8316 108.522 22.0626 108.373 22.3007C108.325 22.3767 108.276 22.4508 108.232 22.5288C108.206 22.5778 108.182 22.6268 108.156 22.6758C108.09 22.8059 108.024 22.9369 107.969 23.071C107.96 23.09 107.954 23.11 107.945 23.13C107.592 24.0103 107.475 24.9796 107.626 25.9379Z" fill="#E5E5E5"/>
<path fill-rule="evenodd" clip-rule="evenodd" d="M114.396 41.9421C114.301 41.9451 114.206 41.9411 114.111 41.9341C114.207 41.9401 114.301 41.9461 114.396 41.9421Z" fill="#EC0000"/>
<path fill-rule="evenodd" clip-rule="evenodd" d="M106.985 40.2093C108.833 40.2093 111.024 40.8965 112.689 41.5477C112.736 41.5637 112.783 41.5747 112.83 41.5897C111.148 40.9245 108.889 40.1963 106.99 40.1963C103.57 40.1963 100.537 42.0389 99.4295 44.7877L99.3467 44.9668L99.3457 44.9698L99.3467 44.9708L99.4255 44.8007C100.532 42.0519 103.566 40.2093 106.985 40.2093Z" fill="#990000"/>
<path fill-rule="evenodd" clip-rule="evenodd" d="M129.252 44.8404C128.225 41.9765 125.306 40.1959 121.63 40.1959C119.545 40.1959 117.104 41.0262 115.431 41.7274C115.256 41.7984 115.077 41.8504 114.895 41.8874C114.881 41.8904 114.866 41.8924 114.852 41.8954C114.702 41.9235 114.548 41.9355 114.396 41.9425C114.301 41.9455 114.206 41.9395 114.111 41.9345C114.057 41.9315 114.003 41.9265 113.949 41.9205C113.691 41.8894 113.435 41.8274 113.189 41.7274C111.484 41.0262 109.027 40.1909 106.99 40.1909C103.57 40.1909 100.536 42.0335 99.4296 44.7823L99.3458 44.9654C99.3458 44.9654 99.3468 44.9654 99.3468 44.9664L99.4296 44.7874C100.536 42.0385 103.57 40.1959 106.99 40.1959C108.889 40.1959 111.148 40.9241 112.83 41.5894C112.784 41.5743 112.736 41.5633 112.689 41.5473C111.024 40.8961 108.834 40.2089 106.985 40.2089C103.566 40.2089 100.532 42.0515 99.4256 44.8004L99.3408 44.9824C99.7875 45.5186 100.269 46.0207 100.767 46.5029C100.793 46.5289 100.819 46.5559 100.848 46.5829C101.068 46.794 101.293 47 101.523 47.2011C101.604 47.2711 101.686 47.3391 101.767 47.4072C101.972 47.5812 102.178 47.7543 102.391 47.9193C102.531 48.0284 102.677 48.1314 102.819 48.2364C103.066 48.4165 103.314 48.5925 103.568 48.7606C103.807 48.9196 104.049 49.0767 104.296 49.2257C104.415 49.2968 104.535 49.3628 104.655 49.4318C104.905 49.5748 105.158 49.7149 105.416 49.8469C105.521 49.9019 105.628 49.955 105.734 50.008C106.047 50.162 106.363 50.3081 106.685 50.4451C106.737 50.4671 106.787 50.4911 106.839 50.5121C107.197 50.6622 107.562 50.7982 107.93 50.9263C107.971 50.9413 108.011 50.9593 108.052 50.9733L108.055 50.9683C110.05 51.6505 112.161 52.0166 114.318 52.0166C120.108 52.0166 125.596 49.4318 129.292 44.9654L129.252 44.8404Z" fill="#404040"/>
<path fill-rule="evenodd" clip-rule="evenodd" d="M115.124 42.4202C115.842 42.7133 116.646 42.7133 117.365 42.4202C119.044 41.723 117.103 41.0307 115.426 41.732C115.253 41.803 115.075 41.851 114.895 41.887C114.88 41.891 114.865 41.893 114.852 41.895C114.701 41.924 114.547 41.936 114.395 41.942C114.3 41.946 114.205 41.94 114.11 41.934C114.056 41.931 114.002 41.927 113.948 41.92C113.887 41.914 113.825 41.917 113.765 41.905C114.251 42.0691 114.708 42.2431 115.124 42.4202ZM99.3398 44.9825C99.7865 45.5186 100.268 46.0208 100.766 46.5029C100.792 46.529 100.819 46.556 100.847 46.583C101.067 46.794 101.293 47.0001 101.522 47.2012C101.603 47.2712 101.685 47.3392 101.766 47.4072C101.971 47.5813 102.177 47.7543 102.39 47.9194C102.53 48.0274 102.676 48.1305 102.818 48.2355C103.065 48.4165 103.313 48.5926 103.567 48.7606C103.806 48.9197 104.049 49.0767 104.295 49.2258C104.414 49.2958 104.534 49.3628 104.654 49.4319C104.905 49.5749 105.158 49.7149 105.416 49.847C105.52 49.902 105.627 49.956 105.733 50.008C106.046 50.1621 106.363 50.3081 106.684 50.4452C106.736 50.4672 106.787 50.4912 106.838 50.5132C107.196 50.6622 107.561 50.7983 107.929 50.9263C107.97 50.9413 108.01 50.9593 108.051 50.9733L108.054 50.9683L113.339 41.7985L113.184 41.7455C113.027 41.6804 112.857 41.6144 112.688 41.5474C111.023 40.8962 108.832 40.209 106.984 40.209C103.565 40.209 100.531 42.0516 99.4246 44.8004" fill="#4C4C4C"/>
<path fill-rule="evenodd" clip-rule="evenodd" d="M114.469 52.4911C103.511 52.4911 94.6289 43.5843 94.6289 32.5969C94.6289 21.6084 103.511 12.7017 114.468 12.7017C125.426 12.7017 134.309 21.6084 134.309 32.5979C134.297 43.5793 125.421 52.4791 114.469 52.4911ZM132.515 32.5969C132.515 22.6037 124.436 14.5022 114.468 14.5022C104.502 14.5022 96.4225 22.6037 96.4225 32.5969C96.4225 42.59 104.502 50.6905 114.468 50.6905C124.431 50.6785 132.503 42.584 132.515 32.5969Z" fill="#4C4C4C"/>
<path fill-rule="evenodd" clip-rule="evenodd" d="M98.4206 16.3184C98.4136 10.4786 93.6928 5.74313 87.8583 5.72412H63.291C62.7955 5.72412 62.3937 6.12725 62.3937 6.6254C62.3937 6.65641 62.4086 6.68242 62.4116 6.71243H57.6629C57.617 7.16657 57.2491 7.52468 56.7845 7.52468C51.9301 7.53068 47.9978 11.4649 47.9929 16.3184V32.0083C47.9929 32.5055 47.5911 32.9076 47.0956 32.9076C47.0776 32.9076 47.0617 32.8986 47.0437 32.8976V34.9172C47.0617 34.9162 47.0776 34.9072 47.0956 34.9072C47.5911 34.9072 47.9929 35.3103 47.9929 35.8075V38.2563C47.9929 38.7534 47.5911 39.1565 47.0956 39.1565C47.0776 39.1565 47.0617 39.1465 47.0437 39.1455V41.1082C46.5731 41.1372 46.1982 41.5193 46.1982 41.9984V89.2371C46.1972 92.027 47.3249 94.6978 49.3249 96.6415C51.3249 98.5841 54.0258 99.6334 56.8104 99.5494H87.8553C90.614 99.6334 93.3149 98.5841 95.3139 96.6415C97.3149 94.6978 98.4425 92.027 98.4416 89.2371L98.4206 16.3184Z" fill="#4C4C4C"/>
<path fill-rule="evenodd" clip-rule="evenodd" d="M96.6272 16.3199C96.6212 11.4724 92.701 7.54115 87.8565 7.52514H63.2912C62.8276 7.52514 62.4587 7.16703 62.4128 6.71289H57.6641C57.6182 7.16603 57.2503 7.52514 56.7857 7.52514C51.9313 7.53015 47.9991 11.4654 47.9941 16.3189V32.0078C47.9941 32.5049 47.5913 32.9081 47.0958 32.9081C47.0778 32.9081 47.0629 32.899 47.0449 32.897V34.9177C47.0629 34.9167 47.0778 34.9067 47.0958 34.9067C47.5913 34.9067 47.9941 35.3098 47.9941 35.807V38.2557C47.9941 38.7529 47.5913 39.156 47.0958 39.156C47.0778 39.156 47.0629 39.147 47.0449 39.145V41.1086C47.0629 41.1076 47.0778 41.0976 47.0958 41.0976C47.5913 41.0976 47.9941 41.5007 47.9941 41.9979V89.2386C47.9931 91.5393 48.9233 93.744 50.5753 95.3475C52.2264 96.952 54.4567 97.8183 56.7847 97.7493H87.8824C90.1845 97.8183 92.4148 96.952 94.0669 95.3475C95.7179 93.744 96.6482 91.5393 96.6482 89.2386L96.6272 16.3199Z" fill="white"/>
<path fill-rule="evenodd" clip-rule="evenodd" d="M107.93 50.9267C107.562 50.7987 107.197 50.6617 106.838 50.5127C107.198 50.6627 107.563 50.7987 107.93 50.9267Z" fill="#EC0000"/>
<path fill-rule="evenodd" clip-rule="evenodd" d="M126.732 68.8325C121.622 68.8325 117.465 73.0008 117.465 78.1254C117.465 83.249 121.622 87.4183 126.732 87.4183C131.837 87.4123 135.994 83.244 136 78.1254C136 73.0008 131.843 68.8325 126.732 68.8325Z" fill="#262626"/>
<path fill-rule="evenodd" clip-rule="evenodd" d="M129.34 72.7712C128.68 72.024 127.733 71.5959 126.737 71.5959C126.735 71.5959 126.733 71.5969 126.731 71.5969L124.289 75.8292L124.469 77.2616C124.492 77.4487 124.531 77.6308 124.583 77.8078C124.688 78.1599 124.847 78.489 125.054 78.7831C124.847 78.489 124.688 78.1599 124.583 77.8078C124.531 77.6308 124.492 77.4487 124.469 77.2616L124.289 75.8292L126.731 71.5969L126.736 71.5889C125.741 71.5899 124.794 72.018 124.133 72.7632C124.044 72.8653 123.966 72.9753 123.895 73.0893C123.873 73.1253 123.848 73.1614 123.828 73.1984C123.815 73.2214 123.804 73.2454 123.793 73.2684C123.76 73.3304 123.729 73.3924 123.703 73.4575C123.699 73.4665 123.695 73.4755 123.691 73.4855C123.519 73.9066 123.462 74.3687 123.535 74.8259L123.907 77.7938C124.081 79.2152 125.305 80.2716 126.734 80.2316C128.158 80.2706 129.382 79.2202 129.562 77.8018L129.93 74.8339C130.049 74.0927 129.832 73.3364 129.34 72.7712Z" fill="#D9D9D9"/>
<path fill-rule="evenodd" clip-rule="evenodd" d="M123.907 77.7932C124.081 79.2156 125.305 80.271 126.733 80.232C126.923 80.232 127.112 80.215 127.298 80.18C125.81 79.9509 124.655 78.7585 124.469 77.261L124.289 75.8296L123.775 76.7189L123.539 74.8253C123.467 74.3681 123.522 73.905 123.69 73.4849C123.519 73.906 123.462 74.3691 123.535 74.8253L123.907 77.7932Z" fill="#E5E5E5"/>
<path fill-rule="evenodd" clip-rule="evenodd" d="M123.539 74.8259L123.775 76.7195L124.288 75.8302L126.731 71.5969L126.735 71.5889C125.741 71.5909 124.794 72.018 124.133 72.7632C124.043 72.8663 123.966 72.9753 123.895 73.0893C123.873 73.1253 123.849 73.1614 123.828 73.1984C123.815 73.2214 123.804 73.2454 123.792 73.2684C123.76 73.3304 123.728 73.3924 123.702 73.4574C123.698 73.4664 123.694 73.4755 123.69 73.4855C123.522 73.9056 123.467 74.3677 123.539 74.8259Z" fill="#E5E5E5"/>
<path fill-rule="evenodd" clip-rule="evenodd" d="M123.684 86.7551C123.508 86.6931 123.334 86.6291 123.163 86.5571C123.334 86.6291 123.508 86.6931 123.684 86.7551Z" fill="#EC0000"/>
<path fill-rule="evenodd" clip-rule="evenodd" d="M123.233 81.6383C124.115 81.6383 125.161 81.9663 125.955 82.2773C125.978 82.2843 126.001 82.2903 126.024 82.2973C125.22 81.9793 124.141 81.6323 123.235 81.6323C121.602 81.6323 120.154 82.5113 119.626 83.8233L119.587 83.9093L119.586 83.9103L119.624 83.8293C120.152 82.5173 121.6 81.6383 123.233 81.6383Z" fill="#990000"/>
<path fill-rule="evenodd" clip-rule="evenodd" d="M133.862 83.8495C133.372 82.4821 131.978 81.6318 130.224 81.6318C129.228 81.6318 128.064 82.029 127.264 82.3641C127.182 82.3971 127.097 82.4211 127.012 82.4391C127.011 82.4391 127.01 82.4391 127.009 82.4401C127.002 82.4411 126.995 82.4421 126.988 82.4431C126.916 82.4571 126.843 82.4631 126.77 82.4661C126.725 82.4681 126.68 82.4651 126.634 82.4621C126.609 82.4601 126.582 82.4581 126.557 82.4551C126.433 82.4411 126.312 82.4111 126.195 82.3641C126.141 82.3421 126.076 82.3191 126.021 82.297C125.999 82.29 125.977 82.285 125.955 82.278C125.16 81.9669 124.115 81.6388 123.232 81.6388C121.6 81.6388 120.152 82.5181 119.624 83.8305L119.586 83.9115L119.584 83.9175C119.796 84.1736 120.026 84.4127 120.263 84.6428C120.277 84.6558 120.29 84.6688 120.302 84.6818C120.408 84.7818 120.515 84.8809 120.626 84.9759C120.664 85.0099 120.703 85.0419 120.742 85.0749C120.839 85.1579 120.937 85.241 121.04 85.319C121.106 85.371 121.175 85.42 121.244 85.471C121.362 85.5571 121.479 85.6411 121.601 85.7211C121.716 85.7971 121.831 85.8722 121.949 85.9432C122.005 85.9762 122.063 86.0092 122.12 86.0412C122.24 86.1102 122.361 86.1763 122.483 86.2403C122.534 86.2663 122.584 86.2913 122.635 86.3163C122.784 86.3903 122.936 86.4593 123.088 86.5254C123.113 86.5364 123.137 86.5474 123.163 86.5574C123.334 86.6284 123.507 86.6934 123.684 86.7554C123.704 86.7624 123.722 86.7704 123.743 86.7774L123.744 86.7744C124.696 87.1005 125.704 87.2756 126.734 87.2756C129.497 87.2756 132.117 86.0412 133.882 83.9095L133.862 83.8495Z" fill="#404040"/>
<path fill-rule="evenodd" clip-rule="evenodd" d="M119.626 83.8234C120.154 82.5114 121.602 81.6324 123.235 81.6324C123.373 81.6324 123.518 81.6534 123.662 81.6684C123.518 81.6534 123.372 81.6304 123.235 81.6304C121.602 81.6304 120.154 82.5094 119.626 83.8214L119.586 83.9084L119.626 83.8234Z" fill="#083F6B"/>
<path fill-rule="evenodd" clip-rule="evenodd" d="M127.261 82.3657C127.179 82.3997 127.094 82.4227 127.008 82.4398C127.001 82.4418 126.994 82.4428 126.988 82.4438C126.915 82.4568 126.842 82.4628 126.769 82.4658C126.724 82.4678 126.679 82.4648 126.633 82.4618C126.608 82.4608 126.581 82.4588 126.556 82.4558C126.527 82.4518 126.497 82.4538 126.468 82.4488C126.701 82.5268 126.918 82.6098 127.116 82.6948C127.46 82.8339 127.844 82.8339 128.187 82.6948C128.988 82.3617 128.063 82.0306 127.261 82.3657ZM125.954 82.2778C125.16 81.9667 124.114 81.6386 123.231 81.6386C121.599 81.6386 120.152 82.5179 119.622 83.8303L119.584 83.9113L119.582 83.9173C119.795 84.1734 120.025 84.4125 120.262 84.6435C120.276 84.6555 120.288 84.6685 120.301 84.6815C120.407 84.7816 120.515 84.8806 120.624 84.9766C120.662 85.0097 120.701 85.0427 120.741 85.0747C120.839 85.1577 120.936 85.2407 121.038 85.3197C121.106 85.3708 121.175 85.4208 121.242 85.4708C121.361 85.5568 121.479 85.6409 121.6 85.7209C121.715 85.7969 121.83 85.8719 121.947 85.9429C122.004 85.977 122.062 86.009 122.119 86.042C122.238 86.11 122.36 86.176 122.483 86.24C122.533 86.266 122.583 86.2911 122.634 86.3171C122.783 86.3901 122.935 86.4601 123.088 86.5251C123.112 86.5361 123.137 86.5471 123.162 86.5571C123.333 86.6292 123.507 86.6942 123.683 86.7552C123.702 86.7622 123.721 86.7702 123.741 86.7772L123.742 86.7752L126.265 82.3978L126.191 82.3718C126.116 82.3408 126.035 82.3098 125.954 82.2778ZM47.9929 38.2558V35.807C47.9929 35.3099 47.5911 34.9067 47.0956 34.9067C47.0776 34.9067 47.0617 34.9167 47.0437 34.9177C46.5731 34.9458 46.1982 35.3279 46.1982 35.807V38.2558C46.1982 38.7349 46.5731 39.117 47.0437 39.1451C47.0617 39.1471 47.0776 39.1561 47.0956 39.1561C47.5911 39.1561 47.9929 38.7529 47.9929 38.2558Z" fill="#4C4C4C"/>
<path fill-rule="evenodd" clip-rule="evenodd" d="M34.6954 29.9587L33.5748 31.0841L32.1959 29.7006L30.811 31.0881L29.6914 29.9647L31.0753 28.5763L29.6964 27.1929L30.818 26.0685L32.1969 27.4519L33.5807 26.0625L34.7014 27.1868L33.3165 28.5753L34.6954 29.9587Z" fill="#595959"/>
<path fill-rule="evenodd" clip-rule="evenodd" d="M111.885 68.6995L111.073 69.5148L110.07 68.5095L109.066 69.5158L108.251 68.6985L109.254 67.6922L108.251 66.6859L109.065 65.8697L110.068 66.876L111.072 65.8687L111.886 66.6869L110.882 67.6932L111.885 68.6995Z" fill="#999999"/>
<path fill-rule="evenodd" clip-rule="evenodd" d="M48.1179 32.2812V16.5923C48.1228 11.7388 52.056 7.80361 56.9095 7.79861C57.3741 7.79761 57.742 7.4395 57.7879 6.98636C57.7918 6.95535 57.8068 6.92834 57.8068 6.89733C57.8058 6.40017 57.403 5.99805 56.9075 5.99805C51.065 6.00405 46.3292 10.7425 46.3232 16.5913V32.2812C46.3232 32.7604 46.6981 33.1425 47.1687 33.1715C47.1867 33.1725 47.2026 33.1815 47.2206 33.1815C47.7161 33.1815 48.1179 32.7784 48.1179 32.2812Z" fill="#4C4C4C"/>
<path fill-rule="evenodd" clip-rule="evenodd" d="M87.7431 10.7661H77.2954H56.8986C53.765 10.7661 51.2246 13.3159 51.2246 16.4619V66.3724V89.0735C51.2465 90.554 51.8587 91.9634 52.9255 92.9857C53.9933 94.008 55.425 94.5572 56.8986 94.5092H87.7431C89.2177 94.5572 90.6484 94.008 91.7152 92.9857C92.783 91.9634 93.3961 90.554 93.4171 89.0735V16.4519C93.4121 13.3099 90.8737 10.7661 87.7431 10.7661Z" fill="#BFBFBF"/>
<path fill-rule="evenodd" clip-rule="evenodd" d="M56.8986 10.7661C53.764 10.7661 51.2246 13.3159 51.2246 16.4619V66.3724C55.8627 56.9105 64.5496 38.3817 77.2944 10.7661H56.8986Z" fill="#E5E5E5"/>
<path fill-rule="evenodd" clip-rule="evenodd" d="M70.0251 16.9312H78.0012C78.4967 16.9312 78.8985 16.5282 78.8985 16.0312C78.8985 15.5343 78.4967 15.1312 78.0012 15.1312H70.0251C69.5296 15.1312 69.1288 15.5343 69.1288 16.0312C69.1288 16.5282 69.5296 16.9312 70.0251 16.9312ZM66.037 17.0312C66.5884 17.0312 67.0341 16.5833 67.0341 16.0312C67.0341 15.4793 66.5884 15.0312 66.037 15.0312C65.4867 15.0312 65.04 15.4793 65.04 16.0312C65.04 16.5833 65.4867 17.0312 66.037 17.0312Z" fill="#7F7F7F"/>
<path fill-rule="evenodd" clip-rule="evenodd" d="M30.3084 43.0171C14.5597 43.0171 1.79297 55.8181 1.79297 71.609C1.79297 87.3989 14.5597 100.2 30.3074 100.2C46.0482 100.181 58.805 87.3909 58.8229 71.609C58.8229 55.8181 46.0562 43.0171 30.3084 43.0171Z" fill="#262626"/>
<path fill-rule="evenodd" clip-rule="evenodd" d="M38.5522 54.6816C36.4655 52.3188 33.4685 50.9654 30.3199 50.9654C30.3139 50.9654 30.3079 50.9664 30.3029 50.9664L30.3169 50.9414C27.1723 50.9474 24.1783 52.2978 22.0886 54.6546C21.8054 54.9777 21.5622 55.3268 21.3368 55.6859C21.2661 55.8009 21.1903 55.913 21.1255 56.031C21.0836 56.104 21.0477 56.179 21.0098 56.2531C20.9091 56.4491 20.8114 56.6452 20.7267 56.8482C20.7147 56.8783 20.7037 56.9083 20.6908 56.9383C20.1484 58.2697 19.965 59.7331 20.1973 61.1766L21.3737 70.5605C21.9231 75.0559 25.7935 78.395 30.3089 78.2679H30.3099C34.8164 78.391 38.6828 75.0699 39.2541 70.5865L40.4176 61.2036C40.7935 58.8589 40.1095 56.4691 38.5522 54.6816Z" fill="#BFBFBF"/>
<path fill-rule="evenodd" clip-rule="evenodd" d="M21.3733 70.5597C21.9236 75.0551 25.794 78.3942 30.3095 78.2681H30.3105C30.9087 78.2691 31.5069 78.2151 32.0951 78.1061C27.3912 77.3819 23.7392 73.6127 23.1509 68.8772L22.5807 64.3498L20.9595 67.1617L20.2108 61.1758C19.9814 59.7294 20.1579 58.2659 20.6913 56.9375C20.1479 58.2689 19.9655 59.7324 20.1968 61.1758L21.3733 70.5597Z" fill="#E5E5E5"/>
<path fill-rule="evenodd" clip-rule="evenodd" d="M20.2116 61.1761L20.9604 67.1609L22.5815 64.3501L30.3033 50.9659L30.3183 50.9419C27.1727 50.9469 24.1787 52.2973 22.09 54.654C21.8068 54.9782 21.5626 55.3263 21.3382 55.6864C21.2674 55.8004 21.1907 55.9134 21.1259 56.0305C21.085 56.1035 21.0491 56.1785 21.0112 56.2525C20.9095 56.4486 20.8128 56.6457 20.7281 56.8477C20.7161 56.8777 20.7041 56.9078 20.6922 56.9378C20.1588 58.2662 19.9823 59.7296 20.2116 61.1761Z" fill="#E5E5E5"/>
<path fill-rule="evenodd" clip-rule="evenodd" d="M20.6695 98.8936C20.1142 98.6996 19.5638 98.4946 19.0225 98.2686C19.5648 98.4956 20.1152 98.6996 20.6695 98.8936Z" fill="#EC0000"/>
<path fill-rule="evenodd" clip-rule="evenodd" d="M19.2423 82.7163C22.033 82.7163 25.338 83.7536 27.8505 84.7369C27.9213 84.7599 27.9941 84.7769 28.0659 84.8009C25.5255 83.7956 22.1167 82.6963 19.2493 82.6963C14.0888 82.6963 9.50952 85.4781 7.83853 89.6264L7.71391 89.8975L7.71191 89.9015C7.71291 89.9025 7.71291 89.9025 7.71391 89.9035L7.83255 89.6465C9.50254 85.4982 14.0818 82.7163 19.2423 82.7163Z" fill="#990000"/>
<path fill-rule="evenodd" clip-rule="evenodd" d="M52.8517 89.7072C51.3003 85.3838 46.8955 82.696 41.3482 82.696C38.1996 82.696 34.5157 83.9494 31.9892 85.0087C31.727 85.1157 31.4558 85.1947 31.1827 85.2498C31.1607 85.2538 31.1388 85.2568 31.1169 85.2618C30.8895 85.3048 30.6582 85.3228 30.4279 85.3318C30.2844 85.3378 30.1418 85.3288 29.9972 85.3198C29.9165 85.3158 29.8357 85.3098 29.7539 85.2998C29.3631 85.2528 28.9783 85.1597 28.6074 85.0087C26.0341 83.9494 22.3242 82.689 19.2495 82.689C14.0879 82.689 9.50967 85.4708 7.83868 89.6201L7.71206 89.8942C7.71206 89.8952 7.71305 89.8962 7.71405 89.8972L7.83868 89.6261C9.50967 85.4778 14.0879 82.696 19.2495 82.696C22.1169 82.696 25.5256 83.7953 28.066 84.8006C27.9942 84.7766 27.9214 84.7606 27.8507 84.7366C25.3372 83.7533 22.0331 82.716 19.2425 82.716C14.082 82.716 9.50269 85.4978 7.8317 89.6461L7.71405 89.9032L7.70508 89.9212C8.37906 90.7305 9.10388 91.4877 9.85563 92.2159C9.89651 92.2559 9.93738 92.297 9.97826 92.336C10.3123 92.6561 10.6512 92.9672 10.9982 93.2703C11.1198 93.3753 11.2425 93.4783 11.3651 93.5814C11.6752 93.8434 11.9872 94.1045 12.3073 94.3536C12.5196 94.5187 12.739 94.6737 12.9553 94.8327C13.3262 95.1038 13.7011 95.3699 14.0849 95.624C14.4469 95.8641 14.8108 96.1021 15.1836 96.3252C15.3621 96.4332 15.5446 96.5333 15.726 96.6373C16.1039 96.8544 16.4857 97.0644 16.8736 97.2645C17.0331 97.3465 17.1926 97.4276 17.3541 97.5066C17.8257 97.7387 18.3043 97.9597 18.7888 98.1668C18.8666 98.1998 18.9434 98.2358 19.0211 98.2688C19.5625 98.4939 20.1129 98.7 20.6692 98.894C20.731 98.915 20.7908 98.942 20.8526 98.963L20.8566 98.956C23.8696 99.9854 27.057 100.54 30.3123 100.54C39.0491 100.54 47.3332 96.6373 52.9125 89.8942L52.8517 89.7072Z" fill="#A6A6A6"/>
<path fill-rule="evenodd" clip-rule="evenodd" d="M31.9828 85.0154C31.7235 85.1215 31.4543 85.1945 31.1822 85.2495C31.1612 85.2545 31.1383 85.2575 31.1174 85.2615C30.889 85.3045 30.6587 85.3225 30.4274 85.3315C30.2849 85.3385 30.1413 85.3285 29.9977 85.3205C29.917 85.3155 29.8362 85.3095 29.7544 85.3005C29.6617 85.2895 29.568 85.2935 29.4763 85.2765C30.2121 85.5246 30.9 85.7867 31.5281 86.0548C32.6129 86.4969 33.8272 86.4969 34.911 86.0548C37.4444 85.0014 34.5162 83.9561 31.9828 85.0154ZM27.8507 84.7369C25.3372 83.7536 22.0331 82.7163 19.2425 82.7163C14.082 82.7163 9.50368 85.4982 7.8317 89.6465L7.71405 89.9035L7.70508 89.9216C8.37906 90.7308 9.10388 91.488 9.85563 92.2163C9.89651 92.2563 9.93738 92.2973 9.97826 92.3363C10.3123 92.6564 10.6512 92.9675 10.9992 93.2696C11.1198 93.3756 11.2425 93.4787 11.3651 93.5817C11.6752 93.8438 11.9872 94.1049 12.3073 94.3539C12.5196 94.518 12.739 94.674 12.9563 94.8321C13.3272 95.1042 13.7021 95.3702 14.0849 95.6243C14.4479 95.8644 14.8108 96.1015 15.1836 96.3256C15.3631 96.4326 15.5446 96.5336 15.726 96.6376C16.1039 96.8537 16.4867 97.0648 16.8736 97.2638C17.0331 97.3459 17.1936 97.4279 17.3541 97.5069C17.8257 97.739 18.3043 97.9601 18.7888 98.1671C18.8666 98.2001 18.9434 98.2361 19.0221 98.2692C19.5625 98.4942 20.1129 98.6993 20.6692 98.8933C20.731 98.9154 20.7908 98.9424 20.8526 98.9634L20.8566 98.9564L28.8347 85.1161L28.6004 85.035C28.3631 84.938 28.1069 84.837 27.8507 84.7369Z" fill="#767676"/>
<path fill-rule="evenodd" clip-rule="evenodd" d="M30.3081 100.199C14.5603 100.199 1.79362 87.3982 1.79362 71.6083C1.79362 55.8173 14.5603 43.0164 30.3091 43.0164C46.0569 43.0164 58.8236 55.8173 58.8236 71.6083C58.8056 87.3902 46.0489 100.181 30.3081 100.199ZM30.3091 41.2168C13.5693 41.2168 0 54.823 0 71.6083C0 88.3935 13.5693 102 30.3101 102C47.0399 101.981 60.5993 88.3855 60.6172 71.6093C60.6172 54.823 47.0479 41.2168 30.3091 41.2168Z" fill="#4C4C4C"/>
<path fill-rule="evenodd" clip-rule="evenodd" d="M62.4977 69.7325C62.4977 53.1583 49.1069 39.7231 32.5875 39.7231C26.2804 39.7231 20.4329 41.6858 15.6094 45.0308C19.9633 42.604 24.9733 41.2166 30.3093 41.2166C47.0481 41.2166 60.6174 54.8239 60.6174 71.6091C60.6094 79.1394 57.8666 86.0236 53.3402 91.3322C58.9833 85.8735 62.4977 78.2171 62.4977 69.7325Z" fill="#262626"/>
</svg>
