<svg width="78" height="86" viewBox="0 0 78 86" fill="none" xmlns="http://www.w3.org/2000/svg">
<path fill-rule="evenodd" clip-rule="evenodd" d="M14.2236 6.80238H17.5292V4.98975H14.2236V6.80238Z" fill="#7F7F7F"/>
<path fill-rule="evenodd" clip-rule="evenodd" d="M19.1177 3.36848H20.8959V0H19.1177V3.36848Z" fill="#7F7F7F"/>
<path fill-rule="evenodd" clip-rule="evenodd" d="M22.4854 6.80238H25.7909V4.98975H22.4854V6.80238Z" fill="#7F7F7F"/>
<path fill-rule="evenodd" clip-rule="evenodd" d="M19.1182 11.7909H20.8964V8.42139H19.1182V11.7909Z" fill="#7F7F7F"/>
<path fill-rule="evenodd" clip-rule="evenodd" d="M42.771 71.9147C36.1351 71.9147 25.9339 78.4462 18.0068 85.9999H77.9992C70.2529 77.5258 52.7835 71.9147 42.771 71.9147ZM61.8838 30.0555C69.2646 25.4474 73.9137 17.3419 74.3286 8.57176C70.9361 7.00282 67.2314 6.18311 63.504 6.18311C58.7235 6.18311 54.0289 7.53453 49.929 10.0984C42.5513 14.7065 37.8992 22.812 37.4842 31.5822C40.8758 33.1471 44.5814 33.9708 48.3098 33.9708C53.0904 33.9708 57.782 32.6184 61.8838 30.0555ZM23.7072 14.5018L36.5502 31.6211C37.5381 21.5509 28.6468 12.4132 23.7072 14.5018Z" fill="#262626"/>
<path fill-rule="evenodd" clip-rule="evenodd" d="M51.0803 13.5071C55.0379 11.0328 59.5715 9.72572 64.19 9.72572C67.5835 9.72572 70.9641 10.4296 74.0909 11.7841C73.5041 20.0457 69.0367 27.5923 62.1065 31.9194C58.1459 34.3947 53.6143 35.7008 48.9968 35.7008C45.6063 35.7008 42.2266 34.9959 39.0959 33.6424C39.6827 25.3819 44.1511 17.8352 51.0803 13.5071ZM48.9968 37.5134C53.9433 37.5134 58.796 36.1147 63.0361 33.4652C70.6421 28.7161 75.473 20.3518 75.9037 11.2514L75.9324 10.6361L75.3831 10.3823C71.8711 8.75898 68.0409 7.91309 64.19 7.91309C59.2425 7.91309 54.3879 9.31284 50.1517 11.9613C43.9505 15.8353 39.5948 22.1111 37.9637 29.2287C36.7466 23.9207 34.014 19.0477 30.0752 15.2955C29.7166 14.9542 29.1545 14.9733 28.8196 15.3388C28.4837 15.7044 28.5024 16.2774 28.862 16.6198C33.5122 21.0517 36.3752 27.1562 36.8355 33.6434C33.7058 34.9959 30.3242 35.7018 26.9356 35.7018C22.32 35.7018 17.7865 34.3937 13.8259 31.9204C6.89567 27.5933 2.4283 20.0446 1.84148 11.7821C3.88647 10.8989 6.0431 10.2897 8.24615 9.97546C8.73221 9.90598 9.07107 9.44778 9.0029 8.95233C8.93572 8.45688 8.48622 8.11147 8.00016 8.17995C5.42762 8.54751 2.91337 9.28968 0.55027 10.3803L0 10.6341L0.0286496 11.2493C0.459382 20.3508 5.2903 28.7171 12.8973 33.4662C17.1364 36.1137 21.9911 37.5134 26.9356 37.5134C30.4417 37.5134 33.935 36.7974 37.1872 35.443V71.3875C22.7705 71.7229 9.69345 76.3239 1.90767 83.6812C1.54708 84.0206 1.52633 84.5946 1.86025 84.9622C2.19417 85.3287 2.75629 85.3499 3.11589 85.0095C10.8493 77.7046 24.2119 73.1679 38.8726 73.1679C52.5612 73.1679 65.1463 77.1185 73.0832 83.649C73.4656 83.9632 74.0257 83.9018 74.3339 83.5131C74.6422 83.1233 74.5819 82.5524 74.1996 82.2382C65.9436 75.4448 53.0018 71.3744 38.9655 71.3563V35.5356C42.1564 36.8307 45.5687 37.5134 48.9968 37.5134Z" fill="#7F7F7F"/>
</svg>
