<svg width="116" height="104" viewBox="0 0 116 104" fill="none" xmlns="http://www.w3.org/2000/svg">
<path fill-rule="evenodd" clip-rule="evenodd" d="M63.3455 103.471C101.115 98.3416 106.726 89.4139 111.994 79.5659C122.196 60.4938 112.169 25.5716 90.3161 25.22C69.1066 29.499 72.5953 -9.46805 31.9055 2.18438C6.41068 9.48649 -4.53307 31.7354 1.72194 53.5232C7.97795 75.311 25.5761 108.599 63.3455 103.471Z" fill="#E5E5E5"/>
<path fill-rule="evenodd" clip-rule="evenodd" d="M15.4644 30.327H18.8303V28.5186H15.4644V30.327Z" fill="#0F2B4A"/>
<path fill-rule="evenodd" clip-rule="evenodd" d="M20.4478 26.9017H22.2585V23.541H20.4478V26.9017Z" fill="#0F2B4A"/>
<path fill-rule="evenodd" clip-rule="evenodd" d="M23.8774 30.327H27.2434V28.5186H23.8774V30.327Z" fill="#0F2B4A"/>
<path fill-rule="evenodd" clip-rule="evenodd" d="M20.4478 35.3041H22.2585V31.9424H20.4478V35.3041Z" fill="#0F2B4A"/>
<path fill-rule="evenodd" clip-rule="evenodd" d="M98.1108 58.8095L100.429 58.8185L100.437 57.011L98.1189 57L98.1108 58.8095Z" fill="#EC0000"/>
<path fill-rule="evenodd" clip-rule="evenodd" d="M101.274 56.2648L103.085 56.2729L103.095 54.0676L101.284 54.0605L101.274 56.2648Z" fill="#EC0000"/>
<path fill-rule="evenodd" clip-rule="evenodd" d="M103.915 57.0259L103.907 58.8343L106.224 58.8444L106.232 57.0359L103.915 57.0259Z" fill="#EC0000"/>
<path fill-rule="evenodd" clip-rule="evenodd" d="M101.249 61.7766L103.059 61.7836L103.069 59.5793L101.259 59.5723L101.249 61.7766Z" fill="#EC0000"/>
<path fill-rule="evenodd" clip-rule="evenodd" d="M89.7958 41.1055C87.1692 39.6909 84.2017 38.9424 81.216 38.9424C77.9306 38.9424 74.7065 39.8466 71.8908 41.5556C67.1558 44.431 64.0595 49.344 63.4429 54.7512C63.5334 55.55 63.5726 56.3598 63.5525 57.1756C63.5475 57.3634 63.5032 57.5423 63.4429 57.7141C63.5857 58.1129 63.8634 58.4575 64.2486 58.6655C66.8752 60.0801 69.8417 60.8276 72.8304 60.8276C76.1138 60.8276 79.3379 59.9244 82.1536 58.2144C87.5887 54.914 90.8681 48.93 90.7132 42.5944C90.6971 41.9705 90.3481 41.4029 89.7958 41.1055Z" fill="#E9F4F7"/>
<path fill-rule="evenodd" clip-rule="evenodd" d="M63.4431 54.7507C62.8255 49.3445 59.7281 44.4305 54.9941 41.5561C52.1785 39.8461 48.9544 38.9419 45.6689 38.9419C42.6813 38.9419 39.7147 39.6904 37.0892 41.105C36.5369 41.4024 36.1868 41.971 36.1718 42.595C36.0168 48.9296 39.2962 54.9145 44.7304 58.2149C47.5461 59.9239 50.7701 60.8271 54.0556 60.8271C57.0422 60.8271 60.0098 60.0806 62.6353 58.665C63.0206 58.4571 63.2993 58.1135 63.4431 57.7146C63.5045 57.5418 63.5477 57.363 63.5528 57.1751C63.5729 56.3593 63.5336 55.5495 63.4431 54.7507Z" fill="#E9F4F7"/>
<path fill-rule="evenodd" clip-rule="evenodd" d="M63.4429 30.5876C63.5867 30.9865 63.8634 31.3311 64.2496 31.5381C66.8752 32.9537 69.8417 33.7012 72.8304 33.7012C76.1148 33.7012 79.3389 32.798 82.1546 31.088C87.5887 27.7876 90.8691 21.8026 90.7132 15.468C90.6981 14.8441 90.3481 14.2764 89.7958 13.9791C87.1692 12.5644 84.2027 11.8149 81.216 11.8149C77.9306 11.8149 74.7065 12.7192 71.8909 14.4292C67.1558 17.3036 64.0595 22.2175 63.4429 27.6238C63.5334 28.4235 63.5726 29.2323 63.5525 30.0481C63.5475 30.236 63.5042 30.4158 63.4429 30.5876Z" fill="white"/>
<path fill-rule="evenodd" clip-rule="evenodd" d="M44.7304 31.088C47.546 32.798 50.7701 33.7012 54.0555 33.7012C57.0412 33.7012 60.0088 32.9537 62.6353 31.5381C63.0206 31.3311 63.2992 30.9865 63.4431 30.5876C63.5034 30.4158 63.5477 30.236 63.5527 30.0481C63.5718 29.2323 63.5326 28.4235 63.4431 27.6238C62.8244 22.2175 59.7271 17.3036 54.9931 14.4292C52.1774 12.7192 48.9533 11.8149 45.6689 11.8149C42.6812 11.8149 39.7147 12.5644 37.0881 13.9791C36.5359 14.2764 36.1868 14.8441 36.1707 15.468C36.0168 21.8026 39.2962 27.7876 44.7304 31.088Z" fill="white"/>
<path fill-rule="evenodd" clip-rule="evenodd" d="M79.5426 56.6764H79.5436C76.9674 58.2518 74.026 59.0837 71.0333 59.0837H71.0252C68.9107 59.0837 66.772 58.6627 64.8014 57.86C65.245 52.6657 68.117 47.9899 72.5693 45.2641C75.1426 43.6898 78.089 42.8579 81.0887 42.8579C83.2053 42.8579 85.3449 43.2799 87.3136 44.0796C86.8669 49.2769 83.9959 53.9517 79.5426 56.6764ZM55.7569 32.9556C52.7581 32.9556 49.8127 32.1237 47.2385 30.5484C42.7871 27.8247 39.9151 23.1498 39.4685 17.9525C41.4382 17.1518 43.5768 16.7298 45.6933 16.7298C48.6951 16.7298 51.6415 17.5627 54.2117 19.1381C58.6641 21.8618 61.5361 26.5356 61.9817 31.7319C60.011 32.5337 57.8714 32.9556 55.7569 32.9556ZM72.5703 19.1371C75.1406 17.5617 78.087 16.7298 81.0887 16.7298C83.2063 16.7298 85.3449 17.1518 87.3136 17.9525C86.8659 23.1498 83.9949 27.8247 79.5426 30.5484C76.9704 32.1227 74.026 32.9556 71.0242 32.9556C68.9107 32.9556 66.771 32.5337 64.8004 31.7319C65.246 26.5366 68.118 21.8618 72.5703 19.1371ZM47.2385 56.6764C42.7871 53.9527 39.9151 49.2779 39.4685 44.0796C41.4351 43.2789 43.5738 42.8579 45.6933 42.8579C48.6941 42.8579 51.6405 43.6898 54.2107 45.2641C58.6641 47.9899 61.5361 52.6657 61.9817 57.86C57.2135 59.799 51.6284 59.362 47.2385 56.6764ZM81.0887 41.0494C77.755 41.0494 74.4817 41.9738 71.6237 43.7219C68.3675 45.7152 65.8757 48.6479 64.4111 52.0639L64.3205 33.46C66.4532 34.2999 68.7467 34.7631 71.0242 34.7631C74.3599 34.7631 77.6333 33.8388 80.4882 32.0896C85.6286 28.9459 88.8708 23.4613 89.1635 17.4191L89.1937 16.8052L88.6334 16.551C86.2774 15.485 83.669 14.9214 81.0887 14.9214C77.753 14.9214 74.4796 15.8457 71.6237 17.5949C67.4078 20.1749 64.4734 24.3283 63.39 29.0695C62.3086 24.3273 59.3723 20.1739 55.1583 17.5959C52.3024 15.8467 49.0291 14.9214 45.6933 14.9214C43.1141 14.9214 40.5046 15.485 38.1497 16.551L37.5884 16.8042L37.6176 17.418C37.9103 23.4603 41.1535 28.9459 46.2929 32.0906C49.1518 33.8398 52.4242 34.7641 55.7569 34.7641C58.0525 34.7641 60.3631 34.2939 62.5088 33.4419L62.6024 52.6406C61.1769 48.9795 58.5957 45.8268 55.1583 43.7219C52.3014 41.9738 49.0291 41.0494 45.6933 41.0494C43.11 41.0494 40.5016 41.6131 38.1487 42.6781L37.5884 42.9322L37.6176 43.5461C37.9103 49.5883 41.1535 55.074 46.2929 58.2187C49.1528 59.9678 52.4252 60.8921 55.7569 60.8921C58.0967 60.8921 60.4537 60.4049 62.6356 59.5207L62.713 75.5426C62.716 76.0409 63.1214 76.4428 63.6194 76.4428H63.6234C64.1234 76.4398 64.5268 76.0339 64.5247 75.5345L64.4473 59.6383C66.5447 60.4451 68.792 60.8921 71.0252 60.8921H71.0333C74.3599 60.8921 77.6293 59.9678 80.4882 58.2187H80.4892C85.6296 55.0719 88.8718 49.5873 89.1635 43.5461L89.1937 42.9312L88.6324 42.6781C86.2764 41.6131 83.668 41.0494 81.0887 41.0494Z" fill="#0F2B4A"/>
<path fill-rule="evenodd" clip-rule="evenodd" d="M15.7595 66.5552C14.6489 66.5552 13.7476 67.4554 13.7476 68.5646C13.7476 69.6737 14.6489 70.5739 15.7595 70.5739C16.87 70.5739 17.7714 69.6737 17.7714 68.5646C17.7714 67.4554 16.87 66.5552 15.7595 66.5552Z" fill="#6EE3FF"/>
<path fill-rule="evenodd" clip-rule="evenodd" d="M4.6086 61.6652C4.10864 61.6652 3.70325 61.2603 3.70325 60.761C3.70325 60.7449 3.71129 60.7319 3.71129 60.7168H3.34814L10.087 95.3174H10.1273C10.1524 94.8402 10.5397 94.4574 11.0246 94.4574H14.3472L8.7823 61.6652H4.6086Z" fill="white"/>
<path fill-rule="evenodd" clip-rule="evenodd" d="M15.759 70.5737C14.6484 70.5737 13.7471 69.6735 13.7471 68.5643C13.7471 67.4551 14.6484 66.5549 15.759 66.5549C16.8696 66.5549 17.7709 67.4551 17.7709 68.5643C17.7709 69.6735 16.8696 70.5737 15.759 70.5737ZM22.1106 61.665H8.78271L14.3476 94.4572H22.1106C22.3751 94.4572 22.5904 94.2422 22.5904 93.977V62.1443C22.5904 61.88 22.3751 61.665 22.1106 61.665Z" fill="#0D4F80"/>
<path fill-rule="evenodd" clip-rule="evenodd" d="M93.682 79.5494C93.6136 79.678 93.521 79.8137 93.4094 79.9573C93.4094 79.9573 93.4094 79.9573 93.4083 79.9573C93.2102 80.2095 92.9577 80.4778 92.5915 80.7772C85.6263 84.8914 79.8833 88.2129 75.3716 90.7367C75.3706 90.7367 75.3706 90.7367 75.3706 90.7377C74.6946 91.1155 74.0498 91.4731 73.4291 91.8147C73.3114 91.88 73.2008 91.9403 73.0831 92.0046C72.5902 92.2759 72.1113 92.5381 71.6536 92.7853C71.5007 92.8687 71.3569 92.946 71.207 93.0264C70.8086 93.2414 70.4193 93.4494 70.0501 93.6453C69.8892 93.7317 69.7313 93.8141 69.5753 93.8955C69.2414 94.0723 68.9195 94.2401 68.6116 94.3988C68.4537 94.4792 68.2988 94.5596 68.1479 94.6369C67.8652 94.7806 67.5976 94.9142 67.3391 95.0428C67.1953 95.1152 67.0484 95.1885 66.9126 95.2548C66.6671 95.3744 66.4408 95.4829 66.2195 95.5864C66.0988 95.6436 65.972 95.7049 65.8594 95.7572C65.637 95.8596 65.4379 95.947 65.2427 96.0324C65.1582 96.0696 65.0616 96.1128 64.9812 96.147C64.7186 96.2575 64.4812 96.3529 64.276 96.4263C61.3115 97.4892 57.9807 97.4862 54.3231 96.3971L31.4608 91.006L25.0901 89.5039C24.8447 89.4457 24.4021 89.3452 24.4021 89.3452V89.1423V89.0257V68.1281C24.4021 68.1281 24.8698 67.9332 25.1294 67.8598L32.2616 65.8404C37.5096 65.6093 41.2055 67.0511 43.5836 70.252C45.8117 73.251 52.3545 74.4104 58.1266 75.4322C61.2058 75.9778 66.9347 76.9925 66.9347 78.0032V80.52C64.2971 81.4393 61.5941 82.3425 58.8278 83.2246L43.5373 78.5809C43.0615 78.4342 42.5535 78.7045 42.4076 79.1827C42.2627 79.66 42.5323 80.1653 43.0112 80.31L58.8388 85.1185L59.1084 85.0331C67.0574 82.5052 74.5196 79.8117 81.2866 77.0277C90.9377 73.0581 92.8078 76.453 93.7081 78.0846C93.8339 78.3137 94.0843 78.804 93.682 79.5494ZM95.2945 77.2125C93.7685 74.4466 90.5897 71.2457 80.5965 75.3559C76.8524 76.896 72.8859 78.4081 68.7464 79.88V78.0032C68.7464 75.4764 64.4239 74.7108 58.4435 73.6519C53.2719 72.7356 46.8378 71.5963 45.0382 69.174C42.2939 65.4827 37.9301 63.7567 32.0715 64.039L24.6355 66.1207C24.5479 66.1458 24.4755 66.1941 24.4021 66.2403V62.1451C24.4021 61.6348 24.228 61.1696 23.9454 60.7888C23.9273 60.7637 23.9061 60.7406 23.886 60.7165C23.4655 60.196 22.8308 59.8564 22.1115 59.8564H4.60897C4.12511 59.8564 3.73681 60.2392 3.71166 60.7165C3.71166 60.7325 3.70361 60.7456 3.70361 60.7607C3.70361 61.26 4.10901 61.6649 4.60897 61.6649H8.78367H22.1115C22.3751 61.6649 22.5904 61.8809 22.5904 62.1451V93.9778C22.5904 94.2421 22.3751 94.4571 22.1115 94.4571H14.3476H11.0249C10.5411 94.4571 10.1528 94.8399 10.1276 95.3171C10.1266 95.3322 10.1196 95.3462 10.1196 95.3613C10.1196 95.8606 10.525 96.2655 11.0249 96.2655H22.1115C23.374 96.2655 24.4021 95.2397 24.4021 93.9778V91.1386C24.4856 91.1918 24.5731 91.2401 24.6737 91.2642L53.8563 98.1433C55.8401 98.7351 57.7554 99.0304 59.5903 99.0304C60.2119 99.0304 60.8195 98.9832 61.4221 98.9159C61.4865 98.9089 61.5519 98.8998 61.6152 98.8908C62.7399 98.7511 63.8354 98.506 64.8886 98.1282C68.1378 96.9608 77.5213 91.7836 93.5713 82.2993L93.6779 82.2259C96.1878 80.2105 95.9423 78.387 95.2945 77.2125Z" fill="#0F2B4A"/>
<path fill-rule="evenodd" clip-rule="evenodd" d="M93.7088 78.0852C92.8075 76.4526 90.9384 73.0577 81.2863 77.0272C74.5203 79.8123 67.0581 82.5048 59.1081 85.0337L58.8395 85.118L43.0119 80.3106C42.533 80.1649 42.2624 79.6605 42.4083 79.1823C42.5531 78.7041 43.0612 78.4348 43.538 78.5805L58.8274 83.2252C61.5938 82.3421 64.2978 81.4389 66.9354 80.5196V78.0038C66.9354 76.9921 61.2055 75.9773 58.1273 75.4328C52.3551 74.41 45.8124 73.2516 43.5842 70.2516C41.2062 67.0516 37.5103 65.6089 32.2623 65.841L25.1291 67.8604C24.8695 67.9338 24.4028 68.0664 24.4028 68.0664V89.0253L60.1734 94.1311L93.6827 79.55C94.085 78.8046 93.8345 78.3143 93.7088 78.0852ZM25.0909 89.5038L31.4616 91.0058L24.4019 89.1421V89.3451C24.4019 89.3451 24.8455 89.4456 25.0909 89.5038Z" fill="#FEDAC6"/>
<path fill-rule="evenodd" clip-rule="evenodd" d="M93.6823 79.5498C93.6139 79.6774 93.5213 79.814 93.4097 79.9567C93.5213 79.814 93.6139 79.6774 93.6823 79.5498Z" fill="#FEDAC6"/>
<path fill-rule="evenodd" clip-rule="evenodd" d="M60.1735 94.1304L24.4019 89.0246V89.1421L31.4616 91.0058L54.3239 96.397C57.9805 97.4851 61.3122 97.4891 64.2758 96.4262C64.481 96.3518 64.7194 96.2574 64.9809 96.1469C65.0614 96.1127 65.158 96.0695 65.2435 96.0323C65.4376 95.9469 65.6378 95.8595 65.8591 95.757C65.9728 95.7048 66.0996 95.6435 66.2203 95.5862C66.4406 95.4828 66.6669 95.3753 66.9124 95.2547C67.0492 95.1884 67.195 95.114 67.3399 95.0427C67.5984 94.9141 67.865 94.7795 68.1487 94.6358C68.2986 94.5594 68.4535 94.4791 68.6124 94.3987C68.9202 94.2389 69.2411 94.0712 69.5761 93.8953C69.732 93.814 69.889 93.7316 70.0499 93.6452C70.4211 93.4493 70.8074 93.2413 71.2078 93.0263C71.3567 92.9459 71.5015 92.8685 71.6534 92.7852C72.1111 92.538 72.591 92.2758 73.0839 92.0045C73.2006 91.9402 73.3122 91.8799 73.4299 91.8146C74.0506 91.472 74.6954 91.1153 75.3704 90.7376C75.3704 90.7366 75.3704 90.7366 75.3714 90.7366C79.8841 88.2128 85.6271 84.8913 92.5923 80.7771C92.9585 80.4777 93.211 80.2094 93.4081 79.9572H93.4091C93.5208 79.8136 93.6133 79.6779 93.6828 79.5493L60.1735 94.1304Z" fill="#F6C7B4"/>
</svg>
