<svg width="108" height="114" viewBox="0 0 108 114" fill="none" xmlns="http://www.w3.org/2000/svg">
<path fill-rule="evenodd" clip-rule="evenodd" d="M57.8777 113.368C93.2887 108.155 98.7262 100.367 103.863 91.7941C113.809 75.1934 105.191 45.4086 84.7745 45.5737C64.8581 49.7018 68.9618 16.1551 30.6791 27.0345C6.69444 33.8507 -4.01498 53.1965 1.36093 71.7788C6.73786 90.361 22.4678 118.581 57.8777 113.368Z" fill="#E5E5E5"/>
<path fill-rule="evenodd" clip-rule="evenodd" d="M46.6561 -0.000488281C46.1017 -0.000488281 45.6544 0.442852 45.6544 0.991272V6.96085C45.6544 7.50827 46.1017 7.95261 46.6561 7.95261C47.2094 7.95261 47.6578 7.50827 47.6578 6.96085V0.991272C47.6578 0.442852 47.2094 -0.000488281 46.6561 -0.000488281ZM40.0612 12.5575H34.0471C33.4938 12.5575 33.0444 13.0009 33.0444 13.5483C33.0444 14.0967 33.4938 14.5401 34.0471 14.5401H40.0612C40.6155 14.5401 41.0629 14.0967 41.0629 13.5483C41.0629 13.0009 40.6155 12.5575 40.0612 12.5575ZM37.6966 3.52081C37.3038 3.13352 36.6707 3.13251 36.2809 3.52081C35.8901 3.90811 35.8911 4.53659 36.2829 4.92389L41.6467 10.0758C42.0395 10.4631 42.6726 10.4631 43.0624 10.0758C43.4532 9.68854 43.4521 9.06006 43.0604 8.67176L37.6966 3.52081Z" fill="#EC0000"/>
<path fill-rule="evenodd" clip-rule="evenodd" d="M91.4407 22.0819L90.3653 23.1487L88.8901 21.6856L87.4138 23.1487L86.3374 22.0819L87.8137 20.6198L86.3374 19.1577L87.4138 18.0908L88.8901 19.553L90.3653 18.0898L91.4417 19.1567L89.9654 20.6198L91.4407 22.0819Z" fill="#6EE3FF"/>
<path fill-rule="evenodd" clip-rule="evenodd" d="M17.8837 67.8354C15.9309 67.8354 14.3496 66.2672 14.3496 64.3328C14.3496 62.3983 15.9309 60.8301 17.8837 60.8301C19.8366 60.8301 21.4179 62.3983 21.4179 64.3328C21.4179 66.2672 19.8366 67.8354 17.8837 67.8354ZM17.8837 65.8339C18.7198 65.8339 19.3984 65.1624 19.3984 64.3328C19.3984 63.5031 18.7198 62.8316 17.8837 62.8316C17.0477 62.8316 16.3691 63.5031 16.3691 64.3328C16.3691 65.1624 17.0477 65.8339 17.8837 65.8339Z" fill="#0D4F80"/>
<path fill-rule="evenodd" clip-rule="evenodd" d="M91.4407 70.119L90.3653 71.1848L88.8901 69.7227L87.4138 71.1858L86.3374 70.119L87.8137 68.6559L86.3374 67.1938L87.4138 66.127L88.8901 67.5901L90.3653 66.127L91.4417 67.1938L89.9654 68.6569L91.4407 70.119Z" fill="white"/>
<path fill-rule="evenodd" clip-rule="evenodd" d="M68.1451 89.6502C68.0573 89.6141 67.9836 89.5571 67.9129 89.4971C67.8967 89.484 67.8775 89.479 67.8644 89.465C67.7008 89.3089 67.5998 89.0917 67.5908 88.8516H62.8338C62.8338 88.8526 62.8328 88.8536 62.8318 88.8556C62.8227 89.0947 62.7238 89.3099 62.5602 89.465C62.546 89.479 62.5269 89.485 62.5107 89.4981C62.44 89.5581 62.3663 89.6141 62.2785 89.6502C62.1724 89.6942 62.0553 89.7202 61.9311 89.7202H21.3765V93.8554H85.1927V89.7202H68.4935C68.3703 89.7202 68.2511 89.6942 68.1451 89.6502Z" fill="white"/>
<path fill-rule="evenodd" clip-rule="evenodd" d="M21.3755 96.9253H85.1918V93.855H21.3755V96.9253Z" fill="#EC0000"/>
<path fill-rule="evenodd" clip-rule="evenodd" d="M63.2169 56.5806H40.7742L38.6265 65.9518H65.4515L63.2169 56.5806Z" fill="#EC0000"/>
<path fill-rule="evenodd" clip-rule="evenodd" d="M61.2329 48.2671L53.9203 17.5996H49.7036L42.6777 48.2671H61.2329Z" fill="#EC0000"/>
<path fill-rule="evenodd" clip-rule="evenodd" d="M67.5901 88.8514C67.5901 88.8404 67.583 88.8304 67.583 88.8193C67.583 88.322 67.9899 87.9187 68.4928 87.9187H70.689L67.4335 74.2632H36.723L33.5938 87.9187H61.9304C62.4333 87.9187 62.8392 88.322 62.8392 88.8193C62.8392 88.8304 62.8331 88.8404 62.8331 88.8514H67.5901Z" fill="#EC0000"/>
<path fill-rule="evenodd" clip-rule="evenodd" d="M70.3261 72.4417L68.8398 65.9517L67.7583 61.2301L66.6931 56.5805L64.7897 48.2671L57.7658 17.5996H53.9217L61.2343 48.2671H42.6791L40.7748 56.5805H63.2175L65.4521 65.9517H38.627L36.7236 74.2631H67.4342L70.6896 87.9185H73.8714L70.3261 72.4417Z" fill="white"/>
<path fill-rule="evenodd" clip-rule="evenodd" d="M85.1919 93.8552V96.9256H21.3757V93.8552V89.7201H61.9303C62.0545 89.7201 62.1716 89.695 62.2787 89.65C62.3655 89.614 62.4402 89.5589 62.5099 89.4979C62.5261 89.4859 62.5452 89.4789 62.5594 89.4649C62.7199 89.3097 62.8219 89.0936 62.831 88.8554C62.832 88.8534 62.833 88.8524 62.833 88.8514C62.833 88.8404 62.8391 88.8304 62.8391 88.8194C62.8391 88.322 62.4332 87.9187 61.9303 87.9187H33.5936L36.7229 74.2632L38.6273 65.9518L40.775 56.5806L42.6784 48.2673L49.7042 17.5997H53.921H57.7651L64.7889 48.2673L66.6933 56.5806L67.7576 61.2302L68.84 65.9518L70.3254 72.4418L73.8706 87.9187H70.6899H68.4927C67.9908 87.9187 67.5839 88.322 67.5839 88.8194C67.5839 88.8304 67.59 88.8404 67.59 88.8514C67.599 89.0916 67.702 89.3087 67.8636 89.4649C67.8777 89.4789 67.8959 89.4849 67.9121 89.4979C67.9817 89.5579 68.0575 89.614 68.1443 89.65C68.2513 89.695 68.3695 89.7201 68.4927 89.7201H85.1919V93.8552ZM75.7346 87.9187L59.2161 15.7974H48.2532L31.7307 87.9187H19.5581V98.727H87.0095V87.9187H75.7346Z" fill="#0F2B4A"/>
</svg>
