<svg width="160" height="96" viewBox="0 0 160 96" fill="none" xmlns="http://www.w3.org/2000/svg">
<path fill-rule="evenodd" clip-rule="evenodd" d="M10.1165 57.1581C9.82952 57.0587 9.54457 56.9533 9.26367 56.8379C9.54457 56.9543 9.82952 57.0587 10.1165 57.1581Z" fill="#EC0000"/>
<path fill-rule="evenodd" clip-rule="evenodd" d="M80.0055 3.07178C55.2176 3.07178 35.123 23.0231 35.123 47.6332C35.123 72.2433 55.2176 92.1947 80.0045 92.1947C104.781 92.1665 124.86 72.2313 124.888 47.6332C124.888 23.0231 104.794 3.07178 80.0055 3.07178Z" fill="#191919"/>
<path fill-rule="evenodd" clip-rule="evenodd" d="M92.6596 21.9079C89.4565 18.3161 84.856 16.2613 80.0251 16.2613C80.015 16.2613 80.0069 16.2623 79.9978 16.2623L80.019 16.2241C75.1922 16.2322 70.5977 18.285 67.3896 21.8667C66.9561 22.3586 66.5812 22.8896 66.2377 23.4347L65.7345 24.296C65.5789 24.5931 65.4294 24.8933 65.3 25.2015C65.2808 25.2466 65.2636 25.2928 65.2455 25.338C64.4129 27.3607 64.132 29.5852 64.4856 31.7786L66.2923 46.0402C67.136 52.8723 73.0763 57.9467 80.0079 57.754H80.0089C86.9253 57.9407 92.8596 52.8944 93.7367 46.0803L95.5221 31.8198C96.0991 28.2571 95.0502 24.6253 92.6596 21.9079Z" fill="#FEDAC6"/>
<path fill-rule="evenodd" clip-rule="evenodd" d="M80.1887 68.4907C79.9684 68.4967 79.7481 68.4867 79.5299 68.4727C79.7492 68.4847 79.9684 68.4998 80.1887 68.4907ZM65.2107 89.1014C64.3579 88.8072 63.5132 88.495 62.6826 88.1517C63.5132 88.495 64.3599 88.8072 65.2107 89.1014Z" fill="#EC0000"/>
<path fill-rule="evenodd" clip-rule="evenodd" d="M114.606 75.1399C112.226 68.5698 105.464 64.4852 96.9484 64.4852C92.1165 64.4852 86.4631 66.3894 82.5861 67.9996C82.1819 68.1622 81.7666 68.2817 81.3463 68.366C81.7636 68.2807 82.1769 68.1713 82.575 68.0086C86.4631 66.3995 90.9575 67.9886 87.0694 69.5877C85.4052 70.2613 83.542 70.2613 81.8768 69.5877C80.9128 69.1801 79.8559 68.7836 78.7272 68.4062C78.8697 68.4323 79.0122 68.4262 79.1546 68.4423C78.5555 68.37 77.9623 68.2295 77.3945 67.9996C73.4447 66.3894 67.7499 64.4741 63.0311 64.4741C55.1103 64.4741 48.0828 68.7023 45.5173 75.0074L45.3223 75.425C45.3233 75.426 45.3253 75.428 45.3263 75.429L45.5173 75.0174C48.0828 68.7123 55.1103 64.4852 63.0311 64.4852C67.4316 64.4852 72.6636 66.1556 76.5639 67.6834C76.4538 67.6473 76.3426 67.6212 76.2325 67.587C76.6255 67.7386 77.0196 67.8912 77.3834 68.0398L77.7431 68.1622L65.4986 89.1967C70.1224 90.7617 75.0139 91.6029 80.0105 91.6029C93.421 91.6029 106.135 85.6732 114.699 75.425L114.606 75.1399Z" fill="#083F6B"/>
<path fill-rule="evenodd" clip-rule="evenodd" d="M63.0201 64.5155C67.3033 64.5155 72.3767 66.0915 76.2325 67.5872C76.3426 67.6213 76.4538 67.6474 76.5629 67.6836C72.6637 66.1557 67.4316 64.4854 63.0312 64.4854C55.1104 64.4854 48.0828 68.7125 45.5173 75.0176L45.3253 75.4292L45.3213 75.4352C45.3223 75.4362 45.3233 75.4372 45.3243 75.4382L45.5072 75.0487C48.0717 68.7426 55.0993 64.5155 63.0201 64.5155Z" fill="#990000"/>
<path fill-rule="evenodd" clip-rule="evenodd" d="M45.5173 75.0078L45.3223 75.4254C45.3233 75.4264 45.3253 75.4274 45.3263 75.4284L45.5173 75.0178C45.5355 74.9736 45.5587 74.9315 45.5779 74.8873C45.5769 74.8853 45.5759 74.8843 45.5749 74.8833C45.5567 74.9255 45.5345 74.9656 45.5173 75.0078Z" fill="#083F6B"/>
<path fill-rule="evenodd" clip-rule="evenodd" d="M115.276 75.0837C112.851 68.3861 105.958 64.2222 97.2782 64.2222C93.8256 64.2222 89.9728 65.1808 86.609 66.3162C85.2055 66.3152 83.5605 66.5822 81.9853 67.2347C81.4396 67.4565 80.8718 67.6071 80.2999 67.7236C80.2544 67.7336 80.2079 67.7396 80.1625 67.7477C79.6835 67.838 79.1975 67.8751 78.7105 67.8952C78.4094 67.9083 78.1092 67.8872 77.8051 67.8701C77.6899 67.8641 77.5737 67.8521 77.4575 67.842C77.4201 67.827 77.3807 67.8199 77.3433 67.8049C75.1366 66.9054 72.3942 65.9237 69.5741 65.21C69.559 65.2079 69.5428 65.2079 69.5286 65.2059C72.0113 65.8343 74.4363 66.6756 76.4966 67.4826C76.3855 67.4465 76.2713 67.4194 76.1601 67.3843C74.1302 66.5973 71.7698 65.7932 69.3609 65.1939C68.7708 65.1427 68.1807 65.0905 67.5886 65.0704C59.4556 65.0704 52.2391 69.412 49.6059 75.8858L48.7218 78.814C47.3738 77.5622 46.1047 76.2291 44.9134 74.8287C44.8912 74.8839 44.8609 74.9351 44.8397 74.9904L44.6538 75.3879L44.6406 75.416C45.6945 76.6698 46.8302 77.8433 48.0064 78.9716C48.07 79.0328 48.1337 79.0961 48.1984 79.1573C48.7197 79.6522 49.2502 80.134 49.7938 80.6038C49.9828 80.7665 50.1758 80.9261 50.3678 81.0857C50.8528 81.4922 51.3398 81.8968 51.842 82.2822C52.1744 82.5372 52.517 82.7781 52.8555 83.0241C53.4365 83.4447 54.0225 83.8573 54.6227 84.2508C55.1885 84.6222 55.7584 84.9906 56.3415 85.3369C56.6213 85.5036 56.9053 85.6602 57.1902 85.8198C57.7823 86.1561 58.3785 86.4823 58.9858 86.7925C59.2353 86.919 59.4849 87.0445 59.7375 87.1669C60.4762 87.5273 61.2239 87.8696 61.9827 88.1898C62.104 88.241 62.2242 88.2973 62.3465 88.3474C63.1932 88.6978 64.0551 89.016 64.9241 89.3162C65.0211 89.3493 65.1141 89.3904 65.2121 89.4236L65.2181 89.4125C69.9308 91.0076 74.9183 91.8649 80.0109 91.8649C93.6821 91.8649 106.642 85.8208 115.371 75.3748L115.276 75.0837Z" fill="#083F6B"/>
<path fill-rule="evenodd" clip-rule="evenodd" d="M77.7 67.9709L77.5171 67.9087L77.3342 67.8454C76.9624 67.6948 76.5603 67.5392 76.1611 67.3847C74.1312 66.5966 71.7698 65.7926 69.3609 65.1943C68.7708 65.1431 68.1807 65.0909 67.5876 65.0708C59.4556 65.0708 52.2401 69.4114 49.6059 75.8852L48.7218 78.8144C47.3728 77.5616 46.1047 76.2295 44.9145 74.8291C44.8912 74.8833 44.8619 74.9345 44.8397 74.9897L44.6548 75.3883L44.6406 75.4164C45.6945 76.6702 46.8302 77.8427 48.0064 78.971C48.0711 79.0332 48.1337 79.0954 48.1994 79.1567C48.7197 79.6516 49.2512 80.1344 49.7948 80.6032C49.9828 80.7668 50.1768 80.9264 50.3678 81.0861C50.8538 81.4926 51.3398 81.8972 51.842 82.2816C52.1744 82.5366 52.517 82.7775 52.8555 83.0235C53.4365 83.4451 54.0225 83.8567 54.6227 84.2502C55.1896 84.6226 55.7584 84.991 56.3415 85.3373C56.6224 85.503 56.9063 85.6595 57.1892 85.8202C57.7823 86.1554 58.3795 86.4827 58.9858 86.7919C59.2364 86.9184 59.4859 87.0438 59.7375 87.1673C60.4762 87.5267 61.2239 87.869 61.9827 88.1902C62.104 88.2414 62.2252 88.2976 62.3465 88.3478C63.1942 88.6962 64.0551 89.0154 64.9241 89.3155C65.0211 89.3487 65.1151 89.3908 65.2131 89.4239L65.2181 89.4129L71.4586 78.6919L77.7 67.9709Z" fill="#0D4F80"/>
<path fill-rule="evenodd" clip-rule="evenodd" d="M48.5955 79.1927L49.4867 76.2444C52.137 69.7275 59.4 65.3588 67.5866 65.3588C68.1838 65.3789 68.7779 65.4311 69.371 65.4833C69.4266 65.4883 69.4832 65.4903 69.5398 65.4943C69.5549 65.4963 69.5711 65.4963 69.5852 65.4983C72.082 65.7342 74.5465 66.2412 76.9281 67.0332C72.8994 65.4532 67.4906 63.7266 62.9416 63.7266C54.7571 63.7266 47.4931 68.0963 44.8417 74.6132L44.6406 75.0449C44.678 75.089 44.7194 75.1302 44.7568 75.1744C44.7578 75.1764 44.7599 75.1774 44.7609 75.1784C44.7609 75.1794 44.7619 75.1804 44.7629 75.1814C45.9623 76.5908 47.2385 77.9319 48.5955 79.1927Z" fill="#083F6B"/>
<path fill-rule="evenodd" clip-rule="evenodd" d="M79.2733 2.02539C80.3655 2.02539 81.4487 2.06354 82.5218 2.13882C62.0716 3.79215 45.9289 23.3218 45.9289 47.1711C45.9289 71.0112 62.0595 90.5359 82.4986 92.2013C81.4346 92.2766 80.3575 92.3157 79.2733 92.3167C54.1609 92.3167 33.8037 72.1044 33.8037 47.1711C33.8037 22.2377 54.1609 2.02539 79.2733 2.02539Z" fill="white" fill-opacity="0.1"/>
<path fill-rule="evenodd" clip-rule="evenodd" d="M66.1398 25.549C66.259 25.2639 66.3984 24.9869 66.5409 24.7118C66.7723 24.2691 66.5985 23.724 66.1529 23.4941C65.7053 23.2663 65.1587 23.4369 64.9273 23.8806C64.7605 24.1998 64.5999 24.5221 64.4584 24.8594L64.4039 24.9959C63.4955 27.2033 63.2136 29.5985 63.5844 31.8913L65.39 46.1488C66.2792 53.3503 72.359 58.6637 79.5745 58.6627C79.7109 58.6627 79.8473 58.6606 79.9848 58.6576C87.4074 58.8353 93.6984 53.4989 94.6401 46.191L96.4205 31.9625C97.0419 28.1228 95.9213 24.241 93.3407 21.3088C90.3033 17.9028 86.0676 15.8057 81.5186 15.4223L81.5782 15.3179L80.0171 15.3209C74.9376 15.3289 70.0865 17.4962 66.7097 21.2666C66.3762 21.639 66.4106 22.2102 66.7854 22.5415C67.1613 22.8738 67.7342 22.8396 68.0697 22.4672C70.8666 19.3443 74.7891 17.447 78.9602 17.1639H80.0252C84.5944 17.1639 88.9503 19.1114 91.9746 22.5024C94.1955 25.025 95.1605 28.3688 94.6199 31.7076L92.8355 45.9651C92.014 52.3455 86.5192 57.0033 79.9817 56.8517C73.5261 57.0083 67.9858 52.3355 67.1947 45.9269L65.384 31.6353C65.0616 29.6397 65.3052 27.5808 66.0933 25.6634L66.1398 25.549Z" fill="white"/>
<path fill-rule="evenodd" clip-rule="evenodd" d="M51.6869 13.3885C52.4003 12.8043 53.1318 12.2431 53.8795 11.7051C54.2857 11.4119 54.3767 10.8468 54.0816 10.4432C53.7876 10.0387 53.2197 9.94834 52.8125 10.2415C52.0335 10.8016 51.2726 11.3858 50.53 11.9932C50.143 12.3104 50.0874 12.8806 50.4067 13.265C50.726 13.6505 51.2989 13.7057 51.6869 13.3885Z" fill="#5C5C5C"/>
<path fill-rule="evenodd" clip-rule="evenodd" d="M80.0049 91.7904C66.3721 91.7904 54.1762 85.7051 46.0028 76.1275L46.1149 75.8865C46.128 75.8645 46.1392 75.8424 46.1503 75.8193L46.3503 75.3866C48.7764 69.4248 55.4756 65.4185 63.0205 65.4185C66.3691 65.4185 70.8231 66.4595 75.9561 68.4471L76.2774 68.5405C76.2774 68.5405 76.8018 68.7342 77.0514 68.8356C77.5041 69.0183 78.1123 69.1789 78.4377 69.2632C78.6236 69.3244 78.8661 69.3706 79.141 69.3997L79.4481 69.4258C79.921 69.4519 80.7031 69.3626 81.1608 69.3024C81.3993 69.3977 81.6499 69.4921 81.8782 69.5875C83.5424 70.261 85.4057 70.261 87.0688 69.5875C89.4757 68.5987 88.6694 67.6149 86.7859 67.388C89.992 66.3039 93.6559 65.3884 96.9499 65.3884C105.066 65.3884 111.504 69.2421 113.741 75.4178L113.833 75.7028C113.878 75.8394 113.958 75.9518 114.05 76.0472C105.878 85.6599 93.665 91.7753 80.0049 91.7904ZM80.0059 1.49902C71.4819 1.49902 63.2943 3.78677 56.1455 8.05309C55.7151 8.31008 55.5756 8.8652 55.8343 9.29283C56.093 9.72047 56.6517 9.859 57.0812 9.60202C63.9491 5.50334 71.8143 3.30593 80.0059 3.30593C104.615 3.30593 124.566 23.1137 124.566 47.5482C124.554 57.6889 121.102 67.0247 115.318 74.4852C112.693 67.7524 105.701 63.5815 96.9499 63.5815C91.925 63.5815 86.1746 65.5299 82.244 67.1622C81.9247 67.2907 81.5812 67.3941 81.2204 67.4684L81.1628 67.4804L81.1467 67.4904C80.8951 67.5567 79.9291 67.7143 79.2703 67.6099L78.8762 67.5085C78.6651 67.4543 78.1012 67.3097 77.7405 67.1632C73.718 65.5239 67.9019 63.5714 63.0316 63.5714C54.7814 63.5714 47.4305 68.0004 44.7246 74.5575C38.9115 67.0849 35.4457 57.7211 35.4457 47.5482C35.4457 37.7888 38.6367 28.5113 44.4396 20.8912C45.7906 19.1174 47.2729 17.446 48.8754 15.8931C49.2351 15.5447 49.2432 14.9726 48.8916 14.6152C48.54 14.2588 47.965 14.2508 47.6053 14.6001C45.9381 16.2163 44.3941 17.955 42.9886 19.801C36.9483 27.7324 33.627 37.3923 33.627 47.5482C33.627 72.9804 54.3914 93.5973 80.0059 93.5973C105.608 93.5682 126.356 72.9694 126.385 47.5492C126.385 22.1159 105.62 1.49902 80.0059 1.49902Z" fill="#5C5C5C"/>
<path fill-rule="evenodd" clip-rule="evenodd" d="M98.2002 76.4249C98.2002 65.6135 107.021 56.85 117.904 56.85C120.133 56.85 122.267 57.2345 124.264 57.9121C121.58 56.6021 118.571 55.8462 115.378 55.8462C104.216 55.8462 95.1689 64.8346 95.1689 75.923C95.1689 87.0104 104.216 95.9998 115.378 95.9998C115.804 95.9998 116.22 95.9616 116.641 95.9365C106.349 95.286 98.2002 86.8116 98.2002 76.4249Z" fill="#191919"/>
<path fill-rule="evenodd" clip-rule="evenodd" d="M124.265 57.9127H124.264C123.832 57.7661 123.393 57.6386 122.948 57.5222C122.813 57.486 122.68 57.4519 122.544 57.4188C122.181 57.3315 121.814 57.2521 121.443 57.1849C121.428 57.1819 121.414 57.1789 121.399 57.1759C121.131 57.1267 120.859 57.0905 120.587 57.0524C120.296 57.0132 120.008 56.9681 119.714 56.941C119.117 56.8847 118.516 56.8496 117.904 56.8496C112.773 56.8496 108.116 58.8141 104.609 62.0073C100.68 65.586 98.2002 70.7116 98.2002 76.4245C98.2002 77.087 98.2345 77.7415 98.3002 78.387C98.3235 78.6179 98.3699 78.8417 98.4003 79.0706C98.4568 79.4792 98.5074 79.8897 98.5882 80.2903C98.6448 80.5693 98.7256 80.8384 98.7933 81.1124C98.8772 81.4517 98.953 81.793 99.055 82.1253C99.148 82.4284 99.2642 82.7216 99.3713 83.0197C99.4754 83.3068 99.5714 83.5979 99.6886 83.879C99.8219 84.2012 99.9765 84.5114 100.127 84.8246C100.243 85.0645 100.351 85.3095 100.477 85.5444C100.655 85.8796 100.852 86.2009 101.048 86.5241C101.169 86.7209 101.282 86.9206 101.409 87.1134C101.635 87.4557 101.877 87.7829 102.123 88.1102C102.24 88.2658 102.352 88.4254 102.475 88.578C102.75 88.9223 103.042 89.2505 103.339 89.5758C103.447 89.6942 103.552 89.8147 103.664 89.9301C103.991 90.2704 104.333 90.5937 104.684 90.9099C104.778 90.9952 104.871 91.0815 104.966 91.1649C105.346 91.4941 105.74 91.8043 106.143 92.1045C106.221 92.1607 106.296 92.2189 106.374 92.2751C106.805 92.5853 107.249 92.8754 107.705 93.1505C107.763 93.1846 107.821 93.2207 107.878 93.2549C108.077 93.3723 108.288 93.4707 108.492 93.5811C108.779 93.7367 109.06 93.8993 109.355 94.0409C109.395 94.0599 109.433 94.079 109.473 94.0971C109.998 94.345 110.535 94.5689 111.083 94.7696C111.107 94.7787 111.13 94.7867 111.153 94.7957C111.718 95.0005 112.293 95.1792 112.88 95.3328C112.89 95.3358 112.901 95.3378 112.911 95.3408C113.508 95.4964 114.116 95.6239 114.734 95.7233L114.743 95.7243C115.366 95.8247 115.998 95.896 116.641 95.9361C116.682 95.9391 116.723 95.9401 116.765 95.9421C117.143 95.9682 117.519 95.9994 117.904 95.9994C128.786 95.9994 137.607 87.2358 137.607 76.4245C137.607 67.8286 132.021 60.5437 124.265 57.9127Z" fill="#EC0000"/>
<path fill-rule="evenodd" clip-rule="evenodd" d="M124.266 57.9128H124.265C123.833 57.7663 123.394 57.6388 122.948 57.5223C122.814 57.4862 122.681 57.4521 122.544 57.419C122.182 57.3316 121.815 57.2523 121.444 57.1851C127.343 60.0641 131.545 67.3509 131.545 75.9227C131.545 86.6297 125.003 95.3531 116.766 95.9423C117.144 95.9684 117.519 95.9995 117.904 95.9995C128.787 95.9995 137.608 87.236 137.608 76.4246C137.608 67.8288 132.022 60.5439 124.266 57.9128Z" fill="#990000"/>
<path fill-rule="evenodd" clip-rule="evenodd" d="M125.271 75.2937V77.984H118.313V84.8583H115.597V77.984H108.638V75.2937H115.597V68.4194H118.313V75.2937H125.271Z" fill="white"/>
<path fill-rule="evenodd" clip-rule="evenodd" d="M142.417 0C134.111 0 127.355 6.70866 127.355 14.9552C127.355 23.2017 134.111 29.9104 142.417 29.9104C150.712 29.9014 157.469 23.1927 157.479 14.9552C157.479 6.70866 150.722 0 142.417 0Z" fill="#191919"/>
<path fill-rule="evenodd" clip-rule="evenodd" d="M146.681 6.408C145.602 5.19737 144.051 4.50472 142.423 4.50472C142.42 4.50472 142.417 4.50472 142.414 4.50472L142.421 4.49268C140.795 4.49569 139.246 5.18733 138.165 6.39395C138.019 6.55958 137.893 6.73827 137.777 6.92197L137.608 7.21308C137.556 7.31246 137.505 7.41385 137.462 7.51724C137.455 7.53331 137.448 7.54836 137.442 7.56342C137.162 8.24503 137.067 8.9949 137.187 9.73372L137.795 14.5401C138.079 16.8429 140.082 18.5525 142.417 18.4872H142.418C144.749 18.5504 146.748 16.8499 147.044 14.5532L147.645 9.74778C147.84 8.54718 147.486 7.3235 146.681 6.408Z" fill="#FEDAC6"/>
<path fill-rule="evenodd" clip-rule="evenodd" d="M137.795 14.5396C138.08 16.8425 140.082 18.552 142.417 18.4877H142.418C142.728 18.4877 143.036 18.4606 143.34 18.4054C140.908 18.033 139.019 16.1036 138.715 13.6784L138.42 11.3595L137.581 12.8L137.194 9.73427C137.075 8.99343 137.167 8.24457 137.442 7.56396C137.162 8.24557 137.067 8.99444 137.187 9.73427L137.795 14.5396Z" fill="#F6C7B4"/>
<path fill-rule="evenodd" clip-rule="evenodd" d="M137.608 7.21259C137.556 7.31298 137.505 7.41336 137.461 7.51776C137.456 7.53282 137.449 7.54788 137.443 7.56394C137.167 8.24354 137.076 8.9924 137.195 9.73424L137.582 12.799L138.421 11.3595L142.415 4.50524L142.422 4.49219C140.795 4.4942 139.247 5.18684 138.166 6.39446C138.019 6.5601 137.893 6.73778 137.777 6.92148" fill="#FEE5D7"/>
<path fill-rule="evenodd" clip-rule="evenodd" d="M137.431 29.0507C137.144 28.9513 136.859 28.8459 136.578 28.7305C136.859 28.8469 137.144 28.9513 137.431 29.0507Z" fill="#EC0000"/>
<path fill-rule="evenodd" clip-rule="evenodd" d="M154.077 24.3462C153.274 22.1317 150.996 20.7555 148.126 20.7555C146.498 20.7555 144.593 21.3969 143.286 21.94C143.151 21.9942 143.01 22.0354 142.868 22.0635C143.009 22.0344 143.149 21.9982 143.282 21.943C144.593 21.4009 146.107 21.936 144.797 22.4751C144.236 22.7019 143.609 22.7019 143.048 22.4751C142.723 22.3385 142.367 22.204 141.986 22.0765C142.033 22.0856 142.082 22.0836 142.13 22.0886C141.928 22.0655 141.728 22.0173 141.537 21.94C140.205 21.3969 138.287 20.7515 136.697 20.7515C134.028 20.7515 131.659 22.1769 130.795 24.302L130.729 24.4426C130.729 24.4426 130.731 24.4426 130.731 24.4436L130.795 24.3051C131.659 22.1799 134.028 20.7555 136.697 20.7555C138.18 20.7555 139.943 21.3186 141.256 21.8336C141.22 21.8206 141.181 21.8125 141.145 21.8005C141.277 21.8517 141.411 21.9029 141.533 21.9531L141.654 21.9942L137.528 29.0833C139.086 29.6103 140.735 29.8934 142.418 29.8934C146.938 29.8934 151.222 27.8958 154.107 24.4426L154.077 24.3462Z" fill="#083F6B"/>
<path fill-rule="evenodd" clip-rule="evenodd" d="M143.047 22.4754C143.608 22.7023 144.236 22.7023 144.796 22.4754C146.107 21.9363 144.592 21.4013 143.282 21.9434C143.148 21.9976 143.009 22.0347 142.867 22.0628C142.857 22.0658 142.846 22.0668 142.834 22.0688C142.717 22.0919 142.598 22.1 142.478 22.105C142.404 22.109 142.33 22.103 142.256 22.099C142.214 22.0969 142.171 22.0939 142.13 22.0889C142.081 22.0839 142.033 22.0859 141.985 22.0769C142.366 22.2044 142.723 22.3379 143.047 22.4754Z" fill="black"/>
<path fill-rule="evenodd" clip-rule="evenodd" d="M136.693 20.7654C138.137 20.7654 139.846 21.2964 141.145 21.8004C141.181 21.8124 141.22 21.8204 141.257 21.8325C139.943 21.3185 138.18 20.7554 136.697 20.7554C134.028 20.7554 131.66 22.1798 130.795 24.3049L130.73 24.4435L130.729 24.4455L130.73 24.4465L130.791 24.315C131.656 22.1899 134.024 20.7654 136.693 20.7654Z" fill="#990000"/>
<path fill-rule="evenodd" clip-rule="evenodd" d="M154.077 24.3456C153.274 22.1311 150.996 20.7549 148.126 20.7549C146.498 20.7549 144.593 21.3973 143.285 21.9394C143.151 21.9946 143.01 22.0348 142.868 22.0629C143.009 22.0348 143.149 21.9976 143.282 21.9424C144.593 21.4004 146.107 21.9364 144.797 22.4755C144.237 22.7013 143.609 22.7013 143.048 22.4755C142.723 22.3379 142.366 22.2034 141.986 22.0769C142.034 22.086 142.082 22.084 142.13 22.089C141.928 22.0649 141.728 22.0167 141.537 21.9394C140.807 21.6423 139.9 21.317 138.969 21.0821C138.964 21.0811 138.958 21.0811 138.953 21.0811C139.774 21.2879 140.576 21.566 141.256 21.833C141.219 21.821 141.182 21.8129 141.145 21.8009C140.474 21.5409 139.694 21.2739 138.898 21.0771C138.703 21.06 138.508 21.042 138.311 21.036C135.623 21.036 133.237 22.4704 132.368 24.6106L132.074 25.5793C131.629 25.1647 131.21 24.7241 130.815 24.2623C130.808 24.2804 130.799 24.2964 130.791 24.3155L130.731 24.447L130.727 24.456C131.074 24.8696 131.449 25.2581 131.838 25.6305C131.859 25.6516 131.88 25.6717 131.903 25.6928C132.074 25.8554 132.249 26.016 132.429 26.1706C132.493 26.2248 132.555 26.277 132.619 26.3302C132.78 26.4647 132.94 26.5982 133.106 26.7257C133.216 26.81 133.329 26.8893 133.442 26.9707C133.634 27.1102 133.827 27.2467 134.026 27.3762C134.214 27.4997 134.401 27.6211 134.595 27.7356C134.686 27.7908 134.78 27.842 134.874 27.8952C135.069 28.0056 135.267 28.114 135.469 28.2164C135.55 28.2586 135.633 28.2997 135.716 28.3399C135.961 28.4594 136.207 28.5728 136.459 28.6782C136.499 28.6953 136.539 28.7143 136.579 28.7304C136.859 28.8458 137.144 28.9512 137.431 29.0506C137.464 29.0617 137.494 29.0757 137.526 29.0868L137.529 29.0827C139.086 29.6098 140.735 29.8938 142.418 29.8938C146.938 29.8938 151.222 27.8952 154.107 24.442L154.077 24.3456Z" fill="#083F6B"/>
<path fill-rule="evenodd" clip-rule="evenodd" d="M137.99 21.2298C138.178 21.2358 138.365 21.2528 138.552 21.2689C138.569 21.2709 138.587 21.2709 138.603 21.2729C138.608 21.2729 138.613 21.2729 138.618 21.2739C139.403 21.3482 140.178 21.5068 140.927 21.7558C139.66 21.2599 137.961 20.7168 136.53 20.7168C133.956 20.7168 131.673 22.09 130.839 24.1389L130.775 24.2754C130.788 24.2885 130.801 24.3025 130.812 24.3156C130.813 24.3166 130.813 24.3166 130.813 24.3176H130.814C131.191 24.7613 132.121 25.7641 132.548 26.1606" fill="#083F6B"/>
<path fill-rule="evenodd" clip-rule="evenodd" d="M141.654 21.9943L141.594 21.9732L141.533 21.9532C141.411 21.903 141.278 21.8518 141.145 21.8006C140.474 21.5406 139.694 21.2746 138.897 21.0768C138.703 21.0597 138.508 21.0427 138.311 21.0356C135.623 21.0356 133.238 22.4711 132.368 24.6103L132.075 25.579C131.629 25.1654 131.21 24.7248 130.815 24.262C130.808 24.2801 130.799 24.2961 130.791 24.3152L130.73 24.4467L130.727 24.4557C131.074 24.8703 131.449 25.2578 131.838 25.6312C131.86 25.6513 131.88 25.6724 131.902 25.6925C132.074 25.8561 132.249 26.0157 132.429 26.1703C132.492 26.2245 132.555 26.2777 132.619 26.3299C132.78 26.4644 132.94 26.5979 133.106 26.7254C133.215 26.8097 133.329 26.889 133.442 26.9713C133.634 27.1099 133.828 27.2464 134.026 27.3759C134.214 27.4994 134.401 27.6208 134.594 27.7353C134.686 27.7905 134.78 27.8417 134.874 27.8949C135.069 28.0063 135.267 28.1137 135.469 28.2161C135.55 28.2583 135.633 28.2994 135.716 28.3406C135.961 28.459 136.207 28.5725 136.458 28.6789C136.498 28.6959 136.539 28.714 136.579 28.7301C136.859 28.8465 137.144 28.9519 137.431 29.0503C137.463 29.0623 137.494 29.0754 137.526 29.0864L137.528 29.0834L139.591 25.5389L141.654 21.9943Z" fill="#0D4F80"/>
<path fill-rule="evenodd" clip-rule="evenodd" d="M28.2522 53.809V54.8561H25.5433V57.5323H24.4853V54.8561H21.7764V53.809H24.4853V51.1328H25.5433V53.809H28.2522Z" fill="white"/>
<path fill-rule="evenodd" clip-rule="evenodd" d="M154.806 17.9302C154.638 17.873 154.466 17.8238 154.294 17.7786C154.241 17.7635 154.19 17.7505 154.137 17.7385C153.995 17.7043 153.853 17.6732 153.708 17.6471C153.702 17.6461 153.697 17.6441 153.69 17.6431C153.586 17.624 153.48 17.61 153.375 17.5959C153.262 17.5798 153.149 17.5628 153.035 17.5517C152.803 17.5307 152.568 17.5166 152.329 17.5166C150.332 17.5166 148.519 18.2815 147.155 19.5243C145.624 20.9176 144.659 22.9132 144.659 25.1378C144.659 25.3957 144.672 25.6497 144.698 25.9007C144.707 25.991 144.725 26.0784 144.737 26.1677C144.759 26.3263 144.778 26.4859 144.81 26.6425C144.832 26.7509 144.863 26.8563 144.89 26.9627C144.923 27.0942 144.952 27.2277 144.992 27.3562C145.027 27.4747 145.072 27.5891 145.115 27.7046C145.155 27.817 145.193 27.9294 145.238 28.0399C145.29 28.1653 145.351 28.2858 145.409 28.4073C145.453 28.5016 145.496 28.596 145.545 28.6883C145.614 28.8188 145.691 28.9433 145.768 29.0688C145.815 29.1461 145.859 29.2234 145.907 29.2987C145.996 29.4322 146.091 29.5587 146.186 29.6861C146.232 29.7474 146.276 29.8096 146.322 29.8688C146.43 30.0034 146.544 30.1308 146.659 30.2573C146.701 30.3035 146.743 30.3507 146.786 30.3949C146.912 30.5274 147.046 30.6539 147.183 30.7763C147.22 30.8104 147.255 30.8436 147.292 30.8757C147.441 31.0042 147.593 31.1257 147.752 31.2421C147.781 31.2642 147.811 31.2863 147.841 31.3084C148.009 31.4288 148.182 31.5422 148.359 31.6497C148.383 31.6627 148.404 31.6758 148.427 31.6898C148.505 31.735 148.587 31.7741 148.667 31.8163C148.777 31.8775 148.888 31.9408 149.002 31.996C149.017 32.003 149.032 32.01 149.047 32.0181C149.253 32.1134 149.461 32.2008 149.675 32.2791C149.684 32.2831 149.692 32.2861 149.701 32.2891C149.922 32.3694 150.146 32.4387 150.373 32.4989C150.377 32.4999 150.381 32.5009 150.386 32.5019C150.618 32.5621 150.855 32.6113 151.096 32.6515H151.1C151.342 32.6906 151.588 32.7177 151.837 32.7338C151.853 32.7348 151.871 32.7348 151.887 32.7368C152.033 32.7459 152.18 32.7579 152.329 32.7579C156.566 32.7579 160.001 29.3469 160.001 25.1378C160.001 21.791 157.825 18.9551 154.806 17.9302Z" fill="#6EE3FF"/>
<path fill-rule="evenodd" clip-rule="evenodd" d="M152.859 22.0215H151.8V24.6977H149.091V25.7447H151.8V28.421H152.859V25.7447H155.568V24.6977H152.859V22.0215Z" fill="white"/>
<path fill-rule="evenodd" clip-rule="evenodd" d="M15.102 28.0674C6.77496 28.0674 0 34.7941 0 43.0627C0 51.3314 6.77496 58.0581 15.102 58.0581C23.4199 58.0491 30.1958 51.3223 30.2049 43.0627C30.2049 34.7941 23.43 28.0674 15.102 28.0674Z" fill="#191919"/>
<path fill-rule="evenodd" clip-rule="evenodd" d="M19.3664 34.5154C18.2872 33.3048 16.7362 32.6121 15.1084 32.6121C15.1054 32.6121 15.1023 32.6121 15.0993 32.6121L15.1064 32.6001C13.4806 32.6031 11.9316 33.2948 10.8504 34.5014C10.7049 34.667 10.5786 34.8457 10.4624 35.0294L10.2937 35.3205C10.2411 35.4199 10.1906 35.5213 10.1472 35.6247C10.1401 35.6407 10.134 35.6558 10.128 35.6708C9.84707 36.3525 9.75209 37.1023 9.87233 37.8411L10.4806 42.6475C10.7645 44.9503 12.7672 46.6599 15.1023 46.5946H15.1034C17.4344 46.6579 19.4331 44.9574 19.7291 42.6606L20.3303 37.8552C20.5253 36.6546 20.1717 35.4309 19.3664 34.5154Z" fill="#FEDAC6"/>
<path fill-rule="evenodd" clip-rule="evenodd" d="M10.4806 42.6471C10.7656 44.9499 12.7672 46.6594 15.1023 46.5952H15.1034C15.4136 46.5952 15.7217 46.5681 16.0259 46.5129C13.5938 46.1404 11.7042 44.2111 11.4001 41.7858L11.1051 39.4669L10.2664 40.9074L9.8794 37.8417C9.76017 37.1009 9.85212 36.352 10.128 35.6714C9.84707 36.353 9.75209 37.1019 9.87233 37.8417L10.4806 42.6471Z" fill="#F6C7B4"/>
<path fill-rule="evenodd" clip-rule="evenodd" d="M10.2937 35.32C10.2411 35.4204 10.1906 35.5208 10.1461 35.6252C10.1411 35.6402 10.135 35.6553 10.129 35.6714C9.85211 36.351 9.76117 37.0998 9.8804 37.8417L10.2674 40.9064L11.1061 39.4669L15.1003 32.6127L15.1074 32.5996C13.4806 32.6016 11.9326 33.2943 10.8514 34.5019C10.7049 34.6675 10.5786 34.8452 10.4624 35.0289" fill="#FEE5D7"/>
<path fill-rule="evenodd" clip-rule="evenodd" d="M26.7621 52.4536C25.9599 50.2392 23.6813 48.8629 20.8117 48.8629C19.1839 48.8629 17.2782 49.5044 15.9717 50.0474C15.8363 50.1016 15.6959 50.1428 15.5534 50.1709C15.6949 50.1418 15.8343 50.1057 15.9677 50.0504C17.2782 49.5084 18.7928 50.0434 17.4823 50.5825C16.9215 50.8093 16.294 50.8093 15.7332 50.5825C15.4089 50.446 15.0522 50.3114 14.6713 50.184C14.7188 50.193 14.7673 50.191 14.8158 50.196C14.6137 50.1729 14.4136 50.1247 14.2226 50.0474C12.8909 49.5044 10.9721 48.8589 9.38267 48.8589C6.7131 48.8589 4.34464 50.2843 3.48072 52.4095L3.41504 52.55C3.41504 52.55 3.41605 52.55 3.41605 52.551L3.48072 52.4125C4.34464 50.2874 6.7131 48.8629 9.38267 48.8629C10.866 48.8629 12.6282 49.4261 13.9417 49.941C13.9054 49.928 13.867 49.9199 13.8306 49.9079C13.963 49.9591 14.0963 50.0103 14.2186 50.0605L14.3399 50.1016L10.2132 57.1908C11.7713 57.7178 13.4204 58.0009 15.1037 58.0009C19.6234 58.0009 23.9077 56.0032 26.7925 52.55L26.7621 52.4536Z" fill="#083F6B"/>
<path fill-rule="evenodd" clip-rule="evenodd" d="M15.7329 50.5828C16.2937 50.8097 16.9211 50.8097 17.4819 50.5828C18.7925 50.0438 17.2778 49.5087 15.9673 50.0508C15.8339 50.105 15.6945 50.1421 15.553 50.1702C15.5429 50.1733 15.5318 50.1743 15.5197 50.1763C15.4025 50.1994 15.2832 50.2074 15.164 50.2124C15.0892 50.2164 15.0155 50.2104 14.9417 50.2064C14.8993 50.2044 14.8568 50.2014 14.8154 50.1963C14.7669 50.1913 14.7184 50.1933 14.6709 50.1843C15.0518 50.3118 15.4085 50.4453 15.7329 50.5828Z" fill="black"/>
<path fill-rule="evenodd" clip-rule="evenodd" d="M9.37862 48.8728C10.8225 48.8728 12.5312 49.4039 13.8306 49.9078C13.867 49.9198 13.9054 49.9279 13.9428 49.9399C12.6282 49.4259 10.866 48.8628 9.38267 48.8628C6.7131 48.8628 4.34565 50.2872 3.48072 52.4124L3.41605 52.5509L3.41504 52.5529L3.41605 52.5539L3.47668 52.4224C4.34161 50.2973 6.70906 48.8728 9.37862 48.8728Z" fill="#990000"/>
<path fill-rule="evenodd" clip-rule="evenodd" d="M26.7622 52.453C25.96 50.2386 23.6814 48.8623 20.8118 48.8623C19.184 48.8623 17.2783 49.5048 15.9708 50.0468C15.8364 50.102 15.696 50.1422 15.5535 50.1703C15.695 50.1422 15.8344 50.1051 15.9678 50.0498C17.2783 49.5078 18.7929 50.0438 17.4824 50.5829C16.9226 50.8088 16.2941 50.8088 15.7333 50.5829C15.409 50.4454 15.0513 50.3108 14.6714 50.1844C14.7199 50.1934 14.7674 50.1914 14.8159 50.1964C14.6138 50.1723 14.4137 50.1241 14.2227 50.0468C13.4922 49.7497 12.5858 49.4245 11.6542 49.1896C11.6492 49.1886 11.6431 49.1886 11.6381 49.1886C12.4595 49.3953 13.2618 49.6734 13.9418 49.9404C13.9045 49.9284 13.8671 49.9204 13.8307 49.9083C13.1598 49.6483 12.3797 49.3813 11.5835 49.1845C11.3885 49.1675 11.1935 49.1494 10.9964 49.1434C8.30868 49.1434 5.92304 50.5779 5.05306 52.7181L4.76003 53.6868C4.31443 53.2722 3.8951 52.8315 3.50103 52.3697C3.49395 52.3878 3.48486 52.4039 3.47678 52.4229L3.41615 52.5544L3.41211 52.5635C3.7597 52.977 4.13457 53.3655 4.52359 53.738C4.54481 53.759 4.56603 53.7791 4.58826 53.8002C4.76003 53.9628 4.93483 54.1234 5.11469 54.278C5.17835 54.3322 5.241 54.3844 5.30465 54.4376C5.46531 54.5721 5.62597 54.7057 5.79168 54.8331C5.90182 54.9175 6.01499 54.9968 6.12715 55.0781C6.31913 55.2176 6.51212 55.3541 6.71118 55.4836C6.89912 55.6071 7.08605 55.7286 7.28005 55.843C7.372 55.8982 7.46597 55.9494 7.55994 56.0026C7.75496 56.113 7.953 56.2215 8.15408 56.3238C8.23592 56.366 8.31878 56.4072 8.40164 56.4473C8.64616 56.5668 8.89271 56.6802 9.1443 56.7856C9.18472 56.8027 9.22413 56.8217 9.26455 56.8378C9.54444 56.9533 9.82938 57.0587 10.1163 57.158C10.1497 57.1691 10.18 57.1831 10.2113 57.1942L10.2144 57.1902C11.7714 57.7172 13.4205 58.0013 15.1038 58.0013C19.6235 58.0013 23.9078 56.0026 26.7926 52.5494L26.7622 52.453Z" fill="#083F6B"/>
<path fill-rule="evenodd" clip-rule="evenodd" d="M4.22378 53.2637L5.23422 54.2675C6.06782 52.2187 8.10284 49.3367 10.6764 49.3367C10.8633 49.3437 11.0513 49.3598 11.2372 49.3758C11.2554 49.3778 11.2736 49.3778 11.2898 49.3798C11.2948 49.3808 11.2999 49.3808 11.3049 49.3808C12.09 49.4551 12.865 49.6147 13.6138 49.8637C12.3467 49.3668 10.6461 48.8247 9.21533 48.8247C6.64276 48.8247 4.35918 50.198 3.52557 52.2468L3.46191 52.3823C3.47404 52.3964 3.48717 52.4094 3.49829 52.4235C3.4993 52.4235 3.4993 52.4245 3.4993 52.4245C3.50031 52.4245 3.50031 52.4255 3.50031 52.4255C3.8772 52.8682 3.79738 52.8672 4.22378 53.2637Z" fill="#083F6B"/>
<path fill-rule="evenodd" clip-rule="evenodd" d="M14.34 50.1017L14.2793 50.0807L14.2187 50.0606C14.0964 50.0104 13.9631 49.9592 13.8307 49.908C13.1598 49.648 12.3797 49.382 11.5825 49.1842C11.3885 49.1672 11.1935 49.1501 10.9964 49.1431C8.30868 49.1431 5.92304 50.5786 5.05306 52.7177L4.76104 53.6864C4.31443 53.2729 3.8951 52.8322 3.50103 52.3694C3.49395 52.3875 3.48486 52.4035 3.47678 52.4226L3.41514 52.5541L3.41211 52.5631C3.7597 52.9777 4.13457 53.3652 4.52359 53.7386C4.54582 53.7587 4.56603 53.7798 4.58724 53.7999C4.76003 53.9635 4.93483 54.1231 5.11469 54.2777C5.17734 54.3319 5.241 54.3851 5.30465 54.4373C5.46531 54.5718 5.62597 54.7053 5.79168 54.8328C5.90081 54.9172 6.01499 54.9965 6.12715 55.0788C6.31913 55.2173 6.51313 55.3538 6.71118 55.4833C6.89912 55.6068 7.08605 55.7283 7.27904 55.8427C7.372 55.8979 7.46597 55.9491 7.55994 56.0023C7.75496 56.1137 7.953 56.2211 8.15408 56.3235C8.23592 56.3657 8.31878 56.4068 8.40164 56.448C8.64616 56.5665 8.89271 56.6799 9.14329 56.7863C9.18371 56.8034 9.22413 56.8214 9.26455 56.8375C9.54444 56.9539 9.82938 57.0593 10.1163 57.1577C10.1487 57.1698 10.18 57.1828 10.2113 57.1939L10.2133 57.1908L12.2767 53.6463L14.34 50.1017Z" fill="#0D4F80"/>
<path fill-rule="evenodd" clip-rule="evenodd" d="M27.4905 46.0376C27.3228 45.9804 27.151 45.9312 26.9782 45.886C26.9257 45.871 26.8742 45.8579 26.8216 45.8459C26.6792 45.8117 26.5377 45.7806 26.3922 45.7545C26.3861 45.7535 26.3811 45.7515 26.375 45.7505C26.2709 45.7314 26.1648 45.7174 26.0598 45.7033C25.9466 45.6873 25.8334 45.6702 25.7192 45.6592C25.4879 45.6381 25.2524 45.624 25.014 45.624C23.0163 45.624 21.2036 46.3889 19.8395 47.6317C18.3087 49.025 17.3438 51.0207 17.3438 53.2452C17.3438 53.5032 17.3569 53.7571 17.3821 54.0081C17.3912 54.0984 17.4094 54.1858 17.4216 54.2751C17.4438 54.4337 17.463 54.5933 17.4943 54.7499C17.5165 54.8583 17.5479 54.9637 17.5741 55.0702C17.6075 55.2017 17.6368 55.3352 17.6762 55.4637C17.7115 55.5821 17.757 55.6965 17.7995 55.812C17.8399 55.9244 17.8773 56.0368 17.9227 56.1473C17.9743 56.2728 18.0359 56.3932 18.0935 56.5147C18.138 56.609 18.1804 56.7034 18.2299 56.7958C18.2986 56.9263 18.3754 57.0507 18.4522 57.1762C18.4997 57.2535 18.5431 57.3308 18.5916 57.4061C18.6806 57.5396 18.7755 57.6661 18.8705 57.7936C18.917 57.8548 18.9604 57.917 19.0069 57.9763C19.115 58.1108 19.2282 58.2383 19.3434 58.3648C19.3858 58.4109 19.4273 58.4581 19.4707 58.5023C19.597 58.6348 19.7304 58.7613 19.8678 58.8837C19.9042 58.9179 19.9396 58.951 19.9769 58.9831C20.1255 59.1116 20.2781 59.2331 20.4367 59.3495C20.466 59.3716 20.4953 59.3937 20.5256 59.4158C20.6933 59.5362 20.8661 59.6497 21.044 59.7571C21.0672 59.7701 21.0884 59.7832 21.1117 59.7972C21.1895 59.8424 21.2713 59.8816 21.3511 59.9237C21.4613 59.985 21.5724 60.0482 21.6866 60.1034C21.7018 60.1104 21.7169 60.1175 21.7321 60.1255C21.9372 60.2209 22.1453 60.3082 22.3595 60.3865C22.3686 60.3905 22.3767 60.3935 22.3858 60.3965C22.6061 60.4768 22.8304 60.5461 23.0578 60.6063C23.0618 60.6073 23.0658 60.6083 23.0709 60.6093C23.3023 60.6696 23.5397 60.7188 23.7802 60.7589H23.7843C24.0268 60.7981 24.2723 60.8252 24.5219 60.8412C24.538 60.8422 24.5552 60.8422 24.5714 60.8442C24.7179 60.8533 24.8644 60.8653 25.014 60.8653C29.2507 60.8653 32.6852 57.4543 32.6852 53.2452C32.6852 49.8984 30.5097 47.0625 27.4905 46.0376Z" fill="#0F2B4A"/>
<path fill-rule="evenodd" clip-rule="evenodd" d="M25.5433 50.1289H24.4844V52.8051H21.7754V53.8521H24.4844V56.5284H25.5433V53.8521H28.2523V52.8051H25.5433V50.1289Z" fill="white"/>
<path fill-rule="evenodd" clip-rule="evenodd" d="M25.5433 50.1289H24.4844V52.8051H21.7754V53.8521H24.4844V56.5284H25.5433V53.8521H28.2523V52.8051H25.5433V50.1289Z" fill="white"/>
<path fill-rule="evenodd" clip-rule="evenodd" d="M66.2923 46.0391C67.136 52.8722 73.0764 57.9456 80.007 57.7539H80.009C80.9275 57.7559 81.8449 57.6746 82.7483 57.509C75.5287 56.4078 69.9228 50.6798 69.0205 43.4823L68.1455 36.602L65.6558 40.8743L64.5059 31.7775C64.1553 29.5791 64.4261 27.3556 65.2455 25.3369C64.4129 27.3607 64.131 29.5842 64.4867 31.7775L66.2923 46.0391Z" fill="#F6C7B4"/>
<path fill-rule="evenodd" clip-rule="evenodd" d="M65.7352 24.296C65.5806 24.5932 65.43 24.8933 65.3007 25.2005C65.2825 25.2467 65.2643 25.2918 65.2471 25.338C64.4276 27.3557 64.1568 29.5792 64.5075 31.7786L65.6573 40.8754L68.1471 36.6021L79.9984 16.2623L80.0217 16.2231C75.1928 16.2322 70.5984 18.285 67.3913 21.8667C66.9568 22.3586 66.5829 22.8886 66.2383 23.4347" fill="#FEE5D7"/>
<path fill-rule="evenodd" clip-rule="evenodd" d="M66.1398 25.549C66.259 25.2639 66.3984 24.9869 66.5409 24.7118C66.7723 24.2691 66.5985 23.724 66.1529 23.4941C65.7053 23.2663 65.1587 23.4369 64.9273 23.8806C64.7605 24.1998 64.5999 24.5221 64.4584 24.8594L64.4039 24.9959C63.4955 27.2033 63.2136 29.5985 63.5844 31.8913L65.39 46.1488C66.2792 53.3503 72.359 58.6637 79.5745 58.6627C79.7109 58.6627 79.8473 58.6606 79.9848 58.6576C87.4074 58.8353 93.6984 53.4989 94.6401 46.191L96.4205 31.9625C97.0419 28.1228 95.9213 24.241 93.3407 21.3088C90.3033 17.9028 86.0676 15.8057 81.5186 15.4223L81.5782 15.3179L80.0171 15.3209C74.9376 15.3289 70.0865 17.4962 66.7097 21.2666C66.3762 21.639 66.4106 22.2102 66.7854 22.5415C67.1613 22.8738 67.7342 22.8396 68.0697 22.4672C70.8666 19.3443 74.7891 17.447 78.9602 17.1639H80.0252C84.5944 17.1639 88.9503 19.1114 91.9746 22.5024C94.1955 25.025 95.1605 28.3688 94.6199 31.7076L92.8355 45.9651C92.014 52.3455 86.5192 57.0033 79.9817 56.8517C73.5261 57.0083 67.9858 52.3355 67.1947 45.9269L65.384 31.6353C65.0616 29.6397 65.3052 27.5808 66.0933 25.6634L66.1398 25.549Z" fill="#5C5C5C"/>
</svg>
