<svg width="108" height="108" viewBox="0 0 108 108" fill="none" xmlns="http://www.w3.org/2000/svg">
<path fill-rule="evenodd" clip-rule="evenodd" d="M46.813 94.9385C86.355 101.175 106.718 93.1578 107.905 70.8877C109.684 37.4835 86.0861 41.0239 75.9075 32.3152C65.7298 23.6054 71.5593 32.091 58.1971 13.2145C49.2879 0.629476 34.5172 -0.168901 13.8851 10.8183C-1.67221 22.1836 -4.15614 37.9792 6.43231 58.2071C17.0198 78.434 30.48 90.6782 46.813 94.9385Z" fill="#E5E5E5"/>
<path fill-rule="evenodd" clip-rule="evenodd" d="M71.0879 25.7968L82.1042 24.8235L71.0879 14.3853V25.7968Z" fill="white"/>
<path fill-rule="evenodd" clip-rule="evenodd" d="M28.2737 6.99437C28.2737 7.54439 28.7175 7.98983 29.2663 7.98983C29.8141 7.98983 30.2579 7.54439 30.2579 6.99437V0.995486C30.2579 0.445471 29.8141 -0.000976562 29.2663 -0.000976562C28.7175 -0.000976562 28.2737 0.445471 28.2737 0.995486V6.99437ZM22.738 14.6094C23.2858 14.6094 23.7296 14.163 23.7296 13.613C23.7296 13.0629 23.2858 12.6175 22.738 12.6175H16.7846C16.2358 12.6175 15.792 13.0629 15.792 13.613C15.792 14.163 16.2358 14.6094 16.7846 14.6094H22.738ZM24.3076 10.1233C24.6955 10.5125 25.3232 10.5135 25.709 10.1233C26.0959 9.7342 26.0949 9.10273 25.706 8.7136L20.3963 3.53722C20.0085 3.14809 19.3807 3.14809 18.9949 3.53722C18.6081 3.92635 18.6101 4.55782 18.9979 4.94796L24.3076 10.1233Z" fill="#EC0000"/>
<path fill-rule="evenodd" clip-rule="evenodd" d="M19.872 39.1658V40.6811H17.8068V42.7595H16.3005V40.6811H14.2344V39.1658H16.3005V37.0874H17.8068V39.1658H19.872Z" fill="#0D4F80"/>
<path fill-rule="evenodd" clip-rule="evenodd" d="M10.7358 83.3408C8.80263 83.3408 7.2373 81.7652 7.2373 79.8215C7.2373 77.8779 8.80263 76.3022 10.7358 76.3022C12.668 76.3022 14.2343 77.8779 14.2343 79.8215C14.2343 81.7652 12.668 83.3408 10.7358 83.3408ZM10.7358 81.3298C11.5634 81.3298 12.2352 80.6551 12.2352 79.8215C12.2352 78.988 11.5634 78.3133 10.7358 78.3133C9.90816 78.3133 9.23645 78.988 9.23645 79.8215C9.23645 80.6551 9.90816 81.3298 10.7358 81.3298Z" fill="#0F2B4A"/>
<path fill-rule="evenodd" clip-rule="evenodd" d="M97.815 67.9829C97.6001 68.8507 96.7575 69.3926 95.8759 69.1714C95.0132 68.9552 94.5035 68.0734 94.7184 67.2067C94.9333 66.3389 95.7909 65.8211 96.6525 66.0362C97.5352 66.2585 98.0299 67.1152 97.815 67.9829ZM94.4135 56.8479C94.5844 56.1571 95.1572 55.8615 95.9748 55.5849C97.0474 55.2049 98.3008 55.1003 99.6542 55.4391C102.084 56.0495 103.526 58.1279 102.979 60.336C102.626 61.7558 101.784 62.4657 100.183 63.0479C99.4673 63.3294 98.8066 63.6461 98.4108 64.3208C98.0139 64.9965 97.5631 65.2178 96.8574 65.0418C96.1917 64.8739 95.8039 64.17 95.9848 63.44C96.1358 62.8297 96.5826 62.3752 97.0813 61.9559C97.7081 61.4431 98.4867 61.1565 99.3634 60.7281C99.9311 60.4516 100.23 60.0866 100.333 59.6724C100.547 58.8056 99.9941 58.0163 98.8766 57.7367C98.0529 57.5296 97.5731 57.6191 96.9174 57.8313C96.2367 58.0585 95.8829 58.4728 95.2371 58.3109C94.6094 58.153 94.2526 57.4984 94.4135 56.8479Z" fill="white"/>
<path fill-rule="evenodd" clip-rule="evenodd" d="M94.5469 13.239L93.4824 14.3099L92.022 12.8408L90.5607 14.3109L89.4951 13.239L90.9555 11.77L89.4951 10.2999L90.5607 9.22903L92.021 10.6981L93.4824 9.22803L94.5479 10.2999L93.0866 11.77L94.5469 13.239Z" fill="#6EE3FF"/>
<path fill-rule="evenodd" clip-rule="evenodd" d="M89.7225 105.162C89.7225 106.729 74.7919 107.999 56.3789 107.999C37.9638 107.999 23.0342 106.729 23.0342 105.162C23.0342 103.596 37.9638 102.326 56.3789 102.326C74.7919 102.326 89.7225 103.596 89.7225 105.162Z" fill="#E5E5E5"/>
<path fill-rule="evenodd" clip-rule="evenodd" d="M41.9931 46.1923L43.2256 44.9525L45.4366 47.1757L47.6477 44.9515L48.8821 46.1923L46.6701 48.4165L48.8811 50.6397L47.6477 51.8805L45.4366 49.6563L43.2256 51.8805L41.9931 50.6407L44.2041 48.4155L41.9931 46.1923ZM51.434 64.9059H61.4297V63.096H51.434V64.9059ZM65.9828 46.1923L67.2152 44.9525L69.4263 47.1757L71.6373 44.9515L72.8718 46.1923L70.6598 48.4165L72.8708 50.6397L71.6373 51.8805L69.4263 49.6563L67.2152 51.8805L65.9828 50.6407L68.1938 48.4155L65.9828 46.1923ZM32.79 16.4975V87.8889C32.79 88.8281 33.1289 89.6767 33.6667 90.3595H59.3496L83.2823 53.604V27.9563L68.7746 29.5692L68.8745 18.2602V12.8857C68.7006 12.8556 68.5247 12.8354 68.3458 12.8354H35.151C33.7616 13.4659 32.79 14.8646 32.79 16.4975ZM83.2819 27.1073C83.2819 26.9032 83.259 26.7021 83.22 26.504L82.9921 26.5241L83.247 26.7715C83.261 26.8831 83.2819 26.9937 83.2819 27.1073Z" fill="white"/>
<path fill-rule="evenodd" clip-rule="evenodd" d="M29.1064 61.0553V87.3445C29.1064 89.0629 30.4968 90.4616 32.2051 90.4616H33.7384C33.7114 90.4294 33.6924 90.3922 33.6664 90.36C33.1287 89.6762 32.7908 88.8286 32.7908 87.8895V16.498C32.7908 14.8641 33.7614 13.4654 35.1518 12.835H32.2051C30.4968 12.835 29.1064 14.2336 29.1064 15.9531V43.0265C29.1064 43.5262 28.7036 43.9314 28.2068 43.9314C28.0539 43.9314 27.9189 43.8842 27.793 43.8168V49.1883C27.9189 49.1219 28.0539 49.0736 28.2068 49.0736C28.7036 49.0736 29.1064 49.4789 29.1064 49.9786V54.4883C29.1064 54.9881 28.7036 55.3933 28.2068 55.3933C28.0539 55.3933 27.9189 55.345 27.793 55.2787V60.265C27.9189 60.1976 28.0539 60.1504 28.2068 60.1504C28.7036 60.1504 29.1064 60.5556 29.1064 61.0553Z" fill="#C6EDF6"/>
<path fill-rule="evenodd" clip-rule="evenodd" d="M70.6738 25.7968L81.6901 24.8235L70.6738 14.3853V25.7968Z" fill="#0D4F80"/>
<path fill-rule="evenodd" clip-rule="evenodd" d="M67.2159 51.8807L69.4269 49.6565L71.638 51.8807L72.8704 50.6399L70.6594 48.4167L72.8714 46.1915L71.638 44.9507L69.4269 47.1759L67.2159 44.9517L65.9834 46.1925L68.1944 48.4157L65.9834 50.6409L67.2159 51.8807Z" fill="#0F2B4A"/>
<path fill-rule="evenodd" clip-rule="evenodd" d="M43.2261 51.8807L45.4372 49.6565L47.6482 51.8807L48.8807 50.6399L46.6696 48.4167L48.8817 46.1915L47.6482 44.9507L45.4372 47.1759L43.2261 44.9517L41.9937 46.1925L44.2047 48.4157L41.9937 50.6409L43.2261 51.8807Z" fill="#0F2B4A"/>
<path fill-rule="evenodd" clip-rule="evenodd" d="M29.1067 54.4884V49.9797C29.1067 49.4799 28.7037 49.0747 28.2067 49.0747C28.0537 49.0747 27.9187 49.122 27.7927 49.1883C27.5067 49.3402 27.3057 49.6318 27.3057 49.9797V54.4884C27.3057 54.8353 27.5067 55.1269 27.7927 55.2787C27.9187 55.3461 28.0537 55.3933 28.2067 55.3933C28.7037 55.3933 29.1067 54.9881 29.1067 54.4884Z" fill="#0F2B4A"/>
<path fill-rule="evenodd" clip-rule="evenodd" d="M51.4336 64.9061H61.4293V63.0962H51.4336V64.9061Z" fill="#EC0000"/>
<path fill-rule="evenodd" clip-rule="evenodd" d="M80.2016 90.3595C81.682 90.3595 82.9205 89.3077 83.2243 87.9081C83.2583 87.7251 83.2813 87.537 83.2813 87.344V53.604L59.3496 90.3595H80.2016Z" fill="#F5F5F5"/>
<path fill-rule="evenodd" clip-rule="evenodd" d="M83.2813 27.9564V27.1068C83.2813 26.9931 83.2603 26.8825 83.2463 26.7709L82.9914 26.5246L69.852 27.6849C69.8261 27.6879 69.8001 27.6889 69.7731 27.6889C69.5502 27.6889 69.3323 27.6045 69.1663 27.4516C68.9794 27.2797 68.8735 27.0374 68.8735 26.784V18.2603L67.8199 29.3661C67.7859 29.7342 68.0998 30.0378 68.4646 29.9886L83.2813 27.9564Z" fill="#6EE3FF"/>
<path fill-rule="evenodd" clip-rule="evenodd" d="M83.5315 23.5113L71.6946 12.3562C70.783 11.4985 69.5935 11.0259 68.346 11.0259H32.2036C29.5027 11.0259 27.3057 13.236 27.3057 15.9529V43.0273C27.3057 43.3742 27.5066 43.6658 27.7915 43.8177C27.9174 43.884 28.0533 43.9323 28.2053 43.9323C28.7021 43.9323 29.1059 43.5271 29.1059 43.0273V15.9529C29.1059 14.2335 30.4953 12.8358 32.2036 12.8358H35.1513H68.346C68.524 12.8358 68.6999 12.8559 68.8738 12.8861V18.2605V26.7843C68.8738 27.0377 68.9798 27.28 69.1667 27.4509C69.3326 27.6048 69.5505 27.6892 69.7734 27.6892C69.8004 27.6892 69.8264 27.6882 69.8524 27.6852L82.9917 26.5249L83.2196 26.5047C83.2586 26.7018 83.2816 26.9039 83.2816 27.107V27.9567V53.6043V87.3443C83.2816 87.5373 83.2586 87.7254 83.2246 87.9084C82.9598 89.3583 81.6993 90.4614 80.1829 90.4614H33.7379H32.2036C30.4953 90.4614 29.1059 89.0627 29.1059 87.3443V61.0552C29.1059 60.5554 28.7021 60.1502 28.2053 60.1502C28.0533 60.1502 27.9174 60.1985 27.7915 60.2648C27.5066 60.4167 27.3057 60.7083 27.3057 61.0552V87.3443C27.3057 90.0612 29.5027 92.2713 32.2036 92.2713H80.1829C82.8848 92.2713 85.0818 90.0612 85.0818 87.3443V27.107C85.0818 25.7496 84.5161 24.4384 83.5315 23.5113Z" fill="#0F2B4A"/>
<path fill-rule="evenodd" clip-rule="evenodd" d="M70.6738 25.7968L81.6901 24.8235L70.6738 14.3853V25.7968Z" fill="#0D4F80"/>
</svg>
