<svg width="132" height="114" viewBox="0 0 132 114" fill="none" xmlns="http://www.w3.org/2000/svg">
<path fill-rule="evenodd" clip-rule="evenodd" d="M57.5988 109.591C100.239 115.079 109.121 108.016 117.916 99.9682C134.951 84.3845 134.951 47.916 111.315 41.5373C86.9343 39.8045 102.882 3.16895 55.035 3.16895C25.0548 3.16895 6.22363 21.613 6.22363 44.3658C6.22363 67.1186 14.9596 104.103 57.5988 109.591Z" fill="#E5E5E5"/>
<path fill-rule="evenodd" clip-rule="evenodd" d="M124.783 3.16414C123.918 1.86475 122.507 0.954077 120.549 0.431139C118.282 -0.173322 116.061 -0.142503 113.884 0.525586L114.678 4.23984C116.317 3.77854 117.777 3.71889 119.058 4.05989C119.828 4.26668 120.332 4.6395 120.568 5.18133C120.804 5.72316 120.826 6.3485 120.637 7.05635C120.429 7.82883 120.136 8.43329 119.758 8.86974C119.379 9.30618 118.633 9.84801 117.517 10.4962C116.352 11.1414 115.489 11.8075 114.93 12.4925C114.37 13.1775 113.95 14.0425 113.668 15.0883L113.361 16.2326L117.562 17.3531L117.83 16.3569C118.028 15.6162 118.296 15.0605 118.631 14.6887C118.966 14.3168 119.639 13.8396 120.647 13.2571C122.21 12.3663 123.303 11.5411 123.928 10.7796C124.553 10.019 125.031 9.01687 125.365 7.77514C125.843 6.00053 125.648 4.46353 124.783 3.16414ZM115.028 19.8118C114.077 19.5583 113.288 19.602 112.66 19.945C112.033 20.288 111.6 20.9014 111.363 21.7862C111.128 22.6601 111.198 23.4047 111.573 24.0211C111.948 24.6375 112.606 25.072 113.546 25.3225C114.485 25.573 115.273 25.5194 115.911 25.1615C116.548 24.8036 116.981 24.1991 117.21 23.3481C117.442 22.4851 117.377 21.7445 117.015 21.1251C116.653 20.5067 115.991 20.0683 115.028 19.8118Z" fill="#EC0000"/>
<path fill-rule="evenodd" clip-rule="evenodd" d="M106.072 105.857L106.343 104.845C106.593 103.92 106.958 103.153 107.439 102.543C107.922 101.934 108.659 101.339 109.655 100.758C110.608 100.175 111.248 99.6902 111.572 99.3025C111.898 98.9137 112.152 98.3779 112.336 97.6939C112.504 97.0676 112.492 96.5168 112.296 96.0406C112.101 95.5653 111.677 95.2412 111.025 95.0663C109.94 94.777 108.7 94.8436 107.306 95.2671L106.669 91.9992C108.522 91.3888 110.408 91.3391 112.326 91.8511C113.983 92.2935 115.171 93.0839 115.894 94.2212C116.614 95.3586 116.765 96.7126 116.343 98.2824C116.046 99.381 115.63 100.269 115.093 100.947C114.555 101.624 113.619 102.363 112.286 103.164C111.423 103.687 110.848 104.114 110.561 104.445C110.272 104.776 110.041 105.27 109.864 105.925L109.628 106.807L106.072 105.857ZM104.322 110.775C104.533 109.993 104.906 109.447 105.441 109.139C105.977 108.831 106.648 108.784 107.452 108.999C108.267 109.215 108.825 109.596 109.127 110.138C109.428 110.681 109.476 111.333 109.27 112.097C109.069 112.849 108.694 113.387 108.151 113.708C107.606 114.031 106.936 114.086 106.141 113.873C105.345 113.661 104.792 113.286 104.479 112.745C104.168 112.205 104.115 111.549 104.322 110.775Z" fill="#0D4F80"/>
<path fill-rule="evenodd" clip-rule="evenodd" d="M31.2267 32.2217L30.9423 31.4422C30.6818 30.7294 30.56 30.0703 30.576 29.4638C30.591 28.8564 30.7646 28.1485 31.0959 27.3393C31.4033 26.5469 31.566 25.9544 31.5869 25.5597C31.6079 25.166 31.5221 24.7047 31.3305 24.1788C31.1538 23.6956 30.9033 23.3407 30.579 23.114C30.2537 22.8873 29.8615 22.8575 29.3994 23.0245C28.632 23.3029 27.9305 23.8805 27.2938 24.7594L25.4785 22.8953C26.3038 21.6973 27.3946 20.8512 28.7528 20.3601C29.9234 19.9346 30.9732 19.9386 31.9003 20.3721C32.8274 20.8055 33.511 21.6267 33.9521 22.8366C34.2624 23.6827 34.4071 24.4432 34.3882 25.1173C34.3692 25.7933 34.1427 26.6801 33.7066 27.7797C33.4291 28.4935 33.2784 29.0214 33.2535 29.3624C33.2295 29.7034 33.3094 30.1259 33.493 30.63L33.7425 31.31L31.2267 32.2217ZM32.3201 35.9829C32.0996 35.3804 32.0916 34.8584 32.2932 34.418C32.4938 33.9766 32.8999 33.6465 33.5097 33.4248C34.1284 33.2011 34.6553 33.1982 35.0924 33.4149C35.5305 33.6326 35.8568 34.0353 36.0714 34.6228C36.2839 35.2024 36.2889 35.7194 36.0874 36.1727C35.8858 36.6261 35.4846 36.9621 34.8818 37.1808C34.2791 37.3996 33.7562 37.4035 33.3121 37.1918C32.869 36.981 32.5387 36.5784 32.3201 35.9829Z" fill="white"/>
<path fill-rule="evenodd" clip-rule="evenodd" d="M15.48 63.4762H2.39298C-1.64171e-05 62.2216 -0.597858 61.5943 0.597678 61.5943H6.47058L5.12136 58.2866H15.48C16.6227 61.7464 16.6227 63.4762 15.48 63.4762ZM117.758 65.1374H129.799C132 63.8828 132.55 63.2554 131.45 63.2554H126.048L127.289 59.9478H117.758C116.709 63.4075 116.709 65.1374 117.758 65.1374Z" fill="#F6C7B4"/>
<path fill-rule="evenodd" clip-rule="evenodd" d="M81.9833 96.8225L86.5779 68.2399L103.085 81.7309L117.269 65.7604L116.088 59.8967L103.085 69.9707L84.563 48.0809L75.3979 45.2057L68.0411 50.8845L60.4018 44.5366L49.7308 47.4804L32.1371 69.9707L17.1829 58.3219C16.0562 60.703 15.4065 62.6416 15.2339 64.1359C15.0613 65.6301 15.3706 65.8449 16.159 64.7801L30.8697 81.7309L47.6541 71.1946L52.4991 100.758" fill="white"/>
<path fill-rule="evenodd" clip-rule="evenodd" d="M61.0097 46.0645L49.0344 48.0528L32.0693 69.9248L49.5703 55.4545L64.0035 48.0528L61.0097 46.0645Z" fill="#6EE3FF"/>
<path fill-rule="evenodd" clip-rule="evenodd" d="M102.924 81.8547L116.966 66.0691L115.785 60.8129L101.633 71.8165L84.2942 47.5913L66.6445 99.0202L81.8482 96.8092L84.2942 71.8165L102.924 81.8547Z" fill="#E9F4F7"/>
<path fill-rule="evenodd" clip-rule="evenodd" d="M59.123 23.3939C60.7526 20.462 62.4152 19.3565 64.1087 20.0912C65.7114 20.7851 67.8041 21.2136 70.3868 21.3747C70.772 21.485 71.1263 21.5775 71.4097 21.6202C72.0972 21.7336 71.8997 23.8432 72.3667 24.4049C72.4316 24.5402 72.4924 24.6853 72.5613 24.8165C73.6141 26.9958 72.8098 30.4694 72.0533 32.8366C71.6043 34.472 70.0884 35.7495 69.0336 37.211C67.9079 38.907 66.0597 38.8176 64.0778 39.1914C64.7045 39.8028 65.403 40.6051 65.403 41.0763H68.4987C69.1653 40.8696 71.8637 37.8751 71.8637 37.8751C71.8637 37.8751 72.223 37.2696 72.682 36.2953V45.6038L67.4578 50.2457L63.2186 47.801C63.2764 47.7572 63.3383 47.7204 63.3862 47.6608C63.6946 47.2741 63.6317 46.7123 63.2435 46.4032L60.9592 44.5888V37.3651C60.9592 37.2398 60.9323 37.1155 60.8814 37.0012L58.5063 31.6833C58.4534 31.565 58.3755 31.4596 58.2767 31.3741C57.643 30.8214 57.2968 30.3511 57.2099 30.0062C56.8607 28.5984 57.3177 27.1896 57.7348 27.1896C57.7917 27.1896 57.8456 27.1936 57.8955 27.2026C58.4204 27.2881 58.9054 26.9033 58.9384 26.3744L59.123 23.3939ZM74.5504 24.0027L75.1851 25.1221C75.3288 26.4881 75.4915 28.8106 75.5054 29.8286L74.4985 30.6627C74.6033 30.0065 74.6692 29.3424 74.6692 28.6803C74.6692 27.0399 74.6751 25.4582 74.5504 24.0027Z" fill="#FEDAC6"/>
<path fill-rule="evenodd" clip-rule="evenodd" d="M73.1004 21.4469L73.8688 22.802L72.7491 21.5075L72.7483 21.5072L73.868 22.8017L74.5496 24.0026C74.6743 25.4581 74.6684 27.0399 74.6684 28.6803C74.6684 29.3424 74.6025 30.0075 74.4977 30.6626L73.9907 31.0832C73.6634 31.119 73.355 31.3258 73.2403 31.7284L72.7154 33.5647C72.6934 33.6442 72.6814 33.7267 72.6814 33.8092V36.2957C72.2224 37.27 71.8631 37.8754 71.8631 37.8754C71.8631 37.8754 69.1647 40.8689 68.498 41.0757H65.4024C65.4024 40.6054 64.7039 39.8031 64.0771 39.1907C66.0591 38.8169 67.9073 38.9074 69.0329 37.2113C70.0878 35.7499 71.6036 34.4713 72.0527 32.8369C72.8092 30.4698 73.6135 26.9961 72.5607 24.8169C72.4908 24.6856 72.4309 24.5405 72.3661 24.4053C71.899 23.8436 72.0966 21.7339 71.409 21.6206C71.1256 21.5778 70.7714 21.4854 70.3862 21.374C71.1127 21.4198 71.8841 21.4396 72.6874 21.4426L73.1004 21.4469Z" fill="#F6C7B4"/>
<path fill-rule="evenodd" clip-rule="evenodd" d="M73.2405 31.7279L72.7166 33.5651C72.6936 33.6446 72.6816 33.7272 72.6816 33.8097V36.2951C73.3203 34.9411 74.1496 32.8682 74.4989 30.6621L73.9919 31.0826C73.6646 31.1184 73.3553 31.3252 73.2405 31.7279Z" fill="#F6C7B4"/>
<path fill-rule="evenodd" clip-rule="evenodd" d="M72.9448 18.9249C73.5086 19.3942 74.0475 19.9251 74.5505 20.3287C73.3869 17.9337 71.6555 16.18 69.3292 14.812C70.2044 15.6938 71.0826 16.5767 71.9628 17.4615C71.1495 16.9674 70.3412 16.4703 69.5318 15.9772C69.8552 16.3818 70.1775 16.7865 70.5008 17.1911C70.6266 17.3492 70.7523 17.5062 70.8771 17.6633C70.8811 17.6683 70.885 17.6733 70.888 17.6782C70.883 17.6723 70.8761 17.6683 70.8701 17.6633C70.7443 17.5579 70.6076 17.4635 70.4769 17.3631C69.4949 16.6115 68.3932 16.006 67.2146 15.5944C67.038 15.5308 66.8593 15.4731 66.6787 15.4204C67.6806 16.1074 68.6297 16.865 69.5398 17.6633C69.6426 17.7548 69.7534 17.8403 69.8552 17.9337C70.9579 18.9289 71.9888 19.9986 72.9258 21.141C72.5466 20.0692 72.1644 19.0641 71.6335 18.055C71.853 18.1525 72.0716 18.2827 72.2881 18.4278C72.5097 18.578 72.7292 18.745 72.9448 18.9249Z" fill="#0F2B4A"/>
<path fill-rule="evenodd" clip-rule="evenodd" d="M81.8477 96.8101L66.645 99.0202L53.1508 100.982L52.4922 108.731C54.1438 109.063 55.8323 109.364 57.5977 109.59C68.2318 110.959 78.0026 111.547 84.9603 111.534L81.8637 96.8081L81.8477 96.8101Z" fill="#0D4F80"/>
<path fill-rule="evenodd" clip-rule="evenodd" d="M102.038 69.0471L84.7589 47.4485L74.4791 44.643V33.9347L74.8244 32.7198L76.982 30.9342C77.1875 30.7632 77.3063 30.5097 77.3053 30.2433C77.3013 28.9896 77.2464 27.9646 77.1327 27.1186C77.5039 25.6134 77.6995 23.7373 77.6995 21.4478C77.6995 17.2464 76.2814 12.8362 71.134 12.8362C65.9866 12.8362 64.9607 11.5765 59.999 13.9268C56.6918 15.4926 55.2727 17.5476 55.7417 20.0907L55.7637 26.7666C55.2657 27.7568 55.144 29.1397 55.4673 30.4371C55.6459 31.1569 56.1459 31.8618 56.9433 32.5865L59.1627 37.5555V44.9323L49.1094 47.4366L46.1405 50.9292C45.8212 51.3069 45.8681 51.8716 46.2463 52.1908C46.6255 52.5099 47.1914 52.4632 47.5117 52.0854L50.1064 49.0323L59.1627 46.7765L60.4341 46.4603L60.959 46.8779L62.1236 47.8025C62.4519 48.0639 62.899 48.044 63.2193 47.8015C63.2762 47.7567 63.3381 47.7199 63.386 47.6613C63.6944 47.2746 63.6315 46.7118 63.2433 46.4037L60.959 44.5883V37.3646C60.959 37.2393 60.9331 37.116 60.8812 37.0017L58.5061 31.6838C58.4532 31.5655 58.3753 31.4591 58.2765 31.3736C57.6428 30.8209 57.2965 30.3516 57.2097 30.0057C56.8604 28.5989 57.3185 27.1901 57.7356 27.1901C57.7915 27.1901 57.8454 27.1941 57.8963 27.2021C58.4202 27.2886 58.9052 26.9038 58.9382 26.3749L59.1228 23.3944C60.7534 20.4625 62.415 19.357 64.1085 20.0907C65.7112 20.7856 67.8039 21.2131 70.3876 21.3742C71.1131 21.4199 71.8845 21.4398 72.6878 21.4428C72.8275 21.4438 72.9593 21.4487 73.101 21.4478L73.8684 22.8018L74.55 24.0028L75.1847 25.1222C75.3284 26.4882 75.492 28.8106 75.506 29.8287L74.4981 30.6628C74.1498 32.8679 73.3215 34.9418 72.6818 36.2958V45.6043L67.4586 50.2462L67.267 50.4162C66.8399 50.442 66.5076 50.7611 66.4457 51.1737C66.4387 51.2165 66.4217 51.2552 66.4217 51.3V53.2714V56.2401C66.4217 56.7342 66.8229 57.1348 67.3189 57.1348C67.8149 57.1348 68.217 56.7342 68.217 56.2401V54.3949V52.2812V51.9184C68.2729 51.8875 68.3328 51.8667 68.3817 51.8229L72.6818 48.0023L74.3993 46.4762L74.4791 46.4981L83.7201 49.0203L101.666 71.452L116.465 61.549V64.7403C112.049 70.1307 108.572 74.2118 106.039 76.9806C103.65 79.5904 102.037 81.0627 101.68 81.1323C101.38 81.191 99.7311 80.3867 97.2432 78.7712C94.5148 76.9995 90.7286 74.2685 85.8906 70.5821L84.6432 69.6327L81.2113 97.6268C81.1813 97.8793 81.2622 98.1179 81.4118 98.2998L83.8997 111.532C84.4915 111.53 85.0613 111.52 85.6321 111.509L83.0435 97.7481L83.0066 97.75L86.0473 72.9512C95.422 80.0467 100.382 83.2082 102.024 82.8881C103.661 82.5699 108.659 77.1099 118.059 65.6251L118.262 65.3786V58.1906L102.038 69.0471Z" fill="#0F2B4A"/>
<path fill-rule="evenodd" clip-rule="evenodd" d="M72.9448 18.9249C73.5086 19.3942 74.0475 19.9251 74.5505 20.3287C73.3869 17.9337 71.6555 16.18 69.3292 14.812C70.2044 15.6938 71.0826 16.5767 71.9628 17.4615C71.1495 16.9674 70.3412 16.4703 69.5318 15.9772C69.8552 16.3818 70.1775 16.7865 70.5008 17.1911C70.6266 17.3492 70.7523 17.5062 70.8771 17.6633C70.8811 17.6683 70.885 17.6733 70.888 17.6782C70.883 17.6723 70.8761 17.6683 70.8701 17.6633C70.7443 17.5579 70.6076 17.4635 70.4769 17.3631C69.4949 16.6115 68.3932 16.006 67.2146 15.5944C67.038 15.5308 66.8593 15.4731 66.6787 15.4204C67.6806 16.1074 68.6297 16.865 69.5398 17.6633C69.6426 17.7548 69.7534 17.8403 69.8552 17.9337C70.9579 18.9289 71.9888 19.9986 72.9258 21.141C72.5466 20.0692 72.1644 19.0641 71.6335 18.055C71.853 18.1525 72.0716 18.2827 72.2881 18.4278C72.5097 18.578 72.7292 18.745 72.9448 18.9249Z" fill="#0D4F80"/>
<path fill-rule="evenodd" clip-rule="evenodd" d="M51.7699 94.6823C51.3049 94.7638 50.9955 95.2042 51.0774 95.6665L51.735 99.4006L51.0664 108.431C51.6222 108.554 52.1821 108.673 52.7499 108.786L53.4525 99.3152L52.7569 95.3722C52.6761 94.9099 52.238 94.6027 51.7699 94.6823ZM50.4914 81.8496L48.251 69.6391L47.0714 70.6015C38.1907 77.854 32.6132 81.4251 31.0724 81.1318C29.4727 80.8266 24.2135 75.2632 15.9236 64.872L17.5163 59.7241L30.9985 71.5231L37.559 63.8003C37.8794 63.4235 37.8324 62.8588 37.4542 62.5396C37.076 62.2205 36.5082 62.2672 36.1878 62.645L30.8089 68.976L16.6162 56.5547L13.9287 65.2468L14.2221 65.6156C23.1607 76.8449 28.4468 82.4531 30.7351 82.8895C33.0024 83.321 38.2187 80.0601 47.0305 72.9437L48.724 82.1717C48.8128 82.6579 49.2809 82.98 49.7689 82.8905C50.2578 82.802 50.5802 82.3358 50.4914 81.8496ZM51.463 87.5031L51.1127 85.1568C51.0408 84.6687 50.5738 84.3297 50.0928 84.4033C49.6018 84.4758 49.2635 84.9312 49.3353 85.4203L49.6856 87.7666C49.7515 88.21 50.1357 88.5291 50.5728 88.5291C50.6167 88.5291 50.6616 88.5261 50.7055 88.5192C51.1965 88.4476 51.5348 87.9922 51.463 87.5031Z" fill="#0F2B4A"/>
</svg>
