<svg width="160" height="96" viewBox="0 0 160 96" fill="none" xmlns="http://www.w3.org/2000/svg">
<path fill-rule="evenodd" clip-rule="evenodd" d="M80.006 3.07178C55.2181 3.07178 35.1235 23.0231 35.1235 47.6332C35.1235 72.2433 55.2181 92.1947 80.005 92.1947C104.782 92.1665 124.86 72.2313 124.889 47.6332C124.889 23.0231 104.794 3.07178 80.006 3.07178Z" fill="#D9D9D9"/>
<path fill-rule="evenodd" clip-rule="evenodd" d="M69.022 43.4829C69.9243 50.6804 75.5292 56.4073 82.7498 57.5095C81.8454 57.6751 80.929 57.7565 80.0105 57.7544C86.9269 57.9402 92.8612 52.8939 93.7383 46.0808L95.5237 31.8192C96.1006 28.2576 95.0518 24.6247 92.6611 21.9073C89.4581 18.3166 84.8575 16.2607 80.0256 16.2607C80.0166 16.2607 80.0075 16.2617 79.9984 16.2617L68.147 36.6025L69.022 43.4829Z" fill="#E5E5E5"/>
<path fill-rule="evenodd" clip-rule="evenodd" d="M66.2928 46.0391C67.1365 52.8722 73.0769 57.9456 80.0074 57.7539H80.0095C80.928 57.7559 81.8454 57.6746 82.7488 57.509C75.5292 56.4078 69.9233 50.6798 69.021 43.4823L68.146 36.602L65.6562 40.8743L64.5064 31.7775C64.1558 29.5791 64.4266 27.3556 65.246 25.3369C64.4134 27.3607 64.1315 29.5842 64.4872 31.7775L66.2928 46.0391Z" fill="#E5E5E5"/>
<path fill-rule="evenodd" clip-rule="evenodd" d="M65.7356 24.296C65.581 24.5932 65.4305 24.8933 65.3012 25.2005C65.283 25.2467 65.2648 25.2918 65.2476 25.338C64.4281 27.3557 64.1573 29.5792 64.508 31.7786L65.6578 40.8754L68.1475 36.6021L79.9989 16.2623L80.0222 16.2231C75.1933 16.2322 70.5989 18.285 67.3917 21.8667C66.9573 22.3586 66.5834 22.8886 66.2388 23.4347" fill="#F2F2F2"/>
<path fill-rule="evenodd" clip-rule="evenodd" d="M114.606 75.1399C112.227 68.5698 105.465 64.4852 96.9489 64.4852C92.117 64.4852 86.4636 66.3894 82.5866 67.9996C82.1824 68.1622 81.7671 68.2817 81.3468 68.366C81.7641 68.2807 82.1773 68.1713 82.5755 68.0086C86.4636 66.3995 90.958 67.9886 87.0699 69.5877C85.4057 70.2613 83.5424 70.2613 81.8772 69.5877C80.9133 69.1801 79.8564 68.7836 78.7277 68.4062C78.8702 68.4323 79.0127 68.4262 79.1551 68.4423C78.5559 68.37 77.9628 68.2295 77.395 67.9996C73.4452 66.3894 67.7504 64.4741 63.0316 64.4741C55.1108 64.4741 48.0833 68.7023 45.5178 75.0074L45.3228 75.425C45.3238 75.426 45.3258 75.428 45.3268 75.429L45.5178 75.0174C48.0833 68.7123 55.1108 64.4852 63.0316 64.4852C67.4321 64.4852 72.6641 66.1556 76.5644 67.6834C76.4542 67.6473 76.3431 67.6212 76.233 67.587C76.626 67.7386 77.0201 67.8912 77.3838 68.0398L77.7436 68.1622L65.4991 89.1967C70.1229 90.7617 75.0144 91.6029 80.011 91.6029C93.4215 91.6029 106.136 85.6732 114.699 75.425L114.606 75.1399Z" fill="#083F6B"/>
<path fill-rule="evenodd" clip-rule="evenodd" d="M63.0205 64.5155C67.3038 64.5155 72.3772 66.0915 76.233 67.5872C76.3431 67.6213 76.4543 67.6474 76.5634 67.6836C72.6641 66.1557 67.4321 64.4854 63.0317 64.4854C55.1109 64.4854 48.0833 68.7125 45.5178 75.0176L45.3258 75.4292L45.3218 75.4352C45.3228 75.4362 45.3238 75.4372 45.3248 75.4382L45.5077 75.0487C48.0722 68.7426 55.0998 64.5155 63.0205 64.5155Z" fill="#990000"/>
<path fill-rule="evenodd" clip-rule="evenodd" d="M115.277 75.0837C112.852 68.3861 105.958 64.2222 97.2787 64.2222C93.826 64.2222 89.9732 65.1808 86.6095 66.3162C85.206 66.3152 83.561 66.5822 81.9858 67.2347C81.4401 67.4565 80.8723 67.6071 80.3004 67.7236C80.2549 67.7336 80.2084 67.7396 80.1629 67.7477C79.684 67.838 79.198 67.8751 78.7109 67.8952C78.4098 67.9083 78.1097 67.8872 77.8056 67.8701C77.6904 67.8641 77.5742 67.8521 77.458 67.842C77.4206 67.827 77.3812 67.8199 77.3438 67.8049C75.137 66.9054 72.3947 65.9237 69.5746 65.21C69.5594 65.2079 69.5433 65.2079 69.5291 65.2059C72.0118 65.8343 74.4368 66.6756 76.4971 67.4826C76.3859 67.4465 76.2718 67.4194 76.1606 67.3843C74.1306 66.5973 71.7703 65.7932 69.3614 65.1939C68.7713 65.1427 68.1812 65.0905 67.5891 65.0704C59.4561 65.0704 52.2396 69.412 49.6064 75.8858L48.7223 78.814C47.3743 77.5622 46.1052 76.2291 44.9139 74.8287C44.8917 74.8839 44.8614 74.9351 44.8402 74.9904L44.6542 75.3879L44.6411 75.416C45.695 76.6698 46.8307 77.8433 48.0069 78.9716C48.0705 79.0328 48.1342 79.0961 48.1989 79.1573C48.7202 79.6522 49.2507 80.134 49.7943 80.6038C49.9833 80.7665 50.1763 80.9261 50.3683 81.0857C50.8533 81.4922 51.3403 81.8968 51.8425 82.2822C52.1749 82.5372 52.5174 82.7781 52.8559 83.0241C53.4369 83.4447 54.023 83.8573 54.6232 84.2508C55.189 84.6222 55.7589 84.9906 56.3419 85.3369C56.6218 85.5036 56.9058 85.6602 57.1907 85.8198C57.7828 86.1561 58.379 86.4823 58.9863 86.7925C59.2358 86.919 59.4854 87.0445 59.738 87.1669C60.4766 87.5273 61.2244 87.8696 61.9832 88.1898C62.1045 88.241 62.2247 88.2973 62.347 88.3474C63.1937 88.6978 64.0556 89.016 64.9246 89.3162C65.0216 89.3493 65.1145 89.3904 65.2126 89.4236L65.2186 89.4125C69.9313 91.0076 74.9188 91.8649 80.0114 91.8649C93.6826 91.8649 106.642 85.8208 115.372 75.3748L115.277 75.0837Z" fill="#595959"/>
<path fill-rule="evenodd" clip-rule="evenodd" d="M77.7005 67.9709L77.5176 67.9087L77.3347 67.8454C76.9629 67.6948 76.5607 67.5392 76.1616 67.3847C74.1317 66.5966 71.7703 65.7926 69.3614 65.1943C68.7713 65.1431 68.1812 65.0909 67.5881 65.0708C59.4561 65.0708 52.2406 69.4114 49.6064 75.8852L48.7223 78.8144C47.3733 77.5616 46.1052 76.2295 44.9149 74.8291C44.8917 74.8833 44.8624 74.9345 44.8402 74.9897L44.6553 75.3883L44.6411 75.4164C45.695 76.6702 46.8307 77.8427 48.0069 78.971C48.0715 79.0332 48.1342 79.0954 48.1999 79.1567C48.7202 79.6516 49.2517 80.1344 49.7953 80.6032C49.9833 80.7668 50.1773 80.9264 50.3683 81.0861C50.8543 81.4926 51.3403 81.8972 51.8425 82.2816C52.1749 82.5366 52.5175 82.7775 52.8559 83.0235C53.4369 83.4451 54.023 83.8567 54.6232 84.2502C55.19 84.6226 55.7589 84.991 56.3419 85.3373C56.6228 85.503 56.9068 85.6595 57.1897 85.8202C57.7828 86.1554 58.38 86.4827 58.9863 86.7919C59.2368 86.9184 59.4864 87.0438 59.738 87.1673C60.4766 87.5267 61.2244 87.869 61.9832 88.1902C62.1045 88.2414 62.2257 88.2976 62.347 88.3478C63.1947 88.6962 64.0556 89.0154 64.9246 89.3155C65.0216 89.3487 65.1155 89.3908 65.2136 89.4239L65.2186 89.4129L71.4591 78.6919L77.7005 67.9709Z" fill="#767676"/>
<path fill-rule="evenodd" clip-rule="evenodd" d="M48.596 79.1927L49.4872 76.2444C52.1375 69.7275 59.4005 65.3588 67.5871 65.3588C68.1842 65.3789 68.7784 65.4311 69.3715 65.4833C69.4271 65.4883 69.4837 65.4903 69.5402 65.4943C69.5554 65.4963 69.5716 65.4963 69.5857 65.4983C72.0825 65.7342 74.5469 66.2412 76.9285 67.0332C72.8999 65.4532 67.4911 63.7266 62.9421 63.7266C54.7576 63.7266 47.4936 68.0963 44.8422 74.6132L44.6411 75.0449C44.6785 75.089 44.7199 75.1302 44.7573 75.1744C44.7583 75.1764 44.7603 75.1774 44.7614 75.1784C44.7614 75.1794 44.7624 75.1804 44.7634 75.1814C45.9628 76.5908 47.2389 77.9319 48.596 79.1927Z" fill="#595959"/>
<path fill-rule="evenodd" clip-rule="evenodd" d="M79.2738 2.02539C80.366 2.02539 81.4492 2.06354 82.5223 2.13882C62.0721 3.79215 45.9294 23.3218 45.9294 47.1711C45.9294 71.0112 62.06 90.5359 82.4991 92.2013C81.4351 92.2766 80.358 92.3157 79.2738 92.3167C54.1614 92.3167 33.8042 72.1044 33.8042 47.1711C33.8042 22.2377 54.1614 2.02539 79.2738 2.02539Z" fill="white" fill-opacity="0.1"/>
<path fill-rule="evenodd" clip-rule="evenodd" d="M66.1403 25.5488C66.2596 25.2637 66.399 24.9867 66.5415 24.7116C66.7729 24.2689 66.5991 23.7238 66.1535 23.494C65.7059 23.2661 65.1592 23.4367 64.9278 23.8804C64.7611 24.1997 64.6004 24.5219 64.459 24.8592L64.4044 24.9957C63.496 27.2031 63.2141 29.5983 63.585 31.8911L65.3906 46.1486C66.2798 53.3502 72.3596 58.6635 79.5751 58.6625C79.7115 58.6625 79.8479 58.6605 79.9853 58.6575C87.408 58.8351 93.6989 53.4987 94.6407 46.1908L96.421 31.9623C97.0425 28.1227 95.9219 24.2408 93.3412 21.3086C90.3039 17.9026 86.0681 15.8055 81.5192 15.4221L81.5788 15.3177L80.0177 15.3207C74.9382 15.3287 70.0871 17.496 66.7102 21.2664C66.3768 21.6389 66.4111 22.21 66.786 22.5413C67.1619 22.8736 67.7348 22.8395 68.0703 22.467C70.8671 19.3441 74.7897 17.4468 78.9607 17.1637H80.0257C84.5949 17.1637 88.9509 19.1112 91.9751 22.5022C94.1961 25.0248 95.161 28.3686 94.6204 31.7074L92.836 45.9649C92.0145 52.3453 86.5198 57.0031 79.9823 56.8515C73.5266 57.0081 67.9864 52.3353 67.1952 45.9268L65.3845 31.6351C65.0622 29.6395 65.3057 27.5806 66.0939 25.6633L66.1403 25.5488ZM51.6874 13.3885C52.4008 12.8043 53.1323 12.2431 53.88 11.7051C54.2862 11.4119 54.3772 10.8468 54.0821 10.4432C53.7881 10.0387 53.2202 9.94834 52.813 10.2415C52.034 10.8016 51.2731 11.3858 50.5304 11.9932C50.1434 12.3104 50.0879 12.8806 50.4072 13.265C50.7265 13.6505 51.2994 13.7057 51.6874 13.3885Z" fill="#595959"/>
<path fill-rule="evenodd" clip-rule="evenodd" d="M80.0054 91.7904C66.3726 91.7904 54.1766 85.7051 46.0032 76.1275L46.1154 75.8865C46.1285 75.8645 46.1397 75.8424 46.1508 75.8193L46.3508 75.3866C48.7769 69.4248 55.4761 65.4185 63.021 65.4185C66.3696 65.4185 70.8236 66.4595 75.9566 68.4471L76.2779 68.5405C76.2779 68.5405 76.8023 68.7342 77.0519 68.8356C77.5046 69.0183 78.1128 69.1789 78.4382 69.2632C78.6241 69.3244 78.8666 69.3706 79.1415 69.3997L79.4486 69.4258C79.9215 69.4519 80.7036 69.3626 81.1613 69.3024C81.3998 69.3977 81.6504 69.4921 81.8787 69.5875C83.5429 70.261 85.4062 70.261 87.0693 69.5875C89.4762 68.5987 88.6699 67.6149 86.7864 67.388C89.9925 66.3039 93.6563 65.3884 96.9504 65.3884C105.066 65.3884 111.505 69.2421 113.742 75.4178L113.834 75.7028C113.878 75.8394 113.958 75.9518 114.051 76.0472C105.879 85.6599 93.6654 91.7753 80.0054 91.7904ZM80.0064 1.49902C71.4824 1.49902 63.2948 3.78677 56.146 8.05309C55.7155 8.31008 55.5761 8.8652 55.8348 9.29283C56.0934 9.72047 56.6522 9.859 57.0816 9.60202C63.9496 5.50334 71.8148 3.30593 80.0064 3.30593C104.616 3.30593 124.567 23.1137 124.567 47.5482C124.554 57.6889 121.103 67.0247 115.318 74.4852C112.694 67.7524 105.702 63.5815 96.9504 63.5815C91.9255 63.5815 86.1751 65.5299 82.2445 67.1622C81.9252 67.2907 81.5817 67.3941 81.2209 67.4684L81.1633 67.4804L81.1472 67.4904C80.8956 67.5567 79.9296 67.7143 79.2708 67.6099L78.8767 67.5085C78.6655 67.4543 78.1017 67.3097 77.741 67.1632C73.7185 65.5239 67.9024 63.5714 63.0321 63.5714C54.7819 63.5714 47.431 68.0004 44.725 74.5575C38.912 67.0849 35.4462 57.7211 35.4462 47.5482C35.4462 37.7888 38.6372 28.5113 44.4401 20.8912C45.7911 19.1174 47.2734 17.446 48.8759 15.8931C49.2356 15.5447 49.2437 14.9726 48.8921 14.6152C48.5404 14.2588 47.9655 14.2508 47.6058 14.6001C45.9386 16.2163 44.3946 17.955 42.9891 19.801C36.9487 27.7324 33.6274 37.3923 33.6274 47.5482C33.6274 72.9804 54.3919 93.5973 80.0064 93.5973C105.609 93.5682 126.356 72.9694 126.385 47.5492C126.385 22.1159 105.621 1.49902 80.0064 1.49902Z" fill="#595959"/>
<path fill-rule="evenodd" clip-rule="evenodd" d="M98.2007 76.4249C98.2007 65.6135 107.022 56.85 117.904 56.85C120.133 56.85 122.267 57.2345 124.265 57.9121C121.58 56.6021 118.571 55.8462 115.378 55.8462C104.217 55.8462 95.1694 64.8346 95.1694 75.923C95.1694 87.0104 104.217 95.9998 115.378 95.9998C115.805 95.9998 116.221 95.9616 116.641 95.9365C106.35 95.286 98.2007 86.8116 98.2007 76.4249Z" fill="white"/>
<path fill-rule="evenodd" clip-rule="evenodd" d="M124.266 57.9127H124.265C123.832 57.7661 123.394 57.6386 122.948 57.5222C122.814 57.486 122.68 57.4519 122.544 57.4188C122.181 57.3315 121.815 57.2521 121.444 57.1849C121.429 57.1819 121.414 57.1789 121.399 57.1759C121.131 57.1267 120.86 57.0905 120.588 57.0524C120.297 57.0132 120.009 56.9681 119.715 56.941C119.118 56.8847 118.516 56.8496 117.904 56.8496C112.773 56.8496 108.116 58.8141 104.61 62.0073C100.68 65.586 98.2007 70.7116 98.2007 76.4245C98.2007 77.087 98.235 77.7415 98.3007 78.387C98.324 78.6179 98.3704 78.8417 98.4007 79.0706C98.4573 79.4792 98.5079 79.8897 98.5887 80.2903C98.6453 80.5693 98.7261 80.8384 98.7938 81.1124C98.8777 81.4517 98.9535 81.793 99.0555 82.1253C99.1485 82.4284 99.2647 82.7216 99.3718 83.0197C99.4758 83.3068 99.5718 83.5979 99.6891 83.879C99.8224 84.2012 99.977 84.5114 100.128 84.8246C100.244 85.0645 100.352 85.3095 100.477 85.5444C100.655 85.8796 100.852 86.2009 101.048 86.5241C101.169 86.7209 101.283 86.9206 101.41 87.1134C101.635 87.4557 101.878 87.7829 102.123 88.1102C102.24 88.2658 102.353 88.4254 102.476 88.578C102.751 88.9223 103.043 89.2505 103.34 89.5758C103.448 89.6942 103.553 89.8147 103.664 89.9301C103.991 90.2704 104.333 90.5937 104.685 90.9099C104.779 90.9952 104.872 91.0815 104.967 91.1649C105.346 91.4941 105.741 91.8043 106.144 92.1045C106.222 92.1607 106.296 92.2189 106.374 92.2751C106.806 92.5853 107.249 92.8754 107.706 93.1505C107.763 93.1846 107.821 93.2207 107.879 93.2549C108.078 93.3723 108.289 93.4707 108.493 93.5811C108.78 93.7367 109.061 93.8993 109.356 94.0409C109.395 94.0599 109.434 94.079 109.473 94.0971C109.999 94.345 110.535 94.5689 111.084 94.7696C111.108 94.7787 111.13 94.7867 111.153 94.7957C111.718 95.0005 112.293 95.1792 112.88 95.3328C112.89 95.3358 112.901 95.3378 112.912 95.3408C113.509 95.4964 114.116 95.6239 114.734 95.7233L114.744 95.7243C115.367 95.8247 115.998 95.896 116.641 95.9361C116.683 95.9391 116.724 95.9401 116.765 95.9421C117.143 95.9682 117.519 95.9994 117.904 95.9994C128.787 95.9994 137.608 87.2358 137.608 76.4245C137.608 67.8286 132.022 60.5437 124.266 57.9127Z" fill="#767676"/>
<path fill-rule="evenodd" clip-rule="evenodd" d="M124.267 57.9128H124.266C123.833 57.7663 123.395 57.6388 122.949 57.5223C122.815 57.4862 122.681 57.4521 122.545 57.419C122.182 57.3316 121.815 57.2523 121.444 57.1851C127.343 60.0641 131.546 67.3509 131.546 75.9227C131.546 86.6297 125.003 95.3531 116.766 95.9423C117.144 95.9684 117.52 95.9995 117.905 95.9995C128.787 95.9995 137.608 87.236 137.608 76.4246C137.608 67.8288 132.023 60.5439 124.267 57.9128Z" fill="#595959"/>
<path fill-rule="evenodd" clip-rule="evenodd" d="M125.272 75.2937V77.984H118.313V84.8583H115.597V77.984H108.638V75.2937H115.597V68.4194H118.313V75.2937H125.272Z" fill="white"/>
<path fill-rule="evenodd" clip-rule="evenodd" d="M142.417 0C134.111 0 127.355 6.70866 127.355 14.9552C127.355 23.2017 134.111 29.9104 142.417 29.9104C150.713 29.9014 157.469 23.1927 157.48 14.9552C157.48 6.70866 150.723 0 142.417 0Z" fill="#F2F2F2"/>
<path fill-rule="evenodd" clip-rule="evenodd" d="M138.716 13.678C139.021 16.1042 140.91 18.0336 143.342 18.405C143.038 18.4603 142.73 18.4884 142.42 18.4874C144.751 18.5506 146.749 16.8501 147.045 14.5533L147.647 9.74794C147.842 8.54734 147.488 7.32266 146.683 6.40816C145.603 5.19753 144.053 4.50488 142.425 4.50488C142.422 4.50488 142.419 4.50488 142.416 4.50488L138.421 11.3591L138.716 13.678Z" fill="#CCCCCC"/>
<path fill-rule="evenodd" clip-rule="evenodd" d="M137.796 14.5396C138.08 16.8425 140.082 18.552 142.417 18.4877H142.418C142.728 18.4877 143.037 18.4606 143.341 18.4054C140.909 18.033 139.019 16.1036 138.715 13.6784L138.42 11.3595L137.581 12.8L137.194 9.73427C137.075 8.99343 137.167 8.24457 137.443 7.56396C137.162 8.24557 137.067 8.99444 137.187 9.73427L137.796 14.5396Z" fill="#D9D9D9"/>
<path fill-rule="evenodd" clip-rule="evenodd" d="M137.609 7.21259C137.556 7.31298 137.506 7.41336 137.461 7.51776C137.456 7.53282 137.45 7.54788 137.444 7.56394C137.167 8.24354 137.076 8.9924 137.195 9.73424L137.582 12.799L138.421 11.3595L142.415 4.50524L142.422 4.49219C140.796 4.4942 139.248 5.18684 138.166 6.39446C138.02 6.5601 137.894 6.73778 137.777 6.92148" fill="#D9D9D9"/>
<path fill-rule="evenodd" clip-rule="evenodd" d="M154.077 24.3462C153.275 22.1317 150.996 20.7555 148.127 20.7555C146.499 20.7555 144.593 21.3969 143.287 21.94C143.151 21.9942 143.011 22.0354 142.868 22.0635C143.01 22.0344 143.149 21.9982 143.283 21.943C144.593 21.4009 146.108 21.936 144.797 22.4751C144.236 22.7019 143.609 22.7019 143.048 22.4751C142.724 22.3385 142.367 22.204 141.986 22.0765C142.034 22.0856 142.082 22.0836 142.131 22.0886C141.929 22.0655 141.729 22.0173 141.538 21.94C140.206 21.3969 138.287 20.7515 136.698 20.7515C134.028 20.7515 131.66 22.1769 130.796 24.302L130.73 24.4426C130.73 24.4426 130.731 24.4426 130.731 24.4436L130.796 24.3051C131.66 22.1799 134.028 20.7555 136.698 20.7555C138.181 20.7555 139.943 21.3186 141.257 21.8336C141.22 21.8206 141.182 21.8125 141.146 21.8005C141.278 21.8517 141.411 21.9029 141.534 21.9531L141.655 21.9942L137.528 29.0833C139.086 29.6103 140.735 29.8934 142.419 29.8934C146.938 29.8934 151.223 27.8958 154.107 24.4426L154.077 24.3462Z" fill="#083F6B"/>
<path fill-rule="evenodd" clip-rule="evenodd" d="M143.048 22.4754C143.609 22.7023 144.236 22.7023 144.797 22.4754C146.107 21.9363 144.593 21.4013 143.282 21.9434C143.149 21.9976 143.009 22.0347 142.868 22.0628C142.858 22.0658 142.847 22.0668 142.835 22.0688C142.717 22.0919 142.598 22.1 142.479 22.105C142.404 22.109 142.33 22.103 142.257 22.099C142.214 22.0969 142.172 22.0939 142.13 22.0889C142.082 22.0839 142.033 22.0859 141.986 22.0769C142.367 22.2044 142.723 22.3379 143.048 22.4754Z" fill="#333333"/>
<path fill-rule="evenodd" clip-rule="evenodd" d="M136.694 20.7654C138.137 20.7654 139.846 21.2964 141.146 21.8004C141.182 21.8124 141.22 21.8204 141.258 21.8325C139.943 21.3185 138.181 20.7554 136.698 20.7554C134.028 20.7554 131.661 22.1798 130.796 24.3049L130.731 24.4435L130.73 24.4455L130.731 24.4465L130.792 24.315C131.657 22.1899 134.024 20.7654 136.694 20.7654Z" fill="#990000"/>
<path fill-rule="evenodd" clip-rule="evenodd" d="M154.077 24.3456C153.275 22.1311 150.996 20.7549 148.127 20.7549C146.499 20.7549 144.593 21.3973 143.286 21.9394C143.151 21.9946 143.011 22.0348 142.868 22.0629C143.01 22.0348 143.149 21.9976 143.283 21.9424C144.593 21.4004 146.108 21.9364 144.797 22.4755C144.238 22.7013 143.609 22.7013 143.048 22.4755C142.724 22.3379 142.366 22.2034 141.986 22.0769C142.035 22.086 142.082 22.084 142.131 22.089C141.929 22.0649 141.729 22.0167 141.538 21.9394C140.807 21.6423 139.901 21.317 138.969 21.0821C138.964 21.0811 138.958 21.0811 138.953 21.0811C139.774 21.2879 140.577 21.566 141.257 21.833C141.219 21.821 141.182 21.8129 141.146 21.8009C140.475 21.5409 139.695 21.2739 138.898 21.0771C138.703 21.06 138.508 21.042 138.311 21.036C135.624 21.036 133.238 22.4704 132.368 24.6106L132.075 25.5793C131.629 25.1647 131.21 24.7241 130.816 24.2623C130.809 24.2804 130.8 24.2964 130.792 24.3155L130.731 24.447L130.727 24.456C131.075 24.8696 131.45 25.2581 131.839 25.6305C131.86 25.6516 131.881 25.6717 131.903 25.6928C132.075 25.8554 132.25 26.016 132.43 26.1706C132.493 26.2248 132.556 26.277 132.62 26.3302C132.78 26.4647 132.941 26.5982 133.107 26.7257C133.217 26.81 133.33 26.8893 133.442 26.9707C133.634 27.1102 133.827 27.2467 134.026 27.3762C134.214 27.4997 134.401 27.6211 134.595 27.7356C134.687 27.7908 134.781 27.842 134.875 27.8952C135.07 28.0056 135.268 28.114 135.469 28.2164C135.551 28.2586 135.634 28.2997 135.717 28.3399C135.961 28.4594 136.208 28.5728 136.459 28.6782C136.5 28.6953 136.539 28.7143 136.579 28.7304C136.859 28.8458 137.144 28.9512 137.431 29.0506C137.465 29.0617 137.495 29.0757 137.526 29.0868L137.529 29.0827C139.086 29.6098 140.735 29.8938 142.419 29.8938C146.938 29.8938 151.223 27.8952 154.107 24.442L154.077 24.3456Z" fill="#595959"/>
<path fill-rule="evenodd" clip-rule="evenodd" d="M137.99 21.2298C138.178 21.2358 138.365 21.2528 138.552 21.2689C138.569 21.2709 138.588 21.2709 138.604 21.2729C138.609 21.2729 138.614 21.2729 138.619 21.2739C139.404 21.3482 140.179 21.5068 140.928 21.7558C139.661 21.2599 137.961 20.7168 136.53 20.7168C133.957 20.7168 131.673 22.09 130.84 24.1389L130.776 24.2754C130.788 24.2885 130.801 24.3025 130.812 24.3156C130.813 24.3166 130.813 24.3166 130.813 24.3176H130.814C131.191 24.7613 132.122 25.7641 132.548 26.1606" fill="#595959"/>
<path fill-rule="evenodd" clip-rule="evenodd" d="M141.655 21.9943L141.594 21.9732L141.534 21.9532C141.411 21.903 141.278 21.8518 141.146 21.8006C140.475 21.5406 139.695 21.2746 138.897 21.0768C138.703 21.0597 138.508 21.0427 138.311 21.0356C135.624 21.0356 133.238 22.4711 132.368 24.6103L132.076 25.579C131.629 25.1654 131.21 24.7248 130.816 24.262C130.809 24.2801 130.8 24.2961 130.792 24.3152L130.73 24.4467L130.727 24.4557C131.075 24.8703 131.45 25.2578 131.839 25.6312C131.861 25.6513 131.881 25.6724 131.902 25.6925C132.075 25.8561 132.25 26.0157 132.43 26.1703C132.492 26.2245 132.556 26.2777 132.62 26.3299C132.78 26.4644 132.941 26.5979 133.107 26.7254C133.216 26.8097 133.33 26.889 133.442 26.9713C133.634 27.1099 133.828 27.2464 134.026 27.3759C134.214 27.4994 134.401 27.6208 134.594 27.7353C134.687 27.7905 134.781 27.8417 134.875 27.8949C135.07 28.0063 135.268 28.1137 135.469 28.2161C135.551 28.2583 135.634 28.2994 135.717 28.3406C135.961 28.459 136.208 28.5725 136.458 28.6789C136.499 28.6959 136.539 28.714 136.579 28.7301C136.859 28.8465 137.144 28.9519 137.431 29.0503C137.464 29.0623 137.495 29.0754 137.526 29.0864L137.528 29.0834L139.592 25.5389L141.655 21.9943Z" fill="#767676"/>
<path fill-rule="evenodd" clip-rule="evenodd" d="M154.806 17.9302C154.639 17.873 154.467 17.8238 154.294 17.7786C154.242 17.7635 154.19 17.7505 154.138 17.7385C153.995 17.7043 153.854 17.6732 153.708 17.6471C153.702 17.6461 153.697 17.6441 153.691 17.6431C153.587 17.624 153.481 17.61 153.376 17.5959C153.263 17.5798 153.149 17.5628 153.035 17.5517C152.804 17.5307 152.568 17.5166 152.33 17.5166C150.332 17.5166 148.52 18.2815 147.155 19.5243C145.625 20.9176 144.66 22.9132 144.66 25.1378C144.66 25.3957 144.673 25.6497 144.698 25.9007C144.707 25.991 144.725 26.0784 144.737 26.1677C144.76 26.3263 144.779 26.4859 144.81 26.6425C144.832 26.7509 144.864 26.8563 144.89 26.9627C144.923 27.0942 144.953 27.2277 144.992 27.3562C145.027 27.4747 145.073 27.5891 145.115 27.7046C145.156 27.817 145.193 27.9294 145.239 28.0399C145.29 28.1653 145.352 28.2858 145.409 28.4073C145.454 28.5016 145.496 28.596 145.546 28.6883C145.615 28.8188 145.691 28.9433 145.768 29.0688C145.816 29.1461 145.859 29.2234 145.908 29.2987C145.996 29.4322 146.091 29.5587 146.186 29.6861C146.233 29.7474 146.276 29.8096 146.323 29.8688C146.431 30.0034 146.544 30.1308 146.659 30.2573C146.702 30.3035 146.743 30.3507 146.787 30.3949C146.913 30.5274 147.046 30.6539 147.184 30.7763C147.22 30.8104 147.255 30.8436 147.293 30.8757C147.441 31.0042 147.594 31.1257 147.753 31.2421C147.782 31.2642 147.811 31.2863 147.842 31.3084C148.009 31.4288 148.182 31.5422 148.36 31.6497C148.383 31.6627 148.404 31.6758 148.428 31.6898C148.505 31.735 148.587 31.7741 148.667 31.8163C148.777 31.8775 148.888 31.9408 149.003 31.996C149.018 32.003 149.033 32.01 149.048 32.0181C149.253 32.1134 149.461 32.2008 149.675 32.2791C149.685 32.2831 149.693 32.2861 149.702 32.2891C149.922 32.3694 150.146 32.4387 150.374 32.4989C150.378 32.4999 150.382 32.5009 150.387 32.5019C150.618 32.5621 150.856 32.6113 151.096 32.6515H151.1C151.343 32.6906 151.588 32.7177 151.838 32.7338C151.854 32.7348 151.871 32.7348 151.887 32.7368C152.034 32.7459 152.18 32.7579 152.33 32.7579C156.567 32.7579 160.001 29.3469 160.001 25.1378C160.001 21.791 157.826 18.9551 154.806 17.9302Z" fill="#999999"/>
<path fill-rule="evenodd" clip-rule="evenodd" d="M152.859 22.0215H151.8V24.6977H149.091V25.7447H151.8V28.421H152.859V25.7447H155.568V24.6977H152.859V22.0215Z" fill="white"/>
<path fill-rule="evenodd" clip-rule="evenodd" d="M15.1024 28.0674C6.77545 28.0674 0.000488281 34.7941 0.000488281 43.0627C0.000488281 51.3314 6.77545 58.0581 15.1024 58.0581C23.4203 58.0491 30.1963 51.3223 30.2054 43.0627C30.2054 34.7941 23.4304 28.0674 15.1024 28.0674Z" fill="#F2F2F2"/>
<path fill-rule="evenodd" clip-rule="evenodd" d="M11.401 41.7854C11.7051 44.2117 13.5947 46.1411 16.0268 46.5125C15.7226 46.5677 15.4145 46.5958 15.1042 46.5948C17.4353 46.658 19.434 44.9575 19.73 42.6607L20.3312 37.8554C20.5262 36.6548 20.1726 35.4301 19.3673 34.5156C18.2871 33.305 16.7371 32.6123 15.1093 32.6123C15.1063 32.6123 15.1032 32.6123 15.1002 32.6123L11.106 39.4665L11.401 41.7854Z" fill="#CCCCCC"/>
<path fill-rule="evenodd" clip-rule="evenodd" d="M10.4811 42.6471C10.766 44.9499 12.7677 46.6594 15.1028 46.5952H15.1038C15.414 46.5952 15.7222 46.5681 16.0264 46.5129C13.5942 46.1404 11.7047 44.2111 11.4006 41.7858L11.1055 39.4669L10.2669 40.9074L9.87989 37.8417C9.76066 37.1009 9.85261 36.352 10.1285 35.6714C9.84756 36.353 9.75258 37.1019 9.87282 37.8417L10.4811 42.6471Z" fill="#D9D9D9"/>
<path fill-rule="evenodd" clip-rule="evenodd" d="M10.2942 35.32C10.2416 35.4204 10.1911 35.5208 10.1466 35.6252C10.1416 35.6402 10.1355 35.6553 10.1295 35.6714C9.8526 36.351 9.76166 37.0998 9.88089 37.8417L10.2679 40.9064L11.1065 39.4669L15.1008 32.6127L15.1079 32.5996C13.4811 32.6016 11.9331 33.2943 10.8519 34.5019C10.7054 34.6675 10.5791 34.8452 10.4629 35.0289" fill="#D9D9D9"/>
<path fill-rule="evenodd" clip-rule="evenodd" d="M26.7626 52.4536C25.9603 50.2392 23.6818 48.8629 20.8122 48.8629C19.1844 48.8629 17.2787 49.5044 15.9722 50.0474C15.8368 50.1016 15.6964 50.1428 15.5539 50.1709C15.6953 50.1418 15.8348 50.1057 15.9682 50.0504C17.2787 49.5084 18.7933 50.0434 17.4828 50.5825C16.922 50.8093 16.2945 50.8093 15.7337 50.5825C15.4094 50.446 15.0527 50.3114 14.6718 50.184C14.7193 50.193 14.7678 50.191 14.8163 50.196C14.6142 50.1729 14.4141 50.1247 14.2231 50.0474C12.8914 49.5044 10.9726 48.8589 9.38315 48.8589C6.71359 48.8589 4.34513 50.2843 3.48121 52.4095L3.41553 52.55C3.41553 52.55 3.41654 52.55 3.41654 52.551L3.48121 52.4125C4.34513 50.2874 6.71359 48.8629 9.38315 48.8629C10.8665 48.8629 12.6287 49.4261 13.9422 49.941C13.9059 49.928 13.8675 49.9199 13.8311 49.9079C13.9635 49.9591 14.0968 50.0103 14.2191 50.0605L14.3403 50.1016L10.2137 57.1908C11.7718 57.7178 13.4209 58.0009 15.1042 58.0009C19.6239 58.0009 23.9082 56.0032 26.7929 52.55L26.7626 52.4536Z" fill="#083F6B"/>
<path fill-rule="evenodd" clip-rule="evenodd" d="M15.7334 50.5828C16.2941 50.8097 16.9216 50.8097 17.4824 50.5828C18.7929 50.0438 17.2783 49.5087 15.9678 50.0508C15.8344 50.105 15.695 50.1421 15.5535 50.1702C15.5434 50.1733 15.5323 50.1743 15.5202 50.1763C15.4029 50.1994 15.2837 50.2074 15.1645 50.2124C15.0897 50.2164 15.0159 50.2104 14.9422 50.2064C14.8997 50.2044 14.8573 50.2014 14.8159 50.1963C14.7674 50.1913 14.7189 50.1933 14.6714 50.1843C15.0523 50.3118 15.409 50.4453 15.7334 50.5828Z" fill="#333333"/>
<path fill-rule="evenodd" clip-rule="evenodd" d="M9.37911 48.8728C10.823 48.8728 12.5317 49.4039 13.8311 49.9078C13.8675 49.9198 13.9059 49.9279 13.9432 49.9399C12.6287 49.4259 10.8665 48.8628 9.38315 48.8628C6.71359 48.8628 4.34614 50.2872 3.48121 52.4124L3.41654 52.5509L3.41553 52.5529L3.41654 52.5539L3.47716 52.4224C4.3421 50.2973 6.70954 48.8728 9.37911 48.8728Z" fill="#990000"/>
<path fill-rule="evenodd" clip-rule="evenodd" d="M26.7627 52.453C25.9604 50.2386 23.6819 48.8623 20.8123 48.8623C19.1845 48.8623 17.2788 49.5048 15.9713 50.0468C15.8369 50.102 15.6965 50.1422 15.554 50.1703C15.6954 50.1422 15.8349 50.1051 15.9683 50.0498C17.2788 49.5078 18.7934 50.0438 17.4829 50.5829C16.9231 50.8088 16.2946 50.8088 15.7338 50.5829C15.4095 50.4454 15.0518 50.3108 14.6719 50.1844C14.7204 50.1934 14.7679 50.1914 14.8164 50.1964C14.6143 50.1723 14.4142 50.1241 14.2232 50.0468C13.4927 49.7497 12.5863 49.4245 11.6547 49.1896C11.6497 49.1886 11.6436 49.1886 11.6385 49.1886C12.46 49.3953 13.2623 49.6734 13.9423 49.9404C13.905 49.9284 13.8676 49.9204 13.8312 49.9083C13.1603 49.6483 12.3802 49.3813 11.584 49.1845C11.389 49.1675 11.194 49.1494 10.9969 49.1434C8.30916 49.1434 5.92353 50.5779 5.05354 52.7181L4.76052 53.6868C4.31492 53.2722 3.89559 52.8315 3.50152 52.3697C3.49444 52.3878 3.48535 52.4039 3.47727 52.4229L3.41664 52.5544L3.4126 52.5635C3.76019 52.977 4.13506 53.3655 4.52408 53.738C4.5453 53.759 4.56651 53.7791 4.58874 53.8002C4.76052 53.9628 4.93532 54.1234 5.11518 54.278C5.17884 54.3322 5.24148 54.3844 5.30514 54.4376C5.4658 54.5721 5.62646 54.7057 5.79217 54.8331C5.90231 54.9175 6.01548 54.9968 6.12764 55.0781C6.31962 55.2176 6.51261 55.3541 6.71167 55.4836C6.89961 55.6071 7.08654 55.7286 7.28054 55.843C7.37249 55.8982 7.46646 55.9494 7.56043 56.0026C7.75545 56.113 7.95349 56.2215 8.15457 56.3238C8.23641 56.366 8.31927 56.4072 8.40212 56.4473C8.64665 56.5668 8.89319 56.6802 9.14479 56.7856C9.18521 56.8027 9.22462 56.8217 9.26503 56.8378C9.54493 56.9533 9.82987 57.0587 10.1168 57.158C10.1502 57.1691 10.1805 57.1831 10.2118 57.1942L10.2148 57.1902C11.7719 57.7172 13.421 58.0013 15.1043 58.0013C19.624 58.0013 23.9083 56.0026 26.793 52.5494L26.7627 52.453Z" fill="#595959"/>
<path fill-rule="evenodd" clip-rule="evenodd" d="M4.22427 53.2637L5.2347 54.2675C6.06831 52.2187 8.10333 49.3367 10.6769 49.3367C10.8638 49.3437 11.0518 49.3598 11.2377 49.3758C11.2559 49.3778 11.2741 49.3778 11.2902 49.3798C11.2953 49.3808 11.3003 49.3808 11.3054 49.3808C12.0905 49.4551 12.8655 49.6147 13.6142 49.8637C12.3472 49.3668 10.6466 48.8247 9.21582 48.8247C6.64325 48.8247 4.35967 50.198 3.52606 52.2468L3.4624 52.3823C3.47453 52.3964 3.48766 52.4094 3.49878 52.4235C3.49979 52.4235 3.49979 52.4245 3.49979 52.4245C3.5008 52.4245 3.5008 52.4255 3.5008 52.4255C3.87769 52.8682 3.79787 52.8672 4.22427 53.2637Z" fill="#595959"/>
<path fill-rule="evenodd" clip-rule="evenodd" d="M14.3404 50.1017L14.2798 50.0807L14.2192 50.0606C14.0969 50.0104 13.9636 49.9592 13.8312 49.908C13.1603 49.648 12.3802 49.382 11.583 49.1842C11.389 49.1672 11.194 49.1501 10.9969 49.1431C8.30916 49.1431 5.92353 50.5786 5.05354 52.7177L4.76153 53.6864C4.31492 53.2729 3.89559 52.8322 3.50152 52.3694C3.49444 52.3875 3.48535 52.4035 3.47727 52.4226L3.41563 52.5541L3.4126 52.5631C3.76019 52.9777 4.13506 53.3652 4.52408 53.7386C4.54631 53.7587 4.56651 53.7798 4.58773 53.7999C4.76052 53.9635 4.93532 54.1231 5.11518 54.2777C5.17783 54.3319 5.24148 54.3851 5.30514 54.4373C5.4658 54.5718 5.62646 54.7053 5.79217 54.8328C5.9013 54.9172 6.01548 54.9965 6.12764 55.0788C6.31962 55.2173 6.51362 55.3538 6.71167 55.4833C6.89961 55.6068 7.08654 55.7283 7.27953 55.8427C7.37249 55.8979 7.46646 55.9491 7.56043 56.0023C7.75545 56.1137 7.95349 56.2211 8.15457 56.3235C8.23641 56.3657 8.31927 56.4068 8.40212 56.448C8.64665 56.5665 8.8932 56.6799 9.14378 56.7863C9.1842 56.8034 9.22462 56.8214 9.26504 56.8375C9.54493 56.9539 9.82987 57.0593 10.1168 57.1577C10.1492 57.1698 10.1805 57.1828 10.2118 57.1939L10.2138 57.1908L12.2771 53.6463L14.3404 50.1017Z" fill="#767676"/>
<path fill-rule="evenodd" clip-rule="evenodd" d="M27.491 46.0376C27.3233 45.9804 27.1515 45.9312 26.9787 45.886C26.9262 45.871 26.8747 45.8579 26.8221 45.8459C26.6796 45.8117 26.5382 45.7806 26.3927 45.7545C26.3866 45.7535 26.3816 45.7515 26.3755 45.7505C26.2714 45.7314 26.1653 45.7174 26.0602 45.7033C25.9471 45.6873 25.8339 45.6702 25.7197 45.6592C25.4883 45.6381 25.2529 45.624 25.0144 45.624C23.0168 45.624 21.2041 46.3889 19.84 47.6317C18.3092 49.025 17.3442 51.0207 17.3442 53.2452C17.3442 53.5032 17.3574 53.7571 17.3826 54.0081C17.3917 54.0984 17.4099 54.1858 17.422 54.2751C17.4443 54.4337 17.4635 54.5933 17.4948 54.7499C17.517 54.8583 17.5483 54.9637 17.5746 55.0702C17.608 55.2017 17.6373 55.3352 17.6767 55.4637C17.712 55.5821 17.7575 55.6965 17.7999 55.812C17.8404 55.9244 17.8777 56.0368 17.9232 56.1473C17.9747 56.2728 18.0364 56.3932 18.094 56.5147C18.1384 56.609 18.1809 56.7034 18.2304 56.7958C18.2991 56.9263 18.3759 57.0507 18.4527 57.1762C18.5002 57.2535 18.5436 57.3308 18.5921 57.4061C18.681 57.5396 18.776 57.6661 18.871 57.7936C18.9175 57.8548 18.9609 57.917 19.0074 57.9763C19.1155 58.1108 19.2287 58.2383 19.3439 58.3648C19.3863 58.4109 19.4278 58.4581 19.4712 58.5023C19.5975 58.6348 19.7309 58.7613 19.8683 58.8837C19.9047 58.9179 19.94 58.951 19.9774 58.9831C20.126 59.1116 20.2785 59.2331 20.4372 59.3495C20.4665 59.3716 20.4958 59.3937 20.5261 59.4158C20.6938 59.5362 20.8666 59.6497 21.0444 59.7571C21.0677 59.7701 21.0889 59.7832 21.1121 59.7972C21.19 59.8424 21.2718 59.8816 21.3516 59.9237C21.4618 59.985 21.5729 60.0482 21.6871 60.1034C21.7022 60.1104 21.7174 60.1175 21.7326 60.1255C21.9377 60.2209 22.1458 60.3082 22.36 60.3865C22.3691 60.3905 22.3772 60.3935 22.3863 60.3965C22.6066 60.4768 22.8309 60.5461 23.0582 60.6063C23.0623 60.6073 23.0663 60.6083 23.0714 60.6093C23.3028 60.6696 23.5402 60.7188 23.7807 60.7589H23.7847C24.0273 60.7981 24.2728 60.8252 24.5224 60.8412C24.5385 60.8422 24.5557 60.8422 24.5719 60.8442C24.7184 60.8533 24.8649 60.8653 25.0144 60.8653C29.2512 60.8653 32.6857 57.4543 32.6857 53.2452C32.6857 49.8984 30.5102 47.0625 27.491 46.0376Z" fill="#595959"/>
<path fill-rule="evenodd" clip-rule="evenodd" d="M25.5438 50.1289H24.4849V52.8051H21.7759V53.8521H24.4849V56.5284H25.5438V53.8521H28.2528V52.8051H25.5438V50.1289Z" fill="white"/>
</svg>
