<svg width="102" height="84" viewBox="0 0 102 84" fill="none" xmlns="http://www.w3.org/2000/svg">
<path fill-rule="evenodd" clip-rule="evenodd" d="M74.6158 39.3622C79.342 36.5025 82.3189 31.4726 82.5843 26.0301C80.4124 25.0578 78.0403 24.5483 75.6531 24.5483C72.5921 24.5483 69.5871 25.3872 66.9607 26.9778C62.2374 29.8375 59.2585 34.8674 58.9932 40.3099C61.165 41.2812 63.5382 41.7916 65.9243 41.7916C68.9854 41.7916 71.9893 40.9528 74.6158 39.3622Z" fill="#D9D9D9"/>
<path fill-rule="evenodd" clip-rule="evenodd" d="M74.9346 41.1101C72.3692 42.6622 69.4363 43.4822 66.4554 43.4802C64.3376 43.4802 62.2258 43.0687 60.2592 42.2764C60.7028 37.1851 63.5746 32.5498 67.9934 29.8741C70.5538 28.3241 73.4867 27.506 76.4726 27.506C78.5904 27.506 80.7042 27.9175 82.6688 28.7079C82.2232 33.8001 79.3514 38.4364 74.9346 41.1101ZM52.2587 43.4802C49.2747 43.4802 46.3429 42.6612 43.7795 41.1101C39.3626 38.4374 36.4899 33.8011 36.0463 28.7079C38.0079 27.9165 40.1196 27.506 42.2424 27.506C45.2284 27.506 48.1603 28.3241 50.7196 29.8741C54.5968 32.2224 57.2823 36.0802 58.1835 40.4296V42.3703C56.294 43.0944 54.2793 43.4802 52.2587 43.4802ZM43.7805 15.3856C39.3626 12.7129 36.4899 8.07662 36.0463 2.98434C38.0099 2.19201 40.1217 1.78151 42.2424 1.78151C45.2284 1.78151 48.1613 2.60054 50.7196 4.15157C55.0483 6.76992 57.8881 11.2746 58.4188 16.2462C58.3207 16.354 58.2596 16.4866 58.2245 16.632C56.323 17.366 54.2944 17.7567 52.2587 17.7567C49.2737 17.7567 46.3409 16.9367 43.7805 15.3856ZM67.9934 4.15058C70.5528 2.59955 73.4847 1.78052 76.4726 1.78052C78.5924 1.78052 80.7042 2.19201 82.6688 2.98533C82.2232 8.07662 79.3524 12.7119 74.9336 15.3856C72.3712 16.9377 69.4423 17.7557 66.4544 17.7557C64.3376 17.7557 62.2258 17.3442 60.2592 16.5509C60.7038 11.4596 63.5756 6.82432 67.9934 4.15058ZM83.9815 27.3289C81.6264 26.2745 79.054 25.7255 76.4726 25.7255C73.1542 25.7255 69.8959 26.6345 67.0522 28.3557C63.899 30.2648 61.4588 33.0711 59.9849 36.3304V18.3314C62.0526 19.1099 64.2455 19.5362 66.4544 19.5362C69.7748 19.5362 73.0311 18.6262 75.8758 16.903C80.9796 13.8148 84.2208 8.37634 84.5102 2.45909L84.5393 1.8547L83.9815 1.60543C81.6264 0.549982 79.056 0 76.4726 0C73.1522 0 69.8939 0.910042 67.0512 2.63319C63.3944 4.84696 60.6998 8.26951 59.356 12.2084C58.0133 8.26951 55.3187 4.84597 51.6619 2.63319C48.8201 0.911031 45.5618 0 42.2424 0C39.659 0 37.0886 0.549982 34.7325 1.60444L34.1748 1.85372L34.2038 2.4581C34.4922 8.37634 37.7345 13.8158 42.8382 16.904C45.682 18.6262 48.9403 19.5362 52.2587 19.5362C54.2713 19.5362 56.277 19.191 58.1835 18.5431V35.2334C56.6825 32.443 54.4546 30.0472 51.6629 28.3557C48.8191 26.6345 45.5608 25.7255 42.2424 25.7255C39.657 25.7255 37.0856 26.2735 34.7325 27.3289L34.1748 27.5782L34.2038 28.1826C34.4922 34.1008 37.7345 39.5403 42.8382 42.6285C45.685 44.3507 48.9413 45.2607 52.2587 45.2607C54.2713 45.2607 56.277 44.9155 58.1835 44.2666V60.6701C58.1835 61.1617 58.586 61.5604 59.0837 61.5604C59.5813 61.5604 59.9849 61.1617 59.9849 60.6701V44.0569C62.0526 44.8344 64.2455 45.2607 66.4554 45.2607C69.7688 45.2627 73.0281 44.3517 75.8758 42.6285C80.9786 39.5393 84.2208 34.0999 84.5102 28.1826L84.5403 27.5782L83.9815 27.3289Z" fill="#595959"/>
<path fill-rule="evenodd" clip-rule="evenodd" d="M20.6035 74.1502V74.265L27.6308 76.0999L50.3868 81.4078C54.0276 82.4791 57.343 82.483 60.2939 81.4365C60.4982 81.3633 60.7345 81.2703 60.9958 81.1615C61.0749 81.1288 61.1711 81.0853 61.2572 81.0487C61.4504 80.9646 61.6477 80.8786 61.87 80.7777C61.9821 80.7263 62.1083 80.6659 62.2284 80.6105C62.4487 80.5076 62.674 80.4018 62.9174 80.2841C63.0545 80.2178 63.1997 80.1456 63.3439 80.0744C63.6003 79.9478 63.8666 79.8162 64.148 79.6738C64.2982 79.5986 64.4524 79.5205 64.6086 79.4403C64.916 79.283 65.2354 79.1179 65.5689 78.9448C65.7251 78.8646 65.8803 78.7835 66.0415 78.6984C66.409 78.5056 66.7955 78.3008 67.193 78.0891C67.3412 78.01 67.4854 77.9338 67.6376 77.8517C68.0932 77.6084 68.5688 77.3502 69.0615 77.0831C69.1776 77.0198 69.2868 76.9605 69.4049 76.8962C70.0227 76.5598 70.6636 76.2077 71.3365 75.8358C71.3375 75.8358 71.3375 75.8348 71.3375 75.8348L89.2922 65.2229V65.2219C89.4043 65.0805 89.4954 64.9469 89.5645 64.8213V64.8203L56.2095 79.1762L20.6035 74.1502Z" fill="#D9D9D9"/>
<path fill-rule="evenodd" clip-rule="evenodd" d="M12.0007 52.0273C10.8952 52.0273 9.99805 52.9136 9.99805 54.0057C9.99805 55.0977 10.8952 55.984 12.0007 55.984C13.1061 55.984 14.0033 55.0977 14.0033 54.0057C14.0033 52.9136 13.1061 52.0273 12.0007 52.0273Z" fill="#6EE3FF"/>
<path fill-rule="evenodd" clip-rule="evenodd" d="M18.3231 47.2124H5.05664L10.5939 79.4981H18.3231C18.5865 79.4981 18.8008 79.2864 18.8008 79.0263V47.6852C18.8008 47.4241 18.5865 47.2124 18.3231 47.2124Z" fill="#D9D9D9"/>
<path fill-rule="evenodd" clip-rule="evenodd" d="M12.0007 55.9836C10.8952 55.9836 9.99805 55.0973 9.99805 54.0052C9.99805 52.9132 10.8952 52.0269 12.0007 52.0269C13.1061 52.0269 14.0033 52.9132 14.0033 54.0052C14.0033 55.0973 13.1061 55.9836 12.0007 55.9836Z" fill="#595959"/>
<path fill-rule="evenodd" clip-rule="evenodd" d="M89.5642 64.821C89.4951 64.9476 89.404 65.0811 89.2918 65.2226C89.0936 65.4699 88.8432 65.735 88.4788 66.0297C81.5456 70.0804 75.8291 73.3506 71.3371 75.8354C71.3371 75.8354 71.3371 75.8354 71.3361 75.8354C70.6632 76.2074 70.0214 76.5605 69.4046 76.8968C69.2864 76.9611 69.1773 77.0205 69.0601 77.0828C68.5685 77.3508 68.0919 77.609 67.6372 77.8524C67.485 77.9335 67.3409 78.0106 67.1927 78.0898C66.7951 78.3014 66.4086 78.5062 66.0411 78.6991C65.8799 78.7832 65.7237 78.8643 65.5685 78.9454C65.2351 79.1185 64.9157 79.2837 64.6083 79.44C64.452 79.5201 64.2979 79.5992 64.1477 79.6744C63.8663 79.8169 63.5999 79.9484 63.3426 80.075C63.1994 80.1463 63.0532 80.2175 62.917 80.2838C62.6737 80.4015 62.4484 80.5073 62.2281 80.6102C62.108 80.6666 61.9818 80.7269 61.8696 80.7783C61.6473 80.8792 61.4501 80.9653 61.2558 81.0484C61.1707 81.085 61.0746 81.1285 60.9955 81.1621C60.7341 81.271 60.4978 81.3639 60.2936 81.4361C57.3427 82.4837 54.0273 82.4797 50.3865 81.4084L27.6295 76.1005L20.6032 74.4931V74.2656V74.1509V53.486L28.4265 51.3237C33.6504 51.0952 37.3293 52.5156 39.6964 55.6661C41.9143 58.6198 48.4269 59.7603 54.1725 60.7673C57.2375 61.3034 62.9401 62.3025 62.9401 63.2986V65.7765C60.3146 66.6806 57.624 67.5709 54.8704 68.4394L39.6503 63.8664C39.1767 63.723 38.671 63.9881 38.5258 64.4589C38.3816 64.9298 38.65 65.4263 39.1266 65.5698L54.8814 70.303L55.1498 70.2199C63.0622 67.7301 70.49 65.0791 77.2259 62.3371C86.8326 58.4289 88.694 61.7713 89.5902 63.3787C89.7154 63.6043 89.9647 64.087 89.5642 64.821ZM91.1693 62.5191C89.6503 59.7969 86.4861 56.6444 76.539 60.6912C72.8121 62.2085 68.8629 63.6963 64.7434 65.1464V63.2986C64.7434 60.8099 60.4408 60.0571 54.4879 59.0135C49.3401 58.1124 42.9357 56.9906 41.1443 54.6057C38.4127 50.9705 34.069 49.2711 28.2373 49.5501L20.8355 51.5986C20.7474 51.6234 20.6753 51.6718 20.6032 51.7174V47.6845C20.6032 47.183 20.43 46.724 20.1486 46.3491C20.1296 46.3244 20.1095 46.3026 20.0895 46.2779C19.671 45.7665 19.0381 45.4321 18.3232 45.4321H0.901189C0.419554 45.4321 0.0330436 45.808 0.00801056 46.2779C0.00801056 46.2937 0 46.3066 0 46.3224C0 46.814 0.403532 47.2126 0.901189 47.2126H5.05667H18.3232C18.5855 47.2126 18.7998 47.4243 18.7998 47.6845V79.0255C18.7998 79.2867 18.5855 79.4983 18.3232 79.4983H10.594H7.28762C6.80598 79.4983 6.41947 79.8742 6.39444 80.3441C6.39344 80.3599 6.38643 80.3728 6.38643 80.3886C6.38643 80.8802 6.78996 81.2789 7.28762 81.2789H18.3232C19.5798 81.2789 20.6032 80.2679 20.6032 79.0255V76.2311C20.6853 76.2825 20.7734 76.331 20.8735 76.3538L49.9219 83.1276C51.8965 83.7093 53.803 84.0001 55.6294 84.0001C56.2482 84.0001 56.853 83.9546 57.4528 83.8883C57.5169 83.8814 57.581 83.8725 57.6451 83.8636C58.7645 83.7261 59.854 83.4847 60.9034 83.1118C64.1376 81.9634 73.478 76.8652 89.454 67.5283L89.5602 67.4561C92.0585 65.4708 91.8142 63.6755 91.1693 62.5191Z" fill="#595959"/>
<path fill-rule="evenodd" clip-rule="evenodd" d="M11.0811 17.6448H14.4315V15.8643H11.0811V17.6448Z" fill="#595959"/>
<path fill-rule="evenodd" clip-rule="evenodd" d="M16.0425 14.2727H17.8449V10.9639H16.0425V14.2727Z" fill="#595959"/>
<path fill-rule="evenodd" clip-rule="evenodd" d="M19.4561 17.6448H22.8055V15.8643H19.4561V17.6448Z" fill="#595959"/>
<path fill-rule="evenodd" clip-rule="evenodd" d="M16.043 22.5451H17.8453V19.2354H16.043V22.5451Z" fill="#595959"/>
<path fill-rule="evenodd" clip-rule="evenodd" d="M93.917 44.3538L96.224 44.3636L96.232 42.5831L93.925 42.5732L93.917 44.3538Z" fill="#767676"/>
<path fill-rule="evenodd" clip-rule="evenodd" d="M97.0645 41.8495L98.8668 41.8574L98.8768 39.6861L97.0745 39.6792L97.0645 41.8495Z" fill="#767676"/>
<path fill-rule="evenodd" clip-rule="evenodd" d="M99.6936 42.5977L99.6855 44.3782L101.993 44.3881L102.001 42.6076L99.6936 42.5977Z" fill="#767676"/>
<path fill-rule="evenodd" clip-rule="evenodd" d="M97.04 47.2757L98.8424 47.2826L98.8524 45.1124L97.0501 45.1055L97.04 47.2757Z" fill="#767676"/>
</svg>
