<svg width="128" height="108" viewBox="0 0 128 108" fill="none" xmlns="http://www.w3.org/2000/svg">
<path fill-rule="evenodd" clip-rule="evenodd" d="M58.6847 107.007C103.469 111.538 126.545 100.567 127.914 74.0936C129.967 34.3839 94.6231 39.1794 84.07 29.3603C73.5159 19.5413 86.244 32.6008 66.7146 10.9066C53.6963 -3.55557 36.354 -3.63526 14.6895 10.6685C-2.78391 24.8398 -4.66882 43.43 9.03579 66.4412C22.7404 89.4523 39.2904 102.974 58.6847 107.007Z" fill="#E5E5E5"/>
<path fill-rule="evenodd" clip-rule="evenodd" d="M13.1385 67.6857V74.7853V75.5095C13.1435 79.8896 15.7698 83.6471 19.5256 85.3067C20.8412 85.8885 22.2919 86.2182 23.8217 86.2192H104.188C110.081 86.2072 114.856 81.4187 114.862 75.5105V28.3158C114.856 22.4026 110.074 17.6121 104.178 17.6061H49.6621C49.1649 17.6061 48.7617 17.2047 48.7617 16.7096C48.7617 16.6906 48.7717 16.6737 48.7737 16.6548H43.6772C43.6782 16.6737 43.6882 16.6906 43.6882 16.7096C43.6882 17.2047 43.2851 17.6061 42.7878 17.6061H37.0881H23.8227C20.7692 17.6091 18.0219 18.9021 16.0759 20.9622C14.2621 22.8797 13.1415 25.4638 13.1385 28.3148V33.2288V48.1711V51.3508C13.1385 51.7104 12.9224 52.0172 12.6143 52.1597V55.4689C12.9224 55.6114 13.1385 55.9182 13.1385 56.2778V56.5348V57.1345V58.3538C13.1385 58.7144 12.9224 59.0202 12.6143 59.1627V66.8769C12.9224 67.0193 13.1385 67.3261 13.1385 67.6857Z" fill="white"/>
<path fill-rule="evenodd" clip-rule="evenodd" d="M13.1388 58.3537V57.1344V56.5347V56.2777C13.1388 55.9181 12.9227 55.6113 12.6145 55.4689C12.4995 55.4161 12.3744 55.3812 12.2383 55.3812C12.1803 55.3812 12.1293 55.4041 12.0742 55.4141C11.658 55.4938 11.3379 55.8414 11.3379 56.2777V56.5347V57.1344V58.3537C11.3379 58.79 11.658 59.1377 12.0742 59.2174C12.1293 59.2273 12.1803 59.2503 12.2383 59.2503C12.3744 59.2503 12.4995 59.2164 12.6145 59.1626C12.9227 59.0201 13.1388 58.7143 13.1388 58.3537ZM104.18 15.8135H49.6625C49.1852 15.8135 48.8031 16.187 48.7741 16.6552C48.7721 16.6742 48.762 16.6901 48.762 16.71C48.762 17.2051 49.1652 17.6066 49.6625 17.6066H104.179C110.075 17.6125 114.856 22.402 114.862 28.3162V75.511C114.856 81.4192 110.081 86.2077 104.189 86.2196H23.822C22.2923 86.2176 20.8416 85.8889 19.5259 85.3072C15.7701 83.6476 13.1439 79.8901 13.1389 75.51V74.7858V67.6862C13.1389 67.3256 12.9228 67.0198 12.6146 66.8773C12.4996 66.8245 12.3745 66.7896 12.2384 66.7896C12.1804 66.7896 12.1294 66.8116 12.0733 66.8225C11.6581 66.9022 11.338 67.2489 11.338 67.6862V75.511C11.345 82.4113 16.9287 88.0057 23.821 88.0127H104.191C111.079 87.9988 116.656 82.4073 116.663 75.512V28.3152C116.656 21.4139 111.072 15.8204 104.18 15.8135ZM13.1388 51.3506V48.1708V33.2285V28.3145C13.1418 25.4635 14.2623 22.8805 16.0762 20.9619C18.0221 18.9019 20.7694 17.6088 23.8229 17.6059H37.0883H42.7881C43.2853 17.6059 43.6885 17.2054 43.6885 16.7103C43.6885 16.6904 43.6785 16.6735 43.6775 16.6545C43.6475 16.1873 43.2663 15.8138 42.7881 15.8138H23.8219C16.9286 15.8207 11.3449 21.4142 11.3379 28.3145V51.3506C11.3379 51.7869 11.658 52.1345 12.0742 52.2142C12.1293 52.2242 12.1803 52.2471 12.2383 52.2471C12.3744 52.2471 12.4995 52.2132 12.6145 52.1594C12.9227 52.017 13.1388 51.7112 13.1388 51.3506Z" fill="#0F2B4A"/>
<path fill-rule="evenodd" clip-rule="evenodd" d="M13.1377 48.1708H16.0751V33.2285H13.1377V48.1708Z" fill="#6EE3FF"/>
<path fill-rule="evenodd" clip-rule="evenodd" d="M104.179 17.606H82.7004L73.7121 33.2286H114.862V28.3156C114.856 22.4014 110.075 17.6119 104.179 17.606ZM43.2245 86.2189H104.189C110.081 86.207 114.856 81.4185 114.862 75.5103V48.1708H65.1151L43.2245 86.2189ZM13.1387 51.3502C13.1387 51.8453 12.7355 52.2467 12.2383 52.2467C12.1803 52.2467 12.1292 52.2238 12.0742 52.2138V55.4145C12.1292 55.4035 12.1803 55.3806 12.2383 55.3806C12.7355 55.3806 13.1387 55.7821 13.1387 56.2771V56.5341V57.1338V58.3531C13.1387 58.8482 12.7355 59.2497 12.2383 59.2497C12.1803 59.2497 12.1292 59.2277 12.0742 59.2168V66.8224C12.1292 66.8115 12.1803 66.7896 12.2383 66.7896C12.7355 66.7896 13.1387 67.19 13.1387 67.6851V74.7847V75.5099C13.1437 79.889 15.77 83.6465 19.5258 85.307C20.7534 85.7613 22.076 86.0233 23.4607 86.0243H26.6012C20.7134 85.5411 16.0812 80.6132 16.0761 74.5904V48.1704H13.1387V51.3502ZM16.0757 20.9616C14.2619 22.8802 13.1413 25.4632 13.1383 28.3142V33.2282H16.0757V20.9616Z" fill="#E9F4F7"/>
<path fill-rule="evenodd" clip-rule="evenodd" d="M16.0762 48.1708H114.123V33.2285H16.0762V48.1708Z" fill="#0D4F80"/>
<path fill-rule="evenodd" clip-rule="evenodd" d="M65.1152 48.1708H116.025V33.2285H73.7124L65.1152 48.1708Z" fill="#0F2B4A"/>
<path fill-rule="evenodd" clip-rule="evenodd" d="M102.765 8.53333L101.578 9.71477L99.6279 7.77227L97.6809 9.71079L96.4894 8.52337L98.4353 6.58585L96.4854 4.64335L97.6719 3.46191L99.6229 5.40342L101.569 3.4659L102.761 4.65232L100.814 6.59083L102.765 8.53333Z" fill="#6EE3FF"/>
<path fill-rule="evenodd" clip-rule="evenodd" d="M30.5857 98.1452L29.4811 99.245L28.1225 97.8932L26.7598 99.25L25.6553 98.1512L27.0189 96.7944L25.6613 95.4416L26.7658 94.3419L28.1245 95.6947L29.4871 94.3369L30.5907 95.4357L29.228 96.7934L30.5857 98.1452Z" fill="#0F2B4A"/>
<path fill-rule="evenodd" clip-rule="evenodd" d="M16.1895 61.9685H74.2174V57.9839H16.1895V61.9685Z" fill="#EC0000"/>
<path fill-rule="evenodd" clip-rule="evenodd" d="M57.1768 61.9685H74.217V57.9839H59.4689L57.1768 61.9685Z" fill="#990000"/>
</svg>
