<svg width="120" height="124" viewBox="0 0 120 124" fill="none" xmlns="http://www.w3.org/2000/svg">
<path fill-rule="evenodd" clip-rule="evenodd" d="M47.0824 31.7825C10.0361 45.0855 5.72917 54.5857 1.90219 64.8553C-5.50927 84.7429 9.64834 114.639 31.5701 110C52.169 101.241 54.3916 137.933 93.405 117.956C117.848 105.439 125.536 82.4557 116.08 63.8029C106.624 45.151 84.1287 18.4794 47.0824 31.7825Z" fill="#262626"/>
<path fill-rule="evenodd" clip-rule="evenodd" d="M29.8624 20.4227L28.7952 21.4953L27.3311 20.0239L25.8661 21.4963L24.7979 20.4227L26.2619 18.9513L24.7979 17.4789L25.8661 16.4063L27.3301 17.8777L28.7952 16.4053L29.8634 17.4789L28.3984 18.9513L29.8624 20.4227Z" fill="#999999"/>
<path fill-rule="evenodd" clip-rule="evenodd" d="M104.466 31.3462C102.528 31.3462 100.959 29.768 100.959 27.8212C100.959 25.8745 102.528 24.2963 104.466 24.2963C106.404 24.2963 107.973 25.8745 107.973 27.8212C107.973 29.768 106.404 31.3462 104.466 31.3462ZM104.466 29.3319C105.296 29.3319 105.969 28.6561 105.969 27.8212C105.969 26.9863 105.296 26.3106 104.466 26.3106C103.636 26.3106 102.963 26.9863 102.963 27.8212C102.963 28.6561 103.636 29.3319 104.466 29.3319ZM74.5636 6.3457C74.8372 6.82308 74.6738 7.4344 74.1989 7.70934C73.7229 7.98529 73.1156 7.82315 72.841 7.34577L69.8518 2.14299C69.5772 1.66561 69.7416 1.0553 70.2166 0.778341C70.6935 0.50239 71.3008 0.665544 71.5754 1.14292L74.5636 6.3457ZM83.1646 10.1622C82.6886 10.4381 82.0813 10.275 81.8077 9.79761C81.5332 9.32124 81.6965 8.70992 82.1725 8.43396L87.3413 5.43476C87.8173 5.15881 88.4245 5.32196 88.6981 5.79833C88.9737 6.27671 88.8103 6.88703 88.3333 7.16298L83.1646 10.1622ZM79.5673 7.06217C79.424 7.59493 78.8788 7.91117 78.3497 7.76816C77.8206 7.62515 77.507 7.07727 77.6493 6.5435L79.2015 0.740474C79.3438 0.207707 79.8889 -0.108529 80.419 0.0334752C80.9481 0.177493 81.2608 0.725367 81.1195 1.25813L79.5673 7.06217Z" fill="#7F7F7F"/>
<path fill-rule="evenodd" clip-rule="evenodd" d="M97.6615 88.0186L36.7414 104.425C31.9043 105.727 28.6946 105.252 26.6454 103.453C25.2003 102.185 24.5249 100.672 23.7764 97.8632L10.8514 49.3865C10.7713 49.0874 10.7171 48.7943 10.6741 48.5043C10.664 48.4267 10.654 48.3512 10.645 48.2746C10.6159 48.0208 10.5989 47.7691 10.5979 47.5223C10.5979 47.4851 10.5947 47.4488 10.5947 47.4125C10.5989 47.1356 10.625 46.8637 10.664 46.5958C10.6731 46.5273 10.6871 46.4588 10.6991 46.3913C10.7402 46.1677 10.7923 45.9482 10.8574 45.7327C10.8775 45.6632 10.8925 45.5937 10.9166 45.5252L10.9236 45.502C10.9336 45.4738 10.9476 45.4466 10.9576 45.4195C10.9947 45.7105 11.0528 46.0026 11.137 46.2916C11.6461 48.2031 13.0891 49.2183 15.0091 49.4983L15.3017 49.5356C16.2697 49.6403 17.1486 49.5557 17.7638 49.4217L85.7556 31.1123C88.4001 31.6461 90.5276 33.6341 91.2281 36.2637L102.687 79.2406C103.705 83.0636 101.456 86.9914 97.6615 88.0186Z" fill="white"/>
<path fill-rule="evenodd" clip-rule="evenodd" d="M97.6615 88.0186L36.7414 104.425C31.9043 105.727 28.6946 105.252 26.6454 103.453C25.2003 102.185 24.5249 100.672 23.7764 97.8632L10.8514 49.3865C10.7713 49.0874 10.7171 48.7943 10.6741 48.5043C10.664 48.4267 10.654 48.3512 10.645 48.2746C10.6159 48.0208 10.5989 47.7691 10.5979 47.5223C10.5979 47.4851 10.5947 47.4488 10.5947 47.4125C10.5989 47.1356 10.625 46.8637 10.664 46.5958C10.6731 46.5273 10.6871 46.4588 10.6991 46.3913C10.7402 46.1677 10.7923 45.9482 10.8574 45.7327C10.8775 45.6632 10.8925 45.5937 10.9166 45.5252L10.9236 45.502C10.9336 45.4738 10.9476 45.4466 10.9576 45.4195C10.9947 45.7105 11.0528 46.0026 11.137 46.2916C11.6461 48.2031 13.0891 49.2183 15.0091 49.4983L15.3017 49.5356C16.2697 49.6403 17.1486 49.5557 17.7638 49.4217L85.7556 31.1123C88.4001 31.6461 90.5276 33.6341 91.2281 36.2637L102.687 79.2406C103.705 83.0636 101.456 86.9914 97.6615 88.0186Z" fill="#F2F2F2"/>
<path fill-rule="evenodd" clip-rule="evenodd" d="M95.7772 64.5951C95.4345 65.1933 94.8713 65.6294 94.209 65.8076L91.2909 66.5932C90.6285 66.7724 89.923 66.6768 89.3288 66.3313C89.0342 66.1581 88.7786 65.9305 88.5752 65.6626C88.1393 65.6545 87.7084 65.5478 87.3246 65.3242C86.7324 64.9778 86.3005 64.4077 86.1241 63.74L85.3415 60.8032C85.1611 60.1375 85.2523 59.4265 85.594 58.8283C85.9357 58.2311 86.4999 57.794 87.1613 57.6157L90.0793 56.8302C90.7417 56.6519 91.4482 56.7466 92.0404 57.093C92.3361 57.2652 92.5916 57.4939 92.795 57.7617C93.2309 57.7698 93.6618 57.8755 94.0446 58.1001C94.6379 58.4466 95.0708 59.0156 95.2461 59.6833L96.0288 62.6201C96.2091 63.2858 96.1179 63.9968 95.7772 64.5951ZM91.2287 36.2638C90.5283 33.6332 88.4008 31.6461 85.7563 31.1113L69.6898 35.4379L52.2394 100.25L97.6622 88.0187C101.457 86.9914 103.706 83.0636 102.688 79.2406L91.2287 36.2638ZM37.6384 104.011C33.9347 105.008 30.1277 102.799 29.1346 99.0766L17.4182 55.1299C16.854 53.013 17.324 50.8638 18.5125 49.2202L17.7639 49.4216C17.1496 49.5555 16.2708 49.6401 15.3018 49.5354L15.0092 49.4991C14.2887 49.3934 13.6373 49.1849 13.0752 48.8646C12.3256 48.4376 11.7384 47.8112 11.3716 46.9662C11.2794 46.7547 11.2012 46.5301 11.1381 46.2914C11.0539 46.0024 10.9948 45.7103 10.9577 45.4193C10.9477 45.4475 10.9347 45.4737 10.9247 45.5019L10.9166 45.525C10.8936 45.5935 10.8786 45.663 10.8575 45.7325C10.7924 45.948 10.7403 46.1676 10.6992 46.3912C10.6872 46.4586 10.6741 46.5271 10.6641 46.5956C10.625 46.8635 10.6 47.1354 10.5958 47.4124C10.595 47.4486 10.599 47.4859 10.599 47.5222C10.6 47.7689 10.616 48.0207 10.6451 48.2745C10.6541 48.351 10.6641 48.4276 10.6751 48.5041C10.7182 48.7941 10.7713 49.0872 10.8525 49.3863L23.7765 97.8631C24.525 100.673 25.2014 102.185 26.6455 103.453C28.6947 105.252 31.9044 105.727 36.7415 104.424L37.6985 104.167L37.6384 104.011Z" fill="#E5E5E5"/>
<path fill-rule="evenodd" clip-rule="evenodd" d="M95.2451 59.6838C95.0698 59.0161 94.6379 58.446 94.0446 58.1006C93.6608 57.876 93.2299 57.7703 92.795 57.7622C93.0004 58.0311 93.1528 58.3413 93.2409 58.6767L94.0236 61.6134C94.204 62.2791 94.1128 62.9902 93.7721 63.5884C93.4293 64.1866 92.8662 64.6227 92.2038 64.801L89.2867 65.5865C89.0512 65.65 88.8127 65.6661 88.5742 65.6631C88.7776 65.931 89.0332 66.1586 89.3288 66.3318C89.922 66.6772 90.6285 66.7729 91.2909 66.5936L94.208 65.8081C94.8704 65.6298 95.4335 65.1937 95.7762 64.5955C96.1169 63.9973 96.2081 63.2863 96.0278 62.6206L95.2451 59.6838Z" fill="#7F7F7F"/>
<path fill-rule="evenodd" clip-rule="evenodd" d="M92.2033 64.8008C92.8657 64.6226 93.4298 64.1865 93.7716 63.5883C94.1123 62.99 94.2035 62.279 94.0231 61.6133L93.2404 58.6765C93.1523 58.3412 92.9999 58.031 92.7945 57.7621C92.5911 57.4942 92.3356 57.2656 92.0399 57.0933C91.4467 56.7459 90.7402 56.6522 90.0789 56.8305L87.1608 57.616C86.4994 57.7943 85.9342 58.2314 85.5925 58.8286C85.2518 59.4268 85.1606 60.1379 85.34 60.8036L86.1236 63.7403C86.299 64.4081 86.7309 64.9781 87.3241 65.3245C87.7079 65.5481 88.1378 65.6549 88.5737 65.6619C88.8122 65.6659 89.0507 65.6498 89.2862 65.5864L92.2033 64.8008Z" fill="#404040"/>
<path fill-rule="evenodd" clip-rule="evenodd" d="M97.6617 88.0186L36.7416 104.425C31.9045 105.727 28.6948 105.252 26.6456 103.453C25.2005 102.185 24.5251 100.672 23.7766 97.8632L10.8516 49.3865C10.7715 49.0873 10.7173 48.7943 10.6743 48.5042C10.6642 48.4267 10.6542 48.3511 10.6452 48.2746C10.6161 48.0208 10.5991 47.769 10.5981 47.5223C10.5981 47.485 10.5949 47.4488 10.5949 47.4125C10.5991 47.1355 10.6252 46.8636 10.6642 46.5957C10.6733 46.5272 10.6873 46.4588 10.6993 46.3913C10.7404 46.1677 10.7925 45.9482 10.8576 45.7326C10.8777 45.6631 10.8927 45.5936 10.9168 45.5252L10.9238 45.502C10.9338 45.4738 10.9478 45.4466 10.9578 45.4194C10.9949 45.7105 11.053 46.0025 11.1372 46.2916C11.2014 46.5303 11.2795 46.7549 11.3717 46.9663C11.7385 47.8113 12.3257 48.4377 13.0753 48.8648C13.6364 49.185 14.2888 49.3935 15.0093 49.4982L15.3019 49.5355C16.2699 49.6403 17.1488 49.5557 17.764 49.4217L18.5126 49.2203L69.6893 35.4388L85.7558 31.1123C88.4003 31.646 90.5278 33.6341 91.2282 36.2637L102.687 79.2405C103.705 83.0635 101.457 86.9913 97.6617 88.0186ZM104.429 78.7712L92.9709 35.7954C92.1241 32.6169 89.6209 30.1766 86.4723 29.4052L83.5673 18.5041C82.2886 13.7112 77.3924 10.8651 72.6305 12.1472L72.4832 12.2006L15.2718 38.9084L15.2648 38.9114H15.2638C10.8466 41.0213 8.50273 44.2753 8.81237 48.1558C8.85646 48.7097 8.95567 49.2767 9.10899 49.8548L22.0329 98.3325C22.8707 101.473 23.6603 103.239 25.4581 104.818C28.0074 107.057 31.8354 107.622 37.2086 106.175L98.1296 89.77C102.888 88.4818 105.705 83.5601 104.429 78.7712Z" fill="#4C4C4C"/>
<path fill-rule="evenodd" clip-rule="evenodd" d="M81.7902 18.9321L84.6071 29.4948L17.3478 47.6089C17.3088 47.6159 13.5439 48.4035 12.8344 45.7457C12.3685 44.1263 12.9777 42.393 14.3536 41.4332C14.3616 41.4272 14.3656 41.4181 14.3736 41.4121C14.9098 41.0686 15.4619 40.7675 16.006 40.5087V40.5077L73.1232 13.8442C73.2414 13.814 73.3607 13.7918 73.4789 13.7676C73.5801 13.7465 73.6813 13.7203 73.7835 13.7042C73.9238 13.681 74.0661 13.6689 74.2074 13.6548C74.2956 13.6458 74.3838 13.6317 74.472 13.6256C74.6173 13.6176 74.7626 13.6196 74.9079 13.6196C74.9931 13.6196 75.0792 13.6135 75.1634 13.6166C75.3057 13.6216 75.447 13.6377 75.5893 13.6518C75.6755 13.6599 75.7637 13.6639 75.8509 13.675C75.9871 13.6931 76.1214 13.7233 76.2557 13.7495C76.3469 13.7676 76.4391 13.7797 76.5303 13.8009C76.6565 13.8311 76.7808 13.8724 76.9061 13.9096C77.0033 13.9378 77.0995 13.961 77.1957 13.9942C77.3259 14.0386 77.4532 14.095 77.5815 14.1473C77.6676 14.1836 77.7568 14.2128 77.842 14.2521C78.0535 14.3487 78.2629 14.4575 78.4683 14.5764C80.1168 15.5341 81.2972 17.0821 81.7902 18.9321Z" fill="#404040"/>
<path fill-rule="evenodd" clip-rule="evenodd" d="M81.7902 18.9321L84.6071 29.4948L17.3478 47.6089C17.3088 47.6159 13.5439 48.4035 12.8344 45.7457C12.3685 44.1263 12.9777 42.393 14.3536 41.4332C14.3616 41.4272 14.3656 41.4181 14.3736 41.4121C14.9098 41.0686 15.4619 40.7675 16.006 40.5087V40.5077L73.1232 13.8442C73.2414 13.814 73.3607 13.7918 73.4789 13.7676C73.5801 13.7465 73.6813 13.7203 73.7835 13.7042C73.9238 13.681 74.0661 13.6689 74.2074 13.6548C74.2956 13.6458 74.3838 13.6317 74.472 13.6256C74.6173 13.6176 74.7626 13.6196 74.9079 13.6196C74.9931 13.6196 75.0792 13.6135 75.1634 13.6166C75.3057 13.6216 75.447 13.6377 75.5893 13.6518C75.6755 13.6599 75.7637 13.6639 75.8509 13.675C75.9871 13.6931 76.1214 13.7233 76.2557 13.7495C76.3469 13.7676 76.4391 13.7797 76.5303 13.8009C76.6565 13.8311 76.7808 13.8724 76.9061 13.9096C77.0033 13.9378 77.0995 13.961 77.1957 13.9942C77.3259 14.0386 77.4532 14.095 77.5815 14.1473C77.6676 14.1836 77.7568 14.2128 77.842 14.2521C78.0535 14.3487 78.2629 14.4575 78.4683 14.5764C80.1168 15.5341 81.2972 17.0821 81.7902 18.9321Z" fill="#404040"/>
<path fill-rule="evenodd" clip-rule="evenodd" d="M54.5615 37.5834L84.6072 29.4922L81.7913 18.9295C81.7282 18.6938 81.654 18.4642 81.5698 18.2396C81.5428 18.1651 81.5067 18.0956 81.4756 18.0221C81.4155 17.8761 81.3564 17.728 81.2873 17.588C81.2462 17.5044 81.1971 17.4269 81.153 17.3453C81.0868 17.2214 81.0207 17.0955 80.9475 16.9777C80.8944 16.8921 80.8343 16.8125 80.7772 16.73C80.704 16.6222 80.6329 16.5124 80.5537 16.4087C80.4916 16.3271 80.4225 16.2526 80.3563 16.174C80.2751 16.0773 80.197 15.9776 80.1118 15.886C80.0417 15.8095 79.9655 15.741 79.8913 15.6695C79.8022 15.5818 79.717 15.4922 79.6248 15.4096C79.5466 15.3411 79.4635 15.2787 79.3823 15.2132C79.2881 15.1357 79.1949 15.0571 79.0967 14.9856C79.0115 14.9232 78.9233 14.8678 78.8351 14.8104C78.7349 14.7429 78.6357 14.6734 78.5325 14.612C78.4423 14.5586 78.3481 14.5123 78.2569 14.4629C78.1497 14.4055 78.0455 14.3461 77.9353 14.2947C77.8401 14.2494 77.7419 14.2122 77.6447 14.1709C77.5344 14.1245 77.4242 14.0752 77.312 14.0349C77.2128 13.9987 77.1095 13.9705 77.0073 13.9382C76.8931 13.903 76.7809 13.8647 76.6646 13.8345C76.5604 13.8083 76.4542 13.7892 76.348 13.767C76.2317 13.7428 76.1155 13.7157 75.9982 13.6975C75.89 13.6804 75.7808 13.6713 75.6715 13.6593C75.5533 13.6462 75.434 13.6311 75.3148 13.624C75.2056 13.618 75.0943 13.62 74.9851 13.619C74.8639 13.617 74.7436 13.6139 74.6214 13.619C74.5101 13.623 74.3979 13.6361 74.2877 13.6452C74.1644 13.6562 74.0421 13.6653 73.9209 13.6834C73.8077 13.6985 73.6954 13.7227 73.5822 13.7449C73.4409 13.771 73.2986 13.7952 73.1583 13.8315L73.1333 13.8375L59.2403 20.3234L54.5615 37.5834Z" fill="#7F7F7F"/>
</svg>
