<svg width="120" height="100" viewBox="0 0 120 100" fill="none" xmlns="http://www.w3.org/2000/svg">
<path fill-rule="evenodd" clip-rule="evenodd" d="M64.3317 99.2956C103.672 93.4663 109.709 84.7328 115.412 75.1198C126.454 56.5036 116.864 23.0889 94.1796 23.2644C72.0539 27.8854 76.5964 -9.74315 34.0684 2.44102C7.4222 10.0754 -4.46515 31.7703 1.51767 52.6167C7.50048 73.4632 24.9913 105.125 64.3317 99.2956Z" fill="#262626"/>
<path fill-rule="evenodd" clip-rule="evenodd" d="M94.8754 27.8525V17.0371C94.8754 12.2577 91.0183 8.38086 86.258 8.38086L86.1014 8.3939L26.3676 18.8723C26.3656 18.8723 26.3626 18.8733 26.3606 18.8733H26.3596C21.3904 19.7909 18.3092 22.5275 17.9439 26.6681C17.9188 26.9449 17.9067 27.2267 17.9067 27.5155V75.6896C17.9067 78.8164 18.2018 80.6555 19.4865 82.5749C21.3061 85.2976 24.7306 86.7827 30.0912 86.7827H90.7182C95.4766 86.7767 99.3276 82.9018 99.3276 78.1254V35.4177C99.3276 32.2558 97.6084 29.3627 94.8754 27.8525Z" fill="#4C4C4C"/>
<path fill-rule="evenodd" clip-rule="evenodd" d="M93.0019 16.1267C92.9819 15.9752 92.9638 15.8228 92.9347 15.6744C92.9166 15.5882 92.8915 15.5049 92.8705 15.4197C92.8384 15.2873 92.8102 15.1549 92.7711 15.0256C92.742 14.9353 92.7069 14.8471 92.6758 14.7578C92.6336 14.6395 92.5955 14.5192 92.5473 14.4048C92.5091 14.3116 92.463 14.2233 92.4208 14.1331C92.3696 14.0258 92.3235 13.9165 92.2683 13.8122C92.2211 13.7229 92.1659 13.6397 92.1147 13.5524C92.0565 13.4522 91.9993 13.3489 91.9351 13.2516C91.8799 13.1684 91.8176 13.0902 91.7594 13.0089C91.6902 12.9147 91.6249 12.8184 91.5527 12.7281C91.4894 12.6499 91.4202 12.5777 91.3539 12.5025C91.2777 12.4153 91.2034 12.327 91.1231 12.2448C91.0538 12.1726 90.9766 12.1064 90.9033 12.0372C90.82 11.958 90.7387 11.8778 90.6514 11.8035C90.5741 11.7384 90.4918 11.6782 90.4115 11.616C90.3212 11.5458 90.2329 11.4736 90.1385 11.4084C90.0552 11.3503 89.9679 11.2981 89.8826 11.244C89.7852 11.1828 89.6899 11.1196 89.5905 11.0625C89.5012 11.0123 89.4078 10.9682 89.3155 10.9221C89.2141 10.8699 89.1128 10.8168 89.0084 10.7696C88.913 10.7275 88.8137 10.6924 88.7153 10.6533C88.6099 10.6122 88.5056 10.5691 88.3972 10.533C88.2968 10.4999 88.1924 10.4738 88.09 10.4447C87.9796 10.4136 87.8712 10.3816 87.7578 10.3555C87.6534 10.3314 87.5461 10.3154 87.4407 10.2973C87.3263 10.2763 87.2118 10.2552 87.0954 10.2402C86.988 10.2271 86.8776 10.2211 86.7692 10.2131C86.6307 10.2021 86.4952 10.189 86.3547 10.187H86.3306L63.8185 14.1361L55.9087 27.4444H93.0682L93.0692 17.0372C93.0692 16.8036 93.0582 16.5729 93.0351 16.3463C93.027 16.2721 93.012 16.1999 93.0019 16.1267Z" fill="#4C4C4C"/>
<path fill-rule="evenodd" clip-rule="evenodd" d="M107.152 15.8055L106.232 16.7251L105.091 15.5859L103.958 16.7181L103.033 15.7925L104.165 14.6603L103.026 13.5221L103.947 12.6025L105.085 13.7407L106.219 12.6086L107.145 13.5342L106.012 14.6663L107.152 15.8055Z" fill="#999999"/>
<path fill-rule="evenodd" clip-rule="evenodd" d="M86.33 10.1875H86.3541C86.4946 10.1895 86.6311 10.2025 86.7686 10.2126C86.878 10.2216 86.9874 10.2276 87.0958 10.2406C87.2122 10.2547 87.3256 10.2768 87.4401 10.2968C87.5464 10.3159 87.6528 10.3319 87.7582 10.356C87.8706 10.381 87.98 10.4141 88.0904 10.4452C88.1918 10.4743 88.2962 10.5004 88.3975 10.5335C88.5049 10.5696 88.6093 10.6127 88.7157 10.6538C88.8141 10.6919 88.9124 10.728 89.0088 10.7701C89.1122 10.8163 89.2135 10.8704 89.3159 10.9216C89.4072 10.9687 89.5006 11.0128 89.5899 11.063C89.6903 11.1201 89.7846 11.1833 89.882 11.2445C89.9673 11.2986 90.0556 11.3508 90.1389 11.4089C90.2332 11.4741 90.3216 11.5463 90.4109 11.6165C90.4912 11.6787 90.5745 11.7378 90.6518 11.804C90.7391 11.8782 90.8204 11.9585 90.9037 12.0377C90.977 12.1069 91.0532 12.1721 91.1225 12.2453C91.2028 12.3275 91.278 12.4157 91.3543 12.503C91.4196 12.5782 91.4898 12.6504 91.5521 12.7286C91.6243 12.8189 91.6906 12.9151 91.7588 13.0084C91.818 13.0906 91.8792 13.1689 91.9344 13.2521C91.9987 13.3494 92.0559 13.4527 92.1151 13.5529C92.1653 13.6392 92.2205 13.7234 92.2677 13.8127C92.3239 13.917 92.37 14.0263 92.4202 14.1336C92.4624 14.2238 92.5085 14.3121 92.5467 14.4053C92.5948 14.5196 92.633 14.64 92.6751 14.7583C92.7073 14.8476 92.7424 14.9348 92.7705 15.0261C92.8096 15.1554 92.8377 15.2878 92.8709 15.4202C92.8909 15.5054 92.916 15.5886 92.9341 15.6749C92.9632 15.8233 92.9823 15.9747 93.0013 16.1272C93.0114 16.2004 93.0274 16.2716 93.0355 16.3468C93.0575 16.5734 93.0696 16.8041 93.0696 17.0377L93.0686 27.4439L26.0803 27.4449C26.0261 27.4409 25.8204 27.4178 25.5464 27.3647C25.0877 27.2774 24.63 27.138 24.2115 26.9415C23.0974 26.417 22.4776 25.6087 22.4776 24.3502C22.4621 23.5209 22.7682 21.8763 24.6471 21.2666C24.7324 21.2395 24.8318 21.2074 25.0184 21.1472C25.5022 20.9918 25.7933 20.8925 26.0893 20.7762C26.2861 20.7321 26.4828 20.6869 26.6885 20.6488C35.9322 19.0273 35.9322 19.0273 41.8197 17.9944L86.33 10.1875Z" fill="#404040"/>
<mask id="mask0" mask-type="alpha" maskUnits="userSpaceOnUse" x="22" y="1" width="72" height="27">
<path d="M28.8564 8.73551L24.6471 21.2677C22.7672 21.8764 22.4621 23.522 22.4776 24.3503C22.4776 25.6098 23.0974 26.4171 24.2125 26.9416C24.63 27.1381 25.0887 27.2775 25.5474 27.3658C25.8204 27.4179 26.0261 27.442 26.0803 27.445H93.0686L93.0696 17.0378C93.0696 16.8041 93.0575 16.5745 93.0345 16.3468C93.0264 16.2716 93.0114 16.2004 93.0013 16.1272C92.9813 15.9758 92.9632 15.8234 92.9341 15.675C92.917 15.5887 92.8909 15.5055 92.8709 15.4192C92.8377 15.2879 92.8096 15.1555 92.7705 15.0261C92.7424 14.9349 92.7073 14.8476 92.6751 14.7584C92.633 14.6401 92.5948 14.5197 92.5477 14.4054C92.5085 14.3121 92.4624 14.2239 92.4202 14.1336C92.369 14.0263 92.3229 13.917 92.2667 13.8127C92.2205 13.7235 92.1663 13.6403 92.1141 13.553C92.0559 13.4527 91.9987 13.3504 91.9344 13.2532C91.8792 13.1689 91.817 13.0907 91.7588 13.0095C91.6896 12.9152 91.6253 12.82 91.5521 12.7297C91.4898 12.6505 91.4196 12.5783 91.3543 12.5031C91.2781 12.4158 91.2028 12.3276 91.1225 12.2453C91.0532 12.1721 90.9759 12.107 90.9037 12.0378C90.8204 11.9585 90.7391 11.8783 90.6508 11.8041C90.5735 11.7379 90.4912 11.6798 90.4109 11.6176C90.3206 11.5464 90.2332 11.4752 90.1389 11.409C90.0546 11.3498 89.9673 11.2987 89.882 11.2445C89.7846 11.1834 89.6903 11.1202 89.5899 11.063C89.5006 11.0129 89.4072 10.9688 89.3149 10.9226C89.2135 10.8705 89.1132 10.8163 89.0088 10.7712C88.9124 10.7281 88.8141 10.692 88.7157 10.6539C88.6093 10.6128 88.5049 10.5696 88.3965 10.5345C88.2962 10.5005 88.1928 10.4744 88.0904 10.4453C87.979 10.4142 87.8706 10.3821 87.7582 10.356C87.6528 10.332 87.5464 10.3159 87.4401 10.2969C87.3266 10.2768 87.2122 10.2558 87.0958 10.2407C86.9874 10.2277 86.878 10.2217 86.7686 10.2126C86.6301 10.2026 86.4946 10.1896 86.3541 10.1876H86.33L76.0284 1.71582C70.141 2.74771 38.1011 7.11396 28.8564 8.73551Z" fill="white"/>
</mask>
<g mask="url(#mask0)">
<path fill-rule="evenodd" clip-rule="evenodd" d="M58.5821 22.6898L58.6563 22.6537L58.4064 27.2175L58.3091 29.7295L81.8409 18.3506L79.13 12.7539L58.5821 22.6898Z" fill="#4C4C4C"/>
</g>
<mask id="mask1" mask-type="alpha" maskUnits="userSpaceOnUse" x="22" y="1" width="72" height="27">
<path d="M28.8564 8.73551L24.6471 21.2677C22.7672 21.8764 22.4621 23.522 22.4776 24.3503C22.4776 25.6098 23.0974 26.4171 24.2125 26.9416C24.63 27.1381 25.0887 27.2775 25.5474 27.3658C25.8204 27.4179 26.0261 27.442 26.0803 27.445H93.0686L93.0696 17.0378C93.0696 16.8041 93.0575 16.5745 93.0345 16.3468C93.0264 16.2716 93.0114 16.2004 93.0013 16.1272C92.9813 15.9758 92.9632 15.8234 92.9341 15.675C92.917 15.5887 92.8909 15.5055 92.8709 15.4192C92.8377 15.2879 92.8096 15.1555 92.7705 15.0261C92.7424 14.9349 92.7073 14.8476 92.6751 14.7584C92.633 14.6401 92.5948 14.5197 92.5477 14.4054C92.5085 14.3121 92.4624 14.2239 92.4202 14.1336C92.369 14.0263 92.3229 13.917 92.2667 13.8127C92.2205 13.7235 92.1663 13.6403 92.1141 13.553C92.0559 13.4527 91.9987 13.3504 91.9344 13.2532C91.8792 13.1689 91.817 13.0907 91.7588 13.0095C91.6896 12.9152 91.6253 12.82 91.5521 12.7297C91.4898 12.6505 91.4196 12.5783 91.3543 12.5031C91.2781 12.4158 91.2028 12.3276 91.1225 12.2453C91.0532 12.1721 90.9759 12.107 90.9037 12.0378C90.8204 11.9585 90.7391 11.8783 90.6508 11.8041C90.5735 11.7379 90.4912 11.6798 90.4109 11.6176C90.3206 11.5464 90.2332 11.4752 90.1389 11.409C90.0546 11.3498 89.9673 11.2987 89.882 11.2445C89.7846 11.1834 89.6903 11.1202 89.5899 11.063C89.5006 11.0129 89.4072 10.9688 89.3149 10.9226C89.2135 10.8705 89.1132 10.8163 89.0088 10.7712C88.9124 10.7281 88.8141 10.692 88.7157 10.6539C88.6093 10.6128 88.5049 10.5696 88.3965 10.5345C88.2962 10.5005 88.1928 10.4744 88.0904 10.4453C87.979 10.4142 87.8706 10.3821 87.7582 10.356C87.6528 10.332 87.5464 10.3159 87.4401 10.2969C87.3266 10.2768 87.2122 10.2558 87.0958 10.2407C86.9874 10.2277 86.878 10.2217 86.7686 10.2126C86.6301 10.2026 86.4946 10.1896 86.3541 10.1876H86.33L76.0284 1.71582C70.141 2.74771 38.1011 7.11396 28.8564 8.73551Z" fill="white"/>
</mask>
<g mask="url(#mask1)">
<path fill-rule="evenodd" clip-rule="evenodd" d="M82.6281 19.9751L33.6636 43.6525L39.8281 56.3802C41.0575 58.9183 44.1247 59.9843 46.665 58.7558L86.4149 39.5339C88.9572 38.3055 90.0221 35.2409 88.7936 32.7028L82.6281 19.9751Z" fill="#E8E8E8"/>
</g>
<mask id="mask2" mask-type="alpha" maskUnits="userSpaceOnUse" x="22" y="1" width="72" height="27">
<path d="M28.8564 8.73551L24.6471 21.2677C22.7672 21.8764 22.4621 23.522 22.4776 24.3503C22.4776 25.6098 23.0974 26.4171 24.2125 26.9416C24.63 27.1381 25.0887 27.2775 25.5474 27.3658C25.8204 27.4179 26.0261 27.442 26.0803 27.445H93.0686L93.0696 17.0378C93.0696 16.8041 93.0575 16.5745 93.0345 16.3468C93.0264 16.2716 93.0114 16.2004 93.0013 16.1272C92.9813 15.9758 92.9632 15.8234 92.9341 15.675C92.917 15.5887 92.8909 15.5055 92.8709 15.4192C92.8377 15.2879 92.8096 15.1555 92.7705 15.0261C92.7424 14.9349 92.7073 14.8476 92.6751 14.7584C92.633 14.6401 92.5948 14.5197 92.5477 14.4054C92.5085 14.3121 92.4624 14.2239 92.4202 14.1336C92.369 14.0263 92.3229 13.917 92.2667 13.8127C92.2205 13.7235 92.1663 13.6403 92.1141 13.553C92.0559 13.4527 91.9987 13.3504 91.9344 13.2532C91.8792 13.1689 91.817 13.0907 91.7588 13.0095C91.6896 12.9152 91.6253 12.82 91.5521 12.7297C91.4898 12.6505 91.4196 12.5783 91.3543 12.5031C91.2781 12.4158 91.2028 12.3276 91.1225 12.2453C91.0532 12.1721 90.9759 12.107 90.9037 12.0378C90.8204 11.9585 90.7391 11.8783 90.6508 11.8041C90.5735 11.7379 90.4912 11.6798 90.4109 11.6176C90.3206 11.5464 90.2332 11.4752 90.1389 11.409C90.0546 11.3498 89.9673 11.2987 89.882 11.2445C89.7846 11.1834 89.6903 11.1202 89.5899 11.063C89.5006 11.0129 89.4072 10.9688 89.3149 10.9226C89.2135 10.8705 89.1132 10.8163 89.0088 10.7712C88.9124 10.7281 88.8141 10.692 88.7157 10.6539C88.6093 10.6128 88.5049 10.5696 88.3965 10.5345C88.2962 10.5005 88.1928 10.4744 88.0904 10.4453C87.979 10.4142 87.8706 10.3821 87.7582 10.356C87.6528 10.332 87.5464 10.3159 87.4401 10.2969C87.3266 10.2768 87.2122 10.2558 87.0958 10.2407C86.9874 10.2277 86.878 10.2217 86.7686 10.2126C86.6301 10.2026 86.4946 10.1896 86.3541 10.1876H86.33L76.0284 1.71582C70.141 2.74771 38.1011 7.11396 28.8564 8.73551Z" fill="white"/>
</mask>
<g mask="url(#mask2)">
<path fill-rule="evenodd" clip-rule="evenodd" d="M86.4158 39.5341L46.6658 58.755C44.1246 59.9844 41.0584 58.9184 39.8289 56.3793L33.6634 43.6526L82.629 19.9752L88.7934 32.7029C90.0229 35.2411 88.957 38.3056 86.4158 39.5341ZM28.8569 35.8116L58.6575 20.7695L58.5833 22.6899L79.1302 12.754L81.8411 18.3507L58.3093 29.7296L58.2681 30.7976L32.8715 42.8313L28.8569 35.8116ZM30.8381 26.0794L59.1052 12.411L70.5881 6.85846C73.1293 5.62901 76.1955 6.695 77.425 9.23412L78.3433 11.1294L58.6194 20.6672L29.3788 34.8068L28.4604 32.9105C27.231 30.3724 28.2968 27.3078 30.8381 26.0794ZM90.4194 31.9157L84.2549 19.188L79.9703 10.3422L79.0519 8.44691C77.3888 5.01228 73.2387 3.57124 69.8012 5.2329L30.0512 24.4548C26.6137 26.1175 25.1704 30.2631 26.8345 33.6977L27.7519 35.593L28.2236 36.5658L32.0365 44.4388L38.202 57.1665C39.865 60.6012 44.0152 62.0422 47.4527 60.3805L87.2026 41.1586C90.6402 39.496 92.0834 35.3504 90.4194 31.9157Z" fill="#4C4C4C"/>
</g>
<mask id="mask3" mask-type="alpha" maskUnits="userSpaceOnUse" x="22" y="1" width="72" height="27">
<path d="M28.8564 8.73551L24.6471 21.2677C22.7672 21.8764 22.4621 23.522 22.4776 24.3503C22.4776 25.6098 23.0974 26.4171 24.2125 26.9416C24.63 27.1381 25.0887 27.2775 25.5474 27.3658C25.8204 27.4179 26.0261 27.442 26.0803 27.445H93.0686L93.0696 17.0378C93.0696 16.8041 93.0575 16.5745 93.0345 16.3468C93.0264 16.2716 93.0114 16.2004 93.0013 16.1272C92.9813 15.9758 92.9632 15.8234 92.9341 15.675C92.917 15.5887 92.8909 15.5055 92.8709 15.4192C92.8377 15.2879 92.8096 15.1555 92.7705 15.0261C92.7424 14.9349 92.7073 14.8476 92.6751 14.7584C92.633 14.6401 92.5948 14.5197 92.5477 14.4054C92.5085 14.3121 92.4624 14.2239 92.4202 14.1336C92.369 14.0263 92.3229 13.917 92.2667 13.8127C92.2205 13.7235 92.1663 13.6403 92.1141 13.553C92.0559 13.4527 91.9987 13.3504 91.9344 13.2532C91.8792 13.1689 91.817 13.0907 91.7588 13.0095C91.6896 12.9152 91.6253 12.82 91.5521 12.7297C91.4898 12.6505 91.4196 12.5783 91.3543 12.5031C91.2781 12.4158 91.2028 12.3276 91.1225 12.2453C91.0532 12.1721 90.9759 12.107 90.9037 12.0378C90.8204 11.9585 90.7391 11.8783 90.6508 11.8041C90.5735 11.7379 90.4912 11.6798 90.4109 11.6176C90.3206 11.5464 90.2332 11.4752 90.1389 11.409C90.0546 11.3498 89.9673 11.2987 89.882 11.2445C89.7846 11.1834 89.6903 11.1202 89.5899 11.063C89.5006 11.0129 89.4072 10.9688 89.3149 10.9226C89.2135 10.8705 89.1132 10.8163 89.0088 10.7712C88.9124 10.7281 88.8141 10.692 88.7157 10.6539C88.6093 10.6128 88.5049 10.5696 88.3965 10.5345C88.2962 10.5005 88.1928 10.4744 88.0904 10.4453C87.979 10.4142 87.8706 10.3821 87.7582 10.356C87.6528 10.332 87.5464 10.3159 87.4401 10.2969C87.3266 10.2768 87.2122 10.2558 87.0958 10.2407C86.9874 10.2277 86.878 10.2217 86.7686 10.2126C86.6301 10.2026 86.4946 10.1896 86.3541 10.1876H86.33L76.0284 1.71582C70.141 2.74771 38.1011 7.11396 28.8564 8.73551Z" fill="white"/>
</mask>
<g mask="url(#mask3)">
<path fill-rule="evenodd" clip-rule="evenodd" d="M77.4242 9.23407C76.1947 6.69596 73.1285 5.62896 70.5873 6.85841L59.1044 12.411L30.8373 26.0793C28.2961 27.3078 27.2302 30.3734 28.4597 32.9105L29.378 34.8068L58.6186 20.6671L78.3425 11.1294L77.4242 9.23407Z" fill="#F2F2F2"/>
</g>
<path fill-rule="evenodd" clip-rule="evenodd" d="M24.3423 78.9774V35.304C24.3423 32.6264 25.918 30.322 28.1903 29.249H26.0324C25.363 29.2129 24.4125 29.0304 23.443 28.5741C21.7418 27.7738 20.6709 26.3779 20.6719 24.3663C20.6699 24.256 20.6719 24.1497 20.6769 24.0464C20.6297 24.1206 20.5856 24.1988 20.5404 24.275C20.44 24.4475 20.3487 24.625 20.2654 24.8085C20.2433 24.8587 20.2182 24.9078 20.1961 24.9579C20.1008 25.1886 20.0195 25.4273 19.9523 25.6729C19.9362 25.7301 19.9262 25.7903 19.9121 25.8484C19.8629 26.048 19.8238 26.2536 19.7937 26.4632C19.7826 26.5384 19.7716 26.6126 19.7636 26.6878C19.7335 26.9565 19.7134 27.2303 19.7134 27.5151V75.6892C19.7134 78.476 19.9663 80.0424 20.988 81.5727C21.1536 81.8204 21.3433 82.0531 21.5471 82.2757C21.6274 82.3629 21.7177 82.4441 21.804 82.5274C21.9335 82.6517 22.0629 82.7751 22.2055 82.8904C22.3299 82.9927 22.4634 83.09 22.5999 83.1842C22.7133 83.2645 22.8317 83.3417 22.9542 83.4169C23.1268 83.5222 23.3035 83.6255 23.4912 83.7207C23.5755 83.7629 23.6658 83.802 23.7521 83.8421C24.8521 84.3495 26.198 84.6985 27.835 84.8599C25.7534 83.7227 24.3423 81.5155 24.3423 78.9774Z" fill="#E5E5E5"/>
<path fill-rule="evenodd" clip-rule="evenodd" d="M93.59 29.222L93.5248 29.1929C93.4264 29.23 93.319 29.25 93.2076 29.25L26.0317 29.248H28.1905C25.9182 30.322 24.3425 32.6265 24.3425 35.304V78.9775C24.3425 81.5146 25.7536 83.7228 27.8352 84.86C26.6278 84.7406 25.582 84.519 24.6747 84.2071C26.1069 84.7035 27.8834 84.9773 30.0915 84.9773H59.7275H90.7185C94.4752 84.9733 97.5213 81.9077 97.5213 78.1261V35.4173C97.5213 32.7589 95.9867 30.3421 93.59 29.222ZM24.6746 84.2072C24.6445 84.1972 24.6134 84.1862 24.5833 84.1762C24.6134 84.1862 24.6445 84.1972 24.6746 84.2072ZM24.5835 84.1759C24.2934 84.0736 24.0154 83.9633 23.7524 83.8419C24.0144 83.9633 24.2944 84.0726 24.5835 84.1759Z" fill="white"/>
<path fill-rule="evenodd" clip-rule="evenodd" d="M93.5895 29.222L93.5243 29.1929C93.4259 29.23 93.3185 29.25 93.2071 29.25H91.798L59.7271 84.9773H90.7181C94.4748 84.9733 97.5209 81.9077 97.5209 78.1261V35.4173C97.5209 32.7589 95.9863 30.3421 93.5895 29.222Z" fill="#E5E5E5"/>
<path fill-rule="evenodd" clip-rule="evenodd" d="M7.52425 80.7188C7.52024 80.7188 7.51622 80.7188 7.51221 80.7188C8.31112 84.4302 10.1558 87.8006 12.7222 90.423C12.7342 90.3668 12.7503 90.3137 12.7724 90.2605C10.185 87.6923 8.3322 84.3991 7.52425 80.7188Z" fill="#F8C7BA"/>
<path fill-rule="evenodd" clip-rule="evenodd" d="M24.2278 72.9397C24.2278 74.2273 25.7424 74.7999 27.3974 75.4869C29.3254 76.2821 31.4221 77.1846 31.4221 79.3707C31.4221 81.4205 30.0992 82.8154 27.7025 83.1564V86.249H25.7474V83.2105L25.6872 83.2426C24.3302 83.1654 23.0224 82.7101 21.9134 81.9279L22.7956 80.3706C23.8304 81.1176 25.0729 81.5288 26.3516 81.5499C28.2525 81.5499 29.3254 80.8679 29.3254 79.6626C29.3254 78.1854 27.3703 77.694 25.5125 76.8717C23.8304 76.1307 22.2446 75.173 22.2446 73.043C22.2446 71.7915 22.892 70.7476 23.996 70.1178L15.5512 62.3159C10.6052 66.0123 7.89227 71.9991 8.43926 78.1563C8.86883 77.7422 9.37166 77.1565 9.93271 76.4155C10.28 75.9582 10.6433 75.4497 11.0177 74.9002C11.6439 73.9836 12.2712 72.9989 12.8694 72.0141C13.0792 71.6681 13.2689 71.3482 13.4375 71.0604L13.585 70.8087C13.6101 70.7656 13.6292 70.7305 13.6432 70.7054C13.9152 70.2291 14.5234 70.0606 15.0032 70.3304C15.4819 70.6002 15.6516 71.2038 15.3806 71.6802C15.3414 71.7504 15.2662 71.8787 15.1628 72.0572C14.9891 72.3531 14.7934 72.682 14.5776 73.037C13.9624 74.0498 13.317 75.0637 12.6687 76.0113C12.2773 76.5869 11.8949 77.1204 11.5275 77.6068C10.0552 79.5502 8.95213 80.6253 7.87119 80.7065C7.85112 80.7115 7.82803 80.7165 7.80595 80.7195C7.7096 80.7356 7.61626 80.7296 7.52393 80.7185C8.33187 84.3988 10.1856 87.6911 12.7731 90.2603C12.8152 90.163 12.8624 90.0677 12.9367 89.9855C13.304 89.5774 13.9353 89.5443 14.3448 89.9093C20.151 95.0828 28.648 95.9583 35.3986 92.0784C37.9288 90.6243 39.9893 88.6217 41.5018 86.2932L25.365 71.3833C24.6504 71.6581 24.2278 72.1826 24.2278 72.9397Z" fill="white"/>
<path fill-rule="evenodd" clip-rule="evenodd" d="M27.3974 75.487C29.3254 76.2822 31.4221 77.1847 31.4221 79.3709C31.4221 81.4206 30.0982 82.8155 27.7025 83.1555V86.2492H25.7464V83.2106L25.6872 83.2427C24.3292 83.1655 23.0224 82.7102 21.9134 81.928L22.7956 80.3707C23.8304 81.1178 25.0729 81.5289 26.3516 81.55C28.2525 81.55 29.3254 80.8681 29.3254 79.6627C29.3254 78.1855 27.3703 77.6942 25.5125 76.8719C23.8304 76.1308 22.2446 75.1731 22.2446 73.0421C22.2446 71.7916 22.892 70.7477 23.995 70.1179C24.4848 69.8371 25.0549 69.6305 25.7143 69.5373V66.6873H27.6694V69.5052C28.8517 69.6295 29.9798 70.0648 30.9363 70.7657L29.9728 72.2419C29.0253 71.5499 27.8822 71.1709 26.7059 71.1608C26.187 71.1608 25.7383 71.2391 25.365 71.3835C24.6504 71.6582 24.2278 72.1827 24.2278 72.9398C24.2278 74.2274 25.7424 74.8 27.3974 75.487ZM37.8646 79.9886C38.0252 79.6928 38.2068 79.3648 38.4065 79.0098C38.9776 77.998 39.5798 76.9852 40.185 76.0365C40.5845 75.4128 40.9719 74.8371 41.3453 74.3187C42.8186 72.275 43.9126 71.225 45.0749 71.3253C45.1411 71.3313 45.2033 71.3484 45.2676 71.3604C44.2438 67.7382 42.1893 64.5543 39.4323 62.1265C39.4142 62.316 39.359 62.5036 39.2275 62.661C38.8773 63.0832 38.249 63.1434 37.8244 62.7954C32.0223 58.0471 23.8625 57.3782 17.3558 61.1177C16.7225 61.4817 16.1263 61.8868 15.5512 62.316C10.6052 66.0124 7.89127 71.9982 8.43826 78.1565C8.86883 77.7423 9.37166 77.1567 9.93271 76.4156C10.279 75.9583 10.6433 75.4499 11.0177 74.9003C11.6439 73.9838 12.2712 72.999 12.8684 72.0142C13.0782 71.6683 13.2689 71.3484 13.4375 71.0606L13.584 70.8078C13.6101 70.7657 13.6292 70.7306 13.6432 70.7056C13.9142 70.2292 14.5234 70.0608 15.0022 70.3305C15.4819 70.5993 15.6516 71.204 15.3796 71.6803C15.3404 71.7505 15.2662 71.8789 15.1628 72.0574C14.9891 72.3532 14.7924 72.6821 14.5776 73.0371C13.9624 74.0499 13.3171 75.0638 12.6687 76.0114C12.2773 76.5871 11.8949 77.1205 11.5265 77.6069C10.0552 79.5504 8.95213 80.6254 7.87119 80.7066C7.85012 80.7116 7.82803 80.7166 7.80495 80.7196C7.7096 80.7357 7.61626 80.7297 7.52393 80.7186C8.33187 84.399 10.1856 87.6912 12.7731 90.2604C12.8152 90.1631 12.8624 90.0679 12.9367 89.9856C13.304 89.5775 13.9353 89.5444 14.3448 89.9094C20.15 95.0829 28.648 95.9584 35.3986 92.0785C37.9288 90.6244 39.9893 88.6218 41.5018 86.2933C43.8343 82.7032 44.854 78.333 44.1936 73.9527C43.8323 74.3327 43.4188 74.8462 42.9682 75.4719C42.6179 75.9573 42.2506 76.5038 41.8702 77.0985C41.286 78.0131 40.7019 78.9958 40.1469 79.9786C39.9522 80.3235 39.7755 80.6434 39.62 80.9292C39.5266 81.1007 39.4624 81.222 39.4283 81.2842C39.1733 81.7696 38.5711 81.9561 38.0824 81.7024C37.5946 81.4487 37.4059 80.85 37.6618 80.3657C37.699 80.2955 37.7672 80.1671 37.8646 79.9886Z" fill="#191919"/>
<path fill-rule="evenodd" clip-rule="evenodd" d="M7.80556 80.7199C7.82764 80.7169 7.85072 80.7119 7.8708 80.7058C8.95274 80.6256 10.0548 79.5506 11.5271 77.6072C11.8945 77.1208 12.2769 76.5863 12.6693 76.0117C13.3167 75.063 13.963 74.0502 14.5773 73.0363C14.793 72.6823 14.9888 72.3524 15.1624 72.0566C15.2668 71.8791 15.341 71.7507 15.3802 71.6805C15.6512 71.2042 15.4816 70.5995 15.0028 70.3308C14.5231 70.061 13.9148 70.2295 13.6428 70.7058C13.6298 70.7309 13.6097 70.765 13.5846 70.8081L13.4371 71.0608C13.2685 71.3486 13.0788 71.6685 12.869 72.0135C12.2708 72.9992 11.6436 73.984 11.0173 74.9006C10.6429 75.4501 10.2796 75.9575 9.93232 76.4158C9.37227 77.1559 8.86944 77.7415 8.43887 78.1567C7.89188 71.9984 10.6048 66.0126 15.5518 62.3163C16.1259 61.8871 16.7231 61.4819 17.3564 61.1179C23.8621 57.3784 32.0229 58.0473 37.824 62.7956C38.2486 63.1436 38.8779 63.0834 39.2281 62.6612C39.3586 62.5028 39.4138 62.3163 39.4329 62.1267C39.464 61.8099 39.3586 61.4839 39.0926 61.2663C32.6491 55.9925 23.5841 55.2505 16.3567 59.4031C10.2525 62.9119 6.54496 69.2888 6.38036 76.113C6.18666 75.6326 5.98793 75.1021 5.7882 74.5275C5.42588 73.4826 5.07962 72.3594 4.76246 71.2353C4.65005 70.8412 4.5517 70.4762 4.46438 70.1482C4.41219 69.9527 4.37706 69.8143 4.35899 69.7421C4.22651 69.2116 3.68554 68.8877 3.15059 69.0201C2.61664 69.1514 2.29045 69.689 2.42394 70.2204C2.44301 70.2997 2.48115 70.4471 2.53434 70.6506C2.62467 70.9886 2.72604 71.3657 2.84146 71.7708C3.16865 72.929 3.52596 74.0883 3.90233 75.1733C4.5537 77.0446 5.19103 78.4997 5.82534 79.4243C6.23082 80.0159 6.65035 80.4271 7.14917 80.6066C7.25957 80.6677 7.38302 80.7018 7.51249 80.7189C7.51651 80.7189 7.52052 80.7179 7.52454 80.7189C7.61687 80.7289 7.70921 80.7359 7.80556 80.7199ZM50.6385 81.6023C50.6155 81.523 50.5713 81.3786 50.5071 81.1791C50.4037 80.8461 50.2832 80.4761 50.1518 80.078C49.7724 78.9398 49.3629 77.8006 48.9394 76.7336C48.4094 75.4039 47.8935 74.2797 47.3957 73.4183C46.7072 72.23 46.0699 71.521 45.267 71.3605C45.2037 71.3475 45.1405 71.3315 45.0753 71.3254C43.913 71.2242 42.819 72.2751 41.3457 74.3188C40.9723 74.8363 40.5839 75.4129 40.1854 76.0367C39.5792 76.9853 38.978 77.9982 38.4059 79.01C38.2062 79.365 38.0256 79.6929 37.864 79.9887C37.7676 80.1672 37.6984 80.2956 37.6612 80.3658C37.4053 80.8502 37.595 81.4488 38.0828 81.7025C38.5715 81.9563 39.1737 81.7697 39.4287 81.2844C39.4618 81.2222 39.527 81.1009 39.6194 80.9294C39.7759 80.6426 39.9526 80.3237 40.1473 79.9787C40.7023 78.996 41.2864 78.0122 41.8706 77.0986C42.251 76.504 42.6183 75.9574 42.9676 75.4721C43.4192 74.8463 43.8327 74.3319 44.194 73.9528C44.8535 78.3331 43.8347 82.7033 41.5012 86.2934C39.9897 88.6219 37.9292 90.6246 35.398 92.0786C28.6484 95.9575 20.1504 95.0821 14.3452 89.9096C13.9357 89.5435 13.3044 89.5776 12.9371 89.9848C12.8618 90.068 12.8146 90.1633 12.7725 90.2605C12.7504 90.3137 12.7343 90.3668 12.7223 90.423C12.642 90.763 12.7313 91.134 13.0133 91.3837C19.4609 97.1298 28.9003 98.1025 36.3986 93.7934C42.9074 90.052 46.6701 83.0694 46.37 75.786C46.6028 76.2904 46.8407 76.8519 47.0836 77.4616C47.4921 78.4895 47.8895 79.5946 48.2569 80.6997C48.3863 81.0868 48.5018 81.4468 48.6031 81.7687C48.6633 81.9613 48.7055 82.0977 48.7266 82.1678C48.8841 82.6923 49.4402 82.9912 49.9671 82.8347C50.495 82.6783 50.7961 82.1257 50.6385 81.6023Z" fill="#A6A6A6"/>
<path fill-rule="evenodd" clip-rule="evenodd" d="M22.2448 73.0428C22.2448 75.1738 23.8306 76.1315 25.5127 76.8715C27.3695 77.6939 29.3256 78.1862 29.3256 79.6624C29.3256 80.8688 28.2517 81.5497 26.3518 81.5497C25.0721 81.5286 23.8306 81.1174 22.7958 80.3714L21.9136 81.9287C23.0216 82.7099 24.3294 83.1652 25.6873 83.2424L25.7466 83.2103V86.2498H27.7017V83.1562C30.0984 82.8162 31.4222 81.4203 31.4222 79.3706C31.4222 77.1854 29.3256 76.2819 27.3976 75.4877C25.7415 74.7997 24.228 74.2271 24.228 72.9395C24.228 72.1834 24.6496 71.6579 25.3642 71.3832C25.7375 71.2398 26.1872 71.1605 26.705 71.1605C27.8823 71.1716 29.0255 71.5496 29.973 72.2426L30.9365 70.7654C29.98 70.0655 28.8519 69.6302 27.6696 69.5059V66.688H25.7144V69.538C25.055 69.6312 24.4839 69.8378 23.9952 70.1176C22.8921 70.7474 22.2448 71.7913 22.2448 73.0428Z" fill="#A6A6A6"/>
<path fill-rule="evenodd" clip-rule="evenodd" d="M91.0233 64.8277H88.3445C87.7363 64.8277 87.1541 64.5871 86.7246 64.1609C86.295 63.7337 86.0551 63.155 86.0571 62.5524V59.8979C86.0551 59.2962 86.295 58.7176 86.7246 58.2904C87.1541 57.8632 87.7363 57.6235 88.3445 57.6235H91.0233C91.6315 57.6235 92.2146 57.8632 92.6442 58.2904C93.0727 58.7176 93.3126 59.2962 93.3106 59.8979V62.5524C93.3126 63.155 93.0727 63.7337 92.6442 64.1609C92.2146 64.5871 91.6315 64.8277 91.0233 64.8277Z" fill="#999999"/>
<path fill-rule="evenodd" clip-rule="evenodd" d="M89.1293 63.1805H86.2247C85.5663 63.1805 84.934 62.9167 84.4683 62.4474C84.0046 61.9781 83.7436 61.3413 83.7466 60.6785V57.7613C83.7436 57.0984 84.0046 56.4616 84.4683 55.9923C84.934 55.523 85.5663 55.2593 86.2247 55.2593H89.1293C89.7877 55.2593 90.42 55.523 90.8857 55.9923C91.3504 56.4616 91.6113 57.0984 91.6083 57.7613V60.6785C91.6113 61.3413 91.3504 61.9781 90.8857 62.4474C90.42 62.9167 89.7877 63.1805 89.1293 63.1805Z" fill="#404040"/>
</svg>
