<svg width="126" height="98" viewBox="0 0 126 98" fill="none" xmlns="http://www.w3.org/2000/svg">
<path fill-rule="evenodd" clip-rule="evenodd" d="M63.7913 93.9435C105.266 97.2732 126.003 87.9606 126 66.0037C125.996 33.0703 101.648 36.4742 90.5769 28.0627C79.5061 19.6522 86.0423 28.0627 71.0949 9.37434C61.1297 -3.08456 45.7217 -3.12465 24.8709 9.25406C9.32113 21.7531 7.61419 38.114 19.7501 58.3369C31.8859 78.5598 46.566 90.4293 63.7913 93.9435Z" fill="#D9D9D9"/>
<path fill-rule="evenodd" clip-rule="evenodd" d="M95.2138 66.841L86.8137 63.2697L83.495 67.8243L82.4138 69.2085L76.5367 76.7359L73.2058 72.2475L70.9511 69.2085L69.6127 67.4043L69.0812 66.6886L68.5325 67.4043L67.1485 69.2085L64.9799 72.0381L61.3878 76.7199L55.047 68.6011C54.7393 68.2062 54.8132 67.6399 55.211 67.3351C55.5796 67.0535 56.0939 67.0936 56.4138 67.4123L56.4897 67.4975L56.7489 67.8303L57.8251 69.2085L61.3747 73.753L64.8614 69.2085L66.2454 67.4043L67.9058 65.2383L58.9378 60.5143L57.16 59.5772L57.1235 59.5581L53.8909 62.518L52.8521 62.958L54.1338 64.5577C54.4224 64.9185 54.389 65.4287 54.0711 65.7495L53.986 65.8246C53.5922 66.1344 53.0192 66.0692 52.7063 65.6783L51.1168 63.6957L43.7211 66.841C39.229 68.7504 35.5701 72.0932 33.2324 76.2669C42.33 85.7338 52.5099 91.6425 63.7903 93.9439C83.412 95.5185 98.3847 94.2596 108.722 90.1761L107.278 79.7058C105.265 73.9244 100.885 69.2516 95.2138 66.841Z" fill="white"/>
<path fill-rule="evenodd" clip-rule="evenodd" d="M79.3209 54.8684C77.1918 56.5283 75.7308 57.5116 74.8956 57.713L74.6789 57.7391H66.8306L66.6221 57.715C65.6076 57.4785 63.927 56.3419 61.5752 54.4565C61.2917 54.23 61.0021 53.9944 60.7055 53.7508C60.253 53.377 59.7933 52.9891 59.3337 52.5972L59.0391 58.5229L69.469 64.0187L80.232 58.3475L79.6691 54.5948C79.5527 54.686 79.4343 54.7792 79.3209 54.8684Z" fill="#E5E5E5"/>
<path fill-rule="evenodd" clip-rule="evenodd" d="M51.4454 36.8783C51.4687 36.8733 51.4919 36.8652 51.5152 36.8542L52.5216 36.3972L52.7808 37.4626C53.2657 39.4573 53.9855 41.485 54.8765 43.4956C55.4869 44.8728 56.142 46.1588 56.796 47.3175C57.0248 47.7214 57.2364 48.0803 57.4247 48.389C57.4966 48.5052 57.5523 48.5965 57.5958 48.6636C57.6221 48.6867 57.6667 48.7278 57.6991 48.7568C57.7517 48.8039 57.7953 48.845 57.8661 48.9072C58.1526 49.1658 58.4756 49.4544 58.8279 49.7642C59.0324 49.9446 59.24 50.122 59.4465 50.3014C60.2544 51.006 61.0715 51.7047 61.8703 52.3632C62.1598 52.6027 62.4433 52.8323 62.7207 53.0548C64.7202 54.6575 66.2733 55.718 66.9526 55.9345H74.5458C75.0783 55.744 76.439 54.8169 78.1925 53.4507C78.3899 53.2954 78.5934 53.136 78.8009 52.9716C78.9832 52.8263 79.1715 52.6719 79.3568 52.5216C79.9004 52.0825 80.4482 51.6335 80.9969 51.1764C81.1477 51.0501 81.2996 50.9259 81.4505 50.7996C81.7572 50.54 82.0417 50.2994 82.2938 50.0829C82.394 49.9967 82.475 49.9275 82.5348 49.8764C82.5661 49.8343 82.6066 49.7782 82.6573 49.71C82.8041 49.5066 82.9721 49.269 83.1574 48.9984C83.6889 48.2206 84.2488 47.3405 84.8147 46.3743C86.4255 43.6199 87.7416 40.7392 88.5526 37.8846L88.7875 37.0627L89.6288 37.2491L89.643 37.2521C90.6149 37.4626 92.0566 35.9431 92.5952 33.6668C93.1419 31.4016 92.5526 29.4761 91.6081 29.2616C91.3681 29.2105 91.0836 29.2686 90.7647 29.4541L89.4141 30.2399L89.3919 28.6893C89.2916 21.4615 88.5212 16.925 86.3323 13.3707C83.6069 8.94649 78.7048 6.62109 70.7553 6.62109C63.1459 6.62109 58.3025 9.03269 55.493 13.5993C53.205 17.3179 52.2887 22.2103 52.1328 29.3007L52.0913 31.1991L50.6304 29.9672C50.3378 29.7207 50.1039 29.6445 49.9531 29.6796C49.2818 29.852 48.7989 31.6111 49.2302 33.6598C49.6757 35.7005 50.8065 37.0336 51.4454 36.8783Z" fill="#F2F2F2"/>
<path fill-rule="evenodd" clip-rule="evenodd" d="M79.5908 16.2335C77.5811 15.6983 75.4733 15.7835 73.3765 15.998C68.9229 16.451 63.1926 18.7584 58.8159 17.0274C58.5922 16.9361 58.4261 17.1436 58.5041 17.3271C59.5914 20.6618 65.6174 20.1857 68.3448 19.894C71.4165 19.5703 74.5803 19.1834 77.6844 19.5703C79.3893 19.8008 80.6376 20.8903 81.7938 22.034C81.9558 22.3086 82.1056 22.6033 82.2757 22.8719C84.8847 27.3062 85.2644 34.3736 83.3884 39.1898C82.2757 42.5165 78.5196 45.1175 75.9045 48.0904C73.1163 51.5414 68.5392 51.358 63.6249 52.1198C65.178 53.3636 66.9092 54.9974 66.9092 55.9546H74.5803C76.2326 55.5337 82.9176 49.4425 82.9176 49.4425C82.9176 49.4425 89.8701 39.8754 89.8701 30.7331C89.8701 20.2258 90.0551 10.8951 79.5908 7.05322C79.041 10.9132 78.7494 12.5359 79.5908 16.2335ZM42.4862 81.4047C43.369 73.0934 47.1403 68.185 53.7969 66.6785C53.7969 66.6785 53.0903 65.4837 51.6739 63.0942L39.4267 68.0156L33.3359 75.8628L39.4267 85.4861L42.4862 88.1634V81.4047Z" fill="#E5E5E5"/>
<path fill-rule="evenodd" clip-rule="evenodd" d="M113.43 21.4549L112.228 22.6446L110.254 20.6901L108.285 22.6406L107.079 21.4459L109.048 19.4953L107.075 17.5408L108.276 16.3521L110.249 18.3066L112.219 16.3561L113.426 17.5498L111.456 19.5004L113.43 21.4549Z" fill="#999999"/>
<path fill-rule="evenodd" clip-rule="evenodd" d="M69.2875 74.4234C69.0304 74.4004 68.7793 74.3432 68.59 74.225L67.048 73.3068L64.6162 94.4439L73.728 94.4469L71.8064 73.1094L69.983 74.219C69.7856 74.3362 69.5386 74.4004 69.2875 74.4234Z" fill="#767676"/>
<path fill-rule="evenodd" clip-rule="evenodd" d="M71.8398 73.3444L73.7503 94.4473H75.9543L72.5161 72.9014L71.8398 73.3444Z" fill="#CCCCCC"/>
<path fill-rule="evenodd" clip-rule="evenodd" d="M85.0076 62.971L83.1255 65.3505L81.5786 67.3291L81.5907 67.4043H81.5219L80.1116 69.2084L76.5752 73.7379L73.214 69.2084L71.8755 67.4043L70.4824 65.5269L80.5155 60.2406L81.8124 59.5581L82.3267 60.0281L85.0451 62.5179L85.0076 62.971ZM69.468 64.0184L59.0391 58.5227L59.3337 52.5969C59.7933 52.9888 60.253 53.3767 60.7055 53.7506C61.0021 53.9942 61.2917 54.2297 61.5742 54.4562C63.927 56.3416 65.6076 57.4782 66.6221 57.7148L66.8306 57.7388H74.6789L74.8956 57.7128C75.7308 57.5113 77.1918 56.528 79.3209 54.8682C79.4343 54.779 79.5517 54.6858 79.6691 54.5945L80.2321 58.3472L69.468 64.0184ZM58.8295 49.7643C58.4772 49.4546 58.1542 49.166 57.8667 48.9074C57.7968 48.8452 57.7523 48.8041 57.6996 48.757C57.6672 48.7279 57.6227 48.6868 57.5974 48.6638C57.5538 48.5966 57.4971 48.5044 57.4263 48.3892C57.237 48.0804 57.0254 47.7216 56.7976 47.3167C56.1425 46.159 55.4885 44.872 54.877 43.4948C53.9861 41.4851 53.2662 39.4574 52.7823 37.4628L52.5231 36.3973L51.5168 36.8544C51.4925 36.8654 51.4702 36.8724 51.4469 36.8785C50.8081 37.0338 49.6772 35.7007 49.2318 33.66C48.9108 32.1355 49.0961 30.7743 49.4889 30.1047C50.1936 32.809 51.5542 37.9159 52.0817 32.9433C52.1161 31.8358 53.0223 21.7804 54.2949 19.9903C54.6826 19.434 55.0967 18.9539 55.531 18.5459C55.9259 18.7113 56.2792 18.8757 56.6174 18.9629C58.4326 19.4079 60.3431 19.3277 62.212 19.2165C68.3412 18.8176 75.2965 17.4494 81.4075 18.3354C82.7449 18.5219 84.1501 18.8166 85.53 19.2536C85.7234 19.4821 85.9137 19.7277 86.095 19.9903C87.3575 21.7804 88.2767 31.8358 88.3142 32.9433C88.8892 38.4681 90.4929 31.5501 91.1156 29.3109C91.2938 29.2558 91.4618 29.2307 91.6096 29.2618C92.5532 29.4763 93.1424 31.4018 92.5957 33.667C92.0581 35.9433 90.6164 37.4628 89.6445 37.2523L89.6293 37.2493L88.788 37.0629L88.5541 37.8848C87.7422 40.7394 86.426 43.6201 84.8163 46.3745C84.2503 47.3407 83.6895 48.2208 83.159 48.9986C82.9727 49.2692 82.8046 49.5067 82.6588 49.7102C82.6082 49.7784 82.5677 49.8345 82.5363 49.8766C82.4766 49.9277 82.3956 49.9969 82.2943 50.0831C82.0423 50.2996 81.7588 50.5401 81.451 50.7997C81.3012 50.926 81.1483 51.0503 80.9985 51.1756C80.4497 51.6337 79.902 52.0827 79.3583 52.5217C79.172 52.6721 78.9847 52.8264 78.8015 52.9718C78.595 53.1362 78.3915 53.2955 78.194 53.4509C76.4405 54.8171 75.0788 55.7442 74.5473 55.9347H66.9542C66.2748 55.7182 64.7218 54.6577 62.7212 53.054C62.4448 52.8325 62.1614 52.6019 61.8708 52.3634C61.072 51.7048 60.256 51.0052 59.4481 50.3016C59.2416 50.1222 59.034 49.9448 58.8295 49.7643ZM64.5932 5.43552C63.2305 5.73321 61.9781 6.13916 60.827 6.65034C61.9771 6.13815 63.2315 5.73321 64.5932 5.43552ZM76.8091 5.34531C76.7716 5.3383 76.7362 5.32928 76.6977 5.32226C76.6562 5.27716 76.6137 5.23306 76.5721 5.18995C76.6531 5.23907 76.7281 5.2952 76.8091 5.34531ZM109.073 79.375L109.032 79.2066C106.867 72.903 102.106 67.8072 95.9347 65.1831L86.0524 60.9824L82.0989 57.363L81.939 57.4472L81.3133 53.2705C81.7527 52.9086 82.1951 52.5418 82.6315 52.1739C82.9443 51.9113 83.2308 51.6668 83.487 51.4472C83.6409 51.3159 83.7512 51.2207 83.8089 51.1706L83.9355 51.0353C83.974 50.9852 84.0428 50.894 84.138 50.7617C84.2949 50.5462 84.4731 50.2946 84.6675 50.0089C85.2213 49.199 85.8054 48.2829 86.3926 47.2786C87.9457 44.6224 89.2385 41.85 90.1021 39.0655C91.9893 38.8851 93.7296 36.7882 94.3685 34.082C94.6894 32.7569 94.7046 31.4599 94.4495 30.3653C94.1052 28.8919 93.269 27.7874 92.0045 27.5007C91.8597 27.4696 91.7149 27.4526 91.5691 27.4456C91.8617 25.916 92.13 23.8011 92.295 21.6381C92.4023 20.7821 92.4904 19.5964 92.459 18.2943C92.4955 16.2065 92.3791 14.3813 92.0267 13.411C91.4952 11.9416 90.7126 10.6827 89.7397 9.59618C89.5625 9.20928 89.3661 8.84744 89.1424 8.52569C85.3934 3.1392 75.6286 -1.49756 63.1697 0.764691C58.4751 1.60464 56.2539 3.94607 55.2202 5.44655C52.0098 6.61827 49.5588 8.61891 48.354 11.9476C47.4226 14.5326 48.1576 24.4236 48.9797 28.1592C47.4671 28.9872 46.9032 31.4479 47.4489 34.0349C48.0108 36.6148 49.5213 38.6095 51.2191 38.6947C51.7183 40.5349 52.3956 42.3872 53.2085 44.2205C53.8443 45.6538 54.5257 46.9909 55.206 48.1977C55.446 48.6207 55.6687 48.9986 55.8682 49.3253C55.9897 49.5238 56.0788 49.6631 56.1273 49.7383L56.1891 49.8335L56.2741 49.9107C56.342 49.9718 56.4665 50.0851 56.6406 50.2425C56.9231 50.496 57.241 50.7797 57.5842 51.0824L57.2602 57.5855L56.8381 57.363L52.8846 60.9824L43.0033 65.1831C38.3169 67.1747 34.4484 70.5947 31.9072 74.8836C32.3436 75.3607 32.7911 75.8067 33.2335 76.2668C35.5712 72.0931 39.2301 68.7504 43.7222 66.8409L51.1179 63.6957L52.7074 65.6783C53.0202 66.0692 53.5933 66.1343 53.9871 65.8246L54.0721 65.7484C54.39 65.4287 54.4234 64.9175 54.1349 64.5576L52.8532 62.9579L53.8919 62.5179L57.1246 59.5581L57.161 59.5771L58.9388 60.5143L67.9068 65.2382L66.2465 67.4043L64.8625 69.2084L61.3757 73.753L57.8262 69.2084L56.75 67.8302L56.4908 67.4975L56.4149 67.4123C56.0949 67.0935 55.5806 67.0534 55.2121 67.3351C54.8142 67.6398 54.7403 68.2061 55.0481 68.601L61.3889 76.7199L64.981 72.037C65.0154 72.0711 65.0488 72.1072 65.0903 72.1322L65.9559 72.6554L67.0483 73.3069L68.5892 74.2251C68.7796 74.3434 69.0306 74.4005 69.2878 74.4235C69.5389 74.4005 69.7859 74.3363 69.9823 74.2191L71.8067 73.1095L72.6065 72.6224L73.2069 72.2465L76.5377 76.7349L82.4148 69.2084L83.4961 67.8242L86.8148 63.2687L95.2148 66.8409C100.886 69.2515 105.266 73.9244 107.279 79.7058L108.724 90.1761C109.317 89.9415 109.901 89.702 110.463 89.4494L109.073 79.375Z" fill="#595959"/>
<path fill-rule="evenodd" clip-rule="evenodd" d="M19.5163 97.3598C30.1406 97.3598 38.7522 88.833 38.7522 78.3156C38.7522 67.7973 30.1406 59.2715 19.5163 59.2715C8.89293 59.2715 0.280273 67.7973 0.280273 78.3156C0.280273 88.833 8.89293 97.3598 19.5163 97.3598Z" fill="white"/>
<path fill-rule="evenodd" clip-rule="evenodd" d="M1.29199 77.9708C1.57648 72.3077 4.13892 67.0044 8.39007 63.2808L35.2192 88.388C31.6018 93.3395 25.9454 96.3705 19.8405 96.6281C9.6151 97.2024 1.29199 88.2777 1.29199 77.9708Z" fill="#F2F2F2"/>
<path fill-rule="evenodd" clip-rule="evenodd" d="M10.4826 60.6075C11.2034 61.1607 11.2389 62.3645 10.9321 64.3602C10.8552 64.8663 10.7539 65.4146 10.6304 65.997C10.4441 66.882 10.2194 67.8042 9.9774 68.7093C9.89235 69.026 9.81237 69.3177 9.73847 69.5793C9.69291 69.7366 9.66051 69.8489 9.64229 69.91C9.51573 70.334 9.07128 70.5916 8.65012 70.4854C8.22895 70.3791 7.989 69.9501 8.11556 69.5251C8.13176 69.471 8.16314 69.3638 8.20566 69.2134C8.27754 68.9598 8.3555 68.6762 8.43852 68.3685C8.6734 67.4894 8.89208 66.5953 9.07128 65.7414C9.18872 65.1861 9.2849 64.6659 9.3578 64.1918C9.4074 63.872 9.44486 63.5753 9.47017 63.3057C4.71686 66.6846 1.82134 72.1242 1.82134 78.0539C1.82134 88.0732 10.027 96.195 20.1472 96.195C30.2673 96.195 38.472 88.0732 38.472 78.0539C38.472 74.9958 37.7076 72.05 36.271 69.4249L36.0381 69.013L37.6175 68.1129C39.3619 71.1118 40.2933 74.5167 40.2933 78.0539C40.2933 89.0695 31.2736 98.0002 20.1472 98.0002C9.02066 98.0002 0 89.0695 0 78.0539C0 71.8626 2.87122 66.1553 7.63567 62.4177C7.11731 62.6271 6.5291 62.8928 5.88722 63.2065C5.07627 63.6034 4.22888 64.0535 3.39768 64.5185C3.10712 64.6809 2.83781 64.8343 2.59989 64.9726C2.45714 65.0558 2.35691 65.1149 2.30427 65.146C1.92056 65.3755 1.4346 65.2603 1.22199 64.8884C1.00736 64.5165 1.14505 64.0294 1.52977 63.7999C1.58747 63.7648 1.69378 63.7026 1.8426 63.6164C2.08862 63.4731 2.36501 63.3157 2.66368 63.1484C3.52018 62.6692 4.3939 62.2052 5.23522 61.7932C6.2851 61.279 7.21248 60.8821 7.97989 60.6305C9.12494 60.2576 9.92475 60.1805 10.4826 60.6075ZM15.3928 71.5418C16.6695 71.5418 17.6931 71.8716 18.4635 72.5311C19.234 73.1916 19.6187 74.0797 19.6187 75.1963C19.6187 75.8097 19.5073 76.3931 19.2846 76.9444C19.0639 77.4956 18.7217 78.065 18.262 78.6503C17.8014 79.2357 17.036 80.0285 15.9648 81.0268L13.5796 83.3141V83.4073H20.0975V85.3318H10.7904V83.677L14.3308 80.1528C15.3766 79.0923 16.0701 78.3406 16.4103 77.8976C16.7525 77.4545 17.0006 77.0376 17.1585 76.6467C17.3144 76.2558 17.3924 75.8378 17.3924 75.3918C17.3924 74.7773 17.2071 74.2942 16.8335 73.9404C16.4609 73.5876 15.9456 73.4102 15.2886 73.4102C14.7631 73.4102 14.2549 73.5064 13.7618 73.6988C13.2708 73.8913 12.7018 74.2381 12.0579 74.7402L10.8653 73.2989C11.6287 72.6604 12.3708 72.2084 13.0906 71.9417C13.8104 71.6751 14.5778 71.5418 15.3928 71.5418ZM29.3207 71.6992V80.5517H31.1724V82.3659H29.3207V85.3318H27.1703V82.3659H20.8963V80.682L27.1703 71.6992H29.3207ZM27.2645 74.1549H27.1895C27.0134 74.5638 26.739 75.059 26.3634 75.6423L22.9526 80.5517H27.1703V77.1398C27.1703 75.924 27.2017 74.9297 27.2645 74.1549Z" fill="#767676"/>
<path fill-rule="evenodd" clip-rule="evenodd" d="M85.0076 62.971L85.0451 62.518L82.3267 60.0282L81.8124 59.5581L80.5155 60.2407L70.4824 65.527L71.8755 67.4043L73.2139 69.2085L76.5752 73.738L80.1115 69.2085L81.5219 67.4043H81.5907L81.5786 67.3291L83.1255 65.3505L85.0076 62.971Z" fill="#F2F2F2"/>
<path fill-rule="evenodd" clip-rule="evenodd" d="M82.5857 16.2154C81.9499 14.3491 81.3111 12.598 80.4222 10.8399C82.1716 11.6408 83.828 13.5673 85.302 14.8011C84.156 12.3434 82.6708 10.2816 80.8565 8.50852C80.2865 8.23789 79.6831 7.99533 79.0443 7.78284C79.6882 8.4574 80.329 9.13096 80.9729 9.80553C79.6153 8.94453 78.2617 8.07852 76.9101 7.21953C77.6684 8.20682 78.4206 9.19411 79.1789 10.1814C77.4872 8.69996 75.5302 7.53426 73.4365 6.71937C73.1935 6.70133 72.9434 6.6893 72.6934 6.67627C76.3917 9.39357 79.7388 12.603 82.5857 16.2154Z" fill="#333333"/>
<path fill-rule="evenodd" clip-rule="evenodd" d="M72.3207 50.5978C71.7851 50.5978 71.29 50.25 71.126 49.7097C70.9266 49.0482 71.2992 48.3496 71.9593 48.1491L76.4585 46.7809C82.8701 44.8334 87.8927 39.8428 89.8933 33.434C90.0998 32.7744 90.7994 32.4066 91.4575 32.6141C92.1155 32.8195 92.482 33.5222 92.2765 34.1817C90.0279 41.3814 84.3857 46.9874 77.1833 49.1765L72.6831 50.5436C72.5627 50.5797 72.4402 50.5978 72.3207 50.5978Z" fill="#767676"/>
<path fill-rule="evenodd" clip-rule="evenodd" d="M49.8788 38.3857H47.29V24.729C47.29 13.4689 57.5094 4.30664 70.0695 4.30664C82.6316 4.30664 92.8489 13.4689 92.8489 24.729V37.8344H90.2622V24.729C90.2622 14.7479 81.2031 6.62702 70.0695 6.62702C58.9369 6.62702 49.8788 14.7479 49.8788 24.729V38.3857Z" fill="#767676"/>
<path fill-rule="evenodd" clip-rule="evenodd" d="M48.8346 24.3159C46.0383 24.3159 43.7725 26.3436 43.7725 28.8464V34.8213C43.7725 37.3231 46.0383 39.3508 48.8346 39.3508V39.3488V24.3189V24.3159Z" fill="#595959"/>
<path fill-rule="evenodd" clip-rule="evenodd" d="M51.7457 23.3135H49.97C49.3423 23.3135 48.833 23.7635 48.833 24.3188V39.3487C48.833 39.903 49.3423 40.353 49.97 40.353H51.7457C52.3734 40.353 52.8827 39.903 52.8827 39.3487V24.3188C52.8827 23.7635 52.3734 23.3135 51.7457 23.3135Z" fill="#767676"/>
<path fill-rule="evenodd" clip-rule="evenodd" d="M92.3682 24.3159V24.3179V39.3488V39.3508C95.1645 39.3508 97.4303 37.3231 97.4303 34.8213V28.8464C97.4303 26.3436 95.1645 24.3159 92.3682 24.3159Z" fill="#595959"/>
<path fill-rule="evenodd" clip-rule="evenodd" d="M91.2301 23.3135H89.4543C88.8266 23.3135 88.3174 23.7635 88.3174 24.3178V39.3487C88.3174 39.903 88.8266 40.353 89.4543 40.353H91.2301C91.8578 40.353 92.3671 39.903 92.3671 39.3487V24.3178C92.3671 23.7635 91.8578 23.3135 91.2301 23.3135Z" fill="#767676"/>
</svg>
