<svg width="138" height="116" viewBox="0 0 138 116" fill="none" xmlns="http://www.w3.org/2000/svg">
<path fill-rule="evenodd" clip-rule="evenodd" d="M68.5533 116C106.065 116 136.474 114.436 136.474 112.507C136.474 110.578 106.065 109.014 68.5533 109.014C31.0412 109.014 0.632812 110.578 0.632812 112.507C0.632812 114.436 31.0412 116 68.5533 116Z" fill="#191919"/>
<path fill-rule="evenodd" clip-rule="evenodd" d="M122.938 67.9149C125.615 67.9159 128.247 67.1714 130.549 65.7633C134.672 63.2394 137.292 58.7943 137.525 53.9591L137.555 53.3493L137.438 53.2964L136.997 53.0978C135.094 52.2366 133.017 51.7875 130.931 51.7875C128.249 51.7875 125.616 52.531 123.32 53.9371C121.057 55.3223 119.272 57.2964 118.065 59.5857V56.5888V41.8086C129.144 41.2757 138 32.1292 138 20.9298C138 9.38905 128.603 0 117.052 0C112.245 0 107.725 1.58181 103.979 4.57577L104.407 5.11069L105.103 5.97794C108.526 3.24246 112.658 1.79637 117.052 1.79637C127.611 1.79637 136.201 10.3791 136.201 20.9298C136.201 31.4805 127.611 40.0641 117.052 40.0641C106.493 40.0641 97.903 31.4805 97.903 20.9298H96.9581H96.1041C96.1041 32.206 105.082 41.4034 116.267 41.8206V58.9071C115.08 56.9131 113.457 55.1816 111.426 53.9381C109.129 52.531 106.496 51.7875 103.814 51.7875C101.725 51.7875 99.6489 52.2366 97.7471 53.0978L97.1918 53.3503L97.2207 53.9591C97.4535 58.7953 100.072 63.2394 104.197 65.7633C106.496 67.1704 109.128 67.9149 111.808 67.9149C113.322 67.9149 114.826 67.6575 116.267 67.1924V83.7939C115.08 81.8199 113.441 80.1213 111.426 78.8878C109.129 77.4806 106.496 76.7371 103.814 76.7371C101.725 76.7371 99.6489 77.1862 97.7471 78.0475L97.1918 78.3L97.2207 78.9088C97.4535 83.745 100.072 88.189 104.197 90.7129C106.496 92.1201 109.128 92.8646 111.808 92.8646C113.322 92.8646 114.826 92.6071 116.267 92.1421V112.199C116.267 112.695 116.671 113.097 117.167 113.097C117.664 113.097 118.065 112.695 118.065 112.199V91.9953C119.632 92.5502 121.277 92.8646 122.938 92.8646C125.615 92.8656 128.247 92.1211 130.549 90.7129C134.672 88.189 137.292 83.744 137.525 78.9088L137.555 78.299L136.997 78.0475C135.094 77.1862 133.017 76.7371 130.931 76.7371C128.249 76.7371 125.616 77.4806 123.32 78.8868C121.057 80.272 119.272 82.246 118.065 84.5354V67.0457C119.632 67.6006 121.277 67.9149 122.938 67.9149ZM26.495 95.7572C24.9448 96.7012 23.1739 97.2002 21.369 97.2002C20.1734 97.2002 18.9788 96.9817 17.8571 96.5585C18.1947 93.5596 19.9077 90.8461 22.5046 89.2613C24.0528 88.3182 25.8248 87.8192 27.6306 87.8192C28.8292 87.8192 30.0228 88.0377 31.1425 88.4599C30.8049 91.4598 29.0929 94.1743 26.495 95.7572ZM11.6494 97.2002C9.84547 97.2002 8.07355 96.7012 6.52336 95.7572C3.9264 94.1743 2.21341 91.4598 1.8758 88.4599C2.99549 88.0377 4.18909 87.8192 5.38769 87.8192C7.19358 87.8192 8.9655 88.3182 10.5137 89.2613C13.1106 90.8461 14.8226 93.5596 15.1612 96.5585C14.0396 96.9817 12.845 97.2002 11.6494 97.2002ZM32.462 87.0627C30.9468 86.3791 29.2937 86.0228 27.6306 86.0228C25.4941 86.0228 23.3976 86.6126 21.5677 87.7283C19.1156 89.2243 17.3337 91.5696 16.5097 94.2582C15.6846 91.5696 13.9027 89.2243 11.4496 87.7283C9.62073 86.6126 7.52419 86.0228 5.38769 86.0228C3.72464 86.0228 2.07157 86.3791 0.557347 87.0627L0 87.3142L0.0299649 87.924C0.214749 91.7622 2.30131 95.2881 5.58646 97.2911C7.41831 98.4068 9.51386 98.9966 11.6494 98.9966C12.9179 98.9966 14.1824 98.785 15.386 98.3809V112.275C15.386 112.77 15.7885 113.173 16.2849 113.173C16.7813 113.173 17.1839 112.77 17.1839 112.275V98.2072C18.5213 98.7172 19.9406 98.9966 21.369 98.9966C23.5045 98.9966 25.6 98.4068 27.4309 97.2911C30.717 95.2881 32.8026 91.7622 32.9884 87.924L33.0183 87.3142L32.462 87.0627Z" fill="#E8E8E8"/>
<path fill-rule="evenodd" clip-rule="evenodd" d="M10.5139 89.2614C8.96567 88.3183 7.19375 87.8193 5.38786 87.8193C4.18927 87.8193 2.99567 88.0379 1.87598 88.46C2.21358 91.46 3.92658 94.1745 6.52353 95.7573C8.07372 96.7014 9.84564 97.2004 11.6495 97.2004C12.8451 97.2004 14.0397 96.9809 15.1614 96.5587C14.8228 93.5598 13.1108 90.8452 10.5139 89.2614ZM22.5047 89.2614C19.9078 90.8452 18.1958 93.5598 17.8572 96.5587C18.9788 96.9809 20.1735 97.2004 21.3691 97.2004C23.1739 97.2004 24.9449 96.7014 26.495 95.7573C29.093 94.1745 30.806 91.46 31.1426 88.46C30.0229 88.0379 28.8293 87.8193 27.6307 87.8193C25.8248 87.8193 24.0529 88.3183 22.5047 89.2614Z" fill="#0D4F80"/>
<path fill-rule="evenodd" clip-rule="evenodd" d="M77.5721 86.0228C75.4356 86.0228 73.34 86.6126 71.5101 87.7284C69.7182 88.8212 68.2889 90.3701 67.3251 92.1734V80.3213C68.6036 80.7824 69.953 81.0329 71.3104 81.0329C73.4459 81.0329 75.5414 80.4431 77.3733 79.3273C80.6584 77.3244 82.745 73.7975 82.9298 69.9602L82.9607 69.3495L82.4034 69.099C80.8882 68.4144 79.2351 68.0591 77.5721 68.0591C75.4356 68.0591 73.34 68.6489 71.5101 69.7646C69.058 71.2606 67.2751 73.6059 66.4511 76.2935C65.626 73.6059 63.8441 71.2606 61.392 69.7646C59.5631 68.6489 57.4656 68.0591 55.3291 68.0591C53.666 68.0591 52.013 68.4144 50.4998 69.099L49.9414 69.3495L49.9714 69.9602C50.1572 73.7975 52.2437 77.3244 55.5289 79.3273C57.3607 80.4431 59.4553 81.0329 61.5908 81.0329C62.9312 81.0329 64.2646 80.7894 65.5272 80.3403V92.0876C64.5643 90.3221 63.1539 88.8042 61.392 87.7284C59.5631 86.6126 57.4656 86.0228 55.3291 86.0228C53.666 86.0228 52.013 86.3781 50.4998 87.0627L49.9414 87.3132L49.9714 87.924C50.1572 91.7612 52.2437 95.2881 55.5289 97.2911C57.3607 98.4068 59.4553 98.9966 61.5908 98.9966C62.9312 98.9966 64.2646 98.7531 65.5272 98.304V112.275C65.5272 112.77 65.9307 113.173 66.4261 113.173C66.9235 113.173 67.3251 112.77 67.3251 112.275V98.2851C68.6036 98.7461 69.953 98.9966 71.3104 98.9966C73.4459 98.9966 75.5414 98.4068 77.3733 97.2911C80.6584 95.2881 82.745 91.7612 82.9298 87.924L82.9607 87.3132L82.4034 87.0627C80.8882 86.3781 79.2351 86.0228 77.5721 86.0228Z" fill="#E8E8E8"/>
<path fill-rule="evenodd" clip-rule="evenodd" d="M60.4553 89.2614C58.9071 88.3183 57.1352 87.8193 55.3293 87.8193C54.1307 87.8193 52.9371 88.0379 51.8174 88.46C52.155 91.46 53.868 94.1745 56.4649 95.7573C58.0151 96.7014 59.787 97.2004 61.5909 97.2004C62.7865 97.2004 63.9811 96.9809 65.1028 96.5587C64.7642 93.5598 63.0522 90.8452 60.4553 89.2614ZM72.4461 89.2614C69.8492 90.8452 68.1372 93.5598 67.7986 96.5587C68.9203 96.9809 70.1149 97.2004 71.3105 97.2004C73.1153 97.2004 74.8863 96.7014 76.4365 95.7573C79.0344 94.1745 80.7474 91.46 81.084 88.46C79.9643 88.0379 78.7707 87.8193 77.5721 87.8193C75.7662 87.8193 73.9943 88.3183 72.4461 89.2614Z" fill="#0F2B4A"/>
<path fill-rule="evenodd" clip-rule="evenodd" d="M60.4553 71.2973C58.9071 70.3542 57.1352 69.8552 55.3293 69.8552C54.1307 69.8552 52.9371 70.0737 51.8174 70.4959C52.155 73.4958 53.868 76.2104 56.4649 77.7932C58.0151 78.7373 59.787 79.2362 61.5909 79.2362C62.7865 79.2362 63.9811 79.0167 65.1028 78.5945C64.7642 75.5956 63.0522 72.8811 60.4553 71.2973ZM76.4366 77.793C79.0345 76.2102 80.7465 73.4956 81.0841 70.4957C79.9644 70.0735 78.7708 69.855 77.5722 69.855C75.7663 69.855 73.9944 70.354 72.4462 71.2971C69.8493 72.8819 68.1363 75.5954 67.7987 78.5943C68.9204 79.0175 70.115 79.236 71.3106 79.236C73.1154 79.236 74.8864 78.7371 76.4366 77.793Z" fill="#0D4F80"/>
<path fill-rule="evenodd" clip-rule="evenodd" d="M123.319 53.9371C125.616 52.5309 128.25 51.7874 130.93 51.7874C133.016 51.7874 135.094 52.2365 136.996 53.0978L137.437 53.2964C137.436 53.2485 137.44 53.2006 137.438 53.1517C137.426 52.6557 137.148 52.2036 136.709 51.968C134.622 50.8433 132.266 50.2495 129.894 50.2495C127.285 50.2495 124.723 50.9671 122.486 52.3253C120.687 53.4181 119.195 54.8881 118.064 56.5887V59.5857C119.271 57.2963 121.056 55.3223 123.319 53.9371Z" fill="#6EE3FF"/>
<path fill-rule="evenodd" clip-rule="evenodd" d="M110.486 80.4185C108.472 79.185 106.164 78.5333 103.814 78.5333C102.188 78.5333 100.571 78.8427 99.0615 79.4405C99.4481 83.4424 101.696 87.0761 105.136 89.1808C107.153 90.4153 109.459 91.067 111.808 91.067C113.327 91.067 114.839 90.7836 116.267 90.2567V88.5641C115.51 85.2098 113.46 82.2388 110.486 80.4185ZM122.937 91.0674C125.284 91.0684 127.59 90.4167 129.61 89.1812C133.048 87.0755 135.297 83.4418 135.684 79.4409C134.173 78.8431 132.554 78.5327 130.931 78.5327C128.581 78.5327 126.273 79.1844 124.258 80.4179C120.993 82.4179 118.821 85.8001 118.277 89.5605C118.304 89.778 118.332 89.9956 118.349 90.2151C119.814 90.772 121.373 91.0674 122.937 91.0674Z" fill="#0F2B4A"/>
<path fill-rule="evenodd" clip-rule="evenodd" d="M110.486 55.4693C108.472 54.2358 106.164 53.5841 103.814 53.5841C102.188 53.5841 100.571 53.8935 99.0615 54.4913C99.4481 58.4932 101.696 62.1269 105.136 64.2316C107.153 65.4661 109.459 66.1178 111.808 66.1178C113.327 66.1178 114.839 65.8344 116.267 65.3074V63.6148C115.51 60.2606 113.46 57.2896 110.486 55.4693ZM122.937 66.1182C125.284 66.1192 127.59 65.4675 129.61 64.232C133.048 62.1263 135.297 58.4926 135.684 54.4917C134.173 53.8939 132.554 53.5835 130.931 53.5835C128.581 53.5835 126.273 54.2352 124.258 55.4687C120.993 57.4687 118.821 60.8508 118.277 64.6112C118.304 64.8288 118.332 65.0464 118.349 65.2659C119.814 65.8228 121.373 66.1182 122.937 66.1182Z" fill="#0D4F80"/>
<path fill-rule="evenodd" clip-rule="evenodd" d="M85.4453 9.2661H88.7874V7.46973H85.4453V9.2661Z" fill="#0D4F80"/>
<path fill-rule="evenodd" clip-rule="evenodd" d="M90.394 5.86414H92.1929V2.52588H90.394V5.86414Z" fill="#0D4F80"/>
<path fill-rule="evenodd" clip-rule="evenodd" d="M93.7998 9.2661H97.1419V7.46973H93.7998V9.2661Z" fill="#0D4F80"/>
<path fill-rule="evenodd" clip-rule="evenodd" d="M90.3945 14.2099H92.1934V10.8706H90.3945V14.2099Z" fill="#0D4F80"/>
<path fill-rule="evenodd" clip-rule="evenodd" d="M24.3359 58.1504L26.6372 58.1604L26.6452 56.363L24.3439 56.354L24.3359 58.1504Z" fill="#EC0000"/>
<path fill-rule="evenodd" clip-rule="evenodd" d="M27.4746 55.6237L29.2725 55.6297L29.2815 53.4401L27.4836 53.4331L27.4746 55.6237Z" fill="#EC0000"/>
<path fill-rule="evenodd" clip-rule="evenodd" d="M30.0969 56.3784L30.0889 58.1748L32.3902 58.1848L32.3972 56.3884L30.0969 56.3784Z" fill="#EC0000"/>
<path fill-rule="evenodd" clip-rule="evenodd" d="M27.4521 61.0978L29.25 61.1058L29.259 58.9152L27.4611 58.9082L27.4521 61.0978Z" fill="#EC0000"/>
<path fill-rule="evenodd" clip-rule="evenodd" d="M117.034 35.9361C125.338 35.9361 132.071 29.2096 132.071 20.9114C132.071 12.6141 125.338 5.8877 117.034 5.8877C108.73 5.8877 101.997 12.6141 101.997 20.9114C101.997 29.2096 108.73 35.9361 117.034 35.9361Z" fill="#FDD463"/>
<path fill-rule="evenodd" clip-rule="evenodd" d="M118.001 19.5082L117.057 19.1339C115.857 18.623 115.129 18.0531 115.129 16.9713C115.129 15.9893 115.777 15.2029 117.411 15.2029C118.257 15.2029 119.379 15.3595 120.245 15.7338C120.421 15.143 120.519 14.6719 120.579 13.8656C119.752 13.5312 118.847 13.3546 117.922 13.3147V11.2119C117.392 11.2119 116.663 11.3486 116.21 11.5452V13.3935C114.066 13.7678 112.904 15.1629 112.904 17.0701C112.904 19.0162 114.086 20.2557 115.876 21.0022L116.762 21.3764C118.415 22.084 119.044 22.6538 119.044 23.6758C119.044 24.8753 118.297 25.6218 116.565 25.6218C115.68 25.6218 114.263 25.3673 113.358 24.8364C113.181 25.4651 113.121 25.9372 113.102 26.7436C113.79 27.2146 115.069 27.4711 116.21 27.53V29.8493H117.922V27.4112C120.265 26.9791 121.269 25.4063 121.269 23.5979C121.269 21.6908 120.107 20.3924 118.001 19.5082Z" fill="#0D0D0D"/>
</svg>
