<svg width="118" height="134" viewBox="0 0 118 134" fill="none" xmlns="http://www.w3.org/2000/svg">
<path fill-rule="evenodd" clip-rule="evenodd" d="M62.0219 133.451C99.8742 128.45 107.261 119.692 113.098 110.217C124.403 91.8693 115.513 60.8316 93.0377 60.6381C71.0288 64.8784 75.096 24.8068 32.7281 36.2444C6.18167 43.4103 -2.7581 65.7972 0.715301 85.9778C4.1897 106.159 22.9358 138.616 62.0219 133.451Z" fill="#191919"/>
<path fill-rule="evenodd" clip-rule="evenodd" d="M66.4517 124.801L66.8579 121.229L63.3253 121.227L63.3213 127.462L71.1006 127.468L66.4517 124.801Z" fill="#0F2B4A"/>
<path fill-rule="evenodd" clip-rule="evenodd" d="M52.6071 124.339L48.5078 127.455L54.6191 127.458L54.6221 121.222L52.6091 121.221L52.6071 124.339Z" fill="#0F2B4A"/>
<path fill-rule="evenodd" clip-rule="evenodd" d="M68.0725 66.7327L66.7385 56.0093L47.1398 58.875L46.0225 72.0732L47.7577 86.6338L51.9482 121.768L55.4657 121.771L57.3584 74.5803L57.5811 69.0312L62.7536 89.38L62.7345 121.775L66.6994 121.777L68.0454 111.741L70.9641 89.9817L68.0725 66.7327Z" fill="#0D4F80"/>
<path fill-rule="evenodd" clip-rule="evenodd" d="M68.073 66.7324L68.0459 111.74L70.9646 89.9814L68.073 66.7324Z" fill="#0F2B4A"/>
<path fill-rule="evenodd" clip-rule="evenodd" d="M47.7578 86.633L51.9484 121.768L55.4659 121.77L57.3586 74.5795C57.163 71.6905 57.0376 69.9238 57.0376 69.9238C57.0376 69.9238 51.3155 80.0223 47.7578 86.633Z" fill="#083F6B"/>
<path fill-rule="evenodd" clip-rule="evenodd" d="M68.0833 58.1647L70.308 38.4581L81.5687 47.7684L92.1624 36.0857L92.1654 32.5068L81.5737 39.6585L69.5617 24.1437L62.6871 22.5715L58.0252 26.7237L53.4595 22.5654L45.925 23.3657L33.1497 39.6281L23.7105 31.273L22.2471 36.0432L33.1447 47.7391L44.5749 38.4429L47.0172 62.0069" fill="white"/>
<path fill-rule="evenodd" clip-rule="evenodd" d="M70.5361 41.4962L81.1228 47.6531L81.0677 48.2467L70.5552 41.3433L70.5361 41.4962Z" fill="#E9F4F7"/>
<path fill-rule="evenodd" clip-rule="evenodd" d="M81.2012 40.1059L80.9194 40.2964L69.6506 26.0498L58.0469 59.7953L68.0779 58.7884L68.9676 54.0557L68.5122 57.6933C68.45 58.1928 67.9987 58.5473 67.5042 58.4845C67.0478 58.4257 66.7138 58.0327 66.7138 57.5799L66.7208 57.4654L69.125 38.2279L80.9535 45.9964L90.7929 35.1464L90.7939 34.3765" fill="#E8E8E8"/>
<path fill-rule="evenodd" clip-rule="evenodd" d="M16.0468 30.3457L16.9655 32.6269C15.11 32.6259 13.774 32.6249 12.9585 32.6249C12.1411 32.6239 12.5503 33.0564 14.1822 33.9225C17.4118 33.9246 19.787 33.9266 21.3035 33.9276L22.4018 30.3498L16.0468 30.3457ZM101.749 32.6788C100.932 32.6788 99.5962 32.6778 97.7406 32.6768L98.6624 30.3966L92.6012 30.3925L92.5993 33.9704C94.0105 33.9714 96.6514 33.9734 100.522 33.9754C102.156 33.1113 102.564 32.6788 101.749 32.6788Z" fill="#FEDAC6"/>
<path fill-rule="evenodd" clip-rule="evenodd" d="M45.9563 24.6856L35.0186 37.6761L46.0927 28.3404L53.9613 24.2014L52.7236 22.9868L45.9563 24.6856Z" fill="#6EE3FF"/>
<path fill-rule="evenodd" clip-rule="evenodd" d="M46.1829 54.135C45.6875 54.1876 45.3274 54.6364 45.3795 55.1368L45.9432 60.5411C45.9954 61.0415 46.4397 61.4051 46.9352 61.3525C47.4307 61.2998 47.7918 60.851 47.7386 60.3496L47.1749 54.9464C47.1228 54.4459 46.6784 54.0823 46.1829 54.135ZM53.8954 21.5399L53.8974 17.9013C55.4932 19.7105 58.0198 19.8016 60.0027 18.4189L59.4541 17.4697C57.2816 18.9842 55.4802 18.9831 53.9596 17.4971L53.8974 17.4353L53.8984 16.3656L52.2806 12.6976V11.9216L52.5364 12.5649L52.5374 9.65459C53.7109 6.53258 54.8844 5.23393 56.0569 5.75967C57.1512 6.24995 58.6376 6.50725 60.5163 6.53156L60.5614 6.53055L61.2003 8.56766L61.4099 8.85636L61.8803 11.1032C62.102 10.8479 62.3036 10.5896 62.4851 10.3302L62.7209 10.6544L61.3217 13.9243L61.3166 21.5754L57.43 25.059L55.2726 22.9449L53.8954 21.5399ZM92.6013 30.2151L92.3395 30.3924L91.3977 31.0285L81.2945 37.8499L69.6165 23.0847L63.1221 21.2887L63.1271 14.3022L64.789 10.4174L63.4189 8.53524C63.6446 7.88693 63.757 7.22546 63.758 6.55081C63.759 4.16524 64.7198 0.598525 61.8864 0.596499C59.0539 0.595486 56.4471 -0.740638 53.7149 0.591434C51.8944 1.47982 50.6387 3.20189 49.9466 5.75562L50.9677 8.53524L50.4762 9.41249L50.4742 13.0856L52.093 16.7526L52.089 21.2664L45.0148 23.0432L44.9747 23.0533L44.9577 23.0574L32.5886 37.7476L22.7913 29.0765L22.4021 30.3498L21.3039 33.9277L20.7612 35.6963L32.5335 48.3282L43.403 41.3062L44.5484 49.7616L44.5695 49.874C44.6849 50.3117 45.1081 50.6034 45.5635 50.5406C46.059 50.4727 46.404 50.0128 46.3368 49.5144L44.8082 38.2328L32.8213 45.9771L22.7973 35.2202L23.1995 33.9094L23.6489 32.4457L23.694 32.2988L32.3068 39.9225L32.3289 39.9428L32.7762 40.3388L35.0189 37.6757L45.9567 24.6852L52.7229 22.9865L53.9616 24.201L58.084 28.2408C58.2475 28.9712 58.5072 29.8281 58.8623 30.8107L63.107 23.1749L68.5724 24.6862L69.6506 26.0497L80.9183 40.2963L81.2012 40.1059L90.7939 33.6288V34.3764L90.7929 35.1463L80.9534 45.9974L69.125 38.2288L66.7208 57.4653L66.7128 57.5798C66.7128 58.0326 67.0468 58.4267 67.5032 58.4844C67.9987 58.5472 68.45 58.1937 68.5112 57.6933L68.9665 54.0556L70.5363 41.4967L70.5543 41.3427L81.0678 48.2472L81.2503 48.3677L83.3075 46.0997L92.2493 36.2393L92.5983 35.8554L92.5993 33.9702L92.6013 30.3924V30.2151Z" fill="#5C5C5C"/>
<path fill-rule="evenodd" clip-rule="evenodd" d="M61.881 11.1036L61.4106 8.85579L61.201 8.56811L60.562 6.531H60.5169C58.6383 6.50669 57.1518 6.24939 56.0576 5.76012C54.885 5.23438 53.7115 6.53302 52.539 9.65402L52.537 12.5653L52.2812 11.9221V12.698L53.8991 16.366L53.8981 17.4347L53.9613 17.4975C55.4808 18.9826 57.2822 18.9836 59.4547 17.4702L60.0034 18.4194C58.0204 19.8011 55.4939 19.7109 53.8981 17.9007L53.8961 21.5404L54.9452 22.3832C55.1268 22.529 55.2371 22.7316 55.2732 22.9444L57.4307 25.0595L61.3173 21.5758L61.3223 13.9248L62.7215 10.6548L62.4868 10.3297C62.3043 10.59 62.1027 10.8483 61.881 11.1036Z" fill="#FEDAC6"/>
<path fill-rule="evenodd" clip-rule="evenodd" d="M26.8289 76.8838L26.5431 76.0896C26.2813 75.3633 26.1589 74.6907 26.176 74.0728C26.191 73.4548 26.3665 72.7336 26.7005 71.909C27.0085 71.1017 27.173 70.498 27.194 70.0968C27.2161 69.6947 27.1298 69.2256 26.9362 68.6888C26.7597 68.1965 26.509 67.8348 26.182 67.6039C25.856 67.3719 25.4618 67.3415 24.9974 67.5117C24.2261 67.7943 23.52 68.3828 22.8791 69.2773L21.0566 67.378C21.8861 66.1573 22.9834 65.2963 24.3475 64.7959C25.526 64.3633 26.5812 64.3684 27.512 64.8101C28.4428 65.2527 29.1308 66.0895 29.5731 67.3223C29.8841 68.1853 30.0285 68.9602 30.0104 69.647C29.9904 70.3359 29.7617 71.2395 29.3234 72.3588C29.0446 73.0861 28.8921 73.624 28.867 73.9715C28.843 74.3189 28.9232 74.7494 29.1067 75.264L29.3575 75.9559L26.8289 76.8838ZM27.9252 80.7169C27.7035 80.102 27.6945 79.5702 27.8971 79.1215C28.1007 78.6737 28.509 78.3364 29.1218 78.1115C29.7426 77.8836 30.2742 77.8806 30.7136 78.1024C31.1539 78.3243 31.4808 78.7345 31.6965 79.3332C31.9081 79.9248 31.9131 80.4505 31.7115 80.9134C31.5089 81.3743 31.1047 81.7167 30.4989 81.9386C29.8931 82.1604 29.3675 82.1645 28.9212 81.9497C28.4759 81.735 28.1439 81.3237 27.9252 80.7169Z" fill="#0D4F80"/>
<path fill-rule="evenodd" clip-rule="evenodd" d="M80.5179 13.7018L80.5791 13.0079C80.6333 12.3748 80.7928 11.8318 81.0576 11.38C81.3223 10.9272 81.7737 10.4562 82.4116 9.96794C83.0174 9.48272 83.4126 9.09576 83.5931 8.80605C83.7757 8.51532 83.886 8.13647 83.9271 7.66746C83.9653 7.23795 83.882 6.87834 83.6784 6.58762C83.4748 6.29588 83.1277 6.12874 82.6353 6.08518C81.8178 6.01224 80.9362 6.19053 79.9924 6.61801L79.0967 4.54241C80.3474 3.94171 81.6955 3.70568 83.1408 3.83433C84.3895 3.94576 85.3484 4.33576 86.0194 5.00433C86.6894 5.67289 86.9773 6.54507 86.884 7.62086C86.8178 8.37351 86.6383 9.00155 86.3424 9.50399C86.0465 10.0064 85.4718 10.593 84.6212 11.2625C84.0716 11.6991 83.7155 12.0415 83.553 12.2897C83.3895 12.5389 83.2892 12.8874 83.2501 13.3361L83.198 13.9398L80.5179 13.7018ZM79.9171 17.1186C79.9643 16.5817 80.1599 16.1836 80.5029 15.9233C80.8459 15.6629 81.3213 15.5596 81.9282 15.6143C82.543 15.668 82.9944 15.8574 83.2832 16.1806C83.5721 16.5047 83.6934 16.9271 83.6473 17.4498C83.6022 17.9665 83.4056 18.3595 83.0575 18.6289C82.7105 18.8994 82.2361 19.0078 81.6363 18.9551C81.0375 18.9014 80.5891 18.714 80.2923 18.3939C79.9964 18.0728 79.871 17.6484 79.9171 17.1186Z" fill="#EC0000"/>
<path fill-rule="evenodd" clip-rule="evenodd" d="M86.3953 97.0497L86.7293 95.7956C87.0342 94.6479 87.4766 93.6946 88.0553 92.9359C88.634 92.1772 89.5187 91.4347 90.7103 90.7064C91.8497 89.978 92.6149 89.3723 93.0061 88.8891C93.3953 88.4059 93.7042 87.7403 93.9299 86.8915C94.1365 86.1155 94.1265 85.4328 93.8978 84.8462C93.6711 84.2597 93.1696 83.8606 92.3943 83.6499C91.1064 83.3004 89.631 83.3936 87.967 83.9285L87.2399 79.8887C89.4515 79.1178 91.6962 79.0408 93.974 79.6588C95.9419 80.1926 97.3491 81.161 98.1977 82.563C99.0452 83.965 99.2107 85.6404 98.6932 87.5874C98.3301 88.9498 97.8256 90.053 97.1796 90.8958C96.5337 91.7386 95.4123 92.6614 93.8165 93.6632C92.7855 94.3186 92.0974 94.8525 91.7514 95.2648C91.4043 95.6771 91.1235 96.2889 90.9078 97.1013L90.617 98.1943L86.3953 97.0497ZM84.265 103.153C84.5237 102.182 84.9731 101.504 85.614 101.118C86.2529 100.731 87.0513 100.668 88.0072 100.927C88.9751 101.19 89.635 101.656 89.9891 102.324C90.3432 102.994 90.3933 103.801 90.1415 104.747C89.8938 105.681 89.4435 106.35 88.7925 106.753C88.1416 107.156 87.3432 107.229 86.3993 106.973C85.4555 106.717 84.8006 106.256 84.4335 105.59C84.0664 104.924 84.0102 104.112 84.265 103.153Z" fill="white"/>
</svg>
