<svg width="106" height="94" viewBox="0 0 106 94" fill="none" xmlns="http://www.w3.org/2000/svg">
<path fill-rule="evenodd" clip-rule="evenodd" d="M97.8418 0L72.0386 19.9399H59.1622L32.9238 44.0179H18.5788L0.0893555 61.7749L1.34383 63.0754L19.3095 45.8228H33.6284L59.8678 21.7448H72.6578L98.9495 1.42686L97.8418 0Z" fill="#7F7F7F"/>
<path fill-rule="evenodd" clip-rule="evenodd" d="M74.1094 92.569H84.1612V26.3901H74.1094V92.569Z" fill="#262626"/>
<path fill-rule="evenodd" clip-rule="evenodd" d="M43.9536 92.5692H54.0055V47.4473H43.9536V92.5692Z" fill="#262626"/>
<path fill-rule="evenodd" clip-rule="evenodd" d="M14.8032 92.5688H24.8551V65.4956H14.8032V92.5688Z" fill="#262626"/>
<path fill-rule="evenodd" clip-rule="evenodd" d="M72.5881 25.9048V92.1949H62.8197V45.3924H43.2838V92.1949H33.5164V64.8801H13.9806V92.1949H0.000488281V93.9998H106V92.1949H92.1239V25.9048H72.5881ZM74.3964 92.1949H90.3145V27.7097H74.3964V92.1949ZM45.0932 92.1959H61.0103V47.1983H45.0932V92.1959ZM15.789 92.1949H31.7061V66.685H15.789V92.1949Z" fill="#7F7F7F"/>
</svg>
