<svg width="116" height="94" viewBox="0 0 116 94" fill="none" xmlns="http://www.w3.org/2000/svg">
<path fill-rule="evenodd" clip-rule="evenodd" d="M51.6503 92.076C92.2309 98.1679 114.69 89.824 114.688 66.5836C114.684 31.7229 90.2851 36.6715 79.1914 28.151C74.133 24.9599 71.7742 22.9486 68.7063 19.6732C66.7209 17.5562 65.3645 16.2658 59.668 9.22055C50.0007 -2.73778 30.3455 -3.36322 13.3493 9.09769C-2.84134 20.9697 -3.9989 38.365 8.21789 58.8175C20.2003 78.877 38.4616 90.0454 51.6503 92.076Z" fill="#D9D9D9"/>
<path fill-rule="evenodd" clip-rule="evenodd" d="M108.381 42.3525L107.723 42.3169L107.895 41.6793C108.245 40.3858 108.424 39.0405 108.424 37.6698C108.424 29.5809 102.182 23.0352 94.4943 23.0352C89.438 23.0352 84.9822 25.8922 82.5423 30.1911C82.5393 30.1901 82.5372 30.189 82.5342 30.188C82.5078 30.2347 82.4865 30.2865 82.4601 30.3342C82.2552 30.7058 82.0594 31.0856 81.8839 31.4775C81.8677 31.514 81.8514 31.5496 81.8352 31.5861C81.6607 31.9831 81.5075 32.3912 81.3665 32.8065C81.3391 32.8857 81.3107 32.9629 81.2853 33.0431C81.1626 33.4248 81.0611 33.8157 80.9688 34.2107C80.9455 34.3153 80.915 34.4178 80.8927 34.5224C80.7913 35.0118 80.7071 35.5062 80.6533 36.0129L80.5853 36.6464L79.9736 36.4687C79.5962 36.3581 79.2096 36.2748 78.816 36.219C78.4234 36.1631 78.0247 36.1347 77.6209 36.1347C75.668 36.1347 73.8773 36.7987 72.4824 37.9034C72.2825 38.0618 72.0918 38.2283 71.9092 38.4029C71.544 38.7542 71.2132 39.137 70.9231 39.5492C70.779 39.7553 70.6431 39.9685 70.5193 40.1878C70.2707 40.6264 70.0648 41.0904 69.9086 41.5747C69.6722 42.3017 69.5454 43.0743 69.5454 43.8754C69.5454 44.1191 69.5575 44.3618 69.5809 44.6024C69.6042 44.843 69.6387 45.0816 69.6854 45.3172L69.799 45.8969L62.1688 46.6066C62.0471 46.6086 61.9761 46.6097 61.9061 46.6127C60.8043 46.6594 59.807 47.0239 58.9903 47.6239C57.6289 48.625 56.7686 50.282 56.7686 52.2172C56.7686 52.604 56.8061 52.9828 56.8771 53.3473C57.0557 54.261 57.4442 55.0916 57.989 55.784C58.2061 56.0602 58.4496 56.314 58.7124 56.5424C59.2399 56.9983 59.8527 57.3506 60.5202 57.5689C60.854 57.6776 61.202 57.7527 61.5611 57.7913C61.7397 57.8106 61.9213 57.8197 62.1049 57.8197H62.1232H75.8983H107.248V57.8106L107.781 57.8187C107.829 57.8197 107.877 57.8197 107.924 57.8197C108.205 57.8197 108.481 57.8065 108.754 57.7791C108.812 57.774 108.867 57.7618 108.924 57.7547C109.139 57.7293 109.353 57.7019 109.562 57.6613C109.607 57.6522 109.649 57.638 109.694 57.6278C109.912 57.5811 110.13 57.5303 110.341 57.4674C110.37 57.4583 110.399 57.4461 110.428 57.4359C110.653 57.3669 110.875 57.2907 111.089 57.2024C111.096 57.1993 111.103 57.1963 111.109 57.1933C112.073 56.7963 112.939 56.2246 113.666 55.521C113.666 55.521 113.666 55.521 113.666 55.52C115.108 54.1219 116 52.2 116 50.08C116 45.9731 112.65 42.5799 108.381 42.3525Z" fill="#767676"/>
<path fill-rule="evenodd" clip-rule="evenodd" d="M82.5423 30.1913C82.5393 30.1903 82.5372 30.1892 82.5342 30.1882C82.5068 30.2349 82.4865 30.2867 82.4601 30.3344C82.2542 30.706 82.0584 31.0858 81.8839 31.4777C81.8666 31.5142 81.8504 31.5498 81.8352 31.5863C81.6607 31.9833 81.5065 32.3915 81.3655 32.8067C81.3391 32.8859 81.3107 32.9631 81.2853 33.0433C81.1626 33.425 81.0611 33.8159 80.9688 34.2109C80.9445 34.3155 80.915 34.418 80.8927 34.5226C80.7903 35.012 80.7071 35.5064 80.6533 36.0131L80.5853 36.6466L79.9736 36.4689C79.5962 36.3583 79.2086 36.275 78.816 36.2192C78.4234 36.1633 78.0237 36.1349 77.6209 36.1349C75.668 36.1349 73.8773 36.7989 72.4814 37.9036C72.2825 38.062 72.0918 38.2285 71.9092 38.4031C71.544 38.7544 71.2132 39.1382 70.9231 39.5494C70.778 39.7555 70.6431 39.9687 70.5183 40.188C70.2707 40.6266 70.0648 41.0906 69.9075 41.5749C69.6722 42.3019 69.5454 43.0746 69.5454 43.8756C69.5454 44.1193 69.5575 44.362 69.5809 44.6026C69.6042 44.8432 69.6387 45.0818 69.6854 45.3174L69.799 45.8971L62.1678 46.6068C62.0461 46.6089 61.9761 46.6099 61.9061 46.6129C60.8043 46.6596 59.807 47.0241 58.9903 47.6242C57.6278 48.6253 56.7686 50.2822 56.7686 52.2174C56.7686 52.6043 56.8061 52.983 56.8771 53.3475C57.0546 54.2612 57.4442 55.0918 57.989 55.7842C58.2061 56.0604 58.4486 56.3142 58.7124 56.5427C59.2399 56.9985 59.8517 57.3508 60.5202 57.5691C60.854 57.6778 61.202 57.7529 61.5601 57.7915C61.7397 57.8108 61.9213 57.8199 62.1049 57.8199H62.1232H75.8983H107.248V57.8108L107.781 57.8189C107.829 57.8199 107.877 57.8199 107.924 57.8199C108.204 57.8199 108.481 57.8067 108.754 57.7793C108.812 57.7742 108.867 57.762 108.923 57.7549C109.138 57.7296 109.352 57.7021 109.561 57.6615C109.607 57.6524 109.649 57.6382 109.694 57.628C109.912 57.5813 110.129 57.5306 110.34 57.4676C110.37 57.4585 110.399 57.4463 110.428 57.4361C110.653 57.3671 110.874 57.2909 111.089 57.2026C111.096 57.1996 111.102 57.1965 111.109 57.1935C112.073 56.7965 112.939 56.2249 113.666 55.5212C113.666 55.5212 113.666 55.5212 113.666 55.5202C109.426 35.1064 92.936 35.3064 82.5423 30.1913Z" fill="#595959"/>
<path fill-rule="evenodd" clip-rule="evenodd" d="M94.2677 65.9428H94.2373H70.6498H16.9708L16.9697 65.9255L16.0567 65.9407C15.9755 65.9428 15.8933 65.9428 15.8112 65.9428C15.2461 65.9428 14.6942 65.8981 14.1474 65.8331C14.1514 65.8351 14.1545 65.8372 14.1575 65.8392C14.12 65.8351 14.0845 65.825 14.0469 65.8199C13.6259 65.7691 13.212 65.696 12.8052 65.6087C12.7118 65.5884 12.6175 65.5712 12.5251 65.5488C12.0635 65.4402 11.609 65.3143 11.1677 65.163C11.1545 65.1589 11.1413 65.1549 11.1292 65.1498C10.6848 64.9965 10.2526 64.8178 9.83161 64.6229C9.7616 64.5904 9.6916 64.5558 9.6216 64.5223C9.21072 64.3244 8.80695 64.1122 8.42042 63.8776C8.3707 63.8472 8.31795 63.8197 8.26722 63.7883C8.00345 63.6228 7.74982 63.4441 7.49822 63.2613C7.40691 63.1953 7.31358 63.1334 7.2243 63.0654C7.00111 62.8958 6.78907 62.7161 6.57806 62.5354C6.4695 62.441 6.35993 62.3486 6.25443 62.2521C6.06471 62.0785 5.88413 61.8978 5.70557 61.714C5.58992 61.5952 5.47629 61.4774 5.36571 61.3546C5.2044 61.1779 5.05121 60.9952 4.90005 60.8104C4.78541 60.6682 4.6728 60.5251 4.56323 60.3778C4.42931 60.1981 4.29945 60.0154 4.17467 59.8296C4.06409 59.6651 3.96061 59.4976 3.85814 59.329C3.74756 59.1473 3.63901 58.9645 3.53755 58.7767C3.43712 58.5919 3.3448 58.4021 3.25349 58.2112C3.16624 58.0294 3.07798 57.8477 2.99986 57.6609C2.9116 57.4538 2.83551 57.2416 2.75841 57.0283C2.69348 56.8486 2.62449 56.6709 2.56768 56.4872C2.49463 56.2547 2.4368 56.0161 2.37695 55.7775C2.33434 55.6059 2.28564 55.4373 2.25013 55.2637C2.19332 54.9896 2.15578 54.7104 2.11723 54.4312C2.09694 54.286 2.06854 54.1428 2.0523 53.9956C2.00969 53.5661 1.98433 53.1306 1.98433 52.6899C1.98433 49.1729 3.41886 45.9625 5.76644 43.5826C6.05964 43.2851 6.36704 42.9998 6.68864 42.7297C7.65141 41.9175 8.7339 41.2321 9.90871 40.7001C10.2993 40.5224 10.701 40.363 11.1119 40.2209C12.3446 39.7944 13.6594 39.5305 15.03 39.4574L16.1581 39.3965L15.8629 38.306C15.5626 37.1983 15.3364 36.0693 15.1842 34.922C15.033 33.7757 14.9559 32.6121 14.9559 31.4384C14.9559 30.7105 14.9924 29.9926 15.0503 29.2799C15.0564 29.1997 15.0604 29.1174 15.0675 29.0372C15.1284 28.3621 15.2197 27.698 15.3293 27.0401C15.3475 26.9315 15.3658 26.8228 15.3851 26.7142C15.5017 26.0705 15.6427 25.4359 15.8061 24.8105C15.8335 24.7039 15.8629 24.5983 15.8923 24.4917C16.0648 23.8622 16.2565 23.2429 16.4736 22.6347C16.502 22.5545 16.5335 22.4753 16.5639 22.3951C16.7963 21.7635 17.0479 21.1412 17.3268 20.535C17.335 20.5178 17.3441 20.5015 17.3522 20.4843C17.6342 19.8741 17.9427 19.2801 18.2693 18.7004C18.2977 18.6496 18.3241 18.5988 18.3525 18.5481C18.6741 17.9856 19.0201 17.4404 19.3812 16.9083C19.433 16.8322 19.4837 16.755 19.5354 16.6799C19.8956 16.1621 20.274 15.6615 20.6697 15.1752C20.7305 15.1001 20.7924 15.027 20.8533 14.9518C21.2571 14.4675 21.6771 13.9974 22.1154 13.5466C22.1691 13.4908 22.2249 13.437 22.2787 13.3822C22.7383 12.9182 23.212 12.4694 23.7051 12.045C23.7223 12.0308 23.7396 12.0176 23.7568 12.0034C24.2661 11.5668 24.7937 11.1525 25.3364 10.7616C25.3567 10.7464 25.376 10.7312 25.3973 10.716C25.9279 10.3362 26.4757 9.9829 27.0347 9.64886C27.0976 9.61129 27.1585 9.57271 27.2204 9.53718C27.7662 9.21735 28.3262 8.9219 28.8974 8.64675C28.9745 8.6102 29.0506 8.57365 29.1277 8.5371C29.7019 8.26905 30.2873 8.02335 30.8838 7.80201C30.9538 7.77663 31.0248 7.75226 31.0938 7.72789C31.7106 7.50554 32.3376 7.30654 32.9757 7.138C33.0062 7.12988 33.0366 7.12277 33.0671 7.11566C33.7366 6.94204 34.4153 6.79482 35.1062 6.68212C35.1072 6.68111 35.1083 6.68111 35.1093 6.68111H35.1083C36.3145 6.48312 37.5502 6.37956 38.8072 6.37956C50.9672 6.37956 61.1569 15.9935 62.5083 28.6027L62.625 29.687L63.6719 29.3824C64.9665 29.0047 66.3188 28.8108 67.7006 28.8108C75.346 28.8108 81.5274 34.7524 81.5274 42.0637C81.5274 42.9003 81.4473 43.7267 81.289 44.5349L81.0932 45.5279L94.1601 46.7412C94.3681 46.7453 94.4888 46.7473 94.6096 46.7524C99.6365 46.9656 103.405 51.0461 103.405 56.3481C103.405 61.6561 99.3058 65.9428 94.2677 65.9428ZM94.6867 44.9268C94.5386 44.9208 94.3894 44.9177 94.2413 44.9177L83.2399 43.8922C83.316 43.2892 83.3545 42.679 83.3545 42.0637C83.3545 33.727 76.3382 26.9833 67.7006 26.9833C66.5085 26.9833 65.3337 27.1122 64.1924 27.363C62.3064 14.3599 51.5809 4.552 38.8072 4.552C24.6172 4.552 13.1298 16.5987 13.1298 31.4384C13.1298 33.5777 13.3692 35.6845 13.8369 37.7273C6.10225 38.6654 0.158203 45.0263 0.158203 52.6899C0.158203 60.8215 6.83168 67.4363 15.174 67.7581V67.7703H70.6498H94.2342H94.2677C100.332 67.7703 105.232 62.6481 105.232 56.3481C105.232 50.0806 100.706 45.1817 94.6867 44.9268Z" fill="#595959"/>
<path fill-rule="evenodd" clip-rule="evenodd" d="M4.98287 90.0453C2.7418 90.0453 0.924805 88.2269 0.924805 85.9841C0.924805 83.7413 2.7418 81.9229 4.98287 81.9229C7.22393 81.9229 9.04093 83.7413 9.04093 85.9841C9.04093 88.2269 7.22393 90.0453 4.98287 90.0453ZM4.98287 87.9812C6.08463 87.9812 6.9774 87.0877 6.9774 85.9841C6.9774 84.8805 6.08463 83.986 4.98287 83.986C3.88212 83.986 2.98833 84.8805 2.98833 85.9841C2.98833 87.0877 3.88212 87.9812 4.98287 87.9812Z" fill="#767676"/>
<path fill-rule="evenodd" clip-rule="evenodd" d="M94.6103 46.7525C94.4896 46.7474 94.3688 46.7453 94.1609 46.7413L81.0939 45.527L81.2897 44.534C81.448 43.7268 81.5281 42.9004 81.5281 42.0637C81.5281 34.7525 75.3467 28.8109 67.7013 28.8109C66.3195 28.8109 64.9672 29.0048 63.6726 29.3825L62.6257 29.6871L62.509 28.6028C61.1577 15.9936 50.9679 6.37964 38.8089 6.37964C37.5509 6.37964 36.3162 6.4832 35.11 6.68119C26.7676 11.1465 21.0458 20.2468 21.0458 30.7654C21.0458 33.2986 21.3775 35.783 22.0237 38.171L22.3423 39.3478L21.1249 39.4128C13.2441 39.8331 7.05762 46.0976 7.05762 53.6819C7.05762 58.8184 9.89725 63.3142 14.1481 65.8332C14.6949 65.8971 15.2468 65.9428 15.8129 65.9428C15.894 65.9428 15.9762 65.9418 16.0574 65.9408L16.9704 65.9256L16.9715 65.9428H70.6505H94.238H94.2684C99.3065 65.9428 103.406 61.6562 103.406 56.3482C103.406 51.0462 99.6372 46.9657 94.6103 46.7525Z" fill="white"/>
<path fill-rule="evenodd" clip-rule="evenodd" d="M7.05793 53.6817C7.05793 46.0973 13.2444 39.8328 21.1252 39.4125L22.3416 39.3475L22.023 38.1708C21.3778 35.7838 21.0461 33.2983 21.0461 30.7661C21.0461 20.2465 26.7679 11.1462 35.1093 6.68091H35.1103C35.1093 6.68091 35.1073 6.68091 35.1062 6.68192C34.4164 6.79462 33.7376 6.94184 33.0681 7.11546C33.0376 7.12358 33.0072 7.12968 32.9768 7.1378C32.3376 7.30634 31.7117 7.50534 31.0948 7.72769C31.0259 7.75308 30.9548 7.77643 30.8848 7.80181C30.2873 8.02315 29.7029 8.26885 29.1287 8.53791C29.0516 8.57345 28.9755 8.61 28.8984 8.64757C28.3272 8.9217 27.7672 9.21715 27.2214 9.53698C27.1585 9.57353 27.0976 9.61109 27.0358 9.64866C26.4768 9.9827 25.9289 10.337 25.3983 10.7168C25.377 10.731 25.3578 10.7462 25.3375 10.7614C24.7937 11.1523 24.2671 11.5666 23.7568 12.0032C23.7406 12.0174 23.7234 12.0306 23.7061 12.0448C23.2131 12.4692 22.7393 12.918 22.2797 13.382C22.2259 13.4368 22.1701 13.4906 22.1164 13.5464C21.6781 13.9972 21.2581 14.4673 20.8543 14.9516C20.7934 15.0268 20.7316 15.0999 20.6707 15.175C20.275 15.6613 19.8966 16.1619 19.5365 16.6797C19.4847 16.7548 19.434 16.832 19.3823 16.9081C19.0211 17.4412 18.6751 17.9854 18.3535 18.5479C18.3241 18.5986 18.2988 18.6504 18.2704 18.7002C17.9427 19.2809 17.6353 19.8749 17.3522 20.4841C17.3451 20.5013 17.336 20.5176 17.3279 20.5358C17.0489 21.141 16.7973 21.7633 16.565 22.3949C16.5345 22.4751 16.5031 22.5543 16.4747 22.6345C16.2576 23.2427 16.0648 23.862 15.8923 24.4915C15.8639 24.5981 15.8345 24.7037 15.8071 24.8103C15.6438 25.4357 15.5028 26.0703 15.3861 26.714C15.3668 26.8226 15.3485 26.9313 15.3303 27.0399C15.2197 27.6978 15.1294 28.3619 15.0685 29.037C15.0614 29.1172 15.0574 29.1995 15.0513 29.2797C14.9935 29.9924 14.9569 30.7103 14.9569 31.4382C14.9569 32.613 15.034 33.7765 15.1852 34.9218C15.3374 36.0691 15.5636 37.1991 15.8639 38.3058L16.1591 39.3973L15.031 39.4572C13.6604 39.5303 12.3456 39.7943 11.1129 40.2207C10.7021 40.3628 10.3003 40.5232 9.90973 40.6999C8.73492 41.2319 7.65243 41.9183 6.68966 42.7295C6.36806 42.9996 6.06066 43.2849 5.76746 43.5824C3.41988 45.9623 1.98535 49.1727 1.98535 52.6897C1.98535 53.1314 2.0097 53.5659 2.05332 53.9954C2.06956 54.1426 2.09796 54.2858 2.11825 54.431C2.1568 54.7112 2.19434 54.9904 2.25115 55.2645C2.28666 55.4371 2.33536 55.6067 2.37797 55.7773C2.43783 56.0159 2.49565 56.2545 2.5687 56.488C2.62551 56.6707 2.6945 56.8494 2.75943 57.0281C2.83653 57.2414 2.91262 57.4536 2.99987 57.6607C3.079 57.8475 3.16726 58.0292 3.25451 58.211C3.34582 58.4019 3.43814 58.5917 3.53857 58.7775C3.64003 58.9643 3.74858 59.1471 3.85916 59.3288C3.96163 59.4984 4.06511 59.6649 4.17569 59.8294C4.30048 60.0152 4.43033 60.1979 4.56425 60.3777C4.67382 60.5249 4.78643 60.668 4.90107 60.8102C5.05122 60.996 5.20542 61.1777 5.36673 61.3554C5.4763 61.4772 5.59094 61.595 5.70558 61.7138C5.88515 61.8976 6.06573 62.0783 6.25443 62.2519C6.36096 62.3494 6.47052 62.4408 6.57908 62.5352C6.7901 62.7159 7.00213 62.8956 7.22532 63.0652C7.31359 63.1332 7.40794 63.1962 7.49924 63.2621C7.75084 63.4439 8.00447 63.6226 8.26825 63.7881C8.31897 63.8195 8.37071 63.847 8.42144 63.8774C8.80797 64.112 9.21174 64.3242 9.62262 64.5221C9.69262 64.5556 9.76263 64.5902 9.83263 64.6227C10.2537 64.8176 10.6858 64.9963 11.1302 65.1496C11.1424 65.1547 11.1556 65.1587 11.1687 65.1628C11.6101 65.3151 12.0646 65.44 12.5262 65.5486C12.6185 65.571 12.7128 65.5882 12.8062 65.6085C13.213 65.6958 13.6269 65.769 14.0479 65.8207C14.0814 65.8248 14.1149 65.8289 14.1484 65.8329C9.89654 63.3139 7.05793 58.8181 7.05793 53.6817Z" fill="#E5E5E5"/>
<path fill-rule="evenodd" clip-rule="evenodd" d="M62.8095 63.6477H50.1574L52.6643 56.5405H34.403L25.5352 71.3417L40.4901 71.2351V91.0611L62.8095 63.6477Z" fill="white"/>
<path fill-rule="evenodd" clip-rule="evenodd" d="M62.8099 63.6477H50.1579L52.6648 56.5405H34.4035L24.3486 72.087L40.4906 71.2351V91.0611L62.8099 63.6477Z" fill="#767676"/>
<path fill-rule="evenodd" clip-rule="evenodd" d="M83.982 10.9571L82.6946 12.2455L80.3856 9.93466L78.0755 12.2465L76.7871 10.9571L79.0972 8.64521L76.7881 6.33437L78.0755 5.04594L80.3856 7.35678L82.6946 5.04492L83.9831 6.33437L81.673 8.64623L83.982 10.9571Z" fill="#999999"/>
<path fill-rule="evenodd" clip-rule="evenodd" d="M96.1371 79.1707L95.0567 80.252L93.5745 78.7686L92.0912 80.253L91.0098 79.1707L92.493 77.6863L91.0098 76.2029L92.0912 75.1216L93.5734 76.605L95.0567 75.1206L96.1371 76.2029L94.6549 77.6873L96.1371 79.1707Z" fill="#595959"/>
<path fill-rule="evenodd" clip-rule="evenodd" d="M62.8096 63.6477H50.1575L40.4902 91.0611L62.8096 63.6477Z" fill="#595959"/>
</svg>
