<svg width="120" height="124" viewBox="0 0 120 124" fill="none" xmlns="http://www.w3.org/2000/svg">
<path fill-rule="evenodd" clip-rule="evenodd" d="M47.0824 31.783C10.0361 45.086 5.72917 54.5862 1.90219 64.8558C-5.50927 84.7434 9.64834 114.64 31.5701 110.001C52.169 101.241 54.3916 137.933 93.405 117.956C117.848 105.44 125.536 82.4562 116.08 63.8033C106.624 45.1515 84.1287 18.4799 47.0824 31.783Z" fill="#E5E5E5"/>
<path fill-rule="evenodd" clip-rule="evenodd" d="M29.8624 20.4237L28.7952 21.4962L27.3311 20.0248L25.8661 21.4972L24.7979 20.4237L26.2619 18.9522L24.7979 17.4798L25.8661 16.4073L27.3301 17.8787L28.7952 16.4062L29.8634 17.4798L28.3984 18.9522L29.8624 20.4237Z" fill="#6EE3FF"/>
<path fill-rule="evenodd" clip-rule="evenodd" d="M104.466 31.3467C102.528 31.3467 100.959 29.7686 100.959 27.8218C100.959 25.875 102.528 24.2969 104.466 24.2969C106.404 24.2969 107.974 25.875 107.974 27.8218C107.974 29.7686 106.404 31.3467 104.466 31.3467ZM104.466 29.3325C105.296 29.3325 105.969 28.6567 105.969 27.8218C105.969 26.9869 105.296 26.3111 104.466 26.3111C103.637 26.3111 102.963 26.9869 102.963 27.8218C102.963 28.6567 103.637 29.3325 104.466 29.3325Z" fill="#0F2B4A"/>
<path fill-rule="evenodd" clip-rule="evenodd" d="M74.5636 6.34619C74.8372 6.82356 74.6739 7.43489 74.1989 7.70983C73.7229 7.98578 73.1156 7.82364 72.841 7.34626L69.8518 2.14348C69.5772 1.6661 69.7416 1.05579 70.2166 0.77883C70.6936 0.502879 71.3008 0.666032 71.5754 1.14341L74.5636 6.34619ZM83.1646 10.1627C82.6886 10.4386 82.0813 10.2755 81.8077 9.79809C81.5332 9.32173 81.6965 8.7104 82.1725 8.43445L87.3413 5.43525C87.8173 5.1593 88.4245 5.32245 88.6981 5.79882C88.9737 6.2772 88.8103 6.88752 88.3333 7.16347L83.1646 10.1627ZM79.5673 7.06265C79.424 7.59542 78.8788 7.91166 78.3497 7.76865C77.8206 7.62563 77.507 7.07776 77.6493 6.54399L79.2015 0.740962C79.3438 0.208195 79.8889 -0.10804 80.419 0.0339634C80.9481 0.177982 81.2608 0.725855 81.1195 1.25862L79.5673 7.06265Z" fill="#EC0000"/>
<path fill-rule="evenodd" clip-rule="evenodd" d="M97.6615 88.0191L36.7414 104.425C31.9043 105.727 28.6946 105.253 26.6454 103.453C25.2003 102.185 24.5249 100.673 23.7764 97.8637L10.8514 49.387C10.7713 49.0879 10.7171 48.7948 10.6741 48.5047C10.664 48.4272 10.654 48.3517 10.645 48.2751C10.6159 48.0213 10.5989 47.7696 10.5979 47.5228C10.5979 47.4855 10.5947 47.4493 10.5947 47.413C10.5989 47.1361 10.625 46.8642 10.664 46.5963C10.6731 46.5278 10.6871 46.4593 10.6991 46.3918C10.7402 46.1682 10.7923 45.9487 10.8574 45.7332C10.8775 45.6637 10.8925 45.5942 10.9166 45.5257L10.9236 45.5025C10.9336 45.4743 10.9476 45.4471 10.9576 45.4199C10.9947 45.711 11.0528 46.0031 11.137 46.2921C11.6461 48.2036 13.0891 49.2188 15.0091 49.4988L15.3017 49.536C16.2697 49.6408 17.1486 49.5562 17.7638 49.4222L85.7556 31.1128C88.4001 31.6466 90.5276 33.6346 91.228 36.2642L102.687 79.2411C103.705 83.0641 101.456 86.9919 97.6615 88.0191Z" fill="white"/>
<path fill-rule="evenodd" clip-rule="evenodd" d="M97.6615 88.0191L36.7414 104.425C31.9043 105.727 28.6946 105.253 26.6454 103.453C25.2003 102.185 24.5249 100.673 23.7764 97.8637L10.8514 49.387C10.7713 49.0879 10.7171 48.7948 10.6741 48.5047C10.664 48.4272 10.654 48.3517 10.645 48.2751C10.6159 48.0213 10.5989 47.7696 10.5979 47.5228C10.5979 47.4855 10.5947 47.4493 10.5947 47.413C10.5989 47.1361 10.625 46.8642 10.664 46.5963C10.6731 46.5278 10.6871 46.4593 10.6991 46.3918C10.7402 46.1682 10.7923 45.9487 10.8574 45.7332C10.8775 45.6637 10.8925 45.5942 10.9166 45.5257L10.9236 45.5025C10.9336 45.4743 10.9476 45.4471 10.9576 45.4199C10.9947 45.711 11.0528 46.0031 11.137 46.2921C11.6461 48.2036 13.0891 49.2188 15.0091 49.4988L15.3017 49.536C16.2697 49.6408 17.1486 49.5562 17.7638 49.4222L85.7556 31.1128C88.4001 31.6466 90.5276 33.6346 91.228 36.2642L102.687 79.2411C103.705 83.0641 101.456 86.9919 97.6615 88.0191Z" fill="white"/>
<path fill-rule="evenodd" clip-rule="evenodd" d="M95.7771 64.5955C95.4343 65.1938 94.8712 65.6299 94.2088 65.8081L91.2907 66.5937C90.6283 66.7729 89.9228 66.6773 89.3286 66.3318C89.034 66.1586 88.7785 65.931 88.575 65.6631C88.1391 65.655 87.7082 65.5483 87.3244 65.3247C86.7322 64.9782 86.3003 64.4082 86.1239 63.7405L85.3413 60.8037C85.1609 60.138 85.2521 59.427 85.5938 58.8288C85.9355 58.2315 86.4997 57.7945 87.1611 57.6162L90.0792 56.8306C90.7416 56.6524 91.448 56.7471 92.0403 57.0935C92.3359 57.2657 92.5914 57.4943 92.7948 57.7622C93.2307 57.7703 93.6616 57.876 94.0444 58.1006C94.6377 58.4471 95.0706 59.0161 95.2459 59.6838L96.0286 62.6206C96.209 63.2863 96.1178 63.9973 95.7771 64.5955ZM91.2286 36.2642C90.5281 33.6336 88.4007 31.6466 85.7562 31.1118L69.6896 35.4384L52.2393 100.251L97.662 88.0191C101.457 86.9919 103.706 83.0641 102.687 79.2411L91.2286 36.2642Z" fill="#E9F4F7"/>
<path fill-rule="evenodd" clip-rule="evenodd" d="M37.6384 104.011C33.9347 105.008 30.1277 102.8 29.1346 99.0773L17.4182 55.1306C16.854 53.0136 17.324 50.8644 18.5125 49.2208L17.7639 49.4222C17.1496 49.5562 16.2708 49.6408 15.3018 49.536L15.0092 49.4998C14.2887 49.394 13.6373 49.1855 13.0751 48.8653C12.3256 48.4383 11.7384 47.8118 11.3716 46.9669C11.2794 46.7554 11.2012 46.5308 11.1381 46.2921C11.0539 46.003 10.9948 45.711 10.9577 45.4199C10.9477 45.4481 10.9347 45.4743 10.9247 45.5025L10.9166 45.5257C10.8936 45.5942 10.8786 45.6636 10.8575 45.7331C10.7924 45.9487 10.7403 46.1682 10.6992 46.3918C10.6872 46.4593 10.6741 46.5278 10.6641 46.5962C10.625 46.8641 10.6 47.1361 10.5958 47.413C10.595 47.4493 10.599 47.4865 10.599 47.5228C10.6 47.7695 10.616 48.0213 10.6451 48.2751C10.6541 48.3516 10.6641 48.4282 10.6751 48.5047C10.7182 48.7948 10.7713 49.0879 10.8525 49.387L23.7765 97.8637C24.525 100.674 25.2014 102.185 26.6455 103.453C28.6947 105.253 31.9044 105.727 36.7415 104.425L37.6985 104.167L37.6384 104.011Z" fill="#C6EDF6"/>
<path fill-rule="evenodd" clip-rule="evenodd" d="M95.2451 59.6843C95.0698 59.0166 94.6379 58.4465 94.0446 58.1011C93.6608 57.8765 93.2299 57.7708 92.795 57.7627C93.0005 58.0316 93.1528 58.3418 93.241 58.6772L94.0236 61.6139C94.204 62.2796 94.1128 62.9907 93.7721 63.5889C93.4293 64.1871 92.8662 64.6232 92.2038 64.8015L89.2867 65.587C89.0512 65.6505 88.8127 65.6666 88.5742 65.6636C88.7776 65.9314 89.0332 66.1591 89.3288 66.3323C89.922 66.6777 90.6285 66.7734 91.2909 66.5941L94.208 65.8086C94.8704 65.6303 95.4335 65.1942 95.7762 64.596C96.117 63.9978 96.2081 63.2867 96.0278 62.621L95.2451 59.6843Z" fill="#6EE3FF"/>
<path fill-rule="evenodd" clip-rule="evenodd" d="M92.2033 64.8013C92.8657 64.6231 93.4298 64.187 93.7716 63.5887C94.1123 62.9905 94.2035 62.2795 94.0231 61.6138L93.2404 58.677C93.1523 58.3416 92.9999 58.0315 92.7945 57.7626C92.5911 57.4947 92.3356 57.266 92.0399 57.0938C91.4467 56.7464 90.7402 56.6527 90.0789 56.831L87.1608 57.6165C86.4994 57.7948 85.9342 58.2319 85.5925 58.8291C85.2518 59.4273 85.1606 60.1384 85.34 60.8041L86.1236 63.7408C86.299 64.4085 86.7309 64.9786 87.3241 65.325C87.7079 65.5486 88.1378 65.6554 88.5737 65.6624C88.8122 65.6664 89.0507 65.6503 89.2862 65.5869L92.2033 64.8013Z" fill="#0F2B4A"/>
<path fill-rule="evenodd" clip-rule="evenodd" d="M97.6617 88.0191L36.7416 104.425C31.9045 105.727 28.6948 105.253 26.6456 103.453C25.2005 102.185 24.5251 100.673 23.7766 97.8637L10.8516 49.3869C10.7715 49.0878 10.7173 48.7948 10.6743 48.5047C10.6642 48.4272 10.6542 48.3516 10.6452 48.2751C10.6161 48.0213 10.5991 47.7695 10.5981 47.5228C10.5981 47.4855 10.5949 47.4492 10.5949 47.413C10.5991 47.136 10.6252 46.8641 10.6642 46.5962C10.6733 46.5277 10.6873 46.4592 10.6993 46.3918C10.7404 46.1682 10.7925 45.9486 10.8576 45.7331C10.8777 45.6636 10.8927 45.5941 10.9168 45.5256L10.9238 45.5025C10.9338 45.4743 10.9478 45.4471 10.9578 45.4199C10.9949 45.711 11.053 46.003 11.1372 46.2921C11.2014 46.5308 11.2795 46.7553 11.3717 46.9668C11.7385 47.8118 12.3257 48.4382 13.0753 48.8653C13.6364 49.1855 14.2888 49.394 15.0093 49.4987L15.3019 49.536C16.2699 49.6407 17.1488 49.5561 17.764 49.4222L18.5126 49.2208L69.6893 35.4393L85.7558 31.1127C88.4003 31.6465 90.5278 33.6346 91.2282 36.2642L102.687 79.241C103.705 83.064 101.457 86.9918 97.6617 88.0191ZM104.429 78.7717L92.9709 35.7959C92.1241 32.6174 89.6209 30.1771 86.4723 29.4057L83.5673 18.5046C82.2886 13.7117 77.3924 10.8656 72.6305 12.1477L72.4832 12.201L15.2718 38.9089L15.2648 38.9119H15.2638C10.8466 41.0218 8.50273 44.2758 8.81237 48.1562C8.85646 48.7102 8.95567 49.2772 9.10899 49.8553L22.0329 98.333C22.8707 101.473 23.6603 103.24 25.4581 104.819C28.0074 107.058 31.8354 107.623 37.2086 106.175L98.1296 89.7704C102.888 88.4823 105.705 83.5605 104.429 78.7717Z" fill="#0F2B4A"/>
<path fill-rule="evenodd" clip-rule="evenodd" d="M54.5947 37.6279L84.6404 29.5367L81.8245 18.974C81.7614 18.7384 81.6872 18.5077 81.603 18.2841C81.576 18.2096 81.5399 18.1391 81.5089 18.0666C81.4487 17.9206 81.3896 17.7725 81.3205 17.6325C81.2794 17.5489 81.2303 17.4714 81.1862 17.3898C81.119 17.2659 81.0539 17.1401 80.9807 17.0212C80.9266 16.9356 80.8675 16.857 80.8104 16.7745C80.7372 16.6667 80.6661 16.5559 80.5869 16.4532C80.5248 16.3716 80.4557 16.2961 80.3895 16.2175C80.3083 16.1219 80.2302 16.0211 80.144 15.9295C80.0749 15.854 79.9987 15.7855 79.9235 15.713C79.8354 15.6263 79.7502 15.5357 79.657 15.4541C79.5798 15.3856 79.4957 15.3232 79.4155 15.2577C79.3213 15.1802 79.2281 15.1006 79.1289 15.0291C79.0447 14.9677 78.9555 14.9123 78.8683 14.8549C78.7671 14.7874 78.6689 14.7179 78.5657 14.6565C78.4755 14.6031 78.3813 14.5568 78.2891 14.5074C78.1829 14.45 78.0787 14.3906 77.9685 14.3382C77.8733 14.2939 77.7751 14.2557 77.6779 14.2154C77.5676 14.169 77.4574 14.1197 77.3452 14.0794C77.245 14.0432 77.1427 14.014 77.0405 13.9827C76.9263 13.9465 76.8131 13.9092 76.6978 13.879C76.5926 13.8528 76.4874 13.8337 76.3812 13.8115C76.2649 13.7863 76.1487 13.7602 76.0304 13.741C75.9232 13.7249 75.814 13.7158 75.7047 13.7038C75.5865 13.6907 75.4673 13.6756 75.348 13.6685C75.2388 13.6625 75.1275 13.6645 75.0183 13.6625C74.8971 13.6615 74.7758 13.6584 74.6536 13.6635C74.5423 13.6675 74.4311 13.6806 74.3199 13.6897C74.1976 13.7007 74.0753 13.7098 73.9531 13.7269C73.8409 13.743 73.7286 13.7672 73.6154 13.7884C73.4741 13.8155 73.3318 13.8397 73.1905 13.876L73.1665 13.882L59.2735 20.3669L54.5947 37.6279Z" fill="#0D4F80"/>
</svg>
