<svg width="118" height="134" viewBox="0 0 118 134" fill="none" xmlns="http://www.w3.org/2000/svg">
<path fill-rule="evenodd" clip-rule="evenodd" d="M62.0518 133.446C99.8974 128.422 107.278 119.659 113.109 110.181C124.402 91.8261 115.495 60.7937 93.0213 60.6144C71.016 64.8678 75.0588 24.7947 32.701 36.2585C6.16141 43.4404 -2.76568 65.8312 0.72051 86.0106C4.2057 106.19 22.9705 138.634 62.0518 133.446Z" fill="#262626"/>
<path fill-rule="evenodd" clip-rule="evenodd" d="M66.4758 124.793L66.879 121.22H63.3477V127.457H71.1254L66.4758 124.793Z" fill="#404040"/>
<path fill-rule="evenodd" clip-rule="evenodd" d="M52.6321 124.339L48.5352 127.457H54.645V121.221H52.6321V124.339Z" fill="#404040"/>
<path fill-rule="evenodd" clip-rule="evenodd" d="M68.061 66.7233L66.7211 56.001L47.1248 58.8788L46.0166 72.0779L47.7607 86.6363L51.971 121.768H55.4893L57.3527 74.5769L57.5724 69.0278L62.7575 89.3744V121.768H66.7211L68.061 111.732L70.9655 89.971L68.061 66.7233Z" fill="#4C4C4C"/>
<path fill-rule="evenodd" clip-rule="evenodd" d="M68.0615 66.7236V111.732L70.966 89.9713L68.0615 66.7236Z" fill="#404040"/>
<path fill-rule="evenodd" clip-rule="evenodd" d="M47.7607 86.6364L51.9711 121.769H55.4883L57.3528 74.577C57.1562 71.689 57.0288 69.9224 57.0288 69.9224C57.0288 69.9224 51.3141 80.0237 47.7607 86.6364Z" fill="#404040"/>
<path fill-rule="evenodd" clip-rule="evenodd" d="M68.0677 58.1567L70.2802 38.4483L81.5461 47.7514L92.1321 36.0628V32.4849L81.5461 39.6416L69.525 24.135L62.6509 22.5659L57.9913 26.7221L53.4229 22.5659L45.8909 23.3712L33.1256 39.6416L23.681 31.2917L22.2207 36.0628L33.1256 47.7514L44.549 38.4483L47.0051 62.01" fill="white"/>
<path fill-rule="evenodd" clip-rule="evenodd" d="M70.5098 41.4865L81.0997 47.6372L81.0446 48.2308L70.5288 41.3335L70.5098 41.4865Z" fill="#E9F4F7"/>
<path fill-rule="evenodd" clip-rule="evenodd" d="M81.1729 40.0894L80.8911 40.2799L69.6151 26.0405L58.0322 59.7928L68.0616 58.7798L68.9481 54.0472L68.4948 57.6848C68.4336 58.1842 67.9823 58.5387 67.4869 58.4759C67.0305 58.4181 66.6966 58.0251 66.6966 57.5723L66.7036 57.4579L69.0966 38.2195L80.9282 45.9799L90.7619 35.1238V34.354L81.1729 40.0894ZM16.0176 30.3688L16.9383 32.65H12.9306C12.1142 32.65 12.5225 33.0825 14.1562 33.9476H21.276L22.3722 30.3688H16.0176ZM101.714 32.65H97.7067L98.6274 30.3688H92.5667V33.9476H100.49C102.123 33.0825 102.531 32.65 101.714 32.65Z" fill="#E5E5E5"/>
<path fill-rule="evenodd" clip-rule="evenodd" d="M45.9221 24.6911L34.9932 37.6875L46.0595 28.3459L53.9255 24.2018L52.6859 22.9883L45.9221 24.6911Z" fill="#E5E5E5"/>
<path fill-rule="evenodd" clip-rule="evenodd" d="M46.1668 54.14C45.6703 54.1927 45.3113 54.6414 45.3634 55.1419L45.9311 60.5461C45.9822 61.0465 46.4275 61.4091 46.923 61.3564C47.4184 61.3027 47.7775 60.854 47.7263 60.3536L47.1587 54.9504C47.1065 54.45 46.6622 54.0863 46.1668 54.14Z" fill="#4C4C4C"/>
<path fill-rule="evenodd" clip-rule="evenodd" d="M53.8581 21.5402L53.8591 17.9016C55.4558 19.7097 57.9812 19.7989 59.964 18.4162L59.4144 17.467C57.243 18.9824 55.4418 18.9824 53.9203 17.4974L53.8591 17.4356V16.3659L52.2384 12.7V11.923L52.4942 12.5673V9.65599C53.6666 6.53401 54.839 5.23436 56.0104 5.75908C57.1056 6.24835 58.592 6.50463 60.4695 6.52793H60.5146L61.1555 8.564L61.3651 8.8527L61.8365 11.0995C62.0581 10.8432 62.2597 10.5859 62.4422 10.3256L62.6769 10.6497L61.2798 13.9206V21.5716L57.3955 25.0572L55.2362 22.9442L53.8581 21.5402ZM92.5673 30.193L92.3055 30.3692L91.3638 31.0064L81.2653 37.8328L69.5791 23.0758L63.0851 21.2839L63.0861 14.2974L64.745 10.4107L63.374 8.53057C63.5986 7.88227 63.7109 7.2208 63.7109 6.54616C63.7109 4.16061 64.6697 0.592926 61.8365 0.592926C59.0042 0.592926 56.3966 -0.741158 53.6666 0.592926C51.8453 1.48232 50.5906 3.20437 49.9016 5.75908L50.9236 8.53868L50.4331 9.4149V13.0879L52.0539 16.7549L52.0529 21.2677L44.9782 23.0495L44.9391 23.0596L44.923 23.0637L32.5639 37.7609L22.7622 29.0959L22.3721 30.3692L21.2769 33.9481L20.7363 35.7167L32.5148 48.3414L43.3785 41.3134L44.5279 49.7677L44.5509 49.8801C44.6673 50.3177 45.0895 50.6094 45.5458 50.5466C46.0393 50.4777 46.3853 50.0179 46.3161 49.5195L44.7826 38.239L32.8016 45.9903L22.7713 35.2396L23.1724 33.9288L23.6208 32.4651L23.6659 32.3182L32.2821 39.9368L32.3051 39.957L32.7525 40.3521L34.993 37.687L45.923 24.6905L52.6867 22.9877L53.9263 24.2013L58.0514 28.2379C58.2149 28.9693 58.4746 29.8263 58.8307 30.8089L63.0711 23.17L68.537 24.6784L69.6152 26.0408L80.8912 40.2802L81.173 40.0897L90.762 33.6067V34.3543V35.1241L80.9283 45.9802L69.0967 38.2198L66.7047 57.4581L66.6977 57.5726C66.6977 58.0254 67.0317 58.4184 67.488 58.4762C67.9824 58.539 68.4337 58.1844 68.4959 57.685L68.9483 54.0475L70.5108 41.4866L70.5289 41.3336L81.0446 48.231L81.2281 48.3515L83.2842 46.0825L92.2193 36.2161L92.5673 35.8322V33.9481V30.3692V30.193Z" fill="#4C4C4C"/>
<path fill-rule="evenodd" clip-rule="evenodd" d="M61.8363 11.0996L61.365 8.85281L61.1553 8.56512L60.5145 6.52804H60.4693C58.5919 6.50474 57.1055 6.24846 56.0103 5.75919C54.8379 5.23447 53.6665 6.53411 52.494 9.65609V12.5674L52.2383 11.9231V12.7001L53.859 16.366V17.4357L53.9202 17.4975C55.4416 18.9825 57.2429 18.9825 59.4143 17.4671L59.9639 18.4163C57.9811 19.799 55.4557 19.7098 53.859 17.9017L53.858 21.5403L54.9081 22.3841C55.0886 22.5289 55.2009 22.7305 55.236 22.9443L57.3954 25.0573L61.2797 21.5717V13.9207L62.6768 10.6498L62.4421 10.3257C62.2596 10.586 62.058 10.8443 61.8363 11.0996Z" fill="#E5E5E5"/>
<path fill-rule="evenodd" clip-rule="evenodd" d="M26.8257 76.9006L26.5399 76.1064C26.2781 75.3811 26.1548 74.7085 26.1708 74.0906C26.1858 73.4717 26.3614 72.7505 26.6943 71.9259C27.0022 71.1186 27.1667 70.5148 27.1868 70.1127C27.2088 69.7115 27.1226 69.2415 26.929 68.7057C26.7515 68.2133 26.5008 67.8517 26.1748 67.6208C25.8479 67.3898 25.4537 67.3594 24.9893 67.5296C24.2181 67.8132 23.512 68.4018 22.8732 69.2972L21.0488 67.3989C21.8772 66.1773 22.9745 65.3152 24.3384 64.8148C25.5159 64.3813 26.571 64.3853 27.5027 64.827C28.4334 65.2686 29.1204 66.1054 29.5647 67.3381C29.8756 68.2002 30.0221 68.9751 30.003 69.6629C29.9829 70.3507 29.7553 71.2543 29.318 72.3746C29.0392 73.102 28.8877 73.6398 28.8627 73.9873C28.8386 74.3347 28.9188 74.7653 29.1034 75.2788L29.3541 75.9717L26.8257 76.9006ZM27.9249 80.7327C27.7033 80.1188 27.6932 79.587 27.8958 79.1383C28.0994 78.6895 28.5066 78.3522 29.1204 78.1263C29.7402 77.8984 30.2718 77.8953 30.7111 78.1172C31.1504 78.338 31.4793 78.7483 31.6939 79.3479C31.9066 79.9385 31.9126 80.4652 31.711 80.9272C31.5084 81.3891 31.1052 81.7315 30.4984 81.9533C29.8937 82.1762 29.3671 82.1802 28.9218 81.9655C28.4765 81.7507 28.1426 81.3394 27.9249 80.7327Z" fill="#4C4C4C"/>
<path fill-rule="evenodd" clip-rule="evenodd" d="M80.475 13.6861L80.5352 12.9922C80.5893 12.3581 80.7488 11.8151 81.0136 11.3633C81.2783 10.9105 81.7287 10.4395 82.3655 9.95022C82.9723 9.46501 83.3664 9.07805 83.547 8.78834C83.7285 8.49762 83.8398 8.11877 83.881 7.64976C83.9181 7.22026 83.8348 6.86066 83.6302 6.56993C83.4266 6.27921 83.0796 6.11207 82.5872 6.06851C81.7698 5.99659 80.8892 6.17386 79.9445 6.60336L79.0488 4.52778C80.2985 3.92709 81.6454 3.69005 83.0906 3.81769C84.3403 3.9281 85.3001 4.31708 85.9701 4.98565C86.641 5.65319 86.9299 6.52536 86.8366 7.60114C86.7714 8.35378 86.5919 8.98182 86.296 9.48527C86.0012 9.9877 85.4265 10.5742 84.576 11.2438C84.0274 11.6814 83.6723 12.0238 83.5089 12.272C83.3464 12.5211 83.2461 12.8696 83.207 13.3184L83.1548 13.9221L80.475 13.6861ZM79.8763 17.1028C79.9224 16.5659 80.118 16.1678 80.461 15.9075C80.804 15.6472 81.2794 15.5428 81.8861 15.5975C82.5009 15.6512 82.9522 15.8396 83.2411 16.1638C83.5299 16.4869 83.6523 16.9093 83.6062 17.432C83.562 17.9486 83.3654 18.3417 83.0174 18.6121C82.6694 18.8826 82.196 18.991 81.5963 18.9383C80.9975 18.8846 80.5492 18.6982 80.2524 18.3781C79.9555 18.057 79.8301 17.6326 79.8763 17.1028Z" fill="#A6A6A6"/>
<path fill-rule="evenodd" clip-rule="evenodd" d="M86.4015 97.0297L86.7345 95.7746C87.0394 94.628 87.4797 93.6737 88.0584 92.915C88.6371 92.1553 89.5217 91.4128 90.7121 90.6834C91.8515 89.9551 92.6157 89.3483 93.0058 88.8652C93.397 88.381 93.7039 87.7154 93.9295 86.8666C94.1351 86.0906 94.1241 85.4079 93.8974 84.8214C93.6688 84.2349 93.1673 83.8368 92.393 83.6271C91.1043 83.2776 89.629 83.3718 87.9661 83.9077L87.235 79.8679C89.4464 79.096 91.691 79.0181 93.9687 79.635C95.9374 80.1678 97.3455 81.1342 98.194 82.5361C99.0425 83.9381 99.209 85.6125 98.6925 87.5604C98.3314 88.9229 97.8279 90.025 97.182 90.8688C96.5352 91.7126 95.4149 92.6364 93.8192 93.6383C92.7892 94.2947 92.1022 94.8295 91.7562 95.2408C91.4092 95.6541 91.1293 96.2659 90.9137 97.0783L90.6229 98.1723L86.4015 97.0297ZM84.2753 103.134C84.5331 102.163 84.9814 101.485 85.6223 101.098C86.2611 100.711 87.0595 100.647 88.0152 100.906C88.9831 101.168 89.644 101.633 89.998 102.302C90.3511 102.971 90.4032 103.778 90.1525 104.725C89.9048 105.659 89.4555 106.328 88.8046 106.731C88.1537 107.135 87.3553 107.208 86.4116 106.953C85.4668 106.698 84.8119 106.237 84.4448 105.571C84.0777 104.905 84.0206 104.093 84.2753 103.134Z" fill="#BFBFBF"/>
</svg>
