<svg width="136" height="102" viewBox="0 0 136 102" fill="none" xmlns="http://www.w3.org/2000/svg">
<path fill-rule="evenodd" clip-rule="evenodd" d="M73.1734 95.1428C109.794 90.2992 116.94 81.8936 122.588 72.8038C133.528 55.1993 124.932 25.457 103.187 25.3009C81.8963 29.3942 85.8345 -9.02481 44.8453 1.99464C19.1622 8.8988 10.5091 30.3715 13.8681 49.7126C17.227 69.0546 35.3587 100.144 73.1734 95.1428Z" fill="#E5E5E5"/>
<path fill-rule="evenodd" clip-rule="evenodd" d="M114.317 13.9072C103.883 13.9072 95.4253 22.3889 95.4253 32.8501C95.4253 43.3114 103.883 51.7921 114.317 51.7921C124.745 51.7801 133.197 43.3054 133.208 32.8501C133.208 22.3889 124.75 13.9072 114.317 13.9072Z" fill="white"/>
<path fill-rule="evenodd" clip-rule="evenodd" d="M109.574 31.0405C109.964 34.1785 112.383 36.6753 115.499 37.1554C115.111 37.2275 114.714 37.2635 114.318 37.2625C117.303 37.3435 119.864 35.1438 120.243 32.1729L121.014 25.9559C121.264 24.4035 120.81 22.82 119.778 21.6356C118.396 20.0701 116.41 19.1738 114.325 19.1738C114.321 19.1738 114.317 19.1748 114.313 19.1748L109.196 28.0416L109.574 31.0405Z" fill="#FEDAC6"/>
<path fill-rule="evenodd" clip-rule="evenodd" d="M108.398 32.1547C108.762 35.1336 111.327 37.3453 114.317 37.2613H114.318C114.715 37.2623 115.111 37.2273 115.501 37.1552C112.384 36.6751 109.964 34.1773 109.575 31.0403L109.198 28.0414L108.124 29.904L107.627 25.9377C107.475 24.9794 107.591 24.0101 107.945 23.1309C107.586 24.0121 107.465 24.9814 107.618 25.9377L108.398 32.1547Z" fill="#F6C7B4"/>
<path fill-rule="evenodd" clip-rule="evenodd" d="M107.627 25.9383L108.123 29.9036L109.197 28.042L114.314 19.1742L114.324 19.1582C112.239 19.1612 110.256 20.0565 108.871 21.618C108.685 21.832 108.522 22.0631 108.374 22.3012C108.326 22.3772 108.276 22.4522 108.232 22.5303C108.206 22.5783 108.182 22.6273 108.156 22.6763C108.091 22.8063 108.025 22.9374 107.97 23.0714C107.961 23.0904 107.954 23.1104 107.945 23.1304C107.592 24.0107 107.475 24.98 107.627 25.9383Z" fill="#FEE5D7"/>
<path fill-rule="evenodd" clip-rule="evenodd" d="M107.93 50.9267C107.562 50.7987 107.197 50.6627 106.838 50.5127C107.198 50.6627 107.563 50.7987 107.93 50.9267Z" fill="#EC0000"/>
<path fill-rule="evenodd" clip-rule="evenodd" d="M129.252 44.8409C128.225 41.977 125.307 40.1954 121.63 40.1954C119.545 40.1954 117.105 41.0267 115.431 41.7279C115.257 41.7989 115.077 41.8509 114.895 41.8879C114.881 41.8909 114.866 41.8929 114.852 41.8949C114.702 41.9239 114.548 41.936 114.396 41.942C114.301 41.946 114.206 41.94 114.111 41.934C114.058 41.931 114.003 41.9269 113.949 41.9209C113.692 41.8899 113.435 41.8279 113.189 41.7279C111.485 41.0267 109.027 40.1914 106.99 40.1914C103.57 40.1914 100.537 42.034 99.4295 44.7828L99.3458 44.9649C99.3458 44.9659 99.3468 44.9659 99.3478 44.9659L99.4295 44.7868C100.537 42.039 103.57 40.1954 106.99 40.1954C108.889 40.1954 111.148 40.9236 112.83 41.5898C112.784 41.5738 112.736 41.5638 112.689 41.5478C111.024 40.8966 108.834 40.2094 106.985 40.2094C103.566 40.2094 100.532 42.052 99.4255 44.8008L99.3418 44.9829C99.7875 45.5191 100.269 46.0202 100.767 46.5034C100.793 46.5294 100.819 46.5564 100.848 46.5824C101.069 46.7945 101.293 47.0005 101.523 47.2006C101.604 47.2706 101.686 47.3396 101.767 47.4077C101.973 47.5817 102.178 47.7548 102.392 47.9188C102.531 48.0279 102.677 48.1309 102.819 48.2369C103.066 48.416 103.314 48.592 103.568 48.7611C103.807 48.9201 104.049 49.0772 104.296 49.2252C104.415 49.2973 104.535 49.3633 104.655 49.4323C104.905 49.5753 105.158 49.7154 105.416 49.8474C105.521 49.9024 105.628 49.9555 105.734 50.0085C106.047 50.1615 106.364 50.3086 106.685 50.4456C106.737 50.4676 106.787 50.4916 106.839 50.5126C107.197 50.6627 107.562 50.7987 107.93 50.9268C107.971 50.9418 108.011 50.9588 108.052 50.9728L108.055 50.9688C110.05 51.651 112.162 52.0171 114.318 52.0171C120.108 52.0171 125.596 49.4323 129.292 44.9649L129.252 44.8409Z" fill="#0F2B4A"/>
<path fill-rule="evenodd" clip-rule="evenodd" d="M115.125 42.4212C115.843 42.7142 116.647 42.7142 117.366 42.4212C119.045 41.7239 117.104 41.0307 115.427 41.7329C115.254 41.803 115.076 41.851 114.896 41.888C114.881 41.891 114.866 41.893 114.853 41.896C114.702 41.924 114.548 41.936 114.396 41.942C114.301 41.946 114.206 41.94 114.111 41.935C114.057 41.932 114.003 41.927 113.949 41.921C113.888 41.914 113.826 41.917 113.766 41.906C114.252 42.07 114.709 42.2431 115.125 42.4212ZM99.3408 44.9835C99.7875 45.5196 100.269 46.0208 100.767 46.5039C100.793 46.5299 100.82 46.5569 100.848 46.583C101.068 46.795 101.294 47.0011 101.523 47.2011C101.604 47.2712 101.686 47.3392 101.767 47.4082C101.972 47.5823 102.178 47.7553 102.391 47.9194C102.531 48.0284 102.677 48.1314 102.819 48.2365C103.066 48.4165 103.314 48.5926 103.568 48.7616C103.807 48.9207 104.05 49.0777 104.296 49.2258C104.415 49.2968 104.535 49.3638 104.655 49.4328C104.906 49.5759 105.159 49.7159 105.417 49.848C105.521 49.902 105.628 49.956 105.734 50.008C106.047 50.1621 106.364 50.3091 106.685 50.4462C106.737 50.4682 106.788 50.4922 106.839 50.5132C107.197 50.6632 107.562 50.7993 107.93 50.9273C107.971 50.9423 108.011 50.9593 108.052 50.9733L108.055 50.9693L113.34 41.7995L113.185 41.7464C113.028 41.6814 112.858 41.6144 112.689 41.5484C111.024 40.8972 108.833 40.21 106.985 40.21C103.566 40.21 100.532 42.0525 99.4256 44.8014" fill="#0D4F80"/>
<path fill-rule="evenodd" clip-rule="evenodd" d="M114.47 52.4911C103.512 52.4911 94.6294 43.5843 94.6294 32.5959C94.6294 21.6084 103.512 12.7017 114.469 12.7017C125.426 12.7017 134.31 21.6084 134.31 32.5969C134.298 43.5793 125.422 52.4781 114.47 52.4911ZM132.516 32.5959C132.516 22.6038 124.436 14.5022 114.469 14.5022C104.503 14.5022 96.423 22.6038 96.423 32.5959C96.423 42.589 104.503 50.6905 114.469 50.6905C124.431 50.6785 132.504 42.584 132.516 32.5959Z" fill="#0F2B4A"/>
<mask id="mask0" mask-type="alpha" maskUnits="userSpaceOnUse" x="117" y="68" width="19" height="20">
<path d="M117.464 68.833H136V87.4188H117.464V68.833Z" fill="white"/>
</mask>
<g mask="url(#mask0)">
<path fill-rule="evenodd" clip-rule="evenodd" d="M126.732 68.833C121.622 68.833 117.465 73.0013 117.465 78.1259C117.465 83.2495 121.622 87.4188 126.732 87.4188C131.837 87.4128 135.994 83.2445 136 78.1259C136 73.0013 131.843 68.833 126.732 68.833Z" fill="#E9F4F7"/>
</g>
<path fill-rule="evenodd" clip-rule="evenodd" d="M124.469 77.2614C124.654 78.7599 125.81 79.9513 127.298 80.1804C127.111 80.2154 126.923 80.2324 126.733 80.2314C128.158 80.2704 129.381 79.2201 129.561 77.8026L129.93 74.8347C130.049 74.0935 129.833 73.3372 129.339 72.772C128.68 72.0248 127.731 71.5967 126.735 71.5967H126.731L124.288 75.83L124.469 77.2614Z" fill="#FEDAC6"/>
<path fill-rule="evenodd" clip-rule="evenodd" d="M123.907 77.7937C124.082 79.2151 125.305 80.2715 126.734 80.2315C126.923 80.2325 127.113 80.2145 127.298 80.1804C125.811 79.9514 124.655 78.759 124.47 77.2615L124.289 75.8301L123.776 76.7184L123.539 74.8258C123.468 74.3676 123.522 73.9055 123.691 73.4854C123.519 73.9065 123.463 74.3696 123.535 74.8258L123.907 77.7937Z" fill="#F6C7B4"/>
<path fill-rule="evenodd" clip-rule="evenodd" d="M123.539 74.8259L123.775 76.7195L124.288 75.8302L126.731 71.5969L126.735 71.5889C125.741 71.5909 124.794 72.018 124.133 72.7632C124.043 72.8663 123.966 72.9763 123.895 73.0893C123.873 73.1263 123.849 73.1614 123.828 73.1994C123.815 73.2214 123.804 73.2454 123.792 73.2684C123.76 73.3304 123.728 73.3934 123.702 73.4574C123.698 73.4665 123.694 73.4765 123.69 73.4855C123.522 73.9056 123.467 74.3677 123.539 74.8259Z" fill="#FEE5D7"/>
<path fill-rule="evenodd" clip-rule="evenodd" d="M133.862 83.8495C133.373 82.4821 131.978 81.6328 130.224 81.6328C129.229 81.6328 128.064 82.0289 127.264 82.364C127.182 82.397 127.097 82.4221 127.012 82.4391C127.011 82.4391 127.01 82.4401 127.009 82.4401C127.002 82.4411 126.995 82.4421 126.988 82.4431C126.916 82.4571 126.843 82.4631 126.77 82.4661C126.725 82.4681 126.68 82.4651 126.635 82.4621C126.609 82.4611 126.582 82.4591 126.557 82.4561C126.434 82.4411 126.312 82.4121 126.195 82.364C126.141 82.342 126.076 82.319 126.021 82.297C125.999 82.29 125.977 82.285 125.955 82.278C125.16 81.9669 124.115 81.6388 123.233 81.6388C121.6 81.6388 120.152 82.5181 119.624 83.8305L119.586 83.9115L119.584 83.9175C119.796 84.1736 120.026 84.4127 120.263 84.6427C120.277 84.6558 120.29 84.6688 120.302 84.6818C120.408 84.7828 120.515 84.8808 120.626 84.9759C120.664 85.0099 120.703 85.0419 120.742 85.0749C120.839 85.1579 120.937 85.2409 121.04 85.319C121.106 85.371 121.175 85.42 121.244 85.471C121.362 85.557 121.48 85.6411 121.601 85.7211C121.716 85.7971 121.831 85.8721 121.949 85.9432C122.005 85.9762 122.063 86.0092 122.12 86.0412C122.24 86.1102 122.361 86.1772 122.483 86.2402C122.534 86.2663 122.584 86.2913 122.635 86.3163C122.785 86.3903 122.936 86.4593 123.088 86.5253C123.114 86.5363 123.137 86.5473 123.163 86.5573C123.334 86.6284 123.507 86.6934 123.684 86.7554C123.704 86.7624 123.722 86.7704 123.743 86.7774L123.744 86.7754C124.696 87.1005 125.704 87.2756 126.735 87.2756C129.497 87.2756 132.117 86.0412 133.882 83.9095L133.862 83.8495Z" fill="#083F6B"/>
<path fill-rule="evenodd" clip-rule="evenodd" d="M127.262 82.3658C127.18 82.3998 127.094 82.4228 127.008 82.4398C127.001 82.4418 126.994 82.4428 126.988 82.4438C126.916 82.4578 126.843 82.4628 126.77 82.4658C126.724 82.4678 126.679 82.4648 126.634 82.4628C126.608 82.4608 126.582 82.4588 126.557 82.4558C126.528 82.4528 126.498 82.4538 126.469 82.4488C126.701 82.5268 126.919 82.6099 127.117 82.6949C127.461 82.8339 127.845 82.8339 128.188 82.6949C128.988 82.3618 128.063 82.0317 127.262 82.3658ZM125.955 82.2779C125.16 81.9668 124.114 81.6387 123.233 81.6387C121.6 81.6387 120.152 82.5189 119.623 83.8304L119.585 83.9114L119.583 83.9174C119.795 84.1735 120.026 84.4125 120.263 84.6436C120.277 84.6556 120.289 84.6686 120.302 84.6816C120.408 84.7827 120.515 84.8807 120.625 84.9767C120.663 85.0097 120.702 85.0427 120.742 85.0747C120.839 85.1578 120.937 85.2408 121.039 85.3198C121.106 85.3718 121.175 85.4209 121.243 85.4709C121.362 85.5569 121.48 85.6409 121.601 85.7209C121.716 85.797 121.83 85.872 121.948 85.943C122.005 85.977 122.063 86.009 122.119 86.042C122.239 86.1101 122.361 86.1771 122.483 86.2401C122.533 86.2661 122.584 86.2921 122.635 86.3171C122.784 86.3902 122.936 86.4602 123.089 86.5252C123.113 86.5362 123.137 86.5472 123.162 86.5572C123.334 86.6292 123.507 86.6943 123.684 86.7553C123.703 86.7623 123.722 86.7703 123.742 86.7773L123.743 86.7753L126.266 82.3979L126.192 82.3719C126.116 82.3409 126.036 82.3099 125.955 82.2779Z" fill="#0D4F80"/>
<path fill-rule="evenodd" clip-rule="evenodd" d="M51.2244 66.3731V16.4625C51.2244 13.3165 53.7648 10.7667 56.8984 10.7667H77.2943H87.743C90.8736 10.7667 93.412 13.3105 93.417 16.4524V89.0742C93.3961 90.5546 92.7839 91.9641 91.7151 92.9864C90.6483 94.0077 89.2166 94.5569 87.743 94.5099H56.8984C55.4248 94.5569 53.9931 94.0077 52.9263 92.9864C51.8595 91.9641 51.2453 90.5546 51.2244 89.0742V66.3731ZM47.9941 41.9984V89.2382C47.9931 91.5399 48.9233 93.7436 50.5753 95.3481C52.2264 96.9516 54.4567 97.8189 56.7847 97.7489L87.8846 97.7499C90.1847 97.8189 92.415 96.9516 94.0671 95.3481C95.7181 93.7436 96.6493 91.5399 96.6483 89.2382L96.6274 16.3194C96.6214 11.4729 92.7012 7.54066 87.8567 7.52466H63.2922C62.8276 7.52466 62.4587 7.16654 62.4129 6.7124H57.6641C57.6182 7.16654 57.2503 7.52466 56.7857 7.52466C51.9323 7.53066 47.9991 11.4649 47.9941 16.3184V32.0083C47.9941 32.5055 47.5913 32.9076 47.0958 32.9076C47.0788 32.9076 47.0629 32.8986 47.0449 32.8976V34.9172C47.0629 34.9162 47.0788 34.9072 47.0958 34.9072C47.5913 34.9072 47.9941 35.3103 47.9941 35.8075V38.2563C47.9941 38.7534 47.5913 39.1566 47.0958 39.1566C47.0788 39.1566 47.0629 39.1465 47.0449 39.1455V41.1082C47.0629 41.1072 47.0788 41.0982 47.0958 41.0982C47.5913 41.0982 47.9941 41.5013 47.9941 41.9984Z" fill="white"/>
<path fill-rule="evenodd" clip-rule="evenodd" d="M56.8981 94.5098H87.7427C89.2163 94.5568 90.648 94.0086 91.7148 92.9863C92.7826 91.964 93.3948 90.5546 93.4167 89.0741V16.4524C93.4117 13.3104 90.8724 10.7666 87.7427 10.7666H77.294C64.5492 38.3822 55.8622 56.911 51.2241 66.373V89.0741C51.2451 90.5546 51.8582 91.964 52.926 92.9863C53.9928 94.0086 55.4235 94.5568 56.8981 94.5098Z" fill="#E9F4F7"/>
<path fill-rule="evenodd" clip-rule="evenodd" d="M56.8981 10.7666C53.7635 10.7666 51.2241 13.3164 51.2241 16.4624V66.373C55.8622 56.911 64.5492 38.3822 77.294 10.7666H56.8981Z" fill="#F9F9F9"/>
<path fill-rule="evenodd" clip-rule="evenodd" d="M98.4209 16.3183C98.4139 10.4785 93.6931 5.74301 87.8585 5.72501H63.2911C62.7956 5.72501 62.3938 6.12713 62.3938 6.62529C62.3938 6.6563 62.4088 6.68231 62.4118 6.71232C62.4576 7.16646 62.8265 7.52457 63.2911 7.52457H87.8555C92.7 7.54058 96.6203 11.4728 96.6263 16.3193L96.6472 89.2381C96.6482 91.5398 95.717 93.7435 94.0659 95.348C92.4149 96.9515 90.1836 97.8188 87.8835 97.7498L56.7836 97.7488C54.4556 97.8188 52.2253 96.9515 50.5742 95.348C48.9232 93.7435 47.992 91.5398 47.993 89.2381V41.9983C47.993 41.5012 47.5912 41.0981 47.0957 41.0981C47.0777 41.0981 47.0618 41.1071 47.0438 41.1081C46.5732 41.1371 46.1983 41.5192 46.1983 41.9983V89.2371C46.1973 92.027 47.325 94.6978 49.326 96.6414C51.325 98.584 54.0259 99.6334 56.8115 99.5493H87.8555C90.6143 99.6334 93.3152 98.584 95.3152 96.6414C97.3152 94.6978 98.4428 92.027 98.4418 89.2371L98.4209 16.3183ZM47.9929 32.0078V16.3189C47.9979 11.4654 51.9311 7.53017 56.7845 7.52517C57.2491 7.52417 57.617 7.16606 57.6629 6.71292C57.6669 6.68191 57.6818 6.6549 57.6818 6.62389C57.6808 6.12673 57.2781 5.72461 56.7825 5.72461C50.94 5.73061 46.2042 10.4691 46.1982 16.3179V32.0078C46.1982 32.487 46.5731 32.8691 47.0437 32.8981C47.0617 32.8991 47.0776 32.9081 47.0956 32.9081C47.5911 32.9081 47.9929 32.505 47.9929 32.0078Z" fill="#0F2B4A"/>
<path fill-rule="evenodd" clip-rule="evenodd" d="M47.9929 38.2558V35.807C47.9929 35.3099 47.5911 34.9067 47.0956 34.9067C47.0776 34.9067 47.0617 34.9167 47.0437 34.9177C46.5731 34.9458 46.1982 35.3289 46.1982 35.807V38.2558C46.1982 38.7349 46.5731 39.1171 47.0437 39.1461C47.0617 39.1471 47.0776 39.1561 47.0956 39.1561C47.5911 39.1561 47.9929 38.7529 47.9929 38.2558Z" fill="#0F2B4A"/>
<path fill-rule="evenodd" clip-rule="evenodd" d="M70.0256 16.9311H78.0017C78.4972 16.9311 78.899 16.5281 78.899 16.0311C78.899 15.5341 78.4972 15.1311 78.0017 15.1311H70.0256C69.5301 15.1311 69.1293 15.5341 69.1293 16.0311C69.1293 16.5281 69.5301 16.9311 70.0256 16.9311ZM66.0375 17.0312C66.5889 17.0312 67.0346 16.5832 67.0346 16.0312C67.0346 15.4792 66.5889 15.0312 66.0375 15.0312C65.4872 15.0312 65.0405 15.4792 65.0405 16.0312C65.0405 16.5832 65.4872 17.0312 66.0375 17.0312Z" fill="#EC0000"/>
<path fill-rule="evenodd" clip-rule="evenodd" d="M34.6949 29.9587L33.5743 31.084L32.1954 29.7006L30.8116 31.089L29.6909 29.9647L31.0748 28.5763L29.6959 27.1928L30.8175 26.0685L32.1964 27.4519L33.5803 26.0635L34.7009 27.1868L33.3161 28.5753L34.6949 29.9587Z" fill="#0D4F80"/>
<path fill-rule="evenodd" clip-rule="evenodd" d="M111.885 68.7L111.073 69.5153L110.07 68.5099L109.066 69.5163L108.251 68.699L109.254 67.6927L108.251 66.6864L109.066 65.8701L110.068 66.8764L111.072 65.8701L111.886 66.6874L110.882 67.6937L111.885 68.7Z" fill="#6EE3FF"/>
<path fill-rule="evenodd" clip-rule="evenodd" d="M30.309 43.0176C14.5602 43.0176 1.79346 55.8176 1.79346 71.6085C1.79346 87.3985 14.5602 100.199 30.308 100.199C46.0489 100.181 58.8057 87.3905 58.8236 71.6085C58.8236 55.8176 46.0569 43.0176 30.309 43.0176Z" fill="white"/>
<path fill-rule="evenodd" clip-rule="evenodd" d="M23.1523 68.8774C23.7406 73.6129 27.3926 77.3821 32.0965 78.1073C31.5083 78.2154 30.9101 78.2694 30.3119 78.2674C34.8184 78.3904 38.6838 75.0694 39.2551 70.586L40.4186 61.203C40.7955 58.8593 40.1115 56.4686 38.5532 54.681C36.4664 52.3183 33.4704 50.9648 30.3218 50.9648C30.3159 50.9648 30.3099 50.9658 30.3039 50.9658L22.582 64.35L23.1523 68.8774Z" fill="#FEDAC6"/>
<path fill-rule="evenodd" clip-rule="evenodd" d="M21.3738 70.5597C21.9241 75.0561 25.7945 78.3942 30.31 78.2681H30.311C30.9092 78.2691 31.5074 78.2151 32.0956 78.1071C27.3917 77.3819 23.7397 73.6127 23.1514 68.8772L22.5811 64.3498L20.96 67.1617L20.2112 61.1758C19.9819 59.7293 20.1584 58.2659 20.6918 56.9385C20.1484 58.2689 19.966 59.7324 20.1973 61.1758L21.3738 70.5597Z" fill="#F6C7B4"/>
<path fill-rule="evenodd" clip-rule="evenodd" d="M20.2121 61.1761L20.9608 67.162L22.582 64.3501L30.3039 50.9659L30.3188 50.9419C27.1732 50.9469 24.1792 52.2983 22.0905 54.6541C21.8073 54.9782 21.563 55.3273 21.3387 55.6864C21.2679 55.8004 21.1912 55.9135 21.1264 56.0315C21.0855 56.1045 21.0496 56.1785 21.0117 56.2526C20.91 56.4486 20.8133 56.6457 20.7285 56.8487C20.7166 56.8788 20.7046 56.9078 20.6927 56.9388C20.1592 58.2662 19.9828 59.7296 20.2121 61.1761Z" fill="#FEE5D7"/>
<path fill-rule="evenodd" clip-rule="evenodd" d="M20.6695 98.8936C20.1142 98.7006 19.5638 98.4946 19.0225 98.2686C19.5648 98.4956 20.1152 98.6996 20.6695 98.8936Z" fill="#EC0000"/>
<path fill-rule="evenodd" clip-rule="evenodd" d="M19.2424 82.7163C22.033 82.7163 25.3381 83.7536 27.8506 84.7379C27.9214 84.7599 27.9942 84.7769 28.0659 84.8009C25.5256 83.7956 22.1168 82.6963 19.2494 82.6963C14.0888 82.6963 9.50953 85.4782 7.83854 89.6265L7.71391 89.8975L7.71191 89.9015C7.71291 89.9025 7.71291 89.9025 7.71391 89.9035L7.83255 89.6465C9.50255 85.4982 14.0818 82.7163 19.2424 82.7163Z" fill="#990000"/>
<path fill-rule="evenodd" clip-rule="evenodd" d="M52.8518 89.7076C51.3015 85.3843 46.8957 82.6965 41.3483 82.6965C38.1997 82.6965 34.5158 83.9498 31.9893 85.0092C31.7281 85.1162 31.4569 85.1952 31.1827 85.2503C31.1608 85.2553 31.1389 85.2583 31.1169 85.2623C30.8906 85.3053 30.6583 85.3233 30.428 85.3323C30.2844 85.3383 30.1419 85.3293 29.9983 85.3203C29.9165 85.3163 29.8358 85.3103 29.754 85.3003C29.3632 85.2533 28.9783 85.1602 28.6075 85.0092C26.0342 83.9498 22.3243 82.6895 19.2495 82.6895C14.089 82.6895 9.50967 85.4713 7.83868 89.6206L7.71206 89.8947C7.71206 89.8957 7.71305 89.8967 7.71405 89.8977L7.83868 89.6266C9.50967 85.4783 14.089 82.6965 19.2495 82.6965C22.1169 82.6965 25.5257 83.7958 28.0661 84.8011C27.9943 84.7771 27.9215 84.7611 27.8507 84.7381C25.3383 83.7538 22.0332 82.7165 19.2425 82.7165C14.082 82.7165 9.50269 85.4983 7.8327 89.6466L7.71405 89.9037L7.70508 89.9217C8.37906 90.731 9.10389 91.4882 9.85564 92.2164C9.89651 92.2564 9.93739 92.2975 9.97827 92.3365C10.3123 92.6566 10.6522 92.9677 10.9982 93.2708C11.1198 93.3758 11.2425 93.4788 11.3651 93.5829C11.6762 93.8439 11.9872 94.105 12.3073 94.3541C12.5197 94.5191 12.739 94.6742 12.9553 94.8332C13.3262 95.1053 13.7011 95.3704 14.085 95.6245C14.4469 95.8646 14.8108 96.1026 15.1837 96.3257C15.3621 96.4337 15.5446 96.5348 15.726 96.6378C16.1049 96.8549 16.4858 97.0649 16.8736 97.265C17.0331 97.347 17.1927 97.4281 17.3542 97.5071C17.8258 97.7392 18.3043 97.9602 18.7889 98.1673C18.8666 98.2003 18.9434 98.2363 19.0212 98.2693C19.5626 98.4944 20.1139 98.7005 20.6692 98.8945C20.7311 98.9155 20.7909 98.9425 20.8527 98.9635L20.8567 98.9575C23.8697 99.9869 27.0571 100.54 30.3124 100.54C39.0492 100.54 47.3334 96.6388 52.9127 89.8947L52.8518 89.7076Z" fill="#EC0000"/>
<path fill-rule="evenodd" clip-rule="evenodd" d="M31.9829 85.0153C31.7236 85.1224 31.4554 85.1944 31.1822 85.2494C31.1613 85.2544 31.1384 85.2574 31.1174 85.2614C30.8901 85.3054 30.6588 85.3224 30.4275 85.3324C30.2849 85.3384 30.1414 85.3284 29.9988 85.3204C29.917 85.3154 29.8363 85.3094 29.7545 85.3004C29.6618 85.2894 29.5681 85.2934 29.4764 85.2764C30.2122 85.5245 30.9001 85.7866 31.5292 86.0547C32.613 86.4968 33.8273 86.4968 34.9121 86.0547C37.4455 85.0023 34.5163 83.956 31.9829 85.0153ZM27.8507 84.7375C25.3383 83.7541 22.0332 82.7158 19.2425 82.7158C14.082 82.7158 9.50369 85.4977 7.8327 89.647L7.71405 89.9041L7.70508 89.9221C8.37906 90.7313 9.10389 91.4886 9.85564 92.2168C9.89651 92.2568 9.93739 92.2968 9.97827 92.3368C10.3123 92.6559 10.6522 92.967 10.9992 93.2701C11.1198 93.3752 11.2425 93.4782 11.3651 93.5822C11.6762 93.8443 11.9872 94.1054 12.3073 94.3535C12.5197 94.5185 12.739 94.6736 12.9563 94.8326C13.3272 95.1047 13.7021 95.3698 14.085 95.6239C14.4479 95.8649 14.8108 96.102 15.1837 96.3251C15.3631 96.4331 15.5446 96.5341 15.7261 96.6372C16.1049 96.8542 16.4868 97.0653 16.8736 97.2644C17.0331 97.3464 17.1937 97.4284 17.3542 97.5074C17.8258 97.7395 18.3043 97.9606 18.7889 98.1667C18.8666 98.1997 18.9434 98.2367 19.0222 98.2687C19.5626 98.4938 20.1139 98.6998 20.6692 98.8939C20.7311 98.9149 20.7909 98.9429 20.8527 98.9639L20.8567 98.9569L28.8348 85.1156L28.6005 85.0355C28.3632 84.9375 28.107 84.8375 27.8507 84.7375Z" fill="#990000"/>
<path fill-rule="evenodd" clip-rule="evenodd" d="M30.3082 100.199C14.5604 100.199 1.79363 87.3982 1.79363 71.6083C1.79363 55.8174 14.5604 43.0174 30.3092 43.0174C46.057 43.0174 58.8238 55.8174 58.8238 71.6083C58.8058 87.3902 46.0491 100.181 30.3082 100.199ZM30.3092 41.2168C13.5693 41.2168 0 54.8231 0 71.6083C0 88.3936 13.5693 102 30.3102 102C47.0401 101.981 60.5995 88.3855 60.6174 71.6093C60.6174 54.8231 47.0481 41.2168 30.3092 41.2168Z" fill="#0F2B4A"/>
<path fill-rule="evenodd" clip-rule="evenodd" d="M62.4984 69.7325C62.4984 53.1593 49.1075 39.7231 32.588 39.7231C26.2809 39.7231 20.4334 41.6868 15.6099 45.0308C19.9638 42.604 24.9738 41.2166 30.3098 41.2166C47.0487 41.2166 60.618 54.8239 60.618 71.6091C60.6101 79.1395 57.8673 86.0246 53.3408 91.3323C58.9839 85.8746 62.4984 78.2172 62.4984 69.7325Z" fill="#C6EDF7"/>
</svg>
