<svg width="108" height="114" viewBox="0 0 108 114" fill="none" xmlns="http://www.w3.org/2000/svg">
<path fill-rule="evenodd" clip-rule="evenodd" d="M57.8777 113.368C93.2887 108.155 98.7262 100.367 103.863 91.7941C113.809 75.1934 105.191 45.4086 84.7745 45.5737C64.8581 49.7018 68.9618 16.1551 30.6791 27.0345C6.69444 33.8507 -4.01498 53.1965 1.36093 71.7788C6.73786 90.361 22.4678 118.581 57.8777 113.368Z" fill="#D9D9D9"/>
<path fill-rule="evenodd" clip-rule="evenodd" d="M46.6566 -0.000488281C46.1022 -0.000488281 45.6549 0.442852 45.6549 0.991272V6.96085C45.6549 7.50827 46.1022 7.95261 46.6566 7.95261C47.2099 7.95261 47.6582 7.50827 47.6582 6.96085V0.991272C47.6582 0.442852 47.2099 -0.000488281 46.6566 -0.000488281ZM40.0617 12.5575H34.0476C33.4943 12.5575 33.0449 13.0009 33.0449 13.5483C33.0449 14.0967 33.4943 14.5401 34.0476 14.5401H40.0617C40.616 14.5401 41.0634 14.0967 41.0634 13.5483C41.0634 13.0009 40.616 12.5575 40.0617 12.5575ZM37.697 3.52081C37.3043 3.13352 36.6711 3.13251 36.2814 3.52081C35.8906 3.90811 35.8916 4.53659 36.2834 4.92389L41.6472 10.0758C42.04 10.4631 42.6731 10.4631 43.0629 10.0758C43.4536 9.68854 43.4526 9.06006 43.0608 8.67176L37.697 3.52081Z" fill="#767676"/>
<path fill-rule="evenodd" clip-rule="evenodd" d="M91.4412 22.0819L90.3658 23.1487L88.8905 21.6856L87.4143 23.1487L86.3379 22.0819L87.8142 20.6198L86.3379 19.1577L87.4143 18.0908L88.8905 19.553L90.3658 18.0898L91.4422 19.1567L89.9659 20.6198L91.4412 22.0819Z" fill="#999999"/>
<path fill-rule="evenodd" clip-rule="evenodd" d="M17.8837 67.8354C15.9309 67.8354 14.3496 66.2672 14.3496 64.3328C14.3496 62.3983 15.9309 60.8301 17.8837 60.8301C19.8366 60.8301 21.4179 62.3983 21.4179 64.3328C21.4179 66.2672 19.8366 67.8354 17.8837 67.8354ZM17.8837 65.8339C18.7198 65.8339 19.3984 65.1624 19.3984 64.3328C19.3984 63.5031 18.7198 62.8316 17.8837 62.8316C17.0477 62.8316 16.3691 63.5031 16.3691 64.3328C16.3691 65.1624 17.0477 65.8339 17.8837 65.8339Z" fill="#595959"/>
<path fill-rule="evenodd" clip-rule="evenodd" d="M91.4412 70.119L90.3658 71.1848L88.8905 69.7227L87.4143 71.1858L86.3379 70.119L87.8142 68.6559L86.3379 67.1938L87.4143 66.127L88.8905 67.5901L90.3658 66.127L91.4422 67.1938L89.9659 68.6569L91.4412 70.119Z" fill="white"/>
<path fill-rule="evenodd" clip-rule="evenodd" d="M68.1446 89.6507C68.0568 89.6146 67.9831 89.5576 67.9124 89.4975C67.8962 89.4845 67.877 89.4795 67.8639 89.4655C67.7003 89.3094 67.5994 89.0922 67.5903 88.8521H62.8333C62.8333 88.8531 62.8323 88.8541 62.8313 88.8561C62.8222 89.0952 62.7233 89.3104 62.5597 89.4655C62.5456 89.4795 62.5264 89.4855 62.5102 89.4985C62.4395 89.5586 62.3658 89.6146 62.278 89.6507C62.1719 89.6947 62.0548 89.7207 61.9306 89.7207H21.376V93.8559H85.1922V89.7207H68.493C68.3698 89.7207 68.2506 89.6947 68.1446 89.6507Z" fill="white"/>
<path fill-rule="evenodd" clip-rule="evenodd" d="M21.375 96.9253H85.1913V93.855H21.375V96.9253Z" fill="#767676"/>
<path fill-rule="evenodd" clip-rule="evenodd" d="M63.2174 56.5806H40.7747L38.627 65.9518H65.452L63.2174 56.5806Z" fill="#767676"/>
<path fill-rule="evenodd" clip-rule="evenodd" d="M61.2339 48.2671L53.9213 17.5996H49.7046L42.6787 48.2671H61.2339Z" fill="#767676"/>
<path fill-rule="evenodd" clip-rule="evenodd" d="M67.5901 88.8514C67.5901 88.8404 67.583 88.8304 67.583 88.8193C67.583 88.322 67.9899 87.9187 68.4928 87.9187H70.689L67.4335 74.2632H36.723L33.5938 87.9187H61.9304C62.4333 87.9187 62.8392 88.322 62.8392 88.8193C62.8392 88.8304 62.8331 88.8404 62.8331 88.8514H67.5901Z" fill="#767676"/>
<path fill-rule="evenodd" clip-rule="evenodd" d="M70.3261 72.4417L68.8398 65.9517L67.7583 61.2301L66.6931 56.5805L64.7897 48.2671L57.7658 17.5996H53.9217L61.2343 48.2671H42.6791L40.7748 56.5805H63.2175L65.4521 65.9517H38.627L36.7236 74.2631H67.4342L70.6897 87.9185H73.8714L70.3261 72.4417Z" fill="white"/>
<path fill-rule="evenodd" clip-rule="evenodd" d="M85.1914 93.8552V96.9256H21.3752V93.8552V89.7201H61.9298C62.054 89.7201 62.1711 89.695 62.2782 89.65C62.365 89.614 62.4397 89.5589 62.5094 89.4979C62.5256 89.4859 62.5447 89.4789 62.5589 89.4649C62.7194 89.3097 62.8214 89.0936 62.8305 88.8554C62.8315 88.8534 62.8325 88.8524 62.8325 88.8514C62.8325 88.8404 62.8386 88.8304 62.8386 88.8194C62.8386 88.322 62.4327 87.9187 61.9298 87.9187H33.5932L36.7224 74.2632L38.6268 65.9518L40.7745 56.5806L42.6779 48.2673L49.7037 17.5997H53.9205H57.7646L64.7884 48.2673L66.6928 56.5806L67.7571 61.2302L68.8395 65.9518L70.3249 72.4418L73.8701 87.9187H70.6894H68.4922C67.9903 87.9187 67.5834 88.322 67.5834 88.8194C67.5834 88.8304 67.5895 88.8404 67.5895 88.8514C67.5986 89.0916 67.7015 89.3087 67.8631 89.4649C67.8772 89.4789 67.8954 89.4849 67.9116 89.4979C67.9812 89.5579 68.057 89.614 68.1438 89.65C68.2509 89.695 68.369 89.7201 68.4922 89.7201H85.1914V93.8552ZM75.7341 87.9187L59.2156 15.7974H48.2527L31.7302 87.9187H19.5576V98.727H87.009V87.9187H75.7341Z" fill="#595959"/>
</svg>
