<svg width="118" height="96" viewBox="0 0 118 96" fill="none" xmlns="http://www.w3.org/2000/svg">
<path fill-rule="evenodd" clip-rule="evenodd" d="M55.7553 95.1225C95.9622 99.1381 116.684 89.3787 117.921 65.8442C119.775 30.5419 88.5266 34.3555 79.4266 25.0511C70.3246 15.7477 80.5203 28.9697 62.9933 9.68981C51.3077 -3.1631 35.738 -3.22912 16.2832 9.49278C0.589891 22.0957 -1.10787 38.6231 11.19 59.0752C23.4878 79.5282 38.3429 91.544 55.7553 95.1225Z" fill="#191919"/>
<path fill-rule="evenodd" clip-rule="evenodd" d="M78.7698 10.4829H54.4721H37.4165C35.2089 10.4869 33.1585 11.139 31.4303 12.2482C28.5162 14.2355 26.5985 17.569 26.5924 21.3515V36.6478C26.5924 37.0269 26.3543 37.3469 26.0188 37.4799C25.9843 37.5099 25.9448 37.5309 25.9062 37.5549V41.1495C26.3684 41.1935 26.7343 41.5655 26.7343 42.0326V43.8709C26.7343 44.339 26.3684 44.711 25.9062 44.754V50.4259C26.2975 50.5269 26.5924 50.8629 26.5924 51.281V52.4622C26.5914 53.3103 26.5914 54.4065 26.5894 55.9127V56.2677C26.5884 56.6948 26.5884 57.2029 26.5874 57.925C26.5864 58.4501 26.5854 59.0842 26.5843 59.8993C26.5823 61.5305 26.5813 62.8627 26.5793 64.2369C26.5752 67.9535 26.5722 71.517 26.5691 75.0955L61.5328 75.0965C62.3072 75.1005 62.9315 75.7306 62.9265 76.5007V78.362C62.9143 82.5467 65.7422 86.2102 69.8067 87.2774C70.726 87.5144 71.692 87.5144 72.6113 87.2774C73.5468 87.0343 74.4124 86.6483 75.199 86.1552C77.667 84.4869 79.2351 81.6825 79.2411 78.5831V26.2573V17.2839C79.2452 14.5325 80.5416 12.0691 82.5728 10.4829H78.7698Z" fill="white"/>
<path fill-rule="evenodd" clip-rule="evenodd" d="M26.5925 51.281V52.4622C26.5915 53.3103 26.5905 54.4065 26.5884 55.9127V56.2677C26.5874 56.6948 26.5874 57.2029 26.5864 57.925L54.4722 10.4829H37.4166C35.209 10.4869 33.1585 11.139 31.4293 12.2482C28.5142 14.2355 26.5986 17.569 26.5925 21.3515V36.6478C26.5925 37.0269 26.3543 37.3469 26.0188 37.4799C25.9843 37.5099 25.9438 37.5309 25.9053 37.5549V41.1495C26.3675 41.1935 26.7344 41.5655 26.7344 42.0326V43.8709C26.7344 44.339 26.3675 44.711 25.9053 44.754V50.4259C26.2975 50.5269 26.5925 50.8629 26.5925 51.281Z" fill="#E8E8E8"/>
<path fill-rule="evenodd" clip-rule="evenodd" d="M89.6651 11.7763L88.5005 11.5343C88.2806 11.5093 88.0555 11.4963 87.8285 11.4963C87.6491 11.4863 87.4717 11.4863 87.2923 11.4963C86.2412 11.5893 85.2844 11.9553 84.4624 12.4984C83.0241 13.5596 82.0957 15.2288 82.0703 17.1011V24.0921H93.8522V17.3591C93.8472 14.7468 92.0916 12.5344 89.6651 11.7763Z" fill="#0D4F80"/>
<path fill-rule="evenodd" clip-rule="evenodd" d="M26.7336 43.8703V42.0333C26.7336 41.5653 26.3677 41.1933 25.9055 41.1493C25.8761 41.1473 25.8518 41.1333 25.8224 41.1333C25.3187 41.1333 24.9092 41.5363 24.9092 42.0333V43.8703C24.9092 44.3673 25.3187 44.7703 25.8224 44.7703C25.8518 44.7703 25.8761 44.7563 25.9055 44.7533C26.3677 44.7103 26.7336 44.3383 26.7336 43.8703Z" fill="#5C5C5C"/>
<path fill-rule="evenodd" clip-rule="evenodd" d="M68.5211 36.0966H37.4415C36.9378 36.0966 36.5293 36.4996 36.5293 36.9967C36.5293 37.4938 36.9378 37.8968 37.4415 37.8968H68.5211C69.0249 37.8968 69.4323 37.4938 69.4323 36.9967C69.4323 36.4996 69.0249 36.0966 68.5211 36.0966ZM72.1122 23.1943H37.4415C36.9378 23.1943 36.5293 23.5974 36.5293 24.0945C36.5293 24.5915 36.9378 24.9946 37.4415 24.9946H72.1122C72.616 24.9946 73.0235 24.5915 73.0235 24.0945C73.0235 23.5974 72.616 23.1943 72.1122 23.1943Z" fill="#083F6B"/>
<path fill-rule="evenodd" clip-rule="evenodd" d="M51.1523 48.9985H37.4416C36.9378 48.9985 36.5283 49.4016 36.5283 49.8987C36.5283 50.3957 36.9378 50.7988 37.4416 50.7988H51.1523C51.6561 50.7988 52.0646 50.3957 52.0646 49.8987C52.0646 49.4016 51.6561 48.9985 51.1523 48.9985ZM51.1523 61.9004H37.4416C36.9378 61.9004 36.5283 62.3034 36.5283 62.8005C36.5283 63.2976 36.9378 63.7006 37.4416 63.7006H51.1523C51.6561 63.7006 52.0646 63.2976 52.0646 62.8005C52.0646 62.3034 51.6561 61.9004 51.1523 61.9004Z" fill="#0D4F80"/>
<path fill-rule="evenodd" clip-rule="evenodd" d="M6.34707 73.9725L5.14395 75.1595L3.17556 73.2165L1.20313 75.1625L0 73.9745L1.97244 72.0295L0.00304076 70.0865L1.20617 68.9005L3.17455 70.8435L5.14598 68.8975L6.35012 70.0845L4.37768 72.0305L6.34707 73.9725Z" fill="#0D4F80"/>
<path fill-rule="evenodd" clip-rule="evenodd" d="M109.241 28.7111C107.495 28.7111 106.082 27.3101 106.082 25.5821C106.082 23.8551 107.495 22.4541 109.241 22.4541C110.988 22.4541 112.401 23.8551 112.401 25.5821C112.401 27.3101 110.988 28.7111 109.241 28.7111ZM109.241 26.9281C109.988 26.9281 110.596 26.3261 110.596 25.5821C110.596 24.8381 109.988 24.2371 109.241 24.2371C108.494 24.2371 107.887 24.8381 107.887 25.5821C107.887 26.3261 108.494 26.9281 109.241 26.9281Z" fill="#6EE3FF"/>
<path fill-rule="evenodd" clip-rule="evenodd" d="M87.9902 8.65771H87.0932L37.4143 8.68372C34.8276 8.68772 32.4254 9.45383 30.4064 10.758C26.8639 13.0464 24.5144 17.005 24.5073 21.5156V36.8129C24.5073 37.31 24.9158 37.713 25.4206 37.713C25.602 37.713 25.7621 37.647 25.905 37.556C25.9436 37.531 25.9831 37.51 26.0176 37.48C26.2071 37.315 26.3318 37.0809 26.3318 36.8129V21.5166C26.3378 17.6251 28.3711 14.2125 31.4291 12.2482C33.1573 11.1391 35.2088 10.487 37.4163 10.484H54.472L78.7686 10.483H82.5716C80.5404 12.0692 79.244 14.5336 79.2399 17.284V26.2583V78.5841C79.2339 81.6826 77.6658 84.487 75.1978 86.1553C74.3463 86.7313 73.3895 87.1734 72.3496 87.4425C71.4303 87.6795 70.4653 87.6795 69.546 87.4425C65.4815 86.3763 62.6536 82.7117 62.6648 78.5281V76.6668C62.6708 75.8967 62.0455 75.2666 61.2721 75.2616L26.3085 75.2606C26.3105 71.6821 26.3135 68.1196 26.3176 64.402C26.3196 63.0278 26.3206 61.6956 26.3226 60.0644C26.3257 58.1281 26.3267 57.1699 26.3277 56.4338V56.0788C26.3297 54.5716 26.3308 53.4764 26.3318 52.6273V51.4461C26.3318 50.949 25.9243 50.546 25.4206 50.546C25.2999 50.546 25.1864 50.572 25.082 50.614C24.7465 50.747 24.5073 51.067 24.5073 51.4461C24.5073 52.4632 24.5063 53.8945 24.5033 56.4308L24.5022 56.5559C24.5022 57.277 24.5002 58.2331 24.4982 60.0624C24.4962 61.6936 24.4941 63.0258 24.4931 64.4C24.4901 68.0606 24.487 71.5721 24.484 75.0956V75.2606L15.7915 75.2616C15.5705 75.2616 15.3658 75.3156 15.1803 75.4067C14.713 75.6327 14.3887 76.1058 14.3887 76.6568V78.6301C14.3826 85.2191 19.7455 90.5649 26.3642 90.5699H70.0781C70.3873 90.5699 70.8647 90.5699 71.1718 90.5239C71.7171 90.4739 72.2584 90.3839 72.7895 90.2529C74.1994 89.9268 75.4978 89.3567 76.6543 88.6006C79.9545 86.4423 82.0678 82.7398 82.0729 78.6301V26.2583V24.092H93.8518H95.2485H95.2546C95.585 24.092 95.885 23.875 96.1253 23.684C96.4476 23.4279 96.6575 23.0389 96.6575 22.5978V17.359C96.6767 12.5743 92.7977 8.67872 87.9902 8.65771Z" fill="#5C5C5C"/>
<path fill-rule="evenodd" clip-rule="evenodd" d="M89.6651 11.7763L88.5005 11.5343C88.2806 11.5093 88.0555 11.4963 87.8285 11.4963C87.6491 11.4863 87.4717 11.4863 87.2923 11.4963C86.2412 11.5893 85.2844 11.9553 84.4624 12.4984C83.0241 13.5596 82.0957 15.2288 82.0703 17.1011V24.0921H93.8522V17.3591C93.8472 14.7468 92.0916 12.5344 89.6651 11.7763Z" fill="#083F6B"/>
<path fill-rule="evenodd" clip-rule="evenodd" d="M85.8099 56.3128L81.3583 51.9211L76.941 56.2788L75.2027 54.5635L79.6199 50.2059L75.1683 45.8132L76.8975 44.107L81.3491 48.4996L85.7653 44.141L87.5046 45.8562L83.0864 50.2149L87.5381 54.6075L85.8099 56.3128ZM81.5671 32.8213C71.9745 32.8213 64.1982 40.4784 64.1982 49.9238C64.1982 59.3692 71.9745 67.0264 81.5671 67.0264C85.1683 67.0264 88.5121 65.9472 91.2863 64.101C92.6435 63.1968 93.8608 62.1056 94.9089 60.8705C97.4216 57.904 98.9369 54.0895 98.9369 49.9238C98.9369 40.4784 91.1606 32.8213 81.5671 32.8213Z" fill="white"/>
<path fill-rule="evenodd" clip-rule="evenodd" d="M91.2866 64.1004C88.5124 65.9477 85.1686 67.0259 81.5673 67.0259C71.9737 67.0259 64.1975 59.3687 64.1975 49.9233C64.1975 40.4789 71.9737 32.8208 81.5673 32.8208C91.1609 32.8208 98.9371 40.4789 98.9371 49.9233C98.9371 54.0889 97.4218 57.9045 94.9081 60.871C93.8611 62.1061 92.6438 63.1963 91.2866 64.1004ZM106.833 72.6187L96.1994 62.1421C99.0395 58.8467 100.763 54.586 100.763 49.9233C100.763 39.4838 92.1674 31.0205 81.5673 31.0205C74.9851 31.0205 69.1803 34.287 65.7229 39.2607C65.5678 39.4848 65.429 39.7208 65.284 39.9518C65.1239 40.2059 64.9587 40.4569 64.8107 40.719C64.6759 40.955 64.5553 41.201 64.4306 41.4441C64.2917 41.7161 64.1529 41.9891 64.0262 42.2692C63.9177 42.5122 63.8164 42.7593 63.718 43.0073C63.5994 43.3043 63.4869 43.6034 63.3836 43.9074C63.3004 44.1515 63.2214 44.3965 63.1474 44.6445C63.0511 44.9726 62.967 45.3056 62.8869 45.6407C62.8322 45.8747 62.7744 46.1088 62.7278 46.3468C62.6538 46.7288 62.598 47.1179 62.5473 47.507C62.522 47.708 62.4865 47.906 62.4663 48.1091C62.4095 48.7071 62.374 49.3112 62.374 49.9233C62.374 50.5504 62.4085 51.1695 62.4683 51.7806C62.4896 51.9916 62.5301 52.1957 62.5575 52.4037C62.6102 52.7998 62.6639 53.1958 62.7409 53.5839C62.7906 53.8329 62.8575 54.0759 62.9173 54.321C62.9984 54.657 63.0795 54.9931 63.1788 55.3211C63.2589 55.5862 63.3531 55.8452 63.4444 56.1052C63.5488 56.4003 63.6532 56.6953 63.7718 56.9844C63.8843 57.2574 64.0069 57.5255 64.1316 57.7925C64.2522 58.0515 64.3759 58.3086 64.5086 58.5616C64.6556 58.8407 64.8097 59.1157 64.9688 59.3857C65.1006 59.6078 65.2354 59.8278 65.3753 60.0438C65.5587 60.3289 65.7493 60.6089 65.9479 60.882C66.0797 61.064 66.2175 61.242 66.3554 61.419C66.5824 61.7091 66.8135 61.9971 67.0578 62.2742C67.1774 62.4102 67.3031 62.5402 67.4268 62.6732C67.7065 62.9743 67.9903 63.2703 68.2893 63.5524C68.3745 63.6324 68.4636 63.7074 68.5498 63.7874C71.3868 66.3648 75.0084 68.118 79.0293 68.6421C79.8624 68.7511 80.7057 68.8261 81.5673 68.8261C85.6713 68.8261 89.4652 67.548 92.585 65.3876L103.376 76.0182C104.33 76.9584 105.876 76.9583 106.832 76.0192C106.833 76.0182 106.835 76.0162 106.836 76.0152C107.786 75.0761 107.784 73.5558 106.833 72.6187Z" fill="#EC0000"/>
<path fill-rule="evenodd" clip-rule="evenodd" d="M87.5043 45.8557L85.765 44.1415L81.3488 48.4991L76.8971 44.1064L75.168 45.8127L79.6196 50.2044L75.2024 54.564L76.9407 56.2783L81.3589 51.9206L85.8096 56.3123L87.5378 54.607L83.0871 50.2154L87.5043 45.8557Z" fill="#EC0000"/>
<path fill-rule="evenodd" clip-rule="evenodd" d="M68.2887 63.5527C67.9897 63.2706 67.7069 62.9736 67.4262 62.6735C67.3025 62.5415 67.1768 62.4105 67.0572 62.2745C66.814 61.9974 66.5819 61.7094 66.3558 61.4193C66.217 61.2423 66.0801 61.0643 65.9473 60.8823C65.7487 60.6092 65.5591 60.3282 65.3747 60.0441C65.2348 59.8271 65.1 59.6081 64.9692 59.386C64.8091 59.115 64.655 58.8409 64.5091 58.5619C64.3763 58.3089 64.2536 58.0518 64.131 57.7928C64.0063 57.5258 63.8837 57.2577 63.7712 56.9847C63.6536 56.6956 63.5492 56.4006 63.4448 56.1055C63.3536 55.8455 63.2583 55.5865 63.1782 55.3214C63.0779 54.9924 62.9978 54.6563 62.9167 54.3213C62.8579 54.0752 62.79 53.8332 62.7404 53.5842C62.6623 53.1961 62.6096 52.8 62.5579 52.404C62.5295 52.196 62.489 51.9909 62.4687 51.7809C62.4079 51.1698 62.3734 50.5507 62.3734 49.9236C62.3734 49.3115 62.4089 48.7074 62.4667 48.1093C62.4859 47.9063 62.5224 47.7083 62.5478 47.5073C62.5985 47.1172 62.6522 46.7291 62.7282 46.3471C62.7748 46.1091 62.8316 45.875 62.8873 45.641C62.9664 45.3059 63.0505 44.9729 63.1478 44.6448C63.2208 44.3968 63.2999 44.1518 63.383 43.9077C63.4874 43.6037 63.5989 43.3046 63.7175 43.0076C63.8168 42.7596 63.9181 42.5125 64.0266 42.2695C64.1533 41.9894 64.2911 41.7164 64.43 41.4444C64.5547 41.2013 64.6763 40.9553 64.8101 40.7182C64.9591 40.4572 65.1223 40.2062 65.2835 39.9521C65.4294 39.7211 65.5673 39.4851 65.7233 39.261C66.0284 38.822 66.3518 38.3959 66.6923 37.9858C63.0414 41.6024 60.7852 46.5891 60.7852 52.0959C60.7852 62.4685 68.7854 70.9948 79.0297 71.9979V68.6424C75.0088 68.1173 71.3873 66.3651 68.5502 63.7867C68.4641 63.7077 68.3739 63.6327 68.2887 63.5527Z" fill="#E8E8E8"/>
</svg>
