<svg width="126" height="102" viewBox="0 0 126 102" fill="none" xmlns="http://www.w3.org/2000/svg">
<path fill-rule="evenodd" clip-rule="evenodd" d="M103.135 17.9293C122.148 32.8681 140.158 70.3504 109.544 92.9591C78.9307 115.568 61.6313 89.5461 50.6003 82.1867C43.3124 77.323 40.7784 76.467 27.2801 76.3715C8.72674 76.2409 -0.396808 60.3948 0.0132276 34.0768C0.376374 10.7818 17.3914 0.669555 41.5695 0.0637224C76.0903 -0.801322 89.0599 7.31462 103.135 17.9293Z" fill="#D9D9D9"/>
<path fill-rule="evenodd" clip-rule="evenodd" d="M20.5639 33.7526C20.5639 31.3112 22.5293 29.332 24.9536 29.332C27.3779 29.332 29.3433 31.3112 29.3433 33.7526V50.7391H33.9106V33.7526C33.9106 31.3112 35.8759 29.332 38.3002 29.332C40.7245 29.332 42.6899 31.3112 42.6899 33.7526V50.7391H47.2582V33.7526C47.2582 31.3112 49.2235 29.332 51.6479 29.332C54.0721 29.332 56.0375 31.3112 56.0375 33.7526V50.7391H60.6048V23.2043H63.2745V21.1618L38.5826 11.165L13.8906 21.1618V23.2043H16.5603V50.7391H20.5639V33.7526Z" fill="#767676"/>
<path fill-rule="evenodd" clip-rule="evenodd" d="M33.9103 50.7393H29.3431H20.5637H16.5591H12.793V55.2212H64.7747V50.7393H33.9103Z" fill="#595959"/>
<path fill-rule="evenodd" clip-rule="evenodd" d="M47.2577 50.7388V33.7524C47.2577 31.311 49.2231 29.3317 51.6474 29.3317C54.0717 29.3317 56.037 31.311 56.037 33.7524V50.7388H60.6043V23.204H63.274V21.1615L58.5023 19.2305C50.8692 24.5061 45.1686 32.4131 42.6904 41.6523V50.7388H47.2577Z" fill="#595959"/>
<path fill-rule="evenodd" clip-rule="evenodd" d="M23.4836 88.7541L22.3004 89.9457L20.362 87.9946L18.4205 89.9497L17.2363 88.7561L19.1778 86.802L17.2393 84.8499L18.4235 83.6583L20.361 85.6094L22.3024 83.6553L23.4866 84.8478L21.5452 86.802L23.4836 88.7541Z" fill="#595959"/>
<path fill-rule="evenodd" clip-rule="evenodd" d="M111.034 10.8049C109.121 10.8049 107.57 9.24155 107.57 7.31454C107.57 5.38753 109.121 3.82422 111.034 3.82422C112.948 3.82422 114.498 5.38753 114.498 7.31454C114.498 9.24155 112.948 10.8049 111.034 10.8049ZM111.034 8.81556C111.853 8.81556 112.519 8.14442 112.519 7.31454C112.519 6.48466 111.853 5.81352 111.034 5.81352C110.215 5.81352 109.55 6.48466 109.55 7.31454C109.55 8.14442 110.215 8.81556 111.034 8.81556Z" fill="#999999"/>
<path fill-rule="evenodd" clip-rule="evenodd" d="M112.558 90.3314L96.4033 74.0885C95.4865 73.1671 93.993 73.1661 93.0742 74.0875L93.0692 74.0925C92.6262 74.5376 92.3838 75.1303 92.3838 75.7603C92.3848 76.3902 92.6282 76.981 93.0712 77.4261L109.226 93.669C110.144 94.5913 111.638 94.5913 112.557 93.67C113.473 92.7467 113.471 91.2507 112.558 90.3314Z" fill="#767676"/>
<path fill-rule="evenodd" clip-rule="evenodd" d="M109.226 93.6686L93.0711 77.4257C92.6281 76.9816 92.3847 76.3898 92.3837 75.7599C92.3837 75.1299 92.6261 74.5371 93.0691 74.0921L93.0741 74.087C93.9919 73.1657 95.4864 73.1667 96.4022 74.0891L112.558 90.331C113.471 91.2503 113.473 92.7463 112.557 93.6696C111.637 94.5909 110.144 94.5909 109.226 93.6686ZM113.826 89.052L97.6712 72.8091C96.056 71.1835 93.4242 71.1815 91.805 72.8071L91.7981 72.8141C91.0169 73.6018 90.5869 74.6477 90.5879 75.7609C90.5889 76.8741 91.0199 77.92 91.802 78.7056L107.958 94.9486C108.765 95.7604 109.828 96.1673 110.889 96.1673C111.953 96.1673 113.019 95.7594 113.831 94.9436C115.442 93.318 115.44 90.6756 113.826 89.052Z" fill="#595959"/>
<path fill-rule="evenodd" clip-rule="evenodd" d="M76.8286 84.783C59.7268 84.783 45.8135 70.7724 45.8135 53.5499C45.8135 36.3274 59.7268 22.3169 76.8286 22.3169C93.9303 22.3169 107.843 36.3274 107.843 53.5499C107.843 70.7724 93.9303 84.783 76.8286 84.783Z" fill="#595959"/>
<path fill-rule="evenodd" clip-rule="evenodd" d="M76.8287 24.1255C60.7175 24.1255 47.6104 37.3252 47.6104 53.5501C47.6104 69.7749 60.7175 82.9746 76.8287 82.9746C92.9388 82.9746 106.046 69.7749 106.046 53.5501C106.046 37.3252 92.9388 24.1255 76.8287 24.1255Z" fill="#E5E5E5"/>
<path fill-rule="evenodd" clip-rule="evenodd" d="M91.0197 27.8423L62.5596 79.2135C66.7826 81.6047 71.6482 82.9751 76.828 82.9751C92.9391 82.9751 106.045 69.7753 106.045 53.5505C106.045 42.5099 99.9736 32.8758 91.0197 27.8423Z" fill="#F5F5F5"/>
<path fill-rule="evenodd" clip-rule="evenodd" d="M76.8287 24.1255C60.7175 24.1255 47.6104 37.3252 47.6104 53.5501C47.6104 64.5585 53.6482 74.1685 62.5602 79.2141L91.0203 27.8419C86.8152 25.4788 81.9765 24.1255 76.8287 24.1255Z" fill="#E5E5E5"/>
<path fill-rule="evenodd" clip-rule="evenodd" d="M101.917 53.5503C101.917 67.5046 90.6847 78.8164 76.8283 78.8164C62.9718 78.8164 51.7393 67.5046 51.7393 53.5503C51.7393 39.5961 62.9718 28.2842 76.8283 28.2842C90.6847 28.2842 101.917 39.5961 101.917 53.5503Z" fill="white"/>
<path fill-rule="evenodd" clip-rule="evenodd" d="M70.826 52.0093L69.5959 53.248L67.3891 51.0257L65.1823 53.248L63.9521 52.0093L66.159 49.7869L63.9521 47.5645L65.1823 46.3257L67.3891 48.5481L69.5959 46.3257L70.826 47.5645L68.6192 49.7869L70.826 52.0093Z" fill="#595959"/>
<path fill-rule="evenodd" clip-rule="evenodd" d="M89.7811 52.0093L88.551 53.248L86.3441 51.0257L84.1373 53.248L82.9072 52.0093L85.114 49.7869L82.9072 47.5645L84.1373 46.3257L86.3441 48.5481L88.551 46.3257L89.7811 47.5645L87.5743 49.7869L89.7811 52.0093Z" fill="#595959"/>
<path fill-rule="evenodd" clip-rule="evenodd" d="M72.9112 63.3091C72.7845 63.3091 72.6548 63.2819 72.5321 63.2237C72.0832 63.0127 71.8896 62.4742 72.0991 62.022C72.8015 60.508 74.7319 59.4912 76.9038 59.4912C79.0717 59.4912 81.0012 60.5049 81.7055 62.015C81.917 62.4681 81.7245 63.0056 81.2755 63.2186C80.8236 63.4316 80.2909 63.2357 80.0814 62.7846C79.7362 62.0462 78.535 61.2997 76.9038 61.2997C75.2707 61.2997 74.0685 62.0482 73.7253 62.7866C73.5727 63.1162 73.2494 63.3091 72.9112 63.3091Z" fill="#767676"/>
<path fill-rule="evenodd" clip-rule="evenodd" d="M58.5345 37.3804C58.3151 37.3804 58.0966 37.3 57.924 37.1393C57.5598 36.7987 57.5389 36.227 57.8771 35.8613C58.3829 35.3117 58.9196 34.7772 59.4713 34.2719C59.8405 33.9373 60.4071 33.9644 60.7404 34.3331C61.0736 34.7029 61.0466 35.2745 60.6795 35.6111C60.1647 36.0813 59.6649 36.5796 59.192 37.091C59.0154 37.2829 58.775 37.3804 58.5345 37.3804ZM76.8275 79.5717C62.58 79.5717 50.9883 67.8981 50.9883 53.55C50.9883 48.425 52.4668 43.4658 55.2642 39.2089C55.5386 38.792 56.0943 38.6785 56.5093 38.9537C56.9223 39.229 57.0351 39.7896 56.7627 40.2066C54.1588 44.1661 52.7841 48.7807 52.7841 53.55C52.7841 66.9014 63.5697 77.7632 76.8275 77.7632C90.0854 77.7632 100.871 66.9014 100.871 53.55C100.871 40.1996 90.0854 29.3368 76.8275 29.3368C72.5256 29.3368 68.3056 30.4942 64.6242 32.6844C64.3389 32.8532 64.0595 33.027 63.7832 33.2069C63.3672 33.4791 62.8095 33.3576 62.5421 32.9386C62.2727 32.5187 62.3915 31.959 62.8085 31.6878C63.1048 31.4949 63.4061 31.308 63.7104 31.1261C67.6691 28.7731 72.2054 27.5283 76.8275 27.5283C91.075 27.5283 102.667 39.2019 102.667 53.55C102.667 67.8981 91.075 79.5717 76.8275 79.5717Z" fill="#595959"/>
</svg>
