<svg width="103" height="84" viewBox="0 0 103 84" fill="none" xmlns="http://www.w3.org/2000/svg">
<path fill-rule="evenodd" clip-rule="evenodd" d="M74.6168 39.3622C79.343 36.5025 82.3199 31.4726 82.5853 26.0301C80.4134 25.0578 78.0413 24.5483 75.6541 24.5483C72.5931 24.5483 69.5881 25.3872 66.9617 26.9778C62.2384 29.8375 59.2595 34.8674 58.9941 40.3099C61.166 41.2812 63.5391 41.7916 65.9253 41.7916C68.9863 41.7916 71.9903 40.9528 74.6168 39.3622Z" fill="#262626"/>
<path fill-rule="evenodd" clip-rule="evenodd" d="M74.9356 41.1101C72.3702 42.6622 69.4373 43.4822 66.4564 43.4802C64.3386 43.4802 62.2268 43.0687 60.2602 42.2764C60.7038 37.1851 63.5756 32.5498 67.9944 29.8741C70.5548 28.3241 73.4877 27.506 76.4736 27.506C78.5914 27.506 80.7052 27.9175 82.6698 28.7079C82.2242 33.8001 79.3524 38.4364 74.9356 41.1101ZM52.2596 43.4802C49.2757 43.4802 46.3438 42.6612 43.7805 41.1101C39.3636 38.4374 36.4908 33.8011 36.0473 28.7079C38.0088 27.9165 40.1206 27.506 42.2434 27.506C45.2294 27.506 48.1612 28.3241 50.7206 29.8741C54.5977 32.2224 57.2833 36.0802 58.1845 40.4296V42.3703C56.295 43.0944 54.2803 43.4802 52.2596 43.4802ZM43.7815 15.3856C39.3636 12.7129 36.4908 8.07662 36.0473 2.98434C38.0108 2.19201 40.1226 1.78151 42.2434 1.78151C45.2294 1.78151 48.1622 2.60054 50.7206 4.15157C55.0493 6.76992 57.8891 11.2746 58.4198 16.2462C58.3216 16.354 58.2606 16.4866 58.2255 16.632C56.324 17.366 54.2953 17.7567 52.2596 17.7567C49.2747 17.7567 46.3418 16.9367 43.7815 15.3856ZM67.9944 4.15058C70.5538 2.59955 73.4857 1.78052 76.4736 1.78052C78.5934 1.78052 80.7052 2.19201 82.6698 2.98533C82.2242 8.07662 79.3534 12.7119 74.9346 15.3856C72.3722 16.9377 69.4433 17.7557 66.4554 17.7557C64.3386 17.7557 62.2268 17.3442 60.2602 16.5509C60.7048 11.4596 63.5766 6.82432 67.9944 4.15058ZM83.9825 27.3289C81.6274 26.2745 79.055 25.7255 76.4736 25.7255C73.1552 25.7255 69.8969 26.6345 67.0532 28.3557C63.9 30.2648 61.4598 33.0711 59.9858 36.3304V18.3314C62.0536 19.1099 64.2465 19.5362 66.4554 19.5362C69.7758 19.5362 73.0321 18.6262 75.8768 16.903C80.9805 13.8148 84.2218 8.37634 84.5112 2.45909L84.5402 1.8547L83.9825 1.60543C81.6274 0.549982 79.057 0 76.4736 0C73.1532 0 69.8949 0.910042 67.0522 2.63319C63.3953 4.84696 60.7008 8.26951 59.357 12.2084C58.0142 8.26951 55.3197 4.84597 51.6629 2.63319C48.8211 0.911031 45.5628 0 42.2434 0C39.66 0 37.0896 0.549982 34.7335 1.60444L34.1758 1.85372L34.2048 2.4581C34.4932 8.37634 37.7355 13.8158 42.8392 16.904C45.683 18.6262 48.9413 19.5362 52.2596 19.5362C54.2723 19.5362 56.2779 19.191 58.1845 18.5431V35.2334C56.6835 32.443 54.4555 30.0472 51.6639 28.3557C48.8201 26.6345 45.5618 25.7255 42.2434 25.7255C39.658 25.7255 37.0866 26.2735 34.7335 27.3289L34.1758 27.5782L34.2048 28.1826C34.4932 34.1008 37.7355 39.5403 42.8392 42.6285C45.686 44.3507 48.9423 45.2607 52.2596 45.2607C54.2723 45.2607 56.2779 44.9155 58.1845 44.2666V60.6701C58.1845 61.1617 58.587 61.5604 59.0847 61.5604C59.5823 61.5604 59.9858 61.1617 59.9858 60.6701V44.0569C62.0536 44.8344 64.2465 45.2607 66.4564 45.2607C69.7698 45.2627 73.029 44.3517 75.8768 42.6285C80.9795 39.5393 84.2218 34.0999 84.5112 28.1826L84.5412 27.5782L83.9825 27.3289Z" fill="#7F7F7F"/>
<path fill-rule="evenodd" clip-rule="evenodd" d="M20.6045 74.1502V74.265L27.6318 76.0999L50.3878 81.4078C54.0286 82.4791 57.344 82.483 60.2949 81.4365C60.4991 81.3633 60.7355 81.2703 60.9968 81.1615C61.0759 81.1288 61.172 81.0853 61.2581 81.0487C61.4514 80.9646 61.6487 80.8786 61.8709 80.7777C61.9831 80.7263 62.1093 80.6659 62.2294 80.6105C62.4497 80.5076 62.675 80.4018 62.9183 80.2841C63.0555 80.2178 63.2007 80.1456 63.3449 80.0744C63.6012 79.9478 63.8676 79.8162 64.149 79.6738C64.2992 79.5986 64.4534 79.5205 64.6096 79.4403C64.917 79.283 65.2364 79.1179 65.5698 78.9448C65.726 78.8646 65.8812 78.7835 66.0425 78.6984C66.4099 78.5056 66.7965 78.3008 67.194 78.0891C67.3422 78.01 67.4864 77.9338 67.6386 77.8517C68.0942 77.6084 68.5698 77.3502 69.0624 77.0831C69.1786 77.0198 69.2877 76.9605 69.4059 76.8962C70.0237 76.5598 70.6646 76.2077 71.3374 75.8358C71.3384 75.8358 71.3384 75.8348 71.3384 75.8348L89.2931 65.2229V65.2219C89.4053 65.0805 89.4964 64.9469 89.5655 64.8213V64.8203L56.2105 79.1762L20.6045 74.1502Z" fill="#262626"/>
<path fill-rule="evenodd" clip-rule="evenodd" d="M12.0017 52.0273C10.8962 52.0273 9.99902 52.9136 9.99902 54.0057C9.99902 55.0977 10.8962 55.984 12.0017 55.984C13.1071 55.984 14.0043 55.0977 14.0043 54.0057C14.0043 52.9136 13.1071 52.0273 12.0017 52.0273Z" fill="#6EE3FF"/>
<path fill-rule="evenodd" clip-rule="evenodd" d="M18.3241 47.2124H5.05762L10.5949 79.4981H18.3241C18.5875 79.4981 18.8018 79.2864 18.8018 79.0263V47.6852C18.8018 47.4241 18.5875 47.2124 18.3241 47.2124Z" fill="#262626"/>
<path fill-rule="evenodd" clip-rule="evenodd" d="M12.0017 55.984C10.8962 55.984 9.99902 55.0977 9.99902 54.0057C9.99902 52.9136 10.8962 52.0273 12.0017 52.0273C13.1071 52.0273 14.0043 52.9136 14.0043 54.0057C14.0043 55.0977 13.1071 55.984 12.0017 55.984Z" fill="#7F7F7F"/>
<path fill-rule="evenodd" clip-rule="evenodd" d="M89.5652 64.821C89.4961 64.9476 89.405 65.0811 89.2928 65.2226C89.0946 65.4699 88.8442 65.735 88.4797 66.0297C81.5466 70.0804 75.83 73.3506 71.3381 75.8354C71.3381 75.8354 71.3381 75.8354 71.3371 75.8354C70.6642 76.2074 70.0224 76.5605 69.4056 76.8968C69.2874 76.9611 69.1783 77.0205 69.0611 77.0828C68.5695 77.3508 68.0928 77.609 67.6382 77.8524C67.486 77.9335 67.3418 78.0106 67.1936 78.0898C66.7961 78.3014 66.4096 78.5062 66.0421 78.6991C65.8809 78.7832 65.7247 78.8643 65.5695 78.9454C65.2361 79.1185 64.9166 79.2837 64.6092 79.44C64.453 79.5201 64.2988 79.5992 64.1486 79.6744C63.8673 79.8169 63.6009 79.9484 63.3436 80.075C63.2004 80.1463 63.0542 80.2175 62.918 80.2838C62.6747 80.4015 62.4494 80.5073 62.2291 80.6102C62.1089 80.6666 61.9828 80.7269 61.8706 80.7783C61.6483 80.8792 61.4511 80.9653 61.2568 81.0484C61.1717 81.085 61.0756 81.1285 60.9965 81.1621C60.7351 81.271 60.4988 81.3639 60.2945 81.4361C57.3437 82.4837 54.0283 82.4797 50.3875 81.4084L27.6304 76.1005L20.6042 74.4931V74.2656V74.1509V53.486L28.4275 51.3237C33.6514 51.0952 37.3302 52.5156 39.6974 55.6661C41.9153 58.6198 48.4279 59.7603 54.1735 60.7673C57.2385 61.3034 62.941 62.3025 62.941 63.2986V65.7765C60.3156 66.6806 57.625 67.5709 54.8714 68.4394L39.6513 63.8664C39.1777 63.723 38.672 63.9881 38.5268 64.4589C38.3826 64.9298 38.651 65.4263 39.1276 65.5698L54.8824 70.303L55.1508 70.2199C63.0632 67.7301 70.491 65.0791 77.2269 62.3371C86.8336 58.4289 88.695 61.7713 89.5912 63.3787C89.7164 63.6043 89.9657 64.087 89.5652 64.821ZM91.1703 62.5191C89.6513 59.7969 86.4871 56.6444 76.54 60.6912C72.8131 62.2085 68.8639 63.6963 64.7444 65.1464V63.2986C64.7444 60.8099 60.4417 60.0571 54.4889 59.0135C49.3411 58.1124 42.9366 56.9906 41.1453 54.6057C38.4137 50.9705 34.0699 49.2711 28.2382 49.5501L20.8365 51.5986C20.7484 51.6234 20.6763 51.6718 20.6042 51.7174V47.6845C20.6042 47.183 20.4309 46.724 20.1496 46.3491C20.1305 46.3244 20.1105 46.3026 20.0905 46.2779C19.6719 45.7665 19.0391 45.4321 18.3242 45.4321H0.902166C0.42053 45.4321 0.0340202 45.808 0.00898713 46.2779C0.00898713 46.2937 0.000976562 46.3066 0.000976562 46.3224C0.000976562 46.814 0.404509 47.2126 0.902166 47.2126H5.05765H18.3242C18.5865 47.2126 18.8008 47.4243 18.8008 47.6845V79.0255C18.8008 79.2867 18.5865 79.4983 18.3242 79.4983H10.595H7.28859C6.80696 79.4983 6.42045 79.8742 6.39542 80.3441C6.39441 80.3599 6.3874 80.3728 6.3874 80.3886C6.3874 80.8802 6.79094 81.2789 7.28859 81.2789H18.3242C19.5808 81.2789 20.6042 80.2679 20.6042 79.0255V76.2311C20.6863 76.2825 20.7744 76.331 20.8745 76.3538L49.9229 83.1276C51.8975 83.7093 53.804 84.0001 55.6304 84.0001C56.2492 84.0001 56.854 83.9546 57.4538 83.8883C57.5179 83.8814 57.582 83.8725 57.646 83.8636C58.7655 83.7261 59.855 83.4847 60.9044 83.1118C64.1386 81.9634 73.4789 76.8652 89.455 67.5283L89.5612 67.4561C92.0595 65.4708 91.8151 63.6755 91.1703 62.5191Z" fill="#7F7F7F"/>
<path fill-rule="evenodd" clip-rule="evenodd" d="M11.082 17.6448H14.4325V15.8643H11.082V17.6448Z" fill="#A6A6A6"/>
<path fill-rule="evenodd" clip-rule="evenodd" d="M16.0435 14.2727H17.8458V10.9639H16.0435V14.2727Z" fill="#A6A6A6"/>
<path fill-rule="evenodd" clip-rule="evenodd" d="M19.457 17.6448H22.8065V15.8643H19.457V17.6448Z" fill="#A6A6A6"/>
<path fill-rule="evenodd" clip-rule="evenodd" d="M16.0439 22.5451H17.8463V19.2354H16.0439V22.5451Z" fill="#A6A6A6"/>
<path fill-rule="evenodd" clip-rule="evenodd" d="M93.918 44.3538L96.225 44.3636L96.233 42.5831L93.926 42.5732L93.918 44.3538Z" fill="#A6A6A6"/>
<path fill-rule="evenodd" clip-rule="evenodd" d="M97.0654 41.849L98.8678 41.8569L98.8778 39.6856L97.0754 39.6787L97.0654 41.849Z" fill="#A6A6A6"/>
<path fill-rule="evenodd" clip-rule="evenodd" d="M99.6945 42.5977L99.6865 44.3782L101.994 44.3881L102.002 42.6076L99.6945 42.5977Z" fill="#A6A6A6"/>
<path fill-rule="evenodd" clip-rule="evenodd" d="M97.041 47.2757L98.8434 47.2826L98.8534 45.1124L97.051 45.1055L97.041 47.2757Z" fill="#A6A6A6"/>
</svg>
