<svg width="126" height="98" viewBox="0 0 126 98" fill="none" xmlns="http://www.w3.org/2000/svg">
<path fill-rule="evenodd" clip-rule="evenodd" d="M63.7907 93.9435C105.265 97.2732 126.002 87.9606 126 66.0037C125.996 33.0703 101.647 36.4742 90.5762 28.0627C79.5054 19.6522 86.0416 28.0627 71.0943 9.37434C61.1291 -3.08456 45.7211 -3.12465 24.8704 9.25406C9.32065 21.7531 7.61372 38.114 19.7496 58.3369C31.8854 78.5598 46.5654 90.4293 63.7907 93.9435Z" fill="#E5E5E5"/>
<path fill-rule="evenodd" clip-rule="evenodd" d="M95.2136 66.8415L86.8136 63.2702L83.4949 67.8248L82.4136 69.209L76.5365 76.7364L73.2057 72.248L70.951 69.209L69.6126 67.4048L69.0811 66.6891L68.5324 67.4048L67.1484 69.209L64.9798 72.0385L61.3877 76.7204L55.047 68.6016C54.7392 68.2067 54.8131 67.6403 55.211 67.3356C55.5795 67.054 56.0938 67.0941 56.4137 67.4128L56.4897 67.498L56.7488 67.8308L57.825 69.209L61.3746 73.7535L64.8613 69.209L66.2453 67.4048L67.9057 65.2388L58.9377 60.5148L57.1599 59.5776L57.1234 59.5586L53.8908 62.5185L52.852 62.9585L54.1338 64.5582C54.4223 64.919 54.3889 65.4292 54.071 65.75L53.986 65.8251C53.5921 66.1348 53.0191 66.0697 52.7063 65.6788L51.1168 63.6962L43.7211 66.8415C39.229 68.7509 35.5701 72.0937 33.2324 76.2673C42.33 85.7343 52.5099 91.643 63.7902 93.9443C83.4119 95.519 98.3845 94.2601 108.722 90.1766L107.278 79.7063C105.265 73.9249 100.885 69.2521 95.2136 66.8415Z" fill="white"/>
<path fill-rule="evenodd" clip-rule="evenodd" d="M79.3203 54.8689C77.1912 56.5288 75.7303 57.5121 74.895 57.7135L74.6784 57.7396H66.8301L66.6216 57.7155C65.6071 57.479 63.9265 56.3423 61.5747 54.457C61.2912 54.2304 61.0017 53.9949 60.705 53.7513C60.2525 53.3775 59.7928 52.9896 59.3332 52.5977L59.0386 58.5234L69.4685 64.0191L80.2315 58.348L79.6686 54.5953C79.5522 54.6865 79.4337 54.7797 79.3203 54.8689Z" fill="#F6C7B4"/>
<path fill-rule="evenodd" clip-rule="evenodd" d="M51.4459 36.8783C51.4691 36.8733 51.4924 36.8652 51.5157 36.8542L52.522 36.3972L52.7812 37.4626C53.2662 39.4573 53.986 41.485 54.8769 43.4956C55.4874 44.8728 56.1425 46.1588 56.7965 47.3175C57.0253 47.7214 57.2369 48.0803 57.4252 48.389C57.4971 48.5052 57.5527 48.5965 57.5963 48.6636C57.6226 48.6867 57.6672 48.7278 57.6995 48.7568C57.7522 48.8039 57.7957 48.845 57.8666 48.9072C58.1531 49.1658 58.4761 49.4544 58.8284 49.7642C59.0329 49.9446 59.2404 50.122 59.447 50.3014C60.2549 51.006 61.0719 51.7047 61.8707 52.3632C62.1603 52.6027 62.4437 52.8323 62.7211 53.0548C64.7207 54.6575 66.2737 55.718 66.953 55.9345H74.5462C75.0787 55.744 76.4394 54.8169 78.1929 53.4507C78.3903 53.2954 78.5938 53.136 78.8014 52.9716C78.9836 52.8263 79.1719 52.6719 79.3572 52.5216C79.9008 52.0825 80.4486 51.6335 80.9973 51.1764C81.1481 51.0501 81.3 50.9259 81.4509 50.7996C81.7576 50.54 82.0421 50.2994 82.2942 50.0829C82.3944 49.9967 82.4754 49.9275 82.5351 49.8764C82.5665 49.8343 82.607 49.7782 82.6577 49.71C82.8045 49.5066 82.9725 49.269 83.1578 48.9984C83.6893 48.2206 84.2492 47.3405 84.8151 46.3743C86.4259 43.6199 87.742 40.7392 88.553 37.8846L88.7878 37.0627L89.6292 37.2491L89.6433 37.2521C90.6152 37.4626 92.0569 35.9431 92.5955 33.6668C93.1422 31.4016 92.553 29.4761 91.6084 29.2616C91.3685 29.2105 91.084 29.2686 90.7651 29.4541L89.4145 30.2399L89.3923 28.6893C89.292 21.4615 88.5216 16.925 86.3327 13.3707C83.6073 8.94649 78.7052 6.62109 70.7557 6.62109C63.1464 6.62109 58.303 9.03269 55.4935 13.5993C53.2054 17.3179 52.2892 22.2103 52.1333 29.3007L52.0918 31.1991L50.6309 29.9672C50.3383 29.7207 50.1044 29.6445 49.9535 29.6796C49.2823 29.852 48.7994 31.6111 49.2307 33.6598C49.6761 35.7005 50.807 37.0336 51.4459 36.8783Z" fill="#FEDAC6"/>
<path fill-rule="evenodd" clip-rule="evenodd" d="M79.5895 16.2335C77.5799 15.6983 75.472 15.7835 73.3753 15.998C68.9217 16.451 63.1914 18.7584 58.8147 17.0274C58.591 16.9361 58.425 17.1436 58.5029 17.3271C59.5903 20.6618 65.6162 20.1857 68.3436 19.894C71.4153 19.5703 74.5791 19.1834 77.6832 19.5703C79.3881 19.8008 80.6364 20.8903 81.7926 22.034C81.9545 22.3086 82.1044 22.6033 82.2745 22.8719C84.8835 27.3062 85.2631 34.3736 83.3871 39.1898C82.2745 42.5165 78.5184 45.1175 75.9033 48.0904C73.1151 51.5414 68.538 51.358 63.6237 52.1198C65.1768 53.3636 66.908 54.9974 66.908 55.9546H74.5791C76.2314 55.5337 82.9163 49.4425 82.9163 49.4425C82.9163 49.4425 89.8688 39.8754 89.8688 30.7331C89.8688 20.2258 90.0539 10.8951 79.5895 7.05322C79.0398 10.9132 78.7482 12.5359 79.5895 16.2335Z" fill="#F6C7B4"/>
<path fill-rule="evenodd" clip-rule="evenodd" d="M42.4862 81.4047C43.369 73.0934 47.1402 68.185 53.7969 66.6785C53.7969 66.6785 53.0902 65.4838 51.6738 63.0942L39.4266 68.0156L33.3359 75.8629L39.4266 85.4862L42.4862 88.1634V81.4047Z" fill="#C6EDF6"/>
<path fill-rule="evenodd" clip-rule="evenodd" d="M113.43 21.4549L112.228 22.6446L110.254 20.6901L108.285 22.6406L107.079 21.4459L109.048 19.4953L107.075 17.5408L108.276 16.3521L110.249 18.3066L112.219 16.3561L113.426 17.5498L111.456 19.5004L113.43 21.4549Z" fill="#6EE3FF"/>
<path fill-rule="evenodd" clip-rule="evenodd" d="M69.2875 74.4234C69.0304 74.4004 68.7793 74.3432 68.5899 74.225L67.048 73.3068L64.6162 94.4439L73.728 94.4469L71.8064 73.1094L69.983 74.219C69.7856 74.3362 69.5386 74.4004 69.2875 74.4234Z" fill="#0D4F80"/>
<path fill-rule="evenodd" clip-rule="evenodd" d="M71.8403 73.3444L73.7508 94.4473H75.9548L72.5166 72.9014L71.8403 73.3444Z" fill="#6EE3FF"/>
<path fill-rule="evenodd" clip-rule="evenodd" d="M85.0075 62.971L83.1254 65.3505L81.5784 67.3291L81.5906 67.4043H81.5217L80.1114 69.2084L76.5751 73.7379L73.2138 69.2084L71.8754 67.4043L70.4823 65.5269L80.5154 60.2406L81.8123 59.5581L82.3266 60.0281L85.0449 62.5179L85.0075 62.971ZM69.4679 64.0184L59.039 58.5227L59.3336 52.5969C59.7932 52.9888 60.2529 53.3767 60.7054 53.7506C61.0021 53.9942 61.2916 54.2297 61.5741 54.4562C63.9269 56.3416 65.6075 57.4782 66.622 57.7148L66.8305 57.7388H74.6788L74.8955 57.7128C75.7307 57.5113 77.1916 56.528 79.3207 54.8682C79.4341 54.779 79.5516 54.6858 79.669 54.5945L80.2319 58.3472L69.4679 64.0184ZM58.8294 49.7643C58.4771 49.4546 58.1541 49.166 57.8666 48.9074C57.7968 48.8452 57.7522 48.8041 57.6996 48.757C57.6672 48.7279 57.6226 48.6868 57.5973 48.6638C57.5538 48.5966 57.4971 48.5044 57.4262 48.3892C57.2369 48.0804 57.0253 47.7216 56.7975 47.3167C56.1425 46.159 55.4884 44.872 54.8769 43.4948C53.986 41.4851 53.2662 39.4574 52.7823 37.4628L52.5231 36.3973L51.5167 36.8544C51.4924 36.8654 51.4702 36.8724 51.4469 36.8785C50.808 37.0338 49.6772 35.7007 49.2317 33.66C48.9108 32.1355 49.096 30.7743 49.4889 30.1047C50.1935 32.809 51.5542 37.9159 52.0817 32.9433C52.1161 31.8358 53.0222 21.7804 54.2948 19.9903C54.6826 19.434 55.0966 18.9539 55.531 18.5459C55.9258 18.7113 56.2791 18.8757 56.6173 18.9629C58.4325 19.4079 60.343 19.3277 62.2119 19.2165C68.3411 18.8176 75.2964 17.4494 81.4073 18.3354C82.7447 18.5219 84.15 18.8166 85.5299 19.2536C85.7233 19.4821 85.9136 19.7277 86.0948 19.9903C87.3573 21.7804 88.2766 31.8358 88.314 32.9433C88.8891 38.4681 90.4928 31.5501 91.1154 29.3109C91.2936 29.2558 91.4616 29.2307 91.6094 29.2618C92.553 29.4763 93.1422 31.4018 92.5955 33.667C92.0579 35.9433 90.6163 37.4628 89.6443 37.2523L89.6292 37.2493L88.7878 37.0629L88.554 37.8848C87.742 40.7394 86.4259 43.6201 84.8161 46.3745C84.2502 47.3407 83.6893 48.2208 83.1588 48.9986C82.9725 49.2692 82.8045 49.5067 82.6587 49.7102C82.608 49.7784 82.5675 49.8345 82.5362 49.8766C82.4764 49.9277 82.3954 49.9969 82.2942 50.0831C82.0421 50.2996 81.7586 50.5401 81.4509 50.7997C81.301 50.926 81.1481 51.0503 80.9983 51.1756C80.4496 51.6337 79.9019 52.0827 79.3582 52.5217C79.1719 52.6721 78.9846 52.8264 78.8014 52.9718C78.5948 53.1362 78.3913 53.2955 78.1939 53.4509C76.4404 54.8171 75.0787 55.7442 74.5472 55.9347H66.9541C66.2747 55.7182 64.7217 54.6577 62.7211 53.054C62.4448 52.8325 62.1613 52.6019 61.8707 52.3634C61.0719 51.7048 60.2559 51.0052 59.448 50.3016C59.2415 50.1222 59.0339 49.9448 58.8294 49.7643ZM64.5931 5.43552C63.2304 5.73321 61.978 6.13916 60.8269 6.65034C61.977 6.13815 63.2314 5.73321 64.5931 5.43552ZM76.8089 5.34531C76.7715 5.3383 76.736 5.32928 76.6976 5.32226C76.656 5.27716 76.6135 5.23306 76.572 5.18995C76.653 5.23907 76.7279 5.2952 76.8089 5.34531ZM109.073 79.375L109.032 79.2066C106.867 72.903 102.106 67.8072 95.9345 65.1831L86.0523 60.9824L82.0988 57.363L81.9388 57.4472L81.3132 53.2705C81.7526 52.9086 82.195 52.5418 82.6313 52.1739C82.9442 51.9113 83.2307 51.6668 83.4868 51.4472C83.6407 51.3159 83.7511 51.2207 83.8088 51.1706L83.9353 51.0353C83.9738 50.9852 84.0426 50.894 84.1378 50.7617C84.2947 50.5462 84.4729 50.2946 84.6673 50.0089C85.2211 49.199 85.8053 48.2829 86.3925 47.2786C87.9455 44.6224 89.2384 41.85 90.102 39.0655C91.9891 38.8851 93.7294 36.7882 94.3683 34.082C94.6892 32.7569 94.7044 31.4599 94.4493 30.3653C94.1051 28.8919 93.2688 27.7874 92.0043 27.5007C91.8595 27.4696 91.7147 27.4526 91.569 27.4456C91.8615 25.916 92.1298 23.8011 92.2948 21.6381C92.4022 20.7821 92.4902 19.5964 92.4589 18.2943C92.4953 16.2065 92.3789 14.3813 92.0266 13.411C91.495 11.9416 90.7124 10.6827 89.7395 9.59618C89.5623 9.20928 89.3659 8.84744 89.1422 8.52569C85.3932 3.1392 75.6284 -1.49756 63.1696 0.764691C58.4751 1.60464 56.2538 3.94607 55.2202 5.44655C52.0098 6.61827 49.5587 8.61891 48.3539 11.9476C47.4225 14.5326 48.1575 24.4236 48.9796 28.1592C47.4671 28.9872 46.9031 31.4479 47.4488 34.0349C48.0107 36.6148 49.5213 38.6095 51.2191 38.6947C51.7182 40.5349 52.3955 42.3872 53.2085 44.2205C53.8443 45.6538 54.5256 46.9909 55.206 48.1977C55.4459 48.6207 55.6687 48.9986 55.8681 49.3253C55.9896 49.5238 56.0787 49.6631 56.1273 49.7383L56.189 49.8335L56.2741 49.9107C56.3419 49.9718 56.4664 50.0851 56.6406 50.2425C56.923 50.496 57.2409 50.7797 57.5841 51.0824L57.2602 57.5855L56.838 57.363L52.8845 60.9824L43.0033 65.1831C38.3168 67.1747 34.4484 70.5947 31.9072 74.8836C32.3436 75.3607 32.7911 75.8067 33.2335 76.2668C35.5712 72.0931 39.23 68.7504 43.7221 66.8409L51.1178 63.6957L52.7073 65.6783C53.0202 66.0692 53.5932 66.1343 53.987 65.8246L54.0721 65.7484C54.39 65.4287 54.4234 64.9175 54.1348 64.5576L52.8531 62.9579L53.8919 62.5179L57.1245 59.5581L57.161 59.5771L58.9388 60.5143L67.9067 65.2382L66.2464 67.4043L64.8624 69.2084L61.3756 73.753L57.8261 69.2084L56.7499 67.8302L56.4907 67.4975L56.4148 67.4123C56.0949 67.0935 55.5806 67.0534 55.212 67.3351C54.8142 67.6398 54.7403 68.2061 55.048 68.601L61.3888 76.7199L64.9809 72.037C65.0153 72.0711 65.0487 72.1072 65.0902 72.1322L65.9558 72.6554L67.0482 73.3069L68.5891 74.2251C68.7794 74.3434 69.0305 74.4005 69.2877 74.4235C69.5388 74.4005 69.7858 74.3363 69.9822 74.2191L71.8066 73.1095L72.6064 72.6224L73.2067 72.2465L76.5376 76.7349L82.4147 69.2084L83.4959 67.8242L86.8146 63.2687L95.2147 66.8409C100.886 69.2515 105.266 73.9244 107.279 79.7058L108.723 90.1761C109.317 89.9415 109.901 89.702 110.463 89.4494L109.073 79.375Z" fill="#0F2B4A"/>
<path fill-rule="evenodd" clip-rule="evenodd" d="M19.5157 97.3598C30.14 97.3598 38.7516 88.833 38.7516 78.3156C38.7516 67.7973 30.14 59.2715 19.5157 59.2715C8.89242 59.2715 0.279785 67.7973 0.279785 78.3156C0.279785 88.833 8.89242 97.3598 19.5157 97.3598Z" fill="white"/>
<path fill-rule="evenodd" clip-rule="evenodd" d="M10.4826 60.6075C11.2034 61.1607 11.2388 62.3645 10.9321 64.3602C10.8551 64.8663 10.7539 65.4146 10.6304 65.997C10.4441 66.882 10.2193 67.8042 9.97737 68.7093C9.89232 69.026 9.81234 69.3177 9.73844 69.5793C9.69288 69.7366 9.66048 69.8489 9.64226 69.91C9.51571 70.334 9.07125 70.5916 8.65009 70.4854C8.22892 70.3791 7.98898 69.9501 8.11553 69.5251C8.13173 69.471 8.16312 69.3638 8.20564 69.2134C8.27752 68.9598 8.35548 68.6762 8.43849 68.3685C8.67338 67.4894 8.89206 66.5953 9.07125 65.7414C9.18869 65.1861 9.28487 64.6659 9.35777 64.1918C9.40738 63.872 9.44484 63.5753 9.47015 63.3057C4.71685 66.6846 1.82134 72.1242 1.82134 78.0539C1.82134 88.0732 10.027 96.195 20.1471 96.195C30.2672 96.195 38.4718 88.0732 38.4718 78.0539C38.4718 74.9958 37.7075 72.05 36.2708 69.4249L36.038 69.013L37.6174 68.1129C39.3618 71.1118 40.2932 74.5167 40.2932 78.0539C40.2932 89.0695 31.2736 98.0002 20.1471 98.0002C9.02063 98.0002 0 89.0695 0 78.0539C0 71.8626 2.87121 66.1553 7.63565 62.4177C7.11729 62.6271 6.52908 62.8928 5.8872 63.2065C5.07626 63.6034 4.22887 64.0535 3.39767 64.5185C3.10711 64.6809 2.8378 64.8343 2.59989 64.9726C2.45714 65.0558 2.35691 65.1149 2.30426 65.146C1.92055 65.3755 1.43459 65.2603 1.22199 64.8884C1.00735 64.5165 1.14504 64.0294 1.52976 63.7999C1.58747 63.7648 1.69377 63.7026 1.8426 63.6164C2.08862 63.4731 2.36501 63.3157 2.66367 63.1484C3.52017 62.6692 4.39389 62.2052 5.23521 61.7932C6.28508 61.279 7.21246 60.8821 7.97987 60.6305C9.12491 60.2576 9.92472 60.1805 10.4826 60.6075ZM15.3928 71.5418C16.6694 71.5418 17.693 71.8716 18.4634 72.5311C19.2339 73.1916 19.6186 74.0797 19.6186 75.1963C19.6186 75.8097 19.5072 76.3931 19.2845 76.9444C19.0638 77.4956 18.7216 78.065 18.262 78.6503C17.8013 79.2357 17.0359 80.0285 15.9648 81.0268L13.5795 83.3141V83.4073H20.0975V85.3318H10.7903V83.677L14.3308 80.1528C15.3766 79.0923 16.0701 78.3406 16.4103 77.8976C16.7525 77.4545 17.0005 77.0376 17.1584 76.6467C17.3144 76.2558 17.3923 75.8378 17.3923 75.3918C17.3923 74.7773 17.207 74.2942 16.8335 73.9404C16.4609 73.5876 15.9456 73.4102 15.2885 73.4102C14.7631 73.4102 14.2548 73.5064 13.7618 73.6988C13.2708 73.8913 12.7018 74.2381 12.0579 74.7402L10.8653 73.2989C11.6286 72.6604 12.3707 72.2084 13.0905 71.9417C13.8104 71.6751 14.5778 71.5418 15.3928 71.5418ZM29.3206 71.6992V80.5517H31.1723V82.3659H29.3206V85.3318H27.1702V82.3659H20.8963V80.682L27.1702 71.6992H29.3206ZM27.2644 74.1549H27.1895C27.0133 74.5638 26.7389 75.059 26.3633 75.6423L22.9525 80.5517H27.1702V77.1398C27.1702 75.924 27.2016 74.9297 27.2644 74.1549Z" fill="#EC0000"/>
<path fill-rule="evenodd" clip-rule="evenodd" d="M85.0081 62.9715L85.0455 62.5185L82.3272 60.0287L81.8129 59.5586L80.516 60.2412L70.4829 65.5274L71.876 67.4048L73.2144 69.209L76.5756 73.7385L80.112 69.209L81.5223 67.4048H81.5911L81.579 67.3296L83.126 65.351L85.0081 62.9715Z" fill="#E9F4F7"/>
<path fill-rule="evenodd" clip-rule="evenodd" d="M82.5852 16.2154C81.9494 14.3491 81.3106 12.598 80.4217 10.8399C82.1711 11.6408 83.8274 13.5673 85.3015 14.8011C84.1555 12.3434 82.6702 10.2816 80.856 8.50852C80.286 8.23789 79.6826 7.99533 79.0438 7.78284C79.6877 8.4574 80.3285 9.13096 80.9724 9.80553C79.6148 8.94453 78.2612 8.07852 76.9096 7.21953C77.6679 8.20682 78.4201 9.19411 79.1784 10.1814C77.4867 8.69996 75.5297 7.53426 73.436 6.71937C73.193 6.70133 72.9429 6.6893 72.6929 6.67627C76.3912 9.39357 79.7383 12.603 82.5852 16.2154Z" fill="#0D4F80"/>
<path fill-rule="evenodd" clip-rule="evenodd" d="M72.3202 50.5978C71.7846 50.5978 71.2896 50.25 71.1255 49.7097C70.9261 49.0482 71.2987 48.3496 71.9588 48.1491L76.4579 46.7809C82.8696 44.8334 87.8922 39.8428 89.8927 33.434C90.0992 32.7744 90.7988 32.4066 91.4569 32.6141C92.115 32.8195 92.4815 33.5222 92.2759 34.1817C90.0274 41.3814 84.3852 46.9874 77.1828 49.1765L72.6826 50.5436C72.5622 50.5797 72.4397 50.5978 72.3202 50.5978Z" fill="#990000"/>
<path fill-rule="evenodd" clip-rule="evenodd" d="M49.8788 38.3857H47.29V24.729C47.29 13.4689 57.5094 4.30664 70.0694 4.30664C82.6315 4.30664 92.8488 13.4689 92.8488 24.729V37.8344H90.2621V24.729C90.2621 14.7479 81.203 6.62702 70.0694 6.62702C58.9369 6.62702 49.8788 14.7479 49.8788 24.729V38.3857Z" fill="#990000"/>
<path fill-rule="evenodd" clip-rule="evenodd" d="M48.8341 24.3154C46.0378 24.3154 43.772 26.3431 43.772 28.8459V34.8208C43.772 37.3226 46.0378 39.3503 48.8341 39.3503V39.3483V24.3184V24.3154Z" fill="#EC0000"/>
<path fill-rule="evenodd" clip-rule="evenodd" d="M51.7462 23.3135H49.9704C49.3427 23.3135 48.8335 23.7635 48.8335 24.3188V39.3487C48.8335 39.903 49.3427 40.353 49.9704 40.353H51.7462C52.3739 40.353 52.8832 39.903 52.8832 39.3487V24.3188C52.8832 23.7635 52.3739 23.3135 51.7462 23.3135Z" fill="#990000"/>
<path fill-rule="evenodd" clip-rule="evenodd" d="M92.3687 24.3154V24.3174V39.3483V39.3503C95.1649 39.3503 97.4307 37.3226 97.4307 34.8208V28.8459C97.4307 26.3431 95.1649 24.3154 92.3687 24.3154Z" fill="#EC0000"/>
<path fill-rule="evenodd" clip-rule="evenodd" d="M91.2306 23.3135H89.4548C88.8271 23.3135 88.3179 23.7635 88.3179 24.3178V39.3487C88.3179 39.903 88.8271 40.353 89.4548 40.353H91.2306C91.8583 40.353 92.3675 39.903 92.3675 39.3487V24.3178C92.3675 23.7635 91.8583 23.3135 91.2306 23.3135Z" fill="#990000"/>
</svg>
