<svg width="102" height="84" viewBox="0 0 102 84" fill="none" xmlns="http://www.w3.org/2000/svg">
<path fill-rule="evenodd" clip-rule="evenodd" d="M74.6178 39.3622C79.3441 36.5025 82.3211 31.4726 82.5864 26.0301C80.4145 25.0578 78.0424 24.5483 75.6552 24.5483C72.5942 24.5483 69.5892 25.3872 66.9627 26.9778C62.2394 29.8375 59.2605 34.8674 58.9951 40.3099C61.167 41.2812 63.5401 41.7916 65.9263 41.7916C68.9874 41.7916 71.9914 40.9528 74.6178 39.3622Z" fill="#5C5C5C"/>
<path fill-rule="evenodd" clip-rule="evenodd" d="M74.9358 41.1101C72.3704 42.6622 69.4375 43.4822 66.4566 43.4802C64.3388 43.4802 62.227 43.0687 60.2604 42.2764C60.704 37.1851 63.5758 32.5498 67.9946 29.8741C70.555 28.3241 73.4879 27.506 76.4739 27.506C78.5917 27.506 80.7055 27.9175 82.6701 28.7079C82.2245 33.8001 79.3527 38.4364 74.9358 41.1101ZM52.2598 43.4802C49.2758 43.4802 46.3439 42.6612 43.7805 41.1101C39.3637 38.4374 36.4909 33.8011 36.0473 28.7079C38.0089 27.9165 40.1207 27.506 42.2435 27.506C45.2294 27.506 48.1613 28.3241 50.7207 29.8741C54.5979 32.2224 57.2834 36.0802 58.1846 40.4296V42.3703C56.2951 43.0944 54.2804 43.4802 52.2598 43.4802ZM43.7815 15.3856C39.3637 12.7129 36.4909 8.07662 36.0473 2.98434C38.0109 2.19201 40.1227 1.78151 42.2435 1.78151C45.2294 1.78151 48.1623 2.60054 50.7207 4.15157C55.0495 6.76992 57.8892 11.2746 58.4199 16.2462C58.3218 16.354 58.2607 16.4866 58.2257 16.632C56.3242 17.366 54.2955 17.7567 52.2598 17.7567C49.2748 17.7567 46.3419 16.9367 43.7815 15.3856ZM67.9946 4.15058C70.554 2.59955 73.4859 1.78052 76.4739 1.78052C78.5937 1.78052 80.7055 2.19201 82.6701 2.98533C82.2245 8.07662 79.3537 12.7119 74.9348 15.3856C72.3724 16.9377 69.4436 17.7557 66.4556 17.7557C64.3388 17.7557 62.227 17.3442 60.2604 16.5509C60.705 11.4596 63.5768 6.82432 67.9946 4.15058ZM83.9828 27.3289C81.6277 26.2745 79.0553 25.7255 76.4739 25.7255C73.1555 25.7255 69.8972 26.6345 67.0534 28.3557C63.9002 30.2648 61.46 33.0711 59.986 36.3304V18.3314C62.0538 19.1099 64.2467 19.5362 66.4556 19.5362C69.776 19.5362 73.0323 18.6262 75.8771 16.903C80.9809 13.8148 84.2222 8.37634 84.5115 2.45909L84.5406 1.8547L83.9828 1.60543C81.6277 0.549982 79.0573 0 76.4739 0C73.1535 0 69.8952 0.910042 67.0524 2.63319C63.3955 4.84696 60.701 8.26951 59.3572 12.2084C58.0144 8.26951 55.3198 4.84597 51.663 2.63319C48.8212 0.911031 45.5629 0 42.2435 0C39.6601 0 37.0896 0.549982 34.7335 1.60444L34.1758 1.85372L34.2048 2.4581C34.4932 8.37634 37.7355 13.8158 42.8393 16.904C45.683 18.6262 48.9414 19.5362 52.2598 19.5362C54.2724 19.5362 56.2781 19.191 58.1846 18.5431V35.2334C56.6836 32.443 54.4557 30.0472 51.664 28.3557C48.8202 26.6345 45.5619 25.7255 42.2435 25.7255C39.6581 25.7255 37.0866 26.2735 34.7335 27.3289L34.1758 27.5782L34.2048 28.1826C34.4932 34.1008 37.7355 39.5403 42.8393 42.6285C45.686 44.3507 48.9424 45.2607 52.2598 45.2607C54.2724 45.2607 56.2781 44.9155 58.1846 44.2666V60.6701C58.1846 61.1617 58.5872 61.5604 59.0848 61.5604C59.5825 61.5604 59.986 61.1617 59.986 60.6701V44.0569C62.0538 44.8344 64.2467 45.2607 66.4566 45.2607C69.77 45.2627 73.0293 44.3517 75.8771 42.6285C80.9799 39.5393 84.2222 34.0999 84.5115 28.1826L84.5416 27.5782L83.9828 27.3289Z" fill="#E8E8E8"/>
<path fill-rule="evenodd" clip-rule="evenodd" d="M20.6035 74.1502V74.265L27.6308 76.0999L50.387 81.4078C54.0278 82.4791 57.3432 82.483 60.2942 81.4365C60.4984 81.3633 60.7347 81.2703 60.9961 81.1615C61.0752 81.1288 61.1713 81.0853 61.2574 81.0487C61.4507 80.9646 61.648 80.8786 61.8702 80.7777C61.9824 80.7263 62.1086 80.6659 62.2287 80.6105C62.449 80.5076 62.6743 80.4018 62.9176 80.2841C63.0548 80.2178 63.2 80.1456 63.3442 80.0744C63.6005 79.9478 63.8669 79.8162 64.1483 79.6738C64.2985 79.5986 64.4527 79.5205 64.6089 79.4403C64.9163 79.283 65.2357 79.1179 65.5691 78.9448C65.7254 78.8646 65.8806 78.7835 66.0418 78.6984C66.4093 78.5056 66.7958 78.3008 67.1933 78.0891C67.3415 78.01 67.4857 77.9338 67.6379 77.8517C68.0935 77.6084 68.5691 77.3502 69.0618 77.0831C69.1779 77.0198 69.2871 76.9605 69.4052 76.8962C70.0231 76.5598 70.6639 76.2077 71.3368 75.8358C71.3378 75.8358 71.3378 75.8348 71.3378 75.8348L89.2926 65.2229V65.2219C89.4048 65.0805 89.4959 64.9469 89.565 64.8213V64.8203L56.2097 79.1762L20.6035 74.1502Z" fill="#5C5C5C"/>
<path fill-rule="evenodd" clip-rule="evenodd" d="M12.0007 52.0273C10.8952 52.0273 9.99805 52.9136 9.99805 54.0057C9.99805 55.0977 10.8952 55.984 12.0007 55.984C13.1062 55.984 14.0034 55.0977 14.0034 54.0057C14.0034 52.9136 13.1062 52.0273 12.0007 52.0273Z" fill="#6EE3FF"/>
<path fill-rule="evenodd" clip-rule="evenodd" d="M18.3232 47.2124H5.05664L10.594 79.4981H18.3232C18.5866 79.4981 18.8009 79.2864 18.8009 79.0263V47.6852C18.8009 47.4241 18.5866 47.2124 18.3232 47.2124Z" fill="#5C5C5C"/>
<path fill-rule="evenodd" clip-rule="evenodd" d="M12.0007 55.984C10.8952 55.984 9.99805 55.0977 9.99805 54.0057C9.99805 52.9136 10.8952 52.0273 12.0007 52.0273C13.1062 52.0273 14.0034 52.9136 14.0034 54.0057C14.0034 55.0977 13.1062 55.984 12.0007 55.984Z" fill="white"/>
<path fill-rule="evenodd" clip-rule="evenodd" d="M89.5658 64.821C89.4967 64.9476 89.4055 65.0811 89.2934 65.2226C89.0951 65.4699 88.8448 65.735 88.4803 66.0297C81.5471 70.0804 75.8306 73.3506 71.3386 75.8354C71.3386 75.8354 71.3386 75.8354 71.3376 75.8354C70.6647 76.2074 70.0229 76.5605 69.406 76.8968C69.2879 76.9611 69.1787 77.0205 69.0616 77.0828C68.5699 77.3508 68.0933 77.609 67.6387 77.8524C67.4865 77.9335 67.3423 78.0106 67.1941 78.0898C66.7966 78.3014 66.41 78.5062 66.0426 78.6991C65.8813 78.7832 65.7251 78.8643 65.5699 78.9454C65.2365 79.1185 64.9171 79.2837 64.6097 79.44C64.4535 79.5201 64.2993 79.5992 64.1491 79.6744C63.8677 79.8169 63.6013 79.9484 63.344 80.075C63.2008 80.1463 63.0546 80.2175 62.9184 80.2838C62.6751 80.4015 62.4498 80.5073 62.2295 80.6102C62.1093 80.6666 61.9832 80.7269 61.871 80.7783C61.6487 80.8792 61.4515 80.9653 61.2572 81.0484C61.1721 81.085 61.076 81.1285 60.9969 81.1621C60.7355 81.271 60.4992 81.3639 60.2949 81.4361C57.344 82.4837 54.0286 82.4797 50.3878 81.4084L27.6306 76.1005L20.6043 74.4931V74.2656V74.1509V53.486L28.4277 51.3237C33.6516 51.0952 37.3305 52.5156 39.6976 55.6661C41.9156 58.6198 48.4282 59.7603 54.1738 60.7673C57.2389 61.3034 62.9414 62.3025 62.9414 63.2986V65.7765C60.316 66.6806 57.6254 67.5709 54.8717 68.4394L39.6516 63.8664C39.1779 63.723 38.6723 63.9881 38.5271 64.4589C38.3829 64.9298 38.6512 65.4263 39.1279 65.5698L54.8828 70.303L55.1511 70.2199C63.0636 67.7301 70.4915 65.0791 77.2274 62.3371C86.8341 58.4289 88.6956 61.7713 89.5918 63.3787C89.717 63.6043 89.9663 64.087 89.5658 64.821ZM91.1709 62.5191C89.6519 59.7969 86.4877 56.6444 76.5405 60.6912C72.8135 62.2085 68.8643 63.6963 64.7449 65.1464V63.2986C64.7449 60.8099 60.4421 60.0571 54.4892 59.0135C49.3414 58.1124 42.9369 56.9906 41.1455 54.6057C38.4139 50.9705 34.0702 49.2711 28.2384 49.5501L20.8366 51.5986C20.7485 51.6234 20.6764 51.6718 20.6043 51.7174V47.6845C20.6043 47.183 20.4311 46.724 20.1497 46.3491C20.1307 46.3244 20.1106 46.3026 20.0906 46.2779C19.6721 45.7665 19.0392 45.4321 18.3243 45.4321H0.902172C0.420533 45.4321 0.0340204 45.808 0.00898718 46.2779C0.00898718 46.2937 0.000976562 46.3066 0.000976562 46.3224C0.000976562 46.814 0.404512 47.2126 0.902172 47.2126H5.05768H18.3243C18.5866 47.2126 18.8009 47.4243 18.8009 47.6845V79.0255C18.8009 79.2867 18.5866 79.4983 18.3243 79.4983H10.595H7.28864C6.807 79.4983 6.42049 79.8742 6.39546 80.3441C6.39446 80.3599 6.38745 80.3728 6.38745 80.3886C6.38745 80.8802 6.79098 81.2789 7.28864 81.2789H18.3243C19.5809 81.2789 20.6043 80.2679 20.6043 79.0255V76.2311C20.6864 76.2825 20.7745 76.331 20.8747 76.3538L49.9232 83.1276C51.8978 83.7093 53.8043 84.0001 55.6308 84.0001C56.2496 84.0001 56.8544 83.9546 57.4542 83.8883C57.5183 83.8814 57.5823 83.8725 57.6464 83.8636C58.7659 83.7261 59.8554 83.4847 60.9047 83.1118C64.139 81.9634 73.4794 76.8652 89.4556 67.5283L89.5618 67.4561C92.0601 65.4708 91.8158 63.6755 91.1709 62.5191Z" fill="#E8E8E8"/>
<path fill-rule="evenodd" clip-rule="evenodd" d="M11.082 17.6448H14.4327V15.8643H11.082V17.6448Z" fill="#E8E8E8"/>
<path fill-rule="evenodd" clip-rule="evenodd" d="M16.0439 14.2727H17.8467V10.9639H16.0439V14.2727Z" fill="#E8E8E8"/>
<path fill-rule="evenodd" clip-rule="evenodd" d="M19.457 17.6448H22.8057V15.8643H19.457V17.6448Z" fill="#E8E8E8"/>
<path fill-rule="evenodd" clip-rule="evenodd" d="M16.0439 22.5451H17.8467V19.2354H16.0439V22.5451Z" fill="#E8E8E8"/>
<path fill-rule="evenodd" clip-rule="evenodd" d="M93.9199 44.3538L96.2264 44.3636L96.2343 42.5831L93.9279 42.5732L93.9199 44.3538Z" fill="#E8E8E8"/>
<path fill-rule="evenodd" clip-rule="evenodd" d="M97.0664 41.849L98.8691 41.8569L98.8791 39.6856L97.0763 39.6787L97.0664 41.849Z" fill="#E8E8E8"/>
<path fill-rule="evenodd" clip-rule="evenodd" d="M99.6945 42.5977L99.6865 44.3782L101.993 44.3881L102.001 42.6076L99.6945 42.5977Z" fill="#E8E8E8"/>
<path fill-rule="evenodd" clip-rule="evenodd" d="M97.043 47.2757L98.8447 47.2826L98.8546 45.1124L97.0529 45.1055L97.043 47.2757Z" fill="#E8E8E8"/>
</svg>
