<svg width="128" height="108" viewBox="0 0 128 108" fill="none" xmlns="http://www.w3.org/2000/svg">
<path fill-rule="evenodd" clip-rule="evenodd" d="M58.6847 107.007C103.469 111.538 126.545 100.567 127.914 74.0936C129.967 34.3839 94.6231 39.1794 84.07 29.3603C73.5159 19.5413 86.244 32.6008 66.7146 10.9066C53.6963 -3.55557 36.354 -3.63526 14.6895 10.6685C-2.78391 24.8398 -4.66882 43.43 9.03579 66.4412C22.7404 89.4523 39.2904 102.974 58.6847 107.007Z" fill="#191919"/>
<path fill-rule="evenodd" clip-rule="evenodd" d="M104.18 15.813H49.6624C49.1852 15.813 48.803 16.1865 48.774 16.6547H43.6775C43.6475 16.1865 43.2663 15.813 42.7881 15.813H23.8219C16.9286 15.82 11.3449 21.4134 11.3379 28.3137V51.3498C11.3379 51.7871 11.658 52.1338 12.0732 52.2134C12.1293 52.2244 12.1803 52.2463 12.2383 52.2463C12.3744 52.2463 12.4995 52.2124 12.6145 52.1587V55.4689C12.9227 55.6113 13.1388 55.9171 13.1388 56.2777V56.5338V57.1334V58.3537C13.1388 58.7133 12.9227 59.0202 12.6145 59.1626V66.8768C12.4995 66.824 12.3744 66.7892 12.2383 66.7892C12.1803 66.7892 12.1293 66.8111 12.0732 66.822C11.658 66.9017 11.3379 67.2484 11.3379 67.6857V75.5105C11.3449 82.4108 16.9286 88.0052 23.8209 88.0122H104.191C111.079 87.9983 116.656 82.4069 116.663 75.5115V28.3147C116.656 21.4134 111.072 15.82 104.18 15.813Z" fill="#5C5C5C"/>
<path fill-rule="evenodd" clip-rule="evenodd" d="M102.764 8.53284L101.577 9.71428L99.6269 7.77178L97.68 9.7103L96.4884 8.52288L98.4343 6.58536L96.4844 4.64286L97.6709 3.46143L99.6219 5.40293L101.568 3.46541L102.76 4.65183L100.813 6.59034L102.764 8.53284Z" fill="#6EE3FF"/>
<path fill-rule="evenodd" clip-rule="evenodd" d="M13.1385 67.6857V74.7853V75.5095C13.1435 79.8896 15.7698 83.6471 19.5256 85.3067C20.8412 85.8885 22.2919 86.2182 23.8217 86.2192H104.188C110.081 86.2072 114.856 81.4187 114.862 75.5105V28.3158C114.856 22.4026 110.074 17.6121 104.178 17.6061H49.6621C49.1649 17.6061 48.7617 17.2047 48.7617 16.7096C48.7617 16.6906 48.7717 16.6737 48.7737 16.6548H43.6772C43.6782 16.6737 43.6883 16.6906 43.6883 16.7096C43.6883 17.2047 43.2851 17.6061 42.7878 17.6061H37.0881H23.8227C20.7692 17.6091 18.0219 18.9021 16.0759 20.9622C14.2621 22.8797 13.1415 25.4638 13.1385 28.3148V33.2288V48.1711V51.3508C13.1385 51.7104 12.9224 52.0172 12.6143 52.1597V55.4689C12.9224 55.6114 13.1385 55.9182 13.1385 56.2778V56.5348V57.1345V58.3538C13.1385 58.7144 12.9224 59.0202 12.6143 59.1627V66.8769C12.9224 67.0193 13.1385 67.3261 13.1385 67.6857Z" fill="white"/>
<path fill-rule="evenodd" clip-rule="evenodd" d="M13.1379 58.3534V57.1341V56.5344V56.2774C13.1379 55.9178 12.9219 55.611 12.6139 55.4685C12.4989 55.4157 12.3739 55.3809 12.2379 55.3809C12.1799 55.3809 12.1289 55.4038 12.0739 55.4137C11.6579 55.4934 11.3379 55.8411 11.3379 56.2774V56.5344V57.1341V58.3534C11.3379 58.7897 11.6579 59.1374 12.0739 59.217C12.1289 59.227 12.1799 59.2499 12.2379 59.2499C12.3739 59.2499 12.4989 59.2161 12.6139 59.1623C12.9219 59.0198 13.1379 58.714 13.1379 58.3534Z" fill="white"/>
<path fill-rule="evenodd" clip-rule="evenodd" d="M13.1377 48.1708H16.0751V33.2285H13.1377V48.1708Z" fill="#6EE3FF"/>
<path fill-rule="evenodd" clip-rule="evenodd" d="M104.179 17.606H82.7004L73.7121 33.2286H114.862V28.3156C114.856 22.4014 110.075 17.6119 104.179 17.606ZM43.2245 86.2189H104.189C110.081 86.207 114.856 81.4185 114.862 75.5103V48.1708H65.1151L43.2245 86.2189ZM13.1387 51.3502C13.1387 51.8452 12.7355 52.2467 12.2383 52.2467C12.1803 52.2467 12.1292 52.2238 12.0742 52.2138V55.4145C12.1292 55.4035 12.1803 55.3806 12.2383 55.3806C12.7355 55.3806 13.1387 55.7821 13.1387 56.2771V56.5341V57.1338V58.3531C13.1387 58.8482 12.7355 59.2497 12.2383 59.2497C12.1803 59.2497 12.1292 59.2277 12.0742 59.2168V66.8224C12.1292 66.8115 12.1803 66.7895 12.2383 66.7895C12.7355 66.7895 13.1387 67.19 13.1387 67.6851V74.7847V75.5099C13.1437 79.889 15.77 83.6465 19.5258 85.307C20.7534 85.7613 22.076 86.0233 23.4607 86.0243H26.6012C20.7134 85.5411 16.0812 80.6132 16.0761 74.5904V48.1704H13.1387V51.3502ZM16.0757 20.9616C14.2619 22.8802 13.1413 25.4632 13.1383 28.3142V33.2282H16.0757V20.9616Z" fill="#E8E8E8"/>
<path fill-rule="evenodd" clip-rule="evenodd" d="M16.0752 48.1708H114.122V33.2285H16.0752V48.1708Z" fill="#0D4F80"/>
<path fill-rule="evenodd" clip-rule="evenodd" d="M115.024 33.2285H114.861H73.7124L65.1152 48.1708H114.861H115.024V33.2285Z" fill="#0F2B4A"/>
<path fill-rule="evenodd" clip-rule="evenodd" d="M16.1895 61.9685H74.2174V57.9839H16.1895V61.9685Z" fill="#EC0000"/>
<path fill-rule="evenodd" clip-rule="evenodd" d="M57.1758 61.9685H74.216V57.9839H59.4679L57.1758 61.9685Z" fill="#990000"/>
<path fill-rule="evenodd" clip-rule="evenodd" d="M30.5857 98.1452L29.4811 99.245L28.1225 97.8932L26.7598 99.25L25.6553 98.1512L27.0189 96.7944L25.6613 95.4416L26.7658 94.3419L28.1245 95.6947L29.4871 94.3369L30.5907 95.4357L29.228 96.7934L30.5857 98.1452Z" fill="#0D4F80"/>
</svg>
