<svg width="138" height="24" viewBox="0 0 138 24" fill="none" xmlns="http://www.w3.org/2000/svg">
<path fill-rule="evenodd" clip-rule="evenodd" d="M137.5 10.7686C137.5 11.5497 137.405 12.4963 137.263 12.9935C136.647 12.9222 136.031 12.8987 135.296 12.8987C134.657 12.8987 134.017 12.9462 133.377 13.0406V23.1703H130.771V11.3366C131.884 10.9579 133.756 10.6741 135.225 10.6741C136.031 10.6741 136.931 10.6976 137.5 10.7686ZM120.013 15.9281H125.889C125.889 13.9873 124.847 12.8514 123.046 12.8514C121.198 12.8514 120.226 13.9163 120.013 15.9281ZM128.377 18.1055H120.06C120.392 20.2118 121.624 21.2296 123.946 21.2296C125.368 21.2296 126.813 20.9219 128.116 20.3301C128.022 21.0165 127.88 21.9159 127.714 22.6968C126.529 23.2413 125.273 23.4542 123.875 23.4542C119.515 23.4542 117.407 21.0402 117.407 16.9931C117.407 13.4667 119.042 10.6741 123.188 10.6741C126.908 10.6741 128.519 13.1116 128.519 16.0937C128.519 16.8275 128.472 17.4191 128.377 18.1055ZM112.691 20.4247V13.1354C112.004 12.9935 111.293 12.8987 110.606 12.8987C108.023 12.8987 106.791 14.5081 106.791 17.2062C106.791 19.6202 107.763 21.3243 110.085 21.3243C111.127 21.3243 111.98 20.9692 112.691 20.4247ZM115.274 6.60321V23.1703H112.88L112.738 21.6556C112.075 22.7681 111.056 23.4542 109.35 23.4542C106.222 23.4542 104.137 21.1821 104.137 17.2062C104.137 13.0406 106.364 10.6741 110.748 10.6741C111.435 10.6741 112.075 10.7449 112.691 10.8634V6.95825C113.496 6.67418 114.42 6.60321 115.274 6.60321ZM102.051 15.2182V23.1703H99.4451V15.6677C99.4451 13.7982 98.829 12.8987 96.2225 12.8987C95.6065 12.8987 94.8719 12.9697 94.1612 13.0879V23.1703H91.5548V11.3366C93.2133 10.9344 95.0379 10.6741 96.2936 10.6741C100.653 10.6741 102.051 12.3542 102.051 15.2182ZM86.1044 20.4722V13.0406C85.5596 12.9462 84.9669 12.8987 84.2327 12.8987C81.5313 12.8987 80.2757 14.5554 80.2757 17.2062C80.2757 19.6202 81.2473 21.3243 83.5691 21.3243C84.588 21.3243 85.4175 20.993 86.1044 20.4722ZM88.711 11.3366V23.1703H86.3177L86.1758 21.7503C85.5122 22.7916 84.4932 23.4542 82.8347 23.4542C79.707 23.4542 77.622 21.1821 77.622 17.2062C77.622 13.0406 79.8491 10.6741 84.2327 10.6741C85.9387 10.6741 87.3367 10.8634 88.711 11.3366ZM74.7305 21.2296C75.4888 21.2296 76.1997 21.0875 76.7683 20.8746C76.6973 21.5845 76.6024 22.3894 76.4602 23.0755C75.7493 23.3595 74.9912 23.4542 74.2568 23.4542C71.7214 23.4542 70.1101 22.2944 70.1101 19.4071V6.98191C70.9158 6.7215 71.9109 6.60321 72.7167 6.60321V11.0763H76.8394C76.792 11.881 76.7211 12.6148 76.6024 13.3009H72.7167V19.0995C72.7167 20.6378 73.4748 21.2296 74.7305 21.2296ZM67.5032 15.2182V23.1703H64.8967V15.6677C64.8967 13.7982 64.2806 12.8987 61.6743 12.8987C61.0581 12.8987 60.3237 12.9697 59.6128 13.0879V23.1703H57.0065V11.3366C58.6651 10.9344 60.4895 10.6741 61.7454 10.6741C66.1052 10.6741 67.5032 12.3542 67.5032 15.2182ZM51.5561 20.4722V13.0406C51.0112 12.9462 50.4189 12.8987 49.6843 12.8987C46.9831 12.8987 45.7274 14.5554 45.7274 17.2062C45.7274 19.6202 46.6989 21.3243 49.0209 21.3243C50.0398 21.3243 50.8691 20.993 51.5561 20.4722ZM54.1626 11.3366V23.1703H51.7695L51.6274 21.7503C50.9638 22.7916 49.945 23.4542 48.2865 23.4542C45.1587 23.4542 43.0736 21.1821 43.0736 17.2062C43.0736 13.0406 45.3009 10.6741 49.6843 10.6741C51.3903 10.6741 52.7883 10.8634 54.1626 11.3366ZM30.4913 22.6496C30.5387 21.6791 30.6808 21.0165 30.9415 20.2593C32.2684 20.8746 33.9743 21.1821 35.2777 21.1821C37.4811 21.1821 38.7133 20.4722 38.7133 19.0759C38.7133 17.7032 37.8129 17.0641 35.5856 16.0937L34.3771 15.5733C32.1498 14.6028 30.6334 13.3484 30.6334 10.8396C30.6334 8.14167 32.5054 6.41377 36.3439 6.41377C37.8839 6.41377 39.3293 6.62703 40.6799 7.1002C40.6088 8.04687 40.443 8.78061 40.206 9.46704C38.9265 8.99354 37.4101 8.78061 36.32 8.78061C34.2587 8.78061 33.3109 9.58534 33.3109 10.8396C33.3109 12.0703 34.235 12.7804 35.8937 13.4905L37.1732 14.0346C40.1823 15.3128 41.438 16.6619 41.438 18.9576C41.438 21.6791 39.3767 23.549 35.3486 23.549C33.4057 23.549 31.8182 23.2651 30.4913 22.6496ZM18.5816 10.9815C18.5441 10.1176 18.3021 9.26049 17.8542 8.48581L13.9043 1.65206C13.6031 1.13107 13.3949 0.572499 13.2795 0L13.1144 0.285411C12.1367 1.9769 12.1367 4.06068 13.1142 5.75217L16.2743 11.2191C17.2518 12.9106 17.2518 14.9945 16.2743 16.6859L16.1092 16.9714C15.9936 16.3988 15.7855 15.8404 15.4843 15.3194L12.5915 10.3144L10.7443 7.11882C10.4431 6.59784 10.2352 6.03926 10.1194 5.46676L9.95446 5.75234C8.98016 7.43796 8.97713 9.51352 9.94489 11.2018L9.94455 11.202L13.1144 16.6859C14.0921 18.3774 14.0921 20.4613 13.1144 22.1528L12.9493 22.4384C12.8337 21.8657 12.6256 21.3073 12.3244 20.7862L8.37457 13.9526C7.84475 13.0359 7.60269 12.0042 7.64704 10.9822C3.41855 12.0856 0.5 14.4286 0.5 17.1414C0.5 20.9155 6.14761 23.975 13.1144 23.975C20.081 23.975 25.7286 20.9155 25.7286 17.1414C25.7286 14.4286 22.8104 12.0849 18.5816 10.9815Z" fill="#EC0000"/>
</svg>
