<svg width="86" height="47" viewBox="0 0 86 47" fill="none" xmlns="http://www.w3.org/2000/svg">
<rect x="11" width="64" height="64" rx="12" fill="#F2F2F2"/>
<path fill-rule="evenodd" clip-rule="evenodd" d="M52.4971 35C52.7734 35 52.9971 35.2232 52.9971 35.4991V38.0345C52.9971 40.221 51.2148 42 49.0244 42H36.9727C34.7822 42 33 40.221 33 38.0345V35.4991C33 35.2232 33.2236 35 33.5 35C33.7764 35 34 35.2232 34 35.4991V38.0345C34 39.6702 35.334 41.0018 36.9727 41.0018H49.0244C50.6631 41.0018 51.9971 39.6702 51.9971 38.0345V35.4991C51.9971 35.2232 52.2207 35 52.4971 35ZM43 22C43.2956 22 43.5348 22.2325 43.5348 22.5199V35.2257L46.587 32.2588C46.796 32.0558 47.1344 32.0558 47.3433 32.2588C47.5522 32.4619 47.5522 32.7909 47.3433 32.9939L43.3788 36.8476C43.3293 36.8959 43.27 36.9341 43.2042 36.9606C43.0735 37.0131 42.9265 37.0131 42.7958 36.9606C42.73 36.9341 42.6707 36.8959 42.6212 36.8476L38.6567 32.9939C38.5522 32.8924 38.5 32.7594 38.5 32.6264C38.5 32.4934 38.5522 32.3604 38.6567 32.2588C38.8656 32.0558 39.204 32.0558 39.413 32.2588L42.4652 35.2257V22.5199C42.4652 22.2325 42.7044 22 43 22Z" fill="#EC0000"/>
</svg>
