<svg width="68" height="68" viewBox="0 0 68 68" fill="none" xmlns="http://www.w3.org/2000/svg">
<rect width="68" height="68" rx="12" fill="#F2F2F2"/>
<path fill-rule="evenodd" clip-rule="evenodd" d="M45.0801 37.5C45.4025 37.5 45.6634 37.7604 45.6634 38.0823V41.0403C45.6634 43.5911 43.5841 45.6666 41.0286 45.6666H26.9683C24.4128 45.6666 22.3335 43.5911 22.3335 41.0403V38.0823C22.3335 37.7604 22.5944 37.5 22.9168 37.5C23.2393 37.5 23.5002 37.7604 23.5002 38.0823V41.0403C23.5002 42.9486 25.0565 44.5021 26.9683 44.5021H41.0286C42.9404 44.5021 44.4967 42.9486 44.4967 41.0403V38.0823C44.4967 37.7604 44.7576 37.5 45.0801 37.5ZM34.0002 22.3333C34.345 22.3333 34.6241 22.6046 34.6241 22.9398V37.7633L38.1851 34.3019C38.4288 34.065 38.8236 34.065 39.0674 34.3019C39.3111 34.5389 39.3111 34.9227 39.0674 35.1596L34.4421 39.6556C34.3843 39.7118 34.3152 39.7565 34.2384 39.7873C34.0859 39.8486 33.9144 39.8486 33.7619 39.7873C33.6851 39.7565 33.616 39.7118 33.5582 39.6556L28.933 35.1596C28.8111 35.0411 28.7502 34.8859 28.7502 34.7308C28.7502 34.5756 28.8111 34.4204 28.933 34.3019C29.1767 34.065 29.5715 34.065 29.8153 34.3019L33.3762 37.7633V22.9398C33.3762 22.6046 33.6553 22.3333 34.0002 22.3333Z" fill="#EC0000"/>
</svg>
