<svg width="32" height="32" viewBox="0 0 32 32" fill="none" xmlns="http://www.w3.org/2000/svg">
<g clip-path="url(#clip0_1677_9354)">
<g opacity="0.2">
<rect width="32" height="32.0017" fill="#EC0000"/>
</g>
<path d="M9.19064 22V12.424C9.65264 12.284 10.4226 12.186 11.0106 12.186V20.418H14.4406C14.4266 20.866 14.3566 21.566 14.2866 22H9.19064ZM18.4854 12.06C22.0134 12.06 23.3854 14.16 23.3854 17.058C23.3854 20.166 21.7614 22 18.5414 22H15.6574V12.326C16.4274 12.158 17.3094 12.06 18.4854 12.06ZM18.5834 20.432C20.6134 20.432 21.4814 19.312 21.4814 17.058C21.4814 14.846 20.5854 13.628 18.4994 13.628C18.1774 13.628 17.8274 13.642 17.4774 13.684V20.432H18.5834Z" fill="#CC0000"/>
</g>
<defs>
<clipPath id="clip0_1677_9354">
<rect width="32" height="32.0009" rx="16" fill="white"/>
</clipPath>
</defs>
</svg>
