<svg width="20" height="20" viewBox="0 0 20 20" fill="none" xmlns="http://www.w3.org/2000/svg">
<path fill-rule="evenodd" clip-rule="evenodd" d="M9.98964 2.5L12.0843 4.93056V15.6858C12.0843 16.4576 11.4458 17.0833 10.6582 17.0833H3.09375C2.30615 17.0833 1.66766 16.4576 1.66766 15.6858V3.89757C1.66766 3.12571 2.30615 2.5 3.09375 2.5H9.98964ZM9.5592 3.40842H3.09375C2.81809 3.40842 2.59462 3.62742 2.59462 3.89757V15.6858C2.59462 15.9559 2.81809 16.1749 3.09375 16.1749H10.6582C10.9339 16.1749 11.1574 15.9559 11.1574 15.6858V5.26284L9.5592 3.40842ZM16.6415 5.625C17.5271 5.625 18.2644 6.29244 18.3296 7.15474L18.3343 7.2792V13.3458C18.3343 14.2256 17.6372 14.933 16.7669 14.9955L16.6415 15H13.1675V14.1182H16.6415C17.0797 14.1182 17.4298 13.8131 17.4776 13.4344L17.4831 13.3458L17.4827 12.435L13.1675 12.4358V11.0203L17.4827 11.02L17.4831 7.2792C17.4831 6.89058 17.1644 6.55765 16.741 6.51207L16.6415 6.50676H13.126V5.625H16.6415ZM10.001 13.5054V14.5471H3.751V13.5054H10.001ZM7.07078 5.03374C7.24276 5.08207 7.36055 5.22899 7.36055 5.39562V7.33051H8.82848C9.04152 7.33051 9.23494 7.44057 9.33121 7.61599C9.42843 7.79189 9.4105 8.00181 9.28514 8.16158L6.97068 11.1113C6.89356 11.2098 6.77063 11.2672 6.64062 11.2672C6.59783 11.2672 6.55528 11.2611 6.51467 11.2488C6.34653 11.1982 6.23263 11.053 6.23263 10.8891V9.24333H4.74977C4.54134 9.24333 4.35025 9.13716 4.25188 8.96678C4.15355 8.79646 4.16438 8.59044 4.27993 8.42953L6.6131 5.18586C6.71291 5.0471 6.89882 4.98489 7.07078 5.03374ZM6.54457 6.64457L5.21988 8.48628L6.64062 8.48703C6.86602 8.48703 7.04861 8.65627 7.04861 8.86518V9.7262L8.33439 8.08754L6.95256 8.08681C6.72717 8.08681 6.54457 7.91757 6.54457 7.70866V6.64457Z" fill="#595959"/>
</svg>
