<svg width="16" height="16" viewBox="0 0 16 16" fill="none" xmlns="http://www.w3.org/2000/svg">
<g id="System / ChevronDown">
<path id="&#240;&#159;&#140;&#136; Color" fill-rule="evenodd" clip-rule="evenodd" d="M2.66669 5.50362C2.66553 5.28243 2.74501 5.06984 2.88759 4.91281C3.03061 4.75527 3.22529 4.66666 3.42838 4.66666C3.63148 4.66666 3.82616 4.75527 3.96918 4.91281L7.99846 9.32308L12.0278 4.91281C12.3264 4.58651 12.8107 4.58651 13.1093 4.91281C13.408 5.2391 13.408 5.76813 13.1093 6.09443L8.53926 11.0872C8.39624 11.2447 8.20156 11.3333 7.99846 11.3333C7.79537 11.3333 7.60069 11.2447 7.45767 11.0872L2.88759 6.09443C2.74501 5.93739 2.66553 5.7248 2.66669 5.50362Z" fill="#EC0000"/>
</g>
</svg>
