<svg width="20" height="20" viewBox="0 0 20 20" fill="none" xmlns="http://www.w3.org/2000/svg">
<g id="Chanels / CommunicationMessage">
<path id="&#240;&#159;&#140;&#136; Color" fill-rule="evenodd" clip-rule="evenodd" d="M15.4171 1.66666C15.6479 1.66666 15.8338 1.85332 15.8338 2.08332V4.92332L18.2429 7.93249C18.2471 7.93749 18.2479 7.94416 18.2521 7.94999C18.2554 7.95416 18.2596 7.95582 18.2621 7.95999C18.2696 7.97082 18.2704 7.98416 18.2771 7.99499C18.2879 8.01416 18.2971 8.03249 18.3054 8.05332L18.3204 8.09916C18.3246 8.11832 18.3246 8.13666 18.3263 8.15499C18.3271 8.16832 18.3329 8.17916 18.3329 8.19249V15.0908C18.3329 15.7958 18.1013 16.4433 17.7188 16.9758C17.7063 16.995 17.7004 17.0167 17.6846 17.0342C17.6738 17.0467 17.6596 17.0517 17.6471 17.0625C17.0538 17.83 16.1346 18.3333 15.0913 18.3333H4.90876C3.88376 18.3333 2.97959 17.8458 2.38543 17.1008C2.35793 17.0825 2.32876 17.0692 2.30626 17.0442C2.27209 17.005 2.24959 16.9617 2.23126 16.9158C1.87543 16.395 1.66626 15.7675 1.66626 15.0908V8.19249C1.66626 8.17749 1.67209 8.16332 1.67376 8.14832C1.67626 8.12749 1.67876 8.10832 1.68459 8.08832C1.69376 8.05582 1.70626 8.02499 1.72293 7.99582C1.72959 7.98416 1.73043 7.97082 1.73709 7.95999C1.74043 7.95582 1.74459 7.95416 1.74793 7.94999L1.75793 7.93249L4.16709 4.92249V2.08332C4.16709 1.85332 4.35376 1.66666 4.58376 1.66666H15.4171ZM10.5529 11.2625C10.2396 10.9817 9.76543 10.9808 9.44876 11.2617L3.21126 16.7975C3.64709 17.2317 4.24709 17.5 4.90876 17.5H15.0913C15.7538 17.5 16.3538 17.2308 16.7896 16.7967L10.5529 11.2625ZM2.49959 8.97416V15.0908C2.49959 15.4558 2.58793 15.7983 2.73293 16.1075L7.20876 12.1358L2.49959 8.97416ZM17.4996 8.97416L12.7929 12.1358L17.2671 16.1067C17.4129 15.7967 17.4996 15.455 17.4996 15.0908V8.97416ZM15.0004 2.49999H5.00043V9.64999L7.85209 11.5642L8.89543 10.6392C9.52626 10.0767 10.4788 10.0783 11.1071 10.64L12.1488 11.5642L15.0004 9.64916V2.49999ZM4.16709 6.25582L2.69126 8.09916L4.16709 9.08999V6.25582ZM15.8338 6.25749V9.08999L17.3088 8.09916L15.8338 6.25749ZM12.9166 6.66666C13.1466 6.66666 13.3333 6.85332 13.3333 7.08332C13.3333 7.31332 13.1466 7.49999 12.9166 7.49999H7.08326C6.85326 7.49999 6.66659 7.31332 6.66659 7.08332C6.66659 6.85332 6.85326 6.66666 7.08326 6.66666H12.9166ZM12.9166 4.16666C13.1466 4.16666 13.3333 4.35332 13.3333 4.58332C13.3333 4.81332 13.1466 4.99999 12.9166 4.99999H7.08326C6.85326 4.99999 6.66659 4.81332 6.66659 4.58332C6.66659 4.35332 6.85326 4.16666 7.08326 4.16666H12.9166Z" fill="#191919"/>
</g>
</svg>
