<svg width="20" height="20" viewBox="0 0 20 20" fill="none" xmlns="http://www.w3.org/2000/svg">
<g id="Banking / Financing">
<path id="&#240;&#159;&#140;&#136; Color" fill-rule="evenodd" clip-rule="evenodd" d="M6.23955 11.6552C6.46967 11.6552 6.65622 11.8411 6.65622 12.0706L6.65539 12.4853L8.9943 12.486C9.42796 12.486 9.84568 12.6386 10.1754 12.9141L10.2948 13.023C10.4834 13.2111 10.7392 13.3168 11.006 13.3168H13.7501C14.3657 13.3168 14.8769 13.7599 14.9808 14.3435L16.3584 13.7005C17.013 13.3669 17.8487 13.5359 18.1808 14.2222C18.5126 14.9079 18.2917 15.628 17.6007 16.0767L14.1027 17.8856C13.1617 18.3706 11.2136 18.4732 10.2199 18.1342L6.65539 17.4253L6.65622 17.8862C6.65622 18.1156 6.46967 18.3016 6.23955 18.3016H3.58455C2.52536 18.3016 1.66705 17.4453 1.66705 16.3891V12.0706C1.66705 11.8411 1.8536 11.6552 2.08372 11.6552H6.23955ZM6.65539 16.5778L10.435 17.3333C11.2725 17.6159 12.9863 17.5257 13.7195 17.1478L17.1806 15.3604C17.4926 15.1566 17.5761 14.8846 17.4303 14.5832C17.3243 14.3642 17.0112 14.3009 16.7249 14.4465L14.6692 15.4078C14.4408 15.6546 14.1137 15.8092 13.7501 15.8092H11.2501C11.02 15.8092 10.8335 15.6232 10.8335 15.3938C10.8335 15.1644 11.02 14.9784 11.2501 14.9784H13.7501C13.8395 14.9784 13.9223 14.9504 13.9901 14.9027C14.0286 14.8237 14.0941 14.7586 14.1795 14.7187L14.1199 14.7548C14.1499 14.6975 14.1668 14.6322 14.1668 14.563C14.1668 14.3334 13.9805 14.1476 13.7501 14.1476H11.006C10.5181 14.1476 10.0504 13.9544 9.70551 13.6105C9.51685 13.4224 9.26112 13.3168 8.9943 13.3168L6.65539 13.3162V16.5778ZM5.82289 12.486H2.50039V16.3891C2.50039 16.9866 2.98574 17.4708 3.58455 17.4708H5.82289V12.486ZM9.29731 1.67478C9.59062 1.64301 9.91221 1.69975 10.3939 1.83478C10.4521 1.85107 10.4921 1.8626 10.5881 1.89054C11.1137 2.04397 11.2664 2.08176 11.3928 2.08087C11.5117 2.08175 11.6627 2.04431 12.1892 1.89056C12.2382 1.8763 12.2729 1.86623 12.3028 1.85765L12.3873 1.83367C12.8674 1.69928 13.1896 1.6428 13.4827 1.67501C13.9685 1.72837 14.2797 2.05597 14.2797 2.58101C14.2797 3.12958 13.9698 3.62476 13.471 4.07858C13.3939 4.14873 13.317 4.21386 13.2421 4.27368C14.4533 5.23642 15.1931 6.70896 15.1931 8.32844C15.1931 10.2071 13.7599 11.0277 11.3889 11.0277C9.01859 11.0277 7.58555 10.207 7.58555 8.32844C7.58555 6.70918 8.32516 5.23664 9.53494 4.27225C9.46051 4.21296 9.38415 4.14825 9.30758 4.07858C8.80884 3.62476 8.49889 3.12958 8.49889 2.58101C8.49889 2.05515 8.81078 1.72747 9.29731 1.67478ZM12.3929 4.68367L10.3833 4.68366C9.17465 5.47635 8.41889 6.82598 8.41889 8.32844C8.41889 9.62479 9.4179 10.1969 11.3889 10.1969C13.3606 10.1969 14.3597 9.62485 14.3597 8.32844C14.3597 6.78662 13.5639 5.40598 12.2991 4.62284L12.3929 4.68367ZM13.3915 2.50081C13.2388 2.48404 12.9922 2.52728 12.6126 2.63355C12.5568 2.64917 12.5186 2.66016 12.4235 2.68786C11.7761 2.8769 11.6288 2.91344 11.3928 2.91166L11.338 2.91133C11.1235 2.90682 10.9496 2.86174 10.354 2.68787C10.3073 2.67429 10.2746 2.6648 10.2467 2.65679L10.1684 2.63458C9.78699 2.52767 9.54034 2.48415 9.38731 2.50073C9.31407 2.50866 9.33222 2.48959 9.33222 2.58101C9.33222 2.84227 9.52696 3.15338 9.86936 3.46494C10.0523 3.63137 10.2369 3.76502 10.3767 3.85297H12.4019C12.5417 3.76502 12.7263 3.63137 12.9092 3.46494C13.2516 3.15338 13.4464 2.84227 13.4464 2.58101C13.4464 2.48987 13.4644 2.50883 13.3915 2.50081Z" fill="#191919"/>
</g>
</svg>
