<svg width="24" height="24" viewBox="0 0 24 24" fill="none" xmlns="http://www.w3.org/2000/svg">
<g id="Foundation">
<path id="&#240;&#159;&#140;&#136; Color" fill-rule="evenodd" clip-rule="evenodd" d="M16 2C18.2054 2 20 3.74479 20 5.88889V13.6667C20 13.9737 19.7444 14.2222 19.4286 14.2222H17.7143V20.3333C17.7143 21.2524 16.9453 22 16 22C15.0547 22 14.2857 21.2524 14.2857 20.3333V2.55556C14.2857 2.24848 14.5413 2 14.8571 2H16ZM11.4286 2C11.7444 2 12 2.24848 12 2.55556V7C12 8.34169 11.0167 9.46365 9.71429 9.7219V20.3333C9.71429 21.2524 8.94531 22 8 22C7.05469 22 6.28571 21.2524 6.28571 20.3333V9.7219C4.98326 9.46365 4 8.34169 4 7V2.55556C4 2.24848 4.25558 2 4.57143 2C4.88728 2 5.14286 2.24848 5.14286 2.55556V7C5.14286 7.91905 5.91183 8.66667 6.85714 8.66667C7.17299 8.66667 7.42857 8.91515 7.42857 9.22222V20.3333C7.42857 20.6399 7.68471 20.8889 8 20.8889C8.31529 20.8889 8.57143 20.6399 8.57143 20.3333V9.22222C8.57143 8.91515 8.82701 8.66667 9.14286 8.66667C10.0882 8.66667 10.8571 7.91905 10.8571 7V2.55556C10.8571 2.24848 11.1127 2 11.4286 2ZM16 3.11111H15.4286V20.3333C15.4286 20.6399 15.6847 20.8889 16 20.8889C16.3153 20.8889 16.5714 20.6399 16.5714 20.3333V13.6667C16.5714 13.3596 16.827 13.1111 17.1429 13.1111H18.8571V5.88889C18.8571 4.35731 17.5753 3.11111 16 3.11111ZM6.85714 2C7.17299 2 7.42857 2.24848 7.42857 2.55556V7C7.42857 7.30707 7.17299 7.55556 6.85714 7.55556C6.54129 7.55556 6.28571 7.30707 6.28571 7V2.55556C6.28571 2.24848 6.54129 2 6.85714 2ZM9.14286 2C9.45871 2 9.71429 2.24848 9.71429 2.55556V7C9.71429 7.30707 9.45871 7.55556 9.14286 7.55556C8.82701 7.55556 8.57143 7.30707 8.57143 7V2.55556C8.57143 2.24848 8.82701 2 9.14286 2Z" fill="#595959"/>
</g>
</svg>
