<svg width="100" height="100" viewBox="0 0 100 100" fill="none" xmlns="http://www.w3.org/2000/svg">
<circle cx="50" cy="50" r="50" fill="#F2F2F2"/>
<circle cx="83.3698" cy="13.4811" r="11.5925" fill="#EC0000"/>
<path fill-rule="evenodd" clip-rule="evenodd" d="M62.075 61.2272C70.1424 61.2272 75.9979 65.0275 75.9979 70.2653V72.3206C75.9979 75.0135 73.8075 77.2026 71.116 77.2026L28.3864 77.1969C25.6949 77.1969 23.5059 75.0078 23.5059 72.3149V70.2596C23.5059 65.278 29.7471 61.2272 37.4202 61.2272C38.882 61.2272 40.6469 61.5289 42.204 61.7937L43.1719 61.9531C44.3846 62.1495 45.5873 62.4057 46.7757 62.7188L47.3607 62.8783C48.1948 63.106 48.9833 63.3223 49.7476 63.3223C50.4735 63.3223 51.746 62.9893 52.8676 62.6989L54.1329 62.3773C56.3319 61.8535 59.4945 61.2272 62.075 61.2272ZM62.075 64.1422C60.2831 64.1422 57.7026 64.5236 54.8104 65.2125L53.6034 65.5199C52.2484 65.8729 50.8479 66.2373 49.7476 66.2373C48.5905 66.2373 47.5728 65.9583 46.5893 65.6879L46.0342 65.537C44.9354 65.2467 43.8266 65.0132 42.7079 64.8311L41.7144 64.666C40.2712 64.4211 38.6358 64.1422 37.4202 64.1422C31.5604 64.1422 26.4208 67.0002 26.4208 70.2596V72.3149C26.4208 73.3995 27.3033 74.2819 28.3864 74.2819L71.116 74.2876C72.2005 74.2876 73.083 73.4051 73.083 72.3206V70.2653C73.083 66.7753 68.3504 64.1422 62.075 64.1422ZM49.7391 23.5063C53.5707 23.5063 57.4336 25.2499 59.8205 28.0567C61.7918 30.3739 62.6173 33.2504 62.1448 36.1554L60.7841 47.4922C59.9144 53.194 55.4779 56.9943 49.7391 56.9943C44.0088 56.9943 39.5808 53.194 38.7197 47.5377L37.342 36.0956C36.878 33.2461 37.7035 30.3668 39.6748 28.0482C42.0574 25.2471 45.9132 23.5063 49.7391 23.5063ZM49.7391 26.4213C46.7444 26.4213 43.7398 27.7678 41.8952 29.9369C40.8988 31.1083 39.8 33.0583 40.2285 35.6886L41.6077 47.1449C42.2467 51.3394 45.4407 54.0793 49.7391 54.0793C54.0475 54.0793 57.2485 51.3394 57.8961 47.0993L59.2583 35.7483C59.6938 33.0625 58.5964 31.1154 57.6001 29.9455C55.7526 27.772 52.7395 26.4213 49.7391 26.4213Z" fill="#595959" stroke="#595959"/>
<path d="M82.0098 15.5814L80.6415 8.2905C81.4156 7.99239 82.5612 7.67505 83.3782 7.55796L84.144 15.2755L82.0098 15.5814ZM83.7291 19.7421C82.8621 19.8663 82.2235 19.3283 82.1136 18.5613C82.006 17.811 82.4654 17.0985 83.3325 16.9743C84.1661 16.8548 84.8072 17.4095 84.9147 18.1598C85.0246 18.9268 84.5628 19.6226 83.7291 19.7421Z" fill="white"/>
</svg>
