<svg width="102" height="64" viewBox="0 0 102 64" fill="none" xmlns="http://www.w3.org/2000/svg">
<g id="Group">
<mask id="mask0_3534_13570" style="mask-type:alpha" maskUnits="userSpaceOnUse" x="0" y="0" width="102" height="64">
<g id="big   1. front b">
<path id="Vector" d="M98.1654 0H3.83459C1.7168 0 0 1.70558 0 3.80952V60.1905C0 62.2944 1.7168 64 3.83459 64H98.1654C100.283 64 102 62.2944 102 60.1905V3.80952C102 1.70558 100.283 0 98.1654 0Z" fill="white"/>
</g>
</mask>
<g mask="url(#mask0_3534_13570)">
<g id="Group_2">
<path id="Vector_2" d="M102 0H0V64H102V0Z" fill="#0D0D0D"/>
<path id="Vector_3" fill-rule="evenodd" clip-rule="evenodd" d="M10.7284 7.3634C10.7189 7.14375 10.6574 6.92586 10.5436 6.72891L9.54024 4.99154C9.46373 4.85909 9.41086 4.71708 9.38154 4.57153L9.33959 4.64409C9.09125 5.07413 9.09124 5.60389 9.33955 6.03393L10.1423 7.4238C10.3906 7.85383 10.3906 8.38364 10.1423 8.81363L10.1003 8.88624C10.071 8.74065 10.0181 8.59868 9.94161 8.46623L9.20676 7.19379L8.73754 6.38137C8.66103 6.24892 8.6082 6.10691 8.5788 5.96137L8.5369 6.03397C8.2894 6.46251 8.28864 6.99019 8.53447 7.41941L8.53438 7.41945L9.33959 8.81363C9.58794 9.24367 9.58794 9.77348 9.33959 10.2035L9.29765 10.2761C9.26829 10.1305 9.21542 9.98856 9.13891 9.85606L8.13557 8.11874C8.00099 7.8857 7.9395 7.6234 7.95076 7.36357C6.87663 7.64409 6.13525 8.23976 6.13525 8.92945C6.13525 9.88895 7.56987 10.6668 9.33959 10.6668C11.1093 10.6668 12.5439 9.88895 12.5439 8.92945C12.5439 8.23976 11.8026 7.64391 10.7284 7.3634Z" fill="white"/>
<path id="Vector_4" fill-rule="evenodd" clip-rule="evenodd" d="M76.3085 0H102V64H76.3085L76.146 39.2204C81.8784 33.9455 84.7446 29.816 84.7446 26.8318C84.7446 23.8477 81.9326 18.62 76.3085 11.1488V0Z" fill="url(#paint0_linear_3534_13570)"/>
<g id="Group_3">
<path id="Vector_5" d="M92.1679 52.9629H89.0078V58.6414H92.1679V52.9629Z" fill="#8C8D90"/>
<path id="Vector_6" fill-rule="evenodd" clip-rule="evenodd" d="M89.2084 55.8023C89.2084 54.6485 89.7501 53.6251 90.5828 52.963C89.9708 52.4814 89.1984 52.1904 88.3557 52.1904C86.3593 52.1904 84.7441 53.8057 84.7441 55.8023C84.7441 57.7988 86.3593 59.4141 88.3557 59.4141C89.1984 59.4141 89.9708 59.1231 90.5828 58.6416C89.7501 57.9894 89.2084 56.956 89.2084 55.8023Z" fill="#6D6E71"/>
<path id="Vector_7" fill-rule="evenodd" clip-rule="evenodd" d="M96.4314 55.8023C96.4314 57.7988 94.8163 59.4141 92.8199 59.4141C91.9772 59.4141 91.2047 59.1231 90.5928 58.6416C91.4355 57.9794 91.9672 56.956 91.9672 55.8023C91.9672 54.6485 91.4254 53.6251 90.5928 52.963C91.2047 52.4814 91.9772 52.1904 92.8199 52.1904C94.8163 52.1904 96.4314 53.8158 96.4314 55.8023Z" fill="#B6B6BA"/>
</g>
<g id="Vector_8" filter="url(#filter0_d_3534_13570)">
<path d="M82.7545 20.921L77.1587 11.4546C76.7473 10.7386 76.418 9.94312 76.2535 9.14746L76.0066 9.54541C74.6075 11.8523 74.6075 14.7956 76.0066 17.1027L80.5327 24.6597C81.9317 26.9668 81.9317 29.9101 80.5327 32.217L80.2858 32.6149C80.1213 31.8193 79.792 31.0238 79.3805 30.3078L75.2661 23.3869L72.6326 18.9322C72.2211 18.2162 71.8921 17.4208 71.7273 16.6253L71.4804 17.023C70.0814 19.3299 70.0814 22.1938 71.4804 24.5803L76.0066 32.1376C77.4056 34.4445 77.4056 37.3877 76.0066 39.6949L75.7599 40.0926C75.5951 39.2971 75.2661 38.5017 74.8547 37.7857L69.1762 28.3192C68.4357 27.0462 68.1065 25.6144 68.1065 24.1824C62.0994 25.6941 57.9023 28.9554 57.9023 32.6943C57.9023 37.9447 65.967 42.1608 75.9242 42.1608C85.8816 42.1608 93.9463 37.9447 93.9463 32.6943C94.0284 29.1147 89.9139 25.8531 83.8243 24.3416C83.7419 23.1483 83.4129 21.9551 82.7545 20.921Z" fill="#0D0D0D"/>
</g>
<path id="Vector_9" d="M82.7545 20.921L77.1587 11.4546C76.7473 10.7386 76.418 9.94312 76.2535 9.14746L76.0066 9.54541C74.6075 11.8523 74.6075 14.7956 76.0066 17.1027L80.5327 24.6597C81.9317 26.9668 81.9317 29.9101 80.5327 32.217L80.2858 32.6149C80.1213 31.8193 79.792 31.0238 79.3805 30.3078L75.2661 23.3869L72.6326 18.9322C72.2211 18.2162 71.8921 17.4208 71.7273 16.6253L71.4804 17.023C70.0814 19.3299 70.0814 22.1938 71.4804 24.5803L76.0066 32.1376C77.4056 34.4445 77.4056 37.3877 76.0066 39.6949L75.7599 40.0926C75.5951 39.2971 75.2661 38.5017 74.8547 37.7857L69.1762 28.3192C68.4357 27.0462 68.1065 25.6144 68.1065 24.1824C62.0994 25.6941 57.9023 28.9554 57.9023 32.6943C57.9023 37.9447 65.967 42.1608 75.9242 42.1608C85.8816 42.1608 93.9463 37.9447 93.9463 32.6943C94.0284 29.1147 89.9139 25.8531 83.8243 24.3416C83.7419 23.1483 83.4129 21.9551 82.7545 20.921Z" fill="url(#paint1_linear_3534_13570)"/>
<path id="Vector_10" d="M27.6089 6.15007H28.2715C28.3881 6.15007 28.4944 6.16175 28.5905 6.18512C28.6867 6.20848 28.7685 6.24455 28.836 6.29331C28.9034 6.34207 28.9556 6.40404 28.9924 6.47921C29.0292 6.55439 29.0476 6.6448 29.0476 6.75045C29.0476 6.85814 29.0277 6.95058 28.9878 7.02779C28.9479 7.10499 28.8927 7.16798 28.8222 7.21674C28.7516 7.2655 28.6677 7.30156 28.5706 7.32493C28.4735 7.34829 28.3686 7.35998 28.2562 7.35998H27.9126V8.30779H27.6089V6.15007ZM27.9126 7.10398H28.2347C28.3083 7.10398 28.3763 7.09737 28.4387 7.08417C28.5011 7.07096 28.5548 7.05064 28.5997 7.02321C28.6447 6.99579 28.6795 6.95972 28.704 6.91502C28.7286 6.87033 28.7409 6.81547 28.7409 6.75045C28.7409 6.68544 28.7281 6.63109 28.7025 6.58741C28.6769 6.54372 28.6422 6.50817 28.5982 6.48074C28.5542 6.45331 28.5016 6.43401 28.4402 6.42283C28.3789 6.41166 28.3124 6.40607 28.2408 6.40607H27.9126V7.10398ZM31.08 8.30779H30.7763V6.15007H31.4726C31.5769 6.15007 31.6761 6.16074 31.7702 6.18207C31.8643 6.20341 31.9466 6.23744 32.0171 6.28417C32.0877 6.3309 32.1434 6.39236 32.1843 6.46855C32.2252 6.54474 32.2457 6.63769 32.2457 6.74741C32.2457 6.90588 32.1966 7.03388 32.0984 7.1314C32.0003 7.22893 31.8735 7.2909 31.718 7.31731L32.3254 8.30779H31.9573L31.4051 7.34779H31.08V8.30779ZM31.08 7.09483H31.4297C31.5012 7.09483 31.5677 7.08874 31.6291 7.07655C31.6904 7.06436 31.7441 7.04455 31.7901 7.01712C31.8361 6.98969 31.8724 6.95414 31.899 6.91045C31.9256 6.86677 31.9389 6.81242 31.9389 6.74741C31.9389 6.68239 31.9256 6.62804 31.899 6.58436C31.8724 6.54068 31.8372 6.50563 31.7932 6.47921C31.7492 6.4528 31.6976 6.43401 31.6383 6.42283C31.579 6.41166 31.5166 6.40607 31.4511 6.40607H31.08V7.09483ZM34.3056 8.30779H34.0019V6.15007H34.3056V8.30779ZM36.8963 7.91769H36.9055L37.5589 6.15007H37.8871L37.0343 8.30779H36.7521L35.9054 6.15007H36.2428L36.8963 7.91769ZM39.4838 8.30779H39.1464L40.0882 6.15007H40.3643L41.2968 8.30779H40.9532L40.7324 7.7775H39.7016L39.4838 8.30779ZM39.809 7.51236H40.6219L40.217 6.50055L39.809 7.51236ZM43.4948 8.30779H43.1911V6.41521H42.4948V6.15007H44.1912V6.41521H43.4948V8.30779ZM46.1253 8.0396H47.2604V8.30779H45.8216V6.15007H47.2144V6.41521H46.1253V7.06131H47.1499V7.32036H46.1253V8.0396ZM51.1164 6.15007H51.8649C51.9468 6.15007 52.0286 6.15921 52.1104 6.1775C52.1922 6.19579 52.2653 6.22626 52.3297 6.26893C52.3941 6.3116 52.4463 6.36747 52.4862 6.43655C52.526 6.50563 52.546 6.59198 52.546 6.6956C52.546 6.81547 52.5112 6.91604 52.4417 6.99731C52.3721 7.07858 52.2801 7.13445 52.1656 7.16493V7.17102C52.2351 7.17915 52.2995 7.19693 52.3588 7.22436C52.4182 7.25179 52.4693 7.28785 52.5122 7.33255C52.5552 7.37725 52.5884 7.43007 52.6119 7.49102C52.6354 7.55198 52.6472 7.62004 52.6472 7.69521C52.6472 7.79883 52.6257 7.88925 52.5828 7.96645C52.5398 8.04366 52.4815 8.10715 52.4079 8.15693C52.3343 8.20671 52.2479 8.24429 52.1487 8.26969C52.0495 8.29509 51.9437 8.30779 51.8312 8.30779H51.1164V6.15007ZM51.4201 7.06131H51.8159C51.8731 7.06131 51.9278 7.05471 51.98 7.0415C52.0321 7.02829 52.0776 7.00798 52.1165 6.98055C52.1554 6.95312 52.186 6.91858 52.2085 6.87693C52.231 6.83528 52.2423 6.78499 52.2423 6.72607C52.2423 6.61026 52.1993 6.52747 52.1134 6.47769C52.0275 6.42791 51.912 6.40302 51.7668 6.40302H51.4201V7.06131ZM51.4201 8.05179H51.8005C51.8639 8.05179 51.9278 8.0462 51.9923 8.03502C52.0567 8.02385 52.115 8.00404 52.1671 7.9756C52.2193 7.94715 52.2612 7.90906 52.2929 7.86131C52.3246 7.81356 52.3404 7.75312 52.3404 7.67998C52.3404 7.55198 52.2965 7.45953 52.2085 7.40264C52.1206 7.34575 51.9938 7.31731 51.8281 7.31731H51.4201V8.05179ZM54.5169 8.30779H54.1795L55.1213 6.15007H55.3974L56.3299 8.30779H55.9864L55.7655 7.7775H54.7348L54.5169 8.30779ZM54.8421 7.51236H55.6551L55.2501 6.50055L54.8421 7.51236ZM59.482 7.87502H59.4881V6.15007H59.7918V8.30779H59.4083L58.261 6.54626H58.2549V8.30779H57.9512V6.15007H58.3469L59.482 7.87502ZM61.9652 7.10093H61.9714L62.9408 6.15007H63.361L62.3058 7.1375L63.4255 8.30779H62.9898L61.9714 7.19236H61.9652V8.30779H61.6615V6.15007H61.9652V7.10093ZM65.3289 8.30779H65.0252V6.15007H65.3289V8.30779ZM68.7295 7.87502H68.7356V6.15007H69.0393V8.30779H68.6558L67.5085 6.54626H67.5024V8.30779H67.1987V6.15007H67.5944L68.7295 7.87502ZM72.5472 6.59502C72.4817 6.52391 72.3984 6.46702 72.2972 6.42436C72.1959 6.38169 72.0829 6.36036 71.9582 6.36036C71.8314 6.36036 71.7169 6.38321 71.6146 6.42893C71.5123 6.47464 71.4254 6.53712 71.3539 6.61636C71.2823 6.6956 71.2271 6.78753 71.1882 6.89217C71.1493 6.9968 71.1299 7.10804 71.1299 7.22588C71.1299 7.34575 71.1493 7.45852 71.1882 7.56417C71.2271 7.66982 71.2823 7.76175 71.3539 7.83998C71.4254 7.9182 71.5134 7.97966 71.6177 8.02436C71.722 8.06906 71.8385 8.0914 71.9674 8.0914C72.0696 8.0914 72.1637 8.08226 72.2496 8.06398C72.3355 8.04569 72.4101 8.01928 72.4735 7.98474V7.38436H71.9919V7.12836H72.7742V8.17369C72.6597 8.23464 72.5349 8.28137 72.3999 8.31388C72.2649 8.34639 72.1177 8.36264 71.9582 8.36264C71.7884 8.36264 71.6325 8.33471 71.4904 8.27883C71.3482 8.22296 71.226 8.14474 71.1238 8.04417C71.0215 7.94359 70.9418 7.82372 70.8845 7.68455C70.8272 7.54537 70.7986 7.39249 70.7986 7.22588C70.7986 7.05725 70.8277 6.90334 70.886 6.76417C70.9443 6.62499 71.0251 6.50614 71.1284 6.4076C71.2317 6.30906 71.3538 6.23236 71.495 6.1775C71.6361 6.12264 71.7895 6.09521 71.9551 6.09521C72.1289 6.09521 72.2839 6.12061 72.4199 6.17141C72.5559 6.2222 72.6689 6.29026 72.7588 6.3756L72.5472 6.59502Z" fill="#D2D3D3"/>
</g>
</g>
</g>
<defs>
<filter id="filter0_d_3534_13570" x="50.9023" y="-0.852539" width="54.0449" height="51.0134" filterUnits="userSpaceOnUse" color-interpolation-filters="sRGB">
<feFlood flood-opacity="0" result="BackgroundImageFix"/>
<feColorMatrix in="SourceAlpha" type="matrix" values="0 0 0 0 0 0 0 0 0 0 0 0 0 0 0 0 0 0 127 0" result="hardAlpha"/>
<feOffset dx="2" dy="-1"/>
<feGaussianBlur stdDeviation="4.5"/>
<feColorMatrix type="matrix" values="0 0 0 0 0 0 0 0 0 0 0 0 0 0 0 0 0 0 0.9316 0"/>
<feBlend mode="normal" in2="BackgroundImageFix" result="effect1_dropShadow_3534_13570"/>
<feBlend mode="normal" in="SourceGraphic" in2="effect1_dropShadow_3534_13570" result="shape"/>
</filter>
<linearGradient id="paint0_linear_3534_13570" x1="89.0731" y1="64" x2="89.0731" y2="0" gradientUnits="userSpaceOnUse">
<stop stop-color="#424240"/>
<stop offset="1" stop-color="#424240"/>
</linearGradient>
<linearGradient id="paint1_linear_3534_13570" x1="74.2585" y1="15.6725" x2="68.6726" y2="39.916" gradientUnits="userSpaceOnUse">
<stop stop-color="white"/>
<stop offset="0.29221" stop-color="#6A6A68"/>
<stop offset="1" stop-color="#3A3A38"/>
</linearGradient>
</defs>
</svg>
