<svg width="52" height="32" viewBox="0 0 52 32" fill="none" xmlns="http://www.w3.org/2000/svg">
<g id="Group">
<mask id="mask0_2016_6441" style="mask-type:alpha" maskUnits="userSpaceOnUse" x="0" y="0" width="52" height="32">
<g id="big   1. front b">
<path id="Vector" d="M49.5827 0H2.41729C1.3584 0 0.5 0.852791 0.5 1.90476V30.0952C0.5 31.1472 1.3584 32 2.41729 32H49.5827C50.6416 32 51.5 31.1472 51.5 30.0952V1.90476C51.5 0.852791 50.6416 0 49.5827 0Z" fill="white"/>
</g>
</mask>
<g mask="url(#mask0_2016_6441)">
<g id="Group_2">
<path id="Vector_2" d="M51.5 0H0.5V32H51.5V0Z" fill="#0D0D0D"/>
<path id="Vector_3" fill-rule="evenodd" clip-rule="evenodd" d="M5.86422 3.68165C5.85947 3.57183 5.82872 3.46288 5.77184 3.36441L5.27015 2.49573C5.23189 2.4295 5.20546 2.35849 5.1908 2.28572L5.16983 2.322C5.04565 2.53702 5.04565 2.8019 5.16981 3.01692L5.57118 3.71185C5.69533 3.92687 5.69533 4.19178 5.57118 4.40677L5.5502 4.44307C5.53552 4.37028 5.50909 4.29929 5.47083 4.23307L5.10341 3.59685L4.8688 3.19064C4.83055 3.12441 4.80413 3.05341 4.78943 2.98064L4.76848 3.01694C4.64473 3.23121 4.64435 3.49505 4.76726 3.70966L4.76722 3.70968L5.16983 4.40677C5.294 4.62179 5.294 4.88669 5.16983 5.10171L5.14885 5.13801C5.13418 5.06521 5.10774 4.99423 5.06949 4.92798L4.56782 4.05932C4.50052 3.9428 4.46978 3.81165 4.47541 3.68174C3.93835 3.822 3.56766 4.11983 3.56766 4.46468C3.56766 4.94443 4.28497 5.33334 5.16983 5.33334C6.05467 5.33334 6.77198 4.94443 6.77198 4.46468C6.77198 4.11983 6.40133 3.82191 5.86422 3.68165Z" fill="white"/>
<path id="Vector_4" fill-rule="evenodd" clip-rule="evenodd" d="M38.6541 0H51.5V32H38.6541L38.5729 19.6102C41.4391 16.9727 42.8722 14.908 42.8722 13.4159C42.8722 11.9239 41.4662 9.31002 38.6541 5.5744V0Z" fill="url(#paint0_linear_2016_6441)"/>
<g id="Group_3">
<path id="Vector_5" d="M46.5841 26.4815H45.004V29.3208H46.5841V26.4815Z" fill="#8C8D90"/>
<path id="Vector_6" fill-rule="evenodd" clip-rule="evenodd" d="M45.1043 27.9012C45.1043 27.3243 45.3752 26.8126 45.7915 26.4815C45.4855 26.2407 45.0993 26.0952 44.678 26.0952C43.6798 26.0952 42.8722 26.9029 42.8722 27.9012C42.8722 28.8994 43.6798 29.7071 44.678 29.7071C45.0993 29.7071 45.4855 29.5616 45.7915 29.3208C45.3752 28.9947 45.1043 28.4781 45.1043 27.9012Z" fill="#6D6E71"/>
<path id="Vector_7" fill-rule="evenodd" clip-rule="evenodd" d="M48.7159 27.9012C48.7159 28.8994 47.9083 29.7071 46.9101 29.7071C46.4888 29.7071 46.1025 29.5616 45.7965 29.3208C46.2179 28.9897 46.4837 28.4781 46.4837 27.9012C46.4837 27.3243 46.2129 26.8126 45.7965 26.4815C46.1025 26.2407 46.4888 26.0952 46.9101 26.0952C47.9083 26.0952 48.7159 26.9079 48.7159 27.9012Z" fill="#B6B6BA"/>
</g>
<g id="Vector_8" filter="url(#filter0_d_2016_6441)">
<path d="M41.8772 10.4605L39.0793 5.72727C38.8736 5.36926 38.709 4.97155 38.6267 4.57372L38.5032 4.77269C37.8037 5.92613 37.8037 7.39777 38.5032 8.55132L40.7663 12.3298C41.4658 13.4834 41.4658 14.955 40.7663 16.1085L40.6429 16.3074C40.5606 15.9096 40.396 15.5119 40.1902 15.1539L38.133 11.6935L36.8163 9.46609C36.6105 9.10808 36.446 8.71036 36.3636 8.31265L36.2402 8.51151C35.5407 9.66495 35.5407 11.0969 36.2402 12.2901L38.5032 16.0688C39.2028 17.2222 39.2028 18.6939 38.5032 19.8474L38.3799 20.0463C38.2975 19.6486 38.133 19.2508 37.9273 18.8928L35.0881 14.1596C34.7178 13.5231 34.5532 12.8072 34.5532 12.0912C31.5497 12.847 29.4511 14.4777 29.4511 16.3472C29.4511 18.9723 33.4835 21.0804 38.4621 21.0804C43.4408 21.0804 47.4731 18.9723 47.4731 16.3472C47.5142 14.5573 45.4569 12.9265 42.4121 12.1708C42.3709 11.5741 42.2064 10.9775 41.8772 10.4605Z" fill="#0D0D0D"/>
</g>
<path id="Vector_9" d="M41.8772 10.4605L39.0793 5.72727C38.8736 5.36926 38.709 4.97155 38.6267 4.57372L38.5032 4.77269C37.8037 5.92613 37.8037 7.39777 38.5032 8.55132L40.7663 12.3298C41.4658 13.4834 41.4658 14.955 40.7663 16.1085L40.6429 16.3074C40.5606 15.9096 40.396 15.5119 40.1902 15.1539L38.133 11.6935L36.8163 9.46609C36.6105 9.10808 36.446 8.71036 36.3636 8.31265L36.2402 8.51151C35.5407 9.66495 35.5407 11.0969 36.2402 12.2901L38.5032 16.0688C39.2028 17.2222 39.2028 18.6939 38.5032 19.8474L38.3799 20.0463C38.2975 19.6486 38.133 19.2508 37.9273 18.8928L35.0881 14.1596C34.7178 13.5231 34.5532 12.8072 34.5532 12.0912C31.5497 12.847 29.4511 14.4777 29.4511 16.3472C29.4511 18.9723 33.4835 21.0804 38.4621 21.0804C43.4408 21.0804 47.4731 18.9723 47.4731 16.3472C47.5142 14.5573 45.4569 12.9265 42.4121 12.1708C42.3709 11.5741 42.2064 10.9775 41.8772 10.4605Z" fill="url(#paint1_linear_2016_6441)"/>
<path id="Vector_10" d="M14.3045 3.07505H14.6358C14.6941 3.07505 14.7473 3.08089 14.7953 3.09258C14.8434 3.10426 14.8843 3.12229 14.918 3.14667C14.9518 3.17105 14.9779 3.20204 14.9963 3.23962C15.0147 3.27721 15.0239 3.32242 15.0239 3.37524C15.0239 3.42908 15.0139 3.4753 14.994 3.51391C14.974 3.55251 14.9464 3.584 14.9111 3.60838C14.8759 3.63277 14.8339 3.6508 14.7854 3.66248C14.7368 3.67416 14.6844 3.68 14.6281 3.68H14.4564V4.15391H14.3045V3.07505ZM14.4564 3.552H14.6174C14.6542 3.552 14.6882 3.5487 14.7194 3.5421C14.7506 3.5355 14.7774 3.52534 14.7999 3.51162C14.8224 3.49791 14.8398 3.47988 14.8521 3.45753C14.8644 3.43518 14.8705 3.40775 14.8705 3.37524C14.8705 3.34273 14.8641 3.31556 14.8513 3.29372C14.8385 3.27188 14.8212 3.2541 14.7992 3.24038C14.7772 3.22667 14.7509 3.21702 14.7202 3.21143C14.6895 3.20584 14.6563 3.20305 14.6205 3.20305H14.4564V3.552ZM16.04 4.15391H15.8882V3.07505H16.2364C16.2885 3.07505 16.3381 3.08038 16.3852 3.09105C16.4322 3.10172 16.4733 3.11873 16.5086 3.1421C16.5439 3.16546 16.5718 3.19619 16.5922 3.23429C16.6127 3.27238 16.6229 3.31886 16.6229 3.37372C16.6229 3.45296 16.5984 3.51696 16.5493 3.56572C16.5002 3.61448 16.4368 3.64546 16.3591 3.65867L16.6628 4.15391H16.4787L16.2026 3.67391H16.04V4.15391ZM16.04 3.54743H16.2149C16.2507 3.54743 16.2839 3.54438 16.3146 3.53829C16.3453 3.53219 16.3721 3.52229 16.3951 3.50857C16.4181 3.49486 16.4363 3.47708 16.4496 3.45524C16.4629 3.4334 16.4695 3.40623 16.4695 3.37372C16.4695 3.34121 16.4629 3.31404 16.4496 3.29219C16.4363 3.27035 16.4186 3.25283 16.3967 3.23962C16.3747 3.22642 16.3489 3.21702 16.3192 3.21143C16.2895 3.20584 16.2584 3.20305 16.2256 3.20305H16.04V3.54743ZM17.6529 4.15391H17.501V3.07505H17.6529V4.15391ZM18.9482 3.95886H18.9528L19.2795 3.07505H19.4436L19.0172 4.15391H18.8761L18.4528 3.07505H18.6215L18.9482 3.95886ZM20.242 4.15391H20.0733L20.5441 3.07505H20.6822L21.1485 4.15391H20.9767L20.8662 3.88877H20.3509L20.242 4.15391ZM20.4046 3.75619H20.811L20.6086 3.25029L20.4046 3.75619ZM22.2475 4.15391H22.0956V3.20762H21.7474V3.07505H22.5956V3.20762H22.2475V4.15391ZM23.5627 4.01981H24.1302V4.15391H23.4109V3.07505H24.1072V3.20762H23.5627V3.53067H24.075V3.66019H23.5627V4.01981ZM26.0583 3.07505H26.4325C26.4734 3.07505 26.5143 3.07962 26.5552 3.08877C26.5961 3.09791 26.6327 3.11315 26.6649 3.13448C26.6971 3.15581 26.7232 3.18375 26.7431 3.21829C26.7631 3.25283 26.773 3.296 26.773 3.34781C26.773 3.40775 26.7557 3.45804 26.7209 3.49867C26.6861 3.53931 26.6401 3.56724 26.5828 3.58248V3.58553C26.6176 3.58959 26.6498 3.59848 26.6795 3.61219C26.7091 3.62591 26.7347 3.64394 26.7562 3.66629C26.7776 3.68864 26.7943 3.71505 26.806 3.74553C26.8178 3.776 26.8237 3.81004 26.8237 3.84762C26.8237 3.89943 26.8129 3.94464 26.7915 3.98324C26.77 4.02185 26.7408 4.05359 26.704 4.07848C26.6672 4.10337 26.624 4.12216 26.5744 4.13486C26.5248 4.14756 26.4719 4.15391 26.4157 4.15391H26.0583V3.07505ZM26.2101 3.53067H26.408C26.4366 3.53067 26.464 3.52737 26.4901 3.52077C26.5161 3.51416 26.5389 3.504 26.5583 3.49029C26.5777 3.47657 26.5931 3.45931 26.6043 3.43848C26.6156 3.41765 26.6212 3.39251 26.6212 3.36305C26.6212 3.30515 26.5997 3.26375 26.5568 3.23886C26.5138 3.21397 26.4561 3.20153 26.3835 3.20153H26.2101V3.53067ZM26.2101 4.02591H26.4003C26.432 4.02591 26.464 4.02311 26.4962 4.01753C26.5284 4.01194 26.5575 4.00204 26.5836 3.98781C26.6097 3.97359 26.6307 3.95454 26.6465 3.93067C26.6624 3.9068 26.6703 3.87658 26.6703 3.84C26.6703 3.776 26.6483 3.72978 26.6043 3.70134C26.5604 3.67289 26.497 3.65867 26.4141 3.65867H26.2101V4.02591ZM27.7585 4.15391H27.5898L28.0607 3.07505H28.1987L28.665 4.15391H28.4932L28.3828 3.88877H27.8674L27.7585 4.15391ZM27.9211 3.75619H28.3276L28.1251 3.25029L27.9211 3.75619ZM30.241 3.93753H30.2441V3.07505H30.396V4.15391H30.2042L29.6306 3.27315H29.6275V4.15391H29.4757V3.07505H29.6735L30.241 3.93753ZM31.4827 3.55048H31.4858L31.9704 3.07505H32.1806L31.6529 3.56877L32.2128 4.15391H31.995L31.4858 3.59619H31.4827V4.15391H31.3308V3.07505H31.4827V3.55048ZM33.1645 4.15391H33.0127V3.07505H33.1645V4.15391ZM34.8648 3.93753H34.8679V3.07505H35.0197V4.15391H34.828L34.2543 3.27315H34.2513V4.15391H34.0994V3.07505H34.2973L34.8648 3.93753ZM36.7736 3.29753C36.7409 3.26197 36.6993 3.23353 36.6486 3.21219C36.598 3.19086 36.5415 3.18019 36.4792 3.18019C36.4158 3.18019 36.3585 3.19162 36.3074 3.21448C36.2562 3.23734 36.2128 3.26857 36.177 3.30819C36.1412 3.34781 36.1136 3.39378 36.0942 3.4461C36.0747 3.49842 36.065 3.55404 36.065 3.61296C36.065 3.67289 36.0747 3.72927 36.0942 3.7821C36.1136 3.83492 36.1412 3.88089 36.177 3.92C36.2128 3.95911 36.2567 3.98984 36.3089 4.01219C36.361 4.03454 36.4193 4.04572 36.4838 4.04572C36.5349 4.04572 36.5819 4.04115 36.6249 4.032C36.6678 4.02286 36.7051 4.00965 36.7368 3.99238V3.69219H36.496V3.56419H36.8871V4.08686C36.8299 4.11734 36.7675 4.1407 36.7 4.15696C36.6325 4.17321 36.5589 4.18134 36.4792 4.18134C36.3943 4.18134 36.3163 4.16737 36.2452 4.13943C36.1742 4.1115 36.1131 4.07238 36.0619 4.0221C36.0108 3.97181 35.9709 3.91188 35.9423 3.84229C35.9137 3.7727 35.8994 3.69626 35.8994 3.61296C35.8994 3.52864 35.9139 3.45169 35.9431 3.3821C35.9722 3.31251 36.0126 3.25308 36.0642 3.20381C36.1159 3.15454 36.177 3.11619 36.2475 3.08877C36.3181 3.06134 36.3948 3.04762 36.4776 3.04762C36.5645 3.04762 36.642 3.06032 36.71 3.08572C36.778 3.11112 36.8345 3.14515 36.8795 3.18781L36.7736 3.29753Z" fill="#D2D3D3"/>
</g>
</g>
</g>
<defs>
<filter id="filter0_d_2016_6441" x="22.4511" y="-5.42628" width="36.0226" height="34.5067" filterUnits="userSpaceOnUse" color-interpolation-filters="sRGB">
<feFlood flood-opacity="0" result="BackgroundImageFix"/>
<feColorMatrix in="SourceAlpha" type="matrix" values="0 0 0 0 0 0 0 0 0 0 0 0 0 0 0 0 0 0 127 0" result="hardAlpha"/>
<feOffset dx="2" dy="-1"/>
<feGaussianBlur stdDeviation="4.5"/>
<feColorMatrix type="matrix" values="0 0 0 0 0 0 0 0 0 0 0 0 0 0 0 0 0 0 0.9316 0"/>
<feBlend mode="normal" in2="BackgroundImageFix" result="effect1_dropShadow_2016_6441"/>
<feBlend mode="normal" in="SourceGraphic" in2="effect1_dropShadow_2016_6441" result="shape"/>
</filter>
<linearGradient id="paint0_linear_2016_6441" x1="45.0364" y1="32" x2="45.0364" y2="0" gradientUnits="userSpaceOnUse">
<stop stop-color="#424240"/>
<stop offset="1" stop-color="#424240"/>
</linearGradient>
<linearGradient id="paint1_linear_2016_6441" x1="37.6292" y1="7.83626" x2="34.8363" y2="19.958" gradientUnits="userSpaceOnUse">
<stop stop-color="white"/>
<stop offset="0.29221" stop-color="#6A6A68"/>
<stop offset="1" stop-color="#3A3A38"/>
</linearGradient>
</defs>
</svg>
