<svg width="161" height="160" viewBox="0 0 161 160" fill="none" xmlns="http://www.w3.org/2000/svg">
<path fill-rule="evenodd" clip-rule="evenodd" d="M77.256 127.122C117.463 131.138 138.185 121.378 139.421 97.8437C141.276 62.5414 110.027 66.355 100.927 57.0506C91.8253 47.7472 102.021 60.9692 84.494 41.6893C72.8083 28.8364 57.2386 28.7704 37.7838 41.4923C22.0904 54.0952 20.3926 70.6226 32.6905 91.0747C44.9884 111.528 59.8435 123.544 77.256 127.122Z" fill="#E5E5E5"/>
<path fill-rule="evenodd" clip-rule="evenodd" d="M48.0831 91.8993C48.081 93.5295 48.08 94.8627 48.078 96.2369C48.074 99.9535 48.0709 103.517 48.0679 107.095L83.0316 107.096C83.806 107.101 84.4304 107.731 84.4253 108.501V110.362C84.4142 114.547 87.2421 118.21 91.3066 119.277C92.2259 119.513 93.1908 119.513 94.1102 119.277C95.0457 119.034 95.9123 118.648 96.6978 118.155C99.1659 116.487 100.734 113.683 100.74 110.583V58.2573V49.2839C100.744 46.5325 102.04 44.0691 104.073 42.4829H100.269H75.972L48.0861 89.925C48.0851 90.4501 48.0841 91.0842 48.0831 91.8993" fill="white"/>
<path fill-rule="evenodd" clip-rule="evenodd" d="M48.0925 83.2805V84.4617C48.0915 85.3098 48.0905 86.406 48.0884 87.9122V88.2672C48.0874 88.6943 48.0874 89.2024 48.0864 89.9245L75.9723 42.4824H58.9166C56.709 42.4864 54.6585 43.1385 52.9293 44.2477C50.0143 46.235 48.0986 49.5685 48.0925 53.351V68.6473C48.0925 69.0264 47.8543 69.3464 47.5188 69.4794C47.4843 69.5094 47.4438 69.5304 47.4053 69.5545V73.149C47.8675 73.193 48.2344 73.5651 48.2344 74.0321V75.8704C48.2344 76.3385 47.8675 76.7105 47.4053 76.7535V82.4254C47.7975 82.5264 48.0925 82.8624 48.0925 83.2805" fill="#E9F4F7"/>
<path fill-rule="evenodd" clip-rule="evenodd" d="M111.165 43.7758L110 43.5338C109.78 43.5088 109.555 43.4958 109.328 43.4958C109.149 43.4858 108.971 43.4858 108.792 43.4958C107.741 43.5888 106.784 43.9549 105.962 44.4979C104.524 45.5591 103.595 47.2283 103.57 49.1006V56.0917H115.352V49.3587C115.347 46.7463 113.591 44.5339 111.165 43.7758" fill="#0D4F80"/>
<path fill-rule="evenodd" clip-rule="evenodd" d="M48.2336 75.8698V74.0328C48.2336 73.5648 47.8677 73.1928 47.4055 73.1488C47.3761 73.1468 47.3518 73.1328 47.3224 73.1328C46.8187 73.1328 46.4092 73.5358 46.4092 74.0328V75.8698C46.4092 76.3668 46.8187 76.7698 47.3224 76.7698C47.3518 76.7698 47.3761 76.7558 47.4055 76.7528C47.8677 76.7098 48.2336 76.3378 48.2336 75.8698" fill="#0F2B4A"/>
<path fill-rule="evenodd" clip-rule="evenodd" d="M90.0212 68.0961H58.9415C58.4378 68.0961 58.0293 68.4991 58.0293 68.9962C58.0293 69.4933 58.4378 69.8963 58.9415 69.8963H90.0212C90.525 69.8963 90.9324 69.4933 90.9324 68.9962C90.9324 68.4991 90.525 68.0961 90.0212 68.0961ZM93.6124 55.1938H58.9415C58.4378 55.1938 58.0293 55.5969 58.0293 56.094C58.0293 56.5911 58.4378 56.9941 58.9415 56.9941H93.6124C94.1161 56.9941 94.5236 56.5911 94.5236 56.094C94.5236 55.5969 94.1161 55.1938 93.6124 55.1938Z" fill="#0D4F80"/>
<path fill-rule="evenodd" clip-rule="evenodd" d="M72.6524 80.998H58.9416C58.4378 80.998 58.0283 81.4011 58.0283 81.8982C58.0283 82.3953 58.4378 82.7983 58.9416 82.7983H72.6524C73.1561 82.7983 73.5646 82.3953 73.5646 81.8982C73.5646 81.4011 73.1561 80.998 72.6524 80.998ZM72.6524 93.8999H58.9416C58.4378 93.8999 58.0283 94.3029 58.0283 94.8C58.0283 95.2971 58.4378 95.7001 58.9416 95.7001H72.6524C73.1561 95.7001 73.5646 95.2971 73.5646 94.8C73.5646 94.3029 73.1561 93.8999 72.6524 93.8999Z" fill="#A6CED7"/>
<path fill-rule="evenodd" clip-rule="evenodd" d="M27.8471 105.971L26.644 107.158L24.6756 105.215L22.7031 107.161L21.5 105.973L23.4724 104.028L21.503 102.085L22.7062 100.899L24.6746 102.842L26.646 100.896L27.8501 102.083L25.8777 104.029L27.8471 105.971Z" fill="#0F2B4A"/>
<path fill-rule="evenodd" clip-rule="evenodd" d="M130.741 60.7101C128.995 60.7101 127.582 59.3091 127.582 57.5811C127.582 55.8541 128.995 54.4531 130.741 54.4531C132.488 54.4531 133.901 55.8541 133.901 57.5811C133.901 59.3091 132.488 60.7101 130.741 60.7101ZM130.741 58.9271C131.488 58.9271 132.096 58.3251 132.096 57.5811C132.096 56.8371 131.488 56.2361 130.741 56.2361C129.994 56.2361 129.387 56.8371 129.387 57.5811C129.387 58.3251 129.994 58.9271 130.741 58.9271Z" fill="#6EE3FF"/>
<path fill-rule="evenodd" clip-rule="evenodd" d="M109.49 40.6572H108.593L58.9144 40.6832C56.3277 40.6872 53.9255 41.4533 51.9064 42.7575C48.3639 45.0459 46.0144 49.0045 46.0073 53.5151V68.8124C46.0073 69.3095 46.4158 69.7126 46.9206 69.7126C47.102 69.7126 47.2622 69.6465 47.4051 69.5555C47.4436 69.5305 47.4831 69.5095 47.5176 69.4795C47.7071 69.3145 47.8318 69.0805 47.8318 68.8124V53.5161C47.8379 49.6246 49.8711 46.2121 52.9291 44.2478C54.6573 43.1386 56.7088 42.4865 58.9164 42.4835H75.9721L100.269 42.4825H104.072C102.041 44.0687 100.744 46.5331 100.74 49.2835V58.2578V110.584C100.734 113.682 99.166 116.487 96.6979 118.155C95.8465 118.731 94.8897 119.173 93.8498 119.442C92.9304 119.679 91.9655 119.679 91.0462 119.442C86.9817 118.376 84.1538 114.711 84.1649 110.528V108.666C84.171 107.896 83.5456 107.266 82.7723 107.261L47.8085 107.26C47.8105 103.682 47.8136 100.119 47.8176 96.4015C47.8196 95.0273 47.8207 93.6951 47.8227 92.0639C47.8257 90.1276 47.8267 89.1695 47.8277 88.4333V88.0783C47.8298 86.5711 47.8308 85.4759 47.8318 84.6268V83.4456C47.8318 82.9485 47.4243 82.5455 46.9206 82.5455C46.8 82.5455 46.6864 82.5715 46.582 82.6135C46.2465 82.7465 46.0073 83.0665 46.0073 83.4456C46.0073 84.4628 46.0063 85.894 46.0033 88.4303L46.0023 88.5554C46.0023 89.2765 46.0002 90.2326 45.9982 92.0619C45.9962 93.6931 45.9942 95.0253 45.9932 96.3995C45.9901 100.06 45.9871 103.572 45.984 107.095V107.26L37.2915 107.261C37.0705 107.261 36.8658 107.315 36.6803 107.406C36.213 107.632 35.8887 108.105 35.8887 108.656V110.63C35.8826 117.219 41.2455 122.564 47.8642 122.569H91.5783C91.8875 122.569 92.3649 122.569 92.672 122.523C93.2173 122.473 93.7585 122.383 94.2897 122.252C95.6996 121.926 96.998 121.356 98.1545 120.6C101.455 118.442 103.568 114.739 103.573 110.63V58.2578V56.0915H115.352H116.749H116.755C117.085 56.0915 117.385 55.8745 117.626 55.6835C117.948 55.4274 118.158 55.0384 118.158 54.5973V49.3585C118.177 44.5738 114.298 40.6782 109.49 40.6572" fill="#0F2B4A"/>
<path fill-rule="evenodd" clip-rule="evenodd" d="M111.165 43.7758L110 43.5338C109.78 43.5088 109.555 43.4958 109.328 43.4958C109.149 43.4858 108.971 43.4858 108.792 43.4958C107.741 43.5888 106.784 43.9549 105.962 44.4979C104.524 45.5591 103.595 47.2283 103.57 49.1006V56.0917H115.352V49.3587C115.347 46.7463 113.591 44.5339 111.165 43.7758" fill="#0D4F80"/>
<path fill-rule="evenodd" clip-rule="evenodd" d="M107.31 88.3118L102.859 83.9202L98.4416 88.2778L96.7033 86.5626L101.12 82.2049L96.6688 77.8122L98.398 76.106L102.85 80.4987L107.266 76.14L109.005 77.8553L104.587 82.2139L109.039 86.6066L107.31 88.3118ZM103.068 64.8203C93.475 64.8203 85.6987 72.4775 85.6987 81.9229C85.6987 91.3683 93.475 99.0254 103.068 99.0254C106.669 99.0254 110.013 97.9462 112.787 96.1C114.144 95.1958 115.361 94.1047 116.409 92.8695C118.922 89.9031 120.437 86.0885 120.437 81.9229C120.437 72.4775 112.661 64.8203 103.068 64.8203V64.8203Z" fill="white"/>
<path fill-rule="evenodd" clip-rule="evenodd" d="M112.787 96.0999C110.013 97.9472 106.669 99.0254 103.068 99.0254C93.4742 99.0254 85.698 91.3682 85.698 81.9228C85.698 72.4784 93.4742 64.8203 103.068 64.8203C112.661 64.8203 120.438 72.4784 120.438 81.9228C120.438 86.0885 118.922 89.904 116.409 92.8705C115.362 94.1056 114.144 95.1958 112.787 96.0999V96.0999ZM128.334 104.618L117.7 94.1417C120.54 90.8462 122.263 86.5855 122.263 81.9228C122.263 71.4833 113.668 63.02 103.068 63.02C96.4856 63.02 90.6808 66.2865 87.2234 71.2602C87.0683 71.4843 86.9295 71.7203 86.7845 71.9513C86.6244 72.2054 86.4592 72.4564 86.3112 72.7185C86.1764 72.9545 86.0558 73.2005 85.9311 73.4436C85.7922 73.7156 85.6534 73.9887 85.5267 74.2687C85.4182 74.5117 85.3168 74.7588 85.2185 75.0068C85.0999 75.3038 84.9874 75.6029 84.884 75.9069C84.8009 76.151 84.7219 76.396 84.6479 76.644C84.5516 76.9721 84.4675 77.3051 84.3874 77.6402C84.3327 77.8742 84.2749 78.1083 84.2283 78.3463C84.1543 78.7284 84.0985 79.1174 84.0478 79.5065C84.0225 79.7075 83.987 79.9055 83.9667 80.1086C83.91 80.7067 83.8745 81.3107 83.8745 81.9228C83.8745 82.5499 83.909 83.169 83.9688 83.7801C83.9901 83.9911 84.0306 84.1952 84.058 84.4032C84.1107 84.7993 84.1644 85.1953 84.2414 85.5834C84.2911 85.8324 84.358 86.0755 84.4178 86.3205C84.4989 86.6565 84.58 86.9926 84.6793 87.3206C84.7594 87.5857 84.8536 87.8447 84.9449 88.1048C85.0493 88.3998 85.1537 88.6948 85.2723 88.9839C85.3848 89.2569 85.5074 89.525 85.6321 89.792C85.7527 90.051 85.8763 90.3081 86.0091 90.5611C86.1561 90.8402 86.3102 91.1152 86.4693 91.3852C86.6011 91.6073 86.7359 91.8273 86.8758 92.0433C87.0592 92.3284 87.2498 92.6084 87.4484 92.8815C87.5802 93.0635 87.718 93.2415 87.8559 93.4185C88.0829 93.7086 88.314 93.9966 88.5583 94.2737C88.6779 94.4097 88.8036 94.5397 88.9272 94.6727C89.207 94.9738 89.4908 95.2698 89.7898 95.5519C89.875 95.6319 89.9642 95.7069 90.0503 95.7869C92.8873 98.3643 96.5089 100.118 100.53 100.642C101.363 100.751 102.206 100.826 103.068 100.826C107.172 100.826 110.966 99.5475 114.086 97.3871L124.876 108.018C125.831 108.958 127.377 108.958 128.333 108.019C128.334 108.018 128.336 108.016 128.337 108.015C129.286 107.076 129.284 105.555 128.334 104.618Z" fill="#0F2B4A"/>
<path fill-rule="evenodd" clip-rule="evenodd" d="M109.004 77.8557L107.265 76.1405L102.848 80.4991L98.3967 76.1064L96.6675 77.8127L101.119 82.2044L96.7019 86.563L98.4402 88.2783L102.858 83.9196L107.309 88.3123L109.037 86.607L104.587 82.2144L109.004 77.8557Z" fill="white"/>
<path fill-rule="evenodd" clip-rule="evenodd" d="M89.7892 95.5522C89.4902 95.2701 89.2074 94.9731 88.9267 94.673C88.803 94.541 88.6773 94.41 88.5577 94.274C88.3145 93.9969 88.0824 93.7089 87.8563 93.4188C87.7175 93.2418 87.5806 93.0638 87.4479 92.8818C87.2492 92.6087 87.0596 92.3277 86.8752 92.0436C86.7353 91.8266 86.6005 91.6076 86.4697 91.3855C86.3096 91.1145 86.1555 90.8405 86.0096 90.5614C85.8768 90.3084 85.7541 90.0513 85.6315 89.7923C85.5068 89.5253 85.3842 89.2572 85.2717 88.9842C85.1541 88.6951 85.0497 88.4001 84.9453 88.1051C84.8541 87.845 84.7588 87.586 84.6787 87.3209C84.5784 86.9919 84.4983 86.6558 84.4172 86.3208C84.3584 86.0748 84.2905 85.8327 84.2409 85.5837C84.1628 85.1956 84.1101 84.7996 84.0584 84.4035C84.03 84.1955 83.9895 83.9904 83.9692 83.7804C83.9084 83.1693 83.8739 82.5502 83.8739 81.9231C83.8739 81.311 83.9094 80.707 83.9672 80.1089C83.9864 79.9058 84.0229 79.7078 84.0483 79.5068C84.099 79.1167 84.1527 78.7287 84.2287 78.3466C84.2753 78.1086 84.3321 77.8745 84.3878 77.6405C84.4669 77.3054 84.551 76.9724 84.6483 76.6443C84.7213 76.3963 84.8004 76.1513 84.8835 75.9072C84.9879 75.6032 85.0994 75.3041 85.218 75.0071C85.3173 74.7591 85.4187 74.512 85.5271 74.269C85.6538 73.9889 85.7917 73.7159 85.9305 73.4439C86.0552 73.2008 86.1768 72.9548 86.3106 72.7178C86.4596 72.4567 86.6228 72.2057 86.784 71.9516C86.9299 71.7206 87.0678 71.4846 87.2239 71.2605C87.5289 70.8215 87.8523 70.3954 88.1928 69.9854C84.5419 73.6019 82.2856 78.5886 82.2856 84.0955C82.2856 94.468 90.2859 102.994 100.53 103.997V100.642C96.5093 100.117 92.8878 98.3646 90.0508 95.7862C89.9646 95.7072 89.8744 95.6322 89.7892 95.5522" fill="#C6ECF6"/>
<path d="M106.425 90.1526L106.424 90.1523C106.424 90.1501 106.423 90.1475 106.422 90.1445C106.416 90.1201 106.402 90.0694 106.396 90.011C106.395 90.0076 106.394 90.004 106.393 90.0003C106.389 89.9802 106.385 89.952 106.385 89.9184V84.6091C106.385 84.1047 106.785 83.6775 107.301 83.6775C107.817 83.6775 108.216 84.1047 108.216 84.6091V87.9941C109.862 86.2884 110.972 83.6039 110.972 81C110.972 76.2963 107.257 72.4882 102.714 72.4882C98.1715 72.4882 94.4563 76.2963 94.4563 81C94.4563 85.7037 98.1715 89.5118 102.714 89.5118C103.23 89.5118 103.63 89.939 103.63 90.4434C103.63 90.9478 103.23 91.375 102.714 91.375C97.1403 91.375 92.625 86.7104 92.625 81C92.625 75.2896 97.1403 70.625 102.714 70.625C108.288 70.625 112.803 75.2896 112.803 81C112.803 83.919 111.613 86.9243 109.786 88.9868H112.459C112.975 88.9868 113.375 89.4139 113.375 89.9184C113.375 90.4228 112.975 90.8499 112.459 90.8499H107.301C107.133 90.8499 106.993 90.7982 106.884 90.741C106.848 90.7223 106.821 90.7026 106.807 90.6921L106.791 90.6805C106.79 90.6796 106.79 90.6791 106.789 90.6788C106.707 90.6218 106.637 90.5534 106.578 90.4742C106.577 90.4727 106.575 90.4712 106.574 90.4697L106.425 90.1526ZM106.425 90.1526C106.425 90.1548 106.426 90.1573 106.426 90.1601C106.433 90.1871 106.447 90.24 106.471 90.2967C106.471 90.299 106.472 90.3014 106.473 90.3038C106.479 90.3233 106.489 90.3502 106.506 90.3801L106.425 90.1526ZM107.022 90.3847C107.034 90.3936 107.045 90.4022 107.058 90.4091L106.849 90.213C106.854 90.2172 106.859 90.2213 106.863 90.2272C106.901 90.2846 106.948 90.3322 107.004 90.3713C107.01 90.3757 107.016 90.3802 107.022 90.3847Z" fill="#0F2B4A" stroke="#0F2B4A" stroke-width="0.75"/>
</svg>
