<svg width="28" height="28" viewBox="0 0 28 28" fill="none" xmlns="http://www.w3.org/2000/svg">
<path fill-rule="evenodd" clip-rule="evenodd" d="M14.0002 24.5C20.4434 24.5 25.6668 21.8201 25.6668 18.5145C25.6668 16.1382 22.9678 14.0853 19.0567 13.1188C19.022 12.3621 18.7981 11.6113 18.3839 10.9328L14.7307 4.94716C14.4522 4.49071 14.2598 4.00155 14.1529 3.5L14.0002 3.75009C13.096 5.23157 13.096 7.05684 14.0001 8.5384L16.9227 13.3269C17.8269 14.8085 17.8269 16.6338 16.9227 18.1154L16.77 18.3656C16.6631 17.8639 16.4706 17.3749 16.1921 16.9184L13.5165 12.5346L11.8082 9.73555C11.5297 9.2791 11.3372 8.78994 11.2303 8.28839L11.0776 8.53855C10.1765 10.0151 10.1737 11.833 11.0688 13.3118L11.0685 13.312L14.0002 18.1154C14.9044 19.597 14.9044 21.4222 14.0002 22.9039L13.8475 23.154C13.7406 22.6524 13.5482 22.1632 13.2696 21.7068L9.61642 15.7212C9.12646 14.9184 8.90257 14.0147 8.94362 13.1194C5.03278 14.086 2.3335 16.1383 2.3335 18.5145C2.3335 21.8201 7.55689 24.5 14.0002 24.5Z" fill="#EC0000"/>
</svg>
