<svg width="32" height="32" viewBox="0 0 32 32" fill="none" xmlns="http://www.w3.org/2000/svg">
<g id="Icon">
<path id="&#240;&#159;&#140;&#136; Color" fill-rule="evenodd" clip-rule="evenodd" d="M8.28184 9.62288C11.4309 9.62288 13.8972 11.1689 13.8972 13.1426V19.26C14.9188 18.5322 16.4052 18.0702 18.1087 18.0702C21.2577 18.0702 23.724 19.6163 23.724 21.59V25.8136C23.724 27.7873 21.2577 29.3334 18.1087 29.3334C15.9525 29.3334 14.1387 28.5995 13.1953 27.5088C12.2518 28.5995 10.4381 29.3334 8.28184 29.3334C5.13281 29.3334 2.6665 27.7873 2.6665 25.8136V13.1426C2.6665 11.1689 5.13281 9.62288 8.28184 9.62288ZM12.4933 23.9199C11.4717 24.6477 9.98531 25.1097 8.28184 25.1097C6.57837 25.1097 5.09194 24.6477 4.07034 23.9199V25.8136C4.07034 26.8125 5.79977 27.9255 8.28184 27.9255C10.7639 27.9255 12.4933 26.8125 12.4933 25.8136V23.9199ZM22.3202 23.9199C21.2986 24.6477 19.8121 25.1097 18.1087 25.1097C16.4052 25.1097 14.9188 24.6477 13.8972 23.9199V25.8136C13.8972 26.8125 15.6266 27.9255 18.1087 27.9255C20.5907 27.9255 22.3202 26.8125 22.3202 25.8136V23.9199ZM12.4933 19.6962C11.4717 20.424 9.98531 20.886 8.28184 20.886C6.57837 20.886 5.09194 20.424 4.07034 19.6962V21.59C4.07034 22.5888 5.79977 23.7018 8.28184 23.7018C10.7639 23.7018 12.4933 22.5888 12.4933 21.59V19.6962ZM18.1087 19.4781C15.6266 19.4781 13.8972 20.5911 13.8972 21.59C13.8972 22.5888 15.6266 23.7018 18.1087 23.7018C20.5907 23.7018 22.3202 22.5888 22.3202 21.59C22.3202 20.5911 20.5907 19.4781 18.1087 19.4781ZM12.4933 15.4725C11.4717 16.2004 9.98531 16.6623 8.28184 16.6623C6.57837 16.6623 5.09194 16.2004 4.07034 15.4725V17.3663C4.07034 18.3651 5.79977 19.4781 8.28184 19.4781C10.7639 19.4781 12.4933 18.3651 12.4933 17.3663V15.4725ZM24.1517 2.72005C24.3233 2.6489 24.5162 2.6489 24.6878 2.72005C24.7741 2.75588 24.8519 2.8077 24.9169 2.87301L29.1275 7.09582C29.4017 7.3708 29.4017 7.81627 29.1275 8.09124C28.9904 8.22873 28.8108 8.29748 28.6313 8.29748C28.4517 8.29748 28.2721 8.22873 28.135 8.09124L25.1217 5.06923V15.682L28.135 12.66C28.4092 12.385 28.8533 12.385 29.1275 12.66C29.4017 12.935 29.4017 13.3805 29.1275 13.6554L24.9169 17.8783C24.8519 17.9436 24.7741 17.9954 24.6878 18.0312C24.602 18.0668 24.5111 18.0853 24.4198 18.0853C24.3284 18.0853 24.2375 18.0668 24.1517 18.0312C24.0654 17.9954 23.9876 17.9436 23.9226 17.8783L19.712 13.6554C19.4378 13.3805 19.4378 12.935 19.712 12.66C19.9862 12.385 20.4303 12.385 20.7045 12.66L23.7178 15.682V5.06923L20.7045 8.09124C20.4303 8.36622 19.9862 8.36622 19.712 8.09124C19.4378 7.81627 19.4378 7.3708 19.712 7.09582L23.9226 2.87301C23.9876 2.8077 24.0654 2.75588 24.1517 2.72005ZM8.28184 11.0308C5.79977 11.0308 4.07034 12.1437 4.07034 13.1426C4.07034 14.1415 5.79977 15.2544 8.28184 15.2544C10.7639 15.2544 12.4933 14.1415 12.4933 13.1426C12.4933 12.1437 10.7639 11.0308 8.28184 11.0308Z" fill="#191919"/>
</g>
</svg>
