<svg width="18" height="18" viewBox="0 0 18 18" fill="none" xmlns="http://www.w3.org/2000/svg">
<g id="Icon">
<path id="&#240;&#159;&#140;&#136; Color" fill-rule="evenodd" clip-rule="evenodd" d="M6.19157 15C5.94274 15.0013 5.70358 14.9119 5.52691 14.7515C5.34969 14.5906 5.25 14.3716 5.25 14.1431C5.25 13.9146 5.34969 13.6956 5.52691 13.5347L10.4885 9.00174L5.52691 4.46879C5.15983 4.13278 5.15983 3.58801 5.52691 3.252C5.89399 2.916 6.48915 2.916 6.85623 3.252L12.4731 8.39335C12.6503 8.55424 12.75 8.77326 12.75 9.00174C12.75 9.23022 12.6503 9.44924 12.4731 9.61013L6.85623 14.7515C6.67956 14.9119 6.4404 15.0013 6.19157 15Z" fill="#999999"/>
</g>
</svg>
