<svg width="16" height="16" viewBox="0 0 16 16" fill="none" xmlns="http://www.w3.org/2000/svg">
<path d="M2.40016 2.66666C1.81106 2.66666 1.3335 3.14422 1.3335 3.73332C1.3335 4.32243 1.81106 4.79999 2.40016 4.79999H2.48905C3.07816 4.79999 3.55572 4.32243 3.55572 3.73332C3.55572 3.14422 3.07816 2.66666 2.48905 2.66666H2.40016Z" fill="#EC0000"/>
<path d="M5.40016 2.86666C4.99515 2.86666 4.66683 3.19498 4.66683 3.59999C4.66683 4.005 4.99515 4.33332 5.40016 4.33332H13.9335C14.3385 4.33332 14.6668 4.005 14.6668 3.59999C14.6668 3.19498 14.3385 2.86666 13.9335 2.86666H5.40016Z" fill="#EC0000"/>
<path d="M4.66669 8.03326C4.66669 7.64668 4.98008 7.33329 5.36666 7.33329H13.9667C14.3533 7.33329 14.6667 7.64668 14.6667 8.03326C14.6667 8.41984 14.3533 8.73323 13.9667 8.73323H5.36666C4.98008 8.73323 4.66669 8.41984 4.66669 8.03326Z" fill="#EC0000"/>
<path d="M2.40016 6.93326C1.81106 6.93326 1.3335 7.41082 1.3335 7.99992C1.3335 8.58903 1.81106 9.06659 2.40016 9.06659H2.48905C3.07816 9.06659 3.55572 8.58903 3.55572 7.99992C3.55572 7.41082 3.07816 6.93326 2.48905 6.93326H2.40016Z" fill="#EC0000"/>
<path d="M4.66669 12.2667C4.66669 11.8617 4.99502 11.5333 5.40003 11.5333H13.9334C14.3384 11.5333 14.6667 11.8617 14.6667 12.2667C14.6667 12.6717 14.3384 13 13.9334 13H5.40003C4.99502 13 4.66669 12.6717 4.66669 12.2667Z" fill="#EC0000"/>
<path d="M2.40016 11.2C1.81106 11.2 1.3335 11.6776 1.3335 12.2667C1.3335 12.8558 1.81106 13.3334 2.40016 13.3334H2.48905C3.07816 13.3334 3.55572 12.8558 3.55572 12.2667C3.55572 11.6776 3.07816 11.2 2.48905 11.2H2.40016Z" fill="#EC0000"/>
</svg>
