<svg width="40" height="44" viewBox="0 0 40 44" fill="none" xmlns="http://www.w3.org/2000/svg">
<path fill-rule="evenodd" clip-rule="evenodd" d="M25.7092 15.3333C25.9629 15.3333 26.2062 15.4347 26.3848 15.6149C26.7538 15.9862 26.7538 16.5859 26.3848 16.9572L21.3463 21.9981L26.3848 27.0387C26.565 27.2175 26.6663 27.4608 26.6663 27.7146C26.6663 27.9685 26.565 28.2118 26.3848 28.3905C26.2053 28.5687 25.9622 28.6681 25.7092 28.6666C25.4563 28.6681 25.2132 28.5687 25.0336 28.3905L19.9949 23.3495L14.9657 28.381C14.7877 28.5627 14.5444 28.6656 14.2901 28.6666C14.0372 28.6681 13.7941 28.5687 13.6145 28.3905C13.4343 28.2118 13.333 27.9685 13.333 27.7146C13.333 27.4608 13.4343 27.2175 13.6145 27.0387L18.6473 22.0028L13.6145 16.9667C13.2413 16.5934 13.2413 15.9882 13.6145 15.6149C13.9876 15.2416 14.5926 15.2416 14.9657 15.6149L19.9997 20.6504L25.0336 15.6149C25.2123 15.4347 25.4555 15.3333 25.7092 15.3333Z" fill="#191919"/>
</svg>
