<svg width="20" height="20" viewBox="0 0 20 20" fill="none" xmlns="http://www.w3.org/2000/svg">
<g id="Foundation">
<path id="&#240;&#159;&#140;&#136; Color" fill-rule="evenodd" clip-rule="evenodd" d="M15.0001 11.9442V9.3636C15.0001 7.29777 13.8024 5.47048 12.0834 4.64177V3.75C12.0834 2.60091 11.1492 1.66666 10.0001 1.66666C8.85101 1.66666 7.91676 2.60091 7.91676 3.75V4.61883C7.45651 4.83032 7.02565 5.11317 6.63746 5.46631C5.59661 6.41194 5.00009 7.76123 5.00009 9.16666V11.9442L3.58327 13.8338C3.29762 14.2147 3.25286 14.7168 3.46526 15.1424C3.67848 15.5688 4.10735 15.8333 4.58343 15.8333H7.12554C7.32991 17.243 8.53469 18.3333 10.0001 18.3333C11.4655 18.3333 12.6703 17.243 12.8746 15.8333H15.4168C15.8928 15.8333 16.3217 15.5688 16.5349 15.1424C16.7473 14.7168 16.7026 14.2147 16.4169 13.8338L15.0001 11.9442ZM8.75009 3.75C8.75009 3.06071 9.3108 2.5 10.0001 2.5C10.6894 2.5 11.2501 3.06071 11.2501 3.75V4.33202C11.003 4.26585 10.7503 4.21442 10.49 4.18945C9.89186 4.13406 9.30719 4.18609 8.75009 4.32861V3.75ZM10.0001 17.5C8.99373 17.5 8.15241 16.7833 7.95888 15.8333H12.0413C11.8478 16.7833 11.0065 17.5 10.0001 17.5ZM15.7895 14.7697C15.7171 14.9137 15.5779 15 15.4168 15H4.58343C4.4223 15 4.28314 14.9137 4.21071 14.7697C4.13909 14.6256 4.15374 14.4629 4.25058 14.3335L5.75042 12.3332C5.80413 12.2616 5.83343 12.1737 5.83343 12.0833V9.16666C5.83343 7.9956 6.33066 6.87093 7.19817 6.08235C7.58259 5.73298 8.01777 5.46524 8.485 5.28274C8.49192 5.28 8.49838 5.27725 8.50514 5.2742C8.97562 5.09328 9.4785 4.99918 9.99603 4.99918C10.1336 4.99918 10.2711 5.00569 10.4103 5.01953C12.5172 5.22054 14.1668 7.1289 14.1668 9.3636V12.0833C14.1668 12.1737 14.1961 12.2616 14.2498 12.3332L15.7496 14.3335C15.8464 14.4629 15.8611 14.6256 15.7895 14.7697Z" fill="#0D0D0D"/>
</g>
</svg>
