<svg width="32" height="32" viewBox="0 0 32 32" fill="none" xmlns="http://www.w3.org/2000/svg">
<path fill-rule="evenodd" clip-rule="evenodd" d="M11.0677 4.57343C12.6146 3.16718 14.6165 2.50117 16.7181 2.70169C20.4277 3.0552 23.3333 6.38723 23.3333 10.287V15.9927H23.9883C25.4648 15.9927 26.6667 17.1945 26.6667 18.6711V24.0292C26.6667 26.9497 24.2904 29.326 21.3691 29.326H10.6309C7.70963 29.326 5.33333 26.9497 5.33333 24.0292V18.6711C5.33333 17.1945 6.53515 15.9927 8.01171 15.9927H8.66666V10.0005C8.66666 7.93932 9.54166 5.9608 11.0677 4.57343ZM23.9883 17.326H8.01171C7.27018 17.326 6.66666 17.9289 6.66666 18.6711V24.0292C6.66666 26.2141 8.44531 27.9927 10.6309 27.9927H21.3691C23.5547 27.9927 25.3333 26.2141 25.3333 24.0292V18.6711C25.3333 17.9289 24.7298 17.326 23.9883 17.326ZM12.6667 22.6633C13.0352 22.6633 13.3333 22.9615 13.3333 23.3299C13.3333 23.6984 13.0352 23.9966 12.6667 23.9966H11.3333C10.9648 23.9966 10.6667 23.6984 10.6667 23.3299C10.6667 22.9615 10.9648 22.6633 11.3333 22.6633H12.6667ZM16.6667 22.6633C17.0352 22.6633 17.3333 22.9615 17.3333 23.3299C17.3333 23.6984 17.0352 23.9966 16.6667 23.9966H15.3333C14.9648 23.9966 14.6667 23.6984 14.6667 23.3299C14.6667 22.9615 14.9648 22.6633 15.3333 22.6633H16.6667ZM20.6667 22.6633C21.0352 22.6633 21.3333 22.9615 21.3333 23.3299C21.3333 23.6984 21.0352 23.9966 20.6667 23.9966H19.3333C18.9648 23.9966 18.6667 23.6984 18.6667 23.3299C18.6667 22.9615 18.9648 22.6633 19.3333 22.6633H20.6667ZM16.5918 4.02851C14.8756 3.87096 13.2318 4.40872 11.9648 5.55976C10.7161 6.69518 9.99999 8.31367 9.99999 10.0005V15.9927H11.3333V9.9927C11.3333 7.41979 13.4271 5.32604 16 5.32604C18.5729 5.32604 20.6667 7.41979 20.6667 9.9927V15.9927H22V10.287C22 7.06692 19.6243 4.31822 16.5918 4.02851ZM16 6.65937C14.1621 6.65937 12.6667 8.15481 12.6667 9.9927V15.9927H19.3333V9.9927C19.3333 8.15481 17.8379 6.65937 16 6.65937Z" fill="#191919"/>
</svg>
