<svg width="20" height="20" viewBox="0 0 20 20" fill="none" xmlns="http://www.w3.org/2000/svg">
<path fill-rule="evenodd" clip-rule="evenodd" d="M16.6994 4.16667C17.6011 4.16667 18.3343 5.02259 18.3343 6.07456V13.9254C18.3343 14.9774 17.6011 15.8333 16.6994 15.8333H3.30096C2.40009 15.8333 1.66766 14.9784 1.66766 13.9278V6.07456C1.66766 5.02259 2.4009 4.16667 3.30259 4.16667H16.6994ZM17.501 12.9167H2.501V13.9278C2.501 14.4424 2.85988 14.8611 3.30096 14.8611H16.6994C17.1413 14.8611 17.501 14.4415 17.501 13.9254V12.9167ZM17.501 10.9722H2.501V11.9444H17.501V10.9722ZM16.6994 5.13889H3.30259C2.8607 5.13889 2.501 5.55854 2.501 6.07456V10H17.501V6.07456C17.501 5.55854 17.1413 5.13889 16.6994 5.13889Z" fill="#EC0000"/>
</svg>
