<svg width="30" height="48" viewBox="0 0 30 48" fill="none" xmlns="http://www.w3.org/2000/svg">
<g clip-path="url(#clip0_5579_98387)">
<rect width="30.1176" height="48" rx="2.82353" fill="#E12526"/>
<path d="M16.0129 13.457C16.0034 13.2324 15.9403 13.0136 15.8295 12.82L14.8363 11.0754C14.7618 10.9437 14.7083 10.8024 14.6796 10.6533L14.6376 10.7268C14.3912 11.1586 14.3912 11.6911 14.6376 12.1229L15.4322 13.5189C15.6786 13.9507 15.6786 14.4832 15.4322 14.915L15.3902 14.9886C15.3615 14.8395 15.3081 14.6981 15.2336 14.5665L14.5058 13.2885L14.0397 12.4714C13.9652 12.3398 13.9117 12.1984 13.8831 12.0493L13.8411 12.1229C13.5966 12.5527 13.5947 13.0833 13.8392 13.5151L14.6376 14.915C14.884 15.3468 14.884 15.8793 14.6376 16.3111L14.5956 16.3827C14.5669 16.2336 14.5134 16.0923 14.4389 15.9606L13.4457 14.216C13.3139 13.9856 13.2508 13.7223 13.2623 13.457C12.1983 13.7377 11.4648 14.338 11.4648 15.0292C11.4648 15.9935 12.886 16.7738 14.6395 16.7738C16.393 16.7738 17.8123 15.9935 17.8123 15.0292C17.8104 14.338 17.0769 13.7397 16.0129 13.457Z" fill="white"/>
<path d="M30 26.9991H7.35744V34.1774H-0.28125" stroke="white" stroke-width="0.235294" stroke-miterlimit="10"/>
<path d="M24.1966 39.5294C23.575 39.5271 22.9698 39.731 22.472 40.1061C21.9743 39.731 21.369 39.5294 20.7474 39.5318C19.1513 39.5458 17.8684 40.8562 17.8824 42.4573C17.8965 44.0372 19.17 45.3171 20.7474 45.3312C21.369 45.3335 21.9743 45.1319 22.472 44.7569C22.9698 45.1319 23.575 45.3335 24.1966 45.3312C25.7927 45.3171 27.0756 44.0067 27.0616 42.4057C27.0476 40.8234 25.7716 39.5458 24.1966 39.5294Z" fill="white"/>
<path d="M23.6944 40.2281H21.2524V44.6304H23.6944V40.2281Z" fill="#F26522"/>
<path d="M21.4068 42.4287C21.4068 41.5708 21.7994 40.7573 22.4724 40.2276C21.2619 39.2735 19.5069 39.4821 18.5535 40.6987C17.6024 41.913 17.8104 43.6735 19.0232 44.6299C20.035 45.4269 21.4605 45.4269 22.4724 44.6299C21.7994 44.1001 21.4044 43.289 21.4068 42.4287Z" fill="#E51B24"/>
<path d="M26.9875 42.4289C26.9875 43.9736 25.7372 45.2278 24.1973 45.2278C23.571 45.2278 22.9657 45.0168 22.4727 44.63C23.6831 43.6736 23.8935 41.9155 22.9424 40.6989C22.8045 40.5231 22.6479 40.366 22.4727 40.2277C23.6831 39.2713 25.4381 39.4823 26.3916 40.6989C26.7771 41.1935 26.9875 41.803 26.9875 42.4289Z" fill="#F99F1C"/>
<path d="M26.7206 44.1636V44.0745H26.758V44.0557H26.6646V44.0745H26.7019V44.1636H26.7206ZM26.9006 44.1636V44.0557H26.8725L26.8398 44.1307L26.8071 44.0557H26.7791V44.1636H26.8001V44.0815L26.8305 44.1518H26.8515L26.8819 44.0815V44.1636H26.9006Z" fill="white"/>
</g>
<defs>
<clipPath id="clip0_5579_98387">
<rect width="48" height="30" fill="white" transform="translate(30) rotate(90)"/>
</clipPath>
</defs>
</svg>
