<svg width="20" height="20" viewBox="0 0 20 20" fill="none" xmlns="http://www.w3.org/2000/svg">
<g id="Banking / Reports">
<path id="&#240;&#159;&#140;&#136; Color" fill-rule="evenodd" clip-rule="evenodd" d="M11.6878 1.66666C12.5952 1.66666 13.3334 2.40478 13.3334 3.31216V3.33332H15.4167C15.647 3.33332 15.8334 3.51968 15.8334 3.74999V17.9167C15.8334 18.147 15.647 18.3333 15.4167 18.3333H4.58335C4.35305 18.3333 4.16669 18.147 4.16669 17.9167V3.74999C4.16669 3.51968 4.35305 3.33332 4.58335 3.33332H6.66669V3.31216C6.66669 2.40478 7.40481 1.66666 8.31219 1.66666H11.6878ZM6.66669 4.16666H5.00002V17.5H15V4.16666H13.3334V4.58332C13.3334 4.81363 13.147 4.99999 12.9167 4.99999H7.08335C6.85305 4.99999 6.66669 4.81363 6.66669 4.58332V4.16666ZM12.9167 14.1667C13.147 14.1667 13.3334 14.353 13.3334 14.5833C13.3334 14.8136 13.147 15 12.9167 15H7.08335C6.85305 15 6.66669 14.8136 6.66669 14.5833C6.66669 14.353 6.85305 14.1667 7.08335 14.1667H12.9167ZM12.9167 11.6667C13.147 11.6667 13.3334 11.853 13.3334 12.0833C13.3334 12.3136 13.147 12.5 12.9167 12.5H7.08335C6.85305 12.5 6.66669 12.3136 6.66669 12.0833C6.66669 11.853 6.85305 11.6667 7.08335 11.6667H12.9167ZM12.9167 9.16666C13.147 9.16666 13.3334 9.35302 13.3334 9.58332C13.3334 9.81363 13.147 9.99999 12.9167 9.99999H7.08335C6.85305 9.99999 6.66669 9.81363 6.66669 9.58332C6.66669 9.35302 6.85305 9.16666 7.08335 9.16666H12.9167ZM12.9167 6.66666C13.147 6.66666 13.3334 6.85302 13.3334 7.08332C13.3334 7.31363 13.147 7.49999 12.9167 7.49999H7.08335C6.85305 7.49999 6.66669 7.31363 6.66669 7.08332C6.66669 6.85302 6.85305 6.66666 7.08335 6.66666H12.9167ZM11.6878 2.49999H8.31219C7.8642 2.49999 7.50002 2.86457 7.50002 3.31216V4.16666H12.5V3.31216C12.5 2.86457 12.1358 2.49999 11.6878 2.49999Z" fill="#191919"/>
</g>
</svg>
