<svg width="137" height="24" viewBox="0 0 137 24" fill="none" xmlns="http://www.w3.org/2000/svg">
<g id=" Santander Imagotype" clip-path="url(#clip0_6073_64969)">
<path id="LogoSantander" fill-rule="evenodd" clip-rule="evenodd" d="M137 10.7798C137 11.5617 136.905 12.5094 136.763 13.007C136.147 12.9356 135.531 12.9121 134.796 12.9121C134.157 12.9121 133.517 12.9597 132.877 13.0542V23.1944H130.271V11.3484C131.384 10.9693 133.256 10.6853 134.725 10.6853C135.531 10.6853 136.431 10.7088 137 10.7798ZM119.513 15.9447H125.389C125.389 14.0019 124.347 12.8648 122.546 12.8648C120.698 12.8648 119.726 13.9308 119.513 15.9447ZM127.877 18.1244H119.56C119.892 20.2329 121.124 21.2518 123.446 21.2518C124.868 21.2518 126.313 20.9437 127.616 20.3513C127.522 21.0384 127.38 21.9387 127.214 22.7204C126.029 23.2655 124.773 23.4786 123.375 23.4786C119.015 23.4786 116.907 21.0621 116.907 17.0108C116.907 13.4807 118.542 10.6853 122.688 10.6853C126.408 10.6853 128.019 13.1253 128.019 16.1105C128.019 16.845 127.972 17.4373 127.877 18.1244ZM112.191 20.446V13.1491C111.504 13.007 110.793 12.9121 110.106 12.9121C107.523 12.9121 106.291 14.5233 106.291 17.2241C106.291 19.6406 107.263 21.3465 109.585 21.3465C110.627 21.3465 111.48 20.9911 112.191 20.446ZM114.774 6.61009V23.1944H112.38L112.238 21.6782C111.575 22.7918 110.556 23.4786 108.85 23.4786C105.722 23.4786 103.637 21.2042 103.637 17.2241C103.637 13.0542 105.864 10.6853 110.248 10.6853C110.935 10.6853 111.575 10.7561 112.191 10.8747V6.9655C112.996 6.68114 113.92 6.61009 114.774 6.61009ZM101.551 15.2341V23.1944H98.9451V15.6841C98.9451 13.8126 98.329 12.9121 95.7225 12.9121C95.1065 12.9121 94.3719 12.9832 93.6612 13.1016V23.1944H91.0548V11.3484C92.7133 10.9458 94.5379 10.6853 95.7936 10.6853C100.153 10.6853 101.551 12.3671 101.551 15.2341ZM85.6044 20.4936V13.0542C85.0596 12.9597 84.4669 12.9121 83.7327 12.9121C81.0313 12.9121 79.7757 14.5706 79.7757 17.2241C79.7757 19.6406 80.7473 21.3465 83.0691 21.3465C84.088 21.3465 84.9175 21.0149 85.6044 20.4936ZM88.211 11.3484V23.1944H85.8177L85.6758 21.773C85.0122 22.8153 83.9932 23.4786 82.3347 23.4786C79.207 23.4786 77.122 21.2042 77.122 17.2241C77.122 13.0542 79.3491 10.6853 83.7327 10.6853C85.4387 10.6853 86.8367 10.8747 88.211 11.3484ZM74.2305 21.2518C74.9888 21.2518 75.6997 21.1095 76.2683 20.8963C76.1973 21.607 76.1024 22.4127 75.9602 23.0995C75.2493 23.3839 74.4912 23.4786 73.7568 23.4786C71.2214 23.4786 69.6101 22.3177 69.6101 19.4273V6.98919C70.4158 6.72851 71.4109 6.61009 72.2167 6.61009V11.0879H76.3394C76.292 11.8934 76.2211 12.6279 76.1024 13.3147H72.2167V19.1194C72.2167 20.6593 72.9748 21.2518 74.2305 21.2518ZM67.0032 15.2341V23.1944H64.3967V15.6841C64.3967 13.8126 63.7806 12.9121 61.1743 12.9121C60.5581 12.9121 59.8237 12.9832 59.1128 13.1016V23.1944H56.5065V11.3484C58.1651 10.9458 59.9895 10.6853 61.2454 10.6853C65.6052 10.6853 67.0032 12.3671 67.0032 15.2341ZM51.0561 20.4936V13.0542C50.5112 12.9597 49.9189 12.9121 49.1843 12.9121C46.4831 12.9121 45.2274 14.5706 45.2274 17.2241C45.2274 19.6406 46.1989 21.3465 48.5209 21.3465C49.5398 21.3465 50.3691 21.0149 51.0561 20.4936ZM53.6626 11.3484V23.1944H51.2695L51.1274 21.773C50.4638 22.8153 49.445 23.4786 47.7865 23.4786C44.6587 23.4786 42.5736 21.2042 42.5736 17.2241C42.5736 13.0542 44.8009 10.6853 49.1843 10.6853C50.8903 10.6853 52.2883 10.8747 53.6626 11.3484ZM29.9913 22.6732C30.0387 21.7017 30.1808 21.0384 30.4415 20.2804C31.7684 20.8963 33.4743 21.2042 34.7777 21.2042C36.9811 21.2042 38.2133 20.4936 38.2133 19.0958C38.2133 17.7216 37.3129 17.0819 35.0856 16.1105L33.8771 15.5895C31.6498 14.618 30.1334 13.3623 30.1334 10.8509C30.1334 8.15016 32.0054 6.42046 35.8439 6.42046C37.3839 6.42046 38.8293 6.63394 40.1799 7.1076C40.1088 8.05526 39.943 8.78977 39.706 9.47692C38.4265 9.00292 36.9101 8.78977 35.82 8.78977C33.7587 8.78977 32.8109 9.59533 32.8109 10.8509C32.8109 12.0829 33.735 12.7937 35.3937 13.5045L36.6732 14.0493C39.6823 15.3288 40.938 16.6792 40.938 18.9773C40.938 21.7017 38.8767 23.5735 34.8486 23.5735C32.9057 23.5735 31.3182 23.2893 29.9913 22.6732ZM18.0816 10.993C18.0441 10.1281 17.8021 9.27015 17.3542 8.49466L13.4043 1.65378C13.1031 1.13225 12.8949 0.573096 12.7795 0L12.6144 0.285708C11.6367 1.97896 11.6367 4.06492 12.6142 5.75817L15.7743 11.2308C16.7518 12.9241 16.7518 15.0102 15.7743 16.7033L15.6092 16.9891C15.4936 16.4159 15.2855 15.8569 14.9843 15.3354L12.0915 10.3251L10.2443 7.12625C9.94313 6.60472 9.73516 6.04556 9.61942 5.47246L9.45446 5.75834C8.48016 7.44572 8.47713 9.52344 9.44489 11.2135L9.44455 11.2137L12.6144 16.7033C13.5921 18.3965 13.5921 20.4826 12.6144 22.1759L12.4493 22.4618C12.3337 21.8885 12.1256 21.3295 11.8244 20.8078L7.87457 13.9671C7.34475 13.0495 7.10269 12.0167 7.14704 10.9936C2.91855 12.0982 0 14.4436 0 17.1593C0 20.9373 5.64761 24 12.6144 24C19.581 24 25.2286 20.9373 25.2286 17.1593C25.2286 14.4436 22.3104 12.0975 18.0816 10.993Z" fill="#EC0000"/>
</g>
<defs>
<clipPath id="clip0_6073_64969">
<rect width="137" height="24" fill="white"/>
</clipPath>
</defs>
</svg>
