<svg width="145" height="26" viewBox="0 0 145 26" fill="none" xmlns="http://www.w3.org/2000/svg">
<g clip-path="url(#clip0_1677_9392)">
<path fill-rule="evenodd" clip-rule="evenodd" d="M145 11.6781C145 12.5252 144.9 13.5518 144.749 14.091C144.097 14.0136 143.445 13.9881 142.668 13.9881C141.991 13.9881 141.314 14.0396 140.636 14.1421V25.1273H137.878V12.2941C139.057 11.8834 141.038 11.5757 142.593 11.5757C143.445 11.5757 144.398 11.6012 145 11.6781ZM126.492 17.2735H132.711C132.711 15.1687 131.608 13.9368 129.702 13.9368C127.746 13.9368 126.718 15.0917 126.492 17.2735ZM135.344 19.6348H126.542C126.893 21.919 128.197 23.0227 130.655 23.0227C132.159 23.0227 133.689 22.689 135.068 22.0472C134.968 22.7916 134.818 23.767 134.642 24.6138C133.388 25.2043 132.059 25.4352 130.58 25.4352C125.965 25.4352 123.733 22.8173 123.733 18.4284C123.733 14.6041 125.464 11.5757 129.852 11.5757C133.789 11.5757 135.495 14.2191 135.495 17.4531C135.495 18.2488 135.445 18.8904 135.344 19.6348ZM118.742 22.1499V14.2449C118.015 14.091 117.263 13.9881 116.535 13.9881C113.802 13.9881 112.498 15.7335 112.498 18.6595C112.498 21.2774 113.526 23.1254 115.984 23.1254C117.087 23.1254 117.99 22.7403 118.742 22.1499ZM121.476 7.16093V25.1273H118.943L118.792 23.4847C118.09 24.6911 117.012 25.4352 115.206 25.4352C111.896 25.4352 109.689 22.9712 109.689 18.6595C109.689 14.1421 112.046 11.5757 116.686 11.5757C117.413 11.5757 118.09 11.6525 118.742 11.7809V7.54596C119.595 7.2379 120.573 7.16093 121.476 7.16093ZM107.481 16.5036V25.1273H104.723V16.9911C104.723 14.9636 104.071 13.9881 101.312 13.9881C100.66 13.9881 99.8827 14.0651 99.1305 14.1934V25.1273H96.3718V12.2941C98.1272 11.8579 100.058 11.5757 101.387 11.5757C106.002 11.5757 107.481 13.3977 107.481 16.5036ZM90.6031 22.2014V14.1421C90.0266 14.0396 89.3993 13.9881 88.6222 13.9881C85.7631 13.9881 84.4341 15.7848 84.4341 18.6595C84.4341 21.2774 85.4624 23.1254 87.9199 23.1254C88.9982 23.1254 89.8762 22.7662 90.6031 22.2014ZM93.362 12.2941V25.1273H90.829L90.6787 23.5874C89.9764 24.7166 88.8979 25.4352 87.1426 25.4352C83.8323 25.4352 81.6255 22.9712 81.6255 18.6595C81.6255 14.1421 83.9827 11.5757 88.6222 11.5757C90.4278 11.5757 91.9074 11.7809 93.362 12.2941ZM78.5651 23.0227C79.3677 23.0227 80.1201 22.8686 80.7219 22.6377C80.6467 23.4076 80.5463 24.2805 80.3959 25.0245C79.6435 25.3326 78.8411 25.4352 78.0638 25.4352C75.3803 25.4352 73.6749 24.1775 73.6749 21.0463V7.57162C74.5276 7.28921 75.5809 7.16093 76.4338 7.16093V12.0119H80.7971C80.747 12.8845 80.672 13.6803 80.5463 14.4243H76.4338V20.7127C76.4338 22.381 77.2361 23.0227 78.5651 23.0227ZM70.9158 16.5036V25.1273H68.1571V16.9911C68.1571 14.9636 67.505 13.9881 64.7465 13.9881C64.0944 13.9881 63.3171 14.0651 62.5647 14.1934V25.1273H59.8062V12.2941C61.5616 11.8579 63.4926 11.5757 64.8217 11.5757C69.4362 11.5757 70.9158 13.3977 70.9158 16.5036ZM54.0375 22.2014V14.1421C53.4608 14.0396 52.8339 13.9881 52.0564 13.9881C49.1975 13.9881 47.8685 15.7848 47.8685 18.6595C47.8685 21.2774 48.8966 23.1254 51.3543 23.1254C52.4326 23.1254 53.3104 22.7662 54.0375 22.2014ZM56.7962 12.2941V25.1273H54.2633L54.1129 23.5874C53.4106 24.7166 52.3323 25.4352 50.577 25.4352C47.2665 25.4352 45.0597 22.9712 45.0597 18.6595C45.0597 14.1421 47.417 11.5757 52.0564 11.5757C53.862 11.5757 55.3416 11.7809 56.7962 12.2941ZM31.7426 24.5627C31.7928 23.5102 31.9432 22.7916 32.2191 21.9705C33.6235 22.6377 35.429 22.9712 36.8085 22.9712C39.1406 22.9712 40.4447 22.2014 40.4447 20.6871C40.4447 19.1984 39.4917 18.5054 37.1344 17.4531L35.8553 16.8886C33.498 15.8361 31.893 14.4758 31.893 11.7551C31.893 8.82934 33.8744 6.9555 37.9369 6.9555C39.567 6.9555 41.0967 7.18677 42.5261 7.6999C42.4509 8.72653 42.2755 9.52225 42.0246 10.2667C40.6703 9.75316 39.0654 9.52225 37.9117 9.52225C35.73 9.52225 34.7269 10.3949 34.7269 11.7551C34.7269 13.0898 35.7049 13.8599 37.4605 14.6299L38.8147 15.22C41.9995 16.6062 43.3285 18.0692 43.3285 20.5588C43.3285 23.5102 41.1468 25.538 36.8835 25.538C34.8272 25.538 33.147 25.2301 31.7426 24.5627ZM19.1375 11.909C19.0978 10.9721 18.8416 10.0427 18.3676 9.20254L14.187 1.7916C13.8682 1.22661 13.6479 0.620854 13.5258 0L13.351 0.309517C12.3163 2.14388 12.3163 4.40366 13.3508 6.23802L16.6955 12.1667C17.7301 14.0011 17.7301 16.261 16.6955 18.0952L16.5207 18.4049C16.3984 17.7839 16.1781 17.1783 15.8593 16.6133L12.7975 11.1856L10.8425 7.7201C10.5237 7.15511 10.3036 6.54936 10.1811 5.9285L10.0065 6.2382C8.97535 8.06619 8.97215 10.3171 9.99641 12.148L13.351 18.0952C14.3858 19.9296 14.3858 22.1895 13.351 24.0239L13.1762 24.3336C13.0539 23.7126 12.8336 23.107 12.5149 22.5418L8.3344 15.131C7.77364 14.137 7.51745 13.0181 7.56438 11.9098C3.08898 13.1064 0 15.6473 0 18.5892C0 22.6821 5.9774 26 13.351 26C20.7244 26 26.7018 22.6821 26.7018 18.5892C26.7018 15.6473 23.6132 13.1056 19.1375 11.909Z" fill="#EC0000"/>
</g>
<defs>
<clipPath id="clip0_1677_9392">
<rect width="145" height="26" fill="white"/>
</clipPath>
</defs>
</svg>
