<svg width="20" height="20" viewBox="0 0 20 20" fill="none" xmlns="http://www.w3.org/2000/svg">
<path fill-rule="evenodd" clip-rule="evenodd" d="M7.68521 1.66663C4.3667 1.66663 1.66669 4.36664 1.66669 7.68514C1.66669 11.0036 4.3667 13.7037 7.68521 13.7037C8.67064 13.7037 9.59888 13.4609 10.4207 13.0393L15.1487 17.7682C15.5095 18.1289 15.9842 18.3089 16.458 18.3089C16.9327 18.3089 17.4074 18.1289 17.7682 17.7682C18.4898 17.0457 18.4898 15.8711 17.7682 15.1486L13.0393 10.4207C13.461 9.59882 13.7037 8.67058 13.7037 7.68514C13.7037 4.36664 11.0037 1.66663 7.68521 1.66663ZM2.59261 7.68514C2.59261 4.87753 4.87714 2.59255 7.68521 2.59255C10.4933 2.59255 12.7778 4.87753 12.7778 7.68514C12.7778 10.4928 10.4933 12.7777 7.68521 12.7777C4.87714 12.7777 2.59261 10.4928 2.59261 7.68514ZM17.1136 15.8033C17.4743 16.1641 17.4743 16.7527 17.1136 17.1135C16.7528 17.4725 16.1659 17.4743 15.8033 17.1135L11.2293 12.5386C11.7304 12.1716 12.1717 11.7303 12.5386 11.2292L17.1136 15.8033Z" fill="#595959"/>
</svg>
