<svg width="109" height="30" viewBox="0 0 109 30" fill="none" xmlns="http://www.w3.org/2000/svg">
<path d="M2.5 28C2.5 28 23.0581 12 54.5 12C85.9419 12 106.5 27.1111 106.5 27.1111" stroke="#0D0D0D" stroke-width="2" stroke-linecap="round" stroke-linejoin="round" stroke-dasharray="8 8"/>
<path d="M48.5 12L45.5 20.5L46.5 21.5L64.5 12L46.5 2.5L45 3.5L48.5 12Z" fill="white"/>
<path fill-rule="evenodd" clip-rule="evenodd" d="M61.2549 11.9062C61.8131 11.3477 62.7217 11.3477 63.28 11.9062L64.0817 12.709C64.6395 13.2676 64.6395 14.1768 64.0813 14.7354L62.6207 16.1963L56.967 21.8535C56.8733 21.9473 56.7464 22 56.6137 22H54.4939C54.2177 22 53.9942 21.7764 53.9942 21.5V19.3789C53.9942 19.2461 54.0469 19.1191 54.1406 19.0254L59.7938 13.3682L61.2549 11.9062ZM62.5729 12.6133C62.405 12.4453 62.1303 12.4453 61.9615 12.6133L60.5004 14.0752L54.9936 19.5859V21H56.4068L61.9141 15.4893L63.3747 14.0283C63.5435 13.8594 63.5435 13.585 63.3747 13.416L62.5729 12.6133ZM49.0763 6.0791C49.3525 6.0791 49.576 6.30273 49.576 6.5791C49.576 6.85547 49.3525 7.0791 49.0763 7.0791H48.3026C48.0838 8.52698 46.9461 9.6651 45.4994 9.88403V13.0632C46.9461 13.2822 48.0838 14.4203 48.3026 15.8682H53.9942C54.2704 15.8682 54.4939 16.0918 54.4939 16.3682C54.4939 16.6445 54.2704 16.8682 53.9942 16.8682H44.9997C44.7235 16.8682 44.5 16.6445 44.5 16.3682V6.5791C44.5 6.30273 44.7235 6.0791 44.9997 6.0791H49.0763ZM45.4994 14.0687V15.8682H47.2978C47.1027 14.9706 46.3964 14.2639 45.4994 14.0687ZM52.3916 2.14648C52.5868 1.95117 52.903 1.95117 53.0982 2.14648L55.544 4.59375C55.7392 4.78906 55.7392 5.10547 55.544 5.30078C55.4464 5.39844 55.3186 5.44727 55.1907 5.44727C55.0629 5.44727 54.935 5.39844 54.8374 5.30078L53.2446 3.70703V8.57697C54.6304 8.81616 55.6904 10.0198 55.6904 11.4736C55.6904 13.0986 54.3689 14.4209 52.7449 14.4209C51.1209 14.4209 49.7995 13.0986 49.7995 11.4736C49.7995 10.0198 50.8595 8.81616 52.2452 8.57697V3.70703L50.6525 5.30078C50.4573 5.49609 50.1411 5.49609 49.9459 5.30078C49.7507 5.10547 49.7507 4.78906 49.9459 4.59375L52.3916 2.14648ZM52.7449 9.52637C51.6719 9.52637 50.7989 10.4004 50.7989 11.4736C50.7989 12.5469 51.6719 13.4209 52.7449 13.4209C53.818 13.4209 54.691 12.5469 54.691 11.4736C54.691 10.4004 53.818 9.52637 52.7449 9.52637ZM60.4902 6.0791C60.7664 6.0791 60.9899 6.30273 60.9899 6.5791V11.1084C60.9899 11.3848 60.7664 11.6084 60.4902 11.6084C60.214 11.6084 59.9905 11.3848 59.9905 11.1084V9.88403C58.5438 9.6651 57.4061 8.52698 57.1873 7.0791H56.4136C56.1374 7.0791 55.9139 6.85547 55.9139 6.5791C55.9139 6.30273 56.1374 6.0791 56.4136 6.0791H60.4902ZM59.9905 7.0791H58.1921C58.3872 7.97662 59.0935 8.68341 59.9905 8.8786V7.0791ZM47.2978 7.0791H45.4994V8.8786C46.3964 8.68341 47.1027 7.97662 47.2978 7.0791Z" fill="#0D0D0D"/>
</svg>
