<svg width="20" height="20" viewBox="0 0 20 20" fill="none" xmlns="http://www.w3.org/2000/svg">
<g id="Functional / Settings">
<path id="&#240;&#159;&#140;&#136; Color" fill-rule="evenodd" clip-rule="evenodd" d="M11.7876 1.66666C12.0498 1.66666 12.2619 1.87417 12.2619 2.13063V3.67296C12.2619 3.7654 12.336 3.82611 12.4054 3.85148C13.0686 4.1025 13.6836 4.45138 14.2347 4.88998C14.2931 4.93529 14.3838 4.96882 14.4681 4.92169L15.8352 4.14962C15.9427 4.08709 16.0724 4.07169 16.1955 4.1025C16.3169 4.13512 16.4206 4.21215 16.4827 4.31908L18.2694 7.34757C18.4009 7.56959 18.3231 7.85322 18.0962 7.981L16.7337 8.75126C16.6633 8.79113 16.6281 8.87722 16.6429 8.96965C16.7003 9.31491 16.73 9.66198 16.73 9.99999C16.73 10.338 16.7003 10.6851 16.6429 11.0303C16.6281 11.1237 16.6633 11.2088 16.7328 11.2478L18.0962 12.019C18.3231 12.1468 18.4009 12.4304 18.2694 12.6524L16.4827 15.6809C16.353 15.9029 16.0631 15.9781 15.8352 15.8513L14.4672 15.0792C14.3857 15.0303 14.2912 15.0647 14.2338 15.1109C13.6818 15.5504 13.0668 15.8993 12.4073 16.1476C12.3369 16.1739 12.2619 16.2346 12.2619 16.327V17.8694C12.2619 18.1258 12.0498 18.3333 11.7876 18.3333H8.2124C7.95028 18.3333 7.73818 18.1258 7.73818 17.8694V16.327C7.73818 16.2346 7.66315 16.1739 7.59369 16.1476C6.93329 15.8993 6.31827 15.5504 5.76531 15.11C5.70789 15.0647 5.61527 15.0321 5.53376 15.0783L4.1648 15.8513C3.93694 15.9772 3.64703 15.902 3.51736 15.6809L1.73067 12.6524C1.59915 12.4304 1.67695 12.1468 1.90388 12.019L3.26636 11.2487C3.33675 11.2088 3.37195 11.1237 3.35713 11.0312C3.2997 10.6851 3.27006 10.338 3.27006 9.99999C3.27006 9.66198 3.2997 9.31491 3.35713 8.97056C3.37195 8.87722 3.33675 8.79113 3.26636 8.75126L1.90388 7.981C1.67695 7.85322 1.59915 7.56959 1.73067 7.34757L3.51736 4.31908C3.57942 4.21215 3.68316 4.13512 3.80449 4.1025C3.92768 4.07169 4.05735 4.08709 4.16479 4.14962L5.53283 4.9226C5.61434 4.967 5.70789 4.93529 5.76531 4.88907C6.31642 4.45138 6.93143 4.1025 7.59276 3.85239C7.66408 3.82611 7.73818 3.7654 7.73818 3.67296V2.13063C7.73818 1.87417 7.95028 1.66666 8.2124 1.66666H11.7876ZM11.3134 2.5946H8.68663V3.67296C8.68663 4.13784 8.39024 4.54925 7.93176 4.71961C7.36583 4.93257 6.83696 5.23252 6.36366 5.60949C5.98205 5.91216 5.46985 5.95657 5.05953 5.72639L4.10089 5.18449L2.78842 7.4101L3.74058 7.94837C4.15553 8.18308 4.37227 8.64252 4.29261 9.12008C4.24352 9.4155 4.21852 9.71182 4.21852 9.99999C4.21852 10.2882 4.24352 10.5845 4.29261 10.8817C4.3732 11.3584 4.15553 11.8187 3.73966 12.0525L2.78842 12.5899L4.10181 14.8155L5.0586 14.2745C5.46707 14.0425 5.9802 14.0869 6.36273 14.3896C6.83974 14.7693 7.36769 15.0683 7.93361 15.2813C8.39117 15.4525 8.68663 15.863 8.68663 16.327V17.4054H11.3134V16.327C11.3134 15.863 11.6089 15.4525 12.0674 15.2813C12.6324 15.0683 13.1603 14.7693 13.6364 14.3905C14.0198 14.0878 14.5311 14.0434 14.9424 14.2754L15.8982 14.8155L17.2116 12.5899L16.2595 12.0516C15.8445 11.8187 15.6268 11.3584 15.7074 10.8808C15.7565 10.5845 15.7815 10.2882 15.7815 9.99999C15.7815 9.71182 15.7565 9.4155 15.7074 9.12008C15.6278 8.64252 15.8445 8.18308 16.2595 7.94837L17.2116 7.4101L15.8992 5.18449L14.9414 5.72549C14.5293 5.95838 14.0189 5.91126 13.6364 5.6104C13.1631 5.23252 12.6342 4.93257 12.0664 4.71871C11.6098 4.54925 11.3134 4.13784 11.3134 3.67296V2.5946ZM7.70113 7.76985C8.9293 6.56824 11.0707 6.56824 12.2989 7.76985C12.913 8.37066 13.2511 9.16901 13.2511 10.019C13.2511 10.869 12.913 11.6674 12.2989 12.2682C11.6848 12.869 10.8688 13.1998 10 13.1998C9.13122 13.1998 8.31521 12.869 7.70113 12.2682C7.08704 11.6674 6.74897 10.869 6.74897 10.019C6.74897 9.16901 7.08704 8.37066 7.70113 7.76985ZM10 7.76714C9.41001 7.76714 8.82093 7.98643 8.37171 8.42594C7.4742 9.30404 7.4742 10.734 8.37171 11.6121C9.27015 12.4911 10.7299 12.4911 11.6283 11.6121C12.5258 10.734 12.5258 9.30404 11.6283 8.42594C11.1791 7.98643 10.59 7.76714 10 7.76714Z" fill="#191919"/>
</g>
</svg>
