<svg width="20" height="20" viewBox="0 0 20 20" fill="none" xmlns="http://www.w3.org/2000/svg">
<g id="Functional / SignOff">
<path id="&#240;&#159;&#140;&#136; Color" fill-rule="evenodd" clip-rule="evenodd" d="M7.09376 1.66635C7.32388 1.66635 7.51043 1.8529 7.51043 2.08302C7.51043 2.31314 7.32388 2.49968 7.09376 2.49968H4.97709C3.63337 2.49968 2.49959 3.93608 2.49959 5.74968V14.2497C2.49959 16.0626 3.63346 17.4989 4.97709 17.4989H7.09376C7.32388 17.4989 7.51043 17.6854 7.51043 17.9155C7.51043 18.1456 7.32388 18.3322 7.09376 18.3322H4.97709C3.12424 18.3322 1.66626 16.4853 1.66626 14.2497V5.74968C1.66626 3.51333 3.12412 1.66635 4.97709 1.66635H7.09376ZM14.5327 6.59797C14.6954 6.43526 14.9593 6.43526 15.122 6.59797L18.2111 9.68714C18.2155 9.69153 18.2198 9.696 18.224 9.70053C18.2325 9.70982 18.2411 9.72011 18.2491 9.73079C18.2556 9.73927 18.2614 9.74764 18.2669 9.75616C18.274 9.76711 18.2807 9.77877 18.2869 9.79078C18.2926 9.80166 18.2975 9.81232 18.3019 9.82312C18.306 9.83296 18.3099 9.84356 18.3133 9.85435C18.3174 9.86729 18.3208 9.8799 18.3236 9.89262C18.3298 9.92106 18.3332 9.95103 18.3332 9.98177L18.3296 9.92689C18.3312 9.93908 18.3322 9.95132 18.3328 9.96359L18.3332 9.98177C18.3332 9.9883 18.333 9.9948 18.3327 10.0013C18.3322 10.0128 18.3311 10.0247 18.3296 10.0366C18.328 10.0486 18.326 10.0601 18.3235 10.0713C18.3208 10.0836 18.3174 10.0962 18.3135 10.1087C18.3099 10.12 18.306 10.1306 18.3017 10.141C18.2975 10.1512 18.2926 10.1619 18.2872 10.1723C18.2807 10.1848 18.274 10.1964 18.2667 10.2077C18.2511 10.2318 18.2325 10.255 18.2111 10.2764L18.2491 10.2327C18.2413 10.2431 18.233 10.2531 18.2242 10.2627L18.2111 10.2764L15.122 13.3656C14.9593 13.5283 14.6954 13.5283 14.5327 13.3656C14.37 13.2028 14.37 12.939 14.5327 12.7763L16.9104 10.398L7.51734 10.3984C7.31279 10.3984 7.14267 10.251 7.10739 10.0567L7.10068 9.98177C7.10068 9.75165 7.28722 9.5651 7.51734 9.5651L16.9104 9.56468L14.5327 7.18723C14.3881 7.04259 14.372 6.81807 14.4845 6.65568L14.5327 6.59797Z" fill="#191919"/>
</g>
</svg>
