<svg width="32" height="32" viewBox="0 0 32 32" fill="none" xmlns="http://www.w3.org/2000/svg">
<g id="Icon">
<path id="&#240;&#159;&#140;&#136; Color" fill-rule="evenodd" clip-rule="evenodd" d="M8.66699 8.13459C9.03548 8.13459 9.33366 8.42312 9.33366 8.77969C9.33366 9.13627 9.03548 9.4248 8.66699 9.4248H5.28288C4.57585 9.4248 4.00033 9.98171 4.00033 10.6665V16.2586H28.0003V10.6634C28.0003 9.98045 27.4261 9.4248 26.7204 9.4248H23.3337C22.9652 9.4248 22.667 9.13627 22.667 8.77969C22.667 8.42312 22.9652 8.13459 23.3337 8.13459H26.7204C28.1618 8.13459 29.3337 9.26919 29.3337 10.6634V21.4679C29.3337 22.864 28.1605 23.9998 26.7178 23.9998H5.28288C3.84017 23.9998 2.66699 22.864 2.66699 21.4679L2.66699 10.6665C2.66699 9.27045 3.84017 8.13459 5.28288 8.13459H8.66699ZM28.0003 20.1292H4.00033V21.4679C4.00033 22.1527 4.57585 22.7096 5.28288 22.7096H26.7178C27.4248 22.7096 28.0003 22.1527 28.0003 21.4679V20.1292ZM28.0003 17.5488H4.00033V18.839H28.0003V17.5488ZM20.7321 2.94694C20.943 2.65337 21.3597 2.5784 21.6592 2.77874C21.9639 2.9797 22.0407 3.38163 21.8337 3.67521L16.2946 11.5072C16.18 11.6685 15.9977 11.7705 15.7972 11.7863C15.779 11.7875 15.762 11.7882 15.7438 11.7882C15.5615 11.7882 15.387 11.7164 15.2607 11.5872L11.568 7.8243C11.3141 7.56601 11.3245 7.15777 11.5915 6.91208C11.8584 6.66764 12.2829 6.67709 12.5342 6.93602L15.6592 10.12L20.7321 2.94694Z" fill="#191919"/>
</g>
</svg>
