<svg width="24" height="25" viewBox="0 0 24 25" fill="none" xmlns="http://www.w3.org/2000/svg">
<g id="Icon">
<path id="&#240;&#159;&#140;&#136; Color" fill-rule="evenodd" clip-rule="evenodd" d="M12.0002 6.71533C16.336 6.71533 20.1253 9.17237 21.9515 13C22.0165 13.1362 22.0165 13.2945 21.9515 13.4306C20.1253 17.2583 16.336 19.7153 12.0002 19.7153C7.66446 19.7153 3.87522 17.2583 2.04898 13.4306C1.984 13.2945 1.984 13.1362 2.04898 13C3.87522 9.17237 7.66446 6.71533 12.0002 6.71533ZM12.0002 7.71533C8.13672 7.71533 4.75688 9.85491 3.0573 13.2153C4.75688 16.5758 8.13672 18.7153 12.0002 18.7153C15.8638 18.7153 19.2436 16.5758 20.9432 13.2153C19.2436 9.85491 15.8638 7.71533 12.0002 7.71533ZM12.0002 9.21833C14.2094 9.21833 16.0002 11.0092 16.0002 13.2183C16.0002 15.4275 14.2094 17.2183 12.0002 17.2183C9.7911 17.2183 8.00024 15.4275 8.00024 13.2183C8.00024 11.0092 9.7911 9.21833 12.0002 9.21833ZM12.0002 10.2183C10.3434 10.2183 9.00024 11.5615 9.00024 13.2183C9.00024 14.8752 10.3434 16.2183 12.0002 16.2183C13.6571 16.2183 15.0002 14.8752 15.0002 13.2183C15.0002 11.5615 13.6571 10.2183 12.0002 10.2183Z" fill="#EC0000"/>
</g>
</svg>
