<svg width="21" height="21" viewBox="0 0 21 21" fill="none" xmlns="http://www.w3.org/2000/svg">
<g id="Functional / VisibilityOff">
<path id="&#240;&#159;&#140;&#136; Color" fill-rule="evenodd" clip-rule="evenodd" d="M16.9791 2.30594C17.1392 2.11734 17.431 2.09166 17.6381 2.23736C17.8452 2.38306 17.8735 2.64877 17.7134 2.83737L14.5221 6.51449V6.52035C14.5238 6.51868 14.5241 6.51873 14.5243 6.51884L14.5221 6.52135V6.52307L14.3745 6.69158L13.9323 7.20161L13.2085 8.03636L12.9687 8.31452L12.3757 9.00023L8.93959 12.9602L8.8919 13.0147L8.34967 13.64L7.98412 14.0616L7.55571 14.5631L6.94383 15.2659L3.94077 18.7288L3.59246 19.1231C3.49828 19.2259 3.36653 19.2859 3.2253 19.2859C3.12176 19.2859 3.01822 19.2516 2.93346 19.1917C2.72633 19.0459 2.69812 18.7802 2.85814 18.5917L6.04949 14.906C4.20433 14.0488 2.66048 12.6602 1.75672 10.8945C1.70024 10.7745 1.70024 10.6459 1.75672 10.5345C3.30062 7.51734 6.64258 5.57166 10.2858 5.57166C11.4531 5.57166 12.5828 5.79452 13.6372 6.16309L16.9791 2.30594ZM15.3599 6.93448C16.8379 7.80021 18.0523 9.0345 18.8148 10.5345C18.8713 10.6459 18.8713 10.7745 18.8148 10.8945C17.2709 13.9031 13.929 15.8488 10.2858 15.8488C9.46677 15.8488 8.66661 15.7374 7.89465 15.5488L8.5348 14.8116C9.10904 14.9231 9.6927 14.9917 10.2858 14.9917C13.4866 14.9917 16.4425 13.3202 17.864 10.7145C17.158 9.42022 16.0754 8.35737 14.7763 7.61166L15.3599 6.93448ZM10.2858 6.4288C7.08501 6.4288 4.12906 8.10024 2.70754 10.7145C3.56419 12.2745 4.96686 13.4917 6.64258 14.2202L7.60282 13.1145C6.93441 12.4973 6.52019 11.6488 6.52019 10.7145C6.52019 8.82021 8.20527 7.28594 10.2858 7.28594C11.0013 7.28594 11.6508 7.47449 12.2251 7.79163L13.0252 6.86595C12.1497 6.59166 11.2366 6.4288 10.2858 6.4288ZM13.543 9.0345C13.8537 9.53165 14.0514 10.0973 14.0514 10.7145C14.0514 12.6088 12.3663 14.1431 10.2858 14.1431C9.91862 14.1431 9.57973 14.0831 9.24084 13.9888L9.89041 13.2516C10.0222 13.2688 10.154 13.2859 10.2858 13.2859C11.8391 13.2859 13.11 12.1288 13.11 10.7145C13.11 10.3802 13.0347 10.0631 12.9029 9.77163L13.543 9.0345ZM10.2858 8.14309C8.73245 8.14309 7.46159 9.30021 7.46159 10.7145C7.46159 11.3745 7.744 11.9745 8.19591 12.4288L11.632 8.4688C11.2272 8.27163 10.7753 8.14309 10.2858 8.14309Z" fill="#EC0000"/>
</g>
</svg>
