<svg xmlns="http://www.w3.org/2000/svg" xmlns:xlink="http://www.w3.org/1999/xlink" width="266" height="168" viewBox="0 0 266 168">
  <defs>
    <rect id="big---1.-front-a" width="266" height="168" x="0" y="0" rx="10"/>
    <linearGradient id="big---1.-front-c" x1="50.39%" x2="52.295%" y1="30.055%" y2="74.954%">
      <stop offset="0%" stop-color="#F3F3F0"/>
      <stop offset="47.238%" stop-color="#FDFBEF"/>
      <stop offset="51.865%" stop-color="#F5F0E1"/>
      <stop offset="70.555%" stop-color="#F5F0E1"/>
      <stop offset="100%" stop-color="#DAD5C4"/>
    </linearGradient>
    <linearGradient id="big---1.-front-d" x1="22.059%" x2="79.739%" y1="49.996%" y2="49.721%">
      <stop offset="0%" stop-color="#F8F6ED"/>
      <stop offset="100%" stop-color="#F2DF90"/>
    </linearGradient>
    <linearGradient id="big---1.-front-e" x1="22.335%" x2="79.739%" y1="49.995%" y2="49.744%">
      <stop offset="0%" stop-color="#F7DC6D"/>
      <stop offset="100%" stop-color="#FBF8E7"/>
    </linearGradient>
    <filter id="big---1.-front-f" width="125.4%" height="142.9%" x="-12.7%" y="-21.4%" filterUnits="objectBoundingBox">
      <feGaussianBlur in="SourceGraphic" stdDeviation="3"/>
    </filter>
    <linearGradient id="big---1.-front-g" x1="3.231%" x2="100%" y1="44.96%" y2="44.96%">
      <stop offset="0%" stop-color="#F6CF89"/>
      <stop offset="33.732%" stop-color="#F8D67E"/>
      <stop offset="81.566%" stop-color="#FAE489"/>
      <stop offset="100%" stop-color="#F3BF68"/>
    </linearGradient>
    <filter id="big---1.-front-h" width="108.1%" height="114.3%" x="-4.1%" y="-7.1%" filterUnits="objectBoundingBox">
      <feGaussianBlur in="SourceGraphic" stdDeviation="1"/>
    </filter>
    <linearGradient id="big---1.-front-i" x1="88.144%" x2="4.041%" y1="48.435%" y2="48.435%">
      <stop offset="0%" stop-color="#F8D484"/>
      <stop offset="15.657%" stop-color="#FAEA81"/>
      <stop offset="25.949%" stop-color="#F6CF87"/>
      <stop offset="66.38%" stop-color="#F7D68C"/>
      <stop offset="75.683%" stop-color="#FAE683"/>
      <stop offset="89.821%" stop-color="#FAE589"/>
      <stop offset="100%" stop-color="#F6CF89"/>
    </linearGradient>
    <filter id="big---1.-front-j" width="125.4%" height="142.9%" x="-12.7%" y="-21.4%" filterUnits="objectBoundingBox">
      <feGaussianBlur in="SourceGraphic" stdDeviation="3"/>
    </filter>
    <filter id="big---1.-front-k" width="108.1%" height="114.3%" x="-4.1%" y="-7.1%" filterUnits="objectBoundingBox">
      <feGaussianBlur in="SourceGraphic" stdDeviation="1"/>
    </filter>
    <filter id="big---1.-front-l" width="125.4%" height="142.9%" x="-12.7%" y="-21.4%" filterUnits="objectBoundingBox">
      <feGaussianBlur in="SourceGraphic" stdDeviation="3"/>
    </filter>
    <filter id="big---1.-front-m" width="108.1%" height="114.3%" x="-4.1%" y="-7.1%" filterUnits="objectBoundingBox">
      <feGaussianBlur in="SourceGraphic" stdDeviation="1"/>
    </filter>
  </defs>
  <g fill="none" fill-rule="evenodd">
    <mask id="big---1.-front-b" fill="#fff">
      <use xlink:href="#big---1.-front-a"/>
    </mask>
    <g mask="url(#big---1.-front-b)">
      <g transform="translate(-107)">
        <rect width="266" height="168" x="107" fill="url(#big---1.-front-c)"/>
        <path fill="url(#big---1.-front-d)" d="M107,54.8269878 C197.522135,94.6134461 286.188802,97.0600607 373,62.1668315 C459.811198,27.2736024 473.166016,37.6603211 413.064453,93.3269878 L373,125.830894 C286.973958,166.782646 198.307292,166.782646 107,125.830894 C15.6927083,84.8791422 3.04231771,72.8035963 69.0488281,89.6042562 L107,54.8269878 Z"/>
        <path fill="url(#big---1.-front-e)" d="M86.4941836,102.826988 C177.016319,142.613446 265.682986,145.060061 352.494184,110.166832 C439.305382,75.2736024 461.623727,99.7244361 419.449219,183.519333 L359,177.974609 C262.529948,218.926361 168.641276,218.926361 77.3339844,177.974609 C-13.9733073,137.022858 -23.5702982,123.566073 48.5430117,137.604256 L86.4941836,102.826988 Z"/>
        <g transform="translate(137 42)">
          <g transform="rotate(6 -641.38 943.77)">
            <path fill="#CD7A41" fill-opacity=".619" d="M3,45 C12.9682442,36.372629 23.8306842,33.4600473 35.58732,36.2622548 C47.3439558,39.0644623 60.1481824,32.6683362 74,17.0738765 C60.1481824,17.7405432 47.3439558,14.1698743 35.58732,6.36186987 C27.0617198,1.87937671 16.1992798,1.87937671 3,6.36186987 L3,45 Z" filter="url(#big---1.-front-f)" opacity=".6" style="mix-blend-mode:darken"/>
            <rect width="12" height="114" y="35" fill="url(#big---1.-front-g)"/>
            <path fill="#ECC568" d="M0,43 C10.3894376,34.372629 21.7108539,31.4600473 33.964249,34.2622548 C46.217644,37.0644623 59.5628944,30.6683362 74,15.0738765 C59.5628944,15.7405432 46.217644,12.1698743 33.964249,4.36186987 C25.0784122,-0.12062329 13.7569959,-0.12062329 0,4.36186987 L0,43 Z" filter="url(#big---1.-front-h)"/>
            <path fill="url(#big---1.-front-i)" d="M0,42 C10.3894376,33.372629 21.7108539,30.4600473 33.964249,33.2622548 C46.217644,36.0644623 59.5628944,30.0016695 74,15.0738765 C59.5628944,15.0738765 46.217644,11.1698743 33.964249,3.36186987 C25.0784122,-1.12062329 13.7569959,-1.12062329 0,3.36186987 L0,42 Z"/>
          </g>
          <g transform="translate(59.893)">
            <path fill="#CD7A41" fill-opacity=".619" d="M5.10672715,45 C15.0749713,36.372629 25.9374113,33.4600473 37.6940471,36.2622548 C49.4506829,39.0644623 62.2549096,32.6683362 76.1067272,17.0738765 C62.2549096,17.7405432 49.4506829,14.1698743 37.6940471,6.36186987 C29.168447,1.87937671 18.306007,1.87937671 5.10672715,6.36186987 L5.10672715,45 Z" filter="url(#big---1.-front-j)" opacity=".6" style="mix-blend-mode:darken"/>
            <rect width="12" height="114" y="35" fill="url(#big---1.-front-g)"/>
            <path fill="#ECC568" d="M0,43 C10.3894376,34.372629 21.7108539,31.4600473 33.964249,34.2622548 C46.217644,37.0644623 59.5628944,30.6683362 74,15.0738765 C59.5628944,15.7405432 46.217644,12.1698743 33.964249,4.36186987 C25.0784122,-0.12062329 13.7569959,-0.12062329 0,4.36186987 L0,43 Z" filter="url(#big---1.-front-k)"/>
            <path fill="url(#big---1.-front-i)" d="M0,42 C10.3894376,33.372629 21.7108539,30.4600473 33.964249,33.2622548 C46.217644,36.0644623 59.5628944,30.0016695 74,15.0738765 C59.5628944,15.0738765 46.217644,11.1698743 33.964249,3.36186987 C25.0784122,-1.12062329 13.7569959,-1.12062329 0,3.36186987 L0,42 Z"/>
          </g>
          <g transform="rotate(-4 718.672 12.291)">
            <path fill="#CD7A41" fill-opacity=".619" d="M3,45 C12.9682442,36.372629 23.8306842,33.4600473 35.58732,36.2622548 C47.3439558,39.0644623 60.1481824,32.6683362 74,17.0738765 C60.1481824,17.7405432 47.3439558,14.1698743 35.58732,6.36186987 C27.0617198,1.87937671 16.1992798,1.87937671 3,6.36186987 L3,45 Z" filter="url(#big---1.-front-l)" opacity=".6" style="mix-blend-mode:darken"/>
            <rect width="12" height="114" y="35" fill="url(#big---1.-front-g)"/>
            <path fill="#ECC568" d="M0,43 C10.3894376,34.372629 21.7108539,31.4600473 33.964249,34.2622548 C46.217644,37.0644623 59.5628944,30.6683362 74,15.0738765 C59.5628944,15.7405432 46.217644,12.1698743 33.964249,4.36186987 C25.0784122,-0.12062329 13.7569959,-0.12062329 0,4.36186987 L0,43 Z" filter="url(#big---1.-front-m)"/>
            <path fill="url(#big---1.-front-i)" d="M0,42 C10.3894376,33.372629 21.7108539,30.4600473 33.964249,33.2622548 C46.217644,36.0644623 59.5628944,30.0016695 74,15.0738765 C59.5628944,15.0738765 46.217644,11.1698743 33.964249,3.36186987 C25.0784122,-1.12062329 13.7569959,-1.12062329 0,3.36186987 L0,42 Z"/>
          </g>
        </g>
        <g transform="translate(335 127)">
          <polygon fill="#016FD0" points="0 25.856 25.856 25.856 25.856 0 0 0"/>
          <polyline fill="#FFFFFE" points="9.367 21.765 9.367 12.5 25.856 12.515 25.856 15.074 23.95 17.111 25.856 19.166 25.856 21.78 22.813 21.78 21.196 19.995 19.59 21.787 9.367 21.765"/>
          <polyline fill="#016FD0" points="10.468 20.749 10.468 13.52 16.598 13.52 16.598 15.185 12.453 15.185 12.453 16.316 16.499 16.316 16.499 17.954 12.453 17.954 12.453 19.064 16.598 19.064 16.598 20.749 10.468 20.749"/>
          <polyline fill="#016FD0" points="16.567 20.749 19.959 17.13 16.567 13.52 19.193 13.52 21.265 15.811 23.344 13.52 25.856 13.52 25.856 13.577 22.537 17.13 25.856 20.647 25.856 20.749 23.319 20.749 21.209 18.435 19.121 20.749 16.567 20.749"/>
          <polyline fill="#FFFFFE" points="10.136 4.277 14.111 4.277 15.507 7.447 15.507 4.277 20.414 4.277 21.26 6.652 22.109 4.277 25.856 4.277 25.856 13.542 6.053 13.542 10.136 4.277"/>
          <path fill="#016FD0" d="M10.8882541,5.28345856 L7.68048619,12.5068619 L9.88057459,12.5068619 L10.4857569,11.0603425 L13.7649171,11.0603425 L14.3696685,12.5068619 L16.6244862,12.5068619 L13.4300773,5.28345856 L10.8882541,5.28345856 Z M11.1639116,9.43929282 L12.1259116,7.1398011 L13.0871934,9.43929282 L11.1639116,9.43929282 L11.1639116,9.43929282 Z"/>
          <polyline fill="#016FD0" points="16.594 12.506 16.594 5.282 19.687 5.293 21.278 9.734 22.88 5.282 25.856 5.282 25.856 12.506 23.941 12.523 23.941 7.561 22.133 12.506 20.385 12.506 18.54 7.544 18.54 12.506 16.594 12.506"/>
        </g>
        <path fill="#DA4E3E" d="M132.978164,19.3286443 C132.953349,18.7520768 132.792993,18.1801004 132.496318,17.6631044 L129.879659,13.1025216 C129.680132,12.7548342 129.542255,12.3820641 129.465805,12 L129.356416,12.1904722 C128.708761,13.3193083 128.708761,14.7099456 129.356305,15.8387817 L131.449721,19.4872032 C132.097265,20.6160392 132.097265,22.0067886 131.449721,23.1355127 L131.340332,23.3260968 C131.263771,22.9439207 131.125894,22.5712626 130.926367,22.2235753 L129.009999,18.8834254 L127.786354,16.7508311 C127.586827,16.4031437 127.449062,16.0303737 127.372389,15.6483095 L127.263111,15.8388937 C126.617682,16.9638106 126.615679,18.3489611 127.256768,19.4756696 L127.256546,19.4757816 L129.356416,23.1355127 C130.004071,24.2643488 130.004071,25.6550981 129.356416,26.7839342 L129.247027,26.9745183 C129.170466,26.5923422 129.032589,26.2196841 128.833062,25.8718848 L126.216514,21.3114139 C125.865535,20.6996858 125.705179,20.0111417 125.734557,19.3290922 C122.933394,20.0654503 121,21.6290915 121,23.4395291 C121,25.9582187 124.741264,28 129.356416,28 C133.971457,28 137.712721,25.9582187 137.712721,23.4395291 C137.712721,21.6290915 135.779549,20.0650024 132.978164,19.3286443"/>
      </g>
    </g>
  </g>
</svg>
