<svg xmlns="http://www.w3.org/2000/svg" xmlns:xlink="http://www.w3.org/1999/xlink" width="266" height="168" viewBox="0 0 266 168">
  <defs>
    <rect id="big---1.-front-a" width="266" height="168" x="0" y="0" rx="10"/>
    <linearGradient id="big---1.-front-c" x1="65.229%" x2="28.397%" y1="73.632%" y2="35.495%">
      <stop offset="0%" stop-color="#8B8B8B"/>
      <stop offset="100%" stop-color="#FAFAFA"/>
    </linearGradient>
  </defs>
  <g fill="none" fill-rule="evenodd">
    <mask id="big---1.-front-b" fill="#fff">
      <use xlink:href="#big---1.-front-a"/>
    </mask>
    <g mask="url(#big---1.-front-b)">
      <rect width="266" height="168" fill="url(#big---1.-front-c)" rx="10"/>
      <g transform="translate(196 5)">
        <text font-family="AvenirNextCondensed-Italic, Avenir Next Condensed" font-size="20" font-style="italic">
          <tspan x=".46" y="20" fill="#000">acce</tspan> <tspan x="30.1" y="20" fill="#E54F43">s</tspan> <tspan x="36.82" y="20" fill="#000">s</tspan>
        </text>
        <rect width="6" height="70" x="64" y="9" fill="#DC5041"/>
      </g>
      <path fill="#C00" d="M27.4963179,17.6631044 L24.879659,13.1025216 C24.6801323,12.7548342 24.5422553,12.3820641 24.4658053,12 L24.3564162,12.1904722 C23.7087614,13.3193083 23.7087614,14.7099456 24.3563049,15.8387817 L26.4497211,19.4872032 C27.0972646,20.6160392 27.0972646,22.0067886 26.4497211,23.1355127 L26.340332,23.3260968 C26.2637707,22.9439207 26.1258937,22.5712626 25.926367,22.2235753 L24.0099988,18.8834254 L22.7863541,16.7508311 C22.5868274,16.4031437 22.4490617,16.0303737 22.3723891,15.6483095 L22.2631113,15.8388937 C21.6176821,16.9638106 21.615679,18.3489611 22.2567683,19.4756696 L24.3564162,23.1355127 C25.004071,24.2643488 25.004071,25.6550981 24.3564162,26.7839342 L24.2470271,26.9745183 C24.1704658,26.5923422 24.0325888,26.2196841 23.8330621,25.8718848 L21.2165145,21.3114139 C20.8655345,20.6996858 20.7051788,20.0111417 20.7345569,19.3290922 C17.9333943,20.0654503 16,21.6290915 16,23.4395291 C16,25.9582187 19.7412637,28 24.3564162,28 C28.9714574,28 32.7127211,25.9582187 32.7127211,23.4395291 C32.7127211,21.6290915 30.7795494,20.0650024 27.9781642,19.3286443 C27.9533485,18.7520768 27.7929928,18.1801004 27.4963179,17.6631044 Z"/>
    </g>
    <g mask="url(#big---1.-front-b)">
      <g transform="translate(228 127)">
        <polygon fill="#016FD0" points="0 25.856 25.856 25.856 25.856 0 0 0"/>
        <polyline fill="#FFFFFE" points="9.367 21.765 9.367 12.5 25.856 12.515 25.856 15.074 23.95 17.111 25.856 19.166 25.856 21.78 22.813 21.78 21.196 19.995 19.59 21.787 9.367 21.765"/>
        <polyline fill="#016FD0" points="10.468 20.749 10.468 13.52 16.598 13.52 16.598 15.185 12.453 15.185 12.453 16.316 16.499 16.316 16.499 17.954 12.453 17.954 12.453 19.064 16.598 19.064 16.598 20.749 10.468 20.749"/>
        <polyline fill="#016FD0" points="16.567 20.749 19.959 17.13 16.567 13.52 19.193 13.52 21.265 15.811 23.344 13.52 25.856 13.52 25.856 13.577 22.537 17.13 25.856 20.647 25.856 20.749 23.319 20.749 21.209 18.435 19.121 20.749 16.567 20.749"/>
        <polyline fill="#FFFFFE" points="10.136 4.277 14.111 4.277 15.507 7.447 15.507 4.277 20.414 4.277 21.26 6.652 22.109 4.277 25.856 4.277 25.856 13.542 6.053 13.542 10.136 4.277"/>
        <path fill="#016FD0" d="M10.8882541,5.28345856 L7.68048619,12.5068619 L9.88057459,12.5068619 L10.4857569,11.0603425 L13.7649171,11.0603425 L14.3696685,12.5068619 L16.6244862,12.5068619 L13.4300773,5.28345856 L10.8882541,5.28345856 Z M11.1639116,9.43929282 L12.1259116,7.1398011 L13.0871934,9.43929282 L11.1639116,9.43929282 L11.1639116,9.43929282 Z"/>
        <polyline fill="#016FD0" points="16.594 12.506 16.594 5.282 19.687 5.293 21.278 9.734 22.88 5.282 25.856 5.282 25.856 12.506 23.941 12.523 23.941 7.561 22.133 12.506 20.385 12.506 18.54 7.544 18.54 12.506 16.594 12.506"/>
      </g>
    </g>
  </g>
</svg>
