<svg xmlns="http://www.w3.org/2000/svg" xmlns:xlink="http://www.w3.org/1999/xlink" width="267" height="168" viewBox="0 0 267 168">
  <defs>
    <polygon id="big---2.-back-a" points="0 0 267 0 267 168 0 168"/>
    <linearGradient id="big---2.-back-c" x1="44.807%" x2="44.807%" y1="0%" y2="100%">
      <stop offset="0%" stop-color="#1E0239" stop-opacity="0"/>
      <stop offset="100%" stop-color="#1B0234"/>
    </linearGradient>
  </defs>
  <g fill="none" fill-rule="evenodd">
    <mask id="big---2.-back-b" fill="#fff">
      <use xlink:href="#big---2.-back-a"/>
    </mask>
    <path fill="#513C6E" d="M255.599216,167 L11.4000617,167 C5.10399872,167 0,161.908225 0,155.62652 L0,11.3727599 C0,5.09177525 5.10399872,0 11.4000617,0 L255.599216,0 C261.896001,0 267,5.09177525 267,11.3727599 L267,155.62652 C267,161.908225 261.896001,167 255.599216,167" mask="url(#big---2.-back-b)"/>
    <rect width="266" height="168" fill="url(#big---2.-back-c)" mask="url(#big---2.-back-b)" rx="8"/>
    <rect width="268.008" height="16" y="24" fill="#1F0739" mask="url(#big---2.-back-b)"/>
    <path fill="#FFF" d="M229.096743,109.137561 C228.924822,106.534882 228.238144,103.932711 226.864286,101.677395 L215.186238,81.0316765 C214.327639,79.4700692 213.640459,77.7352885 213.29712,76 L212.78186,76.8678982 C209.862222,81.8990668 209.862222,88.3181616 212.78186,93.3498381 L222.227451,109.83127 C225.147088,114.862947 225.147088,121.282042 222.227451,126.31321 L221.712191,127.181108 C221.368852,125.44582 220.681671,123.711039 219.823073,122.149432 L211.236583,107.055418 L205.740647,97.3399353 C204.882049,95.7783279 204.195371,94.0435473 203.851529,92.3087666 L203.336269,93.1761569 C200.416632,98.2073256 200.416632,104.453247 203.336269,109.658097 L212.78186,126.140037 C215.701498,131.171205 215.701498,137.5903 212.78186,142.621977 L212.267103,143.489367 C211.923261,141.754586 211.236583,140.019806 210.377985,138.458198 L198.527514,117.81248 C196.982237,115.03612 196.295057,111.913413 196.295057,108.790199 C183.758913,112.087095 175,119.199898 175,127.354282 C175,138.805053 191.830142,148 212.609939,148 C233.390239,148 250.220381,138.805053 250.220381,127.354282 C250.391799,119.547261 241.80531,112.433949 229.096743,109.137561" mask="url(#big---2.-back-b)" opacity=".1"/>
  </g>
</svg>
