<svg xmlns="http://www.w3.org/2000/svg" width="64" height="44" viewBox="0 0 64 44">
  <g fill="none" fill-rule="evenodd">
    <rect width="64" height="44" fill="#003D75" rx="2"/>
    <path fill="#FFF" fill-rule="nonzero" d="M13.27,25 L12.83,23.46 L10.32,23.46 L9.86,25 L8.69,25 L10.83,18.18 C11.19,18.08 11.82,18.03 12.33,18.03 L14.52,25 L13.27,25 Z M10.62,22.44 L12.54,22.44 L11.6,19.16 L10.62,22.44 Z M19.23,21.36 L20.44,21.36 L20.44,24.79 C19.91,25.03 19.1,25.16 18.4,25.16 C16.2,25.16 15.04,23.7 15.04,21.53 C15.04,19.27 16.26,17.91 18.58,17.91 C19.3,17.91 19.93,18.01 20.41,18.19 C20.38,18.54 20.31,18.89 20.21,19.24 C19.7,19.06 19.18,18.96 18.58,18.96 C17.11,18.96 16.28,19.89 16.28,21.51 C16.28,23.18 17.08,24.11 18.47,24.11 C18.71,24.11 18.98,24.08 19.23,24.04 L19.23,21.36 Z M24.44,25.17 C22.83,25.17 21.84,24.21 21.84,22.74 L21.84,18.15 C22.15,18.07 22.64,17.99 23.03,17.99 L23.03,22.69 C23.03,23.66 23.58,24.12 24.45,24.12 C25.31,24.12 25.87,23.68 25.87,22.68 L25.87,18.15 C26.17,18.07 26.68,17.99 27.06,17.99 L27.06,22.74 C27.06,24.21 26.04,25.17 24.44,25.17 Z M32.46,25 L32.02,23.46 L29.51,23.46 L29.05,25 L27.88,25 L30.02,18.18 C30.38,18.08 31.01,18.03 31.52,18.03 L33.71,25 L32.46,25 Z M29.81,22.44 L31.73,22.44 L30.79,19.16 L29.81,22.44 Z M43.68,17.99 L44.14,25 L42.98,25 L42.82,22.24 C42.77,21.42 42.74,20.59 42.73,19.75 C42.42,20.78 42.04,21.85 41.69,22.78 L40.87,25 L39.94,25 L39.11,22.73 C38.73,21.73 38.39,20.74 38.11,19.82 C38.1,20.64 38.05,21.57 38,22.4 L37.85,25 L36.71,25 L37.17,18.15 C37.57,18.04 38.19,17.99 38.61,17.99 L40.44,23.39 L42.2,18.15 C42.63,18.02 43.24,17.99 43.68,17.99 Z M49.91,18.08 C49.9,18.39 49.85,18.84 49.8,19.13 L47.97,19.13 L47.97,25 L46.76,25 L46.76,19.13 L44.83,19.13 C44.84,18.82 44.88,18.37 44.94,18.08 L49.91,18.08 Z M55.51,18.08 L53.29,22.16 L53.29,25 L52.08,25 L52.08,22.16 L49.85,18.08 L51.16,18.08 L52.71,21.12 L54.26,18.08 L55.51,18.08 Z"/>
  </g>
</svg>
