<svg xmlns="http://www.w3.org/2000/svg" width="64" height="44" viewBox="0 0 64 44">
  <g fill="none" fill-rule="evenodd">
    <rect width="64" height="44" fill="#024C8C" rx="4"/>
    <rect width="61" height="44" x="3" fill="#006FCF" rx="4"/>
    <path fill="#FFF" fill-rule="nonzero" d="M24.67,22 L24.23,20.46 L21.72,20.46 L21.26,22 L20.09,22 L22.23,15.18 C22.59,15.08 23.22,15.03 23.73,15.03 L25.92,22 L24.67,22 Z M22.02,19.44 L23.94,19.44 L23,16.16 L22.02,19.44 Z M32.26,16.9 C33.36,16.9 33.86,17.62 33.86,18.65 L33.86,22 L32.69,22 L32.69,18.94 C32.69,18.21 32.46,17.85 31.8,17.85 C31.43,17.85 31.09,18.04 30.84,18.29 C30.85,18.4 30.86,18.51 30.86,18.63 L30.86,22 L29.68,22 L29.68,18.93 C29.68,18.21 29.45,17.86 28.8,17.86 C28.39,17.86 28.05,18.07 27.85,18.27 L27.85,22 L26.68,22 L26.68,17.02 L27.75,17.02 L27.83,17.78 C28.13,17.21 28.57,16.9 29.24,16.9 C30.02,16.9 30.51,17.25 30.72,17.82 C31.05,17.23 31.47,16.9 32.26,16.9 Z M39.24,19.13 C39.24,19.4 39.21,19.78 39.18,19.96 L36.03,19.96 C36.15,20.87 36.64,21.18 37.52,21.18 C38.07,21.18 38.59,21.04 39.09,20.79 C39.06,21.11 39,21.52 38.93,21.8 C38.53,21.98 38.03,22.12 37.43,22.12 C35.58,22.12 34.82,21.08 34.82,19.47 C34.82,18.01 35.53,16.9 37.11,16.9 C38.57,16.9 39.24,17.84 39.24,19.13 Z M37.09,17.84 C36.45,17.84 36.1,18.26 36.02,19.06 L38.06,19.06 C38.05,18.32 37.77,17.84 37.09,17.84 Z M44.43,22 L43.08,22 L42.04,20.46 L40.99,22 L39.7,22 L41.43,19.56 L39.72,17.02 L41.06,17.02 L42.08,18.62 L43.13,17.02 L44.4,17.02 L42.68,19.52 L44.43,22 Z"/>
    <g transform="translate(8 15)">
      <path fill="#FDCA6C" d="M0.88,0 L4.86111111,0 L4.86111111,7 L0.88,7 C0.39398942,7 2.81563735e-16,6.60601058 0,6.12 L0,0.88 C-2.81563735e-16,0.39398942 0.39398942,-2.43788212e-16 0.88,0 Z"/>
      <path fill="#F7AF3C" d="M5.74111111,0 L7,0 L7,7 L5.74111111,7 C5.25510053,7 4.86111111,6.60601058 4.86111111,6.12 L4.86111111,0.88 C4.86111111,0.39398942 5.25510053,-2.43788212e-16 5.74111111,0 Z" transform="matrix(-1 0 0 1 11.861 0)"/>
    </g>
    <rect width="61" height="4" x="3" y="34" fill="#024C8C" opacity=".5"/>
  </g>
</svg>
