<svg xmlns="http://www.w3.org/2000/svg" width="64" height="44" viewBox="0 0 64 44">
  <g fill="none" fill-rule="evenodd">
    <rect width="64" height="44" fill="#01A9E5" rx="2"/>
    <path fill="#FFF" fill-rule="nonzero" d="M24.955,25 L24.515,23.46 L22.005,23.46 L21.545,25 L20.375,25 L22.515,18.18 C22.875,18.08 23.505,18.03 24.015,18.03 L26.205,25 L24.955,25 Z M22.305,22.44 L24.225,22.44 L23.285,19.16 L22.305,22.44 Z M31.425,18.08 C31.415,18.39 31.365,18.84 31.315,19.13 L29.485,19.13 L29.485,25 L28.275,25 L28.275,19.13 L26.345,19.13 C26.355,18.82 26.395,18.37 26.455,18.08 L31.425,18.08 Z M38.545,25 L37.085,25 L36.515,24.39 C36.005,24.86 35.315,25.15 34.425,25.15 C32.945,25.15 31.965,24.23 31.965,22.99 C31.965,22.13 32.335,21.38 33.385,20.94 C33.015,20.42 32.915,19.97 32.915,19.58 C32.915,18.59 33.635,17.91 35.045,17.91 C35.525,17.91 36.025,17.99 36.555,18.19 C36.545,18.62 36.465,19 36.375,19.22 C36.005,19.06 35.565,18.95 35.125,18.95 C34.415,18.95 34.085,19.18 34.085,19.62 C34.085,19.89 34.185,20.26 34.585,20.7 L36.415,22.68 C36.635,22.15 36.755,21.53 36.815,20.94 C37.215,20.83 37.595,20.82 37.905,20.82 C37.855,21.74 37.645,22.73 37.195,23.53 L38.545,25 Z M34.475,24.15 C35.035,24.15 35.475,23.95 35.805,23.62 L33.985,21.65 C33.465,21.84 33.105,22.28 33.105,22.89 C33.105,23.56 33.545,24.15 34.475,24.15 Z M43.665,18.08 C43.655,18.39 43.605,18.84 43.555,19.13 L41.725,19.13 L41.725,25 L40.515,25 L40.515,19.13 L38.585,19.13 C38.595,18.82 38.635,18.37 38.695,18.08 L43.665,18.08 Z"/>
  </g>
</svg>
