<svg xmlns="http://www.w3.org/2000/svg" width="64" height="44" viewBox="0 0 64 44">
  <g fill="none" fill-rule="evenodd">
    <rect width="64" height="44" fill="#E63730" rx="2"/>
    <path fill="#FFF" fill-rule="nonzero" d="M23.235,25 L22.795,23.46 L20.285,23.46 L19.825,25 L18.655,25 L20.795,18.18 C21.155,18.08 21.785,18.03 22.295,18.03 L24.485,25 L23.235,25 Z M20.585,22.44 L22.505,22.44 L21.565,19.16 L20.585,22.44 Z M30.325,25 L28.965,25 L27.445,22.44 L25.915,25 L24.565,25 L26.845,21.45 L24.745,18.08 L26.105,18.08 L27.485,20.39 L28.835,18.08 L30.175,18.08 L28.095,21.39 L30.325,25 Z M35.455,18.08 C35.445,18.39 35.395,18.84 35.345,19.13 L33.515,19.13 L33.515,25 L32.305,25 L32.305,19.13 L30.375,19.13 C30.385,18.82 30.425,18.37 30.485,18.08 L35.455,18.08 Z M37.525,22.03 L37.525,23.96 L40.455,23.96 C40.445,24.27 40.405,24.71 40.345,25 L36.335,25 L36.335,18.08 L40.475,18.08 C40.465,18.39 40.425,18.84 40.365,19.12 L37.525,19.12 L37.525,20.99 L40.145,20.99 C40.145,21.31 40.095,21.74 40.035,22.03 L37.525,22.03 Z M41.685,25 L41.685,18.15 C41.985,18.07 42.495,17.99 42.875,17.99 L42.875,23.95 L45.385,23.95 C45.385,24.25 45.335,24.68 45.285,25 L41.685,25 Z"/>
  </g>
</svg>
