<svg xmlns="http://www.w3.org/2000/svg" width="64" height="44" viewBox="0 0 64 44">
  <g fill="none" fill-rule="evenodd">
    <rect width="64" height="44" fill="#023321" rx="4"/>
    <rect width="61" height="44" x="3" fill="#046240" rx="4"/>
    <path fill="#FFF" fill-rule="nonzero" d="M24.67,22 L24.23,20.46 L21.72,20.46 L21.26,22 L20.09,22 L22.23,15.18 C22.59,15.08 23.22,15.03 23.73,15.03 L25.92,22 L24.67,22 Z M22.02,19.44 L23.94,19.44 L23,16.16 L22.02,19.44 Z M27.87,21.03 L30.32,21.03 C30.29,21.35 30.25,21.7 30.19,22 L26.4,22 C26.4,21.77 26.41,21.52 26.44,21.29 L28.7,17.99 L26.42,17.99 C26.45,17.65 26.49,17.33 26.56,17.02 L30.22,17.02 C30.22,17.22 30.2,17.47 30.17,17.7 L27.87,21.03 Z M32.5,20.33 C32.5,20.9 32.71,21.14 33.19,21.14 C33.43,21.14 33.69,21.07 33.9,20.96 C33.87,21.31 33.83,21.63 33.77,21.94 C33.48,22.07 33.2,22.12 32.89,22.12 C31.92,22.12 31.33,21.6 31.33,20.46 L31.33,15.66 C31.71,15.53 32.1,15.49 32.5,15.49 L32.5,17.02 L33.93,17.02 C33.91,17.36 33.88,17.64 33.82,17.97 L32.5,17.97 L32.5,20.33 Z M38.93,19.13 C38.93,19.4 38.9,19.78 38.87,19.96 L35.72,19.96 C35.84,20.87 36.33,21.18 37.21,21.18 C37.76,21.18 38.28,21.04 38.78,20.79 C38.75,21.11 38.69,21.52 38.62,21.8 C38.22,21.98 37.72,22.12 37.12,22.12 C35.27,22.12 34.51,21.08 34.51,19.47 C34.51,18.01 35.22,16.9 36.8,16.9 C38.26,16.9 38.93,17.84 38.93,19.13 Z M36.78,17.84 C36.14,17.84 35.79,18.26 35.71,19.06 L37.75,19.06 C37.74,18.32 37.46,17.84 36.78,17.84 Z M42.09,22.12 C40.66,22.12 39.67,21.29 39.67,19.52 C39.67,17.69 40.68,16.9 42.14,16.9 C42.58,16.9 42.97,16.97 43.25,17.08 C43.25,17.38 43.19,17.79 43.14,18.03 C42.85,17.92 42.57,17.88 42.26,17.88 C41.36,17.88 40.87,18.46 40.87,19.53 C40.87,20.58 41.4,21.17 42.24,21.17 C42.56,21.17 42.95,21.08 43.25,20.93 C43.23,21.22 43.18,21.58 43.1,21.91 C42.86,22.04 42.43,22.12 42.09,22.12 Z M46.19,16.9 C47.57,16.9 48.15,17.49 48.15,18.59 L48.15,22 L47.08,22 L47.02,21.32 C46.78,21.8 46.35,22.12 45.62,22.12 C44.72,22.12 44.01,21.59 44.01,20.58 C44.01,19.47 44.66,18.92 46.75,18.77 L46.99,18.75 L46.99,18.65 C46.99,18.09 46.76,17.84 46.07,17.84 C45.27,17.84 44.8,17.98 44.34,18.18 C44.34,17.93 44.36,17.53 44.41,17.24 C44.85,17.04 45.45,16.9 46.19,16.9 Z M45.91,21.21 C46.35,21.21 46.76,21.02 46.99,20.7 L46.99,19.55 L46.81,19.56 C45.39,19.67 45.15,19.98 45.15,20.5 C45.15,20.93 45.43,21.21 45.91,21.21 Z"/>
    <g transform="translate(8 15)">
      <path fill="#FDCA6C" d="M0.88,0 L4.86111111,0 L4.86111111,7 L0.88,7 C0.39398942,7 2.81563735e-16,6.60601058 0,6.12 L0,0.88 C-2.81563735e-16,0.39398942 0.39398942,-2.43788212e-16 0.88,0 Z"/>
      <path fill="#F7AF3C" d="M5.74111111,0 L7,0 L7,7 L5.74111111,7 C5.25510053,7 4.86111111,6.60601058 4.86111111,6.12 L4.86111111,0.88 C4.86111111,0.39398942 5.25510053,-2.43788212e-16 5.74111111,0 Z" transform="matrix(-1 0 0 1 11.861 0)"/>
    </g>
    <rect width="61" height="4" x="3" y="34" fill="#023321" opacity=".5"/>
  </g>
</svg>
