<svg xmlns="http://www.w3.org/2000/svg" width="40" height="40" viewBox="0 0 40 40">
    <g fill="none" fill-rule="evenodd">
        <path fill="#023321" d="M20 0C8.954 0 0 8.954 0 20s8.954 20 20 20 20-8.954 20-20S31.046 0 20 0z"/>
        <path fill="#046240" d="M20.64 7.38c-1.765 2.1-1.522 5.26-.72 7.682.732 2.213 2.162 4.612 1.27 6.992C17.732 31.27 7.101 32.495 4.3 32.42A19.936 19.936 0 0 0 18.931 40c1.16-.096 2.295-.343 3.05-.968l.031-.027c.872-.745 1.094-2.007 1.037-3.152-.077-1.55-.47-3.087-.048-4.623.397-1.445 1.446-2.558 2.652-3.396 4.851-3.375 10.58-8.465 10.763-14.889.175-6.18-8.38-8.745-13.253-7.154-.957.313-1.877.816-2.524 1.588z" opacity=".697"/>
        <path fill="#00AB6D" d="M17.99 32.975c-3.647-.31-7.806-7.975-12.064-7.833-2.699.09-3.449 2.4-3.656 4.093 3.314 6.35 9.928 10.698 17.573 10.758a19.87 19.87 0 0 0 6.188-1.044c3.758-1.277 7.97-3.95 5.97-6.95-2.775-4.16-8.47 1.445-14.012.976M35.464 7.31A19.963 19.963 0 0 0 22.233.121c-.15-.013-.293-.03-.443-.042-.46-.04-.925-.06-1.393-.07C20.2.004 20 .003 19.802 0A19.875 19.875 0 0 0 8.047 3.982C4.879 7.072 4.956 10.46 9.364 8.99c6-2 12-4 17 1 4.758 4.758 9.512-.443 9.1-2.68" opacity=".6"/>
    </g>
</svg>
