<svg xmlns="http://www.w3.org/2000/svg" width="64" height="44" viewBox="0 0 64 44">
  <g fill="none" fill-rule="evenodd">
    <rect width="64" height="44" fill="#051E37" rx="4"/>
    <rect width="61" height="44" x="3" fill="#0D4276" rx="4"/>
    <rect width="61" height="4" x="3" y="34" fill="#051E37" opacity=".5"/>
    <path fill="#FFF" fill-rule="nonzero" d="M22.66,18.36 C23.48,18.66 23.81,19.32 23.81,20.03 C23.81,21.27 22.97,22 21.4,22 L19,22 L19,15.08 C19.48,14.99 20.25,14.91 20.92,14.91 C22.81,14.91 23.56,15.66 23.56,16.81 C23.56,17.52 23.22,18.05 22.66,18.36 Z M22.35,16.94 C22.35,16.3 21.98,15.92 20.88,15.92 C20.65,15.92 20.41,15.94 20.19,15.96 L20.19,17.97 L21.15,17.97 C21.86,17.97 22.35,17.71 22.35,16.94 Z M21.28,21 C22.08,21 22.59,20.74 22.59,20 C22.59,19.29 22.13,18.96 21.25,18.96 L20.19,18.96 L20.19,21 L21.28,21 Z M26.75,16.9 C28.13,16.9 28.71,17.49 28.71,18.59 L28.71,22 L27.64,22 L27.58,21.32 C27.34,21.8 26.91,22.12 26.18,22.12 C25.28,22.12 24.57,21.59 24.57,20.58 C24.57,19.47 25.22,18.92 27.31,18.77 L27.55,18.75 L27.55,18.65 C27.55,18.09 27.32,17.84 26.63,17.84 C25.83,17.84 25.36,17.98 24.9,18.18 C24.9,17.93 24.92,17.53 24.97,17.24 C25.41,17.04 26.01,16.9 26.75,16.9 Z M26.47,21.21 C26.91,21.21 27.32,21.02 27.55,20.7 L27.55,19.55 L27.37,19.56 C25.95,19.67 25.71,19.98 25.71,20.5 C25.71,20.93 25.99,21.21 26.47,21.21 Z M32.61,16.9 C33.72,16.9 34.23,17.61 34.23,18.63 L34.23,22 L33.05,22 L33.05,18.93 C33.05,18.21 32.82,17.86 32.17,17.86 C31.76,17.86 31.42,18.07 31.22,18.27 L31.22,22 L30.05,22 L30.05,17.02 L31.12,17.02 L31.2,17.78 C31.5,17.2 31.94,16.9 32.61,16.9 Z M37.4,16.9 C38.78,16.9 39.36,17.49 39.36,18.59 L39.36,22 L38.29,22 L38.23,21.32 C37.99,21.8 37.56,22.12 36.83,22.12 C35.93,22.12 35.22,21.59 35.22,20.58 C35.22,19.47 35.87,18.92 37.96,18.77 L38.2,18.75 L38.2,18.65 C38.2,18.09 37.97,17.84 37.28,17.84 C36.48,17.84 36.01,17.98 35.55,18.18 C35.55,17.93 35.57,17.53 35.62,17.24 C36.06,17.04 36.66,16.9 37.4,16.9 Z M37.12,21.21 C37.56,21.21 37.97,21.02 38.2,20.7 L38.2,19.55 L38.02,19.56 C36.6,19.67 36.36,19.98 36.36,20.5 C36.36,20.93 36.64,21.21 37.12,21.21 Z M46.28,16.9 C47.38,16.9 47.88,17.62 47.88,18.65 L47.88,22 L46.71,22 L46.71,18.94 C46.71,18.21 46.48,17.85 45.82,17.85 C45.45,17.85 45.11,18.04 44.86,18.29 C44.87,18.4 44.88,18.51 44.88,18.63 L44.88,22 L43.7,22 L43.7,18.93 C43.7,18.21 43.47,17.86 42.82,17.86 C42.41,17.86 42.07,18.07 41.87,18.27 L41.87,22 L40.7,22 L40.7,17.02 L41.77,17.02 L41.85,17.78 C42.15,17.21 42.59,16.9 43.26,16.9 C44.04,16.9 44.53,17.25 44.74,17.82 C45.07,17.23 45.49,16.9 46.28,16.9 Z M53.26,19.13 C53.26,19.4 53.23,19.78 53.2,19.96 L50.05,19.96 C50.17,20.87 50.66,21.18 51.54,21.18 C52.09,21.18 52.61,21.04 53.11,20.79 C53.08,21.11 53.02,21.52 52.95,21.8 C52.55,21.98 52.05,22.12 51.45,22.12 C49.6,22.12 48.84,21.08 48.84,19.47 C48.84,18.01 49.55,16.9 51.13,16.9 C52.59,16.9 53.26,17.84 53.26,19.13 Z M51.11,17.84 C50.47,17.84 50.12,18.26 50.04,19.06 L52.08,19.06 C52.07,18.32 51.79,17.84 51.11,17.84 Z M58.45,22 L57.1,22 L56.06,20.46 L55.01,22 L53.72,22 L55.45,19.56 L53.74,17.02 L55.08,17.02 L56.1,18.62 L57.15,17.02 L58.42,17.02 L56.7,19.52 L58.45,22 Z"/>
    <g transform="translate(8 15)">
      <path fill="#FDCA6C" d="M0.88,0 L4.86111111,0 L4.86111111,0 L4.86111111,7 L0.88,7 C0.39398942,7 -1.62525475e-16,6.60601058 0,6.12 L0,0.88 C-5.95191301e-17,0.39398942 0.39398942,-1.3276591e-16 0.88,0 Z"/>
      <path fill="#F8AB30" d="M5.74111111,0 L7,0 L7,0 L7,7 L5.74111111,7 C5.25510053,7 4.86111111,6.60601058 4.86111111,6.12 L4.86111111,0.88 C4.86111111,0.39398942 5.25510053,-2.43788212e-16 5.74111111,0 Z" transform="matrix(-1 0 0 1 11.861 0)"/>
    </g>
  </g>
</svg>
