<svg xmlns="http://www.w3.org/2000/svg" width="64" height="44" viewBox="0 0 64 44">
  <g fill="none" fill-rule="evenodd">
    <rect width="64" height="44" fill="#AB0623" rx="4"/>
    <rect width="61" height="44" x="3" fill="#EC0029" rx="4"/>
    <path fill="#FFF" fill-rule="nonzero" d="M24.49,18.36 C25.31,18.66 25.64,19.32 25.64,20.03 C25.64,21.27 24.8,22 23.23,22 L20.83,22 L20.83,15.08 C21.31,14.99 22.08,14.91 22.75,14.91 C24.64,14.91 25.39,15.66 25.39,16.81 C25.39,17.52 25.05,18.05 24.49,18.36 Z M24.18,16.94 C24.18,16.3 23.81,15.92 22.71,15.92 C22.48,15.92 22.24,15.94 22.02,15.96 L22.02,17.97 L22.98,17.97 C23.69,17.97 24.18,17.71 24.18,16.94 Z M23.11,21 C23.91,21 24.42,20.74 24.42,20 C24.42,19.29 23.96,18.96 23.08,18.96 L22.02,18.96 L22.02,21 L23.11,21 Z M28.58,16.9 C29.96,16.9 30.54,17.49 30.54,18.59 L30.54,22 L29.47,22 L29.41,21.32 C29.17,21.8 28.74,22.12 28.01,22.12 C27.11,22.12 26.4,21.59 26.4,20.58 C26.4,19.47 27.05,18.92 29.14,18.77 L29.38,18.75 L29.38,18.65 C29.38,18.09 29.15,17.84 28.46,17.84 C27.66,17.84 27.19,17.98 26.73,18.18 C26.73,17.93 26.75,17.53 26.8,17.24 C27.24,17.04 27.84,16.9 28.58,16.9 Z M28.3,21.21 C28.74,21.21 29.15,21.02 29.38,20.7 L29.38,19.55 L29.2,19.56 C27.78,19.67 27.54,19.98 27.54,20.5 C27.54,20.93 27.82,21.21 28.3,21.21 Z M34.44,16.9 C35.55,16.9 36.06,17.61 36.06,18.63 L36.06,22 L34.88,22 L34.88,18.93 C34.88,18.21 34.65,17.86 34,17.86 C33.59,17.86 33.25,18.07 33.05,18.27 L33.05,22 L31.88,22 L31.88,17.02 L32.95,17.02 L33.03,17.78 C33.33,17.2 33.77,16.9 34.44,16.9 Z M39.39,22.12 C37.88,22.12 37.02,21.13 37.02,19.51 C37.02,17.88 37.86,16.9 39.39,16.9 C40.9,16.9 41.76,17.88 41.76,19.51 C41.76,21.13 40.88,22.12 39.39,22.12 Z M39.39,21.17 C40.17,21.17 40.55,20.59 40.55,19.51 C40.55,18.43 40.18,17.85 39.39,17.85 C38.58,17.85 38.22,18.42 38.22,19.51 C38.22,20.6 38.6,21.17 39.39,21.17 Z M45.06,16.9 C45.27,16.9 45.46,16.93 45.61,16.98 C45.61,17.31 45.57,17.72 45.5,17.99 C45.34,17.96 45.14,17.94 44.93,17.94 C44.61,17.94 44.21,18.04 43.93,18.27 L43.93,22 L42.76,22 L42.76,17.02 L43.85,17.02 L43.91,17.7 C44.16,17.2 44.57,16.9 45.06,16.9 Z M47.46,20.33 C47.46,20.9 47.67,21.14 48.15,21.14 C48.39,21.14 48.65,21.07 48.86,20.96 C48.83,21.31 48.79,21.63 48.73,21.94 C48.44,22.07 48.16,22.12 47.85,22.12 C46.88,22.12 46.29,21.6 46.29,20.46 L46.29,15.66 C46.67,15.53 47.06,15.49 47.46,15.49 L47.46,17.02 L48.89,17.02 C48.87,17.36 48.84,17.64 48.78,17.97 L47.46,17.97 L47.46,20.33 Z M53.89,19.13 C53.89,19.4 53.86,19.78 53.83,19.96 L50.68,19.96 C50.8,20.87 51.29,21.18 52.17,21.18 C52.72,21.18 53.24,21.04 53.74,20.79 C53.71,21.11 53.65,21.52 53.58,21.8 C53.18,21.98 52.68,22.12 52.08,22.12 C50.23,22.12 49.47,21.08 49.47,19.47 C49.47,18.01 50.18,16.9 51.76,16.9 C53.22,16.9 53.89,17.84 53.89,19.13 Z M51.74,17.84 C51.1,17.84 50.75,18.26 50.67,19.06 L52.71,19.06 C52.7,18.32 52.42,17.84 51.74,17.84 Z"/>
    <g transform="translate(8 15)">
      <path fill="#FDCA6C" d="M0.88,0 L4.86111111,0 L4.86111111,0 L4.86111111,7 L0.88,7 C0.39398942,7 2.81563735e-16,6.60601058 0,6.12 L0,0.88 C-2.81563735e-16,0.39398942 0.39398942,-2.43788212e-16 0.88,0 Z"/>
      <path fill="#F7AF3C" d="M5.74111111,0 L7,0 L7,0 L7,7 L5.74111111,7 C5.25510053,7 4.86111111,6.60601058 4.86111111,6.12 L4.86111111,0.88 C4.86111111,0.39398942 5.25510053,-2.43788212e-16 5.74111111,0 Z" transform="matrix(-1 0 0 1 11.861 0)"/>
    </g>
    <rect width="61" height="4" x="3" y="34" fill="#761A25" opacity=".5"/>
  </g>
</svg>
