<svg xmlns="http://www.w3.org/2000/svg" width="64" height="44" viewBox="0 0 64 44">
  <g fill="none" fill-rule="evenodd">
    <rect width="64" height="44" fill="#D2430B" rx="4"/>
    <rect width="61" height="44" x="3" fill="#FF662B" rx="4"/>
    <path fill="#FFF" fill-rule="nonzero" d="M22.66,18.36 C23.48,18.66 23.81,19.32 23.81,20.03 C23.81,21.27 22.97,22 21.4,22 L19,22 L19,15.08 C19.48,14.99 20.25,14.91 20.92,14.91 C22.81,14.91 23.56,15.66 23.56,16.81 C23.56,17.52 23.22,18.05 22.66,18.36 Z M22.35,16.94 C22.35,16.3 21.98,15.92 20.88,15.92 C20.65,15.92 20.41,15.94 20.19,15.96 L20.19,17.97 L21.15,17.97 C21.86,17.97 22.35,17.71 22.35,16.94 Z M21.28,21 C22.08,21 22.59,20.74 22.59,20 C22.59,19.29 22.13,18.96 21.25,18.96 L20.19,18.96 L20.19,21 L21.28,21 Z M26.75,16.9 C28.13,16.9 28.71,17.49 28.71,18.59 L28.71,22 L27.64,22 L27.58,21.32 C27.34,21.8 26.91,22.12 26.18,22.12 C25.28,22.12 24.57,21.59 24.57,20.58 C24.57,19.47 25.22,18.92 27.31,18.77 L27.55,18.75 L27.55,18.65 C27.55,18.09 27.32,17.84 26.63,17.84 C25.83,17.84 25.36,17.98 24.9,18.18 C24.9,17.93 24.92,17.53 24.97,17.24 C25.41,17.04 26.01,16.9 26.75,16.9 Z M26.47,21.21 C26.91,21.21 27.32,21.02 27.55,20.7 L27.55,19.55 L27.37,19.56 C25.95,19.67 25.71,19.98 25.71,20.5 C25.71,20.93 25.99,21.21 26.47,21.21 Z M32.61,16.9 C33.72,16.9 34.23,17.61 34.23,18.63 L34.23,22 L33.05,22 L33.05,18.93 C33.05,18.21 32.82,17.86 32.17,17.86 C31.76,17.86 31.42,18.07 31.22,18.27 L31.22,22 L30.05,22 L30.05,17.02 L31.12,17.02 L31.2,17.78 C31.5,17.2 31.94,16.9 32.61,16.9 Z M37.82,16.9 C38.03,16.9 38.22,16.93 38.37,16.98 C38.37,17.31 38.33,17.72 38.26,17.99 C38.1,17.96 37.9,17.94 37.69,17.94 C37.37,17.94 36.97,18.04 36.69,18.27 L36.69,22 L35.52,22 L35.52,17.02 L36.61,17.02 L36.67,17.7 C36.92,17.2 37.33,16.9 37.82,16.9 Z M43.19,19.13 C43.19,19.4 43.16,19.78 43.13,19.96 L39.98,19.96 C40.1,20.87 40.59,21.18 41.47,21.18 C42.02,21.18 42.54,21.04 43.04,20.79 C43.01,21.11 42.95,21.52 42.88,21.8 C42.48,21.98 41.98,22.12 41.38,22.12 C39.53,22.12 38.77,21.08 38.77,19.47 C38.77,18.01 39.48,16.9 41.06,16.9 C42.52,16.9 43.19,17.84 43.19,19.13 Z M41.04,17.84 C40.4,17.84 40.05,18.26 39.97,19.06 L42.01,19.06 C42,18.32 41.72,17.84 41.04,17.84 Z M46.49,16.9 C47.24,16.9 47.84,17 48.37,17.16 L48.37,21.84 C48.37,23.33 47.59,24.24 45.88,24.24 C45.34,24.24 44.78,24.12 44.34,23.91 C44.35,23.6 44.39,23.21 44.44,22.92 C44.88,23.14 45.42,23.26 45.83,23.26 C46.8,23.26 47.19,22.76 47.19,21.91 L47.19,21.38 C46.95,21.84 46.56,22.12 45.94,22.12 C44.8,22.12 43.96,21.33 43.96,19.56 C43.96,17.95 44.67,16.9 46.49,16.9 Z M46.3,21.16 C46.67,21.16 46.96,21.02 47.19,20.81 L47.19,17.92 C47,17.88 46.77,17.85 46.49,17.85 C45.47,17.85 45.16,18.54 45.16,19.52 C45.16,20.66 45.55,21.16 46.3,21.16 Z M50.3,16.16 C49.89,16.16 49.59,15.87 49.59,15.45 C49.59,15.02 49.89,14.73 50.3,14.73 C50.7,14.73 50.99,15.02 50.99,15.45 C50.99,15.86 50.7,16.16 50.3,16.16 Z M49.71,22 L49.71,17.02 L50.88,17.02 L50.88,22 L49.71,22 Z M54.26,22.12 C52.75,22.12 51.89,21.13 51.89,19.51 C51.89,17.88 52.73,16.9 54.26,16.9 C55.77,16.9 56.63,17.88 56.63,19.51 C56.63,21.13 55.75,22.12 54.26,22.12 Z M54.26,21.17 C55.04,21.17 55.42,20.59 55.42,19.51 C55.42,18.43 55.05,17.85 54.26,17.85 C53.45,17.85 53.09,18.42 53.09,19.51 C53.09,20.6 53.47,21.17 54.26,21.17 Z"/>
    <g transform="translate(8 15)">
      <path fill="#FDCA6C" d="M0.88,0 L4.86111111,0 L4.86111111,0 L4.86111111,7 L0.88,7 C0.39398942,7 2.81563735e-16,6.60601058 0,6.12 L0,0.88 C-2.81563735e-16,0.39398942 0.39398942,-2.43788212e-16 0.88,0 Z"/>
      <path fill="#F7AF3C" d="M5.74111111,0 L7,0 L7,0 L7,7 L5.74111111,7 C5.25510053,7 4.86111111,6.60601058 4.86111111,6.12 L4.86111111,0.88 C4.86111111,0.39398942 5.25510053,-2.43788212e-16 5.74111111,0 Z" transform="matrix(-1 0 0 1 11.861 0)"/>
    </g>
    <rect width="61" height="4" x="3" y="34" fill="#D2430B" opacity=".595"/>
  </g>
</svg>
