<svg xmlns="http://www.w3.org/2000/svg" width="64" height="44" viewBox="0 0 64 44">
  <g fill="none" fill-rule="evenodd">
    <rect width="64" height="44" fill="#07305E" rx="4"/>
    <rect width="61" height="44" x="3" fill="#14549C" rx="4"/>
    <path fill="#FFF" fill-rule="nonzero" d="M23.49,18.36 C24.31,18.66 24.64,19.32 24.64,20.03 C24.64,21.27 23.8,22 22.23,22 L19.83,22 L19.83,15.08 C20.31,14.99 21.08,14.91 21.75,14.91 C23.64,14.91 24.39,15.66 24.39,16.81 C24.39,17.52 24.05,18.05 23.49,18.36 Z M23.18,16.94 C23.18,16.3 22.81,15.92 21.71,15.92 C21.48,15.92 21.24,15.94 21.02,15.96 L21.02,17.97 L21.98,17.97 C22.69,17.97 23.18,17.71 23.18,16.94 Z M22.11,21 C22.91,21 23.42,20.74 23.42,20 C23.42,19.29 22.96,18.96 22.08,18.96 L21.02,18.96 L21.02,21 L22.11,21 Z M29.52,18.36 C30.34,18.66 30.67,19.32 30.67,20.03 C30.67,21.27 29.83,22 28.26,22 L25.86,22 L25.86,15.08 C26.34,14.99 27.11,14.91 27.78,14.91 C29.67,14.91 30.42,15.66 30.42,16.81 C30.42,17.52 30.08,18.05 29.52,18.36 Z M29.21,16.94 C29.21,16.3 28.84,15.92 27.74,15.92 C27.51,15.92 27.27,15.94 27.05,15.96 L27.05,17.97 L28.01,17.97 C28.72,17.97 29.21,17.71 29.21,16.94 Z M28.14,21 C28.94,21 29.45,20.74 29.45,20 C29.45,19.29 28.99,18.96 28.11,18.96 L27.05,18.96 L27.05,21 L28.14,21 Z M35.62,15.08 L36.82,15.08 L34.67,22 L33.31,22 L31.15,15.08 L32.45,15.08 L34.01,20.79 L35.62,15.08 Z M41.58,22 L41.14,20.46 L38.63,20.46 L38.17,22 L37,22 L39.14,15.18 C39.5,15.08 40.13,15.03 40.64,15.03 L42.83,22 L41.58,22 Z M38.93,19.44 L40.85,19.44 L39.91,16.16 L38.93,19.44 Z"/>
    <g transform="translate(8 15)">
      <path fill="#FDCA6C" d="M0.88,0 L4.86111111,0 L4.86111111,0 L4.86111111,7 L0.88,7 C0.39398942,7 2.81563735e-16,6.60601058 0,6.12 L0,0.88 C-2.81563735e-16,0.39398942 0.39398942,-2.43788212e-16 0.88,0 Z"/>
      <path fill="#F7AF3C" d="M5.74111111,0 L7,0 L7,0 L7,7 L5.74111111,7 C5.25510053,7 4.86111111,6.60601058 4.86111111,6.12 L4.86111111,0.88 C4.86111111,0.39398942 5.25510053,-2.43788212e-16 5.74111111,0 Z" transform="matrix(-1 0 0 1 11.861 0)"/>
    </g>
    <rect width="61" height="4" x="3" y="34" fill="#07305E" opacity=".5"/>
  </g>
</svg>
