<?xml version="1.0" encoding="UTF-8"?>
<svg width="48px" height="36px" viewBox="0 0 48 36" version="1.1" xmlns="http://www.w3.org/2000/svg" xmlns:xlink="http://www.w3.org/1999/xlink">
    <!-- Generator: Sketch 62 (91390) - https://sketch.com -->
    <title>Commerces</title>
    <desc>Created with Sketch.</desc>
    <g id="V-0.1.3" stroke="none" stroke-width="1" fill="none" fill-rule="evenodd">
        <g id="Pago_Servicios_Multiproducto_V0.1.2_001" transform="translate(-904.000000, -222.000000)">
            <g id="Frequent" transform="translate(264.000000, 159.000000)">
                <g id="Service-5" transform="translate(624.000000, 48.000000)">
                    <g id="Commerces" transform="translate(16.000000, 15.000000)">
                        <g id="Group">
                            <rect id="Surface" fill="#006060" x="0" y="0" width="48" height="36" rx="4"></rect>
                            <g id="00.-Brand-/-03.-Globile-Icon-/-SERV/SERV08" transform="translate(12.000000, 6.000000)" fill="#FFFFFF">
                                <path d="M2.68186972,20.9631733 C8.37362304,19.5824477 15.6435983,19.5912422 21.3169877,20.98406 C21.3601971,20.9950531 21.4044868,21 21.4466158,21 C21.6961499,21 21.9229991,20.8268596 21.9845724,20.5690729 C22.0558678,20.267314 21.8733083,19.9628069 21.5762439,19.8902529 C20.974216,19.7423965 20.3457898,19.6193432 19.7131102,19.5017864 C19.7268832,19.4525924 19.7430867,19.4041544 19.7430867,19.3504946 L19.7430867,12.2352509 C20.2408045,12.1139153 20.7011193,11.8413566 21.0339664,11.4497984 C21.4282518,10.9858922 21.6000091,10.4137045 21.5179113,9.83821908 C21.3850425,8.91095631 20.515454,5.2816049 20.4538807,5.05185048 C19.9407695,3.74807624 18.7244259,3 17.1170376,3 L6.88289996,3 C6.7966163,3 6.71620634,3.01071823 6.63221818,3.01497805 C6.62728958,3.0148405 6.62317124,3.01209224 6.61824263,3.01209224 C6.60919568,3.01209224 6.60176904,3.01690174 6.59285715,3.01731397 C5.13190813,3.10402159 4.02581591,3.83375318 3.5222918,5.12770243 C3.48448359,5.2816049 2.61489518,8.91095631 2.48202637,9.83876876 C2.39992853,10.4137046 2.57168581,10.9858923 2.96597124,11.4497984 C3.29881834,11.8413567 3.75913309,12.1139153 4.25685097,12.2352509 L4.25685097,19.3504946 C4.25685097,19.3985891 4.27251441,19.4413933 4.28365433,19.4859151 C3.65266256,19.6016168 3.02572178,19.7224715 2.42477398,19.8682666 C2.1277096,19.940271 1.94406983,20.2436789 2.01536525,20.5459874 C2.08558051,20.848296 2.37940418,21.0357273 2.68186972,20.9631733 Z M9.24213118,18.8946958 L9.24213118,15.4105899 L14.7599668,15.4105899 L14.7599668,18.9001237 C12.931063,18.788132 11.0723179,18.7864831 9.24213118,18.8946958 Z M19.4038932,5.39483326 C19.4125351,5.43220956 20.2972468,9.12532056 20.4225539,10.0003664 C20.4679237,10.3169659 20.3253328,10.5626603 20.1967849,10.7132649 C19.9504916,11.0029315 19.5594468,11.1826677 19.1759637,11.1826677 C18.4910953,11.1826677 17.9347747,10.6159765 17.9347747,9.91956765 L17.9347747,4.22112034 C18.5079065,4.35750273 19.1164834,4.67588857 19.4038932,5.39483326 Z M7.17132248,4.12568706 L9.65370035,4.12568706 L9.65370035,9.91956765 C9.65370035,10.6159765 9.09737979,11.1826677 8.41251141,11.1826677 C7.72764304,11.1826677 7.17132248,10.6159765 7.17132248,9.91956765 L7.17132248,4.12568706 L7.17132248,4.12568706 Z M10.75986,4.12568706 L13.2422379,4.12568706 L13.2422379,9.9086433 C13.2421704,9.9124909 13.2400775,9.91572005 13.2400775,9.91956765 C13.2400775,9.92204112 13.2408202,9.92430836 13.2408202,9.92678184 C13.2367693,10.6196868 12.6834194,11.1826677 12.001049,11.1826677 C11.3161806,11.1826677 10.75986,10.6159765 10.75986,9.91956765 L10.75986,4.12568706 Z M14.3483977,4.12568706 L16.8286152,4.12568706 L16.8286152,9.91956765 C16.8286152,10.6159765 16.2722946,11.1826677 15.5874262,11.1826677 C14.9063386,11.1826677 14.3545416,10.6215418 14.3483977,9.93042321 L14.3483977,4.12568706 L14.3483977,4.12568706 Z M3.57738375,10.000916 C3.70161068,9.1302674 4.5787607,5.47013553 4.57227938,5.47013553 C4.57227938,5.47013553 4.57227938,5.47013553 4.57227938,5.47068521 C4.87548759,4.7014474 5.48993817,4.36622849 6.06516289,4.22421215 L6.06516289,9.91956753 C6.06516289,10.6159764 5.50884233,11.1826676 4.82397396,11.1826676 C4.44049085,11.1826676 4.04944614,11.0029314 3.80315272,10.7132648 C3.67460479,10.5626603 3.53201395,10.3169659 3.57738375,10.000916 Z M5.36301066,12.2386175 C5.86430675,12.1176254 6.29822333,11.8311194 6.61824263,11.441004 C7.04925598,11.9664024 7.68915963,12.3083546 8.41251141,12.3083546 C9.1358632,12.3083546 9.77576684,11.9664024 10.2067802,11.441004 C10.6377936,11.9664024 11.2776972,12.3083546 12.001049,12.3083546 C12.723793,12.3083546 13.3632916,11.9668834 13.7942376,11.4423094 C14.2251835,11.9668834 14.8646821,12.3083546 15.5874262,12.3083546 C16.310778,12.3083546 16.9506816,11.9664024 17.381695,11.441004 C17.7017143,11.8311194 18.1356309,12.1176254 18.636927,12.2386175 L18.636927,19.3224623 C17.7319609,19.1817514 16.807078,19.0735387 15.8661266,18.9921216 L15.8661266,14.8477464 C15.8661266,14.5366434 15.618753,14.2849028 15.3130467,14.2849028 L8.68905134,14.2849028 C8.38334508,14.2849028 8.13597149,14.5366434 8.13597149,14.8477464 L8.13597149,18.9840142 C7.19468258,19.0633702 6.269057,19.1695904 5.36301066,19.3083775 L5.36301066,12.2386175 Z" id="Color"></path>
                            </g>
                        </g>
                    </g>
                </g>
            </g>
        </g>
    </g>
</svg>