<?xml version="1.0" encoding="UTF-8"?>
<svg width="48px" height="36px" viewBox="0 0 48 36" version="1.1" xmlns="http://www.w3.org/2000/svg" xmlns:xlink="http://www.w3.org/1999/xlink">
    <!-- Generator: Sketch 62 (91390) - https://sketch.com -->
    <title>Communications</title>
    <desc>Created with Sketch.</desc>
    <g id="V-0.1.3" stroke="none" stroke-width="1" fill="none" fill-rule="evenodd">
        <g id="Pago_Servicios_Multiproducto_V0.1.2_001" transform="translate(-800.000000, -222.000000)">
            <g id="Frequent" transform="translate(264.000000, 159.000000)">
                <g id="Service-4" transform="translate(520.000000, 48.000000)">
                    <g id="Communications" transform="translate(16.000000, 15.000000)">
                        <rect id="Surface" fill="#3A539B" x="0" y="0" width="48" height="36" rx="4"></rect>
                        <g id="Comunication" transform="translate(12.000000, 6.000000)" fill="#FFFFFF">
                            <rect id="safe-area" opacity="0" x="0" y="0" width="24" height="24"></rect>
                            <path d="M11.99955,7.05000459 C13.2416358,7.05000459 14.2494733,8.05787611 14.2494733,9.30000384 C14.2494733,10.3880238 13.4762023,11.2963089 12.4495632,11.5049387 L12.4495347,20.5500046 C12.4495347,20.7985282 12.2480697,21 11.99955,21 C11.7510304,21 11.5495653,20.7985282 11.5495653,20.5500046 L11.5495653,20.5500046 L11.5495368,11.5049387 C10.5228977,11.2963089 9.74962674,10.3880238 9.74962674,9.30000384 C9.74962674,8.05787611 10.7574642,7.05000459 11.99955,7.05000459 Z M17.5227606,3.13319686 C17.6977234,2.95669716 17.9826353,2.95545606 18.159129,3.13042478 C21.9569418,6.89542208 21.9435948,12.1492026 18.1391518,15.4882196 C17.9523656,15.6521549 17.6680542,15.6336254 17.5041245,15.4468329 C17.3401948,15.2600404 17.3587237,14.9757194 17.5455098,14.8117842 C20.9490118,11.824658 20.9608236,7.1751946 17.5255326,3.76958672 C17.3490389,3.594618 17.3477978,3.30969655 17.5227606,3.13319686 Z M5.86084823,3.11178803 C6.04763438,2.9478528 6.3319458,2.96638226 6.49587549,3.15317475 C6.65980518,3.33996724 6.64127633,3.62428824 6.45449018,3.78822347 C3.05098818,6.77534964 3.03917643,11.4248131 6.47446738,14.8304209 C6.65096113,15.0053897 6.65220217,15.2903111 6.47723938,15.4668108 C6.30227655,15.6433105 6.01736475,15.6445516 5.840871,15.4695829 C2.04305822,11.7045856 2.05640522,6.45080512 5.86084823,3.11178803 Z M16.1813686,4.48164822 C16.3571864,4.30600028 16.6421009,4.30614281 16.8177429,4.48196658 C19.6904687,7.35766509 19.6904687,11.2423426 16.8177429,14.1180411 C16.6421009,14.2938648 16.3571864,14.2940074 16.1813686,14.1183595 C16.0055508,13.9427115 16.0054083,13.6577874 16.1810503,13.4819636 C18.7027405,10.9576639 18.7027405,7.64234378 16.1810503,5.11804406 C16.0054083,4.94222027 16.0055508,4.65729616 16.1813686,4.48164822 Z M7.18225708,4.48196658 C7.35789909,4.30614281 7.64281359,4.30600028 7.8186314,4.48164822 C7.99444921,4.65729616 7.99459177,4.94222027 7.81894976,5.11804406 C5.29725946,7.64234378 5.29725946,10.9576639 7.81894976,13.4819636 C7.99459177,13.6577874 7.99444921,13.9427115 7.8186314,14.1183595 C7.64281359,14.2940074 7.35789909,14.2938648 7.18225708,14.1180411 C4.30953127,11.2423426 4.30953127,7.35766509 7.18225708,4.48196658 Z M11.99955,7.95000428 C11.2545036,7.95000428 10.649596,8.55493222 10.649596,9.30000384 C10.649596,10.0450755 11.2545036,10.6500034 11.99955,10.6500034 C12.7445965,10.6500034 13.349504,10.0450755 13.349504,9.30000384 C13.349504,8.55493222 12.7445965,7.95000428 11.99955,7.95000428 Z" id="icon"></path>
                        </g>
                    </g>
                </g>
            </g>
        </g>
    </g>
</svg>