<?xml version="1.0" encoding="UTF-8"?>
<svg width="48px" height="36px" viewBox="0 0 48 36" version="1.1" xmlns="http://www.w3.org/2000/svg" xmlns:xlink="http://www.w3.org/1999/xlink">
    <!-- Generator: Sketch 62 (91390) - https://sketch.com -->
    <title>Governments</title>
    <desc>Created with Sketch.</desc>
    <g id="V-0.1.3" stroke="none" stroke-width="1" fill="none" fill-rule="evenodd">
        <g id="Pago_Servicios_Multiproducto_V0.1.2_001" transform="translate(-696.000000, -222.000000)">
            <g id="Frequent" transform="translate(264.000000, 159.000000)">
                <g id="Service-3" transform="translate(416.000000, 48.000000)">
                    <g id="Governments" transform="translate(16.000000, 15.000000)">
                        <rect id="Surface" fill="#1D781D" x="0" y="0" width="48" height="36" rx="4"></rect>
                        <g id="00.-Brand-/-03.-Globile-Icon-/-SERV/SERV127" transform="translate(12.000000, 6.000000)" fill="#FFFFFF">
                            <path d="M21.5762439,19.9535186 C20.974351,19.8140956 20.3459248,19.6981149 19.7131778,19.5872501 C19.7268832,19.5409484 19.7430867,19.4953592 19.7430867,19.4447835 L19.7430867,11.4873787 L21.4023262,11.4873787 C21.7080325,11.4873787 21.9554061,11.2501072 21.9554061,10.9568852 L21.9554061,8.83491084 C21.9554061,8.8298598 21.9525704,8.82571526 21.9524355,8.82072894 C21.950545,8.75525914 21.9385275,8.69134347 21.9127368,8.63176649 C21.9087534,8.62263564 21.9014619,8.6158362 21.8970059,8.60696433 C21.8729707,8.55904378 21.8428592,8.51462014 21.8044434,8.47524755 C21.7880373,8.45841063 21.768593,8.44630095 21.7500266,8.43160097 C21.7275442,8.41379262 21.7089102,8.39248747 21.6831871,8.37798176 L12.2808297,3.0730465 C12.1058318,2.97565117 11.8941059,2.97565117 11.719108,3.0730465 L2.31675063,8.37798176 C2.29102755,8.39248758 2.27252847,8.41372801 2.25011369,8.43147153 C2.23147954,8.44623623 2.21190041,8.45841063 2.19542681,8.4753772 C2.15721353,8.51468497 2.12710198,8.55897906 2.10306679,8.60677017 C2.09854326,8.61570665 2.0911842,8.62257102 2.08720081,8.6317666 C2.06147773,8.69127875 2.04939261,8.7551297 2.04756976,8.82053478 C2.0474347,8.82558582 2.04453159,8.82979508 2.04453159,8.83491084 L2.04453159,10.9568852 C2.04453159,11.2501072 2.29190518,11.4873787 2.59761143,11.4873787 L4.25685097,11.4873787 L4.25685097,19.4447835 C4.25685097,19.4901137 4.27251441,19.5305224 4.28365433,19.5724853 C3.65266257,19.6815369 3.0256542,19.7953806 2.42477398,19.9327961 C2.1277096,20.0011801 1.94406983,20.2871493 2.01536525,20.5720823 C2.08558051,20.8559793 2.38156462,21.0373004 2.68186972,20.9647719 C8.37470332,19.6623687 15.6457589,19.6716938 21.3169878,20.9854943 C21.3601971,20.9948194 21.4044868,21 21.4466158,21 C21.6961499,21 21.9229991,20.8373291 21.9845724,20.5938409 C22.0558678,20.3089078 21.8733082,20.0229386 21.5762439,19.9535186 Z M18.636927,19.4182329 C18.2712003,19.3646784 17.903313,19.3144266 17.5307673,19.2699382 L17.5307673,11.4873788 L18.636927,11.4873788 L18.636927,19.4182329 Z M16.4246076,11.4873787 L16.4246076,19.1506548 C15.5133626,19.0651749 14.5903702,19.0097425 13.6592084,18.9773637 L13.6592084,11.4873787 L16.4246076,11.4873787 Z M11.9999688,4.14543099 L19.3714861,8.30441779 L4.62845149,8.30441779 L11.9999688,4.14543099 Z M3.15069128,9.36540442 L20.8492464,9.36540442 L20.8492464,10.4263916 L3.15069128,10.4263916 L3.15069128,9.36540442 Z M10.3407293,11.4873787 L10.3407293,18.9741906 C9.40997256,19.0048209 8.48698008,19.0583754 7.57533005,19.1421069 L7.57533005,11.4873787 L10.3407293,11.4873787 Z M5.36301066,11.4873787 L6.46917036,11.4873787 L6.46917036,19.2595122 C6.09682716,19.3031588 5.72866989,19.3523098 5.36301066,19.4050871 L5.36301066,11.4873787 Z M11.446889,18.9473162 L11.446889,11.4873787 L12.5530487,11.4873787 L12.5530487,18.9480933 C12.1835411,18.9435603 11.8163965,18.9434956 11.446889,18.9473162 Z" id="Color"></path>
                        </g>
                    </g>
                </g>
            </g>
        </g>
    </g>
</svg>