<?xml version="1.0" encoding="UTF-8"?>
<svg width="48px" height="36px" viewBox="0 0 48 36" version="1.1" xmlns="http://www.w3.org/2000/svg" xmlns:xlink="http://www.w3.org/1999/xlink">
    <!-- Generator: Sketch 62 (91390) - https://sketch.com -->
    <title>Other</title>
    <desc>Created with Sketch.</desc>
    <g id="V-0.1.3" stroke="none" stroke-width="1" fill="none" fill-rule="evenodd">
        <g id="Pago_Servicios_Multiproducto_V0.1.2_001" transform="translate(-1216.000000, -222.000000)">
            <g id="Frequent" transform="translate(264.000000, 159.000000)">
                <g id="Service-8" transform="translate(936.000000, 48.000000)">
                    <g id="Other" transform="translate(16.000000, 15.000000)">
                        <rect id="Surface" fill="#323A45" x="0" y="0" width="48" height="36" rx="4"></rect>
                        <g id="00.-Brand-/-03.-Globile-Icon-/-SERV/SERV059" transform="translate(12.000000, 6.000000)" fill="#FFFFFF">
                            <path d="M16.4246076,2 C16.7303138,2 16.9776874,2.24895362 16.9776874,2.55661249 L16.9776874,2.55661249 L16.9776874,4.22644997 C17.8926457,4.22644997 18.636927,4.97548518 18.636927,5.89628744 L18.636927,5.89628744 L18.636927,6.55543029 C19.2793287,6.7859705 19.7430867,7.39802683 19.7430867,8.12273741 L19.7430867,8.12273741 L19.7430867,20.5238761 C20.365234,20.6387726 20.983938,20.7580855 21.5762439,20.9019949 C21.8733083,20.9748329 22.0558678,21.2748818 21.9845724,21.5738436 C21.9229991,21.82932 21.6961499,22 21.4466158,22 C21.4044868,22 21.3601971,21.9945643 21.3169877,21.9847801 C15.6457589,20.6062945 8.37470332,20.5975975 2.68186972,21.9630375 C2.38264489,22.0358755 2.08558051,21.8499756 2.01536525,21.5510138 C1.94406983,21.252052 2.1277096,20.9520031 2.42477398,20.8802522 C3.01701232,20.7381774 3.63531134,20.6208349 4.25685097,20.5076371 L4.25685097,20.5076371 L4.25685097,7.00951242 C4.25685097,6.08871016 5.00113229,5.33967495 5.91609051,5.33967495 L5.91609051,5.33967495 L10.3407293,5.33967495 C11.2556875,5.33967495 11.9999688,6.08871016 11.9999688,7.00951242 L11.9999688,7.00951242 L11.9999688,12.2315595 L13.1061285,12.788172 L13.1061285,8.12273741 C13.1061285,7.39802683 13.5698865,6.7859705 14.2122882,6.55543029 L14.2122882,6.55543029 L14.2122882,5.89628744 C14.2122882,4.97548518 14.9565695,4.22644997 15.8715277,4.22644997 L15.8715277,4.22644997 L15.8715277,2.55661249 C15.8715277,2.24895362 16.1189013,2 16.4246076,2 Z M18.636927,9.79257488 L14.2122882,9.79257488 L14.2122882,13.3447845 L16.1189013,14.3041801 C16.3057818,14.3987607 16.4246076,14.5911834 16.4246076,14.8020873 L16.4246076,14.8020873 L16.4246076,20.05967 C17.1751002,20.1335271 17.9109422,20.2287193 18.636927,20.3404223 L18.636927,20.3404223 L18.636927,9.79257488 Z M10.3407293,6.45289993 L5.91609051,6.45289993 C5.61146453,6.45289993 5.36301066,6.70294073 5.36301066,7.00951242 L5.36301066,7.00951242 L5.36301066,20.3265614 C6.44398741,20.1628798 7.55305022,20.0424118 8.68148974,19.9622357 L8.68148974,19.9622357 L8.68148974,11.4624124 C8.68148974,11.2699896 8.78087133,11.0906126 8.94398663,10.9884221 C9.10602177,10.8884057 9.310186,10.8786215 9.48194318,10.9645051 L9.48194318,10.9645051 L10.8938091,11.674947 L10.8938091,7.00951242 C10.8938091,6.70294073 10.6453553,6.45289993 10.3407293,6.45289993 L10.3407293,6.45289993 Z M9.78764943,12.3625592 L9.78764943,19.8885144 C11.6298536,19.8028348 13.4917046,19.8351769 15.3184479,19.9686906 L15.3184479,19.9686906 L15.3184479,15.1456216 L9.78764943,12.3625592 Z M7.0222502,17.5851498 C7.32795646,17.5851498 7.57533005,17.8341034 7.57533005,18.1417623 L7.57533005,18.1417623 L7.57533005,19.2549872 C7.57533005,19.5626461 7.32795646,19.8115997 7.0222502,19.8115997 C6.71654394,19.8115997 6.46917036,19.5626461 6.46917036,19.2549872 L6.46917036,19.2549872 L6.46917036,18.1417623 C6.46917036,17.8341034 6.71654394,17.5851498 7.0222502,17.5851498 Z M13.6592084,17.5851498 C13.9649146,17.5851498 14.2122882,17.8341034 14.2122882,18.1417623 C14.2122882,18.4494211 13.9649146,18.6983747 13.6592084,18.6983747 L13.6592084,18.6983747 L11.446889,18.6983747 C11.1411827,18.6983747 10.8938091,18.4494211 10.8938091,18.1417623 C10.8938091,17.8341034 11.1411827,17.5851498 11.446889,17.5851498 L11.446889,17.5851498 Z M7.0222502,14.2454748 C7.32795646,14.2454748 7.57533005,14.4944284 7.57533005,14.8020873 L7.57533005,14.8020873 L7.57533005,15.9153123 C7.57533005,16.2229712 7.32795646,16.4719248 7.0222502,16.4719248 C6.71654394,16.4719248 6.46917036,16.2229712 6.46917036,15.9153123 L6.46917036,15.9153123 L6.46917036,14.8020873 C6.46917036,14.4944284 6.71654394,14.2454748 7.0222502,14.2454748 Z M13.6592084,15.3586998 C13.9649146,15.3586998 14.2122882,15.6076534 14.2122882,15.9153123 C14.2122882,16.2229712 13.9649146,16.4719248 13.6592084,16.4719248 L13.6592084,16.4719248 L11.446889,16.4719248 C11.1411827,16.4719248 10.8938091,16.2229712 10.8938091,15.9153123 C10.8938091,15.6076534 11.1411827,15.3586998 11.446889,15.3586998 L11.446889,15.3586998 Z M7.0222502,10.9057999 C7.32795646,10.9057999 7.57533005,11.1547535 7.57533005,11.4624124 L7.57533005,11.4624124 L7.57533005,12.5756373 C7.57533005,12.8832962 7.32795646,13.1322498 7.0222502,13.1322498 C6.71654394,13.1322498 6.46917036,12.8832962 6.46917036,12.5756373 L6.46917036,12.5756373 L6.46917036,11.4624124 C6.46917036,11.1547535 6.71654394,10.9057999 7.0222502,10.9057999 Z M7.0222502,7.56612492 C7.32795646,7.56612492 7.57533005,7.81507854 7.57533005,8.12273741 L7.57533005,8.12273741 L7.57533005,9.23596239 C7.57533005,9.54362126 7.32795646,9.79257488 7.0222502,9.79257488 C6.71654394,9.79257488 6.46917036,9.54362126 6.46917036,9.23596239 L6.46917036,9.23596239 L6.46917036,8.12273741 C6.46917036,7.81507854 6.71654394,7.56612492 7.0222502,7.56612492 Z M9.23456959,7.56612492 C9.54027584,7.56612492 9.78764943,7.81507854 9.78764943,8.12273741 L9.78764943,8.12273741 L9.78764943,9.23596239 C9.78764943,9.54362126 9.54027584,9.79257488 9.23456959,9.79257488 C8.92886333,9.79257488 8.68148974,9.54362126 8.68148974,9.23596239 L8.68148974,9.23596239 L8.68148974,8.12273741 C8.68148974,7.81507854 8.92886333,7.56612492 9.23456959,7.56612492 Z M18.0838471,7.56612492 L14.765368,7.56612492 C14.4607421,7.56612492 14.2122882,7.81616571 14.2122882,8.12273741 L14.2122882,8.12273741 L14.2122882,8.6793499 L18.636927,8.6793499 L18.636927,8.12273741 C18.636927,7.81616571 18.3884731,7.56612492 18.0838471,7.56612492 L18.0838471,7.56612492 Z M16.9776874,5.33967495 L15.8715277,5.33967495 C15.5669018,5.33967495 15.3184479,5.58971574 15.3184479,5.89628744 L15.3184479,5.89628744 L15.3184479,6.45289993 L17.5307673,6.45289993 L17.5307673,5.89628744 C17.5307673,5.58971574 17.2823134,5.33967495 16.9776874,5.33967495 L16.9776874,5.33967495 Z" id="Color"></path>
                        </g>
                    </g>
                </g>
            </g>
        </g>
    </g>
</svg>