<?xml version="1.0" encoding="UTF-8"?>
<svg width="48px" height="36px" viewBox="0 0 48 36" version="1.1" xmlns="http://www.w3.org/2000/svg" xmlns:xlink="http://www.w3.org/1999/xlink">
    <!-- Generator: Sketch 62 (91390) - https://sketch.com -->
    <title>Schools</title>
    <desc>Created with Sketch.</desc>
    <g id="V-0.1.3" stroke="none" stroke-width="1" fill="none" fill-rule="evenodd">
        <g id="Pago_Servicios_Multiproducto_V0.1.2_001" transform="translate(-1008.000000, -222.000000)">
            <g id="Frequent" transform="translate(264.000000, 159.000000)">
                <g id="Service-6" transform="translate(728.000000, 48.000000)">
                    <g id="Schools" transform="translate(16.000000, 15.000000)">
                        <rect id="Surface" fill="#7928A1" x="0" y="0" width="48" height="36" rx="4"></rect>
                        <g id="00.-Brand-/-03.-Globile-Icon-/-SERV/SERV49" transform="translate(12.000000, 6.000000)" fill="#FFFFFF">
                            <path d="M20.9473684,13.6204126 L20.9473684,9.68307976 C20.9473684,9.58567168 20.9164654,9.49903474 20.8738049,9.41982382 C20.8628186,9.39928516 20.8508685,9.38262683 20.8375051,9.36369376 C20.7913754,9.29846512 20.734966,9.24474354 20.6660284,9.20614157 C20.657612,9.20139158 20.6538857,9.19122266 20.645148,9.18694093 L12.6712582,5.2793792 C11.9105675,4.9068736 11.0368009,4.9068736 10.2761102,5.2793792 L2.30222042,9.18694093 C2.11821547,9.27739123 2,9.47060169 2,9.68307976 C2,9.89555782 2.11821547,10.0887683 2.30222042,10.1792186 L5.15789474,11.5786566 L5.15789474,18.4519459 C5.15789474,18.7548742 5.39329768,19 5.68421053,19 L17.2559622,19 C17.5468751,19 17.782278,18.7548742 17.782278,18.4519459 L17.782278,11.5821354 L19.8947368,10.5469742 L19.8947368,13.6204126 C19.2834216,13.847408 18.8421053,14.4500535 18.8421053,15.1636211 L18.8421053,18.4519459 C18.8421053,18.7548742 19.0775082,19 19.3684211,19 L21.4736842,19 C21.7645971,19 22,18.7548742 22,18.4519459 L22,15.1636211 C22,14.4500535 21.5586837,13.847408 20.9473684,13.6204126 Z M16.7296464,17.9038917 L6.21052632,17.9038917 L6.21052632,12.0944644 L10.2761102,14.0867804 C10.6564556,14.2730332 11.0655839,14.3661596 11.4736842,14.3661596 C11.8817845,14.3661596 12.2909128,14.2730332 12.6712582,14.0867804 L16.7296464,12.0980102 L16.7296464,17.9038917 Z M12.2230675,13.0945027 C11.7460938,13.3278538 11.2012747,13.3278538 10.7243011,13.0945027 L3.76192432,9.68307976 L10.7243009,6.27165685 C11.2012746,6.03830571 11.7460937,6.03830571 12.2230674,6.27165685 L19.1854441,9.68307976 L12.2230675,13.0945027 Z M20.9473684,17.9038917 L19.8947368,17.9038917 L19.8947368,15.1636211 C19.8947368,14.8612279 20.1311678,14.6155669 20.4210526,14.6155669 C20.7109375,14.6155669 20.9473684,14.8612279 20.9473684,15.1636211 L20.9473684,17.9038917 Z" id="Color"></path>
                        </g>
                    </g>
                </g>
            </g>
        </g>
    </g>
</svg>