<?xml version="1.0" encoding="UTF-8"?>
<svg width="48px" height="36px" viewBox="0 0 48 36" version="1.1" xmlns="http://www.w3.org/2000/svg" xmlns:xlink="http://www.w3.org/1999/xlink">
    <!-- Generator: Sketch 62 (91390) - https://sketch.com -->
    <title>Auto</title>
    <desc>Created with Sketch.</desc>
    <g id="V-0.1.3" stroke="none" stroke-width="1" fill="none" fill-rule="evenodd">
        <g id="Pago_Servicios_Multiproducto_V0.1.2_001" transform="translate(-592.000000, -222.000000)">
            <g id="Frequent" transform="translate(264.000000, 159.000000)">
                <g id="Service-2" transform="translate(312.000000, 48.000000)">
                    <g id="Auto" transform="translate(16.000000, 15.000000)">
                        <rect id="Surface" fill="#AA0000" x="0" y="0" width="48" height="36" rx="4"></rect>
                        <g id="00.-Brand-/-03.-Globile-Icon-/-BAN/BAN57B" transform="translate(12.000000, 6.000000)" fill="#FFFFFF">
                            <path d="M20.9978638,15.5106812 C20.9979248,15.506897 21,15.5037842 21,15.5 L21.0009766,13.6015625 C21.0009766,12.7314453 20.4169922,11.9560547 19.5722657,11.7128906 L18.9889527,11.5547485 C18.9910889,11.5358887 19,11.5194092 19,11.5 C19,7.3642578 15.6357422,4 11.5,4 L9.5,4 L5.0029297,4 C3.8984375,4 3,4.8984375 3,6.0029297 L3,11.0921021 C2.4192505,11.2991943 2,11.848999 2,12.5 L2,17.5 C2,18.8789062 3.1210938,20 4.5,20 C5.3148193,20 6.0326538,19.6026611 6.4893188,18.9978638 C6.493103,18.9979248 6.4962158,19 6.5,19 L17.5,19 C17.5037842,19 17.506897,18.9979248 17.5106812,18.9978638 C17.9673462,19.6026611 18.6851807,20 19.5,20 C20.8789062,20 22,18.8789062 22,17.5 C22,16.6851807 21.6026611,15.9673462 20.9978638,15.5106812 Z M17.9890137,11.2836914 L11.4921875,9.5224609 C10.6132812,9.2841797 10,8.4814453 10,7.5712891 L10,5 L11.5,5 C15.0109863,5 17.8735352,7.800354 17.9890137,11.2836914 Z M4.5,19 C3.6728516,19 3,18.3271484 3,17.5 C3,16.6728516 3.6728516,16 4.5,16 C5.3271484,16 6,16.6728516 6,17.5 C6,18.3271484 5.3271484,19 4.5,19 Z M6.9494629,18 C6.9823608,17.8383789 7,17.6712646 7,17.5 C7,16.1210938 5.8789062,15 4.5,15 C3.9349365,15 3.4190674,15.1953735 3,15.5124512 L3,12.5 C3,12.2246094 3.2246094,12 3.5,12 C3.7763672,12 4,11.7763672 4,11.5 L4,6.0029297 C4,5.4501953 4.4501953,5 5.0029297,5 L9,5 L9,7.5712891 C9,8.9326172 9.9169922,10.131836 11.2304688,10.4873047 L19.3027344,12.6757813 C19.7138672,12.7939454 20.0009766,13.1748047 20.0009766,13.6015625 L20.0002442,15.0505371 C19.838562,15.0175781 19.6713257,15 19.5,15 C18.1210938,15 17,16.1210938 17,17.5 C17,17.6712646 17.0176392,17.8383789 17.0505371,18 L6.9494629,18 Z M19.5,19 C18.6728516,19 18,18.3271484 18,17.5 C18,16.6728516 18.6728516,16 19.5,16 C20.3271484,16 21,16.6728516 21,17.5 C21,18.3271484 20.3271484,19 19.5,19 Z" id="Color"></path>
                        </g>
                    </g>
                </g>
            </g>
        </g>
    </g>
</svg>