<?xml version="1.0" encoding="UTF-8"?>
<svg width="48px" height="36px" viewBox="0 0 48 36" version="1.1" xmlns="http://www.w3.org/2000/svg" xmlns:xlink="http://www.w3.org/1999/xlink">
    <!-- Generator: Sketch 62 (91390) - https://sketch.com -->
    <title>Finance</title>
    <desc>Created with Sketch.</desc>
    <g id="V-0.1.3" stroke="none" stroke-width="1" fill="none" fill-rule="evenodd">
        <g id="Pago_Servicios_Multiproducto_V0.1.2_001" transform="translate(-1112.000000, -222.000000)">
            <g id="Frequent" transform="translate(264.000000, 159.000000)">
                <g id="Service-7" transform="translate(832.000000, 48.000000)">
                    <g id="Finance" transform="translate(16.000000, 15.000000)">
                        <rect id="Surface" fill="#3455DB" x="0" y="0" width="48" height="36" rx="4"></rect>
                        <g id="00.-Brand-/-03.-Globile-Icon-/-BAN/BAN26" transform="translate(12.000000, 6.000000)" fill="#FFFFFF">
                            <path d="M16.4150904,12.3598633 C17.2261514,11.8896485 18.2047697,11.8676758 19.1052632,12.3027344 C19.9050164,12.6884766 20.4210526,13.5288086 20.4210526,14.4433594 L20.4210526,14.4433594 L20.4210526,16 L21.4736842,16 C21.7645971,16 22,16.2236328 22,16.5 L22,16.5 L22,18.8754883 C22,20.046875 20.9967105,21 19.7641859,21 L19.7641859,21 L15.8157895,21 C14.5822368,21 13.5789474,20.046875 13.5789474,18.8754883 L13.5789474,18.8754883 L13.5789474,16.5 C13.5789474,16.2236328 13.8143503,16 14.1052632,16 L14.1052632,16 L15.1578947,16 L15.1578947,14.4921875 C15.1578947,13.6157227 15.6276727,12.8183594 16.4150904,12.3598633 Z M20.9473684,17 L14.6315789,17 L14.6315789,18.8754883 C14.6315789,19.4956055 15.1630345,20 15.8157895,20 L15.8157895,20 L19.7641859,20 C20.4169408,20 20.9473684,19.4956055 20.9473684,18.8754883 L20.9473684,18.8754883 L20.9473684,17 Z M17.2631579,3 C17.5540707,3 17.7894737,3.2236328 17.7894737,3.5 L17.7894737,3.5 L17.7894737,6 L20.4210526,6 C20.7119655,6 20.9473684,6.2236328 20.9473684,6.5 L20.9473684,6.5 L20.9473684,11.5 C20.9473684,11.7763672 20.7119655,12 20.4210526,12 C20.1301398,12 19.8947368,11.7763672 19.8947368,11.5 L19.8947368,11.5 L19.8947368,9.9014893 C18.2751207,9.6846313 17.0050113,8.5004883 16.7863127,7 L16.7863127,7 L9.26825916,7 C9.05296568,8.498291 7.80450758,9.6813965 6.21052632,9.9008179 L6.21052632,9.9008179 L6.21052632,13.0686035 C7.79152958,13.2913208 9.03401263,14.4838867 9.26427579,16 L9.26427579,16 L12,16 C12.2909128,16 12.5263158,16.2236328 12.5263158,16.5 C12.5263158,16.7763672 12.2909128,17 12,17 L12,17 L5.68421053,17 C5.39329768,17 5.15789474,16.7763672 5.15789474,16.5 L5.15789474,16.5 L5.15789474,14 L2.52631579,14 C2.23540295,14 2,13.7763672 2,13.5 L2,13.5 L2,3.5 C2,3.2236328 2.23540295,3 2.52631579,3 L2.52631579,3 Z M6.21052632,14.0701904 L6.21052632,16 L8.21177274,16 C8.00560242,15.0338745 7.21381579,14.2711792 6.21052632,14.0701904 L6.21052632,14.0701904 Z M18.6282895,13.1943359 C18.0618832,12.9213867 17.4553865,12.9262695 16.9660773,13.2124023 C16.4932155,13.487793 16.2105263,13.9663086 16.2105263,14.4921875 L16.2105263,14.4921875 L16.2105263,16 L19.3684211,16 L19.3684211,14.4433594 C19.3684211,13.9013672 19.0775082,13.4111328 18.6282895,13.1943359 Z M16.7368421,4 L3.05263158,4 L3.05263158,13 L5.15789474,13 L5.15789474,6.5 C5.15789474,6.2236328 5.39329768,6 5.68421053,6 L5.68421053,6 L16.7368421,6 L16.7368421,4 Z M19.8947368,7 L17.8394583,7 C18.0392039,7.953125 18.854762,8.7086792 19.8947368,8.9020996 L19.8947368,8.9020996 L19.8947368,7 Z M8.21537063,7 L6.21052632,7 L6.21052632,8.8997803 C7.22499484,8.703125 8.02012232,7.9498291 8.21537063,7 L8.21537063,7 Z" id="Color"></path>
                        </g>
                    </g>
                </g>
            </g>
        </g>
    </g>
</svg>