<?xml version="1.0" encoding="UTF-8"?>
<svg width="48px" height="36px" viewBox="0 0 48 36" version="1.1" xmlns="http://www.w3.org/2000/svg" xmlns:xlink="http://www.w3.org/1999/xlink">
    <!-- Generator: Sketch 62 (91390) - https://sketch.com -->
    <title>Gas</title>
    <desc>Created with Sketch.</desc>
    <g id="V-0.1.3" stroke="none" stroke-width="1" fill="none" fill-rule="evenodd">
        <g id="Pago_Servicios_Multiproducto_V0.1.2_001" transform="translate(-488.000000, -222.000000)">
            <g id="Frequent" transform="translate(264.000000, 159.000000)">
                <g id="Service-1" transform="translate(208.000000, 48.000000)">
                    <g id="Gas" transform="translate(16.000000, 15.000000)">
                        <rect id="Surface" fill="#E03C00" x="0" y="0" width="48" height="36" rx="4"></rect>
                        <g id="00.-Brand-/-03.-Globile-Icon-/-SERV/SERV01" transform="translate(12.000000, 6.000000)" fill="#FFFFFF">
                            <path d="M5.34995325,14 L9.83245194,14 L6.8019165,21.3242188 C6.71086578,21.5454102 6.8019165,21.7939454 7.02119261,21.9208985 C7.11224333,21.9741211 7.21568561,22 7.31858911,22 C7.46189975,22 7.60359415,21.949707 7.71026901,21.8520508 L19.589968,10.9833984 C19.9757215,10.6625976 20.1028693,10.1699218 19.9132252,9.7280273 C19.7230422,9.2856445 19.2624008,9 18.7387243,9 L13.7864254,9 L17.7280071,2.7480469 C17.825523,2.5932617 17.8249842,2.4033203 17.7263909,2.2490235 C17.6272585,2.0947266 17.4456959,2 17.2490477,2 L10.628742,2 C10.4267062,2 10.2408334,2.1000977 10.1443951,2.2607422 L4.16629345,12.1933594 C3.93624213,12.5756836 3.9454011,13.0273438 4.19053778,13.4018555 C4.43621314,13.7763672 4.86937764,14 5.34995325,14 Z M5.13498729,12.671875 L10.9563092,3 L16.2981331,3 L12.3565513,9.2519531 C12.2590354,9.4067383 12.2595742,9.5966797 12.3581675,9.7509765 C12.4572998,9.9052734 12.6388624,10 12.8355106,10 L18.7387243,10 C18.8270812,10 18.8669496,10.0493164 18.8847288,10.090332 C18.9025079,10.1313476 18.9095118,10.1918945 18.825465,10.2626953 L8.73984297,19.4892578 L11.1454147,13.6757812 C11.2089886,13.5219726 11.1852831,13.3500976 11.0823796,13.215332 C10.9789372,13.0805664 10.809766,13 10.628742,13 L5.34995325,13 C5.22873181,13 5.16623546,12.9321289 5.13929733,12.8916016 C5.11289809,12.8510742 5.07680098,12.7685547 5.13498729,12.671875 Z" id="Color"></path>
                        </g>
                    </g>
                </g>
            </g>
        </g>
    </g>
</svg>