<?xml version="1.0" encoding="UTF-8"?>
<svg width="52px" height="32px" viewBox="0 0 52 32" version="1.1" xmlns="http://www.w3.org/2000/svg" xmlns:xlink="http://www.w3.org/1999/xlink">
    <!-- Generator: Sketch 55.2 (78181) - https://sketchapp.com -->
    <title>Artboard</title>
    <desc>Created with Sketch.</desc>
    <g id="Artboard" stroke="none" stroke-width="1" fill="none" fill-rule="evenodd">
        <g id="Group-2">
            <rect id="Rectangle" x="0" y="0" width="52" height="32"></rect>
            <g id="Group-7-Copy-3" transform="translate(8.000000, 0.000000)">
                <g id="Group-17-Copy">
                    <path d="M6.48345947,6.91367187 C4.80998644,6.91367187 2.31060606,7.54047619 2.31060606,9.22351192 L2.31060606,16.9784413 C1.43068258,17.2940104 0.795454545,18.131808 0.795454545,19.1238095 L0.795454545,26.7428571 C0.795454545,28.8440475 2.49408152,30.552381 4.58333333,30.552381 C5.81790803,30.552381 6.90553606,29.9469122 7.59745273,29.0253163 C7.60318636,29.0254092 7.60790273,29.0285714 7.61363636,29.0285714 C6.7033682,25.6268113 6.18569143,22.7021182 6.06060606,20.2544922 C5.93454101,17.7876961 6.07549215,13.340756 6.48345947,6.91367187 Z" id="Shape-Copy" fill="#FFE058" fill-rule="nonzero"></path>
                    <g id="Group" transform="translate(22.083333, -0.000000)">
                        <path d="M5.19087364,13.2828125 C2.88666604,11.1377391 0.464069746,6.55169931 0.189393939,3.22689076 C1.49763147,3.05179125 3.38738227,2.12580536 4.43181818,1.53320312 C4.69490548,1.38393009 4.24905523,6.04956131 4.43181818,7.41307048 C4.904074,10.936351 5.72159205,13.7768782 5.19087364,13.2828125 Z" id="Stroke-679-Copy" fill="#BEECC0" fill-rule="nonzero"></path>
                        <path d="M6.06060606,1.14775929 C4.58735743,2.56223083 2.86108997,3.48614503 0.866363407,3.89201114 C1.37237121,8.62307479 2.88765742,11.5864461 6.06060606,12.8585062 C9.2335547,11.5864461 10.7488409,8.62307479 11.2548487,3.89201114 C9.26012215,3.48614503 7.53385469,2.56223083 6.06060606,1.14775929 Z" id="Stroke-679-Copy" stroke="#274B72" stroke-width="1.6"></path>
                        <polyline id="Stroke-680-Copy" stroke="#274B72" stroke-width="1.6" stroke-linecap="round" stroke-linejoin="round" points="3.58585859 6.85714286 5.35353535 8.64985994 8.88888889 5.06442577"></polyline>
                    </g>
                    <path d="M28.7846421,24.5115142 C28.7847345,24.5057478 28.7878788,24.5010045 28.7878788,24.4952381 L28.7893585,21.602381 C28.7893585,20.2764881 27.9045336,19.0949405 26.624645,18.7244047 L25.7408374,18.4834263 C25.7440741,18.4546875 25.7575758,18.4295759 25.7575758,18.4 C25.7575758,12.0979166 20.6602155,6.97142857 14.3939394,6.97142857 L11.3636364,6.97142857 L4.54989348,6.97142857 C2.87642045,6.97142857 1.51515152,8.34047619 1.51515152,10.0235119 L1.51515152,17.7784413 C0.63522803,18.0940104 -7.10542736e-15,18.931808 -7.10542736e-15,19.9238095 L-7.10542736e-15,27.5428571 C-7.10542736e-15,29.6440475 1.69862697,31.352381 3.78787879,31.352381 C5.02245348,31.352381 6.11008152,30.7469122 6.80199818,29.8253163 C6.80773182,29.8254092 6.81244818,29.8285714 6.81818182,29.8285714 L23.4848485,29.8285714 C23.4905821,29.8285714 23.4952985,29.8254092 23.5010321,29.8253163 C24.1929488,30.7469122 25.2805768,31.352381 26.5151515,31.352381 C28.6044033,31.352381 30.3030303,29.6440475 30.3030303,27.5428571 C30.3030303,26.3012277 29.7010017,25.2073847 28.7846421,24.5115142 Z M24.2257783,18.0703869 L14.3821023,15.3866071 C13.0504261,15.0235119 12.1212121,13.8002976 12.1212121,12.4133929 L12.1212121,8.4952381 L14.3939394,8.4952381 C19.7136156,8.4952381 24.0508109,12.7624442 24.2257783,18.0703869 Z M3.78787879,29.8285714 C2.53462364,29.8285714 1.51515152,28.8032738 1.51515152,27.5428571 C1.51515152,26.2824405 2.53462364,25.2571429 3.78787879,25.2571429 C5.04113394,25.2571429 6.06060606,26.2824405 6.06060606,27.5428571 C6.06060606,28.8032738 5.04113394,29.8285714 3.78787879,29.8285714 Z M7.49918621,28.3047619 C7.54903152,28.0584821 7.57575758,27.8038318 7.57575758,27.5428571 C7.57575758,25.4416667 5.87713061,23.7333333 3.78787879,23.7333333 C2.93172197,23.7333333 2.15010212,24.0310453 1.51515152,24.5142114 L1.51515152,19.9238095 C1.51515152,19.5041667 1.85546879,19.1619048 2.27272727,19.1619048 C2.69146545,19.1619048 3.03030303,18.821131 3.03030303,18.4 L3.03030303,10.0235119 C3.03030303,9.18124998 3.71241712,8.4952381 4.54989348,8.4952381 L10.6060606,8.4952381 L10.6060606,12.4133929 C10.6060606,14.4877976 11.9954427,16.3151787 13.9855588,16.8568453 L26.2162642,20.1916667 C26.8391927,20.3717263 27.274207,20.9520834 27.274207,21.602381 L27.2730973,23.8103422 C27.0281242,23.760119 26.7747359,23.7333333 26.5151515,23.7333333 C24.4258997,23.7333333 22.7272727,25.4416667 22.7272727,27.5428571 C22.7272727,27.8038318 22.7539988,28.0584821 22.8038441,28.3047619 L7.49918621,28.3047619 Z M26.5151515,29.8285714 C25.2618964,29.8285714 24.2424242,28.8032738 24.2424242,27.5428571 C24.2424242,26.2824405 25.2618964,25.2571429 26.5151515,25.2571429 C27.7684067,25.2571429 28.7878788,26.2824405 28.7878788,27.5428571 C28.7878788,28.8032738 27.7684067,29.8285714 26.5151515,29.8285714 Z" id="Shape-Copy-2" fill="#274B72" fill-rule="nonzero"></path>
                </g>
                <path d="M14.3821023,15.3866071 C13.0504261,15.0235119 12.1212121,13.8002976 12.1212121,12.4133929 L12.1212121,8.4952381 L14.3939394,8.4952381 C16.6946658,8.4952381 15.2737607,11.3492584 14.5860168,13.2828125 C14.337765,13.9807589 14.2697935,14.6820237 14.3821023,15.3866071 Z" id="Path" fill="#E1EFF3" fill-rule="nonzero"></path>
            </g>
        </g>
    </g>
</svg>