<svg width="369" height="233" viewBox="0 0 369 233" fill="none" xmlns="http://www.w3.org/2000/svg">
  <g filter="url(#filter0_bd)">
    <g clip-path="url(#clip0)">
      <rect x="4" width="361" height="225" rx="12" fill="white" fill-opacity="0.1"/>
      <g filter="url(#filter1_f)">
        <path d="M340.646 377.441C380.596 387.125 367.069 328.921 369.588 320.368C393.04 324.093 442.609 330.025 453.269 323.957C466.593 316.373 447.795 250.77 422.231 157.54C396.667 64.3094 378.372 -2.41424 347.756 -60.846C317.141 -119.278 276.939 -126.926 244.277 -136.643C211.615 -146.359 157.044 -94.0515 154.019 -81.4291C150.994 -68.8068 133.82 45.9693 127.271 66.4372C120.722 86.905 128.225 134.967 132.983 158.232C137.74 181.496 193.571 124.912 254.645 114.062C315.72 103.212 275.234 138.881 290.271 193.723C305.308 248.564 293.734 268.444 283.386 328.281C273.038 388.117 300.697 367.758 340.646 377.441Z" fill="#3056D3" fill-opacity="0.8"/>
      </g>
      <g filter="url(#filter2_f)">
        <path d="M57.0912 49.7874C33.2318 -4.01003 -40.3694 34.4576 -61.325 26.8813C-54.2974 53.4113 -42.5463 122.099 -51.7632 184.61C-63.2844 262.748 -21.2927 218.403 148.572 316.183C318.436 413.962 215.542 328.719 311.925 343.468C408.308 358.217 353.959 301.626 350.786 271.386C347.613 241.146 288.975 215.735 249.095 194.234C209.214 172.734 163.967 181.832 99.648 135.993C35.3291 90.1533 80.9506 103.585 57.0912 49.7874Z" fill="#01D1FF"/>
      </g>
      <g filter="url(#filter3_f)">
        <path d="M220.186 377.441C260.136 387.125 246.609 328.921 249.128 320.368C272.58 324.093 322.149 330.025 332.809 323.957C346.134 316.373 327.335 250.77 301.771 157.54C276.207 64.3094 257.912 -2.41424 227.297 -60.846C196.681 -119.278 156.479 -126.926 123.817 -136.643C91.1547 -146.359 36.5837 -94.0515 33.5587 -81.4291C30.5337 -68.8068 13.3601 45.9693 6.81114 66.4372C0.262138 86.905 7.76551 134.967 12.523 158.232C17.2804 181.496 73.1112 124.912 134.185 114.062C195.26 103.212 154.774 138.881 169.811 193.723C184.848 248.564 173.274 268.444 162.926 328.281C152.578 388.117 180.237 367.758 220.186 377.441Z" fill="#2054FF" fill-opacity="0.8"/>
      </g>
      <g filter="url(#filter4_f)">
        <path d="M281.696 -62.2901C268.107 -64.0886 257.943 -53.8906 255.18 -53.8133C251.502 -56.3975 242.943 -61.6631 238.134 -62.0514C232.123 -62.5368 234.166 -50.5017 234.228 -37.9753C234.29 -25.449 228.935 -26.9332 228.341 -13.408C227.747 0.117131 230.785 -5.19701 244.903 -5.80999C259.02 -6.42297 257.187 -12.5812 265.859 -8.5753C274.531 -4.56936 259.369 3.37185 252.076 22.9673C244.782 42.5627 247.222 37.7011 263.661 56.9591C280.1 76.2171 279.975 51.1644 296.585 32.0709C313.194 12.9773 317.983 9.35721 321.889 -14.7189C325.796 -38.795 319.161 -43.8384 314.195 -51.6521C309.229 -59.4657 295.284 -60.4916 281.696 -62.2901Z" fill="#FF662B"/>
      </g>
      <g filter="url(#filter5_f)">
        <path d="M467.582 101.573C473.915 23.7818 456.191 -17.8222 404.505 -47.9797L256.437 -67.4923C273.206 -27.386 296.728 47.8073 295.656 79.367C294.317 118.816 218.869 134.412 123.784 156.32C86.0356 181.383 113.575 244.285 186.089 353.219C258.602 462.153 358.172 387.257 404.672 372.364C451.173 357.472 461.248 179.364 467.582 101.573Z" fill="#FF4057"/>
      </g>
      <path fill-rule="evenodd" clip-rule="evenodd" d="M348.623 12.8318C353.452 17.5558 353.452 25.2168 348.623 29.9407L347.019 28.7345C351.147 24.6956 351.147 18.077 347.019 14.0381L348.623 12.8318ZM343.393 17.9482C345.34 19.8529 345.34 22.92 343.393 24.8246L341.789 23.6184C343.034 22.4007 343.034 20.3722 341.789 19.1542L343.393 17.9482ZM345.896 27.2739C349.223 24.0196 349.223 18.7533 345.896 15.4986L344.293 16.7049C346.919 19.2745 346.919 23.4984 344.293 26.0677L345.896 27.2739ZM338.747 25.1407C338.329 25.2738 337.902 25.3593 337.407 25.3593C335.345 25.3593 334.176 23.9336 334.176 21.776C334.176 19.6088 335.411 18.2401 337.426 18.2401C338.092 18.2401 338.605 18.3542 338.985 18.5443C338.976 18.9815 338.919 19.3427 338.814 19.6373C338.481 19.4663 338.016 19.3712 337.531 19.3712C336.276 19.3712 335.535 20.1981 335.535 21.795C335.535 23.3823 336.343 24.2378 337.521 24.2378C338.092 24.2378 338.576 24.1142 338.957 23.9241C338.919 24.3043 338.852 24.713 338.747 25.1407ZM327.523 18.4872V20.4928C327.523 21.3292 327.542 22.1847 327.58 22.9641C327.371 22.5269 327.143 22.0706 326.933 21.7379L324.833 18.3257C324.424 18.3257 323.977 18.3922 323.616 18.4872V25.1882H324.852V22.7265C324.852 21.9661 324.842 21.1201 324.823 20.3977C324.985 20.7779 325.185 21.1486 325.394 21.4908L327.618 25.1882H328.768V18.3257C328.283 18.3257 327.865 18.3922 327.523 18.4872ZM333.832 19.5233C333.88 19.2286 333.937 18.7534 333.937 18.4112H329.954V25.1882H331.256V22.3558H333.575C333.633 22.0706 333.68 21.5669 333.69 21.2437H331.256V19.5233H333.832Z" fill="white" fill-opacity="0.8"/>
      <path fill-rule="evenodd" clip-rule="evenodd" d="M26.5587 27.2965C26.5877 27.1354 26.6167 26.8132 26.5297 26.5879C26.3448 26.0538 25.673 25.6477 24.9348 25.2015C23.936 24.5978 22.8157 23.9206 22.6157 22.7537C22.5287 22.2382 22.5287 21.8515 22.5867 21.4326C22.8186 19.8537 24.0943 19.2737 25.6599 19.2737C26.9066 19.2737 28.6171 19.5959 28.6171 21.7226V22.3993H26.4427V21.7871C26.4427 21.2715 26.1528 20.917 25.6309 20.917C25.08 20.917 24.8771 21.2393 24.8191 21.5615C24.7901 21.6904 24.7901 21.8837 24.8191 22.0771C24.9187 22.5749 25.59 22.972 26.3537 23.4236C27.3688 24.0239 28.547 24.7207 28.7621 25.879L28.7679 25.9231C28.8008 26.1716 28.8711 26.7026 28.7621 27.4902C28.5592 29.1013 27.2545 29.7135 25.6599 29.7135C24.0073 29.7135 22.4707 29.0691 22.4707 26.8776V26.1368H24.8191V27.0713C24.8191 27.5865 25.138 27.941 25.6889 27.941C26.2977 27.941 26.4717 27.6187 26.5587 27.2965ZM33.8069 20.4976L32.5892 29.3592H30.2408L31.8644 19.6275H35.7494L37.373 29.3592H35.0246L33.8359 20.4976H33.8069ZM73.2367 27.2647L73.1207 19.6275H75.2952V29.2622H72.164L70.0185 21.3354H69.9605L70.0765 29.2622H67.9311V19.6275H71.1782L73.2077 27.2647H73.2367ZM45.114 19.6275L44.0123 27.0713H43.9833L42.9106 19.6275H39.3155L39.1125 29.3592H41.316L41.3739 20.5942H41.4319L42.8816 29.3592H45.114L46.5636 20.5942H46.6216L46.6796 29.3592H48.883L48.6801 19.6275H45.114ZM62.3935 27.8769C63.0027 27.8769 63.2053 27.4258 63.2343 27.1676C63.2633 27.0713 63.2633 26.9102 63.2633 26.7813V19.6278H65.4958V26.6202C65.4958 26.7334 65.4858 26.9016 65.4776 27.0412V27.0412L65.4776 27.0414L65.4775 27.0427C65.4717 27.1409 65.4668 27.2246 65.4668 27.2646C65.3218 29.0691 64.0171 29.6813 62.3932 29.6813C60.7697 29.6813 59.494 29.101 59.349 27.2646C59.349 27.2246 59.3441 27.1409 59.3383 27.0427L59.3382 27.0414L59.3382 27.0412V27.0412C59.33 26.9016 59.32 26.7334 59.32 26.6202V19.6278H61.5525V26.8454V26.8455C61.5525 26.9743 61.5525 27.1035 61.5814 27.2324C61.6107 27.4258 61.7847 27.8769 62.3935 27.8769ZM55.0295 26.588C55.1165 26.8133 55.0875 27.1036 55.0585 27.2966C55.0005 27.6188 54.7976 27.9411 54.2177 27.9411C53.6668 27.9411 53.3479 27.5866 53.3479 27.0714V26.1369H51.0285V26.8777C51.0285 29.037 52.5651 29.6814 54.1887 29.6814C55.7543 29.6814 57.059 29.1011 57.2619 27.49C57.3761 26.6649 57.2938 26.1214 57.2633 25.9201L57.2619 25.911C57.0454 24.7449 55.8719 24.0573 54.8685 23.4694C54.1255 23.034 53.4758 22.6534 53.3772 22.1735C53.3192 21.9802 53.3482 21.7868 53.3772 21.6579C53.4352 21.3357 53.6381 21.0135 54.16 21.0135C54.6819 21.0135 54.9718 21.3679 54.9718 21.8835V22.4957H57.1462V21.8191C57.1462 19.7246 55.4357 19.4024 54.218 19.4024C52.6814 19.4024 51.4057 19.9501 51.1738 21.5291C51.1158 21.948 51.0868 22.3346 51.2028 22.818C51.385 23.9421 52.4685 24.6026 53.444 25.1972C54.1739 25.6421 54.8434 26.0502 55.0295 26.588ZM81.5868 27.0714C81.5285 27.3289 81.3256 27.78 80.688 27.78C80.0502 27.78 79.8182 27.3611 79.8182 27.0386C79.789 26.9422 79.789 26.813 79.789 26.6842V26.6841V22.2377V22.2376C79.789 22.0765 79.789 21.9154 79.8182 21.7866C79.8759 21.561 80.0502 21.0777 80.688 21.0777C81.3548 21.0777 81.5285 21.561 81.5578 21.7866C81.5868 21.9477 81.5868 22.1732 81.5868 22.1732V22.721H83.7902V22.3988C83.7902 22.3988 83.7902 22.0444 83.7612 21.7544C83.6163 19.9177 82.2533 19.3376 80.688 19.3376C79.1221 19.3376 77.8175 19.9177 77.6145 21.7544C77.6145 21.8349 77.6073 21.9557 77.6 22.0766C77.5928 22.1974 77.5855 22.3183 77.5855 22.3988V26.4911V26.4912C77.5855 26.6845 77.5855 26.8134 77.6145 27.1356C77.7595 28.9078 79.1511 29.5523 80.688 29.5523C82.2533 29.5523 83.645 28.9078 83.7899 27.1356C83.8192 26.8133 83.8192 26.6844 83.8192 26.4911V23.8811H80.717V25.2992H81.6158V26.7163C81.6158 26.8133 81.6158 26.9744 81.5868 27.0714Z" fill="white"/>
      <path fill-rule="evenodd" clip-rule="evenodd" d="M113.217 30.7174C117.282 30.7174 120.578 29.0265 120.578 26.9406C120.578 25.4413 118.875 24.1459 116.407 23.5361C116.386 23.0586 116.244 22.5849 115.983 22.1567L113.678 18.3799C113.502 18.0919 113.381 17.7833 113.313 17.4668L113.217 17.6246C112.646 18.5594 112.646 19.7111 113.217 20.6459L115.061 23.6674C115.632 24.6022 115.632 25.754 115.061 26.6888L114.965 26.8467C114.897 26.5302 114.776 26.2216 114.6 25.9336L112.912 23.1674L111.834 21.4013C111.658 21.1133 111.537 20.8046 111.469 20.4882L111.373 20.646C110.804 21.5777 110.802 22.7248 111.367 23.6579L111.367 23.658L113.217 26.6888C113.787 27.6237 113.787 28.7754 113.217 29.7103L113.121 29.8681C113.053 29.5516 112.932 29.2429 112.756 28.9549L110.451 25.1781C110.142 24.6716 110 24.1014 110.026 23.5365C107.559 24.1464 105.855 25.4413 105.855 26.9406C105.855 29.0265 109.151 30.7174 113.217 30.7174Z" fill="white"/>
      <line x1="95.1486" y1="15.2583" x2="95.1486" y2="33.7288" stroke="white" stroke-width="0.803067"/>
      <path d="M321.779 168.82H303.12V202.352H321.779V168.82Z" fill="#FF5F00"/>
      <path d="M304.095 185.071C304.092 181.841 304.823 178.653 306.235 175.747C307.646 172.842 309.699 170.296 312.24 168.301C309.094 165.829 305.316 164.292 301.338 163.865C297.36 163.438 293.342 164.139 289.743 165.888C286.144 167.637 283.11 170.363 280.988 173.755C278.865 177.146 277.739 181.067 277.739 185.068C277.739 189.069 278.865 192.989 280.988 196.381C283.11 199.772 286.144 202.498 289.743 204.247C293.342 205.996 297.36 206.697 301.338 206.27C305.316 205.844 309.094 204.306 312.24 201.834C309.7 199.84 307.647 197.295 306.236 194.391C304.825 191.487 304.093 188.3 304.095 185.071Z" fill="#EB001B"/>
      <path d="M346.084 185.073C346.084 189.075 344.958 192.995 342.835 196.387C340.712 199.779 337.677 202.505 334.078 204.253C330.479 206.002 326.461 206.702 322.482 206.275C318.504 205.848 314.726 204.31 311.58 201.836C314.119 199.841 316.172 197.295 317.583 194.391C318.995 191.486 319.728 188.299 319.728 185.07C319.728 181.841 318.995 178.654 317.583 175.75C316.172 172.845 314.119 170.299 311.58 168.304C314.726 165.831 318.504 164.293 322.482 163.865C326.461 163.438 330.479 164.139 334.078 165.887C337.677 167.636 340.712 170.362 342.835 173.754C344.958 177.145 346.084 181.066 346.084 185.067V185.073Z" fill="#F79E1B"/>
      <path d="M344.156 198.414V197.727H344.434V197.584H343.729V197.727H344.032V198.414H344.156ZM345.524 198.414V197.584H345.311L345.062 198.177L344.813 197.584H344.624V198.414H344.778V197.792L345.009 198.331H345.169L345.4 197.792V198.42L345.524 198.414Z" fill="#F79E1B"/>
    </g>
  </g>
  <defs>
    <filter id="filter0_bd" x="-69.8821" y="-73.8821" width="508.764" height="372.764" filterUnits="userSpaceOnUse" color-interpolation-filters="sRGB">
      <feFlood flood-opacity="0" result="BackgroundImageFix"/>
      <feGaussianBlur in="BackgroundImage" stdDeviation="36.9411"/>
      <feComposite in2="SourceAlpha" operator="in" result="effect1_backgroundBlur"/>
      <feColorMatrix in="SourceAlpha" type="matrix" values="0 0 0 0 0 0 0 0 0 0 0 0 0 0 0 0 0 0 127 0"/>
      <feOffset dy="4"/>
      <feGaussianBlur stdDeviation="2"/>
      <feColorMatrix type="matrix" values="0 0 0 0 0 0 0 0 0 0 0 0 0 0 0 0 0 0 0.12 0"/>
      <feBlend mode="normal" in2="effect1_backgroundBlur" result="effect2_dropShadow"/>
      <feBlend mode="normal" in="SourceGraphic" in2="effect2_dropShadow" result="shape"/>
    </filter>
    <filter id="filter1_f" x="-71.4554" y="-301.92" width="680.822" height="856.579" filterUnits="userSpaceOnUse" color-interpolation-filters="sRGB">
      <feFlood flood-opacity="0" result="BackgroundImageFix"/>
      <feBlend mode="normal" in="SourceGraphic" in2="BackgroundImageFix" result="shape"/>
      <feGaussianBlur stdDeviation="67.8425" result="effect1_foregroundBlur"/>
    </filter>
    <filter id="filter2_f" x="-214.473" y="-85.4729" width="707.621" height="583.837" filterUnits="userSpaceOnUse" color-interpolation-filters="sRGB">
      <feFlood flood-opacity="0" result="BackgroundImageFix"/>
      <feBlend mode="normal" in="SourceGraphic" in2="BackgroundImageFix" result="shape"/>
      <feGaussianBlur stdDeviation="35.7365" result="effect1_foregroundBlur"/>
    </filter>
    <filter id="filter3_f" x="-191.915" y="-301.92" width="680.822" height="856.579" filterUnits="userSpaceOnUse" color-interpolation-filters="sRGB">
      <feFlood flood-opacity="0" result="BackgroundImageFix"/>
      <feBlend mode="normal" in="SourceGraphic" in2="BackgroundImageFix" result="shape"/>
      <feGaussianBlur stdDeviation="67.8425" result="effect1_foregroundBlur"/>
    </filter>
    <filter id="filter4_f" x="74.7441" y="-216.025" width="401.341" height="404.468" filterUnits="userSpaceOnUse" color-interpolation-filters="sRGB">
      <feFlood flood-opacity="0" result="BackgroundImageFix"/>
      <feBlend mode="normal" in="SourceGraphic" in2="BackgroundImageFix" result="shape"/>
      <feGaussianBlur stdDeviation="60.23" result="effect1_foregroundBlur"/>
    </filter>
    <filter id="filter5_f" x="-7.1123" y="-181.492" width="589.923" height="706.806" filterUnits="userSpaceOnUse" color-interpolation-filters="sRGB">
      <feFlood flood-opacity="0" result="BackgroundImageFix"/>
      <feBlend mode="normal" in="SourceGraphic" in2="BackgroundImageFix" result="shape"/>
      <feGaussianBlur stdDeviation="57" result="effect1_foregroundBlur"/>
    </filter>
    <clipPath id="clip0">
      <rect x="4" width="361" height="225" rx="12" fill="white"/>
    </clipPath>
  </defs>
</svg>
