<svg xmlns="http://www.w3.org/2000/svg" width="64" height="44" viewBox="0 0 64 44">
  <g fill="none" fill-rule="evenodd">
    <rect width="64" height="44" fill="#005497" rx="2"/>
    <path fill="#FFF" fill-rule="nonzero" d="M16.17,25.17 C14.06,25.17 12.92,23.67 12.92,21.53 C12.92,19.36 14.11,17.91 16.2,17.91 C16.86,17.91 17.4,18.03 17.77,18.22 C17.75,18.66 17.7,18.98 17.6,19.25 C17.26,19.07 16.77,18.96 16.28,18.96 C14.94,18.96 14.16,19.85 14.16,21.54 C14.16,23.22 15.02,24.11 16.27,24.11 C16.85,24.11 17.36,23.99 17.74,23.79 C17.71,24.15 17.66,24.52 17.56,24.95 C17.12,25.09 16.67,25.17 16.17,25.17 Z M20.08,22.03 L20.08,23.96 L23.01,23.96 C23,24.27 22.96,24.71 22.9,25 L18.89,25 L18.89,18.08 L23.03,18.08 C23.02,18.39 22.98,18.84 22.92,19.12 L20.08,19.12 L20.08,20.99 L22.7,20.99 C22.7,21.31 22.65,21.74 22.59,22.03 L20.08,22.03 Z M28.08,25 L27.64,23.46 L25.13,23.46 L24.67,25 L23.5,25 L25.64,18.18 C26,18.08 26.63,18.03 27.14,18.03 L29.33,25 L28.08,25 Z M25.43,22.44 L27.35,22.44 L26.41,19.16 L25.43,22.44 Z M38.5,25.46 C38.26,25.67 37.91,25.96 37.6,26.14 L36.57,24.91 C36.18,25.08 35.74,25.17 35.24,25.17 C33.19,25.17 32.12,23.72 32.12,21.54 C32.12,19.32 33.26,17.91 35.21,17.91 C37.27,17.91 38.33,19.38 38.33,21.54 C38.33,22.72 38.02,23.65 37.46,24.27 L38.5,25.46 Z M33.36,21.54 C33.36,23.2 34.02,24.11 35.24,24.11 C36.46,24.11 37.09,23.25 37.09,21.54 C37.09,19.88 36.44,18.96 35.21,18.96 C34,18.96 33.36,19.87 33.36,21.54 Z M42.95,24.99 L41.58,22.39 L40.78,22.39 L40.78,25 L39.59,25 L39.59,18.12 C40.08,18 40.71,17.92 41.44,17.92 C43.39,17.92 44.09,19.03 44.09,20.11 C44.09,21.16 43.52,21.83 42.7,22.17 L44.31,24.99 L42.95,24.99 Z M40.78,21.39 L41.44,21.39 C42.33,21.39 42.85,21.05 42.85,20.17 C42.85,19.37 42.38,18.92 41.43,18.92 C41.22,18.92 41,18.93 40.78,18.95 L40.78,21.39 Z M47.99,25.17 C45.94,25.17 44.87,23.72 44.87,21.54 C44.87,19.32 46.01,17.91 47.96,17.91 C50.02,17.91 51.08,19.38 51.08,21.54 C51.08,23.81 49.94,25.17 47.99,25.17 Z M47.99,24.11 C49.21,24.11 49.84,23.25 49.84,21.54 C49.84,19.88 49.19,18.96 47.96,18.96 C46.75,18.96 46.11,19.87 46.11,21.54 C46.11,23.2 46.77,24.11 47.99,24.11 Z"/>
  </g>
</svg>
