<svg xmlns="http://www.w3.org/2000/svg" width="64" height="44" viewBox="0 0 64 44">
  <g fill="none" fill-rule="evenodd">
    <rect width="64" height="44" fill="#169E6C" rx="2"/>
    <path fill="#FFF" fill-rule="nonzero" d="M27.68,25.17 C25.57,25.17 24.43,23.67 24.43,21.53 C24.43,19.36 25.62,17.91 27.71,17.91 C28.37,17.91 28.91,18.03 29.28,18.22 C29.26,18.66 29.21,18.98 29.11,19.25 C28.77,19.07 28.28,18.96 27.79,18.96 C26.45,18.96 25.67,19.85 25.67,21.54 C25.67,23.22 26.53,24.11 27.78,24.11 C28.36,24.11 28.87,23.99 29.25,23.79 C29.22,24.15 29.17,24.52 29.07,24.95 C28.63,25.09 28.18,25.17 27.68,25.17 Z M34.31,19.12 L31.59,19.12 L31.59,21 L34.18,21 C34.17,21.3 34.13,21.76 34.07,22.06 L31.59,22.06 L31.59,25 L30.4,25 L30.4,18.08 L34.42,18.08 C34.42,18.41 34.37,18.82 34.31,19.12 Z M36.67,22.03 L36.67,23.96 L39.6,23.96 C39.59,24.27 39.55,24.71 39.49,25 L35.48,25 L35.48,18.08 L39.62,18.08 C39.61,18.39 39.57,18.84 39.51,19.12 L36.67,19.12 L36.67,20.99 L39.29,20.99 C39.29,21.31 39.24,21.74 39.18,22.03 L36.67,22.03 Z"/>
  </g>
</svg>
