<svg xmlns="http://www.w3.org/2000/svg" width="64" height="44" viewBox="0 0 64 44">
  <g fill="none" fill-rule="evenodd">
    <rect width="64" height="44" fill="#2B4899" rx="2"/>
    <path fill="#FFF" fill-rule="nonzero" d="M16.17,22.03 L16.17,23.96 L19.1,23.96 C19.09,24.27 19.05,24.71 18.99,25 L14.98,25 L14.98,18.08 L19.12,18.08 C19.11,18.39 19.07,18.84 19.01,19.12 L16.17,19.12 L16.17,20.99 L18.79,20.99 C18.79,21.31 18.74,21.74 18.68,22.03 L16.17,22.03 Z M23.18,25.17 C21.07,25.17 19.93,23.67 19.93,21.53 C19.93,19.36 21.12,17.91 23.21,17.91 C23.87,17.91 24.41,18.03 24.78,18.22 C24.76,18.66 24.71,18.98 24.61,19.25 C24.27,19.07 23.78,18.96 23.29,18.96 C21.95,18.96 21.17,19.85 21.17,21.54 C21.17,23.22 22.03,24.11 23.28,24.11 C23.86,24.11 24.37,23.99 24.75,23.79 C24.72,24.15 24.67,24.52 24.57,24.95 C24.13,25.09 23.68,25.17 23.18,25.17 Z M28.62,25.17 C26.57,25.17 25.5,23.72 25.5,21.54 C25.5,19.32 26.64,17.91 28.59,17.91 C30.65,17.91 31.71,19.38 31.71,21.54 C31.71,23.81 30.57,25.17 28.62,25.17 Z M28.62,24.11 C29.84,24.11 30.47,23.25 30.47,21.54 C30.47,19.88 29.82,18.96 28.59,18.96 C27.38,18.96 26.74,19.87 26.74,21.54 C26.74,23.2 27.4,24.11 28.62,24.11 Z M36.76,21.36 L37.97,21.36 L37.97,24.79 C37.44,25.03 36.63,25.16 35.93,25.16 C33.73,25.16 32.57,23.7 32.57,21.53 C32.57,19.27 33.79,17.91 36.11,17.91 C36.83,17.91 37.46,18.01 37.94,18.19 C37.91,18.54 37.84,18.89 37.74,19.24 C37.23,19.06 36.71,18.96 36.11,18.96 C34.64,18.96 33.81,19.89 33.81,21.51 C33.81,23.18 34.61,24.11 36,24.11 C36.24,24.11 36.51,24.08 36.76,24.04 L36.76,21.36 Z M43.31,25 L42.87,23.46 L40.36,23.46 L39.9,25 L38.73,25 L40.87,18.18 C41.23,18.08 41.86,18.03 42.37,18.03 L44.56,25 L43.31,25 Z M40.66,22.44 L42.58,22.44 L41.64,19.16 L40.66,22.44 Z M46.91,25.17 C46.22,25.17 45.49,25.02 45.05,24.76 C45.06,24.36 45.09,24.09 45.18,23.75 C45.7,24.02 46.37,24.16 46.92,24.16 C47.76,24.16 48.28,23.82 48.28,23.2 C48.28,22.59 47.9,22.37 47.11,22.05 L46.54,21.82 C45.66,21.47 45.04,20.91 45.04,19.83 C45.04,18.7 45.78,17.91 47.48,17.91 C48.09,17.91 48.71,18.01 49.25,18.22 C49.22,18.63 49.17,18.87 49.08,19.21 C48.55,19.01 47.96,18.92 47.53,18.92 C46.61,18.92 46.27,19.32 46.27,19.8 C46.27,20.41 46.58,20.62 47.28,20.88 L47.87,21.11 C48.7,21.43 49.51,21.95 49.51,23.13 C49.51,24.29 48.65,25.17 46.91,25.17 Z"/>
  </g>
</svg>
