<svg xmlns="http://www.w3.org/2000/svg" width="64" height="44" viewBox="0 0 64 44">
  <g fill="none" fill-rule="evenodd">
    <rect width="64" height="44" fill="#946F00" rx="2"/>
    <path fill="#FFF" fill-rule="nonzero" d="M27.765,21.36 L28.975,21.36 L28.975,24.79 C28.445,25.03 27.635,25.16 26.935,25.16 C24.735,25.16 23.575,23.7 23.575,21.53 C23.575,19.27 24.795,17.91 27.115,17.91 C27.835,17.91 28.465,18.01 28.945,18.19 C28.915,18.54 28.845,18.89 28.745,19.24 C28.235,19.06 27.715,18.96 27.115,18.96 C25.645,18.96 24.815,19.89 24.815,21.51 C24.815,23.18 25.615,24.11 27.005,24.11 C27.245,24.11 27.515,24.08 27.765,24.04 L27.765,21.36 Z M34.315,25 L33.875,23.46 L31.365,23.46 L30.905,25 L29.735,25 L31.875,18.18 C32.235,18.08 32.865,18.03 33.375,18.03 L35.565,25 L34.315,25 Z M31.665,22.44 L33.585,22.44 L32.645,19.16 L31.665,22.44 Z M37.915,25.17 C37.225,25.17 36.495,25.02 36.055,24.76 C36.065,24.36 36.095,24.09 36.185,23.75 C36.705,24.02 37.375,24.16 37.925,24.16 C38.765,24.16 39.285,23.82 39.285,23.2 C39.285,22.59 38.905,22.37 38.115,22.05 L37.545,21.82 C36.665,21.47 36.045,20.91 36.045,19.83 C36.045,18.7 36.785,17.91 38.485,17.91 C39.095,17.91 39.715,18.01 40.255,18.22 C40.225,18.63 40.175,18.87 40.085,19.21 C39.555,19.01 38.965,18.92 38.535,18.92 C37.615,18.92 37.275,19.32 37.275,19.8 C37.275,20.41 37.585,20.62 38.285,20.88 L38.875,21.11 C39.705,21.43 40.515,21.95 40.515,23.13 C40.515,24.29 39.655,25.17 37.915,25.17 Z"/>
  </g>
</svg>
