<svg xmlns="http://www.w3.org/2000/svg" width="64" height="44" viewBox="0 0 64 44">
  <g fill="none" fill-rule="evenodd">
    <rect width="64" height="44" fill="#383838" rx="4"/>
    <rect width="61" height="44" x="3" fill="#595959" rx="4"/>
    <g transform="translate(8 15)">
      <path fill="#FDCA6C" d="M0.88,0 L4.86111111,0 L4.86111111,0 L4.86111111,7 L0.88,7 C0.39398942,7 2.81563735e-16,6.60601058 0,6.12 L0,0.88 C-2.81563735e-16,0.39398942 0.39398942,-2.43788212e-16 0.88,0 Z"/>
      <path fill="#F7AF3C" d="M5.74111111,0 L7,0 L7,0 L7,7 L5.74111111,7 C5.25510053,7 4.86111111,6.60601058 4.86111111,6.12 L4.86111111,0.88 C4.86111111,0.39398942 5.25510053,-2.43788212e-16 5.74111111,0 Z" transform="matrix(-1 0 0 1 11.861 0)"/>
    </g>
    <rect width="61" height="4" x="3" y="34" fill="#383838" opacity=".5"/>
  </g>
</svg>
