<svg xmlns="http://www.w3.org/2000/svg" width="64" height="44" viewBox="0 0 64 44">
  <g fill="none" fill-rule="evenodd">
    <rect width="64" height="44" fill="#137E84" rx="2"/>
    <path fill="#FFF" fill-rule="nonzero" d="M24.07,25 L23.63,23.46 L21.12,23.46 L20.66,25 L19.49,25 L21.63,18.18 C21.99,18.08 22.62,18.03 23.13,18.03 L25.32,25 L24.07,25 Z M21.42,22.44 L23.34,22.44 L22.4,19.16 L21.42,22.44 Z M30.03,21.36 L31.24,21.36 L31.24,24.79 C30.71,25.03 29.9,25.16 29.2,25.16 C27,25.16 25.84,23.7 25.84,21.53 C25.84,19.27 27.06,17.91 29.38,17.91 C30.1,17.91 30.73,18.01 31.21,18.19 C31.18,18.54 31.11,18.89 31.01,19.24 C30.5,19.06 29.98,18.96 29.38,18.96 C27.91,18.96 27.08,19.89 27.08,21.51 C27.08,23.18 27.88,24.11 29.27,24.11 C29.51,24.11 29.78,24.08 30.03,24.04 L30.03,21.36 Z M35.24,25.17 C33.63,25.17 32.64,24.21 32.64,22.74 L32.64,18.15 C32.95,18.07 33.44,17.99 33.83,17.99 L33.83,22.69 C33.83,23.66 34.38,24.12 35.25,24.12 C36.11,24.12 36.67,23.68 36.67,22.68 L36.67,18.15 C36.97,18.07 37.48,17.99 37.86,17.99 L37.86,22.74 C37.86,24.21 36.84,25.17 35.24,25.17 Z M43.26,25 L42.82,23.46 L40.31,23.46 L39.85,25 L38.68,25 L40.82,18.18 C41.18,18.08 41.81,18.03 42.32,18.03 L44.51,25 L43.26,25 Z M40.61,22.44 L42.53,22.44 L41.59,19.16 L40.61,22.44 Z"/>
  </g>
</svg>
