<?xml version="1.0" encoding="UTF-8"?>
<svg width="266px" height="168px" viewBox="0 0 266 168" version="1.1" xmlns="http://www.w3.org/2000/svg" xmlns:xlink="http://www.w3.org/1999/xlink">
    <title>02. Element / Product / Dinero Creciente / Front</title>
    <defs>
        <linearGradient x1="-198.491787%" y1="52.2445826%" x2="59.9112381%" y2="52.2445826%" id="linearGradient-1">
            <stop stop-color="#9BC3D3" offset="0%"></stop>
            <stop stop-color="#FBFEFF" offset="100%"></stop>
        </linearGradient>
        <rect id="path-2" x="0" y="0" width="266" height="168" rx="10"></rect>
        <linearGradient x1="4.91402715%" y1="42.732813%" x2="84.9923848%" y2="42.732813%" id="linearGradient-4">
            <stop stop-color="#ECF6F8" offset="0%"></stop>
            <stop stop-color="#EDF6F9" offset="100%"></stop>
        </linearGradient>
        <path d="M248.97692,36.8148148 C253.845285,36.8148148 258.684144,37.8663436 263.113208,39.8768136 C263.076543,40.6390699 263.014471,41.3974069 262.927602,42.1506939 C263.555402,42.3934063 264.177562,42.6553884 264.792354,42.9349963 L266,43.4842343 L265.936236,44.8124635 C265.364425,56.7234562 258.936955,67.6691785 248.81612,73.8859717 C243.175158,77.353822 236.718042,79.1851852 230.135541,79.1851852 C225.01843,79.1851852 219.922142,78.0773693 215.246525,75.9543928 L214.999,75.842 L214.999,116.742 L215.562202,116.740741 C233.933372,116.740741 250.915531,121.836603 261.931997,130.40336 L262.381358,130.757368 C263.094673,131.326694 263.300325,132.287407 262.937506,133.075969 C264.052942,134.016986 265.079341,134.992927 266,136 L188.056604,136 C194.526314,129.836049 202.162053,124.196366 209.083012,120.85462 C192.649605,121.987702 178.062605,127.387284 169.22972,135.481402 C168.432654,136.211803 167.187685,136.165003 166.449005,135.376871 C165.710324,134.58874 165.757655,133.357726 166.554721,132.627325 C176.698014,123.332397 193.510034,117.450742 212.11335,116.800858 L212.113959,77.0109953 C208.188718,78.4433411 204.031764,79.1851852 199.864472,79.1851852 C193.285081,79.1851852 186.824387,77.3367386 181.184519,73.8417665 C171.063716,67.5726852 164.635654,56.5319251 164.063807,44.519952 L164.063807,44.519952 L164,43.1796562 L165.208788,42.6261849 C168.353274,41.1864094 171.696762,40.2072837 175.118201,39.7230104 C176.186207,39.5718439 177.173179,40.3248288 177.322664,41.4048492 C177.472149,42.4848696 176.72754,43.4829439 175.659534,43.6341104 C173.052369,44.0031306 170.495522,44.6943659 168.057544,45.6883457 C168.966948,55.8684441 174.591323,65.1265633 183.224703,70.474297 C188.251752,73.5895113 194.006426,75.2359607 199.864472,75.2359607 C203.975536,75.2359607 208.080141,74.4247721 211.904654,72.8651377 C211.193324,64.911003 207.592068,57.4501981 201.826608,52.0004098 C201.038776,51.2557131 200.997092,50.0061686 201.733505,49.209474 C202.469918,48.4127795 203.705562,48.3706269 204.493395,49.1153236 C209.750552,54.0846401 213.401412,60.5401267 215.011824,67.5736703 C215.084741,67.2550137 215.163372,66.9380355 215.246191,66.622428 C216.566109,56.4542579 222.40957,47.2565886 231.250829,41.8343766 C236.604391,38.5475226 242.734923,36.8148148 248.97692,36.8148148 Z M261.655509,48.2474564 L261.517777,48.6856781 C259.052525,56.3835163 253.911341,63.1033295 246.862378,67.4248827 C241.505538,70.7117367 235.378284,72.4444444 229.136287,72.4444444 C225.4783,72.4444444 221.83697,71.8489152 218.373619,70.7013412 C218.255053,71.4344916 218.162354,72.1737032 218.095296,72.9178787 C221.920238,74.4648708 226.022547,75.268909 230.135541,75.268909 C235.996708,75.268909 241.747545,73.6378601 246.775641,70.5467766 C254.755524,65.6450784 260.164066,57.433207 261.655509,48.2474564 Z M192.867925,42.5925926 L192.867925,45.4814815 L189.981132,45.4814815 L189.981132,42.5925926 L192.867925,42.5925926 Z M189.020615,35.8529001 L189.020615,38.7396925 L184.2058,38.7396925 L184.2058,35.8529001 L189.020615,35.8529001 Z M199.605521,35.8529001 L199.605521,38.7396925 L194.790706,38.7396925 L194.790706,35.8529001 L199.605521,35.8529001 Z M192.867925,32 L192.867925,34.8888889 L189.981132,34.8888889 L189.981132,32 L192.867925,32 Z" id="path-5"></path>
        <filter x="-3.4%" y="-3.4%" width="106.9%" height="106.7%" filterUnits="objectBoundingBox" id="filter-6">
            <feGaussianBlur stdDeviation="2.5" in="SourceAlpha" result="shadowBlurInner1"></feGaussianBlur>
            <feOffset dx="0" dy="2" in="shadowBlurInner1" result="shadowOffsetInner1"></feOffset>
            <feComposite in="shadowOffsetInner1" in2="SourceAlpha" operator="arithmetic" k2="-1" k3="1" result="shadowInnerInner1"></feComposite>
            <feColorMatrix values="0 0 0 0 0.872112772   0 0 0 0 0.872112772   0 0 0 0 0.872112772  0 0 0 0.557965472 0" type="matrix" in="shadowInnerInner1"></feColorMatrix>
        </filter>
    </defs>
    <g id="Mi-Negocio-V0.0.1" stroke="none" stroke-width="1" fill="none" fill-rule="evenodd">
        <g id="Element-/-Product-/-Dinero-Creciente-/-Front">
            <mask id="mask-3" fill="white">
                <use xlink:href="#path-2"></use>
            </mask>
            <use id="Mask" fill="url(#linearGradient-1)" xlink:href="#path-2"></use>
            <g id="Icon" opacity="0.9">
                <use fill="url(#linearGradient-4)" fill-rule="evenodd" style="mix-blend-mode: darken;" xlink:href="#path-5"></use>
                <use fill="black" fill-opacity="1" filter="url(#filter-6)" xlink:href="#path-5"></use>
            </g>
        </g>
    </g>
</svg>