<?xml version="1.0" encoding="UTF-8"?>
<svg width="329px" height="208px" viewBox="0 0 329 208" version="1.1" xmlns="http://www.w3.org/2000/svg" xmlns:xlink="http://www.w3.org/1999/xlink">
    <!-- Generator: Sketch 63.1 (92452) - https://sketch.com -->
    <title>Artboard</title>
    <desc>Created with Sketch.</desc>
    <defs>
        <rect id="path-1" x="0" y="0" width="329.333333" height="208" rx="8"></rect>
        <linearGradient x1="-198.491787%" y1="52.2445826%" x2="59.9112381%" y2="52.2445826%" id="linearGradient-3">
            <stop stop-color="#9BC3D3" offset="0%"></stop>
            <stop stop-color="#FBFEFF" offset="100%"></stop>
        </linearGradient>
        <linearGradient x1="4.91402715%" y1="42.732813%" x2="84.9923848%" y2="42.732813%" id="linearGradient-4">
            <stop stop-color="#ECF6F8" offset="0%"></stop>
            <stop stop-color="#EDF6F9" offset="100%"></stop>
        </linearGradient>
        <path d="M308.257139,45.5802469 C314.284638,45.5802469 320.275606,46.8821396 325.759209,49.371293 C325.713832,50.3147073 325.637018,51.2532724 325.529526,52.1855901 C326.30723,52.4873026 327.077249,52.8115549 327.838153,53.1576144 L329.333333,53.8376234 L329.254387,55.4820977 C328.546431,70.229041 320.588611,83.7808876 308.058053,91.4778697 C301.074005,95.7713986 293.079481,98.0388007 284.929717,98.0388007 C278.594246,98.0388007 272.284557,96.6672191 266.495697,94.038772 L266.189619,93.8990476 L266.189619,144.538048 L266.886536,144.536155 C289.681363,144.536155 310.748959,150.872847 324.385827,161.521185 L324.85311,161.890075 C325.735768,162.594559 325.990593,163.783077 325.542427,164.759085 C326.922266,165.925389 328.19328,167.133892 329.333333,168.380952 L232.831986,168.380952 C240.842676,160.74885 250.297226,153.765932 258.866517,149.628643 C238.519992,151.031862 220.458897,157.717191 209.522511,167.738879 C208.535667,168.643185 206.994277,168.585242 206.07972,167.60946 C205.165163,166.633678 205.223763,165.109565 206.210607,164.205259 C218.768837,152.697376 239.583408,145.415359 262.615793,144.610611 L262.616594,95.347198 C257.756974,97.1204139 252.610512,98.0388007 247.451252,98.0388007 C239.305338,98.0388007 231.306383,95.7502478 224.32369,91.4231395 C211.793172,83.6614198 203.834619,69.9919073 203.126618,55.1199406 L203.126618,55.1199406 L203.047619,53.4605267 L204.544213,52.7752766 C208.437387,50.9926973 212.576944,49.7804464 216.81301,49.1808701 C218.135304,48.9937115 219.357269,49.9259785 219.542346,51.2631466 C219.727423,52.6003148 218.805526,53.8360257 217.483232,54.0231843 C214.255314,54.4800664 211.089694,55.3358816 208.071245,56.5665232 C209.197173,69.1704546 216.160686,80.6328879 226.849632,87.2538915 C233.073598,91.1108235 240.198432,93.1492847 247.451252,93.1492847 C252.54114,93.1492847 257.623032,92.144956 262.358143,90.21398 C261.477449,80.3660037 257.018751,71.1288167 249.880562,64.3814598 C248.905151,63.4594543 248.853542,61.9123992 249.765292,60.9260154 C250.677041,59.9396317 252.206887,59.8874428 253.182298,60.8094483 C259.690652,66.961455 264.210567,74.9531946 266.204648,83.6605998 C266.295115,83.2693815 266.39168,82.8799985 266.49335,82.4922856 C268.126455,69.9004898 275.361951,58.509555 286.31055,51.7949424 C292.938769,47.7255041 300.528953,45.5802469 308.257139,45.5802469 Z M323.955258,59.729902 L323.899931,59.9095152 C320.89489,69.5938617 314.478564,78.0591802 305.639135,83.4784262 C299.006857,87.5478645 291.420733,89.6931217 283.692546,89.6931217 C279.163546,89.6931217 274.655171,88.9557794 270.36716,87.5349348 C270.220677,88.4416206 270.105821,89.357373 270.022747,90.2792784 C274.75839,92.1946019 279.837439,93.1900778 284.929717,93.1900778 C292.1864,93.1900778 299.306484,91.170684 305.531746,87.3436282 C315.413061,81.2739618 322.109871,71.1047739 323.955258,59.729902 Z M238.788859,52.7336861 L238.788859,56.3104056 L235.214735,56.3104056 L235.214735,52.7336861 L238.788859,52.7336861 Z M234.025523,44.3893048 L234.025523,47.9634288 L228.064324,47.9634288 L228.064324,44.3893048 L234.025523,44.3893048 Z M247.130645,44.3893048 L247.130645,47.9634288 L241.169445,47.9634288 L241.169445,44.3893048 L247.130645,44.3893048 Z M238.788859,39.6190476 L238.788859,43.1957672 L235.214735,43.1957672 L235.214735,39.6190476 L238.788859,39.6190476 Z" id="path-5"></path>
        <filter x="-1.2%" y="-1.2%" width="102.4%" height="102.3%" filterUnits="objectBoundingBox" id="filter-6">
            <feGaussianBlur stdDeviation="1" in="SourceAlpha" result="shadowBlurInner1"></feGaussianBlur>
            <feOffset dx="0" dy="1" in="shadowBlurInner1" result="shadowOffsetInner1"></feOffset>
            <feComposite in="shadowOffsetInner1" in2="SourceAlpha" operator="arithmetic" k2="-1" k3="1" result="shadowInnerInner1"></feComposite>
            <feColorMatrix values="0 0 0 0 0.872112772   0 0 0 0 0.872112772   0 0 0 0 0.872112772  0 0 0 0.557965472 0" type="matrix" in="shadowInnerInner1"></feColorMatrix>
        </filter>
    </defs>
    <g id="Depósito-y-Retiro" stroke="none" stroke-width="1" fill="none" fill-rule="evenodd">
        <g id="Artboard" transform="translate(-75.000000, -28.000000)">
            <rect id="Rectangle" fill="#FFFFFF" x="75" y="28" width="329" height="208" rx="8"></rect>
            <g id="TDD-Preferente" transform="translate(75.000000, 28.000000)">
                <mask id="mask-2" fill="white">
                    <use xlink:href="#path-1"></use>
                </mask>
                <g id="Mask"></g>
                <g id="Element-/-Product-/-Dinero-Creciente-/-Front" mask="url(#mask-2)">
                    <rect id="Mask-Copy" fill="url(#linearGradient-3)" x="0" y="0" width="329.333333" height="208" rx="8"></rect>
                    <g id="Icon" opacity="0.9">
                        <use fill="url(#linearGradient-4)" fill-rule="evenodd" style="mix-blend-mode: darken;" xlink:href="#path-5"></use>
                        <use fill="black" fill-opacity="1" filter="url(#filter-6)" xlink:href="#path-5"></use>
                    </g>
                </g>
            </g>
        </g>
    </g>
</svg>