<svg xmlns="http://www.w3.org/2000/svg" width="64" height="44" viewBox="0 0 64 44">
  <g fill="none" fill-rule="evenodd">
    <rect width="64" height="44" fill="#900712" rx="4"/>
    <rect width="61" height="44" x="3" fill="#DB0011" rx="4"/>
    <path fill="#FFF" fill-rule="nonzero" d="M23,15.15 C23.3,15.07 23.81,14.99 24.2,14.99 L24.2,22 L23,22 L23,19.01 L20.19,19.01 L20.19,22 L19,22 L19,15.15 C19.3,15.07 19.81,14.99 20.19,14.99 L20.19,17.94 L23,17.94 L23,15.15 Z M27.29,22.17 C26.6,22.17 25.87,22.02 25.43,21.76 C25.44,21.36 25.47,21.09 25.56,20.75 C26.08,21.02 26.75,21.16 27.3,21.16 C28.14,21.16 28.66,20.82 28.66,20.2 C28.66,19.59 28.28,19.37 27.49,19.05 L26.92,18.82 C26.04,18.47 25.42,17.91 25.42,16.83 C25.42,15.7 26.16,14.91 27.86,14.91 C28.47,14.91 29.09,15.01 29.63,15.22 C29.6,15.63 29.55,15.87 29.46,16.21 C28.93,16.01 28.34,15.92 27.91,15.92 C26.99,15.92 26.65,16.32 26.65,16.8 C26.65,17.41 26.96,17.62 27.66,17.88 L28.25,18.11 C29.08,18.43 29.89,18.95 29.89,20.13 C29.89,21.29 29.03,22.17 27.29,22.17 Z M34.72,18.36 C35.54,18.66 35.87,19.32 35.87,20.03 C35.87,21.27 35.03,22 33.46,22 L31.06,22 L31.06,15.08 C31.54,14.99 32.31,14.91 32.98,14.91 C34.87,14.91 35.62,15.66 35.62,16.81 C35.62,17.52 35.28,18.05 34.72,18.36 Z M34.41,16.94 C34.41,16.3 34.04,15.92 32.94,15.92 C32.71,15.92 32.47,15.94 32.25,15.96 L32.25,17.97 L33.21,17.97 C33.92,17.97 34.41,17.71 34.41,16.94 Z M33.34,21 C34.14,21 34.65,20.74 34.65,20 C34.65,19.29 34.19,18.96 33.31,18.96 L32.25,18.96 L32.25,21 L33.34,21 Z M39.94,22.17 C37.83,22.17 36.69,20.67 36.69,18.53 C36.69,16.36 37.88,14.91 39.97,14.91 C40.63,14.91 41.17,15.03 41.54,15.22 C41.52,15.66 41.47,15.98 41.37,16.25 C41.03,16.07 40.54,15.96 40.05,15.96 C38.71,15.96 37.93,16.85 37.93,18.54 C37.93,20.22 38.79,21.11 40.04,21.11 C40.62,21.11 41.13,20.99 41.51,20.79 C41.48,21.15 41.43,21.52 41.33,21.95 C40.89,22.09 40.44,22.17 39.94,22.17 Z"/>
    <g transform="translate(8 15)">
      <path fill="#FDCA6C" d="M0.88,0 L4.86111111,0 L4.86111111,0 L4.86111111,7 L0.88,7 C0.39398942,7 2.81563735e-16,6.60601058 0,6.12 L0,0.88 C-2.81563735e-16,0.39398942 0.39398942,-2.43788212e-16 0.88,0 Z"/>
      <path fill="#F7AF3C" d="M5.74111111,0 L7,0 L7,0 L7,7 L5.74111111,7 C5.25510053,7 4.86111111,6.60601058 4.86111111,6.12 L4.86111111,0.88 C4.86111111,0.39398942 5.25510053,-2.43788212e-16 5.74111111,0 Z" transform="matrix(-1 0 0 1 11.861 0)"/>
    </g>
    <rect width="61" height="4" x="3" y="34" fill="#900712" opacity=".5"/>
  </g>
</svg>
