<svg xmlns="http://www.w3.org/2000/svg" width="64" height="44" viewBox="0 0 64 44">
  <g fill="none" fill-rule="evenodd">
    <rect width="64" height="44" fill="#1F6BB3" rx="4"/>
    <rect width="61" height="44" x="3" fill="#052747" rx="4"/>
    <path fill="#FFF" fill-rule="nonzero" d="M19,22 L19,15.15 C19.3,15.07 19.81,14.99 20.19,14.99 L20.19,22 L19,22 Z M24.25,16.9 C25.36,16.9 25.87,17.61 25.87,18.63 L25.87,22 L24.69,22 L24.69,18.93 C24.69,18.21 24.46,17.86 23.81,17.86 C23.4,17.86 23.06,18.07 22.86,18.27 L22.86,22 L21.69,22 L21.69,17.02 L22.76,17.02 L22.84,17.78 C23.14,17.2 23.58,16.9 24.25,16.9 Z M29.59,16.9 C30.73,16.9 31.57,17.69 31.57,19.46 C31.57,21.06 30.86,22.12 29.04,22.12 C28.3,22.12 27.71,22.02 27.18,21.86 L27.16,21.86 L27.16,21.85 L27.15,21.85 L27.16,21.83 L27.16,15.08 C27.54,14.96 27.95,14.91 28.33,14.91 L28.33,17.65 C28.57,17.18 28.96,16.9 29.59,16.9 Z M29.04,21.16 C30.06,21.16 30.37,20.47 30.37,19.5 C30.37,18.36 29.98,17.85 29.23,17.85 C28.85,17.85 28.56,18 28.33,18.21 L28.33,21.09 C28.53,21.14 28.75,21.16 29.04,21.16 Z M35.57,17.02 L36.74,17.02 L36.74,22 L35.67,22 L35.59,21.24 C35.29,21.82 34.85,22.12 34.18,22.12 C33.07,22.12 32.56,21.41 32.56,20.39 L32.56,17.02 L33.74,17.02 L33.74,20.09 C33.74,20.81 33.97,21.16 34.62,21.16 C35.03,21.16 35.37,20.95 35.57,20.75 L35.57,17.02 Z M40.38,16.9 C40.59,16.9 40.78,16.93 40.93,16.98 C40.93,17.31 40.89,17.72 40.82,17.99 C40.66,17.96 40.46,17.94 40.25,17.94 C39.93,17.94 39.53,18.04 39.25,18.27 L39.25,22 L38.08,22 L38.08,17.02 L39.17,17.02 L39.23,17.7 C39.48,17.2 39.89,16.9 40.38,16.9 Z M43.05,22.12 C42.39,22.12 41.82,21.99 41.43,21.79 C41.44,21.43 41.49,21.13 41.58,20.85 C42.01,21.07 42.51,21.19 42.96,21.19 C43.57,21.19 43.84,21.01 43.84,20.67 C43.84,20.36 43.66,20.21 43.2,20.06 L42.74,19.91 C41.97,19.67 41.42,19.23 41.42,18.38 C41.42,17.5 42.05,16.9 43.36,16.9 C43.89,16.9 44.42,16.97 44.84,17.12 C44.82,17.42 44.78,17.73 44.7,18.05 C44.29,17.9 43.92,17.83 43.44,17.83 C42.81,17.83 42.59,18.03 42.59,18.33 C42.59,18.61 42.78,18.8 43.29,18.96 L43.77,19.12 C44.63,19.4 45.05,19.84 45.05,20.58 C45.05,21.45 44.41,22.12 43.05,22.12 Z M47.99,16.9 C49.37,16.9 49.95,17.49 49.95,18.59 L49.95,22 L48.88,22 L48.82,21.32 C48.58,21.8 48.15,22.12 47.42,22.12 C46.52,22.12 45.81,21.59 45.81,20.58 C45.81,19.47 46.46,18.92 48.55,18.77 L48.79,18.75 L48.79,18.65 C48.79,18.09 48.56,17.84 47.87,17.84 C47.07,17.84 46.6,17.98 46.14,18.18 C46.14,17.93 46.16,17.53 46.21,17.24 C46.65,17.04 47.25,16.9 47.99,16.9 Z M47.71,21.21 C48.15,21.21 48.56,21.02 48.79,20.7 L48.79,19.55 L48.61,19.56 C47.19,19.67 46.95,19.98 46.95,20.5 C46.95,20.93 47.23,21.21 47.71,21.21 Z"/>
    <g transform="translate(8 15)">
      <path fill="#FDCA6C" d="M0.88,0 L4.86111111,0 L4.86111111,0 L4.86111111,7 L0.88,7 C0.39398942,7 2.81563735e-16,6.60601058 0,6.12 L0,0.88 C-2.81563735e-16,0.39398942 0.39398942,-2.43788212e-16 0.88,0 Z"/>
      <path fill="#F7AF3C" d="M5.74111111,0 L7,0 L7,0 L7,7 L5.74111111,7 C5.25510053,7 4.86111111,6.60601058 4.86111111,6.12 L4.86111111,0.88 C4.86111111,0.39398942 5.25510053,-2.43788212e-16 5.74111111,0 Z" transform="matrix(-1 0 0 1 11.861 0)"/>
    </g>
    <rect width="61" height="4" x="3" y="34" fill="#1F6BB3" opacity=".5"/>
  </g>
</svg>
