<svg xmlns="http://www.w3.org/2000/svg" xmlns:xlink="http://www.w3.org/1999/xlink" width="266" height="168" viewBox="0 0 266 168">
  <defs>
    <linearGradient id="inversion-a" x1="-198.492%" x2="59.911%" y1="52.245%" y2="52.245%">
      <stop offset="0%" stop-color="#9BC3D3"/>
      <stop offset="100%" stop-color="#FBFEFF"/>
    </linearGradient>
    <rect id="inversion-b" width="266" height="168" x="0" y="0" rx="10"/>
    <path id="inversion-c" d="M13.3393548,3.98944 C7.3083871,7.93728 3.66967742,15.08 3.84,22.6512 L3.84,22.6512 C3.85935484,23.39168 4.24258065,24.06976 4.85806452,24.42752 L4.85806452,24.42752 C7.77290323,26.11648 11.0670968,27.01088 14.3806452,27.01088 L14.3806452,27.01088 C18.0270968,27.01088 21.6077419,25.93344 24.7316129,23.88672 L24.7316129,23.88672 C30.7664516,19.9472 34.4090323,12.80032 34.2348387,5.23328 L34.2348387,5.23328 C34.2193548,4.48864 33.8283871,3.8064 33.2167742,3.4528 L33.2167742,3.4528 C30.3019355,1.75968 27.0077419,0.86944 23.6903226,0.86944 L23.6903226,0.86944 C20.0477419,0.86944 16.4632258,1.94688 13.3393548,3.98944 L13.3393548,3.98944 Z"/>
    <polygon id="inversion-e" points="43.312 19.19 1.421 12.925 44.903 24.96 82.177 .994"/>
    <path id="inversion-g" d="M10.1729032,5.72416 C4.74580645,9.29344 1.32387097,15.5792 1.02193548,22.3808 L1.02193548,22.3808 C3.51483871,23.59136 6.24,24.2278523 8.98064516,24.2278523 L8.98064516,24.2278523 C12.4916129,24.232 15.9445161,23.17952 18.963871,21.19104 L18.963871,21.19104 C24.3870968,17.62592 27.8090323,11.34016 28.1109677,4.53856 L28.1109677,4.53856 C25.6180645,3.328 22.8929032,2.69152 20.1522581,2.69152 L20.1522581,2.69152 C16.6335484,2.69152 13.1845161,3.73984 10.1729032,5.72416 L10.1729032,5.72416 Z"/>
    <path id="inversion-i" d="M3.86709677,6.33984 C3.86709677,7.66688 4.87354839,8.74016 6.10451613,8.74016 L6.10451613,8.74016 C7.33548387,8.74016 8.33806452,7.66688 8.33806452,6.33984 L8.33806452,6.33984 C8.33806452,5.01696 7.33548387,3.93952 6.10451613,3.93952 L6.10451613,3.93952 C4.87354839,3.93952 3.86709677,5.01696 3.86709677,6.33984 L3.86709677,6.33984 Z"/>
  </defs>
  <g fill="none" fill-rule="evenodd">
    <use fill="url(#inversion-a)" xlink:href="#inversion-b"/>
    <g opacity=".9" transform="translate(146 32)">
      <path fill="#EDF6F9" d="M66.7927742,54.981888 C66.1811613,54.624128 65.7940645,53.946048 65.7747097,53.201408 C65.6043871,45.634368 69.2469677,38.487488 75.2740645,34.543808 C78.4018065,32.505408 81.9824516,31.423808 85.6250323,31.423808 C88.9424516,31.423808 92.2366452,32.318208 95.1514839,34.007168 C95.7630968,34.360768 96.1540645,35.043008 96.1695484,35.787648 C96.3437419,43.350528 92.7011613,50.501568 86.6701935,54.441088 C83.5424516,56.483648 79.9618065,57.565248 76.3192258,57.565248 C73.0018065,57.565248 69.7076129,56.670848 66.7927742,54.981888"/>
      <g transform="translate(61.935 30.554)">
        <mask id="inversion-d" fill="#fff">
          <use xlink:href="#inversion-c"/>
        </mask>
        <polygon fill="#EDF6F9" points="-15.523 47.811 53.594 47.811 53.594 -19.931 -15.523 -19.931" mask="url(#inversion-d)"/>
      </g>
      <g transform="translate(15.484 9.754)">
        <polygon fill="#E8F1F2" points="0 12.201 4.467 12.201 4.467 9.356 0 9.356"/>
        <polygon fill="#E8F1F2" points="93.019 45.415 95.698 45.415 95.698 43.106 93.019 43.106"/>
        <polygon fill="#E8F1F2" points="96.627 42.207 98.775 42.207 98.775 39.466 96.627 39.466"/>
        <polygon fill="#E8F1F2" points="99.716 45.415 102.395 45.415 102.395 43.106 99.716 43.106"/>
        <polygon fill="#E8F1F2" points="96.627 49.063 98.775 49.063 98.775 46.317 96.627 46.317"/>
        <polygon fill="#E8F1F2" points="6.492 7.176 9.139 7.176 9.139 2.38 6.492 2.38"/>
        <polygon fill="#E8F1F2" points="11.168 12.201 15.631 12.201 15.631 9.356 11.168 9.356"/>
        <polygon fill="#E8F1F2" points="6.492 19.173 9.139 19.173 9.139 14.377 6.492 14.377"/>
        <polygon fill="#EAF3F5" points="51.055 85.747 9.164 79.486 52.646 91.521 89.92 67.551"/>
      </g>
      <g transform="translate(23.226 76.314)">
        <mask id="inversion-f" fill="#fff">
          <use xlink:href="#inversion-e"/>
        </mask>
        <polygon fill="#EAF3F5" points="-17.934 45.76 101.532 45.76 101.532 -19.81 -17.934 -19.81" mask="url(#inversion-f)"/>
      </g>
      <g fill="#EDF6F9" transform="translate(7.742 30.554)">
        <polygon points="2.052 26.089 8.571 67.415 17.676 67.415 17.676 26.089"/>
        <path d="M80.8966452,21.193952 C77.8811613,23.182432 74.4282581,24.230752 70.9172903,24.2266043 C68.1766452,24.2266043 65.4514839,23.590112 62.9547097,22.379552 C63.2566452,15.577952 66.6785806,9.296352 72.1056774,5.722912 C75.1211613,3.738592 78.5701935,2.690272 82.0889032,2.690272 C84.8295484,2.690272 87.5547097,3.326752 90.0437419,4.537312 C89.7418065,11.338912 86.319871,17.624672 80.8966452,21.193952"/>
      </g>
      <g transform="translate(69.677 30.554)">
        <mask id="inversion-h" fill="#fff">
          <use xlink:href="#inversion-g"/>
        </mask>
        <polygon fill="#EDF6F9" points="-18.333 45.028 47.466 45.028 47.466 -18.113 -18.333 -18.113" mask="url(#inversion-h)"/>
      </g>
      <path fill="#FFF" d="M17.7174194,68.416608 C18.9483871,68.416608 19.9509677,67.339168 19.9509677,66.016288 C19.9509677,64.689248 18.9483871,63.615968 17.7174194,63.615968 C16.4864516,63.615968 15.483871,64.689248 15.483871,66.016288 C15.483871,67.339168 16.4864516,68.416608 17.7174194,68.416608"/>
      <g transform="translate(11.613 59.674)">
        <mask id="inversion-j" fill="#fff">
          <use xlink:href="#inversion-i"/>
        </mask>
        <polygon fill="#FFF" points="-15.484 29.54 27.693 29.54 27.693 -16.86 -15.484 -16.86" mask="url(#inversion-j)"/>
      </g>
      <path fill="#E6EDEF" d="M101.703097,79.64528 C84.2992258,90.71088 73.7547097,96.98832 70.3637419,98.29456 C67.2669677,99.4968 63.7637419,99.48432 59.8501935,98.23216 L27.4037419,89.99952 C27.3843871,89.99536 27.3689032,90.00368 27.3534194,89.99536 L27.3534194,66.092 C27.399871,66.08368 27.4385806,66.09616 27.4850323,66.08368 L35.2966452,63.70416 C40.7237419,63.46704 44.5366452,65.05616 46.9676129,68.57136 C49.6656774,72.47344 56.796,73.83792 63.6979355,75.15248 C66.872129,75.75568 71.6024516,76.65424 72.7056774,77.56528 L72.7056774,79.51632 C70.0618065,80.50224 67.3830968,81.47568 64.6269677,82.42416 L47.9353548,76.96624 C46.9018065,76.63344 45.8295484,77.25744 45.519871,78.35152 C45.2101935,79.45392 45.7908387,80.61456 46.8089032,80.94736 L64.6540645,86.77968 L65.2269677,86.58416 C68.2579355,85.54832 71.2037419,84.4792 74.1030968,83.3976 C74.2772903,83.45168 74.4476129,83.51408 74.6411613,83.51408 C75.2914839,83.51408 75.8372903,83.14384 76.1895484,82.61136 C80.9779355,80.78512 85.5843871,78.90896 89.919871,76.9912 C99.8682581,72.6024 101.672129,76.12176 102.539226,77.81488 C102.655355,78.03536 102.922452,78.56368 101.703097,79.64528 M53.8579355,49.972 C49.3637419,47.0184 46.4024516,42.03472 45.7443871,36.43952 C50.6218065,34.54256 56.199871,35.13328 60.6282581,38.0536 C64.832129,40.81584 67.6114839,45.39184 68.5018065,50.54192 L68.5018065,51.64848 C63.6708387,53.43728 58.2166452,52.84656 53.8579355,49.972 M53.8618065,18.76784 C49.3676129,15.81008 46.4024516,10.8264 45.7443871,5.23536 C50.6334194,3.33424 56.199871,3.92496 60.6282581,6.84528 C65.1185806,9.79888 68.079871,14.78672 68.7340645,20.37776 C63.8605161,22.27056 58.2824516,21.67984 53.8618065,18.76784 M80.8618065,6.84112 C85.2785806,3.92912 90.8566452,3.33424 95.7379355,5.23536 C95.0837419,10.8264 92.1185806,15.81008 87.6243871,18.76368 C83.2076129,21.684 77.6372903,22.2664 72.752129,20.37776 C73.4024516,14.78672 76.3714839,9.80304 80.8618065,6.84112 M80.8618065,38.04944 C85.2785806,35.13744 90.8411613,34.5384 95.7379355,36.43952 C95.0837419,42.03056 92.1185806,47.0184 87.6282581,49.972 L87.6243871,49.972 C84.9147097,51.7608 81.8218065,52.70096 78.6785806,52.70096 L78.6592258,52.70096 C76.6618065,52.70096 74.6450323,52.31824 72.7482581,51.58608 C73.3985806,45.99088 76.3676129,41.0072 80.8618065,38.04944 M105.930194,75.80144 C104.064387,72.16976 100.232129,67.93488 88.4450323,73.14736 C84.6747097,74.81968 80.7030968,76.45456 76.5766452,78.05616 L76.5766452,77.23664 C76.5766452,75.10256 74.9701935,73.86288 72.3727742,72.94352 L72.3727742,55.81264 C74.4089032,56.49488 76.5418065,56.86096 78.6553548,56.86096 L78.6785806,56.86096 C82.5379355,56.86096 86.3276129,55.70864 89.6489032,53.52464 C95.6218065,49.58928 99.3843871,42.73776 99.7172903,35.18736 L99.7830968,33.78128 L98.5830968,33.19472 C92.3005161,30.1496 84.7095484,30.63216 78.8411613,34.50096 C76.2127742,36.23152 74.0411613,38.54864 72.3727742,41.22352 L72.3727742,24.60848 C74.4089032,25.28656 76.5418065,25.65264 78.6592258,25.65264 C82.5301935,25.65264 86.3276129,24.50032 89.6489032,22.31632 C95.6218065,18.38096 99.3843871,11.5336 99.7172903,3.98736 L99.7830968,2.57712 L98.5869677,1.99472 C92.3043871,-1.05872 84.7134194,-0.58032 78.8372903,3.2968 C75.2450323,5.668 72.4734194,9.1 70.7430968,13.0936 C69.0166452,9.09584 66.2411613,5.66384 62.6489032,3.2968 C56.7766452,-0.58032 49.1818065,-1.06704 42.8992258,1.99472 L41.6992258,2.57712 L41.7650323,3.98736 C42.1056774,11.5336 45.8682581,18.38512 51.8372903,22.32048 C55.1547097,24.50032 58.956,25.65264 62.8269677,25.65264 C64.7353548,25.65264 66.6514839,25.33648 68.5018065,24.7832 L68.5018065,40.25008 C66.9263226,37.98704 64.956,36.02768 62.6489032,34.50512 C56.7727742,30.62384 49.1663226,30.14544 42.8992258,33.19888 L41.6992258,33.78128 L41.7650323,35.19152 C42.1056774,42.74608 45.8682581,49.59344 51.8334194,53.52464 C55.1585806,55.70864 58.956,56.86096 62.8269677,56.86096 C64.7314839,56.86096 66.6476129,56.5448 68.5018065,55.99152 L68.5018065,71.88688 C67.2205161,71.604 65.8501935,71.3336 64.3714839,71.05488 C59.0876129,70.044 51.8527742,68.66704 50.076,66.092 C46.832129,61.3912 41.6992258,59.14896 34.8901935,59.5608 L27.3534194,61.80304 L27.3534194,58.292 C27.3534194,56.2328 25.7972903,54.56048 23.8811613,54.56048 L4.45277419,54.56048 C3.3843871,54.56048 2.51729032,55.48816 2.51729032,56.64048 C2.51729032,57.78864 3.3843871,58.72048 4.45277419,58.72048 L23.4824516,58.72048 L23.4824516,95.88592 L11.5753548,95.88592 C10.5030968,95.88592 9.63987097,96.81776 9.63987097,97.96592 C9.63987097,99.11824 10.5030968,100.04592 11.5753548,100.04592 L23.8811613,100.04592 C25.7972903,100.04592 27.3534194,98.3736 27.3534194,96.3144 L27.3534194,94.26352 L58.8514839,102.24656 C61.1392258,102.98288 63.3572903,103.35312 65.4863226,103.35312 C67.6463226,103.35312 69.7134194,102.9704 71.676,102.21328 C75.3418065,100.79472 85.8127742,94.58384 103.901806,83.05648 C107.366323,80.0696 106.657935,77.23248 105.930194,75.80144"/>
    </g>
  </g>
</svg>
