<?xml version="1.0" encoding="UTF-8"?>
<svg width="116px" height="104px" viewBox="0 0 116 104" version="1.1" xmlns="http://www.w3.org/2000/svg" xmlns:xlink="http://www.w3.org/1999/xlink">
    <!-- Generator: Sketch 56.3 (81716) - https://sketch.com -->
    <title>Group 13</title>
    <desc>Created with Sketch.</desc>
    <defs>
        <polygon id="path-1" points="71.5125306 40.2414813 73.1655918 40.2414813 73.1655918 96.776803 71.5125306 96.776803"></polygon>
    </defs>
    <g id="Page-1" stroke="none" stroke-width="1" fill="none" fill-rule="evenodd">
        <g id="02.-Elements-/-Ilustrations-/-inversión" transform="translate(-24.000000, -30.000000)">
            <g id="Group-13" transform="translate(14.000000, 14.000000)">
                <g id="Group-12-Copy">
                    <g id="Group-3" transform="translate(0.051906, 0.000000)">
                        <path d="M58.392834,118.778902 C95.8913885,124.220522 103.702886,117.216732 111.438623,109.237524 C126.419136,93.7855233 126.419136,57.6253799 105.632761,51.3009721 C84.1912438,49.5829154 98.2168905,13.2571639 56.13731,13.2571639 C29.7720119,13.2571639 13.2104896,31.5455912 13.2104896,54.1055096 C13.2104896,76.6654279 20.8942795,113.337281 58.392834,118.778902 Z" id="Oval" fill="#E5E5E5" transform="translate(67.623755, 66.981654) rotate(-16.000000) translate(-67.623755, -66.981654) "></path>
                        <path d="M69.8993086,74.8047418 C69.3502109,74.5089097 69.0026526,73.9426341 68.9871068,73.3217178 C68.8333151,67.0170721 72.0934784,61.0595875 77.4956225,57.7750785 C80.2944105,56.073492 83.4996086,55.1738533 86.765324,55.1738533 C89.73456,55.1738533 92.6838086,55.9189528 95.2943822,57.3269149 C95.8434799,57.622747 96.1910382,58.1884708 96.2065839,58.809387 C96.3603757,65.1145847 93.1002123,71.0715173 87.6980683,74.3565783 C84.8992802,76.0581648 81.6940822,76.9572516 78.4289219,76.9572516 C75.4591308,76.9572516 72.5093269,76.2132559 69.8993086,74.8047418 Z" id="Path" fill="#E9F4F7"></path>
                        <path d="M53.7561699,47.1556995 C48.3534707,43.8711904 45.0933073,37.9137059 45.2476543,31.609612 C45.2626448,30.9886958 45.6107583,30.4224201 46.159856,30.126588 C48.7698744,28.718074 51.7196782,27.9740783 54.6889142,27.9740783 C57.9540744,27.9740783 61.1598277,28.8731651 63.9586158,30.5747516 C69.3607598,33.8598126 72.6209231,39.8172971 72.4671314,46.1213909 C72.4515856,46.7423072 72.1034721,47.3085828 71.5549297,47.6044149 C68.9443561,49.012929 65.9951075,49.7569246 63.0258715,49.7569246 C59.7601561,49.7569246 56.5544028,48.857286 53.7561699,47.1556995 Z" id="Path" fill="#FFFFFF"></path>
                        <path d="M72.8655062,46.6303366 C72.3164085,46.3345045 71.9688502,45.7682289 71.9533045,45.1473126 C71.7995127,38.8432188 75.0596761,32.8857342 80.4618201,29.6006733 C83.2606082,27.8990867 86.4658063,27 89.7309665,27 C92.7007577,27 95.6500063,27.7439957 98.2605799,29.1525097 C98.8096775,29.4483418 99.1572358,30.0146174 99.1727816,30.6355337 C99.3265733,36.9396275 96.06641,42.8971121 90.664266,46.1816211 C87.8660331,47.8832076 84.6602798,48.7828463 81.3951196,48.7828463 C78.4253284,48.7828463 75.4760798,48.0388507 72.8655062,46.6303366 Z" id="Path" fill="#FFFFFF"></path>
                        <path d="M59.412918,74.8082701 C55.6431226,72.0937672 53.3683061,67.1709943 53.4760035,61.9613561 C53.4864633,61.4482823 53.7293635,60.9808149 54.1125027,60.7363637 C55.933673,59.5729402 57.9915451,58.9572516 60.063751,58.9572516 C62.3420541,58.9572516 64.5789052,59.7006386 66.5317917,61.1066891 C70.3011998,63.8207359 72.5760162,68.7435088 72.4687062,73.953147 C72.457859,74.4662208 72.2153462,74.9341442 71.832207,75.1785954 C70.0106493,76.342475 67.9527772,76.9572516 65.8809587,76.9572516 C63.6022683,76.9572516 61.3658045,76.2143206 59.412918,74.8082701 Z" id="Path" fill="#FFFFFF"></path>
                        <path d="M25.9480939,44.0956416 L25.9480939,48.0956416" id="Line-Copy" stroke="#0F2B4A" stroke-width="2.223936" transform="translate(25.948094, 46.095642) rotate(90.000000) translate(-25.948094, -46.095642) "></path>
                        <path d="M108.448094,72.8 L108.448094,75.2" id="Line-Copy-3" stroke="#EC0000" stroke-width="1.3343616" transform="translate(108.448094, 74.000000) rotate(90.000000) translate(-108.448094, -74.000000) "></path>
                        <path d="M111.448094,70 L111.448094,72.2857143" id="Line-Copy-4" stroke="#EC0000" stroke-width="1.3343616" transform="translate(111.448094, 71.142857) rotate(180.000000) translate(-111.448094, -71.142857) "></path>
                        <path d="M114.448094,72.8 L114.448094,75.2" id="Line-Copy-5" stroke="#EC0000" stroke-width="1.3343616" transform="translate(114.448094, 74.000000) rotate(270.000000) translate(-114.448094, -74.000000) "></path>
                        <path d="M111.448094,75.7142857 L111.448094,78" id="Line-Copy-6" stroke="#EC0000" stroke-width="1.3343616" transform="translate(111.448094, 76.857143) rotate(360.000000) translate(-111.448094, -76.857143) "></path>
                        <path d="M30.9480939,39.0956416 L30.9480939,43.0956416" id="Line-Copy" stroke="#0F2B4A" stroke-width="2.223936" transform="translate(30.948094, 41.095642) rotate(180.000000) translate(-30.948094, -41.095642) "></path>
                        <path d="M35.9480939,44.0956416 L35.9480939,48.0956416" id="Line-Copy" stroke="#0F2B4A" stroke-width="2.223936" transform="translate(35.948094, 46.095642) rotate(270.000000) translate(-35.948094, -46.095642) "></path>
                        <path d="M30.9480939,49.0956416 L30.9480939,53.0956416" id="Line-Copy" stroke="#0F2B4A" stroke-width="2.223936" transform="translate(30.948094, 51.095642) rotate(360.000000) translate(-30.948094, -51.095642) "></path>
                        <polygon id="Path-9" fill="#FEDAC6" points="32.8444476 105.963107 68.983562 114.253753 103.745125 96.2405929 103.42963 92.9968993 97.5893456 89.6496964 76.9260803 96.483889 76.9260803 92.9968993 55.5740394 88.5863232 50.2427556 83.8206824 44.6166788 80.3210171 32.8444476 83.8206824"></polygon>
                        <polygon id="Path-9" fill="#F6C7B4" points="69.6723375 108.571575 32.1556721 103.353293 71.094791 113.382242 104.477101 93.4077518"></polygon>
                        <path d="M34.2219986,105.67253 L63.2819922,112.533831 C67.0722366,113.665045 70.5404497,113.665045 73.6866316,112.533831 C76.8328135,111.402616 86.2862296,106.175215 102.04688,96.8516294 C103.667027,95.5489647 104.127944,94.2640547 103.42963,92.9968993 C102.38216,91.0961662 100.057865,87.382984 89.9498044,91.5465781 C83.211097,94.3223076 75.8851618,96.9700126 67.9719986,99.4896934 L52.5054907,94.7853028" id="Path-6" stroke="#0F2B4A" stroke-width="1.8" stroke-linecap="round"></path>
                        <path d="M34.2219986,82.3886889 L41.4124419,80.3503541 C46.9458148,80.0812142 50.9867487,81.6639075 53.5352435,85.098434 C57.3579859,90.2502236 76.9260803,89.6523074 76.9260803,93.3502097 C76.9260803,95.8154778 76.9260803,96.9789425 76.9260803,96.8406037" id="Path-7" stroke="#0F2B4A" stroke-width="1.8" stroke-linecap="round"></path>
                        <polygon id="Rectangle" fill="#FFFFFF" points="12.3696119 76.188364 32.8444476 76.188364 32.8444476 110.62714 19.0689374 110.62714"></polygon>
                        <polygon id="Rectangle" fill="#0D4F80" points="18.8532699 76.188364 32.8444476 76.188364 32.8444476 110.62714 24.6892947 110.62714"></polygon>
                        <path d="M14.0689374,76.188364 L31.4668966,76.188364 C32.227697,76.188364 32.8444476,76.8051146 32.8444476,77.5659151 L32.8444476,109.249589 C32.8444476,110.010389 32.227697,110.62714 31.4668966,110.62714 L20.4464884,110.62714" id="Path" stroke="#0F2B4A" stroke-width="1.8" stroke-linecap="round"></path>
                        <path d="M81.5899224,33.2129725 C84.2893714,31.5570921 87.3805959,30.6841732 90.5280245,30.6841732 C92.9828204,30.6841732 95.4227388,31.2139217 97.6560245,32.2267741 C97.3832694,37.8924172 94.3218,43.1282644 89.4618,46.1051841 C86.760698,47.7610645 83.6711265,48.6339834 80.523698,48.6339834 C78.068902,48.6339834 75.6289837,48.1025691 73.395698,47.0913825 C73.6684531,41.4257394 76.7315755,36.1898923 81.5899224,33.2129725 Z" id="Stroke-1" stroke="#0F2B4A" stroke-width="1.8" stroke-linecap="round"></path>
                        <path d="M65.3466122,48.6344832 C62.1991837,48.6344832 59.1079592,47.7598984 56.4085102,46.1056839 C51.5485102,43.1287641 48.4870408,37.8912511 48.2142857,32.225608 C50.4475714,31.2144215 52.8874898,30.684673 55.3422857,30.684673 C58.4897143,30.684673 61.5809388,31.5575918 64.2803878,33.2134722 C69.1387347,36.1887262 72.2018571,41.4262392 72.4746122,47.0918823 C70.2413265,48.1030688 67.7997551,48.6344832 65.3466122,48.6344832 Z" id="Stroke-3" stroke="#0F2B4A" stroke-width="1.8" stroke-linecap="round"></path>
                        <path d="M65.3466122,74.6404423 C62.1991837,74.6404423 59.1096122,73.7658576 56.4085102,72.1116431 C51.5485102,69.1347233 48.4870408,63.8972103 48.2142857,58.2315672 C50.4475714,57.2187148 52.8874898,56.6906322 55.3422857,56.6906322 C58.4897143,56.6906322 61.5809388,57.563551 64.2803878,59.2177655 C69.1387347,62.1963512 72.2018571,67.4321984 72.4746122,73.0978415 C70.2413265,74.109028 67.7997551,74.6404423 65.3466122,74.6404423 Z" id="Stroke-5" stroke="#0F2B4A" stroke-width="1.8" fill="#E9F4F7" stroke-linecap="round"></path>
                        <path d="M89.4621306,72.1116431 C86.7610286,73.7658576 83.6698041,74.6421082 80.5240286,74.6404447 C78.0692327,74.6404447 75.6293143,74.109028 73.3960286,73.0978415 C73.6671306,67.4321984 76.7302531,62.1963512 81.5902531,59.2177655 C84.289702,57.563551 87.3809265,56.6906322 90.5283551,56.6906322 C92.981498,56.6906322 95.4230694,57.2203806 97.6563551,58.2315672 C97.3836,63.8972103 94.3204776,69.1347233 89.4621306,72.1116431 Z" id="Stroke-7" stroke="#0F2B4A" stroke-width="1.8" stroke-linecap="round"></path>
                        <mask id="mask-2" fill="white">
                            <use xlink:href="#path-1"></use>
                        </mask>
                        <g id="Clip-10"></g>
                        <circle id="Oval" fill="#6EE3FF" mask="url(#mask-2)" cx="25.9480939" cy="84" r="2"></circle>
                    </g>
                    <g id="Group-9-Copy" transform="translate(23.875946, 38.994486)">
                        <g id="Group">
                            <g id="Group-2" transform="translate(83.124054, 31.005514)"></g>
                        </g>
                    </g>
                    <g id="Group-11-Copy" transform="translate(12.120844, 76.188364)"></g>
                </g>
                <g id="Group-12-Copy-2" transform="translate(48.214286, 30.683673)">
                    <g id="Group-11" transform="translate(23.142857, 9.453357)"></g>
                </g>
            </g>
        </g>
    </g>
</svg>