<svg xmlns="http://www.w3.org/2000/svg" width="64" height="44" viewBox="0 0 64 44">
  <g fill="none" fill-rule="evenodd">
    <rect width="64" height="44" fill="#000" rx="2"/>
    <path fill="#FFF" fill-rule="nonzero" d="M24.64,25 L24.64,18.15 C24.94,18.07 25.45,17.99 25.83,17.99 L25.83,25 L24.64,25 Z M28.52,23.96 L31.75,23.96 C31.74,24.26 31.69,24.71 31.64,25 L27.01,25 C27.01,24.75 27.03,24.45 27.08,24.16 L30.19,19.12 L26.96,19.12 C26.96,18.81 27.01,18.37 27.07,18.08 L31.7,18.08 C31.7,18.36 31.66,18.68 31.62,18.91 L28.52,23.96 Z M33.86,23.96 L37.09,23.96 C37.08,24.26 37.03,24.71 36.98,25 L32.35,25 C32.35,24.75 32.37,24.45 32.42,24.16 L35.53,19.12 L32.3,19.12 C32.3,18.81 32.35,18.37 32.41,18.08 L37.04,18.08 C37.04,18.36 37,18.68 36.96,18.91 L33.86,23.96 Z M38.17,25 L38.17,18.15 C38.47,18.07 38.98,17.99 39.36,17.99 L39.36,25 L38.17,25 Z"/>
  </g>
</svg>
