<svg width="266" height="168" viewBox="0 0 266 168" fill="none" xmlns="http://www.w3.org/2000/svg">
<mask id="mask0_8698_1" style="mask-type:alpha" maskUnits="userSpaceOnUse" x="0" y="0" width="266" height="168">
<path d="M256 0H10C4.47715 0 0 4.47715 0 10V158C0 163.523 4.47715 168 10 168H256C261.523 168 266 163.523 266 158V10C266 4.47715 261.523 0 256 0Z" fill="white"/>
</mask>
<g mask="url(#mask0_8698_1)">
<path d="M256 0H10C4.47715 0 0 4.47715 0 10V158C0 163.523 4.47715 168 10 168H256C261.523 168 266 163.523 266 158V10C266 4.47715 261.523 0 256 0Z" fill="#FF0000"/>
<g clip-path="url(#clip0_8698_1)">
<path d="M266.697 157.474V10.0051C266.697 3.92334 261.796 -1 255.742 -1H8.95547C2.90113 -1 -2 3.92334 -2 10.0051V157.474C-2 163.555 2.90113 168.479 8.95547 168.479H255.742C261.796 168.493 266.697 163.555 266.697 157.474C266.697 157.488 266.697 157.474 266.697 157.474Z" fill="#EDECED"/>
<path d="M130.417 245.659C29.9871 245.659 -45.7642 174.358 -45.7642 79.8008C-45.7642 38.3144 -27.803 -4.56211 2.28135 -34.8841C29.9583 -78.7163 79.1714 -105.939 130.734 -105.939H130.749C139.052 -105.939 147.412 -105.244 155.615 -103.883C195.141 -97.396 236.93 -69.2461 259.62 -33.8125C289.055 -3.59192 306.627 38.8791 306.627 79.8008C306.627 174.358 230.876 245.659 130.417 245.659ZM130.749 -104.926C130.749 -104.926 130.734 -104.926 130.749 -104.926C79.503 -104.926 30.5926 -77.8619 3.103 -34.2904L3.07418 -34.2469L3.03093 -34.2035C-26.8804 -4.06977 -44.7551 38.5461 -44.7551 79.8008C-44.7551 173.779 30.5493 244.646 130.417 244.646C230.299 244.646 305.618 173.779 305.618 79.8008C305.618 39.1253 288.147 -3.09959 258.87 -33.1464L258.841 -33.1899L258.812 -33.2333C236.267 -68.4642 194.737 -96.4548 155.456 -102.899C147.312 -104.245 138.994 -104.926 130.749 -104.926Z" fill="#E8E7E7"/>
<path d="M130.417 242.836C31.5873 242.836 -42.9531 172.751 -42.9531 79.8013C-42.9531 38.9231 -25.2226 -3.28731 4.48694 -33.1025C31.6306 -76.283 79.9932 -103.115 130.734 -103.115H130.749C138.908 -103.115 147.11 -102.435 155.153 -101.102C194.074 -94.7166 235.157 -66.9721 257.414 -32.0454C286.475 -2.30264 303.816 39.5023 303.816 79.8013C303.816 172.751 229.276 242.836 130.417 242.836ZM130.749 -102.102H130.734C80.3247 -102.102 32.2648 -75.4432 5.3086 -32.5088L5.27977 -32.4653L5.23653 -32.4219C-24.3144 -2.78049 -41.9441 39.1692 -41.9441 79.8013C-41.9441 172.172 32.1495 241.823 130.417 241.823C228.685 241.823 302.793 172.172 302.793 79.8013C302.793 39.734 285.538 -1.82478 256.65 -31.3648L256.607 -31.4083L256.578 -31.4517C234.48 -66.1612 193.642 -93.7609 154.98 -100.103C147.009 -101.421 138.85 -102.102 130.749 -102.102Z" fill="#E8E7E7"/>
<path d="M130.417 240.012C33.1875 240.012 -40.1421 171.129 -40.1421 79.801C-40.1421 39.531 -22.6278 -2.01329 6.69254 -31.3216C33.3028 -73.8651 80.8149 -100.277 130.72 -100.277H130.734C138.735 -100.277 146.778 -99.6112 154.678 -98.308C192.979 -92.0235 233.355 -64.6845 255.18 -30.2791C283.866 -1.04311 300.977 40.0957 300.977 79.7865C301.005 171.129 227.661 240.012 130.417 240.012ZM130.763 -99.2782H130.749C81.1609 -99.2782 33.9515 -73.0107 7.54303 -30.7424L7.5142 -30.699L7.47095 -30.6555C-21.7196 -1.50648 -39.133 39.7772 -39.133 79.801C-39.133 170.564 33.7497 238.999 130.417 238.999C227.085 238.999 299.982 170.55 299.996 79.7865C299.996 40.3419 282.972 -0.550774 254.445 -29.613L254.401 -29.6564L254.373 -29.6998C232.692 -63.9026 192.575 -91.0823 154.519 -97.3233C146.692 -98.6121 138.692 -99.2782 130.763 -99.2782Z" fill="#E8E7E7"/>
<path d="M130.417 237.188C34.7872 237.188 -37.3315 169.521 -37.3315 79.8004C-37.3315 40.153 -20.0478 -0.725136 8.89766 -29.5556C34.9746 -71.4475 81.6506 -97.4688 130.72 -97.4688H130.734C138.576 -97.4688 146.475 -96.8171 154.216 -95.5284C191.897 -89.3452 231.582 -62.4262 252.974 -28.4986C281.271 0.230568 298.165 40.7178 298.165 79.8004C298.194 169.521 226.061 237.188 130.417 237.188ZM130.763 -96.4551H130.748C81.9966 -96.4551 35.6232 -70.5931 9.74815 -28.9764L9.71932 -28.933L9.67607 -28.8895C-19.1109 -0.247284 -36.3081 40.3848 -36.3081 79.7859C-36.3081 168.927 35.3782 236.16 130.431 236.16C225.499 236.16 297.185 168.927 297.185 79.7859C297.185 40.9495 280.392 0.708427 252.239 -27.8469L252.196 -27.8904L252.167 -27.9338C230.919 -61.6442 191.494 -88.404 154.072 -94.5437C146.389 -95.8035 138.547 -96.4551 130.763 -96.4551Z" fill="#E8E7E7"/>
<path d="M130.417 234.191C36.4886 234.191 -34.3472 167.813 -34.3472 79.801C-34.3472 40.7908 -17.3085 0.622147 11.2478 -27.6726C36.7481 -68.8693 82.5304 -94.4707 130.72 -94.4707H130.734C138.418 -94.4707 146.144 -93.8336 153.727 -92.5738C190.773 -86.5065 229.694 -59.9928 250.625 -26.63C278.532 1.57786 295.182 41.3555 295.182 79.801C295.211 167.827 224.36 234.191 130.417 234.191ZM130.763 -93.4571H130.749C82.8764 -93.4571 37.4111 -68.0295 12.0983 -27.0934L12.0694 -27.0354L12.0262 -26.992C-16.386 1.11449 -33.3381 41.037 -33.3381 79.801C-33.3381 167.248 37.0652 233.178 130.417 233.178C223.784 233.178 294.187 167.234 294.187 79.801C294.187 41.6017 277.624 2.0702 249.875 -25.9494L249.832 -25.9928L249.803 -26.0363C229.031 -59.1964 190.355 -85.5363 153.568 -91.5746C146.058 -92.8199 138.374 -93.4571 130.763 -93.4571Z" fill="#E8E7E7"/>
<path d="M130.417 231.193C38.1895 231.193 -31.3633 166.104 -31.3633 79.8007C-31.3633 41.442 -14.5553 1.96844 13.5974 -25.7905C38.5355 -66.3067 83.4097 -91.4736 130.734 -91.4736H130.749C138.274 -91.4736 145.841 -90.851 153.265 -89.6201C189.649 -83.6542 227.835 -57.5895 248.304 -24.7479C275.808 2.92416 292.227 42.0068 292.227 79.8007C292.227 166.104 222.66 231.193 130.417 231.193ZM130.749 -90.46C130.749 -90.46 130.734 -90.46 130.749 -90.46C83.7412 -90.46 39.1698 -65.4523 14.4335 -25.1968L14.4046 -25.1389L14.3614 -25.0954C-13.6471 2.47526 -30.3542 41.6882 -30.3542 79.8007C-30.3542 165.525 38.7661 230.18 130.417 230.18C222.083 230.18 291.218 165.525 291.218 79.8007C291.218 42.253 274.885 3.41649 247.54 -24.0673L247.497 -24.1108L247.468 -24.1542C227.157 -56.7786 189.231 -82.684 153.092 -88.6065C145.726 -89.8373 138.216 -90.46 130.749 -90.46Z" fill="#E8E7E7"/>
<path d="M130.417 228.21C39.8904 228.21 -28.3794 164.409 -28.3794 79.8003C-28.3794 42.0933 -11.802 3.32924 15.947 -23.9084C40.3085 -63.744 84.2745 -88.4766 130.734 -88.4766H130.749C138.1 -88.4766 145.51 -87.8684 152.775 -86.6665C188.524 -80.8019 225.96 -55.1716 245.954 -22.8803C273.069 4.27046 289.243 42.6436 289.243 79.8003C289.243 164.409 220.958 228.21 130.417 228.21ZM130.749 -87.4774H130.734C84.6061 -87.4774 40.9428 -62.9042 16.7687 -23.3292L16.7398 -23.2713L16.6966 -23.2278C-10.8939 3.82157 -27.3703 42.3395 -27.3703 79.8003C-27.3703 163.83 40.4671 227.196 130.432 227.196C220.396 227.196 288.248 163.83 288.248 79.8003C288.248 42.8897 272.161 4.76279 245.205 -22.1997L245.161 -22.2432L245.132 -22.2866C225.297 -54.3752 188.106 -79.8462 152.616 -85.6674C145.409 -86.8692 138.057 -87.4774 130.749 -87.4774Z" fill="#E8E7E7"/>
<path d="M130.417 225.213C41.5768 225.213 -25.4102 162.701 -25.4102 79.8007C-25.4102 42.7453 -9.07786 4.67634 18.2964 -22.0255C42.0813 -61.1806 85.168 -85.4932 130.734 -85.4932C137.927 -85.4932 145.178 -84.8995 152.285 -83.7121C187.371 -77.9634 224.072 -52.753 243.604 -20.9974C270.315 5.61757 286.273 43.2956 286.273 79.8007C286.259 162.701 219.272 225.213 130.417 225.213ZM130.734 -84.4795C85.4851 -84.4795 42.7156 -60.3262 19.1181 -21.4463L19.0892 -21.3884L19.046 -21.345C-8.15529 5.16868 -24.4011 42.9915 -24.4011 79.8007C-24.4011 162.122 42.1534 224.199 130.417 224.199C218.681 224.199 285.249 162.122 285.249 79.8007C285.249 43.5418 269.393 6.1099 242.84 -20.3168L242.797 -20.3603L242.768 -20.4182C223.394 -51.971 186.953 -77.0076 152.112 -82.7129C145.077 -83.8858 137.884 -84.4795 130.734 -84.4795Z" fill="#E8E7E7"/>
<path d="M130.417 222.215C43.2777 222.215 -22.4263 160.992 -22.4263 79.8004C-22.4263 43.3821 -6.32461 6.03714 20.6316 -20.1434C43.8399 -58.6034 86.0184 -82.4961 130.734 -82.4961H130.748C137.783 -82.4961 144.861 -81.9169 151.794 -80.7584C186.232 -75.1111 222.169 -50.3496 241.255 -19.1298C267.577 6.96389 283.289 43.9324 283.289 79.8004C283.289 160.992 217.571 222.215 130.417 222.215ZM130.748 -81.4825H130.734C86.3644 -81.4825 44.4886 -57.7491 21.4677 -19.5642L21.4388 -19.5063L21.3956 -19.4629C-5.41646 6.52948 -21.4172 43.6428 -21.4172 79.8004C-21.4172 160.413 43.8543 221.202 130.417 221.202C216.994 221.202 282.265 160.413 282.265 79.8004C282.265 44.1786 266.654 7.45622 240.491 -18.4492L240.447 -18.4927L240.418 -18.5506C221.491 -49.5532 185.814 -74.1554 151.622 -79.7738C144.746 -80.9033 137.725 -81.4825 130.748 -81.4825Z" fill="#E8E7E7"/>
<path d="M130.417 219.218C44.9786 219.218 -19.4424 159.284 -19.4424 79.8009C-19.4424 44.0343 -3.58578 7.38439 22.9956 -18.2604C45.6417 -56.0398 86.9122 -79.498 130.734 -79.498C130.748 -79.498 130.763 -79.498 130.777 -79.498C137.639 -79.498 144.544 -78.9333 151.304 -77.8038C185.108 -72.2579 220.295 -47.9308 238.89 -17.2323C264.823 8.29666 280.305 44.5701 280.305 79.8009C280.305 159.284 215.87 219.218 130.417 219.218ZM130.777 -78.4844C130.763 -78.4844 130.748 -78.4844 130.734 -78.4844C87.2437 -78.4844 46.276 -55.1854 23.8173 -17.6812L23.7885 -17.6233L23.7452 -17.5798C-2.66322 7.87673 -18.4333 44.2805 -18.4333 79.8009C-18.4333 158.705 45.5553 218.219 130.417 218.219C215.293 218.219 279.296 158.719 279.296 79.8154C279.296 44.8452 263.915 8.81796 238.155 -16.5517L238.112 -16.5952L238.083 -16.6531C219.632 -47.1199 184.704 -71.3021 151.16 -76.8047C144.428 -77.9197 137.581 -78.4844 130.777 -78.4844Z" fill="#E8E7E7"/>
<path d="M130.417 216.235C46.6798 216.235 -16.4727 157.589 -16.4727 79.8004C-16.4727 44.6709 -0.8467 8.73056 25.3311 -16.3785C47.4006 -53.4773 87.7773 -76.5156 130.72 -76.5156H130.734C137.437 -76.5156 144.184 -75.9654 150.8 -74.8649C183.955 -69.4202 218.392 -45.5275 236.527 -15.3793C262.056 9.64283 277.307 45.2067 277.307 79.7859C277.321 157.575 214.169 216.235 130.417 216.235ZM130.749 -75.502C130.749 -75.502 130.734 -75.502 130.749 -75.502C88.1232 -75.502 48.0637 -52.6229 26.1672 -15.7993L26.1384 -15.7413L26.0951 -15.6979C0.0758648 9.22289 -15.4492 44.9316 -15.4492 79.8004C-15.4492 156.995 47.2565 215.221 130.432 215.221C213.607 215.221 276.327 156.995 276.327 79.8004C276.327 45.4674 261.176 10.1496 235.806 -14.6843L235.763 -14.7277L235.734 -14.7856C217.758 -44.7166 183.566 -68.45 150.67 -73.8512C144.097 -74.9517 137.394 -75.502 130.749 -75.502Z" fill="#E8E7E7"/>
<path d="M130.417 213.238C48.3808 213.238 -13.4888 155.867 -13.4888 79.8012C-13.4888 45.3233 1.90655 10.078 27.6951 -14.4808C49.188 -50.899 88.6565 -73.5029 130.734 -73.5029H130.749C137.293 -73.5029 143.881 -72.9527 150.339 -71.8811C182.845 -66.5523 216.547 -43.0796 234.206 -13.4816C259.331 10.9903 274.337 45.8591 274.337 79.8012C274.337 155.867 212.468 213.238 130.417 213.238ZM130.734 -72.5038C88.9881 -72.5038 49.8223 -50.0591 28.5168 -13.916L28.488 -13.8581L28.4303 -13.8147C2.81469 10.5848 -12.4797 45.5695 -12.4797 79.8012C-12.4797 155.302 48.9574 212.225 130.417 212.225C211.891 212.225 273.328 155.288 273.328 79.8012C273.328 46.1197 258.409 11.4971 233.442 -12.8155L233.398 -12.859L233.37 -12.9169C215.855 -42.3121 182.427 -65.6111 150.166 -70.8965C143.751 -71.968 137.221 -72.5038 130.734 -72.5038Z" fill="#E8E7E7"/>
<path d="M130.417 210.24C50.0817 210.24 -10.5049 154.158 -10.5049 79.8006C-10.5049 45.9599 4.65979 11.4241 30.0448 -12.5989C50.9611 -48.322 89.5359 -70.5205 130.734 -70.5205H130.749C137.12 -70.5205 143.549 -69.9847 149.849 -68.9421C181.706 -63.7147 214.644 -40.6764 231.842 -11.6142C256.592 12.3364 271.368 46.5102 271.368 79.8006C271.353 154.158 210.767 210.24 130.417 210.24ZM130.749 -69.5069H130.734C89.8674 -69.5069 51.6098 -47.4822 30.8808 -12.0196L30.8376 -11.9617L30.7799 -11.9183C5.56795 11.931 -9.49583 46.2206 -9.49583 79.8006C-9.49583 153.593 50.6584 209.227 130.417 209.227C210.19 209.227 270.344 153.578 270.344 79.8006C270.344 46.7563 255.67 12.8287 231.078 -10.9336L231.034 -10.9771L231.006 -11.035C213.967 -39.88 181.288 -62.759 149.69 -67.943C143.448 -68.9856 137.077 -69.5069 130.749 -69.5069Z" fill="#E8E7E7"/>
<path d="M130.417 207.243C51.7827 207.243 -7.521 152.449 -7.521 79.7866C-7.521 46.5975 7.39862 12.7712 32.4088 -10.7305C52.7485 -45.7731 90.4295 -67.5371 130.749 -67.5371H130.763C136.976 -67.5371 143.232 -67.0158 149.373 -66.0022C180.582 -60.8761 212.77 -38.2867 229.492 -9.76028C253.853 13.669 268.398 47.1332 268.398 79.7866C268.384 152.464 209.066 207.243 130.417 207.243ZM130.749 -66.509H130.734C90.7467 -66.509 53.3828 -44.9042 33.2305 -10.1368L33.1872 -10.0789L33.1296 -10.0209C8.30677 13.278 -6.51194 46.8581 -6.51194 79.801C-6.51194 151.885 52.3593 206.244 130.417 206.244C208.489 206.244 267.36 151.885 267.36 79.8155C267.36 47.4084 252.916 14.1903 228.714 -9.05074L228.656 -9.09418L228.627 -9.1521C212.064 -37.4613 180.135 -59.8915 149.171 -64.9741C143.117 -66.0022 136.904 -66.509 130.749 -66.509Z" fill="#E8E7E7"/>
<path d="M130.417 204.26C53.4836 204.26 -4.53711 150.755 -4.53711 79.8008C-4.53711 47.2489 10.1519 14.1322 34.7584 -8.81926C54.5215 -43.1813 91.2944 -64.5254 130.734 -64.5254C130.749 -64.5254 130.763 -64.5254 130.777 -64.5254C136.832 -64.5254 142.915 -64.0186 148.883 -63.0339C179.457 -58.0237 210.882 -35.8542 227.128 -7.86355C251.086 15.0155 265.4 47.7847 265.4 79.8008C265.4 150.755 207.365 204.26 130.417 204.26ZM130.763 -63.5262C130.749 -63.5262 130.734 -63.5262 130.72 -63.5262C91.6116 -63.5262 55.1558 -42.3559 35.5801 -8.25452L35.5368 -8.18212L35.4792 -8.1242C11.06 14.639 -3.52805 47.5095 -3.52805 79.8008C-3.52805 150.176 54.0602 203.246 130.431 203.246C206.803 203.246 264.405 150.176 264.405 79.8008C264.405 48.0453 250.192 15.5223 226.378 -7.18297L226.321 -7.22641L226.277 -7.28433C210.19 -35.0578 179.01 -57.0535 148.695 -62.0348C142.785 -63.0194 136.76 -63.5262 130.763 -63.5262Z" fill="#E8E7E7"/>
<path d="M130.417 201.262C55.1848 201.262 -1.56738 149.046 -1.56738 79.8003C-1.56738 47.9 12.8909 15.4783 37.1227 -6.93734L37.2957 -7.25591C56.511 -40.7346 92.3181 -61.543 130.734 -61.543C130.734 -61.543 130.734 -61.543 130.749 -61.543C136.644 -61.543 142.569 -61.0506 148.378 -60.0949C178.304 -55.1861 208.994 -33.451 224.749 -5.99611C248.333 16.3616 262.416 48.4213 262.416 79.8003C262.416 149.046 205.664 201.262 130.417 201.262ZM130.749 -60.5293C130.734 -60.5293 130.734 -60.5293 130.749 -60.5293C92.6785 -60.5293 57.2173 -39.9237 38.175 -6.74909L37.9155 -6.3002L37.8579 -6.24228C13.7991 15.9852 -0.558327 48.1606 -0.558327 79.8003C-0.558327 148.466 55.747 200.248 130.417 200.248C205.087 200.248 261.407 148.466 261.407 79.8003C261.407 48.6819 247.424 16.8685 224 -5.30105L223.942 -5.35897L223.899 -5.41689C208.287 -32.6545 177.872 -54.2159 148.191 -59.0813C142.454 -60.037 136.572 -60.5293 130.749 -60.5293Z" fill="#E8E7E7"/>
<path d="M130.417 198.265C56.8714 198.265 1.4165 147.338 1.4165 79.8009C1.4165 48.5522 15.6442 16.8401 39.4723 -5.03981L39.876 -5.76383C58.5579 -38.3158 93.3704 -58.5449 130.734 -58.5449C130.734 -58.5449 130.734 -58.5449 130.749 -58.5449C136.471 -58.5449 142.238 -58.0671 147.888 -57.1258C162.289 -54.7655 177.007 -48.4521 190.427 -38.895C203.819 -29.3524 214.875 -17.3192 222.385 -4.11306C245.579 17.7089 259.432 49.0735 259.432 79.8009C259.432 96.352 256.131 112.165 249.616 126.804C243.287 141.01 234.163 153.651 222.486 164.367C198.673 186.232 165.979 198.265 130.417 198.265ZM130.749 -57.5313C130.734 -57.5313 130.734 -57.5313 130.749 -57.5313C93.7452 -57.5313 59.2643 -37.5049 40.7553 -5.25702L40.2652 -4.40267L40.2075 -4.34475C16.5523 17.3324 2.42556 48.7984 2.42556 79.8009C2.42556 146.758 57.448 197.252 130.417 197.252C165.72 197.252 198.183 185.305 221.809 163.628C233.384 152.999 242.422 140.474 248.693 126.399C255.151 111.889 258.423 96.2072 258.423 79.8009C258.423 49.3196 244.671 18.2157 221.636 -3.41801L221.578 -3.47593L221.535 -3.54833C206.399 -30.2502 176.733 -51.3771 147.715 -56.1267C142.122 -57.0679 136.414 -57.5313 130.749 -57.5313Z" fill="#E8E7E7"/>
<path d="M130.417 195.267C58.5723 195.267 4.40039 145.628 4.40039 79.8006C4.40039 49.189 18.383 18.1864 41.822 -3.14324C42.1103 -3.65005 42.4562 -4.27272 42.4706 -4.27272C60.6192 -35.9124 94.437 -55.5479 130.734 -55.5479H130.749C136.313 -55.5479 141.92 -55.0845 147.398 -54.1722C176.041 -49.4806 205.217 -28.5998 220.021 -2.23098C242.84 19.0552 256.448 49.7103 256.448 79.8006C256.448 111.643 243.633 140.922 220.353 162.238C197.101 183.538 165.157 195.267 130.417 195.267ZM130.749 -54.5342C130.749 -54.5342 130.734 -54.5342 130.749 -54.5342C94.7974 -54.5342 61.3112 -35.087 43.35 -3.7659C43.35 -3.75142 42.9608 -3.08532 42.6725 -2.57851L42.6292 -2.5061L42.5716 -2.44818C19.2912 18.6932 5.40945 49.4496 5.40945 79.8006C5.40945 145.049 59.1489 194.254 130.417 194.254C164.898 194.254 196.597 182.611 219.675 161.485C242.739 140.358 255.439 111.353 255.439 79.8006C255.439 49.9564 241.918 19.5476 219.272 -1.5504L219.214 -1.60832L219.171 -1.68073C204.525 -27.8323 175.608 -48.5393 147.225 -53.1875C141.805 -54.0853 136.255 -54.5342 130.749 -54.5342Z" fill="#E8E7E7"/>
<path d="M130.417 192.27C60.2732 192.27 7.38428 143.92 7.38428 79.8011C7.38428 49.8411 21.1363 19.5481 44.186 -1.24573C44.4455 -1.69462 45.0365 -2.73721 45.0653 -2.78065C62.6806 -33.4791 95.5182 -52.5498 130.749 -52.5498H130.763C136.169 -52.5498 141.603 -52.1009 146.922 -51.2176C160.703 -48.9587 174.715 -42.9059 187.472 -33.7398C200.186 -24.5881 210.623 -13.0473 217.657 -0.362423C240.087 20.388 253.479 50.348 253.479 79.8011C253.464 143.92 200.575 192.27 130.417 192.27ZM130.749 -51.5507H130.734C95.8641 -51.5507 63.3725 -32.6682 45.9302 -2.28831C45.9302 -2.27383 45.2383 -1.08644 45.0221 -0.695469L44.9788 -0.623066L44.9212 -0.565147C22.0444 20.0549 8.39333 50.0873 8.39333 79.8011C8.39333 143.341 60.8499 191.271 130.432 191.271C200.013 191.271 252.47 143.356 252.47 79.8156C252.47 50.6086 239.179 20.9093 216.922 0.347118L216.864 0.289196L216.821 0.216793C202.651 -25.399 174.498 -45.6571 146.764 -50.204C141.473 -51.1018 136.097 -51.5507 130.749 -51.5507Z" fill="#E8E7E7"/>
<path d="M130.417 189.287C61.9744 189.287 10.354 142.226 10.354 79.8008C10.354 50.4924 23.8754 20.9089 46.5359 0.650841C46.8242 0.129547 47.1125 -0.37727 47.4008 -0.884083L47.6314 -1.28953C64.7277 -31.0613 96.5707 -49.5527 130.734 -49.5527C130.734 -49.5527 130.734 -49.5527 130.749 -49.5527C135.982 -49.5527 141.272 -49.1183 146.432 -48.264C159.896 -46.063 173.576 -40.1405 185.987 -31.1481C198.37 -22.1848 208.504 -10.89 215.293 1.53415C237.334 21.7343 250.495 50.9847 250.495 79.8008C250.495 142.211 198.875 189.287 130.417 189.287ZM130.734 -48.5536C96.931 -48.5536 65.4196 -30.2504 48.5107 -0.797199L48.2801 -0.391747C47.9774 0.144028 47.6747 0.665321 47.3864 1.21558L47.3431 1.28798L47.2855 1.3459C24.7979 21.4157 11.3631 50.7386 11.3631 79.8008C11.3631 141.632 62.551 188.273 130.417 188.273C198.298 188.273 249.486 141.647 249.486 79.8008C249.486 51.2454 236.426 22.2411 214.544 2.21473L214.486 2.1568L214.443 2.0844C200.763 -22.9957 173.36 -42.8193 146.274 -47.2648C141.142 -48.1192 135.924 -48.5536 130.734 -48.5536Z" fill="#E8E7E7"/>
<path d="M130.417 186.29C63.6754 186.29 13.3379 140.503 13.3379 79.8012C13.3379 51.13 26.6286 22.2561 48.8999 2.54822C49.2459 1.91109 49.6207 1.25947 49.9811 0.607849L50.2117 0.202396C66.7746 -28.6426 97.6229 -46.5693 130.734 -46.5693C130.734 -46.5693 130.749 -46.5693 130.763 -46.5693C135.837 -46.5693 140.94 -46.1494 145.957 -45.324C159.103 -43.1664 172.437 -37.3743 184.503 -28.5847C196.539 -19.824 206.37 -8.76098 212.915 3.38808C234.581 23.0525 247.525 51.6079 247.525 79.8012C247.511 140.503 197.174 186.29 130.417 186.29ZM130.749 -45.5557C130.734 -45.5557 130.734 -45.5557 130.734 -45.5557C97.9833 -45.5557 67.4666 -27.8317 51.091 0.694733L50.8604 1.10018C50.4712 1.76628 50.0964 2.44686 49.736 3.09848L49.6928 3.17088L49.6207 3.22881C27.5368 22.7774 14.3469 51.3907 14.3469 79.8012C14.3469 139.938 64.252 185.277 130.417 185.277C196.597 185.277 246.502 139.938 246.502 79.8012C246.502 51.8685 233.658 23.5593 212.165 4.08315L212.108 4.02523L212.064 3.95282C198.875 -20.577 172.235 -39.9807 145.784 -44.3104C140.825 -45.1358 135.78 -45.5557 130.749 -45.5557Z" fill="#E8E7E7"/>
<path d="M130.417 183.292C65.3763 183.292 16.3218 138.794 16.3218 79.8008C16.3218 51.7812 29.3818 23.6168 51.264 4.44477C51.6964 3.64835 52.1433 2.85193 52.5757 2.09895L52.8208 1.67902C68.8215 -26.2392 98.6896 -43.5723 130.734 -43.5723C130.734 -43.5723 130.734 -43.5723 130.749 -43.5723C135.664 -43.5723 140.609 -43.1668 145.452 -42.3559C158.282 -40.2563 171.27 -34.5944 183.003 -25.993C194.694 -17.4206 204.222 -6.60378 210.522 5.28464C231.813 24.4133 244.527 52.2591 244.527 79.8153C244.527 138.809 195.473 183.292 130.417 183.292ZM130.749 -42.5586C130.734 -42.5586 130.734 -42.5586 130.749 -42.5586C99.0356 -42.5586 69.5135 -25.4138 53.6857 2.18583L53.4406 2.60576C52.9938 3.37323 52.5469 4.18413 52.1 5.00951L52.0568 5.09639L51.9847 5.15432C30.29 24.1381 17.3308 52.0419 17.3308 79.8008C17.3308 138.229 65.9529 182.279 130.417 182.279C194.896 182.279 243.518 138.215 243.518 79.8008C243.518 52.5053 230.905 24.9056 209.787 5.96522L209.715 5.9073L209.671 5.82042C196.972 -18.1736 171.097 -37.143 145.279 -41.3712C140.493 -42.1677 135.607 -42.5586 130.749 -42.5586Z" fill="#E8E7E7"/>
<path d="M130.417 180.295C67.0626 180.295 19.291 137.086 19.291 79.7866C19.291 52.4041 32.1204 24.9638 53.6133 6.34197C54.1035 5.41522 54.6224 4.48848 55.1269 3.59069L55.372 3.15628C70.8682 -23.8352 99.7272 -40.6035 130.72 -40.6035C130.72 -40.6035 130.72 -40.6035 130.734 -40.6035C135.477 -40.6035 140.262 -40.2125 144.947 -39.4306C157.474 -37.3744 170.116 -31.8429 181.504 -23.4442C192.863 -15.0456 202.074 -4.4749 208.143 7.15287C229.059 25.7457 241.557 52.8965 241.557 79.8011C241.557 137.1 193.771 180.295 130.417 180.295ZM130.748 -39.5754C130.734 -39.5754 130.734 -39.5754 130.748 -39.5754C100.116 -39.5754 71.5745 -23.0098 56.2657 3.67757L56.0207 4.11198C55.5017 5.02425 54.9684 5.96548 54.4638 6.92118L54.4206 7.00806L54.3485 7.06599C33.043 25.4851 20.3145 52.6793 20.3145 79.8011C20.3145 136.521 67.6536 179.296 130.431 179.296C193.209 179.296 240.563 136.521 240.563 79.8156C240.563 53.1571 228.18 26.267 207.422 7.86241L207.35 7.80449L207.307 7.71761C195.097 -15.7407 169.986 -34.2611 144.818 -38.388C140.162 -39.1844 135.433 -39.5754 130.748 -39.5754Z" fill="#E8E7E7"/>
<path d="M130.417 177.312C68.7636 177.312 22.2749 135.391 22.2749 79.801C22.2749 53.0702 34.8737 26.3394 55.9918 8.25334C56.5396 7.21075 57.1306 6.15368 57.7216 5.09661L57.9667 4.6622C72.9295 -21.4025 100.808 -37.5771 130.72 -37.5771H130.734C135.318 -37.5771 139.945 -37.2007 144.457 -36.4477C156.667 -34.4494 168.963 -29.0482 180.005 -20.8378C191.018 -12.6564 199.912 -2.33183 205.736 9.03529C226.292 27.0779 238.559 53.5336 238.559 79.801C238.573 135.391 192.07 177.312 130.417 177.312ZM130.748 -36.5635C130.748 -36.5635 130.734 -36.5635 130.748 -36.5635C101.183 -36.5635 73.6359 -20.5627 58.8604 5.16902L58.6154 5.60343C58.0099 6.67498 57.4189 7.74652 56.8567 8.8036L56.8135 8.89048L56.7414 8.9484C35.7818 26.8462 23.284 53.3308 23.284 79.801C23.284 134.812 69.3402 176.298 130.417 176.298C191.494 176.298 237.564 134.812 237.564 79.8155C237.564 53.7942 225.398 27.5992 205.015 9.74482L204.943 9.6869L204.9 9.60002C193.18 -13.3225 168.833 -31.4085 144.313 -35.434C139.844 -36.187 135.275 -36.5635 130.748 -36.5635Z" fill="#E8E7E7"/>
<path d="M130.417 174.314C70.4645 174.314 25.2588 133.682 25.2588 79.8005C25.2588 53.7213 37.6269 27.7 58.3558 10.1642C58.9901 8.93338 59.6532 7.73151 60.3019 6.60204L60.5613 6.15314C74.9908 -18.9848 101.875 -34.5947 130.734 -34.5947C135.159 -34.5947 139.614 -34.2327 143.981 -33.5087C155.888 -31.5538 167.838 -26.283 178.534 -18.2753C189.202 -10.2821 197.779 -0.203754 203.357 10.9027C223.538 28.4095 235.589 54.1557 235.589 79.8005C235.589 133.682 190.384 174.314 130.417 174.314ZM130.734 -33.5811C102.235 -33.5811 75.6828 -18.1595 61.4407 6.65996L61.1812 7.10885C60.5181 8.2528 59.855 9.46916 59.2063 10.7145L59.1631 10.8014L59.091 10.8593C38.5351 28.2068 26.2678 53.9819 26.2678 79.8005C26.2678 133.103 71.0411 173.3 130.417 173.3C189.807 173.3 234.58 133.103 234.58 79.8005C234.58 54.4163 222.63 28.9308 202.622 11.6123L202.55 11.5399L202.507 11.453C191.292 -10.9193 167.709 -28.5854 143.823 -32.4951C139.513 -33.2191 135.102 -33.5811 130.734 -33.5811Z" fill="#E8E7E7"/>
<path d="M130.417 171.317C72.1655 171.317 28.2427 131.974 28.2427 79.8013C28.2427 54.3737 40.3946 29.0619 60.7343 12.0764C61.4118 10.7442 62.1326 9.412 62.8821 8.10877L63.1416 7.65987C77.0378 -16.5514 102.927 -31.582 130.734 -31.582C135.001 -31.582 139.297 -31.2345 143.491 -30.525C155.081 -28.628 166.685 -23.4875 177.035 -15.6536C187.371 -7.89208 195.631 1.95459 200.964 12.7859C220.785 29.7425 232.605 54.7936 232.605 79.8013C232.605 131.974 188.683 171.317 130.417 171.317ZM130.734 -30.5829C103.288 -30.5829 77.7297 -15.7405 64.0209 8.15221L63.7615 8.6011C62.9975 9.91882 62.2767 11.28 61.5848 12.6267L61.5415 12.7135L61.455 12.7859C41.2883 29.5832 29.2373 54.6343 29.2373 79.8013C29.2373 131.395 72.7276 170.304 130.402 170.304C188.092 170.304 231.582 131.395 231.582 79.8013C231.582 55.0543 219.862 30.2638 200.215 13.4955L200.128 13.4231L200.085 13.3217C189.375 -8.51474 166.57 -25.7464 143.318 -29.5548C139.181 -30.2354 134.943 -30.5829 130.734 -30.5829Z" fill="#E8E7E7"/>
<path d="M130.417 168.319C73.8667 168.319 31.2124 130.265 31.2124 79.7859C31.2124 54.9955 43.1337 30.4077 63.0986 13.9725C63.8338 12.4955 64.6266 11.0185 65.4482 9.58489L65.7077 9.12152C79.0705 -14.163 103.98 -28.6289 130.705 -28.6289C130.705 -28.6289 130.705 -28.6289 130.72 -28.6289C134.814 -28.6289 138.951 -28.2814 142.987 -27.6153C154.274 -25.7618 165.518 -20.7516 175.536 -13.1204C185.512 -5.51817 193.454 4.08234 198.543 14.653C218.003 31.0593 229.607 55.4009 229.607 79.7859C229.622 130.265 186.982 168.319 130.417 168.319ZM130.749 -27.6008C130.734 -27.6008 130.734 -27.6008 130.749 -27.6008C104.369 -27.6008 79.7913 -13.3376 66.6159 9.64281L66.3564 10.1062C65.5203 11.5542 64.7275 13.0457 63.9779 14.5372L63.9347 14.6386L63.8482 14.711C44.0418 30.9435 32.2359 55.2851 32.2359 79.8004C32.2359 129.685 74.4433 167.32 130.431 167.32C186.42 167.32 228.627 129.7 228.627 79.8149C228.627 55.6905 217.124 31.6096 197.836 15.3915L197.75 15.3191L197.707 15.2178C192.69 4.73396 184.82 -4.77967 174.945 -12.295C165.071 -19.8248 153.971 -24.7626 142.843 -26.5872C138.864 -27.2677 134.785 -27.6008 130.749 -27.6008Z" fill="#E8E7E7"/>
<path d="M130.417 165.337C75.5676 165.337 34.1963 128.571 34.1963 79.8012C34.1963 55.6623 45.8869 31.7841 65.4914 15.8991C66.2987 14.2484 67.1636 12.6265 68.0573 11.0916L68.3312 10.6283C81.1606 -11.7295 105.075 -25.6162 130.749 -25.6162H130.763C134.698 -25.6162 138.662 -25.2832 142.54 -24.646C153.51 -22.8505 164.422 -17.9706 174.08 -10.5276C183.71 -3.12814 191.335 6.24069 196.164 16.5363C215.264 32.4068 226.652 56.0533 226.652 79.8012C226.652 128.557 185.281 165.337 130.417 165.337ZM130.749 -24.6026C105.421 -24.6026 81.8381 -10.9041 69.1817 11.1351L68.9222 11.5984C68.0285 13.1478 67.1636 14.7696 66.3419 16.4349L66.2987 16.5363L66.2122 16.6087C46.7951 32.3054 35.2053 55.923 35.2053 79.8012C35.2053 127.992 76.1442 164.323 130.417 164.323C184.704 164.323 225.643 127.992 225.643 79.8012C225.643 56.3139 214.342 32.9281 195.429 17.2603L195.343 17.1879L195.299 17.0865C190.542 6.89231 182.989 -2.37515 173.46 -9.71672C163.932 -17.0583 153.178 -21.8658 142.367 -23.6324C138.547 -24.284 134.626 -24.6026 130.749 -24.6026Z" fill="#E8E7E7"/>
<path d="M130.417 162.339C77.2685 162.339 37.1802 126.848 37.1802 79.8008C37.1802 56.2991 48.6546 33.1449 67.8699 17.8102C68.7636 15.9712 69.6862 14.219 70.6232 12.5972L70.8971 12.1194C83.1931 -9.31164 106.128 -22.6191 130.734 -22.6191C134.511 -22.6191 138.316 -22.3006 142.036 -21.6924C152.703 -19.9403 163.255 -15.1907 172.581 -7.95048C181.85 -0.739241 189.173 8.38342 193.742 18.4183C212.482 33.7386 223.683 56.6611 223.683 79.7863C223.668 126.848 183.58 162.339 130.417 162.339ZM130.734 -21.6055C106.488 -21.6055 83.8995 -8.48626 71.7764 12.6262L71.5025 13.104C70.5655 14.7403 69.6285 16.5069 68.7348 18.3604L68.6916 18.4618L68.6051 18.5342C49.5627 33.6662 38.1892 56.5742 38.1892 79.8008C38.1892 126.283 77.8451 161.326 130.417 161.326C183.003 161.326 222.659 126.283 222.659 79.8008C222.659 56.9362 211.574 34.2599 193.007 19.1424L192.921 19.07L192.878 18.9686C188.38 9.03504 181.144 0.0137405 171.961 -7.1251C162.779 -14.2639 152.371 -18.9556 141.877 -20.6788C138.201 -21.3014 134.453 -21.6055 130.734 -21.6055Z" fill="#E8E7E7"/>
<path d="M130.417 159.341C78.9551 159.341 40.1641 125.139 40.1641 79.8004C40.1641 57.0227 51.3646 34.6215 70.1186 19.8515C70.2195 19.7067 70.3204 19.5619 70.4213 19.4171C71.3151 17.5491 72.252 15.7536 73.2179 14.0883L73.4917 13.6105C85.2689 -6.89379 107.209 -19.6221 130.748 -19.6221C134.367 -19.6221 137.999 -19.318 141.56 -18.7243C151.91 -17.0301 162.13 -12.4108 171.096 -5.35887C180.019 1.66413 187.011 10.5261 191.321 20.3149C209.714 35.0704 220.699 57.3123 220.699 79.8149C220.684 125.153 181.879 159.341 130.417 159.341ZM130.734 -18.6084C107.555 -18.6084 85.9464 -6.06841 74.3567 14.1173L74.0828 14.5951C73.1314 16.2604 72.1944 18.0415 71.3151 19.895L71.2718 19.9674C71.1565 20.1411 71.0268 20.3149 70.9114 20.4887L70.8682 20.5611L70.8105 20.6045C52.2439 35.1718 41.1731 57.2979 41.1731 79.8004C41.1731 124.574 79.5461 158.328 130.417 158.328C181.302 158.328 219.675 124.574 219.675 79.8004C219.675 57.573 208.806 35.5917 190.586 21.0244L190.485 20.952L190.441 20.8362C186.189 11.1633 179.284 2.38815 170.462 -4.56245C161.626 -11.513 151.578 -16.0599 141.387 -17.7251C137.87 -18.3188 134.295 -18.6084 130.734 -18.6084Z" fill="#E8E7E7"/>
<path d="M130.417 156.344C80.6563 156.344 43.1338 123.43 43.1338 79.7864C43.1338 57.7472 54.046 36.1135 72.3099 21.9082C72.5262 21.5751 72.7568 21.2421 72.9874 20.909C73.8379 19.099 74.7749 17.3034 75.7696 15.5658L76.0434 15.0734C87.3016 -4.47513 108.247 -16.6387 130.734 -16.6387C134.179 -16.6387 137.654 -16.3491 141.056 -15.7843C161.41 -12.4394 180.611 2.80852 188.87 22.1978C206.932 36.4031 217.701 57.9354 217.701 79.8008C217.701 123.445 180.178 156.344 130.417 156.344ZM130.734 -15.625C108.607 -15.625 87.9935 -3.66422 76.9372 15.5947L76.6633 16.0871C75.6686 17.8102 74.7461 19.5913 73.8956 21.3869L73.8523 21.4593C73.6073 21.8213 73.3622 22.1833 73.1172 22.5453L73.0739 22.6177L73.0019 22.6612C54.9397 36.6927 44.1428 58.0513 44.1428 79.8008C44.1428 122.866 81.2329 155.345 130.417 155.345C179.601 155.345 216.691 122.866 216.691 79.8153C216.691 58.2106 206.024 36.9388 188.15 22.9218L188.049 22.8349L187.991 22.7191C179.904 3.57598 160.963 -11.4836 140.897 -14.7852C137.553 -15.3354 134.122 -15.625 130.734 -15.625Z" fill="#E8E7E7"/>
<path d="M130.417 153.361C82.3572 153.361 46.1177 121.736 46.1177 79.8005C46.1177 58.4998 56.7416 37.648 74.5298 23.993C74.8758 23.4717 75.2362 22.9504 75.5821 22.4291C76.4326 20.6046 77.3696 18.7945 78.3642 17.0858L78.6525 16.5935C89.363 -2.05727 109.313 -13.6416 130.734 -13.6416H130.749C134.035 -13.6416 137.336 -13.3665 140.58 -12.8307C160.141 -9.63053 178.52 5.08157 186.304 23.7468L186.535 24.1523C204.194 37.8073 214.731 58.6012 214.731 79.815C214.731 121.736 178.477 153.361 130.417 153.361ZM130.749 -12.628C130.749 -12.628 130.734 -12.628 130.749 -12.628C109.674 -12.628 90.0549 -1.24637 79.5319 17.0858L79.2436 17.5926C78.2633 19.3013 77.3408 21.0824 76.4903 22.907L76.4759 22.9504L76.447 22.9938C76.0722 23.5296 75.6974 24.0799 75.3371 24.6301L75.2938 24.7025L75.2217 24.7604C57.6353 38.2272 47.1411 58.8039 47.1411 79.815C47.1411 121.171 82.9482 152.362 130.432 152.362C177.915 152.362 213.722 121.171 213.736 79.815C213.736 58.8908 203.314 38.3575 185.858 24.9053L185.785 24.8473L185.411 24.1812C177.727 5.79111 159.651 -8.67482 140.407 -11.8316C137.221 -12.3673 133.978 -12.628 130.749 -12.628Z" fill="#E8E7E7"/>
<path d="M130.417 150.364C84.0581 150.364 49.1016 120.027 49.1016 79.8006C49.1016 59.2384 59.4372 39.1541 76.7353 26.0638C77.211 25.3398 77.6867 24.6158 78.1768 23.9497C79.0129 22.1251 79.9499 20.3296 80.9445 18.5919L81.2328 18.0851C87.0709 7.91985 95.7488 -0.116778 106.315 -5.127C116.881 -10.1517 128.558 -11.788 140.09 -9.86209C158.772 -6.79224 176.257 7.23927 183.623 25.0936L184.243 26.1796C201.469 39.2699 211.747 59.3108 211.747 79.8151C211.747 120.027 176.79 150.364 130.417 150.364ZM130.691 -9.64488C122.446 -9.64488 114.301 -7.82035 106.747 -4.21473C96.3686 0.723084 87.8493 8.60043 82.1121 18.5919L81.8238 19.0987C80.8292 20.8219 79.9066 22.603 79.0705 24.413L79.0561 24.4565L79.0273 24.4999C78.5228 25.195 78.0326 25.9335 77.5425 26.7009L77.4993 26.7733L77.4272 26.8313C60.3165 39.7188 50.1106 59.528 50.1106 79.8006C50.1106 119.448 84.6347 149.35 130.417 149.35C176.199 149.35 210.738 119.448 210.738 79.8006C210.738 59.5859 200.575 39.8202 183.566 26.9181L183.479 26.8602L182.701 25.5135C175.479 7.94881 158.281 -5.8655 139.917 -8.87742C136.846 -9.38424 133.761 -9.64488 130.691 -9.64488Z" fill="#E8E7E7"/>
<path d="M130.417 147.366C85.7591 147.366 52.0854 118.318 52.0854 79.8003C52.0854 59.9766 62.1328 40.6743 78.9552 28.1487C79.5606 27.193 80.166 26.2952 80.7715 25.4698C81.6076 23.6453 82.5301 21.8352 83.5392 20.0976L83.8275 19.5908C89.3629 9.93235 97.5795 2.33014 107.584 -2.43392C117.602 -7.19797 128.673 -8.74738 139.599 -6.92284C157.388 -3.9978 173.994 9.3821 180.942 26.4111L181.965 28.1921C198.745 40.7177 208.749 60.0056 208.749 79.8003C208.749 98.4366 200.777 115.581 186.29 128.049C171.846 140.517 151.996 147.366 130.417 147.366ZM130.705 -6.64772C122.892 -6.64772 115.195 -4.91007 108.03 -1.50717C98.1993 3.15552 90.1413 10.6274 84.7068 20.0831L84.4185 20.5899C83.4239 22.3276 82.5013 24.1087 81.6796 25.9332L81.6652 25.9766L81.6364 26.0201C81.0309 26.8599 80.3967 27.7867 79.7768 28.7714L79.7336 28.8582L79.6615 28.9162C63.0121 41.239 53.0945 60.2663 53.0945 79.8003C53.0945 117.739 86.3357 146.352 130.417 146.352C151.751 146.352 171.37 139.575 185.656 127.282C199.912 115.002 207.754 98.1325 207.754 79.8003C207.754 60.2952 197.865 41.2824 181.288 28.9451L181.201 28.8872L180.019 26.831C173.215 10.1061 156.898 -3.05658 139.441 -5.9237C136.529 -6.40155 133.603 -6.64772 130.705 -6.64772Z" fill="#E8E7E7"/>
<path d="M130.417 144.383C87.4603 144.383 55.0552 116.624 55.0552 79.8008C55.0552 60.7011 64.8142 42.1807 81.1753 30.2199C81.8528 29.1194 82.588 28.0333 83.352 26.9763C84.1736 25.1517 85.0962 23.3417 86.1053 21.5896L86.3936 21.0828C91.6263 11.9601 99.396 4.76333 108.852 0.274405C118.309 -4.21452 128.774 -5.69152 139.095 -3.96836C155.99 -1.18812 171.716 11.5402 178.247 27.7293L179.688 30.2344C196.02 42.1952 205.765 60.7156 205.765 79.8008C205.765 97.6117 198.096 113.989 184.171 125.921C170.275 137.824 151.175 144.383 130.417 144.383ZM130.691 -3.64979C123.325 -3.64979 116.045 -2.0135 109.285 1.18667C100.016 5.58871 92.4047 12.6407 87.2729 21.5606L86.9846 22.0674C85.99 23.8051 85.0674 25.6151 84.2457 27.4252L84.2313 27.4686L84.2025 27.5265C83.4241 28.5981 82.6745 29.7131 81.9826 30.8281L81.9249 30.915L81.8384 30.9729C65.6935 42.7454 56.0642 60.9908 56.0642 79.8008C56.0642 116.045 88.0225 143.37 130.417 143.37C150.944 143.37 169.799 136.897 183.522 125.153C197.217 113.424 204.77 97.3221 204.756 79.8153C204.756 61.0197 195.127 42.7744 179.011 31.0018L178.924 30.9439L177.324 28.1492C170.938 12.2497 155.514 -0.246891 138.937 -2.96921C136.198 -3.43258 133.43 -3.64979 130.691 -3.64979Z" fill="#E8E7E7"/>
<path d="M130.417 141.386C89.1612 141.386 58.0391 114.916 58.0391 79.801C58.0391 61.4398 67.5242 43.6868 83.3952 32.2908C84.2025 30.9586 85.0529 29.6843 85.9323 28.4824C86.7539 26.6434 87.6765 24.8189 88.6855 23.0667L88.9883 22.5455C93.9182 13.9731 101.227 7.2107 110.135 2.96794C119.044 -1.24586 128.904 -2.63598 138.619 -1.01417C154.62 1.62126 169.468 13.6979 175.58 29.0472L177.439 32.2908C193.325 43.6868 202.795 61.4398 202.795 79.801C202.81 114.901 171.688 141.386 130.417 141.386ZM130.706 -0.652161C123.772 -0.652161 116.925 0.882763 110.568 3.89469C101.847 8.03608 94.6822 14.6681 89.8532 23.0523L89.5505 23.5736C88.5558 25.3112 87.6332 27.1213 86.826 28.9458L86.7972 29.0037L86.7683 29.0472C85.8746 30.249 85.0097 31.5523 84.2025 32.9134L84.1448 33.0003L84.0583 33.0582C68.3891 44.2661 59.0337 61.7294 59.0337 79.801C59.0337 114.337 89.709 140.373 130.403 140.373C171.097 140.373 201.772 114.337 201.772 79.801C201.772 61.7294 192.417 44.2516 176.747 33.0437L176.661 32.9858L174.628 29.4526C168.675 14.4075 154.13 2.56249 138.461 -0.0150226C135.881 -0.449435 133.286 -0.652161 130.706 -0.652161Z" fill="#E8E7E7"/>
<path d="M130.417 138.388C90.8622 138.388 61.0229 113.207 61.0229 79.8008C61.0229 62.1781 70.2198 45.2071 85.6439 34.3757C86.5232 32.8698 87.489 31.4072 88.5413 30.0171C89.3486 28.1636 90.2712 26.3391 91.2802 24.587L91.5829 24.0657C96.2102 16.0146 103.072 9.67214 111.418 5.70451C119.779 1.73688 129.019 0.433641 138.144 1.95408C153.251 4.43023 167.204 15.8408 172.898 30.3646L175.205 34.3612C190.629 45.1926 199.84 62.1781 199.84 79.8152C199.84 95.9754 192.777 110.847 179.947 121.664C167.118 132.437 149.532 138.388 130.417 138.388ZM130.705 2.34505C124.219 2.34505 117.804 3.77861 111.851 6.61677C103.677 10.4975 96.9742 16.7096 92.4478 24.5725L92.1451 25.0938C91.1505 26.8314 90.2279 28.6415 89.4351 30.4805L89.4063 30.5384L89.3774 30.5818C88.3251 31.9864 87.3449 33.4779 86.4656 34.9984L86.4079 35.0997L86.3214 35.1577C71.1135 45.7863 62.032 62.4822 62.032 79.8008C62.032 112.628 91.4244 137.375 130.417 137.375C149.301 137.375 166.642 131.51 179.27 120.867C191.869 110.239 198.802 95.6568 198.802 79.8008C198.802 62.4532 189.721 45.7573 174.513 35.1142L174.426 35.0563L171.961 30.7556C166.412 16.5503 152.746 5.37146 137.971 2.93875C135.549 2.54778 133.127 2.34505 130.705 2.34505Z" fill="#E8E7E7"/>
<path d="M130.417 135.391C92.5631 135.391 64.0068 111.498 64.0068 79.8005C64.0068 62.9163 72.9298 46.7128 87.8926 36.4606L88.0512 36.1855C88.9738 34.5782 90.0117 33.0143 91.136 31.5373C91.9433 29.6693 92.8514 27.8448 93.8605 26.0782L94.1632 25.5569C98.4733 18.0415 104.888 12.1046 112.701 8.39759C120.514 4.6906 129.134 3.47425 137.654 4.89333C151.852 7.22468 164.927 17.9691 170.203 31.6531L172.956 36.4461C187.919 46.7128 196.856 62.9163 196.856 79.8005C196.842 111.498 168.286 135.391 130.417 135.391ZM130.705 5.32774C124.651 5.32774 118.669 6.67442 113.119 9.30986C105.493 12.93 99.2373 18.7221 95.0281 26.0637L94.7254 26.585C93.7308 28.3226 92.8226 30.1472 92.0298 31.9862L92.0009 32.0441L91.9577 32.0875C90.8477 33.5501 89.8243 35.085 88.9161 36.6778L88.6422 37.1557L88.5413 37.2281C73.7947 47.3065 65.0015 63.2204 65.0015 79.8005C65.0015 110.919 93.1253 134.377 130.403 134.377C167.695 134.377 195.818 110.904 195.818 79.786C195.818 63.1915 187.011 47.263 172.264 37.1991L172.163 37.1267L169.251 32.0296C164.12 18.6642 151.348 8.15142 137.466 5.878C135.232 5.51599 132.969 5.32774 130.705 5.32774Z" fill="#E8E7E7"/>
<path d="M130.417 132.408C94.2494 132.408 66.9761 109.789 66.9761 79.8148C66.9761 63.6692 75.6251 48.2621 90.1267 38.5602C90.2853 38.285 90.6312 37.6914 90.6312 37.6914C91.5538 36.084 92.5917 34.5346 93.7161 33.0721C94.5089 31.1896 95.417 29.3506 96.4405 27.584L96.7432 27.0482C100.751 20.0687 106.704 14.5517 113.969 11.1053C121.22 7.65898 129.249 6.52951 137.163 7.84723C150.468 10.0338 162.649 20.1121 167.507 32.9418L170.693 38.5312C185.194 48.2186 193.858 63.6402 193.858 79.8004C193.858 109.789 166.584 132.408 130.417 132.408ZM91.4961 38.1837C91.4961 38.1837 91.0493 38.9801 90.9484 39.1539L90.8907 39.2552L90.7898 39.3276C76.5189 48.8268 67.9995 63.9588 67.9995 79.8004C67.9995 109.21 94.8404 131.38 130.431 131.38C166.022 131.38 192.863 109.196 192.863 79.8004C192.863 63.9443 184.329 48.8123 170.058 39.3132L169.957 39.2408L166.57 33.3327C161.842 20.8217 149.949 10.975 136.99 8.84637C129.278 7.5721 121.465 8.65813 114.387 12.0176C107.324 15.377 101.515 20.7493 97.6081 27.5551L97.3054 28.0908C96.2964 29.843 95.4026 31.6675 94.6242 33.521L94.5954 33.5789L94.5521 33.6368C93.4422 35.0704 92.4043 36.6053 91.4961 38.1837Z" fill="#E8E7E7"/>
<path d="M130.417 129.411C95.9504 129.411 69.96 108.081 69.96 79.8013C69.96 64.3941 78.3351 49.7689 92.3754 40.6317C92.5628 40.2842 92.7646 39.9367 92.952 39.6036L93.2115 39.1547C94.1341 37.5619 95.172 36.027 96.2963 34.5934C97.0748 32.711 97.9829 30.8575 98.992 29.0764L99.2947 28.5406C102.999 22.0823 108.506 16.9997 115.209 13.814C121.912 10.6283 129.321 9.58574 136.644 10.8021C149.041 12.8294 160.328 22.2416 164.768 34.2314L168.458 40.6462C182.484 49.7689 190.859 64.3941 190.859 79.8013C190.874 108.081 164.883 129.411 130.417 129.411ZM130.705 11.3234C125.53 11.3234 120.413 12.4673 115.656 14.7263C109.14 17.8251 103.792 22.7774 100.188 29.0474L99.8857 29.5832C98.8766 31.3353 97.9829 33.1743 97.2189 35.0423L97.1901 35.1147L97.1468 35.1726C96.0224 36.5917 94.999 38.0977 94.0908 39.676L93.8314 40.1249C93.6151 40.4869 93.4133 40.8634 93.2115 41.2544L93.1538 41.3702L93.0385 41.4426C79.2289 50.3771 70.9834 64.7271 70.9834 79.8302C70.9834 107.531 96.5414 128.426 130.431 128.426C164.321 128.426 189.879 107.531 189.879 79.8302C189.879 64.7271 181.634 50.3771 167.838 41.4571L167.738 41.3847L163.889 34.6803L163.874 34.6369C159.579 22.9656 148.58 13.7995 136.514 11.8157C134.568 11.4827 132.637 11.3234 130.705 11.3234Z" fill="#E8E7E7"/>
<path d="M130.417 126.413C97.6518 126.413 72.9443 106.373 72.9443 79.801C72.9443 65.1323 81.0456 51.289 94.639 42.7456C94.9418 42.1809 95.2301 41.6306 95.5328 41.1093L95.7922 40.6459C96.7004 39.0676 97.7383 37.5471 98.8915 36.1281C99.6555 34.2166 100.564 32.3487 101.587 30.5676L101.89 30.0318C105.292 24.1093 110.337 19.4321 116.492 16.5071C122.648 13.5821 129.451 12.6264 136.169 13.7413C147.658 15.6238 158.051 24.3555 162.073 35.4909L166.253 42.7601C179.803 51.3035 187.89 65.1468 187.89 79.7865C187.905 106.373 163.183 126.413 130.417 126.413ZM130.706 14.3061C125.963 14.3061 121.278 15.3632 116.925 17.4194C110.957 20.2575 106.056 24.7899 102.755 30.5386L102.452 31.0744C101.443 32.841 100.549 34.68 99.7996 36.5769L99.7708 36.6493L99.7276 36.7073C98.5888 38.0974 97.5653 39.5889 96.6716 41.1528L96.4121 41.6161C96.095 42.1519 95.7778 42.7311 95.4751 43.3393L95.4174 43.4696L95.3021 43.542C81.9393 51.8972 73.9678 65.4509 73.9678 79.801C73.9678 105.793 98.2428 125.4 130.432 125.4C162.621 125.4 186.896 105.793 186.91 79.801C186.91 65.4654 178.953 51.9262 165.633 43.571L165.532 43.4986L161.179 35.9253L161.165 35.8819C157.287 25.065 147.182 16.5795 136.039 14.755C134.252 14.4654 132.479 14.3061 130.706 14.3061Z" fill="#E8E7E7"/>
<path d="M130.417 123.416C99.3527 123.416 75.9282 104.664 75.9282 79.801C75.9282 65.8854 83.77 52.8385 96.9166 44.8598C97.3058 44.0779 97.7094 43.3104 98.113 42.6153L98.3869 42.1375C99.2951 40.5591 100.333 39.0676 101.501 37.6775C102.25 35.7516 103.144 33.8692 104.182 32.0736L104.485 31.5378C107.584 26.1511 112.182 21.8939 117.79 19.2295C123.397 16.5651 129.581 15.6963 135.708 16.7099C146.274 18.4475 155.788 26.4986 159.377 36.7653L164.062 44.9322C177.137 52.9109 184.921 65.9433 184.921 79.801C184.921 91.8487 179.371 102.912 169.28 110.977C159.219 118.999 145.423 123.416 130.417 123.416ZM130.72 17.3036C126.41 17.3036 122.172 18.2593 118.222 20.1273C112.802 22.7048 108.362 26.8172 105.364 32.0302L105.061 32.5659C104.038 34.3325 103.158 36.2005 102.423 38.1119L102.394 38.1843L102.337 38.2423C101.198 39.6034 100.16 41.0804 99.2807 42.6153L99.0068 43.0932C98.5887 43.8172 98.1707 44.5992 97.7671 45.4245L97.695 45.5549L97.5653 45.6273C84.6494 53.4322 76.9373 66.1894 76.9373 79.801C76.9373 104.099 99.9293 122.402 130.417 122.402C145.193 122.402 158.772 118.058 168.646 110.166C178.492 102.304 183.912 91.5157 183.912 79.7865C183.912 66.2329 176.257 53.4901 163.428 45.7141L163.312 45.6417L158.44 37.1707L158.426 37.1273C154.966 27.1792 145.755 19.3743 135.535 17.6946C133.92 17.4339 132.32 17.3036 130.72 17.3036Z" fill="#E8E7E7"/>
<path d="M130.417 120.433C101.053 120.433 78.8975 102.969 78.8975 79.8006C78.8975 73.2844 80.7714 66.8261 84.3175 61.1353C87.8348 55.488 92.9666 50.5936 99.1939 46.9735C99.6552 45.9888 100.16 45.0331 100.679 44.1064L100.953 43.614C101.846 42.0502 102.899 40.5732 104.081 39.212C104.801 37.2571 105.695 35.3602 106.733 33.5502L107.036 33.0144C109.832 28.149 113.969 24.3117 119.029 21.9079C124.089 19.5042 129.667 18.7222 135.188 19.6345C144.832 21.2129 153.438 28.5834 156.624 37.9812L161.842 47.0604C174.441 54.5033 181.937 66.7103 181.937 79.8006C181.937 102.955 159.795 120.433 130.417 120.433ZM130.72 20.3006C126.856 20.3006 123.036 21.1549 119.49 22.8491C114.618 25.166 110.625 28.8585 107.944 33.5502L107.641 34.0859C106.618 35.867 105.738 37.7495 105.018 39.6754L104.989 39.7623L104.931 39.8347C103.778 41.1669 102.74 42.6149 101.861 44.1353L101.587 44.6277C101.039 45.5689 100.535 46.5536 100.073 47.5672L100.001 47.712L99.857 47.7989C93.7162 51.3466 88.6421 56.1541 85.1969 61.7001C81.7517 67.2461 79.9209 73.5161 79.9209 79.8295C79.9209 102.419 101.63 119.448 130.431 119.448C159.233 119.448 180.942 102.419 180.942 79.8295C180.942 67.0723 173.576 55.1404 161.251 47.9292L161.136 47.8568L155.73 38.459L155.715 38.4156C152.659 29.3364 144.356 22.212 135.059 20.6916C133.603 20.4164 132.147 20.3006 130.72 20.3006Z" fill="#E8E7E7"/>
<path d="M130.417 117.436C102.754 117.436 81.8813 101.261 81.8813 79.801C81.8813 73.6468 83.6976 67.5795 87.1284 62.2507C90.516 56.9799 95.4892 52.433 101.515 49.1025C102.034 47.9151 102.625 46.7422 103.273 45.6127L103.562 45.1204C104.441 43.571 105.508 42.123 106.69 40.8052C107.396 38.8214 108.275 36.8955 109.328 35.0855L109.63 34.5497C112.124 30.2201 115.814 26.8027 120.312 24.6596C124.809 22.5165 129.783 21.8214 134.698 22.6323C143.419 24.0659 151.131 30.7414 153.885 39.2703L159.651 49.3197C171.716 56.1545 178.924 67.5506 178.924 79.83C178.953 101.261 158.094 117.436 130.417 117.436ZM130.72 23.2984C127.289 23.2984 123.901 24.0659 120.759 25.5574C116.449 27.6136 112.903 30.8862 110.524 35.042L110.221 35.5778C109.184 37.3734 108.319 39.2703 107.627 41.2252L107.598 41.3265L107.526 41.3989C106.358 42.6877 105.32 44.1068 104.455 45.6127L104.167 46.1196C103.518 47.2635 102.913 48.4509 102.394 49.6673L102.322 49.8265L102.163 49.9134C96.2243 53.1715 91.3232 57.646 87.9933 62.8155C84.6635 67.985 82.9048 73.864 82.9048 79.8155C82.9048 100.696 103.331 116.436 130.431 116.436C157.532 116.436 177.958 100.696 177.958 79.8155C177.958 67.8691 170.894 56.7627 159.074 50.1161L158.959 50.0437L152.991 39.6613L152.977 39.6034C150.339 31.4075 142.944 24.9782 134.568 23.6025C133.271 23.3998 131.988 23.2984 130.72 23.2984Z" fill="#E8E7E7"/>
<path d="M130.417 114.438C104.441 114.438 84.8652 99.5518 84.8652 79.8005C84.8652 74.0229 86.6239 68.3465 89.9538 63.3798C93.2404 58.4854 98.0406 54.2861 103.864 51.2307C104.427 49.8116 105.104 48.4215 105.854 47.1038L106.142 46.597C107.021 45.062 108.088 43.643 109.313 42.3687C109.991 40.3559 110.856 38.4011 111.908 36.562L112.211 36.0263C114.387 32.2179 117.631 29.2205 121.58 27.338C125.53 25.4556 129.898 24.8474 134.208 25.5569C141.992 26.8312 148.796 32.8116 151.146 40.4573L157.488 51.5058C169.049 57.7614 175.954 68.3321 175.954 79.8005C175.954 89.3721 171.312 98.1762 162.865 104.577C154.476 110.933 142.958 114.438 130.417 114.438ZM130.705 26.2954C127.707 26.2954 124.766 26.9615 122.013 28.2648C118.251 30.0603 115.166 32.913 113.09 36.5331L112.787 37.0689C111.749 38.8789 110.884 40.8193 110.236 42.8031L110.193 42.9189L110.106 43.0058C108.91 44.2367 107.872 45.6268 107.007 47.1183L106.719 47.6251C105.955 48.9573 105.277 50.3619 104.715 51.7954L104.643 51.9692L104.47 52.0561C98.7181 55.039 93.99 59.1515 90.761 63.959C87.5464 68.752 85.8455 74.2401 85.8455 79.815C85.8455 98.9871 104.989 113.439 130.388 113.439C142.699 113.439 154.014 110.007 162.245 103.766C170.433 97.568 174.931 89.0535 174.931 79.8005C174.931 68.6796 168.184 58.413 156.869 52.3312L156.739 52.2588L150.194 40.8627L150.18 40.8048C147.96 33.5067 141.459 27.7724 134.021 26.5561C132.94 26.3823 131.83 26.2954 130.705 26.2954Z" fill="#E8E7E7"/>
<path d="M130.417 111.44C106.142 111.44 87.835 97.8433 87.835 79.8007C87.835 74.385 89.5359 69.0997 92.7649 64.5094C95.9362 59.9915 100.592 56.1542 106.229 53.3884C106.82 51.7377 107.555 50.1303 108.42 48.6099L108.708 48.0886C109.573 46.5682 110.654 45.1925 111.908 43.9762C112.542 41.92 113.407 39.9217 114.474 38.0537L114.777 37.5179C116.651 34.2453 119.447 31.6678 122.849 30.046C126.251 28.4242 129.999 27.9029 133.718 28.5256C140.565 29.655 146.447 34.9259 148.393 41.6593L155.355 53.7649C166.412 59.4557 172.999 69.1721 172.999 79.8007C172.999 97.8433 154.692 111.44 130.417 111.44ZM130.72 29.293C128.168 29.293 125.646 29.8578 123.311 30.9728C120.096 32.4932 117.458 34.9404 115.685 38.0392L115.382 38.575C114.33 40.414 113.479 42.3688 112.86 44.4106L112.816 44.5409L112.715 44.6278C111.49 45.8007 110.452 47.1329 109.602 48.5954L109.313 49.1167C108.434 50.6372 107.699 52.259 107.122 53.9242L107.05 54.1269L106.863 54.2138C101.299 56.9072 96.7002 60.6721 93.5866 65.1031C90.4729 69.5196 88.8296 74.6022 88.8296 79.8152C88.8296 97.2786 106.704 110.441 130.403 110.441C154.101 110.441 171.976 97.2786 171.976 79.8152C171.976 74.7615 170.405 69.7803 167.435 65.4217C164.451 61.0631 160.069 57.3126 154.764 54.6048L154.635 54.5324L147.47 42.0648L147.456 42.0068C145.639 35.6065 140.061 30.5963 133.574 29.5392C132.623 29.3654 131.671 29.293 130.72 29.293Z" fill="#E8E7E7"/>
<path d="M130.417 108.458C107.843 108.458 90.8188 96.1351 90.8188 79.8012C90.8188 74.762 92.4766 69.8531 95.6191 65.6393C98.7039 61.4979 103.201 58.0082 108.665 55.532C109.241 53.6351 110.02 51.8105 111.014 50.0874L111.317 49.5661C112.168 48.0746 113.263 46.7424 114.546 45.6129C115.123 43.4988 115.973 41.4571 117.069 39.5456L117.371 39.0099C118.943 36.2731 121.278 34.101 124.132 32.7543C126.986 31.4077 130.129 30.9588 133.242 31.4801C136.169 31.9579 138.893 33.3046 141.113 35.3463C143.319 37.3736 144.875 39.9656 145.625 42.8182L152.833 55.3582C152.962 55.5755 153.078 55.7927 153.193 56.0099C158.339 58.515 162.592 61.9903 165.489 66.0593C168.43 70.1862 170.001 74.9358 170.001 79.7867C170.001 87.722 165.95 95.0056 158.599 100.291C151.319 105.562 141.3 108.458 130.417 108.458ZM130.72 32.2765C128.601 32.2765 126.511 32.7398 124.579 33.6666C121.912 34.9264 119.736 36.9536 118.265 39.5167L117.962 40.0525C116.881 41.9204 116.06 43.9332 115.497 46.0184L115.454 46.1632L115.339 46.2646C114.085 47.3361 113.032 48.6104 112.211 50.0584L111.908 50.5797C110.928 52.2884 110.135 54.1274 109.587 56.0243L109.515 56.256L109.299 56.3574C103.893 58.7611 99.4535 62.1785 96.4407 66.233C93.428 70.2731 91.8423 74.9647 91.8423 79.7867C91.8423 95.5414 108.434 107.43 130.432 107.43C141.099 107.43 150.915 104.606 158.036 99.4656C165.114 94.3685 169.021 87.3744 169.006 79.7722C169.006 75.1385 167.507 70.5916 164.696 66.6385C161.871 62.6709 157.69 59.2824 152.631 56.8352L152.487 56.7628L152.415 56.618C152.27 56.3574 152.141 56.0968 151.996 55.8506L144.717 43.1947L144.702 43.1223C143.29 37.6487 138.634 33.3625 133.113 32.4502C132.305 32.3344 131.513 32.2765 130.72 32.2765Z" fill="#E8E7E7"/>
<path d="M130.417 105.46C109.544 105.46 93.8027 94.4256 93.8027 79.8004C93.8027 75.1232 95.4172 70.6343 98.4876 66.7825C101.486 63.0321 105.868 59.9043 111.173 57.7178C111.677 55.5747 112.499 53.504 113.595 51.5926L113.897 51.0568C114.733 49.5943 115.843 48.3345 117.184 47.3064C117.689 45.1053 118.525 43.0057 119.649 41.0363L119.966 40.5006C121.624 37.619 124.305 35.5483 127.505 34.6794C130.705 33.8106 134.064 34.2595 136.933 35.9248C139.917 37.6479 142.064 40.573 142.843 43.9469L150.267 56.8634C150.555 57.3702 150.8 57.8336 151.031 58.297C155.932 60.527 159.968 63.6403 162.736 67.3038C165.547 71.0397 167.046 75.3549 167.046 79.8004C167.031 94.4256 151.29 105.46 130.417 105.46ZM130.763 35.2731C129.768 35.2731 128.774 35.4035 127.779 35.6641C124.838 36.4605 122.373 38.3575 120.845 41.0074L120.528 41.5431C119.418 43.469 118.611 45.5397 118.135 47.7118L118.092 47.9001L117.934 48.0159C116.636 48.9716 115.57 50.159 114.762 51.5636L114.46 52.0994C113.364 54.0108 112.571 56.0525 112.081 58.1956L112.023 58.4563L111.778 58.5576C106.517 60.6863 102.192 63.7416 99.2516 67.4196C96.3254 71.0832 94.783 75.3549 94.783 79.8004C94.783 93.8464 110.092 104.446 130.388 104.446C150.685 104.446 165.994 93.8464 165.994 79.8004C165.994 75.5866 164.581 71.4886 161.9 67.9265C159.204 64.3498 155.24 61.3234 150.425 59.1513L150.252 59.0789L150.166 58.9052C149.935 58.4128 149.676 57.9205 149.359 57.3702L141.863 44.3234L141.848 44.251C141.156 41.1232 139.167 38.4154 136.399 36.8081C134.684 35.7944 132.738 35.2731 130.763 35.2731Z" fill="#E8E7E7"/>
<path d="M130.417 102.462C111.245 102.462 96.7866 92.7169 96.7866 79.8003C96.7866 75.5576 98.4011 71.4596 101.443 67.9698C104.398 64.5669 108.665 61.8012 113.782 59.9187C114.171 57.5005 114.978 55.2126 116.189 53.084L116.492 52.5482C117.299 51.1291 118.467 49.9417 119.88 49.1163C120.283 46.7995 121.076 44.5985 122.244 42.5567L122.561 42.0065C123.815 39.8054 125.847 38.2416 128.284 37.5755C130.72 36.9094 133.257 37.2424 135.448 38.5167C137.812 39.8778 139.47 42.1947 140.003 44.8736C140.032 44.9894 140.061 45.0908 140.118 45.1922L147.686 58.3693C148.104 59.0789 148.465 59.8318 148.782 60.5993C153.452 62.5542 157.301 65.3054 159.925 68.5635C162.62 71.9085 164.047 75.7893 164.047 79.8003C164.047 92.7169 149.589 102.462 130.417 102.462ZM130.749 38.256C130.013 38.256 129.264 38.3574 128.543 38.5456C126.366 39.1393 124.55 40.5439 123.426 42.4988L123.109 43.0491C121.955 45.0474 121.191 47.2194 120.831 49.5073L120.788 49.7535L120.572 49.8693C119.231 50.6223 118.121 51.7083 117.357 53.0405L117.054 53.5763C115.858 55.676 115.065 57.9494 114.719 60.3531L114.676 60.6572L114.387 60.7586C109.313 62.5686 105.09 65.291 102.192 68.6215C99.3093 71.9375 97.7813 75.7893 97.7813 79.7859C97.7813 92.1232 111.807 101.434 130.403 101.434C148.998 101.434 163.024 92.1232 163.024 79.7859C163.024 76.0065 161.683 72.3429 159.132 69.1862C156.566 66.0005 152.789 63.3216 148.191 61.4392L147.989 61.3523L147.903 61.1496C147.585 60.3676 147.211 59.5857 146.778 58.8472L139.21 45.67C139.095 45.4818 139.023 45.2646 138.98 45.0474C138.504 42.6581 137.019 40.5874 134.915 39.371C133.646 38.6325 132.204 38.256 130.749 38.256Z" fill="#E8E7E7"/>
<path d="M130.417 99.4649C112.946 99.4649 99.7705 91.0083 99.7705 79.8005C99.7705 75.9342 101.371 72.2417 104.398 69.1284C107.324 66.1165 111.504 63.7127 116.535 62.1489C116.679 59.499 117.443 56.8925 118.77 54.5901L119.087 54.0398C119.88 52.6497 121.134 51.6361 122.633 51.1293C122.835 48.6531 123.599 46.2059 124.838 44.0484L125.155 43.4981C126.02 41.9921 127.419 40.9206 129.076 40.4717C130.749 40.0228 132.493 40.2545 133.978 41.1233C135.578 42.0501 136.716 43.6429 137.091 45.4674C137.178 45.8874 137.336 46.3073 137.552 46.6838L145.135 59.861C145.683 60.8167 146.144 61.8303 146.504 62.8874C150.958 64.5671 154.634 66.9564 157.143 69.8235C159.737 72.763 161.092 76.2238 161.092 79.815C161.063 91.0083 147.888 99.4649 130.417 99.4649ZM130.734 41.2536C130.258 41.2536 129.783 41.3116 129.307 41.4419C127.894 41.8184 126.727 42.7306 125.992 43.9904L125.674 44.5407C124.464 46.6693 123.728 49.0875 123.584 51.5347L123.555 51.8967L123.209 51.9981C121.826 52.3891 120.658 53.2869 119.937 54.5466L119.62 55.0969C118.323 57.3558 117.602 59.9334 117.501 62.5398L117.487 62.9018L117.141 63.0032C112.124 64.5092 107.958 66.8695 105.104 69.8235C102.264 72.7485 100.765 76.1949 100.765 79.786C100.765 90.4291 113.508 98.4512 130.417 98.4512C147.311 98.4512 160.054 90.4291 160.054 79.8005C160.054 76.47 158.771 73.2409 156.35 70.4896C153.899 67.7093 150.295 65.378 145.884 63.7562L145.654 63.6693L145.582 63.4376C145.236 62.3661 144.789 61.338 144.227 60.3678L136.659 47.1906C136.385 46.7272 136.183 46.2059 136.068 45.6702C135.751 44.1208 134.799 42.7886 133.444 42.0066C132.608 41.5143 131.686 41.2536 130.734 41.2536Z" fill="#E8E7E7"/>
<path d="M130.417 96.4819C114.892 96.4819 102.74 89.1548 102.74 79.8005C102.74 73.0237 108.996 67.1736 119.044 64.5381C119.202 64.4947 119.361 64.4657 119.534 64.4513C119.26 61.5552 119.894 58.6157 121.336 56.0961L121.653 55.5458C122.273 54.4598 123.426 53.7937 124.666 53.7937C124.983 53.7937 125.285 53.8371 125.588 53.924C125.314 51.0279 125.949 48.0884 127.404 45.5543L127.722 45.0041C128.341 43.9325 129.495 43.252 130.734 43.252C130.922 43.252 131.109 43.2664 131.297 43.2954C132.724 43.5271 133.862 44.6421 134.151 46.0612C134.309 46.8141 134.569 47.5237 134.958 48.1898L142.526 61.3669C143.218 62.5688 143.722 63.8576 144.039 65.2042C152.847 68.1003 158.094 73.545 158.094 79.8005C158.094 84.3763 155.211 88.6046 149.978 91.7323C144.818 94.7877 137.884 96.4819 130.417 96.4819ZM119.937 65.4359C119.721 65.4359 119.519 65.4649 119.318 65.5228C109.717 68.0279 103.749 73.5015 103.749 79.8005C103.749 88.5901 115.469 95.4683 130.417 95.4683C145.366 95.4683 157.085 88.5901 157.085 79.8005C157.085 73.9359 151.982 68.8099 143.448 66.0731L143.175 65.9862L143.117 65.6966C142.829 64.3499 142.338 63.0611 141.661 61.8593L134.093 48.6821C133.661 47.9291 133.343 47.1037 133.17 46.2494C132.969 45.2358 132.147 44.4538 131.138 44.2801C131.008 44.2656 130.864 44.2511 130.734 44.2511C129.855 44.2511 129.033 44.729 128.601 45.4964L128.284 46.0467C126.799 48.6387 126.237 51.6795 126.713 54.6335L126.885 55.7051L125.963 55.1548C125.574 54.9232 125.141 54.8073 124.694 54.8073C123.815 54.8073 122.993 55.2852 122.561 56.0526L122.244 56.6029C120.817 59.0935 120.24 62.033 120.629 64.8712L120.701 65.4504H119.937V65.4359Z" fill="#E8E7E7"/>
<path d="M141.012 67.9272C140.94 66.233 140.464 64.5822 139.614 63.1197L132.046 49.9425C131.484 48.9579 131.066 47.8718 130.849 46.7568L130.532 47.3071C128.658 50.5652 128.658 54.5907 130.532 57.8488L136.587 68.3906C138.461 71.6487 138.461 75.6742 136.587 78.9323L136.269 79.4826C136.039 78.3676 135.635 77.2815 135.073 76.2969L129.523 66.6384L125.977 60.4698C125.415 59.4851 124.997 58.3991 124.781 57.2841L124.464 57.8344C122.59 61.078 122.59 65.089 124.449 68.3471L130.532 78.9178C132.406 82.1759 132.406 86.2015 130.532 89.4596L130.215 90.0098C129.985 88.8948 129.581 87.8088 129.019 86.8241L121.451 73.647C120.456 71.9093 119.966 69.9255 120.053 67.9272C111.951 70.0558 106.344 74.5737 106.344 79.8011C106.344 87.0848 117.169 92.9783 130.532 92.9783C143.895 92.9783 154.721 87.0848 154.721 79.8011C154.721 74.5737 149.128 70.0558 141.012 67.9272Z" fill="#E5E5E4"/>
<path d="M266.726 115.871H132.839V135.796L-1.79834 135.84V157.893C-1.79834 157.893 -1.82717 169 9.25803 169H255.655C255.655 169 266.683 168.913 266.683 157.893C266.683 146.874 266.726 115.871 266.726 115.871Z" fill="url(#paint0_linear_8698_1)"/>
</g>
<path d="M236.027 130H225V149.818H236.027V130Z" fill="#FF5F00"/>
<path d="M225.576 139.604C225.574 137.696 226.007 135.811 226.841 134.094C227.675 132.377 228.888 130.872 230.39 129.694C228.531 128.233 226.298 127.324 223.947 127.072C221.596 126.82 219.221 127.234 217.094 128.268C214.967 129.301 213.174 130.912 211.92 132.917C210.665 134.921 210 137.238 210 139.603C210 141.967 210.665 144.284 211.92 146.289C213.174 148.293 214.967 149.904 217.094 150.938C219.221 151.971 221.596 152.386 223.947 152.133C226.298 151.881 228.531 150.973 230.39 149.511C228.889 148.333 227.675 146.829 226.841 145.113C226.007 143.396 225.575 141.513 225.576 139.604Z" fill="#EB001B"/>
<path d="M250.392 139.606C250.392 141.971 249.726 144.288 248.472 146.292C247.217 148.297 245.423 149.908 243.296 150.941C241.169 151.975 238.794 152.389 236.443 152.136C234.092 151.884 231.859 150.975 230 149.513C231.501 148.334 232.714 146.829 233.548 145.113C234.382 143.396 234.815 141.513 234.815 139.604C234.815 137.696 234.382 135.812 233.548 134.096C232.714 132.379 231.501 130.875 230 129.695C231.859 128.234 234.092 127.325 236.443 127.072C238.794 126.82 241.169 127.234 243.296 128.267C245.423 129.3 247.217 130.911 248.472 132.916C249.726 134.92 250.392 137.238 250.392 139.602V139.606Z" fill="#F79E1B"/>
<path d="M249.252 147.49V147.084H249.417V147H249V147.084H249.179V147.49H249.252ZM250.061 147.49V147H249.935L249.788 147.35L249.641 147H249.529V147.49H249.62V147.123L249.756 147.441H249.851L249.987 147.123V147.494L250.061 147.49Z" fill="#F79E1B"/>
</g>
<defs>
<linearGradient id="paint0_linear_8698_1" x1="132.468" y1="115.87" x2="132.468" y2="169" gradientUnits="userSpaceOnUse">
<stop stop-color="#D6D6D6" stop-opacity="0"/>
<stop offset="1" stop-color="#B8B8B8"/>
</linearGradient>
<clipPath id="clip0_8698_1">
<rect width="269" height="170" fill="white" transform="translate(-2 -1)"/>
</clipPath>
</defs>
</svg>
