<svg width="266" height="168" viewBox="0 0 266 168" fill="none" xmlns="http://www.w3.org/2000/svg">
<mask id="mask0_8698_525" style="mask-type:alpha" maskUnits="userSpaceOnUse" x="0" y="0" width="266" height="168">
<path d="M256 0H10C4.47715 0 0 4.47715 0 10V158C0 163.523 4.47715 168 10 168H256C261.523 168 266 163.523 266 158V10C266 4.47715 261.523 0 256 0Z" fill="white"/>
</mask>
<g mask="url(#mask0_8698_525)">
<path d="M256 0H10C4.47715 0 0 4.47715 0 10V158C0 163.523 4.47715 168 10 168H256C261.523 168 266 163.523 266 158V10C266 4.47715 261.523 0 256 0Z" fill="#FF0000"/>
<g clip-path="url(#clip0_8698_525)">
<path d="M268 157.599V10.9404C268 4.89438 263.095 0 257.036 0H9.96428C3.90507 0 -1 4.89438 -1 10.9404V157.599C-1 163.645 3.90507 168.539 9.96428 168.539H257.036C263.095 168.539 268 163.645 268 157.599Z" fill="#DD4096"/>
<path d="M132.894 243.092C32.3403 243.092 -43.4863 172.181 -43.4863 78.1516C-43.4863 36.8948 -25.5107 -5.72949 4.61225 -35.8875C32.3259 -79.4763 81.5931 -106.554 133.212 -106.554H133.226C141.536 -106.554 149.918 -105.863 158.127 -104.51C197.699 -98.0605 239.536 -70.0618 262.258 -34.8223C291.718 -4.76501 309.304 37.4706 309.304 78.1516C309.289 172.181 233.448 243.092 132.894 243.092ZM133.212 -105.546C81.9105 -105.546 32.9463 -78.627 5.43457 -35.2973L5.40572 -35.2541L5.36244 -35.2109C-24.6018 -5.25445 -42.4765 37.1251 -42.4765 78.1516C-42.4765 171.605 32.9174 242.084 132.894 242.084C232.886 242.084 308.28 171.605 308.294 78.1516C308.294 37.7009 290.794 -4.27557 261.494 -34.1601L261.465 -34.2033L261.436 -34.2464C238.873 -69.2844 197.295 -97.1248 157.968 -103.531C149.802 -104.869 141.478 -105.546 133.212 -105.546Z" fill="#EB008B"/>
<path d="M132.895 240.284C33.942 240.284 -40.6729 170.583 -40.6729 78.151C-40.6729 37.4989 -22.928 -4.47758 6.8198 -34.1317C33.9997 -77.0727 82.4156 -103.747 133.198 -103.747H133.212C141.378 -103.747 149.586 -103.07 157.636 -101.746C196.588 -95.3978 237.733 -67.8022 260.008 -33.0665C289.092 -3.4987 306.462 38.0747 306.462 78.151C306.476 170.583 231.847 240.284 132.895 240.284ZM133.226 -102.739H133.212C82.733 -102.739 34.6344 -76.2234 7.64212 -33.5415L7.61327 -33.4984L7.56998 -33.4552C-22.0047 -3.98814 -39.663 37.7436 -39.663 78.151C-39.663 170.007 34.519 239.277 132.895 239.277C231.285 239.277 305.467 170.007 305.467 78.151C305.467 38.3051 288.198 -3.00926 259.272 -32.3899L259.229 -32.4331L259.2 -32.4763C237.07 -66.9961 196.199 -94.4334 157.492 -100.738C149.485 -102.077 141.32 -102.739 133.226 -102.739Z" fill="#EB008B"/>
<path d="M132.894 237.463C35.557 237.463 -37.8604 168.971 -37.8604 78.1369C-37.8604 38.0894 -20.3319 -3.21051 9.02638 -32.3752C35.658 -74.6828 83.2372 -100.954 133.197 -100.954H133.211C141.218 -100.954 149.283 -100.292 157.188 -98.9964C195.535 -92.7488 235.958 -65.5562 257.815 -31.3388C286.524 -2.27483 303.663 38.6364 303.663 78.1225C303.663 168.971 230.245 237.463 132.894 237.463ZM133.211 -99.932H133.197C83.5691 -99.932 36.2928 -73.8191 9.8487 -31.785L9.81985 -31.7419L9.77657 -31.6987C-19.423 -2.72108 -36.8649 38.3341 -36.8649 78.1369C-36.8649 168.395 36.1053 236.456 132.879 236.456C229.654 236.456 302.638 168.395 302.638 78.1369C302.638 38.8955 285.6 -1.77099 257.05 -30.6478L257.007 -30.691L256.978 -30.7342C235.28 -64.7645 195.116 -91.7843 157.015 -97.9887C149.182 -99.2699 141.175 -99.932 133.211 -99.932Z" fill="#EB008B"/>
<path d="M132.894 234.656C37.1589 234.656 -35.0322 167.373 -35.0322 78.1368C-35.0322 38.6939 -17.7346 -1.94388 11.263 -30.6048C37.3609 -72.2646 84.0889 -98.1328 133.226 -98.1328C133.241 -98.1328 133.241 -98.1328 133.255 -98.1328C141.103 -98.1328 149.009 -97.485 156.756 -96.2038C194.496 -90.0571 234.213 -63.282 255.622 -29.5539C283.927 -0.979393 300.835 39.2697 300.835 78.1512C300.835 100.018 296.536 120.905 288.053 140.252C279.83 159.024 267.943 175.722 252.751 189.873C237.56 204.023 219.642 215.093 199.502 222.751C178.757 230.654 156.338 234.656 132.894 234.656ZM133.226 -97.1251C133.212 -97.1251 133.212 -97.1251 133.197 -97.1251C84.3919 -97.1251 37.9668 -71.4153 12.0709 -30.0146L12.0421 -29.9714L11.9988 -29.9282C-16.8257 -1.44004 -34.0368 38.953 -34.0368 78.1512C-34.0368 166.797 37.7216 233.663 132.88 233.663C156.208 233.663 178.497 229.675 199.142 221.83C219.166 214.215 236.969 203.217 252.059 189.153C267.149 175.089 278.95 158.505 287.13 139.864C295.555 120.646 299.826 99.888 299.826 78.1656C299.826 39.5288 283.004 -0.475563 254.829 -28.863L254.785 -28.9061L254.757 -28.9493C233.521 -62.4902 194.049 -89.107 156.569 -95.2106C148.879 -96.4774 141.017 -97.1251 133.226 -97.1251Z" fill="#EB008B"/>
<path d="M132.894 231.677C38.861 231.677 -32.0605 165.675 -32.0605 78.1375C-32.0605 39.3567 -14.9938 -0.590073 13.5855 -28.7327C39.1207 -69.7016 84.9399 -95.1523 133.197 -95.1523C133.212 -95.1523 133.212 -95.1523 133.226 -95.1523C140.915 -95.1523 148.648 -94.519 156.237 -93.2666C193.313 -87.2206 232.294 -60.8773 253.242 -27.6819C281.186 0.360016 297.863 39.9181 297.863 78.1518C297.863 165.675 226.927 231.677 132.894 231.677ZM133.226 -94.1447C133.212 -94.1447 133.212 -94.1447 133.197 -94.1447C85.2717 -94.1447 39.7555 -68.8523 14.4222 -28.1425L14.3934 -28.085L14.3501 -28.0418C-14.0705 -0.086235 -31.0507 39.6158 -31.0507 78.1518C-31.0507 165.113 39.4237 230.684 132.894 230.684C226.365 230.684 296.853 165.113 296.853 78.1518C296.853 40.1628 280.277 0.849449 252.491 -27.0053L252.448 -27.0485L252.419 -27.0917C231.616 -60.0712 192.909 -86.2705 156.078 -92.2589C148.547 -93.5113 140.858 -94.1447 133.226 -94.1447Z" fill="#EB008B"/>
<path d="M132.894 228.711C40.5634 228.711 -29.0742 163.99 -29.0742 78.1515C-29.0742 40.0042 -12.2527 0.762756 15.937 -26.8473C40.8952 -67.1395 85.8199 -92.1729 133.197 -92.1729C140.728 -92.1729 148.316 -91.5539 155.746 -90.3159C192.173 -84.385 230.404 -58.4592 250.89 -25.8108C278.431 1.69845 294.863 40.5656 294.863 78.1515C294.877 163.976 225.239 228.711 132.894 228.711ZM133.197 -91.1652C86.1373 -91.1652 41.53 -66.3046 16.7594 -26.2715L16.7305 -26.2139L16.6872 -26.1707C-11.3294 1.2522 -28.0644 40.2489 -28.0644 78.1515C-28.0644 163.414 41.126 227.704 132.894 227.704C224.662 227.704 293.867 163.414 293.867 78.1515C293.867 40.8103 277.522 2.20228 250.14 -25.1343L250.097 -25.1774L250.068 -25.2206C229.741 -57.6675 191.769 -83.4206 155.587 -89.3226C148.215 -90.5462 140.685 -91.1652 133.197 -91.1652Z" fill="#EB008B"/>
<path d="M132.894 225.731C42.2658 225.731 -26.0879 162.291 -26.0879 78.1512C-26.0879 40.6516 -9.4972 2.10118 18.2886 -24.9762C42.6697 -64.5919 86.7 -89.1934 133.197 -89.1934H133.212C140.569 -89.1934 147.985 -88.5888 155.256 -87.394C191.034 -81.5639 228.514 -56.0699 248.539 -23.9542C275.675 3.03687 291.876 41.1986 291.876 78.1512C291.891 162.277 223.537 225.731 132.894 225.731ZM133.226 -88.1857H133.212C87.0318 -88.1857 43.3189 -63.7426 19.1254 -24.4004L19.0965 -24.3429L19.0532 -24.2997C-8.58832 2.59062 -25.078 40.8963 -25.078 78.1512C-25.078 161.715 42.8284 224.723 132.894 224.723C222.96 224.723 290.881 161.715 290.881 78.1512C290.881 41.4433 274.766 3.52631 247.788 -23.2776L247.745 -23.3208L247.716 -23.364C227.851 -55.2782 190.63 -80.6138 155.097 -86.4007C147.884 -87.5955 140.526 -88.1857 133.226 -88.1857Z" fill="#EB008B"/>
<path d="M132.894 222.752C43.9681 222.752 -23.1016 160.593 -23.1016 78.1516C-23.1016 41.2854 -6.74169 3.44035 20.6402 -23.1045C44.4586 -62.0436 87.58 -86.2275 133.197 -86.2275C133.212 -86.2275 133.212 -86.2275 133.226 -86.2275C140.425 -86.2275 147.682 -85.6373 154.78 -84.4569C189.909 -78.742 226.639 -53.6799 246.201 -22.0824C272.949 4.37604 288.919 41.8468 288.919 78.1516C288.904 160.579 221.835 222.752 132.894 222.752ZM133.226 -85.2199C133.212 -85.2199 133.212 -85.2199 133.197 -85.2199C87.8974 -85.2199 45.0934 -61.1942 21.4625 -22.5286L21.4336 -22.4711L21.3904 -22.4279C-5.84724 3.92979 -22.1061 41.5301 -22.1061 78.1516C-22.1061 160.017 44.5308 221.744 132.88 221.744C221.243 221.744 287.895 160.017 287.895 78.1516C287.895 42.0771 272.025 4.86547 245.437 -21.4058L245.394 -21.449L245.365 -21.5066C225.961 -52.8882 189.49 -77.7775 154.606 -83.4637C147.566 -84.6297 140.367 -85.2199 133.226 -85.2199Z" fill="#EB008B"/>
<path d="M132.894 219.772C45.656 219.772 -20.1152 158.88 -20.1152 78.1513C-20.1152 41.9329 -4.00063 4.79319 23.0061 -21.2334C46.2475 -59.4815 88.4744 -83.248 133.226 -83.248H133.24C140.281 -83.248 147.364 -82.6722 154.318 -81.5206C188.798 -75.9065 224.778 -51.2762 243.879 -20.2257C270.222 5.71449 285.961 42.4799 285.961 78.1513C285.918 158.88 220.132 219.772 132.894 219.772ZM133.212 -82.2404C88.7774 -82.2404 46.8679 -58.6466 23.814 -20.6576L23.7852 -20.6L23.7419 -20.5568C-3.09174 5.28263 -19.1054 42.1776 -19.1054 78.1513C-19.1054 158.318 46.2475 218.764 132.894 218.764C219.555 218.764 284.923 158.304 284.923 78.1513C284.923 42.7246 269.284 6.20393 243.1 -19.5491L243.056 -19.5923L243.028 -19.6499C224.085 -50.4845 188.365 -74.9564 154.145 -80.5274C147.234 -81.6646 140.194 -82.2404 133.212 -82.2404Z" fill="#EB008B"/>
<path d="M132.894 216.792C47.3582 216.792 -17.1436 157.182 -17.1436 78.1373C-17.1436 42.5667 -1.25977 6.11795 25.343 -19.376C48.0074 -56.9476 89.3254 -80.2822 133.197 -80.2822C133.197 -80.2822 133.197 -80.2822 133.211 -80.2822C140.093 -80.2822 147.018 -79.7208 153.798 -78.598C187.629 -73.0846 222.873 -48.8862 241.484 -18.3683C267.437 7.03925 282.932 43.1137 282.932 78.1373C282.932 97.4989 279.094 116.011 271.52 133.156C264.162 149.782 253.559 164.581 239.983 177.119C226.408 189.657 210.409 199.46 192.404 206.255C173.866 213.251 153.842 216.792 132.894 216.792ZM133.211 -79.2602C89.6572 -79.2602 48.6566 -56.0838 26.1798 -18.7858L26.1509 -18.7282L26.1077 -18.685C-0.350889 6.62179 -16.1337 42.8258 -16.1337 78.1517C-16.1337 156.62 47.9352 215.799 132.894 215.799C153.726 215.799 173.621 212.272 192.043 205.319C209.918 198.582 225.816 188.851 239.291 176.399C252.765 163.947 263.297 149.279 270.597 132.767C278.113 115.752 281.936 97.3837 281.922 78.1517C281.922 43.3728 266.528 7.54308 240.734 -17.6774L240.69 -17.7206L240.661 -17.7781C222.181 -48.0801 187.211 -72.1201 153.625 -77.5903C146.902 -78.6987 140.035 -79.2602 133.211 -79.2602Z" fill="#EB008B"/>
<path d="M132.894 213.812C49.0605 213.812 -14.1572 155.497 -14.1572 78.1372C-14.1572 43.2144 1.4813 7.45663 27.6946 -17.4903C49.7819 -54.3709 90.2054 -77.2881 133.197 -77.2881C139.92 -77.2881 146.686 -76.7267 153.308 -75.6326C186.489 -70.2344 220.969 -46.4679 239.132 -16.4826C264.696 8.39233 279.96 43.7758 279.96 78.1516C279.945 155.497 216.727 213.812 132.894 213.812ZM133.197 -76.2804C90.5373 -76.2804 50.4311 -53.536 28.5169 -16.9145L28.4881 -16.8569L28.4448 -16.8137C2.40461 7.96047 -13.1474 43.4591 -13.1474 78.1372C-13.1474 154.907 49.6376 212.805 132.894 212.805C216.165 212.805 278.95 154.907 278.95 78.1372C278.95 43.9917 263.787 8.86737 238.382 -15.8204L238.339 -15.8636L238.31 -15.9212C220.305 -45.6906 186.085 -69.2843 153.163 -74.6538C146.571 -75.7334 139.862 -76.2804 133.197 -76.2804Z" fill="#EB008B"/>
<path d="M132.894 210.846C50.7629 210.846 -11.1709 153.798 -11.1709 78.1513C-11.1709 43.8619 4.23681 8.82386 30.0462 -15.6048C51.5564 -51.8088 91.0855 -74.3086 133.197 -74.3086H133.211C139.761 -74.3086 146.354 -73.7616 152.817 -72.6963C185.364 -67.3989 219.094 -44.0498 236.766 -14.6116C261.941 9.74516 276.959 44.4233 276.959 78.1657C276.959 96.7067 273.266 114.413 265.995 130.823C258.94 146.745 248.74 160.895 235.699 172.901C222.657 184.906 207.292 194.278 190.009 200.784C172.221 207.449 153.005 210.846 132.894 210.846ZM133.211 -73.3009H133.197C91.4029 -73.3009 52.2056 -50.9739 30.8685 -15.029L30.8396 -14.9715L30.7819 -14.9283C5.14569 9.31329 -10.161 44.1066 -10.161 78.1513C-10.161 153.222 51.34 209.839 132.894 209.839C152.889 209.839 171.99 206.47 189.678 199.82C206.831 193.371 222.094 184.057 235.035 172.138C247.976 160.233 258.089 146.183 265.086 130.392C272.299 114.125 275.964 96.5484 275.964 78.1513C275.964 44.6536 261.032 10.2346 236.03 -13.9494L235.987 -13.9926L235.958 -14.0502C218.43 -43.2725 184.96 -66.4488 152.673 -71.7031C146.253 -72.7683 139.703 -73.3009 133.211 -73.3009Z" fill="#EB008B"/>
<path d="M132.894 207.867C52.4652 207.867 -8.18457 152.1 -8.18457 78.152C-8.18457 44.5103 6.9923 10.1633 32.4121 -13.7328C53.3597 -49.2602 91.9655 -71.3281 133.211 -71.3281H133.226C139.617 -71.3281 146.037 -70.7955 152.341 -69.759C184.239 -64.5624 217.218 -41.6596 234.429 -12.7539C259.214 11.0702 274.001 45.0429 274.001 78.152C273.987 152.1 213.323 207.867 132.894 207.867ZM133.211 -70.3349C92.2829 -70.3349 53.98 -48.4253 33.2345 -13.1714L33.1912 -13.1138L33.1335 -13.0706C7.88676 10.6527 -7.18913 44.755 -7.18913 78.152C-7.18913 151.524 53.0279 206.86 132.88 206.86C212.746 206.86 272.963 151.524 272.963 78.152C272.963 45.2876 258.262 11.5596 233.65 -12.0774L233.607 -12.1205L233.578 -12.1781C216.526 -40.8822 183.806 -63.6267 152.168 -68.7802C145.921 -69.8022 139.545 -70.3349 133.211 -70.3349Z" fill="#EB008B"/>
<path d="M132.894 204.887C54.1676 204.887 -5.19824 150.401 -5.19824 78.1513C-5.19824 45.1431 9.74781 11.5014 34.7637 -11.862C55.1197 -46.7129 92.8311 -68.3633 133.197 -68.3633C133.197 -68.3633 133.197 -68.3633 133.211 -68.3633C139.429 -68.3633 145.705 -67.8451 151.836 -66.8374C183.084 -61.7415 215.314 -39.2705 232.049 -10.8975C256.444 12.3939 271.001 45.6757 271.001 78.1513C271.001 95.8575 267.466 112.772 260.484 128.434C253.717 143.635 243.951 157.152 231.443 168.625C218.949 180.084 204.22 189.052 187.658 195.256C170.591 201.648 152.168 204.887 132.894 204.887ZM133.211 -67.3556C93.1773 -67.3556 55.7689 -45.8779 35.6004 -11.3006L35.5571 -11.243L35.4994 -11.1854C10.6423 12.0053 -4.2028 45.3878 -4.2028 78.1513C-4.2028 149.825 54.7302 203.879 132.88 203.879C170.692 203.879 205.46 191.096 230.765 167.877C243.157 156.505 252.852 143.103 259.56 128.016C266.485 112.484 269.991 95.6991 269.991 78.1369C269.991 45.9204 255.535 12.8834 231.313 -10.221L231.255 -10.2642L231.226 -10.3217C214.65 -38.4788 182.68 -60.7914 151.692 -65.8297C145.589 -66.8374 139.372 -67.3556 133.211 -67.3556Z" fill="#EB008B"/>
<path d="M132.894 201.907C55.8699 201.907 -2.21191 148.702 -2.21191 78.1513C-2.21191 45.7764 12.4889 12.8401 37.1297 -9.97629C56.9086 -44.1506 93.7111 -65.3691 133.197 -65.3691H133.211C139.271 -65.3691 145.373 -64.8653 151.346 -63.8864C181.959 -58.9057 213.424 -36.8522 229.683 -9.02621C253.689 13.7327 268.014 46.3235 268.014 78.1513C268.014 148.702 209.918 201.907 132.894 201.907ZM133.211 -64.3759C94.0429 -64.3759 57.5434 -43.3156 37.9664 -9.41488L37.9231 -9.3429L37.8654 -9.28532C13.3978 13.344 -1.20205 46.0356 -1.20205 78.1513C-1.20205 148.127 56.447 200.899 132.894 200.899C209.355 200.899 267.019 148.127 267.019 78.1513C267.019 46.5682 252.794 14.2365 228.947 -8.34963L228.889 -8.39281L228.846 -8.4504C212.746 -36.0748 181.526 -57.9412 151.187 -62.8932C145.272 -63.872 139.213 -64.3759 133.211 -64.3759Z" fill="#EB008B"/>
<path d="M132.895 198.928C57.573 198.928 0.760742 147.004 0.760742 78.1517C0.760742 46.4246 15.2307 14.1937 39.482 -8.1045L39.6551 -8.4212C58.9003 -41.7174 94.7362 -62.4033 133.198 -62.4033H133.212C139.113 -62.4033 145.042 -61.9139 150.87 -60.9638C180.835 -56.0838 211.549 -34.4766 227.332 -7.16881C250.934 15.0574 265.029 46.9573 265.029 78.1517C265.029 147.004 208.216 198.928 132.895 198.928ZM133.212 -61.3957C95.1113 -61.3957 59.5928 -40.9112 40.5351 -7.91737L40.2754 -7.47111L40.2177 -7.41353C16.1396 14.6832 1.77061 46.6838 1.77061 78.1517C1.77061 146.428 58.1357 197.92 132.895 197.92C207.654 197.92 264.033 146.428 264.033 78.1517C264.033 47.202 250.039 15.5613 226.596 -6.47784L226.538 -6.53542L226.495 -6.593C210.871 -33.6704 180.402 -55.1193 150.712 -59.9561C144.941 -60.9062 139.055 -61.3957 133.212 -61.3957Z" fill="#EB008B"/>
<path d="M132.895 195.948C59.2754 195.948 3.74707 145.305 3.74707 78.137C3.74707 47.0577 17.9862 15.5177 41.8479 -6.23346L42.2519 -6.95322C60.9489 -39.3137 95.8037 -59.4238 133.198 -59.4238H133.212C138.94 -59.4238 144.725 -58.9488 150.38 -58.0131C179.695 -53.2339 209.659 -32.0585 224.966 -5.29776C248.193 16.3958 262.057 47.5903 262.057 78.1514C262.042 145.305 206.529 195.948 132.895 195.948ZM133.212 -58.4162C96.1644 -58.4162 61.6414 -38.4932 43.1175 -6.43499L42.627 -5.58567L42.5693 -5.52809C18.8951 16.036 4.75694 47.3168 4.75694 78.1514C4.75694 144.744 59.838 194.954 132.895 194.954C205.951 194.954 261.047 144.744 261.047 78.1514C261.047 47.8494 247.284 16.8997 224.216 -4.6068L224.158 -4.66438L224.115 -4.73635C208.967 -31.2812 179.262 -52.2982 150.207 -57.0342C144.609 -57.9555 138.896 -58.4162 133.212 -58.4162Z" fill="#EB008B"/>
<path d="M132.895 192.967C60.9777 192.967 6.7334 143.606 6.7334 78.1367C6.7334 47.6908 20.7417 16.8706 44.1995 -4.348C44.488 -4.85183 44.8343 -5.47083 44.8487 -5.47083C63.0263 -36.91 96.8858 -56.4443 133.212 -56.4443H133.227C138.795 -56.4443 144.407 -55.9837 149.904 -55.0768C164.013 -52.7736 178.397 -46.6412 191.496 -37.3131C204.567 -28.0138 215.329 -16.296 222.6 -3.4267C245.437 17.7343 259.071 48.2234 259.071 78.1511C259.071 109.821 246.245 138.928 222.932 160.118C199.647 181.307 167.663 192.967 132.895 192.967ZM133.212 -55.4367H133.198C97.232 -55.4367 63.7044 -36.0895 45.7143 -4.967C45.7143 -4.9526 45.3248 -4.29042 45.0363 -3.78658L44.993 -3.71461L44.9353 -3.65703C21.6362 17.3744 7.74327 47.9499 7.74327 78.1367C7.74327 143.03 61.5404 191.96 132.895 191.96C167.418 191.96 199.157 180.386 222.254 159.369C245.336 138.366 258.061 109.518 258.061 78.1367C258.061 48.4681 244.528 18.2237 221.85 -2.76453L221.792 -2.82211L221.749 -2.89408C207.077 -28.9063 178.137 -49.4914 149.731 -54.1123C144.277 -54.9904 138.723 -55.4367 133.212 -55.4367Z" fill="#EB008B"/>
<path d="M132.895 190.002C62.6657 190.002 9.71973 141.922 9.71973 78.1515C9.71973 48.3533 23.4972 18.2385 46.5655 -2.44743C46.8252 -2.89368 47.4167 -3.93014 47.4455 -3.97332C65.0749 -34.5056 97.9389 -53.4785 133.198 -53.4785C133.198 -53.4785 133.198 -53.4785 133.212 -53.4785C138.622 -53.4785 144.061 -53.0323 149.399 -52.1542C163.191 -49.9085 177.228 -43.8913 189.996 -34.7647C202.734 -25.6525 213.179 -14.1795 220.22 -1.56932C242.682 19.059 256.084 48.8572 256.084 78.1515C256.084 141.908 203.124 190.002 132.895 190.002ZM133.212 -52.4708C98.2996 -52.4708 65.7674 -33.6995 48.2967 -3.48389C48.2967 -3.46949 47.6042 -2.28908 47.3878 -1.90041L47.3445 -1.82843L47.2868 -1.77085C24.3917 18.7424 10.7152 48.6125 10.7152 78.1515C10.7152 141.347 63.2427 188.995 132.88 188.995C202.532 188.995 255.06 141.347 255.06 78.1515C255.06 49.1163 241.759 19.5629 219.469 -0.878349L219.412 -0.935928L219.368 -1.0079C205.187 -26.4875 176.997 -46.6408 149.24 -51.1609C143.96 -52.0246 138.564 -52.4708 133.212 -52.4708Z" fill="#EB008B"/>
<path d="M132.895 187.022C64.3678 187.022 12.6914 140.209 12.6914 78.1512C12.6914 49.0008 26.2236 19.577 48.9168 -0.56197C49.2053 -1.0802 49.4939 -1.58403 49.7824 -2.08786L50.0132 -2.49093C67.1233 -32.1019 98.9918 -50.499 133.198 -50.499C133.198 -50.499 133.198 -50.499 133.212 -50.499C138.463 -50.499 143.743 -50.0672 148.908 -49.2178C162.383 -47.0298 176.088 -41.1421 188.509 -32.2027C200.902 -23.292 211.044 -12.0494 217.839 0.28735C239.912 20.3831 253.098 49.4759 253.098 78.1368C253.098 140.209 201.421 187.022 132.895 187.022ZM133.212 -49.4914C133.198 -49.4914 133.198 -49.4914 133.212 -49.4914C99.3669 -49.4914 67.8158 -31.2958 50.8933 -2.00149L50.6624 -1.59843C50.3595 -1.0802 50.0565 -0.547573 49.768 -0.0149498L49.7247 0.0570259L49.6381 0.129002C27.1325 20.0808 13.6868 49.2455 13.6868 78.1512C13.6868 139.648 64.9304 186.015 132.88 186.015C200.83 186.015 252.073 139.648 252.073 78.1512C252.073 49.7494 238.988 20.9013 217.089 0.992714L217.031 0.935135L216.988 0.863159C203.282 -24.0694 175.857 -43.7908 148.735 -48.2102C143.628 -49.0595 138.391 -49.4914 133.212 -49.4914Z" fill="#EB008B"/>
<path d="M132.895 184.043C66.0701 184.043 15.6777 138.511 15.6777 78.1518C15.6777 49.6492 28.9791 20.9308 51.2684 1.32446C51.629 0.662277 52.0041 0.0144882 52.3504 -0.604507L52.5812 -1.00757C69.1575 -29.6973 100.045 -47.5186 133.183 -47.5186H133.198C138.276 -47.5186 143.397 -47.1011 148.403 -46.2662C161.56 -44.1213 174.919 -38.3632 186.995 -29.6253C199.07 -20.9162 208.909 -9.91822 215.458 2.15938C237.156 21.7225 250.111 50.1099 250.111 78.1374C250.111 138.511 199.719 184.043 132.895 184.043ZM133.212 -46.5109H133.198C100.42 -46.5109 69.8644 -28.8911 53.4757 -0.518135L53.2448 -0.115067C52.8697 0.518322 52.4946 1.1949 52.1195 1.87148L52.0763 1.94345L52.0041 2.00103C29.888 21.4346 16.6876 49.894 16.6876 78.1518C16.6876 137.95 66.6472 183.035 132.895 183.035C199.142 183.035 249.116 137.95 249.116 78.1518C249.116 50.3834 236.262 22.2407 214.737 2.86474L214.679 2.80716L214.636 2.73519C201.421 -21.6647 174.761 -40.9543 148.273 -45.2585C143.296 -46.0934 138.232 -46.5109 133.212 -46.5109Z" fill="#EB008B"/>
<path d="M132.895 181.063C67.7725 181.063 18.6641 136.812 18.6641 78.1371C18.6641 50.2679 31.7346 22.2692 53.6488 3.20991C54.0816 2.41817 54.5144 1.64083 54.9616 0.877888L55.2069 0.460426C71.2493 -27.2936 101.141 -44.5391 133.226 -44.5391C133.226 -44.5391 133.226 -44.5391 133.241 -44.5391C138.16 -44.5391 143.109 -44.136 147.97 -43.3299C160.825 -41.2426 173.823 -35.614 185.566 -27.0633C197.281 -18.5413 206.802 -7.78804 213.121 4.03044C234.444 23.0465 247.154 50.743 247.154 78.1371C247.125 136.826 198.017 181.063 132.895 181.063ZM133.212 -43.5314C101.488 -43.5314 71.9274 -26.473 56.058 0.96426L55.8128 1.38172C55.3655 2.15906 54.9183 2.9508 54.4711 3.77133L54.4278 3.8577L54.3557 3.91528C32.6435 22.7874 19.6739 50.5414 19.6739 78.1515C19.6739 136.251 68.3496 180.07 132.895 180.07C197.44 180.07 246.115 136.251 246.115 78.1515C246.115 51.0021 233.492 23.5648 212.342 4.73581L212.27 4.67823L212.227 4.59185C199.503 -19.2754 173.607 -38.1332 147.768 -42.3366C142.979 -43.1283 138.074 -43.5314 133.212 -43.5314Z" fill="#EB008B"/>
<path d="M132.895 178.083C69.4749 178.083 21.6504 135.114 21.6504 78.1372C21.6504 50.9158 34.4901 23.6225 56.0148 5.09583C56.5053 4.17454 57.0246 3.26764 57.544 2.36074L57.7892 1.92888C73.2979 -24.9182 102.195 -41.5879 133.212 -41.5879C137.973 -41.5879 142.762 -41.1992 147.451 -40.4219C159.988 -38.3778 172.64 -32.8788 184.052 -24.5295C195.42 -16.1947 204.638 -5.6862 210.712 5.87317C231.66 24.3566 244.153 51.3621 244.153 78.1228C244.139 135.128 196.314 178.083 132.895 178.083ZM133.212 -40.5658C102.555 -40.5658 73.9904 -24.0833 58.6548 2.44711L58.4096 2.87897C57.8758 3.80026 57.3564 4.73595 56.8515 5.67164L56.8082 5.75801L56.7361 5.81559C35.399 24.1407 22.6458 51.1894 22.6458 78.1516C22.6458 134.552 70.0375 177.09 132.88 177.09C195.737 177.09 243.129 134.552 243.129 78.1516C243.129 51.65 230.722 24.9037 209.962 6.59293L209.89 6.53535L209.847 6.44898C197.627 -16.8713 172.481 -35.2972 147.278 -39.3998C142.647 -40.1772 137.915 -40.5658 133.212 -40.5658Z" fill="#EB008B"/>
<path d="M132.895 175.118C71.1772 175.118 24.6367 133.43 24.6367 78.1518C24.6367 51.5782 37.2456 24.9902 58.3807 7.01059C58.9145 6.00293 59.4916 4.98086 60.1119 3.87243L60.3572 3.44057C75.3321 -22.4708 103.248 -38.5791 133.198 -38.5791C137.785 -38.5791 142.416 -38.2048 146.946 -37.4563C159.18 -35.4697 171.486 -30.1003 182.537 -21.9382C193.559 -13.8049 202.46 -3.52672 208.288 7.77354C228.861 25.7244 241.138 52.0245 241.138 78.1518C241.138 104.884 230.13 129.471 210.135 147.364C190.169 165.272 162.729 175.118 132.895 175.118ZM133.212 -37.5714C103.608 -37.5714 76.039 -21.6647 61.2372 3.9444L60.992 4.37626C60.3572 5.49909 59.7801 6.53555 59.2319 7.55761L59.1886 7.64398L59.1165 7.70156C38.1545 25.4941 25.6466 51.8229 25.6466 78.1374C25.6466 132.839 71.7543 174.096 132.895 174.096C162.484 174.096 189.678 164.336 209.486 146.616C229.265 128.909 240.157 104.596 240.157 78.1518C240.157 52.2836 227.981 26.2282 207.582 8.46451L207.509 8.40693L207.466 8.32055C195.737 -14.4671 171.371 -32.4755 146.816 -36.463C142.315 -37.1972 137.742 -37.5714 133.212 -37.5714Z" fill="#EB008B"/>
<path d="M132.895 172.138C72.8796 172.138 27.623 131.73 27.623 78.1513C27.623 52.2111 40.0156 26.3284 60.7612 8.89579C61.3959 7.6722 62.0596 6.4774 62.7088 5.35457L62.9684 4.90832C77.3951 -20.0818 104.315 -35.6143 133.198 -35.6143C137.627 -35.6143 142.084 -35.2544 146.456 -34.5346C158.372 -32.5913 170.332 -27.3514 181.051 -19.3764C191.741 -11.4303 200.325 -1.39679 205.908 9.64435C226.105 27.0482 238.166 52.6573 238.166 78.1513C238.181 131.73 192.91 172.138 132.895 172.138ZM133.212 -34.6066C133.212 -34.6066 133.198 -34.6066 133.212 -34.6066C104.676 -34.6066 78.102 -19.2757 63.834 5.41215L63.5744 5.8584C62.9107 6.99563 62.2471 8.20482 61.5979 9.45721L61.5546 9.54358L61.4825 9.60116C40.91 26.8466 28.6185 52.4702 28.6185 78.1513C28.6185 131.154 73.4422 171.13 132.88 171.13C192.333 171.13 237.156 131.154 237.156 78.1513C237.156 52.902 225.197 27.552 205.172 10.3353L205.1 10.2633L205.057 10.177C193.833 -12.0781 170.231 -29.6402 146.311 -33.5269C141.983 -34.2467 137.583 -34.6066 133.212 -34.6066Z" fill="#EB008B"/>
<path d="M132.894 169.158C74.5817 169.158 30.5947 130.032 30.5947 78.1512C30.5947 52.8588 42.7564 27.6959 63.1269 10.7959C63.805 9.47153 64.5263 8.14717 65.2765 6.8516L65.5362 6.40535C79.4435 -17.6635 105.368 -32.6201 133.197 -32.6201C137.468 -32.6201 141.767 -32.2746 145.965 -31.5693C157.564 -29.6835 169.177 -24.5732 179.55 -16.7854C189.88 -9.04073 198.161 0.748028 203.499 11.5301C223.335 28.3869 235.18 53.2906 235.18 78.1656C235.18 103.271 224.778 126.346 205.879 143.146C187.009 159.916 161.084 169.158 132.894 169.158ZM133.212 -31.6268C133.212 -31.6268 133.197 -31.6268 133.212 -31.6268C105.743 -31.6268 80.1504 -16.8717 66.4162 6.89479L66.1565 7.34104C65.3919 8.65101 64.6561 10.0042 63.9781 11.3429L63.9348 11.4293L63.8482 11.5013C43.6653 28.2141 31.6046 53.1179 31.6046 78.1512C31.6046 129.456 75.1443 168.15 132.894 168.15C160.839 168.15 186.518 158.995 205.215 142.368C223.898 125.756 234.184 102.954 234.184 78.1368C234.184 53.5209 222.441 28.8763 202.777 12.1922L202.691 12.1203L202.647 12.0195C191.928 -9.68852 169.091 -26.8332 145.806 -30.6192C141.666 -31.2814 137.424 -31.6268 133.212 -31.6268Z" fill="#EB008B"/>
<path d="M132.894 166.178C76.284 166.178 33.5811 128.333 33.5811 78.1372C33.5811 53.4925 45.5119 29.0207 65.5073 12.6821C66.2575 11.1994 67.051 9.73105 67.8589 8.32032L68.1185 7.85967C81.5065 -15.2735 106.436 -29.6543 133.197 -29.6543C133.197 -29.6543 133.197 -29.6543 133.212 -29.6543C137.309 -29.6543 141.449 -29.3088 145.489 -28.6466C156.785 -26.804 168.052 -21.8233 178.079 -14.237C188.062 -6.67951 196.026 2.86452 201.104 13.373C220.58 29.6972 232.208 53.8956 232.208 78.1372C232.208 128.333 189.505 166.178 132.894 166.178ZM133.212 -28.6466C106.796 -28.6466 82.199 -14.4529 68.9986 8.3779L68.7389 8.83855C67.9166 10.2637 67.1087 11.7464 66.3585 13.2435L66.3152 13.3443L66.2286 13.4162C46.4208 29.5533 34.5909 53.7661 34.5909 78.1516C34.5909 127.772 76.8467 165.185 132.894 165.185C188.942 165.185 231.212 127.772 231.212 78.1516C231.212 54.1691 219.685 30.2155 200.397 14.0784L200.31 14.0064L200.267 13.9057C195.247 3.49792 187.37 -5.95975 177.487 -13.4453C167.591 -20.9308 156.482 -25.854 145.345 -27.6678C141.334 -28.3155 137.266 -28.6466 133.212 -28.6466Z" fill="#EB008B"/>
<path d="M132.894 163.198C77.972 163.198 36.5674 126.634 36.5674 78.1366C36.5674 54.1254 48.2819 30.3876 67.8877 14.5961C68.6956 12.9694 69.5612 11.3571 70.4557 9.81685L70.7298 9.3562C83.5695 -12.87 107.518 -26.6895 133.212 -26.6895C137.15 -26.6895 141.118 -26.3584 145.013 -25.725C155.991 -23.94 166.912 -19.0744 176.593 -11.6896C186.23 -4.31927 193.876 4.98006 198.709 15.2295C217.824 31.0066 229.236 54.514 229.236 78.1366C229.221 126.634 187.802 163.198 132.894 163.198ZM133.212 -25.6674C133.197 -25.6674 133.197 -25.6674 133.212 -25.6674C107.864 -25.6674 84.262 -12.0495 71.5954 9.86004L71.3213 10.3207C70.4124 11.8754 69.5468 13.4876 68.7389 15.1431L68.6956 15.2439L68.6091 15.3158C49.1763 30.9203 37.5628 54.3989 37.5628 78.151C37.5628 126.073 78.5346 162.205 132.88 162.205C187.225 162.205 228.211 126.073 228.211 78.151C228.211 54.7876 216.901 31.5393 197.959 15.9492L197.872 15.8772L197.829 15.7765C193.068 5.62784 185.508 -3.58511 175.972 -10.8691C166.436 -18.1675 155.66 -22.9467 144.84 -24.7173C141.002 -25.3507 137.093 -25.6674 133.212 -25.6674Z" fill="#EB008B"/>
<path d="M132.894 160.233C79.6743 160.233 39.5537 124.951 39.5537 78.1517C39.5537 54.7882 51.0374 31.7558 70.2826 16.5113C71.177 14.6831 72.1003 12.9413 73.0381 11.3146L73.3122 10.8396C85.6181 -10.4654 108.571 -23.709 133.212 -23.709C136.992 -23.709 140.8 -23.3923 144.522 -22.7877C155.198 -21.0459 165.773 -16.3242 175.092 -9.11222C184.369 -1.9434 191.698 7.1256 196.285 17.1159C215.04 32.346 226.249 55.1481 226.249 78.1517C226.249 100.795 216.757 121.611 199.502 136.769C182.262 151.884 158.617 160.233 132.894 160.233ZM133.212 -22.7013C108.932 -22.7013 86.3106 -9.65924 74.1778 11.3434L73.9037 11.8184C72.9515 13.4451 72.0282 15.2157 71.1337 17.0439L71.0904 17.1447L71.0039 17.2166C51.9318 32.2741 40.5492 55.0473 40.5492 78.1517C40.5492 124.375 80.237 159.226 132.88 159.226C158.357 159.226 181.772 150.977 198.824 136.006C215.848 121.049 225.225 100.493 225.225 78.1517C225.225 55.4072 214.131 32.8643 195.549 17.8212L195.463 17.7493L195.42 17.6485C190.919 7.77338 183.676 -1.20924 174.487 -8.30609C165.297 -15.4029 154.881 -20.067 144.364 -21.78C140.685 -22.399 136.934 -22.7013 133.212 -22.7013Z" fill="#EB008B"/>
<path d="M132.894 157.253C81.3767 157.253 42.54 123.252 42.54 78.1514C42.54 55.5077 53.7496 33.2238 72.5331 18.5407C72.6341 18.3967 72.7351 18.2528 72.8217 18.1088C73.7017 16.2663 74.6538 14.4812 75.6204 12.8114L75.8945 12.3364C87.6667 -8.06169 109.624 -20.7295 133.212 -20.7295C136.833 -20.7295 140.468 -20.4272 144.032 -19.837C154.405 -18.1527 164.619 -13.5463 173.592 -6.53579C182.522 0.445892 189.519 9.27017 193.847 18.9869C212.256 33.6701 223.249 55.7668 223.249 78.1514C223.249 123.237 184.412 157.253 132.894 157.253ZM133.212 -19.7218C109.985 -19.7218 88.3592 -7.25556 76.7601 12.8258L76.486 13.3008C75.5194 14.9707 74.5961 16.7413 73.7017 18.5695L73.6584 18.6415C73.543 18.8142 73.4132 18.9869 73.2977 19.1597L73.2545 19.2173L73.1968 19.2605C54.6152 33.7565 43.5211 55.7668 43.5211 78.137C43.5211 122.661 81.9393 156.231 132.866 156.231C183.806 156.231 222.224 122.661 222.224 78.137C222.224 56.0259 211.332 34.1739 193.097 19.6923L192.996 19.6203L192.953 19.5052C188.726 9.88916 181.815 1.15126 172.972 -5.74406C164.128 -12.6538 154.058 -17.1883 143.859 -18.8437C140.353 -19.4195 136.775 -19.7218 133.212 -19.7218Z" fill="#EB008B"/>
<path d="M132.894 154.273C83.079 154.273 45.5264 121.553 45.5264 78.151C45.5264 56.2415 56.4474 34.7206 74.7404 20.5989C74.9568 20.2678 75.1876 19.9367 75.4185 19.6056C76.2985 17.763 77.2362 15.9636 78.2028 14.2938L78.4769 13.8043C89.7297 -5.658 110.692 -17.75 133.197 -17.75C133.212 -17.75 133.226 -17.75 133.226 -17.75C136.674 -17.75 140.137 -17.4621 143.527 -16.9151C163.912 -13.5898 183.128 1.5828 191.395 20.8436C209.471 34.9653 220.248 56.371 220.248 78.1366C220.277 121.538 182.71 154.273 132.894 154.273ZM133.241 -16.7423C133.226 -16.7423 133.212 -16.7423 133.212 -16.7423C111.067 -16.7423 90.4222 -4.83748 79.3569 14.3082L79.0828 14.7976C78.1162 16.4531 77.1785 18.2381 76.3129 20.0663L76.2985 20.1095L76.2696 20.1382C76.0244 20.4981 75.7647 20.858 75.5339 21.2179L75.4906 21.2899L75.4185 21.3331C57.3274 35.2676 46.5362 56.515 46.5362 78.1366C46.5362 120.962 83.6705 153.251 132.894 153.251C182.133 153.251 219.267 120.948 219.267 78.1222C219.267 56.6302 208.591 35.4836 190.688 21.549L190.587 21.4626L190.529 21.3474C182.421 2.33135 163.465 -12.6541 143.368 -15.9362C140.036 -16.4688 136.616 -16.7423 133.241 -16.7423Z" fill="#EB008B"/>
<path d="M132.894 151.293C84.7812 151.293 48.498 119.84 48.498 78.1368C48.498 56.947 59.1305 36.2179 76.9331 22.6432C77.2793 22.1249 77.64 21.6067 77.9862 21.0885C78.8374 19.2747 79.7751 17.4897 80.7705 15.7622L81.0591 15.2584C91.7781 -3.28264 111.759 -14.7988 133.197 -14.7988H133.212C136.501 -14.7988 139.805 -14.5253 143.051 -13.9927C162.642 -10.8113 181.036 3.8142 188.826 22.384L189.057 22.7871C206.73 36.3618 217.276 57.0478 217.276 78.1368C217.29 119.854 181.007 151.293 132.894 151.293ZM133.226 -13.7768C133.212 -13.7768 133.212 -13.7768 133.226 -13.7768C112.12 -13.7768 92.485 -2.44772 81.9391 15.791L81.6506 16.2949C80.6551 18.0079 79.7318 19.7785 78.8951 21.5779L78.8807 21.6211L78.8518 21.6643C78.4767 22.1969 78.1016 22.7439 77.7409 23.291L77.6977 23.3629L77.6255 23.4205C60.025 36.8081 49.5079 57.2637 49.5079 78.1656C49.5079 119.293 85.3582 150.314 132.894 150.314C180.43 150.314 216.28 119.307 216.28 78.1656C216.28 57.3645 205.85 36.952 188.379 23.5645L188.307 23.5069L187.932 22.8447C180.257 4.54836 162.166 -9.84687 142.892 -12.985C139.704 -13.5033 136.458 -13.7768 133.226 -13.7768Z" fill="#EB008B"/>
<path d="M132.894 148.314C86.4835 148.314 51.4844 118.141 51.4844 78.1369C51.4844 57.6813 61.8283 37.7151 79.1548 24.7018C79.602 24.0108 80.0925 23.3055 80.5974 22.6001C81.4486 20.7719 82.3863 18.9869 83.3674 17.2739L83.6559 16.77C89.4987 6.65019 98.1836 -1.32477 108.758 -6.31992C119.333 -11.3151 131.033 -12.9417 142.574 -11.0416C161.271 -7.98976 178.785 5.97361 186.158 23.7229L186.778 24.8026C204.018 37.8303 214.304 57.7533 214.304 78.1369C214.304 118.156 179.305 148.314 132.894 148.314ZM133.168 -10.7968C124.916 -10.7968 116.765 -8.98303 109.191 -5.39862C98.7895 -0.504242 90.2633 7.34116 84.5215 17.2739L84.233 17.7777C83.2519 19.4763 82.3286 21.247 81.4775 23.0608L81.463 23.1039L81.4342 23.1471C80.9148 23.8813 80.4099 24.6154 79.9482 25.3352L79.9049 25.4072L79.8328 25.4648C62.7083 38.2765 52.4942 57.9836 52.4942 78.1513C52.4942 117.58 87.0606 147.32 132.894 147.32C178.728 147.32 213.294 117.58 213.309 78.1513C213.309 58.0556 203.138 38.3917 186.1 25.5655L186.013 25.5079L185.234 24.1692C177.992 6.69337 160.781 -7.03968 142.401 -10.0339C139.328 -10.5377 136.241 -10.7968 133.168 -10.7968Z" fill="#EB008B"/>
<path d="M132.894 145.349C88.1859 145.349 54.4707 116.458 54.4707 78.1519C54.4707 58.4304 64.5261 39.2415 81.3765 26.7753C81.9824 25.8252 82.5883 24.9327 83.1942 24.1121C84.031 22.2983 84.9543 20.4989 85.9642 18.7715L86.2527 18.2677C91.7925 8.68046 100.016 1.10857 110.042 -3.61307C120.054 -8.3491 131.134 -9.90378 142.07 -8.08998C159.872 -5.18215 176.506 8.13344 183.46 25.0478L184.484 26.8185C201.277 39.2703 211.303 58.4448 211.303 78.1375C211.303 96.6785 203.325 113.722 188.826 126.131C174.371 138.525 154.491 145.349 132.894 145.349ZM133.168 -7.81647C125.349 -7.81647 117.631 -6.08905 110.461 -2.70617C100.622 1.9291 92.5427 9.35704 87.1183 18.7571L86.8298 19.261C85.8343 20.974 84.911 22.759 84.0887 24.5728L84.0743 24.616L84.0454 24.6592C83.4395 25.4941 82.8047 26.4154 82.1844 27.3943L82.1267 27.4806L82.0545 27.5382C65.4206 39.803 55.4806 58.7327 55.4806 78.1519C55.4806 115.882 88.7629 144.341 132.894 144.341C154.26 144.341 173.895 137.604 188.192 125.383C202.46 113.175 210.322 96.405 210.322 78.1662C210.322 58.7615 200.411 39.8605 183.82 27.5958L183.734 27.5382L182.551 25.4941C175.727 8.83881 159.396 -4.24646 141.911 -7.09671C138.997 -7.57175 136.068 -7.81647 133.168 -7.81647Z" fill="#EB008B"/>
<path d="M132.894 142.368C89.8882 142.368 57.457 114.758 57.457 78.1511C57.457 59.1638 67.2239 40.7379 83.5982 28.8474C84.2907 27.739 85.0264 26.6593 85.7766 25.6229C86.5989 23.7947 87.5367 21.9953 88.5321 20.2679L88.8206 19.764C94.0575 10.6806 101.834 3.54061 111.297 -0.93631C120.776 -5.39883 131.25 -6.86714 141.579 -5.15411C158.487 -2.39023 174.241 10.2632 180.776 26.357L182.219 28.8474C198.564 40.7379 208.331 59.1638 208.331 78.1367C208.331 114.758 175.9 142.368 132.894 142.368ZM133.154 -4.83742C125.782 -4.83742 118.496 -3.21076 111.73 -0.0150156C102.454 4.36113 94.8221 11.3716 89.6862 20.2391L89.3977 20.7429C88.4023 22.4703 87.479 24.2553 86.6566 26.0691L86.6422 26.1123L86.6134 26.1555C85.8487 27.2064 85.0986 28.3148 84.3917 29.4376L84.3339 29.524L84.2474 29.5816C68.1039 41.2993 58.4525 59.4517 58.4525 78.1511C58.4525 114.182 90.4509 141.361 132.88 141.361C175.309 141.361 207.321 114.182 207.321 78.1511C207.321 59.4661 197.684 41.3137 181.541 29.6104L181.454 29.5528L179.853 26.7745C173.462 10.9685 158.011 -1.45454 141.42 -4.16084C138.665 -4.62149 135.909 -4.83742 133.154 -4.83742Z" fill="#EB008B"/>
<path d="M132.894 139.389C91.5906 139.389 60.4434 113.06 60.4434 78.1517C60.4434 59.8986 69.9361 42.25 85.8343 30.9066C86.6278 29.611 87.479 28.3299 88.3734 27.1207C89.1957 25.2925 90.119 23.4787 91.1289 21.7368L91.4319 21.2186C96.3658 12.6966 103.68 5.95967 112.61 1.74186C121.54 -2.47594 131.365 -3.82909 141.103 -2.23122C157.117 0.388712 171.976 12.3943 178.093 27.6533L179.954 30.8778C195.852 42.2069 205.345 59.8698 205.345 78.123C205.345 95.023 197.973 110.555 184.571 121.87C171.197 133.17 152.846 139.389 132.894 139.389ZM133.168 -1.87134C126.229 -1.87134 119.376 -0.345445 113.014 2.66316C104.272 6.79459 97.116 13.3876 92.2831 21.7368L91.9801 22.2551C90.9847 23.9825 90.0613 25.7675 89.2534 27.5957L89.2246 27.6389L89.1957 27.6821C88.2869 28.9057 87.4213 30.2012 86.6278 31.5256L86.5701 31.612L86.4835 31.6695C70.8017 42.8115 61.4244 60.1865 61.4244 78.1517C61.4244 112.484 92.1388 138.381 132.865 138.381C152.587 138.381 170.707 132.249 183.907 121.122C197.078 110.008 204.321 94.7495 204.321 78.1517C204.321 60.1865 194.958 42.7971 179.262 31.6552L179.175 31.5976L177.17 28.0707C171.183 13.0997 156.626 1.3244 140.93 -1.22355C138.347 -1.65541 135.751 -1.87134 133.168 -1.87134Z" fill="#EB008B"/>
<path d="M132.894 136.409C93.2927 136.409 63.415 111.362 63.415 78.1375C63.415 60.6185 72.6337 43.7329 88.0702 32.9653C88.9503 31.4682 89.9169 30.0143 90.9556 28.6323C91.7635 26.7897 92.6868 24.9759 93.6967 23.2341L93.9996 22.7159C98.6306 14.7121 105.498 8.39264 113.865 4.44835C122.218 0.504056 131.48 -0.791515 140.612 0.719984C155.731 3.19596 169.711 14.5394 175.409 28.9778L177.718 32.9653C193.169 43.7329 202.373 60.6185 202.373 78.1663C202.373 94.2458 195.304 109.015 182.45 119.783C169.624 130.493 152.024 136.409 132.894 136.409ZM133.168 1.10866C126.662 1.10866 120.256 2.54818 114.284 5.35525C106.104 9.21317 99.3808 15.3887 94.8652 23.2197L94.5623 23.738C93.5668 25.4654 92.6435 27.2648 91.85 29.093L91.8212 29.1506L91.7923 29.1938C90.7392 30.5901 89.7582 32.0728 88.8781 33.5843L88.8204 33.6851L88.7339 33.7426C73.5137 44.3231 64.4249 60.9208 64.4249 78.1519C64.4249 110.8 93.8553 135.416 132.894 135.416C151.793 135.416 169.163 129.586 181.8 119.006C194.409 108.439 201.363 93.9435 201.363 78.1663C201.363 60.9208 192.274 44.3087 177.04 33.7282L176.953 33.6707L174.486 29.3953C168.917 15.2448 155.241 4.13165 140.439 1.71326C138.015 1.31019 135.592 1.10866 133.168 1.10866Z" fill="#EB008B"/>
<path d="M132.894 133.43C94.9806 133.43 66.4014 109.663 66.4014 78.1375C66.4014 61.3382 75.3315 45.2444 90.3064 35.0381L90.4651 34.7646C91.3884 33.1668 92.4271 31.6121 93.5524 30.1438C94.3603 28.2868 95.2692 26.473 96.279 24.7168L96.582 24.1985C100.91 16.7274 107.315 10.8254 115.135 7.14019C122.954 3.45501 131.581 2.24581 140.122 3.65654C154.332 5.97418 167.431 16.6698 172.712 30.2589L175.467 35.0237C190.442 45.23 199.387 61.3526 199.387 78.1519C199.387 109.663 170.793 133.43 132.894 133.43ZM133.168 4.0884C127.109 4.0884 121.122 5.42716 115.568 8.04709C107.936 11.6459 101.675 17.404 97.462 24.7024L97.1591 25.2206C96.1636 26.948 95.2547 28.7618 94.4613 30.59L94.4324 30.6476L94.3891 30.6908C93.2783 32.1447 92.254 33.6706 91.3451 35.2541L91.071 35.7291L90.97 35.8011C76.2115 45.8202 67.4112 61.6405 67.4112 78.1375C67.4112 109.087 95.5577 132.422 132.894 132.422C170.23 132.422 198.377 109.087 198.377 78.1519C198.377 61.6405 189.562 45.8058 174.789 35.8011L174.688 35.7291L171.759 30.662C166.624 17.3752 153.842 6.90987 139.949 4.64981C137.698 4.27554 135.433 4.0884 133.168 4.0884Z" fill="#EB008B"/>
<path d="M132.894 130.464C96.6974 130.464 69.3877 107.979 69.3877 78.1518C69.3877 62.1011 78.0437 46.7702 92.557 37.1254C92.7157 36.8519 93.0619 36.2617 93.0619 36.2617C93.9852 34.6638 95.0239 33.1235 96.1492 31.6696C96.9427 29.7982 97.8515 27.97 98.8758 26.2138L99.1788 25.6812C103.189 18.7427 109.162 13.2581 116.419 9.83203C123.69 6.40597 131.711 5.28314 139.646 6.5931C152.962 8.76678 165.166 18.7859 170.014 31.5544L173.231 37.111C187.744 46.7558 196.415 62.0867 196.415 78.1518C196.415 92.5902 189.952 105.863 178.194 115.522C166.465 125.152 150.379 130.464 132.894 130.464ZM93.9275 36.7511C93.9275 36.7511 93.4803 37.5428 93.3793 37.7156L93.3216 37.8164L93.2206 37.8883C78.9382 47.3316 70.3976 62.389 70.3976 78.1374C70.3976 107.388 97.2601 129.442 132.894 129.442C150.148 129.442 166.003 124.217 177.545 114.73C189.057 105.258 195.39 92.2735 195.39 78.1374C195.39 62.3746 186.85 47.3172 172.567 37.8739L172.466 37.802L169.076 31.9287C164.359 19.4768 152.457 9.68808 139.473 7.57198C131.74 6.2908 123.921 7.38484 116.852 10.7245C109.768 14.0642 103.968 19.4049 100.044 26.1706L99.7414 26.7032C98.7316 28.4451 97.8371 30.2589 97.0437 32.1014L97.0148 32.159L96.9715 32.2166C95.8607 33.6705 94.8364 35.182 93.9275 36.7511Z" fill="#EB008B"/>
<path d="M132.894 127.484C98.3853 127.484 72.374 106.28 72.374 78.1517C72.374 62.8352 80.7559 48.2816 94.8075 39.2126C94.9951 38.8671 95.197 38.5217 95.3846 38.1906L95.6443 37.7443C96.5531 36.1608 97.6063 34.635 98.7316 33.1954C99.5106 31.3097 100.419 29.4671 101.444 27.7108L101.747 27.1782C105.469 20.7579 110.965 15.6908 117.688 12.5239C124.397 9.35692 131.826 8.32046 139.141 9.52966C151.548 11.545 162.858 20.9163 167.287 32.8212L170.98 39.1982C185.032 48.2672 193.414 62.8208 193.414 78.1374C193.414 106.266 167.388 127.484 132.894 127.484ZM133.182 10.0479C128.003 10.0479 122.882 11.1851 118.121 13.4308C111.6 16.5114 106.233 21.4345 102.627 27.6677L102.324 28.2003C101.314 29.9421 100.419 31.7703 99.6404 33.6273L99.6116 33.6993L99.5683 33.7568C98.443 35.1676 97.4187 36.6791 96.5099 38.2338L96.2502 38.68C96.0338 39.0399 95.8318 39.4142 95.6298 39.8028L95.5721 39.918L95.4567 39.99C81.6215 48.8718 73.3695 63.1231 73.3695 78.1517C73.3695 105.704 98.948 126.477 132.88 126.477C166.811 126.477 192.39 105.704 192.39 78.1517C192.39 63.1375 184.138 48.8718 170.317 39.99L170.216 39.918L166.364 33.253L166.349 33.2098C162.05 21.6073 151.043 12.4807 138.968 10.5229C137.049 10.2062 135.101 10.0479 133.182 10.0479Z" fill="#EB008B"/>
<path d="M132.894 124.504C100.088 124.504 75.3604 104.581 75.3604 78.1517C75.3604 63.5837 83.4826 49.8074 97.087 41.2999C97.3755 40.7528 97.6784 40.2058 97.9814 39.6732L98.2411 39.2126C99.15 37.6435 100.189 36.132 101.343 34.7213C102.107 32.8211 103.016 30.9641 104.041 29.1935L104.344 28.6609C107.748 22.7732 112.812 18.1235 118.972 15.2157C125.132 12.3079 131.942 11.3578 138.665 12.4662C150.163 14.3376 160.579 23.0323 164.589 34.0879L168.773 41.3143C182.334 49.8074 190.428 63.5693 190.428 78.1373C190.428 104.567 165.686 124.504 132.894 124.504ZM133.183 13.0276C128.436 13.0276 123.747 14.0785 119.391 16.137C113.418 18.9585 108.513 23.4642 105.209 29.1791L104.906 29.7117C103.896 31.4679 103.002 33.2961 102.252 35.1819L102.223 35.2539L102.18 35.3115C101.04 36.6934 100.016 38.1761 99.1211 39.7308L98.8614 40.1914C98.544 40.7529 98.2267 41.3287 97.9237 41.9045L97.866 42.034L97.7506 42.106C91.172 46.1942 85.7331 51.6644 82.0399 57.8976C78.3467 64.1451 76.3847 71.1412 76.3847 78.1661C76.3847 104.02 100.694 123.511 132.908 123.511C165.138 123.511 189.432 104.02 189.432 78.1661C189.432 63.9148 181.469 50.4408 168.138 42.1348L168.037 42.0628L167.98 41.9477L163.681 34.5341L163.666 34.4909C159.785 23.7377 149.672 15.2877 138.506 13.4739C136.717 13.1716 134.943 13.0276 133.183 13.0276Z" fill="#EB008B"/>
<path d="M132.895 121.524C101.791 121.524 78.333 102.883 78.333 78.1516C78.333 64.3178 86.1811 51.3333 99.3527 43.4015C99.7422 42.6386 100.146 41.8756 100.55 41.1702L100.824 40.6952C101.733 39.1261 102.772 37.6434 103.94 36.2615C104.691 34.3469 105.585 32.4755 106.624 30.6905L106.927 30.1579C110.028 24.7885 114.631 20.5563 120.243 17.9076C125.84 15.2588 132.044 14.3951 138.16 15.4028C148.735 17.1302 158.257 25.134 161.864 35.3402L166.552 43.4591C179.637 51.3909 187.442 64.3466 187.442 78.1372C187.442 102.868 163.984 121.524 132.895 121.524ZM133.183 16.0074C128.87 16.0074 124.614 16.9575 120.675 18.8288C115.251 21.3912 110.807 25.4794 107.807 30.6617L107.504 31.1943C106.479 32.9506 105.599 34.8076 104.864 36.7077L104.835 36.7797L104.777 36.8373C103.637 38.1904 102.599 39.6587 101.719 41.1846L101.445 41.6597C101.012 42.3938 100.608 43.1712 100.204 43.9773L100.132 44.1069L100.002 44.1788C93.6397 47.9936 88.3884 53.1039 84.8106 58.9915C81.2328 64.8648 79.3573 71.4866 79.3573 78.1516C79.3573 102.307 102.382 120.517 132.909 120.517C163.436 120.517 186.461 102.307 186.461 78.1372C186.461 64.6633 178.8 51.9955 165.946 44.2508L165.831 44.1788L160.955 35.7576L160.94 35.7145C157.478 25.8249 148.259 18.0659 138.016 16.3961C136.4 16.1369 134.785 16.0074 133.183 16.0074Z" fill="#EB008B"/>
<path d="M132.895 118.544C103.493 118.544 81.3193 101.169 81.3193 78.1366C81.3193 71.6588 83.1948 65.2385 86.7438 59.5668C90.2639 53.9526 95.4142 49.087 101.647 45.4882C102.108 44.5094 102.613 43.5593 103.132 42.638L103.407 42.1485C104.301 40.5939 105.354 39.1255 106.537 37.7724C107.259 35.829 108.167 33.9433 109.192 32.1439L109.495 31.6112C112.293 26.7744 116.448 22.9597 121.498 20.5701C126.561 18.1805 132.145 17.4031 137.67 18.31C147.321 19.8791 155.949 27.2207 159.137 36.5632L164.359 45.589C176.954 52.9594 184.456 65.1089 184.456 78.1078C184.47 101.183 162.296 118.544 132.895 118.544ZM133.183 18.9722C129.317 18.9722 125.494 19.8215 121.945 21.5058C117.069 23.809 113.072 27.4798 110.375 32.1439L110.072 32.6765C109.047 34.4471 108.167 36.3185 107.446 38.233L107.417 38.3194L107.36 38.3914C106.205 39.7158 105.167 41.1553 104.287 42.6668L104.013 43.1562C103.464 44.0919 102.959 45.0708 102.498 46.0784L102.426 46.2224L102.281 46.3088C96.1355 49.8356 91.0573 54.6148 87.5949 60.1282C84.147 65.6416 82.3148 71.8747 82.3148 78.1654C82.3148 100.622 104.056 117.565 132.88 117.565C161.705 117.565 183.446 100.636 183.446 78.1798C183.446 65.4976 176.074 53.6359 163.739 46.4671L163.624 46.3951L158.214 37.0382L158.199 36.9951C155.141 27.9692 146.831 20.8868 137.511 19.3753C136.069 19.1018 134.626 18.9722 133.183 18.9722Z" fill="#EB008B"/>
<path d="M132.895 115.565C105.196 115.565 84.3057 99.4708 84.3057 78.1371C84.3057 72.0191 86.1234 65.9875 89.557 60.69C92.9617 55.4502 97.9389 50.9301 103.955 47.6048C104.474 46.4244 105.066 45.244 105.715 44.1355L106.003 43.6317C106.898 42.0914 107.951 40.6519 109.148 39.3419C109.855 37.3698 110.735 35.4552 111.789 33.6558L112.091 33.1232C114.587 28.819 118.281 25.4073 122.782 23.2912C127.283 21.1607 132.26 20.4698 137.179 21.2759C145.908 22.701 153.626 29.3372 156.396 37.816L162.181 47.8063C174.27 54.6009 181.484 65.9299 181.484 78.1515C181.484 88.4872 176.535 97.9881 167.533 104.912C158.56 111.779 146.254 115.565 132.895 115.565ZM133.183 21.9525C129.75 21.9525 126.359 22.7154 123.214 24.1981C118.901 26.2423 115.352 29.4956 112.971 33.627L112.669 34.1596C111.63 35.9446 110.764 37.8304 110.072 39.7738L110.043 39.8745L109.971 39.9465C108.788 41.2277 107.763 42.6384 106.883 44.1355L106.595 44.625C105.946 45.7622 105.34 46.9426 104.82 48.1518L104.748 48.3101L104.59 48.3965C98.6458 51.6498 93.7263 56.0836 90.3937 61.2227C87.0612 66.3618 85.3011 72.2062 85.3011 78.1227C85.3011 98.8806 105.758 114.543 132.88 114.543C146.023 114.543 158.113 110.829 166.898 104.077C175.641 97.3547 180.46 88.1417 180.46 78.1227C180.46 66.2466 173.39 55.2055 161.561 48.5981L161.445 48.5261L155.473 38.2047L155.458 38.1471C152.818 29.9994 145.417 23.6079 137.021 22.2404C135.751 22.0676 134.467 21.9525 133.183 21.9525Z" fill="#EB008B"/>
<path d="M132.895 112.599C106.898 112.599 87.2773 97.7865 87.2773 78.1514C87.2773 72.4077 89.0374 66.7504 92.37 61.8128C95.6592 56.9472 100.478 52.7726 106.306 49.7352C106.869 48.3245 107.547 46.9425 108.297 45.6326L108.586 45.1287C109.466 43.6028 110.533 42.1921 111.759 40.9253C112.437 38.9244 113.318 36.981 114.371 35.1528L114.674 34.6202C116.852 30.8343 120.098 27.8545 124.065 25.9831C128.018 24.1117 132.39 23.5071 136.703 24.2125C144.494 25.4792 151.303 31.4245 153.655 39.0252L160.017 50.0087C171.587 56.2419 178.497 66.736 178.497 78.137C178.497 97.7865 158.891 112.599 132.895 112.599ZM133.183 24.9322C130.182 24.9322 127.225 25.5944 124.484 26.89C120.718 28.675 117.617 31.5108 115.539 35.1097L115.236 35.6423C114.198 37.4417 113.332 39.3706 112.668 41.3428L112.625 41.458L112.538 41.5443C111.341 42.7679 110.302 44.1499 109.437 45.6326L109.148 46.1364C108.384 47.4608 107.706 48.8571 107.143 50.2822L107.071 50.455L106.898 50.5413C101.141 53.5068 96.395 57.595 93.1779 62.3742C89.9607 67.139 88.2584 72.5948 88.2584 78.1514C88.2584 97.2107 107.431 111.592 132.866 111.592C158.286 111.592 177.459 97.2107 177.459 78.1514C177.459 67.0959 170.707 56.8753 159.382 50.8437L159.252 50.7717L152.688 39.4426L152.674 39.385C150.437 32.1155 143.945 26.4293 136.501 25.2201C135.419 25.0186 134.294 24.9322 133.183 24.9322Z" fill="#EB008B"/>
<path d="M132.895 109.619C108.6 109.619 90.2783 96.0875 90.2783 78.1511C90.2783 72.7673 91.9807 67.513 95.2122 62.9353C98.3861 58.444 103.046 54.6149 108.687 51.8654C109.278 50.2243 110.014 48.6265 110.88 47.115L111.168 46.5967C112.034 45.0852 113.116 43.7177 114.371 42.5085C115.006 40.4644 115.871 38.4778 116.939 36.6208L117.242 36.0882C119.117 32.8349 121.916 30.2581 125.321 28.6603C128.725 27.048 132.491 26.5298 136.198 27.1344C143.051 28.2572 148.952 33.4971 150.885 40.1909L157.853 52.2253C168.904 57.8826 175.497 67.5562 175.497 78.1223C175.511 96.0875 157.189 109.619 132.895 109.619ZM133.183 27.9117C130.63 27.9117 128.105 28.4731 125.754 29.5816C122.536 31.0931 119.896 33.5259 118.122 36.6064L117.819 37.1391C116.766 38.9673 115.915 40.9106 115.294 42.9403L115.251 43.0699L115.15 43.1563C113.924 44.3223 112.885 45.6466 112.034 47.1006L111.745 47.6188C110.865 49.1303 110.129 50.7426 109.552 52.398L109.48 52.5995L109.293 52.6859C103.724 55.3634 99.1219 59.1062 96.0057 63.5111C92.8896 67.9017 91.2449 72.9688 91.2449 78.1367C91.2449 95.4973 109.134 108.597 132.851 108.597C156.569 108.597 174.458 95.4973 174.472 78.1367C174.472 73.1127 172.9 68.1608 169.928 63.8278C166.942 59.4805 162.556 55.7665 157.247 53.0746L157.117 53.0026L149.947 40.6083L149.933 40.5507C148.115 34.188 142.532 29.2073 136.04 28.142C135.102 27.9981 134.135 27.9117 133.183 27.9117Z" fill="#EB008B"/>
<path d="M132.895 106.639C110.302 106.639 93.25 94.3889 93.25 78.1511C93.25 73.1272 94.9091 68.2616 98.0541 64.0726C101.141 59.9555 105.657 56.4863 111.125 54.0391C111.702 52.1533 112.481 50.3395 113.476 48.6265L113.779 48.1083C114.63 46.6255 115.727 45.3012 117.011 44.1784C117.588 42.0766 118.439 40.0469 119.535 38.1468L119.838 37.6141C121.411 34.8934 123.748 32.7341 126.605 31.3954C129.461 30.0422 132.606 29.6104 135.722 30.1286C141.623 31.0931 146.6 35.6132 148.129 41.4145L155.342 53.8951C155.472 54.1111 155.588 54.327 155.703 54.5429C160.853 57.0333 165.109 60.4881 168.009 64.5332C170.967 68.6358 172.525 73.3575 172.525 78.1799C172.525 94.3889 155.487 106.639 132.895 106.639ZM133.183 30.8916C131.062 30.8916 128.97 31.3522 127.037 32.2735C124.368 33.5259 122.19 35.5412 120.718 38.0892L120.401 38.6218C119.319 40.4788 118.497 42.4797 117.934 44.5526L117.891 44.6966L117.775 44.7973C116.52 45.8626 115.467 47.1438 114.645 48.5689L114.342 49.0871C113.361 50.8002 112.567 52.614 112.019 54.4997L111.947 54.7301L111.731 54.8308C106.321 57.2204 101.877 60.6177 98.8476 64.6484C95.8324 68.6646 94.2454 73.3287 94.2454 78.1223C94.2454 93.7987 110.851 105.603 132.88 105.603C154.91 105.603 171.515 93.7843 171.515 78.1223C171.515 73.5158 170.014 68.9957 167.187 65.0514C164.345 61.1071 160.175 57.7387 155.112 55.3059L154.967 55.2339L154.895 55.0899C154.765 54.8308 154.621 54.5717 154.477 54.327L147.191 41.7312L147.177 41.6592C145.763 36.2178 141.103 31.9568 135.578 31.0499C134.77 30.9635 133.977 30.8916 133.183 30.8916Z" fill="#EB008B"/>
<path d="M132.895 103.659C112.005 103.659 96.2363 92.6902 96.2363 78.1366C96.2363 73.487 97.8521 69.0101 100.925 65.1953C103.926 61.467 108.311 58.3432 113.62 56.1695C114.14 54.039 114.948 51.9805 116.059 50.0803L116.362 49.5477C117.198 48.0938 118.309 46.8414 119.651 45.8194C120.156 43.6313 120.993 41.5296 122.118 39.5862L122.435 39.0536C124.094 36.1746 126.778 34.1304 129.98 33.2667C133.183 32.403 136.544 32.8493 139.415 34.5047C142.402 36.2177 144.551 39.1256 145.33 42.4797L152.76 55.3202C153.049 55.824 153.294 56.2847 153.525 56.7453C158.43 58.9622 162.469 62.0572 165.239 65.7136C168.052 69.4275 169.553 73.7317 169.553 78.1366C169.553 85.2047 165.802 91.6969 158.992 96.4042C152.226 101.083 142.95 103.659 132.895 103.659ZM133.212 33.8569C132.216 33.8569 131.221 33.9865 130.226 34.2456C127.283 35.0373 124.816 36.9231 123.286 39.5574L122.969 40.0901C121.858 42.0046 121.05 44.0631 120.574 46.2224L120.531 46.4096L120.372 46.5247C119.074 47.4748 118.006 48.6552 117.213 50.0516L116.91 50.5842C115.813 52.4844 115.005 54.5141 114.529 56.6446L114.472 56.9037L114.226 57.0044C108.961 59.1205 104.633 62.1723 101.704 65.8143C98.7754 69.4563 97.2318 73.7029 97.2318 78.1222C97.2318 92.1 112.553 102.637 132.88 102.637C142.748 102.637 151.808 100.133 158.401 95.5693C164.936 91.0492 168.528 84.8592 168.528 78.1222C168.528 73.9332 167.115 69.8594 164.431 66.3182C161.733 62.7625 157.766 59.7395 152.933 57.5947L152.76 57.5227L152.674 57.3499C152.443 56.8605 152.183 56.3711 151.866 55.824L144.364 42.8539L144.349 42.782C143.657 39.6726 141.666 36.9807 138.896 35.3828C137.15 34.3752 135.203 33.8569 133.212 33.8569Z" fill="#EB008B"/>
<path d="M132.895 100.68C113.693 100.68 99.2227 90.9918 99.2227 78.1369C99.2227 73.9191 100.838 69.8452 103.882 66.3616C106.84 62.9787 111.11 60.2292 116.232 58.3578C116.621 55.9538 117.429 53.6794 118.641 51.5633L118.944 51.0307C119.752 49.6199 120.92 48.4395 122.334 47.619C122.738 45.3157 123.532 43.1133 124.7 41.0835L125.018 40.5365C127.614 36.0308 133.399 34.4617 137.915 37.0529C140.281 38.406 141.94 40.7093 142.474 43.3868C142.503 43.5019 142.532 43.6027 142.589 43.7035L150.178 56.8031C150.596 57.5085 150.957 58.2571 151.274 59.02C155.948 60.9634 159.8 63.6985 162.426 66.9518C165.124 70.2771 166.552 74.135 166.552 78.1225C166.552 90.9918 152.082 100.68 132.895 100.68ZM133.226 36.837C130.298 36.837 127.456 38.3485 125.898 41.0692L125.58 41.6162C124.426 43.6027 123.661 45.7764 123.286 48.0364L123.243 48.2812L123.027 48.3963C121.685 49.1449 120.574 50.2245 119.81 51.5633L119.507 52.0959C118.309 54.1832 117.516 56.4433 117.169 58.8329L117.126 59.1352L116.838 59.2359C111.745 61.0353 107.532 63.7416 104.633 67.0525C101.747 70.349 100.218 74.1926 100.218 78.1657C100.218 90.4448 114.255 99.7009 132.88 99.7009C151.505 99.7009 165.542 90.4448 165.542 78.1513C165.542 74.3941 164.2 70.7521 161.647 67.614C159.079 64.447 155.299 61.7839 150.697 59.9125L150.495 59.8261L150.409 59.6246C150.091 58.8473 149.716 58.0699 149.283 57.3358L141.695 44.2361C141.579 44.049 141.507 43.833 141.464 43.6171C140.988 41.2275 139.502 39.169 137.396 37.9598C136.083 37.1968 134.64 36.837 133.226 36.837Z" fill="#EB008B"/>
<path d="M132.895 97.7146C115.395 97.7146 102.209 89.3078 102.209 78.1515C102.209 74.308 103.81 70.6372 106.84 67.5279C109.769 64.5336 113.952 62.144 118.987 60.5894C119.131 57.955 119.911 55.3639 121.223 53.0751L121.541 52.528C122.334 51.1461 123.589 50.1384 125.09 49.6346C125.292 47.1586 126.056 44.7402 127.297 42.5953L127.614 42.0483C128.48 40.5512 129.865 39.486 131.538 39.0397C133.212 38.5935 134.958 38.8238 136.444 39.6875C138.059 40.6088 139.185 42.1923 139.56 44.0061C139.646 44.4379 139.805 44.841 140.021 45.2297L147.61 58.3293C148.158 59.2794 148.62 60.3015 148.98 61.3379C153.438 63.0078 157.117 65.383 159.627 68.2332C162.224 71.1555 163.595 74.5959 163.595 78.1659C163.595 83.6073 160.45 88.5881 154.722 92.2013C149.052 95.7425 141.305 97.7146 132.895 97.7146ZM133.212 39.8171C132.736 39.8171 132.26 39.8746 131.784 40.0042C130.37 40.3785 129.201 41.2854 128.466 42.5521L128.148 43.0992C126.936 45.2153 126.201 47.6193 126.056 50.0521L126.027 50.4119L125.681 50.5127C124.282 50.9014 123.128 51.7939 122.392 53.0463L122.075 53.5933C120.776 55.8389 120.04 58.4013 119.954 61.0068L119.939 61.3667L119.593 61.4675C114.573 62.9646 110.403 65.311 107.532 68.2476C104.69 71.1555 103.19 74.5815 103.19 78.1659C103.19 88.7464 115.943 96.7214 132.866 96.7214C141.089 96.7214 148.648 94.8068 154.145 91.3376C159.569 87.9115 162.541 83.233 162.541 78.1515C162.541 74.8406 161.257 71.6305 158.834 68.8954C156.381 66.1315 152.76 63.8139 148.36 62.2016L148.129 62.1153L148.057 61.8849C147.711 60.8197 147.264 59.7976 146.701 58.8331L139.112 45.7335C138.838 45.2584 138.651 44.7402 138.535 44.2076C138.232 42.6673 137.266 41.3429 135.91 40.5656C135.087 40.0618 134.15 39.8171 133.212 39.8171Z" fill="#EB008B"/>
<path d="M132.895 94.735C117.357 94.735 105.195 87.451 105.195 78.1517C105.195 71.4147 111.456 65.599 121.526 62.9647C121.685 62.9215 121.844 62.8927 122.017 62.8783C121.743 59.9993 122.378 57.0771 123.82 54.5579L124.138 54.0109C124.758 52.9312 125.912 52.269 127.153 52.269C127.47 52.269 127.773 52.3122 128.076 52.3986C127.802 49.5196 128.437 46.5973 129.879 44.0926L130.197 43.5455C130.817 42.4659 131.971 41.8037 133.212 41.8037C133.399 41.8037 133.587 41.8181 133.775 41.8469C135.203 42.0772 136.343 43.1857 136.631 44.5964C136.79 45.3449 137.049 46.0503 137.439 46.7125L145.027 59.8121C145.72 61.007 146.225 62.2881 146.542 63.6269C155.357 66.5059 160.608 71.9329 160.608 78.1517C160.594 87.451 148.418 94.735 132.895 94.735ZM122.392 63.8572C122.176 63.8572 121.974 63.886 121.772 63.9436C112.163 66.4484 106.191 71.8898 106.191 78.1517C106.191 86.8896 117.92 93.7273 132.88 93.7273C147.841 93.7273 159.57 86.8896 159.57 78.1517C159.57 72.3216 154.462 67.2257 145.922 64.505L145.648 64.4186L145.59 64.1307C145.302 62.792 144.811 61.5108 144.133 60.316L136.545 47.2163C136.112 46.4678 135.794 45.6472 135.621 44.7979C135.419 43.7903 134.597 43.0129 133.587 42.8402C133.457 42.8114 133.313 42.8114 133.183 42.8114C132.303 42.8114 131.481 43.2864 131.034 44.0494L130.716 44.5964C129.23 47.1731 128.682 50.1961 129.144 53.1328L129.317 54.198L128.393 53.651C128.004 53.4207 127.571 53.3055 127.124 53.3055C126.244 53.3055 125.422 53.7805 124.974 54.5435L124.657 55.0905C123.229 57.5665 122.652 60.4887 123.041 63.3102L123.113 63.886H122.392C122.392 63.8572 122.392 63.8572 122.392 63.8572Z" fill="#EB008B"/>
<path d="M143.498 66.3329C143.426 64.6487 142.95 63.0076 142.099 61.5537L134.511 48.4541C133.948 47.4752 133.53 46.3955 133.313 45.2871L132.996 45.8341C131.12 49.0731 131.12 53.0749 132.996 56.3138L139.055 66.7936C140.931 70.0325 140.931 74.0344 139.055 77.2733L138.738 77.8203C138.507 76.7119 138.103 75.6322 137.54 74.6534L131.986 65.0661L128.437 58.9338C127.874 57.9549 127.456 56.8753 127.24 55.7668L126.922 56.3138C125.047 59.5528 125.047 63.5259 126.908 66.7648L132.996 77.2877C134.871 80.5266 134.871 84.5285 132.996 87.7674L132.678 88.3144C132.448 87.206 132.044 86.1264 131.481 85.1475L123.893 72.0478C122.897 70.3204 122.407 68.3483 122.493 66.3473C114.371 68.4634 108.773 72.9547 108.773 78.1514C108.773 85.3922 119.622 91.2511 132.996 91.2511C146.369 91.2511 157.204 85.3778 157.204 78.1514C157.218 72.9403 151.606 68.449 143.498 66.3329Z" fill="#DC078B"/>
<path opacity="0.8" d="M267.9 117.911H133.991V136.366L-0.898437 136.409V158.059C-0.898437 158.059 -0.92729 169 10.0658 169H256.906C256.906 169 267.842 168.913 267.842 158.059C267.842 147.205 267.9 117.911 267.9 117.911Z" fill="#DD4096"/>
</g>
<path d="M236.527 130V129.5H236.027H225H224.5V130V149.818V150.318H225H236.027H236.527V149.818V130Z" fill="white" stroke="white"/>
<path d="M230.699 130.087L231.199 129.694L230.699 129.301C228.766 127.782 226.445 126.837 224 126.575C221.556 126.313 219.087 126.743 216.876 127.818C214.664 128.892 212.8 130.567 211.496 132.651C210.192 134.735 209.5 137.144 209.5 139.603C209.5 142.061 210.192 144.47 211.496 146.554C212.8 148.638 214.664 150.313 216.876 151.387C219.087 152.462 221.556 152.893 224 152.631C226.445 152.368 228.766 151.424 230.699 149.905L231.199 149.511L230.699 149.118C229.257 147.987 228.092 146.542 227.291 144.894C226.49 143.246 226.075 141.437 226.076 139.605V139.604C226.074 137.771 226.49 135.961 227.29 134.313C228.091 132.664 229.257 131.219 230.699 130.087Z" fill="white" stroke="white"/>
<path d="M229.691 149.12L229.191 149.513L229.691 149.906C231.624 151.426 233.945 152.371 236.39 152.633C238.834 152.896 241.303 152.465 243.515 151.391C245.726 150.317 247.591 148.642 248.895 146.558C250.2 144.474 250.892 142.064 250.892 139.606V139.602C250.892 137.144 250.2 134.735 248.895 132.651C247.591 130.567 245.726 128.892 243.515 127.817C241.303 126.743 238.834 126.312 236.39 126.575C233.945 126.838 231.624 127.783 229.691 129.302L229.191 129.695L229.691 130.088C231.132 131.221 232.297 132.666 233.098 134.314C233.899 135.963 234.315 137.771 234.315 139.604C234.315 141.437 233.899 143.246 233.098 144.894C232.297 146.542 231.132 147.987 229.691 149.12Z" fill="white" stroke="white"/>
<path d="M236.027 130H225V149.818H236.027V130Z" fill="#FF5F00"/>
<path d="M225.576 139.604C225.574 137.696 226.007 135.811 226.841 134.094C227.675 132.377 228.888 130.872 230.39 129.694C228.531 128.233 226.298 127.324 223.947 127.072C221.596 126.82 219.221 127.234 217.094 128.268C214.967 129.301 213.174 130.912 211.92 132.917C210.665 134.921 210 137.238 210 139.603C210 141.967 210.665 144.284 211.92 146.289C213.174 148.293 214.967 149.904 217.094 150.938C219.221 151.971 221.596 152.386 223.947 152.133C226.298 151.881 228.531 150.973 230.39 149.511C228.889 148.333 227.675 146.829 226.841 145.113C226.007 143.396 225.575 141.513 225.576 139.604Z" fill="#EB001B"/>
<path d="M250.392 139.606C250.392 141.971 249.726 144.288 248.472 146.292C247.217 148.297 245.423 149.908 243.296 150.941C241.169 151.975 238.794 152.389 236.443 152.136C234.092 151.884 231.859 150.975 230 149.513C231.501 148.334 232.714 146.829 233.548 145.113C234.382 143.396 234.815 141.513 234.815 139.604C234.815 137.696 234.382 135.812 233.548 134.096C232.714 132.379 231.501 130.875 230 129.695C231.859 128.234 234.092 127.325 236.443 127.072C238.794 126.82 241.169 127.234 243.296 128.267C245.423 129.3 247.217 130.911 248.472 132.916C249.726 134.92 250.392 137.238 250.392 139.602V139.606Z" fill="#F79E1B"/>
<path d="M251.252 147.49V147.084H251.417V147H251V147.084H251.179V147.49H251.252ZM252.061 147.49V147H251.935L251.788 147.35L251.641 147H251.529V147.49H251.62V147.123L251.756 147.441H251.851L251.987 147.123V147.494L252.061 147.49Z" fill="white"/>
</g>
<defs>
<clipPath id="clip0_8698_525">
<rect width="269" height="169" fill="white" transform="translate(-1)"/>
</clipPath>
</defs>
</svg>
