<svg xmlns="http://www.w3.org/2000/svg" width="151" height="241" fill="none"><g clip-path="url(#a)"><rect width="151" height="241" fill="#fff" rx="10"/><path fill="#ED1C24" d="M142.8-1.5H9.6C4.1-1.5-.3 2.9-.3 8.4v223.9c0 5.5 4.4 9.9 9.9 9.9h133.2c5.5 0 9.9-4.4 9.9-9.9V8.4c.1-5.4-4.4-9.9-9.9-9.9Z"/><path stroke="#D1181F" stroke-miterlimit="10" stroke-width=".954" d="M75.7 254.2c-90.9 0-159.4-64.2-159.4-149.4 0-37.4 16.3-76 43.5-103.3 25-39.5 69.5-64 116.2-64 7.5 0 15.1.6 22.5 1.8 35.8 5.8 73.6 31.2 94.1 63.1 26.6 27.2 42.5 65.5 42.5 102.3 0 85.3-68.6 149.5-159.4 149.5Z"/><path stroke="#D1181F" stroke-miterlimit="10" stroke-width=".954" d="M75.7 251.6c-89.4 0-156.8-63.1-156.8-146.8 0-36.8 16-74.8 42.9-101.7 24.5-38.8 68.2-63 114.1-63 7.4 0 14.8.6 22.1 1.8 35.2 5.8 72.4 30.7 92.5 62.2 26.3 26.8 42 64.4 42 100.7 0 83.7-67.4 146.8-156.8 146.8Z"/><path stroke="#D1181F" stroke-miterlimit="10" stroke-width=".954" d="M75.7 249.1c-88 0-154.3-62-154.3-144.2 0-36.3 15.8-73.7 42.4-100.1 24.1-38.3 67-62.1 112.2-62.1 7.3 0 14.6.6 21.7 1.8 34.7 5.7 71.2 30.3 90.9 61.3 26 26.3 41.5 63.4 41.5 99.1-.1 82.2-66.5 144.2-154.4 144.2Z"/><path stroke="#D1181F" stroke-miterlimit="10" stroke-width=".954" d="M75.7 246.5C-10.8 246.5-76 185.6-76 104.8c0-35.7 15.6-72.5 41.9-98.5 23.4-37.7 65.6-61.1 110-61.1 7.1 0 14.3.6 21.2 1.7 34.1 5.6 70 29.8 89.3 60.4 25.6 25.9 40.9 62.3 40.9 97.5.1 80.8-65.1 141.7-151.6 141.7Z"/><path stroke="#D1181F" stroke-miterlimit="10" stroke-width=".954" d="M75.7 243.8c-85 0-149-59.8-149-139C-73.3 69.7-57.9 33.5-32 8-9-29.1 32.3-52.1 75.9-52.1c7 0 14 .6 20.8 1.7 33.5 5.5 68.7 29.3 87.6 59.4 25.3 25.4 40.3 61.2 40.3 95.8.1 79.3-64 139-148.9 139Z"/><path stroke="#D1181F" stroke-miterlimit="10" stroke-width=".954" d="M75.7 241.1c-83.4 0-146.3-58.6-146.3-136.3 0-34.6 15.2-70.1 40.7-95.1 22.5-36.4 63-59.1 105.8-59.1 6.8 0 13.7.6 20.4 1.7 32.9 5.4 67.4 28.8 85.9 58.4 24.9 24.9 39.8 60.1 39.8 94.1 0 77.7-62.9 136.3-146.3 136.3Z"/><path stroke="#D1181F" stroke-miterlimit="10" stroke-width=".954" d="M75.7 238.4C-6.2 238.4-68 181-68 104.8c0-34 15-68.9 40.1-93.4 22-35.9 61.7-58.2 103.8-58.2 6.7 0 13.4.5 19.9 1.6 32.4 5.3 66.2 28.4 84.3 57.5 24.5 24.4 39.2 59 39.2 92.4 0 76.3-61.8 133.7-143.6 133.7Z"/><path stroke="#D1181F" stroke-miterlimit="10" stroke-width=".954" d="M75.7 235.7c-80.3 0-140.9-56.3-140.9-130.9 0-33.4 14.8-67.6 39.6-91.7C-4.2-22.1 34.7-44 75.9-44c6.5 0 13.1.5 19.5 1.6 31.8 5.2 64.9 27.9 82.6 56.5 24.2 24 38.6 57.9 38.6 90.8 0 74.6-60.6 130.8-140.9 130.8Z"/><path stroke="#D1181F" stroke-miterlimit="10" stroke-width=".954" d="M75.7 233c-78.8 0-138.2-55.1-138.2-128.2 0-32.8 14.6-66.4 39-90 21-34.6 59.1-56.1 99.5-56.1 6.4 0 12.8.5 19 1.6 31.2 5.1 63.6 27.4 80.9 55.5 23.8 23.5 38 56.7 38 89.1 0 73-59.4 128.1-138.2 128.1Z"/><path stroke="#D1181F" stroke-miterlimit="10" stroke-width=".954" d="M75.7 230.3c-77.3 0-135.5-53.9-135.5-125.5 0-32.2 14.3-65.2 38.4-88.3 20.4-34 57.7-55.1 97.3-55.1 6.2 0 12.5.5 18.6 1.5 30.6 5 62.4 26.9 79.2 54.5 23.5 23 37.5 55.6 37.5 87.4 0 71.6-58.3 125.5-135.5 125.5Z"/><path stroke="#D1181F" stroke-miterlimit="10" stroke-width=".954" d="M75.7 227.6C0 227.6-57.1 174.8-57.1 104.8c0-31.6 14.1-64 37.8-86.6C.6-15.1 37.1-35.9 75.9-35.9c6.1 0 12.2.5 18.1 1.5 30 4.9 61.1 26.4 77.5 53.6 23.1 22.5 36.9 54.5 36.9 85.7.1 69.9-57 122.7-132.7 122.7Z"/><path stroke="#D1181F" stroke-miterlimit="10" stroke-width=".954" d="M75.7 224.9c-74.2 0-130.1-51.6-130.1-120.1 0-31.1 13.9-62.8 37.3-84.9 19.3-32.7 55-53.1 93-53.1 5.9 0 11.9.5 17.7 1.5 29.4 4.8 59.8 25.9 75.8 52.6 22.8 22 36.3 53.4 36.3 84 .1 68.4-55.9 120-130 120Z"/><path stroke="#D1181F" stroke-miterlimit="10" stroke-width=".954" d="M75.7 222.2c-72.6 0-127.4-50.5-127.4-117.4 0-30.4 13.7-61.5 36.7-83.1C3.9-10.5 38.7-30.4 76-30.4c5.8 0 11.6.5 17.3 1.4 28.8 4.7 58.6 25.4 74.1 51.6 22.4 21.6 35.8 52.3 35.8 82.3-.1 66.8-54.9 117.3-127.5 117.3Z"/><path stroke="#D1181F" stroke-miterlimit="10" stroke-width=".954" d="M75.7 219.5C4.6 219.5-49 170.2-49 104.8c0-29.9 13.5-60.3 36.1-81.5C5.5-8.2 39.5-27.8 75.9-27.8c5.6 0 11.3.5 16.8 1.4C121-21.8 150-1.5 165.1 24.2c22 21.1 35.2 51.2 35.2 80.6.1 65.4-53.5 114.7-124.6 114.7Z"/><path stroke="#D1181F" stroke-miterlimit="10" stroke-width=".954" d="M75.7 216.8c-69.5 0-122-48.1-122-111.9 0-29.3 13.3-59.1 35.6-79.8 17.8-30.9 51-50.2 86.6-50.2 5.5 0 11 .5 16.4 1.3C120-19.3 148.3.7 163 25.9c21.7 20.6 34.6 50.1 34.6 78.9.1 63.9-52.4 112-121.9 112Z"/><path stroke="#D1181F" stroke-miterlimit="10" stroke-width=".954" d="M75.7 214.1c-68 0-119.3-47-119.3-109.2 0-28.7 13.1-57.9 35-78.1l.2-.3C8.9-3.7 41.3-22.4 75.9-22.4c5.3 0 10.7.4 15.9 1.3 27.1 4.4 54.8 24 69 48.7 21.3 20.1 34.1 48.9 34.1 77.2.1 62.3-51.2 109.3-119.2 109.3Z"/><path stroke="#D1181F" stroke-miterlimit="10" stroke-width=".954" d="M75.7 211.4c-66.5 0-116.6-45.8-116.6-106.5 0-28.2 12.9-56.7 34.4-76.3l.4-.7c16.9-29.3 48.3-47.4 82-47.4 5.2 0 10.4.4 15.5 1.3 26.5 4.3 53.5 23.5 67.3 47.7 21 19.6 33.5 47.8 33.5 75.5.1 60.6-50.1 106.4-116.5 106.4Z"/><path stroke="#D1181F" stroke-miterlimit="10" stroke-width=".954" d="M75.7 208.7c-64.9 0-113.9-44.6-113.9-103.8 0-27.6 12.7-55.4 33.9-74.6.3-.5.6-1.1.6-1.1C12.7.7 43.2-16.9 75.9-16.9c5 0 10.1.4 15 1.2 25.9 4.2 52.2 23 65.6 46.7 20.6 19.1 33 46.7 33 73.8.1 59.2-48.9 103.9-113.8 103.9Z"/><path stroke="#D1181F" stroke-miterlimit="10" stroke-width=".954" d="M75.7 206c-63.4 0-111.2-43.5-111.2-101.1 0-27 12.4-54.2 33.3-72.9.2-.4.8-1.4.8-1.4C14.5 2.9 44.1-14.2 75.9-14.2c4.9 0 9.8.4 14.6 1.2 25.3 4.1 51 22.5 63.9 45.8 20.3 18.7 32.4 45.6 32.4 72.1C186.8 162.5 139 206 75.7 206Z"/><path stroke="#D1181F" stroke-miterlimit="10" stroke-width=".954" d="M75.7 203.3c-61.9 0-108.5-42.3-108.5-98.5 0-26.4 12.2-53 32.7-71.2.3-.5.5-1 .8-1.4l.2-.4C16.3 5 45.1-11.6 75.9-11.6c4.8 0 9.5.4 14.2 1.2 24.8 4 49.7 22 62.2 44.8 20 18.2 31.9 44.5 31.9 70.4-.1 56.2-46.7 98.5-108.5 98.5Z"/><path stroke="#D1181F" stroke-miterlimit="10" stroke-width=".954" d="M75.7 200.6c-60.3 0-105.8-41.2-105.8-95.7 0-25.8 12-51.8 32.2-69.5.3-.6.7-1.2 1-1.8l.2-.4C18.2 7.3 46.1-8.8 76-8.8c4.6 0 9.2.4 13.7 1.1 24.2 3.9 48.4 21.5 60.5 43.8 19.6 17.7 31.3 43.3 31.3 68.7-.1 54.6-45.5 95.8-105.8 95.8Z"/><path stroke="#D1181F" stroke-miterlimit="10" stroke-width=".954" d="M75.7 197.9c-58.8 0-103.1-40-103.1-93 0-25.2 11.8-50.5 31.6-67.8.4-.7.8-1.5 1.2-2.2l.2-.4C20.1 9.4 47-6.1 75.9-6.1c4.5 0 8.9.4 13.3 1.1 23.6 3.9 47.1 21 58.7 42.9 19.3 17.2 30.8 42.2 30.8 67 0 53-44.3 93-103 93Z"/><path stroke="#D1181F" stroke-miterlimit="10" stroke-width=".954" d="M75.7 195.2c-57.2 0-100.4-38.8-100.4-90.3 0-24.7 11.6-49.3 31-66 .5-.9.9-1.7 1.4-2.5l.2-.4c14-24.2 40-39.3 68-39.3 4.3 0 8.6.4 12.8 1.1 23 3.8 45.9 20.6 57 41.9 18.9 16.7 30.2 41.1 30.2 65.3.1 51.3-43 90.2-100.2 90.2Z"/><path stroke="#D1181F" stroke-miterlimit="10" stroke-width=".954" d="M75.7 192.5C20 192.5-22 154.8-22 104.8c0-24.1 11.4-48.1 30.5-64.3.5-1 1.1-2 1.6-2.9l.2-.4C23.8 13.8 49-.7 75.9-.7c4.2 0 8.3.3 12.4 1 22.4 3.7 44.6 20.1 55.3 40.9 18.6 16.2 29.7 40 29.7 63.6 0 50-42 87.7-97.6 87.7Z"/><path stroke="#D1181F" stroke-miterlimit="10" stroke-width=".954" d="M75.7 189.7c-54.1 0-95-36.5-95-84.9 0-23.5 11.2-46.8 29.9-62.6l1.8-3.3.2-.4C25.7 16 49.9 2 75.9 2c4 0 8 .3 11.9 1 21.9 3.6 43.3 19.6 53.6 39.9 18.3 15.7 29.1 38.8 29.1 61.9.1 48.4-40.7 84.9-94.8 84.9Z"/><path stroke="#D1181F" stroke-miterlimit="10" stroke-width=".954" d="M75.7 187c-52.6 0-92.2-35.3-92.2-82.2 0-22.9 11-45.6 29.4-60.9.6-1.2 1.3-2.5 2-3.7l.2-.4C27.6 18.1 51 4.6 76 4.6c3.9 0 7.7.3 11.5.9 21.3 3.5 42.1 19.1 51.8 39 17.9 15.2 28.6 37.7 28.6 60.2 0 47-39.6 82.3-92.2 82.3Z"/><path stroke="#D1181F" stroke-miterlimit="10" stroke-width=".954" d="M75.7 184.3c-51 0-89.5-34.2-89.5-79.5C-13.8 82.5-3 60.4 15 45.6c.7-1.4 1.4-2.7 2.2-4l.2-.4C29.4 20.3 51.9 7.3 76 7.3c3.7 0 7.4.3 11.1.9 20.7 3.4 40.8 18.6 50.1 38 17.6 14.7 28.1 36.6 28.1 58.5-.1 45.5-38.6 79.6-89.6 79.6Z"/><path stroke="#D1181F" stroke-miterlimit="10" stroke-width=".954" d="M75.7 181.6c-49.5 0-86.8-33-86.8-76.8 0-21.7 10.6-43.2 28.3-57.4.7-1.5 1.5-3 2.3-4.4l.2-.4c11.6-20.1 33.1-32.5 56.2-32.5 3.6 0 7.1.3 10.6.9 20.1 3.3 39.5 18.1 48.4 37 17.3 14.3 27.6 35.5 27.6 56.8 0 43.8-37.3 76.8-86.8 76.8Z"/><path stroke="#D1181F" stroke-miterlimit="10" stroke-width=".954" d="M75.7 178.9c-48 0-84.1-31.9-84.1-74.1 0-21.1 10.4-41.9 27.8-55.7.8-1.6 1.6-3.2 2.5-4.8l.2-.4C33.2 24.7 53.8 12.8 76 12.8c3.4 0 6.8.3 10.2.8 19.6 3.2 38.2 17.7 46.6 36.1 17 13.8 27.1 34.3 27.1 55.1-.1 42.3-36.3 74.1-84.2 74.1Z"/><path stroke="#D1181F" stroke-miterlimit="10" stroke-width=".954" d="M75.7 176.2c-46.4 0-81.4-30.7-81.4-71.4 0-20.5 10.1-40.6 27.1-53.8.1-.2.2-.3.3-.5.8-1.6 1.6-3.3 2.5-4.8l.3-.4C35 26.9 54.7 15.5 75.9 15.5c3.3 0 6.5.3 9.7.8 19 3.1 36.9 17.2 44.9 35.1 16.6 13.3 26.6 33.2 26.6 53.4 0 40.7-35 71.4-81.4 71.4Z"/><path stroke="#D1181F" stroke-miterlimit="10" stroke-width=".954" d="M75.7 173.5C30.8 173.5-3 144-3 104.8c0-19.8 9.8-39.2 26.4-52 .2-.3.4-.7.7-1 .8-1.6 1.6-3.3 2.5-4.8l.3-.4c10.1-17.5 29-28.4 49.2-28.4 3.1 0 6.2.3 9.3.8 18.4 3 35.7 16.7 43.1 34.1 16.3 12.8 26.1 32.1 26.1 51.7-.2 39.2-34.1 68.7-78.9 68.7Z"/><path stroke="#D1181F" stroke-miterlimit="10" stroke-width=".954" d="M75.7 170.8c-43.3 0-76-28.4-76-66 0-19.2 9.6-37.8 25.7-50.1.3-.5.7-1 1-1.5.8-1.6 1.6-3.3 2.5-4.8l.3-.4c9.6-16.7 27.6-27.1 46.9-27.1 3 0 5.9.2 8.9.7 17.6 2.9 34.1 16 41.2 32.8l.3.5c16 12.2 25.5 30.9 25.5 50-.3 37.6-33 65.9-76.3 65.9Z"/><path stroke="#D1181F" stroke-miterlimit="10" stroke-width=".954" d="M75.7 168.1c-41.8 0-73.3-27.2-73.3-63.3 0-18.5 9.3-36.5 25-48.2.4-.7.9-1.3 1.4-2 .8-1.7 1.6-3.3 2.5-4.8l.3-.5c9.1-15.9 26.2-25.7 44.5-25.7 2.8 0 5.6.2 8.4.7 16.8 2.7 32.5 15.3 39.2 31.3l.6 1.1c15.6 11.7 24.8 29.7 24.8 48.1-.1 36.1-31.6 63.3-73.4 63.3Z"/><path stroke="#D1181F" stroke-miterlimit="10" stroke-width=".954" d="M75.7 165.4c-40.3 0-70.6-26-70.6-60.6 0-17.8 9.1-35.1 24.3-46.3.5-.9 1.1-1.7 1.7-2.5.8-1.7 1.6-3.3 2.5-4.9l.3-.5c8.7-15 24.8-24.4 42.2-24.4 2.7 0 5.4.2 8 .7 16 2.6 30.9 14.6 37.2 29.9l1 1.7c15.2 11.2 24.2 28.5 24.2 46.3-.2 34.6-30.6 60.6-70.8 60.6Z"/><path stroke="#D1181F" stroke-miterlimit="10" stroke-width=".954" d="M75.7 162.7c-38.7 0-67.9-24.9-67.9-57.9 0-17.2 8.8-33.7 23.6-44.5.6-1 1.3-2 2-3 .8-1.7 1.6-3.3 2.5-4.9l.3-.5c8.2-14.2 23.4-23 39.8-23 2.5 0 5.1.2 7.5.6 15.2 2.5 29.3 13.9 35.2 28.4l1.4 2.4c14.8 10.7 23.6 27.3 23.6 44.5-.1 33-29.3 57.9-68 57.9Z"/><path stroke="#D1181F" stroke-miterlimit="10" stroke-width=".954" d="M75.7 160c-37.2 0-65.2-23.7-65.2-55.2 0-16.5 8.5-32.4 22.9-42.6.7-1.2 1.5-2.4 2.4-3.5.7-1.7 1.6-3.3 2.5-4.9l.3-.5C46.2 40 60.5 31.7 75.9 31.7c2.4 0 4.8.2 7.1.6 14.4 2.3 27.7 13.1 33.2 26.9l1.8 3c14.3 10.2 22.9 26.1 22.9 42.6 0 31.5-28.1 55.2-65.2 55.2Z"/><path stroke="#D1181F" stroke-miterlimit="10" stroke-width=".954" d="M75.7 157.3c-35.6 0-62.5-22.6-62.5-52.5 0-15.8 8.3-31 22.2-40.7.8-1.4 1.7-2.8 2.7-4 .7-1.7 1.6-3.3 2.5-4.9l.3-.5c7.1-12.5 20.6-20.3 35-20.3 2.2 0 4.5.2 6.6.5 13.6 2.2 26.1 12.4 31.2 25.4l2.2 3.7c13.9 9.7 22.2 24.9 22.2 40.7.1 30-26.8 52.6-62.4 52.6Z"/><path stroke="#D1181F" stroke-miterlimit="10" stroke-width=".954" d="M75.7 154.6c-34.1 0-59.8-21.4-59.8-49.8 0-15.2 8-29.6 21.6-38.8l.2-.3c.8-1.5 1.8-2.9 2.8-4.2.7-1.7 1.6-3.3 2.5-4.9l.3-.5C50 44.4 62.6 37.2 76.1 37.2c2.1 0 4.2.2 6.2.5 12.8 2.1 24.5 11.7 29.2 23.9l2.6 4.4c13.5 9.2 21.6 23.7 21.6 38.8-.2 28.4-25.9 49.8-60 49.8Z"/><path stroke="#D1181F" stroke-miterlimit="10" stroke-width=".954" d="M75.7 151.9c-32.5 0-57.1-20.2-57.1-47.1 0-14.5 7.8-28.3 20.9-36.9 0-.2.5-.9.5-.9.8-1.5 1.8-2.9 2.8-4.2.7-1.7 1.5-3.4 2.5-5l.3-.5C51.9 46.5 63.5 39.7 76 39.7c1.9 0 3.9.2 5.8.5 11.9 1.9 22.8 10.9 27.2 22.4l3 5.2c13.1 8.7 20.9 22.4 20.9 37-.1 26.9-24.7 47.1-57.2 47.1Z"/><path stroke="#D1181F" stroke-miterlimit="10" stroke-width=".954" d="M75.7 149.2c-31 0-54.4-19.1-54.4-44.3 0-13.8 7.5-26.9 20.2-35 .2-.3.4-.7.6-1l.2-.4c.8-1.5 1.8-2.8 2.8-4.1.7-1.7 1.5-3.4 2.5-5l.3-.5c5.8-10 16.5-16.2 28.1-16.2 1.8 0 3.6.1 5.3.4 11.1 1.8 21.2 10.2 25.2 20.9l3.4 5.9c12.7 8.2 20.2 21.2 20.2 35 0 25.2-23.4 44.3-54.4 44.3Z"/><path stroke="#D1181F" stroke-miterlimit="10" stroke-width=".954" d="M75.7 146.5c-29.5 0-51.7-17.9-51.7-41.6 0-13.2 7.3-25.5 19.6-33.1.3-.5.6-1.1.9-1.6l.2-.4c.8-1.4 1.8-2.8 2.8-4.1.7-1.7 1.5-3.4 2.4-5l.3-.5C55.5 51 65.4 45.3 76 45.3c1.6 0 3.3.1 4.9.4 10.3 1.7 19.6 9.5 23.2 19.4l3.9 6.7c12.2 7.6 19.5 20 19.5 33.1-.1 23.7-22.4 41.6-51.8 41.6Z"/><path stroke="#D1181F" stroke-miterlimit="10" stroke-width=".954" d="M75.7 143.8c-27.9 0-49-16.7-49-38.9 0-12.5 7.1-24.1 18.9-31.2.4-.7.7-1.4 1.1-2.1l.3-.6c.8-1.4 1.8-2.8 2.8-4 .7-1.7 1.5-3.5 2.4-5.1l.3-.5c4.8-8.3 13.8-13.5 23.4-13.5 1.5 0 3 .1 4.4.4 9.5 1.5 17.9 8.7 21.1 17.9l4.3 7.5c11.8 7.1 18.8 18.7 18.8 31.2.1 22.1-20.9 38.9-48.8 38.9Z"/><path stroke="#D1181F" stroke-miterlimit="10" stroke-width=".954" d="M75.7 141.1c-26.4 0-46.3-15.6-46.3-36.2 0-11.8 6.8-22.7 18.3-29.3.4-.9.9-1.8 1.4-2.7l.3-.4c.8-1.4 1.8-2.8 2.8-4 .7-1.8 1.5-3.5 2.4-5.1l.3-.5c4.3-7.5 12.4-12.2 21.1-12.2 1.3 0 2.7.1 4 .3 8.6 1.4 16.3 7.9 19.1 16.3l4.8 8.3c11.3 6.6 18.1 17.5 18.1 29.2-.1 20.7-20 36.3-46.3 36.3Z"/><path stroke="#D1181F" stroke-miterlimit="10" stroke-width=".954" d="M75.7 138.4c-24.8 0-43.6-14.4-43.6-33.5 0-11.1 6.6-21.3 17.7-27.4.5-1.1 1-2.2 1.6-3.3l.3-.4c.8-1.4 1.8-2.7 2.9-3.9.6-1.8 1.4-3.5 2.4-5.2l.3-.5c3.9-6.7 11-10.8 18.7-10.8 1.2 0 2.4.1 3.5.3 7.8 1.3 14.6 7.2 17.1 14.8l5.3 9.2c10.9 6.1 17.4 16.2 17.4 27.2-.1 19.1-18.8 33.5-43.6 33.5Z"/><path stroke="#D1181F" stroke-miterlimit="10" stroke-width=".954" d="M75.7 135.7c-23.3 0-40.9-13.3-40.9-30.8 0-10.5 6.4-19.9 17.1-25.5.5-1.3 1.1-2.6 1.8-3.8l.3-.5c.8-1.4 1.8-2.7 2.9-3.8.6-1.8 1.4-3.6 2.4-5.3l.3-.5C63 59.7 69.3 56 76 56c1 0 2.1.1 3.1.3 7 1.1 12.9 6.4 15 13.2 3.7 6.5 5.2 9.1 5.9 10.1 10.4 5.6 16.6 14.9 16.6 25.2-.1 17.6-17.6 30.9-40.9 30.9Z"/><path stroke="#D1181F" stroke-miterlimit="10" stroke-width=".954" d="M75.7 133c-21.8 0-38.2-12.1-38.2-28.1 0-9.8 6.2-18.5 16.6-23.5.5-1.5 1.2-3 2-4.4l.3-.5c.8-1.4 1.8-2.6 2.9-3.7.6-1.9 1.3-3.7 2.3-5.4l.3-.5c2.9-5 8.3-8.1 14.1-8.1.9 0 1.8.1 2.7.2 6.1 1 11.3 5.6 13 11.6l6.4 11.1c10 5.1 15.9 13.7 15.9 23.2-.2 16-16.6 28.1-38.3 28.1Z"/><path stroke="#D1181F" stroke-miterlimit="10" stroke-width=".954" d="M75.7 130.3c-20.2 0-35.5-10.9-35.5-25.4 0-9.1 6-17.1 16.1-21.6.5-1.8 1.2-3.4 2.1-5l.3-.5c.8-1.4 1.8-2.5 2.9-3.5.5-1.9 1.3-3.8 2.3-5.5l.3-.5c2.4-4.2 6.9-6.8 11.7-6.8.7 0 1.5.1 2.2.2 5.2.9 9.6 4.8 10.9 10l6.6 11.4c.1.2.3.5.4.7 9.5 4.6 15.1 12.4 15.1 21.1 0 14.4-15.2 25.4-35.4 25.4Z"/><path stroke="#D1181F" stroke-miterlimit="10" stroke-width=".954" d="M75.7 127.6c-18.7 0-32.8-9.8-32.8-22.7 0-8.4 5.8-15.6 15.7-19.6.5-2 1.2-3.9 2.2-5.6l.3-.5c.8-1.3 1.8-2.5 3-3.3.5-2 1.2-3.9 2.2-5.7l.3-.5c1.9-3.3 5.5-5.4 9.4-5.4.6 0 1.2 0 1.8.1 4.3.7 7.8 4 8.8 8.3l6.8 11.7c.3.5.5.9.7 1.4 9 4 14.4 11.1 14.4 19.1-.1 12.9-14.2 22.7-32.8 22.7Z"/><path stroke="#D1181F" stroke-miterlimit="10" stroke-width=".954" d="M75.7 124.9c-17.1 0-30.1-8.6-30.1-20 0-7.6 5.8-14.2 15.4-17.6.3-2.2 1.1-4.4 2.2-6.3l.3-.5c.7-1.3 1.8-2.3 3.1-3 .3-2.1 1.1-4.2 2.1-6l.3-.5c1.4-2.5 4.1-4.1 7-4.1.4 0 .9 0 1.3.1 3.3.5 6 3.1 6.6 6.4 0 .2.1.3.2.4L91 85.7c.4.7.7 1.4 1 2.1 8.6 3.5 13.7 9.8 13.7 17 0 11.4-12.9 20.1-30 20.1Z"/><path stroke="#D1181F" stroke-miterlimit="10" stroke-width=".954" d="M75.7 122.1c-15.6 0-27.4-7.4-27.4-17.3 0-6.9 5.8-12.8 15.2-15.6.1-2.4.8-4.8 2-6.9l.3-.5c.7-1.2 1.9-2.1 3.2-2.5.1-2.3.8-4.5 2-6.5l.3-.5c1-1.7 2.8-2.7 4.7-2.7.3 0 .6 0 .9.1 2.2.4 4 2.1 4.4 4.3.1.4.2.9.5 1.2l6.9 11.9c.5.9.9 1.9 1.3 2.9 8.3 3 13.2 8.5 13.2 14.9-.2 9.8-11.9 17.2-27.5 17.2Z"/><path stroke="#D1181F" stroke-miterlimit="10" stroke-width=".954" d="M75.7 119.4c-13.8 0-24.6-6.4-24.6-14.6 0-5.9 5.5-11 14.5-13.3.2-.1.5-.1.7-.1h.2c-.4-2.6.1-5.4 1.5-7.8l.3-.5c.5-.8 1.4-1.4 2.3-1.4h.4c.3.1.7.2 1 .3-.4-2.7.1-5.6 1.5-8.1l.3-.5c.5-.8 1.4-1.4 2.3-1.4h.4c1.1.2 2 1 2.2 2.1.1.7.4 1.4.8 2.1l6.9 11.9c.6 1.1 1.1 2.3 1.4 3.6 7.9 2.5 12.7 7.3 12.7 12.8-.2 8.5-11 14.9-24.8 14.9Z"/><path fill="#D1181F" d="M85.3 94.1c-.1-1.5-.5-3-1.3-4.3l-6.9-11.9c-.5-.9-.8-1.9-1.1-2.9l-.3.5c-1.7 2.9-1.7 6.6 0 9.5l5.5 9.5c1.7 2.9 1.7 6.6 0 9.5l-.3.5c-.2-1-.6-2-1.1-2.9l-5-8.7-3.2-5.6c-.5-.9-.9-1.9-1.1-2.9l-.3.5c-1.7 2.9-1.7 6.6 0 9.5l5.5 9.6c1.7 2.9 1.7 6.6 0 9.5l-.3.5c-.2-1-.6-2-1.1-2.9l-6.9-11.9c-.9-1.6-1.3-3.4-1.3-5.2-7.4 1.9-12.4 6-12.4 10.7 0 6.6 9.8 11.9 21.9 11.9 12.1 0 21.9-5.3 21.9-11.9.2-4.6-4.9-8.7-12.2-10.6Z"/><path fill="url(#b)" d="M152.9 168.7H38.3v36.8H-.2v26.7s0 10 10 10H143s9.9-.1 9.9-10v-63.5Z"/><path fill="#fff" d="M20.3 234.1c-.3-.1-.6-.5-.7-.8 0-.2 0-.4.3-1.1 1.4-2.6 2-5.1 2-8 0-2.8-.5-5.1-1.8-7.7-.3-.6-.5-1.1-.5-1.2 0-.3.2-.7.5-.9.4-.2.9-.2 1.2.1.1.1.4.6.6 1 .9 1.8 1.6 3.8 1.9 5.9.2 1.3.2 3.8.1 4.9-.3 2.2-.9 4.1-1.8 6-.6 1.2-.9 1.6-1.2 1.6h-.2c-.1.2-.3.2-.4.2Zm-3.8-2c-.5-.1-.8-.7-.7-1.2 0-.1.3-.6.5-1.1 1-2.1 1.5-4.4 1.3-6.7-.2-1.8-.5-3-1.3-4.7-.6-1.1-.6-1.3-.3-1.8.3-.4 1.1-.5 1.5-.1.3.3 1.2 2.1 1.5 3.1 1.1 3.4.9 7.1-.5 10.4-.8 1.7-1.3 2.3-2 2.1Zm-3.9-2c-.3-.1-.6-.5-.6-.8 0-.2 0-.4.4-1.1 1.3-2.7 1.3-5.2 0-7.8-.6-1.1-.6-1.4-.1-1.8.2-.2.3-.3.7-.3.6 0 .8.3 1.3 1.3.8 1.6 1.1 2.9 1.1 4.7 0 1.8-.3 3-1.1 4.7-.5.9-.7 1.2-1.2 1.3-.1-.2-.4-.2-.5-.2Zm-3.7-1.9c-.2-.1-.5-.4-.6-.7-.1-.3 0-.6.3-1.2.5-.8.6-1.2.6-2.2 0-1-.1-1.4-.6-2.2-.2-.3-.3-.6-.3-.7-.1-.5.3-1.1.8-1.2.5-.1.8.1 1.2.8 1.3 2 1.3 4.6 0 6.6-.3.7-.8 1-1.4.8Z"/><path fill="url(#c)" d="M72 183.2c1.5 0 2.7 1.2 2.7 2.6V211c0 1.5-1.2 2.6-2.7 2.6H55c-1.5 0-2.7-1.2-2.7-2.6v-25.2c0-1.5 1.2-2.6 2.7-2.6h17Z"/><path stroke="#231F20" stroke-width=".5" d="M60.1 183.2v8.8c-5.2.8-7.8 4.8-7.8 4.8v2.7s2.5 4 7.8 4.8v9.5M67.2 183.2v9c3.9 0 7.5 4.5 7.5 4.5v2.8s-3.6 4.5-7.5 4.5v9.6"/><path fill="#231F20" d="M53.9 197.3c.4 0 .7.3.7.7 0 .4-.3.7-.7.7-.4 0-.7-.3-.7-.7 0-.3.3-.7.7-.7Z"/><path stroke="#231F20" stroke-width=".5" d="M60.1 204.2s1.4-.6 3.5-.6 3.6.5 3.6.5M60.1 192s1.4.6 3.5.6 3.6-.5 3.6-.5M52.5 204.3v7.9M74.5 204.3v7.9M52.5 184.2v7.9M74.5 184.2v7.9"/><path stroke="#D1D3D4" stroke-width=".3" d="M72 183.2c1.5 0 2.7 1.2 2.7 2.6V211c0 1.5-1.2 2.6-2.7 2.6H55c-1.5 0-2.7-1.2-2.7-2.6v-25.2c0-1.5 1.2-2.6 2.7-2.6h17Z"/><path fill="#fff" d="M128.5 202c-3.6 0-6.9 1.1-9.7 3.2-2.8-2.1-6.2-3.2-9.7-3.2-9 0-16.3 7.3-16.3 16.3s7.3 16.3 16.3 16.3c3.6 0 6.9-1.1 9.7-3.2 2.8 2.1 6.2 3.2 9.7 3.2 9 0 16.3-7.3 16.3-16.3s-7.3-16.3-16.3-16.3Z"/><path fill="#F06824" d="M125.7 205.9h-13.8v24.8h13.8v-24.8Z"/><path fill="#E32028" d="M112.8 218.3c0-5 2.4-9.5 6-12.4-2.7-2.1-6.1-3.4-9.7-3.4-8.7 0-15.8 7.1-15.8 15.8 0 8.7 7.1 15.8 15.8 15.8 3.7 0 7.1-1.3 9.7-3.4-3.7-2.9-6-7.4-6-12.4Z"/><path fill="#F99F1F" d="M144.3 218.3c0 8.7-7.1 15.8-15.8 15.8-3.7 0-7.1-1.3-9.7-3.4 3.7-2.9 6-7.4 6-12.4s-2.4-9.5-6-12.4c2.7-2.1 6.1-3.4 9.7-3.4 8.7 0 15.8 7.1 15.8 15.8Z"/><path fill="#fff" d="M142.8 228.1v-.5h.2v-.1h-.5v.1h.2v.5h.1Zm1 0v-.6h-.2l-.2.4-.2-.4h-.2v.6h.1v-.5l.2.4h.1l.2-.4v.5h.2Z"/></g><defs><linearGradient id="b" x1="76.334" x2="76.334" y1="242.286" y2="168.721" gradientUnits="userSpaceOnUse"><stop stop-color="#ED1C24"/><stop offset="1" stop-color="#EE2345" stop-opacity=".4"/></linearGradient><linearGradient id="c" x1="73.166" x2="53.673" y1="185.591" y2="211.489" gradientUnits="userSpaceOnUse"><stop stop-color="#7A7A7A"/><stop offset=".304" stop-color="#fff"/><stop offset="1" stop-color="#7A7A7A"/></linearGradient><clipPath id="a"><rect width="151" height="241" fill="#fff" rx="10"/></clipPath></defs></svg>