<svg xmlns="http://www.w3.org/2000/svg" width="151" height="241" fill="none"><g clip-path="url(#a)"><rect width="151" height="241" fill="#fff" rx="10"/><path fill="#DE4097" d="M141.8-1.4H8.6C3.1-1.4-1.3 3-1.3 8.5v223.9c0 5.5 4.4 9.9 9.9 9.9h133.2c5.5 0 9.9-4.4 9.9-9.9V8.5c.1-5.5-4.4-9.9-9.9-9.9Z"/><path stroke="#EC008C" stroke-miterlimit="10" d="M74.7 254.3c-90.9 0-159.4-64.2-159.4-149.3 0-37.4 16.3-76 43.5-103.3 25-39.5 69.5-64 116.2-64 7.5 0 15.1.6 22.5 1.8 35.8 5.8 73.6 31.2 94.1 63.1 26.6 27.2 42.5 65.5 42.5 102.3 0 85.2-68.5 149.4-159.4 149.4Z"/><path stroke="#EC008C" stroke-miterlimit="10" d="M74.7 251.7c-89.4 0-156.8-63.1-156.8-146.8 0-36.8 16-74.8 42.9-101.7 24.5-38.9 68.3-63 114.2-63 7.4 0 14.8.6 22.1 1.8 35.2 5.8 72.4 30.7 92.5 62.2 26.3 26.8 42 64.4 42 100.7-.1 83.7-67.5 146.8-156.9 146.8Z"/><path stroke="#EC008C" stroke-miterlimit="10" d="M74.7 249.2c-88 0-154.3-62-154.3-144.2 0-36.3 15.8-73.7 42.4-100.1 24-38.4 67-62.2 112.2-62.2 7.3 0 14.6.6 21.7 1.8 34.7 5.7 71.2 30.3 90.9 61.3 26 26.3 41.5 63.4 41.5 99.1-.1 82.2-66.5 144.3-154.4 144.3Z"/><path stroke="#EC008C" stroke-miterlimit="10" d="M74.7 246.6C-11.8 246.6-77 185.7-77 104.9c0-35.7 15.6-72.5 41.9-98.5C-11.6-31.3 30.6-54.7 75-54.7c7.1 0 14.3.6 21.2 1.7 34.1 5.6 70 29.8 89.3 60.4 25.6 25.9 40.9 62.3 40.9 97.5 0 80.8-65.2 141.7-151.7 141.7Z"/><path stroke="#EC008C" stroke-miterlimit="10" d="M74.7 243.9c-85 0-149-59.8-149-139 0-35.1 15.4-71.3 41.3-96.8C-10-29 31.3-52 75-52c7 0 14 .6 20.8 1.7 33.5 5.5 68.7 29.3 87.6 59.4 25.3 25.4 40.3 61.2 40.3 95.8 0 79.2-64.1 139-149 139Z"/><path stroke="#EC008C" stroke-miterlimit="10" d="M74.7 241.2c-83.4 0-146.3-58.6-146.3-136.3 0-34.6 15.2-70.1 40.7-95.1C-8.4-26.7 32.1-49.3 75-49.3c6.8 0 13.7.6 20.4 1.7 32.9 5.4 67.4 28.8 85.9 58.4 24.9 24.9 39.8 60.1 39.8 94.1-.1 77.7-63 136.3-146.4 136.3Z"/><path stroke="#EC008C" stroke-miterlimit="10" d="M74.7 238.5c-81.9 0-143.6-57.4-143.6-133.6 0-34 15-68.9 40.1-93.4C-6.8-24.4 32.9-46.6 75-46.6c6.7 0 13.4.5 19.9 1.6 32.4 5.3 66.2 28.4 84.3 57.5 24.5 24.4 39.2 59 39.2 92.4-.1 76.2-61.8 133.6-143.7 133.6Z"/><path stroke="#EC008C" stroke-miterlimit="10" d="M74.7 235.8c-80.3 0-140.9-56.3-140.9-130.9 0-33.4 14.8-67.6 39.6-91.7C-5.2-22 33.7-43.9 75-43.9c6.5 0 13.1.5 19.5 1.6 31.8 5.2 64.9 27.9 82.6 56.5 24.2 24 38.6 57.9 38.6 90.8-.1 74.5-60.7 130.8-141 130.8Z"/><path stroke="#EC008C" stroke-miterlimit="10" d="M74.7 233.1c-78.8 0-138.2-55.1-138.2-128.2 0-32.8 14.6-66.4 39-90 20.9-34.6 59-56.1 99.5-56.1 6.4 0 12.8.5 19 1.6 31.2 5.1 63.6 27.4 80.9 55.5 23.8 23.5 38 56.7 38 89.1 0 73-59.4 128.1-138.2 128.1Z"/><path stroke="#EC008C" stroke-miterlimit="10" d="M74.7 230.4c-77.3 0-135.5-53.9-135.5-125.5 0-32.2 14.3-65.2 38.4-88.3C-2-17.4 35.3-38.5 75-38.5c6.2 0 12.5.5 18.6 1.5 30.6 5 62.4 26.9 79.2 54.5 23.5 23 37.5 55.6 37.5 87.4-.1 71.5-58.4 125.5-135.6 125.5Z"/><path stroke="#EC008C" stroke-miterlimit="10" d="M74.7 227.7c-75.7 0-132.8-52.8-132.8-122.8 0-31.6 14.1-64 37.8-86.6C-.4-15.1 36.1-35.8 75-35.8c6.1 0 12.2.5 18.1 1.5 30 4.9 61.1 26.4 77.5 53.6 23.1 22.5 36.9 54.5 36.9 85.7 0 69.9-57.1 122.7-132.8 122.7Z"/><path stroke="#EC008C" stroke-miterlimit="10" d="M74.7 225C.5 225-55.4 173.4-55.4 104.9c0-31.1 13.9-62.8 37.3-84.9C1.3-12.8 36.9-33.1 75-33.1c5.9 0 11.9.5 17.7 1.5 29.4 4.8 59.8 25.9 75.8 52.6 22.8 22 36.3 53.4 36.3 84 0 68.4-55.9 120-130.1 120Z"/><path stroke="#EC008C" stroke-miterlimit="10" d="M74.7 222.3c-72.6 0-127.4-50.5-127.4-117.4 0-30.5 13.7-61.5 36.7-83.2C2.9-10.4 37.7-30.4 75-30.4c5.8 0 11.6.5 17.3 1.4 28.8 4.7 58.6 25.4 74.1 51.6 22.4 21.6 35.8 52.3 35.8 82.3-.1 66.9-54.9 117.4-127.5 117.4Z"/><path stroke="#EC008C" stroke-miterlimit="10" d="M74.7 219.6C3.6 219.6-50 170.3-50 104.9c0-29.9 13.5-60.3 36.1-81.5C4.5-8.1 38.5-27.7 75-27.7c5.6 0 11.3.5 16.8 1.4 28.3 4.6 57.3 24.9 72.4 50.6 22 21.1 35.2 51.2 35.2 80.6 0 65.4-53.6 114.7-124.7 114.7Z"/><path stroke="#EC008C" stroke-miterlimit="10" d="M74.7 216.9c-69.5 0-122-48.1-122-111.9 0-29.3 13.3-59.1 35.6-79.8C6.1-5.8 39.3-25 75-25c5.5 0 11 .5 16.4 1.3C119-19.1 147.4.8 162 26c21.7 20.6 34.6 50.1 34.6 78.9.1 63.8-52.4 112-121.9 112Z"/><path stroke="#EC008C" stroke-miterlimit="10" d="M74.7 214.2c-68 0-119.3-47-119.3-109.2 0-28.7 13.1-57.9 35-78.1l.2-.3C7.9-3.6 40.3-22.3 75-22.3c5.3 0 10.7.4 15.9 1.3 27.1 4.4 54.8 24 69 48.7 21.3 20.1 34.1 48.9 34.1 77.2 0 62.3-51.3 109.3-119.3 109.3Z"/><path stroke="#EC008C" stroke-miterlimit="10" d="M74.7 211.4c-66.5 0-116.6-45.8-116.6-106.5 0-28.2 12.9-56.7 34.4-76.3l.4-.7C9.8-1.4 41.2-19.6 75-19.6c5.2 0 10.4.4 15.5 1.3C117-14 144 5.2 157.8 29.4c21 19.6 33.5 47.8 33.5 75.5 0 60.7-50.2 106.5-116.6 106.5Z"/><path stroke="#EC008C" stroke-miterlimit="10" d="M74.7 208.7c-64.9 0-113.9-44.6-113.9-103.8 0-27.6 12.7-55.4 33.9-74.6.3-.5.6-1.1.6-1.1C11.7.8 42.2-16.9 75-16.9c5 0 10.1.4 15 1.2 25.9 4.2 52.2 23 65.6 46.7 20.6 19.1 33 46.7 33 73.8 0 59.3-49 103.9-113.9 103.9Z"/><path stroke="#EC008C" stroke-miterlimit="10" d="M74.7 206c-63.4 0-111.2-43.5-111.2-101.1 0-27 12.4-54.2 33.3-72.9.2-.4.8-1.4.8-1.4C13.5 3 43.2-14.2 75-14.2c4.9 0 9.8.4 14.6 1.2 25.3 4.1 51 22.5 63.9 45.8 20.3 18.7 32.4 45.6 32.4 72.1 0 57.7-47.8 101.1-111.2 101.1Z"/><path stroke="#EC008C" stroke-miterlimit="10" d="M74.7 203.3c-61.9 0-108.5-42.3-108.5-98.4 0-26.4 12.2-53 32.7-71.2.3-.5.5-1 .8-1.4l.2-.4C15.4 5.1 44.1-11.5 75-11.5c4.8 0 9.5.4 14.2 1.2 24.8 4 49.7 22 62.2 44.8 20 18.2 31.9 44.5 31.9 70.4-.1 56.1-46.8 98.4-108.6 98.4Z"/><path stroke="#EC008C" stroke-miterlimit="10" d="M74.7 200.6c-60.3 0-105.8-41.2-105.8-95.7 0-25.8 12-51.8 32.2-69.5.3-.6.7-1.2 1-1.8l.2-.4C17.2 7.3 45.1-8.8 75-8.8c4.6 0 9.2.4 13.7 1.1 24.2 3.9 48.4 21.5 60.5 43.8 19.6 17.7 31.3 43.3 31.3 68.7 0 54.7-45.5 95.8-105.8 95.8Z"/><path stroke="#EC008C" stroke-miterlimit="10" d="M74.7 197.9c-58.8 0-103.1-40-103.1-93 0-25.2 11.8-50.5 31.6-67.8.4-.7.8-1.5 1.2-2.2l.2-.4C19.1 9.5 46.1-6.1 75-6.1c4.5 0 8.9.4 13.3 1.1 23.6 3.9 47.1 21 58.7 42.9 19.3 17.2 30.8 42.2 30.8 67 0 53-44.4 93-103.1 93Z"/><path stroke="#EC008C" stroke-miterlimit="10" d="M74.7 195.2c-57.2 0-100.4-38.8-100.4-90.3 0-24.7 11.6-49.3 31-66 .5-.9.9-1.7 1.4-2.5l.2-.4c14-24.2 40-39.3 68-39.3 4.3 0 8.6.4 12.8 1.1 23 3.8 45.9 20.6 57 41.9 18.9 16.7 30.2 41.1 30.2 65.3.1 51.4-43 90.2-100.2 90.2Z"/><path stroke="#EC008C" stroke-miterlimit="10" d="M74.7 192.5C19 192.5-23 154.9-23 104.9c0-24.1 11.4-48.1 30.5-64.3.5-1 1.1-2 1.6-2.9l.2-.4C22.8 13.9 48-.7 75-.7c4.2 0 8.3.3 12.4 1C109.8 4 132 20.4 142.7 41.2c18.6 16.2 29.7 40 29.7 63.6-.1 50.1-42 87.7-97.7 87.7Z"/><path stroke="#EC008C" stroke-miterlimit="10" d="M74.7 189.8c-54.1 0-95-36.5-95-84.9 0-23.5 11.2-46.8 29.9-62.6l1.8-3.3.2-.4C24.7 16.1 48.9 2 75 2c4 0 8 .3 11.9 1 21.9 3.6 43.3 19.6 53.6 39.9 18.3 15.7 29.1 38.8 29.1 61.9 0 48.5-40.8 85-94.9 85Z"/><path stroke="#EC008C" stroke-miterlimit="10" d="M74.7 187.1c-52.6 0-92.2-35.3-92.2-82.2 0-22.9 11-45.6 29.4-60.9.6-1.2 1.3-2.5 2-3.7l.1-.3C26.6 18.2 49.9 4.8 75 4.8c3.9 0 7.7.3 11.5.9 21.3 3.5 42.1 19.1 51.8 39 17.9 15.2 28.6 37.7 28.6 60.2 0 46.9-39.6 82.2-92.2 82.2Z"/><path stroke="#EC008C" stroke-miterlimit="10" d="M74.7 184.4c-51 0-89.5-34.2-89.5-79.5C-14.8 82.6-4 60.5 14 45.7c.7-1.4 1.4-2.7 2.2-4l.2-.4C28.4 20.4 50.9 7.4 75 7.4c3.7 0 7.4.3 11.1.9 20.7 3.4 40.8 18.6 50.1 38 17.6 14.7 28.1 36.6 28.1 58.5-.1 45.4-38.6 79.6-89.6 79.6Z"/><path stroke="#EC008C" stroke-miterlimit="10" d="M74.7 181.7c-49.5 0-86.8-33-86.8-76.8 0-21.7 10.6-43.2 28.3-57.4.7-1.5 1.5-3 2.3-4.4l.2-.4C30.3 22.6 51.8 10.2 75 10.2c3.6 0 7.1.3 10.6.9 20.1 3.3 39.5 18.1 48.4 37 17.3 14.3 27.6 35.5 27.6 56.8-.1 43.8-37.4 76.8-86.9 76.8Z"/><path stroke="#EC008C" stroke-miterlimit="10" d="M74.7 179c-48 0-84.1-31.9-84.1-74.1C-9.4 83.8 1 63 18.4 49.2c.8-1.6 1.6-3.2 2.5-4.8l.2-.4C32.2 24.8 52.8 12.9 75 12.9c3.4 0 6.8.3 10.2.8 19.6 3.2 38.2 17.7 46.6 36.1 17 13.8 27.1 34.3 27.1 55.1-.1 42.2-36.3 74.1-84.2 74.1Z"/><path stroke="#EC008C" stroke-miterlimit="10" d="M74.7 176.3c-46.4 0-81.4-30.7-81.4-71.4 0-20.5 10.1-40.6 27.1-53.8.1-.2.2-.3.3-.5.8-1.6 1.6-3.3 2.5-4.8l.3-.4C34 27 53.8 15.6 75 15.6c3.3 0 6.5.3 9.7.8 19 3.1 36.9 17.2 44.9 35.1 16.6 13.3 26.6 33.2 26.6 53.4-.1 40.7-35.1 71.4-81.5 71.4Z"/><path stroke="#EC008C" stroke-miterlimit="10" d="M74.7 173.6C29.8 173.6-4 144.1-4 104.9c0-19.8 9.8-39.2 26.4-52 .2-.3.4-.7.7-1 .8-1.6 1.6-3.3 2.5-4.8l.3-.4c10.1-17.5 29-28.4 49.2-28.4 3.1 0 6.2.3 9.3.8 18.4 3 35.7 16.7 43.1 34.1 16.3 12.8 26.1 32.1 26.1 51.7-.2 39.2-34 68.7-78.9 68.7Z"/><path stroke="#EC008C" stroke-miterlimit="10" d="M74.7 170.9c-43.3 0-76-28.4-76-66 0-19.2 9.6-37.8 25.7-50.1.3-.5.7-1 1-1.5.8-1.6 1.6-3.3 2.5-4.8l.3-.4C37.7 31.3 55.7 21 75 21c3 0 5.9.2 8.9.7 17.6 2.9 34.1 16 41.2 32.8l.3.5c16 12.2 25.5 30.9 25.5 50-.2 37.5-32.9 65.9-76.2 65.9Z"/><path stroke="#EC008C" stroke-miterlimit="10" d="M74.7 168.2c-41.8 0-73.3-27.2-73.3-63.3 0-18.5 9.3-36.5 25-48.2.4-.7.9-1.3 1.4-2 .8-1.7 1.6-3.3 2.5-4.8l.3-.5c9-15.9 26.1-25.7 44.4-25.7 2.8 0 5.6.2 8.4.7 16.8 2.7 32.5 15.3 39.2 31.3l.6 1.1c15.6 11.7 24.8 29.7 24.8 48.1 0 36.1-31.5 63.3-73.3 63.3Z"/><path stroke="#EC008C" stroke-miterlimit="10" d="M74.7 165.5c-40.3 0-70.6-26-70.6-60.6 0-17.8 9.1-35.1 24.3-46.3.5-.9 1.1-1.7 1.7-2.5.8-1.7 1.6-3.3 2.5-4.9l.3-.5c8.7-15 24.8-24.4 42.2-24.4 2.7 0 5.4.2 8 .7 16 2.6 30.9 14.6 37.2 29.9l1 1.7c15.2 11.2 24.2 28.5 24.2 46.3-.2 34.5-30.6 60.6-70.8 60.6Z"/><path stroke="#EC008C" stroke-miterlimit="10" d="M74.7 162.8c-38.7 0-67.9-24.9-67.9-57.9 0-17.2 8.8-33.7 23.6-44.5.6-1 1.3-2 2-3 .8-1.7 1.6-3.3 2.5-4.9l.3-.5C43.4 37.8 58.6 29 75 29c2.5 0 5.1.2 7.5.6 15.2 2.5 29.3 13.9 35.2 28.4l1.4 2.4c14.8 10.7 23.6 27.3 23.6 44.5-.1 33-29.3 57.9-68 57.9Z"/><path stroke="#EC008C" stroke-miterlimit="10" d="M74.7 160.1c-37.2 0-65.2-23.7-65.2-55.2 0-16.5 8.5-32.4 22.9-42.6.7-1.2 1.5-2.4 2.4-3.5.7-1.7 1.6-3.3 2.5-4.9l.3-.5C45.2 40.1 59.5 31.8 75 31.8c2.4 0 4.8.2 7.1.6 14.4 2.3 27.7 13.1 33.2 26.9l1.8 3c14.3 10.2 22.9 26.1 22.9 42.6-.1 31.5-28.1 55.2-65.3 55.2Z"/><path stroke="#EC008C" stroke-miterlimit="10" d="M74.7 157.4c-35.6 0-62.5-22.6-62.5-52.5 0-15.8 8.3-31 22.2-40.7.8-1.4 1.7-2.8 2.7-4 .7-1.7 1.6-3.3 2.5-4.9l.3-.5C47 42.3 60.5 34.5 75 34.5c2.2 0 4.5.2 6.6.5 13.6 2.2 26.1 12.4 31.2 25.4l2.2 3.7c13.9 9.7 22.2 24.9 22.2 40.7 0 30-26.9 52.6-62.5 52.6Z"/><path stroke="#EC008C" stroke-miterlimit="10" d="M74.7 154.7c-34.1 0-59.8-21.4-59.8-49.8 0-15.2 8-29.6 21.6-38.8l.2-.3c.8-1.5 1.8-2.9 2.8-4.2.7-1.7 1.6-3.3 2.5-4.9l.3-.5c6.6-11.7 19.2-19 32.7-19 2.1 0 4.2.2 6.2.5 12.8 2.1 24.5 11.7 29.2 23.9L113 66c13.5 9.2 21.6 23.7 21.6 38.8-.1 28.5-25.8 49.9-59.9 49.9Z"/><path stroke="#EC008C" stroke-miterlimit="10" d="M74.7 152c-32.5 0-57.1-20.2-57.1-47.1 0-14.5 7.8-28.3 20.9-36.9.1-.2.5-.9.5-.9.8-1.5 1.8-2.9 2.8-4.2.7-1.7 1.5-3.4 2.5-5l.3-.5C50.8 46.6 62.4 39.9 75 39.9c1.9 0 3.9.2 5.8.5 11.9 1.9 22.8 10.9 27.2 22.4l3 5.2c13.1 8.7 20.9 22.4 20.9 37-.1 26.7-24.7 47-57.2 47Z"/><path stroke="#EC008C" stroke-miterlimit="10" d="M74.7 149.3c-31 0-54.4-19.1-54.4-44.3 0-13.8 7.5-26.9 20.2-35 .2-.3.4-.7.6-1l.2-.4c.8-1.5 1.8-2.8 2.8-4.1.7-1.7 1.5-3.4 2.5-5l.3-.5C52.7 49 63.4 42.8 75 42.8c1.8 0 3.6.1 5.3.4 11.1 1.8 21.2 10.2 25.2 20.9l3.4 5.9c12.7 8.2 20.2 21.2 20.2 35 0 25.2-23.4 44.3-54.4 44.3Z"/><path stroke="#EC008C" stroke-miterlimit="10" d="M74.7 146.6C45.2 146.6 23 128.7 23 105c0-13.2 7.3-25.5 19.6-33.1.3-.5.6-1.1.9-1.6l.2-.4c.8-1.4 1.8-2.8 2.8-4.1.7-1.7 1.5-3.4 2.4-5l.3-.5c5.3-9.3 15.2-15 25.8-15 1.6 0 3.3.1 4.9.4 10.3 1.7 19.6 9.5 23.2 19.4l3.9 6.7c12.2 7.6 19.5 20 19.5 33.1-.1 23.7-22.4 41.7-51.8 41.7Z"/><path stroke="#EC008C" stroke-miterlimit="10" d="M74.7 143.8c-27.9 0-49-16.7-49-38.9 0-12.5 7.1-24.1 18.9-31.2.4-.7.7-1.4 1.1-2.1l.2-.4c.8-1.4 1.8-2.8 2.8-4 .7-1.7 1.5-3.5 2.4-5.1l.3-.5C56.4 53.2 65.3 48 75 48c1.5 0 3 .1 4.4.4 9.5 1.5 17.9 8.7 21.1 17.9l4.3 7.5c11.8 7.1 18.8 18.7 18.8 31.2.1 22.1-21 38.8-48.9 38.8Z"/><path stroke="#EC008C" stroke-miterlimit="10" d="M74.7 141.1c-26.4 0-46.3-15.6-46.3-36.2 0-11.8 6.8-22.7 18.3-29.3.4-.9.9-1.8 1.4-2.7l.3-.4c.8-1.4 1.8-2.8 2.8-4 .7-1.8 1.5-3.5 2.4-5.1l.3-.5c4.3-7.5 12.4-12.2 21.1-12.2 1.3 0 2.7.1 4 .3 8.6 1.4 16.3 7.9 19.1 16.3l4.8 8.3c11.3 6.6 18.1 17.5 18.1 29.2 0 20.8-19.9 36.3-46.3 36.3Z"/><path stroke="#EC008C" stroke-miterlimit="10" d="M74.7 138.4c-24.8 0-43.6-14.4-43.6-33.5 0-11.1 6.6-21.3 17.7-27.4.5-1.1 1-2.2 1.6-3.3l.3-.4c.8-1.4 1.8-2.7 2.9-3.9.6-1.8 1.4-3.5 2.4-5.2l.3-.5c3.9-6.7 11-10.8 18.7-10.8 1.2 0 2.4.1 3.5.3 7.8 1.3 14.6 7.2 17.1 14.8l5.3 9.2c10.9 6.1 17.4 16.2 17.4 27.2 0 19.1-18.8 33.5-43.6 33.5Z"/><path stroke="#EC008C" stroke-miterlimit="10" d="M74.7 135.7c-23.3 0-40.9-13.3-40.9-30.8 0-10.5 6.4-19.9 17.1-25.5.5-1.3 1.1-2.6 1.8-3.8l.3-.5c.8-1.4 1.8-2.7 2.9-3.8.6-1.8 1.4-3.6 2.4-5.3l.3-.5C62 59.7 68.3 56 75 56c1 0 2.1.1 3.1.3 7 1.1 12.9 6.4 15 13.2 3.7 6.5 5.2 9.1 5.9 10.1 10.4 5.6 16.6 14.9 16.6 25.2 0 17.7-17.6 30.9-40.9 30.9Z"/><path stroke="#EC008C" stroke-miterlimit="10" d="M74.7 133c-21.8 0-38.2-12.1-38.2-28.1 0-9.8 6.2-18.5 16.6-23.5.5-1.5 1.2-3 2-4.4l.3-.5c.8-1.4 1.8-2.6 2.9-3.7.6-1.9 1.3-3.7 2.3-5.4l.3-.5c2.9-5 8.3-8.1 14.1-8.1.9 0 1.8.1 2.7.2 6.1 1 11.3 5.6 13 11.6l6.4 11.1c10 5.1 15.9 13.7 15.9 23.2-.2 16-16.6 28.1-38.3 28.1Z"/><path stroke="#EC008C" stroke-miterlimit="10" d="M74.7 130.3c-20.2 0-35.5-10.9-35.5-25.4 0-9.1 6-17.1 16.1-21.6.5-1.8 1.2-3.4 2.1-5l.3-.5c.8-1.4 1.8-2.5 2.9-3.5.5-1.9 1.3-3.8 2.3-5.5l.3-.5c2.4-4.2 6.9-6.8 11.7-6.8.7 0 1.5.1 2.2.2 5.2.9 9.6 4.8 10.9 10l6.6 11.4c.1.2.3.5.4.7 9.5 4.6 15.1 12.4 15.1 21.1 0 14.5-15.2 25.4-35.4 25.4Z"/><path stroke="#EC008C" stroke-miterlimit="10" d="M74.7 127.6c-18.7 0-32.8-9.8-32.8-22.7 0-8.4 5.8-15.6 15.7-19.6.5-2 1.2-3.9 2.2-5.6l.3-.5c.8-1.3 1.8-2.5 3-3.3.5-2 1.2-3.9 2.2-5.7l.3-.5c1.9-3.3 5.5-5.4 9.4-5.4.6 0 1.2 0 1.8.1 4.3.7 7.8 4 8.8 8.3l6.8 11.7c.3.5.5.9.7 1.4 9 4 14.4 11.1 14.4 19.1-.1 13-14.1 22.7-32.8 22.7Z"/><path stroke="#EC008C" stroke-miterlimit="10" d="M74.7 124.9c-17.1 0-30.1-8.6-30.1-20 0-7.6 5.8-14.2 15.4-17.6.3-2.2 1.1-4.4 2.2-6.3l.3-.5c.7-1.3 1.8-2.3 3.1-3 .3-2.1 1.1-4.2 2.1-6l.3-.5c1.4-2.5 4.1-4.1 7-4.1.4 0 .9 0 1.3.1 3.3.5 6 3.1 6.6 6.4 0 .2.1.3.2.4L90 85.7c.4.7.7 1.4 1 2.1 8.6 3.5 13.7 9.8 13.7 17 0 11.5-12.9 20.1-30 20.1Z"/><path stroke="#EC008C" stroke-miterlimit="10" d="M74.7 122.2c-15.6 0-27.4-7.4-27.4-17.3 0-6.9 5.8-12.8 15.2-15.6.1-2.4.8-4.8 2-6.9l.3-.5c.7-1.2 1.9-2.1 3.2-2.5.1-2.3.8-4.5 2-6.5l.3-.5c1-1.7 2.8-2.7 4.7-2.7.3 0 .6 0 .9.1 2.2.4 4 2.1 4.4 4.3.1.4.2.9.5 1.2l6.9 11.9c.5.9.9 1.9 1.3 2.9 8.3 3 13.2 8.5 13.2 14.9-.2 9.8-11.9 17.2-27.5 17.2Z"/><path stroke="#EC008C" stroke-miterlimit="10" d="M74.7 119.5c-13.8 0-24.6-6.4-24.6-14.6 0-5.9 5.5-11 14.5-13.3.2-.1.5-.1.7-.1h.2c-.4-2.6.1-5.4 1.5-7.8l.3-.5c.5-.8 1.4-1.4 2.3-1.4h.4c.3.1.7.2 1 .3-.4-2.7.1-5.6 1.5-8.1l.3-.5c.5-.8 1.4-1.4 2.3-1.4h.4c1.1.2 2 1 2.2 2.1.1.7.4 1.4.8 2.1l6.9 11.9c.6 1.1 1.1 2.3 1.4 3.6 7.9 2.5 12.7 7.3 12.7 12.8-.2 8.5-11 14.9-24.8 14.9Z"/><path fill="#DD078C" d="M84.3 94.2c-.1-1.5-.5-3-1.3-4.3L76.1 78c-.5-.9-.9-1.9-1.1-2.9l-.3.5c-1.7 2.9-1.7 6.6 0 9.5l5.5 9.5c1.7 2.9 1.7 6.6 0 9.5l-.3.5c-.2-1-.6-2-1.1-2.9l-5-8.7-3.2-5.6c-.5-.9-.9-1.9-1.1-2.9l-.3.5c-1.7 2.9-1.7 6.6 0 9.5l5.5 9.6c1.7 2.9 1.7 6.6 0 9.5l-.3.5c-.2-1-.6-2-1.1-2.9l-6.9-11.9c-.9-1.6-1.3-3.4-1.3-5.2-7.4 1.9-12.4 6-12.4 10.7 0 6.6 9.8 11.9 21.9 11.9 12.1 0 21.9-5.3 21.9-11.9.2-4.6-4.9-8.7-12.2-10.6Z"/><path fill="#DE4097" d="M151.9 169.1H37.3v36.8H-1.2v26.7s0 10 10 10H142s9.9-.1 9.9-10v-63.5Z" opacity=".8"/><path fill="#fff" d="M19.3 234.1c-.3-.1-.6-.5-.7-.8 0-.2 0-.4.3-1.1 1.4-2.6 2-5.1 2-8 0-2.8-.5-5.1-1.8-7.7-.3-.6-.5-1.1-.5-1.2 0-.3.2-.7.5-.9.4-.2.9-.2 1.2.1.1.1.4.6.6 1 .9 1.8 1.6 3.8 1.9 5.9.2 1.3.2 3.8.1 4.9-.3 2.2-.9 4.1-1.8 6-.6 1.2-.9 1.6-1.2 1.6h-.2c-.1.2-.3.2-.4.2Zm-3.8-2c-.5-.1-.8-.7-.7-1.2 0-.1.3-.6.5-1.1 1-2.1 1.5-4.4 1.3-6.7-.2-1.8-.5-3-1.3-4.7-.6-1.1-.6-1.3-.3-1.8.3-.4 1.1-.5 1.5-.1.3.3 1.2 2.1 1.5 3.1 1.1 3.4.9 7.1-.5 10.4-.8 1.8-1.3 2.3-2 2.1Zm-3.9-2c-.3-.1-.6-.5-.6-.8 0-.2 0-.4.4-1.1 1.3-2.7 1.3-5.2 0-7.8-.6-1.1-.6-1.4-.1-1.8.2-.2.3-.3.7-.3.6 0 .8.3 1.3 1.3.8 1.6 1.1 2.9 1.1 4.7 0 1.8-.3 3-1.1 4.7-.5.9-.7 1.2-1.2 1.3-.1-.1-.4-.2-.5-.2Zm-3.7-1.9c-.2-.1-.5-.4-.6-.7-.1-.3 0-.6.3-1.2.5-.8.6-1.2.6-2.2 0-1-.1-1.4-.6-2.2-.2-.3-.3-.6-.3-.7-.1-.5.3-1.1.8-1.2.5-.1.8.1 1.2.8 1.3 2 1.3 4.6 0 6.6-.3.8-.8 1-1.4.8Z"/><path fill="url(#b)" d="M71.1 183.2c1.5 0 2.7 1.2 2.7 2.6V211c0 1.5-1.2 2.6-2.7 2.6H54c-1.5 0-2.7-1.2-2.7-2.6v-25.2c0-1.5 1.2-2.6 2.7-2.6h17.1Z"/><path stroke="#231F20" stroke-width=".5" d="M59.2 183.2v8.8c-5.2.8-7.8 4.8-7.8 4.8v2.7s2.5 4 7.8 4.8v9.5M66.3 183.2v9c3.9 0 7.5 4.5 7.5 4.5v2.8s-3.6 4.5-7.5 4.5v9.6"/><path fill="#231F20" d="M52.9 197.3c.4 0 .7.3.7.7 0 .4-.3.7-.7.7-.4 0-.7-.3-.7-.7 0-.3.3-.7.7-.7Z"/><path stroke="#231F20" stroke-width=".5" d="M59.2 204.2s1.4-.6 3.5-.6 3.6.5 3.6.5M59.2 192s1.4.6 3.5.6 3.6-.5 3.6-.5M51.6 204.3v7.9M73.5 204.3v7.9M51.6 184.2v7.9M73.5 184.2v7.9"/><path stroke="#D1D3D4" stroke-width=".3" d="M71.1 183.2c1.5 0 2.7 1.2 2.7 2.6V211c0 1.5-1.2 2.6-2.7 2.6H54c-1.5 0-2.7-1.2-2.7-2.6v-25.2c0-1.5 1.2-2.6 2.7-2.6h17.1Z"/><path fill="#fff" d="M127.5 201.9c-3.6 0-6.9 1.1-9.7 3.2-2.8-2.1-6.2-3.2-9.7-3.2-9 0-16.3 7.3-16.3 16.3s7.3 16.3 16.3 16.3c3.6 0 6.9-1.1 9.7-3.2 2.8 2.1 6.2 3.2 9.7 3.2 9 0 16.3-7.3 16.3-16.3s-7.3-16.3-16.3-16.3Z"/><path fill="#F06824" d="M124.7 205.8h-13.8v24.8h13.8v-24.8Z"/><path fill="#E32028" d="M111.8 218.2c0-5 2.4-9.5 6-12.4-2.7-2.1-6.1-3.4-9.7-3.4-8.7 0-15.8 7.1-15.8 15.8 0 8.7 7.1 15.8 15.8 15.8 3.7 0 7.1-1.3 9.7-3.4-3.7-2.8-6-7.3-6-12.4Z"/><path fill="#F99F1F" d="M143.3 218.2c0 8.7-7.1 15.8-15.8 15.8-3.7 0-7.1-1.3-9.7-3.4 3.7-2.9 6-7.4 6-12.4s-2.4-9.5-6-12.4c2.7-2.1 6.1-3.4 9.7-3.4 8.7.1 15.8 7.1 15.8 15.8Z"/><path fill="#fff" d="M141.8 228v-.5h.2v-.1h-.5v.1h.2v.5h.1Zm1 0v-.6h-.2l-.2.4-.2-.4h-.2v.6h.1v-.5l.2.4h.1l.2-.4v.5h.2Z"/></g><defs><linearGradient id="b" x1="72.205" x2="52.712" y1="185.58" y2="211.477" gradientUnits="userSpaceOnUse"><stop stop-color="#7A7A7A"/><stop offset=".304" stop-color="#fff"/><stop offset="1" stop-color="#7A7A7A"/></linearGradient><clipPath id="a"><rect width="151" height="241" fill="#fff" rx="10"/></clipPath></defs></svg>