<svg xmlns="http://www.w3.org/2000/svg" width="151" height="241" fill="none"><g clip-path="url(#a)"><rect width="151" height="241" fill="#fff" rx="10"/><path fill="#EDEDED" d="M142.7-1.2H9.5C4-1.2-.4 3.2-.4 8.7v223.9c0 5.5 4.4 9.9 9.9 9.9h133.3c5.5 0 9.9-4.4 9.9-9.9V8.8c0-5.5-4.5-10-10-10Z"/><path stroke="#E8E8E8" stroke-miterlimit="10" stroke-width=".954" d="M74.4 254.5C-16.5 254.5-85 190.3-85 105.2c0-37.4 16.3-76 43.5-103.3 25-39.5 69.5-64 116.2-64 7.5 0 15.1.6 22.5 1.8 35.8 5.8 73.6 31.2 94.1 63.1 26.6 27.2 42.5 65.5 42.5 102.3 0 85.2-68.5 149.4-159.4 149.4Z"/><path stroke="#E8E8E8" stroke-miterlimit="10" stroke-width=".954" d="M74.4 252C-15 252-82.5 188.9-82.5 105.2c0-36.8 16-74.8 42.9-101.7C-15-35.4 28.8-59.6 74.7-59.6c7.4 0 14.8.6 22.1 1.8C132-52 169.1-27 189.2 4.4c26.3 26.8 42 64.4 42 100.7 0 83.8-67.4 146.9-156.8 146.9Z"/><path stroke="#E8E8E8" stroke-miterlimit="10" stroke-width=".954" d="M74.4 249.4c-88 0-154.3-62-154.3-144.2 0-36.3 15.8-73.7 42.4-100.1C-13.4-33.2 29.5-57 74.7-57c7.3 0 14.6.6 21.7 1.8C131-49.6 167.5-25 187.2 6c26 26.3 41.5 63.4 41.5 99.1 0 82.3-66.4 144.3-154.3 144.3Z"/><path stroke="#E8E8E8" stroke-miterlimit="10" stroke-width=".954" d="M74.4 246.9c-86.5 0-151.7-60.9-151.7-141.7 0-35.7 15.6-72.5 41.9-98.5C-11.9-31 30.3-54.5 74.7-54.5c7.1 0 14.3.6 21.2 1.7 34.1 5.6 70 29.8 89.3 60.4 25.6 25.9 40.9 62.3 40.9 97.5 0 80.9-65.2 141.8-151.7 141.8Z"/><path stroke="#E8E8E8" stroke-miterlimit="10" stroke-width=".954" d="M74.4 244.2c-85 0-149-59.8-149-139 0-35.1 15.4-71.3 41.3-96.8 23-37.1 64.3-60.2 108-60.2 7 0 14 .6 20.8 1.7 33.5 5.5 68.7 29.3 87.6 59.4 25.3 25.4 40.3 61.2 40.3 95.8 0 79.3-64 139.1-149 139.1Z"/><path stroke="#E8E8E8" stroke-miterlimit="10" stroke-width=".954" d="M74.4 241.5c-83.4 0-146.3-58.6-146.3-136.3 0-34.6 15.2-70.1 40.7-95.1 22.5-36.5 63-59.2 105.9-59.2 6.8 0 13.7.6 20.4 1.7C128-42 162.5-18.6 181 11c24.9 24.9 39.8 60.1 39.8 94.1-.1 77.8-63 136.4-146.4 136.4Z"/><path stroke="#E8E8E8" stroke-miterlimit="10" stroke-width=".954" d="M74.4 238.8c-81.9 0-143.6-57.4-143.6-133.6 0-34 15-68.9 40.1-93.4 22-35.9 61.7-58.2 103.8-58.2 6.7 0 13.4.5 19.9 1.6 32.4 5.3 66.2 28.4 84.3 57.5 24.5 24.4 39.2 59 39.2 92.4-.1 76.2-61.8 133.7-143.7 133.7Z"/><path stroke="#E8E8E8" stroke-miterlimit="10" stroke-width=".954" d="M74.4 236C-6 236-66.5 179.8-66.5 105.2c0-33.4 14.8-67.6 39.6-91.7C-5.5-21.8 33.4-43.7 74.7-43.7c6.5 0 13.1.5 19.5 1.6 31.8 5.2 64.9 27.9 82.6 56.5 24.2 24 38.6 57.9 38.6 90.8-.1 74.6-60.7 130.8-141 130.8Z"/><path stroke="#E8E8E8" stroke-miterlimit="10" stroke-width=".954" d="M74.4 233.3c-78.8 0-138.2-55.1-138.2-128.2 0-32.8 14.6-66.4 39-90C-3.9-19.4 34.2-41 74.7-41c6.4 0 12.8.5 19 1.6 31.2 5.1 63.6 27.4 80.9 55.5 23.8 23.5 38 56.7 38 89.1 0 73-59.4 128.1-138.2 128.1Z"/><path stroke="#E8E8E8" stroke-miterlimit="10" stroke-width=".954" d="M74.4 230.6c-77.3 0-135.5-53.9-135.5-125.5 0-32.2 14.3-65.2 38.4-88.3 20.4-33.9 57.7-55 97.4-55 6.2 0 12.5.5 18.6 1.5 30.6 5 62.4 26.9 79.2 54.5 23.5 23 37.5 55.6 37.5 87.4-.1 71.5-58.4 125.4-135.6 125.4Z"/><path stroke="#E8E8E8" stroke-miterlimit="10" stroke-width=".954" d="M74.4 227.9c-75.7 0-132.8-52.8-132.8-122.8 0-31.6 14.1-64 37.8-86.6 19.9-33.3 56.4-54 95.3-54 6.1 0 12.2.5 18.1 1.5 30 4.9 61.1 26.4 77.5 53.6 23.1 22.5 36.9 54.5 36.9 85.7 0 69.9-57.1 122.6-132.8 122.6Z"/><path stroke="#E8E8E8" stroke-miterlimit="10" stroke-width=".954" d="M74.4 225.2c-74.2 0-130.1-51.6-130.1-120.1 0-31.1 13.9-62.8 37.3-84.9 19.4-32.7 55-53 93.1-53 5.9 0 11.9.5 17.7 1.5 29.4 4.8 59.8 25.9 75.8 52.6 22.8 22 36.3 53.4 36.3 84 0 68.3-55.9 119.9-130.1 119.9Z"/><path stroke="#E8E8E8" stroke-miterlimit="10" stroke-width=".954" d="M74.4 222.5C1.8 222.5-53 172.1-53 105.2c0-30.5 13.7-61.6 36.7-83.2 18.9-32.2 53.7-52.1 91-52.1 5.8 0 11.6.5 17.3 1.4 28.8 4.7 58.5 25.4 74 51.6 22.4 21.6 35.8 52.3 35.8 82.3 0 66.9-54.8 117.3-127.4 117.3Z"/><path stroke="#E8E8E8" stroke-miterlimit="10" stroke-width=".954" d="M74.4 219.8c-71.1 0-124.7-49.3-124.7-114.7 0-29.9 13.5-60.3 36.1-81.5 18.4-31.4 52.4-51 88.9-51 5.6 0 11.3.5 16.8 1.4 28.3 4.6 57.3 24.9 72.4 50.6 22 21.1 35.2 51.2 35.2 80.6 0 65.3-53.6 114.6-124.7 114.6Z"/><path stroke="#E8E8E8" stroke-miterlimit="10" stroke-width=".954" d="M74.4 217.1c-69.5 0-122-48.1-122-111.9 0-29.3 13.3-59.1 35.6-79.8C5.8-5.5 39-24.7 74.7-24.7c5.5 0 11 .5 16.4 1.3 27.7 4.5 56 24.5 70.7 49.7 21.7 20.6 34.6 50.1 34.6 78.9 0 63.8-52.5 111.9-122 111.9Z"/><path stroke="#E8E8E8" stroke-miterlimit="10" stroke-width=".954" d="M74.4 214.4c-68 0-119.3-47-119.3-109.2 0-28.7 13.1-57.9 35-78.1l.2-.3C7.6-3.3 40-22 74.7-22c5.3 0 10.7.4 15.9 1.3 27.1 4.4 54.8 24 69 48.7 21.3 20.1 34.1 48.9 34.1 77.2 0 62.3-51.3 109.2-119.3 109.2Z"/><path stroke="#E8E8E8" stroke-miterlimit="10" stroke-width=".954" d="M74.4 211.7c-66.5 0-116.6-45.8-116.6-106.5 0-28.2 12.9-56.7 34.4-76.3l.4-.7c16.9-29.3 48.3-47.4 82-47.4 5.2 0 10.4.4 15.5 1.3 26.5 4.3 53.5 23.5 67.3 47.7 21 19.6 33.5 47.8 33.5 75.5.1 60.6-50 106.4-116.5 106.4Z"/><path stroke="#E8E8E8" stroke-miterlimit="10" stroke-width=".954" d="M74.4 209C9.5 209-39.5 164.4-39.5 105.2c0-27.6 12.7-55.4 33.9-74.6.3-.5.6-1.1.6-1.1C11.4 1 41.9-16.6 74.7-16.6c5 0 10.1.4 15 1.2 25.9 4.2 52.2 23 65.6 46.7 20.6 19.1 33 46.7 33 73.8 0 59.3-49 103.9-113.9 103.9Z"/><path stroke="#E8E8E8" stroke-miterlimit="10" stroke-width=".954" d="M74.4 206.3c-63.4 0-111.2-43.5-111.2-101.1 0-27 12.4-54.2 33.3-72.9.2-.4.8-1.4.8-1.4C13.2 3.2 42.9-13.9 74.7-13.9c4.9 0 9.8.4 14.6 1.2 25.3 4.1 51 22.5 63.9 45.8 20.3 18.7 32.4 45.6 32.4 72.1 0 57.6-47.8 101.1-111.2 101.1Z"/><path stroke="#E8E8E8" stroke-miterlimit="10" stroke-width=".954" d="M74.4 203.6c-61.8 0-108.5-42.3-108.5-98.4 0-26.4 12.2-53 32.7-71.2.3-.5.5-1 .8-1.4l.2-.4C15 5.4 43.8-11.2 74.6-11.2c4.8 0 9.5.4 14.2 1.2 24.8 4 49.7 22 62.2 44.8 20 18.2 31.9 44.5 31.9 70.4 0 56.1-46.7 98.4-108.5 98.4Z"/><path stroke="#E8E8E8" stroke-miterlimit="10" stroke-width=".954" d="M74.4 200.9c-60.3 0-105.8-41.2-105.8-95.7 0-25.8 12-51.8 32.2-69.5.3-.6.7-1.2 1-1.8l.2-.4c14.9-25.9 42.8-42 72.7-42 4.6 0 9.2.4 13.7 1.1 24.2 3.9 48.4 21.5 60.5 43.8 19.6 17.7 31.3 43.3 31.3 68.7 0 54.6-45.5 95.8-105.8 95.8Z"/><path stroke="#E8E8E8" stroke-miterlimit="10" stroke-width=".954" d="M74.4 198.2c-58.8 0-103.1-40-103.1-93 0-25.2 11.8-50.5 31.6-67.8.4-.7.8-1.5 1.2-2.2l.2-.4C18.8 9.7 45.7-5.8 74.6-5.8c4.5 0 8.9.4 13.3 1.1 23.6 3.9 47.1 21 58.7 42.9 19.3 17.2 30.8 42.2 30.8 67 .1 53-44.3 93-103 93Z"/><path stroke="#E8E8E8" stroke-miterlimit="10" stroke-width=".954" d="M74.4 195.5C17.2 195.5-26 156.7-26 105.2c0-24.7 11.6-49.3 31-66 .5-.9.9-1.7 1.4-2.5l.2-.4c14-24.2 40-39.3 68-39.3 4.3 0 8.6.4 12.8 1.1 23 3.8 45.9 20.6 57 41.9 18.9 16.7 30.2 41.1 30.2 65.3.2 51.4-43 90.2-100.2 90.2Z"/><path stroke="#E8E8E8" stroke-miterlimit="10" stroke-width=".954" d="M74.4 192.8c-55.7 0-97.7-37.7-97.7-87.6 0-24.1 11.4-48.1 30.5-64.3.5-1 1.1-2 1.6-2.9l.2-.4C22.5 14.2 47.6-.3 74.6-.3c4.2 0 8.3.3 12.4 1 22.4 3.7 44.6 20.1 55.3 40.9 18.6 16.2 29.7 40 29.7 63.6 0 49.9-41.9 87.6-97.6 87.6Z"/><path stroke="#E8E8E8" stroke-miterlimit="10" stroke-width=".954" d="M74.4 190.1c-54.1 0-95-36.5-95-84.9 0-23.5 11.2-46.8 29.9-62.6l1.8-3.3.2-.4c13-22.6 37.3-36.6 63.3-36.6 4 0 8 .3 11.9 1 21.9 3.6 43.3 19.6 53.6 39.9 18.3 15.7 29.1 38.8 29.1 61.9.1 48.5-40.7 85-94.8 85Z"/><path stroke="#E8E8E8" stroke-miterlimit="10" stroke-width=".954" d="M74.4 187.4c-52.6 0-92.2-35.3-92.2-82.2 0-22.9 11-45.6 29.4-60.9.6-1.2 1.3-2.5 2-3.7l.2-.4C26.3 18.5 49.6 5 74.7 5c3.9 0 7.7.3 11.5.9 21.3 3.5 42.1 19.1 51.8 39 17.9 15.2 28.6 37.7 28.6 60.2 0 46.9-39.6 82.3-92.2 82.3Z"/><path stroke="#E8E8E8" stroke-miterlimit="10" stroke-width=".954" d="M74.4 184.7c-51 0-89.5-34.2-89.5-79.5 0-22.3 10.8-44.4 28.8-59.2.7-1.4 1.4-2.7 2.2-4l.2-.4c12-20.9 34.5-33.9 58.6-33.9 3.7 0 7.4.3 11.1.9 20.7 3.4 40.8 18.6 50.1 38 17.6 14.7 28.1 36.6 28.1 58.5-.1 45.4-38.6 79.6-89.6 79.6Z"/><path stroke="#E8E8E8" stroke-miterlimit="10" stroke-width=".954" d="M74.4 182c-49.5 0-86.8-33-86.8-76.8 0-21.7 10.6-43.2 28.3-57.4.7-1.5 1.5-3 2.3-4.4l.2-.4C30 22.9 51.5 10.4 74.7 10.4c3.6 0 7.1.3 10.6.9 20.1 3.3 39.5 18.1 48.4 37 17.3 14.3 27.6 35.5 27.6 56.8-.1 43.9-37.4 76.9-86.9 76.9Z"/><path stroke="#E8E8E8" stroke-miterlimit="10" stroke-width=".954" d="M74.4 179.3c-48 0-84.1-31.9-84.1-74.1 0-21.1 10.4-41.9 27.8-55.7.8-1.6 1.6-3.2 2.5-4.8l.2-.4c11.1-19.2 31.7-31.1 53.9-31.1 3.4 0 6.8.3 10.2.8 19.6 3.2 38.2 17.7 46.6 36.1 17 13.8 27.1 34.3 27.1 55.1-.1 42.2-36.2 74.1-84.2 74.1Z"/><path stroke="#E8E8E8" stroke-miterlimit="10" stroke-width=".954" d="M74.4 176.6C28 176.6-7 145.9-7 105.2c0-20.5 10.1-40.6 27.1-53.8.1-.2.2-.3.3-.5.8-1.6 1.6-3.3 2.5-4.8l.3-.4c10.6-18.4 30.3-29.8 51.5-29.8 3.3 0 6.5.3 9.7.8 19 3.1 36.9 17.2 44.9 35.1 16.6 13.3 26.6 33.2 26.6 53.4-.1 40.7-35.1 71.4-81.5 71.4Z"/><path stroke="#E8E8E8" stroke-miterlimit="10" stroke-width=".954" d="M74.4 173.9c-44.9 0-78.7-29.5-78.7-68.7 0-19.8 9.8-39.2 26.4-52 .2-.3.4-.7.7-1 .8-1.6 1.6-3.3 2.5-4.8l.3-.4c10.1-17.5 29-28.4 49.2-28.4 3.1 0 6.2.3 9.3.8 18.4 3 35.7 16.7 43.1 34.1 16.3 12.8 26.1 32.1 26.1 51.7-.2 39.1-34 68.7-78.9 68.7Z"/><path stroke="#E8E8E8" stroke-miterlimit="10" stroke-width=".954" d="M74.4 171.2c-43.3 0-76-28.4-76-66C-1.6 86 8 67.4 24.1 55.1c.3-.5.7-1 1-1.5.8-1.6 1.6-3.3 2.5-4.8l.3-.4c9.6-16.7 27.6-27.1 46.9-27.1 3 0 5.9.2 8.9.7 17.6 2.9 34.1 16 41.2 32.8l.3.5c16 12.2 25.5 30.9 25.5 50-.3 37.5-33 65.9-76.3 65.9Z"/><path stroke="#E8E8E8" stroke-miterlimit="10" stroke-width=".954" d="M74.4 168.4c-41.8 0-73.3-27.2-73.3-63.3 0-18.5 9.3-36.5 25-48.2.4-.7.9-1.3 1.4-2 .8-1.7 1.6-3.3 2.5-4.8l.3-.5c9.1-15.9 26.2-25.7 44.5-25.7 2.8 0 5.6.2 8.4.7 16.8 2.7 32.5 15.3 39.2 31.3l.6 1.1c15.6 11.7 24.8 29.7 24.8 48.1-.1 36.1-31.6 63.3-73.4 63.3Z"/><path stroke="#E8E8E8" stroke-miterlimit="10" stroke-width=".954" d="M74.4 165.7c-40.3 0-70.6-26-70.6-60.6 0-17.8 9.1-35.1 24.3-46.3.5-.9 1.1-1.7 1.7-2.5.8-1.7 1.6-3.3 2.5-4.9l.3-.5c8.7-15 24.8-24.4 42.2-24.4 2.7 0 5.4.2 8 .7 16 2.6 30.9 14.6 37.2 29.9l1 1.7c15 11.3 24 28.6 24 46.4 0 34.5-30.4 60.5-70.6 60.5Z"/><path stroke="#E8E8E8" stroke-miterlimit="10" stroke-width=".954" d="M74.4 163c-38.7 0-67.9-24.9-67.9-57.9 0-17.2 8.8-33.7 23.6-44.5.6-1 1.3-2 2-3 .8-1.7 1.6-3.3 2.5-4.9l.3-.5c8.2-14.2 23.4-23 39.8-23 2.5 0 5.1.2 7.5.6 15.2 2.5 29.3 13.9 35.2 28.4l1.4 2.4c14.8 10.7 23.6 27.3 23.6 44.5-.1 33.1-29.3 57.9-68 57.9Z"/><path stroke="#E8E8E8" stroke-miterlimit="10" stroke-width=".954" d="M74.4 160.3c-37.2 0-65.2-23.7-65.2-55.2 0-16.5 8.5-32.4 22.9-42.6.7-1.2 1.5-2.4 2.4-3.5.7-1.7 1.6-3.3 2.5-4.9l.3-.5C45 40.2 59.4 31.9 74.8 31.9c2.4 0 4.8.2 7.1.6 14.4 2.3 27.7 13.1 33.2 26.9l1.8 3c14.3 10.2 22.9 26.1 22.9 42.6-.2 31.6-28.2 55.3-65.4 55.3Z"/><path stroke="#E8E8E8" stroke-miterlimit="10" stroke-width=".954" d="M74.4 157.6c-35.6 0-62.5-22.6-62.5-52.5 0-15.8 8.3-31 22.2-40.7.8-1.4 1.7-2.8 2.7-4 .7-1.7 1.6-3.3 2.5-4.9l.3-.5c7.2-12.5 20.7-20.3 35.1-20.3 2.2 0 4.5.2 6.6.5 13.6 2.2 26.1 12.4 31.2 25.4l2.2 3.7c13.9 9.7 22.2 24.9 22.2 40.7 0 30.1-26.9 52.6-62.5 52.6Z"/><path stroke="#E8E8E8" stroke-miterlimit="10" stroke-width=".954" d="M74.4 154.9c-34.1 0-59.8-21.4-59.8-49.8 0-15.2 8-29.6 21.6-38.8l.2-.3c.8-1.5 1.8-2.9 2.8-4.2.7-1.7 1.6-3.3 2.5-4.9l.3-.5c6.7-11.7 19.3-18.9 32.8-18.9 2.1 0 4.2.2 6.2.5 12.8 2.1 24.5 11.7 29.2 23.9l2.6 4.4c13.5 9.2 21.6 23.7 21.6 38.8-.2 28.4-25.9 49.8-60 49.8Z"/><path stroke="#E8E8E8" stroke-miterlimit="10" stroke-width=".954" d="M74.4 152.2c-32.5 0-57.1-20.2-57.1-47.1 0-14.5 7.8-28.3 20.9-36.9.1-.2.5-.9.5-.9.8-1.5 1.8-2.9 2.8-4.2.7-1.7 1.5-3.4 2.5-5l.3-.5C50.6 46.8 62.2 40 74.7 40c1.9 0 3.9.2 5.8.5 11.9 1.9 22.8 10.9 27.2 22.4l3 5.2c13.1 8.7 20.9 22.4 20.9 37-.1 26.9-24.7 47.1-57.2 47.1Z"/><path stroke="#E8E8E8" stroke-miterlimit="10" stroke-width=".954" d="M74.4 149.5c-31 0-54.4-19.1-54.4-44.3 0-13.8 7.5-26.9 20.2-35 .2-.3.4-.7.6-1l.2-.4c.8-1.5 1.8-2.8 2.8-4.1.7-1.7 1.5-3.4 2.5-5l.3-.5C52.4 49.2 63.1 43 74.7 43c1.8 0 3.6.1 5.3.4 11.1 1.8 21.2 10.2 25.2 20.9l3.4 5.9c12.7 8.2 20.2 21.2 20.2 35 0 25.3-23.4 44.3-54.4 44.3Z"/><path stroke="#E8E8E8" stroke-miterlimit="10" stroke-width=".954" d="M74.4 146.8c-29.5 0-51.7-17.9-51.7-41.6 0-13.2 7.3-25.5 19.6-33.1.3-.5.6-1.1.9-1.6l.2-.4c.8-1.4 1.8-2.8 2.8-4.1.7-1.7 1.5-3.4 2.4-5l.3-.5c5.3-9.2 15.2-14.9 25.8-14.9 1.6 0 3.3.1 4.9.4 10.3 1.7 19.6 9.5 23.2 19.4l3.9 6.7c12.2 7.6 19.5 20 19.5 33.1-.1 23.7-22.3 41.6-51.8 41.6Z"/><path stroke="#E8E8E8" stroke-miterlimit="10" stroke-width=".954" d="M74.4 144.1c-27.9 0-49-16.7-49-38.9 0-12.5 7.1-24.1 18.9-31.2.4-.7.7-1.4 1.1-2.1l.2-.4c.8-1.4 1.8-2.8 2.8-4 .7-1.7 1.5-3.5 2.4-5.1l.3-.5c4.8-8.3 13.8-13.5 23.4-13.5 1.5 0 3 .1 4.4.4 9.5 1.5 17.9 8.7 21.1 17.9l4.3 7.5c11.8 7.1 18.8 18.7 18.8 31.2.3 22-20.8 38.7-48.7 38.7Z"/><path stroke="#E8E8E8" stroke-miterlimit="10" stroke-width=".954" d="M74.4 141.4c-26.4 0-46.3-15.6-46.3-36.2 0-11.8 6.8-22.7 18.3-29.3.4-.9.9-1.8 1.4-2.7l.3-.4c.8-1.4 1.8-2.8 2.8-4 .7-1.8 1.5-3.5 2.4-5.1l.3-.5C57.9 55.6 66 51 74.7 51c1.3 0 2.7.1 4 .3 8.6 1.4 16.3 7.9 19.1 16.3l4.8 8.3c11.3 6.6 18.1 17.5 18.1 29.2 0 20.7-19.9 36.3-46.3 36.3Z"/><path stroke="#E8E8E8" stroke-miterlimit="10" stroke-width=".954" d="M74.4 138.7c-24.8 0-43.6-14.4-43.6-33.5 0-11.1 6.6-21.3 17.7-27.4.5-1.1 1-2.2 1.6-3.3l.3-.4c.8-1.4 1.8-2.7 2.9-3.9.6-1.8 1.4-3.5 2.4-5.2l.3-.5c3.9-6.7 11-10.8 18.7-10.8 1.2 0 2.4.1 3.5.3 7.8 1.3 14.6 7.2 17.1 14.8l5.3 9.2c10.9 6.1 17.4 16.2 17.4 27.2 0 19.1-18.8 33.5-43.6 33.5Z"/><path stroke="#E8E8E8" stroke-miterlimit="10" stroke-width=".954" d="M74.4 136c-23.3 0-40.9-13.3-40.9-30.8 0-10.5 6.4-19.9 17.1-25.5.5-1.3 1.1-2.6 1.8-3.8l.3-.5c.8-1.4 1.8-2.7 2.9-3.8.6-1.8 1.4-3.6 2.4-5.3l.3-.5c3.4-5.8 9.7-9.5 16.4-9.5 1 0 2.1.1 3.1.3 7 1.1 12.9 6.4 15 13.2 3.7 6.5 5.2 9.1 5.9 10.1 10.4 5.6 16.6 14.9 16.6 25.2 0 17.6-17.6 30.9-40.9 30.9Z"/><path stroke="#E8E8E8" stroke-miterlimit="10" stroke-width=".954" d="M74.4 133.3c-21.8 0-38.2-12.1-38.2-28.1 0-9.8 6.2-18.5 16.6-23.5.5-1.5 1.2-3 2-4.4l.3-.5c.8-1.4 1.8-2.6 2.9-3.7.6-1.9 1.3-3.7 2.3-5.4l.3-.5c2.9-5 8.3-8.1 14.1-8.1.9 0 1.8.1 2.7.2 6.1 1 11.3 5.6 13 11.6L96.8 82c10 5.1 15.9 13.7 15.9 23.2-.1 16-16.6 28.1-38.3 28.1Z"/><path stroke="#E8E8E8" stroke-miterlimit="10" stroke-width=".954" d="M74.4 130.6c-20.2 0-35.5-10.9-35.5-25.4 0-9.1 6-17.1 16.1-21.6.5-1.8 1.2-3.4 2.1-5l.3-.5c.8-1.4 1.8-2.5 2.9-3.5.5-1.9 1.3-3.8 2.3-5.5l.3-.5c2.4-4.2 6.9-6.8 11.7-6.8.7 0 1.5.1 2.2.2 5.2.9 9.6 4.8 10.9 10l6.6 11.4c.1.2.3.5.4.7 9.5 4.6 15.1 12.4 15.1 21.1 0 14.5-15.2 25.4-35.4 25.4Z"/><path stroke="#E8E8E8" stroke-miterlimit="10" stroke-width=".954" d="M74.4 127.9c-18.7 0-32.8-9.8-32.8-22.7 0-8.4 5.8-15.6 15.7-19.6.5-2 1.2-3.9 2.2-5.6l.3-.5c.8-1.3 1.8-2.5 3-3.3.5-2 1.2-3.9 2.2-5.7l.3-.5c1.9-3.3 5.5-5.4 9.4-5.4.6 0 1.2 0 1.8.1 4.3.7 7.8 4 8.8 8.3l6.8 11.7c.3.5.5.9.7 1.4 9 4 14.4 11.1 14.4 19.1-.1 12.9-14.1 22.7-32.8 22.7Z"/><path stroke="#E8E8E8" stroke-miterlimit="10" stroke-width=".954" d="M74.4 125.2c-17.1 0-30.1-8.6-30.1-20 0-7.6 5.8-14.2 15.4-17.6.3-2.2 1.1-4.4 2.2-6.3l.3-.5c.7-1.3 1.8-2.3 3.1-3 .3-2.1 1.1-4.2 2.1-6l.3-.5c1.4-2.5 4.1-4.1 7-4.1.4 0 .9 0 1.3.1 3.3.5 6 3.1 6.6 6.4 0 .2.1.3.2.4L89.7 86c.4.7.7 1.4 1 2.1 8.6 3.5 13.7 9.8 13.7 17 0 11.5-12.9 20.1-30 20.1Z"/><path stroke="#E8E8E8" stroke-miterlimit="10" stroke-width=".954" d="M74.4 122.5c-15.6 0-27.4-7.4-27.4-17.3 0-6.9 5.8-12.8 15.2-15.6.1-2.4.8-4.8 2-6.9l.3-.5c.7-1.2 1.9-2.1 3.2-2.5.1-2.3.8-4.5 2-6.5l.3-.5c1-1.7 2.8-2.7 4.7-2.7.3 0 .6 0 .9.1 2.2.4 4 2.1 4.4 4.3.1.4.2.9.5 1.2l6.9 11.9c.5.9.9 1.9 1.3 2.9 8.3 3 13.2 8.5 13.2 14.9-.2 9.7-11.9 17.2-27.5 17.2Z"/><path stroke="#E8E8E8" stroke-miterlimit="10" stroke-width=".954" d="M74.4 119.8c-13.8 0-24.6-6.4-24.6-14.6 0-5.9 5.5-11 14.5-13.3.2-.1.5-.1.7-.1h.2c-.4-2.6.1-5.4 1.5-7.8l.3-.5c.5-.8 1.4-1.4 2.3-1.4h.4c.3.1.7.2 1 .3-.4-2.7.1-5.6 1.5-8.1l.3-.5c.5-.8 1.4-1.4 2.3-1.4h.4c1.1.2 2 1 2.2 2.1.1.7.4 1.4.8 2.1l6.9 11.9c.6 1.1 1.1 2.3 1.4 3.6 7.9 2.5 12.7 7.3 12.7 12.8-.2 8.5-11 14.9-24.8 14.9Z"/><path fill="#E5E5E5" d="M84 94.4c-.1-1.5-.5-3-1.3-4.3l-6.9-11.9c-.5-.9-.9-1.9-1.1-2.9l-.3.5c-1.7 2.9-1.7 6.6 0 9.5l5.5 9.5c1.7 2.9 1.7 6.6 0 9.5l-.3.5c-.2-1-.6-2-1.1-2.9l-5-8.7-3.2-5.6c-.5-.9-.9-1.9-1.1-2.9l-.3.5c-1.7 2.9-1.7 6.6 0 9.5l5.5 9.6c1.7 2.9 1.7 6.6 0 9.5l-.3.5c-.2-1-.6-2-1.1-2.9l-6.9-11.9c-.9-1.6-1.3-3.4-1.3-5.2-7.4 1.9-12.4 6-12.4 10.7 0 6.6 9.8 11.9 21.9 11.9 12.1 0 21.9-5.3 21.9-11.9.2-4.6-4.8-8.6-12.2-10.6Z"/><path fill="url(#b)" d="M152.7 168.8h-115v37H-.5v26.8s0 10 10 10h133.2s10-.1 10-10v-63.8Z"/><path fill="#fff" d="M20.3 234.1c-.3-.1-.6-.5-.7-.8 0-.2 0-.4.3-1.1 1.4-2.6 2-5.1 2-8 0-2.8-.5-5.1-1.8-7.7-.3-.6-.5-1.1-.5-1.2 0-.3.2-.7.5-.9.4-.2.9-.2 1.2.1.1.1.4.6.6 1 .9 1.8 1.6 3.8 1.9 5.9.2 1.3.2 3.8.1 4.9-.3 2.2-.9 4.1-1.8 6-.6 1.2-.9 1.6-1.2 1.6h-.2c-.1.2-.3.2-.4.2Zm-3.8-2c-.5-.1-.8-.7-.7-1.2 0-.1.3-.6.5-1.1 1-2.1 1.5-4.4 1.3-6.7-.2-1.8-.5-3-1.3-4.7-.6-1.1-.6-1.3-.3-1.8.3-.4 1.1-.5 1.5-.1.3.3 1.2 2.1 1.5 3.1 1.1 3.4.9 7.1-.5 10.4-.8 1.8-1.3 2.3-2 2.1Zm-3.9-2c-.3-.1-.6-.5-.6-.8 0-.2 0-.4.4-1.1 1.3-2.7 1.3-5.2 0-7.8-.6-1.1-.6-1.4-.1-1.8.2-.2.3-.3.7-.3.6 0 .8.3 1.3 1.3.8 1.6 1.1 2.9 1.1 4.7 0 1.8-.3 3-1.1 4.7-.5.9-.7 1.2-1.2 1.3-.1-.1-.4-.2-.5-.2Zm-3.7-1.9c-.2-.1-.5-.4-.6-.7-.1-.3 0-.6.3-1.2.5-.8.6-1.2.6-2.2 0-1-.1-1.4-.6-2.2-.2-.3-.3-.6-.3-.7-.1-.5.3-1.1.8-1.2.5-.1.8.1 1.2.8 1.3 2 1.3 4.6 0 6.6-.3.8-.8 1-1.4.8Z"/><path fill="url(#c)" d="M71.8 183.6c1.5 0 2.7 1.2 2.7 2.6v25.2c0 1.5-1.2 2.6-2.7 2.6h-17c-1.5 0-2.7-1.2-2.7-2.6v-25.2c0-1.5 1.2-2.6 2.7-2.6h17Z"/><path stroke="#231F20" stroke-width=".5" d="M59.9 183.5v8.8c-5.2.8-7.8 4.8-7.8 4.8v2.7s2.5 4 7.8 4.8v9.5M67 183.5v9c3.9 0 7.5 4.5 7.5 4.5v2.8s-3.6 4.5-7.5 4.5v9.6"/><path fill="#231F20" d="M53.6 197.7c.4 0 .7.3.7.7 0 .4-.3.7-.7.7-.4 0-.7-.3-.7-.7 0-.4.3-.7.7-.7Z"/><path stroke="#231F20" stroke-width=".5" d="M59.9 204.6s1.4-.6 3.5-.6 3.6.5 3.6.5M59.9 192.4s1.4.6 3.5.6 3.6-.5 3.6-.5M52.3 204.7v7.9M74.2 204.7v7.9M52.3 184.5v8M74.2 184.5v8"/><path stroke="#D1D3D4" stroke-width=".3" d="M71.8 183.6c1.5 0 2.7 1.2 2.7 2.6v25.2c0 1.5-1.2 2.6-2.7 2.6h-17c-1.5 0-2.7-1.2-2.7-2.6v-25.2c0-1.5 1.2-2.6 2.7-2.6h17Z"/><path fill="#F06824" d="M125.7 205.9h-13.8v24.8h13.8v-24.8Z"/><path fill="#E32028" d="M112.8 218.3c0-5 2.4-9.5 6-12.4-2.7-2.1-6.1-3.4-9.7-3.4-8.7 0-15.8 7.1-15.8 15.8 0 8.7 7.1 15.8 15.8 15.8 3.7 0 7.1-1.3 9.7-3.4-3.7-2.9-6-7.4-6-12.4Z"/><path fill="#fff" d="M142.8 228.1v-.5h.2v-.1h-.5v.1h.2v.5h.1Zm1 0v-.6h-.2l-.2.4-.2-.4h-.2v.6h.1v-.5l.2.4h.1l.2-.4v.5h.2Z"/><path fill="#F99F1F" d="M144.3 218.3c0 8.7-7.1 15.8-15.8 15.8-3.7 0-7.1-1.3-9.7-3.4 3.7-2.9 6-7.4 6-12.4s-2.4-9.5-6-12.4c2.7-2.1 6.1-3.4 9.7-3.4 8.7 0 15.8 7.1 15.8 15.8Z"/></g><defs><linearGradient id="b" x1="76.163" x2="76.163" y1="168.752" y2="242.536" gradientUnits="userSpaceOnUse"><stop stop-color="#D6D6D6" stop-opacity="0"/><stop offset="1" stop-color="#B8B8B8"/></linearGradient><linearGradient id="c" x1="72.933" x2="53.44" y1="185.964" y2="211.861" gradientUnits="userSpaceOnUse"><stop stop-color="#7A7A7A"/><stop offset=".304" stop-color="#fff"/><stop offset="1" stop-color="#7A7A7A"/></linearGradient><clipPath id="a"><rect width="151" height="241" fill="#fff" rx="10"/></clipPath></defs></svg>