<svg width="266" height="168" viewBox="0 0 266 168" fill="none" xmlns="http://www.w3.org/2000/svg">
<mask id="mask0_8698_394" style="mask-type:alpha" maskUnits="userSpaceOnUse" x="0" y="0" width="266" height="168">
<path d="M256 0H10C4.47715 0 0 4.47715 0 10V158C0 163.523 4.47715 168 10 168H256C261.523 168 266 163.523 266 158V10C266 4.47715 261.523 0 256 0Z" fill="white"/>
</mask>
<g mask="url(#mask0_8698_394)">
<path d="M256 0H10C4.47715 0 0 4.47715 0 10V158C0 163.523 4.47715 168 10 168H256C261.523 168 266 163.523 266 158V10C266 4.47715 261.523 0 256 0Z" fill="#FF0000"/>
<g clip-path="url(#clip0_8698_394)">
<path d="M267 157.502V10.9344C267 4.89667 262.108 0 256.076 0H9.92434C3.89214 0 -1 4.89667 -1 10.9344V157.502C-1 163.54 3.89214 168.437 9.92434 168.437H256.076C262.108 168.437 267 163.54 267 157.502Z" fill="#047DBB"/>
<path d="M132.849 254.439C32.6679 254.439 -42.8789 183.575 -42.8789 89.5846C-42.8789 48.3457 -24.9699 5.74903 5.04678 -24.3821C32.6535 -67.9465 81.7481 -95.001 133.166 -95.001H133.181C141.464 -95.001 149.805 -94.3221 157.988 -92.9643C197.413 -86.5221 239.09 -58.5432 261.733 -23.3132C291.086 6.7168 308.605 48.9235 308.605 89.599C308.605 183.575 233.044 254.439 132.849 254.439ZM133.181 -94.0043H133.166C82.0656 -94.0043 33.2884 -67.1087 5.86935 -23.8043L5.84049 -23.761L5.7972 -23.7176C-24.0463 6.24014 -41.8687 48.5913 -41.8687 89.5846C-41.8687 182.982 33.2451 253.428 132.849 253.428C232.466 253.428 307.595 182.997 307.595 89.5846C307.595 49.1546 290.162 7.19347 260.968 -22.6488L260.939 -22.6921L260.91 -22.7354C238.427 -57.7487 197.009 -85.5688 157.829 -91.9676C149.704 -93.311 141.406 -94.0043 133.181 -94.0043Z" fill="url(#paint0_linear_8698_394)"/>
<path d="M132.849 251.622C34.27 251.622 -40.0791 181.956 -40.0791 89.5841C-40.0791 48.9664 -22.3866 7.01968 7.24049 -22.6203C34.3132 -65.5348 82.5709 -92.1992 133.166 -92.1992C141.305 -92.1992 149.502 -91.5203 157.526 -90.1914C196.331 -83.8503 237.316 -56.2759 259.525 -21.5514C288.503 7.98746 305.806 49.5297 305.806 89.5841C305.806 181.971 231.442 251.622 132.849 251.622ZM133.166 -91.1881C82.9028 -91.1881 34.9626 -64.6825 8.07749 -22.0281L8.04863 -21.9848L8.00533 -21.9414C-21.463 7.5108 -39.0689 49.2119 -39.0689 89.5841C-39.0689 181.379 34.8328 250.611 132.849 250.611C230.865 250.611 304.781 181.379 304.781 89.5841C304.781 49.7752 287.579 8.46413 258.76 -20.9014L258.717 -20.9448L258.688 -20.9881C236.637 -55.4959 195.913 -82.9114 157.353 -89.2092C149.387 -90.5237 141.248 -91.1881 133.166 -91.1881Z" fill="url(#paint1_linear_8698_394)"/>
<path d="M132.849 248.82C35.8717 248.82 -37.2651 180.368 -37.2651 89.5847C-37.2651 49.5591 -19.8035 8.27686 9.44835 -20.8576C35.9871 -63.1365 83.3789 -89.3965 133.166 -89.3965C141.147 -89.3965 149.185 -88.732 157.064 -87.432C195.263 -81.192 235.54 -54.022 257.317 -19.8031C285.919 9.24464 302.991 50.1369 302.991 89.5847C302.991 111.829 298.633 133.077 290.047 152.765C281.706 171.86 269.684 188.847 254.286 203.248C238.888 217.649 220.749 228.901 200.343 236.701C179.317 244.747 156.602 248.82 132.849 248.82ZM133.181 -88.3854H133.166C83.7108 -88.3854 36.6221 -62.2843 10.2709 -20.2654L10.2421 -20.222L10.1988 -20.1787C-18.8943 8.78241 -36.2694 49.8191 -36.2694 89.5847C-36.2694 179.79 36.4345 247.809 132.834 247.809C156.472 247.809 179.057 243.75 199.953 235.762C220.229 228.006 238.268 216.826 253.565 202.511C268.862 188.197 280.811 171.326 289.094 152.36C297.623 132.802 301.952 111.685 301.952 89.5847C301.952 50.3824 284.967 9.73575 256.523 -19.1387L256.48 -19.182L256.451 -19.2254C234.833 -53.2276 194.816 -80.2387 156.862 -86.4354C149.084 -87.7209 141.103 -88.3854 133.181 -88.3854Z" fill="url(#paint2_linear_8698_394)"/>
<path d="M132.848 246.018C37.4588 246.018 -34.4658 178.764 -34.4658 89.5988C-34.4658 50.1799 -17.2207 9.56213 11.656 -19.0812C37.6608 -60.7101 84.2155 -86.5801 133.166 -86.5801H133.18C141.002 -86.5801 148.881 -85.9301 156.602 -84.659C194.195 -78.5201 233.779 -51.7545 255.109 -18.0412C283.336 10.5155 300.191 50.7432 300.191 89.5988C300.191 111.453 295.905 132.325 287.463 151.667C279.266 170.43 267.433 187.113 252.295 201.269C237.156 215.424 219.305 226.474 199.246 234.13C178.552 242.002 156.212 246.018 132.848 246.018ZM133.18 -85.5834H133.166C84.533 -85.5834 38.2958 -59.8867 12.4785 -18.5034L12.4497 -18.4601L12.4064 -18.4168C-16.3115 10.0388 -33.4556 50.4255 -33.4556 89.5844C-33.4556 178.187 38.036 244.992 132.848 244.992C156.097 244.992 178.306 241.005 198.856 233.162C218.8 225.55 236.536 214.558 251.587 200.503C266.625 186.449 278.386 169.867 286.525 151.233C294.924 132.022 299.181 111.28 299.181 89.5699C299.181 50.9599 282.427 10.9777 254.358 -17.3912L254.315 -17.4345L254.286 -17.4779C233.101 -50.9745 193.791 -77.5812 156.443 -83.6767C148.78 -84.9334 140.959 -85.5834 133.18 -85.5834Z" fill="url(#paint3_linear_8698_394)"/>
<path d="M132.849 243.028C39.162 243.028 -31.4927 177.06 -31.4927 89.5844C-31.4927 50.8155 -14.4928 10.891 13.9942 -17.2178C39.4218 -58.1678 85.0818 -83.6045 133.166 -83.6045C133.181 -83.6045 133.181 -83.6045 133.195 -83.6045C140.858 -83.6045 148.564 -82.9689 156.126 -81.7267C193.07 -75.6889 231.904 -49.3567 252.771 -16.1778C280.609 11.8588 297.219 51.3933 297.219 89.5988C297.219 111.034 293.02 131.517 284.707 150.482C276.655 168.884 265.023 185.25 250.159 199.131C235.295 213.012 217.761 223.86 198.048 231.371C177.729 239.099 155.794 243.028 132.849 243.028ZM133.181 -82.5934C133.166 -82.5934 133.166 -82.5934 133.152 -82.5934C85.3992 -82.5934 40.0567 -57.3156 14.8167 -16.6256L14.7879 -16.5678L14.7446 -16.5245C-13.5692 11.3966 -30.4825 51.0755 -30.4825 89.5988C-30.4825 176.497 39.7392 242.031 132.849 242.031C155.679 242.031 177.484 238.131 197.673 230.432C217.256 222.964 234.689 212.189 249.452 198.394C264.229 184.614 275.774 168.35 283.769 150.078C292.009 131.242 296.194 110.89 296.194 89.5988C296.194 51.6388 279.671 12.3499 252.006 -15.4989L251.963 -15.5423L251.934 -15.5856C231.211 -48.5478 192.637 -74.7212 155.938 -80.7156C148.449 -81.9723 140.786 -82.5934 133.181 -82.5934Z" fill="url(#paint4_linear_8698_394)"/>
<path d="M132.849 240.052C40.8503 240.052 -28.52 175.37 -28.52 89.5842C-28.52 51.4653 -11.7511 12.2342 16.3318 -15.3547C41.1966 -55.6258 85.9619 -80.6436 133.166 -80.6436C140.67 -80.6436 148.232 -80.0224 155.635 -78.7947C191.93 -72.858 230.028 -46.9591 250.433 -14.3291C277.867 13.1731 294.246 52.0142 294.246 89.5842C294.246 175.37 224.861 240.052 132.849 240.052ZM133.166 -79.6324C86.2938 -79.6324 41.846 -54.788 17.1544 -14.7769L17.1256 -14.7191L17.0823 -14.6758C-10.8419 12.7253 -27.5098 51.7109 -27.5098 89.5842C-27.5098 174.792 41.4275 239.041 132.849 239.041C224.284 239.041 293.236 174.792 293.236 89.5842C293.236 52.2598 276.958 13.6787 249.668 -13.6502L249.625 -13.6936L249.596 -13.7369C229.335 -46.1647 191.511 -71.9047 155.462 -77.798C148.117 -79.0113 140.613 -79.6324 133.166 -79.6324Z" fill="url(#paint5_linear_8698_394)"/>
<path d="M132.848 237.091C42.553 237.091 -25.5474 173.68 -25.5474 89.5989C-25.5474 52.1155 -9.02375 13.5922 18.6695 -13.4767C42.9571 -53.0689 86.8276 -77.6533 133.166 -77.6533H133.18C140.511 -77.6533 147.9 -77.0467 155.144 -75.8478C190.789 -70.0267 228.137 -44.5467 248.081 -12.4511C275.125 14.5311 291.273 52.6644 291.273 89.5844C291.273 173.68 223.173 237.091 132.848 237.091ZM133.18 -76.6422H133.166C87.1595 -76.6422 43.6065 -52.2167 19.5065 -12.8989L19.4777 -12.8411L19.4344 -12.7978C-8.10016 14.0833 -24.5372 52.3611 -24.5372 89.5844C-24.5372 173.088 43.1302 236.065 132.848 236.065C222.595 236.065 290.263 173.088 290.263 89.5844C290.263 52.91 274.215 15.0078 247.33 -11.7867L247.287 -11.83L247.258 -11.8733C227.459 -43.7667 190.371 -69.0733 154.986 -74.8655C147.799 -76.05 140.468 -76.6422 133.18 -76.6422Z" fill="url(#paint6_linear_8698_394)"/>
<path d="M132.849 234.101C44.2418 234.101 -22.5742 171.975 -22.5742 89.5843C-22.5742 52.7509 -6.28151 14.9209 21.0077 -11.6135C44.7469 -50.5124 87.7083 -74.6924 133.166 -74.6924H133.181C140.353 -74.6924 147.583 -74.1002 154.654 -72.9302C189.65 -67.2102 226.247 -42.1635 245.743 -10.6024C272.383 15.8454 288.301 53.2854 288.301 89.5698C288.301 171.975 221.47 234.101 132.849 234.101ZM133.181 -73.6813H133.166C88.0402 -73.6813 45.3818 -49.6746 21.8447 -11.0357L21.8158 -10.978L21.7726 -10.9346C-5.35792 15.412 -21.5496 52.9965 -21.5496 89.5843C-21.5496 171.398 44.8335 233.09 132.863 233.09C220.907 233.09 287.305 171.398 287.305 89.5843C287.305 53.5454 271.488 16.3509 245.007 -9.92351L244.964 -9.96684L244.935 -10.0246C225.597 -41.3835 189.26 -66.2568 154.51 -71.9335C147.467 -73.0891 140.31 -73.6813 133.181 -73.6813Z" fill="url(#paint7_linear_8698_394)"/>
<path d="M132.849 231.14C45.9301 231.14 -19.6016 170.286 -19.6016 89.599C-19.6016 53.4156 -3.53975 16.279 23.3598 -9.72104C46.5217 -47.9555 88.5884 -71.7021 133.166 -71.7021H133.18C140.194 -71.7021 147.251 -71.1244 154.178 -69.9833C188.538 -64.3644 224.385 -39.751 243.405 -8.72437C269.655 17.2034 285.328 53.9501 285.328 89.5845C285.328 170.286 219.782 231.14 132.849 231.14ZM133.18 -70.7055C133.18 -70.7055 133.166 -70.7055 133.18 -70.7055C88.9203 -70.7055 47.1567 -47.1177 24.1824 -9.1577L24.1535 -9.09993L24.1102 -9.05659C-2.63059 16.7701 -18.5914 53.6467 -18.5914 89.5845C-18.5914 169.708 46.5073 230.115 132.849 230.115C219.19 230.115 284.317 169.693 284.317 89.5845C284.317 54.1812 268.746 17.6801 242.655 -8.04548L242.597 -8.08881L242.568 -8.14659C223.707 -38.9566 188.105 -63.411 154.005 -68.9866C147.15 -70.1277 140.136 -70.7055 133.18 -70.7055Z" fill="url(#paint8_linear_8698_394)"/>
<path d="M132.848 228.15C47.6328 228.15 -16.6289 168.581 -16.6289 89.5843C-16.6289 54.0366 -0.797991 17.6077 25.6975 -7.87233C48.2822 -45.4279 89.4397 -68.7412 133.151 -68.7412H133.166C140.021 -68.7412 146.919 -68.1779 153.673 -67.0512C187.384 -61.5479 222.48 -37.3679 241.038 -6.86121C266.899 18.5321 282.34 54.5854 282.34 89.5843C282.355 168.581 218.079 228.15 132.848 228.15ZM133.18 -67.7301H133.166C89.786 -67.7301 48.9316 -44.5757 26.5345 -7.29455L26.5057 -7.23677L26.4624 -7.19344C0.111172 18.1132 -15.6187 54.2821 -15.6187 89.5843C-15.6187 168.003 48.21 227.139 132.848 227.139C217.501 227.139 281.344 168.003 281.344 89.5843C281.344 54.831 266.004 19.0232 240.302 -6.18232L240.259 -6.22566L240.23 -6.28344C221.831 -36.5734 186.98 -60.5945 153.528 -66.0545C146.818 -67.1668 139.977 -67.7301 133.18 -67.7301Z" fill="url(#paint9_linear_8698_394)"/>
<path d="M132.849 225.174C49.3216 225.174 -13.6558 166.877 -13.6558 89.5844C-13.6558 54.6721 1.92983 18.951 28.0357 -5.99452C50.0431 -42.8567 90.3203 -65.7656 133.152 -65.7656H133.166C139.848 -65.7656 146.587 -65.2167 153.182 -64.119C186.273 -58.7167 220.619 -34.9556 238.701 -4.99785C264.172 19.8755 279.368 55.221 279.368 89.5844C279.368 108.521 275.616 126.62 268.213 143.39C261.026 159.654 250.664 174.113 237.417 186.377C224.154 198.64 208.525 208.231 190.963 214.861C172.866 221.708 153.312 225.174 132.849 225.174ZM133.181 -64.7545H133.166C90.6667 -64.7545 50.6925 -42.019 28.8727 -5.41674L28.8438 -5.35896L28.8005 -5.31563C2.85342 19.4421 -12.6312 54.9177 -12.6312 89.5844C-12.6312 166.313 49.9132 224.163 132.863 224.163C153.197 224.163 172.635 220.711 190.617 213.922C208.064 207.335 223.592 197.817 236.738 185.64C249.899 173.463 260.174 159.12 267.303 142.985C274.649 126.36 278.372 108.391 278.372 89.5988C278.372 55.481 263.263 20.381 237.965 -4.30452L237.922 -4.34785L237.893 -4.40563C219.941 -34.1612 185.854 -57.749 153.038 -63.1223C146.501 -64.2056 139.819 -64.7545 133.181 -64.7545Z" fill="url(#paint10_linear_8698_394)"/>
<path d="M132.849 222.199C51.0243 222.199 -10.6831 165.187 -10.6831 89.5846C-10.6831 55.3224 4.67159 20.2946 30.3878 -4.11651C51.8324 -40.2998 91.2005 -62.7754 133.166 -62.7754H133.181C139.703 -62.7754 146.284 -62.2409 152.72 -61.1721C185.147 -55.8709 218.743 -32.5576 236.363 -3.13429C261.444 21.2046 276.424 55.8568 276.424 89.5846C276.409 165.187 214.687 222.199 132.849 222.199ZM133.181 -61.7787C133.181 -61.7787 133.166 -61.7787 133.181 -61.7787C91.5324 -61.7787 52.4818 -39.4621 31.2248 -3.55318L31.196 -3.4954L31.1382 -3.45206C5.58074 20.8002 -9.67293 55.5679 -9.67293 89.5846C-9.67293 164.609 51.6015 221.188 132.849 221.188C214.11 221.188 275.399 164.609 275.399 89.5846C275.399 56.1024 260.521 21.6957 235.598 -2.4554L235.555 -2.49873L235.526 -2.55651C218.064 -31.7632 184.714 -54.9176 152.547 -60.1754C146.169 -61.2443 139.646 -61.7787 133.181 -61.7787Z" fill="url(#paint11_linear_8698_394)"/>
<path d="M132.848 219.223C52.7126 219.223 -7.71045 163.497 -7.71045 89.5844C-7.71045 55.9578 7.41334 21.6378 32.7399 -2.25335C53.5929 -37.7578 92.0806 -59.8145 133.166 -59.8145H133.18C139.544 -59.8145 145.952 -59.2945 152.229 -58.2545C184.007 -53.0689 216.866 -30.1745 234.01 -1.28556C258.702 22.5189 273.436 56.4778 273.436 89.57C273.436 107.683 269.843 124.988 262.743 141.007C255.859 156.549 245.916 170.387 233.188 182.116C220.474 193.844 205.48 203.002 188.61 209.358C171.235 215.916 152.475 219.223 132.848 219.223ZM133.18 -58.8033C133.18 -58.8033 133.166 -58.8033 133.18 -58.8033C92.4125 -58.8033 54.2423 -36.9056 33.5769 -1.67557L33.5336 -1.61779L33.4759 -1.57446C8.3225 22.1144 -6.70027 56.1889 -6.70027 89.57C-6.70027 162.904 53.2898 218.198 132.848 218.198C171.336 218.198 206.736 205.126 232.495 181.364C245.108 169.737 254.979 156.014 261.805 140.588C268.847 124.699 272.412 107.524 272.412 89.5555C272.412 56.7089 257.764 23.01 233.246 -0.62112L233.202 -0.664455L233.173 -0.722233C216.188 -29.3945 183.588 -52.13 152.056 -57.2722C145.836 -58.2833 139.487 -58.8033 133.18 -58.8033Z" fill="url(#paint12_linear_8698_394)"/>
<path d="M132.849 216.248C54.4158 216.248 -4.7373 161.792 -4.7373 89.5845C-4.7373 56.6078 10.1412 22.9811 35.0781 -0.375538C55.3682 -35.2155 92.9468 -56.8389 133.166 -56.8389C139.372 -56.8389 145.62 -56.3189 151.739 -55.3078C182.867 -50.2233 214.976 -27.7622 231.659 0.592243C255.961 23.8622 270.464 57.1278 270.464 89.5845C270.464 107.279 266.943 124.193 259.987 139.851C253.248 155.047 243.507 168.552 231.053 180.021C218.598 191.476 203.922 200.431 187.427 206.628C170.427 213.012 152.057 216.248 132.849 216.248ZM133.166 -55.8278C93.2932 -55.8278 56.0321 -34.3633 35.9151 0.20224L35.8718 0.260017L35.8141 0.317799C11.0648 23.4867 -3.72713 56.8533 -3.72713 89.5845C-3.72713 161.214 54.993 215.237 132.849 215.237C170.528 215.237 205.163 202.453 230.374 179.256C242.727 167.888 252.382 154.483 259.063 139.432C265.961 123.904 269.454 107.134 269.454 89.5845C269.454 57.3734 255.051 24.3678 230.908 1.27113L230.85 1.22779L230.822 1.17002C214.298 -26.9678 182.449 -49.27 151.58 -54.3111C145.505 -55.3222 139.314 -55.8278 133.166 -55.8278Z" fill="url(#paint13_linear_8698_394)"/>
<path d="M132.849 213.272C56.1041 213.272 -1.76465 160.102 -1.76465 89.5845C-1.76465 57.2434 12.8829 24.3245 37.4302 1.50227C57.1431 -32.6444 93.827 -53.8633 133.166 -53.8633H133.181C139.213 -53.8633 145.303 -53.3577 151.248 -52.3755C181.741 -47.3922 213.1 -25.3644 229.292 2.45561C253.204 25.2056 267.476 57.7634 267.476 89.5845C267.491 160.102 209.608 213.272 132.849 213.272ZM133.181 -52.8522C133.181 -52.8522 133.166 -52.8522 133.181 -52.8522C94.1589 -52.8522 57.7925 -31.8066 38.2672 2.06561L38.2239 2.13783L38.1662 2.19561C13.8065 24.8301 -0.754471 57.4889 -0.754471 89.5845C-0.754471 159.525 56.6813 212.261 132.849 212.261C209.03 212.261 266.466 159.525 266.481 89.5845C266.481 58.0234 252.309 25.6967 228.556 3.1345L228.498 3.09116L228.455 3.03339C212.407 -24.5699 181.308 -46.4388 151.075 -51.3788C145.187 -52.3466 139.155 -52.8522 133.181 -52.8522Z" fill="url(#paint14_linear_8698_394)"/>
<path d="M132.849 210.297C57.8068 210.297 1.20801 158.398 1.20801 89.5845C1.20801 57.879 15.6247 25.6534 39.7824 3.38008L39.9555 3.06231C59.12 -30.2177 94.837 -50.8877 133.152 -50.8877C139.025 -50.8877 144.956 -50.3966 150.758 -49.4433C180.601 -44.5755 211.209 -22.981 226.939 4.30453C250.462 26.5201 264.504 58.3845 264.504 89.5701C264.518 158.412 207.905 210.297 132.849 210.297ZM133.166 -49.8766C95.2122 -49.8766 59.8272 -29.3944 40.8358 3.56786L40.5761 4.01564L40.5183 4.07342C16.5338 26.1734 2.20375 58.139 2.20375 89.5845C2.20375 157.82 58.3696 209.286 132.834 209.286C207.313 209.286 263.479 157.82 263.493 89.5845C263.493 58.659 249.553 27.0401 226.189 5.01231L226.131 4.95452L226.088 4.89675C210.502 -22.1721 180.168 -43.6077 150.584 -48.4321C144.855 -49.3855 138.996 -49.8766 133.166 -49.8766Z" fill="url(#paint15_linear_8698_394)"/>
<path d="M132.849 207.321C59.4956 207.321 4.18115 156.708 4.18115 89.5845C4.18115 58.5146 18.3669 26.9968 42.135 5.25789L42.539 4.55011C61.1696 -27.8054 95.9053 -47.9121 133.152 -47.9121H133.166C138.881 -47.9121 144.625 -47.4354 150.267 -46.511C179.476 -41.7299 209.334 -20.5543 224.573 6.18233C247.72 27.8779 261.531 59.049 261.531 89.5845C261.545 156.708 206.217 207.321 132.849 207.321ZM133.181 -46.901C133.181 -46.901 133.166 -46.901 133.181 -46.901C96.266 -46.901 61.8767 -26.9966 43.4193 5.04122L42.9287 5.89344L42.8709 5.95123C19.2761 27.5168 5.19133 58.7746 5.19133 89.5845C5.19133 156.13 60.0728 206.31 132.849 206.31C205.639 206.31 260.535 156.13 260.535 89.5845C260.535 59.2946 246.811 28.3834 223.837 6.87567L223.779 6.81789L223.736 6.74567C208.641 -19.7743 179.057 -40.7766 150.108 -45.5143C144.538 -46.4243 138.838 -46.901 133.181 -46.901Z" fill="url(#paint16_linear_8698_394)"/>
<path d="M132.849 204.346C61.1838 204.346 7.15381 155.004 7.15381 89.5848C7.15381 59.1648 21.1087 28.3548 44.4871 7.15033C44.7757 6.64478 45.1365 6.02367 45.1365 6.02367C63.2331 -25.4074 96.973 -44.9219 133.166 -44.9219C133.166 -44.9219 133.166 -44.9219 133.181 -44.9219C138.737 -44.9219 144.321 -44.4597 149.791 -43.5497C178.364 -38.8841 207.458 -18.1563 222.221 8.07478C244.978 29.2214 258.558 59.6992 258.558 89.6136C258.558 121.261 245.772 150.353 222.552 171.543C199.362 192.689 167.498 204.346 132.849 204.346ZM133.181 -43.9108C133.166 -43.9108 133.166 -43.9108 133.181 -43.9108C97.3338 -43.9108 63.9402 -24.5841 46.0168 6.52922C46.0168 6.52922 45.6271 7.20811 45.3385 7.71367L45.2952 7.78589L45.2375 7.84367C22.0178 28.8603 8.16399 59.4248 8.16399 89.5848C8.16399 154.426 61.7755 203.335 132.849 203.335C167.238 203.335 198.871 191.765 221.874 170.763C244.877 149.775 257.548 120.944 257.548 89.5848C257.548 59.9303 244.055 29.7125 221.47 8.73922L221.412 8.68145L221.369 8.60922C206.75 -17.3908 177.917 -37.9597 149.618 -42.5819C144.206 -43.463 138.664 -43.9108 133.181 -43.9108Z" fill="url(#paint17_linear_8698_394)"/>
<path d="M132.849 201.37C62.8866 201.37 10.1265 153.314 10.1265 89.5846C10.1265 59.8146 23.8504 29.698 46.8392 9.02795C47.0989 8.58018 47.6762 7.55462 47.7051 7.51129C65.2821 -23.0098 98.0263 -41.9609 133.166 -41.9609H133.18C138.563 -41.9609 143.989 -41.5132 149.3 -40.632C177.224 -36.0676 205.567 -15.7587 219.854 9.92351C242.222 30.5357 255.585 60.3202 255.585 89.5991C255.6 153.314 202.825 201.37 132.849 201.37ZM133.18 -40.9498C133.18 -40.9498 133.166 -40.9498 133.18 -40.9498C98.3871 -40.9498 65.9748 -22.1865 48.5854 8.01684C48.5854 8.03129 47.9071 9.20129 47.6762 9.60573L47.6329 9.67795L47.5752 9.73573C24.7596 30.218 11.1366 60.0602 11.1366 89.5846C11.1366 152.736 63.4638 200.359 132.849 200.359C202.248 200.359 254.575 152.736 254.575 89.5846C254.575 60.5657 241.313 31.0413 219.103 10.6024L219.046 10.5446L219.002 10.4724C204.874 -14.9787 176.791 -35.1287 149.127 -39.6498C143.874 -40.502 138.506 -40.9498 133.18 -40.9498Z" fill="url(#paint18_linear_8698_394)"/>
<path d="M132.848 198.395C64.5749 198.395 13.0991 151.609 13.0991 89.5849C13.0991 60.4504 26.5922 31.056 49.1913 10.9204C49.4799 10.4004 49.7686 9.89486 50.0572 9.40374L50.2881 8.99929C67.3312 -20.5974 99.0941 -38.9707 133.18 -38.9707H133.195C138.419 -38.9707 143.686 -38.5374 148.838 -37.6851C162.259 -35.4896 175.911 -29.6107 188.293 -20.684C200.646 -11.7718 210.748 -0.548481 217.516 11.7871C239.509 31.8793 252.641 60.956 252.641 89.5849C252.612 151.624 201.136 198.395 132.848 198.395ZM133.18 -37.974C133.18 -37.974 133.166 -37.974 133.18 -37.974C99.4404 -37.974 68.0239 -19.7885 51.1539 9.49041L50.923 9.89485C50.62 10.4149 50.3169 10.9493 50.0283 11.4837L49.985 11.556L49.9273 11.6137C27.5014 31.5615 14.1093 60.7104 14.1093 89.5849C14.1093 151.046 65.1521 197.384 132.848 197.384C200.545 197.384 251.602 151.046 251.602 89.5849C251.602 61.2015 238.571 32.3704 216.751 12.4804L216.693 12.4226L216.65 12.3504C202.998 -12.5663 175.68 -32.2829 148.65 -36.6885C143.556 -37.5407 138.347 -37.974 133.18 -37.974Z" fill="url(#paint19_linear_8698_394)"/>
<path d="M132.849 195.419C66.2781 195.419 16.0723 149.919 16.0723 89.5847C16.0723 61.0858 29.3344 32.3991 51.5295 12.798C51.8903 12.148 52.251 11.498 52.6118 10.8769L52.8427 10.4725C69.3663 -18.1998 100.133 -36.0098 133.166 -36.0098C138.232 -36.0098 143.326 -35.5909 148.319 -34.7675C161.437 -32.6298 174.728 -26.8809 186.778 -18.142C198.784 -9.43199 208.583 1.56024 215.12 13.6358C236.738 33.1791 249.64 61.5625 249.64 89.5702C249.64 118.762 237.763 145.586 216.188 165.129C194.643 184.672 165.045 195.419 132.849 195.419ZM133.166 -34.9987C100.494 -34.9987 70.059 -17.3909 53.723 10.9636L53.4921 11.368C53.1169 12.0036 52.7417 12.6825 52.3809 13.3469L52.3376 13.4191L52.2655 13.4769C30.2436 32.9047 17.0824 61.3458 17.0824 89.5847C17.0824 149.341 66.8553 194.408 132.849 194.408C164.785 194.408 194.152 183.748 215.51 164.392C236.868 145.051 248.629 118.488 248.629 89.5847C248.629 61.8369 235.829 33.6991 214.384 14.3436L214.327 14.2858L214.283 14.2136C201.122 -10.1687 174.555 -29.452 148.175 -33.7564C143.225 -34.5798 138.174 -34.9987 133.166 -34.9987Z" fill="url(#paint20_linear_8698_394)"/>
<path d="M132.849 192.444C67.9664 192.444 19.0449 148.229 19.0449 89.5849C19.0449 61.736 32.0762 33.7427 53.896 14.7049C54.3578 13.8671 54.7763 13.1016 55.1948 12.3794L55.4257 11.9605C71.4154 -15.7873 101.201 -33.0195 133.152 -33.0195C133.152 -33.0195 133.152 -33.0195 133.166 -33.0195C138.073 -33.0195 143.008 -32.6151 147.843 -31.8206C160.643 -29.7262 173.602 -24.1073 185.306 -15.5562C196.966 -7.03398 206.462 3.71269 212.754 15.5282C233.996 34.5371 246.681 62.2127 246.681 89.5994C246.667 148.229 197.745 192.444 132.849 192.444ZM133.181 -32.0084C133.166 -32.0084 133.166 -32.0084 133.181 -32.0084C101.576 -32.0084 72.1225 -14.964 56.3205 12.466L56.0751 12.8849C55.6422 13.6216 55.2093 14.4016 54.7475 15.2682L54.7042 15.3549L54.632 15.4127C32.9854 34.2771 20.0551 62.0105 20.0551 89.5994C20.0551 147.666 68.5436 191.447 132.849 191.447C197.168 191.447 245.657 147.666 245.657 89.5994C245.657 62.4727 233.073 35.0427 212.003 16.2216L211.931 16.1638L211.888 16.0771C199.217 -7.77064 173.414 -26.6206 147.669 -30.824C142.907 -31.6184 138.015 -32.0084 133.181 -32.0084Z" fill="url(#paint21_linear_8698_394)"/>
<path d="M132.848 189.468C69.6691 189.468 22.0176 146.525 22.0176 89.5848C22.0176 62.3714 34.818 35.1003 56.2626 16.5825C56.7677 15.6436 57.2728 14.7336 57.7778 13.8525L58.0232 13.4192C73.4645 -13.3897 102.269 -30.0586 133.166 -30.0586C133.18 -30.0586 133.18 -30.0586 133.195 -30.0586C137.928 -30.0586 142.69 -29.6686 147.352 -28.903C159.849 -26.8664 172.447 -21.363 183.805 -13.0141C195.133 -4.69415 204.311 5.82141 210.358 17.377C231.225 35.8514 243.679 62.8336 243.679 89.5848C243.694 146.525 196.042 189.468 132.848 189.468ZM133.195 -29.0475C133.18 -29.0475 133.18 -29.0475 133.166 -29.0475C102.63 -29.0475 74.1572 -12.5808 58.889 13.9247L58.6437 14.3581C58.1242 15.2536 57.6047 16.1925 57.0996 17.1459L57.0563 17.2325L56.9841 17.2903C35.7271 35.6203 23.0278 62.6459 23.0278 89.5848C23.0278 145.947 70.2463 188.457 132.848 188.457C195.465 188.457 242.684 145.947 242.684 89.5848C242.684 63.0936 230.331 36.357 209.636 18.0703L209.564 18.0125L209.521 17.9259C197.341 -5.38748 172.289 -23.8041 147.193 -27.9064C142.575 -28.6575 137.87 -29.0475 133.195 -29.0475Z" fill="url(#paint22_linear_8698_394)"/>
<path d="M132.849 186.493C71.3579 186.493 24.9907 144.835 24.9907 89.5848C24.9907 63.0214 37.5602 36.4437 58.6152 18.4892C59.2357 17.3048 59.813 16.2792 60.3469 15.3548L60.5923 14.9214C75.514 -10.9919 103.323 -27.083 133.166 -27.083C137.741 -27.083 142.359 -26.7075 146.876 -25.9563C159.056 -23.963 171.322 -18.6041 182.333 -10.443C193.315 -2.31079 202.19 7.95921 207.992 19.2548C228.484 37.1948 240.721 63.4837 240.721 89.5992C240.736 144.835 194.354 186.493 132.849 186.493ZM133.166 -26.0719C103.684 -26.0719 76.2067 -10.1686 61.4726 15.427L61.2272 15.8603C60.6788 16.7992 60.116 17.8392 59.4666 19.0525L59.4233 19.1392L59.3512 19.197C38.4694 36.9637 26.0009 63.2814 26.0009 89.5848C26.0009 144.257 71.9351 185.481 132.849 185.481C193.777 185.481 239.711 144.257 239.711 89.5848C239.711 63.7292 227.575 37.6859 207.256 19.9481L207.183 19.8903L207.14 19.8037C195.465 -2.97523 171.178 -20.9586 146.703 -24.9452C142.243 -25.6963 137.683 -26.0719 133.166 -26.0719Z" fill="url(#paint23_linear_8698_394)"/>
<path d="M132.849 183.517C73.0461 183.517 27.9634 143.13 27.9634 89.5846C27.9634 63.6568 40.302 37.8013 60.9817 20.3668C61.5879 19.2113 62.2373 18.0124 62.9155 16.8279L63.1753 16.3801C77.5631 -8.60874 104.391 -24.1221 133.166 -24.1221C137.582 -24.1221 142.027 -23.761 146.385 -23.0387C158.262 -21.1032 170.167 -15.8598 180.846 -7.88651C191.482 0.0579281 200.04 10.0824 205.61 21.1035C225.742 38.4946 237.748 64.0901 237.748 89.5701C237.748 143.13 192.651 183.517 132.849 183.517ZM133.166 -23.0965C104.737 -23.0965 78.2558 -7.77096 64.0411 16.9002L63.7958 17.3335C63.1031 18.5468 62.4393 19.7601 61.8332 20.9301L61.7899 21.0168L61.7177 21.0746C41.2256 38.3068 28.988 63.9168 28.988 89.5701C28.988 142.538 73.6523 182.491 132.863 182.491C192.088 182.491 236.753 142.552 236.753 89.5701C236.753 64.3357 224.833 39.0146 204.889 21.7968L204.817 21.7246L204.773 21.6379C193.575 -0.577629 170.052 -18.1276 146.226 -22.0276C141.911 -22.7354 137.524 -23.0965 133.166 -23.0965Z" fill="url(#paint24_linear_8698_394)"/>
<path d="M132.848 180.542C74.7489 180.542 30.936 141.44 30.936 89.5848C30.936 64.3071 43.0582 39.1448 63.3483 22.2737C64.0266 20.9448 64.7481 19.6159 65.4985 18.3304L65.7583 17.8826C79.6121 -6.18183 105.444 -21.1318 133.166 -21.1318C133.166 -21.1318 133.166 -21.1318 133.18 -21.1318C137.438 -21.1318 141.709 -20.7852 145.909 -20.0918C157.468 -18.1996 169.042 -13.1007 179.374 -5.31517C189.664 2.42706 197.918 12.2204 203.243 22.9815C223 39.8382 234.804 64.726 234.804 89.5848C234.775 141.44 190.963 180.542 132.848 180.542ZM133.18 -20.1207C133.166 -20.1207 133.166 -20.1207 133.18 -20.1207C105.805 -20.1207 80.3048 -5.37294 66.6386 18.3737L66.3788 18.8215C65.6284 20.1215 64.8924 21.4648 64.2142 22.8226L64.1709 22.9093L64.0843 22.9815C43.9529 39.6793 31.9462 64.5815 31.9462 89.5848C31.9462 140.863 75.3261 179.53 132.848 179.53C190.385 179.53 233.765 140.863 233.765 89.5848C233.765 64.986 222.076 40.3437 202.479 23.6893L202.392 23.6171L202.349 23.5304C191.67 1.83484 168.912 -15.2963 145.721 -19.0807C141.594 -19.7741 137.365 -20.1207 133.18 -20.1207Z" fill="url(#paint25_linear_8698_394)"/>
<path d="M132.849 177.566C76.4376 177.566 33.9092 139.736 33.9092 89.5847C33.9092 64.9424 45.8004 40.5024 65.7153 24.1658C66.4513 22.6924 67.245 21.2191 68.0676 19.8036L68.3274 19.3413C81.6617 -3.78423 106.512 -18.1709 133.166 -18.1709C137.25 -18.1709 141.378 -17.8387 145.418 -17.1598C156.675 -15.3109 167.902 -10.3276 177.874 -2.74423C187.817 4.81021 195.754 14.358 200.819 24.8591C220.229 41.1669 231.803 65.3469 231.803 89.5847C231.803 113.851 221.744 136.154 203.46 152.404C185.19 168.639 160.124 177.566 132.849 177.566ZM133.166 -17.1598C106.858 -17.1598 82.3544 -2.97534 69.2077 19.8469L68.9479 20.3091C68.1253 21.7391 67.3316 23.2124 66.5812 24.7147L66.5379 24.8158L66.4513 24.888C46.6951 41.0369 34.9194 65.2169 34.9194 89.5847C34.9194 139.172 77.0293 176.555 132.849 176.555C159.864 176.555 184.714 167.715 202.782 151.638C220.85 135.59 230.793 113.548 230.778 89.5847C230.778 65.6069 219.306 41.6724 200.083 25.5524L199.997 25.4802L199.953 25.3791C194.96 14.9791 187.11 5.53244 177.253 -1.94979C167.397 -9.43201 156.328 -14.3576 145.245 -16.1631C141.262 -16.8131 137.207 -17.1598 133.166 -17.1598Z" fill="url(#paint26_linear_8698_394)"/>
<path d="M132.849 174.59C78.1404 174.59 36.8818 138.046 36.8818 89.5849C36.8818 65.5927 48.5422 41.8605 68.0963 26.0727C68.89 24.4549 69.7559 22.8516 70.6506 21.306L70.9104 20.8438C83.7108 -1.37178 107.565 -15.1807 133.166 -15.1807C133.181 -15.1807 133.195 -15.1807 133.224 -15.1807C137.135 -15.1807 141.074 -14.8629 144.928 -14.2273C155.866 -12.4362 166.747 -7.58289 176.387 -0.187331C185.984 7.17934 193.604 16.4816 198.424 26.7227C217.473 42.496 228.844 65.9827 228.844 89.5849C228.83 138.046 187.571 174.59 132.849 174.59ZM133.224 -14.1696C133.209 -14.1696 133.195 -14.1696 133.181 -14.1696C107.941 -14.1696 84.4179 -0.562886 71.7907 21.3493L71.5309 21.8116C70.6218 23.3716 69.7703 24.9893 68.9622 26.6216L68.9189 26.7227L68.8323 26.7949C49.4513 42.3949 37.892 65.8671 37.892 89.5849C37.892 137.468 78.7176 173.579 132.849 173.579C186.994 173.579 227.82 137.468 227.82 89.5849C227.82 66.2427 216.549 43.0016 197.688 27.4305L197.601 27.3582L197.558 27.2571C192.81 17.1171 185.277 7.90156 175.781 0.621559C166.271 -6.67289 155.549 -11.454 144.769 -13.2162C140.959 -13.8518 137.077 -14.1696 133.224 -14.1696Z" fill="url(#paint27_linear_8698_394)"/>
<path d="M132.849 171.629C79.8287 171.629 39.8545 136.355 39.8545 89.5986C39.8545 66.242 51.2984 43.2319 70.4773 27.9931C71.3287 26.2308 72.2523 24.4975 73.2192 22.8075L73.4934 22.3308C85.7598 1.02526 108.633 -12.1914 133.18 -12.1914C133.18 -12.1914 133.18 -12.1914 133.195 -12.1914C136.961 -12.1914 140.742 -11.8736 144.466 -11.267C155.101 -9.53363 165.636 -4.81029 174.93 2.39749C184.18 9.56194 191.482 18.6186 196.042 28.5997C214.702 43.8097 225.857 66.6031 225.857 89.5842C225.857 136.355 185.883 171.629 132.849 171.629ZM133.18 -11.1947C133.166 -11.1947 133.166 -11.1947 133.18 -11.1947C108.979 -11.1947 86.4525 1.8486 74.3593 22.8219L74.0851 23.2986C73.1038 25.0031 72.1802 26.7508 71.3287 28.5275L71.2854 28.6286L71.1989 28.7008C52.1931 43.7519 40.8647 66.502 40.8647 89.5842C40.8647 135.778 80.4059 170.603 132.849 170.603C185.291 170.603 224.847 135.763 224.847 89.5842C224.847 66.8631 213.793 44.3297 195.277 29.2931L195.191 29.2208L195.148 29.1197C190.645 19.2397 183.43 10.2697 174.28 3.17749C165.116 -3.91474 154.741 -8.58029 144.278 -10.2847C140.612 -10.8914 136.875 -11.1947 133.18 -11.1947Z" fill="url(#paint28_linear_8698_394)"/>
<path d="M132.849 168.639C81.5172 168.639 42.813 134.651 42.813 89.5847C42.813 66.9503 53.9827 44.677 72.6998 30.0014C72.8008 29.857 72.9018 29.7125 72.9884 29.5681C73.8399 27.777 74.7779 25.9859 75.7736 24.267L76.0478 23.7903C87.7947 3.42364 109.672 -9.24414 133.166 -9.24414C136.774 -9.24414 140.396 -8.94081 143.961 -8.36303C154.293 -6.67303 164.482 -2.0797 173.414 4.92586C182.318 11.9025 189.289 20.7136 193.589 30.4347C211.931 45.1103 222.884 67.1959 222.884 89.5559C222.884 111.367 213.721 131.416 197.081 146.005C180.471 160.608 157.656 168.639 132.849 168.639ZM133.166 -8.23303C110.033 -8.23303 88.4874 4.23253 76.9425 24.2959L76.6684 24.7725C75.687 26.477 74.749 28.2536 73.8976 30.0303L73.8543 30.1025C73.7388 30.2759 73.609 30.4492 73.4935 30.6225L73.4502 30.6803L73.3925 30.7236C54.8774 45.2259 43.8376 67.2247 43.8376 89.5847C43.8376 134.074 82.1089 167.628 132.863 167.628C157.425 167.628 180.009 159.684 196.432 145.268C212.84 130.867 221.889 111.093 221.889 89.5703C221.889 67.4703 211.036 45.6447 192.868 31.157L192.767 31.0847L192.723 30.9692C188.495 21.3636 181.597 12.6247 172.794 5.73475C163.991 -1.1697 153.961 -5.69081 143.787 -7.35192C140.281 -7.9297 136.716 -8.23303 133.166 -8.23303Z" fill="url(#paint29_linear_8698_394)"/>
<path d="M132.849 165.664C83.2202 165.664 45.8003 132.962 45.8003 89.585C45.8003 67.6872 56.6813 46.1794 74.9078 32.0672C75.1243 31.735 75.3552 31.4028 75.5861 31.085C76.4375 29.2794 77.3756 27.4883 78.3713 25.7839L78.6455 25.2928C89.844 5.8361 110.74 -6.25391 133.166 -6.25391H133.181C136.615 -6.25391 140.079 -5.96502 143.47 -5.41613C163.775 -2.09391 182.925 13.0583 191.165 32.3272C209.175 46.4394 219.912 67.8461 219.912 89.585C219.912 132.962 182.492 165.664 132.849 165.664ZM133.181 -5.2428C133.181 -5.2428 133.166 -5.2428 133.181 -5.2428C111.101 -5.2428 90.5367 6.64498 79.5258 25.7839L79.2516 26.275C78.2703 27.9794 77.3323 29.7561 76.4953 31.5472L76.452 31.6194C76.2066 31.9661 75.9613 32.3417 75.716 32.6883L75.6727 32.7605L75.6005 32.8039C57.5761 46.7428 46.8249 67.9617 46.8249 89.585C46.8249 132.384 83.8118 164.653 132.863 164.653C181.914 164.653 218.916 132.369 218.916 89.5705C218.916 68.0916 208.28 46.9594 190.443 33.035L190.342 32.9483L190.285 32.8328C182.203 13.8239 163.327 -1.15502 143.297 -4.41946C139.963 -4.96835 136.558 -5.2428 133.181 -5.2428Z" fill="url(#paint30_linear_8698_394)"/>
<path d="M132.849 162.702C84.9084 162.702 48.7729 131.271 48.7729 89.5987C48.7729 68.4231 59.3654 47.6954 77.1156 34.132C77.462 33.612 77.8083 33.092 78.1691 32.5865C79.0205 30.7665 79.9586 28.9898 80.9399 27.2709L81.2285 26.7798C91.9075 8.24757 111.808 -3.26465 133.18 -3.26465C136.456 -3.26465 139.747 -2.9902 142.979 -2.45576C162.49 0.736464 180.818 15.3398 188.596 33.9009L188.827 34.2909C206.433 47.8542 216.953 68.5242 216.953 89.5987C216.939 131.271 180.789 162.702 132.849 162.702ZM133.18 -2.26798C133.166 -2.26798 133.166 -2.26798 133.18 -2.26798C112.169 -2.26798 92.6002 9.05647 82.0944 27.2709L81.8057 27.762C80.8244 29.4665 79.9008 31.2287 79.0494 33.0342L79.035 33.0776L79.0061 33.1209C78.6309 33.6554 78.2557 34.2042 77.8949 34.7531L77.8516 34.8254L77.7795 34.8831C60.2457 48.2442 49.7831 68.6976 49.7831 89.5843C49.7831 130.693 85.5001 161.676 132.849 161.676C180.211 161.676 215.928 130.679 215.928 89.5843C215.928 68.7842 205.538 48.3887 188.12 35.0131L188.033 34.9554L187.658 34.3054C180.024 16.0476 161.999 1.66091 142.806 -1.47354C139.646 -2.00798 136.399 -2.26798 133.18 -2.26798Z" fill="url(#paint31_linear_8698_394)"/>
<path d="M132.848 159.712C86.6111 159.712 51.7456 129.566 51.7456 89.5842C51.7456 69.1453 62.0494 49.1831 79.309 36.1831C79.7708 35.4753 80.247 34.7675 80.7377 34.0742C81.5891 32.2397 82.5127 30.4486 83.5085 28.7442L83.7971 28.2386C89.6272 18.1275 98.2715 10.1542 108.806 5.15639C119.341 0.187504 131.001 -1.44472 142.503 0.461949C161.133 3.50973 178.581 17.4631 185.926 35.2008L186.547 36.2842C203.72 49.2986 213.98 69.2175 213.98 89.5842C213.966 129.566 179.1 159.712 132.848 159.712ZM133.123 0.69306C124.897 0.69306 116.772 2.51306 109.239 6.08084C98.892 10.9775 90.3921 18.8208 84.6629 28.7442L84.3743 29.2497C83.393 30.9397 82.4694 32.7164 81.6324 34.5364L81.618 34.5797L81.5891 34.6231C81.084 35.3453 80.5789 36.0675 80.1027 36.8042L80.0594 36.8764L79.9873 36.9342C62.9297 49.7464 52.7558 69.4342 52.7558 89.5842C52.7558 128.989 87.1884 158.701 132.848 158.701C178.508 158.701 212.955 128.989 212.97 89.5842C212.97 69.492 202.839 49.8475 185.868 37.0208L185.782 36.9631L185.017 35.6197C177.801 18.1708 160.657 4.44862 142.344 1.45862C139.27 0.95306 136.196 0.69306 133.123 0.69306Z" fill="url(#paint32_linear_8698_394)"/>
<path d="M132.849 156.752C88.2997 156.752 54.7041 127.877 54.7041 89.5993C54.7041 69.8826 64.7193 50.7004 81.5171 38.2637C82.0943 37.3682 82.7004 36.4726 83.321 35.5915C84.158 33.7715 85.0816 31.9804 86.0773 30.2471L86.3659 29.7415C91.8931 20.1649 100.09 12.596 110.076 7.87264C120.063 3.13486 131.102 1.58931 142.012 3.39486C159.748 6.29819 176.315 19.6015 183.256 36.516L184.281 38.2926C201.021 50.7437 211.007 69.9115 211.007 89.5849C210.993 127.877 177.397 156.752 132.849 156.752ZM133.123 3.68375C125.344 3.68375 117.653 5.40264 110.509 8.78264C100.696 13.4193 92.6579 20.8438 87.2318 30.2326L86.9432 30.7382C85.9474 32.4571 85.0383 34.2337 84.2013 36.0393L84.1868 36.0826L84.158 36.126C83.523 37.0215 82.9025 37.9315 82.3108 38.856L82.2531 38.9426L82.1809 39.0004C65.614 51.2637 55.7143 70.1715 55.7143 89.5849C55.7143 127.299 88.877 155.726 132.849 155.726C176.82 155.726 209.983 127.285 209.983 89.5849C209.983 70.2004 200.112 51.3071 183.588 39.0437L183.502 38.986L182.318 36.9349C175.521 20.3093 159.257 7.23708 141.839 4.39153C138.938 3.91486 136.023 3.68375 133.123 3.68375Z" fill="url(#paint33_linear_8698_394)"/>
<path d="M132.848 153.776C90.0024 153.776 57.6768 126.187 57.6768 89.5989C57.6768 70.6334 67.4177 52.2167 83.7249 40.3145C84.4032 39.2167 85.1391 38.1334 85.8896 37.0934C86.7121 35.2878 87.6357 33.4822 88.6315 31.7345L88.9201 31.2289C94.1586 22.1578 101.908 15.0222 111.346 10.5445C120.784 6.08113 131.218 4.62224 141.521 6.32669C158.377 9.08558 174.064 21.7389 180.572 37.83L182.015 40.3145C198.308 52.2023 208.034 70.6045 208.034 89.57C208.034 107.279 200.386 123.558 186.489 135.402C172.606 147.261 153.557 153.776 132.848 153.776ZM133.123 6.64446C125.777 6.64446 118.518 8.26224 111.779 11.4545C102.529 15.8311 94.9234 22.8367 89.8148 31.7056L89.5262 32.2111C88.5304 33.9445 87.6213 35.7356 86.7987 37.5267L86.7843 37.57L86.7554 37.6134C85.9761 38.6822 85.2402 39.78 84.5475 40.9067L84.4897 40.9934L84.4032 41.0511C68.298 52.7511 58.6869 70.8934 58.6869 89.57C58.6869 125.58 90.5652 152.736 132.848 152.736C153.312 152.736 172.13 146.308 185.811 134.637C199.477 122.98 207.01 106.976 207.01 89.57C207.01 70.8934 197.413 52.7656 181.322 41.0656L181.236 41.0078L179.648 38.2345C173.27 22.4467 157.886 10.0245 141.363 7.32335C138.606 6.87558 135.864 6.64446 133.123 6.64446Z" fill="url(#paint34_linear_8698_394)"/>
<path d="M132.848 150.8C91.6909 150.8 60.6641 124.482 60.6641 89.5991C60.6641 71.3558 70.1164 53.7047 85.9618 42.3802C86.7555 41.0658 87.6069 39.7947 88.4872 38.6102C89.3098 36.7758 90.2334 34.9702 91.2291 33.2369L91.5322 32.7169C96.4388 24.1947 103.741 17.4636 112.63 13.2602C121.506 9.04245 131.333 7.67023 141.031 9.27356C156.992 11.888 171.798 23.8769 177.888 39.1447L179.749 42.3658C195.595 53.6902 205.047 71.3413 205.047 89.5847C205.047 124.482 174.006 150.8 132.848 150.8ZM133.137 9.63467C126.225 9.63467 119.399 11.1658 113.049 14.1702C104.347 18.2869 97.2036 24.8736 92.3981 33.2225L92.095 33.7425C91.0992 35.4613 90.1901 37.2525 89.382 39.0725L89.3531 39.1302L89.3242 39.1736C88.4295 40.3725 87.5781 41.658 86.7699 43.0013L86.7122 43.088L86.6256 43.1458C70.9967 54.2825 61.6598 71.6447 61.6598 89.5991C61.6598 123.919 92.2537 149.789 132.834 149.789C173.414 149.789 204.023 123.905 204.023 89.5847C204.023 71.6302 194.686 54.2536 179.057 43.1169L178.97 43.0591L176.95 39.5491C170.99 24.5847 156.487 12.8269 140.843 10.2702C138.289 9.83689 135.706 9.63467 133.137 9.63467Z" fill="url(#paint35_linear_8698_394)"/>
<path d="M132.849 147.825C93.3795 147.825 63.6226 122.792 63.6226 89.5991C63.6226 72.0924 72.8007 55.2213 88.1843 44.4458C89.0646 42.958 90.0315 41.4991 91.0705 40.1124C91.8787 38.278 92.8022 36.458 93.798 34.7102L94.101 34.1902C98.7046 26.2024 105.559 19.8902 113.886 15.9324C122.227 11.9891 131.449 10.6891 140.54 12.2058C155.606 14.6613 169.532 26.0147 175.204 40.4447L177.498 44.4169C192.882 55.178 202.075 72.0635 202.075 89.5846C202.075 122.778 172.318 147.825 132.849 147.825ZM133.137 12.5958C126.658 12.5958 120.265 14.0258 114.333 16.8424C106.18 20.6991 99.4983 26.8669 94.9813 34.6813L94.6783 35.2013C93.6825 36.9347 92.7734 38.7258 91.9797 40.5602L91.9508 40.618L91.922 40.6613C90.8685 42.0624 89.8872 43.5358 89.0069 45.038L88.9491 45.1391L88.8626 45.1969C73.6955 55.7846 64.6472 72.3669 64.6472 89.5846C64.6472 122.2 93.9712 146.799 132.863 146.799C171.755 146.799 201.079 122.2 201.079 89.5702C201.079 72.338 192.016 55.7413 176.849 45.168L176.762 45.1102L174.309 40.8347C168.768 26.708 155.145 15.6002 140.41 13.188C137.972 12.798 135.547 12.5958 133.137 12.5958Z" fill="url(#paint36_linear_8698_394)"/>
<path d="M132.848 144.849C95.0822 144.849 66.5952 121.102 66.5952 89.5986C66.5952 72.8142 75.4992 56.7231 90.421 46.5253L90.5797 46.2508C91.5033 44.6475 92.5423 43.102 93.6535 41.6286C94.4473 39.7797 95.3708 37.9453 96.381 36.1975L96.6841 35.6775C100.985 28.2097 107.378 22.3164 115.17 18.6331C122.963 14.9497 131.564 13.7364 140.064 15.152C154.235 17.4631 167.267 28.152 172.534 41.7442L175.276 46.4964C190.212 56.6942 199.116 72.7997 199.116 89.5986C199.102 121.088 170.615 144.849 132.848 144.849ZM133.137 15.5853C127.105 15.5853 121.13 16.9142 115.589 19.5431C107.984 23.1397 101.749 28.8886 97.5499 36.1831L97.2469 36.7031C96.2511 38.4364 95.342 40.242 94.5483 42.0764L94.5194 42.1342L94.4761 42.1775C93.3649 43.622 92.3547 45.1675 91.4311 46.742L91.157 47.2186L91.0559 47.2908C76.3506 57.3008 67.5765 73.1175 67.5765 89.5986C67.5765 120.524 95.6162 143.837 132.82 143.837C170.009 143.837 198.063 120.524 198.063 89.5986C198.063 73.1031 189.274 57.272 174.569 47.262L174.468 47.1897L171.553 42.1342C166.43 28.8453 153.687 18.402 139.848 16.1342C137.64 15.7586 135.388 15.5853 133.137 15.5853Z" fill="url(#paint37_linear_8698_394)"/>
<path d="M132.849 141.873C96.771 141.873 69.5684 119.398 69.5684 89.5845C69.5684 73.5367 78.1982 58.2111 92.6581 48.5767C92.8169 48.3022 93.1488 47.71 93.1488 47.71C94.0724 46.1211 95.097 44.5756 96.2226 43.1311C97.0163 41.2678 97.9255 39.4334 98.9356 37.6856L99.2387 37.1656C103.236 30.2178 109.182 24.7434 116.426 21.32C123.671 17.8967 131.665 16.77 139.559 18.0845C152.821 20.2511 164.972 30.2756 169.821 43.03L173.025 48.5767C187.485 58.2111 196.115 73.5367 196.115 89.5989C196.115 104.029 189.678 117.289 177.975 126.938C166.3 136.558 150.282 141.873 132.849 141.873ZM94.0291 48.2156C94.0291 48.2156 93.5817 49.01 93.4807 49.1834L93.423 49.2845L93.3219 49.3567C79.0785 58.8034 70.5785 73.84 70.5785 89.5845C70.5785 118.82 97.3482 140.862 132.849 140.862C150.036 140.862 165.838 135.633 177.34 126.158C188.798 116.697 195.119 103.711 195.119 89.5845C195.119 73.8256 186.619 58.7889 172.376 49.3422L172.274 49.27L168.898 43.4056C164.193 30.9545 152.331 21.1756 139.4 19.0667C131.709 17.7956 123.916 18.8789 116.859 22.2156C109.802 25.5522 104.015 30.8967 100.119 37.6567L99.8159 38.1767C98.8202 39.91 97.911 41.73 97.1318 43.5789L97.1029 43.6367L97.0596 43.6945C95.9628 45.1245 94.9382 46.6556 94.0291 48.2156Z" fill="url(#paint38_linear_8698_394)"/>
<path d="M132.849 138.898C98.4737 138.898 72.541 117.708 72.541 89.5844C72.541 74.2732 80.8966 59.7421 94.8948 50.6566C95.0824 50.3099 95.27 49.9632 95.472 49.631L95.7318 49.1832C96.6409 47.5943 97.68 46.0777 98.82 44.6477C99.5993 42.7699 100.508 40.921 101.519 39.1588L101.822 38.6243C105.516 32.211 111.014 27.1555 117.696 23.9777C124.378 20.8144 131.781 19.7744 139.068 20.9877C151.436 23.0099 162.692 32.3555 167.122 44.2721L170.802 50.6421C184.801 59.7132 193.142 74.2443 193.142 89.5555C193.156 117.693 167.238 138.898 132.849 138.898ZM133.137 21.5366C127.971 21.5366 122.877 22.6777 118.129 24.9166C111.635 27.9932 106.295 32.9188 102.702 39.1444L102.399 39.6788C101.389 41.4266 100.494 43.2466 99.7292 45.1099L99.7003 45.1821L99.657 45.2399C98.5314 46.641 97.5068 48.1432 96.6121 49.7032L96.3523 50.151C96.1359 50.5121 95.9338 50.8877 95.7318 51.2632L95.6741 51.3788L95.5586 51.451C81.7769 60.3344 73.5512 74.591 73.5512 89.5988C73.5512 117.13 99.0365 137.901 132.849 137.901C166.661 137.901 192.146 117.144 192.146 89.6132C192.146 74.6055 183.92 60.3488 170.167 51.4799L170.066 51.4077L166.228 44.7488L166.213 44.7055C161.927 33.1066 150.96 23.9921 138.924 22.0277C136.99 21.6955 135.071 21.5366 133.137 21.5366Z" fill="url(#paint39_linear_8698_394)"/>
<path d="M132.849 135.922C100.162 135.922 75.5283 116.004 75.5283 89.5846C75.5283 75.0102 83.6097 61.2591 97.175 52.7513C97.4492 52.2169 97.7522 51.668 98.0697 51.1191L98.3295 50.6569C99.2386 49.0824 100.278 47.5802 101.418 46.1646C102.183 44.2724 103.077 42.4091 104.102 40.6469L104.405 40.1124C107.796 34.2191 112.833 29.5824 118.98 26.6646C125.114 23.7613 131.911 22.808 138.607 23.9202C150.065 25.798 160.441 34.4791 164.438 45.5291L168.609 52.7658C182.131 61.2591 190.198 75.0102 190.198 89.5702C190.183 116.004 165.535 135.922 132.849 135.922ZM133.137 24.5124C128.404 24.5124 123.743 25.5524 119.399 27.6035C113.439 30.4202 108.561 34.9269 105.271 40.6324L104.968 41.1669C103.958 42.9146 103.063 44.7491 102.312 46.6269L102.284 46.6991L102.24 46.7569C101.115 48.1435 100.09 49.6169 99.1953 51.1624L98.9356 51.6246C98.6037 52.2024 98.2862 52.7802 97.9975 53.3435L97.9398 53.4735L97.8244 53.5458C84.5045 61.8513 76.5385 75.328 76.5385 89.5846C76.5385 115.426 100.739 134.911 132.849 134.911C164.958 134.911 189.173 115.426 189.173 89.5991C189.173 75.3569 181.236 61.8946 167.96 53.5891L167.859 53.5169L163.529 45.9913L163.515 45.948C159.647 35.2013 149.574 26.7658 138.448 24.9458C136.673 24.6569 134.912 24.5124 133.137 24.5124Z" fill="url(#paint40_linear_8698_394)"/>
<path d="M132.849 132.947C101.865 132.947 78.4868 114.313 78.4868 89.5988C78.4868 75.7755 86.3085 62.7899 99.4264 54.8599C99.8016 54.0944 100.206 53.3433 100.624 52.621L100.898 52.1444C101.793 50.5844 102.847 49.0966 104.001 47.7099C104.751 45.7888 105.646 43.9255 106.671 42.1488L106.974 41.6144C110.062 36.2555 114.651 32.0233 120.236 29.3799C125.821 26.7366 132.012 25.8699 138.102 26.881C148.636 28.5999 158.118 36.6021 161.711 46.8144L166.387 54.9177C179.418 62.8333 187.196 75.7899 187.196 89.5844C187.211 114.299 163.847 132.947 132.849 132.947ZM133.137 27.4877C128.851 27.4877 124.609 28.441 120.669 30.3044C115.272 32.861 110.827 36.9488 107.84 42.1344L107.537 42.6688C106.526 44.431 105.632 46.2799 104.91 48.1721L104.881 48.2444L104.824 48.3021C103.684 49.6599 102.659 51.1188 101.764 52.6499L101.49 53.1266C101.057 53.8633 100.653 54.6433 100.263 55.4377L100.191 55.5677L100.061 55.6399C93.7261 59.4533 88.4876 64.5666 84.9231 70.4455C81.3586 76.3244 79.4826 82.9399 79.4826 89.5844C79.4826 113.721 102.414 131.921 132.834 131.921C163.255 131.921 186.186 113.721 186.186 89.5844C186.186 76.1077 178.552 63.4544 165.752 55.7121L165.636 55.6399L160.787 47.2188L160.773 47.1755C157.31 37.2955 148.131 29.5244 137.929 27.8633C136.341 27.6177 134.739 27.4877 133.137 27.4877Z" fill="url(#paint41_linear_8698_394)"/>
<path d="M132.849 129.972C103.553 129.972 81.4595 112.609 81.4595 89.5993C81.4595 83.1282 83.3355 76.7149 86.8711 71.0382C90.3779 65.4338 95.5009 60.566 101.721 56.9693C102.183 56.0015 102.673 55.0338 103.207 54.1238L103.481 53.6471C104.376 52.1015 105.43 50.6282 106.598 49.2704C107.32 47.3349 108.215 45.4426 109.254 43.6515L109.557 43.1171C112.342 38.2782 116.484 34.4649 121.52 32.0815C126.557 29.6982 132.127 28.9182 137.625 29.8282C147.251 31.4026 155.837 38.726 159.012 48.0715L164.222 57.0993C176.762 64.4515 184.252 76.5993 184.252 89.5993C184.252 100.75 179.014 111.006 169.504 118.459C160.008 125.869 146.991 129.972 132.849 129.972ZM133.152 30.4637C129.299 30.4637 125.489 31.316 121.953 32.9915C117.104 35.2882 113.121 38.9571 110.437 43.6226L110.134 44.1571C109.109 45.9338 108.229 47.7971 107.522 49.7182L107.493 49.8049L107.435 49.8771C106.281 51.1915 105.256 52.636 104.376 54.1526L104.102 54.6438C103.553 55.5826 103.048 56.5649 102.587 57.5615L102.514 57.706L102.37 57.7926C96.2369 61.3171 91.186 66.0982 87.737 71.6015C84.3024 77.1049 82.4841 83.3304 82.4841 89.6282C82.4841 112.075 104.145 128.989 132.863 128.989C146.775 128.989 159.575 124.974 168.869 117.679C178.133 110.414 183.242 100.447 183.242 89.6138C183.242 76.9315 175.897 65.0871 163.601 57.9082L163.486 57.836L158.089 48.4904L158.074 48.4471C155.029 39.4338 146.746 32.356 137.467 30.8393C136.023 30.5793 134.58 30.4637 133.152 30.4637Z" fill="url(#paint42_linear_8698_394)"/>
<path d="M132.848 126.996C105.256 126.996 84.4321 110.905 84.4321 89.5849C84.4321 83.4749 86.2504 77.4372 89.6706 72.1361C93.0619 66.8927 98.0118 62.3861 104.03 59.0638C104.549 57.8794 105.141 56.7094 105.776 55.5972L106.064 55.1061C106.945 53.5749 107.998 52.1305 109.196 50.8161C109.889 48.8516 110.783 46.9305 111.822 45.1249L112.125 44.5905C114.608 40.2861 118.287 36.8772 122.776 34.7538C127.264 32.6305 132.228 31.9372 137.135 32.7461C145.836 34.1616 153.528 40.8061 156.27 49.2705L162.028 59.2516C174.064 66.0405 181.25 77.3649 181.25 89.5705C181.25 99.8983 176.315 109.403 167.353 116.307C158.435 123.197 146.168 126.996 132.848 126.996ZM133.152 33.4394C129.731 33.4394 126.354 34.1905 123.223 35.6783C118.922 37.7149 115.387 40.9794 113.006 45.0961L112.703 45.6305C111.678 47.4216 110.812 49.2994 110.119 51.2494L110.091 51.3505L110.018 51.4227C108.85 52.7083 107.811 54.1094 106.945 55.6116L106.656 56.1027C106.007 57.2294 105.415 58.4283 104.895 59.6272L104.823 59.7861L104.665 59.8727C98.7334 63.1227 93.8412 67.5572 90.5221 72.6849C87.2029 77.8272 85.4423 83.6627 85.4423 89.5849C85.4423 110.327 105.819 125.971 132.848 125.971C145.952 125.971 157.987 122.258 166.733 115.513C175.449 108.796 180.24 99.5949 180.24 89.5705C180.24 83.7349 178.523 77.9427 175.261 72.8438C172 67.7305 167.209 63.3105 161.408 60.0605L161.292 59.9883L155.347 49.6749L155.332 49.6172C152.706 41.4705 145.331 35.0861 136.976 33.7283C135.691 33.5405 134.421 33.4394 133.152 33.4394Z" fill="url(#paint43_linear_8698_394)"/>
<path d="M132.849 124.02C106.945 124.02 87.4053 109.214 87.4053 89.5844C87.4053 83.8356 89.1659 78.1878 92.485 73.2622C95.7609 68.3945 100.552 64.2345 106.368 61.2011C106.931 59.7856 107.594 58.4133 108.359 57.0989L108.648 56.5933C109.528 55.0622 110.582 53.6467 111.808 52.39C112.487 50.3822 113.352 48.4467 114.406 46.6122L114.709 46.0778C116.888 42.2934 120.121 39.3178 124.06 37.4545C128 35.5911 132.358 34.9845 136.659 35.6922C144.423 36.9634 151.205 42.9 153.557 50.4978L159.893 61.4756C171.423 67.7011 178.292 78.2022 178.292 89.5989C178.292 109.214 158.753 124.02 132.849 124.02ZM133.152 36.4C130.165 36.4 127.221 37.0645 124.493 38.35C120.741 40.1267 117.653 42.9722 115.589 46.5689L115.286 47.1034C114.247 48.9089 113.381 50.8156 112.732 52.7945L112.689 52.91L112.602 52.9967C111.404 54.2245 110.365 55.5967 109.514 57.0845L109.225 57.59C108.46 58.9189 107.782 60.3056 107.219 61.7356L107.147 61.9089L106.974 61.9956C101.245 64.9567 96.5113 69.0445 93.3076 73.8111C90.1039 78.5778 88.401 84.0233 88.401 89.57C88.401 108.622 107.508 122.994 132.834 122.994C158.161 122.994 177.268 108.622 177.268 89.5844C177.268 84.1389 175.623 78.78 172.505 74.0567C169.388 69.3333 164.814 65.26 159.258 62.2845L159.128 62.2122L152.591 50.8878L152.576 50.83C150.354 43.5789 143.889 37.8878 136.471 36.6745C135.389 36.5011 134.263 36.4 133.152 36.4Z" fill="url(#paint44_linear_8698_394)"/>
<path d="M132.849 121.044C108.633 121.044 90.3779 107.524 90.3779 89.5842C90.3779 84.1964 92.0808 78.9386 95.2989 74.3742C98.4738 69.882 103.106 66.0686 108.734 63.3242C109.312 61.6775 110.048 60.0886 110.928 58.5719L111.216 58.0664C112.082 56.5497 113.165 55.1775 114.42 53.9786C115.055 51.9275 115.921 49.9486 116.989 48.0997L117.292 47.5653C119.168 44.3153 121.953 41.7442 125.345 40.1408C128.736 38.5375 132.488 38.0031 136.182 38.6242C143.008 39.7364 148.882 44.9797 150.815 51.6819L157.742 63.6997C168.753 69.362 175.334 79.0253 175.334 89.5842C175.319 107.524 157.064 121.044 132.849 121.044ZM133.152 39.3897C130.612 39.3897 128.086 39.9531 125.749 41.0653C122.545 42.5819 119.918 45.0086 118.143 48.0853L117.84 48.6197C116.787 50.4542 115.935 52.4042 115.329 54.4119L115.286 54.5419L115.185 54.6286C113.958 55.7842 112.919 57.1131 112.068 58.5719L111.779 59.0775C110.899 60.5942 110.163 62.1975 109.6 63.8586L109.528 64.0608L109.34 64.1475C103.784 66.8197 99.2098 70.5608 96.1071 74.9664C93.0044 79.3575 91.3737 84.4131 91.3737 89.5842C91.3737 106.946 109.196 120.033 132.834 120.033C156.472 120.033 174.295 106.946 174.295 89.5842C174.295 84.5575 172.722 79.6175 169.763 75.2842C166.791 70.9508 162.418 67.2242 157.122 64.5375L156.992 64.4653L149.849 52.0719L149.834 52.0142C148.03 45.6586 142.46 40.6753 135.995 39.6208C135.057 39.4619 134.104 39.3897 133.152 39.3897Z" fill="url(#paint45_linear_8698_394)"/>
<path d="M132.849 118.069C110.336 118.069 93.3506 105.82 93.3506 89.5845C93.3506 84.5722 95.0102 79.7044 98.1417 75.5156C101.216 71.3989 105.704 67.9322 111.159 65.4767C111.721 63.5844 112.515 61.7789 113.496 60.06L113.799 59.54C114.651 58.0522 115.733 56.7378 117.018 55.6111C117.595 53.5022 118.446 51.48 119.543 49.5878L119.846 49.0533C121.419 46.3233 123.742 44.1711 126.585 42.8278C129.428 41.4845 132.574 41.0367 135.663 41.5567C138.578 42.0333 141.291 43.3622 143.513 45.3989C145.707 47.4211 147.265 49.9922 148.016 52.8378L155.202 65.3033C155.318 65.52 155.448 65.7367 155.563 65.9533C160.701 68.4378 164.929 71.89 167.83 75.9345C170.773 80.0367 172.318 84.76 172.318 89.5845C172.346 105.82 155.361 118.069 132.849 118.069ZM133.195 42.3656C128.13 42.3656 123.31 45.0811 120.726 49.5589L120.423 50.0933C119.355 51.9567 118.518 53.95 117.97 56.03L117.927 56.1745L117.811 56.2756C116.556 57.3445 115.502 58.6156 114.694 60.0456L114.391 60.5656C113.41 62.27 112.631 64.09 112.082 65.9822L112.01 66.2133L111.794 66.3145C106.411 68.7122 101.966 72.1067 98.9643 76.1367C95.9626 80.1522 94.3752 84.8033 94.3752 89.5989C94.3752 105.257 110.913 117.072 132.863 117.072C154.798 117.072 171.351 105.271 171.351 89.6133C171.351 85.0056 169.864 80.4845 167.05 76.5556C164.222 72.6122 160.066 69.2467 155.015 66.82L154.87 66.7478L154.798 66.6033C154.654 66.3433 154.524 66.0833 154.38 65.8378L147.121 53.2567L147.106 53.1845C145.707 47.7389 141.06 43.4778 135.547 42.5822C134.739 42.4233 133.96 42.3656 133.195 42.3656Z" fill="url(#paint46_linear_8698_394)"/>
<path d="M132.849 115.093C112.025 115.093 96.3237 104.13 96.3237 89.5844C96.3237 84.9333 97.94 80.4699 100.999 76.6422C103.987 72.9155 108.359 69.7955 113.655 67.6288C114.161 65.4911 114.983 63.4399 116.08 61.5477L116.383 61.0133C117.22 59.5544 118.331 58.2977 119.673 57.2866C120.178 55.1055 121.001 53.0111 122.127 51.0611L122.43 50.5266C125.85 44.6044 133.441 42.5533 139.357 45.9766C142.33 47.6955 144.48 50.5988 145.245 53.9499L152.648 66.7911C152.922 67.2677 153.182 67.7588 153.399 68.2211C158.276 70.4311 162.317 73.5366 165.073 77.1766C167.888 80.8888 169.36 85.1788 169.36 89.5844C169.36 96.6477 165.622 103.133 158.839 107.842C152.114 112.522 142.878 115.093 132.849 115.093ZM133.181 45.3411C129.241 45.3411 125.402 47.3922 123.295 51.0466L122.978 51.5811C121.881 53.4877 121.073 55.5533 120.597 57.7055L120.554 57.8933L120.395 58.0088C119.096 58.9622 118.043 60.1466 117.234 61.5333L116.931 62.0677C115.835 63.9599 115.041 65.9966 114.565 68.1344L114.507 68.3944L114.262 68.4955C109.023 70.6044 104.694 73.6522 101.779 77.3066C98.8636 80.9466 97.3339 85.1933 97.3339 89.6133C97.3339 103.581 112.602 114.111 132.849 114.111C142.676 114.111 151.71 111.598 158.276 107.048C164.785 102.527 168.364 96.3444 168.364 89.6133C168.364 85.4244 166.95 81.3511 164.28 77.8122C161.596 74.2588 157.641 71.2399 152.836 69.0877L152.663 69.0155L152.576 68.8422C152.345 68.3511 152.071 67.8311 151.768 67.3111L144.293 54.3399L144.278 54.2677C143.586 51.1622 141.609 48.4611 138.852 46.8722C137.063 45.8322 135.115 45.3411 133.181 45.3411Z" fill="url(#paint47_linear_8698_394)"/>
<path d="M132.849 112.118C113.727 112.118 99.2964 102.44 99.2964 89.5845C99.2964 85.3667 100.898 81.2934 103.943 77.8123C106.887 74.4323 111.144 71.6734 116.239 69.8245C116.628 67.4267 117.436 65.1445 118.634 63.0356L118.937 62.5012C119.745 61.0856 120.914 59.9156 122.314 59.0778C122.718 56.7812 123.512 54.5856 124.681 52.549L124.998 52.0001C127.596 47.4934 133.368 45.9478 137.871 48.5334C140.209 49.8912 141.868 52.1878 142.402 54.8456C142.431 54.9612 142.46 55.0623 142.518 55.1634L150.065 68.2645C150.484 68.9723 150.844 69.7234 151.162 70.4745C155.809 72.4245 159.662 75.1545 162.274 78.4045C164.958 81.7267 166.387 85.5834 166.387 89.5701C166.401 102.426 151.97 112.118 132.849 112.118ZM133.181 48.3167C130.266 48.3167 127.437 49.8334 125.878 52.5345L125.561 53.069C124.421 55.0623 123.656 57.2145 123.281 59.4823L123.238 59.7278L123.021 59.8434C121.679 60.5801 120.568 61.6778 119.817 63.0067L119.514 63.5412C118.317 65.6212 117.537 67.889 117.191 70.2723L117.148 70.5756L116.859 70.6767C111.794 72.4823 107.58 75.1834 104.694 78.4912C101.822 81.7845 100.307 85.6267 100.307 89.5845C100.307 101.848 114.29 111.107 132.849 111.107C151.393 111.107 165.391 101.862 165.391 89.5845C165.391 85.829 164.049 82.189 161.509 79.0545C158.955 75.8912 155.188 73.2334 150.599 71.3556L150.397 71.269L150.31 71.0667C149.993 70.2867 149.618 69.5212 149.185 68.7845L141.623 55.6834C141.507 55.4956 141.435 55.279 141.392 55.0623C140.916 52.6934 139.444 50.6423 137.351 49.429C136.052 48.6778 134.609 48.3167 133.181 48.3167Z" fill="url(#paint48_linear_8698_394)"/>
<path d="M132.849 109.142C115.416 109.142 102.269 100.735 102.269 89.5842C102.269 85.7419 103.871 82.073 106.887 78.9675C109.802 75.9775 113.973 73.5942 118.995 72.0342C119.139 69.4053 119.918 66.8053 121.232 64.523L121.549 63.9741C122.343 62.6019 123.584 61.5764 125.085 61.0853C125.287 58.6153 126.052 56.1886 127.278 54.0508L127.596 53.5019C129.371 50.4108 133.325 49.3564 136.413 51.133C138.015 52.0575 139.141 53.6319 139.516 55.4519C139.602 55.8853 139.761 56.2897 139.978 56.6653L147.539 69.7664C148.088 70.7197 148.55 71.7308 148.896 72.7708C153.341 74.4319 157.006 76.8153 159.517 79.6608C162.1 82.593 163.471 86.0164 163.471 89.5842C163.471 95.0153 160.34 99.9986 154.64 103.61C148.954 107.177 141.233 109.142 132.849 109.142ZM133.166 51.2919C131.29 51.2919 129.457 52.2742 128.447 54.0219L128.13 54.5708C126.917 56.6797 126.196 59.0775 126.037 61.5186L126.008 61.8797L125.662 61.9808C124.276 62.3708 123.108 63.2664 122.386 64.5086L122.069 65.043C120.77 67.2964 120.048 69.853 119.962 72.4386L119.947 72.7997L119.601 72.9008C114.608 74.403 110.451 76.743 107.594 79.6753C104.766 82.5786 103.265 86.0019 103.265 89.5842C103.265 100.157 115.979 108.131 132.834 108.131C141.031 108.131 148.564 106.224 154.033 102.757C159.431 99.3342 162.403 94.6686 162.403 89.5986C162.403 86.2908 161.119 83.0841 158.709 80.3397C156.27 77.5808 152.662 75.2553 148.275 73.6519L148.045 73.5653L147.972 73.3342C147.626 72.2797 147.179 71.2542 146.616 70.2864L139.068 57.1853C138.794 56.7086 138.607 56.203 138.491 55.6686C138.188 54.1375 137.236 52.8086 135.879 52.0286C135.028 51.5375 134.09 51.2919 133.166 51.2919Z" fill="url(#paint49_linear_8698_394)"/>
<path d="M132.848 106.167C117.364 106.167 105.242 98.8866 105.242 89.5844C105.242 82.8533 111.476 77.0322 121.506 74.4177C121.664 74.3744 121.823 74.3455 121.982 74.3311C121.708 71.4566 122.343 68.5244 123.786 66.0255L124.103 65.4766C124.724 64.4077 125.878 63.7433 127.105 63.7289C127.422 63.7289 127.725 63.7722 128.028 63.8589C127.754 60.9844 128.389 58.0666 129.832 55.5389L130.15 54.99C130.77 53.9211 131.925 53.2422 133.166 53.2422C133.353 53.2422 133.541 53.2566 133.729 53.2855C135.143 53.5166 136.297 54.6289 136.572 56.03C136.716 56.7811 136.99 57.4889 137.365 58.1389L144.913 71.24C145.605 72.4389 146.111 73.71 146.414 75.0533C155.202 77.9422 160.441 83.3444 160.441 89.57C160.441 94.12 157.569 98.3233 152.345 101.414C147.222 104.491 140.295 106.167 132.848 106.167ZM122.4 75.3133C122.184 75.3133 121.982 75.3422 121.78 75.4C112.212 77.8989 106.266 83.3444 106.266 89.5989C106.266 98.3233 117.941 105.17 132.863 105.17C140.122 105.17 146.861 103.538 151.854 100.591C156.761 97.6878 159.459 93.7878 159.459 89.6133C159.459 83.7922 154.38 78.6933 145.865 75.9777L145.591 75.8911L145.533 75.6022C145.245 74.2589 144.768 72.9877 144.076 71.7889L136.528 58.6877C136.095 57.9366 135.792 57.1133 135.619 56.2611C135.417 55.2644 134.609 54.47 133.599 54.3111C133.469 54.2966 133.339 54.2822 133.209 54.2822C132.329 54.2822 131.506 54.7589 131.073 55.5244L130.756 56.0733C129.269 58.6444 128.721 61.6777 129.197 64.61L129.371 65.6789L128.447 65.13C128.057 64.8989 127.624 64.7833 127.177 64.7833C126.297 64.7833 125.489 65.26 125.041 66.0255L124.724 66.5744C123.309 69.0444 122.732 71.9622 123.107 74.7933L123.18 75.3711H122.4V75.3133Z" fill="url(#paint50_linear_8698_394)"/>
<path d="M132.964 103.191C126.441 103.191 120.293 101.805 115.661 99.2912C110.928 96.7201 108.33 93.2823 108.33 89.5845C108.33 86.9123 109.701 84.3412 112.313 82.1456C114.795 80.0512 118.273 78.3756 122.372 77.2923L123.035 77.1189L123.007 77.7978C122.92 79.69 123.382 81.5678 124.334 83.2145L131.896 96.3156C132.271 96.9801 132.589 97.6734 132.82 98.3956C134.292 95.4201 134.205 91.8667 132.531 88.9634L126.47 78.4478C124.536 75.0678 124.536 70.8645 126.484 67.4989L127.466 65.7945L127.725 67.1089C127.942 68.1634 128.317 69.1889 128.866 70.1278L137.928 85.8434C138.303 86.5078 138.621 87.2012 138.852 87.9234C140.338 84.9478 140.237 81.3801 138.563 78.4767L132.517 68.0045C130.568 64.6245 130.568 60.4067 132.517 57.0267L133.498 55.3223L133.758 56.6367C133.974 57.6912 134.349 58.7167 134.898 59.6556L142.46 72.7567C143.282 74.1723 143.773 75.7756 143.888 77.3934C147.842 78.4767 151.19 80.1089 153.6 82.1456C156.198 84.3556 157.583 86.9267 157.569 89.5989C157.569 93.2967 154.971 96.7345 150.238 99.3056C145.634 101.805 139.487 103.191 132.964 103.191ZM121.996 78.4478C114.29 80.6289 109.34 84.9623 109.34 89.5845C109.34 96.5323 119.933 102.18 132.964 102.18C145.995 102.18 156.588 96.5323 156.588 89.5845C156.588 87.2301 155.332 84.9189 152.965 82.9112C150.599 80.9034 147.265 79.3001 143.297 78.2745L142.936 78.1734L142.921 77.7978C142.849 76.2089 142.402 74.6345 141.594 73.2478L134.032 60.1467C133.657 59.4823 133.339 58.7889 133.108 58.0667C131.636 61.0423 131.723 64.5956 133.397 67.4989L139.444 77.9712C141.392 81.3656 141.392 85.5689 139.444 88.9489L138.448 90.6534L138.188 89.3534C137.972 88.2845 137.596 87.2734 137.048 86.3345L128 70.6334C127.624 69.9689 127.307 69.2756 127.076 68.5534C125.604 71.5145 125.691 75.0678 127.35 77.9567L133.411 88.4578C135.36 91.8523 135.36 96.0556 133.411 99.4356L132.43 101.14L132.17 99.8256C131.954 98.7567 131.579 97.7456 131.03 96.8067L123.468 83.7056C122.53 82.1167 122.025 80.2967 121.996 78.4478Z" fill="url(#paint51_linear_8698_394)"/>
<g opacity="0.67">
<path opacity="0.67" d="M132.964 103.191C126.441 103.191 120.293 101.805 115.661 99.2912C110.928 96.7201 108.33 93.2823 108.33 89.5845C108.33 86.9123 109.701 84.3412 112.313 82.1456C114.795 80.0512 118.273 78.3756 122.372 77.2923L123.035 77.1189L123.007 77.7978C122.92 79.69 123.382 81.5678 124.334 83.2145L131.896 96.3156C132.271 96.9801 132.589 97.6734 132.82 98.3956C134.292 95.4201 134.205 91.8667 132.531 88.9634L126.47 78.4478C124.536 75.0678 124.536 70.8645 126.484 67.4989L127.466 65.7945L127.725 67.1089C127.942 68.1634 128.317 69.1889 128.866 70.1278L137.928 85.8434C138.303 86.5078 138.621 87.2012 138.852 87.9234C140.338 84.9478 140.237 81.3801 138.563 78.4767L132.517 68.0045C130.568 64.6245 130.568 60.4067 132.517 57.0267L133.498 55.3223L133.758 56.6367C133.974 57.6912 134.349 58.7167 134.898 59.6556L142.46 72.7567C143.282 74.1723 143.773 75.7756 143.888 77.3934C147.842 78.4767 151.19 80.1089 153.6 82.1456C156.198 84.3556 157.583 86.9267 157.569 89.5989C157.569 93.2967 154.971 96.7345 150.238 99.3056C145.634 101.805 139.487 103.191 132.964 103.191ZM121.996 78.4478C114.29 80.6289 109.34 84.9623 109.34 89.5845C109.34 96.5323 119.933 102.18 132.964 102.18C145.995 102.18 156.588 96.5323 156.588 89.5845C156.588 87.2301 155.332 84.9189 152.965 82.9112C150.599 80.9034 147.265 79.3001 143.297 78.2745L142.936 78.1734L142.921 77.7978C142.849 76.2089 142.402 74.6345 141.594 73.2478L134.032 60.1467C133.657 59.4823 133.339 58.7889 133.108 58.0667C131.636 61.0423 131.723 64.5956 133.397 67.4989L139.444 77.9712C141.392 81.3656 141.392 85.5689 139.444 88.9489L138.448 90.6534L138.188 89.3534C137.972 88.2845 137.596 87.2734 137.048 86.3345L128 70.6334C127.624 69.9689 127.307 69.2756 127.076 68.5534C125.604 71.5145 125.691 75.0678 127.35 77.9567L133.411 88.4578C135.36 91.8523 135.36 96.0556 133.411 99.4356L132.43 101.14L132.17 99.8256C131.954 98.7567 131.579 97.7456 131.03 96.8067L123.468 83.7056C122.53 82.1167 122.025 80.2967 121.996 78.4478Z" fill="#8FC63F"/>
</g>
<path d="M267.39 116.494H133.7V136.211L-0.956542 136.254V158.022C-0.956542 158.022 -0.985405 169 10.0255 169H256.393C256.393 169 267.347 168.913 267.347 158.022C267.347 147.131 267.39 116.494 267.39 116.494Z" fill="url(#paint52_linear_8698_394)"/>
</g>
<path d="M236.027 130H225V149.818H236.027V130Z" fill="#FF5F00"/>
<path d="M225.576 139.604C225.574 137.696 226.007 135.811 226.841 134.094C227.675 132.377 228.888 130.872 230.39 129.694C228.531 128.233 226.298 127.324 223.947 127.072C221.596 126.82 219.221 127.234 217.094 128.268C214.967 129.301 213.174 130.912 211.92 132.917C210.665 134.921 210 137.238 210 139.603C210 141.967 210.665 144.284 211.92 146.289C213.174 148.293 214.967 149.904 217.094 150.938C219.221 151.971 221.596 152.386 223.947 152.133C226.298 151.881 228.531 150.973 230.39 149.511C228.889 148.333 227.675 146.829 226.841 145.113C226.007 143.396 225.575 141.513 225.576 139.604Z" fill="#EB001B"/>
<path d="M250.392 139.606C250.392 141.971 249.726 144.288 248.472 146.292C247.217 148.297 245.423 149.908 243.296 150.941C241.169 151.975 238.794 152.389 236.443 152.136C234.092 151.884 231.859 150.975 230 149.513C231.501 148.334 232.714 146.829 233.548 145.113C234.382 143.396 234.815 141.513 234.815 139.604C234.815 137.696 234.382 135.812 233.548 134.096C232.714 132.379 231.501 130.875 230 129.695C231.859 128.234 234.092 127.325 236.443 127.072C238.794 126.82 241.169 127.234 243.296 128.267C245.423 129.3 247.217 130.911 248.472 132.916C249.726 134.92 250.392 137.238 250.392 139.602V139.606Z" fill="#F79E1B"/>
<path d="M249.252 147.49V147.084H249.417V147H249V147.084H249.179V147.49H249.252ZM250.061 147.49V147H249.935L249.788 147.35L249.641 147H249.529V147.49H249.62V147.123L249.756 147.441H249.851L249.987 147.123V147.494L250.061 147.49Z" fill="#F79E1B"/>
</g>
<defs>
<linearGradient id="paint0_linear_8698_394" x1="132.863" y1="254.439" x2="132.863" y2="-95.0096" gradientUnits="userSpaceOnUse">
<stop stop-color="#2DB24A"/>
<stop offset="0.25" stop-color="#D31F32"/>
<stop offset="0.65" stop-color="#47489C"/>
<stop offset="1" stop-color="#EDE710"/>
</linearGradient>
<linearGradient id="paint1_linear_8698_394" x1="132.863" y1="251.625" x2="132.863" y2="-92.2036" gradientUnits="userSpaceOnUse">
<stop stop-color="#2DB24A"/>
<stop offset="0.25" stop-color="#D31F32"/>
<stop offset="0.65" stop-color="#47489C"/>
<stop offset="1" stop-color="#EDE710"/>
</linearGradient>
<linearGradient id="paint2_linear_8698_394" x1="132.861" y1="248.819" x2="132.861" y2="-89.395" gradientUnits="userSpaceOnUse">
<stop stop-color="#2DB24A"/>
<stop offset="0.25" stop-color="#D31F32"/>
<stop offset="0.65" stop-color="#47489C"/>
<stop offset="1" stop-color="#EDE710"/>
</linearGradient>
<linearGradient id="paint3_linear_8698_394" x1="132.863" y1="246.01" x2="132.863" y2="-86.5946" gradientUnits="userSpaceOnUse">
<stop stop-color="#2DB24A"/>
<stop offset="0.25" stop-color="#D31F32"/>
<stop offset="0.65" stop-color="#47489C"/>
<stop offset="1" stop-color="#EDE710"/>
</linearGradient>
<linearGradient id="paint4_linear_8698_394" x1="132.86" y1="243.028" x2="132.86" y2="-83.6059" gradientUnits="userSpaceOnUse">
<stop stop-color="#2DB24A"/>
<stop offset="0.25" stop-color="#D31F32"/>
<stop offset="0.65" stop-color="#47489C"/>
<stop offset="1" stop-color="#EDE710"/>
</linearGradient>
<linearGradient id="paint5_linear_8698_394" x1="132.863" y1="240.059" x2="132.863" y2="-80.6364" gradientUnits="userSpaceOnUse">
<stop stop-color="#2DB24A"/>
<stop offset="0.25" stop-color="#D31F32"/>
<stop offset="0.65" stop-color="#47489C"/>
<stop offset="1" stop-color="#EDE710"/>
</linearGradient>
<linearGradient id="paint6_linear_8698_394" x1="132.865" y1="237.084" x2="132.865" y2="-77.6577" gradientUnits="userSpaceOnUse">
<stop stop-color="#2DB24A"/>
<stop offset="0.25" stop-color="#D31F32"/>
<stop offset="0.65" stop-color="#47489C"/>
<stop offset="1" stop-color="#EDE710"/>
</linearGradient>
<linearGradient id="paint7_linear_8698_394" x1="132.864" y1="234.107" x2="132.864" y2="-74.6866" gradientUnits="userSpaceOnUse">
<stop stop-color="#2DB24A"/>
<stop offset="0.25" stop-color="#D31F32"/>
<stop offset="0.65" stop-color="#47489C"/>
<stop offset="1" stop-color="#EDE710"/>
</linearGradient>
<linearGradient id="paint8_linear_8698_394" x1="132.863" y1="231.133" x2="132.863" y2="-71.7166" gradientUnits="userSpaceOnUse">
<stop stop-color="#2DB24A"/>
<stop offset="0.25" stop-color="#D31F32"/>
<stop offset="0.65" stop-color="#47489C"/>
<stop offset="1" stop-color="#EDE710"/>
</linearGradient>
<linearGradient id="paint9_linear_8698_394" x1="132.861" y1="228.15" x2="132.861" y2="-68.7354" gradientUnits="userSpaceOnUse">
<stop stop-color="#2DB24A"/>
<stop offset="0.25" stop-color="#D31F32"/>
<stop offset="0.65" stop-color="#47489C"/>
<stop offset="1" stop-color="#EDE710"/>
</linearGradient>
<linearGradient id="paint10_linear_8698_394" x1="132.862" y1="225.18" x2="132.862" y2="-65.7598" gradientUnits="userSpaceOnUse">
<stop stop-color="#2DB24A"/>
<stop offset="0.25" stop-color="#D31F32"/>
<stop offset="0.65" stop-color="#47489C"/>
<stop offset="1" stop-color="#EDE710"/>
</linearGradient>
<linearGradient id="paint11_linear_8698_394" x1="132.864" y1="222.205" x2="132.864" y2="-62.784" gradientUnits="userSpaceOnUse">
<stop stop-color="#2DB24A"/>
<stop offset="0.25" stop-color="#D31F32"/>
<stop offset="0.65" stop-color="#47489C"/>
<stop offset="1" stop-color="#EDE710"/>
</linearGradient>
<linearGradient id="paint12_linear_8698_394" x1="132.86" y1="219.229" x2="132.86" y2="-59.8101" gradientUnits="userSpaceOnUse">
<stop stop-color="#2DB24A"/>
<stop offset="0.25" stop-color="#D31F32"/>
<stop offset="0.65" stop-color="#47489C"/>
<stop offset="1" stop-color="#EDE710"/>
</linearGradient>
<linearGradient id="paint13_linear_8698_394" x1="132.86" y1="216.254" x2="132.86" y2="-56.8389" gradientUnits="userSpaceOnUse">
<stop stop-color="#2DB24A"/>
<stop offset="0.25" stop-color="#D31F32"/>
<stop offset="0.65" stop-color="#47489C"/>
<stop offset="1" stop-color="#EDE710"/>
</linearGradient>
<linearGradient id="paint14_linear_8698_394" x1="132.861" y1="213.272" x2="132.861" y2="-53.8589" gradientUnits="userSpaceOnUse">
<stop stop-color="#2DB24A"/>
<stop offset="0.25" stop-color="#D31F32"/>
<stop offset="0.65" stop-color="#47489C"/>
<stop offset="1" stop-color="#EDE710"/>
</linearGradient>
<linearGradient id="paint15_linear_8698_394" x1="132.864" y1="210.301" x2="132.864" y2="-50.8819" gradientUnits="userSpaceOnUse">
<stop stop-color="#2DB24A"/>
<stop offset="0.25" stop-color="#D31F32"/>
<stop offset="0.65" stop-color="#47489C"/>
<stop offset="1" stop-color="#EDE710"/>
</linearGradient>
<linearGradient id="paint16_linear_8698_394" x1="132.864" y1="207.325" x2="132.864" y2="-47.9078" gradientUnits="userSpaceOnUse">
<stop stop-color="#2DB24A"/>
<stop offset="0.25" stop-color="#D31F32"/>
<stop offset="0.65" stop-color="#47489C"/>
<stop offset="1" stop-color="#EDE710"/>
</linearGradient>
<linearGradient id="paint17_linear_8698_394" x1="132.859" y1="204.35" x2="132.859" y2="-44.9262" gradientUnits="userSpaceOnUse">
<stop stop-color="#2DB24A"/>
<stop offset="0.25" stop-color="#D31F32"/>
<stop offset="0.65" stop-color="#47489C"/>
<stop offset="1" stop-color="#EDE710"/>
</linearGradient>
<linearGradient id="paint18_linear_8698_394" x1="132.859" y1="201.374" x2="132.859" y2="-41.961" gradientUnits="userSpaceOnUse">
<stop stop-color="#2DB24A"/>
<stop offset="0.25" stop-color="#D31F32"/>
<stop offset="0.65" stop-color="#47489C"/>
<stop offset="1" stop-color="#EDE710"/>
</linearGradient>
<linearGradient id="paint19_linear_8698_394" x1="132.859" y1="198.395" x2="132.859" y2="-38.9823" gradientUnits="userSpaceOnUse">
<stop stop-color="#2DB24A"/>
<stop offset="0.25" stop-color="#D31F32"/>
<stop offset="0.65" stop-color="#47489C"/>
<stop offset="1" stop-color="#EDE710"/>
</linearGradient>
<linearGradient id="paint20_linear_8698_394" x1="132.856" y1="195.424" x2="132.856" y2="-36.004" gradientUnits="userSpaceOnUse">
<stop stop-color="#2DB24A"/>
<stop offset="0.25" stop-color="#D31F32"/>
<stop offset="0.65" stop-color="#47489C"/>
<stop offset="1" stop-color="#EDE710"/>
</linearGradient>
<linearGradient id="paint21_linear_8698_394" x1="132.859" y1="192.448" x2="132.859" y2="-33.0253" gradientUnits="userSpaceOnUse">
<stop stop-color="#2DB24A"/>
<stop offset="0.25" stop-color="#D31F32"/>
<stop offset="0.65" stop-color="#47489C"/>
<stop offset="1" stop-color="#EDE710"/>
</linearGradient>
<linearGradient id="paint22_linear_8698_394" x1="132.859" y1="189.474" x2="132.859" y2="-30.0557" gradientUnits="userSpaceOnUse">
<stop stop-color="#2DB24A"/>
<stop offset="0.25" stop-color="#D31F32"/>
<stop offset="0.65" stop-color="#47489C"/>
<stop offset="1" stop-color="#EDE710"/>
</linearGradient>
<linearGradient id="paint23_linear_8698_394" x1="132.858" y1="186.498" x2="132.858" y2="-27.083" gradientUnits="userSpaceOnUse">
<stop stop-color="#2DB24A"/>
<stop offset="0.25" stop-color="#D31F32"/>
<stop offset="0.65" stop-color="#47489C"/>
<stop offset="1" stop-color="#EDE710"/>
</linearGradient>
<linearGradient id="paint24_linear_8698_394" x1="132.859" y1="183.517" x2="132.859" y2="-24.1076" gradientUnits="userSpaceOnUse">
<stop stop-color="#2DB24A"/>
<stop offset="0.25" stop-color="#D31F32"/>
<stop offset="0.65" stop-color="#47489C"/>
<stop offset="1" stop-color="#EDE710"/>
</linearGradient>
<linearGradient id="paint25_linear_8698_394" x1="132.861" y1="180.547" x2="132.861" y2="-21.1304" gradientUnits="userSpaceOnUse">
<stop stop-color="#2DB24A"/>
<stop offset="0.25" stop-color="#D31F32"/>
<stop offset="0.65" stop-color="#47489C"/>
<stop offset="1" stop-color="#EDE710"/>
</linearGradient>
<linearGradient id="paint26_linear_8698_394" x1="132.855" y1="177.572" x2="132.855" y2="-18.1637" gradientUnits="userSpaceOnUse">
<stop stop-color="#2DB24A"/>
<stop offset="0.25" stop-color="#D31F32"/>
<stop offset="0.65" stop-color="#47489C"/>
<stop offset="1" stop-color="#EDE710"/>
</linearGradient>
<linearGradient id="paint27_linear_8698_394" x1="132.857" y1="174.596" x2="132.857" y2="-15.1792" gradientUnits="userSpaceOnUse">
<stop stop-color="#2DB24A"/>
<stop offset="0.25" stop-color="#D31F32"/>
<stop offset="0.65" stop-color="#47489C"/>
<stop offset="1" stop-color="#EDE710"/>
</linearGradient>
<linearGradient id="paint28_linear_8698_394" x1="132.857" y1="171.621" x2="132.857" y2="-12.2059" gradientUnits="userSpaceOnUse">
<stop stop-color="#2DB24A"/>
<stop offset="0.25" stop-color="#D31F32"/>
<stop offset="0.65" stop-color="#47489C"/>
<stop offset="1" stop-color="#EDE710"/>
</linearGradient>
<linearGradient id="paint29_linear_8698_394" x1="132.856" y1="168.639" x2="132.856" y2="-9.23839" gradientUnits="userSpaceOnUse">
<stop stop-color="#2DB24A"/>
<stop offset="0.25" stop-color="#D31F32"/>
<stop offset="0.65" stop-color="#47489C"/>
<stop offset="1" stop-color="#EDE710"/>
</linearGradient>
<linearGradient id="paint30_linear_8698_394" x1="132.86" y1="165.671" x2="132.86" y2="-6.25391" gradientUnits="userSpaceOnUse">
<stop stop-color="#2DB24A"/>
<stop offset="0.25" stop-color="#D31F32"/>
<stop offset="0.65" stop-color="#47489C"/>
<stop offset="1" stop-color="#EDE710"/>
</linearGradient>
<linearGradient id="paint31_linear_8698_394" x1="132.856" y1="162.695" x2="132.856" y2="-3.27908" gradientUnits="userSpaceOnUse">
<stop stop-color="#2DB24A"/>
<stop offset="0.25" stop-color="#D31F32"/>
<stop offset="0.65" stop-color="#47489C"/>
<stop offset="1" stop-color="#EDE710"/>
</linearGradient>
<linearGradient id="paint32_linear_8698_394" x1="132.859" y1="159.719" x2="132.859" y2="-0.311241" gradientUnits="userSpaceOnUse">
<stop stop-color="#2DB24A"/>
<stop offset="0.25" stop-color="#D31F32"/>
<stop offset="0.65" stop-color="#47489C"/>
<stop offset="1" stop-color="#EDE710"/>
</linearGradient>
<linearGradient id="paint33_linear_8698_394" x1="132.853" y1="156.744" x2="132.853" y2="2.66709" gradientUnits="userSpaceOnUse">
<stop stop-color="#2DB24A"/>
<stop offset="0.25" stop-color="#D31F32"/>
<stop offset="0.65" stop-color="#47489C"/>
<stop offset="1" stop-color="#EDE710"/>
</linearGradient>
<linearGradient id="paint34_linear_8698_394" x1="132.855" y1="153.77" x2="132.855" y2="5.63856" gradientUnits="userSpaceOnUse">
<stop stop-color="#2DB24A"/>
<stop offset="0.25" stop-color="#D31F32"/>
<stop offset="0.65" stop-color="#47489C"/>
<stop offset="1" stop-color="#EDE710"/>
</linearGradient>
<linearGradient id="paint35_linear_8698_394" x1="132.858" y1="150.794" x2="132.858" y2="8.61728" gradientUnits="userSpaceOnUse">
<stop stop-color="#2DB24A"/>
<stop offset="0.25" stop-color="#D31F32"/>
<stop offset="0.65" stop-color="#47489C"/>
<stop offset="1" stop-color="#EDE710"/>
</linearGradient>
<linearGradient id="paint36_linear_8698_394" x1="132.854" y1="147.819" x2="132.854" y2="11.5915" gradientUnits="userSpaceOnUse">
<stop stop-color="#2DB24A"/>
<stop offset="0.25" stop-color="#D31F32"/>
<stop offset="0.65" stop-color="#47489C"/>
<stop offset="1" stop-color="#EDE710"/>
</linearGradient>
<linearGradient id="paint37_linear_8698_394" x1="132.856" y1="144.843" x2="132.856" y2="14.5671" gradientUnits="userSpaceOnUse">
<stop stop-color="#2DB24A"/>
<stop offset="0.25" stop-color="#D31F32"/>
<stop offset="0.65" stop-color="#47489C"/>
<stop offset="1" stop-color="#EDE710"/>
</linearGradient>
<linearGradient id="paint38_linear_8698_394" x1="132.847" y1="141.868" x2="132.847" y2="17.544" gradientUnits="userSpaceOnUse">
<stop stop-color="#2DB24A"/>
<stop offset="0.25" stop-color="#D31F32"/>
<stop offset="0.65" stop-color="#47489C"/>
<stop offset="1" stop-color="#EDE710"/>
</linearGradient>
<linearGradient id="paint39_linear_8698_394" x1="132.854" y1="138.892" x2="132.854" y2="20.5202" gradientUnits="userSpaceOnUse">
<stop stop-color="#2DB24A"/>
<stop offset="0.25" stop-color="#D31F32"/>
<stop offset="0.65" stop-color="#47489C"/>
<stop offset="1" stop-color="#EDE710"/>
</linearGradient>
<linearGradient id="paint40_linear_8698_394" x1="132.854" y1="135.918" x2="132.854" y2="23.4945" gradientUnits="userSpaceOnUse">
<stop stop-color="#2DB24A"/>
<stop offset="0.25" stop-color="#D31F32"/>
<stop offset="0.65" stop-color="#47489C"/>
<stop offset="1" stop-color="#EDE710"/>
</linearGradient>
<linearGradient id="paint41_linear_8698_394" x1="132.853" y1="132.942" x2="132.853" y2="26.4698" gradientUnits="userSpaceOnUse">
<stop stop-color="#2DB24A"/>
<stop offset="0.25" stop-color="#D31F32"/>
<stop offset="0.65" stop-color="#47489C"/>
<stop offset="1" stop-color="#EDE710"/>
</linearGradient>
<linearGradient id="paint42_linear_8698_394" x1="132.852" y1="129.967" x2="132.852" y2="29.4466" gradientUnits="userSpaceOnUse">
<stop stop-color="#2DB24A"/>
<stop offset="0.25" stop-color="#D31F32"/>
<stop offset="0.65" stop-color="#47489C"/>
<stop offset="1" stop-color="#EDE710"/>
</linearGradient>
<linearGradient id="paint43_linear_8698_394" x1="132.848" y1="126.992" x2="132.848" y2="32.422" gradientUnits="userSpaceOnUse">
<stop stop-color="#2DB24A"/>
<stop offset="0.25" stop-color="#D31F32"/>
<stop offset="0.65" stop-color="#47489C"/>
<stop offset="1" stop-color="#EDE710"/>
</linearGradient>
<linearGradient id="paint44_linear_8698_394" x1="132.853" y1="124.016" x2="132.853" y2="35.3941" gradientUnits="userSpaceOnUse">
<stop stop-color="#2DB24A"/>
<stop offset="0.25" stop-color="#D31F32"/>
<stop offset="0.65" stop-color="#47489C"/>
<stop offset="1" stop-color="#EDE710"/>
</linearGradient>
<linearGradient id="paint45_linear_8698_394" x1="132.856" y1="121.04" x2="132.856" y2="38.3723" gradientUnits="userSpaceOnUse">
<stop stop-color="#2DB24A"/>
<stop offset="0.25" stop-color="#D31F32"/>
<stop offset="0.65" stop-color="#47489C"/>
<stop offset="1" stop-color="#EDE710"/>
</linearGradient>
<linearGradient id="paint46_linear_8698_394" x1="132.853" y1="118.066" x2="132.853" y2="41.3479" gradientUnits="userSpaceOnUse">
<stop stop-color="#2DB24A"/>
<stop offset="0.25" stop-color="#D31F32"/>
<stop offset="0.65" stop-color="#47489C"/>
<stop offset="1" stop-color="#EDE710"/>
</linearGradient>
<linearGradient id="paint47_linear_8698_394" x1="132.85" y1="115.09" x2="132.85" y2="44.3294" gradientUnits="userSpaceOnUse">
<stop stop-color="#2DB24A"/>
<stop offset="0.25" stop-color="#D31F32"/>
<stop offset="0.65" stop-color="#47489C"/>
<stop offset="1" stop-color="#EDE710"/>
</linearGradient>
<linearGradient id="paint48_linear_8698_394" x1="132.854" y1="112.115" x2="132.854" y2="47.3037" gradientUnits="userSpaceOnUse">
<stop stop-color="#2DB24A"/>
<stop offset="0.25" stop-color="#D31F32"/>
<stop offset="0.65" stop-color="#47489C"/>
<stop offset="1" stop-color="#EDE710"/>
</linearGradient>
<linearGradient id="paint49_linear_8698_394" x1="132.849" y1="109.139" x2="132.849" y2="50.285" gradientUnits="userSpaceOnUse">
<stop stop-color="#2DB24A"/>
<stop offset="0.25" stop-color="#D31F32"/>
<stop offset="0.65" stop-color="#47489C"/>
<stop offset="1" stop-color="#EDE710"/>
</linearGradient>
<linearGradient id="paint50_linear_8698_394" x1="132.85" y1="106.164" x2="132.85" y2="53.2523" gradientUnits="userSpaceOnUse">
<stop stop-color="#2DB24A"/>
<stop offset="0.25" stop-color="#D31F32"/>
<stop offset="0.65" stop-color="#47489C"/>
<stop offset="1" stop-color="#EDE710"/>
</linearGradient>
<linearGradient id="paint51_linear_8698_394" x1="132.96" y1="103.191" x2="132.96" y2="55.3251" gradientUnits="userSpaceOnUse">
<stop stop-color="#2DB24A"/>
<stop offset="0.25" stop-color="#D31F32"/>
<stop offset="0.65" stop-color="#47489C"/>
<stop offset="1" stop-color="#EDE710"/>
</linearGradient>
<linearGradient id="paint52_linear_8698_394" x1="133.217" y1="116.5" x2="133.217" y2="169" gradientUnits="userSpaceOnUse">
<stop stop-color="#47C6EF" stop-opacity="0"/>
<stop offset="1" stop-color="white"/>
</linearGradient>
<clipPath id="clip0_8698_394">
<rect width="268" height="169" fill="white" transform="translate(-1)"/>
</clipPath>
</defs>
</svg>
