<svg xmlns="http://www.w3.org/2000/svg" width="151" height="241" fill="none"><g clip-path="url(#a)"><rect width="151" height="241" fill="#fff" rx="10"/><path fill="#047DBC" d="M141.9-1.2H8.7c-5.5 0-9.9 4.4-9.9 9.9v223.9c0 5.5 4.4 9.9 9.9 9.9h133.2c5.5 0 9.9-4.4 9.9-9.9V8.7c0-5.5-4.4-9.9-9.9-9.9Z"/><path stroke="url(#b)" stroke-miterlimit="10" d="M75.1 253.9c-90.9 0-159.4-64.2-159.4-149.3 0-37.4 16.3-76 43.5-103.3 25-39.5 69.5-64 116.2-64 7.5 0 15.1.6 22.5 1.8 35.8 5.8 73.6 31.2 94.1 63.1 26.6 27.2 42.5 65.5 42.5 102.3 0 85.2-68.5 149.4-159.4 149.4Z"/><path stroke="url(#c)" stroke-miterlimit="10" d="M75.1 251.3c-89.4 0-156.8-63.1-156.8-146.8 0-36.8 16-74.8 42.9-101.7 24.6-38.9 68.3-63 114.2-63 7.4 0 14.8.6 22.1 1.8 35.2 5.8 72.4 30.7 92.5 62.2 26.3 26.8 42 64.4 42 100.7 0 83.7-67.4 146.8-156.9 146.8Z"/><path stroke="url(#d)" stroke-miterlimit="10" d="M75.1 248.8c-88 0-154.3-62-154.3-144.2 0-36.3 15.8-73.7 42.4-100.1 24.1-38.3 67-62.1 112.2-62.1 7.3 0 14.6.6 21.7 1.8 34.7 5.7 71.2 30.3 90.9 61.3 26 26.3 41.5 63.4 41.5 99.1-.1 82.2-66.4 144.2-154.4 144.2Z"/><path stroke="url(#e)" stroke-miterlimit="10" d="M75.1 246.2c-86.5 0-151.7-60.9-151.7-141.7C-76.6 68.8-61 32-34.7 6-11.2-31.7 31-55.1 75.4-55.1c7.1 0 14.3.6 21.2 1.7 34.1 5.6 70 29.8 89.3 60.4 25.6 25.9 40.9 62.3 40.9 97.5.1 80.8-65.1 141.7-151.7 141.7Z"/><path stroke="url(#f)" stroke-miterlimit="10" d="M75.1 243.5c-85 0-149-59.8-149-139 0-35.1 15.4-71.3 41.3-96.8 23.1-37.1 64.4-60.2 108-60.2 7 0 14 .6 20.8 1.7 33.5 5.5 68.7 29.3 87.6 59.4 25.3 25.4 40.3 61.2 40.3 95.8.1 79.4-64 139.1-149 139.1Z"/><path stroke="url(#g)" stroke-miterlimit="10" d="M75.1 240.8c-83.4 0-146.3-58.6-146.3-136.3 0-34.5 15.2-70 40.7-95C-7.9-27 32.6-49.7 75.4-49.7c6.8 0 13.7.6 20.4 1.7 32.9 5.4 67.4 28.8 85.9 58.4 24.9 24.9 39.8 60.1 39.8 94.1 0 77.7-62.9 136.3-146.4 136.3Z"/><path stroke="url(#h)" stroke-miterlimit="10" d="M75.1 238.1c-81.9 0-143.6-57.4-143.6-133.6 0-34 15-68.9 40.1-93.4C-6.3-24.7 33.4-47 75.4-47c6.7 0 13.4.5 19.9 1.6 32.4 5.3 66.2 28.4 84.3 57.5 24.5 24.4 39.2 59 39.2 92.4 0 76.2-61.8 133.6-143.7 133.6Z"/><path stroke="url(#i)" stroke-miterlimit="10" d="M75.1 235.4c-80.3 0-140.9-56.3-140.9-130.9 0-33.4 14.8-67.6 39.6-91.7C-4.7-22.4 34.2-44.3 75.4-44.3c6.5 0 13.1.5 19.5 1.6 31.8 5.2 64.9 27.9 82.6 56.5 24.2 24 38.6 57.9 38.6 90.8 0 74.5-60.6 130.8-141 130.8Z"/><path stroke="url(#j)" stroke-miterlimit="10" d="M75.1 232.7c-78.8 0-138.2-55.1-138.2-128.2 0-32.8 14.6-66.4 39-90 21-34.6 59.1-56.1 99.5-56.1 6.4 0 12.8.5 19 1.6 31.2 5.1 63.6 27.4 80.9 55.5 23.8 23.5 38 56.7 38 89.1.1 73-59.4 128.1-138.2 128.1Z"/><path stroke="url(#k)" stroke-miterlimit="10" d="M75.1 230c-77.3 0-135.5-53.9-135.5-125.5 0-32.2 14.4-65.2 38.4-88.2 20.5-34 57.7-55.1 97.4-55.1 6.2 0 12.5.5 18.6 1.5 30.6 5 62.4 26.9 79.2 54.5 23.5 23 37.5 55.6 37.5 87.4 0 71.5-58.3 125.4-135.6 125.4Z"/><path stroke="url(#l)" stroke-miterlimit="10" d="M75.1 227.3c-75.7 0-132.8-52.8-132.8-122.8 0-31.6 14.1-64 37.8-86.6 20-33.3 56.5-54.1 95.3-54.1 6.1 0 12.2.5 18.1 1.5 30 4.9 61.1 26.4 77.5 53.6 23.1 22.5 36.9 54.5 36.9 85.7.1 69.9-57 122.7-132.8 122.7Z"/><path stroke="url(#m)" stroke-miterlimit="10" d="M75.1 224.6C1 224.6-55 173-55 104.5c0-31 14-62.7 37.3-84.8C1.7-13.1 37.4-33.5 75.4-33.5c5.9 0 11.9.5 17.7 1.5 29.4 4.8 59.8 25.9 75.8 52.6 22.8 22 36.3 53.4 36.3 84 .1 68.4-55.9 120-130.1 120Z"/><path stroke="url(#n)" stroke-miterlimit="10" d="M75.1 221.9c-72.6 0-127.4-50.5-127.4-117.4 0-30.5 13.7-61.5 36.7-83.2 18.9-32.2 53.7-52.1 91-52.1 5.8 0 11.6.5 17.3 1.4 28.8 4.7 58.6 25.4 74.1 51.6 22.4 21.6 35.8 52.3 35.8 82.3 0 66.9-54.8 117.4-127.5 117.4Z"/><path stroke="url(#o)" stroke-miterlimit="10" d="M75.1 219.2C4 219.2-49.6 169.9-49.6 104.5c0-29.9 13.5-60.3 36.1-81.5C4.9-8.5 39-28.1 75.4-28.1c5.6 0 11.3.5 16.8 1.4 28.3 4.6 57.3 24.9 72.4 50.6 22 21.1 35.2 51.2 35.2 80.6.1 65.4-53.6 114.7-124.7 114.7Z"/><path stroke="url(#p)" stroke-miterlimit="10" d="M75.1 216.5c-69.5 0-122-48.1-122-111.9 0-29.3 13.3-59.1 35.6-79.8 17.9-31 51.1-50.2 86.7-50.2 5.5 0 11 .5 16.4 1.3 27.7 4.5 56 24.5 70.7 49.7 21.7 20.6 34.6 50.1 34.6 78.9 0 63.9-52.4 112-122 112Z"/><path stroke="url(#q)" stroke-miterlimit="10" d="M75.1 213.8c-68 0-119.3-47-119.3-109.2 0-28.7 13.1-57.9 35-78.1l.2-.3C8.4-4 40.7-22.7 75.4-22.7c5.3 0 10.7.4 15.9 1.3 27.1 4.4 54.8 24 69 48.7 21.3 20.1 34.1 48.9 34.1 77.2 0 62.3-51.2 109.3-119.3 109.3Z"/><path stroke="url(#r)" stroke-miterlimit="10" d="M75.1 211.1c-66.5 0-116.6-45.8-116.6-106.5 0-28.2 12.9-56.7 34.4-76.3l.4-.7C10.3-1.8 41.7-20 75.4-20c5.2 0 10.4.4 15.5 1.3 26.5 4.3 53.5 23.5 67.3 47.7 21 19.6 33.5 47.8 33.5 75.5 0 60.8-50.1 106.6-116.6 106.6Z"/><path stroke="url(#s)" stroke-miterlimit="10" d="M75.1 208.4c-64.9 0-113.9-44.6-113.9-103.8C-38.8 77-26.1 49.2-4.9 30c.3-.5.6-1.1.6-1.1C12.1.4 42.7-17.3 75.4-17.3c5 0 10.1.4 15 1.2 25.9 4.2 52.2 23 65.6 46.7 20.6 19.1 33 46.7 33 73.8 0 59.3-48.9 104-113.9 104Z"/><path stroke="url(#t)" stroke-miterlimit="10" d="M75.1 205.7C11.8 205.7-36 162.2-36 104.5c0-27 12.4-54.2 33.3-72.9.2-.4.8-1.4.8-1.4C14 2.6 43.6-14.6 75.4-14.6c4.9 0 9.8.4 14.6 1.2 25.3 4.1 51 22.5 63.9 45.8 20.3 18.7 32.4 45.6 32.4 72.1 0 57.7-47.8 101.2-111.2 101.2Z"/><path stroke="url(#u)" stroke-miterlimit="10" d="M75.1 203c-61.8 0-108.4-42.4-108.4-98.5 0-26.4 12.2-53 32.7-71.2.3-.5.5-1 .8-1.4l.2-.4c15.4-26.8 44.2-43.4 75-43.4 4.8 0 9.5.4 14.2 1.2 24.8 4 49.7 22 62.2 44.8 20 18.2 31.9 44.5 31.9 70.4-.1 56.1-46.7 98.5-108.6 98.5Z"/><path stroke="url(#v)" stroke-miterlimit="10" d="M75.1 200.3c-60.3 0-105.8-41.2-105.8-95.7 0-25.8 12-51.8 32.2-69.5.3-.6.7-1.2 1-1.8l.2-.4C17.6 7 45.5-9.1 75.4-9.1c4.6 0 9.2.4 13.7 1.1 24.2 3.9 48.4 21.5 60.5 43.8 19.6 17.7 31.3 43.3 31.3 68.7 0 54.6-45.5 95.8-105.8 95.8Z"/><path stroke="url(#w)" stroke-miterlimit="10" d="M75.1 197.6c-58.8 0-103.1-40-103.1-93 0-25.2 11.8-50.5 31.6-67.8.4-.7.8-1.5 1.2-2.2l.2-.4C19.5 9.1 46.4-6.4 75.3-6.4c4.5 0 8.9.4 13.3 1.1 23.6 3.9 47.1 21 58.7 42.9 19.3 17.2 30.8 42.2 30.8 67 .1 53-44.2 93-103 93Z"/><path stroke="url(#x)" stroke-miterlimit="10" d="M75.1 194.8c-57.2 0-100.3-38.8-100.3-90.3 0-24.7 11.6-49.3 31-66 .5-.9.9-1.7 1.4-2.5l.2-.4c14-24.2 40-39.3 68-39.3 4.3 0 8.6.4 12.8 1.1 23 3.8 45.9 20.6 57 41.9 18.9 16.7 30.2 41.1 30.2 65.3.1 51.4-43 90.2-100.3 90.2Z"/><path stroke="url(#y)" stroke-miterlimit="10" d="M75.1 192.1c-55.7 0-97.7-37.7-97.7-87.6 0-24.1 11.4-48.1 30.5-64.3.5-1 1.1-2 1.6-2.9l.2-.4C23.3 13.5 48.4-1 75.4-1c4.2 0 8.3.3 12.4 1 22.4 3.7 44.6 20.1 55.3 40.9 18.6 16.2 29.7 40 29.7 63.6 0 50-42 87.6-97.7 87.6Z"/><path stroke="url(#z)" stroke-miterlimit="10" d="M75.1 189.4c-54.1 0-95-36.5-95-84.9C-19.9 81-8.7 57.7 10 41.9l1.8-3.3.2-.4C25 15.6 49.3 1.6 75.3 1.6c4 0 8 .3 11.9 1 21.9 3.6 43.3 19.6 53.6 39.9 18.3 15.7 29.1 38.8 29.1 61.9.2 48.5-40.6 85-94.8 85Z"/><path stroke="url(#A)" stroke-miterlimit="10" d="M75.1 186.7c-52.6 0-92.2-35.3-92.2-82.2 0-22.9 11-45.6 29.4-60.9.6-1.2 1.3-2.5 2-3.7l.2-.4C27 17.9 50.4 4.4 75.4 4.4c3.9 0 7.7.3 11.5.9 21.3 3.5 42.1 19.1 51.8 39 17.9 15.2 28.6 37.7 28.6 60.2.1 46.9-39.6 82.2-92.2 82.2Z"/><path stroke="url(#B)" stroke-miterlimit="10" d="M75.1 184c-51 0-89.5-34.2-89.5-79.5 0-22.3 10.8-44.4 28.8-59.2.7-1.4 1.4-2.7 2.2-4l.2-.4C28.8 20 51.3 7 75.4 7c3.7 0 7.4.3 11.1.9 20.7 3.4 40.8 18.6 50.1 38 17.6 14.7 28.1 36.6 28.1 58.5 0 45.5-38.5 79.6-89.6 79.6Z"/><path stroke="url(#C)" stroke-miterlimit="10" d="M75.1 181.3c-49.5 0-86.8-33-86.8-76.8 0-21.7 10.6-43.2 28.3-57.4.7-1.5 1.5-3 2.3-4.4l.2-.4C30.7 22.2 52.2 9.8 75.3 9.8c3.6 0 7.1.3 10.6.9 20.1 3.3 39.5 18.1 48.4 37 17.3 14.3 27.6 35.5 27.6 56.8.1 43.8-37.2 76.8-86.8 76.8Z"/><path stroke="url(#D)" stroke-miterlimit="10" d="M75.1 178.6c-48 0-84.1-31.9-84.1-74.1 0-21.1 10.4-41.9 27.8-55.7.8-1.6 1.6-3.2 2.5-4.8l.2-.4c11.1-19.2 31.7-31.1 53.9-31.1 3.4 0 6.8.3 10.2.8 19.6 3.2 38.2 17.7 46.6 36.1 17 13.8 27.1 34.3 27.1 55.1 0 42.3-36.2 74.1-84.2 74.1Z"/><path stroke="url(#E)" stroke-miterlimit="10" d="M75.1 175.9c-46.4 0-81.4-30.7-81.4-71.4 0-20.5 10.1-40.6 27.1-53.8.1-.2.2-.3.3-.5.8-1.6 1.6-3.3 2.5-4.8l.3-.4c10.6-18.4 30.3-29.8 51.5-29.8 3.3 0 6.5.3 9.7.8 19 3.1 36.9 17.2 44.9 35.1 16.6 13.3 26.6 33.2 26.6 53.4 0 40.7-35 71.4-81.5 71.4Z"/><path stroke="url(#F)" stroke-miterlimit="10" d="M75.1 173.2c-44.9 0-78.7-29.5-78.7-68.7 0-19.8 9.8-39.2 26.4-52 .2-.3.4-.7.7-1 .8-1.6 1.6-3.3 2.5-4.8l.3-.4c10.1-17.5 29-28.4 49.2-28.4 3.1 0 6.2.3 9.3.8 18.4 3 35.7 16.7 43.1 34.1 16.3 12.8 26.1 32.1 26.1 51.7-.1 39.2-34 68.7-78.9 68.7Z"/><path stroke="url(#G)" stroke-miterlimit="10" d="M75.1 170.5c-43.3 0-76-28.4-76-66 0-19.2 9.6-37.8 25.7-50.1.3-.5.7-1 1-1.5.8-1.6 1.6-3.3 2.5-4.8l.3-.4C38.2 31 56.2 20.6 75.4 20.6c3 0 5.9.2 8.9.7 17.6 2.9 34.1 16 41.2 32.8l.3.5c16 12.2 25.5 30.9 25.5 50-.1 37.5-32.8 65.9-76.2 65.9Z"/><path stroke="url(#H)" stroke-miterlimit="10" d="M75.1 167.8c-41.8 0-73.3-27.2-73.3-63.3 0-18.5 9.3-36.5 25-48.2.4-.7.9-1.3 1.4-2 .8-1.7 1.6-3.3 2.5-4.8l.3-.5c9.1-15.9 26.2-25.7 44.5-25.7 2.8 0 5.6.2 8.4.7 16.8 2.7 32.5 15.3 39.2 31.3l.6 1.1c15.6 11.7 24.8 29.7 24.8 48.1 0 36.1-31.6 63.3-73.4 63.3Z"/><path stroke="url(#I)" stroke-miterlimit="10" d="M75.1 165.1c-40.3 0-70.6-26-70.6-60.6 0-17.8 9.1-35.1 24.3-46.3.5-.9 1.1-1.7 1.7-2.5.8-1.7 1.6-3.3 2.5-4.9l.3-.5C41.9 35.3 58.1 26 75.4 26c2.7 0 5.4.2 8 .7 16 2.6 30.9 14.6 37.2 29.9l1 1.7c15.2 11.2 24.2 28.5 24.2 46.3 0 34.5-30.4 60.5-70.7 60.5Z"/><path stroke="url(#J)" stroke-miterlimit="10" d="M75.1 162.4c-38.7 0-67.9-24.9-67.9-57.9C7.2 87.3 16 70.8 30.8 60c.6-1 1.3-2 2-3 .8-1.7 1.6-3.3 2.5-4.9l.3-.5c8.2-14.2 23.4-23 39.8-23 2.5 0 5.1.2 7.5.6 15.2 2.5 29.3 13.9 35.2 28.4l1.4 2.4c14.8 10.7 23.6 27.3 23.6 44.5 0 33-29.2 57.9-68 57.9Z"/><path stroke="url(#K)" stroke-miterlimit="10" d="M75.1 159.7c-37.2 0-65.2-23.7-65.2-55.2 0-16.5 8.5-32.4 22.9-42.6.7-1.2 1.5-2.4 2.4-3.5.7-1.7 1.6-3.3 2.5-4.9l.3-.5c7.6-13.3 22-21.6 37.4-21.6 2.4 0 4.8.2 7.1.6 14.4 2.3 27.7 13.1 33.2 26.9l1.8 3c14.3 10.2 22.9 26.1 22.9 42.6 0 31.5-28.1 55.2-65.3 55.2Z"/><path stroke="url(#L)" stroke-miterlimit="10" d="M75.1 157c-35.6 0-62.5-22.6-62.5-52.5 0-15.8 8.3-31 22.2-40.7.8-1.4 1.7-2.8 2.7-4 .7-1.7 1.6-3.3 2.5-4.9l.3-.5C47.5 41.9 61 34.1 75.4 34.1c2.2 0 4.5.2 6.6.5C95.6 36.8 108.1 47 113.2 60l2.2 3.7c13.9 9.7 22.2 24.9 22.2 40.7.1 30-26.8 52.6-62.5 52.6Z"/><path stroke="url(#M)" stroke-miterlimit="10" d="M75.1 154.3c-34.1 0-59.8-21.4-59.8-49.8 0-15.2 8-29.6 21.6-38.8l.2-.3c.8-1.5 1.8-2.9 2.8-4.2.7-1.7 1.6-3.3 2.5-4.9l.3-.5C49.4 44.1 62 36.9 75.5 36.9c2.1 0 4.2.2 6.2.5 12.8 2.1 24.5 11.7 29.2 23.9l2.6 4.4c13.5 9.2 21.6 23.7 21.6 38.8-.2 28.4-25.9 49.8-60 49.8Z"/><path stroke="url(#N)" stroke-miterlimit="10" d="M75.1 151.6c-32.5 0-57.1-20.2-57.1-47.1 0-14.5 7.8-28.3 20.9-36.9.1-.2.5-.9.5-.9.8-1.5 1.8-2.9 2.8-4.2.7-1.7 1.5-3.4 2.5-5l.3-.5c6.3-10.8 17.9-17.6 30.4-17.6 1.9 0 3.9.2 5.8.5 11.9 1.9 22.8 10.9 27.2 22.4l3 5.2c13.1 8.7 20.9 22.4 20.9 37-.1 26.9-24.6 47.1-57.2 47.1Z"/><path stroke="url(#O)" stroke-miterlimit="10" d="M75.1 148.9c-31 0-54.4-19.1-54.4-44.3 0-13.8 7.5-26.9 20.2-35 .2-.3.4-.7.6-1l.2-.4c.8-1.5 1.8-2.8 2.8-4.1.7-1.7 1.5-3.4 2.5-5l.3-.5c5.8-10 16.5-16.2 28.1-16.2 1.8 0 3.6.1 5.3.4 11.1 1.8 21.2 10.2 25.2 20.9l3.4 5.9c12.7 8.2 20.2 21.2 20.2 35 0 25.2-23.3 44.3-54.4 44.3Z"/><path stroke="url(#P)" stroke-miterlimit="10" d="M75.1 146.2c-29.5 0-51.7-17.9-51.7-41.6 0-13.2 7.3-25.5 19.6-33.1.3-.5.6-1.1.9-1.6l.2-.4c.8-1.4 1.8-2.8 2.8-4.1.7-1.7 1.5-3.4 2.4-5l.3-.5C54.9 50.7 64.8 45 75.4 45c1.6 0 3.3.1 4.9.4 10.3 1.7 19.6 9.5 23.2 19.4l3.9 6.7c12.2 7.6 19.5 20 19.5 33.1-.1 23.7-22.3 41.6-51.8 41.6Z"/><path stroke="url(#Q)" stroke-miterlimit="10" d="M75.1 143.5c-27.9 0-49-16.7-49-38.9 0-12.5 7.1-24.1 18.9-31.2.4-.7.7-1.4 1.1-2.1l.2-.4c.8-1.4 1.8-2.8 2.8-4 .7-1.7 1.5-3.5 2.4-5.1l.3-.5c4.8-8.3 13.8-13.5 23.4-13.5 1.5 0 3 .1 4.4.4 9.5 1.5 17.9 8.7 21.1 17.9l4.3 7.5c11.8 7.1 18.8 18.7 18.8 31.2.3 21.9-20.7 38.7-48.7 38.7Z"/><path stroke="url(#R)" stroke-miterlimit="10" d="M75.1 140.8c-26.4 0-46.3-15.6-46.3-36.2 0-11.8 6.8-22.7 18.3-29.3.4-.9.9-1.8 1.4-2.7l.3-.4c.8-1.4 1.8-2.8 2.8-4 .7-1.8 1.5-3.5 2.4-5.1l.3-.5c4.3-7.5 12.4-12.2 21.1-12.2 1.3 0 2.7.1 4 .3C88 52.1 95.7 58.6 98.5 67l4.8 8.3c11.3 6.6 18.1 17.5 18.1 29.2 0 20.7-19.9 36.3-46.3 36.3Z"/><path stroke="url(#S)" stroke-miterlimit="10" d="M75.1 138.1c-24.8 0-43.6-14.4-43.6-33.5 0-11.1 6.6-21.3 17.7-27.4.5-1.1 1-2.2 1.6-3.3l.3-.4c.8-1.4 1.8-2.7 2.9-3.9.6-1.8 1.4-3.5 2.4-5.2l.3-.5c3.9-6.7 11-10.8 18.7-10.8 1.2 0 2.4.1 3.5.3 7.8 1.3 14.6 7.2 17.1 14.8l5.3 9.2c10.9 6.1 17.4 16.2 17.4 27.2 0 19.1-18.7 33.5-43.6 33.5Z"/><path stroke="url(#T)" stroke-miterlimit="10" d="M75.1 135.4c-23.3 0-40.9-13.3-40.9-30.8 0-10.5 6.4-19.9 17.1-25.5.5-1.3 1.1-2.6 1.8-3.8l.3-.5c.8-1.4 1.8-2.7 2.9-3.8.6-1.8 1.4-3.6 2.4-5.3l.3-.5c3.4-5.8 9.7-9.5 16.4-9.5 1 0 2.1.1 3.1.3 7 1.1 12.9 6.4 15 13.2 3.7 6.5 5.2 9.1 5.9 10.1 10.4 5.6 16.6 14.9 16.6 25.2 0 17.6-17.6 30.9-40.9 30.9Z"/><path stroke="url(#U)" stroke-miterlimit="10" d="M75.1 132.7c-21.8 0-38.2-12.1-38.2-28.1 0-9.8 6.2-18.5 16.6-23.5.5-1.5 1.2-3 2-4.4l.3-.5c.8-1.4 1.8-2.6 2.9-3.7.6-1.9 1.3-3.7 2.3-5.4l.3-.5c2.9-5 8.3-8.1 14.1-8.1.9 0 1.8.1 2.7.2 6.1 1 11.3 5.6 13 11.6l6.4 11.1c10 5.1 15.9 13.7 15.9 23.2-.1 16-16.5 28.1-38.3 28.1Z"/><path stroke="url(#V)" stroke-miterlimit="10" d="M75.1 130c-20.2 0-35.5-10.9-35.5-25.4 0-9.1 6-17.1 16.1-21.6.5-1.8 1.2-3.4 2.1-5l.3-.5c.8-1.4 1.8-2.5 2.9-3.5.5-1.9 1.3-3.8 2.3-5.5l.3-.5c2.4-4.2 6.9-6.8 11.7-6.8.7 0 1.5.1 2.2.2 5.2.9 9.6 4.8 10.9 10L95 82.8c.1.2.3.5.4.7 9.5 4.6 15.1 12.4 15.1 21.1.1 14.4-15.1 25.4-35.4 25.4Z"/><path stroke="url(#W)" stroke-miterlimit="10" d="M75.1 127.3c-18.7 0-32.8-9.8-32.8-22.7C42.3 96.2 48.1 89 58 85c.5-2 1.2-3.9 2.2-5.6l.3-.5c.8-1.3 1.8-2.5 3-3.3.5-2 1.2-3.9 2.2-5.7l.3-.5c1.9-3.3 5.5-5.4 9.4-5.4.6 0 1.2 0 1.8.1 4.3.7 7.8 4 8.8 8.3l6.8 11.7c.3.5.5.9.7 1.4 9 4 14.4 11.1 14.4 19.1 0 12.9-14.1 22.7-32.8 22.7Z"/><path stroke="url(#X)" stroke-miterlimit="10" d="M75.1 124.5c-17.1 0-30.1-8.6-30.1-20 0-7.6 5.8-14.2 15.4-17.6.3-2.2 1.1-4.4 2.2-6.3l.3-.5c.7-1.3 1.8-2.3 3.1-3 .3-2.1 1.1-4.2 2.1-6l.3-.5c1.4-2.5 4.1-4.1 7-4.1.4 0 .9 0 1.3.1 3.3.5 6 3.1 6.6 6.4 0 .2.1.3.2.4l6.9 11.9c.4.7.7 1.4 1 2.1 8.6 3.5 13.7 9.8 13.7 17 .1 11.5-12.8 20.1-30 20.1Z"/><path stroke="url(#Y)" stroke-miterlimit="10" d="M75.1 121.8c-15.6 0-27.4-7.4-27.4-17.3 0-6.9 5.8-12.8 15.2-15.6.1-2.4.8-4.8 2-6.9l.3-.5c.7-1.2 1.9-2.1 3.2-2.5.1-2.3.8-4.5 2-6.5l.3-.5c1-1.7 2.8-2.7 4.7-2.7.3 0 .6 0 .9.1 2.2.4 4 2.1 4.4 4.3.1.4.2.9.5 1.2l6.9 11.9c.5.9.9 1.9 1.3 2.9 8.3 3 13.2 8.5 13.2 14.9-.1 9.8-11.9 17.2-27.5 17.2Z"/><path stroke="url(#Z)" stroke-miterlimit="10" d="M75.1 119.1c-13.8 0-24.6-6.4-24.6-14.6 0-5.9 5.5-11 14.5-13.3.2-.1.5-.1.7-.1h.2c-.4-2.6.1-5.4 1.5-7.8l.3-.5c.5-.8 1.4-1.4 2.3-1.4h.4c.3.1.7.2 1 .3-.4-2.7.1-5.6 1.5-8.1l.3-.5c.5-.8 1.4-1.4 2.3-1.4h.4c1.1.2 2 1 2.2 2.1.1.7.4 1.4.8 2.1l6.9 11.9c.6 1.1 1.1 2.3 1.4 3.6 7.9 2.5 12.7 7.3 12.7 12.8-.1 8.5-10.9 14.9-24.8 14.9Z"/><path stroke="url(#aa)" stroke-miterlimit="10" d="M84.8 93.8c-.1-1.5-.5-3-1.3-4.3l-6.9-11.9c-.5-.9-.9-1.9-1.1-2.9l-.3.5c-1.7 2.9-1.7 6.6 0 9.5l5.5 9.5c1.7 2.9 1.7 6.6 0 9.5l-.3.5c-.2-1-.6-2-1.1-2.9l-5-8.7-3.2-5.6c-.5-.9-.9-1.9-1.1-2.9l-.3.5c-1.7 2.9-1.7 6.6 0 9.5l5.5 9.6c1.7 2.9 1.7 6.6 0 9.5l-.3.5c-.2-1-.6-2-1.1-2.9L67 99c-.9-1.6-1.3-3.4-1.3-5.2-7.4 1.9-12.4 6-12.4 10.7 0 6.6 9.8 11.9 21.9 11.9 12.1 0 21.9-5.3 21.9-11.9.1-4.7-5-8.8-12.3-10.7Z"/><path stroke="#91C740" stroke-miterlimit="10" d="M84.7 93.9c-.1-1.5-.5-3-1.3-4.3l-6.9-11.9c-.5-.9-.9-1.9-1.1-2.9l-.3.5c-1.7 2.9-1.7 6.6 0 9.5l5.5 9.5c1.7 2.9 1.7 6.6 0 9.5l-.3.5c-.2-1-.6-2-1.1-2.9l-5-8.7-3.2-5.6c-.5-.9-.9-1.9-1.1-2.9l-.3.5c-1.7 2.9-1.7 6.6 0 9.5l5.5 9.6c1.7 2.9 1.7 6.6 0 9.5l-.3.5c-.2-1-.6-2-1.1-2.9L67 99c-.9-1.6-1.3-3.4-1.3-5.2-7.4 1.9-12.4 6-12.4 10.7 0 6.6 9.8 11.9 21.9 11.9 12.1 0 21.9-5.3 21.9-11.9.1-4.6-5-8.7-12.4-10.6Z" opacity=".67"/><path fill="url(#ab)" d="M152.3 169.4h-115v36.9H-1.3v26.8s0 10 10 10h133.6s10-.1 10-10v-63.7Z"/><path fill="url(#ac)" d="M71.1 183.2c1.5 0 2.7 1.2 2.7 2.6V211c0 1.5-1.2 2.6-2.7 2.6H54c-1.5 0-2.7-1.2-2.7-2.6v-25.2c0-1.5 1.2-2.6 2.7-2.6h17.1Z"/><path stroke="#231F20" stroke-width=".5" d="M59.2 183.2v8.8c-5.2.8-7.8 4.8-7.8 4.8v2.7s2.5 4 7.8 4.8v9.5M66.3 183.2v9c3.9 0 7.5 4.5 7.5 4.5v2.8s-3.6 4.5-7.5 4.5v9.6"/><path fill="#231F20" d="M52.9 197.3c.4 0 .7.3.7.7 0 .4-.3.7-.7.7-.4 0-.7-.3-.7-.7 0-.3.3-.7.7-.7Z"/><path stroke="#231F20" stroke-width=".5" d="M59.2 204.2s1.4-.6 3.5-.6 3.6.5 3.6.5M59.2 192s1.4.6 3.5.6 3.6-.5 3.6-.5M51.6 204.3v7.9M73.5 204.3v7.9M51.6 184.2v7.9M73.5 184.2v7.9"/><path stroke="#D1D3D4" stroke-width=".3" d="M71.1 183.2c1.5 0 2.7 1.2 2.7 2.6V211c0 1.5-1.2 2.6-2.7 2.6H54c-1.5 0-2.7-1.2-2.7-2.6v-25.2c0-1.5 1.2-2.6 2.7-2.6h17.1Z"/><path fill="#fff" d="M19.3 234.1c-.3-.1-.6-.5-.7-.8 0-.2 0-.4.3-1.1 1.4-2.6 2-5.1 2-8 0-2.8-.5-5.1-1.8-7.7-.3-.6-.5-1.1-.5-1.2 0-.3.2-.7.5-.9.4-.2.9-.2 1.2.1.1.1.4.6.6 1 .9 1.8 1.6 3.8 1.9 5.9.2 1.3.2 3.8.1 4.9-.3 2.2-.9 4.1-1.8 6-.6 1.2-.9 1.6-1.2 1.6h-.2c-.1.2-.3.2-.4.2Zm-3.8-2c-.5-.1-.8-.7-.7-1.2 0-.1.3-.6.5-1.1 1-2.1 1.5-4.4 1.3-6.7-.2-1.8-.5-3-1.3-4.7-.6-1.1-.6-1.3-.3-1.8.3-.4 1.1-.5 1.5-.1.3.3 1.2 2.1 1.5 3.1 1.1 3.4.9 7.1-.5 10.4-.8 1.8-1.3 2.3-2 2.1Zm-3.9-2c-.3-.1-.6-.5-.6-.8 0-.2 0-.4.4-1.1 1.3-2.7 1.3-5.2 0-7.8-.6-1.1-.6-1.4-.1-1.8.2-.2.3-.3.7-.3.6 0 .8.3 1.3 1.3.8 1.6 1.1 2.9 1.1 4.7 0 1.8-.3 3-1.1 4.7-.5.9-.7 1.2-1.2 1.3-.1-.1-.4-.2-.5-.2Zm-3.7-1.9c-.2-.1-.5-.4-.6-.7-.1-.3 0-.6.3-1.2.5-.8.6-1.2.6-2.2 0-1-.1-1.4-.6-2.2-.2-.3-.3-.6-.3-.7-.1-.5.3-1.1.8-1.2.5-.1.8.1 1.2.8 1.3 2 1.3 4.6 0 6.6-.3.8-.8 1-1.4.8Z"/><path fill="#F26522" d="M124.8 205.9H111v24.8h13.8v-24.8Z"/><path fill="#E51B24" d="M111.9 218.3c0-5 2.4-9.5 6-12.4-2.7-2.1-6.1-3.4-9.7-3.4-8.7 0-15.8 7.1-15.8 15.8 0 8.7 7.1 15.8 15.8 15.8 3.7 0 7.1-1.3 9.7-3.4-3.7-2.9-6-7.3-6-12.4Z"/><path fill="#fff" d="M141.9 228.1v-.5h.2v-.1h-.5v.1h.2v.5h.1Zm1 0v-.6h-.2l-.2.4-.2-.4h-.2v.6h.1v-.5l.2.4h.1l.2-.4v.5h.2Z"/><path fill="#F99F1C" d="M143.4 218.3c0 8.7-7.1 15.8-15.8 15.8-3.7 0-7.1-1.3-9.7-3.4 3.7-2.9 6-7.4 6-12.4s-2.4-9.5-6-12.4c2.7-2.1 6.1-3.4 9.7-3.4 8.8.1 15.8 7.1 15.8 15.8Z"/></g><defs><linearGradient id="b" x1="75.152" x2="75.152" y1="254.383" y2="-63.262" gradientUnits="userSpaceOnUse"><stop stop-color="#2DB34A"/><stop offset=".255" stop-color="#D41F32"/><stop offset=".646" stop-color="#47489D"/><stop offset="1" stop-color="#EEE810"/></linearGradient><linearGradient id="c" x1="75.152" x2="75.152" y1="251.831" y2="-60.711" gradientUnits="userSpaceOnUse"><stop stop-color="#2DB34A"/><stop offset=".255" stop-color="#D41F32"/><stop offset=".646" stop-color="#47489D"/><stop offset="1" stop-color="#EEE810"/></linearGradient><linearGradient id="d" x1="75.152" x2="75.152" y1="249.28" y2="-58.16" gradientUnits="userSpaceOnUse"><stop stop-color="#2DB34A"/><stop offset=".255" stop-color="#D41F32"/><stop offset=".646" stop-color="#47489D"/><stop offset="1" stop-color="#EEE810"/></linearGradient><linearGradient id="e" x1="75.152" x2="75.152" y1="246.729" y2="-55.608" gradientUnits="userSpaceOnUse"><stop stop-color="#2DB34A"/><stop offset=".255" stop-color="#D41F32"/><stop offset=".646" stop-color="#47489D"/><stop offset="1" stop-color="#EEE810"/></linearGradient><linearGradient id="f" x1="75.152" x2="75.152" y1="244.024" y2="-52.904" gradientUnits="userSpaceOnUse"><stop stop-color="#2DB34A"/><stop offset=".255" stop-color="#D41F32"/><stop offset=".646" stop-color="#47489D"/><stop offset="1" stop-color="#EEE810"/></linearGradient><linearGradient id="g" x1="75.152" x2="75.152" y1="241.32" y2="-50.2" gradientUnits="userSpaceOnUse"><stop stop-color="#2DB34A"/><stop offset=".255" stop-color="#D41F32"/><stop offset=".646" stop-color="#47489D"/><stop offset="1" stop-color="#EEE810"/></linearGradient><linearGradient id="h" x1="75.151" x2="75.151" y1="238.616" y2="-47.497" gradientUnits="userSpaceOnUse"><stop stop-color="#2DB34A"/><stop offset=".255" stop-color="#D41F32"/><stop offset=".646" stop-color="#47489D"/><stop offset="1" stop-color="#EEE810"/></linearGradient><linearGradient id="i" x1="75.151" x2="75.151" y1="235.911" y2="-44.793" gradientUnits="userSpaceOnUse"><stop stop-color="#2DB34A"/><stop offset=".255" stop-color="#D41F32"/><stop offset=".646" stop-color="#47489D"/><stop offset="1" stop-color="#EEE810"/></linearGradient><linearGradient id="j" x1="75.151" x2="75.151" y1="233.207" y2="-42.089" gradientUnits="userSpaceOnUse"><stop stop-color="#2DB34A"/><stop offset=".255" stop-color="#D41F32"/><stop offset=".646" stop-color="#47489D"/><stop offset="1" stop-color="#EEE810"/></linearGradient><linearGradient id="k" x1="75.15" x2="75.15" y1="230.503" y2="-39.385" gradientUnits="userSpaceOnUse"><stop stop-color="#2DB34A"/><stop offset=".255" stop-color="#D41F32"/><stop offset=".646" stop-color="#47489D"/><stop offset="1" stop-color="#EEE810"/></linearGradient><linearGradient id="l" x1="75.15" x2="75.15" y1="227.799" y2="-36.681" gradientUnits="userSpaceOnUse"><stop stop-color="#2DB34A"/><stop offset=".255" stop-color="#D41F32"/><stop offset=".646" stop-color="#47489D"/><stop offset="1" stop-color="#EEE810"/></linearGradient><linearGradient id="m" x1="75.15" x2="75.15" y1="225.094" y2="-33.977" gradientUnits="userSpaceOnUse"><stop stop-color="#2DB34A"/><stop offset=".255" stop-color="#D41F32"/><stop offset=".646" stop-color="#47489D"/><stop offset="1" stop-color="#EEE810"/></linearGradient><linearGradient id="n" x1="75.15" x2="75.15" y1="222.39" y2="-31.273" gradientUnits="userSpaceOnUse"><stop stop-color="#2DB34A"/><stop offset=".255" stop-color="#D41F32"/><stop offset=".646" stop-color="#47489D"/><stop offset="1" stop-color="#EEE810"/></linearGradient><linearGradient id="o" x1="75.15" x2="75.15" y1="219.686" y2="-28.57" gradientUnits="userSpaceOnUse"><stop stop-color="#2DB34A"/><stop offset=".255" stop-color="#D41F32"/><stop offset=".646" stop-color="#47489D"/><stop offset="1" stop-color="#EEE810"/></linearGradient><linearGradient id="p" x1="75.149" x2="75.149" y1="216.981" y2="-25.866" gradientUnits="userSpaceOnUse"><stop stop-color="#2DB34A"/><stop offset=".255" stop-color="#D41F32"/><stop offset=".646" stop-color="#47489D"/><stop offset="1" stop-color="#EEE810"/></linearGradient><linearGradient id="q" x1="75.149" x2="75.149" y1="214.277" y2="-23.162" gradientUnits="userSpaceOnUse"><stop stop-color="#2DB34A"/><stop offset=".255" stop-color="#D41F32"/><stop offset=".646" stop-color="#47489D"/><stop offset="1" stop-color="#EEE810"/></linearGradient><linearGradient id="r" x1="75.149" x2="75.149" y1="211.572" y2="-20.458" gradientUnits="userSpaceOnUse"><stop stop-color="#2DB34A"/><stop offset=".255" stop-color="#D41F32"/><stop offset=".646" stop-color="#47489D"/><stop offset="1" stop-color="#EEE810"/></linearGradient><linearGradient id="s" x1="75.149" x2="75.149" y1="208.868" y2="-17.754" gradientUnits="userSpaceOnUse"><stop stop-color="#2DB34A"/><stop offset=".255" stop-color="#D41F32"/><stop offset=".646" stop-color="#47489D"/><stop offset="1" stop-color="#EEE810"/></linearGradient><linearGradient id="t" x1="75.148" x2="75.148" y1="206.164" y2="-15.05" gradientUnits="userSpaceOnUse"><stop stop-color="#2DB34A"/><stop offset=".255" stop-color="#D41F32"/><stop offset=".646" stop-color="#47489D"/><stop offset="1" stop-color="#EEE810"/></linearGradient><linearGradient id="u" x1="75.148" x2="75.148" y1="203.46" y2="-12.346" gradientUnits="userSpaceOnUse"><stop stop-color="#2DB34A"/><stop offset=".255" stop-color="#D41F32"/><stop offset=".646" stop-color="#47489D"/><stop offset="1" stop-color="#EEE810"/></linearGradient><linearGradient id="v" x1="75.148" x2="75.148" y1="200.757" y2="-9.642" gradientUnits="userSpaceOnUse"><stop stop-color="#2DB34A"/><stop offset=".255" stop-color="#D41F32"/><stop offset=".646" stop-color="#47489D"/><stop offset="1" stop-color="#EEE810"/></linearGradient><linearGradient id="w" x1="75.148" x2="75.148" y1="198.053" y2="-6.938" gradientUnits="userSpaceOnUse"><stop stop-color="#2DB34A"/><stop offset=".255" stop-color="#D41F32"/><stop offset=".646" stop-color="#47489D"/><stop offset="1" stop-color="#EEE810"/></linearGradient><linearGradient id="x" x1="75.147" x2="75.147" y1="195.349" y2="-4.234" gradientUnits="userSpaceOnUse"><stop stop-color="#2DB34A"/><stop offset=".255" stop-color="#D41F32"/><stop offset=".646" stop-color="#47489D"/><stop offset="1" stop-color="#EEE810"/></linearGradient><linearGradient id="y" x1="75.147" x2="75.147" y1="192.645" y2="-1.531" gradientUnits="userSpaceOnUse"><stop stop-color="#2DB34A"/><stop offset=".255" stop-color="#D41F32"/><stop offset=".646" stop-color="#47489D"/><stop offset="1" stop-color="#EEE810"/></linearGradient><linearGradient id="z" x1="75.147" x2="75.147" y1="189.941" y2="1.173" gradientUnits="userSpaceOnUse"><stop stop-color="#2DB34A"/><stop offset=".255" stop-color="#D41F32"/><stop offset=".646" stop-color="#47489D"/><stop offset="1" stop-color="#EEE810"/></linearGradient><linearGradient id="A" x1="75.147" x2="75.147" y1="187.237" y2="3.877" gradientUnits="userSpaceOnUse"><stop stop-color="#2DB34A"/><stop offset=".255" stop-color="#D41F32"/><stop offset=".646" stop-color="#47489D"/><stop offset="1" stop-color="#EEE810"/></linearGradient><linearGradient id="B" x1="75.146" x2="75.146" y1="184.533" y2="6.581" gradientUnits="userSpaceOnUse"><stop stop-color="#2DB34A"/><stop offset=".255" stop-color="#D41F32"/><stop offset=".646" stop-color="#47489D"/><stop offset="1" stop-color="#EEE810"/></linearGradient><linearGradient id="C" x1="75.146" x2="75.146" y1="181.829" y2="9.285" gradientUnits="userSpaceOnUse"><stop stop-color="#2DB34A"/><stop offset=".255" stop-color="#D41F32"/><stop offset=".646" stop-color="#47489D"/><stop offset="1" stop-color="#EEE810"/></linearGradient><linearGradient id="D" x1="75.146" x2="75.146" y1="179.125" y2="11.989" gradientUnits="userSpaceOnUse"><stop stop-color="#2DB34A"/><stop offset=".255" stop-color="#D41F32"/><stop offset=".646" stop-color="#47489D"/><stop offset="1" stop-color="#EEE810"/></linearGradient><linearGradient id="E" x1="75.146" x2="75.146" y1="176.422" y2="14.693" gradientUnits="userSpaceOnUse"><stop stop-color="#2DB34A"/><stop offset=".255" stop-color="#D41F32"/><stop offset=".646" stop-color="#47489D"/><stop offset="1" stop-color="#EEE810"/></linearGradient><linearGradient id="F" x1="75.145" x2="75.145" y1="173.718" y2="17.396" gradientUnits="userSpaceOnUse"><stop stop-color="#2DB34A"/><stop offset=".255" stop-color="#D41F32"/><stop offset=".646" stop-color="#47489D"/><stop offset="1" stop-color="#EEE810"/></linearGradient><linearGradient id="G" x1="75.145" x2="75.145" y1="171.014" y2="20.101" gradientUnits="userSpaceOnUse"><stop stop-color="#2DB34A"/><stop offset=".255" stop-color="#D41F32"/><stop offset=".646" stop-color="#47489D"/><stop offset="1" stop-color="#EEE810"/></linearGradient><linearGradient id="H" x1="75.145" x2="75.145" y1="168.31" y2="22.804" gradientUnits="userSpaceOnUse"><stop stop-color="#2DB34A"/><stop offset=".255" stop-color="#D41F32"/><stop offset=".646" stop-color="#47489D"/><stop offset="1" stop-color="#EEE810"/></linearGradient><linearGradient id="I" x1="75.145" x2="75.145" y1="165.606" y2="25.508" gradientUnits="userSpaceOnUse"><stop stop-color="#2DB34A"/><stop offset=".255" stop-color="#D41F32"/><stop offset=".646" stop-color="#47489D"/><stop offset="1" stop-color="#EEE810"/></linearGradient><linearGradient id="J" x1="75.145" x2="75.145" y1="162.902" y2="28.212" gradientUnits="userSpaceOnUse"><stop stop-color="#2DB34A"/><stop offset=".255" stop-color="#D41F32"/><stop offset=".646" stop-color="#47489D"/><stop offset="1" stop-color="#EEE810"/></linearGradient><linearGradient id="K" x1="75.144" x2="75.144" y1="160.198" y2="30.916" gradientUnits="userSpaceOnUse"><stop stop-color="#2DB34A"/><stop offset=".255" stop-color="#D41F32"/><stop offset=".646" stop-color="#47489D"/><stop offset="1" stop-color="#EEE810"/></linearGradient><linearGradient id="L" x1="75.144" x2="75.144" y1="157.494" y2="33.62" gradientUnits="userSpaceOnUse"><stop stop-color="#2DB34A"/><stop offset=".255" stop-color="#D41F32"/><stop offset=".646" stop-color="#47489D"/><stop offset="1" stop-color="#EEE810"/></linearGradient><linearGradient id="M" x1="75.144" x2="75.144" y1="154.791" y2="36.324" gradientUnits="userSpaceOnUse"><stop stop-color="#2DB34A"/><stop offset=".255" stop-color="#D41F32"/><stop offset=".646" stop-color="#47489D"/><stop offset="1" stop-color="#EEE810"/></linearGradient><linearGradient id="N" x1="75.144" x2="75.144" y1="152.087" y2="39.028" gradientUnits="userSpaceOnUse"><stop stop-color="#2DB34A"/><stop offset=".255" stop-color="#D41F32"/><stop offset=".646" stop-color="#47489D"/><stop offset="1" stop-color="#EEE810"/></linearGradient><linearGradient id="O" x1="75.144" x2="75.144" y1="149.383" y2="41.731" gradientUnits="userSpaceOnUse"><stop stop-color="#2DB34A"/><stop offset=".255" stop-color="#D41F32"/><stop offset=".646" stop-color="#47489D"/><stop offset="1" stop-color="#EEE810"/></linearGradient><linearGradient id="P" x1="75.143" x2="75.143" y1="146.679" y2="44.435" gradientUnits="userSpaceOnUse"><stop stop-color="#2DB34A"/><stop offset=".255" stop-color="#D41F32"/><stop offset=".646" stop-color="#47489D"/><stop offset="1" stop-color="#EEE810"/></linearGradient><linearGradient id="Q" x1="75.143" x2="75.143" y1="143.975" y2="47.139" gradientUnits="userSpaceOnUse"><stop stop-color="#2DB34A"/><stop offset=".255" stop-color="#D41F32"/><stop offset=".646" stop-color="#47489D"/><stop offset="1" stop-color="#EEE810"/></linearGradient><linearGradient id="R" x1="75.143" x2="75.143" y1="141.271" y2="49.843" gradientUnits="userSpaceOnUse"><stop stop-color="#2DB34A"/><stop offset=".255" stop-color="#D41F32"/><stop offset=".646" stop-color="#47489D"/><stop offset="1" stop-color="#EEE810"/></linearGradient><linearGradient id="S" x1="75.143" x2="75.143" y1="138.567" y2="52.547" gradientUnits="userSpaceOnUse"><stop stop-color="#2DB34A"/><stop offset=".255" stop-color="#D41F32"/><stop offset=".646" stop-color="#47489D"/><stop offset="1" stop-color="#EEE810"/></linearGradient><linearGradient id="T" x1="75.142" x2="75.142" y1="135.863" y2="55.251" gradientUnits="userSpaceOnUse"><stop stop-color="#2DB34A"/><stop offset=".255" stop-color="#D41F32"/><stop offset=".646" stop-color="#47489D"/><stop offset="1" stop-color="#EEE810"/></linearGradient><linearGradient id="U" x1="75.142" x2="75.142" y1="133.159" y2="57.955" gradientUnits="userSpaceOnUse"><stop stop-color="#2DB34A"/><stop offset=".255" stop-color="#D41F32"/><stop offset=".646" stop-color="#47489D"/><stop offset="1" stop-color="#EEE810"/></linearGradient><linearGradient id="V" x1="75.142" x2="75.142" y1="130.456" y2="60.659" gradientUnits="userSpaceOnUse"><stop stop-color="#2DB34A"/><stop offset=".255" stop-color="#D41F32"/><stop offset=".646" stop-color="#47489D"/><stop offset="1" stop-color="#EEE810"/></linearGradient><linearGradient id="W" x1="75.142" x2="75.142" y1="127.752" y2="63.362" gradientUnits="userSpaceOnUse"><stop stop-color="#2DB34A"/><stop offset=".255" stop-color="#D41F32"/><stop offset=".646" stop-color="#47489D"/><stop offset="1" stop-color="#EEE810"/></linearGradient><linearGradient id="X" x1="75.141" x2="75.141" y1="125.048" y2="66.066" gradientUnits="userSpaceOnUse"><stop stop-color="#2DB34A"/><stop offset=".255" stop-color="#D41F32"/><stop offset=".646" stop-color="#47489D"/><stop offset="1" stop-color="#EEE810"/></linearGradient><linearGradient id="Y" x1="75.141" x2="75.141" y1="122.344" y2="68.77" gradientUnits="userSpaceOnUse"><stop stop-color="#2DB34A"/><stop offset=".255" stop-color="#D41F32"/><stop offset=".646" stop-color="#47489D"/><stop offset="1" stop-color="#EEE810"/></linearGradient><linearGradient id="Z" x1="75.141" x2="75.141" y1="119.64" y2="71.474" gradientUnits="userSpaceOnUse"><stop stop-color="#2DB34A"/><stop offset=".255" stop-color="#D41F32"/><stop offset=".646" stop-color="#47489D"/><stop offset="1" stop-color="#EEE810"/></linearGradient><linearGradient id="aa" x1="75.244" x2="75.244" y1="116.938" y2="73.284" gradientUnits="userSpaceOnUse"><stop stop-color="#2DB34A"/><stop offset=".255" stop-color="#D41F32"/><stop offset=".646" stop-color="#47489D"/><stop offset="1" stop-color="#EEE810"/></linearGradient><linearGradient id="ab" x1="75.552" x2="75.552" y1="169.358" y2="243.059" gradientUnits="userSpaceOnUse"><stop stop-color="#47C7F0" stop-opacity="0"/><stop offset="1" stop-color="#fff"/></linearGradient><linearGradient id="ac" x1="72.205" x2="52.712" y1="185.579" y2="211.477" gradientUnits="userSpaceOnUse"><stop stop-color="#7A7A7A"/><stop offset=".304" stop-color="#fff"/><stop offset="1" stop-color="#7A7A7A"/></linearGradient><clipPath id="a"><rect width="151" height="241" fill="#fff" rx="10"/></clipPath></defs></svg>