<svg width="266" height="168" viewBox="0 0 266 168" fill="none" xmlns="http://www.w3.org/2000/svg">
<mask id="mask0_8692_9221" style="mask-type:alpha" maskUnits="userSpaceOnUse" x="0" y="0" width="266" height="168">
<path d="M256 0H10C4.47715 0 0 4.47715 0 10V158C0 163.523 4.47715 168 10 168H256C261.523 168 266 163.523 266 158V10C266 4.47715 261.523 0 256 0Z" fill="white"/>
</mask>
<g mask="url(#mask0_8692_9221)">
<path d="M256 0H10C4.47715 0 0 4.47715 0 10V158C0 163.523 4.47715 168 10 168H256C261.523 168 266 163.523 266 158V10C266 4.47715 261.523 0 256 0Z" fill="#FF0000"/>
<g clip-path="url(#clip0_8692_9221)">
<path d="M267 157.088V10.9532C267 4.93786 262.108 0.0566406 256.08 0.0566406H9.91969C3.89156 0.0566406 -1 4.93786 -1 10.9532V157.074C-1 163.089 3.89156 167.971 9.91969 167.971H256.08C262.123 167.985 267 163.104 267 157.088Z" fill="#222558"/>
<path d="M132.396 242.266C32.2197 242.266 -43.3262 171.617 -43.3262 77.9268C-43.3262 36.8098 -25.4144 -5.65681 4.59674 -35.705C32.2053 -79.1335 81.2935 -106.109 132.712 -106.109H132.727C141.014 -106.109 149.358 -105.42 157.53 -104.071C196.95 -97.6534 238.644 -69.7443 261.274 -34.6426C290.624 -4.69492 308.147 37.384 308.147 77.9268C308.147 171.617 232.587 242.266 132.396 242.266ZM132.712 -105.104C81.5957 -105.104 32.8239 -78.2864 5.4024 -35.1164L5.37363 -35.0733L5.33047 -35.0303C-24.508 -5.16869 -42.3335 37.0538 -42.3335 77.9268C-42.3335 171.043 32.7808 241.261 132.382 241.261C231.997 241.261 307.125 171.043 307.125 77.9268C307.125 37.6281 289.688 -4.2068 260.497 -33.9679L260.469 -34.0109L260.44 -34.054C237.967 -68.9691 196.533 -96.7059 157.357 -103.08C149.243 -104.43 140.942 -105.104 132.712 -105.104Z" fill="#384C9F"/>
<path d="M132.396 239.467C33.8166 239.467 -40.5352 170.01 -40.5352 77.9271C-40.5352 37.4274 -22.8536 -4.39314 6.78351 -33.9389C33.8597 -76.7357 82.0992 -103.31 132.698 -103.31H132.712C140.841 -103.31 149.027 -102.635 157.055 -101.314C195.871 -94.9972 236.86 -67.4901 259.059 -32.8908C288.034 -3.43126 305.341 37.9873 305.341 77.9271C305.341 100.496 300.91 122.059 292.177 142.029C283.703 161.396 271.475 178.638 255.822 193.253C240.169 207.868 221.724 219.281 200.993 227.192C179.628 235.332 156.537 239.467 132.396 239.467ZM132.727 -102.305H132.712C82.4301 -102.305 34.5071 -75.8886 7.61795 -33.3502L7.58918 -33.3072L7.54601 -33.2641C-21.9328 -3.90503 -39.5281 37.6571 -39.5281 77.9271C-39.5281 169.45 34.3777 238.462 132.396 238.462C156.422 238.462 179.384 234.356 200.633 226.244C221.25 218.377 239.593 207.035 255.131 192.507C270.683 177.992 282.826 160.865 291.242 141.613C299.918 121.772 304.32 100.338 304.32 77.9128C304.32 38.217 287.113 -2.9575 258.296 -32.2304L258.253 -32.2735L258.224 -32.3166C236.183 -66.7148 195.454 -94.0496 156.883 -100.338C148.927 -101.644 140.798 -102.305 132.727 -102.305Z" fill="#384C9F"/>
<path d="M132.396 236.667C35.4137 236.667 -37.7295 168.416 -37.7295 77.9128C-37.7295 38.016 -20.2637 -3.14413 8.98492 -32.2017C35.5288 -74.3525 82.9194 -100.524 132.698 -100.524H132.713C140.683 -100.524 148.725 -99.864 156.595 -98.5719C194.792 -92.3555 235.076 -65.2648 256.843 -31.1537C285.444 -2.18224 302.522 38.5759 302.522 77.9128C302.536 168.431 229.393 236.667 132.396 236.667ZM132.727 -99.5051H132.713C83.2504 -99.5051 36.1619 -73.4911 9.81936 -31.5988L9.79059 -31.5557L9.74743 -31.5126C-19.343 -2.64165 -36.7224 38.2601 -36.7224 77.9271C-36.7224 167.856 35.9892 235.677 132.396 235.677C228.817 235.677 301.529 167.856 301.529 77.9415C301.529 38.8487 284.552 -1.66541 256.095 -30.4502L256.052 -30.4933L256.023 -30.5364C234.414 -64.4321 194.39 -91.365 156.437 -97.5526C148.625 -98.8591 140.64 -99.5051 132.727 -99.5051Z" fill="#384C9F"/>
<path d="M132.396 233.867C37.0104 233.867 -34.9243 166.822 -34.9243 77.9267C-34.9243 38.6329 -17.6888 -1.8668 11.2002 -30.4219C37.1974 -71.9266 83.7536 -97.7109 132.712 -97.7109C132.712 -97.7109 132.727 -97.7109 132.741 -97.7109C140.568 -97.7109 148.437 -97.0649 156.163 -95.7872C193.756 -89.6569 233.335 -62.9825 254.671 -29.3739C282.883 -0.919266 299.73 39.1928 299.73 77.9267C299.73 166.822 227.796 233.867 132.396 233.867ZM132.727 -96.706C132.712 -96.706 132.712 -96.706 132.712 -96.706C84.0845 -96.706 37.8449 -71.0796 12.0203 -29.8477L11.9915 -29.8046L11.9484 -29.7615C-16.768 -1.39303 -33.9172 38.8627 -33.9172 77.9124C-33.9172 166.248 37.5859 232.848 132.396 232.848C227.22 232.848 298.723 166.234 298.723 77.9124C298.723 39.4226 281.963 -0.445503 253.894 -28.7279L253.85 -28.7709L253.822 -28.814C232.644 -62.1929 193.325 -88.7238 155.976 -94.8109C148.322 -96.0743 140.496 -96.706 132.727 -96.706Z" fill="#384C9F"/>
<path d="M132.396 230.91C38.708 230.91 -31.9463 165.143 -31.9463 77.9273C-31.9463 39.2796 -14.9409 -0.531075 13.5308 -28.5694C38.9669 -69.3993 84.6311 -94.7529 132.698 -94.7529C132.712 -94.7529 132.741 -94.7529 132.755 -94.7529C140.409 -94.7529 148.106 -94.1212 155.645 -92.8866C192.591 -86.8712 231.421 -60.6131 252.296 -27.55C280.135 0.4021 296.738 39.8107 296.738 77.8986C296.752 165.129 226.098 230.91 132.396 230.91ZM132.77 -93.748C132.755 -93.748 132.727 -93.748 132.712 -93.748C84.962 -93.748 39.6144 -68.5523 14.3653 -27.9807L14.3365 -27.9233L14.2933 -27.8802C-14.0202 -0.028595 -30.9392 39.5236 -30.9392 77.9273C-30.9392 164.569 39.2835 229.905 132.396 229.905C225.522 229.905 295.745 164.569 295.759 77.9273C295.759 40.0835 279.243 0.91893 251.563 -26.8466L251.52 -26.8896L251.491 -26.9327C230.774 -59.7948 192.188 -85.895 155.501 -91.8673C148.006 -93.1163 140.366 -93.748 132.77 -93.748Z" fill="#384C9F"/>
<path d="M132.396 227.939C40.3914 227.939 -28.9824 163.449 -28.9824 77.9272C-28.9824 39.9111 -12.2216 0.803963 15.8617 -26.7031C40.7223 -66.844 85.4945 -91.7812 132.698 -91.7812H132.712C140.208 -91.7812 147.761 -91.1639 155.156 -89.9436C191.454 -84.0287 229.537 -58.2013 249.952 -25.6695C277.388 1.7515 293.774 40.471 293.774 77.9272C293.774 98.8734 289.645 118.901 281.502 137.449C273.589 155.438 262.181 171.446 247.578 185.013C232.975 198.579 215.768 209.189 196.403 216.525C176.463 224.105 154.926 227.939 132.396 227.939ZM132.712 -90.7763H132.698C85.811 -90.7763 41.3697 -65.9969 16.6961 -26.1289L16.6673 -26.0714L16.6242 -26.0284C-11.3009 1.29208 -27.9753 40.1552 -27.9753 77.9128C-27.9753 162.86 40.9669 226.919 132.396 226.919C154.811 226.919 176.219 223.1 196.044 215.578C215.279 208.284 232.385 197.747 246.887 184.266C261.389 170.785 272.726 154.893 280.581 137.033C288.681 118.614 292.782 98.7298 292.782 77.9128C292.782 40.7007 276.496 2.22525 249.218 -25.0091L249.175 -25.0521L249.146 -25.0952C228.889 -57.4261 191.051 -83.0956 155.012 -88.9674C147.66 -90.159 140.165 -90.7763 132.712 -90.7763Z" fill="#384C9F"/>
<path d="M132.396 224.966C42.089 224.966 -26.0044 161.755 -26.0044 77.9124C-26.0044 40.5568 -9.47379 2.15306 18.2211 -24.8372C42.5206 -64.3033 86.3721 -88.8242 132.712 -88.8242H132.727C140.064 -88.8242 147.445 -88.2212 154.681 -87.0297C190.332 -81.2153 227.666 -55.8329 247.621 -23.8179C274.668 3.07188 290.811 41.1023 290.811 77.9124C290.811 161.755 222.703 224.966 132.396 224.966ZM132.712 -87.8049H132.698C86.6886 -87.8049 43.1393 -63.4562 19.0411 -24.2486L19.0124 -24.1912L18.9692 -24.1481C-8.55303 2.65554 -24.9973 40.8152 -24.9973 77.9268C-24.9973 161.18 42.6645 223.976 132.396 223.976C222.142 223.976 289.803 161.195 289.803 77.9268C289.803 41.3607 273.748 3.57436 246.873 -23.1288L246.83 -23.1718L246.801 -23.2149C227.004 -55.029 189.915 -80.2534 154.523 -86.0247C147.33 -87.2163 139.992 -87.8049 132.712 -87.8049Z" fill="#384C9F"/>
<path d="M132.396 222.009C43.7866 222.009 -23.0264 160.061 -23.0264 77.9269C-23.0264 41.2029 -6.74034 3.48837 20.5661 -22.9563C44.2902 -61.7476 87.264 -85.8379 132.712 -85.8379H132.727C139.906 -85.8379 147.128 -85.2493 154.206 -84.072C189.21 -78.3725 225.81 -53.4065 245.29 -21.937C271.935 4.42155 287.832 41.7629 287.832 77.9413C287.832 98.0691 283.862 117.307 276.006 135.109C268.396 152.394 257.39 167.756 243.334 180.791C229.278 193.827 212.689 204.006 194.044 211.069C174.837 218.319 154.091 222.009 132.396 222.009ZM132.727 -84.8473H132.712C87.5805 -84.8473 44.9232 -60.915 21.3861 -22.3964L21.3574 -22.339L21.3142 -22.2959C-5.81958 3.9765 -22.0193 41.4327 -22.0193 77.9126C-22.0193 159.472 44.3621 220.99 132.396 220.99C153.976 220.99 174.593 217.329 193.684 210.093C212.2 203.087 228.673 192.966 242.643 180.03C256.613 167.095 267.518 151.834 275.086 134.678C282.883 116.991 286.825 97.8969 286.825 77.9126C286.825 41.9782 271.014 4.89532 244.528 -21.291L244.485 -21.334L244.456 -21.3915C225.134 -52.6456 188.793 -77.4537 154.034 -83.1245C147.013 -84.2587 139.848 -84.8473 132.727 -84.8473Z" fill="#384C9F"/>
<path d="M132.396 219.037C45.4844 219.037 -20.0625 158.366 -20.0625 77.9265C-20.0625 41.8486 -4.00667 4.83747 22.8969 -21.0904C46.0455 -59.207 88.1273 -82.8809 132.698 -82.8809H132.712C139.719 -82.8809 146.783 -82.3066 153.703 -81.1581C188.059 -75.559 223.911 -51.0237 242.931 -20.0854C269.187 5.74194 284.869 42.3798 284.869 77.9265C284.869 158.366 219.322 219.037 132.396 219.037ZM132.727 -81.8759H132.712C88.4582 -81.8759 46.6929 -58.3599 23.7314 -20.5161L23.7026 -20.4587L23.6594 -20.4156C-3.07152 5.32559 -19.041 42.0926 -19.041 77.9265C-19.041 157.806 46.0743 218.032 132.41 218.032C218.761 218.032 283.876 157.792 283.876 77.9265C283.876 42.6238 268.295 6.24441 242.212 -19.4107L242.168 -19.4538L242.14 -19.5112C223.278 -50.2341 187.685 -74.6115 153.574 -80.1675C146.682 -81.3016 139.676 -81.8759 132.727 -81.8759Z" fill="#384C9F"/>
<path d="M132.396 216.066C47.182 216.066 -17.0845 156.673 -17.0845 77.9127C-17.0845 42.4665 -1.25883 6.15885 25.2419 -19.2378C47.8294 -56.6796 88.9905 -79.9229 132.712 -79.9229H132.727C139.575 -79.9229 146.481 -79.3629 153.228 -78.2431C186.937 -72.7589 222.041 -48.64 240.586 -18.2329C266.453 7.07767 281.876 43.0264 281.876 77.9271C281.891 156.687 217.624 216.066 132.396 216.066ZM132.727 -78.9179C132.712 -78.9179 132.712 -78.9179 132.727 -78.9179C89.3357 -78.9179 48.4768 -55.8326 26.0764 -18.6636L26.0476 -18.6062L26.0044 -18.5631C-0.352459 6.66133 -16.0774 42.7249 -16.0774 77.9271C-16.0774 156.113 47.7575 215.075 132.396 215.075C217.049 215.075 280.883 156.113 280.883 77.9271C280.883 43.2705 265.547 7.58015 239.838 -17.5581L239.794 -17.6012L239.766 -17.6586C221.365 -47.8504 186.52 -71.7971 153.07 -77.2525C146.366 -78.358 139.517 -78.9179 132.727 -78.9179Z" fill="#384C9F"/>
<path d="M132.396 213.108C48.8796 213.108 -14.1064 154.993 -14.1064 77.9272C-14.1064 43.1127 1.47462 7.50851 27.5869 -17.357C49.5989 -54.1097 89.868 -76.9365 132.712 -76.9365C132.712 -76.9365 132.712 -76.9365 132.727 -76.9365C139.417 -76.9365 146.15 -76.391 152.739 -75.2999C185.815 -69.9162 220.171 -46.2279 238.255 -16.3664C263.72 8.42734 278.927 43.6726 278.927 77.9272C278.912 154.993 215.926 213.108 132.396 213.108ZM132.712 -75.9459C90.1989 -75.9459 50.232 -53.277 28.407 -16.7971L28.3782 -16.7396L28.335 -16.6966C2.39538 7.98228 -13.0994 43.3568 -13.0994 77.9129C-13.0994 154.404 49.4551 212.089 132.396 212.089C215.351 212.089 277.92 154.404 277.92 77.9129C277.92 43.9023 262.814 8.9011 237.507 -15.706L237.464 -15.749L237.435 -15.8065C219.509 -45.467 185.412 -68.983 152.595 -74.3236C146.035 -75.4004 139.345 -75.9459 132.712 -75.9459Z" fill="#384C9F"/>
<path d="M132.396 210.136C50.563 210.136 -11.1426 153.299 -11.1426 77.9268C-11.1426 43.7583 4.20829 8.84328 29.9321 -15.491C51.3687 -51.569 90.7457 -73.9795 132.712 -73.9795H132.727C139.244 -73.9795 145.819 -73.4339 152.264 -72.3859C184.692 -67.1027 218.286 -43.8452 235.91 -14.5148C260.986 9.74773 275.963 44.3039 275.963 77.9268C275.949 153.299 214.229 210.136 132.396 210.136ZM132.727 -72.9745H132.712C91.0766 -72.9745 52.0161 -50.7219 30.7666 -14.9168L30.7378 -14.8593L30.6803 -14.8163C5.11467 9.34575 -10.1355 44.0024 -10.1355 77.9268C-10.1355 152.724 51.1385 209.131 132.396 209.131C213.653 209.131 274.942 152.724 274.942 77.9268C274.942 44.5479 260.066 10.2502 235.147 -13.84L235.104 -13.8831L235.076 -13.9405C217.61 -43.0699 184.261 -66.1552 152.092 -71.3953C145.704 -72.4433 139.187 -72.9745 132.727 -72.9745Z" fill="#384C9F"/>
<path d="M132.396 207.164C52.2606 207.164 -8.16455 151.604 -8.16455 77.9121C-8.16455 44.3896 6.95613 10.1637 32.2772 -13.6395C53.1382 -49.0426 91.6233 -71.0225 132.712 -71.0225H132.727C139.086 -71.0225 145.488 -70.4913 151.775 -69.4576C183.556 -64.2749 216.416 -41.448 233.551 -12.6632C258.239 11.0681 272.971 44.9352 272.971 77.9121C272.971 151.604 212.531 207.164 132.396 207.164ZM132.727 -70.0175H132.712C91.9542 -70.0175 53.7856 -48.1956 33.1116 -13.0652L33.0684 -13.0078L33.0109 -12.9647C7.8625 10.6805 -7.15746 44.648 -7.15746 77.9264C-7.15746 151.03 52.8361 206.173 132.396 206.173C211.97 206.173 271.964 151.044 271.964 77.9264C271.964 45.1792 257.318 11.5706 232.802 -11.9741L232.759 -12.0172L232.73 -12.0746C215.739 -40.6584 183.139 -63.313 151.617 -68.4526C145.387 -69.4863 139.028 -70.0175 132.727 -70.0175Z" fill="#384C9F"/>
<path d="M132.396 204.206C53.9582 204.206 -5.18652 149.91 -5.18652 77.9263C-5.18652 45.0499 9.70396 11.5274 34.6365 -11.7589C54.9221 -46.4873 92.5008 -68.0508 132.712 -68.0508C132.712 -68.0508 132.712 -68.0508 132.727 -68.0508C138.928 -68.0508 145.171 -67.5339 151.286 -66.529C182.419 -61.4611 214.531 -39.065 231.205 -10.7826C255.505 12.4319 270.007 45.5811 270.007 77.9407C269.993 149.924 210.833 204.206 132.396 204.206ZM132.727 -67.0458C132.712 -67.0458 132.712 -67.0458 132.727 -67.0458C92.8317 -67.0458 55.5695 -45.6402 35.471 -11.1846L35.4278 -11.1272L35.3703 -11.0697C10.596 12.0155 -4.19382 45.294 -4.19382 77.9263C-4.19382 149.35 54.5193 203.201 132.381 203.201C210.258 203.201 268.986 149.35 268.986 77.9263C268.986 45.8251 254.57 12.9056 230.443 -10.1222L230.385 -10.1653L230.357 -10.2227C213.84 -38.2754 181.988 -60.5136 151.113 -65.5384C145.056 -66.5433 138.87 -67.0458 132.727 -67.0458Z" fill="#384C9F"/>
<path d="M132.396 201.235C55.656 201.235 -2.22266 148.216 -2.22266 77.9269C-2.22266 45.6821 12.4233 12.8488 36.9818 -9.89195C56.6919 -43.9313 93.3642 -65.0928 132.712 -65.0928H132.727C138.769 -65.0928 144.841 -64.5903 150.797 -63.6141C181.283 -58.6323 212.646 -36.6669 228.846 -8.94442C252.757 13.7389 267.029 46.199 267.029 77.9125C267.029 95.1404 263.576 111.607 256.786 126.84C250.182 141.627 240.658 154.777 228.486 165.947C216.301 177.102 201.942 185.816 185.8 191.86C169.155 198.077 151.185 201.235 132.396 201.235ZM132.727 -64.0878C132.712 -64.0878 132.712 -64.0878 132.727 -64.0878C93.7095 -64.0878 57.3393 -43.0986 37.8162 -9.33205L37.773 -9.26027L37.7155 -9.20284C13.344 13.3513 -1.21557 45.9262 -1.21557 77.9269C-1.21557 147.657 56.2171 200.23 132.396 200.23C169.255 200.23 203.137 187.797 227.796 165.215C239.881 154.146 249.319 141.11 255.865 126.452C262.612 111.335 266.022 95.0111 266.022 77.9269C266.022 46.4574 251.851 14.2414 228.098 -8.25531L228.04 -8.29838L227.997 -8.3558C211.956 -35.8773 180.851 -57.6705 150.624 -62.5947C144.726 -63.5853 138.697 -64.0878 132.727 -64.0878Z" fill="#384C9F"/>
<path d="M132.396 198.263C57.3536 198.263 0.755371 146.522 0.755371 77.9124C0.755371 46.2994 15.1711 14.1838 39.3412 -8.02572L39.5138 -8.34156C58.6772 -41.5051 94.3856 -62.1211 132.712 -62.1211C138.597 -62.1211 144.51 -61.633 150.308 -60.6854C180.161 -55.8186 210.762 -34.2838 226.487 -7.09255C250.009 15.0596 264.051 46.8305 264.051 77.9124C264.051 146.537 207.453 198.263 132.396 198.263ZM132.712 -61.1161C94.7597 -61.1161 59.3822 -40.7012 40.3914 -7.83909L40.1324 -7.39404L40.0749 -7.33661C16.0775 14.7007 1.76246 46.5721 1.76246 77.9268C1.76246 145.962 57.9291 197.273 132.396 197.273C206.877 197.273 263.044 145.962 263.044 77.9268C263.044 47.089 249.103 15.562 225.738 -6.40343L225.681 -6.46086L225.638 -6.51829C210.071 -33.5085 179.715 -54.871 150.135 -59.6948C144.395 -60.628 138.525 -61.1161 132.712 -61.1161Z" fill="#384C9F"/>
<path d="M132.396 195.306C59.037 195.306 3.71924 144.842 3.71924 77.9267C3.71924 46.9453 17.9048 15.5332 41.672 -6.14514L42.0748 -6.86296C60.7203 -39.1221 95.4504 -59.1494 132.713 -59.1494H132.727C138.439 -59.1494 144.193 -58.6757 149.819 -57.7425C179.024 -52.9905 208.877 -31.872 224.127 -5.21196C247.261 16.409 261.087 47.4765 261.087 77.9267C261.087 94.3218 257.793 109.999 251.29 124.499C244.988 138.583 235.881 151.102 224.228 161.726C200.475 183.375 167.86 195.306 132.396 195.306ZM132.727 -58.1445C132.713 -58.1445 132.713 -58.1445 132.727 -58.1445C95.8101 -58.1445 61.4253 -38.3037 42.9668 -6.36049L42.4777 -5.51345L42.4201 -5.45603C18.8111 16.0357 4.72632 47.2037 4.72632 77.9267C4.72632 144.268 59.6125 194.301 132.396 194.301C167.615 194.301 199.986 182.471 223.552 160.979C235.09 150.456 244.111 138.037 250.369 124.097C256.814 109.712 260.08 94.1782 260.08 77.9267C260.08 47.7205 246.369 16.8971 223.394 -4.53721L223.336 -4.59464L223.293 -4.66642C208.201 -31.1111 178.607 -52.0573 149.66 -56.7662C144.078 -57.685 138.381 -58.1445 132.727 -58.1445Z" fill="#384C9F"/>
<path d="M132.396 192.334C60.7346 192.334 6.69727 143.149 6.69727 77.9272C6.69727 47.6062 20.6526 16.8833 44.0314 -4.26389C44.3191 -4.76636 44.6788 -5.38369 44.6788 -5.38369C62.7776 -36.724 96.515 -56.1914 132.713 -56.1914C132.713 -56.1914 132.713 -56.1914 132.727 -56.1914C138.28 -56.1914 143.862 -55.732 149.344 -54.8275C163.4 -52.5449 177.729 -46.4146 190.793 -37.126C203.813 -27.866 214.531 -16.1798 221.782 -3.35942C244.528 17.7303 258.109 48.1087 258.109 77.9272C258.109 143.149 204.057 192.334 132.396 192.334ZM132.713 -55.1865C96.8603 -55.1865 63.4681 -35.92 45.542 -4.88121C45.542 -4.88121 45.1536 -4.20646 44.8658 -3.70398L44.8227 -3.63219L44.7651 -3.57477C21.559 17.3857 7.70435 47.8503 7.70435 77.9272C7.70435 142.575 61.3101 191.329 132.396 191.329C203.482 191.329 257.102 142.575 257.102 77.9272C257.102 48.3671 243.621 18.2328 221.02 -2.67031L220.962 -2.72773L220.919 -2.79952C206.316 -28.713 177.47 -49.2141 149.171 -53.8369C143.747 -54.727 138.208 -55.1865 132.713 -55.1865Z" fill="#384C9F"/>
<path d="M132.396 189.377C62.4322 189.377 9.67529 141.469 9.67529 77.9271C9.67529 48.2378 23.4004 18.2183 46.3764 -2.38328C46.6353 -2.84269 47.2396 -3.90507 47.2396 -3.90507C64.8204 -34.3265 97.5651 -53.2197 132.698 -53.2197H132.712C138.093 -53.2197 143.531 -52.7747 148.84 -51.8989C162.58 -49.6593 176.564 -43.6726 189.282 -34.5706C201.986 -25.4973 212.387 -14.0695 219.408 -1.49318C241.78 19.0654 255.145 48.7403 255.145 77.9271C255.131 141.455 202.36 189.377 132.396 189.377ZM48.1172 -3.4026C48.1172 -3.4026 47.441 -2.22536 47.2108 -1.82338L47.1677 -1.75159L47.1101 -1.69416C24.2924 18.7208 10.668 48.4819 10.668 77.9271C10.668 140.895 62.9933 188.372 132.382 188.372C201.784 188.372 254.109 140.895 254.109 77.9271C254.109 48.9987 240.845 19.5678 218.646 -0.804062L218.588 -0.861488L218.545 -0.93327C204.403 -26.3156 176.334 -46.386 148.668 -50.894C143.402 -51.7554 138.036 -52.2004 132.698 -52.2004H132.684C97.9248 -52.2148 65.511 -33.5082 48.1172 -3.4026Z" fill="#384C9F"/>
<path d="M132.396 186.405C64.13 186.405 12.6392 139.775 12.6392 77.927C12.6392 48.8837 26.1197 19.5677 48.7216 -0.502697C49.0094 -1.01953 49.2971 -1.52201 49.5848 -2.02449L49.815 -2.42647C66.8636 -31.9291 98.6299 -50.248 132.713 -50.248C132.713 -50.248 132.713 -50.248 132.727 -50.248C137.949 -50.248 143.215 -49.8174 148.366 -48.9703C161.789 -46.7881 175.427 -40.9163 187.815 -32.0153C200.159 -23.1429 210.273 -11.9448 217.049 0.358696C239.046 20.386 252.167 49.3719 252.167 77.927C252.153 139.761 200.677 186.405 132.396 186.405ZM132.713 -49.2431C98.9896 -49.2431 67.5541 -31.1108 50.6926 -1.92399L50.4624 -1.52201C50.1603 -1.00518 49.8582 -0.473984 49.5704 0.0572052L49.5273 0.12899L49.4697 0.186413C27.0405 20.0702 13.6462 49.1278 13.6462 77.927C13.6462 139.201 64.6911 185.4 132.396 185.4C200.101 185.4 251.16 139.186 251.16 77.9126C251.16 49.6159 238.126 20.8742 216.301 1.03345L216.243 0.976025L216.2 0.90424C202.547 -23.9325 175.212 -43.5866 148.207 -47.9797C143.1 -48.8268 137.892 -49.2431 132.713 -49.2431Z" fill="#384C9F"/>
<path d="M132.396 183.433C65.8276 183.433 15.6172 138.066 15.6172 77.9122C15.6172 49.515 28.8676 20.9025 51.081 1.36323C51.4551 0.688477 51.8147 0.0424347 52.16 -0.560539L52.3902 -0.962524C68.9208 -29.5464 99.6945 -47.291 132.713 -47.291H132.727C137.791 -47.291 142.884 -46.8747 147.876 -46.0564C160.997 -43.9172 174.291 -38.189 186.333 -29.4746C198.346 -20.7889 208.129 -9.83485 214.661 2.21027C236.284 21.7064 249.189 49.9888 249.189 77.9122C249.189 107.013 237.306 133.773 215.74 153.241C194.188 172.723 164.58 183.433 132.396 183.433ZM132.727 -46.2861C132.713 -46.2861 132.713 -46.2861 132.727 -46.2861C100.054 -46.2861 69.6114 -28.728 53.2822 -0.460049L53.052 -0.0580635C52.6923 0.559269 52.3183 1.23402 51.9298 1.92314L51.8867 1.99492L51.8147 2.05235C29.7739 21.4193 16.6243 49.7734 16.6243 77.9266C16.6243 137.506 66.3887 182.442 132.396 182.442C164.335 182.442 193.699 171.818 215.063 152.509C236.414 133.214 248.182 106.726 248.182 77.9122C248.182 50.2472 235.378 22.1945 213.927 2.89938L213.869 2.84195L213.826 2.77017C200.676 -21.5354 174.104 -40.7588 147.718 -45.0514C142.769 -45.8697 137.734 -46.2861 132.727 -46.2861Z" fill="#384C9F"/>
<path d="M132.396 180.475C67.511 180.475 18.5811 136.386 18.5811 77.9264C18.5811 50.1609 31.6012 22.2518 53.4262 3.25817C53.8434 2.48291 54.2751 1.70766 54.7211 0.932411L54.9656 0.516071C70.9639 -27.1346 100.745 -44.3193 132.713 -44.3193C137.619 -44.3193 142.553 -43.9173 147.387 -43.1134C160.192 -41.0317 173.14 -35.4183 184.837 -26.9049C196.504 -18.4058 206 -7.69586 212.287 4.09084C233.522 23.0415 246.211 50.6347 246.211 77.9264C246.211 136.386 197.281 180.475 132.396 180.475ZM132.713 -43.3144C101.105 -43.3144 71.6545 -26.3306 55.8576 1.01855L55.613 1.43489C55.1527 2.22449 54.7067 3.02846 54.2751 3.81807L54.2319 3.90421L54.16 3.96164C32.522 22.7687 19.5881 50.4193 19.5881 77.9264C19.5881 135.812 68.0865 179.47 132.396 179.47C196.706 179.47 245.204 135.812 245.204 77.9264C245.204 50.8931 232.63 23.5439 211.553 4.77995L211.481 4.72253L211.438 4.63639C198.763 -19.138 172.953 -37.9307 147.215 -42.1228C142.438 -42.9124 137.561 -43.3144 132.713 -43.3144Z" fill="#384C9F"/>
<path d="M132.396 177.504C69.2087 177.504 21.5591 134.693 21.5591 77.9273C21.5591 50.8078 34.3635 23.6022 55.8 5.15409C56.3036 4.20656 56.8215 3.3021 57.3106 2.44071L57.5552 2.01001C73.0068 -24.7362 101.809 -41.3467 132.713 -41.3467C132.727 -41.3467 132.741 -41.3467 132.756 -41.3467C137.475 -41.3467 142.237 -40.9591 146.898 -40.1982C159.386 -38.1595 172.003 -32.6753 183.355 -24.3486C194.677 -16.0505 203.856 -5.57023 209.913 5.9437C230.788 24.3631 243.233 51.2672 243.233 77.9273C243.233 134.693 195.584 177.504 132.396 177.504ZM132.756 -40.3561C132.741 -40.3561 132.727 -40.3561 132.713 -40.3561C102.169 -40.3561 73.7118 -23.9322 58.4328 2.49813L58.1882 2.92883C57.6703 3.80458 57.1524 4.73775 56.6345 5.69964L56.5913 5.78578L56.5194 5.8432C35.2555 24.1191 22.5662 51.0662 22.5662 77.9273C22.5662 134.119 69.7841 176.499 132.396 176.499C195.008 176.499 242.24 134.119 242.24 77.9273C242.24 51.5113 229.882 24.8656 209.194 6.63282L209.122 6.57539L209.079 6.48925C196.893 -16.7396 171.845 -35.116 146.74 -39.2076C142.136 -39.9685 137.432 -40.3561 132.756 -40.3561Z" fill="#384C9F"/>
<path d="M132.396 174.532C70.9062 174.532 24.5371 132.999 24.5371 77.9126C24.5371 51.4248 37.1113 24.937 58.1594 7.02004C58.7061 5.98637 59.296 4.93835 59.8858 3.90467L60.1304 3.47398C75.0497 -22.3534 102.86 -38.3896 132.698 -38.3896C132.698 -38.3896 132.698 -38.3896 132.713 -38.3896C137.288 -38.3896 141.891 -38.0164 146.409 -37.2698C158.595 -35.2886 170.852 -29.9337 181.873 -21.7935C192.85 -13.6821 201.727 -3.44587 207.539 7.80965C228.04 25.6835 240.269 51.8985 240.269 77.9269C240.269 132.999 193.886 174.532 132.396 174.532ZM132.727 -37.3847C132.713 -37.3847 132.713 -37.3847 132.727 -37.3847C103.234 -37.3847 75.769 -21.5351 61.0224 3.97646L60.7778 4.40715C60.1736 5.45518 59.5837 6.53192 59.0226 7.57994L58.9795 7.66608L58.9075 7.72351C38.0033 25.4538 25.5442 51.6975 25.5442 77.9269C25.5442 132.439 71.4817 173.541 132.396 173.541C193.325 173.541 239.262 132.439 239.262 77.9413C239.262 52.1713 227.134 26.2147 206.805 8.51312L206.733 8.45569L206.69 8.36955C195.008 -14.3281 170.723 -32.2594 146.251 -36.2505C141.791 -37.0114 137.244 -37.3847 132.727 -37.3847Z" fill="#384C9F"/>
<path d="M132.396 171.574C72.604 171.574 27.501 131.319 27.501 77.9268C27.501 52.085 39.845 26.2864 60.519 8.92933C61.152 7.70903 61.8138 6.51744 62.4612 5.39762L62.7202 4.95258C77.1072 -19.956 103.924 -35.418 132.713 -35.418C132.713 -35.418 132.713 -35.418 132.727 -35.418C137.144 -35.418 141.589 -35.0591 145.934 -34.3412C157.804 -32.4031 169.716 -27.1917 180.391 -19.2382C191.023 -11.3277 199.583 -1.33558 205.151 9.66151C225.278 27.0042 237.291 52.5157 237.291 77.9268C237.291 131.319 192.203 171.574 132.396 171.574ZM132.713 -34.413C104.284 -34.413 77.7977 -19.1377 63.5834 5.45506L63.3245 5.9001C62.6771 7.03427 62.0153 8.24022 61.3678 9.47488L61.3247 9.56102L61.2527 9.61845C40.7514 26.8032 28.5081 52.3435 28.5081 77.9268C28.5081 130.744 73.1651 170.569 132.396 170.569C191.627 170.569 236.284 130.744 236.284 77.9268C236.284 52.7742 224.372 27.521 204.417 10.365L204.345 10.2932L204.302 10.2071C193.123 -11.9594 169.601 -29.46 145.776 -33.3506C141.46 -34.0541 137.072 -34.413 132.713 -34.413Z" fill="#384C9F"/>
<path d="M132.396 168.603C74.2872 168.603 30.479 129.611 30.479 77.913C30.479 52.7173 42.5928 27.6365 62.8928 10.8106C63.569 9.4898 64.2883 8.15464 65.0364 6.87691L65.2954 6.43186C79.15 -17.5579 104.989 -32.46 132.713 -32.46C132.713 -32.46 132.713 -32.46 132.727 -32.46C136.971 -32.46 141.258 -32.1154 145.445 -31.4119C156.998 -29.5312 168.579 -24.4347 178.909 -16.6821C189.196 -8.95833 197.439 0.789753 202.763 11.5284C222.53 28.3399 234.328 53.148 234.328 77.9274C234.328 129.625 190.505 168.603 132.396 168.603ZM132.713 -31.455C105.334 -31.455 79.8406 -16.7539 66.1586 6.93434L65.8997 7.37939C65.1515 8.68584 64.4178 10.021 63.7272 11.3562L63.6841 11.4423L63.5977 11.5141C43.4992 28.1676 31.4861 52.9901 31.4861 77.9274C31.4861 129.051 74.8627 167.613 132.396 167.613C189.929 167.613 233.32 129.065 233.32 77.9274C233.32 53.4064 221.624 28.8424 202.029 12.2319L201.943 12.1601L201.899 12.0596C191.224 -9.57566 168.464 -26.6456 145.272 -30.4213C141.143 -31.1104 136.914 -31.455 132.713 -31.455Z" fill="#384C9F"/>
<path d="M132.396 165.646C75.9848 165.646 33.457 127.931 33.457 77.9272C33.457 53.3632 45.3406 29.0002 65.2666 12.7199C66.0147 11.2268 66.806 9.7768 67.6116 8.36986L67.8706 7.91045C81.1929 -15.1605 106.039 -29.4883 132.713 -29.4883C136.798 -29.4883 140.927 -29.1581 144.956 -28.4833C156.206 -26.6457 167.428 -21.6927 177.413 -14.1268C187.354 -6.58963 195.296 2.91439 200.36 13.3946C219.768 29.6462 231.349 53.7652 231.349 77.9272C231.349 127.931 188.807 165.646 132.396 165.646ZM132.713 -28.4833C106.399 -28.4833 81.8979 -14.3422 68.7482 8.41293L68.4892 8.87234C67.6692 10.2793 66.8779 11.758 66.1154 13.2654L66.0722 13.3659L65.9859 13.4377C46.2326 29.517 34.4497 53.6216 34.4497 77.9272C34.4497 127.357 76.5603 164.641 132.382 164.641C188.217 164.641 230.328 127.357 230.328 77.9272C230.328 54.0236 218.847 30.1631 199.626 14.0838L199.54 14.012L199.497 13.9115C194.504 3.54607 186.649 -5.88616 176.794 -13.3372C166.939 -20.8026 155.861 -25.6982 144.783 -27.5071C140.812 -28.1531 136.741 -28.4833 132.713 -28.4833Z" fill="#384C9F"/>
<path d="M132.396 162.674C77.6826 162.674 36.4209 126.237 36.4209 77.9271C36.4209 54.0091 48.0887 30.3496 67.6262 14.6148C68.4175 13.0069 69.2807 11.4133 70.1727 9.86282L70.4316 9.40342C83.236 -12.7487 107.09 -26.5166 132.698 -26.5166C132.698 -26.5166 132.698 -26.5166 132.713 -26.5166C136.64 -26.5166 140.597 -26.1864 144.467 -25.5547C155.415 -23.7745 166.292 -18.9364 175.931 -11.5715C185.527 -4.23528 193.138 5.03903 197.957 15.2465C217.006 30.9669 228.371 54.3968 228.371 77.9271C228.371 126.237 187.11 162.674 132.396 162.674ZM132.713 -25.526C107.464 -25.526 83.941 -11.9591 71.3236 9.89154L71.0647 10.3509C70.1583 11.9158 69.2951 13.5237 68.5038 15.146L68.4606 15.2465L68.3743 15.3183C48.9807 30.8664 37.428 54.2819 37.428 77.9271C37.428 125.677 78.2581 161.669 132.396 161.669C186.534 161.669 227.364 125.663 227.364 77.9127C227.364 54.6408 216.099 31.4837 197.224 15.9356L197.137 15.8639L197.094 15.7634C192.347 5.65636 184.822 -3.51745 175.312 -10.7819C165.803 -18.0463 155.084 -22.827 144.294 -24.5785C140.482 -25.1958 136.583 -25.526 132.713 -25.526Z" fill="#384C9F"/>
<path d="M132.396 159.701C79.3802 159.701 39.3989 124.542 39.3989 77.912C39.3989 54.6258 50.8365 31.684 70.0143 16.4948C70.9063 14.6716 71.8271 12.9344 72.7622 11.3265L73.0356 10.8527C85.3077 -10.3806 108.169 -23.5742 132.713 -23.5742C132.713 -23.5742 132.713 -23.5742 132.727 -23.5742C136.496 -23.5742 140.28 -23.2584 143.992 -22.6554C154.624 -20.9183 165.155 -16.2093 174.449 -9.03106C183.7 -1.88151 190.994 7.14874 195.555 17.0978C214.243 32.2727 225.408 54.999 225.408 77.912C225.408 124.542 185.412 159.701 132.396 159.701ZM132.713 -22.5549C108.514 -22.5549 85.9838 -9.56225 73.8988 11.3552L73.6255 11.829C72.6903 13.4513 71.7552 15.2027 70.8632 17.0404L70.82 17.1409L70.7337 17.2127C51.7429 32.2152 40.406 54.8985 40.406 77.912C40.406 123.968 79.9557 158.696 132.396 158.696C184.851 158.696 224.401 123.968 224.401 77.912C224.401 55.2574 213.351 32.7895 194.835 17.8013L194.749 17.7295L194.706 17.629C190.217 7.78043 182.995 -1.16369 173.845 -8.2271C164.68 -15.3049 154.307 -19.942 143.834 -21.6504C140.165 -22.2534 136.424 -22.5549 132.713 -22.5549Z" fill="#384C9F"/>
<path d="M132.396 156.744C81.0776 156.744 42.3623 122.862 42.3623 77.9265C42.3623 55.3581 53.5266 33.1629 72.244 18.5193C72.3447 18.3757 72.4454 18.2321 72.5461 18.0886C73.4381 16.2366 74.3733 14.4564 75.3372 12.8054L75.6105 12.3316C87.3359 -7.96851 109.218 -20.5879 132.712 -20.5879C132.712 -20.5879 132.712 -20.5879 132.727 -20.5879C136.323 -20.5879 139.949 -20.2864 143.503 -19.7121C153.832 -18.0324 164.018 -13.4527 172.967 -6.46107C181.858 0.487482 188.836 9.28802 193.152 18.9787C211.481 33.608 222.429 55.6309 222.429 77.9265C222.429 122.862 183.728 156.744 132.396 156.744ZM132.712 -19.5829C109.578 -19.5829 88.0265 -7.16454 76.4738 12.8484L76.2004 13.3222C75.2509 14.9589 74.3157 16.7247 73.4381 18.5767L73.3949 18.6485C73.2798 18.8208 73.1504 18.993 73.0353 19.1653L72.9921 19.2371L72.9346 19.2802C54.4186 33.7085 43.3694 55.6452 43.3694 77.9265C43.3694 122.288 81.6387 155.739 132.396 155.739C183.153 155.739 221.422 122.288 221.422 77.9265C221.422 55.9036 210.574 34.1248 192.404 19.6965L192.303 19.6247L192.26 19.5099C188.03 9.91971 181.139 1.20531 172.334 -5.67147C163.529 -12.5482 153.501 -17.0705 143.33 -18.7215C139.834 -19.2958 136.266 -19.5829 132.712 -19.5829Z" fill="#384C9F"/>
<path d="M132.396 153.772C82.7608 153.772 45.3403 121.168 45.3403 77.9264C45.3403 56.0902 56.2169 34.6559 74.4451 20.5865C74.6609 20.2563 74.8911 19.9261 75.1213 19.5959C75.9701 17.8013 76.9053 16.0211 77.898 14.3127L78.1713 13.8246C89.3788 -5.57109 110.269 -17.6162 132.698 -17.6162C136.136 -17.6162 139.604 -17.3291 142.999 -16.7692C163.299 -13.4672 182.448 1.65024 190.692 20.8593C208.704 34.9287 219.451 56.2625 219.451 77.9408C219.451 121.168 182.031 153.772 132.396 153.772ZM132.712 -16.6113C110.643 -16.6113 90.0837 -4.75277 79.0489 14.3271L78.7756 14.8152C77.7829 16.5236 76.8621 18.2895 76.0133 20.0697L75.9989 20.1127L75.9701 20.1414C75.7256 20.5004 75.481 20.8593 75.2364 21.2038L75.1932 21.2756L75.1213 21.3187C57.0945 35.2014 46.3474 56.363 46.3474 77.9121C46.3474 120.58 83.3362 152.753 132.396 152.753C181.455 152.753 218.444 120.58 218.458 77.9121C218.458 56.5065 207.812 35.4311 189.987 21.5484L189.886 21.4622L189.828 21.3474C181.743 2.39678 162.867 -12.534 142.841 -15.7929C139.503 -16.3241 136.093 -16.6113 132.712 -16.6113Z" fill="#384C9F"/>
<path d="M132.396 150.814C84.4589 150.814 48.3188 119.474 48.3188 77.9263C48.3188 56.8222 58.9076 36.1488 76.6611 22.625C77.0064 22.1082 77.3661 21.5913 77.7114 21.0889C78.5746 19.2512 79.5097 17.471 80.4881 15.7913L80.7758 15.3032C91.4509 -3.17367 111.348 -14.6445 132.713 -14.6445C132.713 -14.6445 132.713 -14.6445 132.727 -14.6445C136.007 -14.6445 139.302 -14.3718 142.539 -13.8406C162.048 -10.6534 180.377 3.9041 188.146 22.4097L188.376 22.8116C205.985 36.3355 216.502 56.9371 216.502 77.955C216.488 119.474 180.333 150.814 132.396 150.814ZM132.713 -13.6539C111.693 -13.6539 92.1271 -2.3697 81.639 15.7913L81.3513 16.2794C80.3874 17.9448 79.4522 19.725 78.6034 21.5339L78.589 21.577L78.5602 21.62C78.1861 22.1512 77.8121 22.6968 77.4524 23.2423L77.4093 23.3141L77.3373 23.3715C59.7996 36.7087 49.3259 57.095 49.3259 77.912C49.3259 118.885 85.0343 149.795 132.396 149.795C179.758 149.795 215.481 118.9 215.481 77.912C215.481 57.1812 205.079 36.838 187.671 23.5151L187.599 23.4577L187.225 22.7973C179.585 4.59321 161.558 -9.7346 142.352 -12.8643C139.172 -13.3955 135.935 -13.6539 132.713 -13.6539Z" fill="#384C9F"/>
<path d="M132.396 147.843C86.1562 147.843 51.2822 117.78 51.2822 77.9267C51.2822 57.5548 61.5833 37.6567 78.8476 24.6927C79.308 23.9893 79.7828 23.2858 80.2719 22.5967C81.1064 20.7877 82.0415 19.0075 83.0342 17.2848L83.3219 16.7823C89.163 6.704 97.8096 -1.26387 108.341 -6.23123C118.872 -11.1986 130.526 -12.8352 142.021 -10.9258C160.666 -7.89658 178.118 6.02925 185.455 23.7021L186.074 24.7789C203.266 37.7572 213.509 57.6122 213.509 77.9267C213.509 117.78 178.635 147.843 132.396 147.843ZM132.669 -10.6961C124.44 -10.6961 116.326 -8.88718 108.787 -5.32676C98.4282 -0.445547 89.9399 7.37876 84.2139 17.2704L83.9262 17.7729C82.9335 19.4813 82.0127 21.2472 81.1783 23.0417L81.1639 23.0848L81.1351 23.1279C80.6316 23.8457 80.128 24.5779 79.6533 25.31L79.6101 25.3818L79.5382 25.4393C62.4897 38.2166 52.3037 57.8419 52.3037 77.9267C52.3037 117.22 86.746 146.838 132.41 146.838C178.074 146.838 212.517 117.206 212.517 77.9267C212.517 57.8993 202.388 38.3027 185.412 25.5254L185.325 25.468L184.548 24.1328C177.326 6.73271 160.177 -6.94905 141.877 -9.93521C138.798 -10.4377 135.734 -10.6961 132.669 -10.6961Z" fill="#384C9F"/>
<path d="M132.396 144.871C87.8538 144.871 54.2603 116.086 54.2603 77.9122C54.2603 58.2725 64.2736 39.1352 81.0631 26.7312C81.6674 25.7693 82.286 24.8792 82.8759 24.0752C83.7103 22.252 84.6455 20.4574 85.6382 18.749L85.9259 18.2465C91.4505 8.69939 99.6511 1.16222 109.636 -3.56108C119.62 -8.27001 130.669 -9.82052 141.56 -8.0116C159.299 -5.11158 175.873 8.15385 182.808 25.0084L183.829 26.7743C200.561 39.1926 210.546 58.2868 210.546 77.9122C210.531 116.101 176.938 144.871 132.396 144.871ZM132.669 -7.72447C124.886 -7.72447 117.189 -6.00168 110.053 -2.64226C100.255 1.98054 92.213 9.38851 86.7891 18.749L86.5014 19.2514C85.5087 20.9599 84.5879 22.7257 83.7679 24.5346L83.7535 24.5777L83.7247 24.6208C83.1205 25.4391 82.5018 26.3579 81.8688 27.3485L81.8112 27.4347L81.7393 27.4921C65.1656 39.7095 55.2673 58.5596 55.2673 77.9265C55.2673 115.526 88.4292 143.88 132.396 143.88C176.377 143.88 209.539 115.526 209.539 77.9265C209.539 58.6027 199.669 39.7669 183.139 27.5352L183.052 27.4777L181.872 25.4391C175.067 8.87167 158.81 -4.16405 141.388 -7.00664C138.481 -7.49476 135.575 -7.72447 132.669 -7.72447Z" fill="#384C9F"/>
<path d="M132.396 141.914C89.5518 141.914 57.2388 114.407 57.2388 77.9269C57.2388 59.0051 66.9787 40.6574 83.2935 28.7989C83.9841 27.6791 84.7178 26.6024 85.466 25.5974C86.3004 23.7742 87.2212 21.9796 88.2139 20.2568L88.5016 19.7543C93.6953 10.7097 101.45 3.58889 110.888 -0.861631C120.326 -5.31215 130.756 -6.77652 141.057 -5.06809C157.904 -2.31164 173.6 10.3077 180.103 26.344L181.542 28.8277C197.828 40.6861 207.554 59.0338 207.554 77.9413C207.568 114.407 175.24 141.914 132.396 141.914ZM132.67 -4.7666C125.318 -4.7666 118.052 -3.14432 111.319 0.0428295C102.068 4.40721 94.4722 11.3988 89.3648 20.2425L89.0771 20.7449C88.0844 22.4534 87.1636 24.2336 86.3436 26.0425L86.3148 26.0856L86.286 26.1286C85.5235 27.1623 84.7898 28.2534 84.0704 29.4019L84.0129 29.488L83.9265 29.5455C67.8563 41.2173 58.2315 59.2922 58.2315 77.9269C58.2315 113.833 90.1129 140.909 132.382 140.909C174.665 140.909 206.546 113.833 206.546 77.9269C206.546 59.3209 196.936 41.2317 180.851 29.5598L180.765 29.5024L179.168 26.746C172.823 10.9969 157.429 -1.39282 140.899 -4.07749C138.151 -4.5369 135.403 -4.7666 132.67 -4.7666Z" fill="#384C9F"/>
<path d="M132.396 138.942C91.2348 138.942 60.2021 112.712 60.2021 77.9265C60.2021 59.7367 69.6544 42.15 85.5088 30.8514C86.2857 29.5593 87.1489 28.296 88.0409 27.0757C88.8609 25.2524 89.7817 23.4435 90.7744 21.7207L91.0765 21.2038C95.9969 12.7048 103.291 6.00028 112.168 1.80817C121.045 -2.38393 130.871 -3.7478 140.568 -2.15423C156.537 0.45866 171.341 12.4176 177.427 27.6356L179.283 30.8514C195.123 42.15 204.575 59.7367 204.575 77.9265C204.59 112.712 173.557 138.942 132.396 138.942ZM132.669 -1.79531C125.763 -1.79531 118.93 -0.273522 112.585 2.72699C103.895 6.83296 96.745 13.3939 91.9398 21.7063L91.6376 22.2231C90.6449 23.9459 89.7385 25.7261 88.9329 27.5351L88.9041 27.5925L88.8753 27.6356C87.969 28.8559 87.1057 30.1479 86.3145 31.4544L86.2569 31.5405L86.1706 31.598C70.532 42.6955 61.2092 60.0095 61.2092 77.9121C61.2092 112.124 91.8103 137.922 132.396 137.922C172.981 137.922 203.582 112.124 203.582 77.9121C203.582 60.0095 194.245 42.6955 178.621 31.5836L178.535 31.5262L176.521 28.0232C170.55 13.1211 156.048 1.39183 140.409 -1.16363C137.834 -1.57997 135.244 -1.79531 132.669 -1.79531Z" fill="#384C9F"/>
<path d="M132.396 135.97C92.9324 135.97 63.1802 111.018 63.1802 77.9122C63.1802 60.4547 72.359 43.6288 87.7387 32.9045C88.6163 31.4114 89.5802 29.9614 90.6161 28.5832C91.4217 26.7456 92.3425 24.9367 93.3496 23.1995L93.6517 22.6827C98.2555 14.7148 105.104 8.42666 113.448 4.49297C121.778 0.559283 130.986 -0.718447 140.093 0.774631C155.156 3.2296 169.082 14.5425 174.751 28.9278L177.038 32.8902C192.432 43.6145 201.611 60.4403 201.611 77.9266C201.611 111.018 171.859 135.97 132.396 135.97ZM132.683 1.17661C126.209 1.17661 119.807 2.59791 113.865 5.41179C105.708 9.25934 99.0181 15.4039 94.5149 23.1995L94.2128 23.7164C93.2201 25.4391 92.2993 27.2337 91.5081 29.057L91.4793 29.1144L91.4505 29.1575C90.4003 30.5501 89.422 32.0288 88.5444 33.5219L88.4868 33.6224L88.4005 33.6798C73.2367 44.2175 64.1873 60.7562 64.1873 77.9266C64.1873 110.444 93.5079 134.979 132.396 134.979C171.284 134.979 200.619 110.458 200.619 77.9266C200.619 60.7418 191.555 44.1888 176.391 33.6511L176.305 33.5936L173.845 29.3298C168.291 15.246 154.667 4.16277 139.92 1.76523C137.503 1.36325 135.086 1.17661 132.683 1.17661Z" fill="#384C9F"/>
<path d="M132.396 133.012C94.6302 133.012 66.144 109.324 66.144 77.9264C66.144 61.1867 75.0496 45.1504 89.9688 34.9717L90.1271 34.6989C91.0478 33.1053 92.0837 31.5548 93.2059 30.1048C94.0116 28.2528 94.9179 26.4439 95.925 24.7067L96.2271 24.1899C100.529 16.7389 106.931 10.8671 114.714 7.19178C122.498 3.51651 131.115 2.31057 139.618 3.7175C153.789 6.0289 166.824 16.6814 172.075 30.234L174.823 34.9717C189.757 45.1361 198.662 61.201 198.662 77.9407C198.648 109.324 170.162 133.012 132.396 133.012ZM132.669 4.13384C126.627 4.13384 120.671 5.469 115.117 8.08189C107.521 11.671 101.277 17.4136 97.076 24.678L96.7738 25.1949C95.7811 26.9176 94.8748 28.7266 94.0835 30.5498L94.0547 30.6073L94.0116 30.6503C92.9038 32.086 91.8823 33.6221 90.9759 35.187L90.7026 35.6608L90.6019 35.7325C75.8984 45.7103 67.1224 61.4738 67.1224 77.912C67.1224 108.75 95.1769 131.993 132.367 131.993C169.557 131.993 197.612 108.735 197.612 77.912C197.612 61.4594 188.836 45.6816 174.118 35.7038L174.017 35.632L171.111 30.5929C166.018 17.3706 153.271 6.94772 139.431 4.69375C137.187 4.32048 134.928 4.13384 132.669 4.13384Z" fill="#384C9F"/>
<path d="M132.396 130.041C96.3278 130.041 69.1221 107.631 69.1221 77.9128C69.1221 61.9053 77.7542 46.6443 92.2131 37.0398C92.3714 36.767 92.7023 36.1784 92.7023 36.1784C93.623 34.5848 94.6589 33.0487 95.7811 31.613C96.5724 29.761 97.4787 27.9234 98.4858 26.1863L98.7879 25.6551C102.788 18.7352 108.729 13.2798 115.966 9.86291C123.217 6.44606 131.216 5.32625 139.115 6.63269C152.379 8.80053 164.536 18.7783 169.37 31.4982L172.579 37.0398C187.037 46.6443 195.67 61.9197 195.67 77.9272C195.67 107.645 168.464 130.041 132.396 130.041ZM93.5799 36.6809C93.5799 36.6809 93.1339 37.4705 93.0332 37.6428L92.9756 37.7433L92.8749 37.8151C78.6318 47.2329 70.1435 62.2211 70.1435 77.9272C70.1435 107.071 96.9176 129.051 132.41 129.051C167.917 129.051 194.677 107.071 194.677 77.9416C194.677 62.2355 186.174 47.2329 171.931 37.8151L171.83 37.7433L168.45 31.9002C163.745 19.4961 151.89 9.7337 138.956 7.63765C131.259 6.35992 123.462 7.45101 116.412 10.7817C109.362 14.1124 103.579 19.4244 99.6799 26.1719L99.3778 26.7031C98.3707 28.4403 97.4787 30.2492 96.7018 32.0868L96.6731 32.1442L96.6299 32.2017C95.5077 33.5942 94.4863 35.116 93.5799 36.6809Z" fill="#384C9F"/>
<path d="M132.396 127.069C98.0112 127.069 72.0859 105.95 72.0859 77.9263C72.0859 62.6653 80.4448 48.1653 94.4433 39.135C94.6303 38.7904 94.8317 38.4459 95.0187 38.1157L95.2777 37.6706C96.1985 36.0914 97.2343 34.5696 98.3565 33.1483C99.1334 31.282 100.04 29.43 101.061 27.6785L101.363 27.1473C105.061 20.7587 110.557 15.7052 117.247 12.5467C123.936 9.38829 131.331 8.35462 138.626 9.56057C150.984 11.5705 162.249 20.9022 166.68 32.7751L170.363 39.135C184.362 48.1796 192.706 62.6653 192.706 77.9407C192.706 91.5076 186.563 103.983 175.399 113.057C164.263 122.087 148.999 127.069 132.396 127.069ZM132.684 10.0774C127.519 10.0774 122.411 11.2116 117.678 13.4512C111.175 16.5235 105.838 21.4191 102.241 27.6354L101.939 28.1666C100.932 29.9038 100.04 31.727 99.2773 33.579L99.2485 33.6508L99.2053 33.7082C98.0831 35.1152 97.0617 36.6083 96.1553 38.1588L95.8963 38.6038C95.6805 38.9627 95.4791 39.336 95.2777 39.7093L95.2201 39.8241L95.1051 39.8959C81.3224 48.7395 73.093 62.9525 73.093 77.912C73.093 105.362 98.5867 126.064 132.382 126.064C148.754 126.064 163.803 121.154 174.751 112.253C185.671 103.366 191.685 91.1774 191.685 77.912C191.685 62.9525 183.47 48.7395 169.701 39.8959L169.601 39.8241L165.759 33.177L165.745 33.134C161.458 21.577 150.495 12.4893 138.467 10.5225C136.539 10.2353 134.597 10.0774 132.684 10.0774Z" fill="#384C9F"/>
<path d="M132.396 124.112C99.7088 124.112 75.064 104.257 75.064 77.9271C75.064 63.3983 83.1494 49.6879 96.7019 41.2175C96.9897 40.6576 97.2918 40.1121 97.5939 39.5952L97.8529 39.1358C98.7593 37.571 99.7951 36.0635 100.946 34.6566C101.709 32.7615 102.615 30.9095 103.636 29.158L103.939 28.6268C107.334 22.755 112.369 18.1179 118.513 15.2179C124.656 12.3178 131.432 11.3703 138.136 12.4758C149.588 14.3421 159.961 22.9991 163.975 34.0249L168.147 41.2319C181.671 49.7022 189.728 63.4127 189.728 77.9128C189.728 104.257 165.083 124.112 132.396 124.112ZM132.684 13.0357C127.95 13.0357 123.289 14.0837 118.944 16.1223C112.988 18.9362 108.111 23.4298 104.816 29.115L104.514 29.6462C103.507 31.3976 102.615 33.2209 101.867 35.0873L101.838 35.1591L101.795 35.2165C100.658 36.5947 99.6369 38.0734 98.7449 39.6239L98.4859 40.0833C98.1694 40.6289 97.8529 41.2032 97.5508 41.7918L97.4932 41.921L97.3781 41.9928C84.027 50.2765 76.0711 63.6998 76.0711 77.9271C76.0711 103.683 100.284 123.107 132.396 123.107C164.508 123.107 188.721 103.683 188.721 77.9128C188.721 63.7142 180.794 50.2908 167.5 42.0215L167.399 41.9497L163.055 34.4556L163.04 34.4125C159.17 23.7026 149.099 15.2896 137.978 13.4664C136.208 13.1792 134.439 13.0357 132.684 13.0357Z" fill="#384C9F"/>
<path d="M132.396 121.14C101.406 121.14 78.042 102.562 78.042 77.9123C78.042 64.1301 85.8685 51.1948 98.975 43.2844C99.3634 42.4948 99.7663 41.7483 100.169 41.0591L100.442 40.5854C101.349 39.0349 102.385 37.5418 103.55 36.1636C104.298 34.2541 105.19 32.3878 106.226 30.6076L106.528 30.0764C109.621 24.7358 114.211 20.515 119.793 17.8734C125.375 15.2318 131.561 14.3704 137.661 15.3753C148.193 17.0981 157.688 25.0803 161.27 35.2447L165.946 43.3418C178.981 51.2523 186.75 64.1588 186.75 77.898C186.75 102.562 163.385 121.14 132.396 121.14ZM132.684 16.007C128.396 16.007 124.152 16.9545 120.21 18.8065C114.801 21.362 110.369 25.4392 107.391 30.5932L107.089 31.1244C106.082 32.8759 105.19 34.7279 104.456 36.6086L104.428 36.6804L104.37 36.7378C103.234 38.0873 102.198 39.5517 101.32 41.0735L101.047 41.5473C100.629 42.2651 100.212 43.0403 99.8094 43.8443L99.7375 43.9735L99.608 44.0453C86.7173 51.7547 79.0347 64.4028 79.0347 77.8836C79.0347 101.945 101.967 120.106 132.381 120.106C162.795 120.106 185.728 101.96 185.728 77.898C185.728 64.4746 178.089 51.8552 165.299 44.1314L165.184 44.0597L160.321 35.6611L160.307 35.618C156.854 25.7551 147.675 18.0169 137.474 16.3659C135.892 16.1362 134.281 16.007 132.684 16.007Z" fill="#384C9F"/>
<path d="M132.396 118.168C103.104 118.168 81.0059 100.869 81.0059 77.9128C81.0059 71.4523 82.8762 65.0637 86.4153 59.4072C89.9114 53.8225 95.0475 48.97 101.263 45.3809C101.723 44.4046 102.227 43.4428 102.745 42.5383L103.018 42.0502C103.91 40.4997 104.96 39.0353 106.14 37.6858C106.859 35.7477 107.751 33.867 108.787 32.0868L109.089 31.5556C111.88 26.7318 116.009 22.9273 121.045 20.5585C126.08 18.1753 131.648 17.4 137.158 18.3189C146.783 19.8837 155.372 27.1912 158.537 36.5086L163.745 45.5245C176.291 52.8606 183.772 64.9632 183.772 77.9271C183.786 100.869 161.688 118.168 132.396 118.168ZM132.684 18.9649C128.828 18.9649 125.016 19.8119 121.491 21.4773C116.642 23.7743 112.657 27.4352 109.967 32.0724L109.665 32.6036C108.643 34.3694 107.766 36.2358 107.046 38.1452L107.017 38.2313L106.96 38.3031C105.809 39.6239 104.773 41.0596 103.895 42.567L103.622 43.0551C103.09 43.9883 102.572 44.9646 102.112 45.9552L102.04 46.0987L101.896 46.1849C95.7669 49.7022 90.7027 54.4686 87.2642 59.9528C83.8257 65.4369 82.0129 71.6533 82.0129 77.9128C82.0129 100.295 103.665 117.163 132.396 117.163C161.112 117.163 182.779 100.295 182.779 77.9271C182.779 65.2934 175.442 53.478 163.141 46.3284L163.026 46.2566L157.645 36.9249L157.631 36.8818C154.581 27.8947 146.308 20.8312 137.029 19.3238C135.576 19.0797 134.122 18.9649 132.684 18.9649Z" fill="#384C9F"/>
<path d="M132.396 115.21C104.802 115.21 83.9839 99.1742 83.9839 77.9265C83.9839 71.8394 85.7966 65.824 89.2207 60.5408C92.6017 55.315 97.5652 50.8214 103.565 47.5051C104.082 46.3278 104.672 45.165 105.305 44.0451L105.593 43.557C106.471 42.0209 107.535 40.5852 108.729 39.2788C109.434 37.3119 110.312 35.4169 111.348 33.608L111.65 33.0768C114.125 28.7842 117.822 25.396 122.311 23.2713C126.799 21.1465 131.763 20.4574 136.669 21.2614C145.373 22.6826 153.056 29.301 155.818 37.7426L161.573 47.6917C173.615 54.468 180.794 65.7522 180.794 77.9265C180.794 88.2345 175.859 97.6955 166.881 104.587C157.962 111.435 145.718 115.21 132.396 115.21ZM132.684 21.9361C129.26 21.9361 125.893 22.697 122.757 24.1757C118.455 26.2 114.916 29.4589 112.542 33.5649L112.24 34.0961C111.218 35.8763 110.341 37.757 109.665 39.6951L109.636 39.7956L109.564 39.8674C108.399 41.1451 107.363 42.5521 106.499 44.0451L106.212 44.5333C105.564 45.6674 104.96 46.8447 104.457 48.0506L104.385 48.2085L104.226 48.2947C98.2989 51.5249 93.4073 55.9467 90.0839 61.072C86.7606 66.1973 85.0054 72.026 85.0054 77.9122C85.0054 98.5999 105.392 114.191 132.41 114.191C145.502 114.191 157.544 110.487 166.292 103.768C175.01 97.0781 179.801 87.89 179.801 77.9122C179.801 66.0681 172.766 55.071 160.968 48.4957L160.853 48.4239L160.781 48.309L154.897 38.1446L154.883 38.0872C152.25 29.9614 144.869 23.6015 136.511 22.2376C135.23 22.0366 133.95 21.9361 132.684 21.9361Z" fill="#384C9F"/>
<path d="M132.396 112.253C106.485 112.253 86.9619 97.4946 86.9619 77.9267C86.9619 72.1984 88.7171 66.5707 92.0405 61.6464C95.3207 56.7939 100.112 52.6449 105.924 49.6156C106.485 48.2087 107.161 46.8305 107.909 45.524L108.197 45.0215C109.075 43.4998 110.139 42.0928 111.362 40.8294C112.038 38.8339 112.902 36.8958 113.952 35.0725L114.254 34.5413C116.426 30.7799 119.663 27.7937 123.605 25.9417C127.547 24.0754 131.907 23.4724 136.194 24.1902C143.963 25.4536 150.739 31.3829 153.084 38.9487L159.415 49.8884C170.938 56.0904 177.83 66.5563 177.83 77.9267C177.83 87.4163 173.197 96.1308 164.766 102.476C156.393 108.779 144.898 112.253 132.396 112.253ZM132.684 24.9081C129.706 24.9081 126.756 25.5685 124.023 26.8606C120.268 28.6264 117.189 31.469 115.117 35.0581L114.815 35.5893C113.779 37.3839 112.916 39.2933 112.269 41.2745L112.225 41.3893L112.139 41.4755C110.945 42.6958 109.909 44.074 109.046 45.5527L108.758 46.0552C107.996 47.376 107.319 48.7686 106.758 50.1899L106.686 50.3622L106.514 50.4483C100.773 53.4058 96.0545 57.483 92.8462 62.235C89.6379 66.987 87.9402 72.4138 87.9402 77.9554C87.9402 96.9491 107.046 111.277 132.367 111.277C144.654 111.277 155.933 107.874 164.133 101.701C172.291 95.5565 176.794 87.1292 176.794 77.9554C176.794 66.9296 170.061 56.7652 158.782 50.7354L158.652 50.6637L152.12 39.3651L152.106 39.3077C149.89 32.072 143.416 26.4011 135.993 25.1952C134.914 24.9942 133.806 24.9081 132.684 24.9081Z" fill="#384C9F"/>
<path d="M132.396 109.268C108.183 109.268 89.9258 95.7867 89.9258 77.9129C89.9258 72.5435 91.6234 67.3034 94.8461 62.7524C98.0112 58.2731 102.658 54.4687 108.269 51.7266C108.859 50.0899 109.593 48.4964 110.456 46.9889L110.744 46.4721C111.607 44.979 112.672 43.6008 113.923 42.4092C114.556 40.3706 115.419 38.3894 116.484 36.5374L116.786 36.0062C118.657 32.7616 121.448 30.2061 124.829 28.5982C128.224 26.9903 131.964 26.4734 135.662 27.0908C142.496 28.2106 148.366 33.4364 150.293 40.1121L157.242 52.0998C168.263 57.742 174.823 67.3752 174.823 77.8985C174.866 95.8011 156.609 109.268 132.396 109.268ZM132.684 27.866C130.137 27.866 127.62 28.4259 125.289 29.5314C122.081 31.0388 119.462 33.4651 117.678 36.523L117.376 37.0542C116.326 38.8775 115.477 40.8156 114.858 42.8399L114.815 42.9691L114.714 43.0552C113.492 44.2038 112.456 45.5389 111.621 46.9889L111.334 47.5058C110.456 49.0132 109.722 50.6211 109.147 52.2721L109.075 52.4731L108.888 52.5592C103.334 55.2296 98.7594 58.9623 95.6518 63.3554C92.5586 67.7341 90.9185 72.7732 90.9185 77.9272C90.9185 95.2268 108.744 108.277 132.382 108.277C156.019 108.277 173.845 95.2268 173.845 77.9272C173.845 72.9168 172.277 67.9925 169.313 63.6712C166.349 59.3499 161.976 55.6459 156.681 52.9469L156.552 52.8751L149.387 40.5285L149.373 40.4711C147.574 34.1398 142.007 29.1725 135.532 28.1101C134.583 27.9522 133.633 27.866 132.684 27.866Z" fill="#384C9F"/>
<path d="M132.396 106.309C109.88 106.309 92.9038 94.1064 92.9038 77.9122C92.9038 72.9161 94.5583 68.0636 97.6947 63.8859C100.759 59.7943 105.262 56.3344 110.715 53.8794C111.29 51.9987 112.067 50.1898 113.06 48.4814L113.362 47.9645C114.211 46.4858 115.304 45.165 116.585 44.0452C117.16 41.9491 118.009 39.9249 119.102 38.0442L119.419 37.513C120.987 34.7996 123.318 32.6461 126.166 31.311C129.001 29.9758 132.151 29.5307 135.245 30.0476C138.165 30.5213 140.87 31.8421 143.1 33.8808C145.301 35.8907 146.855 38.4605 147.603 41.2887L154.796 53.7215C154.926 53.9368 155.041 54.1522 155.156 54.3675C160.292 56.8512 164.522 60.2968 167.414 64.3166C170.349 68.4082 171.903 73.1171 171.903 77.9266C171.903 85.7796 167.86 92.9866 160.537 98.241C153.228 103.452 143.244 106.309 132.396 106.309ZM132.698 30.8515C130.583 30.8515 128.511 31.311 126.569 32.2298C123.908 33.4788 121.735 35.4887 120.268 38.0298L119.951 38.561C118.872 40.413 118.052 42.4085 117.491 44.4759L117.448 44.6194L117.333 44.7199C116.081 45.7823 115.031 47.0457 114.211 48.4814L113.909 48.9982C112.93 50.6923 112.154 52.5155 111.592 54.3962L111.521 54.6259L111.305 54.7264C105.924 57.1096 101.478 60.4978 98.4716 64.5176C95.4791 68.5231 93.8821 73.1602 93.8821 77.9409C93.8821 93.5608 110.427 105.333 132.367 105.333C143.014 105.333 152.797 102.534 159.904 97.4514C166.968 92.3979 170.852 85.4781 170.852 77.9553C170.852 73.3612 169.37 68.8676 166.551 64.9339C163.731 61.0002 159.573 57.6408 154.523 55.2289L154.379 55.1571L154.307 55.0136C154.178 54.7552 154.034 54.4967 153.89 54.2527L146.625 41.7051L146.61 41.6333C145.2 36.2065 140.553 31.957 135.043 31.0669C134.266 30.909 133.475 30.8515 132.698 30.8515Z" fill="#384C9F"/>
<path d="M132.396 103.352C111.578 103.352 95.8818 92.427 95.8818 77.9269C95.8818 73.2897 97.4932 68.8392 100.558 65.0348C103.536 61.3164 107.909 58.2154 113.204 56.0476C113.707 53.9228 114.527 51.8698 115.621 49.9748L115.923 49.4436C116.757 47.9936 117.865 46.7445 119.203 45.7396C119.707 43.5574 120.541 41.4757 121.663 39.5376L121.98 39.0064C123.634 36.1494 126.31 34.0965 129.504 33.2494C132.698 32.4024 136.036 32.8331 138.913 34.4841C141.877 36.1925 144.021 39.0782 144.783 42.4089L152.192 55.2005C152.48 55.703 152.725 56.1768 152.94 56.6218C157.818 58.8327 161.86 61.9194 164.608 65.5516C167.414 69.2556 168.896 73.5338 168.896 77.9269C168.896 84.9759 165.169 91.4364 158.379 96.131C151.66 100.782 142.424 103.352 132.396 103.352ZM132.727 33.8237C131.734 33.8237 130.741 33.9529 129.763 34.2113C126.828 35.0009 124.368 36.8816 122.843 39.5089L122.526 40.0401C121.419 41.9495 120.613 44.0025 120.138 46.1416L120.095 46.3282L119.937 46.4431C118.642 47.3906 117.577 48.5678 116.786 49.9461L116.484 50.4772C115.391 52.3579 114.599 54.3966 114.11 56.5213L114.053 56.7798L113.808 56.8803C108.557 58.9907 104.241 62.0199 101.32 65.6664C98.4139 69.2843 96.8745 73.5338 96.8745 77.9269C96.8745 91.8527 112.139 102.347 132.382 102.347C142.208 102.347 151.243 99.8493 157.803 95.2983C164.306 90.7903 167.889 84.617 167.889 77.9269C167.889 73.7492 166.479 69.6863 163.803 66.1546C161.112 62.6085 157.156 59.608 152.351 57.4689L152.178 57.3971L152.092 57.2248C151.861 56.751 151.602 56.2486 151.286 55.703L143.805 42.7822L143.79 42.7104C143.1 39.6237 141.129 36.939 138.381 35.3598C136.654 34.3405 134.698 33.8237 132.727 33.8237Z" fill="#384C9F"/>
<path d="M132.396 100.381C113.261 100.381 98.8457 90.7332 98.8457 77.9272C98.8457 73.7207 100.457 69.6722 103.493 66.1979C106.442 62.8385 110.686 60.082 115.794 58.2301C116.182 55.8325 116.988 53.5642 118.196 51.4538L118.498 50.9226C119.304 49.5156 120.469 48.3384 121.865 47.5201C122.268 45.223 123.059 43.0409 124.224 41.0166L124.541 40.471C125.792 38.2888 127.835 36.7383 130.267 36.0923C132.698 35.4462 135.245 35.7764 137.417 37.0255C139.762 38.375 141.402 40.6577 141.949 43.2993C141.978 43.4141 142.007 43.5146 142.064 43.6151L149.617 56.6795C150.034 57.383 150.394 58.1296 150.711 58.8761C155.358 60.8142 159.213 63.5276 161.832 66.7722C164.522 70.0885 165.932 73.9361 165.932 77.9128C165.946 90.7189 151.516 100.381 132.396 100.381ZM132.727 36.767C129.821 36.767 126.987 38.2745 125.418 40.9592L125.102 41.5047C123.951 43.4859 123.188 45.6394 122.829 47.9077L122.786 48.1518L122.57 48.2666C121.232 48.9988 120.124 50.0899 119.361 51.4107L119.045 51.9419C117.851 54.0236 117.06 56.2776 116.729 58.6607L116.686 58.9622L116.398 59.0627C111.334 60.8573 107.118 63.5563 104.241 66.844C101.363 70.1316 99.8528 73.9505 99.8528 77.9128C99.8528 90.1446 113.837 99.3615 132.396 99.3615C150.941 99.3615 164.939 90.1302 164.939 77.8985C164.939 74.1514 163.601 70.5192 161.055 67.3895C158.494 64.2311 154.725 61.5895 150.135 59.7088L149.934 59.6226L149.847 59.4216C149.531 58.6464 149.157 57.8711 148.725 57.139L141.172 44.0745C141.057 43.8879 140.985 43.6725 140.942 43.4572C140.467 41.1027 138.985 39.0497 136.899 37.8438C135.59 37.126 134.151 36.767 132.727 36.767Z" fill="#384C9F"/>
<path d="M132.396 97.409C114.973 97.409 101.824 89.0248 101.824 77.9129C101.824 74.0797 103.421 70.4188 106.442 67.3321C109.348 64.3603 113.535 61.9628 118.541 60.4266C118.685 57.7994 119.462 55.2296 120.771 52.9469L121.088 52.4013C121.879 51.0375 123.131 50.0181 124.627 49.5157C124.828 47.0607 125.591 44.6345 126.828 42.4953L127.145 41.9498C128.008 40.4567 129.404 39.3943 131.058 38.9493C132.727 38.5042 134.453 38.7339 135.95 39.5953C137.547 40.5141 138.683 42.079 139.043 43.9023C139.129 44.333 139.287 44.7349 139.503 45.1226L147.056 58.1726C147.603 59.1202 148.063 60.1251 148.423 61.1732C152.869 62.8385 156.537 65.2073 159.041 68.0356C161.63 70.9499 162.983 74.3668 162.983 77.9272C162.968 89.0392 149.819 97.409 132.396 97.409ZM132.713 39.7389C132.238 39.7389 131.763 39.7963 131.288 39.9255C129.878 40.2988 128.713 41.2032 127.979 42.4523L127.663 42.9978C126.454 45.1082 125.72 47.5058 125.577 49.932L125.548 50.2909L125.203 50.3914C123.821 50.779 122.656 51.6691 121.937 52.9182L121.62 53.4637C120.325 55.7033 119.592 58.2588 119.505 60.843L119.491 61.2019L119.146 61.3024C114.139 62.7954 109.996 65.1356 107.133 68.0643C104.298 70.9643 102.802 74.3812 102.802 77.9416C102.802 88.4793 115.506 96.4328 132.367 96.4328C149.229 96.4328 161.932 88.4793 161.932 77.9416C161.932 74.6396 160.652 71.4524 158.235 68.7247C155.789 65.9682 152.192 63.6568 147.804 62.0489L147.574 61.9628L147.502 61.7331C147.157 60.685 146.711 59.6514 146.15 58.6895L138.597 45.6394C138.323 45.1656 138.136 44.6632 138.021 44.1176C137.719 42.5958 136.755 41.275 135.403 40.4854C134.597 39.9973 133.662 39.7389 132.713 39.7389Z" fill="#384C9F"/>
<path d="M132.396 94.4509C124.958 94.4509 118.024 92.7712 112.887 89.742C107.665 86.6553 104.788 82.4632 104.788 77.9266C104.788 71.2077 111.017 65.422 121.059 62.7948C121.217 62.7517 121.376 62.723 121.548 62.7087C121.275 59.8374 121.908 56.923 123.347 54.425L123.663 53.8794C124.282 52.8027 125.433 52.1423 126.67 52.1423C126.987 52.1423 127.289 52.1853 127.591 52.2715C127.318 49.4002 127.951 46.4858 129.389 43.9878L129.706 43.4422C130.324 42.3655 131.475 41.7051 132.713 41.7051C132.9 41.7051 133.087 41.7194 133.274 41.7481C134.698 41.9779 135.835 43.0833 136.122 44.4902C136.266 45.2368 136.54 45.9403 136.914 46.6007L144.467 59.6651C145.157 60.8567 145.661 62.1344 145.977 63.4696C154.768 66.3409 160.005 71.7389 160.005 77.9409C160.005 82.4776 157.127 86.6697 151.905 89.7564C146.754 92.7712 139.834 94.4509 132.396 94.4509ZM121.937 63.6849C121.721 63.6849 121.52 63.7136 121.318 63.771C111.751 66.2691 105.809 71.6958 105.809 77.9266C105.809 86.6266 117.491 93.446 132.411 93.446C147.315 93.446 159.012 86.6266 159.012 77.9266C159.012 72.1265 153.919 67.0443 145.402 64.331L145.129 64.2448L145.071 63.9577C144.783 62.6225 144.294 61.3448 143.618 60.1676L136.05 47.0888C135.619 46.3422 135.302 45.5239 135.13 44.6769C134.928 43.6719 134.123 42.8967 133.101 42.7387C132.972 42.71 132.828 42.6957 132.698 42.71C131.821 42.71 131.001 43.1838 130.555 43.9447L130.238 44.4902C128.756 47.0601 128.21 50.0749 128.67 53.0037L128.843 54.066L127.907 53.5061C127.519 53.2764 127.087 53.1472 126.641 53.1472C125.764 53.1472 124.944 53.621 124.512 54.3819L124.196 54.9274C122.771 57.3968 122.196 60.2968 122.584 63.125L122.656 63.6993H121.937V63.6849Z" fill="#384C9F"/>
<path d="M142.956 66.1543C142.884 64.4746 142.409 62.8379 141.56 61.3879L134.007 48.3235C133.446 47.3472 133.029 46.2705 132.813 45.165L132.497 45.7249C130.626 48.9552 130.626 52.9319 132.497 56.1765L138.539 66.628C140.409 69.8583 140.409 73.835 138.539 77.0796L138.223 77.6251C137.992 76.5197 137.59 75.4429 137.028 74.4667L131.504 64.8765L127.965 58.775C127.404 57.7988 126.986 56.722 126.771 55.6166L126.454 56.1621C124.598 59.378 124.584 63.3548 126.44 66.5706L132.497 77.0509C134.367 80.2811 134.367 84.2579 132.497 87.5024L132.18 88.048C131.95 86.9425 131.547 85.8658 130.986 84.8895L123.433 71.8251C122.44 70.1023 121.951 68.1355 122.037 66.1543C113.952 68.2647 108.37 72.7439 108.37 77.9266C108.37 85.1336 119.174 90.9911 132.497 90.9911C145.819 90.9911 156.623 85.148 156.623 77.9266C156.638 72.7296 151.056 68.2647 142.956 66.1543Z" fill="#2B4A9E"/>
<path d="M266.741 117.005H133.504V135.41L-0.711913 135.453V157.017C-0.711913 157.017 -0.740686 167.899 10.1934 167.899H255.807C255.807 167.899 266.698 167.813 266.698 157.017C266.698 146.22 266.741 117.005 266.741 117.005Z" fill="url(#paint0_linear_8692_9221)"/>
</g>
<path d="M236.027 130H225V149.818H236.027V130Z" fill="#FF5F00"/>
<path d="M225.576 139.604C225.574 137.696 226.007 135.811 226.841 134.094C227.675 132.377 228.888 130.872 230.39 129.694C228.531 128.233 226.298 127.324 223.947 127.072C221.596 126.82 219.221 127.234 217.094 128.268C214.967 129.301 213.174 130.912 211.92 132.917C210.665 134.921 210 137.238 210 139.603C210 141.967 210.665 144.284 211.92 146.289C213.174 148.293 214.967 149.904 217.094 150.938C219.221 151.971 221.596 152.386 223.947 152.133C226.298 151.881 228.531 150.973 230.39 149.511C228.889 148.333 227.675 146.829 226.841 145.113C226.007 143.396 225.575 141.513 225.576 139.604Z" fill="#EB001B"/>
<path d="M250.392 139.606C250.392 141.971 249.726 144.288 248.472 146.292C247.217 148.297 245.423 149.908 243.296 150.941C241.169 151.975 238.794 152.389 236.443 152.136C234.092 151.884 231.859 150.975 230 149.513C231.501 148.334 232.714 146.829 233.548 145.113C234.382 143.396 234.815 141.513 234.815 139.604C234.815 137.696 234.382 135.812 233.548 134.096C232.714 132.379 231.501 130.875 230 129.695C231.859 128.234 234.092 127.325 236.443 127.072C238.794 126.82 241.169 127.234 243.296 128.267C245.423 129.3 247.217 130.911 248.472 132.916C249.726 134.92 250.392 137.238 250.392 139.602V139.606Z" fill="#F79E1B"/>
<path d="M249.252 147.49V147.084H249.417V147H249V147.084H249.179V147.49H249.252ZM250.061 147.49V147H249.935L249.788 147.35L249.641 147H249.529V147.49H249.62V147.123L249.756 147.441H249.851L249.987 147.123V147.494L250.061 147.49Z" fill="#F79E1B"/>
</g>
<defs>
<linearGradient id="paint0_linear_8692_9221" x1="133.015" y1="117.006" x2="133.015" y2="167.907" gradientUnits="userSpaceOnUse">
<stop stop-color="#272E68" stop-opacity="0.3"/>
<stop offset="1" stop-color="#272E68"/>
</linearGradient>
<clipPath id="clip0_8692_9221">
<rect width="268" height="168" fill="white" transform="translate(-1)"/>
</clipPath>
</defs>
</svg>
