<svg width="266" height="168" viewBox="0 0 266 168" fill="none" xmlns="http://www.w3.org/2000/svg">
<mask id="mask0_8698_261" style="mask-type:alpha" maskUnits="userSpaceOnUse" x="0" y="0" width="266" height="168">
<path d="M256 0H10C4.47715 0 0 4.47715 0 10V158C0 163.523 4.47715 168 10 168H256C261.523 168 266 163.523 266 158V10C266 4.47715 261.523 0 256 0Z" fill="white"/>
</mask>
<g mask="url(#mask0_8698_261)">
<path d="M256 0H10C4.47715 0 0 4.47715 0 10V158C0 163.523 4.47715 168 10 168H256C261.523 168 266 163.523 266 158V10C266 4.47715 261.523 0 256 0Z" fill="#FF0000"/>
<g clip-path="url(#clip0_8698_261)">
<path d="M267 156.474V10.8665C267 4.8598 262.08 0 256.032 0H8.9539C2.90538 0 -2 4.8598 -2 10.8665V156.488C-2 162.481 2.90538 167.355 8.96837 167.355H256.046C262.095 167.341 267 162.481 267 156.474Z" fill="#EC1C24"/>
<path d="M131.892 241.37C31.339 241.37 -44.499 170.953 -44.499 77.585C-44.499 36.6136 -26.5126 -5.70538 3.59975 -35.6526C31.3101 -78.9321 80.5809 -105.812 132.21 -105.812C140.531 -105.812 148.909 -105.123 157.114 -103.776C196.689 -97.3821 238.523 -69.5709 261.241 -34.5775C290.702 -4.73055 308.298 37.2014 308.298 77.5993C308.298 100.479 303.783 122.341 294.869 142.583C286.231 162.223 273.757 179.698 257.797 194.507C241.836 209.316 223.025 220.899 201.87 228.927C180.063 237.184 156.52 241.37 131.892 241.37ZM132.21 -104.808C80.9137 -104.808 31.9612 -78.0863 4.43901 -35.0649L4.41007 -35.0219L4.36666 -34.9789C-25.5865 -5.21796 -43.4716 36.8573 -43.4716 77.585C-43.4716 170.38 31.9178 240.367 131.907 240.367C156.419 240.367 179.832 236.195 201.522 227.981C222.548 220.01 241.257 208.499 257.117 193.776C272.976 179.053 285.377 161.693 293.958 142.182C302.813 122.069 307.299 100.336 307.299 77.5993C307.299 37.4451 289.805 -4.24313 260.503 -33.918L260.474 -33.961L260.445 -34.004C237.871 -68.7968 196.299 -96.436 156.969 -102.787C148.793 -104.12 140.473 -104.808 132.21 -104.808Z" fill="#D1181F"/>
<path d="M131.892 238.575C32.9453 238.575 -41.6772 169.362 -41.6772 77.5854C-41.6772 37.2304 -23.9369 -4.44342 5.81376 -33.8889C32.9887 -76.5233 81.4058 -103.016 132.196 -103.016H132.21C140.372 -103.016 148.591 -102.342 156.636 -101.023C195.59 -94.7296 236.728 -67.3198 259.012 -32.8281C288.097 -3.4686 305.461 37.8038 305.461 77.5997C305.476 169.362 230.853 238.575 131.892 238.575ZM132.225 -102.012H132.21C81.753 -102.012 33.6398 -75.6918 6.65302 -33.3012L6.62408 -33.2582L6.58067 -33.2152C-22.9963 -3.95601 -40.6643 37.4741 -40.6643 77.5997C-40.6643 168.803 33.5241 237.586 131.892 237.586C230.275 237.586 304.477 168.803 304.477 77.5997C304.477 38.0476 287.2 -2.98118 258.274 -32.1543L258.231 -32.1973L258.202 -32.2403C236.077 -66.517 195.199 -93.7691 156.491 -100.019C148.489 -101.353 140.328 -102.012 132.225 -102.012Z" fill="#D1181F"/>
<path d="M131.892 235.779C34.5516 235.779 -38.8555 167.77 -38.8555 77.5846C-38.8555 37.8317 -21.3176 -3.19705 8.04228 -32.1408C34.6818 -74.1444 82.2597 -100.235 132.225 -100.235H132.24C140.242 -100.235 148.316 -99.5759 156.217 -98.2857C194.562 -92.0783 234.992 -65.0842 256.842 -31.0943C285.551 -2.22222 302.698 38.3908 302.698 77.5846C302.669 167.77 229.247 235.779 131.892 235.779ZM132.211 -99.2319H132.196C82.5635 -99.2319 35.2896 -73.2986 8.85261 -31.5674L8.82367 -31.5244L8.78025 -31.4814C-20.4205 -2.6953 -37.857 38.0754 -37.857 77.5846C-37.857 167.197 35.1159 234.775 131.878 234.775C228.654 234.775 301.642 167.197 301.642 77.5846C301.642 38.6345 284.596 -1.74915 256.046 -30.4349L256.003 -30.4779L255.974 -30.5209C234.283 -64.3101 194.099 -91.1465 156.014 -97.2965C148.186 -98.5724 140.169 -99.2319 132.211 -99.2319Z" fill="#D1181F"/>
<path d="M131.892 232.998C36.1432 232.998 -36.0483 166.18 -36.0483 77.585C-36.0483 38.4342 -18.742 -1.92072 10.2417 -30.3914C36.3458 -71.7499 83.0699 -97.4395 132.211 -97.4395H132.225C140.082 -97.4395 147.983 -96.7943 155.739 -95.5328C193.463 -89.4258 233.198 -62.8331 254.613 -29.3592C282.932 -0.974571 299.847 39.0077 299.847 77.5994C299.847 166.194 227.641 232.998 131.892 232.998ZM132.211 -96.436C83.3882 -96.436 36.968 -70.9041 11.0665 -29.818L11.0375 -29.775L10.9941 -29.732C-17.8304 -1.43331 -35.0354 38.678 -35.0354 77.585C-35.0354 165.606 36.722 231.995 131.892 231.995C227.062 231.995 298.834 165.621 298.849 77.5994C298.849 39.2514 282.02 -0.472824 253.847 -28.6711L253.803 -28.7141L253.774 -28.7571C232.518 -62.0303 193.043 -88.4653 155.565 -94.5293C147.867 -95.7909 140.01 -96.436 132.211 -96.436Z" fill="#D1181F"/>
<path d="M131.892 230.045C37.8508 230.045 -33.0674 164.502 -33.0674 77.585C-33.0674 39.065 -16.0071 -0.601868 12.5859 -28.5278C38.1113 -69.2125 83.9527 -94.4863 132.196 -94.4863C132.211 -94.4863 132.225 -94.4863 132.225 -94.4863C139.909 -94.4863 147.65 -93.8556 155.233 -92.6227C192.32 -86.6304 231.302 -60.4534 252.24 -27.4956C280.182 0.344292 296.852 39.6241 296.852 77.585C296.866 164.502 225.934 230.045 131.892 230.045ZM132.24 -93.4828C132.225 -93.4828 132.211 -93.4828 132.211 -93.4828C84.2855 -93.4828 38.7624 -68.3667 13.4252 -27.9544L13.3963 -27.897L13.3528 -27.854C-15.081 -0.100113 -32.0545 39.3087 -32.0545 77.585C-32.0545 163.929 38.4296 229.042 131.892 229.042C225.369 229.042 295.853 163.929 295.853 77.585C295.853 39.8678 279.271 0.846039 251.488 -26.8219L251.445 -26.8649L251.416 -26.9079C230.622 -59.6506 191.9 -85.6699 155.073 -91.6192C147.549 -92.8521 139.865 -93.4828 132.24 -93.4828Z" fill="#D1181F"/>
<path d="M131.892 227.078C39.5579 227.078 -30.0869 162.811 -30.0869 77.5849C-30.0869 39.7101 -13.2581 0.745644 14.9297 -26.6785C39.8907 -66.6895 84.8205 -91.5332 132.196 -91.5332H132.21C139.735 -91.5332 147.317 -90.9168 154.74 -89.6982C191.162 -83.8063 229.392 -58.0737 249.896 -25.6464C277.433 1.67747 293.871 40.2548 293.871 77.5849C293.885 162.811 224.24 227.078 131.892 227.078ZM132.225 -90.5154H132.21C85.1533 -90.5154 40.5419 -65.8293 15.769 -26.0764L15.74 -26.0191L15.6966 -25.9761C-12.3465 1.24739 -29.074 39.9681 -29.074 77.5993C-29.074 162.252 40.1222 226.088 131.892 226.088C223.662 226.088 292.872 162.252 292.872 77.5993C292.872 40.5272 276.521 2.17921 249.143 -24.9583L249.1 -25.0013L249.071 -25.0443C228.726 -57.2566 190.756 -82.8314 154.581 -88.6947C147.216 -89.9133 139.691 -90.5154 132.225 -90.5154Z" fill="#D1181F"/>
<path d="M131.892 224.125C41.2512 224.125 -27.0913 161.119 -27.0913 77.5853C-27.0913 40.3555 -10.4941 2.07917 17.2886 -24.8146C41.6708 -64.1374 85.689 -88.5654 132.196 -88.5654H132.21C139.576 -88.5654 146.985 -87.9633 154.249 -86.7735C190.033 -80.9818 227.511 -55.6793 247.538 -23.7824C274.684 3.02532 290.89 40.9146 290.89 77.5853C290.89 161.134 222.533 224.125 131.892 224.125ZM132.225 -87.5619H132.21C86.0218 -87.5619 42.3075 -63.2916 18.1134 -24.2268L18.0845 -24.1695L18.0411 -24.1265C-9.59691 2.56658 -26.0929 40.5992 -26.0929 77.5853C-26.0929 160.56 41.8155 223.121 131.878 223.121C221.954 223.121 289.877 160.56 289.877 77.5853C289.877 41.1439 273.772 3.49841 246.785 -23.123L246.742 -23.166L246.713 -23.209C226.845 -54.8909 189.628 -80.0357 154.089 -85.7843C146.883 -86.9598 139.532 -87.5619 132.225 -87.5619Z" fill="#D1181F"/>
<path d="M131.892 221.172C42.9588 221.172 -24.1104 159.442 -24.1104 77.5852C-24.1104 40.9862 -7.75908 3.41235 19.6474 -22.951C43.4652 -61.6 86.5863 -85.6123 132.211 -85.6123H132.225C139.431 -85.6123 146.681 -85.0245 153.786 -83.8633C188.919 -78.1864 225.659 -53.2997 245.208 -21.9332C271.949 4.34418 287.924 41.5453 287.924 77.5852C287.909 159.442 220.84 221.172 131.892 221.172ZM132.211 -84.6088H132.196C86.9046 -84.6088 44.0874 -60.7685 20.4577 -22.3776L20.4288 -22.3202L20.3853 -22.2772C-6.84747 3.89977 -23.0974 41.2299 -23.0974 77.5852C-23.0974 158.869 43.5376 220.168 131.892 220.168C220.261 220.168 286.911 158.869 286.911 77.5852C286.911 41.789 271.037 4.83159 244.456 -21.2594L244.412 -21.3024L244.383 -21.3597C224.979 -52.5112 188.514 -77.2259 153.626 -82.8742C146.565 -84.021 139.359 -84.6088 132.211 -84.6088Z" fill="#D1181F"/>
<path d="M131.892 218.218C44.6514 218.218 -21.1299 157.765 -21.1299 77.5995C-21.1299 41.6456 -5.01014 4.75987 21.9912 -21.073C45.2302 -59.0626 87.4541 -82.6592 132.196 -82.6592H132.21C139.243 -82.6592 146.333 -82.0858 153.279 -80.9389C187.761 -75.3623 223.748 -50.9056 242.835 -20.0839C269.185 5.67736 284.914 42.176 284.914 77.5852C284.928 157.765 219.132 218.218 131.892 218.218ZM132.21 -81.6557H132.196C87.7724 -81.6557 45.8669 -58.2312 22.816 -20.514L22.787 -20.4566L22.7436 -20.4136C-4.08405 5.24729 -20.117 41.875 -20.117 77.5852C-20.117 157.177 45.2302 217.201 131.892 217.201C218.568 217.201 283.915 157.177 283.915 77.5709C283.915 42.4054 268.273 6.15044 242.097 -19.4244L242.053 -19.4674L242.024 -19.5248C223.083 -50.1458 187.37 -74.4305 153.134 -79.9641C146.232 -81.0823 139.199 -81.6557 132.21 -81.6557Z" fill="#D1181F"/>
<path d="M131.892 215.265C46.359 215.265 -18.1489 156.073 -18.1489 77.5995C-18.1489 42.2764 -2.2607 6.09307 24.3354 -19.2238C46.9957 -56.5396 88.3224 -79.7061 132.196 -79.7061C139.069 -79.7061 146 -79.1326 152.787 -78.0288C186.633 -72.5525 221.867 -48.5259 240.476 -18.2346C266.435 6.99622 281.933 42.8068 281.933 77.5708C281.947 156.073 217.425 215.265 131.892 215.265ZM132.196 -78.7026C88.6552 -78.7026 47.6324 -55.6938 25.1602 -18.6647L25.1313 -18.6073L25.0879 -18.5643C-1.34909 6.56615 -17.136 42.5201 -17.136 77.5852C-17.136 155.5 46.9378 214.247 131.892 214.247C216.861 214.247 280.935 155.485 280.935 77.5852C280.935 43.0648 265.538 7.49797 239.738 -17.5608L239.695 -17.6038L239.666 -17.6612C221.202 -47.7518 186.227 -71.6064 152.642 -77.0396C145.899 -78.1435 139.026 -78.7026 132.196 -78.7026Z" fill="#D1181F"/>
<path d="M131.892 212.298C48.0521 212.298 -15.168 154.382 -15.168 77.5855C-15.168 42.9074 0.474256 7.42657 26.6797 -17.3598C48.7756 -53.9875 89.2052 -76.7383 132.196 -76.7383H132.21C138.925 -76.7383 145.682 -76.1935 152.309 -75.104C185.504 -69.7281 219.986 -46.1316 238.132 -16.3707C263.701 8.32972 278.952 43.4522 278.952 77.5855C278.952 154.382 215.732 212.298 131.892 212.298ZM132.21 -75.7348C89.538 -75.7348 49.4123 -53.1561 27.5045 -16.7864L27.4755 -16.7291L27.4321 -16.6861C1.38587 7.91399 -14.1551 43.1655 -14.1551 77.5855C-14.1551 153.808 48.6309 211.294 131.892 211.294C215.153 211.294 277.954 153.808 277.954 77.5855C277.954 43.6959 262.789 8.81714 237.394 -15.6969L237.35 -15.7399L237.322 -15.7973C219.321 -45.3431 185.099 -68.782 152.165 -74.1149C145.581 -75.19 138.867 -75.7348 132.21 -75.7348Z" fill="#D1181F"/>
<path d="M131.892 209.345C49.7594 209.345 -12.1729 152.705 -12.1729 77.5855C-12.1729 43.5382 3.23785 8.74545 29.0526 -15.5106C50.5552 -51.4645 90.0732 -73.7852 132.196 -73.7852H132.21C138.765 -73.7852 145.349 -73.2547 151.817 -72.1939C184.361 -66.9327 218.091 -43.7519 235.773 -14.5214C260.951 9.66293 275.971 44.0973 275.971 77.5998C275.971 152.705 214.024 209.345 131.892 209.345ZM132.21 -72.7817C90.406 -72.7817 51.2064 -50.6187 29.8774 -14.9228L29.8484 -14.8654L29.7906 -14.8224C4.135 9.2472 -11.1744 43.7962 -11.1744 77.5855C-11.1744 152.131 50.3237 208.341 131.877 208.341C213.446 208.341 274.958 152.131 274.958 77.5855C274.958 44.3267 260.025 10.1503 235.021 -13.8619L234.977 -13.9049L234.948 -13.9623C217.425 -42.9777 183.955 -65.9865 151.658 -71.2047C145.248 -72.2512 138.707 -72.7817 132.21 -72.7817Z" fill="#D1181F"/>
<path d="M131.892 206.392C51.4525 206.392 -9.19189 151.013 -9.19189 77.5854C-9.19189 44.1832 5.98729 10.0786 31.4113 -13.6469C52.3496 -48.9271 90.9705 -70.832 132.21 -70.832C138.592 -70.832 145.031 -70.3016 151.34 -69.2694C183.232 -64.1086 216.21 -41.3722 233.429 -12.6721C258.202 10.9818 273.005 44.728 273.005 77.5854C272.99 151.013 212.332 206.392 131.892 206.392ZM132.21 -69.8285C91.2888 -69.8285 52.9863 -48.0813 32.2361 -13.0735L32.1927 -13.0162L32.1348 -12.9732C6.88444 10.5804 -8.19345 44.4269 -8.19345 77.5854C-8.19345 150.439 52.0313 205.388 131.878 205.388C211.738 205.388 271.963 150.439 271.963 77.5854C271.963 44.9717 257.261 11.4835 232.648 -11.9983L232.604 -12.0414L232.575 -12.0987C215.515 -40.5837 182.798 -63.1624 151.166 -68.2803C144.915 -69.3124 138.534 -69.8285 132.21 -69.8285Z" fill="#D1181F"/>
<path d="M131.892 203.438C53.16 203.438 -6.21094 149.335 -6.21094 77.599C-6.21094 44.8276 8.73672 11.4255 33.7556 -11.7697C54.1151 -46.376 91.8387 -67.8652 132.21 -67.8652H132.225C138.447 -67.8652 144.713 -67.3491 150.848 -66.3456C182.103 -61.2852 214.328 -38.9788 231.056 -10.8092C255.453 12.3143 270.01 45.3581 270.01 77.599C270.01 149.335 210.624 203.438 131.892 203.438ZM132.225 -66.8761H132.21C92.1715 -66.8761 54.7807 -45.5446 34.5949 -11.2106L34.5514 -11.1532L34.4936 -11.0959C9.63386 11.9129 -5.19803 45.0714 -5.19803 77.599C-5.19803 148.761 53.7389 202.434 131.892 202.434C210.06 202.434 268.997 148.761 268.997 77.5847C268.997 45.5874 254.541 12.8017 230.318 -10.1497L230.26 -10.1927L230.231 -10.2501C213.648 -38.2047 181.684 -60.3533 150.689 -65.3708C144.597 -66.36 138.389 -66.8761 132.225 -66.8761Z" fill="#D1181F"/>
<path d="M131.892 200.471C54.8677 200.471 -3.22998 147.644 -3.22998 77.5854C-3.22998 45.4591 11.4717 12.745 36.1143 -9.91972C55.895 -43.8523 92.7216 -64.9258 132.211 -64.9258H132.225C138.288 -64.9258 144.38 -64.424 150.371 -63.4492C180.975 -58.5034 212.448 -36.6128 228.712 -8.97356C252.718 13.6195 267.043 45.9752 267.043 77.5854C267.029 147.644 208.931 200.471 131.892 200.471ZM132.211 -63.9223C93.0399 -63.9223 56.5462 -43.0065 36.9536 -9.36063L36.9102 -9.28895L36.8523 -9.23161C12.3833 13.2468 -2.21707 45.7028 -2.21707 77.5854C-2.21707 147.07 55.432 199.467 131.892 199.467C208.353 199.467 266.016 147.07 266.016 77.5854C266.016 46.2332 251.792 14.1212 227.945 -8.28545L227.887 -8.32846L227.844 -8.3858C211.739 -35.81 180.526 -57.5286 150.183 -62.4314C144.264 -63.4205 138.216 -63.9223 132.211 -63.9223Z" fill="#D1181F"/>
<path d="M131.892 197.517C56.5603 197.517 -0.249512 145.952 -0.249512 77.5847C-0.249512 46.0891 14.2206 14.0775 38.4726 -8.05677L38.6462 -8.35782C57.8915 -41.4303 93.7341 -61.959 132.196 -61.959C138.1 -61.959 144.047 -61.4716 149.864 -60.5254C179.831 -55.68 210.537 -34.2194 226.324 -7.11061C249.939 14.9664 264.033 46.6196 264.033 77.599C264.033 145.966 207.223 197.517 131.892 197.517ZM132.196 -60.9698C94.0958 -60.9698 58.5861 -40.6275 39.5289 -7.8704L39.2684 -7.426L39.2106 -7.36866C15.1322 14.5793 0.763398 46.3329 0.763398 77.5847C0.763398 145.393 57.1391 196.514 131.892 196.514C206.659 196.514 263.035 145.378 263.035 77.5847C263.035 46.8633 249.042 15.4538 225.6 -6.43684L225.543 -6.49418L225.499 -6.55153C209.871 -33.4453 179.412 -54.7338 149.705 -59.5362C143.931 -60.4824 138.042 -60.9698 132.196 -60.9698Z" fill="#D1181F"/>
<path d="M131.892 194.564C58.2681 194.564 2.7461 144.274 2.7461 77.5847C2.73163 46.7342 16.9703 15.4251 40.8315 -6.19316L41.2367 -6.90995C59.9466 -39.0362 94.8052 -59.0059 132.196 -59.0059H132.211C137.941 -59.0059 143.714 -58.5328 149.372 -57.6153C178.689 -52.8702 208.656 -31.8397 223.951 -5.26134C247.176 16.2852 261.038 47.2503 261.038 77.5847C261.053 144.274 205.531 194.564 131.892 194.564ZM132.211 -58.0024C95.1669 -58.0024 60.6412 -38.2334 42.1194 -6.39386L41.6274 -5.54805L41.5695 -5.49071C17.8819 15.9268 3.74454 46.9923 3.75902 77.5847C3.75902 143.701 58.8469 193.56 131.892 193.56C204.952 193.56 260.054 143.701 260.054 77.5847C260.054 47.494 246.293 16.787 223.228 -4.58756L223.17 -4.6449L223.126 -4.71658C207.976 -31.0513 178.269 -51.924 149.213 -56.6261C143.613 -57.5436 137.897 -58.0024 132.211 -58.0024Z" fill="#D1181F"/>
<path d="M131.892 191.611C59.9611 191.611 5.72705 142.597 5.72705 77.599C5.72705 47.3793 19.7341 16.7726 43.1903 -4.30088C43.4797 -4.80262 43.8414 -5.41906 43.8414 -5.41906C62.0159 -36.6565 95.8761 -56.0527 132.196 -56.0527C132.196 -56.0527 132.196 -56.0527 132.211 -56.0527C137.782 -56.0527 143.396 -55.594 148.895 -54.6908C163.003 -52.4115 177.386 -46.3045 190.496 -37.0579C203.577 -27.8258 214.329 -16.1852 221.607 -3.41206C244.456 17.6041 258.086 47.8811 258.086 77.5846C258.086 109.023 245.251 137.938 221.954 158.983C198.643 180.027 166.664 191.611 131.892 191.611ZM132.211 -55.0492C96.2378 -55.0492 62.7105 -35.8394 44.7096 -4.93164C44.7096 -4.93164 44.3189 -4.25787 44.0295 -3.75612L43.9861 -3.68444L43.9282 -3.6271C20.6313 17.26 6.72549 47.623 6.72549 77.5846C6.72549 142.009 60.5255 190.593 131.878 190.593C166.404 190.593 198.137 179.096 221.245 158.237C244.34 137.379 257.045 108.736 257.045 77.5846C257.045 48.1248 243.515 18.0915 220.84 -2.73829L220.782 -2.79563L220.739 -2.86731C206.081 -28.6716 177.14 -49.0999 148.721 -53.7017C143.28 -54.6048 137.724 -55.0492 132.211 -55.0492Z" fill="#D1181F"/>
<path d="M131.892 188.658C61.6538 188.658 8.70752 140.906 8.70752 77.5849C8.70752 47.996 22.4831 18.0918 45.5485 -2.43695C45.809 -2.89569 46.4167 -3.95653 46.4167 -3.95653C64.0558 -34.2622 96.932 -53.085 132.196 -53.085C132.225 -53.085 132.254 -53.085 132.283 -53.085C137.665 -53.085 143.077 -52.6406 148.388 -51.7804C162.178 -49.544 176.214 -43.5804 188.991 -34.5202C201.725 -25.4744 212.172 -14.0775 219.219 -1.56247C241.677 18.9376 255.091 48.5121 255.091 77.5849C255.091 140.906 202.115 188.658 131.892 188.658ZM47.2994 -3.45478C47.2994 -3.45478 46.6193 -2.27925 46.3878 -1.87786L46.3444 -1.80618L46.2865 -1.74884C23.3802 18.5935 9.72043 48.2541 9.72043 77.5849C9.72043 140.332 62.2471 187.64 131.892 187.64C201.551 187.64 254.078 140.318 254.078 77.5849C254.078 48.7558 240.765 19.425 218.481 -0.888695L218.423 -0.946037L218.38 -1.00338C204.199 -26.2915 176.011 -46.3042 148.243 -50.7912C142.99 -51.6514 137.622 -52.0815 132.297 -52.0815C132.268 -52.0815 132.239 -52.0815 132.21 -52.0815C97.2937 -52.0815 64.7504 -33.4451 47.2994 -3.45478Z" fill="#D1181F"/>
<path d="M131.892 185.69C63.3614 185.69 11.6885 139.214 11.6885 77.5849C11.6885 48.6411 25.2325 19.4393 47.9072 -0.573341C48.1967 -1.08943 48.4861 -1.59118 48.7755 -2.07859L49.007 -2.47999C66.1107 -31.8825 97.9884 -50.1318 132.196 -50.1318H132.21C137.449 -50.1318 142.73 -49.7018 147.91 -48.856C161.382 -46.6769 175.085 -40.8423 187.501 -31.9685C199.887 -23.1234 210.031 -11.9702 216.832 0.2868C238.928 20.2421 252.095 49.1285 252.095 77.5849C252.095 139.214 200.423 185.69 131.892 185.69ZM132.21 -49.1283C98.3502 -49.1283 66.8053 -31.0654 49.8752 -1.97824L49.6581 -1.57684C49.3543 -1.06076 49.0504 -0.530334 48.761 8.39233e-05L48.7176 0.0717659L48.6452 0.129105C26.1297 19.941 12.7014 48.9135 12.7014 77.5849C12.7014 138.641 63.9402 184.687 131.892 184.687C199.844 184.687 251.097 138.641 251.097 77.5849C251.097 49.3866 238.016 20.7438 216.108 0.974911L216.05 0.917568L216.007 0.84589C202.304 -23.9119 174.883 -43.4801 147.751 -47.8668C142.629 -48.7126 137.405 -49.1283 132.21 -49.1283Z" fill="#D1181F"/>
<path d="M131.892 182.738C65.069 182.738 14.6694 137.537 14.6694 77.5855C14.6694 49.2868 27.982 20.7731 50.266 1.30527C50.6278 0.660164 50.9895 0.0150604 51.3513 -0.615711L51.5828 -1.01711C68.1656 -29.5021 99.0449 -47.1924 132.181 -47.1924C137.261 -47.1924 142.383 -46.7766 147.404 -45.9595C160.572 -43.8235 173.913 -38.1179 186.01 -29.4305C198.079 -20.7574 207.904 -9.8479 214.473 2.15108C236.178 21.5759 249.129 49.7599 249.129 77.5855C249.115 137.537 198.715 182.738 131.892 182.738ZM132.21 -46.1889C132.196 -46.1889 132.196 -46.1889 132.21 -46.1889C99.4211 -46.1889 68.8746 -28.685 52.4799 -0.515366L52.2484 -0.11396C51.8722 0.531143 51.496 1.19059 51.1342 1.86436L51.0908 1.93604L51.0184 1.99338C28.8936 21.2749 15.6823 49.5449 15.6823 77.5855C15.6823 136.964 65.6333 181.734 131.892 181.734C198.151 181.734 248.116 136.964 248.116 77.5855C248.116 50.018 235.267 22.0777 213.735 2.83919L213.677 2.78185L213.634 2.71017C200.423 -21.5172 173.754 -40.6696 147.274 -44.956C142.296 -45.7731 137.232 -46.1889 132.21 -46.1889Z" fill="#D1181F"/>
<path d="M131.892 179.784C66.7618 179.784 17.6646 135.845 17.6646 77.5992C17.6646 49.9313 30.7311 22.12 52.6389 3.1969C53.073 2.40843 53.5071 1.63431 53.9412 0.888851L54.1872 0.473114C70.2346 -27.0944 100.13 -44.2256 132.21 -44.2256C132.21 -44.2256 132.21 -44.2256 132.225 -44.2256C137.145 -44.2256 142.093 -43.8242 146.955 -43.0214C159.805 -40.9427 172.813 -35.3518 184.549 -26.8651C196.255 -18.407 205.776 -7.7269 212.1 4.01403C233.414 22.8941 246.148 50.4043 246.148 77.5992C246.148 105.783 234.529 131.688 213.431 150.554C192.319 169.405 163.379 179.784 131.892 179.784ZM132.21 -43.2221C132.21 -43.2221 132.196 -43.2221 132.21 -43.2221C100.477 -43.2221 70.9292 -26.2916 55.0554 0.960529L54.8094 1.37627C54.3608 2.13606 53.9123 2.93885 53.4782 3.74165L53.4347 3.82767L53.3624 3.88501C31.6427 22.6218 18.663 50.175 18.663 77.5992C18.663 135.286 67.3406 178.781 131.877 178.781C163.118 178.781 191.827 168.487 212.722 149.808C233.603 131.129 245.106 105.482 245.106 77.5992C245.106 50.648 232.474 23.3959 211.333 4.70214L211.261 4.6448L211.217 4.55879C198.498 -19.1381 172.596 -37.8605 146.753 -42.0322C141.963 -42.835 137.072 -43.2221 132.21 -43.2221Z" fill="#D1181F"/>
<path d="M131.892 176.831C68.4693 176.831 20.6455 134.168 20.6455 77.5848C20.6455 50.5476 33.495 23.4532 55.0121 5.06049C55.5041 4.15734 56.0105 3.2542 56.5315 2.35105L56.7775 1.92098C72.2895 -24.7291 101.186 -41.2725 132.21 -41.2725C132.225 -41.2725 132.239 -41.2725 132.254 -41.2725C137 -41.2725 141.775 -40.8854 146.463 -40.1256C159.009 -38.1043 171.656 -32.6424 183.058 -24.342C194.403 -16.056 203.62 -5.6196 209.698 5.84896C230.651 24.1986 243.153 51.0207 243.153 77.5848C243.153 134.168 195.315 176.831 131.892 176.831ZM132.239 -40.269C132.225 -40.269 132.21 -40.269 132.196 -40.269C101.534 -40.269 72.9696 -23.9119 57.6457 2.42273L57.3997 2.8528C56.8643 3.77028 56.3434 4.7021 55.8514 5.61959L55.808 5.7056L55.7356 5.76294C34.3921 23.9693 21.6439 50.82 21.6439 77.5848C21.6439 133.594 69.0337 175.827 131.878 175.827C194.736 175.827 242.126 133.594 242.126 77.5848C242.126 51.2644 229.725 24.7147 208.946 6.53707L208.873 6.47973L208.83 6.39371C196.602 -16.7584 171.468 -35.0651 146.261 -39.1364C141.659 -39.8819 136.928 -40.269 132.239 -40.269Z" fill="#D1181F"/>
<path d="M131.892 173.878C70.1769 173.878 23.6265 132.49 23.6265 77.5991C23.6265 51.2071 36.2444 24.8007 57.3853 6.95278C57.9931 5.82026 58.5574 4.80243 59.1217 3.84193L59.3677 3.41187C74.3443 -22.3207 102.257 -38.3193 132.21 -38.3193H132.225C136.812 -38.3193 141.442 -37.9466 145.972 -37.2012C158.199 -35.2228 170.513 -29.8899 181.568 -21.7903C192.594 -13.705 201.493 -3.51227 207.325 7.69824C227.902 25.5175 240.172 51.6371 240.172 77.5704C240.158 132.476 193.622 173.878 131.892 173.878ZM132.21 -37.3158C102.605 -37.3158 75.0244 -21.5179 60.2359 3.89928L59.9899 4.32935C59.4256 5.30418 58.8468 6.33635 58.2246 7.49754L58.1812 7.58355L58.1088 7.64089C37.1416 25.3168 24.6394 51.4651 24.6394 77.5991C24.6394 131.917 70.7413 172.874 131.892 172.874C193.043 172.874 239.159 131.917 239.159 77.5847C239.159 51.8952 226.975 26.0336 206.573 8.40069L206.5 8.34335L206.457 8.25733C194.736 -14.3644 170.354 -32.2267 145.798 -36.1977C141.312 -36.9431 136.754 -37.3158 132.21 -37.3158Z" fill="#D1181F"/>
<path d="M131.892 170.911C71.87 170.911 26.6074 130.785 26.6074 77.5854C26.6074 51.8385 38.9939 26.1346 59.7441 8.81706C60.3518 7.65587 61.003 6.48034 61.6975 5.30481L61.958 4.86041C76.3992 -19.9547 103.328 -35.3799 132.211 -35.3799C136.638 -35.3799 141.11 -35.0215 145.48 -34.3047C157.389 -32.3837 169.355 -27.1799 180.063 -19.2666C190.742 -11.3819 199.338 -1.41863 204.923 9.53384C225.123 26.8227 237.191 52.2399 237.191 77.5567C237.177 130.799 191.914 170.911 131.892 170.911ZM132.196 -34.362C103.661 -34.362 77.0793 -19.1375 62.8262 5.37649L62.5657 5.8209C61.8712 7.01076 61.2055 8.21496 60.5978 9.39049L60.5544 9.4765L60.482 9.53384C39.9055 26.665 27.6203 52.0965 27.6203 77.5997C27.6203 130.226 72.4488 169.922 131.892 169.922C191.336 169.922 236.179 130.226 236.179 77.5997C236.179 52.5409 224.226 27.3674 204.185 10.265L204.113 10.1933L204.069 10.1073C192.84 -11.984 169.225 -29.4306 145.32 -33.2869C140.994 -34.0037 136.581 -34.362 132.196 -34.362Z" fill="#D1181F"/>
<path d="M131.892 167.957C73.5771 167.957 29.5879 129.107 29.5879 77.585C29.5879 52.4689 41.7428 27.4818 62.1168 10.709C62.7969 9.39011 63.5204 8.07122 64.2728 6.78101L64.5333 6.33661C78.4391 -17.561 104.37 -32.3984 132.196 -32.3984C136.464 -32.3984 140.762 -32.0544 144.973 -31.3663C156.578 -29.4883 168.197 -24.4135 178.558 -16.6865C188.89 -8.98825 197.167 0.731354 202.506 11.4258C222.345 28.1699 234.181 52.8989 234.181 77.585C234.196 129.107 190.206 167.957 131.892 167.957ZM132.21 -31.3949C104.731 -31.3949 79.1481 -16.7439 65.416 6.85269L65.1555 7.2971C64.4031 8.60165 63.6651 9.93487 62.985 11.2681L62.9416 11.3541L62.8548 11.4258C42.6544 27.9978 30.6008 52.7412 30.6008 77.5993C30.6008 128.548 74.1415 166.968 131.892 166.968C189.642 166.968 233.183 128.548 233.183 77.5993C233.183 53.157 221.448 28.686 201.783 12.1282L201.696 12.0565L201.652 11.9562C190.93 -9.60468 168.096 -26.6068 144.814 -30.3771C140.661 -31.0509 136.421 -31.3949 132.21 -31.3949Z" fill="#D1181F"/>
<path d="M131.892 165.004C75.2703 165.004 32.5688 127.416 32.5688 77.5847C32.5688 53.1136 44.5067 28.829 64.5045 12.601C65.2569 11.1244 66.0528 9.66214 66.8631 8.27158L67.1236 7.81284C80.5084 -15.1816 105.441 -29.46 132.21 -29.46C132.21 -29.46 132.21 -29.46 132.225 -29.46C136.334 -29.46 140.458 -29.1302 144.51 -28.4565C155.797 -26.6358 167.069 -21.6757 177.097 -14.1494C187.081 -6.63754 195.04 2.83835 200.133 13.2747C219.61 29.4741 231.23 53.515 231.23 77.5847C231.215 127.416 188.514 165.004 131.892 165.004ZM132.21 -28.4565C105.802 -28.4565 81.1885 -14.3645 67.9918 8.31459L67.7313 8.77333C66.9065 10.1782 66.1107 11.6548 65.3582 13.1457L65.3148 13.2461L65.228 13.3177C45.4183 29.345 33.5818 53.3717 33.5818 77.5847C33.5818 126.842 75.8491 164 131.892 164C187.935 164 230.202 126.856 230.202 77.5847C230.202 53.7731 218.684 29.9902 199.381 13.9772L199.294 13.9055L199.25 13.8052C194.229 3.46912 186.358 -5.92076 176.474 -13.3466C166.577 -20.7869 155.464 -25.661 144.336 -27.4673C140.328 -28.1124 136.262 -28.4565 132.21 -28.4565Z" fill="#D1181F"/>
<path d="M131.892 162.051C76.978 162.051 35.5645 125.739 35.5645 77.5996C35.5645 53.7593 47.2708 30.1771 66.8923 14.5082C67.7026 12.8883 68.5564 11.297 69.4535 9.7631L69.714 9.30436C82.5635 -12.7726 106.512 -26.4775 132.211 -26.4775C136.146 -26.4775 140.126 -26.1478 144.004 -25.517C154.987 -23.7394 165.912 -18.9226 175.578 -11.5828C185.215 -4.27155 192.855 4.97497 197.688 15.139C216.803 30.8079 228.22 54.1321 228.22 77.5853C228.234 125.739 186.806 162.051 131.892 162.051ZM132.211 -25.4884C132.211 -25.4884 132.196 -25.4884 132.211 -25.4884C106.873 -25.4884 83.2581 -11.9698 70.5967 9.79177L70.3362 10.2505C69.4391 11.7988 68.5709 13.4044 67.7605 15.0386L67.7171 15.139L67.6303 15.2107C48.168 30.6932 36.5629 54.0174 36.5629 77.5996C36.5629 125.18 77.5423 161.048 131.878 161.048C186.228 161.048 227.207 125.165 227.207 77.5853C227.207 54.3901 215.906 31.3097 196.964 15.8414L196.878 15.7698L196.834 15.6694C192.074 5.59141 184.506 -3.55476 174.97 -10.7943C165.42 -18.0338 154.668 -22.7933 143.845 -24.5422C140.01 -25.173 136.089 -25.4884 132.211 -25.4884Z" fill="#D1181F"/>
<path d="M131.892 159.083C78.6706 159.083 38.5449 124.047 38.5449 77.5849C38.5449 54.3898 50.0342 31.51 69.2795 16.3858C70.1332 14.6369 71.0593 12.9023 72.0288 11.225L72.3038 10.7519C84.6179 -10.4076 107.568 -23.5391 132.21 -23.5391C135.987 -23.5391 139.793 -23.2237 143.526 -22.6216C154.205 -20.9013 164.768 -16.1992 174.101 -9.04568C183.391 -1.92084 190.713 7.06765 195.286 16.9879C214.053 32.1121 225.253 54.7625 225.253 77.5849C225.253 124.047 185.113 159.083 131.892 159.083ZM132.21 -22.5356C107.929 -22.5356 85.3124 -9.59043 73.172 11.2537L72.897 11.7267C71.9131 13.404 70.987 15.153 70.1332 16.9163L70.0898 17.0166L70.003 17.0883C50.9458 32.0261 39.5578 54.6478 39.5578 77.5706C39.5578 123.459 79.2494 158.066 131.892 158.066C184.534 158.066 224.24 123.459 224.24 77.5706C224.24 55.0062 213.142 32.6139 194.548 17.6761L194.461 17.6044L194.417 17.504C189.903 7.69841 182.668 -1.20405 173.479 -8.25721C164.29 -15.3104 153.872 -19.9265 143.367 -21.6324C139.677 -22.2345 135.929 -22.5356 132.21 -22.5356Z" fill="#D1181F"/>
<path d="M131.892 156.13C80.3782 156.13 41.5259 122.37 41.5259 77.5849C41.5259 55.0922 52.7402 32.9722 71.5225 18.3928C71.6238 18.2495 71.7251 18.1061 71.8119 17.9627C72.6801 16.1708 73.6207 14.4075 74.6046 12.7015L74.8796 12.2285C86.6583 -8.01353 108.624 -20.5859 132.196 -20.5859C132.196 -20.5859 132.196 -20.5859 132.21 -20.5859C135.828 -20.5859 139.46 -20.2849 143.034 -19.7115C153.409 -18.0342 163.625 -13.4611 172.596 -6.50828C181.525 0.415855 188.528 9.1893 192.84 18.8372C211.261 33.4023 222.243 55.3502 222.243 77.5849C222.243 99.2461 213.055 119.173 196.356 133.666C179.687 148.16 156.781 156.13 131.892 156.13ZM132.21 -19.5824C108.986 -19.5824 87.3673 -7.1964 75.7622 12.7302L75.4873 13.2033C74.5033 14.8949 73.5628 16.6582 72.709 18.4358L72.6656 18.5075C72.5499 18.6795 72.4196 18.8516 72.3039 19.0236L72.2605 19.0953L72.2026 19.1383C53.6229 33.5313 42.5388 55.3789 42.5388 77.5849C42.5388 121.796 80.957 155.127 131.892 155.127C156.549 155.127 179.209 147.242 195.705 132.921C212.187 118.614 221.245 98.9594 221.245 77.5849C221.245 55.6226 210.364 33.9327 192.117 19.554L192.015 19.4823L191.972 19.3676C187.718 9.82007 180.801 1.14698 171.974 -5.70549C163.133 -12.5579 153.062 -17.0594 142.86 -18.708C139.359 -19.2814 135.77 -19.5824 132.21 -19.5824Z" fill="#D1181F"/>
<path d="M131.892 153.177C82.0713 153.177 44.5068 120.678 44.5068 77.5849C44.5068 55.8233 55.4318 34.4631 73.7221 20.4285C73.9391 20.0987 74.1706 19.769 74.4022 19.4536C75.2559 17.6617 76.1965 15.884 77.1949 14.1781L77.4698 13.6907C88.7131 -5.6195 109.695 -17.6328 132.196 -17.6328C132.196 -17.6328 132.196 -17.6328 132.21 -17.6328C135.654 -17.6328 139.142 -17.3461 142.542 -16.787C162.916 -13.4898 182.147 1.56268 190.424 20.7152C208.497 34.7355 219.277 55.9953 219.277 77.5992C219.277 120.678 181.713 153.177 131.892 153.177ZM132.21 -16.6293C110.057 -16.6293 89.4222 -4.8167 78.3525 14.1924L78.0776 14.6798C77.0936 16.3715 76.153 18.1347 75.3138 19.9124L75.2993 19.9554L75.2704 19.9841C75.0244 20.3424 74.7784 20.7008 74.5324 21.0449L74.489 21.1166L74.4311 21.1596C56.3434 34.9935 45.5487 56.0813 45.5487 77.5705C45.5487 120.09 82.6791 152.159 131.921 152.159C181.163 152.159 218.293 120.09 218.293 77.5705C218.293 56.239 207.614 35.2372 189.715 21.4033L189.613 21.3173L189.556 21.2026C181.438 2.30814 162.496 -12.5723 142.397 -15.8122C139.026 -16.3426 135.611 -16.6293 132.21 -16.6293Z" fill="#D1181F"/>
<path d="M131.892 150.224C83.7786 150.224 47.502 119.001 47.502 77.5991C47.502 56.5687 58.1375 35.9683 75.9503 22.4927C76.2975 21.9766 76.6448 21.4606 77.0066 20.9588C77.8458 19.1812 78.7864 17.4036 79.7849 15.6833L80.0743 15.1959C90.7822 -3.21117 110.765 -14.6367 132.21 -14.6367C132.225 -14.6367 132.239 -14.6367 132.254 -14.6367C135.524 -14.6367 138.823 -14.3643 142.064 -13.8483C161.657 -10.6801 180.048 3.82765 187.848 22.2634L188.079 22.6504C205.762 36.126 216.311 56.6547 216.311 77.5991C216.296 119.001 180.005 150.224 131.892 150.224ZM132.254 -13.6619C132.239 -13.6619 132.225 -13.6619 132.21 -13.6619C111.127 -13.6619 91.4767 -2.42271 80.9425 15.6689L80.6531 16.1563C79.6546 17.8623 78.7285 19.6256 77.8893 21.4032L77.8748 21.4462L77.8458 21.4892C77.4696 22.0196 77.0934 22.5644 76.7316 23.1092L76.6882 23.1808L76.6159 23.2382C59.0057 36.5274 48.5004 56.841 48.5004 77.5991C48.5004 118.427 84.3429 149.22 131.877 149.22C179.412 149.22 215.269 118.427 215.269 77.5848C215.269 56.9271 204.836 36.6564 187.356 23.3672L187.269 23.3099L186.893 22.6648C179.224 4.53011 161.136 -9.76258 141.876 -12.8734C138.707 -13.4038 135.466 -13.6619 132.254 -13.6619Z" fill="#D1181F"/>
<path d="M131.892 147.27C85.4717 147.27 50.4829 117.323 50.4829 77.5989C50.4829 57.2852 60.8291 37.459 78.1498 24.5425C78.5984 23.8544 79.0904 23.152 79.5824 22.4495C80.4216 20.6575 81.3622 18.8656 82.3606 17.1596L82.65 16.6579C88.496 6.6229 97.1781 -1.30474 107.756 -6.26489C118.333 -11.225 130.025 -12.845 141.572 -10.9527C160.268 -7.92783 177.791 5.93479 185.157 23.5677L185.779 24.6429C203.013 37.5593 213.301 57.3569 213.301 77.5989C213.301 96.8231 205.024 114.499 189.975 127.358C174.941 140.189 154.321 147.27 131.892 147.27ZM132.167 -10.7233C123.919 -10.7233 115.758 -8.91699 108.19 -5.36174C97.7858 -0.501938 89.2629 7.29668 83.5182 17.1596L83.2288 17.6614C82.2304 19.3673 81.3043 21.1306 80.4795 22.9226L80.465 22.9656L80.4361 23.0086C79.9152 23.7397 79.4087 24.4565 78.9457 25.1733L78.9023 25.245L78.8299 25.3023C61.7117 38.0324 51.4958 57.5863 51.4958 77.6133C51.4958 116.764 86.065 146.281 131.892 146.281C154.075 146.281 174.478 139.3 189.309 126.598C204.127 113.926 212.288 96.522 212.288 77.5989C212.288 57.6436 202.116 38.1184 185.084 25.3883L184.997 25.331L184.23 23.9978C176.995 6.66591 159.776 -6.96734 141.399 -9.94916C138.317 -10.4652 135.235 -10.7233 132.167 -10.7233Z" fill="#D1181F"/>
<path d="M131.892 144.317C87.1793 144.317 53.4639 115.632 53.4639 77.5991C53.4639 58.0166 63.5206 38.9644 80.3639 26.5927C80.9282 25.7183 81.5359 24.8295 82.1726 23.9406C83.0119 22.12 83.938 20.3424 84.9364 18.6364L85.2258 18.1347C90.7679 8.61578 98.9869 1.10388 109.015 -3.59823C119.043 -8.30034 130.127 -9.83426 141.066 -8.0423C158.864 -5.16082 175.505 8.05669 182.465 24.8725L183.493 26.6357C200.292 39.0075 210.32 58.0453 210.32 77.5848C210.32 115.632 176.605 144.317 131.892 144.317ZM132.167 -7.75558C124.353 -7.75558 116.626 -6.04963 109.463 -2.68075C99.6236 1.93535 91.5493 9.3039 86.1085 18.6508L85.8191 19.1525C84.8351 20.8441 83.9091 22.6218 83.0698 24.4137L83.0553 24.4567L83.0264 24.4997C82.3752 25.4029 81.753 26.3204 81.1742 27.2235L81.1163 27.3095L81.044 27.3669C64.4033 39.5522 54.4768 58.332 54.4768 77.6278C54.4768 115.087 87.7581 143.343 131.892 143.343C176.026 143.343 209.322 115.087 209.322 77.6135C209.322 58.3463 199.41 39.5809 182.827 27.4099L182.74 27.3525L181.554 25.3169C174.724 8.80215 158.401 -4.18599 140.921 -7.01013C137.998 -7.52621 135.075 -7.75558 132.167 -7.75558Z" fill="#D1181F"/>
<path d="M131.892 141.35C88.8724 141.35 56.4448 113.941 56.4448 77.5853C56.4448 58.7339 66.2122 40.4416 82.5924 28.6289C83.2725 27.5394 84.0105 26.4499 84.7774 25.4321C85.6166 23.6115 86.5427 21.8195 87.5412 20.1135L87.8306 19.6118C93.0543 10.609 100.825 3.51281 110.303 -0.931254C119.781 -5.37532 130.243 -6.82322 140.589 -5.11728C157.504 -2.37916 173.248 10.1932 179.788 26.1775L181.235 28.6433C197.587 40.4559 207.354 58.7482 207.354 77.5853C207.34 113.941 174.897 141.35 131.892 141.35ZM132.153 -4.80189C124.773 -4.80189 117.494 -3.18196 110.737 -0.0137691C101.447 4.32995 93.8212 11.2971 88.6988 20.1135L88.4094 20.6153C87.4254 22.3069 86.4993 24.0845 85.6745 25.9052L85.6601 25.9482L85.6311 25.9912C84.8497 27.0377 84.1117 28.1415 83.4172 29.2597L83.3593 29.3457L83.2725 29.4031C67.0949 41.0006 57.4577 59.0206 57.4577 77.5853C57.4577 113.367 89.4512 140.347 131.892 140.347C174.333 140.347 206.327 113.367 206.327 77.5853C206.327 59.035 196.689 41.015 180.541 29.3887L180.454 29.3314L178.848 26.5789C172.452 10.8957 157.012 -1.44734 140.415 -4.12811C137.666 -4.58686 134.902 -4.80189 132.153 -4.80189Z" fill="#D1181F"/>
<path d="M131.892 138.397C90.58 138.397 59.4258 112.249 59.4258 77.5849C59.4258 59.4645 68.9182 41.932 84.8209 30.6785C85.6167 29.3739 86.4705 28.1124 87.3676 26.9225C88.1924 25.1019 89.1185 23.3099 90.117 21.5753L90.4208 21.0592C95.3552 12.5868 102.677 5.90639 111.591 1.7347C120.504 -2.43698 130.358 -3.79888 140.097 -2.20761C156.115 0.387147 170.976 12.3001 177.097 27.4673L178.964 30.6785C194.866 41.932 204.359 59.4645 204.359 77.5849C204.359 112.263 173.205 138.397 131.892 138.397ZM132.167 -1.84922C125.236 -1.84922 118.377 -0.329638 112.01 2.65219C103.285 6.73786 96.1076 13.2893 91.289 21.5753L90.9852 22.0914C89.9867 23.7973 89.0751 25.5893 88.2648 27.3956L88.2358 27.4529L88.2069 27.4959C87.3098 28.7001 86.4415 29.976 85.6312 31.3092L85.5733 31.3952L85.4865 31.4526C69.8009 42.5197 60.4387 59.7656 60.4387 77.5992C60.4387 111.689 91.1588 137.408 131.892 137.408C172.626 137.408 203.346 111.704 203.346 77.5992C203.346 59.7656 193.984 42.5054 178.284 31.4383L178.197 31.3809L176.171 27.8973C170.18 13.0169 155.623 1.31897 139.938 -1.21845C137.348 -1.63419 134.743 -1.84922 132.167 -1.84922Z" fill="#D1181F"/>
<path d="M131.892 135.444C92.2873 135.444 62.4209 110.571 62.4209 77.585C62.4209 60.1815 71.6384 43.4231 87.0636 32.7286C87.9462 31.2521 88.9157 29.7898 89.9576 28.4136C90.7679 26.5786 91.694 24.7867 92.7069 23.0521L93.0108 22.536C97.6412 14.594 104.515 8.3293 112.878 4.40132C121.228 0.502009 130.474 -0.788204 139.605 0.717044C154.711 3.16845 168.69 14.4363 174.405 28.772L176.706 32.7286C192.146 43.4231 201.363 60.1815 201.363 77.5994C201.378 110.571 171.497 135.444 131.892 135.444ZM132.167 1.10411C125.67 1.10411 119.245 2.52334 113.283 5.3188C105.108 9.14643 98.3792 15.2821 93.8645 23.0521L93.5607 23.5681C92.5622 25.2884 91.6506 27.066 90.8403 28.8867L90.8113 28.944L90.7824 28.987C89.7261 30.3776 88.7421 31.8398 87.8594 33.3451L87.8015 33.4454L87.7147 33.5028C72.4921 44.0108 63.4049 60.4825 63.4049 77.5994C63.4049 110.012 92.8371 134.455 131.863 134.455C170.904 134.455 200.336 110.012 200.336 77.5994C200.336 60.4825 191.249 43.9965 176.012 33.4884L175.925 33.4311L173.45 29.1877C167.879 15.1531 154.191 4.1146 139.417 1.72054C137.015 1.30481 134.584 1.10411 132.167 1.10411Z" fill="#D1181F"/>
<path d="M131.892 132.491C93.9804 132.491 65.4019 108.894 65.4019 77.5996C65.4019 60.9272 74.3444 44.9429 89.321 34.7932L89.4802 34.5208C90.4063 32.9296 91.4481 31.3813 92.5623 29.9334C93.3582 28.0985 94.2843 26.2778 95.2972 24.5432L95.6011 24.0271C99.9276 16.6156 106.338 10.7523 114.152 7.09667C121.966 3.44107 130.604 2.23687 139.142 3.64177C153.366 5.93548 166.447 16.5582 171.728 30.0624L174.478 34.7789C189.469 44.9142 198.411 60.9129 198.411 77.5996C198.383 108.88 169.804 132.491 131.892 132.491ZM132.167 4.07184C126.104 4.07184 120.113 5.40506 114.557 7.99982C106.931 11.5694 100.666 17.2893 96.4548 24.5289L96.1509 25.045C95.1525 26.7652 94.2409 28.5572 93.445 30.3778L93.4161 30.4352L93.3726 30.4782C92.2584 31.9118 91.2311 33.4457 90.3195 35.0083L90.0445 35.4813L89.9432 35.553C75.1837 45.502 66.3714 61.2139 66.3714 77.5853C66.3714 108.307 94.5158 131.473 131.849 131.473C169.182 131.473 197.341 108.307 197.341 77.5709C197.341 61.1852 188.528 45.459 173.754 35.5243L173.653 35.4527L170.73 30.4208C165.593 17.2177 152.802 6.83863 138.91 4.58792C136.696 4.24387 134.424 4.07184 132.167 4.07184Z" fill="#D1181F"/>
<path d="M131.892 129.537C95.688 129.537 68.3828 107.202 68.3828 77.5992C68.3828 61.6579 77.0504 46.4334 91.5495 36.8715C91.7087 36.5991 92.0415 36.0113 92.0415 36.0113C92.9676 34.4344 93.995 32.9005 95.1381 31.4526C95.934 29.6033 96.8456 27.7826 97.8585 26.0337L98.1624 25.5176C102.185 18.6221 108.147 13.1746 115.411 9.777C122.675 6.37944 130.706 5.26125 138.635 6.5658C151.948 8.71616 164.146 18.6795 169.008 31.3522L172.221 36.8428C186.734 46.419 195.402 61.6435 195.402 77.5992C195.402 107.202 168.097 129.537 131.892 129.537ZM92.9242 36.4987C92.9242 36.4987 92.4756 37.2872 92.3743 37.4592L92.3164 37.5596L92.2151 37.6312C77.9186 47.0068 69.3957 61.9589 69.3957 77.5992C69.3957 106.643 96.2668 128.534 131.892 128.534C167.518 128.534 194.389 106.629 194.403 77.5992C194.403 61.9446 185.866 47.0068 171.569 37.6169L171.468 37.5452L168.082 31.7106C163.365 19.3389 151.456 9.63364 138.476 7.52629C130.749 6.26475 122.921 7.33993 115.845 10.6658C108.769 13.9774 102.952 19.2816 99.045 26.005L98.7412 26.5211C97.7427 28.2414 96.8311 30.0477 96.0497 31.8826L96.0208 31.94L95.9774 31.9973C94.8632 33.4309 93.8358 34.9361 92.9242 36.4987Z" fill="#D1181F"/>
<path d="M131.892 126.571C97.3806 126.571 71.3633 105.511 71.3633 77.5854C71.3633 62.3753 79.756 47.9392 93.8065 38.922C93.9946 38.578 94.1972 38.2339 94.3853 37.9042L94.6458 37.4598C95.5574 35.8829 96.5992 34.3633 97.7424 32.9441C98.5237 31.0804 99.4354 29.2454 100.448 27.4965L100.752 26.9661C104.471 20.5867 109.97 15.5549 116.684 12.4153C123.398 9.27581 130.821 8.24364 138.143 9.44784C150.544 11.4548 161.86 20.7444 166.302 32.5857L169.977 38.922C184.028 47.9249 192.406 62.3753 192.406 77.5854C192.421 105.511 166.389 126.571 131.892 126.571ZM132.181 9.97826C127.001 9.97826 121.879 11.1108 117.118 13.3328C110.592 16.3863 105.238 21.2748 101.62 27.4822L101.316 28.0126C100.304 29.7472 99.4064 31.5535 98.6395 33.4028L98.6106 33.4745L98.5672 33.5318C97.4385 34.9367 96.4111 36.4276 95.514 37.9759L95.2535 38.4203C95.0364 38.7787 94.8339 39.1514 94.6313 39.5241L94.5734 39.6388L94.4576 39.7105C80.6242 48.5126 72.3762 62.6763 72.3762 77.5854C72.3762 104.938 97.9594 125.567 131.892 125.567C165.824 125.567 191.408 104.938 191.408 77.5854C191.408 62.6763 183.16 48.5126 169.341 39.7105L169.239 39.6388L165.376 32.9871C161.064 21.4612 150.052 12.4153 137.984 10.4513C136.045 10.136 134.106 9.97826 132.181 9.97826Z" fill="#D1181F"/>
<path d="M131.892 123.617C99.0882 123.617 74.3442 103.834 74.3442 77.585C74.3442 63.1059 82.462 49.444 96.0639 41.0003C96.3533 40.4412 96.6572 39.8964 96.9611 39.3803L97.2215 38.9216C98.1332 37.359 99.175 35.8537 100.318 34.4632C101.085 32.5852 101.997 30.7359 103.01 28.9726L103.313 28.4422C106.714 22.5932 111.779 17.9771 117.943 15.0957C124.107 12.2142 130.908 11.268 137.637 12.3719C149.126 14.2355 159.544 22.8513 163.567 33.8467L167.749 41.0289C181.322 49.4727 189.411 63.1202 189.411 77.585C189.44 103.834 164.696 123.617 131.892 123.617ZM132.181 12.931C127.435 12.931 122.747 13.9631 118.391 16.0131C112.415 18.8086 107.51 23.2813 104.211 28.9583L103.907 29.4887C102.894 31.2233 101.997 33.0583 101.244 34.9219L101.215 34.9936L101.172 35.0509C100.043 36.4272 99.0158 37.9038 98.1187 39.4377L97.8582 39.8964C97.5399 40.4412 97.236 41.0146 96.9177 41.6024L96.8308 41.717L96.7151 41.7887C83.3447 50.0317 75.3571 63.4213 75.3571 77.585C75.3571 103.26 99.667 122.613 131.892 122.613C164.117 122.613 188.427 103.26 188.427 77.585C188.427 63.4356 180.468 50.0604 167.127 41.8174L167.026 41.7457L162.67 34.2768L162.656 34.2338C158.763 23.5537 148.663 15.1673 137.492 13.3754C135.712 13.0743 133.947 12.931 132.181 12.931Z" fill="#D1181F"/>
<path d="M131.892 120.664C100.781 120.664 77.3398 102.142 77.3398 77.5852C77.3398 63.8516 85.1971 50.9638 98.3505 43.0791C98.7412 42.2907 99.1464 41.5452 99.5515 40.8571L99.8265 40.384C100.738 38.8358 101.78 37.3449 102.938 35.983C103.69 34.0763 104.587 32.227 105.615 30.4494L105.918 29.919C109.015 24.6004 113.631 20.3857 119.231 17.7623C124.845 15.1389 131.039 14.2787 137.159 15.2822C147.737 16.9882 157.258 24.9445 160.862 35.0798L165.564 43.1508C178.645 51.0211 186.445 63.8946 186.445 77.5852C186.445 102.142 162.989 120.664 131.892 120.664ZM132.182 15.8843C127.87 15.8843 123.615 16.8305 119.665 18.6798C114.239 21.2172 109.796 25.2886 106.787 30.4351L106.483 30.9655C105.47 32.7144 104.573 34.5494 103.835 36.4274L103.806 36.4991L103.748 36.5564C102.605 37.904 101.577 39.3519 100.68 40.8858L100.405 41.3589C99.9856 42.0613 99.5805 42.8354 99.1753 43.6526L99.1029 43.7816L98.9727 43.8533C92.6058 47.6379 87.3532 52.7127 83.7791 58.5617C80.2049 64.3963 78.3238 70.9764 78.3238 77.5852C78.3238 101.569 101.346 119.66 131.863 119.66C162.395 119.66 185.417 101.569 185.417 77.5852C185.417 64.21 177.748 51.6232 164.913 43.9393L164.797 43.8676L159.921 35.5099L159.906 35.4669C156.434 25.6469 147.231 17.9343 136.986 16.2714C135.394 16.0134 133.788 15.8843 132.182 15.8843Z" fill="#D1181F"/>
<path d="M131.892 117.711C102.489 117.711 80.3203 100.465 80.3203 77.5993C80.3203 71.1626 82.2014 64.7976 85.7466 59.1636C89.2629 53.5871 94.4142 48.7559 100.651 45.1864C101.099 44.2259 101.606 43.2797 102.141 42.3622L102.416 41.8748C103.313 40.3409 104.37 38.8786 105.542 37.5311C106.265 35.6101 107.162 33.7321 108.204 31.9545L108.508 31.4241C111.301 26.6216 115.454 22.837 120.518 20.4573C125.583 18.0919 131.168 17.3178 136.696 18.2209C146.348 19.7835 154.972 27.066 158.155 36.3412L163.379 45.3154C175.968 52.6266 183.478 64.6972 183.478 77.6137C183.464 100.465 161.295 117.711 131.892 117.711ZM132.181 18.8517C128.303 18.8517 124.483 19.6975 120.938 21.3604C116.062 23.6398 112.068 27.2954 109.376 31.9115L109.072 32.4419C108.045 34.2052 107.162 36.0545 106.453 37.9612L106.424 38.0472L106.367 38.1189C105.209 39.4234 104.167 40.857 103.299 42.3766L103.024 42.864C102.474 43.7958 101.968 44.7706 101.505 45.7598L101.432 45.9031L101.288 45.9891C95.1377 49.4871 90.0587 54.2322 86.6004 59.7084C83.142 65.1846 81.3187 71.3633 81.3187 77.6137C81.3187 99.9057 103.053 116.721 131.877 116.721C160.702 116.721 182.451 99.9057 182.451 77.6137C182.451 65.0126 175.085 53.243 162.728 46.1182L162.612 46.0465L157.2 36.757L157.186 36.714C154.133 27.7542 145.812 20.7153 136.508 19.2101C135.075 18.9664 133.628 18.8517 132.181 18.8517Z" fill="#D1181F"/>
<path d="M131.892 114.757C104.196 114.757 83.3013 98.7727 83.3013 77.5989C83.3013 71.5206 85.1245 65.5283 88.5539 60.2671C91.9544 55.0632 96.9321 50.5761 102.952 47.2789C103.473 46.1034 104.066 44.9422 104.703 43.824L104.992 43.3366C105.875 41.817 106.931 40.3835 108.132 39.0789C108.841 37.1293 109.724 35.2226 110.766 33.4306L111.069 32.9002C113.558 28.6282 117.263 25.245 121.763 23.1376C126.263 21.0303 131.255 20.3422 136.175 21.145C144.901 22.5499 152.628 29.1586 155.391 37.5737L161.165 47.494C173.248 54.2461 180.468 65.4996 180.468 77.6276C180.483 98.7727 159.588 114.757 131.892 114.757ZM132.196 21.7901C128.766 21.7901 125.38 22.5355 122.226 24.0121C117.899 26.0334 114.354 29.2733 111.981 33.3733L111.677 33.9037C110.65 35.6813 109.767 37.5593 109.087 39.4803L109.058 39.5807L108.986 39.6523C107.814 40.9282 106.772 42.3188 105.904 43.824L105.614 44.3114C104.963 45.444 104.355 46.6195 103.849 47.8093L103.777 47.967L103.617 48.0531C97.6701 51.2786 92.7647 55.6796 89.4221 60.7831C86.094 65.8867 84.3286 71.6926 84.3286 77.5702C84.3286 98.185 104.775 113.725 131.906 113.725C159.024 113.725 179.484 98.185 179.499 77.5559C179.499 65.7576 172.437 54.8052 160.601 48.2394L160.485 48.1677L154.509 37.9177L154.494 37.8604C151.861 29.775 144.452 23.4243 136.059 22.0624C134.757 21.9047 133.469 21.7901 132.196 21.7901Z" fill="#D1181F"/>
<path d="M131.892 111.79C105.889 111.79 86.2822 97.0817 86.2822 77.5851C86.2822 71.8795 88.0476 66.2599 91.3757 61.3715C94.6604 56.5403 99.479 52.3973 105.31 49.3868C105.875 47.9819 106.54 46.62 107.307 45.3155L107.597 44.8137C108.479 43.2941 109.536 41.8892 110.766 40.642C111.446 38.6494 112.314 36.7284 113.37 34.9078L113.674 34.3773C115.859 30.6214 119.115 27.6682 123.065 25.8189C127.016 23.9696 131.386 23.3675 135.712 24.07C143.512 25.3315 150.313 31.2378 152.671 38.7784L159.024 49.6879C170.6 55.8666 177.502 66.2886 177.502 77.6138C177.502 97.096 157.895 111.79 131.892 111.79ZM132.182 24.7581C129.186 24.7581 126.234 25.4175 123.499 26.6934C119.737 28.4567 116.641 31.2808 114.557 34.8504L114.253 35.3808C113.211 37.1728 112.343 39.0794 111.692 41.0434L111.648 41.1581L111.562 41.2441C110.361 42.4627 109.319 43.8246 108.465 45.3011L108.176 45.8029C107.409 47.1218 106.729 48.5123 106.179 49.9172L106.106 50.0893L105.933 50.1753C100.174 53.1141 95.4274 57.1854 92.215 61.9162C89.0026 66.647 87.2951 72.0659 87.2951 77.5708C87.2951 96.5083 106.468 110.772 131.892 110.772C157.316 110.772 176.489 96.4939 176.489 77.5708C176.489 66.5897 169.732 56.4543 158.416 50.462L158.286 50.3903L151.731 39.1368L151.716 39.0794C149.488 31.8686 142.991 26.2203 135.539 25.0161C134.41 24.8584 133.296 24.7581 132.182 24.7581Z" fill="#D1181F"/>
<path d="M131.892 108.837C107.597 108.837 89.2632 95.4043 89.2632 77.585C89.2632 72.2378 90.9707 67.0196 94.1975 62.4752C97.3809 58.0168 102.04 54.2179 107.669 51.4941C108.248 49.8598 108.986 48.2685 109.869 46.7776L110.158 46.2759C111.026 44.7706 112.112 43.4087 113.356 42.2189C113.993 40.1832 114.861 38.2192 115.932 36.3699L116.236 35.8395C118.117 32.614 120.909 30.0622 124.31 28.4566C127.71 26.8654 131.473 26.3349 135.191 26.9514C142.05 28.0552 147.94 33.2734 149.879 39.9252L156.839 51.8668C167.894 57.4864 174.492 67.0913 174.492 77.585C174.492 86.2295 170.137 94.1571 162.236 99.9344C154.393 105.683 143.613 108.837 131.892 108.837ZM132.182 27.7112C129.62 27.7112 127.103 28.2703 124.758 29.3741C121.546 30.8793 118.898 33.2877 117.133 36.3412L116.829 36.8717C115.772 38.6923 114.919 40.6276 114.311 42.6346L114.268 42.7636L114.166 42.8496C112.936 43.9965 111.894 45.3154 111.055 46.7633L110.766 47.265C109.883 48.7703 109.145 50.3759 108.581 52.0102L108.508 52.2109L108.32 52.2969C102.749 54.9633 98.1623 58.6763 95.0368 63.0486C91.9257 67.4067 90.2761 72.4385 90.2761 77.5707C90.2761 94.8165 108.161 107.819 131.892 107.819C143.396 107.819 153.974 104.723 161.657 99.1172C169.298 93.5407 173.508 85.8854 173.508 77.5707C173.508 72.5819 171.931 67.6647 168.965 63.364C165.984 59.049 161.599 55.3647 156.274 52.6839L156.144 52.6123L148.967 40.2979L148.953 40.2406C147.144 33.9185 141.558 28.9727 135.061 27.9262C134.092 27.7972 133.137 27.7112 132.182 27.7112Z" fill="#D1181F"/>
<path d="M131.892 105.883C109.29 105.883 92.2583 93.7122 92.2583 77.5846C92.2583 72.5958 93.9224 67.7646 97.0624 63.6073C100.145 59.5216 104.659 56.081 110.129 53.6296C110.693 51.7517 111.489 49.9454 112.473 48.2538L112.777 47.7377C113.631 46.2611 114.716 44.9565 116.018 43.8384C116.597 41.7454 117.451 39.724 118.551 37.846L118.854 37.3156C120.432 34.6062 122.776 32.4702 125.626 31.1369C128.477 29.8037 131.632 29.3593 134.743 29.8754C137.666 30.3485 140.4 31.6674 142.629 33.703C144.843 35.71 146.391 38.2618 147.144 41.0859L154.364 53.472C154.494 53.687 154.61 53.902 154.726 54.1171C159.877 56.5971 164.132 60.0234 167.04 64.0374C169.992 68.123 171.555 72.8108 171.555 77.5989C171.555 85.4262 167.503 92.6227 160.138 97.8553C152.801 103.03 142.788 105.883 131.892 105.883ZM132.196 30.6639C130.083 30.6639 127.985 31.1226 126.046 32.0401C123.384 33.2873 121.199 35.28 119.723 37.8174L119.419 38.3478C118.334 40.1971 117.509 42.1898 116.944 44.2541L116.901 44.3975L116.785 44.4978C115.526 45.5586 114.47 46.8202 113.645 48.2394L113.341 48.7555C112.357 50.4471 111.576 52.2534 111.026 54.1314L110.954 54.3608L110.737 54.4611C105.325 56.8408 100.883 60.2097 97.8582 64.2094C94.8485 68.1947 93.2567 72.8251 93.2567 77.5846C93.2567 93.1388 109.868 104.88 131.878 104.88C142.557 104.88 152.382 102.084 159.516 97.0238C166.606 91.992 170.498 85.0822 170.498 77.5846C170.498 73.0115 169.008 68.5244 166.172 64.6108C163.336 60.6971 159.168 57.3426 154.104 54.9342L153.959 54.8625L153.887 54.7192C153.756 54.4611 153.612 54.2031 153.467 53.9594L146.174 41.4586L146.16 41.387C144.756 35.9824 140.097 31.7534 134.555 30.8502C133.773 30.7212 132.977 30.6639 132.196 30.6639Z" fill="#D1181F"/>
<path d="M131.892 102.93C110.997 102.93 95.2393 92.0352 95.2393 77.5992C95.2393 72.9831 96.8599 68.5391 99.9276 64.7544C102.923 61.0558 107.307 57.9593 112.632 55.7946C113.139 53.6729 113.964 51.6373 115.063 49.745L115.367 49.2145C116.206 47.7666 117.321 46.5194 118.666 45.5159C119.173 43.3369 119.998 41.2582 121.126 39.3373L121.43 38.8068C123.094 35.954 125.771 33.904 128.984 33.0582C132.196 32.2124 135.553 32.6282 138.433 34.2768C141.428 35.9827 143.584 38.8785 144.351 42.2044L151.789 54.9488C152.064 55.4362 152.324 55.9093 152.541 56.3681C157.446 58.5614 161.498 61.6436 164.262 65.2705C167.084 68.9548 168.574 73.2268 168.574 77.5992C168.545 92.0352 152.787 102.93 131.892 102.93ZM132.225 33.6173C131.226 33.6173 130.228 33.7463 129.23 34.0187C126.278 34.8072 123.818 36.6852 122.298 39.3086L121.995 39.839C120.88 41.7313 120.084 43.7813 119.593 45.9173L119.549 46.1037L119.39 46.2184C118.088 47.1645 117.031 48.3401 116.221 49.7163L115.917 50.2467C114.817 52.1247 114.022 54.1604 113.53 56.2677L113.472 56.5257L113.226 56.6261C107.959 58.7191 103.632 61.7439 100.695 65.3709C97.7715 68.9835 96.2232 73.2125 96.2232 77.5849C96.2377 91.4618 111.562 101.927 131.892 101.927C152.208 101.927 167.532 91.4618 167.547 77.5849C167.547 73.4275 166.128 69.3705 163.452 65.8583C160.76 62.3317 156.781 59.3355 151.962 57.1995L151.789 57.1278L151.702 56.9558C151.47 56.4827 151.195 55.9667 150.906 55.4362L143.396 42.5485L143.381 42.4768C142.687 39.3803 140.704 36.6995 137.926 35.1226C136.146 34.1334 134.193 33.6173 132.225 33.6173Z" fill="#D1181F"/>
<path d="M131.892 99.9769C112.69 99.9769 98.2202 90.3577 98.2202 77.5846C98.2202 73.3986 99.8264 69.3559 102.88 65.901C105.832 62.5464 110.1 59.8083 115.223 57.959C115.613 55.5793 116.424 53.3142 117.639 51.2212L117.943 50.6908C118.753 49.2859 119.925 48.1247 121.329 47.2933C121.734 44.9995 122.53 42.8205 123.702 40.8135L124.02 40.2688C126.625 35.796 132.413 34.2478 136.942 36.8282C139.301 38.1757 140.951 40.4551 141.486 43.0929C141.515 43.2076 141.544 43.3079 141.602 43.4083L149.184 56.4251C149.604 57.1275 149.965 57.873 150.284 58.6185C154.958 60.5538 158.807 63.2632 161.44 66.4887C164.132 69.786 165.564 73.6279 165.564 77.5846C165.564 90.3434 151.08 99.9769 131.892 99.9769ZM132.211 36.5845C129.288 36.5845 126.437 38.0897 124.874 40.7705L124.556 41.3009C123.413 43.2793 122.631 45.4296 122.27 47.6803L122.226 47.924L122.009 48.0387C120.663 48.7698 119.564 49.8593 118.797 51.1782L118.493 51.7086C117.292 53.773 116.51 56.0237 116.163 58.3891L116.12 58.6901L115.83 58.7905C110.737 60.5824 106.526 63.2632 103.618 66.5461C100.738 69.8146 99.2042 73.6279 99.2042 77.5702C99.2042 89.7556 113.24 98.9591 131.863 98.9591C150.486 98.9591 164.522 89.7699 164.522 77.5702C164.522 73.843 163.177 70.216 160.63 67.1052C158.069 63.9657 154.278 61.3136 149.676 59.4499L149.473 59.3639L149.387 59.1632C149.068 58.3891 148.692 57.6293 148.258 56.8982L140.676 43.8814C140.56 43.695 140.488 43.48 140.444 43.2649C139.967 40.9139 138.491 38.8782 136.378 37.674C135.09 36.9429 133.643 36.5845 132.211 36.5845Z" fill="#D1181F"/>
<path d="M131.892 97.0098C114.397 97.0098 101.201 88.6521 101.201 77.585C101.201 73.7717 102.807 70.1161 105.831 67.0482C108.754 64.0808 112.95 61.701 117.972 60.1528C118.116 57.5437 118.898 54.9633 120.214 52.6982L120.533 52.1535C121.329 50.7916 122.588 49.7737 124.078 49.2863C124.281 46.8349 125.047 44.4265 126.292 42.2905L126.61 41.7457C128.405 38.6779 132.369 37.6314 135.452 39.409C137.058 40.3265 138.186 41.8891 138.548 43.6954C138.635 44.1255 138.794 44.5269 139.011 44.8996L146.594 57.9164C147.143 58.8626 147.606 59.8661 147.954 60.8982C152.411 62.5612 156.086 64.9122 158.604 67.7364C161.194 70.6465 162.569 74.0584 162.569 77.5993C162.569 82.9895 159.414 87.9353 153.698 91.5336C148.055 95.0602 140.299 97.0098 131.892 97.0098ZM132.21 39.538C130.329 39.538 128.491 40.5129 127.478 42.2332L127.16 42.7779C125.945 44.8709 125.207 47.265 125.062 49.6877L125.033 50.0461L124.686 50.1465C123.297 50.5335 122.125 51.4223 121.401 52.6552L121.083 53.2C119.78 55.4363 119.057 57.9737 118.956 60.5542L118.941 60.9126L118.594 61.0129C113.573 62.5038 109.405 64.8405 106.54 67.7507C103.704 70.6322 102.199 74.0441 102.199 77.5993C102.199 88.1074 114.962 96.0207 131.877 96.0207C140.111 96.0207 147.664 94.1284 153.149 90.6878C158.56 87.2902 161.556 82.6455 161.556 77.6136C161.556 74.3164 160.268 71.1339 157.851 68.4245C155.406 65.672 151.788 63.3783 147.375 61.7727L147.143 61.6867L147.071 61.4573C146.724 60.4108 146.275 59.393 145.711 58.4325L138.129 45.4157C137.854 44.9426 137.665 44.4409 137.55 43.8961C137.246 42.3765 136.291 41.0576 134.931 40.2835C134.077 39.7818 133.136 39.538 132.21 39.538Z" fill="#D1181F"/>
<path d="M131.892 94.0563C116.351 94.0563 104.182 86.8168 104.182 77.5846C104.182 70.8898 110.433 65.1125 120.504 62.5178C120.663 62.4748 120.822 62.4461 120.996 62.4318C120.721 59.579 121.358 56.6688 122.805 54.1744L123.123 53.6296C123.745 52.5688 124.903 51.895 126.147 51.895C126.466 51.895 126.77 51.938 127.073 52.024C126.798 49.1712 127.435 46.2611 128.882 43.7667L129.201 43.2219C129.823 42.1611 130.98 41.4873 132.225 41.4873C132.413 41.4873 132.601 41.5016 132.789 41.5303C134.207 41.7597 135.365 42.8635 135.654 44.2541C135.799 44.9996 136.074 45.702 136.45 46.3614L144.032 59.3783C144.727 60.5681 145.233 61.844 145.537 63.1629C154.364 66.03 159.617 71.4059 159.617 77.5846C159.588 86.8311 147.418 94.0563 131.892 94.0563ZM121.387 63.4066C121.17 63.4066 120.967 63.4353 120.764 63.4926C111.156 65.9727 105.195 71.3772 105.195 77.5989C105.195 86.272 116.915 93.0672 131.892 93.0672C146.854 93.0672 158.589 86.272 158.589 77.5989C158.589 71.8216 153.481 66.7468 144.944 64.0517L144.669 63.9657L144.611 63.679C144.322 62.3457 143.844 61.0699 143.15 59.8943L135.553 46.8775C135.119 46.1321 134.8 45.3149 134.641 44.4691C134.439 43.48 133.628 42.6915 132.615 42.5338C132.485 42.5195 132.355 42.5051 132.21 42.5051C131.328 42.5051 130.503 42.9782 130.069 43.738L129.75 44.2828C128.26 46.8345 127.71 49.845 128.173 52.7552L128.347 53.816L127.421 53.2712C127.03 53.0419 126.596 52.9272 126.147 52.9272C125.265 52.9272 124.44 53.4003 124.006 54.1601L123.687 54.7048C122.255 57.1562 121.691 60.0664 122.067 62.8762L122.139 63.4496H121.387V63.4066Z" fill="#D1181F"/>
<path d="M142.499 65.8582C142.426 64.1809 141.949 62.561 141.095 61.113L133.513 48.0962C132.948 47.1214 132.543 46.0606 132.312 44.9424L131.993 45.4871C130.112 48.7127 130.112 52.6693 131.993 55.8949L138.056 66.3026C139.937 69.5281 139.937 73.4848 138.056 76.7103L137.738 77.2551C137.506 76.1512 137.101 75.0904 136.537 74.1155L130.98 64.5823L127.435 58.504C126.871 57.5291 126.466 56.4683 126.234 55.3644L125.916 55.9092C124.049 59.1204 124.035 63.0627 125.901 66.2882L131.979 76.7246C133.86 79.9502 133.86 83.9068 131.979 87.1323L131.661 87.6771C131.429 86.5732 131.024 85.5124 130.46 84.5376L122.877 71.5208C121.879 69.8005 121.387 67.8508 121.474 65.8582C113.356 67.9655 107.756 72.4239 107.756 77.5848C107.756 84.767 118.594 90.6016 131.979 90.6016C145.364 90.6016 156.202 84.7813 156.202 77.5848C156.216 72.4239 150.616 67.9655 142.499 65.8582Z" fill="#D1181F"/>
<path d="M266.855 116.994H133.498V135.444L-1.94238 135.473V157.091C-1.94238 157.091 -1.97132 168 9.0694 168H255.829C255.829 168 266.812 167.914 266.812 157.091C266.812 146.268 266.855 116.994 266.855 116.994Z" fill="url(#paint0_linear_8698_261)"/>
</g>
<path d="M236.527 130V129.5H236.027H225H224.5V130V149.818V150.318H225H236.027H236.527V149.818V130Z" fill="white" stroke="white"/>
<path d="M230.699 130.087L231.199 129.694L230.699 129.301C228.766 127.782 226.445 126.837 224 126.575C221.556 126.313 219.087 126.743 216.876 127.818C214.664 128.892 212.8 130.567 211.496 132.651C210.192 134.735 209.5 137.144 209.5 139.603C209.5 142.061 210.192 144.47 211.496 146.554C212.8 148.638 214.664 150.313 216.876 151.387C219.087 152.462 221.556 152.893 224 152.631C226.445 152.368 228.766 151.424 230.699 149.905L231.199 149.511L230.699 149.118C229.257 147.987 228.092 146.542 227.291 144.894C226.49 143.246 226.075 141.437 226.076 139.605V139.604C226.074 137.771 226.49 135.961 227.29 134.313C228.091 132.664 229.257 131.219 230.699 130.087Z" fill="white" stroke="white"/>
<path d="M229.691 149.12L229.191 149.513L229.691 149.906C231.624 151.426 233.945 152.371 236.39 152.633C238.834 152.896 241.303 152.465 243.515 151.391C245.726 150.317 247.591 148.642 248.895 146.558C250.2 144.474 250.892 142.064 250.892 139.606V139.602C250.892 137.144 250.2 134.735 248.895 132.651C247.591 130.567 245.726 128.892 243.515 127.817C241.303 126.743 238.834 126.312 236.39 126.575C233.945 126.838 231.624 127.783 229.691 129.302L229.191 129.695L229.691 130.088C231.132 131.221 232.297 132.666 233.098 134.314C233.899 135.963 234.315 137.771 234.315 139.604C234.315 141.437 233.899 143.246 233.098 144.894C232.297 146.542 231.132 147.987 229.691 149.12Z" fill="white" stroke="white"/>
<path d="M236.027 130H225V149.818H236.027V130Z" fill="#FF5F00"/>
<path d="M225.576 139.604C225.574 137.696 226.007 135.811 226.841 134.094C227.675 132.377 228.888 130.872 230.39 129.694C228.531 128.233 226.298 127.324 223.947 127.072C221.596 126.82 219.221 127.234 217.094 128.268C214.967 129.301 213.174 130.912 211.92 132.917C210.665 134.921 210 137.238 210 139.603C210 141.967 210.665 144.284 211.92 146.289C213.174 148.293 214.967 149.904 217.094 150.938C219.221 151.971 221.596 152.386 223.947 152.133C226.298 151.881 228.531 150.973 230.39 149.511C228.889 148.333 227.675 146.829 226.841 145.113C226.007 143.396 225.575 141.513 225.576 139.604Z" fill="#EB001B"/>
<path d="M250.392 139.606C250.392 141.971 249.726 144.288 248.472 146.292C247.217 148.297 245.423 149.908 243.296 150.941C241.169 151.975 238.794 152.389 236.443 152.136C234.092 151.884 231.859 150.975 230 149.513C231.501 148.334 232.714 146.829 233.548 145.113C234.382 143.396 234.815 141.513 234.815 139.604C234.815 137.696 234.382 135.812 233.548 134.096C232.714 132.379 231.501 130.875 230 129.695C231.859 128.234 234.092 127.325 236.443 127.072C238.794 126.82 241.169 127.234 243.296 128.267C245.423 129.3 247.217 130.911 248.472 132.916C249.726 134.92 250.392 137.238 250.392 139.602V139.606Z" fill="#F79E1B"/>
<path d="M251.252 147.49V147.084H251.417V147H251V147.084H251.179V147.49H251.252ZM252.061 147.49V147H251.935L251.788 147.35L251.641 147H251.529V147.49H251.62V147.123L251.756 147.441H251.851L251.987 147.123V147.494L252.061 147.49Z" fill="white"/>
</g>
<defs>
<linearGradient id="paint0_linear_8698_261" x1="132.454" y1="168.002" x2="132.454" y2="116.994" gradientUnits="userSpaceOnUse">
<stop stop-color="#EC1C24"/>
<stop offset="1" stop-color="#ED2345" stop-opacity="0.6"/>
</linearGradient>
<clipPath id="clip0_8698_261">
<rect width="269" height="168" fill="white" transform="translate(-2)"/>
</clipPath>
</defs>
</svg>
