<svg width="266" height="168" viewBox="0 0 266 168" fill="none" xmlns="http://www.w3.org/2000/svg">
<mask id="mask0_8698_656" style="mask-type:alpha" maskUnits="userSpaceOnUse" x="0" y="0" width="266" height="168">
<path d="M256 0H10C4.47715 0 0 4.47715 0 10V158C0 163.523 4.47715 168 10 168H256C261.523 168 266 163.523 266 158V10C266 4.47715 261.523 0 256 0Z" fill="white"/>
</mask>
<g mask="url(#mask0_8698_656)">
<path d="M256 0H10C4.47715 0 0 4.47715 0 10V158C0 163.523 4.47715 168 10 168H256C261.523 168 266 163.523 266 158V10C266 4.47715 261.523 0 256 0Z" fill="#FF0000"/>
<g clip-path="url(#clip0_8698_656)">
<path d="M268 157.172V10.9083C268 4.88647 263.09 0 257.038 0H9.96161C3.91034 0 -1 4.88647 -1 10.9083V157.172C-1 163.194 3.91034 168.08 9.96161 168.08H257.024C263.09 168.08 268 163.194 268 157.172Z" fill="#00AB4E"/>
<path d="M132.879 242.427C32.333 242.427 -43.5029 171.702 -43.5029 77.925C-43.5029 36.778 -25.5224 -5.73425 4.58952 -35.8148C32.3041 -79.29 81.5808 -106.295 133.197 -106.295H133.212C141.53 -106.295 149.907 -105.605 158.11 -104.254C197.681 -97.8298 239.52 -69.9051 262.238 -34.7513C291.7 -4.77132 309.276 37.3386 309.276 77.925C309.276 100.906 304.77 122.866 295.859 143.188C287.223 162.921 274.745 180.469 258.786 195.344C242.828 210.219 224.01 221.846 202.852 229.909C181.059 238.216 157.518 242.427 132.879 242.427ZM133.212 -105.275H133.197C81.9129 -105.275 32.954 -78.4277 5.41273 -35.2255L5.38385 -35.1824L5.34052 -35.1393C-24.6126 -5.24561 -42.5064 37.0224 -42.5064 77.925C-42.5064 171.127 32.8817 241.421 132.865 241.421C157.373 241.421 180.799 237.238 202.476 228.974C223.504 220.969 242.221 209.4 258.079 194.611C273.936 179.822 286.342 162.389 294.921 142.786C303.774 122.579 308.265 100.762 308.251 77.925C308.251 37.5829 290.761 -4.28268 261.458 -34.0758L261.429 -34.1189L261.4 -34.162C238.842 -69.1003 197.248 -96.8669 157.937 -103.262C149.791 -104.585 141.472 -105.275 133.212 -105.275Z" fill="#63A83C"/>
<path d="M132.88 239.624C33.9362 239.624 -40.6865 170.106 -40.6865 77.9245C-40.6865 37.3812 -22.9371 -4.47001 6.81379 -34.0475C33.994 -76.876 82.4186 -103.479 133.197 -103.479H133.212C141.372 -103.479 149.589 -102.803 157.648 -101.481C196.598 -95.1571 237.744 -67.6348 260.028 -32.984C289.115 -3.50709 306.474 37.956 306.474 77.9245C306.474 170.106 231.837 239.624 132.88 239.624ZM133.212 -102.472H133.197C82.7363 -102.472 34.6294 -76.0281 7.63699 -33.4583L7.60811 -33.4152L7.56478 -33.372C-22.0128 -3.98137 -39.6756 37.6255 -39.6756 77.9245C-39.6756 169.531 34.4995 238.617 132.88 238.617C231.26 238.617 305.464 169.531 305.464 77.9245C305.464 38.186 288.191 -3.03281 259.263 -32.3229L259.22 -32.366L259.191 -32.4091C237.065 -66.8444 196.18 -94.2086 157.475 -100.489C149.488 -101.797 141.328 -102.472 133.212 -102.472Z" fill="#63A83C"/>
<path d="M132.88 236.822C35.5395 236.822 -37.8701 168.512 -37.8701 77.9254C-37.8701 37.9857 -20.3373 -3.20439 9.02364 -32.2933C35.655 -74.475 83.2275 -100.689 133.197 -100.689H133.212C141.213 -100.689 149.286 -100.028 157.172 -98.7349C195.53 -92.5118 235.954 -65.3919 257.805 -31.2441C286.516 -2.25584 303.659 38.5462 303.659 77.911C303.659 168.512 230.234 236.822 132.88 236.822ZM133.212 -99.669H133.197C83.5597 -99.669 36.3049 -73.627 9.86128 -31.704L9.8324 -31.6609L9.78907 -31.6178C-19.413 -2.71574 -36.8447 38.23 -36.8447 77.9254C-36.8447 167.937 36.1316 235.816 132.894 235.816C229.671 235.816 302.662 167.937 302.662 77.9254C302.662 38.8049 285.62 -1.75282 257.068 -30.5686L257.025 -30.6117L256.996 -30.6549C235.304 -64.5871 195.126 -91.5489 157.027 -97.7288C149.171 -99.0079 141.155 -99.669 133.212 -99.669Z" fill="#63A83C"/>
<path d="M132.879 234.019C37.1418 234.019 -35.0547 166.916 -35.0547 77.9249C-35.0547 38.6032 -17.753 -1.94015 11.2325 -30.526C37.3439 -72.061 84.0644 -97.873 133.197 -97.873H133.211C141.068 -97.873 148.968 -97.2263 156.723 -95.9472C194.46 -89.8247 234.176 -63.1073 255.594 -29.4768C283.93 -0.977226 300.841 39.1637 300.841 77.9249C300.841 166.916 228.631 234.019 132.879 234.019ZM133.226 -96.867H133.211C84.411 -96.867 37.9794 -71.2274 12.0701 -29.9367L12.0413 -29.8936L11.9979 -29.8505C-16.8287 -1.4515 -34.0293 38.8475 -34.0293 77.9249C-34.0293 166.341 37.7339 233.013 132.893 233.013C228.067 233.013 299.845 166.341 299.845 77.9249C299.845 39.408 283.02 -0.502945 254.858 -28.8157L254.814 -28.8588L254.785 -28.902C233.526 -62.3312 194.056 -88.8762 156.579 -94.9699C148.866 -96.2203 141.01 -96.867 133.226 -96.867Z" fill="#63A83C"/>
<path d="M132.88 231.059C38.8466 231.059 -32.0645 165.235 -32.0645 77.9396C-32.0645 39.2502 -15.0082 -0.588867 13.5873 -28.6573C39.121 -69.5168 84.9461 -94.9121 133.212 -94.9121C133.226 -94.9121 133.255 -94.9121 133.27 -94.9121C140.953 -94.9121 148.679 -94.2797 156.247 -93.0438C193.335 -87.0219 232.3 -60.7356 253.255 -27.6369C281.186 0.33094 297.867 39.782 297.867 77.9108C297.867 99.2963 293.65 119.748 285.317 138.676C277.229 157.043 265.56 173.369 250.641 187.224C235.722 201.079 218.117 211.901 198.332 219.403C177.925 227.135 155.915 231.059 132.88 231.059ZM133.255 -93.8917C133.241 -93.8917 133.226 -93.8917 133.197 -93.8917C85.2638 -93.8917 39.7565 -68.6689 14.4105 -28.0681L14.3816 -28.0106L14.3383 -27.9675C-14.0839 -0.10022 -31.0535 39.4946 -31.0535 77.9252C-31.0535 164.646 39.4243 230.038 132.88 230.038C155.799 230.038 177.694 226.143 197.956 218.454C217.612 210.995 235.101 200.245 249.934 186.491C264.766 172.737 276.348 156.511 284.378 138.273C292.653 119.475 296.842 99.167 296.842 77.9108C296.842 40.0263 280.262 0.819588 252.49 -26.9614L252.446 -27.0045L252.418 -27.0477C231.621 -59.9451 192.901 -86.059 156.074 -92.0377C148.549 -93.2737 140.881 -93.8917 133.255 -93.8917Z" fill="#63A83C"/>
<path d="M132.879 228.083C40.5359 228.083 -29.0898 163.524 -29.0898 77.9248C-29.0898 39.8822 -12.2647 0.732964 15.9264 -26.7894C40.897 -66.9734 85.8121 -91.9375 133.197 -91.9375H133.211C140.736 -91.9375 148.318 -91.3195 155.741 -90.0979C192.164 -84.1766 230.407 -58.3215 250.886 -25.7546C278.427 1.69588 294.863 40.4427 294.863 77.9392C294.863 98.9079 290.718 118.957 282.529 137.525C274.586 155.533 263.133 171.558 248.474 185.14C233.816 198.721 216.543 209.328 197.118 216.686C177.116 224.246 155.496 228.083 132.879 228.083ZM133.211 -90.9315C133.197 -90.9315 133.197 -90.9315 133.211 -90.9315C86.1443 -90.9315 41.5324 -66.1254 16.7641 -26.2145L16.7352 -26.157L16.6919 -26.1139C-11.3404 1.23598 -28.0789 40.1265 -28.0789 77.9248C-28.0789 162.964 41.1136 227.077 132.879 227.077C155.38 227.077 176.87 223.254 196.771 215.723C216.081 208.422 233.238 197.873 247.796 184.378C262.353 170.883 273.734 154.987 281.605 137.094C289.721 118.669 293.852 98.7498 293.852 77.9248C293.852 40.687 277.503 2.17016 250.135 -25.0935L250.092 -25.1366L250.063 -25.1797C229.728 -57.5454 191.76 -83.2281 155.582 -89.1062C148.202 -90.3135 140.678 -90.9315 133.211 -90.9315Z" fill="#63A83C"/>
<path d="M132.879 225.123C42.2398 225.123 -26.1006 161.843 -26.1006 77.9398C-26.1006 40.5439 -9.50652 2.09889 18.2802 -24.906C42.6731 -64.429 86.6928 -88.9619 133.197 -88.9619H133.211C140.577 -88.9619 147.985 -88.3583 155.25 -87.1654C191.038 -81.3591 228.515 -55.9351 248.532 -23.9C275.683 3.0187 291.887 41.09 291.887 77.9254C291.887 161.843 223.532 225.123 132.879 225.123ZM133.211 -87.9559H133.197C87.025 -87.9559 43.3085 -63.581 19.1034 -24.3455L19.0745 -24.288L19.0312 -24.2449C-8.59667 2.57317 -25.0896 40.7738 -25.0896 77.9254C-25.0896 161.254 42.8175 224.103 132.879 224.103C222.955 224.103 290.876 161.254 290.876 77.9254C290.876 41.32 274.773 3.50734 247.795 -23.2389L247.752 -23.282L247.723 -23.3251C227.851 -55.1447 190.633 -80.4106 155.105 -86.1737C147.884 -87.3522 140.519 -87.9559 133.211 -87.9559Z" fill="#63A83C"/>
<path d="M132.88 222.148C43.9447 222.148 -23.1104 160.147 -23.1104 77.925C-23.1104 41.1615 -6.7618 3.42072 20.635 -23.0524C44.4502 -61.8711 87.589 -85.9873 133.212 -85.9873H133.226C140.433 -85.9873 147.683 -85.3981 154.774 -84.2196C189.912 -78.5139 226.638 -53.521 246.193 -22.0177C272.94 4.36927 288.899 41.7364 288.899 77.9538C288.899 98.1033 284.898 117.347 277.027 135.169C269.387 152.458 258.353 167.85 244.229 180.9C230.119 193.95 213.467 204.14 194.764 211.196C175.484 218.454 154.658 222.148 132.88 222.148ZM133.212 -84.9813C87.9067 -84.9813 45.0856 -61.0232 21.4582 -22.4632L21.4293 -22.4057L21.386 -22.3626C-5.85195 3.93811 -22.0994 41.4346 -22.0994 77.9394C-22.0994 159.587 44.5368 221.156 132.88 221.156C154.543 221.156 175.239 217.491 194.403 210.262C212.99 203.249 229.527 193.116 243.536 180.167C257.545 167.218 268.506 151.941 276.088 134.766C283.916 117.074 287.873 97.9595 287.873 77.9538C287.873 41.9951 272.001 4.87229 245.413 -21.3422L245.37 -21.3853L245.341 -21.4428C225.959 -52.7449 189.493 -77.5797 154.601 -83.2423C147.553 -84.4064 140.361 -84.9813 133.212 -84.9813Z" fill="#63A83C"/>
<path d="M132.879 219.173C45.6484 219.173 -20.1357 158.451 -20.1357 77.9253C-20.1357 41.8086 -4.01827 4.75763 22.9742 -21.1838C46.2261 -59.327 88.4406 -83.0264 133.197 -83.0264H133.211C140.245 -83.0264 147.336 -82.4515 154.282 -81.3017C188.77 -75.6967 224.76 -51.135 243.838 -20.1777C270.195 5.69181 285.923 42.3691 285.923 77.9253C285.923 158.451 220.124 219.173 132.879 219.173ZM133.211 -82.0203H133.197C88.7727 -82.0203 46.8615 -58.4934 23.8118 -20.6089L23.7829 -20.5514L23.7396 -20.5083C-3.10841 5.26064 -19.1248 42.0673 -19.1248 77.9253C-19.1248 157.877 46.2261 218.167 132.879 218.167C219.547 218.167 284.912 157.877 284.912 77.9253C284.912 42.599 269.271 6.18045 243.087 -19.5023L243.044 -19.5454L243.015 -19.6029C224.081 -50.3589 188.352 -74.7625 154.124 -80.3244C147.22 -81.4455 140.187 -82.0203 133.211 -82.0203Z" fill="#63A83C"/>
<path d="M132.88 216.212C47.3533 216.212 -17.1455 156.77 -17.1455 77.9249C-17.1455 42.4549 -1.25911 6.09383 25.3434 -19.3158C48.0032 -56.7835 89.3222 -80.0518 133.198 -80.0518H133.212C140.086 -80.0518 147.004 -79.4912 153.792 -78.3702C187.63 -72.8801 222.855 -48.7352 241.485 -18.3098C267.438 7.02802 282.934 43.0011 282.934 77.9393C282.934 97.2552 279.092 115.709 271.51 132.811C264.159 149.397 253.544 164.142 239.969 176.66C226.393 189.164 210.391 198.937 192.396 205.72C173.852 212.677 153.835 216.212 132.88 216.212ZM133.212 -79.0457H133.198C89.6544 -79.0457 48.6386 -55.9356 26.1666 -18.7409L26.1377 -18.6834L26.0944 -18.6403C-0.349255 6.59685 -16.1346 42.6992 -16.1346 77.9249C-16.1346 156.18 47.9309 215.206 132.88 215.206C153.705 215.206 173.607 211.685 192.035 204.758C209.9 198.031 225.801 188.33 239.275 175.913C252.75 163.496 263.278 148.851 270.586 132.395C278.11 115.436 281.923 97.1115 281.923 77.9393C281.923 43.2454 266.528 7.51665 240.734 -17.6343L240.691 -17.6774L240.662 -17.7349C222.19 -47.9591 187.226 -71.9172 153.633 -77.3786C146.903 -78.4852 140.029 -79.0457 133.212 -79.0457Z" fill="#63A83C"/>
<path d="M132.879 213.237C49.0425 213.237 -14.1709 155.074 -14.1709 77.9253C-14.1709 43.0876 1.46998 7.44512 27.6825 -17.4471C49.7791 -54.2394 90.2027 -77.0908 133.197 -77.0908H133.212C139.927 -77.0908 146.686 -76.5447 153.301 -75.4524C186.489 -70.0629 220.977 -46.3635 239.116 -16.4555C264.679 8.36493 279.944 43.6338 279.944 77.9253C279.944 96.8244 276.189 114.89 268.751 131.619C261.545 147.845 251.146 162.289 237.845 174.519C224.544 186.764 208.86 196.322 191.211 202.947C173.043 209.774 153.416 213.237 132.879 213.237ZM133.212 -76.0848C133.197 -76.0848 133.197 -76.0848 133.212 -76.0848C90.5349 -76.0848 50.429 -53.3914 28.5202 -16.8723L28.4913 -16.8148L28.448 -16.7717C2.39428 7.93377 -13.1599 43.3319 -13.1599 77.9253C-13.1599 154.499 49.6202 212.231 132.879 212.231C153.286 212.231 172.798 208.796 190.85 202.013C208.369 195.431 223.937 185.931 237.152 173.786C250.352 161.642 260.678 147.313 267.827 131.217C275.193 114.617 278.933 96.6951 278.933 77.9396C278.933 43.8924 263.769 8.85358 238.365 -15.7656L238.322 -15.8087L238.293 -15.8662C220.298 -45.5443 186.084 -69.0856 153.142 -74.4464C146.571 -75.5386 139.869 -76.0848 133.212 -76.0848Z" fill="#63A83C"/>
<path d="M132.879 210.262C50.7464 210.262 -11.1816 153.363 -11.1816 77.9248C-11.1816 43.7339 4.22816 8.7813 30.0508 -15.5792C51.5696 -51.6816 91.0834 -74.1162 133.211 -74.1162C133.226 -74.1162 133.226 -74.1162 133.24 -74.1162C139.782 -74.1162 146.383 -73.5844 152.838 -72.5209C185.376 -67.232 219.113 -43.9638 236.791 -14.6019C261.963 9.68673 276.983 44.2657 276.983 77.9248C276.969 153.378 215.026 210.262 132.879 210.262ZM133.226 -73.1102C133.211 -73.1102 133.211 -73.1102 133.197 -73.1102C91.4012 -73.1102 52.2051 -50.848 30.874 -15.0043L30.8451 -14.9468L30.7873 -14.9037C5.13802 9.28432 -10.1707 43.9926 -10.1707 77.9248C-10.1707 152.803 51.3241 209.256 132.879 209.256C214.449 209.256 275.958 152.803 275.958 77.9248C275.958 44.51 261.025 10.1754 236.025 -13.9264L235.982 -13.9695L235.953 -14.027C218.42 -43.1734 184.958 -66.2835 152.665 -71.5293C146.253 -72.5784 139.71 -73.1102 133.226 -73.1102Z" fill="#63A83C"/>
<path d="M132.88 207.302C52.4513 207.302 -8.19141 151.682 -8.19141 77.9252C-8.19141 44.3666 6.98732 10.1182 32.4055 -13.7105C53.3467 -49.1374 91.9651 -71.1553 133.212 -71.1553H133.226C139.61 -71.1553 146.037 -70.6235 152.348 -69.5887C184.251 -64.4004 217.222 -41.5634 234.437 -12.7332C259.22 11.0237 274.009 44.9128 274.009 77.9252C273.98 151.682 213.323 207.302 132.88 207.302ZM133.212 -70.1492H133.197C92.2828 -70.1492 53.9822 -48.3038 33.2287 -13.1356L33.1854 -13.0781L33.1277 -13.035C7.89718 10.6213 -7.18045 44.6253 -7.18045 77.9252C-7.18045 151.107 53.029 206.296 132.88 206.296C212.745 206.296 272.969 151.107 272.969 77.9252C272.969 45.1571 258.267 11.5123 233.657 -12.0577L233.614 -12.1008L233.585 -12.1583C216.529 -40.7729 183.817 -63.4519 152.174 -68.5971C145.921 -69.6175 139.552 -70.1492 133.212 -70.1492Z" fill="#63A83C"/>
<path d="M132.879 204.326C54.155 204.326 -5.2168 149.986 -5.2168 77.9245C-5.2168 45.0127 9.71641 11.4542 34.7447 -11.8428C55.1082 -46.5942 92.8167 -68.1953 133.183 -68.1953H133.197C139.422 -68.1953 145.689 -67.6779 151.827 -66.6719C183.08 -61.5986 215.301 -39.1783 232.039 -10.8799C256.432 12.3452 270.99 45.5301 270.99 77.9245C270.99 95.5877 267.451 112.46 260.476 128.083C253.702 143.245 243.94 156.726 231.447 168.166C218.955 179.592 204.224 188.531 187.658 194.726C170.588 201.092 152.16 204.326 132.879 204.326ZM133.211 -67.1749H133.197C93.1633 -67.1749 55.7725 -45.7463 35.5968 -11.2679L35.5535 -11.2104L35.4957 -11.153C10.6407 11.9572 -4.20584 45.257 -4.20584 77.9245C-4.20584 149.411 54.7327 203.32 132.879 203.32C170.703 203.32 205.466 190.572 230.768 167.419C243.16 156.079 252.85 142.699 259.566 127.666C266.484 112.173 269.993 95.4296 269.993 77.9245C269.993 45.7888 255.537 12.8339 231.303 -10.2044L231.245 -10.2475L231.216 -10.305C214.636 -38.3878 182.676 -60.6357 151.683 -65.6658C145.588 -66.6719 139.378 -67.1749 133.211 -67.1749Z" fill="#63A83C"/>
<path d="M132.879 201.366C55.8589 201.366 -2.22754 148.304 -2.22754 77.9391C-2.22754 45.6596 12.4746 12.8053 37.113 -9.94554C56.8987 -44.0215 93.7119 -65.1914 133.197 -65.1914H133.211C139.277 -65.1914 145.372 -64.6884 151.351 -63.7111C181.954 -58.7384 213.423 -36.7493 229.685 -8.99699C253.688 13.6964 268.014 46.1914 268.014 77.9391C268.014 148.29 209.914 201.366 132.879 201.366ZM133.211 -64.1997C94.044 -64.1997 57.5486 -43.2023 37.9506 -9.38504L37.9073 -9.31318L37.8495 -9.25568C13.3845 13.3083 -1.21659 45.904 -1.21659 77.9247C-1.21659 147.715 56.4366 200.345 132.879 200.345C209.35 200.345 267.004 147.715 267.004 77.9247C267.004 46.4213 252.778 14.1706 228.934 -8.33588L228.876 -8.37899L228.833 -8.43649C212.73 -35.9876 181.52 -57.8042 151.177 -62.7338C145.27 -63.7111 139.219 -64.1997 133.211 -64.1997Z" fill="#63A83C"/>
<path d="M132.88 198.391C57.5491 198.391 0.748047 146.608 0.748047 77.9391C0.748047 46.3064 15.2336 14.1419 39.4675 -8.09153L39.6408 -8.40771C58.8778 -41.6213 94.7233 -62.2451 133.183 -62.2451C139.075 -62.2451 145.025 -61.7565 150.846 -60.8079C180.799 -55.9358 211.517 -34.3922 227.302 -7.15734C250.915 15.0186 265.011 46.8094 265.011 77.9247C265.011 94.7543 261.632 110.837 254.959 125.726C248.489 140.17 239.131 153.018 227.173 163.927C202.794 186.146 169.303 198.391 132.88 198.391ZM133.197 -61.2391C95.0988 -61.2391 59.5855 -40.8021 40.5362 -7.90469L40.2763 -7.45916L40.2185 -7.40167C16.1434 14.6449 1.77344 46.5507 1.759 77.9391C1.759 146.033 58.1268 197.385 132.88 197.385C169.057 197.385 202.303 185.24 226.508 163.179C238.365 152.372 247.637 139.638 254.049 125.309C260.664 110.549 264.014 94.6106 264.014 77.9247C264.014 47.0681 250.02 15.5072 226.566 -6.48186L226.508 -6.53935L226.465 -6.59684C210.838 -33.6018 180.38 -54.9873 150.672 -59.8163C144.924 -60.7504 139.046 -61.2391 133.197 -61.2391Z" fill="#63A83C"/>
<path d="M132.879 195.416C59.253 195.416 3.7373 144.913 3.7373 77.9254C3.7373 46.925 17.9917 15.4791 41.8358 -6.22256L42.2401 -6.94117C60.9572 -39.2206 95.8062 -59.2695 133.197 -59.2695H133.211C138.945 -59.2695 144.722 -58.7953 150.369 -57.8611C179.686 -53.104 209.639 -31.9772 224.948 -5.27402C248.171 16.3702 262.036 47.4711 262.036 77.9541C262.05 144.913 206.52 195.416 132.879 195.416ZM133.211 -58.2635C96.1672 -58.2635 61.6504 -38.4014 43.1211 -6.43814L42.6301 -5.5902L42.5723 -5.53271C18.8871 15.9821 4.74826 47.1837 4.73381 77.9254C4.73381 144.338 59.8163 194.41 132.865 194.41C205.928 194.41 261.025 144.338 261.025 77.9254C261.025 47.7011 247.261 16.8445 224.197 -4.61291L224.139 -4.67039L224.096 -4.74225C208.946 -31.2154 179.239 -52.1698 150.195 -56.8982C144.606 -57.8036 138.887 -58.2635 133.211 -58.2635Z" fill="#63A83C"/>
<path d="M132.879 192.455C60.9569 192.455 6.72656 143.217 6.72656 77.9393C6.72656 47.5857 20.7355 16.8297 44.1896 -4.32587C44.4784 -4.82889 44.8395 -5.44688 44.8395 -5.44688C63.0077 -36.8065 96.8746 -56.2949 133.211 -56.2949H133.226C138.8 -56.2949 144.404 -55.835 149.892 -54.9296C164.002 -52.6444 178.386 -46.5076 191.485 -37.2233C204.555 -27.9534 215.315 -16.269 222.594 -3.42043C245.441 17.692 259.075 48.1031 259.075 77.9393C259.06 143.217 204.815 192.455 132.879 192.455ZM133.226 -55.3033H133.211C97.2357 -55.3033 63.7154 -36.0161 45.7204 -4.95824C45.7204 -4.95824 45.3305 -4.28275 45.0417 -3.77973L44.9983 -3.70787L44.9406 -3.65039C21.6453 17.3327 7.73751 47.83 7.73751 77.9249C7.73751 142.642 61.5346 191.435 132.879 191.435C204.238 191.435 258.049 142.628 258.064 77.9249C258.064 48.333 244.531 18.1663 221.857 -2.74495L221.799 -2.80244L221.756 -2.8743C207.083 -28.8157 178.141 -49.3389 149.733 -53.9523C144.288 -54.8434 138.728 -55.3033 133.226 -55.3033Z" fill="#63A83C"/>
<path d="M132.879 189.48C62.6616 189.48 9.70215 141.521 9.70215 77.9252C9.70215 48.204 23.48 18.1666 46.5441 -2.45721C46.8041 -2.91712 47.4107 -3.98064 47.4107 -3.98064C65.059 -34.4348 97.9294 -53.334 133.197 -53.334C133.197 -53.334 133.197 -53.334 133.212 -53.334C138.613 -53.334 144.072 -52.8885 149.401 -52.0118C177.419 -47.4558 205.87 -27.1914 220.226 -1.56615C242.683 19.0145 256.086 48.7214 256.086 77.9396C256.086 141.521 203.112 189.48 132.879 189.48ZM48.2916 -3.47763C48.2916 -3.47763 47.6129 -2.29913 47.3818 -1.89671L47.3385 -1.82485L47.2807 -1.76736C24.3898 18.6696 10.7131 48.4627 10.7131 77.9252C10.7131 140.946 63.2249 188.474 132.879 188.474C202.534 188.474 255.075 140.946 255.075 77.9396C255.075 48.9801 241.773 19.5175 219.475 -0.876297L219.417 -0.933784L219.374 -1.00565C205.191 -26.4153 177 -46.5073 149.242 -51.0201C143.957 -51.8824 138.57 -52.3279 133.212 -52.3279C133.212 -52.3279 133.212 -52.3279 133.197 -52.3279C98.2905 -52.3279 65.7667 -33.6156 48.2916 -3.47763Z" fill="#63A83C"/>
<path d="M132.879 186.505C64.3511 186.505 12.6914 139.825 12.6914 77.9246C12.6914 48.8644 26.2237 19.5169 48.8979 -0.575142C49.1868 -1.09253 49.4756 -1.59555 49.7645 -2.09857L49.9955 -2.50098C67.1095 -32.021 98.9834 -50.374 133.182 -50.374C133.182 -50.374 133.182 -50.374 133.197 -50.374C138.439 -50.374 143.725 -49.9429 148.896 -49.0949C162.37 -46.9104 176.076 -41.0322 188.496 -32.1216C200.887 -23.2397 211.026 -12.0296 217.828 0.287178C239.91 20.3217 253.081 49.3387 253.081 77.9246C253.096 139.839 201.407 186.505 132.879 186.505ZM133.197 -49.3536C99.3445 -49.3536 67.8028 -31.2018 50.8765 -1.98359L50.6454 -1.58118C50.3422 -1.06379 50.0389 -0.532024 49.75 -0.000263214L49.7067 0.0715981L49.6489 0.129086C27.1336 20.0343 13.7024 49.1088 13.7024 77.9246C13.7024 139.25 64.9432 185.499 132.879 185.499C200.83 185.499 252.085 139.25 252.085 77.9246C252.085 49.5974 239 20.8247 217.106 0.977032L217.048 0.919544L217.005 0.847683C203.299 -24.0158 175.874 -43.6911 148.751 -48.0889C143.624 -48.9368 138.396 -49.3536 133.197 -49.3536Z" fill="#63A83C"/>
<path d="M132.879 183.545C66.0694 183.545 15.6807 138.144 15.6807 77.9252C15.6807 49.4974 28.9819 20.8541 51.2806 1.30817C51.6561 0.63269 52.0172 -0.0140457 52.3638 -0.617668L52.5949 -1.02009C69.1889 -29.6347 100.066 -47.3984 133.211 -47.3984C133.211 -47.3984 133.211 -47.3984 133.226 -47.3984C138.309 -47.3984 143.422 -46.9817 148.433 -46.1625C161.59 -44.021 174.935 -38.2722 187.023 -29.5628C199.067 -20.8678 208.903 -9.90197 215.459 2.15612C237.151 21.6589 250.106 49.986 250.106 77.9252C250.106 107.057 238.191 133.832 216.542 153.321C194.894 172.809 165.186 183.545 132.879 183.545ZM133.211 -46.3924C100.427 -46.3924 69.8677 -28.8155 53.4758 -0.517067L53.2448 -0.114651C52.8837 0.503345 52.5082 1.16445 52.1183 1.86868L52.0749 1.94054L52.0027 1.99803C29.8918 21.3714 16.6916 49.7561 16.6916 77.9252C16.6916 137.554 66.6471 182.539 132.879 182.539C164.941 182.539 194.403 171.903 215.864 152.588C237.296 133.286 249.11 106.77 249.095 77.9395C249.095 50.2447 236.242 22.1763 214.723 2.84597L214.665 2.78849L214.622 2.71663C201.421 -21.6151 174.761 -40.8448 148.274 -45.1564C143.306 -45.99 138.237 -46.3924 133.211 -46.3924Z" fill="#63A83C"/>
<path d="M132.879 180.57C67.7597 180.57 18.6562 136.448 18.6562 77.9254C18.6562 50.1301 31.7264 22.2053 53.6352 3.19121C54.054 2.41512 54.4873 1.63903 54.935 0.862946L55.1805 0.446159C71.2258 -27.2343 101.121 -44.4375 133.197 -44.4375H133.212C138.122 -44.4375 143.076 -44.0351 147.928 -43.2303C160.782 -41.1463 173.78 -35.5269 185.521 -27.0043C197.234 -18.4961 206.751 -7.7746 213.077 4.01041C234.394 22.9814 247.117 50.6043 247.117 77.9254C247.117 106.238 235.506 132.251 214.406 151.208C193.32 170.15 164.363 180.57 132.879 180.57ZM133.212 -43.4171C101.482 -43.4171 71.919 -26.415 56.0615 0.963554L55.816 1.38034C55.3538 2.1708 54.9061 2.96125 54.4873 3.75171L54.444 3.83795L54.3718 3.89544C32.6363 22.7227 19.6672 50.4031 19.6672 77.9254C19.6672 135.873 68.3373 179.564 132.879 179.564C164.118 179.564 192.829 169.231 213.727 150.461C234.61 131.705 246.106 105.951 246.106 77.9254C246.106 50.863 233.484 23.4844 212.34 4.70026L212.268 4.64277L212.225 4.55655C199.516 -19.2434 173.606 -38.042 147.769 -42.2386C142.975 -43.0147 138.079 -43.4171 133.212 -43.4171Z" fill="#63A83C"/>
<path d="M132.879 177.609C69.4633 177.609 21.6309 134.766 21.6309 77.9394C21.6309 50.7908 34.47 23.5703 55.9888 5.08792C56.4943 4.15374 56.9998 3.23393 57.5052 2.37161L57.7507 1.94046C73.2616 -24.8345 102.175 -41.4629 133.182 -41.4629C133.197 -41.4629 133.211 -41.4629 133.226 -41.4629C137.963 -41.4629 142.743 -41.0748 147.422 -40.3131C159.958 -38.2723 172.609 -32.7966 184.019 -24.4465C195.385 -16.1395 204.599 -5.64795 210.679 5.87837C231.62 24.3176 244.127 51.2363 244.127 77.9251C244.127 105.419 232.819 130.685 212.268 149.081C191.745 167.477 163.54 177.609 132.879 177.609ZM133.254 -40.4569C133.24 -40.4569 133.226 -40.4569 133.211 -40.4569C102.55 -40.4569 73.9837 -24.0153 58.6462 2.44347L58.4006 2.87463C57.8807 3.76569 57.3608 4.69987 56.8553 5.64842L56.812 5.73465L56.7398 5.79214C35.3943 24.0733 22.6563 51.0495 22.6563 77.9394C22.6563 134.191 70.041 176.603 132.893 176.603C163.309 176.603 191.269 166.571 211.618 148.348C231.952 130.138 243.145 105.131 243.145 77.9394C243.145 51.5094 230.739 24.835 209.971 6.5826L209.899 6.52511L209.856 6.43888C197.638 -16.815 172.494 -35.1967 147.292 -39.2927C142.656 -40.0688 137.934 -40.4569 133.254 -40.4569Z" fill="#63A83C"/>
<path d="M132.88 174.634C71.1682 174.634 24.6211 133.056 24.6211 77.9247C24.6211 51.4084 37.2436 24.8921 58.3725 6.97026C58.9213 5.93548 59.5134 4.88633 60.1055 3.85154L60.351 3.42038C75.3276 -22.4348 103.244 -38.4883 133.197 -38.4883C137.79 -38.4883 142.411 -38.1146 146.946 -37.3673C159.179 -35.3839 171.484 -30.0232 182.532 -21.8887C193.551 -13.7685 202.462 -3.53565 208.282 7.73198C228.862 25.6395 241.138 51.8683 241.138 77.9247C241.153 133.056 194.606 174.634 132.88 174.634ZM133.212 -37.4822C133.212 -37.4822 133.197 -37.4822 133.212 -37.4822C103.62 -37.4822 76.0352 -21.6156 61.2465 3.9234L61.0009 4.35456C60.3944 5.41809 59.8022 6.48162 59.239 7.53077L59.1957 7.617L59.1235 7.67449C38.139 25.4239 25.632 51.6815 25.632 77.9247C25.632 132.481 71.7459 173.628 132.88 173.628C194.028 173.628 240.156 132.481 240.156 77.9247C240.156 52.127 227.981 26.1425 207.575 8.43621L207.502 8.37872L207.459 8.29249C195.732 -14.4296 171.354 -32.3802 146.802 -36.3756C142.31 -37.1086 137.747 -37.4822 133.212 -37.4822Z" fill="#63A83C"/>
<path d="M132.879 171.659C72.8575 171.659 27.5957 131.36 27.5957 77.925C27.6101 52.0554 39.9871 26.2577 60.7405 8.86767C61.3904 7.64605 62.0403 6.45317 62.6902 5.33216L62.9501 4.88663C77.3923 -20.0487 104.313 -35.5273 133.197 -35.5273C133.197 -35.5273 133.197 -35.5273 133.211 -35.5273C137.645 -35.5273 142.108 -35.168 146.469 -34.4494C158.384 -32.5092 170.342 -27.2922 181.058 -19.3301C191.731 -11.3968 200.324 -1.39392 205.913 9.60064C226.118 26.962 238.177 52.501 238.177 77.925C238.177 131.36 192.901 171.659 132.879 171.659ZM133.211 -34.5213C133.211 -34.5213 133.197 -34.5213 133.211 -34.5213C104.674 -34.5213 78.0856 -19.2295 63.8311 5.38965L63.5712 5.83518C62.9068 6.97057 62.2425 8.16344 61.5926 9.4138L61.5493 9.50003L61.4771 9.55753C40.9114 26.7751 28.6211 52.3141 28.6067 77.925C28.6067 130.785 73.4352 170.653 132.879 170.653C192.323 170.653 237.166 130.785 237.166 77.925C237.166 52.7453 225.208 27.465 205.177 10.2905L205.104 10.2186L205.061 10.1324C193.825 -12.0435 170.227 -29.563 146.31 -33.4434C141.992 -34.162 137.587 -34.5213 133.211 -34.5213Z" fill="#63A83C"/>
<path d="M132.879 168.698C74.5614 168.698 30.585 129.678 30.585 77.9246C30.585 52.7018 42.7453 27.594 63.1232 10.75C63.802 9.41341 64.5385 8.09119 65.2751 6.81209L65.535 6.36655C79.4428 -17.6346 105.367 -32.5527 133.197 -32.5527C133.197 -32.5527 133.197 -32.5527 133.211 -32.5527C137.472 -32.5527 141.775 -32.2078 145.978 -31.5036C157.575 -29.6209 169.201 -24.5188 179.57 -16.7579C189.897 -9.04019 198.172 0.732742 203.501 11.4686C223.345 28.2838 235.187 53.1186 235.187 77.9246C235.187 102.961 224.789 125.97 205.884 142.728C186.994 159.471 161.07 168.698 132.879 168.698ZM133.197 -31.5467C105.713 -31.5467 80.1216 -16.8298 66.4016 6.86958L66.1416 7.31511C65.3906 8.60858 64.6541 9.95955 63.9608 11.2961L63.9175 11.3824L63.8309 11.4542C43.6551 28.1257 31.5959 52.9749 31.5959 77.9246C31.5959 129.103 75.1391 167.692 132.879 167.692C160.825 167.692 186.517 158.566 205.205 141.98C223.879 125.424 234.176 102.673 234.162 77.9246C234.162 53.3773 222.42 28.7868 202.765 12.1585L202.678 12.0866L202.635 11.986C191.919 -9.67256 169.071 -26.7608 145.805 -30.5407C141.66 -31.2018 137.414 -31.5467 133.197 -31.5467Z" fill="#63A83C"/>
<path d="M132.88 165.724C76.2663 165.724 33.5752 127.983 33.5752 77.9252C33.5752 53.3491 45.5044 28.9455 65.5069 12.6477C66.2579 11.153 67.0522 9.70145 67.8609 8.293L68.1209 7.83309C81.4944 -15.2339 106.436 -29.5771 133.197 -29.5771C137.299 -29.5771 141.444 -29.2466 145.488 -28.5711C156.781 -26.7315 168.046 -21.7732 178.069 -14.1991C188.049 -6.66822 196.006 2.86039 201.104 13.3376C220.573 29.6066 232.198 53.7515 232.198 77.9252C232.198 102.142 222.103 124.404 203.747 140.616C185.42 156.813 160.248 165.724 132.88 165.724ZM133.197 -28.5711C106.797 -28.5711 82.1876 -14.4147 69.0019 8.36486L68.7419 8.82476C67.9187 10.2332 67.1244 11.7135 66.3589 13.2226L66.3156 13.3232L66.229 13.395C46.4143 29.4773 34.5861 53.6078 34.5861 77.9252C34.5861 127.408 76.844 164.718 132.88 164.718C160.002 164.718 184.929 155.893 203.083 139.854C221.208 123.844 231.202 101.84 231.188 77.9252C231.188 54.0102 219.663 30.124 200.368 14.0274L200.281 13.9556L200.238 13.855C195.227 3.47839 187.341 -5.94963 177.463 -13.4231C167.57 -20.8965 156.464 -25.7973 145.329 -27.6082C141.328 -28.2406 137.241 -28.5855 133.197 -28.5711Z" fill="#63A83C"/>
<path d="M132.879 162.763C77.97 162.763 36.5498 126.301 36.5498 77.9392C36.5498 53.9955 48.2624 30.3105 67.8749 14.5588C68.6837 12.9347 69.5357 11.3251 70.4312 9.80166L70.6911 9.34175C83.5447 -12.8342 107.475 -26.6025 133.182 -26.6025C137.125 -26.6025 141.097 -26.272 144.982 -25.6396C155.972 -23.8575 166.89 -19.0141 176.567 -11.6413C186.2 -4.29724 193.84 4.98705 198.678 15.2055C217.799 30.9428 229.208 54.3835 229.208 77.9392C229.208 101.337 219.417 122.837 201.609 138.503C183.846 154.139 159.424 162.763 132.879 162.763ZM133.197 -25.6109C107.851 -25.6109 84.2379 -12.0294 71.5721 9.8304L71.3121 10.2903C70.4167 11.8425 69.5502 13.4521 68.7414 15.0905L68.6981 15.1911L68.6114 15.263C49.1723 30.8278 37.5608 54.2542 37.5608 77.9248C37.5608 125.712 78.5332 161.742 132.879 161.742C159.178 161.742 183.355 153.22 200.945 137.727C218.536 122.277 228.212 101.035 228.198 77.9392C228.198 54.6422 216.889 31.4602 197.956 15.9097L197.869 15.8379L197.826 15.7373C193.06 5.61942 185.506 -3.57864 175.96 -10.8509C166.414 -18.1231 155.654 -22.9089 144.837 -24.6623C140.996 -25.2947 137.082 -25.6109 133.197 -25.6109Z" fill="#63A83C"/>
<path d="M132.88 159.788C79.6604 159.788 39.54 124.591 39.54 77.9248C39.54 54.6279 51.0216 31.6471 70.273 16.4559C71.1684 14.6307 72.0927 12.8917 73.0314 11.282L73.3058 10.8077C85.625 -10.4484 108.574 -23.6562 133.212 -23.6562C136.996 -23.6562 140.794 -23.3401 144.52 -22.7364C155.193 -20.9974 165.779 -16.2834 175.094 -9.09745C184.381 -1.9402 191.703 7.09976 196.281 17.0595C215.041 32.2507 226.248 54.9872 226.248 77.9248C226.234 124.591 186.099 159.788 132.88 159.788ZM133.198 -22.6502C108.92 -22.6502 86.3038 -9.64358 74.1579 11.2964L73.8835 11.7707C72.9448 13.3947 72.006 15.1481 71.1106 16.9877L71.0673 17.0883L70.9807 17.1601C51.9314 32.1788 40.551 54.9009 40.551 77.9248C40.551 124.016 80.2381 158.782 132.88 158.782C185.522 158.782 225.223 124.016 225.223 77.9248C225.223 55.2459 214.132 32.7681 195.544 17.7638L195.458 17.6919L195.414 17.5913C190.908 7.73213 183.673 -1.20723 174.473 -8.29261C165.274 -15.378 154.861 -20.0201 144.347 -21.7304C140.679 -22.334 136.924 -22.6502 133.198 -22.6502Z" fill="#63A83C"/>
<path d="M132.879 156.828C81.3641 156.828 42.5146 122.91 42.5146 77.9398C42.5146 55.3471 53.7218 33.128 72.5111 18.483C72.6121 18.3392 72.7132 18.1955 72.7999 18.0518C73.6953 16.1978 74.6341 14.4157 75.6017 12.7629L75.8761 12.2886C87.6609 -8.0477 109.627 -20.6807 133.197 -20.6807C133.197 -20.6807 133.197 -20.6807 133.212 -20.6807C136.822 -20.6807 140.461 -20.3789 144.029 -19.804C154.398 -18.1225 164.623 -13.5378 173.606 -6.53864C182.532 0.417389 189.536 9.22741 193.854 18.9141C212.268 33.5592 223.258 55.6058 223.258 77.9111C223.258 122.91 184.395 156.828 132.879 156.828ZM133.197 -19.6746C109.989 -19.6746 88.3541 -7.24287 76.7571 12.7773L76.4827 13.2516C75.5295 14.89 74.5907 16.6577 73.7098 18.4973L73.6664 18.5692C73.5509 18.7416 73.4209 18.9141 73.3054 19.0866L73.262 19.1584L73.2043 19.2016C54.6172 33.6741 43.5256 55.6201 43.5256 77.9254C43.5256 122.32 81.9418 155.807 132.879 155.807C183.817 155.807 222.248 122.32 222.248 77.9254C222.248 55.8788 211.358 34.0909 193.118 19.6327L193.017 19.5609L192.973 19.4459C188.727 9.85978 181.809 1.15036 172.971 -5.73381C164.132 -12.618 154.066 -17.1452 143.855 -18.7979C140.346 -19.3728 136.764 -19.6746 133.197 -19.6746Z" fill="#63A83C"/>
<path d="M132.879 153.852C83.068 153.852 45.5039 121.213 45.5039 77.9248C45.5039 56.065 56.4222 34.622 74.7204 20.5231C74.9515 20.1926 75.1681 19.862 75.3992 19.5314C76.2657 17.7206 77.2045 15.9384 78.1866 14.2426L78.461 13.7539C89.7114 -5.66262 110.681 -17.7207 133.182 -17.7207C136.634 -17.7207 140.115 -17.4333 143.523 -16.8728C163.901 -13.5672 183.138 1.56648 191.399 20.7962C209.466 34.8807 220.254 56.2374 220.254 77.9248C220.269 121.213 182.705 153.852 132.879 153.852ZM133.197 -16.7003C111.043 -16.7003 90.4191 -4.82905 79.3419 14.2713L79.0675 14.7599C78.0855 16.4558 77.1467 18.2236 76.2946 20.0201L76.2802 20.0632L76.2513 20.0919C76.0058 20.4369 75.7603 20.7962 75.5147 21.1698L75.4714 21.2417L75.3992 21.2704C57.3176 35.1825 46.5149 56.3524 46.5149 77.9248C46.5149 120.638 83.6457 152.846 132.879 152.846C182.127 152.846 219.258 120.638 219.258 77.9248C219.258 56.4961 208.571 35.3981 190.691 21.5004L190.59 21.4142L190.532 21.2992C182.416 2.32819 163.468 -12.6187 143.364 -15.8811C140.014 -16.4272 136.591 -16.7003 133.197 -16.7003Z" fill="#63A83C"/>
<path d="M132.88 150.891C84.7729 150.891 48.4941 119.532 48.4941 77.9393C48.4941 56.8125 59.1236 36.1312 76.9308 22.5928C77.2774 22.0755 77.6385 21.5581 77.9851 21.055C78.8516 19.2154 79.7903 17.4333 80.7724 15.7518L81.0613 15.2631C91.7773 -3.23359 111.765 -14.7168 133.212 -14.7168C136.505 -14.7168 139.812 -14.4437 143.062 -13.912C162.645 -10.7214 181.044 3.85179 188.843 22.3629L189.074 22.7653C206.752 36.2893 217.294 56.9275 217.294 77.9537C217.28 119.517 181.001 150.891 132.88 150.891ZM133.212 -13.7395C133.212 -13.7395 133.198 -13.7395 133.212 -13.7395C112.126 -13.7395 92.4706 -2.44313 81.9278 15.7374L81.6389 16.2261C80.6713 17.8932 79.7326 19.661 78.8805 21.4862L78.866 21.5293L78.8372 21.5724C78.4617 22.1042 78.0862 22.6503 77.7251 23.1965L77.6818 23.2683L77.6096 23.3258C60.0046 36.6774 49.5051 57.0856 49.5051 77.9249C49.5051 118.943 85.3506 149.871 132.88 149.871C180.423 149.871 216.283 118.943 216.283 77.9106C216.283 57.1574 205.856 36.7924 188.367 23.4552L188.294 23.3977L187.919 22.7366C180.25 4.52728 162.154 -9.81595 142.888 -12.949C139.696 -13.4664 136.447 -13.7395 133.212 -13.7395Z" fill="#63A83C"/>
<path d="M132.879 147.917C86.4621 147.917 51.4688 117.836 51.4688 77.9255C51.4688 57.5316 61.8094 37.6121 79.14 24.6342C79.6021 23.9156 80.0931 23.2114 80.5697 22.5359C81.3929 20.7681 82.3317 18.9716 83.3426 17.2182L83.6315 16.7152C89.495 6.64047 98.1748 -1.3216 108.746 -6.29431C119.333 -11.2814 131.016 -12.9054 142.556 -10.9939C161.258 -7.94708 178.777 5.97936 186.142 23.6713L186.763 24.7492C204.007 37.727 214.29 57.6035 214.29 77.9398C214.304 117.822 179.296 147.917 132.879 147.917ZM133.154 -10.764C124.907 -10.764 116.747 -8.95312 109.18 -5.38887C98.7958 -0.502401 90.2604 7.31595 84.5125 17.2326L84.2236 17.7356C83.2127 19.4746 82.2884 21.2568 81.4652 23.0101L81.4507 23.0533L81.4218 23.0964C80.9164 23.8006 80.4109 24.5336 79.9343 25.2665L79.891 25.3384L79.8187 25.3959C62.7048 38.1869 52.4797 57.8334 52.4797 77.9398C52.4797 117.262 87.0398 146.925 132.879 146.925C178.719 146.925 213.293 117.276 213.293 77.9398C213.293 57.8909 203.126 38.2732 186.084 25.4965L185.998 25.439L185.218 24.1024C177.997 6.68358 160.782 -7.01291 142.397 -10.0023C139.321 -10.5197 136.23 -10.764 133.154 -10.764Z" fill="#63A83C"/>
<path d="M132.879 144.941C88.166 144.941 54.458 116.125 54.458 77.9246C54.458 58.2638 64.5098 39.1203 81.3638 26.6886C81.9848 25.7257 82.5914 24.8346 83.1835 24.0298C84.0067 22.2476 84.931 20.4511 85.942 18.6978L86.2308 18.1947C91.7766 8.63739 99.9942 1.0921 110.017 -3.6219C120.04 -8.33591 131.117 -9.88808 142.064 -8.07721C159.871 -5.17408 176.509 8.10562 183.456 24.9783L184.481 26.7461C201.277 39.1634 211.3 58.2925 211.3 77.9246C211.315 96.407 203.328 113.409 188.828 125.783C174.357 138.143 154.485 144.941 132.879 144.941ZM133.153 -7.80415C125.34 -7.80415 117.614 -6.07951 110.45 -2.71647C100.615 1.9113 92.542 9.31287 87.0973 18.6978L86.8085 19.2008C85.812 20.9398 84.8877 22.7219 84.0645 24.4897L84.05 24.5328L84.0211 24.5759C83.4146 25.3951 82.7936 26.3149 82.1581 27.3066L82.1003 27.3928L82.0281 27.4503C65.3907 39.6808 55.4545 58.5512 55.4545 77.9246C55.4545 115.55 88.7293 143.935 132.865 143.935C154.239 143.935 173.866 137.223 188.164 125.022C202.433 112.849 210.289 96.1196 210.275 77.9246C210.275 58.58 200.367 39.7239 183.773 27.4934L183.687 27.4359L182.502 25.3951C175.686 8.80985 159.366 -4.2399 141.877 -7.08555C138.988 -7.55982 136.056 -7.80415 133.153 -7.80415Z" fill="#63A83C"/>
<path d="M132.88 141.981C89.8707 141.981 57.4336 114.445 57.4336 77.9399C57.4336 58.9976 67.2109 40.6302 83.5739 28.7734C84.2672 27.6523 85.0037 26.5744 85.7547 25.5684C86.5779 23.7432 87.5166 21.9467 88.5132 20.222L88.802 19.719C94.0445 10.6503 101.829 3.5218 111.303 -0.933506C120.777 -5.38882 131.248 -6.85476 141.588 -5.14449C158.5 -2.39945 174.242 10.2335 180.784 26.287L182.228 28.7734C198.591 40.6446 208.34 59.012 208.34 77.9255C208.34 114.445 175.903 141.981 132.88 141.981ZM133.154 -4.82831C125.774 -4.82831 118.495 -3.20428 111.722 -0.0280719C102.435 4.34101 94.81 11.3402 89.683 20.1933L89.3941 20.6963C88.3976 22.4209 87.4733 24.2031 86.6501 25.9996L86.6212 26.0427L86.5923 26.0858C85.8269 27.1206 85.0904 28.2128 84.3682 29.3626L84.3105 29.4488L84.2238 29.5063C68.063 41.1764 58.4157 59.2851 58.4157 77.9255C58.4157 113.87 90.4195 140.961 132.851 140.961C175.296 140.961 207.3 113.855 207.3 77.9255C207.3 59.2851 197.653 41.1907 181.506 29.5207L181.42 29.4632L179.817 26.7038C173.448 10.9521 158.009 -1.4509 141.415 -4.15283C138.671 -4.61273 135.912 -4.82831 133.154 -4.82831Z" fill="#63A83C"/>
<path d="M132.879 139.006C91.5746 139.006 60.4229 112.749 60.4229 77.9253C60.4229 59.7161 69.9114 42.1104 85.8122 30.814C86.6065 29.5206 87.4586 28.2558 88.354 27.0486C89.1772 25.2233 90.1015 23.4125 91.098 21.6878L91.4013 21.1704C96.3405 12.6622 103.648 5.95053 112.574 1.75391C121.499 -2.4427 131.348 -3.82241 141.082 -2.21275C157.099 0.388576 171.96 12.3604 178.083 27.5947L179.946 30.814C195.847 42.1104 205.336 59.7161 205.336 77.9397C205.336 94.798 197.956 110.291 184.568 121.559C171.209 132.812 152.838 139.006 132.879 139.006ZM133.154 -1.86782C126.221 -1.86782 119.361 -0.344394 112.992 2.65935C104.255 6.76973 97.0915 13.3377 92.2679 21.6735L91.9646 22.1908C90.9681 23.9155 90.0582 25.6976 89.2494 27.5085L89.2206 27.566L89.1917 27.6091C88.2818 28.8307 87.4153 30.1242 86.621 31.432L86.5632 31.5183L86.4765 31.5757C70.7923 42.6853 61.4338 60.0179 61.4338 77.9253C61.4338 112.174 92.1523 138 132.879 138C152.607 138 170.732 131.892 183.918 120.783C197.089 109.702 204.339 94.4818 204.325 77.9253C204.325 60.0035 194.952 42.6709 179.268 31.5614L179.181 31.5039L177.159 27.9971C171.18 13.079 156.608 1.32275 140.924 -1.22108C138.338 -1.65224 135.739 -1.86782 133.154 -1.86782Z" fill="#63A83C"/>
<path d="M132.879 136.045C93.2785 136.045 63.4121 111.066 63.4121 77.939C63.4121 60.4627 72.6262 43.6331 88.0649 32.8972C88.9459 31.4025 89.9135 29.951 90.9533 28.5713C91.7621 26.7316 92.6864 24.9208 93.6974 23.1818L94.0006 22.6644C98.6221 14.6879 105.497 8.37864 113.859 4.44072C122.221 0.48843 131.478 -0.790675 140.606 0.718382C155.727 3.17599 169.707 14.5011 175.397 28.8874L177.693 32.8541C193.132 43.59 202.36 60.4339 202.36 77.9246C202.36 111.052 172.494 136.045 132.879 136.045ZM133.168 1.10642C126.669 1.10642 120.242 2.52925 114.292 5.34616C106.103 9.19784 99.3876 15.349 94.8672 23.153L94.5639 23.6704C93.5674 25.3951 92.6431 27.1915 91.8488 29.0168L91.8199 29.0743L91.791 29.1174C90.7367 30.5115 89.7546 31.9774 88.8737 33.4865L88.8159 33.5871L88.7292 33.6446C73.5072 44.1936 64.4231 60.7501 64.4231 77.9246C64.4231 110.477 93.8562 135.024 132.879 135.024C171.916 135.024 201.349 110.477 201.349 77.9246C201.349 60.7357 192.251 44.1648 177.029 33.6158L176.942 33.5583L174.472 29.2899C168.912 15.191 155.235 4.11017 140.447 1.71005C138.02 1.30763 135.594 1.10642 133.168 1.10642Z" fill="#63A83C"/>
<path d="M132.879 133.07C94.9688 133.07 66.3877 109.371 66.3877 77.9251C66.3877 61.1817 75.3274 45.1139 90.3039 34.9385L90.4628 34.6654C91.3871 33.0702 92.4269 31.518 93.5534 30.0664C94.3622 28.2124 95.2721 26.4016 96.283 24.6626L96.5863 24.1452C100.905 16.6861 107.317 10.808 115.144 7.12875C122.958 3.44953 131.609 2.24228 140.129 3.65074C154.355 5.96462 167.44 16.6286 172.711 30.1814L175.469 34.9241C190.46 45.0995 199.4 61.1674 199.4 77.9394C199.386 109.371 170.79 133.07 132.879 133.07ZM133.168 4.0819C127.103 4.0819 121.124 5.41849 115.563 8.03419C107.938 11.6272 101.67 17.376 97.4528 24.6482L97.1495 25.1656C96.153 26.8902 95.2432 28.7011 94.4489 30.5263L94.42 30.5838L94.3766 30.6269C93.2646 32.0641 92.2392 33.6019 91.3293 35.1685L91.0549 35.6427L90.9538 35.7146C76.2084 45.7031 67.3986 61.4835 67.3986 77.9251C67.3986 108.782 95.5465 132.064 132.879 132.064C170.213 132.064 198.375 108.796 198.375 77.9251C198.375 61.4548 189.551 45.6744 174.791 35.6859L174.69 35.614L171.772 30.5694C166.631 17.3185 153.85 6.8988 139.956 4.62803C137.689 4.26873 135.421 4.0819 133.168 4.0819Z" fill="#63A83C"/>
<path d="M132.879 130.095C96.6727 130.095 69.377 107.66 69.377 77.9247C69.377 61.9143 78.0423 46.6225 92.5422 37.0077C92.7011 36.7346 93.0332 36.1454 93.0332 36.1454C93.9575 34.5501 94.9974 33.0123 96.1239 31.5751C96.9182 29.7211 97.828 27.8815 98.839 26.1425L99.1423 25.6107C103.157 18.6834 109.122 13.2221 116.386 9.80153C123.651 6.381 131.68 5.25998 139.609 6.56783C152.925 8.72363 165.129 18.7265 169.981 31.4601L173.202 37.0077C187.716 46.6225 196.381 61.9143 196.381 77.9391C196.396 107.675 169.086 130.095 132.879 130.095ZM93.9142 36.6484C93.9142 36.6484 93.4665 37.4388 93.3654 37.6113L93.3076 37.7119L93.2065 37.7838C78.9232 47.2118 70.3879 62.2161 70.3879 77.9247C70.3879 107.1 97.2504 129.089 132.879 129.089C168.508 129.089 195.385 107.1 195.385 77.9247C195.385 62.2017 186.85 47.183 172.552 37.7694L172.451 37.6975L169.057 31.8481C164.334 19.4307 152.434 9.67218 139.45 7.5595C131.724 6.28039 123.896 7.37266 116.819 10.707C109.743 14.0413 103.937 19.3589 100.023 26.1137L99.72 26.6455C98.709 28.3845 97.8136 30.1954 97.0337 32.035L97.0048 32.0925L96.9615 32.1499C95.8495 33.5728 94.8241 35.0818 93.9142 36.6484Z" fill="#63A83C"/>
<path d="M132.88 127.135C98.3774 127.135 72.3525 105.979 72.3525 77.9396C72.3525 62.6478 80.7434 48.1465 94.7957 39.0921C94.9834 38.7472 95.1856 38.4023 95.3734 38.0717L95.6333 37.6262C96.5432 36.0453 97.5975 34.5218 98.724 33.099C99.5038 31.2163 100.414 29.3767 101.439 27.6233L101.742 27.0915C105.454 20.696 110.971 15.6371 117.672 12.4752C124.388 9.31339 131.811 8.29298 139.133 9.50023C151.539 11.5123 162.847 20.8541 167.281 32.7397L170.978 39.1065C185.03 48.1465 193.407 62.6622 193.407 77.9396C193.421 105.979 167.382 127.135 132.88 127.135ZM133.169 10.0176C127.984 10.0176 122.871 11.153 118.12 13.395C111.592 16.4706 106.234 21.3715 102.623 27.5945L102.32 28.1263C101.309 29.8653 100.414 31.6906 99.6338 33.5445L99.6049 33.6164L99.5616 33.6739C98.4351 35.0823 97.4097 36.577 96.4999 38.1292L96.2399 38.5747C96.0233 38.934 95.8211 39.3077 95.6189 39.6814L95.5611 39.7964L95.4456 39.8682C81.61 48.7213 73.3635 62.9496 73.3635 77.9252C73.3635 105.404 98.955 126.114 132.88 126.114C166.819 126.114 192.41 105.39 192.41 77.9252C192.41 62.9496 184.164 48.7213 170.343 39.8682L170.242 39.7964L166.386 33.1421L166.371 33.099C162.053 21.5439 151.048 12.4465 138.974 10.4919C137.039 10.1757 135.104 10.0176 133.169 10.0176Z" fill="#63A83C"/>
<path d="M132.879 124.16C100.081 124.16 75.3418 104.283 75.3418 77.9251C75.3418 63.3807 83.4583 49.6554 97.0628 41.176C97.3517 40.6155 97.655 40.0693 97.9583 39.5519L98.2182 39.092C99.1281 37.5255 100.168 36.0164 101.323 34.608C102.089 32.7109 102.999 30.8569 104.024 29.1035L104.327 28.5717C107.736 22.6936 112.79 18.0515 118.957 15.1627C125.124 12.2596 131.926 11.311 138.656 12.4176C150.152 14.286 160.565 22.9523 164.58 33.99L168.768 41.2047C182.329 49.6842 190.431 63.4094 190.431 77.9251C190.431 90.6874 184.568 102.429 173.924 110.966C163.295 119.474 148.722 124.16 132.879 124.16ZM133.168 12.9782C128.417 12.9782 123.738 14.0273 119.376 16.0681C113.397 18.885 108.501 23.3835 105.194 29.0748L104.89 29.6065C103.88 31.3599 102.984 33.1851 102.233 35.0535L102.204 35.1254L102.161 35.1828C101.02 36.5626 99.9946 38.0429 99.0992 39.595L98.8392 40.055C98.5215 40.6011 98.2038 41.176 97.9005 41.7652L97.8427 41.8946L97.7272 41.9664C84.3537 50.259 76.3672 63.6968 76.3672 77.9395C76.3672 103.723 100.673 123.168 132.894 123.168C148.506 123.168 162.861 118.555 173.289 110.19C183.701 101.84 189.421 90.3856 189.421 77.9395C189.421 63.7256 181.463 50.2878 168.133 42.0095L168.032 41.9377L163.67 34.4355L163.656 34.3924C159.771 23.6709 149.661 15.2489 138.497 13.4381C136.721 13.1219 134.945 12.9782 133.168 12.9782Z" fill="#63A83C"/>
<path d="M132.879 121.199C101.771 121.199 78.3164 102.602 78.3164 77.9393C78.3164 64.1422 86.173 51.1931 99.3298 43.2885C99.7197 42.498 100.124 41.7507 100.528 41.0608L100.803 40.5866C101.713 39.0344 102.753 37.5397 103.922 36.16C104.673 34.2485 105.569 32.3802 106.609 30.598L106.912 30.0663C110.017 24.7199 114.624 20.4946 120.228 17.8501C125.831 15.2057 132.041 14.3434 138.165 15.3494C148.751 17.074 158.268 25.0648 161.864 35.2402L166.558 43.3316C179.643 51.2506 187.442 64.171 187.442 77.9249C187.442 89.868 181.881 100.848 171.786 108.839C161.72 116.801 147.899 121.199 132.879 121.199ZM133.168 15.953C128.864 15.953 124.604 16.9016 120.646 18.7555C115.231 21.3138 110.768 25.3954 107.778 30.5549L107.475 31.0867C106.464 32.8401 105.569 34.6941 104.832 36.5768L104.803 36.6486L104.746 36.7061C103.605 38.0571 102.565 39.523 101.684 41.0465L101.409 41.5207C100.991 42.2393 100.572 43.0154 100.167 43.8203L100.095 43.9496L99.9652 44.0215C87.0395 51.7392 79.3129 64.4009 79.3129 77.8962C79.3129 101.984 102.334 120.15 132.865 120.15C147.653 120.15 161.243 115.838 171.136 108.02C180.986 100.23 186.416 89.5231 186.416 77.8962C186.416 64.4584 178.747 51.8254 165.908 44.1077L165.793 44.0358L160.926 35.6426L160.911 35.5995C157.445 25.7403 148.231 17.9938 137.991 16.3267C136.388 16.0824 134.785 15.953 133.168 15.953Z" fill="#63A83C"/>
<path d="M132.88 118.224C103.475 118.224 81.3066 100.905 81.3066 77.9245C81.3066 71.4715 83.1841 65.0616 86.7369 59.4134C90.2463 53.8227 95.4022 48.965 101.641 45.372C102.103 44.3947 102.609 43.4318 103.129 42.5264L103.418 42.0377C104.313 40.4999 105.367 39.034 106.537 37.683C107.259 35.7428 108.155 33.8601 109.194 32.0636L109.498 31.5318C112.3 26.7028 116.444 22.8943 121.499 20.5229C126.554 18.1371 132.143 17.3611 137.674 18.2665C147.336 19.833 155.944 27.1484 159.136 36.4614L164.364 45.4726C176.957 52.8167 184.467 64.9323 184.467 77.9102C184.467 100.905 162.284 118.224 132.88 118.224ZM133.183 18.9132C129.312 18.9132 125.485 19.7612 121.947 21.4283C117.08 23.7278 113.079 27.3927 110.379 32.0348L110.075 32.5666C109.05 34.3343 108.169 36.2027 107.461 38.1142L107.433 38.2004L107.375 38.2723C106.219 39.5945 105.18 41.0317 104.299 42.5407L104.01 43.0294C103.475 43.9492 102.97 44.9265 102.493 45.9325L102.421 46.0762L102.277 46.1625C96.1243 49.6836 91.0407 54.4407 87.589 59.9452C84.1373 65.4353 82.3176 71.6584 82.3176 77.9245C82.3176 100.316 104.053 117.217 132.88 117.217C161.706 117.217 183.456 100.33 183.456 77.9245C183.456 65.2772 176.091 53.4491 163.743 46.2918L163.627 46.22L158.211 36.8926L158.197 36.8494C155.135 27.8526 146.816 20.7816 137.516 19.2725C136.057 19.0426 134.613 18.9132 133.183 18.9132Z" fill="#63A83C"/>
<path d="M132.879 115.249C105.179 115.249 84.2959 99.2096 84.2959 77.9247C84.2959 71.831 86.1156 65.8091 89.5529 60.5202C92.9468 55.2888 97.9293 50.7904 103.952 47.4705C104.472 46.292 105.064 45.1279 105.714 44.0069L106.003 43.5182C106.898 41.9948 107.952 40.5432 109.151 39.2354C109.859 37.2664 110.74 35.3693 111.794 33.5584L112.097 33.0267C114.581 28.7295 118.293 25.3377 122.799 23.2106C127.305 21.0836 132.287 20.3937 137.198 21.2129C145.935 22.6357 153.647 29.2612 156.406 37.7119L162.183 47.6717C174.271 54.4553 181.477 65.7516 181.477 77.9391C181.477 99.2096 160.58 115.249 132.879 115.249ZM133.183 21.9028C129.745 21.9028 126.366 22.6645 123.218 24.1448C118.899 26.1712 115.347 29.4337 112.964 33.5441L112.66 34.0758C111.621 35.8579 110.754 37.7407 110.061 39.6809L110.032 39.7815L109.96 39.8534C108.79 41.1325 107.75 42.5265 106.869 44.0356L106.58 44.5242C105.93 45.6596 105.324 46.8381 104.804 48.0454L104.732 48.2035L104.573 48.2897C98.6225 51.5234 93.7122 55.95 90.3761 61.0807C87.0399 66.2115 85.278 72.0322 85.278 77.9391C85.278 98.6491 105.728 114.257 132.851 114.257C159.973 114.257 180.438 98.6491 180.438 77.9534C180.438 66.0966 173.375 55.0876 161.533 48.5053L161.417 48.4334L155.453 38.1431L155.438 38.0856C152.795 29.9654 145.386 23.5843 137.01 22.219C135.739 22.0034 134.454 21.9028 133.183 21.9028Z" fill="#63A83C"/>
<path d="M132.879 112.288C106.883 112.288 87.2705 97.5138 87.2705 77.9392C87.2705 72.2048 89.0325 66.571 92.3686 61.6414C95.6614 56.7837 100.471 52.6302 106.305 49.5977C106.869 48.1892 107.547 46.8095 108.298 45.5017L108.587 44.9987C109.468 43.4752 110.537 42.0668 111.764 40.8164C112.443 38.8187 113.31 36.8785 114.364 35.0533L114.667 34.5215C116.848 30.756 120.098 27.7667 124.055 25.9127C128.012 24.0443 132.373 23.4407 136.692 24.1593C144.49 25.424 151.293 31.3597 153.647 38.9337L160.001 49.8851C171.57 56.0938 178.487 66.571 178.487 77.9392C178.487 87.4247 173.837 96.1485 165.374 102.501C156.968 108.81 145.429 112.288 132.879 112.288ZM133.182 24.8779C130.193 24.8779 127.232 25.539 124.488 26.8325C120.719 28.6002 117.628 31.4459 115.548 35.0389L115.245 35.5706C114.205 37.3671 113.339 39.2786 112.689 41.2476L112.645 41.3625L112.559 41.4488C111.36 42.6704 110.32 44.0357 109.454 45.5161L109.165 46.0191C108.399 47.3413 107.721 48.7354 107.157 50.1582L107.085 50.3307L106.912 50.4169C101.149 53.3775 96.4124 57.4592 93.1918 62.2163C89.9712 66.9734 88.267 72.406 88.267 77.9392C88.267 96.9533 107.432 111.282 132.864 111.282C145.198 111.282 156.521 107.876 164.753 101.696C172.942 95.5449 177.462 87.1085 177.462 77.9392C177.462 72.5066 175.816 67.1602 172.682 62.4462C169.548 57.7322 164.955 53.665 159.38 50.7043L159.25 50.6325L152.694 39.3361L152.679 39.2786C150.455 32.0351 143.956 26.3582 136.504 25.151C135.421 24.9641 134.294 24.8779 133.182 24.8779Z" fill="#63A83C"/>
<path d="M132.88 109.314C108.588 109.314 90.2607 95.8185 90.2607 77.9254C90.2607 72.5503 91.9649 67.3045 95.2 62.763C98.3772 58.2789 103.042 54.4704 108.675 51.7253C109.252 50.0869 110.003 48.4916 110.87 46.9826L111.159 46.4795C112.04 44.9705 113.108 43.6051 114.365 42.3979C115 40.3571 115.867 38.3737 116.935 36.5341L117.239 36.0024C119.116 32.7543 121.918 30.1961 125.312 28.5864C128.706 26.9768 132.475 26.4594 136.187 27.0774C139.581 27.6235 142.772 29.1613 145.415 31.5183C148.044 33.8609 149.921 36.8216 150.875 40.1128L157.836 52.1133C168.884 57.7615 175.484 67.4051 175.484 77.9398C175.484 86.6204 171.137 94.5969 163.223 100.389C155.395 106.138 144.607 109.314 132.88 109.314ZM133.183 27.8247C130.627 27.8247 128.099 28.3852 125.76 29.4919C122.539 31.0009 119.911 33.4298 118.134 36.491L117.831 37.0228C116.777 38.848 115.924 40.7882 115.303 42.8147L115.26 42.944L115.159 43.0303C113.931 44.1944 112.877 45.5166 112.04 46.9682L111.751 47.4712C110.87 48.9946 110.133 50.5899 109.555 52.2427L109.483 52.4439L109.296 52.5301C103.721 55.2033 99.1282 58.94 96.0087 63.3235C92.9037 67.7069 91.2572 72.7515 91.2572 77.911C91.2572 95.2292 109.151 108.293 132.865 108.293C144.376 108.293 154.947 105.189 162.63 99.5552C170.27 93.9501 174.473 86.2611 174.473 77.911C174.473 72.8952 172.899 67.9656 169.924 63.6397C166.949 59.3137 162.558 55.6057 157.244 52.9038L157.114 52.8319L149.936 40.4721L149.921 40.4146C148.116 34.0765 142.527 29.1038 136.028 28.0403C135.089 27.911 134.136 27.8247 133.183 27.8247Z" fill="#63A83C"/>
<path d="M132.879 106.353C110.277 106.353 93.2354 94.1368 93.2354 77.9395C93.2354 72.9381 94.8962 68.0804 98.0446 63.8981C101.121 59.8021 105.641 56.3385 111.115 53.8809C111.692 51.9981 112.472 50.1873 113.469 48.477L113.772 47.9596C114.624 46.4793 115.722 45.1571 117.007 44.0361C117.585 41.9378 118.437 39.9113 119.535 38.0286L119.852 37.4968C121.426 34.7805 123.766 32.6247 126.626 31.2881C129.485 29.9515 132.634 29.506 135.753 30.0234C138.685 30.4977 141.4 31.8199 143.639 33.8607C145.848 35.8728 147.408 38.431 148.159 41.2766L155.38 53.7228C155.51 53.9384 155.626 54.1539 155.741 54.3695C160.897 56.8559 165.143 60.2908 168.046 64.3293C170.992 68.4253 172.552 73.1393 172.552 77.9395C172.523 94.1368 155.481 106.353 132.879 106.353ZM133.226 30.7995C128.142 30.7995 123.304 33.5014 120.704 37.9855L120.387 38.5172C119.303 40.3712 118.48 42.3689 117.917 44.4385L117.874 44.5822L117.758 44.6828C116.502 45.7463 115.447 47.0111 114.624 48.4483L114.321 48.9657C113.339 50.6615 112.559 52.4868 111.996 54.3695L111.924 54.5995L111.707 54.7001C106.306 57.0858 101.843 60.4776 98.8245 64.5018C95.8205 68.5115 94.2174 73.1537 94.2174 77.9395C94.2463 93.5619 110.855 105.347 132.879 105.347C154.903 105.347 171.512 93.5619 171.512 77.9395C171.512 73.3405 170.024 68.8421 167.194 64.9042C164.363 60.9662 160.189 57.6032 155.12 55.1887L154.976 55.1169L154.903 54.9731C154.773 54.7144 154.629 54.4557 154.485 54.2114L147.191 41.6503L147.177 41.5785C145.762 36.1459 141.097 31.8917 135.565 31.0007C134.771 30.8713 133.991 30.7995 133.226 30.7995Z" fill="#63A83C"/>
<path d="M132.88 103.378C111.982 103.378 96.2256 92.4406 96.2256 77.9249C96.2256 73.2971 97.8431 68.8275 100.919 65.0189C103.909 61.2965 108.299 58.1922 113.614 56.022C114.119 53.895 114.943 51.8542 116.04 49.9427L116.344 49.4109C117.181 47.9594 118.293 46.709 119.636 45.703C120.142 43.5184 120.979 41.4345 122.106 39.4943L122.424 38.9625C124.085 36.1025 126.771 34.0473 129.977 33.185C133.183 32.3227 136.534 32.7682 139.422 34.421C142.412 36.1312 144.564 39.0344 145.329 42.383L152.767 55.1885C153.056 55.6915 153.301 56.1658 153.518 56.6113C158.414 58.8246 162.472 61.9145 165.23 65.5507C168.047 69.2586 169.534 73.5415 169.534 77.9393C169.534 84.9816 165.779 91.4633 158.977 96.1629C152.218 100.805 142.946 103.378 132.88 103.378ZM133.212 33.7742C132.215 33.7742 131.219 33.9036 130.222 34.1623C127.276 34.9527 124.807 36.8355 123.29 39.4655L122.972 39.9973C121.86 41.9088 121.052 43.964 120.575 46.1054L120.532 46.2922L120.373 46.4072C119.073 47.3557 118.004 48.5342 117.21 49.9283L116.907 50.4601C115.809 52.3428 115.015 54.3836 114.524 56.5107L114.466 56.7694L114.221 56.87C108.964 58.9827 104.631 62.0151 101.685 65.6656C98.7674 69.2874 97.2221 73.5415 97.2221 77.9393C97.2221 91.8801 112.545 102.386 132.865 102.386C142.729 102.386 151.799 99.8853 158.385 95.3294C164.913 90.8166 168.509 84.651 168.509 77.9393C168.509 73.7714 167.093 69.6898 164.407 66.1543C161.706 62.6044 157.735 59.6007 152.911 57.4592L152.738 57.3874L152.651 57.2149C152.42 56.7406 152.16 56.2376 151.842 55.6915L144.332 42.7567L144.318 42.6849C143.625 39.5805 141.632 36.8929 138.873 35.2977C137.155 34.2772 135.191 33.7742 133.212 33.7742Z" fill="#63A83C"/>
<path d="M132.88 100.417C113.686 100.417 99.2148 90.7589 99.2148 77.9391C99.2148 73.7281 100.832 69.6752 103.88 66.1972C106.84 62.8342 111.101 60.0747 116.228 58.2208C116.618 55.835 117.426 53.5499 118.64 51.4516L118.943 50.9198C119.752 49.5113 120.921 48.3328 122.322 47.5136C122.727 45.2141 123.521 43.0296 124.691 41.0031L125.009 40.457C126.279 38.2725 128.316 36.7203 130.757 36.0735C133.197 35.4268 135.754 35.7574 137.934 37.0221C140.288 38.3731 141.935 40.6726 142.469 43.317C142.498 43.432 142.527 43.5326 142.585 43.6332L150.167 56.6973C150.586 57.4015 150.947 58.1489 151.264 58.8962C155.929 60.8364 159.785 63.5671 162.428 66.8008C165.129 70.1207 166.544 73.9724 166.544 77.9535C166.559 90.7445 152.073 100.417 132.88 100.417ZM133.212 36.7347C132.475 36.7347 131.739 36.8353 131.017 37.0221C128.836 37.597 127.016 38.9911 125.89 40.9313L125.572 41.4774C124.416 43.4607 123.651 45.6165 123.276 47.8873L123.232 48.1316L123.016 48.2466C121.672 48.9796 120.56 50.0718 119.795 51.3941L119.477 51.9258C118.279 54.0098 117.484 56.2662 117.152 58.6375L117.109 58.9394L116.82 59.04C111.736 60.8364 107.505 63.5384 104.616 66.8296C101.728 70.1207 100.211 73.9437 100.211 77.9103C100.211 90.1553 114.249 99.3821 132.865 99.3821C151.481 99.3821 165.533 90.1553 165.533 77.9103C165.533 74.1593 164.19 70.5232 161.634 67.3901C159.063 64.2426 155.279 61.5838 150.687 59.7011L150.485 59.6148L150.398 59.4136C150.08 58.6375 149.705 57.8615 149.271 57.1429L141.689 44.0787C141.574 43.8919 141.502 43.6763 141.458 43.4607C140.982 41.1037 139.509 39.0485 137.4 37.8413C136.129 37.1227 134.685 36.7347 133.212 36.7347Z" fill="#63A83C"/>
<path d="M132.879 97.4425C115.39 97.4425 102.189 89.0492 102.189 77.9253C102.189 74.088 103.793 70.4231 106.825 67.3332C109.743 64.3582 113.945 61.9581 118.971 60.4203C119.116 57.7902 119.896 55.2176 121.21 52.9325L121.528 52.3863C122.322 51.021 123.578 50.0006 125.066 49.4976C125.268 47.04 126.033 44.6111 127.276 42.4697L127.593 41.9235C128.445 40.4289 129.846 39.3653 131.507 38.9054C133.182 38.4599 134.915 38.6755 136.417 39.5378C138.035 40.4576 139.176 42.0385 139.551 43.8494C139.638 44.2805 139.797 44.683 140.014 45.071L147.596 58.1351C148.144 59.0837 148.607 60.0897 148.968 61.1389C153.43 62.806 157.113 65.1774 159.626 68.0087C162.211 70.9262 163.583 74.3467 163.583 77.9109C163.569 89.0492 150.369 97.4425 132.879 97.4425ZM133.211 39.6959C132.735 39.6959 132.244 39.7534 131.767 39.8827C130.366 40.2564 129.182 41.1618 128.46 42.4266L128.142 42.9727C126.929 45.0854 126.192 47.4855 126.048 49.9144L126.019 50.2737L125.672 50.3743C124.286 50.7623 123.116 51.6534 122.394 52.9037L122.076 53.4499C120.777 55.6919 120.04 58.2501 119.953 60.837L119.939 61.1963L119.592 61.297C114.581 62.7916 110.407 65.1343 107.533 68.0661C104.688 70.9693 103.186 74.3898 103.186 77.9541C103.186 88.5031 115.938 96.4652 132.865 96.4652C149.776 96.4652 162.543 88.5031 162.543 77.9541C162.543 74.6485 161.258 71.4579 158.832 68.7273C156.391 65.9678 152.766 63.654 148.361 62.0443L148.13 61.9581L148.058 61.7281C147.711 60.679 147.263 59.6442 146.7 58.6956L139.118 45.6315C138.844 45.1572 138.656 44.6542 138.54 44.1081C138.223 42.5703 137.269 41.2481 135.897 40.4576C135.074 39.9402 134.15 39.6959 133.211 39.6959Z" fill="#63A83C"/>
<path d="M132.88 94.4667C125.413 94.4667 118.466 92.7852 113.296 89.7527C108.053 86.6627 105.165 82.4661 105.165 77.9245C105.165 71.2128 111.419 65.4066 121.499 62.7765C121.658 62.7334 121.817 62.7046 121.99 62.6903C121.716 59.8159 122.351 56.8984 123.795 54.3976L124.113 53.8515C124.734 52.7736 125.89 52.1125 127.132 52.1125C127.449 52.1125 127.753 52.1556 128.056 52.2418C127.781 49.3674 128.417 46.4499 129.861 43.9492L130.179 43.4031C130.8 42.3252 131.955 41.6641 133.197 41.6641C133.385 41.6641 133.573 41.6784 133.761 41.7072C135.19 41.9371 136.331 43.0438 136.62 44.4522C136.765 45.1996 137.039 45.9038 137.414 46.5649L144.997 59.629C145.69 60.8219 146.195 62.101 146.499 63.4376C155.323 66.312 160.58 71.7159 160.58 77.9245C160.58 82.4661 157.691 86.6627 152.449 89.767C147.307 92.7995 140.346 94.4667 132.88 94.4667ZM122.38 63.6819C122.163 63.6819 121.961 63.7107 121.759 63.7682C112.155 66.2689 106.19 71.7015 106.19 77.9389C106.19 86.6483 117.917 93.475 132.88 93.475C140.173 93.475 146.946 91.851 151.943 88.8904C156.868 85.9872 159.569 82.0924 159.569 77.9245C159.569 72.1183 154.471 67.0306 145.921 64.3143L145.646 64.2281L145.589 63.9406C145.3 62.604 144.809 61.3249 144.13 60.1464L136.548 47.0823C136.115 46.335 135.797 45.5157 135.638 44.6678C135.436 43.6618 134.613 42.8857 133.602 42.7276C133.472 42.6988 133.327 42.6988 133.197 42.6988C132.316 42.6988 131.493 43.1731 131.045 43.9348L130.728 44.481C129.24 47.0536 128.691 50.0717 129.153 53.0035L129.327 54.0671L128.403 53.5066C128.013 53.2766 127.579 53.1616 127.132 53.1616C126.251 53.1616 125.427 53.6359 124.98 54.3976L124.662 54.9438C123.232 57.4157 122.655 60.3189 123.044 63.1502L123.117 63.725H122.38V63.6819Z" fill="#63A83C"/>
<path d="M143.494 66.1547C143.422 64.4731 142.945 62.8347 142.093 61.3832L134.511 48.3191C133.948 47.3418 133.529 46.2639 133.312 45.1572L132.995 45.7034C131.117 48.9371 131.117 52.9181 132.995 56.1661L139.06 66.6289C140.938 69.8626 140.938 73.8437 139.06 77.0917L138.743 77.6379C138.512 76.5312 138.107 75.4533 137.544 74.476L131.984 64.9043L128.431 58.7962C127.868 57.8189 127.449 56.741 127.232 55.6344L126.915 56.1805C125.052 59.3998 125.037 63.3665 126.9 66.6002L132.98 77.0917C134.858 80.3254 134.858 84.3064 132.98 87.5545L132.663 88.1006C132.431 86.994 132.027 85.9161 131.464 84.9388L123.882 71.8747C122.885 70.1501 122.394 68.1811 122.481 66.1978C114.364 68.3105 108.761 72.7945 108.761 77.9828C108.761 85.1975 119.607 91.0469 132.98 91.0469C146.354 91.0469 157.2 85.1975 157.2 77.9828C157.214 72.737 151.611 68.2673 143.494 66.1547Z" fill="#5EB146"/>
<path opacity="0.8" d="M268.202 116.772H134.338L134.323 136.031L-0.855466 136.405V158.063C-0.855466 158.063 -0.898794 169 10.1206 169H257.197C257.197 169 268.159 168.914 268.159 158.063C268.159 147.212 268.202 116.772 268.202 116.772Z" fill="url(#paint0_linear_8698_656)"/>
</g>
<path d="M236.027 130H225V149.818H236.027V130Z" fill="#FF5F00"/>
<path d="M225.576 139.604C225.574 137.696 226.007 135.811 226.841 134.094C227.675 132.377 228.888 130.872 230.39 129.694C228.531 128.233 226.298 127.324 223.947 127.072C221.596 126.82 219.221 127.234 217.094 128.268C214.967 129.301 213.174 130.912 211.92 132.917C210.665 134.921 210 137.238 210 139.603C210 141.967 210.665 144.284 211.92 146.289C213.174 148.293 214.967 149.904 217.094 150.938C219.221 151.971 221.596 152.386 223.947 152.133C226.298 151.881 228.531 150.973 230.39 149.511C228.889 148.333 227.675 146.829 226.841 145.113C226.007 143.396 225.575 141.513 225.576 139.604Z" fill="#EB001B"/>
<path d="M250.392 139.606C250.392 141.971 249.726 144.288 248.472 146.292C247.217 148.297 245.423 149.908 243.296 150.941C241.169 151.975 238.794 152.389 236.443 152.136C234.092 151.884 231.859 150.975 230 149.513C231.501 148.334 232.714 146.829 233.548 145.113C234.382 143.396 234.815 141.513 234.815 139.604C234.815 137.696 234.382 135.812 233.548 134.096C232.714 132.379 231.501 130.875 230 129.695C231.859 128.234 234.092 127.325 236.443 127.072C238.794 126.82 241.169 127.234 243.296 128.267C245.423 129.3 247.217 130.911 248.472 132.916C249.726 134.92 250.392 137.238 250.392 139.602V139.606Z" fill="#F79E1B"/>
<path d="M249.252 147.49V147.084H249.417V147H249V147.084H249.179V147.49H249.252ZM250.061 147.49V147H249.935L249.788 147.35L249.641 147H249.529V147.49H249.62V147.123L249.756 147.441H249.851L249.987 147.123V147.494L250.061 147.49Z" fill="#F79E1B"/>
</g>
<defs>
<linearGradient id="paint0_linear_8698_656" x1="133.673" y1="116.771" x2="133.673" y2="169.002" gradientUnits="userSpaceOnUse">
<stop stop-color="#4BB649" stop-opacity="0.6"/>
<stop offset="1" stop-color="#70A334"/>
</linearGradient>
<clipPath id="clip0_8698_656">
<rect width="269" height="169" fill="white" transform="translate(-1)"/>
</clipPath>
</defs>
</svg>
