<?xml version="1.0" encoding="UTF-8"?>
<svg width="266px" height="168px" viewBox="0 0 266 168" version="1.1" xmlns="http://www.w3.org/2000/svg" xmlns:xlink="http://www.w3.org/1999/xlink">
    <!-- Generator: Sketch 55.2 (78181) - https://sketchapp.com -->
    <title>02. Elements / Products / UniSantander-K / Big - 1. Front</title>
    <desc>Created with Sketch.</desc>
    <defs>
        <rect id="path-1" x="0" y="0" width="266" height="168" rx="10"></rect>
        <linearGradient x1="18.2609845%" y1="32.5410566%" x2="95.4887218%" y2="78.6123924%" id="linearGradient-3">
            <stop stop-color="#FEFEFE" offset="0%"></stop>
            <stop stop-color="#C9C9C8" offset="100%"></stop>
        </linearGradient>
        <linearGradient x1="30.0876614%" y1="23.8208852%" x2="61.9532174%" y2="90.2522265%" id="linearGradient-4">
            <stop stop-color="#F3F1F2" offset="0.873627534%"></stop>
            <stop stop-color="#CC9897" offset="0%"></stop>
            <stop stop-color="#E9B4B6" offset="59.2773438%"></stop>
            <stop stop-color="#C1695F" offset="100%"></stop>
        </linearGradient>
        <filter x="-4.6%" y="-2.9%" width="109.2%" height="105.8%" filterUnits="objectBoundingBox" id="filter-5">
            <feGaussianBlur stdDeviation="1" in="SourceGraphic"></feGaussianBlur>
        </filter>
    </defs>
    <g id="Tarjetas-Santander" stroke="none" stroke-width="1" fill="none" fill-rule="evenodd">
        <g id="Artboard" transform="translate(-1207.000000, -2514.000000)">
            <g id="02.-Elements-/-Products-/-UniSantander-K-/-Big---1.-Front" transform="translate(1207.000000, 2514.000000)">
                <g id="02.-Elements-/-Products-/-UniSantander-K-/-Front">
                    <mask id="mask-2" fill="white">
                        <use xlink:href="#path-1"></use>
                    </mask>
                    <g id="Mask"></g>
                    <g id="02.-Elements-/-Products-/-Clásica-/-Front" mask="url(#mask-2)">
                        <g id="Group">
                            <rect id="Surface-bg" fill="url(#linearGradient-3)" x="0" y="0" width="266" height="168"></rect>
                            <g id="Procesadores-de-Pago-(logotipo)" transform="translate(213.000000, 132.000000)">
                                <g id="Mastercard-logo" transform="translate(8.000000, 5.000000)">
                                    <rect id="Rectangle" fill="#FF5F00" x="11.1188531" y="2.02789287" width="8.2410302" height="14.9063267"></rect>
                                    <path d="M11.6420905,9.48105386 C11.6420905,6.4523831 13.0548386,3.76608387 15.2262846,2.02789024 C13.6304025,0.763749411 11.6159285,-2.33625502e-06 9.41832046,-2.33625502e-06 C4.21208232,-2.33625502e-06 2.05751352e-07,4.24013667 2.05751352e-07,9.48105386 C2.05751352e-07,14.721971 4.21208232,18.96211 9.41832046,18.96211 C11.6159285,18.96211 13.6304025,18.1983583 15.2262846,16.9342175 C13.0548386,15.22236 11.6420905,12.5097246 11.6420905,9.48105386 Z" id="Path" fill="#EB001B"></path>
                                    <path d="M30.4787311,9.48105386 C30.4787311,14.721971 26.266649,18.96211 21.0604108,18.96211 C18.8628027,18.96211 16.8483286,18.1983583 15.2524467,16.9342175 C17.4500547,15.1960238 18.8366407,12.5097246 18.8366407,9.48105386 C18.8366407,6.4523831 17.4238926,3.76608387 15.2524467,2.02789024 C16.8483286,0.763749411 18.8628027,-2.33625502e-06 21.0604108,-2.33625502e-06 C26.266649,-2.33625502e-06 30.4787311,4.26647294 30.4787311,9.48105386 Z" id="Path" fill="#F79E1B"></path>
                                </g>
                            </g>
                            <path d="M27.9781642,19.3286443 C27.9533485,18.7520768 27.7929928,18.1801004 27.4963179,17.6631044 L24.879659,13.1025216 C24.6801323,12.7548342 24.5422553,12.3820641 24.4658053,12 L24.3564162,12.1904722 C23.7087614,13.3193083 23.7087614,14.7099456 24.3563049,15.8387817 L26.4497211,19.4872032 C27.0972646,20.6160392 27.0972646,22.0067886 26.4497211,23.1355127 L26.340332,23.3260968 C26.2637707,22.9439207 26.1258937,22.5712626 25.926367,22.2235753 L24.0099988,18.8834254 L22.7863541,16.7508311 C22.5868274,16.4031437 22.4490617,16.0303737 22.3723891,15.6483095 L22.2631113,15.8388937 C21.6176821,16.9638106 21.615679,18.3489611 22.2567683,19.4756696 L22.2565457,19.4757816 L24.3564162,23.1355127 C25.004071,24.2643488 25.004071,25.6550981 24.3564162,26.7839342 L24.2470271,26.9745183 C24.1704658,26.5923422 24.0325888,26.2196841 23.8330621,25.8718848 L21.2165145,21.3114139 C20.8655345,20.6996858 20.7051788,20.0111417 20.7345569,19.3290922 C17.9333943,20.0654503 16,21.6290915 16,23.4395291 C16,25.9582187 19.7412637,28 24.3564162,28 C28.9714574,28 32.7127211,25.9582187 32.7127211,23.4395291 C32.7127211,21.6290915 30.7795494,20.0650024 27.9781642,19.3286443" id="Santander-(isotipo)" fill="#B6B6B8"></path>
                        </g>
                        <g id="fingerprint" opacity="0.557314918" transform="translate(82.000000, 23.000000)" fill="url(#linearGradient-4)">
                            <ellipse id="bg" style="mix-blend-mode: color;" opacity="0.329543341" filter="url(#filter-5)" transform="translate(51.547031, 61.251957) rotate(25.000000) translate(-51.547031, -61.251957) " cx="51.5470314" cy="61.2519567" rx="32.5" ry="51.5"></ellipse>
                        </g>
                        <g id="Group-97" opacity="0.456077939" style="mix-blend-mode: multiply;" transform="translate(134.326098, 83.061308) rotate(21.000000) translate(-134.326098, -83.061308) translate(99.826098, 31.561308)">
                            <path d="M49.2689638,6.11925307 C48.4538232,5.24056341 47.6055732,4.44483927 46.7238076,3.74263238 C46.0063701,3.35863238 45.2873076,2.98725307 44.5672294,2.62932203 C42.8770263,1.78952893 41.1486357,1.06352893 39.3867294,0.446563411 C38.4344794,0.319735825 37.4531826,0.296563411 36.4422294,0.386563411 C39.1090576,1.13242548 41.7025576,2.12677031 44.2109482,3.37311513 C45.9046044,4.21456341 47.5907451,5.13194272 49.2689638,6.11925307" id="Fill-1" fill="#FFFFFF"></path>
                            <path d="M54.1156191,11.2770049 C51.0733973,9.17296054 48.0681323,7.3158333 45.0683268,5.68315705 C40.5625291,3.23120318 35.979458,1.75306007 31.4856293,1.0330952 C32.1670215,0.856305924 32.8557631,0.699463183 33.5497542,0.559627485 C37.5089682,1.38079477 41.518368,2.79510897 45.4698127,4.94555524 C47.9247144,6.28155305 50.3821359,7.76494524 52.8599257,9.40979938 C53.2887093,10.0117648 53.7074138,10.6349365 54.1156191,11.2770049 Z M56.8921505,16.2150317 C53.1653867,13.3341224 49.3386715,10.6486891 45.3819772,8.26938258 C39.6351848,4.81422306 33.2120398,2.9054448 26.6047405,2.66167716 C27.2342671,2.40342204 27.871983,2.16133412 28.5176782,1.9364632 C34.6014919,2.44898413 40.4925421,4.34957381 45.8145405,7.54962766 C49.2987748,9.64464356 52.679698,11.972509 55.979148,14.4601567 C56.2901316,15.0352467 56.5946058,15.620415 56.8921505,16.2150317 Z M45.6964465,10.8554401 C38.8776951,6.36138117 31.0846264,4.28484206 23.158009,4.84964391 C22.756733,4.87819894 22.356507,4.91494256 21.9564909,4.95693526 C22.545281,4.61196521 23.14625,4.2846321 23.7560382,3.97199644 C31.6404492,3.55206942 39.3730431,5.68193926 46.1586173,10.154162 C50.3525914,12.9183316 54.3865591,16.0020657 58.3096562,19.2256354 C58.5580652,19.7851882 58.8012245,20.34999 59.0389244,20.919621 C54.7382793,17.3330244 50.3114349,13.8969715 45.6964465,10.8554401 Z M46.0120287,13.4414347 C39.2585818,8.59526694 31.525568,6.3635648 23.6485063,6.98694646 C21.5484745,7.15323755 19.4738506,7.52529289 17.4544519,8.08736521 C17.9928462,7.64644184 18.5457293,7.2214757 19.1116313,6.81267674 C20.5821365,6.49269235 22.0757398,6.26887125 23.582152,6.14961198 C31.6597466,5.51027309 39.5848941,7.79593586 46.5017072,12.7590533 C51.2542339,16.1692806 55.7858594,19.9555526 60.1801565,23.7917959 C60.3874089,24.3391707 60.5902517,24.8892751 60.7884749,25.4412692 C56.0470772,21.2730736 51.1547024,17.1317533 46.0120287,13.4414347 Z M46.3284509,16.0270093 C39.6396784,10.8310424 31.9648297,8.44438716 24.1341741,9.12382908 C20.3244674,9.45452161 16.6315108,10.516937 13.2335791,12.2214207 C13.7022593,11.6721562 14.189208,11.1390588 14.6935852,10.6219187 C17.6646231,9.3642373 20.8219152,8.56847559 24.0615203,8.28712449 C32.1065677,7.58836593 39.9846792,10.0357006 46.8435372,15.3637346 C52.054455,19.4116211 56.9774873,23.8674667 61.741983,28.2120317 C61.918788,28.7480685 62.0916033,29.2845253 62.260429,29.8207721 C62.1495584,29.7195697 62.0391078,29.6192071 61.9280272,29.5177947 C56.9424203,24.9699851 51.7869377,20.2672224 46.3284509,16.0270093 Z M46.6458809,18.612605 C40.0205231,13.0685185 32.4017396,10.5256504 24.6147604,11.2611526 C19.1394749,11.7776629 13.9718134,13.9203405 9.6306418,17.4116137 C9.99055126,16.7603069 10.3727188,16.1241175 10.7765146,15.5034653 C14.8757867,12.6494313 19.5831673,10.8920368 24.5358071,10.424868 C32.5514569,9.66962922 40.3840023,12.277376 47.1846952,17.9686469 C51.7377389,21.7786447 56.0574923,25.8674741 60.2350879,29.8217169 C61.1865171,30.7224604 62.1316469,31.6169049 63.0713172,32.5006413 C63.2241842,33.0257601 63.3736915,33.549829 63.5187892,34.0713783 C62.2414676,32.8771059 60.9557467,31.6605773 59.6576369,30.4316609 C55.4892806,26.4862366 51.1789763,22.4062257 46.6458809,18.612605 Z M25.2309741,13.3849335 C18.1291667,14.0673149 11.6501664,17.6788973 6.88483079,23.584121 C7.19308463,22.8156545 7.51582725,22.0213626 7.85389856,21.1995654 C12.5663187,16.2183911 18.5993168,13.1783294 25.1507609,12.5490688 C32.9770068,11.7969795 40.9231525,14.6470242 47.5252023,20.5734542 C51.3844649,24.0376421 55.0662925,27.6777795 58.6271703,31.1978177 C60.5107105,33.0599841 62.3701027,34.8973748 64.2160561,36.6698867 C64.3491848,37.1840874 64.4783238,37.6947186 64.6038932,38.2015705 C62.4356171,36.1430883 60.2526424,33.9859232 58.0364904,31.7951639 C54.4829619,28.2818445 50.8082738,24.6490559 46.9641299,21.1983056 C40.5388851,15.430818 32.82078,12.6561502 25.2309741,13.3849335 Z M25.620806,15.5307186 C18.2292232,16.3174519 11.6282233,20.4967755 7.03402313,27.2989633 C6.02589867,28.7918039 4.99635603,30.1590863 3.96093389,31.4138282 C4.22845119,30.620796 4.51465691,29.803828 4.82270077,28.9555754 C5.33232752,28.2763435 5.83838458,27.5689764 6.33814218,26.829065 C11.0732404,19.8179635 17.889682,15.5088824 25.5319835,14.6956937 C33.363269,13.8619286 41.294506,16.8744851 47.8648485,23.1780095 C51.1855067,26.3639958 54.3690466,29.6618927 57.4478054,32.8512384 C60.069013,35.5662765 62.6459143,38.2347028 65.2076969,40.7275995 C65.3236071,41.2308821 65.4353176,41.7278657 65.5436684,42.2193903 C62.6692223,39.4680284 59.7836472,36.4802477 56.8434767,33.434517 C53.7703874,30.2508403 50.5923071,26.9588225 47.2831979,23.7841742 C40.8947,17.6551294 33.2015827,14.7242488 25.620806,15.5307186 Z M26.0369697,17.6751389 C18.6518963,18.5305302 12.1707963,22.9937246 7.7874182,30.2422948 C5.9360053,33.3037727 3.98611076,35.8590287 2.04650534,37.9914181 C2.18929322,37.3915523 2.34216025,36.7866474 2.50741623,36.1725042 C4.04763553,34.3571597 5.59205449,32.2497559 7.06864919,29.8078803 C11.5893556,22.3319196 18.2915669,17.7267899 25.9403779,16.8407439 C33.7674637,15.9341215 41.6739228,19.1098196 48.2033188,25.7826699 C51.0930936,28.7360166 53.8757775,31.7609609 56.5666991,34.6863825 C59.7779567,38.1774457 62.9260095,41.5979613 66.0658731,44.6772861 C66.1666646,45.1698605 66.2630464,45.6534065 66.3554385,46.1287638 C62.908791,42.819529 59.4663431,39.079029 55.9485116,35.2549636 C53.2617896,32.3341613 50.4837253,29.3142561 47.6029797,26.3701478 C41.259418,19.8868945 33.599478,16.7993811 26.0369697,17.6751389 Z M26.4737536,19.8180475 C19.1947213,20.7225703 12.6579759,25.5951935 8.53896543,33.1862142 C6.1481083,37.5927184 3.53592995,40.9857287 0.98674626,43.5953651 C1.05772024,43.0948121 1.13415375,42.5982484 1.21625679,42.1042043 C3.42589929,39.7041114 5.70357602,36.651032 7.80087806,32.7858138 C12.0504975,24.953335 18.8188532,19.9230292 26.3702324,18.9844924 C34.187869,18.013831 42.060521,21.3524608 48.5412011,28.3872882 C51.0779959,31.1407497 53.5303778,33.9397732 55.9019165,36.6468327 C59.6866354,40.966832 63.2704013,45.0546115 66.8088111,48.5547032 C66.8953237,49.0397189 66.9774268,49.5115069 67.0547002,49.9694374 C63.2218954,46.2738696 59.3622129,41.8711448 55.2700802,37.2002966 C52.9019011,34.4972263 50.4532989,31.7021921 47.9236435,28.9560793 C41.6317374,22.1263863 34.0146337,18.8811903 26.4737536,19.8180475 Z M9.28935776,36.1310154 C6.54405071,41.7616068 3.41909587,45.7926962 0.438188807,48.6723458 C0.473675795,48.2238637 0.510842642,47.7808407 0.551159221,47.3460063 C3.20365415,44.6351674 6.03358402,40.8921479 8.53426183,35.7629494 C12.5829283,27.4593125 19.2465029,22.1247696 26.8169905,21.126813 C34.6176186,20.0979918 42.4526838,23.6018629 48.8783485,30.9913186 C51.1199083,33.5688307 53.2944838,36.1746878 55.3976653,38.6946698 C59.5765207,43.7020896 63.5162065,48.4224892 67.4285945,52.3045045 C67.5010383,52.7846911 67.5667627,53.2407318 67.6263977,53.6726268 C63.4244442,49.6226406 59.2239607,44.5904452 54.7528101,39.2328063 C52.6523583,36.7159737 50.4805126,34.113476 48.2448323,31.5424728 C42.0094114,24.3726389 34.4380838,20.9703902 26.9268112,21.9593183 C19.6406394,22.9199014 13.2120349,28.0852137 9.28935776,36.1310154 Z M10.0383432,39.0765515 C7.0131299,45.9761624 3.37917826,50.5040254 0.184929296,53.435536 C0.195218423,53.0254772 0.208027337,52.6273864 0.222936071,52.2463026 C3.19040427,49.3761015 6.48670457,45.0848673 9.26917847,38.7393501 C13.1189918,29.9586761 19.6826149,24.3194762 27.2768305,23.2677689 C31.0292121,22.7476893 34.8170807,23.3444056 38.5343952,25.0411207 C42.4047868,26.8077537 45.9982119,29.6857235 49.2153489,33.5954541 C51.20577,36.0146536 53.1441156,38.4514901 55.0182065,40.8079106 C59.4956566,46.4374522 63.7034896,51.7268529 67.9075428,55.9177246 C67.9325307,56.1461649 67.9549988,56.3620074 67.9741072,56.5612627 C67.9948954,56.7800447 68.011904,56.997147 68.0295425,57.2146692 C63.5499926,52.883122 59.1048798,47.2953631 54.3609623,41.3307197 C52.4887612,38.9768188 50.5529354,36.5429218 48.566504,34.1289713 C45.43147,30.3189735 41.9388364,27.5182702 38.1854048,25.805178 C34.6159177,24.1758611 30.9846958,23.6020309 27.3921107,24.0994344 C20.09355,25.1104087 13.7684667,30.56925 10.0383432,39.0765515 Z M10.7862997,42.0231164 C7.60506968,50.0892845 3.58391088,55.0156583 0.204457639,57.9757239 C0.191228762,57.6042985 0.180729653,57.2368623 0.173590259,56.8744653 C3.35335045,53.947154 7.04231743,49.2263345 10.004956,41.7148899 C13.658436,32.4519298 20.1250473,26.5078628 27.7463506,25.4074441 C35.3922219,24.3040858 43.3394175,28.2369123 49.5513204,36.1991485 C51.3260898,38.4741032 53.0594927,40.759136 54.7359905,42.969002 C59.3912955,49.1060254 63.7612347,54.8640647 68.1504922,59.2949246 C68.1641411,59.7009941 68.1712805,60.1045439 68.1735903,60.5062041 C63.533404,55.9552451 58.9564224,49.9225735 54.0667773,43.4766938 C52.3921694,41.2689274 50.6604463,38.9862042 48.8890366,36.7156588 C42.8675875,28.9976101 35.2053377,25.1802636 27.8664604,26.2386896 C20.5515211,27.295016 14.3261794,33.0480162 10.7862997,42.0231164 Z M49.886662,38.8027171 C51.4732873,40.943295 53.0275754,43.089752 54.5306279,45.1656612 C59.2495575,51.6825086 63.6770318,57.797066 68.1423029,62.4210923 C68.1278141,62.8032259 68.1080758,63.1832599 68.0837179,63.5616141 C63.3880963,58.8290366 58.7758377,52.4604234 53.8504956,45.6582356 C52.348703,43.5842161 50.7956748,41.4396488 49.2119892,39.3028501 C43.2556346,31.2664968 35.6507099,27.2849588 28.3473196,28.3765591 C21.012642,29.4738284 14.884312,35.5220372 11.5332064,44.9703952 C8.29906079,54.0899502 3.98959646,59.3205612 0.509771733,62.2663492 C0.472184922,61.9247386 0.438377791,61.5839678 0.407720392,61.2438269 C3.71053014,58.3156758 7.7001916,53.2654235 10.7417835,44.6896739 C14.1997701,34.9391785 20.5714694,28.6906645 28.2230102,27.5459434 C35.8443135,26.4058416 43.7398535,30.5091584 49.886662,38.8027171 Z M50.2219405,41.4059496 C51.6430999,43.4207595 53.0394814,45.4391387 54.3898768,47.3909595 C59.078989,54.1687915 63.4823153,60.5327855 67.9358274,65.3184838 C67.8978207,65.6840302 67.8560342,66.048107 67.8092082,66.410714 C63.143824,61.519614 58.5731419,54.914372 53.6990355,47.8686265 C52.34969,45.9184854 50.9543584,43.9017859 49.5352988,41.8901255 C43.6457185,33.5400867 36.0997988,29.3933074 28.8323155,30.5138826 C21.4755897,31.6476856 15.4421717,37.991523 12.27963,47.9185978 C10.4513152,53.6564806 7.05716317,61.3476539 1.13860537,66.289775 C1.07309093,65.9758795 1.01156615,65.6605143 0.953821054,65.3432595 C4.30429676,62.4214073 8.46593363,57.1217183 11.4791779,47.6637021 C14.7423011,37.4214721 21.0205583,30.8680911 28.7042264,29.6836869 C36.3001218,28.5131403 44.1414865,32.7861077 50.2219405,41.4059496 Z M50.5565891,44.0089512 C51.830551,45.9038719 53.0858245,47.8011022 54.2995215,49.6357633 C58.8641142,56.5349543 63.2113753,63.1040826 67.5703954,68.0310863 C67.5130703,68.3789959 67.4528054,68.7260656 67.3879209,69.0712456 C62.8224883,64.03989 58.3544874,57.2868336 53.599021,50.0991528 C52.3861639,48.2657514 51.1317303,46.3699909 49.8594483,44.4773798 C44.0370623,35.8180648 36.5507775,31.5066741 29.3202511,32.6503453 C21.9389574,33.8171125 15.9998214,40.4569986 13.0250038,50.8674093 C11.3048297,56.887483 8.0396068,64.9404235 2.15107646,69.9971846 C2.05154491,69.7135239 1.95600302,69.4265038 1.86571068,69.1354944 C7.43590803,64.1998822 10.5566632,56.4488693 12.2174123,50.6366594 C15.285672,39.8989155 21.4715371,33.0406675 29.1890122,31.8207795 C36.7563501,30.6235675 44.5439593,35.0670253 50.5565891,44.0089512 Z M66.668018,69.8418536 C66.774059,69.6358794 67.0266676,69.5539937 67.2335,69.6602352 C67.246099,69.6665341 67.2565981,69.6751426 67.2681471,69.6824913 C67.1805845,70.1175357 67.0886123,70.5513203 66.9899207,70.9827954 C64.0904867,75.8100664 56.5987424,81.8341295 46.173757,84.3885455 C43.4383191,85.058959 40.2098431,85.5565725 36.6573645,85.5567825 C30.074843,85.5569924 22.3771062,83.8489393 14.6235141,78.3655323 C11.2488905,75.9788771 7.68339303,75.1310444 4.59035548,74.98365 C4.42488952,74.6968399 4.2625733,74.4123393 4.10298684,74.1297284 C7.44863295,74.2084648 11.3872687,75.0481088 15.108573,77.6797915 C26.7882019,85.9397559 38.3397417,85.4434022 45.973854,83.5728373 C56.6951242,80.9457738 64.216686,74.6136943 66.668018,69.8418536 Z M45.9216104,85.7603211 C54.1533319,83.8905961 61.6961019,79.5323835 66.1344953,74.2511713 C65.9461413,74.8903003 65.7460282,75.5260698 65.537306,76.1591097 C60.8904003,80.9536265 53.787543,84.8350119 46.1076546,86.5791788 C43.0467443,87.2745779 39.9765949,87.6226976 36.9284935,87.6226976 C34.8066235,87.6229074 32.6958826,87.4540967 30.6046701,87.1166854 C24.8872752,86.1934758 19.4590258,84.0151044 14.4708991,80.6424606 C11.5720951,78.6824512 8.59265788,77.6574093 5.88052801,77.1684043 C5.69133406,76.8542989 5.50444992,76.5416633 5.32008556,76.2302874 C8.32031099,76.6798192 11.6817058,77.7426545 14.9412592,79.9468515 C26.6994215,87.8973297 38.2786789,87.4965094 45.9216104,85.7603211 Z M30.6613863,88.3610761 C35.7624834,89.1761545 40.9706715,89.0205715 46.1414827,87.8972667 C53.2010837,86.3639032 59.7758358,83.0435403 64.6329337,78.7283702 C64.429041,79.2746953 64.2188488,79.8193406 64.0023572,80.3629361 C59.1782265,84.2804353 52.9558245,87.2766146 46.3197576,88.7180141 C43.2846752,89.3772995 40.2309043,89.7031629 37.2014913,89.7031629 C29.1346058,89.7031629 21.2386458,87.3933543 14.3180531,82.9192419 C11.9990098,81.4198924 9.65917838,80.4082883 7.448066,79.7340954 C7.23010449,79.3813567 7.01298292,79.0292479 6.79775118,78.677769 C9.33727569,79.3620401 12.0708237,80.4662382 14.7741344,82.2139744 C19.693177,85.3938718 25.0384834,87.4622223 30.6613863,88.3610761 Z M14.6066736,84.4812654 C24.3305285,90.4897912 35.8545606,92.4132669 47.05732,89.8983239 C52.9214924,88.5812228 58.4391943,86.0595611 63.0315046,82.7095933 C62.8421007,83.1503067 62.6505969,83.5908102 62.4553135,84.0306837 C62.4210864,84.1079503 62.3866493,84.184587 62.3526322,84.2616436 C57.9503557,87.2427055 52.796763,89.4702083 47.2414744,90.7176016 C43.9693221,91.4522639 40.670082,91.8155008 37.3949899,91.8155008 C29.2413818,91.8157107 21.236651,89.5653218 14.165081,85.1955613 C12.5234403,84.1810176 10.8841094,83.3632097 9.29181455,82.7028745 C9.04424556,82.3047837 8.79583664,81.9054331 8.54679777,81.5052426 C10.5086613,82.245364 12.5561976,83.2143456 14.6066736,84.4812654 Z M14.4394438,86.7644086 C24.2758491,92.5713694 35.8481772,94.472589 47.0259487,92.1314958 C52.1862608,91.0506037 57.0651968,89.0826157 61.3849503,86.4097802 C61.175808,86.8649811 60.9649859,87.3159827 60.7514341,87.7621552 C56.6208745,90.1580488 52.0300341,91.9341301 47.1979241,92.9459443 C44.0263532,93.6102688 40.823075,93.9382318 37.6361754,93.9382318 C29.3845056,93.9382318 21.2384568,91.7380242 14.01255,87.4721956 C13.1123564,86.9407779 12.2167824,86.4563921 11.3312875,86.0131592 C11.0706996,85.5835738 10.8052821,85.1497892 10.536085,84.7124352 C11.8163463,85.3078917 13.1234854,85.9875436 14.4394438,86.7644086 Z M14.2723189,89.0166032 C24.2384933,94.633547 35.8572274,96.5297274 46.9885929,94.357445 C51.4864112,93.4793776 55.7563989,91.9672204 59.679076,89.8953005 C59.444106,90.3385334 59.2038864,90.7758874 58.9558974,91.2058927 C55.2713401,93.0250165 51.3062465,94.3702528 47.1494392,95.1817617 C44.0902088,95.7788979 40.9931816,96.0741066 37.9045537,96.0741066 C29.557342,96.0741066 21.2613659,93.919881 13.8599139,89.7481161 C13.693818,89.6544723 13.5277221,89.5620884 13.3620462,89.4707543 C13.1092276,89.0208025 12.84591,88.5618222 12.5729331,88.0946534 C13.1358954,88.3888123 13.7024273,88.695569 14.2723189,89.0166032 Z M14.4320734,91.4557913 C24.4727914,96.7609393 36.003753,98.5893015 46.9459245,96.5994773 C50.6844473,95.9196155 54.2518346,94.8257056 57.6142792,93.3439931 C57.3039256,93.7962545 56.980763,94.2382277 56.6431117,94.6692828 C53.6090791,95.8975693 50.4186098,96.8216187 47.0962717,97.4258937 C44.1607208,97.9596209 41.1819136,98.2233351 38.2020564,98.2233351 C30.2596904,98.2233351 22.2998958,96.3500407 15.0540406,92.7222912 C14.8635868,92.3141221 14.6552844,91.8910456 14.4320734,91.4557913 Z M15.7862905,94.454952 C25.6184962,99.0336263 36.5875454,100.594705 46.8993504,98.8494883 C49.5749434,98.396387 52.1759927,97.728913 54.6905293,96.8563047 C54.1935015,97.3423702 53.6668662,97.8080693 53.1072637,98.2513022 C51.1317513,98.8488584 49.108153,99.3273652 47.0396185,99.6775844 C44.2401361,100.151262 41.3910978,100.385581 38.5317705,100.385581 C31.0194479,100.385581 23.4214526,98.7697022 16.3645814,95.640406 C16.1266716,95.2467244 15.9322281,94.8509432 15.7862905,94.455162 C15.7862905,94.455162 15.7862905,94.454952 15.7862905,94.454952 Z M18.0475046,97.6972925 C27.3963313,101.371024 37.464977,102.583353 46.8495007,101.10647 C47.6461731,100.981122 48.437176,100.836037 49.2222993,100.672685 C48.0233011,101.250505 46.7052429,101.754627 45.2471266,102.176024 C43.1538143,102.43134 41.0323643,102.559627 38.8964255,102.559627 C32.6425262,102.559627 26.269147,101.474536 20.1458566,99.3658725 C19.3552736,98.8373944 18.6524633,98.2774217 18.0475046,97.6972925 Z M11.9053158,60.2091687 C10.6200148,63.2269743 7.49359014,70.5662487 3.30822528,72.6801614 C3.17908623,72.434924 3.05540673,72.1840176 2.93634683,71.928702 C6.84369528,69.9506357 10.0003574,62.538294 11.1325814,59.8801559 L11.290278,59.5102002 C11.772607,58.3852157 12.4388805,56.3336623 13.2101451,53.9583451 C14.4379109,50.1773222 15.8294628,45.891967 17.0446297,43.5922367 C19.1091745,39.6848158 21.1667899,37.1045742 26.1194297,34.6633285 C30.617248,32.4461138 35.0520717,32.761479 40.0758954,35.6560359 C44.359112,38.1231072 54.3620332,52.2542813 54.7857773,52.8547769 C54.9195359,53.044164 54.8743897,53.3061984 54.6847758,53.4399452 C54.4953719,53.573482 54.2333141,53.5283398 54.0995555,53.3389527 C53.9968742,53.193448 43.7806111,38.7590866 39.656771,36.3835595 C34.8328503,33.6046924 30.7722149,33.3061243 26.4908882,35.4164676 C21.743401,37.7567208 19.7693585,40.2332404 17.7873367,43.9846585 C16.6059769,46.22014 15.226184,50.4689615 14.0091273,54.2174401 C13.2311433,56.6124938 12.5596203,58.6810543 12.0623825,59.8411027 L11.9053158,60.2091687 Z M13.6817441,75.6312195 C9.71287082,72.9615335 9.1793061,67.8409434 9.15851786,67.624261 C9.13646973,67.3937211 9.30529541,67.1887967 9.53606583,67.1665406 C9.76746619,67.1459642 9.97198884,67.3133051 9.99445693,67.543845 C9.99928652,67.5931864 10.5164726,72.4897455 14.1504243,74.9345606 C14.3053911,75.0387025 14.4813562,75.1592215 14.6776895,75.2938081 C16.9366779,76.842289 22.226969,80.4681489 29.5324591,82.1266506 C38.6087289,84.1863926 47.8086783,82.6127161 56.8786487,77.446564 C57.2135702,77.2143443 63.5058963,72.8061605 65.0841224,68.5812747 C65.1655955,68.3643824 65.406655,68.2537316 65.6246165,68.3347776 C65.8417381,68.4160334 65.9521888,68.6579114 65.8711356,68.8752236 C64.1641905,73.4440296 57.617156,77.9590849 57.3393496,78.1491019 L57.3101621,78.1671588 C50.6803946,81.9465019 43.9758735,83.8443621 37.2923506,83.8443621 C34.6383858,83.8443621 31.9879907,83.5451641 29.3466248,82.9455083 C21.884278,81.2517327 16.5013848,77.5620439 14.2027098,75.9864777 C14.0086863,75.8535708 13.8348211,75.7343116 13.6817441,75.6312195 Z M64.5343471,66.7307403 C64.7504187,66.8149357 64.8572997,67.0587033 64.7730968,67.2745458 C64.1679282,68.8253363 61.7037872,72.1925211 59.0000567,74.7332895 C53.3641349,80.0296191 46.0771232,81.4924348 37.0506191,81.4924348 C35.4749128,81.4924348 33.8479709,81.4479226 32.1655936,81.3712859 C21.6146189,80.8915193 12.9576835,72.2414426 11.7601551,67.6911134 C10.9571832,64.6399237 12.2626425,61.5549299 13.6447452,58.2885275 C14.153952,57.0852267 14.6805873,55.8409829 15.1291092,54.5442483 C15.4965781,53.4828827 15.7758544,52.2808416 16.0717193,51.0082528 C17.1056715,46.5589161 18.3928623,41.0215484 24.6156843,37.2012624 C30.0525429,33.8638924 35.2676604,34.1920654 40.5577415,38.204888 C44.7273577,41.3673583 50.2952453,48.7809599 52.3028849,53.0484682 C53.5033531,55.6001548 52.6050493,62.1197317 52.3683994,62.5929895 C52.2648782,62.8002234 52.0126896,62.8848387 51.8050172,62.7809068 C51.6011245,62.6788645 51.5165017,62.4336271 51.6118336,62.2284928 C51.8182461,61.663691 52.5874108,55.6264002 51.5429594,53.4060361 C49.5758463,49.2250327 44.1270187,41.9661743 40.0500046,38.8738317 C34.9984633,35.0417877 30.2335476,34.7379705 25.054967,37.917238 C19.1313696,41.553596 17.9405607,46.6775455 16.8898098,51.1982698 C16.5889054,52.4929048 16.3045895,53.7159422 15.9230519,54.8188805 C15.4648707,56.1422805 14.9327759,57.399752 14.4183196,58.6158607 C13.0362168,61.882263 11.8422581,64.7033327 12.5725762,67.4775805 C13.541434,71.1588708 21.3890981,80.0407471 32.2038104,80.5322717 C43.310188,81.0378638 52.019619,80.1404798 58.4244955,74.1214559 C61.0068564,71.6949076 63.4304707,68.4045694 63.9904932,66.9694688 C64.074906,66.7532064 64.3184854,66.6467549 64.5343471,66.7307403 Z M41.4892225,66.893756 C40.3710674,67.3309 39.1109643,67.5452728 37.8162142,67.5452728 C35.8780786,67.5452728 33.8624597,67.0652962 32.126117,66.1347379 C30.20457,65.1046569 27.8622188,61.9350478 27.4286056,58.6102756 C27.0027617,55.3468128 27.0094812,53.7366026 28.8212074,50.9104938 C29.3312541,50.1149421 30.0143262,49.6288765 30.8511052,49.4659449 C32.6298642,49.1192951 34.4504098,50.3899943 34.5272632,50.4441648 C34.7164572,50.5783315 34.7613934,50.840366 34.6272148,51.0295431 C34.4934561,51.2189302 34.2313984,51.2636524 34.0419944,51.1296957 C34.0130169,51.1095392 32.4263915,50.0128998 31.0085918,50.2908915 C30.3988036,50.4105707 29.9143747,50.7614197 29.5284274,51.363805 C27.8515097,53.9795304 27.8471001,55.3245567 28.2613949,58.5015145 C28.6481821,61.4653594 30.7769815,64.4585992 32.5229833,65.3944066 C35.2115952,66.836016 38.6112067,67.1175771 41.1832785,66.1116419 C42.2040019,65.7127113 43.5275196,64.9282876 44.0367263,63.4577032 C44.6759121,61.6112841 45.0654291,57.4262914 44.5734408,53.0008905 C44.1507467,49.1999211 42.9389395,43.9481038 39.5668356,40.5133108 C39.4040994,40.3476496 39.4066192,40.0818358 39.5720852,39.919324 C39.7375511,39.7570222 40.0031786,39.7591218 40.1659148,39.924993 C46.8370487,46.7194122 46.0061492,60.3361757 44.830249,63.7323354 C44.3445602,65.1361515 43.1892383,66.2292215 41.4892225,66.893756 Z M63.5467799,65.6138814 C63.7460529,65.7325108 63.8113574,65.990346 63.6925075,66.1893914 C62.7771952,67.7256944 60.2599288,71.4598954 58.5893105,73.1303651 C52.8704458,78.8485113 41.2670404,79.5852733 35.6909635,79.9394817 C35.1261114,79.9751755 34.6173246,80.0075099 34.1759421,80.0406841 C33.9222836,80.0597908 33.6661053,80.0692392 33.4088771,80.0692392 C27.4951489,80.0696591 20.6952959,75.179609 17.0777229,72.1767109 C13.0800821,68.8582376 12.3734921,64.5027545 15.0341763,59.5809999 C16.003454,57.7877016 17.1325282,53.9522982 18.0396513,50.8706637 L18.2030174,50.3163601 C18.8638313,48.0756295 20.9752022,43.9236011 27.6916923,41.2912886 C31.9700792,39.6149399 35.8205225,42.0612248 38.8280973,48.3666389 C40.5866981,52.0538081 39.7087626,56.8835987 36.91075,58.913316 C35.7890252,59.7271345 34.4379998,59.8268672 33.2039345,59.1879482 C31.4111067,58.2584398 30.2278571,56.0250579 30.2597744,53.6297942 C30.2748931,52.4980909 30.6112845,51.7764463 31.2594995,51.484807 C32.6577709,50.8549165 34.8550244,52.6971363 35.1011236,52.9094094 C35.2766687,53.0607931 35.296197,53.325767 35.1447998,53.5012965 C34.9934027,53.677036 34.7284052,53.6965626 34.5526501,53.5453889 C33.9000255,52.9835265 32.3205395,51.9282499 31.6038703,52.2507539 C31.2000746,52.4325823 31.1068425,53.107195 31.0997031,53.6411322 C31.0719854,55.7260699 32.0729705,57.6556345 33.5905117,58.4421578 C34.5455107,58.9372518 35.5496455,58.8633446 36.4175019,58.2334541 C38.8658941,56.4575827 39.6379986,52.0158047 38.0698516,48.7281961 C36.1264666,44.6534342 32.8016087,40.1906598 27.9982663,42.0731927 C21.6148079,44.5749079 19.6258567,48.4604926 19.008719,50.5538288 L18.8455629,51.1077125 C17.9271008,54.2271404 16.7843778,58.1095756 15.7728936,59.9803505 C13.3266012,64.505904 13.9632672,68.4998299 17.6140174,71.5304432 C23.8719064,76.7247304 29.886846,79.5220743 34.1129474,79.2033497 C34.5570597,79.1697555 35.0692063,79.1372112 35.637838,79.1010974 C41.1112336,78.7536078 52.5008771,78.0304935 57.9954809,72.5365883 C59.6142335,70.9177697 62.0737548,67.2654544 62.9712187,65.7595961 C63.0898586,65.5605507 63.3479267,65.4950421 63.5467799,65.6138814 Z M61.9462747,63.9815411 C62.1619264,64.0667863 62.2677574,64.3105539 62.1827146,64.5263964 C60.8012418,68.0237586 58.4716995,70.2323648 56.2190106,72.3681136 C52.9455984,75.4717942 45.9878388,76.8178703 42.131936,77.3440388 C39.4046874,77.7160941 36.6304028,77.9031716 34.2723029,77.9031716 C32.0401923,77.9031716 30.1808001,77.7356208 29.0863729,77.3986293 C24.7806883,76.0741795 17.9793654,69.8636689 16.5899133,68.0111608 C15.1418762,66.0805463 15.1301172,63.2909711 16.5592559,60.7308861 C17.0071479,59.9279856 17.5081654,58.3158858 18.0883461,56.4491002 C19.0855515,53.2400179 20.3265462,49.246512 22.0513399,46.9807958 C24.9236861,43.2077515 30.087778,41.9143763 33.5627731,44.0975768 C36.9520955,46.2268168 39.397128,51.8756751 37.3502217,55.7415232 C36.816237,56.7503979 36.1621425,57.2251254 35.4053667,57.2251254 L35.3883582,57.2251254 C33.7250893,57.2251254 32.3778436,54.6635705 32.2295962,54.3694117 C32.1252351,54.1621777 32.208598,53.9280684 32.4156404,53.8237165 C32.6224729,53.7193646 32.8750814,53.7752149 32.9796526,53.9822389 C33.2965157,54.6098199 34.4207603,56.3852713 35.3973874,56.3852713 L35.4045268,56.3852713 C35.826171,56.3852713 36.2310167,56.0606677 36.6079347,55.3486815 C38.4013925,51.9611302 36.1869204,46.7200211 33.115931,44.7906664 C29.9993755,42.8327567 25.3354612,44.0442461 22.7195032,47.4805089 C21.0845819,49.6282257 19.8679451,53.5478244 18.8904781,56.6937077 C18.2962285,58.6056354 17.783452,60.2588881 17.2927236,61.1377954 C16.027581,63.4041415 16.015822,65.8447573 17.2618563,67.5059886 C18.5683654,69.2480558 25.2611275,75.3424567 29.333522,76.5955189 C33.5722223,77.8991823 50.4646589,76.6660666 55.6411397,71.7585895 C57.9280556,69.5902964 60.0883523,67.5421023 61.4013709,64.2177501 C61.4868336,64.0023275 61.730623,63.8969258 61.9462747,63.9815411 Z M29.5245427,54.6969967 C29.3819648,58.5777523 30.2193738,61.3969323 32.0130416,63.0762205 C34.2651005,65.1842541 37.5666503,65.144361 40.1907977,64.8745579 C43.004139,64.5848083 42.9205661,59.9664509 42.8705903,57.2069005 C42.8642908,56.8629803 42.8586213,56.5453055 42.8586213,56.2637444 C42.8586213,54.3362794 42.5692659,50.3751078 40.6311303,45.500595 C38.843972,41.0065361 35.7433751,38.0704063 32.5392569,37.8381867 C29.3145606,37.6047073 26.2003148,38.5419844 23.7670413,40.477638 C21.5861663,42.2121465 20.7453977,44.9975224 20.7372084,45.0254476 C20.671484,45.2482189 20.4381937,45.3754568 20.2154027,45.3095282 C19.9930315,45.2440196 19.8657823,45.0103302 19.9315067,44.7879789 C19.9682536,44.6634705 20.8579481,41.7183123 23.2439757,39.8202422 C25.8429251,37.7531515 29.1658932,36.7509956 32.5999418,37.0006423 C36.1816079,37.2601571 39.4755984,40.3216351 41.4114241,45.1904789 C43.4014252,50.1949592 43.69855,54.2762299 43.69855,56.2637444 C43.69855,56.5406863 43.7042196,56.8535319 43.710519,57.1917831 C43.7655344,60.2396135 43.8581365,65.3410968 40.2768904,65.7097928 C39.6958697,65.7696324 38.8635003,65.8555074 37.9076614,65.8555074 C35.9006517,65.8555074 33.3495782,65.4777831 31.4391603,63.6893139 C29.4598682,61.8365959 28.5334268,58.8007335 28.685244,54.6663421 C28.6936432,54.4343324 28.8880867,54.2512442 29.120327,54.2619523 C29.3521474,54.2705608 29.533152,54.465197 29.5245427,54.6969967 Z M31.3442483,58.3465615 C31.5754387,58.3581094 31.7535036,58.5544253 31.7427945,58.7853852 C31.7421646,58.8011325 31.689669,60.3790082 32.9369632,61.6725934 C34.0780064,62.8557378 35.9243797,63.4553936 38.4263174,63.4553936 C38.4590746,63.4553936 38.4916219,63.4551836 38.5243791,63.4549736 C39.4415813,63.4493046 40.0965157,63.2282131 40.5271891,62.7788911 C41.4049147,61.8636602 41.3389803,60.017871 41.2688462,58.0637406 C41.2457482,57.4199925 41.2220202,56.7541982 41.2312594,56.1001619 C41.2854348,52.3082209 39.8531463,46.5014701 38.1663595,43.6738915 C37.2667958,42.1657236 35.1841925,40.8416937 32.8611596,40.3012476 C30.2105545,39.6843748 27.541051,40.1299174 25.3437975,41.5559896 C25.149354,41.6821776 24.889396,41.6267473 24.7629868,41.4323211 C24.6367875,41.2376849 24.6920128,40.9777501 24.8866663,40.851352 C27.2771034,39.3001416 30.1765374,38.8140761 33.0514035,39.4832298 C35.5858884,40.0730173 37.876794,41.5490608 38.8878582,43.2436762 C40.6397396,46.1802259 42.1272534,52.1935808 42.0711881,56.1123398 C42.0621589,56.7451698 42.0854669,57.4002559 42.108355,58.0337158 C42.1847885,60.1705145 42.2570224,62.1886837 41.1334077,63.3602801 C40.5372683,63.9819821 39.6857905,64.2876889 38.5298386,64.2948277 C38.4954015,64.2952476 38.4611744,64.2952476 38.4267374,64.2952476 C35.6782806,64.2952476 33.6236049,63.6044677 32.3191956,62.2418045 C30.8247524,60.6805158 30.899926,58.8231786 30.9037057,58.7446523 C30.9154647,58.5132725 31.1113781,58.3314441 31.3442483,58.3465615 Z M40.3431398,55.1895081 C40.5743301,55.2111344 40.7437858,55.4160588 40.7221576,55.6468087 C40.5417829,57.5662951 39.8181843,58.9984562 38.5713101,59.902979 C37.3754616,60.7709681 35.9425432,60.9740028 34.8638647,60.9740028 C33.9598914,60.9740028 33.304747,60.8312276 33.2472119,60.8184199 C33.0208511,60.7671888 32.8786931,60.5425278 32.9297188,60.3163971 C32.9805345,60.0902664 33.2054254,59.9477012 33.4311563,59.9989323 C33.4584539,60.0048113 36.1949417,60.593339 38.0820516,59.2203876 C39.1225133,58.4636791 39.7293618,57.2347627 39.8857986,55.5682823 C39.9076367,55.3373224 40.1115294,55.1676719 40.3431398,55.1895081 Z M60.6072393,61.784084 C60.8354899,61.8254468 60.9868871,62.0440189 60.9453106,62.2722492 C60.5427748,64.4903037 58.1552773,67.6191799 56.2333104,69.6245414 C53.3288369,72.6545248 47.0913162,74.2170733 42.3698668,74.9941482 C37.9629707,75.7195721 33.775926,75.9555711 31.5444453,75.9555711 C31.0287291,75.9555711 30.617794,75.9431833 30.3324282,75.9209271 C28.5188121,75.7808815 26.2344159,74.3006387 24.6375014,73.0836902 C22.5038725,71.4577328 20.7423319,69.6772423 19.8053914,68.5528877 C17.7103992,66.0392045 17.1720049,64.8062988 18.1108352,62.4591167 C19.1013212,59.983017 20.3981711,56.1688199 21.6687733,51.9945354 C23.1619566,47.088528 25.4513924,45.6196233 29.1533782,44.6250262 C30.759112,44.194391 32.3064707,44.7795593 33.6293584,46.3183819 C34.5883471,47.433708 35.0899945,48.6527562 35.1107827,48.7041972 C35.1981353,48.9189899 35.0948241,49.1635974 34.8802223,49.2511522 C34.6652005,49.338707 34.4205713,49.235195 34.3330087,49.0208222 C34.3149503,48.9765199 32.4866354,44.5989907 29.3713397,45.4361152 C25.8837457,46.3729724 23.8593075,47.6823048 22.4723751,52.2393529 C21.1952635,56.4350537 19.8895943,60.2738165 18.8907091,62.7711225 C18.1324634,64.6664631 18.3949411,65.5487298 20.4508767,68.0153811 C22.4648158,70.4320611 27.5108976,74.8606114 30.3971027,75.0835927 C31.8827266,75.1988626 36.8786227,75.047269 42.2335883,74.1656322 C46.8288384,73.4091337 52.8826247,71.9066348 55.6266719,69.0433624 C57.6137333,66.9703927 59.7731901,64.0264943 60.1190307,62.1221253 C60.1603972,61.8941049 60.3779387,61.7416714 60.6072393,61.784084 Z M59.0659911,59.534766 C59.2978114,59.534766 59.4842756,59.6918187 59.4821933,59.9240383 C59.4599176,62.5086891 57.8090377,64.8598605 56.2633589,66.8771899 C53.7834693,70.1133575 42.7140486,73.5072076 36.4620391,74.2215035 C35.3503934,74.3485314 34.4071534,74.4008124 33.5884329,74.4008124 C30.3324492,74.4008124 29.0376991,73.4379197 26.8862216,71.8384177 C26.5916166,71.6192157 26.2797931,71.387416 25.9431916,71.1438584 C22.4070917,68.5839833 20.0292534,66.3388434 19.9185928,63.7035914 C19.8486688,62.0400505 20.6715889,60.02923 21.4674214,58.084758 C21.9279123,56.9595635 22.3629954,55.8967282 22.6088846,54.9506326 C22.6613801,54.7490677 22.7124058,54.5487625 22.7628015,54.350137 C23.3761595,51.9380762 23.9552903,49.6597622 26.5813275,47.5070063 C29.556985,45.0680702 32.2993523,47.4960882 32.32686,47.5208639 C32.4986254,47.6766568 32.5116443,47.9422607 32.3556275,48.1140108 C32.2000307,48.285341 31.9350332,48.2985687 31.7634778,48.1438256 C31.6731854,48.0627797 29.521708,46.1825565 27.1138423,48.1566334 C24.701357,50.1342797 24.1803912,52.1837335 23.5769024,54.5569511 C23.5260867,54.7572563 23.4746411,54.9588212 23.4217256,55.1620659 C23.1617676,56.162542 22.7163954,57.2507829 22.2447755,58.4028527 C21.4831701,60.2639692 20.6955269,62.1882848 20.7576816,63.6683176 C20.8542734,65.9663682 23.0975131,68.0466866 26.4358098,70.4635766 C26.775351,70.7094439 27.0899043,70.9433432 27.3874491,71.1644348 C29.981149,73.0925297 31.1656585,73.9731167 36.3662872,73.3785 C42.3346108,72.6965385 53.2811919,69.3707165 55.5966654,66.3489217 C57.4117514,63.9803233 58.6241886,62.0083461 58.642247,59.9164796 C58.6443468,59.6857297 58.8320709,59.534766 59.0622114,59.534766 L59.0659911,59.534766 Z M35.8566184,71.43934 C41.801214,70.4493621 51.7155228,67.7135375 54.6645125,64.2333924 C55.4647546,63.2893964 57.3380057,61.0784807 57.1731697,58.1026678 C57.1603608,57.8712881 57.3375857,57.6732925 57.5691961,57.6602747 C57.7987066,57.6487267 57.9988196,57.8248861 58.0118385,58.0564759 C58.195153,61.3661307 56.1700848,63.7557254 55.3055881,64.776358 C51.9685513,68.7142236 41.2147338,71.3986071 35.9943668,72.2676461 C34.9383664,72.4435955 34.0087752,72.5303104 33.1686365,72.5303104 C30.1952888,72.5303104 28.3415661,71.4447991 25.9441995,69.3903061 C23.0344764,66.8963596 21.7103288,64.9080051 21.6506939,62.9427467 C21.6204564,61.9450001 22.0471402,60.8565492 22.6378201,59.3498511 C23.157316,58.0245614 23.8040611,56.3750881 24.394531,54.1610229 C25.7554256,49.0576498 28.2038178,48.9148746 28.2279658,48.9148746 C28.4599961,48.9148746 28.6479301,49.1030019 28.6479301,49.3348016 C28.6479301,49.5531637 28.4812043,49.7326825 28.2680724,49.752839 C28.1916388,49.7652268 26.3421158,50.1173356 25.2061122,54.3772853 C24.6032533,56.6375425 23.947059,58.3113716 23.4197937,59.6563978 C22.8656508,61.0698722 22.4652147,62.0915546 22.4902026,62.9173411 C22.5412283,64.6029281 23.8126704,66.4571159 26.4909931,68.7526469 C29.4164649,71.2600312 31.3640497,72.18744 35.8566184,71.43934 Z M54.3463265,61.8747253 C54.4280096,61.7099039 54.5124224,61.5392036 54.623713,61.3514962 C55.3683098,60.0940248 55.6828631,56.6554524 55.224892,54.7813181 C55.1696667,54.5560272 55.307625,54.3288467 55.5329359,54.2736263 C55.7574068,54.2184059 55.9856574,54.3567719 56.0404628,54.5818527 C56.557019,56.6940856 56.2067687,60.3264544 55.3464717,61.7791919 C55.2513497,61.9402339 55.1736563,62.0964467 55.0991127,62.2472005 C54.5367804,63.3826832 54.092878,64.2792274 47.7455366,66.9392551 C43.2932844,68.8052008 37.8623053,70.1254514 33.8033497,70.1254514 C31.8343468,70.1254514 30.1882964,69.8147054 29.132926,69.1050287 C28.0074215,68.3479003 26.4153366,67.1380905 25.2228478,65.6756947 C24.0589165,64.2479428 23.5652484,62.9306318 23.7557022,61.7602952 C24.1280007,59.4740025 25.6650702,56.0759531 25.7303747,55.932548 C25.8263365,55.7213247 26.0753754,55.6281009 26.2864075,55.7240542 C26.4974396,55.8200076 26.5908817,56.0688143 26.4949198,56.2800376 C26.4795911,56.3142617 24.9389518,59.7200797 24.5849219,61.8953017 C24.2451707,63.9806593 26.9537309,66.6270394 29.6018162,68.4081598 C32.2400323,70.1829814 40.233634,69.1768362 47.4209042,66.1646997 C53.4793101,63.625821 53.881006,62.814312 54.3463265,61.8747253 Z M26.3607622,58.9809662 C26.5898528,59.0170799 26.7462895,59.2320826 26.7101726,59.4611527 C26.4741526,60.9575627 26.7490193,63.1728877 28.2279238,64.903197 C29.7582739,66.6937658 32.243413,67.6018579 35.614257,67.6018579 C35.8460773,67.6018579 36.0342214,67.7897753 36.0342214,68.021785 C36.0342214,68.2535847 35.8460773,68.441712 35.614257,68.441712 C31.9866048,68.441712 29.2866539,67.434727 27.5893679,65.4488921 C25.9250492,63.5014806 25.6153255,61.0115233 25.8805329,59.3303455 C25.9166499,59.1012753 26.1318816,58.9450624 26.3607622,58.9809662 Z M45.2141384,66.0795175 C45.1167067,66.0795175 45.018855,66.0459234 44.9394817,65.9772653 C44.7641466,65.8254617 44.7450382,65.5600678 44.8966454,65.3847483 C49.3268495,60.265208 45.1937702,46.4292426 45.1515637,46.2900368 C45.0843694,46.0681054 45.2097288,45.8335761 45.43147,45.7661779 C45.6530012,45.6979397 45.8879713,45.8239178 45.9553755,46.0458492 C46.1334404,46.6322773 50.2621101,60.4678228 45.5320515,65.9344327 C45.4488985,66.0303861 45.3319384,66.0795175 45.2141384,66.0795175 Z M47.3652379,65.414773 C47.2535274,65.414773 47.1420268,65.3704707 47.0592939,65.282496 C46.9003374,65.1134754 46.9085267,64.8478716 47.0775623,64.6889292 C48.3206568,63.5196424 48.8279738,60.6372633 48.5444978,56.3535878 C48.3256964,53.0487622 47.7035192,50.0811379 47.6972197,50.051743 C47.6493438,49.8247725 47.7944415,49.6017912 48.0212222,49.5539196 C48.2488429,49.505418 48.4712141,49.6509227 48.51909,49.8776833 C48.6242911,50.3752968 51.0573546,62.0983994 47.6529135,65.3007629 C47.5718604,65.3769796 47.4685491,65.414773 47.3652379,65.414773 Z M39.8942608,60.144164 C39.9450765,59.9178234 40.1705974,59.775888 40.3961183,59.8264893 C40.6224791,59.8773004 40.764637,60.1021713 40.7136113,60.328302 C40.5418459,61.0925692 40.1334305,61.668919 39.4999143,62.0418142 C38.8817268,62.405681 38.1346102,62.5165417 37.4538479,62.5165417 C36.4297648,62.5165417 35.555819,62.2658453 35.4959741,62.2482084 C35.2736029,62.1831197 35.1463537,61.9502702 35.2112382,61.7277088 C35.2761227,61.5053575 35.5077331,61.3779096 35.732204,61.4423684 C35.7527823,61.4484574 37.8425249,62.0445438 39.0755403,61.3172302 C39.5057938,61.0631743 39.7739411,60.679571 39.8942608,60.144164 Z M49.273325,64.7414201 C49.0694323,64.6313992 48.9934188,64.3767135 49.1032394,64.1728389 C49.1296972,64.1239174 51.7160477,59.1931343 49.5647803,52.7396959 C49.4912865,52.5198641 49.6101364,52.2819754 49.8301977,52.2086982 C50.051099,52.135001 50.2883789,52.2542603 50.3616627,52.474302 C52.63262,59.287198 49.957447,64.3594964 49.8423767,64.5717696 C49.7665731,64.7122351 49.6218954,64.7920213 49.4725981,64.7920213 C49.4051938,64.7920213 49.3367396,64.7758541 49.273325,64.7414201 Z M8.19463665,68.5648556 C8.426247,68.5747239 8.60599174,68.7704099 8.59633256,69.0022096 C8.59507267,69.0324443 8.48462204,72.043321 9.85895543,73.2928139 C10.0307209,73.4486068 10.0433198,73.7142106 9.88730302,73.8859608 C9.80457004,73.976875 9.6907597,74.0232769 9.57652939,74.0232769 C9.47573794,74.0232769 9.37452653,73.9871632 9.29410336,73.9140959 C7.62768476,72.3996291 7.75115428,69.1053017 7.75724376,68.9658859 C7.76732291,68.7342961 7.96281632,68.5503681 8.19463665,68.5648556 Z M6.77120943,72.0419563 C6.77708893,72.0675718 6.87389072,72.4467659 7.46268076,72.9284222 C7.64200554,73.0751867 7.66867328,73.3397407 7.52168575,73.5192595 C7.43874279,73.6208819 7.31800303,73.6733727 7.19642335,73.6733727 C7.10298128,73.6733727 7.00890926,73.6420882 6.93079589,73.5782593 C6.05810994,72.8643833 5.9501791,72.2361725 5.94051992,72.1668846 C5.90944255,71.9371845 6.07028891,71.7253313 6.30000941,71.6942567 C6.5276301,71.663812 6.73446255,71.8183451 6.77120943,72.0419563 Z M53.9091226,60.2899417 C53.6859116,60.2269527 53.5555126,59.9951529 53.6182973,59.7719617 C54.2121269,57.6609886 53.6178774,54.7975063 53.6119979,54.7687413 C53.563702,54.5419807 53.7087996,54.3189994 53.9355804,54.2709178 C54.1615212,54.2224162 54.3853622,54.367501 54.4334482,54.5944715 C54.4601159,54.7196098 55.0774635,57.6866042 54.4271487,59.9991422 C54.3748631,60.18454 54.2064574,60.305689 54.022933,60.305689 C53.9853462,60.305689 53.9471294,60.3006498 53.9091226,60.2899417 Z" id="Combined-Shape" fill="#ED1C24" style="mix-blend-mode: multiply;" opacity="0.673897879"></path>
                        </g>
                    </g>
                </g>
            </g>
        </g>
    </g>
</svg>