<svg xmlns="http://www.w3.org/2000/svg" width="64" height="44" viewBox="0 0 64 44">
  <g fill="none" fill-rule="evenodd">
    <rect width="64" height="44" fill="#E31D19" rx="2"/>
    <path fill="#FFF" fill-rule="nonzero" d="M18.7,17.99 L19.16,25 L18,25 L17.84,22.24 C17.79,21.42 17.76,20.59 17.75,19.75 C17.44,20.78 17.06,21.85 16.71,22.78 L15.89,25 L14.96,25 L14.13,22.73 C13.75,21.73 13.41,20.74 13.13,19.82 C13.12,20.64 13.07,21.57 13.02,22.4 L12.87,25 L11.73,25 L12.19,18.15 C12.59,18.04 13.21,17.99 13.63,17.99 L15.46,23.39 L17.22,18.15 C17.65,18.02 18.26,17.99 18.7,17.99 Z M24.47,25 L24.03,23.46 L21.52,23.46 L21.06,25 L19.89,25 L22.03,18.18 C22.39,18.08 23.02,18.03 23.53,18.03 L25.72,25 L24.47,25 Z M21.82,22.44 L23.74,22.44 L22.8,19.16 L21.82,22.44 Z M31.56,25 L30.2,25 L28.68,22.44 L27.15,25 L25.8,25 L28.08,21.45 L25.98,18.08 L27.34,18.08 L28.72,20.39 L30.07,18.08 L31.41,18.08 L29.33,21.39 L31.56,25 Z M35.24,25.17 C33.13,25.17 31.99,23.67 31.99,21.53 C31.99,19.36 33.18,17.91 35.27,17.91 C35.93,17.91 36.47,18.03 36.84,18.22 C36.82,18.66 36.77,18.98 36.67,19.25 C36.33,19.07 35.84,18.96 35.35,18.96 C34.01,18.96 33.23,19.85 33.23,21.54 C33.23,23.22 34.09,24.11 35.34,24.11 C35.92,24.11 36.43,23.99 36.81,23.79 C36.78,24.15 36.73,24.52 36.63,24.95 C36.19,25.09 35.74,25.17 35.24,25.17 Z M40.68,25.17 C38.63,25.17 37.56,23.72 37.56,21.54 C37.56,19.32 38.7,17.91 40.65,17.91 C42.71,17.91 43.77,19.38 43.77,21.54 C43.77,23.81 42.63,25.17 40.68,25.17 Z M40.68,24.11 C41.9,24.11 42.53,23.25 42.53,21.54 C42.53,19.88 41.88,18.96 40.65,18.96 C39.44,18.96 38.8,19.87 38.8,21.54 C38.8,23.2 39.46,24.11 40.68,24.11 Z M51.81,17.99 L52.27,25 L51.11,25 L50.95,22.24 C50.9,21.42 50.87,20.59 50.86,19.75 C50.55,20.78 50.17,21.85 49.82,22.78 L49,25 L48.07,25 L47.24,22.73 C46.86,21.73 46.52,20.74 46.24,19.82 C46.23,20.64 46.18,21.57 46.13,22.4 L45.98,25 L44.84,25 L45.3,18.15 C45.7,18.04 46.32,17.99 46.74,17.99 L48.57,23.39 L50.33,18.15 C50.76,18.02 51.37,17.99 51.81,17.99 Z"/>
  </g>
</svg>
