<svg xmlns="http://www.w3.org/2000/svg" width="266" height="168" viewBox="0 0 266 168">
  <g fill="none" fill-rule="evenodd">
    <rect width="266" height="168" fill="#221F20" rx="10"/>
    <g transform="translate(157 15)">
      <g opacity=".3" transform="translate(0 13.77)">
        <path stroke="#888686" d="M-4.26325641e-14 6.15384615C2.45454545 16 6.95454545 18.8717949 13.5 14.7692308 20.0454545 10.6666667 21.6818182 5.94871795 18.4090909.615384615M22.7045455 8.61538462C22.2954545 14.7692308 24.75 15.7948718 30.0681818 11.6923077 38.0454545 5.53846154 27 19.0769231 37.4318182 14.7692308M41.7272727 1.84615385C40.5 14.974359 42.9545455 18.0512821 49.0909091 11.0769231M52.7727273 14.7692308C48.6818182 15.5897436 47.4545455 14.3589744 49.0909091 11.0769231"/>
        <ellipse cx="50.932" cy="5.538" fill="#D8D8D8" rx="1" ry="1"/>
        <ellipse cx="74.25" cy="5.538" fill="#D8D8D8" rx="1" ry="1"/>
        <path stroke="#888686" d="M57.6818182 10.4615385C58.0909091 15.3846154 59.5227273 16 61.9772727 12.3076923M61.9772727 12.3076923C61.9772727 16.4102564 63.6136364 16.6153846 66.8863636 12.9230769 71.7954545 7.38461538 63.2045455 21.5384615 72.4090909 12.3076923 81.6136364 3.07692308 63.8181818 20.3076923 76.7045455 15.3846154M85.2954545 3.07692308C82.4318182 12.5128205 83.25 16.2051282 87.75 14.1538462"/>
        <path stroke="#888686" d="M87.75,14.1538462 C90.6136364,13.3333333 92.0454545,12.1025641 92.0454545,10.4615385 C92.0454545,8 82.8409091,14.9762503 92.6590909,15.6322424"/>
        <path stroke="#979797" d="M82.2272727,5.53846154 L99.4090909,5.53846154"/>
        <path stroke="#888686"/>
        <path stroke="#888686" d="M101.863636,10.4615385 C96.9545455,10.8717949 95.7272727,12.3076923 98.1818182,14.7692308 C101.863636,18.4615385 106.159091,8.61538462 105.545455,6.76923077 C104.931818,4.92307692 98.7954545,7.84075618 108,16.2882345"/>
      </g>
      <path fill="#000" d="M35.8692627,0.385817308 L41.4591064,0.385817308 C42.3907517,0.385817308 43.1059545,0.617185186 43.6047363,1.07992788 C44.1035181,1.54267058 44.3529053,2.11558152 44.3529053,2.79867788 C44.3529053,3.37159742 44.1749285,3.86297872 43.8189697,4.27283654 C43.5816639,4.54607508 43.2344994,4.76201844 42.7774658,4.92067308 C43.4718052,5.08814186 43.9826644,5.37569908 44.3100586,5.78335337 C44.6374528,6.19100765 44.8011475,6.70332224 44.8011475,7.3203125 C44.8011475,7.82271886 44.6846935,8.2744371 44.4517822,8.67548077 C44.2188709,9.07652444 43.9002706,9.39382896 43.4959717,9.62740385 C43.2454821,9.77283727 42.8675562,9.87860544 42.3621826,9.94471154 C41.689816,10.032853 41.2437755,10.0769231 41.0240479,10.0769231 L35.8692627,10.0769231 L35.8692627,0.385817308 Z M38.8817139,4.18689904 L40.1802979,4.18689904 C40.6461205,4.18689904 40.9702139,4.10647116 41.1525879,3.94561298 C41.3349618,3.7847548 41.4261475,3.55228517 41.4261475,3.24819712 C41.4261475,2.96614442 41.3349618,2.74579406 41.1525879,2.58713942 C40.9702139,2.42848478 40.6527122,2.34915865 40.2000732,2.34915865 L38.8817139,2.34915865 L38.8817139,4.18689904 Z M38.8817139,7.99459135 L40.4044189,7.99459135 C40.9185817,7.99459135 41.2811269,7.90314595 41.4920654,7.7202524 C41.703004,7.53735886 41.8084717,7.29166821 41.8084717,6.98317308 C41.8084717,6.69671331 41.7041026,6.46644718 41.4953613,6.29236779 C41.2866201,6.11828839 40.920779,6.03125 40.3978271,6.03125 L38.8817139,6.03125 L38.8817139,7.99459135 Z M46.3634033,0.385817308 L49.3494873,0.385817308 L49.3494873,7.69050481 L54.0098877,7.69050481 L54.0098877,10.0769231 L46.3634033,10.0769231 L46.3634033,0.385817308 Z M61.3135986,8.47716346 L57.9122314,8.47716346 L57.4442139,10.0769231 L54.3922119,10.0769231 L58.024292,0.385817308 L61.2806396,0.385817308 L64.9127197,10.0769231 L61.788208,10.0769231 L61.3135986,8.47716346 Z M60.6873779,6.38161058 L59.6195068,2.89783654 L58.5582275,6.38161058 L60.6873779,6.38161058 Z M72.302124,6.1171875 L74.9190674,6.91045673 C74.7432853,7.64643797 74.4664326,8.26121548 74.088501,8.75480769 C73.7105694,9.2483999 73.2414579,9.62079201 72.6811523,9.87199519 C72.1208468,10.1231984 71.4078412,10.2487981 70.5421143,10.2487981 C69.491816,10.2487981 68.6337924,10.0956546 67.9680176,9.78936298 C67.3022428,9.48307139 66.7276635,8.94431475 66.2442627,8.17307692 C65.7608618,7.40183909 65.519165,6.41466948 65.519165,5.21153846 C65.519165,3.60736377 65.9443317,2.37450351 66.7946777,1.51292067 C67.6450238,0.65133784 68.8480147,0.220552885 70.4036865,0.220552885 C71.6209778,0.220552885 72.5778774,0.467345288 73.2744141,0.9609375 C73.9709507,1.45452971 74.4884016,2.21253495 74.8267822,3.23497596 L72.1900635,3.82331731 C72.0977779,3.5280434 72.0010991,3.31210004 71.9000244,3.17548077 C71.7330314,2.94631296 71.5286877,2.77003267 71.2869873,2.64663462 C71.0452869,2.52323656 70.7750259,2.46153846 70.4761963,2.46153846 C69.7994351,2.46153846 69.2808856,2.73477291 68.9205322,3.28125 C68.6480699,3.68670075 68.5118408,4.32351329 68.5118408,5.19170673 C68.5118408,6.26703262 68.6744369,7.00410458 68.9996338,7.40294471 C69.3248307,7.80178485 69.7818574,8.00120192 70.3707275,8.00120192 C70.9420195,8.00120192 71.3737778,7.84034616 71.6660156,7.51862981 C71.9582534,7.19691346 72.1702874,6.72977069 72.302124,6.1171875 Z M76.3824463,0.385817308 L79.3685303,0.385817308 L79.3685303,4.04807692 L82.4996338,0.385817308 L86.4678955,0.385817308 L82.947876,4.04146635 L86.6260986,10.0769231 L82.947876,10.0769231 L80.9110107,6.09074519 L79.3685303,7.71033654 L79.3685303,10.0769231 L76.3824463,10.0769231 L76.3824463,0.385817308 Z"/>
    </g>
    <path fill="#C2C6CB" d="M29.1840597,25.3286443 C29.1588175,24.7520768 28.9957053,24.1801004 28.6939308,23.6631044 L26.0322935,19.1025216 C25.8293372,18.7548342 25.6890901,18.3820641 25.611326,18 L25.5000566,18.1904722 C24.8412691,19.3193083 24.8412691,20.7099456 25.4999434,21.8387817 L27.6293438,25.4872032 C28.2880181,26.6160392 28.2880181,28.0067886 27.6293438,29.1355127 L27.5180744,29.3260968 C27.4401971,28.9439207 27.2999501,28.5712626 27.0969937,28.2235753 L25.1476845,24.8834254 L23.9030063,22.7508311 C23.7000499,22.4031437 23.5599161,22.0303737 23.4819256,21.6483095 L23.3707694,21.8388937 C22.7142458,22.9638106 22.7122083,24.3489611 23.3643173,25.4756696 L23.364091,25.4757816 L25.5000566,29.1355127 C26.1588441,30.2643488 26.1588441,31.6550981 25.5000566,32.7839342 L25.3887872,32.9745183 C25.3109099,32.5923422 25.1706628,32.2196841 24.9677065,31.8718848 L22.3061824,27.3114139 C21.9491694,26.6996858 21.7860572,26.0111417 21.8159403,25.3290922 C18.9666278,26.0654503 17,27.6290915 17,29.4395291 C17,31.9582187 20.8055731,34 25.5000566,34 C30.1944269,34 34,31.9582187 34,29.4395291 C34,27.6290915 32.0335986,26.0650024 29.1840597,25.3286443"/>
    <g transform="translate(222 136)">
      <rect width="8.644" height="15.629" x="11.662" y="2.126" fill="#FF5F00"/>
      <path fill="#EB001B" d="M12.2110649,9.94074132 C12.2110649,6.76522591 13.692857,3.94868187 15.9704264,2.12621219 C14.29655,0.800779686 12.1836243,-2.44952799e-06 9.87861431,-2.44952799e-06 C4.41793596,-2.44952799e-06 2.15727175e-07,4.44571906 2.15727175e-07,9.94074132 C2.15727175e-07,15.4357635 4.41793596,19.881485 9.87861431,19.881485 C12.1836243,19.881485 14.29655,19.0807029 15.9704264,17.7552704 C13.692857,15.9604138 12.2110649,13.1162567 12.2110649,9.94074132 Z"/>
      <path fill="#F79E1B" d="M31.9682931,9.94074132 C31.9682931,15.4357635 27.5503574,19.881485 22.089679,19.881485 C19.784669,19.881485 17.6717431,19.0807029 15.997867,17.7552704 C18.3028769,15.9328008 19.7572284,13.1162567 19.7572284,9.94074132 C19.7572284,6.76522591 18.2754363,3.94868187 15.997867,2.12621219 C17.6717431,0.800779686 19.784669,-2.44952799e-06 22.089679,-2.44952799e-06 C27.5503574,-2.44952799e-06 31.9682931,4.47333224 31.9682931,9.94074132 Z"/>
    </g>
  </g>
</svg>
