<svg xmlns="http://www.w3.org/2000/svg" xmlns:xlink="http://www.w3.org/1999/xlink" width="266" height="168" viewBox="0 0 266 168">
  <defs>
    <rect id="big---1.-front-a" width="266" height="168" rx="10"/>
    <linearGradient id="big---1.-front-c" x1="50%" x2="50%" y1="100%" y2="0%">
      <stop offset="0%" stop-color="#424240"/>
      <stop offset="100%" stop-color="#424240"/>
    </linearGradient>
    <linearGradient id="big---1.-front-f" x1="45.377%" x2="27.08%" y1="19.765%" y2="92.496%">
      <stop offset="0%" stop-color="#FFF"/>
      <stop offset="29.221%" stop-color="#6A6A68"/>
      <stop offset="100%" stop-color="#3A3A38"/>
    </linearGradient>
    <path id="big---1.-front-e" d="M215.810619,54.9175532 L201.217504,30.0681538 C200.144582,28.1885871 199.285868,26.1005872 198.856825,24.011976 L198.212947,25.0565872 C194.564511,31.1121537 194.564511,38.8382424 198.212947,44.8944201 L210.01634,64.7316417 C213.664776,70.7878194 213.664776,78.5139081 210.01634,84.5694746 L209.372462,85.6140858 C208.943419,83.5254746 208.084704,81.4374747 207.011783,79.5579081 L196.281939,61.3905974 L189.41411,49.6969421 C188.341189,47.8173755 187.483103,45.7293756 187.053431,43.6413757 L186.409553,44.6853756 C182.761117,50.7409421 182.761117,58.2585975 186.409553,64.5232085 L198.212947,84.3610413 C201.861382,90.4166078 201.861382,98.1426965 198.212947,104.198874 L197.569696,105.242874 C197.140025,103.154874 196.281939,101.066874 195.209017,99.1873077 L180.400438,74.3379083 C178.469431,70.9962527 177.610716,67.2377306 177.610716,63.4785973 C161.945308,67.4467751 151,76.0078192 151,85.822519 C151,99.6047854 172.031273,110.671918 197.998111,110.671918 C223.965577,110.671918 244.99685,99.6047854 244.99685,85.822519 C245.211057,76.4259082 234.481214,67.8642528 218.600341,63.8966863 C218.385505,60.7640752 217.527419,57.6320753 215.810619,54.9175532 Z"/>
    <filter id="big---1.-front-d" width="130.9%" height="133.5%" x="-13.3%" y="-17.9%" filterUnits="objectBoundingBox">
      <feOffset dx="2" dy="-1" in="SourceAlpha" result="shadowOffsetOuter1"/>
      <feGaussianBlur in="shadowOffsetOuter1" result="shadowBlurOuter1" stdDeviation="4.5"/>
      <feColorMatrix in="shadowBlurOuter1" values="0 0 0 0 0   0 0 0 0 0   0 0 0 0 0  0 0 0 0.93159965 0"/>
    </filter>
  </defs>
  <g fill="none" fill-rule="evenodd">
    <mask id="big---1.-front-b" fill="#fff">
      <use xlink:href="#big---1.-front-a"/>
    </mask>
    <g mask="url(#big---1.-front-b)">
      <rect width="266" height="168" fill="#000"/>
      <path fill="#FFF" d="M27.9781642,19.3286443 C27.9533485,18.7520768 27.7929928,18.1801004 27.4963179,17.6631044 L24.879659,13.1025216 C24.6801323,12.7548342 24.5422553,12.3820641 24.4658053,12 L24.3564162,12.1904722 C23.7087614,13.3193083 23.7087614,14.7099456 24.3563049,15.8387817 L26.4497211,19.4872032 C27.0972646,20.6160392 27.0972646,22.0067886 26.4497211,23.1355127 L26.340332,23.3260968 C26.2637707,22.9439207 26.1258937,22.5712626 25.926367,22.2235753 L24.0099988,18.8834254 L22.7863541,16.7508311 C22.5868274,16.4031437 22.4490617,16.0303737 22.3723891,15.6483095 L22.2631113,15.8388937 C21.6176821,16.9638106 21.615679,18.3489611 22.2567683,19.4756696 L22.2565457,19.4757816 L24.3564162,23.1355127 C25.004071,24.2643488 25.004071,25.6550981 24.3564162,26.7839342 L24.2470271,26.9745183 C24.1704658,26.5923422 24.0325888,26.2196841 23.8330621,25.8718848 L21.2165145,21.3114139 C20.8655345,20.6996858 20.7051788,20.0111417 20.7345569,19.3290922 C17.9333943,20.0654503 16,21.6290915 16,23.4395291 C16,25.9582187 19.7412637,28 24.3564162,28 C28.9714574,28 32.7127211,25.9582187 32.7127211,23.4395291 C32.7127211,21.6290915 30.7795494,20.0650024 27.9781642,19.3286443"/>
      <path fill="url(#big---1.-front-c)" d="M199,0 L266,0 L266,168 L199,168 L198.576221,102.953515 C213.525407,89.1069007 221,78.2669271 221,70.4335938 C221,62.6002604 213.666667,48.8776042 199,29.265625 L199,0 Z"/>
      <g transform="translate(221 137)">
        <rect width="8.241" height="14.906" x="11.119" y="2.028" fill="#8C8D90"/>
        <path fill="#6D6E71" d="M11.6420905,9.48105386 C11.6420905,6.4523831 13.0548386,3.76608387 15.2262846,2.02789024 C13.6304025,0.763749411 11.6159285,-2.33625502e-06 9.41832046,-2.33625502e-06 C4.21208232,-2.33625502e-06 2.05751352e-07,4.24013667 2.05751352e-07,9.48105386 C2.05751352e-07,14.721971 4.21208232,18.96211 9.41832046,18.96211 C11.6159285,18.96211 13.6304025,18.1983583 15.2262846,16.9342175 C13.0548386,15.22236 11.6420905,12.5097246 11.6420905,9.48105386 Z"/>
        <path fill="#B6B6BA" d="M30.4787311,9.48105386 C30.4787311,14.721971 26.266649,18.96211 21.0604108,18.96211 C18.8628027,18.96211 16.8483286,18.1983583 15.2524467,16.9342175 C17.4500547,15.1960238 18.8366407,12.5097246 18.8366407,9.48105386 C18.8366407,6.4523831 17.4238926,3.76608387 15.2524467,2.02789024 C16.8483286,0.763749411 18.8628027,-2.33625502e-06 21.0604108,-2.33625502e-06 C26.266649,-2.33625502e-06 30.4787311,4.26647294 30.4787311,9.48105386 Z"/>
      </g>
      <use fill="#000" filter="url(#big---1.-front-d)" xlink:href="#big---1.-front-e"/>
      <use fill="url(#big---1.-front-f)" xlink:href="#big---1.-front-e"/>
      <path fill="#D2D3D3" fill-rule="nonzero" d="M72,16.144 L73.728,16.144 C74.0320015,16.144 74.3093321,16.1746664 74.56,16.236 C74.8106679,16.2973336 75.0239991,16.3919994 75.2,16.52 C75.3760009,16.6480006 75.5119995,16.8106657 75.608,17.008 C75.7040005,17.2053343 75.752,17.4426653 75.752,17.72 C75.752,18.0026681 75.7000005,18.2453323 75.596,18.448 C75.4919995,18.6506677 75.3480009,18.8159994 75.164,18.944 C74.9799991,19.0720006 74.7613346,19.1666664 74.508,19.228 C74.2546654,19.2893336 73.9813348,19.32 73.688,19.32 L72.792,19.32 L72.792,21.808 L72,21.808 L72,16.144 Z M72.792,18.648 L73.632,18.648 C73.824001,18.648 74.0013325,18.6306668 74.164,18.596 C74.3266675,18.5613332 74.4666661,18.5080004 74.584,18.436 C74.7013339,18.3639996 74.792,18.2693339 74.856,18.152 C74.9200003,18.0346661 74.952,17.8906675 74.952,17.72 C74.952,17.5493325 74.918667,17.4066672 74.852,17.292 C74.785333,17.1773328 74.6946672,17.0840004 74.58,17.012 C74.4653328,16.9399996 74.3280008,16.8893335 74.168,16.86 C74.0079992,16.8306665 73.8346676,16.816 73.648,16.816 L72.792,16.816 L72.792,18.648 Z M81.052,21.808 L80.26,21.808 L80.26,16.144 L82.076,16.144 C82.3480014,16.144 82.6066654,16.1719997 82.852,16.228 C83.0973346,16.2840003 83.3119991,16.3733327 83.496,16.496 C83.6800009,16.6186673 83.8253328,16.779999 83.932,16.98 C84.0386672,17.180001 84.092,17.4239986 84.092,17.712 C84.092,18.1280021 83.9640013,18.4639987 83.708,18.72 C83.4519987,18.9760013 83.1213354,19.1386663 82.716,19.208 L84.3,21.808 L83.34,21.808 L81.9,19.288 L81.052,19.288 L81.052,21.808 Z M81.052,18.624 L81.964,18.624 C82.1506676,18.624 82.3239992,18.6080002 82.484,18.576 C82.6440008,18.5439998 82.7839994,18.4920004 82.904,18.42 C83.0240006,18.3479996 83.1186663,18.2546672 83.188,18.14 C83.2573337,18.0253328 83.292,17.8826675 83.292,17.712 C83.292,17.5413325 83.2573337,17.3986672 83.188,17.284 C83.1186663,17.1693328 83.0266672,17.0773337 82.912,17.008 C82.7973328,16.9386663 82.6626674,16.8893335 82.508,16.86 C82.3533326,16.8306665 82.1906675,16.816 82.02,16.816 L81.052,16.816 L81.052,18.624 Z M89.464,21.808 L88.672,21.808 L88.672,16.144 L89.464,16.144 L89.464,21.808 Z M96.22,20.784 L96.244,20.784 L97.948,16.144 L98.804,16.144 L96.58,21.808 L95.844,21.808 L93.636,16.144 L94.516,16.144 L96.22,20.784 Z M102.968,21.808 L102.088,21.808 L104.544,16.144 L105.264,16.144 L107.696,21.808 L106.8,21.808 L106.224,20.416 L103.536,20.416 L102.968,21.808 Z M103.816,19.72 L105.936,19.72 L104.88,17.064 L103.816,19.72 Z M113.428,21.808 L112.636,21.808 L112.636,16.84 L110.82,16.84 L110.82,16.144 L115.244,16.144 L115.244,16.84 L113.428,16.84 L113.428,21.808 Z M120.288,21.104 L123.248,21.104 L123.248,21.808 L119.496,21.808 L119.496,16.144 L123.128,16.144 L123.128,16.84 L120.288,16.84 L120.288,18.536 L122.96,18.536 L122.96,19.216 L120.288,19.216 L120.288,21.104 Z M133.304,16.144 L135.256,16.144 C135.469334,16.144 135.682666,16.1679998 135.896,16.216 C136.109334,16.2640002 136.299999,16.3439994 136.468,16.456 C136.636001,16.5680006 136.771999,16.7146658 136.876,16.896 C136.980001,17.0773342 137.032,17.3039986 137.032,17.576 C137.032,17.8906682 136.941334,18.1546656 136.76,18.368 C136.578666,18.5813344 136.338668,18.7279996 136.04,18.808 L136.04,18.824 C136.221334,18.8453334 136.389333,18.8919996 136.544,18.964 C136.698667,19.0360004 136.831999,19.1306661 136.944,19.248 C137.056001,19.3653339 137.142666,19.5039992 137.204,19.664 C137.265334,19.8240008 137.296,20.0026657 137.296,20.2 C137.296,20.4720014 137.240001,20.7093323 137.128,20.912 C137.015999,21.1146677 136.864001,21.2813327 136.672,21.412 C136.479999,21.5426673 136.254668,21.641333 135.996,21.708 C135.737332,21.774667 135.461335,21.808 135.168,21.808 L133.304,21.808 L133.304,16.144 Z M134.096,18.536 L135.128,18.536 C135.277334,18.536 135.419999,18.5186668 135.556,18.484 C135.692001,18.4493332 135.810666,18.3960004 135.912,18.324 C136.013334,18.2519996 136.093333,18.1613339 136.152,18.052 C136.210667,17.9426661 136.24,17.8106674 136.24,17.656 C136.24,17.3519985 136.128001,17.1346673 135.904,17.004 C135.679999,16.8733327 135.378669,16.808 135,16.808 L134.096,16.808 L134.096,18.536 Z M134.096,21.136 L135.088,21.136 C135.253334,21.136 135.419999,21.1213335 135.588,21.092 C135.756001,21.0626665 135.907999,21.010667 136.044,20.936 C136.180001,20.861333 136.289333,20.761334 136.372,20.636 C136.454667,20.510666 136.496,20.352001 136.496,20.16 C136.496,19.8239983 136.381334,19.5813341 136.152,19.432 C135.922666,19.2826659 135.592002,19.208 135.16,19.208 L134.096,19.208 L134.096,21.136 Z M142.172,21.808 L141.292,21.808 L143.748,16.144 L144.468,16.144 L146.9,21.808 L146.004,21.808 L145.428,20.416 L142.74,20.416 L142.172,21.808 Z M143.02,19.72 L145.14,19.72 L144.084,17.064 L143.02,19.72 Z M155.12,20.672 L155.136,20.672 L155.136,16.144 L155.928,16.144 L155.928,21.808 L154.928,21.808 L151.936,17.184 L151.92,17.184 L151.92,21.808 L151.128,21.808 L151.128,16.144 L152.16,16.144 L155.12,20.672 Z M161.596,18.64 L161.612,18.64 L164.14,16.144 L165.236,16.144 L162.484,18.736 L165.404,21.808 L164.268,21.808 L161.612,18.88 L161.596,18.88 L161.596,21.808 L160.804,21.808 L160.804,16.144 L161.596,16.144 L161.596,18.64 Z M170.368,21.808 L169.576,21.808 L169.576,16.144 L170.368,16.144 L170.368,21.808 Z M179.236,20.672 L179.252,20.672 L179.252,16.144 L180.044,16.144 L180.044,21.808 L179.044,21.808 L176.052,17.184 L176.036,17.184 L176.036,21.808 L175.244,21.808 L175.244,16.144 L176.276,16.144 L179.236,20.672 Z M189.192,17.312 C189.021332,17.1253324 188.804001,16.9760006 188.54,16.864 C188.275999,16.7519994 187.981335,16.696 187.656,16.696 C187.325332,16.696 187.026668,16.7559994 186.76,16.876 C186.493332,16.9960006 186.266668,17.159999 186.08,17.368 C185.893332,17.576001 185.749334,17.817332 185.648,18.092 C185.546666,18.366668 185.496,18.6586651 185.496,18.968 C185.496,19.2826682 185.546666,19.5786653 185.648,19.856 C185.749334,20.1333347 185.893332,20.3746656 186.08,20.58 C186.266668,20.7853344 186.495999,20.9466661 186.768,21.064 C187.040001,21.1813339 187.343998,21.24 187.68,21.24 C187.946668,21.24 188.191999,21.2160002 188.416,21.168 C188.640001,21.1199998 188.834666,21.0506671 189,20.96 L189,19.384 L187.744,19.384 L187.744,18.712 L189.784,18.712 L189.784,21.456 C189.485332,21.6160008 189.160002,21.7386662 188.808,21.824 C188.455998,21.9093338 188.072002,21.952 187.656,21.952 C187.213331,21.952 186.806669,21.8786674 186.436,21.732 C186.065331,21.5853326 185.746668,21.3800013 185.48,21.116 C185.213332,20.8519987 185.005334,20.5373352 184.856,20.172 C184.706666,19.8066648 184.632,19.4053355 184.632,18.968 C184.632,18.5253311 184.707999,18.1213352 184.86,17.756 C185.012001,17.3906648 185.222665,17.078668 185.492,16.82 C185.761335,16.561332 186.079998,16.3600007 186.448,16.216 C186.816002,16.0719993 187.215998,16 187.648,16 C188.101336,16 188.505332,16.066666 188.86,16.2 C189.214668,16.333334 189.509332,16.5119989 189.744,16.736 L189.192,17.312 Z"/>
    </g>
  </g>
</svg>
