<svg xmlns="http://www.w3.org/2000/svg" width="266" height="168" viewBox="0 0 266 168">
  <g fill="none" fill-rule="evenodd">
    <rect width="266" height="168" fill="#221F20" rx="10"/>
    <path fill="#3B3534" d="M0.580477628,0.701486014 L10.7438299,0.701486014 C12.4377304,0.701486014 13.7380992,1.12215488 14.6449751,1.96350524 C15.5518511,2.80485561 16.0052823,3.84651186 16.0052823,5.08850524 C16.0052823,6.13017712 15.6816883,7.02359767 15.0344904,7.76879371 C14.6030252,8.26559106 13.971817,8.65821534 13.1408469,8.94667832 C14.4032822,9.25116702 15.3321171,9.77399833 15.9273793,10.5151879 C16.5226415,11.2563775 16.8202681,12.1878586 16.8202681,13.3096591 C16.8202681,14.2231252 16.6085337,15.0444311 16.1850586,15.7736014 C15.7615835,16.5027717 15.1823101,17.079689 14.4472212,17.5043706 C13.9917857,17.768795 13.3046477,17.9611008 12.3857866,18.0812937 C11.1633018,18.2415509 10.3523191,18.3216783 9.95281428,18.3216783 L0.580477628,18.3216783 L0.580477628,0.701486014 Z M6.05766158,7.61254371 L8.41872337,7.61254371 C9.26567362,7.61254371 9.85493442,7.46631119 10.1865234,7.17384178 C10.5181125,6.88137237 10.6839045,6.45870032 10.6839045,5.90581294 C10.6839045,5.39298986 10.5181125,4.99235284 10.1865234,4.70388986 C9.85493442,4.41542688 9.27765859,4.27119755 8.45467862,4.27119755 L6.05766158,4.27119755 L6.05766158,7.61254371 Z M6.05766158,14.5356206 L8.82621626,14.5356206 C9.76105759,14.5356206 10.4202307,14.3693563 10.8037553,14.0368226 C11.18728,13.7042888 11.3790394,13.2575786 11.3790394,12.6966783 C11.3790394,12.1758424 11.1892775,11.7571767 10.8097479,11.4406687 C10.4302183,11.1241607 9.76505269,10.9659091 8.81423118,10.9659091 L6.05766158,10.9659091 L6.05766158,14.5356206 Z M19.6607333,0.701486014 L25.0899769,0.701486014 L25.0899769,13.982736 L33.5634322,13.982736 L33.5634322,18.3216783 L19.6607333,18.3216783 L19.6607333,0.701486014 Z M46.8429066,15.4130245 L40.6586026,15.4130245 L39.8076616,18.3216783 L34.2585671,18.3216783 L40.8623491,0.701486014 L46.7829812,0.701486014 L53.3867631,18.3216783 L47.7058327,18.3216783 L46.8429066,15.4130245 Z M45.7043235,11.6029283 L43.7627397,5.26879371 L41.833141,11.6029283 L45.7043235,11.6029283 Z M66.8220437,11.1221591 L71.5801225,12.5644668 C71.2605186,13.9026145 70.7571501,15.0203918 70.0700018,15.9178322 C69.3828535,16.8152726 68.5299234,17.4923491 67.5111861,17.9490822 C66.4924487,18.4058152 65.196075,18.6341783 63.6220259,18.6341783 C61.7123928,18.6341783 60.1523498,18.3557356 58.9418501,17.7988418 C57.7313505,17.241948 56.686661,16.2623905 55.8077504,14.8601399 C54.9288397,13.4578893 54.489391,11.6630354 54.489391,9.47552448 C54.489391,6.55884323 55.2624212,4.3172791 56.808505,2.75076486 C58.3545887,1.18425062 60.5418449,0.401005245 63.3703391,0.401005245 C65.5835959,0.401005245 67.3234134,0.849718706 68.5898438,1.74715909 C69.8562741,2.64459948 70.7970939,4.02279082 71.4123313,5.88177448 L66.6182972,6.95148601 C66.4505052,6.41462436 66.2747257,6.02200008 66.0909535,5.7736014 C65.7873298,5.35693265 65.4157959,5.03642303 64.9763406,4.81206294 C64.5368852,4.58770284 64.0455017,4.47552448 63.5021751,4.47552448 C62.2717002,4.47552448 61.3288829,4.97231438 60.673695,5.96590909 C60.178309,6.70309226 59.9306197,7.86093325 59.9306197,9.43946678 C59.9306197,11.3946048 60.2262488,12.7347356 60.817516,13.4598995 C61.4087831,14.1850634 62.2397407,14.5476399 63.3104137,14.5476399 C64.3491263,14.5476399 65.1341415,14.2551748 65.665483,13.670236 C66.1968244,13.0852972 66.5823408,12.2359467 66.8220437,11.1221591 Z M74.2408114,0.701486014 L79.670055,0.701486014 L79.670055,7.36013986 L85.3629705,0.701486014 L92.5779918,0.701486014 L86.1779563,7.34812063 L92.8656339,18.3216783 L86.1779563,18.3216783 L82.474565,11.0740822 L79.670055,14.0187937 L79.670055,18.3216783 L74.2408114,18.3216783 L74.2408114,0.701486014 Z" transform="translate(160 16)"/>
    <path fill="#C2C6CB" d="M29.1840597,25.3286443 C29.1588175,24.7520768 28.9957053,24.1801004 28.6939308,23.6631044 L26.0322935,19.1025216 C25.8293372,18.7548342 25.6890901,18.3820641 25.611326,18 L25.5000566,18.1904722 C24.8412691,19.3193083 24.8412691,20.7099456 25.4999434,21.8387817 L27.6293438,25.4872032 C28.2880181,26.6160392 28.2880181,28.0067886 27.6293438,29.1355127 L27.5180744,29.3260968 C27.4401971,28.9439207 27.2999501,28.5712626 27.0969937,28.2235753 L25.1476845,24.8834254 L23.9030063,22.7508311 C23.7000499,22.4031437 23.5599161,22.0303737 23.4819256,21.6483095 L23.3707694,21.8388937 C22.7142458,22.9638106 22.7122083,24.3489611 23.3643173,25.4756696 L23.364091,25.4757816 L25.5000566,29.1355127 C26.1588441,30.2643488 26.1588441,31.6550981 25.5000566,32.7839342 L25.3887872,32.9745183 C25.3109099,32.5923422 25.1706628,32.2196841 24.9677065,31.8718848 L22.3061824,27.3114139 C21.9491694,26.6996858 21.7860572,26.0111417 21.8159403,25.3290922 C18.9666278,26.0654503 17,27.6290915 17,29.4395291 C17,31.9582187 20.8055731,34 25.5000566,34 C30.1944269,34 34,31.9582187 34,29.4395291 C34,27.6290915 32.0335986,26.0650024 29.1840597,25.3286443"/>
    <g transform="translate(222 136)">
      <rect width="8.644" height="15.629" x="11.662" y="2.126" fill="#FF5F00"/>
      <path fill="#EB001B" d="M12.2110649,9.94074132 C12.2110649,6.76522591 13.692857,3.94868187 15.9704264,2.12621219 C14.29655,0.800779686 12.1836243,-2.44952799e-06 9.87861431,-2.44952799e-06 C4.41793596,-2.44952799e-06 2.15727175e-07,4.44571906 2.15727175e-07,9.94074132 C2.15727175e-07,15.4357635 4.41793596,19.881485 9.87861431,19.881485 C12.1836243,19.881485 14.29655,19.0807029 15.9704264,17.7552704 C13.692857,15.9604138 12.2110649,13.1162567 12.2110649,9.94074132 Z"/>
      <path fill="#F79E1B" d="M31.9682931,9.94074132 C31.9682931,15.4357635 27.5503574,19.881485 22.089679,19.881485 C19.784669,19.881485 17.6717431,19.0807029 15.997867,17.7552704 C18.3028769,15.9328008 19.7572284,13.1162567 19.7572284,9.94074132 C19.7572284,6.76522591 18.2754363,3.94868187 15.997867,2.12621219 C17.6717431,0.800779686 19.784669,-2.44952799e-06 22.089679,-2.44952799e-06 C27.5503574,-2.44952799e-06 31.9682931,4.47333224 31.9682931,9.94074132 Z"/>
    </g>
  </g>
</svg>
