<svg width="265" height="168" viewBox="0 0 265 168" fill="none" xmlns="http://www.w3.org/2000/svg">
<path d="M254.4 0H10.6C4.74578 0 0 4.75049 0 10.6105V157.389C0 163.25 4.74578 168 10.6 168H254.4C260.254 168 265 163.25 265 157.389V10.6105C265 4.75049 260.254 0 254.4 0Z" fill="white" fill-opacity="0.06"/>
<mask id="mask0" mask-type="alpha" maskUnits="userSpaceOnUse" x="0" y="0" width="265" height="168">
<path d="M256.167 0H8.83333C3.95482 0 0 3.95875 0 8.8421V159.158C0 164.041 3.95482 168 8.83333 168H256.167C261.045 168 265 164.041 265 159.158V8.8421C265 3.95875 261.045 0 256.167 0Z" fill="white"/>
</mask>
<g mask="url(#mask0)">
<path d="M256.167 0H8.83333C3.95482 0 0 3.95875 0 8.8421V159.158C0 164.041 3.95482 168 8.83333 168H256.167C261.045 168 265 164.041 265 159.158V8.8421C265 3.95875 261.045 0 256.167 0Z" fill="#535353"/>
<path d="M220.937 40.5841C219.251 34.8029 215.866 29.123 210.238 26.4606C207.221 25.0406 204.293 25.3069 201.06 24.7364C197.739 24.1532 194.493 22.9868 191.781 20.9456C185.468 16.2166 183.084 7.55741 184.01 -0.265034C184.732 -6.41396 187.192 -12.1952 190.069 -17.6215C192.376 -21.9828 196.889 -28.9051 202.86 -26.5089C205.738 -25.3552 207.246 -22.1983 208.121 -19.2189C210.441 -11.2951 210.187 -2.6105 213.724 4.84428C217.983 13.8331 227.06 19.5637 236.263 23.3418C245.467 27.1199 255.291 29.4653 264.013 34.245C272.734 39.0247 280.543 47.0246 281.595 56.9263C283.497 74.7772 263.303 86.7708 247.596 81.915C240.421 79.6963 233.88 75.1068 229.316 69.0593C226.984 65.9658 225.158 62.5047 223.98 58.8027C222.623 54.5048 222.598 49.9533 221.964 45.5032C221.761 43.8804 221.406 42.2196 220.937 40.5841Z" fill="url(#paint0_linear)"/>
<path d="M34.8359 105.11C28.0227 112.24 24.7959 122.64 26.3643 132.38C26.8638 135.47 27.8429 138.53 29.6511 141.08C32.8179 145.55 38.5422 148.05 43.9669 147.33C49.3915 146.61 54.2766 142.71 56.1747 137.57C57.3536 134.38 57.4435 130.84 58.882 127.76C60.6503 123.97 64.2167 121.36 67.7932 119.18C71.3696 117 75.1659 115.01 77.9331 111.87C80.6904 108.72 82.1789 104.01 80.2708 100.28C76.7243 93.36 65.0259 95.2 58.5624 95.28C49.6512 95.38 41.0797 98.57 34.8359 105.11Z" fill="url(#paint1_linear)"/>
<path d="M-30.5856 103.595C-28.7007 115.323 -20.864 125.907 -10.2109 131.114C0.445532 136.318 13.6354 136.008 24.0849 130.303C37.1721 123.156 45.142 108.794 58.2044 101.6C65.7072 97.467 74.3358 96.0203 82.7739 94.6306C91.212 93.241 99.8374 91.7908 107.34 87.6577C114.843 83.5245 121.128 76.1193 121.536 67.5769C121.841 61.1766 118.831 54.9991 114.672 50.147C106.59 40.7082 94.5846 35.6615 82.7661 31.7959C70.9476 27.9303 58.6487 24.8345 48.2016 18.1042C40.3841 13.0669 33.7374 6.06919 25.1219 2.55352C13.9366 -2.00779 0.658084 0.156964 -9.59674 6.62582C-24.1821 15.8222 -39.6482 38.443 -34.2595 56.4302C-32.1908 63.3304 -28.0842 67.6942 -28.6045 75.4022C-29.2494 84.9537 -32.1362 93.92 -30.5856 103.595Z" fill="url(#paint2_linear)"/>
<path d="M208.142 53.1534C205.176 57.7568 204.371 63.5338 204.992 68.9926C205.613 74.4514 207.554 79.6664 209.74 84.6954C211.999 89.9022 215.227 95.5593 220.722 96.7742C224.608 97.6296 228.636 95.9436 231.86 93.5841C235.079 91.2245 237.776 88.1996 240.975 85.8111C243.561 83.8814 246.515 82.3276 248.476 79.7573C250.18 77.53 250.988 74.6249 250.69 71.8232C250.171 66.9512 246.6 63.0585 244.5 58.6411C241.248 51.7979 238.94 41.4341 229.572 41.0126C222.136 40.6779 212.048 47.0871 208.142 53.1534Z" fill="url(#paint3_linear)"/>
</g>
<path d="M22.192 20.696C22.184 20.888 22.168 21.116 22.144 21.38C22.12 21.644 22.092 21.864 22.06 22.04H19.912V29H18.352V22.04H16.072C16.08 21.832 16.096 21.6 16.12 21.344C16.152 21.08 16.184 20.864 16.216 20.696H22.192ZM24.8567 22.868C25.6567 22.868 26.4047 22.968 27.1007 23.168V29H25.6967L25.6007 28.16C25.2967 28.816 24.7967 29.144 24.1007 29.144C23.3967 29.144 22.8407 28.892 22.4327 28.388C22.0247 27.876 21.8207 27.096 21.8207 26.048C21.8207 25.032 22.0607 24.248 22.5407 23.696C23.0207 23.144 23.7927 22.868 24.8567 22.868ZM24.5687 27.908C24.9767 27.908 25.3127 27.776 25.5767 27.512V24.176C25.3607 24.128 25.1087 24.104 24.8207 24.104C24.2847 24.104 23.9087 24.268 23.6927 24.596C23.4847 24.916 23.3807 25.388 23.3807 26.012C23.3807 26.676 23.4807 27.16 23.6807 27.464C23.8807 27.76 24.1767 27.908 24.5687 27.908ZM30.6102 22.892C31.0902 22.892 31.5142 22.92 31.8822 22.976C31.8822 23.2 31.8662 23.424 31.8342 23.648C31.8102 23.872 31.7782 24.068 31.7382 24.236C31.4502 24.188 31.1022 24.164 30.6942 24.164C30.4222 24.164 30.1622 24.18 29.9142 24.212V29H28.3782V23.204C28.7222 23.116 29.0862 23.044 29.4702 22.988C29.8622 22.924 30.2422 22.892 30.6102 22.892ZM33.3527 22.016C33.0967 22.016 32.8847 21.932 32.7167 21.764C32.5487 21.596 32.4647 21.38 32.4647 21.116C32.4647 20.852 32.5487 20.636 32.7167 20.468C32.8847 20.3 33.0967 20.216 33.3527 20.216C33.6087 20.216 33.8207 20.3 33.9887 20.468C34.1567 20.636 34.2407 20.852 34.2407 21.116C34.2407 21.284 34.2007 21.436 34.1207 21.572C34.0487 21.708 33.9447 21.816 33.8087 21.896C33.6727 21.976 33.5207 22.016 33.3527 22.016ZM32.1767 31.724C31.8647 31.724 31.6007 31.692 31.3847 31.628C31.4247 31.156 31.4727 30.756 31.5287 30.428C31.6647 30.46 31.8087 30.476 31.9607 30.476C32.1927 30.476 32.3567 30.416 32.4527 30.296C32.5567 30.184 32.6087 29.996 32.6087 29.732V23.012H34.1447V29.672C34.1447 30.36 33.9807 30.872 33.6527 31.208C33.3327 31.552 32.8407 31.724 32.1767 31.724ZM40.3894 25.544C40.3894 25.72 40.3814 25.896 40.3654 26.072C40.3574 26.248 40.3454 26.404 40.3294 26.54H36.6214C36.6934 27.052 36.8654 27.416 37.1374 27.632C37.4094 27.84 37.8134 27.944 38.3494 27.944C38.9894 27.944 39.6134 27.796 40.2214 27.5C40.1814 27.98 40.1174 28.4 40.0294 28.76C39.5174 29.016 38.8934 29.144 38.1574 29.144C37.1094 29.144 36.3334 28.868 35.8294 28.316C35.3254 27.756 35.0734 26.968 35.0734 25.952C35.0734 25.344 35.1734 24.812 35.3734 24.356C35.5734 23.892 35.8774 23.528 36.2854 23.264C36.7014 23 37.2134 22.868 37.8214 22.868C38.3974 22.868 38.8774 22.984 39.2614 23.216C39.6454 23.448 39.9294 23.764 40.1134 24.164C40.2974 24.564 40.3894 25.024 40.3894 25.544ZM37.7854 24.056C37.4414 24.056 37.1694 24.172 36.9694 24.404C36.7774 24.636 36.6574 24.98 36.6094 25.436H38.8894C38.8814 24.98 38.7854 24.636 38.6014 24.404C38.4254 24.172 38.1534 24.056 37.7854 24.056ZM42.9558 26.96C42.9558 27.288 43.0198 27.528 43.1478 27.68C43.2758 27.824 43.4758 27.896 43.7478 27.896C43.8758 27.896 44.0118 27.88 44.1558 27.848C44.2998 27.808 44.4318 27.76 44.5518 27.704C44.5118 28.2 44.4558 28.608 44.3838 28.928C44.1038 29.072 43.7558 29.144 43.3398 29.144C42.7158 29.144 42.2398 28.976 41.9118 28.64C41.5838 28.304 41.4198 27.796 41.4198 27.116V21.356C41.8918 21.22 42.4038 21.152 42.9558 21.152V23.012H44.6118C44.5878 23.428 44.5438 23.832 44.4798 24.224H42.9558V26.96ZM48.1301 22.868C48.9301 22.868 49.6781 22.968 50.3741 23.168V29H48.9701L48.8741 28.16C48.5701 28.816 48.0701 29.144 47.3741 29.144C46.6701 29.144 46.1141 28.892 45.7061 28.388C45.2981 27.876 45.0941 27.096 45.0941 26.048C45.0941 25.032 45.3341 24.248 45.8141 23.696C46.2941 23.144 47.0661 22.868 48.1301 22.868ZM47.8421 27.908C48.2501 27.908 48.5861 27.776 48.8501 27.512V24.176C48.6341 24.128 48.3821 24.104 48.0941 24.104C47.5581 24.104 47.1821 24.268 46.9661 24.596C46.7581 24.916 46.6541 25.388 46.6541 26.012C46.6541 26.676 46.7541 27.16 46.9541 27.464C47.1541 27.76 47.4501 27.908 47.8421 27.908ZM59.082 23.18V29H57.666L57.582 28.184C57.286 28.824 56.786 29.144 56.082 29.144C55.618 29.144 55.21 29.036 54.858 28.82C54.514 28.596 54.242 28.256 54.042 27.8C53.85 27.344 53.754 26.772 53.754 26.084C53.754 25.052 53.994 24.26 54.474 23.708C54.962 23.148 55.73 22.868 56.778 22.868C56.962 22.868 57.222 22.876 57.558 22.892V20.696C58.054 20.552 58.562 20.48 59.082 20.48V23.168H59.094L59.082 23.18ZM56.586 27.908C56.778 27.908 56.954 27.876 57.114 27.812C57.282 27.74 57.43 27.644 57.558 27.524V24.176C57.334 24.128 57.086 24.104 56.814 24.104C56.27 24.104 55.882 24.264 55.65 24.584C55.426 24.904 55.314 25.384 55.314 26.024C55.314 26.68 55.414 27.16 55.614 27.464C55.822 27.76 56.146 27.908 56.586 27.908ZM61.1384 22.016C60.8824 22.016 60.6664 21.932 60.4904 21.764C60.3224 21.596 60.2384 21.38 60.2384 21.116C60.2384 20.852 60.3224 20.636 60.4904 20.468C60.6664 20.3 60.8824 20.216 61.1384 20.216C61.2984 20.216 61.4464 20.256 61.5824 20.336C61.7184 20.408 61.8224 20.512 61.8944 20.648C61.9744 20.784 62.0144 20.94 62.0144 21.116C62.0144 21.284 61.9744 21.436 61.8944 21.572C61.8224 21.708 61.7184 21.816 61.5824 21.896C61.4464 21.976 61.2984 22.016 61.1384 22.016ZM60.3704 23.012H61.9064V29H60.3704V23.012ZM68.2109 23.18V28.808C68.2109 29.736 67.9509 30.448 67.4309 30.944C66.9189 31.44 66.1749 31.688 65.1989 31.688C64.8549 31.688 64.5189 31.652 64.1909 31.58C63.8629 31.508 63.5789 31.408 63.3389 31.28C63.3389 31.096 63.3509 30.892 63.3749 30.668C63.3989 30.444 63.4309 30.236 63.4709 30.044C63.7189 30.164 63.9869 30.256 64.2749 30.32C64.5629 30.392 64.8349 30.428 65.0909 30.428C65.6509 30.428 66.0549 30.292 66.3029 30.02C66.5589 29.756 66.6869 29.364 66.6869 28.844V28.244C66.5349 28.54 66.3389 28.764 66.0989 28.916C65.8589 29.068 65.5629 29.144 65.2109 29.144C64.7469 29.144 64.3389 29.036 63.9869 28.82C63.6429 28.596 63.3709 28.256 63.1709 27.8C62.9789 27.344 62.8829 26.772 62.8829 26.084C62.8829 25.052 63.1229 24.26 63.6029 23.708C64.0909 23.148 64.8589 22.868 65.9069 22.868C66.7629 22.868 67.5349 22.968 68.2229 23.168L68.2109 23.18ZM65.7149 27.908C65.9069 27.908 66.0829 27.876 66.2429 27.812C66.4109 27.74 66.5589 27.644 66.6869 27.524V24.176C66.4629 24.128 66.2149 24.104 65.9429 24.104C65.3989 24.104 65.0109 24.264 64.7789 24.584C64.5549 24.904 64.4429 25.384 64.4429 26.024C64.4429 26.68 64.5429 27.16 64.7429 27.464C64.9509 27.76 65.2749 27.908 65.7149 27.908ZM70.2673 22.016C70.0113 22.016 69.7953 21.932 69.6193 21.764C69.4513 21.596 69.3673 21.38 69.3673 21.116C69.3673 20.852 69.4513 20.636 69.6193 20.468C69.7953 20.3 70.0113 20.216 70.2673 20.216C70.4273 20.216 70.5753 20.256 70.7113 20.336C70.8473 20.408 70.9513 20.512 71.0233 20.648C71.1033 20.784 71.1433 20.94 71.1433 21.116C71.1433 21.284 71.1033 21.436 71.0233 21.572C70.9513 21.708 70.8473 21.816 70.7113 21.896C70.5753 21.976 70.4273 22.016 70.2673 22.016ZM69.4993 23.012H71.0353V29H69.4993V23.012ZM73.7878 26.96C73.7878 27.288 73.8518 27.528 73.9798 27.68C74.1078 27.824 74.3078 27.896 74.5798 27.896C74.7078 27.896 74.8438 27.88 74.9878 27.848C75.1318 27.808 75.2638 27.76 75.3838 27.704C75.3438 28.2 75.2878 28.608 75.2158 28.928C74.9358 29.072 74.5878 29.144 74.1718 29.144C73.5478 29.144 73.0718 28.976 72.7438 28.64C72.4158 28.304 72.2518 27.796 72.2518 27.116V21.356C72.7238 21.22 73.2358 21.152 73.7878 21.152V23.012H75.4438C75.4198 23.428 75.3758 23.832 75.3118 24.224H73.7878V26.96ZM78.9621 22.868C79.7621 22.868 80.5101 22.968 81.2061 23.168V29H79.8021L79.7061 28.16C79.4021 28.816 78.9021 29.144 78.2061 29.144C77.5021 29.144 76.9461 28.892 76.5381 28.388C76.1301 27.876 75.9261 27.096 75.9261 26.048C75.9261 25.032 76.1661 24.248 76.6461 23.696C77.1261 23.144 77.8981 22.868 78.9621 22.868ZM78.6741 27.908C79.0821 27.908 79.4181 27.776 79.6821 27.512V24.176C79.4661 24.128 79.2141 24.104 78.9261 24.104C78.3901 24.104 78.0141 24.268 77.7981 24.596C77.5901 24.916 77.4861 25.388 77.4861 26.012C77.4861 26.676 77.5861 27.16 77.7861 27.464C77.9861 27.76 78.2821 27.908 78.6741 27.908ZM82.4837 20.696C82.9877 20.552 83.4997 20.48 84.0197 20.48V29H82.4837V20.696Z" fill="#F2F2F2"/>
<g clip-path="url(#clip0)">
<path fill-rule="evenodd" clip-rule="evenodd" d="M243.078 142.55C243.049 141.877 242.861 141.21 242.512 140.607L239.436 135.286C239.202 134.881 239.04 134.446 238.95 134L238.821 134.222C238.06 135.539 238.06 137.162 238.821 138.479L241.282 142.735C242.043 144.052 242.043 145.675 241.282 146.991L241.153 147.214C241.063 146.768 240.901 146.333 240.667 145.928L238.414 142.031L236.976 139.543C236.742 139.137 236.58 138.702 236.49 138.256L236.361 138.479C235.603 139.791 235.6 141.407 236.354 142.722L236.353 142.722L238.821 146.991C239.583 148.308 239.583 149.931 238.821 151.248L238.693 151.47C238.603 151.024 238.441 150.59 238.206 150.184L235.131 144.863C234.719 144.15 234.53 143.346 234.565 142.551C231.272 143.41 229 145.234 229 147.346C229 150.285 233.397 152.667 238.821 152.667C244.246 152.667 248.643 150.285 248.643 147.346C248.643 145.234 246.371 143.409 243.078 142.55Z" fill="#F2F2F2"/>
</g>
<defs>
<linearGradient id="paint0_linear" x1="204.297" y1="74.5" x2="191.285" y2="-26.9967" gradientUnits="userSpaceOnUse">
<stop stop-color="#F44141"/>
<stop offset="1" stop-color="#F44141" stop-opacity="0"/>
</linearGradient>
<linearGradient id="paint1_linear" x1="37.5117" y1="143.399" x2="32.2356" y2="94.7786" gradientUnits="userSpaceOnUse">
<stop stop-color="#F44141"/>
<stop offset="1" stop-color="#F44141" stop-opacity="0"/>
</linearGradient>
<linearGradient id="paint2_linear" x1="-10.3484" y1="69.7373" x2="125.287" y2="37.3427" gradientUnits="userSpaceOnUse">
<stop offset="0.072319" stop-color="#D8D8D8" stop-opacity="0.27"/>
<stop offset="1" stop-color="#D8D8D8" stop-opacity="0"/>
</linearGradient>
<linearGradient id="paint3_linear" x1="243.907" y1="48.1409" x2="206.568" y2="98.337" gradientUnits="userSpaceOnUse">
<stop stop-color="#B9B9B9" stop-opacity="0.37"/>
<stop offset="0.923923" stop-color="#4B4B4B" stop-opacity="0"/>
</linearGradient>
<clipPath id="clip0">
<path d="M229 134H249V152.667H229V134Z" fill="white"/>
</clipPath>
</defs>
</svg>
