<svg xmlns="http://www.w3.org/2000/svg" xmlns:xlink="http://www.w3.org/1999/xlink" width="266" height="168" viewBox="0 0 266 168">
  <defs>
    <filter id="big---1.-front-a" width="122.2%" height="135.1%" x="-11.1%" y="-17.6%" filterUnits="objectBoundingBox">
      <feOffset dy="2" in="SourceAlpha" result="shadowOffsetOuter1"/>
      <feGaussianBlur in="shadowOffsetOuter1" result="shadowBlurOuter1" stdDeviation="6.5"/>
      <feColorMatrix in="shadowBlurOuter1" result="shadowMatrixOuter1" values="0 0 0 0 0   0 0 0 0 0   0 0 0 0 0  0 0 0 0.25 0"/>
      <feMerge>
        <feMergeNode in="shadowMatrixOuter1"/>
        <feMergeNode in="SourceGraphic"/>
      </feMerge>
    </filter>
    <rect id="big---1.-front-b" width="266" height="168" x="0" y="0"/>
    <linearGradient id="big---1.-front-c" x1="36.627%" x2="15.515%" y1="53.249%" y2="40.171%">
      <stop offset="0%" stop-color="#9EBEC1" stop-opacity=".723"/>
      <stop offset="100%" stop-color="#459AA9" stop-opacity=".918"/>
    </linearGradient>
    <linearGradient id="big---1.-front-e" x1="33.226%" x2="61.69%" y1="31.331%" y2="84.17%">
      <stop offset="0%" stop-color="#9EBEC1" stop-opacity=".457"/>
      <stop offset="100%" stop-color="#459AA9" stop-opacity=".918"/>
    </linearGradient>
    <radialGradient id="big---1.-front-f" cx="50%" cy="50%" r="112.069%" fx="50%" fy="50%" gradientTransform="matrix(.74897 .61273 -.5807 .79029 .416 -.202)">
      <stop offset="0%" stop-color="#9FC1C5" stop-opacity=".457"/>
      <stop offset="100%" stop-color="#459AA9" stop-opacity=".918"/>
    </radialGradient>
    <linearGradient id="big---1.-front-g" x1="31.662%" x2="75.343%" y1="32.645%" y2="80.603%">
      <stop offset="0%" stop-color="#9EBEC1" stop-opacity="0"/>
      <stop offset="100%" stop-color="#459AA9"/>
    </linearGradient>
  </defs>
  <g fill="none" fill-rule="evenodd" filter="url(#big---1.-front-a)">
    <rect width="266" height="168" fill="#FFF"/>
    <g opacity=".82">
      <rect width="266" height="168" fill="#D9DDDB" opacity=".62"/>
      <mask id="big---1.-front-d" fill="#fff">
        <use xlink:href="#big---1.-front-b"/>
      </mask>
      <use fill="#D9DDDB" xlink:href="#big---1.-front-b"/>
      <rect width="266" height="168" fill="url(#big---1.-front-c)" mask="url(#big---1.-front-d)" opacity=".619"/>
      <path fill="url(#big---1.-front-e)" d="M268.570113,167.505094 C328.836897,167.505094 268.570113,144.086333 268.570113,83.887447 C268.570113,23.6885612 330.287358,-4.53396814 268.570113,9.57729654 C206.852868,23.6885612 112.849136,98.8915557 145.821201,167.505094 C178.793265,236.118632 208.303329,167.505094 268.570113,167.505094 Z" mask="url(#big---1.-front-d)" opacity=".775"/>
      <path fill="url(#big---1.-front-f)" d="M167.245377,61.3218837 L143.290642,19.9926165 C141.464034,16.8406853 140.201811,13.4634711 139.500916,10 L138.500509,11.727169 C132.571422,21.9572459 132.571422,34.5588822 138.499491,44.7889591 L157.664094,77.8537936 C163.592163,88.0828557 163.592163,100.686522 157.664094,110.916598 L156.662669,112.643767 C155.961774,109.180296 154.699551,105.803082 152.872943,102.651151 L124.127057,53.0554214 C122.300449,49.9034902 121.039245,46.526276 120.337331,43.0628049 L119.336924,44.7899739 C113.428212,54.985548 113.409874,67.5374597 119.278856,77.7492704 L138.500509,110.916598 C144.429597,121.145661 144.429597,133.749326 138.500509,143.979403 L137.499084,145.706572 C136.798189,142.243101 135.535966,138.865887 133.709358,135.714971 L109.755641,94.3846886 C106.542524,88.841917 105.074515,82.6019862 105.343463,76.4198982 C79.6996504,83.0941583 62,97.2646567 62,113.671748 C62,136.496357 96.2501581,155 138.500509,155 C180.749842,155 215,136.496357 215,113.671748 C215,97.2636419 197.302387,83.0890844 171.656537,76.4158391 C171.429357,71.1906961 169.961348,66.0071595 167.245377,61.3218837 Z" mask="url(#big---1.-front-d)" opacity=".775"/>
      <path fill="url(#big---1.-front-g)" d="M134.199253,241 C200.583468,241 244.919468,195.979063 254.398507,126.981151 C263.877546,57.9832399 159.158779,-12 92.7745639,-12 C26.3903493,-12 14,64.0102801 14,126.981151 C14,189.952023 67.8150388,241 134.199253,241 Z" mask="url(#big---1.-front-d)" opacity=".554"/>
    </g>
    <g transform="translate(221.124 137.954)">
      <rect width="8.241" height="14.906" x="11.119" y="2.028" fill="#FF5F00"/>
      <path fill="#EB001B" d="M11.6420905,9.48105386 C11.6420905,6.4523831 13.0548386,3.76608387 15.2262846,2.02789024 C13.6304025,0.763749411 11.6159285,-2.33625502e-06 9.41832046,-2.33625502e-06 C4.21208232,-2.33625502e-06 2.05751352e-07,4.24013667 2.05751352e-07,9.48105386 C2.05751352e-07,14.721971 4.21208232,18.96211 9.41832046,18.96211 C11.6159285,18.96211 13.6304025,18.1983583 15.2262846,16.9342175 C13.0548386,15.22236 11.6420905,12.5097246 11.6420905,9.48105386 Z"/>
      <path fill="#F79E1B" d="M30.4787311,9.48105386 C30.4787311,14.721971 26.266649,18.96211 21.0604108,18.96211 C18.8628027,18.96211 16.8483286,18.1983583 15.2524467,16.9342175 C17.4500547,15.1960238 18.8366407,12.5097246 18.8366407,9.48105386 C18.8366407,6.4523831 17.4238926,3.76608387 15.2524467,2.02789024 C16.8483286,0.763749411 18.8628027,-2.33625502e-06 21.0604108,-2.33625502e-06 C26.266649,-2.33625502e-06 30.4787311,4.26647294 30.4787311,9.48105386 Z"/>
    </g>
    <path fill="#FFF" d="M28.1017415,20.2823974 C28.0769258,19.7058299 27.9165701,19.1338534 27.6198952,18.6168575 L25.0032363,14.0562746 C24.8037096,13.7085873 24.6658326,13.3358172 24.5893826,12.953753 L24.4799935,13.1442252 C23.8323387,14.2730613 23.8323387,15.6636987 24.4798822,16.7925347 L26.5732984,20.4409562 C27.2208419,21.5697923 27.2208419,22.9605416 26.5732984,24.0892657 L26.4639093,24.2798499 C26.387348,23.8976738 26.249471,23.5250156 26.0499443,23.1773283 L24.1335761,19.8371784 L22.9099314,17.7045841 C22.7104047,17.3568968 22.572639,16.9841267 22.4959664,16.6020625 L22.3866886,16.7926467 C21.7412594,17.9175636 21.7392563,19.3027141 22.3803456,20.4294226 L22.380123,20.4295346 L24.4799935,24.0892657 C25.1276483,25.2181018 25.1276483,26.6088511 24.4799935,27.7376872 L24.3706044,27.9282714 C24.2940431,27.5460952 24.1561661,27.1734371 23.9566394,26.8256378 L21.3400918,22.265167 C20.9891118,21.6534388 20.8287561,20.9648947 20.8581342,20.2828453 C18.0569716,21.0192034 16.1235773,22.5828446 16.1235773,24.3932822 C16.1235773,26.9119718 19.864841,28.953753 24.4799935,28.953753 C29.0950347,28.953753 32.8362984,26.9119718 32.8362984,24.3932822 C32.8362984,22.5828446 30.9031267,21.0187555 28.1017415,20.2823974"/>
  </g>
</svg>
