<?xml version="1.0" encoding="UTF-8"?>
<svg width="266px" height="168px" viewBox="0 0 266 168" version="1.1" xmlns="http://www.w3.org/2000/svg" xmlns:xlink="http://www.w3.org/1999/xlink">
    <!-- Generator: Sketch 55.2 (78181) - https://sketchapp.com -->
    <title>02. Elements / Products / Access Mastercard / Big - 1. Front </title>
    <desc>Created with Sketch.</desc>
    <defs>
        <rect id="path-1" x="0" y="0" width="266" height="168" rx="10"></rect>
    </defs>
    <g id="Tarjetas-Santander" stroke="none" stroke-width="1" fill="none" fill-rule="evenodd">
        <g id="Artboard" transform="translate(-332.000000, -808.000000)">
            <g id="02.-Elements-/-Products-/-Access-Mastercard-/-Big---1.-Front-" transform="translate(332.000000, 808.000000)">
                <g>
                    <g id="Base-Card---Access-Mastercard">
                        <mask id="mask-2" fill="white">
                            <use xlink:href="#path-1"></use>
                        </mask>
                        <use id="Mask" fill="#D9DDDB" xlink:href="#path-1"></use>
                        <g id="Group-2" opacity="0.85" mask="url(#mask-2)">
                            <g transform="translate(-102.000000, 0.000000)">
                                <rect id="Rectangle" fill="#C5C5C7" x="323.730337" y="0" width="147.235955" height="168"></rect>
                                <polygon id="Path-2-Copy-3" fill="#D54737" points="258.606742 -4.26325641e-14 323.63243 -4.26325641e-14 406.084504 82.4945158 323.63243 167.569461 258.606742 167.569461"></polygon>
                                <polygon id="Path-2-Copy-2" fill="#ABAAB0" points="194.426966 -4.26325641e-14 259.452654 -4.26325641e-14 341.904729 82.4945158 259.452654 167.569461 194.426966 167.569461"></polygon>
                                <polygon id="Path-2" fill="#A0A1A7" points="129.303371 -4.26325641e-14 194.329059 -4.26325641e-14 276.781133 82.4945158 194.329059 167.569461 129.303371 167.569461"></polygon>
                                <polygon id="Path-2-Copy" fill="#BCBBC0" points="65.1235955 0 130.149284 0 212.601358 82.4945158 130.149284 167.569461 65.1235955 167.569461"></polygon>
                                <polygon id="Path-2-Copy-4" fill="#AFAEB3" points="-2.84217094e-14 -4.26325641e-14 65.0256881 -4.26325641e-14 147.477763 82.4945158 65.0256881 167.569461 -2.84217094e-14 167.569461"></polygon>
                            </g>
                        </g>
                    </g>
                    <g id="mastercard" transform="translate(222.000000, 136.000000)">
                        <rect id="Rectangle" fill="#FF5F00" x="11.6622557" y="2.12621494" width="8.64378731" height="15.6290577"></rect>
                        <path d="M12.2110649,9.94074132 C12.2110649,6.76522591 13.692857,3.94868187 15.9704264,2.12621219 C14.29655,0.800779686 12.1836243,-2.44952799e-06 9.87861431,-2.44952799e-06 C4.41793596,-2.44952799e-06 2.15727175e-07,4.44571906 2.15727175e-07,9.94074132 C2.15727175e-07,15.4357635 4.41793596,19.881485 9.87861431,19.881485 C12.1836243,19.881485 14.29655,19.0807029 15.9704264,17.7552704 C13.692857,15.9604138 12.2110649,13.1162567 12.2110649,9.94074132 Z" id="Path" fill="#EB001B"></path>
                        <path d="M31.9682931,9.94074132 C31.9682931,15.4357635 27.5503574,19.881485 22.089679,19.881485 C19.784669,19.881485 17.6717431,19.0807029 15.997867,17.7552704 C18.3028769,15.9328008 19.7572284,13.1162567 19.7572284,9.94074132 C19.7572284,6.76522591 18.2754363,3.94868187 15.997867,2.12621219 C17.6717431,0.800779686 19.784669,-2.44952799e-06 22.089679,-2.44952799e-06 C27.5503574,-2.44952799e-06 31.9682931,4.47333224 31.9682931,9.94074132 Z" id="Path" fill="#F79E1B"></path>
                    </g>
                    <path d="M28.1840597,22.3286443 C28.1588175,21.7520768 27.9957053,21.1801004 27.6939308,20.6631044 L25.0322935,16.1025216 C24.8293372,15.7548342 24.6890901,15.3820641 24.611326,15 L24.5000566,15.1904722 C23.8412691,16.3193083 23.8412691,17.7099456 24.4999434,18.8387817 L26.6293438,22.4872032 C27.2880181,23.6160392 27.2880181,25.0067886 26.6293438,26.1355127 L26.5180744,26.3260968 C26.4401971,25.9439207 26.2999501,25.5712626 26.0969937,25.2235753 L24.1476845,21.8834254 L22.9030063,19.7508311 C22.7000499,19.4031437 22.5599161,19.0303737 22.4819256,18.6483095 L22.3707694,18.8388937 C21.7142458,19.9638106 21.7122083,21.3489611 22.3643173,22.4756696 L22.364091,22.4757816 L24.5000566,26.1355127 C25.1588441,27.2643488 25.1588441,28.6550981 24.5000566,29.7839342 L24.3887872,29.9745183 C24.3109099,29.5923422 24.1706628,29.2196841 23.9677065,28.8718848 L21.3061824,24.3114139 C20.9491694,23.6996858 20.7860572,23.0111417 20.8159403,22.3290922 C17.9666278,23.0654503 16,24.6290915 16,26.4395291 C16,28.9582187 19.8055731,31 24.5000566,31 C29.1944269,31 33,28.9582187 33,26.4395291 C33,24.6290915 31.0335986,23.0650024 28.1840597,22.3286443" id="logo-santander" fill="#EC0000"></path>
                </g>
            </g>
        </g>
    </g>
</svg>