<svg xmlns="http://www.w3.org/2000/svg" xmlns:xlink="http://www.w3.org/1999/xlink" width="266" height="168" viewBox="0 0 266 168">
  <defs>
    <rect id="big---1.-front-a" width="266" height="168" x="0" y="0" rx="10"/>
    <linearGradient id="big---1.-front-c" x1="100%" x2="-7.821%" y1="30.055%" y2="80.107%">
      <stop offset="0%" stop-color="#CCBE99"/>
      <stop offset="35.652%" stop-color="#ECE5CE"/>
      <stop offset="50.232%" stop-color="#EEE7D3"/>
      <stop offset="72.017%" stop-color="#CCBF99"/>
      <stop offset="100%" stop-color="#C1B48C"/>
    </linearGradient>
    <filter id="big---1.-front-d" width="123%" height="135.5%" x="-11.5%" y="-17.8%" filterUnits="objectBoundingBox">
      <feGaussianBlur in="SourceGraphic" stdDeviation="7"/>
    </filter>
    <linearGradient id="big---1.-front-e" x1="34.248%" x2="68.519%" y1="35.431%" y2="70.001%">
      <stop offset="0%" stop-color="#D7CBAD" stop-opacity="0"/>
      <stop offset="100%" stop-color="#E6DCC4"/>
    </linearGradient>
    <linearGradient id="big---1.-front-f" x1="50%" x2="50%" y1="0%" y2="100%">
      <stop offset="0%" stop-color="#D6C8A7" stop-opacity="0"/>
      <stop offset="100%" stop-color="#CE826C"/>
    </linearGradient>
    <linearGradient id="big---1.-front-g" x1="10.649%" x2="69.668%" y1="28.947%" y2="71.053%">
      <stop offset="0%" stop-color="#CFC49E"/>
      <stop offset="100%" stop-color="#AB9C6F"/>
    </linearGradient>
    <filter id="big---1.-front-h" width="187.4%" height="344.4%" x="-43.7%" y="-122.2%" filterUnits="objectBoundingBox">
      <feGaussianBlur in="SourceGraphic" stdDeviation="22"/>
    </filter>
    <filter id="big---1.-front-i" width="217.6%" height="233.3%" x="-58.8%" y="-66.7%" filterUnits="objectBoundingBox">
      <feGaussianBlur in="SourceGraphic" stdDeviation="10"/>
    </filter>
  </defs>
  <g fill="none" fill-rule="evenodd">
    <mask id="big---1.-front-b" fill="#fff">
      <use xlink:href="#big---1.-front-a"/>
    </mask>
    <g mask="url(#big---1.-front-b)">
      <rect width="266" height="168" fill="url(#big---1.-front-c)"/>
      <polygon fill="#A8986C" points="55.377 175.25 6.688 57 65.688 57 188.924 175.25" filter="url(#big---1.-front-d)"/>
      <polygon fill="url(#big---1.-front-e)" points="71.694 171 22 51 82.219 51 208 171"/>
      <path stroke="url(#big---1.-front-f)" stroke-width="2" d="M204.148437,174.75 C201.953157,172.998602 162.28649,134.998602 85.1484375,60.75" opacity=".8"/>
      <polygon fill="url(#big---1.-front-g)" points="56.377 168.25 7.688 50 66.688 50 189.924 168.25"/>
      <ellipse cx="144.5" cy="84" fill="#F9F5E9" filter="url(#big---1.-front-h)" opacity=".816" rx="75.5" ry="27" style="mix-blend-mode:soft-light"/>
      <path fill="#E4DBC1" d="M97.3364277,79 L127.077344,107.537721 L101.639647,167.841797 L84.4152745,167.841797 L76.2910156,119.171875 L23.8830059,88.9240772 L19.7968652,79 L22.3563606,79 L97.3364277,79 Z M30.563225,105.148435 L66.0527344,126.8125 L74.6696092,167.841797 L56.3765971,167.841797 L30.563225,105.148435 Z" opacity=".88"/>
      <path fill="#D2C5A1" fill-opacity=".6" d="M113.280357,94 L127.077344,107.238817 L101.639647,167.542893 L84.4152745,167.542893 L76.3902825,119.467648 L113.280357,94 Z M66.0693786,126.592848 L74.6696092,167.542893 L56.3765971,167.542893 L45.3930846,140.867056 L66.0693786,126.592848 Z"/>
      <ellipse cx="115.5" cy="95.5" fill="#FFFDF7" filter="url(#big---1.-front-i)" opacity=".74" rx="25.5" ry="22.5" style="mix-blend-mode:hard-light"/>
      <path fill="#B7A781" d="M25.9781642,19.3286443 C25.9533485,18.7520768 25.7929928,18.1801004 25.4963179,17.6631044 L22.879659,13.1025216 C22.6801323,12.7548342 22.5422553,12.3820641 22.4658053,12 L22.3564162,12.1904722 C21.7087614,13.3193083 21.7087614,14.7099456 22.3563049,15.8387817 L24.4497211,19.4872032 C25.0972646,20.6160392 25.0972646,22.0067886 24.4497211,23.1355127 L24.340332,23.3260968 C24.2637707,22.9439207 24.1258937,22.5712626 23.926367,22.2235753 L22.0099988,18.8834254 L20.7863541,16.7508311 C20.5868274,16.4031437 20.4490617,16.0303737 20.3723891,15.6483095 L20.2631113,15.8388937 C19.6176821,16.9638106 19.615679,18.3489611 20.2567683,19.4756696 L20.2565457,19.4757816 L22.3564162,23.1355127 C23.004071,24.2643488 23.004071,25.6550981 22.3564162,26.7839342 L22.2470271,26.9745183 C22.1704658,26.5923422 22.0325888,26.2196841 21.8330621,25.8718848 L19.2165145,21.3114139 C18.8655345,20.6996858 18.7051788,20.0111417 18.7345569,19.3290922 C15.9333943,20.0654503 14,21.6290915 14,23.4395291 C14,25.9582187 17.7412637,28 22.3564162,28 C26.9714574,28 30.7127211,25.9582187 30.7127211,23.4395291 C30.7127211,21.6290915 28.7795494,20.0650024 25.9781642,19.3286443"/>
      <g transform="translate(221 137)">
        <rect width="8.241" height="14.906" x="11.119" y="2.028" fill="#FF5F00"/>
        <path fill="#EB001B" d="M11.6420905,9.48105386 C11.6420905,6.4523831 13.0548386,3.76608387 15.2262846,2.02789024 C13.6304025,0.763749411 11.6159285,-2.33625502e-06 9.41832046,-2.33625502e-06 C4.21208232,-2.33625502e-06 2.05751352e-07,4.24013667 2.05751352e-07,9.48105386 C2.05751352e-07,14.721971 4.21208232,18.96211 9.41832046,18.96211 C11.6159285,18.96211 13.6304025,18.1983583 15.2262846,16.9342175 C13.0548386,15.22236 11.6420905,12.5097246 11.6420905,9.48105386 Z"/>
        <path fill="#F79E1B" d="M30.4787311,9.48105386 C30.4787311,14.721971 26.266649,18.96211 21.0604108,18.96211 C18.8628027,18.96211 16.8483286,18.1983583 15.2524467,16.9342175 C17.4500547,15.1960238 18.8366407,12.5097246 18.8366407,9.48105386 C18.8366407,6.4523831 17.4238926,3.76608387 15.2524467,2.02789024 C16.8483286,0.763749411 18.8628027,-2.33625502e-06 21.0604108,-2.33625502e-06 C26.266649,-2.33625502e-06 30.4787311,4.26647294 30.4787311,9.48105386 Z"/>
      </g>
    </g>
  </g>
</svg>
