<svg xmlns="http://www.w3.org/2000/svg" width="151" height="241" fill="none"><g clip-path="url(#a)"><rect width="151" height="241" fill="#fff" rx="10"/><path fill="url(#b)" d="M163.4-7.2H-8.2v257h171.6v-257Z"/><path fill="#fff" d="M36.9 25.3c0-.7-.2-1.3-.6-2L33.2 18c-.2-.4-.4-.8-.5-1.3l-.1.3c-.8 1.3-.8 3 0 4.3l2.5 4.3c.8 1.3.8 3 0 4.3l-.2.1c-.1-.4-.3-.9-.5-1.3l-2.3-3.9-1.4-2.5c-.2-.4-.4-.8-.5-1.3l-.1.2c-.8 1.3-.8 2.9 0 4.3l2.5 4.3c.8 1.3.8 3 0 4.3l-.1.2c-.1-.4-.3-.9-.5-1.3l-3.1-5.3c-.4-.7-.6-1.5-.6-2.3-3.3.9-5.6 2.7-5.6 4.8 0 3 4.4 5.3 9.9 5.3 5.4 0 9.9-2.4 9.9-5.3 0-2.2-2.3-4-5.6-4.9Zm9.3 9.2c0-.8.1-1.3.4-1.9 1 .5 2.4.7 3.4.7 1.7 0 2.7-.6 2.7-1.6 0-1.1-.7-1.6-2.4-2.3l-.9-.4c-1.7-.8-2.9-1.7-2.9-3.7 0-2.1 1.5-3.5 4.5-3.5 1.2 0 2.3.2 3.4.5-.1.7-.2 1.3-.4 1.9-1-.4-2.2-.5-3-.5-1.6 0-2.4.6-2.4 1.6s.7 1.5 2 2.1l1 .4c2.4 1 3.3 2.1 3.3 3.9 0 2.1-1.6 3.6-4.8 3.6-1.6-.1-2.9-.4-3.9-.8Zm18.5-8.9v9.3h-1.9l-.1-1.1c-.5.8-1.3 1.3-2.6 1.3-2.4 0-4.1-1.8-4.1-4.9 0-3.3 1.7-5.1 5.2-5.1 1.3 0 2.4.1 3.5.5Zm-2 7.2V27c-.4-.1-.9-.1-1.5-.1-2.1 0-3.1 1.3-3.1 3.4 0 1.9.8 3.2 2.6 3.2.8-.1 1.4-.3 2-.7Zm12.4-4.2v6.2h-2V29c0-1.5-.5-2.2-2.5-2.2-.5 0-1.1.1-1.6.1v7.9h-2v-9.3c1.3-.3 2.7-.5 3.7-.5 3.3.1 4.4 1.4 4.4 3.6Zm5.7 4.7c.6 0 1.1-.1 1.6-.3-.1.6-.1 1.2-.2 1.7-.6.2-1.1.3-1.7.3-2 0-3.2-.9-3.2-3.2v-9.7c.6-.2 1.4-.3 2-.3v3.5h3.2c0 .6-.1 1.2-.2 1.7h-3v4.5c-.1 1.4.5 1.8 1.5 1.8Zm10.9-7.7v9.3h-1.9l-.1-1.1c-.5.8-1.3 1.3-2.6 1.3-2.4 0-4.1-1.8-4.1-4.9 0-3.3 1.7-5.1 5.2-5.1 1.3 0 2.4.1 3.5.5Zm-2 7.2V27c-.4-.1-.9-.1-1.5-.1-2.1 0-3.1 1.3-3.1 3.4 0 1.9.8 3.2 2.6 3.2.8-.1 1.4-.3 2-.7Zm12.4-4.2v6.2h-2V29c0-1.5-.5-2.2-2.5-2.2-.5 0-1.1.1-1.6.1v7.9h-2v-9.3c1.3-.3 2.7-.5 3.7-.5 3.3.1 4.4 1.4 4.4 3.6Zm10.4-6.7v13h-1.9l-.1-1.2c-.5.9-1.3 1.4-2.6 1.4-2.4 0-4.1-1.8-4.1-4.9 0-3.3 1.7-5.1 5.2-5.1.5 0 1 .1 1.5.1v-3.1c.6-.1 1.3-.2 2-.2Zm-2.1 10.8V27c-.5-.1-1.1-.2-1.6-.2-2 0-3 1.3-3 3.4 0 1.9.8 3.2 2.6 3.2.8 0 1.5-.3 2-.7Zm12.3-1.8h-6.5c.3 1.6 1.2 2.4 3 2.4 1.1 0 2.2-.2 3.3-.7-.1.5-.2 1.2-.3 1.9-.9.4-1.9.6-3 .6-3.4 0-5.1-1.9-5.1-5.1 0-2.8 1.3-4.9 4.5-4.9 2.9 0 4.2 1.9 4.2 4.2 0 .6 0 1.1-.1 1.6Zm-6.5-1.7h4.6c0-1.5-.8-2.4-2.2-2.4-1.5 0-2.3.8-2.4 2.4Zm13.6-4c0 .6-.1 1.4-.2 1.7-.5-.1-1-.1-1.5-.1s-1 0-1.5.1v7.9h-2v-9.3c.9-.3 2.3-.5 3.5-.5.6.1 1.3.1 1.7.2Z"/><g fill="#fff" opacity=".16"><path d="M3.4 191.2a1.9 1.9 0 1 0 0-3.8 1.9 1.9 0 0 0 0 3.8ZM5.2 181.5c0-1-.8-1.8-1.8-1.8s-1.8.8-1.8 1.8.8 1.8 1.8 1.8 1.8-.8 1.8-1.8ZM5 173.8c0-.9-.7-1.6-1.6-1.6-.9 0-1.6.7-1.6 1.6 0 .9.7 1.6 1.6 1.6.9-.1 1.6-.8 1.6-1.6ZM4.6 166c0-.6-.5-1.1-1.2-1.1-.6 0-1.2.5-1.2 1.1 0 .7.5 1.2 1.2 1.2.7-.1 1.2-.6 1.2-1.2ZM4.6 158.2c0-.6-.5-1.2-1.1-1.2-.6 0-1.1.5-1.1 1.2 0 .6.5 1.1 1.1 1.1.6 0 1.1-.5 1.1-1.1ZM4.6 150.4c0-.6-.5-1.1-1.1-1.1-.6 0-1.1.5-1.1 1.1 0 .6.5 1.1 1.1 1.1.6.1 1.1-.5 1.1-1.1ZM4.4 142.7c0-.5-.4-1-.9-1s-.9.4-.9 1c0 .5.4.9.9.9s.9-.4.9-.9ZM4.4 134.9c0-.5-.4-.9-.9-.9s-.9.4-.9.9.4.9.9.9.9-.4.9-.9ZM13.2 197.1c0-1.1-.9-2-2-2s-2 .9-2 2 .9 2 2 2 2-.9 2-2ZM11.2 191.2a1.9 1.9 0 1 0 0-3.8 1.9 1.9 0 0 0 0 3.8ZM13 181.5c0-1-.8-1.8-1.8-1.8s-1.8.8-1.8 1.8.8 1.8 1.8 1.8 1.8-.8 1.8-1.8ZM12.8 173.8c0-.9-.7-1.6-1.6-1.6-.9 0-1.6.7-1.6 1.6 0 .9.7 1.6 1.6 1.6.9 0 1.6-.7 1.6-1.6ZM12.5 166c0-.7-.6-1.3-1.3-1.3-.7 0-1.3.6-1.3 1.3 0 .7.6 1.3 1.3 1.3.7 0 1.3-.6 1.3-1.3ZM12.5 158.2c0-.7-.6-1.3-1.3-1.3-.7 0-1.3.6-1.3 1.3 0 .7.6 1.3 1.3 1.3.7 0 1.3-.6 1.3-1.3ZM12.4 150.4c0-.6-.5-1.2-1.1-1.2-.7 0-1.2.5-1.2 1.2s.5 1.2 1.2 1.2c.6 0 1.1-.5 1.1-1.2ZM21 197.1c0-1.1-.9-2-2-2s-2 .9-2 2 .9 2 2 2 2-.9 2-2ZM19 191.2a1.9 1.9 0 1 0 0-3.8 1.9 1.9 0 0 0 0 3.8ZM20.7 181.5c0-.9-.7-1.7-1.7-1.7-.9 0-1.7.7-1.7 1.7 0 .9.7 1.7 1.7 1.7.9 0 1.7-.8 1.7-1.7ZM20.6 173.8c0-.9-.7-1.6-1.6-1.6-.9 0-1.6.7-1.6 1.6 0 .9.7 1.6 1.6 1.6.9 0 1.6-.8 1.6-1.6ZM20.4 166c0-.8-.6-1.4-1.4-1.4-.8 0-1.5.7-1.5 1.4 0 .8.7 1.5 1.5 1.5s1.4-.7 1.4-1.5ZM20.3 158.2c0-.7-.6-1.3-1.3-1.3-.7 0-1.3.6-1.3 1.3 0 .7.6 1.3 1.3 1.3.7 0 1.3-.6 1.3-1.3ZM20.2 150.4c0-.7-.5-1.2-1.2-1.2s-1.2.5-1.2 1.2.5 1.2 1.2 1.2 1.2-.5 1.2-1.2ZM28.6 204.8c0-1-.8-1.8-1.8-1.8s-1.8.8-1.8 1.8.8 1.8 1.8 1.8 1.8-.8 1.8-1.8ZM28.6 197.1c0-1-.8-1.8-1.9-1.8-1 0-1.8.8-1.8 1.8s.8 1.8 1.8 1.8c1.1 0 1.9-.8 1.9-1.8ZM28.6 189.3c0-1-.8-1.9-1.9-1.9-1 0-1.8.9-1.8 1.9 0 1 .8 1.8 1.8 1.8 1.1 0 1.9-.8 1.9-1.8ZM28.4 181.5c0-.9-.7-1.6-1.6-1.6-.9 0-1.6.7-1.6 1.6 0 .9.7 1.6 1.6 1.6.8 0 1.6-.7 1.6-1.6ZM28.4 173.8c0-.9-.7-1.6-1.6-1.6-.9 0-1.6.7-1.6 1.6 0 .9.7 1.6 1.6 1.6.8 0 1.6-.8 1.6-1.6ZM28.2 166c0-.8-.7-1.4-1.5-1.4s-1.4.7-1.4 1.4c0 .8.7 1.5 1.4 1.5.9-.1 1.5-.7 1.5-1.5ZM28.2 158.2c0-.8-.7-1.5-1.5-1.5s-1.4.7-1.4 1.5.7 1.4 1.4 1.4c.9.1 1.5-.6 1.5-1.4ZM28.1 150.4c0-.7-.6-1.3-1.3-1.3-.7 0-1.3.6-1.3 1.3 0 .7.6 1.3 1.3 1.3.7 0 1.3-.5 1.3-1.3ZM26.7 143.8a1.1 1.1 0 1 0 0-2.2 1.1 1.1 0 0 0 0 2.2ZM36.2 204.8c0-.9-.7-1.7-1.7-1.7-.9 0-1.7.7-1.7 1.7 0 .9.7 1.7 1.7 1.7s1.7-.7 1.7-1.7ZM36.3 197.1c0-.9-.8-1.7-1.7-1.7-1 0-1.7.8-1.7 1.7 0 .9.7 1.7 1.7 1.7.9 0 1.7-.8 1.7-1.7ZM36.3 189.3c0-1-.8-1.7-1.7-1.7-1 0-1.7.7-1.7 1.7 0 .9.7 1.7 1.7 1.7.9 0 1.7-.8 1.7-1.7ZM36.1 181.5c0-.9-.7-1.5-1.5-1.5-.9 0-1.6.7-1.6 1.5 0 .9.7 1.6 1.6 1.6.8 0 1.5-.7 1.5-1.6ZM36.1 173.8c0-.9-.7-1.6-1.6-1.6-.9 0-1.6.7-1.6 1.6 0 .9.7 1.6 1.6 1.6.9-.1 1.6-.8 1.6-1.6ZM36.1 166c0-.9-.7-1.5-1.5-1.5-.9 0-1.6.7-1.6 1.5 0 .9.7 1.6 1.6 1.6.8-.1 1.5-.8 1.5-1.6ZM36.1 158.2c0-.9-.7-1.6-1.6-1.6-.9 0-1.6.7-1.6 1.6 0 .9.7 1.6 1.6 1.6.9 0 1.6-.7 1.6-1.6ZM35.9 150.4c0-.8-.6-1.4-1.4-1.4-.8 0-1.4.6-1.4 1.4 0 .8.6 1.4 1.4 1.4.8 0 1.4-.6 1.4-1.4ZM35.8 142.7c0-.7-.5-1.2-1.2-1.2s-1.2.5-1.2 1.2.5 1.2 1.2 1.2c.6 0 1.2-.6 1.2-1.2ZM35.6 134.9c0-.6-.5-1.1-1.1-1.1-.6 0-1.1.5-1.1 1.1 0 .6.5 1.1 1.1 1.1.6 0 1.1-.5 1.1-1.1ZM43.9 204.8c0-.9-.7-1.6-1.6-1.6-.9 0-1.6.7-1.6 1.6 0 .9.7 1.5 1.6 1.5.9.1 1.6-.6 1.6-1.5ZM43.9 197.1c0-.9-.7-1.6-1.6-1.6-.9 0-1.6.7-1.6 1.6 0 .9.7 1.6 1.6 1.6.9 0 1.6-.7 1.6-1.6ZM43.9 189.3c0-.9-.7-1.6-1.6-1.6-.9 0-1.6.7-1.6 1.6 0 .9.7 1.6 1.6 1.6.9 0 1.6-.7 1.6-1.6ZM43.7 181.5c0-.8-.6-1.4-1.4-1.4-.8 0-1.4.6-1.4 1.4 0 .8.6 1.4 1.4 1.4.8.1 1.4-.6 1.4-1.4ZM43.8 173.8c0-.9-.7-1.5-1.5-1.5s-1.5.7-1.5 1.5.7 1.5 1.5 1.5 1.5-.7 1.5-1.5ZM43.9 166c0-.9-.7-1.5-1.6-1.5-.9 0-1.6.7-1.6 1.5 0 .9.7 1.6 1.6 1.6.9-.1 1.6-.8 1.6-1.6ZM43.9 158.2c0-.9-.7-1.6-1.6-1.6-.9 0-1.6.7-1.6 1.6 0 .9.7 1.6 1.6 1.6.9 0 1.6-.7 1.6-1.6ZM43.9 150.4c0-.9-.7-1.6-1.6-1.6-.9 0-1.6.7-1.6 1.6 0 .9.7 1.6 1.6 1.6.9 0 1.6-.7 1.6-1.6ZM43.5 142.7c0-.7-.5-1.3-1.3-1.3-.7 0-1.2.5-1.2 1.3 0 .7.5 1.2 1.2 1.2.8 0 1.3-.6 1.3-1.2ZM42.3 136a1.1 1.1 0 1 0 0-2.2 1.1 1.1 0 0 0 0 2.2ZM51.5 204.8c0-.8-.7-1.4-1.5-1.4s-1.4.6-1.4 1.4c0 .8.6 1.4 1.4 1.4.9.1 1.5-.6 1.5-1.4ZM51.5 197.1c0-.8-.7-1.4-1.5-1.4s-1.4.6-1.4 1.4c0 .8.7 1.5 1.4 1.5.9-.1 1.5-.7 1.5-1.5ZM51.4 189.3c0-.7-.6-1.3-1.3-1.3-.7 0-1.3.6-1.3 1.3 0 .7.6 1.3 1.3 1.3.7 0 1.3-.6 1.3-1.3ZM51.4 181.5c0-.7-.6-1.3-1.4-1.3-.7 0-1.3.6-1.3 1.3 0 .7.6 1.4 1.3 1.4.8 0 1.4-.6 1.4-1.4ZM51.5 173.8c0-.8-.7-1.4-1.5-1.4s-1.4.6-1.4 1.4c0 .8.6 1.4 1.4 1.4.9 0 1.5-.7 1.5-1.4ZM51.5 166c0-.8-.7-1.4-1.5-1.4s-1.4.7-1.4 1.4c0 .8.6 1.4 1.4 1.4.9 0 1.5-.6 1.5-1.4ZM51.6 158.2c0-.8-.7-1.5-1.5-1.5s-1.4.7-1.4 1.5.6 1.5 1.4 1.5c.8 0 1.5-.7 1.5-1.5ZM51.6 150.4c0-.8-.7-1.5-1.5-1.5s-1.4.7-1.4 1.5.6 1.5 1.4 1.5c.8 0 1.5-.7 1.5-1.5ZM51.3 142.7c0-.7-.6-1.3-1.3-1.3-.7 0-1.3.6-1.3 1.3 0 .7.6 1.3 1.3 1.3.8-.1 1.3-.6 1.3-1.3ZM59.1 204.8c0-.7-.6-1.3-1.3-1.3-.7 0-1.3.6-1.3 1.3 0 .7.6 1.3 1.3 1.3.7 0 1.3-.5 1.3-1.3ZM59.1 197.1c0-.7-.6-1.3-1.3-1.3-.7 0-1.3.6-1.3 1.3 0 .7.6 1.3 1.3 1.3.7 0 1.3-.6 1.3-1.3ZM59.1 189.3c0-.7-.5-1.3-1.2-1.3s-1.2.5-1.2 1.3c0 .7.5 1.2 1.2 1.2.6 0 1.2-.5 1.2-1.2ZM59.1 181.5c0-.7-.6-1.3-1.3-1.3-.7 0-1.3.6-1.3 1.3 0 .7.6 1.3 1.3 1.3.7 0 1.3-.6 1.3-1.3ZM59.2 173.8c0-.7-.6-1.4-1.3-1.4-.7 0-1.3.6-1.3 1.4 0 .7.6 1.3 1.3 1.3.7 0 1.3-.6 1.3-1.3ZM59.2 166c0-.7-.6-1.3-1.3-1.3-.7 0-1.3.6-1.3 1.3 0 .7.6 1.3 1.3 1.3.7 0 1.3-.6 1.3-1.3ZM59.3 158.2c0-.8-.6-1.4-1.4-1.4-.8 0-1.4.7-1.4 1.4 0 .8.6 1.4 1.4 1.4.7 0 1.4-.6 1.4-1.4ZM59.3 150.4c0-.8-.6-1.4-1.4-1.4-.8 0-1.4.6-1.4 1.4 0 .8.6 1.4 1.4 1.4.7 0 1.4-.6 1.4-1.4ZM59.1 142.7c0-.7-.6-1.3-1.3-1.3-.7 0-1.3.6-1.3 1.3 0 .7.6 1.3 1.3 1.3.7 0 1.3-.6 1.3-1.3ZM66.8 204.8c0-.6-.5-1.2-1.2-1.2-.6 0-1.1.5-1.1 1.2 0 .6.5 1.1 1.1 1.1.6.1 1.2-.4 1.2-1.1ZM66.7 197.1c0-.6-.5-1.1-1.1-1.1-.6 0-1.1.5-1.1 1.1 0 .6.5 1.1 1.1 1.1.6-.1 1.1-.6 1.1-1.1ZM66.8 189.3c0-.6-.5-1.2-1.2-1.2-.6 0-1.1.5-1.1 1.2 0 .6.5 1.1 1.1 1.1.6 0 1.2-.5 1.2-1.1ZM66.8 181.5c0-.7-.5-1.2-1.3-1.2-.7 0-1.2.5-1.2 1.2s.5 1.3 1.2 1.3c.8 0 1.3-.6 1.3-1.3ZM66.9 173.8c0-.7-.5-1.3-1.3-1.3-.7 0-1.3.5-1.3 1.3 0 .7.6 1.3 1.3 1.3.7-.1 1.3-.6 1.3-1.3ZM66.9 166c0-.7-.5-1.3-1.3-1.3-.7 0-1.3.6-1.3 1.3 0 .7.6 1.3 1.3 1.3.7 0 1.3-.6 1.3-1.3ZM66.9 158.2c0-.7-.6-1.3-1.3-1.3-.7 0-1.3.6-1.3 1.3 0 .7.6 1.3 1.3 1.3.7 0 1.3-.6 1.3-1.3ZM66.9 150.4c0-.7-.6-1.3-1.3-1.3-.7 0-1.3.6-1.3 1.3 0 .7.6 1.3 1.3 1.3.7 0 1.3-.5 1.3-1.3ZM66.9 142.7c0-.7-.6-1.3-1.3-1.3-.7 0-1.3.6-1.3 1.3 0 .7.5 1.3 1.3 1.3.7-.1 1.3-.6 1.3-1.3ZM74.4 204.8c0-.5-.4-1-1-1-.5 0-1 .5-1 1s.5 1 1 1 1-.4 1-1ZM74.3 197.1c0-.5-.4-1-1-1-.5 0-1 .4-1 1 0 .5.4 1 1 1 .6-.1 1-.5 1-1ZM74.4 189.3c0-.6-.5-1.1-1.1-1.1-.6 0-1.1.5-1.1 1.1 0 .6.5 1.1 1.1 1.1.7 0 1.1-.5 1.1-1.1ZM74.5 181.5c0-.6-.5-1.2-1.2-1.2-.6 0-1.1.5-1.1 1.2s.5 1.2 1.1 1.2c.7 0 1.2-.5 1.2-1.2ZM74.6 173.8c0-.7-.5-1.2-1.2-1.2-.6 0-1.2.5-1.2 1.2s.5 1.2 1.2 1.2c.6 0 1.2-.6 1.2-1.2ZM74.6 166c0-.7-.5-1.3-1.3-1.3-.7 0-1.3.5-1.3 1.3 0 .7.6 1.3 1.3 1.3.8 0 1.3-.6 1.3-1.3ZM74.6 158.2c0-.7-.5-1.3-1.2-1.3s-1.2.5-1.2 1.3c0 .7.5 1.2 1.2 1.2.6 0 1.2-.5 1.2-1.2ZM74.6 150.4c0-.7-.5-1.2-1.2-1.2s-1.2.5-1.2 1.2.5 1.2 1.2 1.2c.6 0 1.2-.5 1.2-1.2ZM74.6 142.7c0-.7-.5-1.3-1.3-1.3-.7 0-1.3.6-1.3 1.3 0 .7.6 1.3 1.3 1.3.8-.1 1.3-.6 1.3-1.3ZM82 204.8c0-.5-.4-.9-.9-.9s-.9.4-.9.9.4.9.9.9.9-.4.9-.9ZM82.1 197.1c0-.5-.4-.9-.9-.9s-.9.4-.9.9.4.9.9.9c.4 0 .9-.4.9-.9ZM82.1 189.3c0-.5-.4-1-1-1-.5 0-1 .5-1 1s.4 1 1 1 1-.4 1-1ZM81.1 182.6a1.1 1.1 0 1 0 0-2.2 1.1 1.1 0 0 0 0 2.2ZM81.1 174.9a1.1 1.1 0 1 0 0-2.2 1.1 1.1 0 0 0 0 2.2ZM81.1 167.1a1.1 1.1 0 1 0 0-2.2 1.1 1.1 0 0 0 0 2.2ZM82.3 158.2c0-.7-.5-1.2-1.2-1.2-.6 0-1.1.5-1.1 1.2 0 .6.5 1.1 1.1 1.1.7 0 1.2-.5 1.2-1.1ZM82.3 150.4c0-.7-.5-1.2-1.2-1.2-.6 0-1.2.5-1.2 1.2s.5 1.2 1.2 1.2 1.2-.5 1.2-1.2ZM89.7 204.8c0-.5-.4-.8-.8-.8-.5 0-.8.4-.8.8s.4.8.8.8c.5.1.8-.3.8-.8ZM89.8 197.1c0-.5-.4-.9-.9-.9s-.9.4-.9.9.4.9.9.9c.5-.1.9-.5.9-.9ZM89.9 189.3c0-.5-.4-1-.9-1s-1 .4-1 1c0 .5.4.9 1 .9.4 0 .9-.4.9-.9ZM89.9 181.5c0-.5-.4-1-1-1-.5 0-1 .4-1 1 0 .5.4 1 1 1s1-.4 1-1ZM89.9 173.8c0-.5-.4-1-1-1-.5 0-1 .5-1 1s.4 1 1 1c.6-.1 1-.5 1-1ZM90 166c0-.6-.5-1.1-1.1-1.1-.6 0-1.1.5-1.1 1.1 0 .6.5 1.1 1.1 1.1.6-.1 1.1-.6 1.1-1.1ZM90 158.2c0-.6-.5-1.1-1.1-1.1-.6 0-1.1.5-1.1 1.1 0 .6.5 1.1 1.1 1.1.6 0 1.1-.5 1.1-1.1ZM90 150.4c0-.6-.5-1.1-1.1-1.1-.6 0-1.1.5-1.1 1.1 0 .6.5 1.1 1.1 1.1.6 0 1.1-.5 1.1-1.1ZM90.1 142.7c0-.6-.5-1.2-1.1-1.2-.6 0-1.2.5-1.2 1.2 0 .6.5 1.1 1.2 1.1.6 0 1.1-.5 1.1-1.1ZM97.5 197.1c0-.5-.4-.8-.8-.8s-.8.4-.8.8.4.9.8.9.8-.5.8-.9ZM97.6 189.3c0-.5-.4-.9-.9-.9s-.9.4-.9.9.4.9.9.9.9-.4.9-.9ZM97.6 181.5c0-.5-.4-.9-.9-.9s-.9.4-.9.9.4.9.9.9.9-.4.9-.9ZM97.6 173.8c0-.5-.4-1-.9-1s-.9.4-.9 1c0 .5.4.9.9.9s.9-.4.9-.9ZM97.7 166c0-.5-.4-1-1-1-.5 0-1 .4-1 1 0 .5.5 1 1 1 .5-.1 1-.5 1-1ZM97.7 158.2c0-.6-.5-1.1-1-1.1s-1 .5-1 1.1c0 .5.5 1 1 1s1-.4 1-1ZM97.7 150.4c0-.5-.5-1-1-1s-1 .5-1 1c0 .6.5 1.1 1 1.1s1-.5 1-1.1ZM96.7 143.8a1.1 1.1 0 1 0 0-2.2 1.1 1.1 0 0 0 0 2.2ZM105.2 197.1c0-.4-.4-.8-.8-.8-.5 0-.8.4-.8.8s.3.8.8.8c.5-.1.8-.4.8-.8ZM105.3 189.3c0-.5-.4-.8-.8-.8-.5 0-.8.4-.8.8s.4.8.8.8.8-.4.8-.8ZM105.3 181.5c0-.5-.4-.8-.8-.8-.5 0-.8.4-.8.8s.4.9.8.9.8-.4.8-.9ZM105.4 173.8c0-.5-.4-.9-.9-.9s-.9.4-.9.9.4.9.9.9c.4 0 .9-.5.9-.9ZM105.4 166c0-.5-.4-.9-.9-.9s-.9.4-.9.9.4.9.9.9.9-.4.9-.9ZM105.5 158.2c0-.5-.5-1-1-1s-1 .5-1 1 .5 1 1 1 1-.4 1-1ZM105.5 150.4c0-.5-.5-1-1-1s-1 .4-1 1c0 .5.5 1 1 1s1-.4 1-1ZM105.5 142.7c0-.5-.5-1-1-1s-1 .5-1 1 .5 1 1 1c.5-.1 1-.5 1-1ZM105.5 134.9c0-.6-.5-1.1-1.1-1.1-.6 0-1 .5-1 1.1 0 .6.5 1.1 1 1.1.6-.1 1.1-.5 1.1-1.1ZM112.9 197.1c0-.4-.3-.7-.7-.7-.4 0-.7.3-.7.7 0 .4.3.7.7.7.4-.1.7-.4.7-.7ZM112.9 189.3c0-.4-.3-.7-.7-.7-.4 0-.7.4-.7.7 0 .4.3.7.7.7.4 0 .7-.3.7-.7ZM113 181.5c0-.4-.4-.8-.8-.8s-.8.4-.8.8.4.8.8.8c.5 0 .8-.4.8-.8ZM113.1 173.8c0-.5-.4-.9-.8-.9-.5 0-.8.4-.8.9s.4.8.8.8.8-.4.8-.8ZM113.1 166c0-.5-.4-.8-.8-.8-.5 0-.8.4-.8.8s.4.9.8.9c.4-.1.8-.5.8-.9ZM113.1 158.2c0-.5-.4-.9-.9-.9s-.9.4-.9.9.4.9.9.9.9-.4.9-.9ZM113.1 150.4c0-.5-.4-.9-.9-.9s-.9.4-.9.9.4.9.9.9c.5.1.9-.4.9-.9ZM113.1 142.7c0-.5-.4-.9-.9-.9s-.9.4-.9.9.4.9.9.9.9-.4.9-.9ZM113.2 134.9c0-.5-.4-1-1-1-.5 0-1 .4-1 1 0 .5.5 1 1 1 .6-.1 1-.5 1-1ZM120.6 197.1c0-.3-.3-.6-.6-.6s-.6.3-.6.6.3.6.6.6c.3-.1.6-.3.6-.6ZM120.6 189.3c0-.4-.3-.7-.7-.7-.4 0-.7.3-.7.7 0 .4.3.7.7.7.5 0 .7-.3.7-.7ZM120.7 181.5c0-.4-.3-.7-.7-.7-.4 0-.7.3-.7.7 0 .4.4.7.7.7.4 0 .7-.3.7-.7ZM120.7 173.8c0-.4-.4-.7-.7-.7-.4 0-.7.3-.7.7 0 .4.4.7.7.7.4 0 .7-.4.7-.7ZM120 166.8a.8.8 0 1 0 0-1.6.8.8 0 0 0 0 1.6ZM120.8 158.2c0-.5-.4-.8-.8-.8s-.8.4-.8.8.4.8.8.8c.5 0 .8-.4.8-.8ZM120.8 150.4c0-.5-.4-.9-.9-.9s-.9.4-.9.9.4.9.9.9c.6 0 .9-.4.9-.9ZM120.9 142.7c0-.5-.4-.9-.9-.9s-.9.4-.9.9.4.9.9.9.9-.4.9-.9ZM120.9 134.9c0-.5-.4-.9-.9-.9s-.9.4-.9.9.4.9.9.9.9-.4.9-.9ZM128.2 197.1c0-.3-.2-.5-.5-.5s-.5.2-.5.5.2.5.5.5c.4 0 .5-.3.5-.5ZM128.3 189.3c0-.4-.2-.6-.5-.6-.4 0-.6.2-.6.6 0 .3.2.5.6.5.3.1.5-.2.5-.5ZM128.4 181.5c0-.4-.3-.6-.6-.6s-.6.3-.6.6.3.6.6.6.6-.2.6-.6ZM127.8 174.5a.7.7 0 1 0 .001-1.399.7.7 0 0 0-.001 1.399ZM128.5 166c0-.4-.3-.7-.7-.7-.4 0-.7.3-.7.7 0 .4.3.7.7.7.4 0 .7-.3.7-.7ZM128.6 158.2c0-.4-.4-.8-.8-.8s-.8.4-.8.8.4.7.8.7.8-.3.8-.7ZM128.6 150.4c0-.4-.4-.8-.8-.8-.5 0-.8.4-.8.8 0 .5.4.8.8.8s.8-.3.8-.8ZM128.6 142.7c0-.5-.4-.9-.9-.9s-.9.4-.9.9.4.9.9.9.9-.5.9-.9ZM128.7 134.9c0-.5-.4-.9-.9-.9s-.9.4-.9.9.4.9.9.9.9-.4.9-.9ZM136 197.1c0-.2-.2-.4-.5-.4-.2 0-.4.2-.4.4 0 .3.2.5.4.5.3-.1.5-.3.5-.5ZM136 189.3c0-.3-.2-.5-.5-.5s-.5.2-.5.5.2.5.5.5.5-.2.5-.5ZM136.1 181.5c0-.3-.3-.5-.6-.5s-.5.2-.5.5.3.6.5.6c.3 0 .6-.3.6-.6ZM136.2 173.8c0-.4-.3-.6-.6-.6s-.6.3-.6.6.3.6.6.6c.3-.1.6-.3.6-.6ZM136.2 166c0-.4-.3-.7-.7-.7-.4 0-.7.3-.7.7 0 .4.3.7.7.7.4 0 .7-.3.7-.7ZM136.2 158.2c0-.4-.3-.7-.7-.7-.4 0-.7.3-.7.7 0 .4.3.7.7.7.4 0 .7-.3.7-.7ZM136.3 150.4c0-.4-.3-.7-.7-.7-.4 0-.7.4-.7.7 0 .4.3.7.7.7.4.1.7-.3.7-.7ZM135.5 143.5a.8.8 0 1 0 0-1.6.8.8 0 0 0 0 1.6ZM136.4 134.9c0-.5-.4-.9-.9-.9s-.9.4-.9.9.4.9.9.9.9-.4.9-.9ZM143.7 197.1c0-.2-.2-.4-.4-.4s-.4.2-.4.4.2.4.4.4c.2-.1.4-.2.4-.4ZM143.8 189.3c0-.3-.2-.5-.4-.5-.3 0-.5.2-.5.5 0 .2.2.4.5.4.2 0 .4-.2.4-.4ZM143.8 181.5c0-.3-.2-.5-.5-.5s-.5.2-.5.5.2.5.5.5.5-.2.5-.5ZM143.9 173.8c0-.3-.2-.6-.5-.6s-.6.3-.6.6.3.5.6.5.5-.2.5-.5ZM143.9 166c0-.4-.3-.6-.6-.6-.4 0-.6.3-.6.6s.3.6.6.6.6-.3.6-.6ZM144 158.2c0-.4-.3-.7-.7-.7-.4 0-.7.3-.7.7 0 .4.3.7.7.7.4 0 .7-.3.7-.7ZM144 150.4c0-.4-.4-.7-.7-.7-.4 0-.7.3-.7.7 0 .4.3.7.7.7.4 0 .7-.3.7-.7ZM144.1 142.7c0-.5-.4-.8-.8-.8-.5 0-.8.4-.8.8s.4.8.8.8c.5-.1.8-.4.8-.8ZM144.2 134.9c0-.5-.4-.9-.9-.9s-.9.4-.9.9.4.9.9.9c.5-.1.9-.5.9-.9Z"/></g><path fill="#fff" d="M20.3 234.1c-.3-.1-.6-.5-.7-.8 0-.2 0-.4.3-1.1 1.4-2.6 2-5.1 2-8 0-2.8-.5-5.1-1.8-7.7-.3-.6-.5-1.1-.5-1.2 0-.3.2-.7.5-.9.4-.2.9-.2 1.2.1.1.1.4.6.6 1 .9 1.8 1.6 3.8 1.9 5.9.2 1.3.2 3.8.1 4.9-.3 2.2-.9 4.1-1.8 6-.6 1.2-.9 1.6-1.2 1.6h-.2c-.1.2-.3.2-.4.2Zm-3.8-2c-.5-.1-.8-.7-.7-1.2 0-.1.3-.6.5-1.1 1-2.1 1.5-4.4 1.3-6.7-.2-1.8-.5-3-1.3-4.7-.6-1.1-.6-1.3-.3-1.8.3-.4 1.1-.5 1.5-.1.3.3 1.2 2.1 1.5 3.1 1.1 3.4.9 7.1-.5 10.4-.8 1.8-1.3 2.3-2 2.1Zm-3.9-2c-.3-.1-.6-.5-.6-.8 0-.2 0-.4.4-1.1 1.3-2.7 1.3-5.2 0-7.8-.6-1.1-.6-1.4-.1-1.8.2-.2.3-.3.7-.3.6 0 .8.3 1.3 1.3.8 1.6 1.1 2.9 1.1 4.7 0 1.8-.3 3-1.1 4.7-.5.9-.7 1.2-1.2 1.3-.1-.1-.4-.2-.5-.2Zm-3.7-1.9c-.2-.1-.5-.4-.6-.7-.1-.3 0-.6.3-1.2.5-.8.6-1.2.6-2.2 0-1-.1-1.4-.6-2.2-.2-.3-.3-.6-.3-.7-.1-.5.3-1.1.8-1.2.5-.1.8.1 1.2.8 1.3 2 1.3 4.6 0 6.6-.3.8-.8 1-1.4.8ZM60.4 75.8c.7 0 1.3-.6 1.3-1.3 0-.7-.6-1.3-1.3-1.3-.7 0-1.3.6-1.3 1.3 0 .8.6 1.3 1.3 1.3ZM64 75.8c.7 0 1.3-.6 1.3-1.3 0-.7-.6-1.3-1.3-1.3-.7 0-1.3.6-1.3 1.3 0 .8.6 1.3 1.3 1.3ZM67.5 75.8c.7 0 1.3-.6 1.3-1.3 0-.7-.6-1.3-1.3-1.3-.7 0-1.3.6-1.3 1.3 0 .8.6 1.3 1.3 1.3ZM71.1 73.2c-.7 0-1.3.6-1.3 1.3 0 .7.6 1.3 1.3 1.3.7 0 1.3-.6 1.3-1.3 0-.7-.6-1.3-1.3-1.3ZM74.7 73.2c-.7 0-1.3.6-1.3 1.3 0 .7.6 1.3 1.3 1.3.7 0 1.3-.6 1.3-1.3 0-.7-.6-1.3-1.3-1.3ZM65.3 85.3c0-.7-.6-1.3-1.3-1.3-.7 0-1.3.6-1.3 1.3 0 .7.6 1.3 1.3 1.3.7 0 1.3-.6 1.3-1.3ZM67.5 86.6c.7 0 1.3-.6 1.3-1.3 0-.7-.6-1.3-1.3-1.3-.7 0-1.3.6-1.3 1.3 0 .7.6 1.3 1.3 1.3ZM60.4 79.4c.7 0 1.3-.6 1.3-1.3 0-.7-.6-1.3-1.3-1.3-.7 0-1.3.6-1.3 1.3 0 .7.6 1.3 1.3 1.3ZM60.4 83a1.3 1.3 0 1 0 0-2.6 1.3 1.3 0 0 0 0 2.6ZM60.4 86.6c.7 0 1.3-.6 1.3-1.3 0-.7-.6-1.3-1.3-1.3-.7 0-1.3.6-1.3 1.3 0 .7.6 1.3 1.3 1.3ZM60.4 90.1c.7 0 1.3-.6 1.3-1.3 0-.7-.6-1.3-1.3-1.3-.7 0-1.3.6-1.3 1.3 0 .8.6 1.3 1.3 1.3ZM60.4 93.7c.7 0 1.3-.6 1.3-1.3 0-.7-.6-1.3-1.3-1.3-.7 0-1.3.6-1.3 1.3 0 .7.6 1.3 1.3 1.3ZM61.7 96c0-.7-.6-1.3-1.3-1.3-.7 0-1.3.6-1.3 1.3 0 .7.6 1.3 1.3 1.3.7 0 1.3-.6 1.3-1.3ZM45 104.5h-2.7c-.3 0-.5.2-.5.5v3.8c0 .3.2.5.5.5s.5-.2.5-.5v-1.4h1.9c.3 0 .5-.2.5-.5s-.2-.5-.5-.5h-1.9v-1H45c.3 0 .5-.2.5-.5 0-.2-.2-.4-.5-.4ZM47.6 104.5c-.3 0-.5.2-.5.5v3.8c0 .3.2.5.5.5s.5-.2.5-.5V105c0-.3-.2-.5-.5-.5ZM53.2 108.4H51v-1h1.8c.3 0 .5-.2.5-.5s-.2-.5-.5-.5H51v-1h2.1c.3 0 .5-.2.5-.5s-.2-.5-.5-.5h-2.7c-.3 0-.5.2-.5.5v3.7c0 .3.2.5.5.5h2.7c.3 0 .5-.2.5-.5.1 0-.1-.2-.4-.2ZM57.2 106.4c-.8-.2-1-.3-1-.6 0-.2.2-.4.6-.4.3 0 .7.1 1 .3.1 0 .2.1.3.1.3 0 .5-.2.5-.5 0-.2-.1-.3-.2-.4-.4-.3-.9-.4-1.5-.4-1 0-1.7.6-1.7 1.4 0 1 .6 1.2 1.6 1.5.8.2 1 .3 1 .6s-.3.5-.7.5c-.5 0-.9-.2-1.2-.4-.1 0-.2-.1-.3-.1-.3 0-.5.2-.5.5 0 .2.1.3.2.4.5.4 1.2.6 1.8.6 1 0 1.8-.5 1.8-1.5-.2-1-.7-1.3-1.7-1.6ZM63.4 104.5h-3.1c-.3 0-.5.2-.5.5s.2.5.5.5h1v3.3c0 .3.2.5.5.5s.5-.2.5-.5v-3.3h1c.3 0 .5-.2.5-.5.1-.3-.1-.5-.4-.5ZM67.6 104.8c-.1-.3-.3-.4-.6-.4h-.1c-.3 0-.5.2-.6.4l-1.7 3.8c0 .1-.1.2-.1.2 0 .3.2.5.5.5.2 0 .4-.1.5-.3l.3-.8H68l.3.8c.1.2.3.4.5.4.3 0 .5-.2.5-.5 0-.1 0-.1-.1-.2l-1.6-3.9Zm-1.4 2.5.7-1.6.7 1.6h-1.4ZM112.4 102.8c-.7 0-1.2.5-1.2 1.2s.5 1.2 1.2 1.2 1.2-.5 1.2-1.2c-.1-.7-.6-1.2-1.2-1.2Zm1 1.2c0 .6-.5 1.1-1.1 1.1-.6 0-1.1-.5-1.1-1.1 0-.6.5-1.1 1.1-1.1.7 0 1.1.5 1.1 1.1Z"/><path fill="#fff" d="M113 103.8c0-.3-.2-.4-.5-.4h-.5c-.1 0-.2.1-.2.2v.9c0 .1.1.2.2.2s.2-.1.2-.2v-.2h.2l.4.4c.1 0 .2-.1.2-.2v-.1l-.2-.2c.1-.1.2-.2.2-.4Zm-.6.2h-.2v-.3h.2c.1 0 .2.1.2.2 0 0-.1.1-.2.1ZM73 104.5h-1.7c-.3 0-.5.2-.5.5v3.8c0 .3.2.5.5.5s.5-.2.5-.5v-1.1h.8l1 1.3c.1.2.3.3.5.3.3 0 .5-.2.5-.5 0-.2-.1-.3-.2-.4l-.7-.9c.6-.2 1-.7 1-1.5 0-.5-.1-.8-.4-1.1-.2-.2-.7-.4-1.3-.4Zm.8 1.7c0 .4-.3.7-.8.7h-1.1v-1.4H73c.4 0 .8.2.8.7ZM79.7 108.4h-2.2v-1h1.8c.3 0 .5-.2.5-.5s-.2-.5-.5-.5h-1.8v-1h2.1c.3 0 .5-.2.5-.5s-.2-.5-.5-.5H77c-.3 0-.5.2-.5.5v3.7c0 .3.2.5.5.5h2.7c.3 0 .5-.2.5-.5 0 0-.2-.2-.5-.2ZM88 104.5c-.3 0-.4.2-.5.4l-1 2.9-1-2.9c-.1-.3-.3-.4-.5-.4h-.1c-.3 0-.5.2-.5.4l-1 2.9-1-2.9c-.1-.2-.3-.4-.5-.4-.3 0-.5.2-.5.5v.2l1.3 3.8c.1.3.3.4.5.4h.1c.3 0 .4-.2.5-.4l.9-2.8.9 2.8c.1.3.3.4.5.4h.1c.3 0 .5-.2.5-.4l1.3-3.8v-.2c.5-.3.2-.5 0-.5ZM92.3 104.8c-.1-.3-.3-.4-.6-.4h-.1c-.3 0-.5.2-.6.4l-1.7 3.8c0 .1-.1.2-.1.2 0 .3.2.5.5.5.2 0 .4-.1.5-.3l.3-.8h2.1l.3.8c.1.2.3.4.5.4.3 0 .5-.2.5-.5 0-.1 0-.1-.1-.2l-1.5-3.9Zm-1.4 2.5.7-1.6.7 1.6h-1.4ZM97.7 104.5H96c-.3 0-.5.2-.5.5v3.8c0 .3.2.5.5.5s.5-.2.5-.5v-1.1h.8l1 1.3c.1.2.3.3.5.3.3 0 .5-.2.5-.5 0-.2-.1-.3-.2-.4l-.7-.9c.6-.2 1-.7 1-1.5 0-.5-.1-.8-.4-1.1-.2-.2-.7-.4-1.3-.4Zm.7 1.7c0 .4-.3.7-.8.7h-1.1v-1.4h1.1c.5 0 .8.2.8.7ZM103 104.5h-1.3c-.3 0-.5.2-.5.5v3.7c0 .3.2.5.5.5h1.3c1.5 0 2.6-1.1 2.6-2.4 0-1.3-1.1-2.3-2.6-2.3Zm1.5 2.4c0 .9-.6 1.4-1.4 1.4h-.8v-2.9h.8c.8.1 1.4.7 1.4 1.5ZM109.1 106.4c-.8-.2-1-.3-1-.6 0-.2.2-.4.6-.4.3 0 .7.1 1 .3.1 0 .2.1.3.1.3 0 .5-.2.5-.5 0-.2-.1-.3-.2-.4-.4-.3-.9-.4-1.5-.4-1 0-1.7.6-1.7 1.4 0 1 .6 1.2 1.6 1.5.8.2 1 .3 1 .6s-.3.5-.7.5c-.5 0-.9-.2-1.2-.4-.1 0-.2-.1-.3-.1-.3 0-.5.2-.5.5 0 .2.1.3.2.4.5.4 1.2.6 1.8.6 1 0 1.8-.5 1.8-1.5-.2-1-.7-1.3-1.7-1.6ZM95 79.4c.7 0 1.3-.6 1.3-1.3 0-.7-.6-1.3-1.3-1.3-.7 0-1.3.6-1.3 1.3 0 .7.5 1.3 1.3 1.3ZM91.4 86.6c.7 0 1.3-.6 1.3-1.3 0-.7-.6-1.3-1.3-1.3-.7 0-1.3.6-1.3 1.3 0 .7.6 1.3 1.3 1.3ZM91.4 75.8c.7 0 1.3-.6 1.3-1.3 0-.7-.6-1.3-1.3-1.3-.7 0-1.3.6-1.3 1.3 0 .8.6 1.3 1.3 1.3ZM80.7 79.4c.7 0 1.3-.6 1.3-1.3 0-.7-.6-1.3-1.3-1.3-.7 0-1.3.6-1.3 1.3 0 .7.5 1.3 1.3 1.3ZM87.8 73.2c-.7 0-1.3.6-1.3 1.3 0 .7.6 1.3 1.3 1.3.7 0 1.3-.6 1.3-1.3 0-.7-.6-1.3-1.3-1.3ZM87.8 84c-.7 0-1.3.6-1.3 1.3 0 .7.6 1.3 1.3 1.3.7 0 1.3-.6 1.3-1.3 0-.8-.6-1.3-1.3-1.3ZM91.4 90.1c.7 0 1.3-.6 1.3-1.3 0-.7-.6-1.3-1.3-1.3-.7 0-1.3.6-1.3 1.3 0 .8.6 1.3 1.3 1.3ZM96.3 96c0-.7-.6-1.3-1.3-1.3-.7 0-1.3.6-1.3 1.3 0 .7.6 1.3 1.3 1.3.7 0 1.3-.6 1.3-1.3ZM91.9 92.4c0 .7.6 1.3 1.3 1.3.7 0 1.3-.6 1.3-1.3 0-.7-.6-1.3-1.3-1.3-.7 0-1.3.6-1.3 1.3ZM95 83a1.3 1.3 0 1 0 0-2.6 1.3 1.3 0 0 0 0 2.6ZM84.2 75.8c.7 0 1.3-.6 1.3-1.3 0-.7-.6-1.3-1.3-1.3-.7 0-1.3.6-1.3 1.3 0 .8.6 1.3 1.3 1.3ZM80.7 93.7c.7 0 1.3-.6 1.3-1.3 0-.7-.6-1.3-1.3-1.3-.7 0-1.3.6-1.3 1.3 0 .7.5 1.3 1.3 1.3ZM80.7 90.1c.7 0 1.3-.6 1.3-1.3 0-.7-.6-1.3-1.3-1.3-.7 0-1.3.6-1.3 1.3 0 .8.5 1.3 1.3 1.3ZM82 96c0-.7-.6-1.3-1.3-1.3-.7 0-1.3.6-1.3 1.3 0 .7.6 1.3 1.3 1.3.7 0 1.3-.6 1.3-1.3ZM80.7 86.6c.7 0 1.3-.6 1.3-1.3 0-.7-.6-1.3-1.3-1.3-.7 0-1.3.6-1.3 1.3 0 .7.5 1.3 1.3 1.3ZM80.7 75.8c.7 0 1.3-.6 1.3-1.3 0-.7-.6-1.3-1.3-1.3-.7 0-1.3.6-1.3 1.3 0 .8.5 1.3 1.3 1.3ZM80.7 83a1.3 1.3 0 1 0 0-2.6 1.3 1.3 0 0 0 0 2.6ZM84.2 86.6c.7 0 1.3-.6 1.3-1.3 0-.7-.6-1.3-1.3-1.3-.7 0-1.3.6-1.3 1.3 0 .7.6 1.3 1.3 1.3Z"/><path fill="#F26522" d="M125.7 205.9h-13.8v24.8h13.8v-24.8Z"/><path fill="#E51B24" d="M112.8 218.3c0-5 2.4-9.5 6-12.4-2.7-2.1-6.1-3.4-9.7-3.4-8.7 0-15.8 7.1-15.8 15.8 0 8.7 7.1 15.8 15.8 15.8 3.7 0 7.1-1.3 9.7-3.4-3.7-2.9-6-7.4-6-12.4Z"/><path fill="#fff" d="M142.8 228v-.5h.2v-.1h-.5v.1h.2v.5h.1Zm1 0v-.6h-.2l-.2.4-.2-.4h-.2v.6h.1v-.5l.2.4h.1l.2-.4v.5h.2Z"/><path fill="#F99F1C" d="M144.3 218.3c0 8.7-7.1 15.8-15.8 15.8-3.7 0-7.1-1.3-9.7-3.4 3.7-2.9 6-7.4 6-12.4s-2.4-9.5-6-12.4c2.7-2.1 6.1-3.4 9.7-3.4 8.7 0 15.8 7 15.8 15.8Z"/><path fill="url(#c)" d="M72.1 183.1c1.5 0 2.7 1.2 2.7 2.6V211c0 1.5-1.2 2.6-2.7 2.6H55c-1.5 0-2.7-1.2-2.7-2.6v-25.2c0-1.5 1.2-2.6 2.7-2.6h17.1v-.1Z"/><path stroke="#000" stroke-width=".5" d="M60.2 183.1v8.8c-5.2.8-7.8 4.8-7.8 4.8v2.7s2.5 4 7.8 4.8v9.5M67.3 183.1v9c3.9 0 7.5 4.5 7.5 4.5v2.8s-3.6 4.5-7.5 4.5v9.6"/><path fill="#000" d="M53.9 197.3c.4 0 .7.3.7.7 0 .4-.3.7-.7.7-.4 0-.7-.3-.7-.7 0-.4.3-.7.7-.7Z"/><path stroke="#000" stroke-width=".5" d="M60.2 204.1s1.4-.6 3.5-.6 3.6.5 3.6.5M60.2 192s1.4.6 3.5.6 3.6-.5 3.6-.5M52.6 204.2v8M74.5 204.2v8M52.6 184.1v7.9M74.5 184.1v7.9"/><path stroke="#D1D3D4" stroke-width=".3" d="M72.1 183.1c1.5 0 2.7 1.2 2.7 2.6V211c0 1.5-1.2 2.6-2.7 2.6H55c-1.5 0-2.7-1.2-2.7-2.6v-25.2c0-1.5 1.2-2.6 2.7-2.6h17.1v-.1Z"/></g><defs><linearGradient id="b" x1="77.876" x2="77.436" y1="228.42" y2="45.403" gradientUnits="userSpaceOnUse"><stop offset=".266" stop-color="#333"/><stop offset=".594" stop-color="#232323"/><stop offset="1" stop-color="#141414"/></linearGradient><linearGradient id="c" x1="73.205" x2="53.712" y1="185.522" y2="211.419" gradientUnits="userSpaceOnUse"><stop stop-color="#7A7A7A"/><stop offset=".304" stop-color="#fff"/><stop offset="1" stop-color="#7A7A7A"/></linearGradient><clipPath id="a"><rect width="151" height="241" fill="#fff" rx="10"/></clipPath></defs></svg>