<svg xmlns="http://www.w3.org/2000/svg" width="151" height="241" fill="none"><g clip-path="url(#a)"><rect width="151" height="241" fill="#fff" rx="10"/><path fill="url(#b)" d="M162.4-8.3H-9.1v256.8h171.5V-8.3Z"/><g fill="#fff" opacity=".16"><path d="M-12.1 180.3c0-1.1-.9-1.9-1.9-1.9-1 0-1.9.8-1.9 1.9 0 1.1.9 1.9 1.9 1.9 1.1 0 1.9-.8 1.9-1.9ZM-12.4 172.6c0-.9-.7-1.6-1.6-1.6-.9 0-1.6.7-1.6 1.6 0 .9.7 1.6 1.6 1.6.9-.1 1.6-.8 1.6-1.6ZM-12.8 164.8c0-.6-.5-1.1-1.2-1.1-.6 0-1.1.5-1.1 1.1 0 .7.5 1.2 1.1 1.2.7-.1 1.2-.6 1.2-1.2ZM-14 158.1a1.1 1.1 0 1 0 0-2.2 1.1 1.1 0 0 0 0 2.2ZM-13.1 149.2c0-.5-.4-.9-.9-.9s-.9.4-.9.9.4.9.9.9c.5.1.9-.4.9-.9ZM-4.2 188.1c0-1.1-.9-2-2-2s-2 .9-2 2 .9 2 2 2 2-.9 2-2ZM-4.4 180.3c0-1-.8-1.8-1.8-1.8s-1.9.8-1.9 1.8.9 1.8 1.9 1.8c1 0 1.8-.8 1.8-1.8ZM-4.6 172.6c0-.9-.7-1.6-1.6-1.6-.9 0-1.6.7-1.6 1.6 0 .9.7 1.6 1.6 1.6.9-.1 1.6-.8 1.6-1.6ZM-5 164.8c0-.6-.5-1.1-1.2-1.1s-1.2.5-1.2 1.1c0 .7.5 1.2 1.2 1.2.6-.1 1.2-.6 1.2-1.2ZM-5.1 157c0-.6-.5-1.2-1.1-1.2-.6 0-1.1.5-1.1 1.2 0 .6.5 1.1 1.1 1.1.6.1 1.1-.5 1.1-1.1ZM-5.1 149.2c0-.6-.5-1.1-1.1-1.1-.6 0-1.1.5-1.1 1.1 0 .6.5 1.1 1.1 1.1.6 0 1.1-.5 1.1-1.1ZM-5.3 141.5c0-.5-.4-.9-.9-.9s-.9.4-.9.9.4.9.9.9.9-.4.9-.9ZM-5.4 133.7c0-.4-.4-.8-.8-.8-.5 0-.8.4-.8.8 0 .5.4.8.8.8s.8-.3.8-.8ZM-5.6 125.9c0-.4-.3-.6-.6-.6-.4 0-.6.3-.6.6s.3.6.6.6c.3.1.6-.2.6-.6ZM1.5 190a1.9 1.9 0 1 0 0-3.8 1.9 1.9 0 0 0 0 3.8ZM3.3 180.3c0-1-.8-1.8-1.8-1.8s-1.8.8-1.8 1.8.8 1.8 1.8 1.8 1.8-.8 1.8-1.8ZM3.1 172.6c0-.9-.7-1.6-1.6-1.6-.9 0-1.6.7-1.6 1.6 0 .9.7 1.6 1.6 1.6.9-.1 1.6-.8 1.6-1.6ZM2.7 164.8c0-.6-.5-1.1-1.2-1.1-.6 0-1.2.5-1.2 1.1 0 .7.5 1.2 1.2 1.2.7-.1 1.2-.6 1.2-1.2ZM2.7 157c0-.6-.5-1.2-1.1-1.2-.6 0-1.1.5-1.1 1.2 0 .6.5 1.1 1.1 1.1.6.1 1.1-.5 1.1-1.1ZM2.7 149.2c0-.6-.5-1.1-1.1-1.1-.6 0-1.1.5-1.1 1.1 0 .6.5 1.1 1.1 1.1.6.1 1.1-.4 1.1-1.1ZM2.5 141.5c0-.5-.4-1-.9-1s-.9.4-.9 1c0 .5.4.9.9.9s.9-.4.9-.9ZM2.5 133.7c0-.5-.4-.9-.9-.9s-.9.4-.9.9.4.9.9.9.9-.4.9-.9ZM11.3 195.8c0-1.1-.9-2-2-2s-2 .9-2 2 .9 2 2 2 2-.9 2-2ZM9.3 190a1.9 1.9 0 1 0 0-3.8 1.9 1.9 0 0 0 0 3.8ZM11.1 180.3c0-1-.8-1.8-1.8-1.8s-1.8.8-1.8 1.8.8 1.8 1.8 1.8 1.8-.8 1.8-1.8ZM10.9 172.6c0-.9-.7-1.6-1.6-1.6-.9 0-1.6.7-1.6 1.6 0 .9.7 1.6 1.6 1.6.9 0 1.6-.7 1.6-1.6ZM10.6 164.8c0-.7-.6-1.3-1.3-1.3-.7 0-1.3.6-1.3 1.3 0 .7.6 1.3 1.3 1.3.7 0 1.3-.6 1.3-1.3ZM10.6 157c0-.7-.6-1.3-1.3-1.3-.7 0-1.3.6-1.3 1.3 0 .7.6 1.3 1.3 1.3.7 0 1.3-.6 1.3-1.3ZM10.5 149.2c0-.6-.5-1.2-1.1-1.2-.7 0-1.2.5-1.2 1.2s.5 1.2 1.2 1.2c.6 0 1.1-.5 1.1-1.2ZM19 195.8c0-1.1-.9-2-2-2s-2 .9-2 2 .9 2 2 2 2-.9 2-2ZM17.1 190a1.9 1.9 0 1 0 0-3.8 1.9 1.9 0 0 0 0 3.8ZM18.8 180.3c0-.9-.7-1.7-1.7-1.7-.9 0-1.7.7-1.7 1.7 0 .9.7 1.7 1.7 1.7.9 0 1.7-.8 1.7-1.7ZM18.7 172.6c0-.9-.7-1.6-1.6-1.6-.9 0-1.6.7-1.6 1.6 0 .9.7 1.6 1.6 1.6.9 0 1.6-.8 1.6-1.6ZM18.5 164.8c0-.8-.6-1.4-1.4-1.4-.8 0-1.5.7-1.5 1.4 0 .8.7 1.5 1.5 1.5s1.4-.7 1.4-1.5ZM18.4 157c0-.7-.6-1.3-1.3-1.3-.7 0-1.3.6-1.3 1.3 0 .7.6 1.3 1.3 1.3.7 0 1.3-.6 1.3-1.3ZM18.3 149.2c0-.7-.5-1.2-1.2-1.2s-1.2.5-1.2 1.2.5 1.2 1.2 1.2c.6 0 1.2-.5 1.2-1.2ZM26.6 203.6c0-1-.8-1.8-1.8-1.8s-1.8.8-1.8 1.8.8 1.8 1.8 1.8 1.8-.8 1.8-1.8ZM26.7 195.8c0-1-.8-1.8-1.9-1.8-1 0-1.8.8-1.8 1.8s.8 1.8 1.8 1.8c1.1.1 1.9-.7 1.9-1.8ZM26.7 188.1c0-1-.8-1.9-1.9-1.9-1 0-1.8.9-1.8 1.9 0 1 .8 1.8 1.8 1.8 1.1 0 1.9-.8 1.9-1.8ZM26.5 180.3c0-.9-.7-1.6-1.6-1.6-.9 0-1.6.7-1.6 1.6 0 .9.7 1.6 1.6 1.6.8 0 1.6-.7 1.6-1.6ZM26.5 172.6c0-.9-.7-1.6-1.6-1.6-.9 0-1.6.7-1.6 1.6 0 .9.7 1.6 1.6 1.6.8 0 1.6-.8 1.6-1.6ZM26.3 164.8c0-.8-.7-1.4-1.5-1.4s-1.4.7-1.4 1.4c0 .8.7 1.5 1.4 1.5.9 0 1.5-.7 1.5-1.5ZM26.3 157c0-.8-.7-1.5-1.5-1.5s-1.4.7-1.4 1.5.7 1.4 1.4 1.4c.9.1 1.5-.6 1.5-1.4ZM26.2 149.2c0-.7-.6-1.3-1.3-1.3-.7 0-1.3.6-1.3 1.3 0 .7.6 1.3 1.3 1.3.7.1 1.3-.5 1.3-1.3ZM24.8 142.6a1.1 1.1 0 1 0 0-2.2 1.1 1.1 0 0 0 0 2.2ZM34.3 203.6c0-.9-.7-1.7-1.7-1.7-.9 0-1.7.7-1.7 1.7 0 .9.7 1.7 1.7 1.7s1.7-.8 1.7-1.7ZM34.3 195.8c0-.9-.8-1.7-1.7-1.7-1 0-1.7.8-1.7 1.7 0 .9.7 1.7 1.7 1.7 1 .1 1.7-.7 1.7-1.7ZM34.3 188.1c0-1-.8-1.7-1.7-1.7-1 0-1.7.7-1.7 1.7 0 .9.7 1.7 1.7 1.7s1.7-.8 1.7-1.7ZM34.1 180.3c0-.9-.7-1.5-1.5-1.5-.9 0-1.6.7-1.6 1.5 0 .9.7 1.6 1.6 1.6.9 0 1.5-.7 1.5-1.6ZM34.2 172.6c0-.9-.7-1.6-1.6-1.6-.9 0-1.6.7-1.6 1.6 0 .9.7 1.6 1.6 1.6.9-.1 1.6-.8 1.6-1.6ZM34.1 164.8c0-.9-.7-1.5-1.5-1.5-.9 0-1.6.7-1.6 1.5 0 .9.7 1.6 1.6 1.6.9-.1 1.5-.8 1.5-1.6ZM34.2 157c0-.9-.7-1.6-1.6-1.6-.9 0-1.6.7-1.6 1.6 0 .9.7 1.6 1.6 1.6.9 0 1.6-.7 1.6-1.6ZM34 149.2c0-.8-.6-1.4-1.4-1.4-.8 0-1.4.6-1.4 1.4 0 .8.6 1.4 1.4 1.4.8 0 1.4-.6 1.4-1.4ZM33.8 141.5c0-.7-.5-1.2-1.2-1.2s-1.2.5-1.2 1.2.5 1.2 1.2 1.2 1.2-.5 1.2-1.2ZM33.7 133.7c0-.6-.5-1.1-1.1-1.1-.6 0-1.1.5-1.1 1.1 0 .6.5 1.1 1.1 1.1.6 0 1.1-.5 1.1-1.1ZM41.9 203.6c0-.9-.7-1.6-1.6-1.6-.9 0-1.6.7-1.6 1.6 0 .9.7 1.5 1.6 1.5.9.1 1.6-.6 1.6-1.5ZM42 195.8c0-.9-.7-1.6-1.6-1.6-.9 0-1.6.7-1.6 1.6 0 .9.7 1.6 1.6 1.6.9.1 1.6-.7 1.6-1.6ZM41.9 188.1c0-.9-.7-1.6-1.6-1.6-.9 0-1.6.7-1.6 1.6 0 .9.7 1.6 1.6 1.6.9 0 1.6-.7 1.6-1.6ZM41.8 180.3c0-.8-.6-1.4-1.4-1.4-.8 0-1.4.6-1.4 1.4 0 .8.6 1.4 1.4 1.4.7.1 1.4-.6 1.4-1.4ZM41.9 172.6c0-.9-.7-1.5-1.5-1.5s-1.5.7-1.5 1.5.7 1.5 1.5 1.5 1.5-.7 1.5-1.5ZM41.9 164.8c0-.9-.7-1.5-1.6-1.5-.9 0-1.6.7-1.6 1.5 0 .9.7 1.6 1.6 1.6.9-.1 1.6-.8 1.6-1.6ZM41.9 157c0-.9-.7-1.6-1.6-1.6-.9 0-1.6.7-1.6 1.6 0 .9.7 1.6 1.6 1.6.9 0 1.6-.7 1.6-1.6ZM41.9 149.2c0-.9-.7-1.6-1.6-1.6-.9 0-1.6.7-1.6 1.6 0 .9.7 1.6 1.6 1.6.9 0 1.6-.7 1.6-1.6ZM41.6 141.5c0-.7-.5-1.3-1.3-1.3-.7 0-1.2.5-1.2 1.3 0 .7.5 1.2 1.2 1.2.8 0 1.3-.5 1.3-1.2ZM40.4 134.8a1.1 1.1 0 1 0 0-2.2 1.1 1.1 0 0 0 0 2.2ZM49.6 203.6c0-.8-.7-1.4-1.5-1.4s-1.4.6-1.4 1.4c0 .8.6 1.4 1.4 1.4.8.1 1.5-.6 1.5-1.4ZM49.6 195.8c0-.8-.7-1.4-1.5-1.4s-1.4.6-1.4 1.4c0 .8.7 1.5 1.4 1.5.8 0 1.5-.6 1.5-1.5ZM49.4 188.1c0-.7-.6-1.3-1.3-1.3-.7 0-1.3.6-1.3 1.3 0 .7.6 1.3 1.3 1.3.8 0 1.3-.6 1.3-1.3ZM49.5 180.3c0-.7-.6-1.3-1.4-1.3-.7 0-1.3.6-1.3 1.3 0 .7.6 1.4 1.3 1.4.8 0 1.4-.6 1.4-1.4ZM49.6 172.6c0-.8-.7-1.4-1.5-1.4s-1.4.6-1.4 1.4c0 .8.6 1.4 1.4 1.4.8 0 1.5-.7 1.5-1.4ZM49.6 164.8c0-.8-.7-1.4-1.5-1.4s-1.4.7-1.4 1.4c0 .8.6 1.4 1.4 1.4.8 0 1.5-.6 1.5-1.4ZM49.6 157c0-.8-.7-1.5-1.5-1.5s-1.4.7-1.4 1.5.6 1.5 1.4 1.5c.8 0 1.5-.7 1.5-1.5ZM49.6 149.2c0-.8-.7-1.5-1.5-1.5s-1.4.7-1.4 1.5.6 1.5 1.4 1.5c.8 0 1.5-.6 1.5-1.5ZM49.4 141.5c0-.7-.6-1.3-1.3-1.3-.7 0-1.3.6-1.3 1.3 0 .7.6 1.3 1.3 1.3.7-.1 1.3-.6 1.3-1.3ZM57.2 203.6c0-.7-.6-1.3-1.3-1.3-.7 0-1.3.6-1.3 1.3 0 .7.6 1.3 1.3 1.3.7 0 1.3-.6 1.3-1.3ZM57.2 195.8c0-.7-.6-1.3-1.3-1.3-.7 0-1.3.6-1.3 1.3 0 .7.6 1.3 1.3 1.3.7 0 1.3-.5 1.3-1.3ZM57.1 188.1c0-.7-.5-1.3-1.2-1.3s-1.2.5-1.2 1.3c0 .7.5 1.2 1.2 1.2s1.2-.5 1.2-1.2ZM57.2 180.3c0-.7-.6-1.3-1.3-1.3-.7 0-1.3.6-1.3 1.3 0 .7.6 1.3 1.3 1.3.7 0 1.3-.6 1.3-1.3ZM57.2 172.6c0-.7-.6-1.4-1.3-1.4-.7 0-1.3.6-1.3 1.4 0 .7.6 1.3 1.3 1.3.7 0 1.3-.6 1.3-1.3ZM57.2 164.8c0-.7-.6-1.3-1.3-1.3-.7 0-1.3.6-1.3 1.3 0 .7.6 1.3 1.3 1.3.7 0 1.3-.6 1.3-1.3ZM57.3 157c0-.8-.6-1.4-1.4-1.4-.8 0-1.4.7-1.4 1.4 0 .8.6 1.4 1.4 1.4.8 0 1.4-.6 1.4-1.4ZM57.3 149.2c0-.8-.6-1.4-1.4-1.4-.8 0-1.4.6-1.4 1.4 0 .8.6 1.4 1.4 1.4.8 0 1.4-.6 1.4-1.4ZM57.2 141.5c0-.7-.6-1.3-1.3-1.3-.7 0-1.3.6-1.3 1.3 0 .7.6 1.3 1.3 1.3.7 0 1.3-.6 1.3-1.3ZM64.8 203.6c0-.6-.5-1.2-1.2-1.2-.6 0-1.1.5-1.1 1.2 0 .6.5 1.1 1.1 1.1.7.1 1.2-.4 1.2-1.1ZM64.7 195.8c0-.6-.5-1.1-1.1-1.1-.6 0-1.1.5-1.1 1.1 0 .6.5 1.1 1.1 1.1.6 0 1.1-.5 1.1-1.1ZM64.8 188.1c0-.6-.5-1.2-1.2-1.2-.6 0-1.1.5-1.1 1.2 0 .6.5 1.1 1.1 1.1.7 0 1.2-.5 1.2-1.1ZM64.9 180.3c0-.7-.5-1.2-1.3-1.2-.7 0-1.2.5-1.2 1.2s.5 1.3 1.2 1.3c.8 0 1.3-.6 1.3-1.3ZM64.9 172.6c0-.7-.5-1.3-1.3-1.3-.7 0-1.3.5-1.3 1.3 0 .7.6 1.3 1.3 1.3.8 0 1.3-.6 1.3-1.3ZM64.9 164.8c0-.7-.5-1.3-1.3-1.3-.7 0-1.3.6-1.3 1.3 0 .7.6 1.3 1.3 1.3.8 0 1.3-.6 1.3-1.3ZM65 157c0-.7-.6-1.3-1.3-1.3-.7 0-1.3.6-1.3 1.3 0 .7.6 1.3 1.3 1.3.7 0 1.3-.6 1.3-1.3ZM65 149.2c0-.7-.6-1.3-1.3-1.3-.7 0-1.3.6-1.3 1.3 0 .7.6 1.3 1.3 1.3.7.1 1.3-.5 1.3-1.3ZM64.9 141.5c0-.7-.6-1.3-1.3-1.3-.7 0-1.3.6-1.3 1.3 0 .7.5 1.3 1.3 1.3.8-.1 1.3-.6 1.3-1.3ZM72.4 203.6c0-.5-.4-1-1-1-.5 0-1 .5-1 1s.5 1 1 1c.6 0 1-.4 1-1ZM72.4 195.8c0-.5-.4-1-1-1-.5 0-1 .4-1 1 0 .5.4 1 1 1s1-.4 1-1ZM72.5 188.1c0-.6-.5-1.1-1.1-1.1-.6 0-1.1.5-1.1 1.1 0 .6.5 1.1 1.1 1.1.6 0 1.1-.5 1.1-1.1ZM72.6 180.3c0-.6-.5-1.2-1.2-1.2-.6 0-1.1.5-1.1 1.2s.5 1.2 1.1 1.2c.7 0 1.2-.5 1.2-1.2ZM72.6 172.6c0-.7-.5-1.2-1.2-1.2-.6 0-1.2.5-1.2 1.2s.5 1.2 1.2 1.2 1.2-.6 1.2-1.2ZM72.7 164.8c0-.7-.5-1.3-1.3-1.3-.7 0-1.3.5-1.3 1.3 0 .7.6 1.3 1.3 1.3.7 0 1.3-.6 1.3-1.3ZM72.6 157c0-.7-.5-1.3-1.2-1.3s-1.2.5-1.2 1.3c0 .7.5 1.2 1.2 1.2s1.2-.5 1.2-1.2ZM72.6 149.2c0-.7-.5-1.2-1.2-1.2s-1.2.5-1.2 1.2.5 1.2 1.2 1.2 1.2-.5 1.2-1.2ZM72.7 141.5c0-.7-.5-1.3-1.3-1.3-.7 0-1.3.6-1.3 1.3 0 .7.6 1.3 1.3 1.3.7-.1 1.3-.6 1.3-1.3ZM80 203.6c0-.5-.4-.9-.9-.9s-.9.4-.9.9.4.9.9.9c.6 0 .9-.4.9-.9ZM80.1 195.8c0-.5-.4-.9-.9-.9s-.9.4-.9.9.4.9.9.9c.5.1.9-.3.9-.9ZM80.2 188.1c0-.5-.4-1-1-1-.5 0-1 .5-1 1s.4 1 1 1c.5 0 1-.5 1-1ZM79.2 181.4a1.1 1.1 0 1 0 0-2.2 1.1 1.1 0 0 0 0 2.2ZM79.2 173.7a1.1 1.1 0 1 0 0-2.2 1.1 1.1 0 0 0 0 2.2ZM79.2 165.9a1.1 1.1 0 1 0 0-2.2 1.1 1.1 0 0 0 0 2.2ZM80.4 157c0-.7-.5-1.2-1.2-1.2-.6 0-1.1.5-1.1 1.2 0 .6.5 1.1 1.1 1.1.6.1 1.2-.5 1.2-1.1ZM80.4 149.2c0-.7-.5-1.2-1.2-1.2-.6 0-1.2.5-1.2 1.2s.5 1.2 1.2 1.2c.6 0 1.2-.5 1.2-1.2ZM87.8 203.6c0-.5-.4-.8-.8-.8-.5 0-.8.4-.8.8s.4.8.8.8c.4.1.8-.3.8-.8ZM87.8 195.8c0-.5-.4-.9-.9-.9s-.9.4-.9.9.4.9.9.9.9-.4.9-.9ZM87.9 188.1c0-.5-.4-1-.9-1s-1 .4-1 1c0 .5.4.9 1 .9.5 0 .9-.4.9-.9ZM87.9 180.3c0-.5-.4-1-1-1-.5 0-1 .4-1 1 0 .5.4 1 1 1s1-.4 1-1ZM87.9 172.6c0-.5-.4-1-1-1-.5 0-1 .5-1 1s.4 1 1 1c.6-.1 1-.5 1-1ZM88 164.8c0-.6-.5-1.1-1.1-1.1-.6 0-1.1.5-1.1 1.1 0 .6.5 1.1 1.1 1.1.6-.1 1.1-.5 1.1-1.1ZM88 157c0-.6-.5-1.1-1.1-1.1-.6 0-1.1.5-1.1 1.1 0 .6.5 1.1 1.1 1.1.7 0 1.1-.5 1.1-1.1ZM88 149.2c0-.6-.5-1.1-1.1-1.1-.6 0-1.1.5-1.1 1.1 0 .6.5 1.1 1.1 1.1.7 0 1.1-.5 1.1-1.1ZM88.1 141.5c0-.6-.5-1.2-1.1-1.2-.6 0-1.2.5-1.2 1.2 0 .6.5 1.1 1.2 1.1.6 0 1.1-.5 1.1-1.1ZM95.6 195.8c0-.5-.4-.8-.8-.8s-.8.4-.8.8c0 .5.4.9.8.9s.8-.4.8-.9ZM95.6 188.1c0-.5-.4-.9-.9-.9s-.9.4-.9.9.4.9.9.9.9-.4.9-.9ZM95.6 180.3c0-.5-.4-.9-.9-.9s-.9.4-.9.9.4.9.9.9.9-.4.9-.9ZM95.7 172.6c0-.5-.4-1-.9-1s-.9.4-.9 1c0 .5.4.9.9.9.4 0 .9-.4.9-.9ZM95.7 164.8c0-.5-.4-1-1-1-.5 0-1 .4-1 1 0 .5.5 1 1 1 .6 0 1-.5 1-1ZM95.7 157c0-.6-.5-1.1-1-1.1-.6 0-1 .5-1 1.1 0 .5.5 1 1 1 .6 0 1-.4 1-1ZM95.7 149.2c0-.5-.5-1-1-1-.6 0-1 .5-1 1 0 .6.5 1.1 1 1.1.6 0 1-.5 1-1.1ZM94.7 142.6a1.1 1.1 0 1 0 0-2.2 1.1 1.1 0 0 0 0 2.2ZM103.3 195.8c0-.4-.4-.8-.8-.8-.5 0-.8.4-.8.8s.3.8.8.8c.4 0 .8-.3.8-.8ZM103.3 188.1c0-.5-.4-.8-.8-.8-.5 0-.8.4-.8.8s.4.8.8.8.8-.4.8-.8ZM103.3 180.3c0-.5-.4-.8-.8-.8-.5 0-.8.4-.8.8 0 .5.4.9.8.9.5 0 .8-.4.8-.9ZM103.4 172.6c0-.5-.4-.9-.9-.9s-.9.4-.9.9.4.9.9.9.9-.5.9-.9ZM103.4 164.8c0-.5-.4-.9-.9-.9s-.9.4-.9.9.4.9.9.9.9-.4.9-.9ZM103.5 157c0-.5-.5-1-1-1s-1 .5-1 1 .5 1 1 1 1-.4 1-1ZM103.5 149.2c0-.5-.5-1-1-1s-1 .4-1 1c0 .5.5 1 1 1s1-.4 1-1ZM103.5 141.5c0-.5-.5-1-1-1s-1 .5-1 1 .5 1 1 1 1-.5 1-1ZM103.5 133.7c0-.6-.5-1.1-1.1-1.1-.6 0-1 .5-1 1.1 0 .6.5 1.1 1 1.1.7 0 1.1-.5 1.1-1.1ZM110.9 195.8c0-.4-.3-.7-.7-.7-.4 0-.7.3-.7.7 0 .4.3.7.7.7.4 0 .7-.3.7-.7ZM111 188.1c0-.4-.3-.7-.7-.7-.4 0-.7.4-.7.7 0 .4.3.7.7.7.3 0 .7-.3.7-.7ZM111 180.3c0-.4-.4-.8-.8-.8s-.8.4-.8.8.4.8.8.8c.5 0 .8-.4.8-.8ZM111.1 172.6c0-.5-.4-.9-.8-.9-.5 0-.8.4-.8.9s.4.8.8.8.8-.4.8-.8ZM111.1 164.8c0-.5-.4-.8-.8-.8-.5 0-.8.4-.8.8 0 .5.4.9.8.9.4-.1.8-.5.8-.9ZM111.2 157c0-.5-.4-.9-.9-.9s-.9.4-.9.9.4.9.9.9.9-.4.9-.9ZM111.2 149.2c0-.5-.4-.9-.9-.9s-.9.4-.9.9.4.9.9.9c.5.1.9-.4.9-.9ZM111.2 141.5c0-.5-.4-.9-.9-.9s-.9.4-.9.9.4.9.9.9.9-.4.9-.9ZM111.2 133.7c0-.5-.4-1-1-1-.5 0-1 .4-1 1 0 .5.5 1 1 1 .6 0 1-.5 1-1ZM118.6 195.8c0-.3-.3-.6-.6-.6s-.6.3-.6.6.3.6.6.6.6-.2.6-.6ZM118.7 188.1c0-.4-.3-.7-.7-.7-.4 0-.7.3-.7.7 0 .4.3.7.7.7.4 0 .7-.3.7-.7ZM118.7 180.3c0-.4-.3-.7-.7-.7-.4 0-.7.3-.7.7 0 .4.4.7.7.7.4 0 .7-.3.7-.7ZM118.7 172.6c0-.4-.4-.7-.7-.7-.4 0-.7.3-.7.7 0 .4.4.7.7.7.4 0 .7-.3.7-.7ZM118 165.6a.8.8 0 1 0 0-1.6.8.8 0 0 0 0 1.6ZM118.8 157c0-.5-.4-.8-.8-.8s-.8.4-.8.8.4.8.8.8c.5 0 .8-.3.8-.8ZM118.9 149.2c0-.5-.4-.9-.9-.9s-.9.4-.9.9.4.9.9.9.9-.4.9-.9ZM118.9 141.5c0-.5-.4-.9-.9-.9s-.9.4-.9.9.4.9.9.9.9-.4.9-.9ZM118.9 133.7c0-.5-.4-.9-.9-.9s-.9.4-.9.9.4.9.9.9c.6 0 .9-.4.9-.9ZM126.3 195.8c0-.3-.2-.5-.5-.5s-.5.2-.5.5.2.5.5.5.5-.2.5-.5ZM126.3 188.1c0-.4-.2-.6-.5-.6-.4 0-.6.2-.6.6 0 .3.2.5.6.5.3 0 .5-.2.5-.5ZM126.4 180.3c0-.4-.3-.6-.6-.6s-.6.3-.6.6.3.6.6.6.6-.2.6-.6ZM125.8 173.3a.7.7 0 1 0 .001-1.399.7.7 0 0 0-.001 1.399ZM126.5 164.8c0-.4-.3-.7-.7-.7-.4 0-.7.3-.7.7 0 .4.3.7.7.7.4 0 .7-.3.7-.7ZM126.6 157c0-.4-.4-.8-.8-.8s-.8.4-.8.8.4.7.8.7.8-.2.8-.7ZM126.6 149.2c0-.4-.4-.8-.8-.8-.5 0-.8.4-.8.8 0 .5.4.8.8.8.4.1.8-.3.8-.8ZM126.7 141.5c0-.5-.4-.9-.9-.9s-.9.4-.9.9.4.9.9.9c.5-.1.9-.4.9-.9ZM126.7 133.7c0-.5-.4-.9-.9-.9s-.9.4-.9.9.4.9.9.9.9-.4.9-.9ZM134 195.8c0-.2-.2-.4-.5-.4-.2 0-.4.2-.4.4 0 .3.2.5.4.5.3 0 .5-.2.5-.5ZM134.1 188.1c0-.3-.2-.5-.5-.5s-.5.2-.5.5.2.5.5.5.5-.2.5-.5ZM134.1 180.3c0-.3-.3-.5-.6-.5s-.5.2-.5.5.3.6.5.6c.4 0 .6-.3.6-.6ZM134.2 172.6c0-.4-.3-.6-.6-.6s-.6.3-.6.6.3.6.6.6c.3-.1.6-.3.6-.6ZM134.2 164.8c0-.4-.3-.7-.7-.7-.4 0-.7.3-.7.7 0 .4.3.7.7.7.4 0 .7-.3.7-.7ZM134.2 157c0-.4-.3-.7-.7-.7-.4 0-.7.3-.7.7 0 .4.3.7.7.7.4 0 .7-.3.7-.7ZM134.3 149.2c0-.4-.3-.7-.7-.7-.4 0-.7.4-.7.7 0 .4.3.7.7.7.4.1.7-.3.7-.7ZM133.5 142.3a.8.8 0 1 0 0-1.6.8.8 0 0 0 0 1.6ZM134.4 133.7c0-.5-.4-.9-.9-.9s-.9.4-.9.9.4.9.9.9c.6 0 .9-.4.9-.9ZM141.7 195.8c0-.2-.2-.4-.4-.4s-.4.2-.4.4.2.4.4.4.4-.1.4-.4ZM141.8 188.1c0-.3-.2-.5-.4-.5-.3 0-.5.2-.5.5 0 .2.2.4.5.4.2 0 .4-.2.4-.4ZM141.8 180.3c0-.3-.2-.5-.5-.5s-.5.2-.5.5.2.5.5.5.5-.2.5-.5ZM141.9 172.6c0-.3-.2-.6-.5-.6s-.6.3-.6.6.3.5.6.5c.2 0 .5-.2.5-.5ZM142 164.8c0-.4-.3-.6-.6-.6-.4 0-.6.3-.6.6s.3.6.6.6c.2 0 .6-.3.6-.6ZM142 157c0-.4-.3-.7-.7-.7-.4 0-.7.3-.7.7 0 .4.3.7.7.7.4 0 .7-.3.7-.7ZM142 149.2c0-.4-.4-.7-.7-.7-.4 0-.7.3-.7.7 0 .4.3.7.7.7.4 0 .7-.3.7-.7ZM142.1 141.5c0-.5-.4-.8-.8-.8-.5 0-.8.4-.8.8s.4.8.8.8c.5 0 .8-.4.8-.8ZM142.2 133.7c0-.5-.4-.9-.9-.9s-.9.4-.9.9.4.9.9.9.9-.4.9-.9ZM149.1 148.6c-.4 0-.7.3-.7.7 0 .4.3.7.7.7"/></g><path fill="#fff" d="M59.5 75.9c.7 0 1.3-.6 1.3-1.3 0-.7-.6-1.3-1.3-1.3-.7 0-1.3.6-1.3 1.3 0 .7.5 1.3 1.3 1.3ZM63 75.9c.7 0 1.3-.6 1.3-1.3 0-.7-.6-1.3-1.3-1.3-.7 0-1.3.6-1.3 1.3 0 .7.6 1.3 1.3 1.3ZM66.6 75.9c.7 0 1.3-.6 1.3-1.3 0-.7-.6-1.3-1.3-1.3-.7 0-1.3.6-1.3 1.3 0 .7.6 1.3 1.3 1.3ZM70.2 73.3c-.7 0-1.3.6-1.3 1.3 0 .7.6 1.3 1.3 1.3.7 0 1.3-.6 1.3-1.3 0-.7-.6-1.3-1.3-1.3ZM73.7 73.3c-.7 0-1.3.6-1.3 1.3 0 .7.6 1.3 1.3 1.3.7 0 1.3-.6 1.3-1.3 0-.7-.5-1.3-1.3-1.3ZM64.3 85.3c0-.7-.6-1.3-1.3-1.3-.7 0-1.3.6-1.3 1.3 0 .7.6 1.3 1.3 1.3.7 0 1.3-.6 1.3-1.3ZM66.6 86.6c.7 0 1.3-.6 1.3-1.3 0-.7-.6-1.3-1.3-1.3-.7 0-1.3.6-1.3 1.3 0 .7.6 1.3 1.3 1.3ZM59.5 79.5c.7 0 1.3-.6 1.3-1.3 0-.7-.6-1.3-1.3-1.3-.7 0-1.3.6-1.3 1.3 0 .7.5 1.3 1.3 1.3ZM59.5 83a1.3 1.3 0 1 0 0-2.6 1.3 1.3 0 0 0 0 2.6ZM59.5 86.6c.7 0 1.3-.6 1.3-1.3 0-.7-.6-1.3-1.3-1.3-.7 0-1.3.6-1.3 1.3 0 .7.5 1.3 1.3 1.3ZM59.5 90.2c.7 0 1.3-.6 1.3-1.3 0-.7-.6-1.3-1.3-1.3-.7 0-1.3.6-1.3 1.3 0 .7.5 1.3 1.3 1.3ZM59.5 93.8c.7 0 1.3-.6 1.3-1.3 0-.7-.6-1.3-1.3-1.3-.7 0-1.3.6-1.3 1.3 0 .7.5 1.3 1.3 1.3ZM60.7 96c0-.7-.6-1.3-1.3-1.3-.7 0-1.3.6-1.3 1.3 0 .7.6 1.3 1.3 1.3.8 0 1.3-.6 1.3-1.3ZM44.1 104.5h-2.7c-.3 0-.5.2-.5.5v3.8c0 .3.2.5.5.5s.5-.2.5-.5v-1.4h1.9c.3 0 .5-.2.5-.5s-.2-.5-.5-.5h-1.9v-1h2.2c.3 0 .5-.2.5-.5 0-.2-.2-.4-.5-.4ZM46.6 104.5c-.3 0-.5.2-.5.5v3.8c0 .3.2.5.5.5s.5-.2.5-.5V105c.1-.3-.2-.5-.5-.5ZM52.3 108.4h-2.2v-1h1.8c.3 0 .5-.2.5-.5s-.2-.5-.5-.5h-1.8v-1h2.1c.3 0 .5-.2.5-.5s-.2-.5-.5-.5h-2.7c-.3 0-.5.2-.5.5v3.7c0 .3.2.5.5.5h2.7c.3 0 .5-.2.5-.5.1 0-.2-.2-.4-.2ZM56.3 106.5c-.8-.2-1-.3-1-.6 0-.2.2-.4.6-.4.3 0 .7.1 1 .3.1 0 .2.1.3.1.3 0 .5-.2.5-.5 0-.2-.1-.3-.2-.4-.4-.3-.9-.4-1.5-.4-1 0-1.7.6-1.7 1.4 0 1 .6 1.2 1.6 1.5.8.2 1 .3 1 .6s-.3.5-.7.5c-.5 0-.9-.2-1.2-.4-.1 0-.2-.1-.3-.1-.3 0-.5.2-.5.5 0 .2.1.3.2.4.5.4 1.2.6 1.8.6 1 0 1.8-.5 1.8-1.5-.2-1-.7-1.4-1.7-1.6ZM62.5 104.5h-3.1c-.3 0-.5.2-.5.5s.2.5.5.5h1v3.3c0 .3.2.5.5.5s.5-.2.5-.5v-3.3h1c.3 0 .5-.2.5-.5.1-.2-.1-.5-.4-.5ZM66.6 104.9c-.1-.3-.3-.4-.6-.4s-.5.2-.6.4l-1.7 3.8c0 .1-.1.2-.1.2 0 .3.2.5.5.5.2 0 .4-.1.5-.3l.3-.8H67l.3.8c.1.2.3.4.5.4.3 0 .5-.2.5-.5 0-.1 0-.1-.1-.2l-1.6-3.9Zm-1.3 2.4.7-1.6.7 1.6h-1.4ZM111.4 102.8c-.7 0-1.2.5-1.2 1.2 0 .6.5 1.2 1.2 1.2s1.2-.5 1.2-1.2c0-.6-.6-1.2-1.2-1.2Zm1 1.2c0 .6-.5 1.1-1.1 1.1-.6 0-1.1-.5-1.1-1.1 0-.6.5-1.1 1.1-1.1.7.1 1.1.5 1.1 1.1Z"/><path fill="#fff" d="M112 103.8c0-.3-.2-.4-.5-.4h-.5c-.1 0-.2.1-.2.2v.9c0 .1.1.2.2.2s.2-.1.2-.2v-.2h.2l.4.4c.1 0 .2-.1.2-.2v-.1l-.2-.2c.1-.1.2-.2.2-.4Zm-.6.2h-.2v-.3h.2c.1 0 .2.1.2.2 0 0 0 .1-.2.1ZM72.1 104.5h-1.7c-.3 0-.5.2-.5.5v3.8c0 .3.2.5.5.5s.5-.2.5-.5v-1h.8l1 1.3c.1.2.3.3.5.3.3 0 .5-.2.5-.5 0-.2-.1-.3-.2-.4l-.7-.9c.6-.2 1-.7 1-1.5 0-.5-.1-.8-.4-1.1-.3-.3-.7-.5-1.3-.5Zm.7 1.7c0 .4-.3.7-.8.7h-1.1v-1.4h1c.6 0 .9.2.9.7ZM78.7 108.4h-2.2v-1h1.8c.3 0 .5-.2.5-.5s-.2-.5-.5-.5h-1.8v-1h2.1c.3 0 .5-.2.5-.5s-.2-.5-.5-.5H76c-.3 0-.5.2-.5.5v3.7c0 .3.2.5.5.5h2.7c.3 0 .5-.2.5-.5 0 0-.2-.2-.5-.2ZM87 104.5c-.3 0-.4.2-.5.4l-1 2.9-1-2.9c-.1-.3-.3-.4-.5-.4-.3 0-.5.2-.5.4l-1 2.9-1-2.9c-.1-.2-.3-.4-.5-.4-.3 0-.5.2-.5.5v.2l1.3 3.8c.1.3.3.4.5.4h.1c.3 0 .4-.2.5-.4l.9-2.8.9 2.8c.1.3.3.4.5.4h.1c.3 0 .5-.2.5-.4l1.3-3.8v-.2c.4-.3.2-.5-.1-.5ZM91.3 104.9c-.1-.3-.3-.4-.6-.4h-.1c-.3 0-.5.2-.6.4l-1.7 3.8c0 .1-.1.2-.1.2 0 .3.2.5.5.5.2 0 .4-.1.5-.3l.3-.8h2.1l.3.8c.1.2.3.4.5.4.3 0 .5-.2.5-.5 0-.1 0-.1-.1-.2l-1.5-3.9Zm-1.3 2.4.7-1.6.7 1.6H90ZM96.7 104.5H95c-.3 0-.5.2-.5.5v3.8c0 .3.2.5.5.5s.5-.2.5-.5v-1h.8l1 1.3c.1.2.3.3.5.3.3 0 .5-.2.5-.5 0-.2-.1-.3-.2-.4l-.7-.9c.6-.2 1-.7 1-1.5 0-.5-.1-.8-.4-1.1-.2-.3-.7-.5-1.3-.5Zm.8 1.7c0 .4-.3.7-.8.7h-1.1v-1.4h1c.6 0 .9.2.9.7ZM102.1 104.5h-1.3c-.3 0-.5.2-.5.5v3.7c0 .3.2.5.5.5h1.3c1.5 0 2.6-1 2.6-2.4-.1-1.2-1.1-2.3-2.6-2.3Zm1.4 2.4c0 .9-.6 1.4-1.4 1.4h-.8v-2.9h.8c.8.1 1.4.7 1.4 1.5ZM108.1 106.5c-.8-.2-1-.3-1-.6 0-.2.2-.4.6-.4.3 0 .7.1 1 .3.1 0 .2.1.3.1.3 0 .5-.2.5-.5 0-.2-.1-.3-.2-.4-.4-.3-.9-.4-1.5-.4-1 0-1.7.6-1.7 1.4 0 1 .6 1.2 1.6 1.5.8.2 1 .3 1 .6s-.3.5-.7.5c-.5 0-.9-.2-1.2-.4-.1 0-.2-.1-.3-.1-.3 0-.5.2-.5.5 0 .2.1.3.2.4.5.4 1.2.6 1.8.6 1 0 1.8-.5 1.8-1.5-.2-1-.7-1.4-1.7-1.6ZM94 79.5c.7 0 1.3-.6 1.3-1.3 0-.7-.6-1.3-1.3-1.3-.7 0-1.3.6-1.3 1.3 0 .7.6 1.3 1.3 1.3ZM90.4 86.6c.7 0 1.3-.6 1.3-1.3 0-.7-.6-1.3-1.3-1.3-.7 0-1.3.6-1.3 1.3 0 .7.6 1.3 1.3 1.3ZM90.4 75.9c.7 0 1.3-.6 1.3-1.3 0-.7-.6-1.3-1.3-1.3-.7 0-1.3.6-1.3 1.3 0 .7.6 1.3 1.3 1.3ZM79.7 79.5c.7 0 1.3-.6 1.3-1.3 0-.7-.6-1.3-1.3-1.3-.7 0-1.3.6-1.3 1.3 0 .7.6 1.3 1.3 1.3ZM86.8 73.3c-.7 0-1.3.6-1.3 1.3 0 .7.6 1.3 1.3 1.3.7 0 1.3-.6 1.3-1.3 0-.7-.5-1.3-1.3-1.3ZM86.8 84c-.7 0-1.3.6-1.3 1.3 0 .7.6 1.3 1.3 1.3.7 0 1.3-.6 1.3-1.3 0-.7-.5-1.3-1.3-1.3ZM90.4 90.2c.7 0 1.3-.6 1.3-1.3 0-.7-.6-1.3-1.3-1.3-.7 0-1.3.6-1.3 1.3 0 .7.6 1.3 1.3 1.3ZM95.3 96c0-.7-.6-1.3-1.3-1.3-.7 0-1.3.6-1.3 1.3 0 .7.6 1.3 1.3 1.3.7 0 1.3-.6 1.3-1.3ZM90.9 92.5c0 .7.6 1.3 1.3 1.3.7 0 1.3-.6 1.3-1.3 0-.7-.6-1.3-1.3-1.3-.7 0-1.3.5-1.3 1.3ZM94 83a1.3 1.3 0 1 0 0-2.6 1.3 1.3 0 0 0 0 2.6ZM83.3 75.9c.7 0 1.3-.6 1.3-1.3 0-.7-.6-1.3-1.3-1.3-.7 0-1.3.6-1.3 1.3 0 .7.6 1.3 1.3 1.3ZM79.7 93.8c.7 0 1.3-.6 1.3-1.3 0-.7-.6-1.3-1.3-1.3-.7 0-1.3.6-1.3 1.3 0 .7.6 1.3 1.3 1.3ZM79.7 90.2c.7 0 1.3-.6 1.3-1.3 0-.7-.6-1.3-1.3-1.3-.7 0-1.3.6-1.3 1.3 0 .7.6 1.3 1.3 1.3ZM81 96c0-.7-.6-1.3-1.3-1.3-.7 0-1.3.6-1.3 1.3 0 .7.6 1.3 1.3 1.3.7 0 1.3-.6 1.3-1.3ZM79.7 86.6c.7 0 1.3-.6 1.3-1.3 0-.7-.6-1.3-1.3-1.3-.7 0-1.3.6-1.3 1.3 0 .7.6 1.3 1.3 1.3ZM79.7 75.9c.7 0 1.3-.6 1.3-1.3 0-.7-.6-1.3-1.3-1.3-.7 0-1.3.6-1.3 1.3 0 .7.6 1.3 1.3 1.3ZM79.7 83a1.3 1.3 0 1 0 0-2.6 1.3 1.3 0 0 0 0 2.6ZM83.3 86.6c.7 0 1.3-.6 1.3-1.3 0-.7-.6-1.3-1.3-1.3-.7 0-1.3.6-1.3 1.3 0 .7.6 1.3 1.3 1.3ZM19.3 234.1c-.3-.1-.6-.5-.7-.8 0-.2 0-.4.3-1.1 1.4-2.6 2-5.1 2-8 0-2.8-.5-5.1-1.8-7.7-.3-.6-.5-1.1-.5-1.2 0-.3.2-.7.5-.9.4-.2.9-.2 1.2.1.1.1.4.6.6 1 .9 1.8 1.6 3.8 1.9 5.9.2 1.3.2 3.8.1 4.9-.3 2.2-.9 4.1-1.8 6-.6 1.2-.9 1.6-1.2 1.6h-.2c-.1.2-.3.2-.4.2Zm-3.8-2c-.5-.1-.8-.7-.7-1.2 0-.1.3-.6.5-1.1 1-2.1 1.5-4.4 1.3-6.7-.2-1.8-.5-3-1.3-4.7-.6-1.1-.6-1.3-.3-1.8.3-.4 1.1-.5 1.5-.1.3.3 1.2 2.1 1.5 3.1 1.1 3.4.9 7.1-.5 10.4-.8 1.8-1.3 2.3-2 2.1Zm-3.9-2c-.3-.1-.6-.5-.6-.8 0-.2 0-.4.4-1.1 1.3-2.7 1.3-5.2 0-7.8-.6-1.1-.6-1.4-.1-1.8.2-.2.3-.3.7-.3.6 0 .8.3 1.3 1.3.8 1.6 1.1 2.9 1.1 4.7 0 1.8-.3 3-1.1 4.7-.5.9-.7 1.2-1.2 1.3-.1-.1-.4-.2-.5-.2Zm-3.7-1.9c-.2-.1-.5-.4-.6-.7-.1-.3 0-.6.3-1.2.5-.8.6-1.2.6-2.2 0-1-.1-1.4-.6-2.2-.2-.3-.3-.6-.3-.7-.1-.5.3-1.1.8-1.2.5-.1.8.1 1.2.8 1.3 2 1.3 4.6 0 6.6-.3.8-.8 1-1.4.8Z"/><path fill="#F26522" d="M124.7 205.9h-13.8v24.8h13.8v-24.8Z"/><path fill="#E51B24" d="M111.8 218.3c0-5 2.4-9.5 6-12.4-2.7-2.1-6.1-3.4-9.7-3.4-8.7 0-15.8 7.1-15.8 15.8 0 8.7 7.1 15.8 15.8 15.8 3.7 0 7.1-1.3 9.7-3.4-3.7-2.9-6-7.4-6-12.4Z"/><path fill="#fff" d="M141.8 228v-.5h.2v-.1h-.5v.1h.2v.5h.1Zm1 0v-.6h-.2l-.2.4-.2-.4h-.2v.6h.1v-.5l.2.4h.1l.2-.4v.5h.2Z"/><path fill="#F99F1C" d="M143.3 218.3c0 8.7-7.1 15.8-15.8 15.8-3.7 0-7.1-1.3-9.7-3.4 3.7-2.9 6-7.4 6-12.4s-2.4-9.5-6-12.4c2.7-2.1 6.1-3.4 9.7-3.4 8.7 0 15.8 7 15.8 15.8Z"/><path fill="url(#c)" d="M71.1 183.1c1.5 0 2.7 1.2 2.7 2.6V211c0 1.5-1.2 2.6-2.7 2.6H54c-1.5 0-2.7-1.2-2.7-2.6v-25.2c0-1.5 1.2-2.6 2.7-2.6h17.1v-.1Z"/><path stroke="#000" stroke-width=".5" d="M59.2 183.1v8.8c-5.2.8-7.8 4.8-7.8 4.8v2.7s2.5 4 7.8 4.8v9.5M66.3 183.1v9c3.9 0 7.5 4.5 7.5 4.5v2.8s-3.6 4.5-7.5 4.5v9.6"/><path fill="#000" d="M52.9 197.3c.4 0 .7.3.7.7 0 .4-.3.7-.7.7-.4 0-.7-.3-.7-.7 0-.4.3-.7.7-.7Z"/><path stroke="#000" stroke-width=".5" d="M59.2 204.1s1.4-.6 3.5-.6 3.6.5 3.6.5M59.2 192s1.4.6 3.5.6 3.6-.5 3.6-.5M51.6 204.2v8M73.5 204.2v8M51.6 184.1v7.9M73.5 184.1v7.9"/><path stroke="#D1D3D4" stroke-width=".3" d="M71.1 183.1c1.5 0 2.7 1.2 2.7 2.6V211c0 1.5-1.2 2.6-2.7 2.6H54c-1.5 0-2.7-1.2-2.7-2.6v-25.2c0-1.5 1.2-2.6 2.7-2.6h17.1v-.1Z"/><path fill="#fff" d="M35.8 25.7c0-.7-.2-1.3-.6-2l-3.1-5.3c-.2-.4-.4-.8-.5-1.3l-.1.2c-.8 1.3-.8 3 0 4.3l2.5 4.3c.8 1.3.8 3 0 4.3l-.1.2c-.1-.4-.3-.9-.5-1.3l-2.3-3.9-1.4-2.5c-.2-.4-.4-.8-.5-1.3l-.1.2c-.8 1.3-.8 2.9 0 4.3l2.5 4.3c.8 1.3.8 3 0 4.3l-.1.2c-.1-.4-.3-.9-.5-1.3L27.9 28c-.4-.7-.6-1.5-.6-2.3-3.3.9-5.6 2.7-5.6 4.8 0 3 4.4 5.3 9.9 5.3 5.4 0 9.9-2.4 9.9-5.3-.1-2.1-2.4-4-5.7-4.8Zm9.3 9.1c0-.8.1-1.3.4-1.9 1 .5 2.4.7 3.4.7 1.7 0 2.7-.6 2.7-1.6 0-1.1-.7-1.6-2.4-2.3l-.9-.4c-1.7-.8-2.9-1.7-2.9-3.7 0-2.1 1.5-3.5 4.5-3.5 1.2 0 2.3.2 3.4.5-.1.7-.2 1.3-.4 1.9-1-.4-2.2-.5-3-.5-1.6 0-2.4.6-2.4 1.6s.7 1.5 2 2.1l1 .4c2.4 1 3.3 2.1 3.3 3.9 0 2.1-1.6 3.6-4.8 3.6-1.6-.1-2.8-.3-3.9-.8Zm18.5-8.9v9.3h-1.9l-.1-1.1c-.5.8-1.3 1.3-2.6 1.3-2.4 0-4.1-1.8-4.1-4.9 0-3.3 1.7-5.1 5.2-5.1 1.4 0 2.5.2 3.5.5Zm-2 7.2v-5.8c-.4-.1-.9-.1-1.5-.1-2.1 0-3.1 1.3-3.1 3.4 0 1.9.8 3.2 2.6 3.2.8 0 1.5-.3 2-.7ZM74.1 29v6.2h-2v-5.9c0-1.5-.5-2.2-2.5-2.2-.5 0-1.1.1-1.6.1v7.9h-2v-9.3c1.3-.3 2.7-.5 3.7-.5 3.3.1 4.4 1.4 4.4 3.7Zm5.6 4.7c.6 0 1.1-.1 1.6-.3-.1.6-.1 1.2-.2 1.7-.6.2-1.1.3-1.7.3-2 0-3.2-.9-3.2-3.2v-9.7c.6-.2 1.4-.3 2-.3v3.5h3.2c0 .6-.1 1.2-.2 1.7h-3V32c0 1.2.5 1.7 1.5 1.7Zm11-7.8v9.3h-1.9l-.1-1.1c-.5.8-1.3 1.3-2.6 1.3-2.4 0-4.1-1.8-4.1-4.9 0-3.3 1.7-5.1 5.2-5.1 1.3 0 2.4.2 3.5.5Zm-2.1 7.2v-5.8c-.4-.1-.9-.1-1.5-.1-2.1 0-3.1 1.3-3.1 3.4 0 1.9.8 3.2 2.6 3.2.8 0 1.5-.3 2-.7Zm12.5-4.1v6.2h-2v-5.9c0-1.5-.5-2.2-2.5-2.2-.5 0-1.1.1-1.6.1v7.9h-2v-9.3c1.3-.3 2.7-.5 3.7-.5 3.3.1 4.4 1.4 4.4 3.7Zm10.3-6.8v13h-1.9l-.1-1.2c-.5.9-1.3 1.4-2.6 1.4-2.4 0-4.1-1.8-4.1-4.9 0-3.3 1.7-5.1 5.2-5.1.5 0 1 .1 1.5.1v-3.1c.6-.1 1.4-.2 2-.2Zm-2 10.9v-5.7c-.5-.1-1.1-.2-1.6-.2-2 0-3 1.3-3 3.4 0 1.9.8 3.2 2.6 3.2.8 0 1.4-.3 2-.7Zm12.3-1.9h-6.5c.3 1.6 1.2 2.4 3 2.4 1.1 0 2.2-.2 3.3-.7-.1.5-.2 1.2-.3 1.9-.9.4-1.9.6-3 .6-3.4 0-5.1-1.9-5.1-5.1 0-2.8 1.3-4.9 4.5-4.9 2.9 0 4.2 1.9 4.2 4.2 0 .6-.1 1.1-.1 1.6Zm-6.6-1.7h4.6c0-1.5-.8-2.4-2.2-2.4-1.5 0-2.2.9-2.4 2.4Zm13.7-4c0 .6-.1 1.4-.2 1.7-.5-.1-1-.1-1.5-.1s-1 0-1.5.1v7.9h-2v-9.3c.9-.3 2.3-.5 3.5-.5.5.1 1.2.1 1.7.2Z"/></g><defs><linearGradient id="b" x1="76.924" x2="76.484" y1="227.191" y2="44.291" gradientUnits="userSpaceOnUse"><stop stop-color="#002646"/><stop offset=".6" stop-color="#0D3757"/></linearGradient><linearGradient id="c" x1="72.205" x2="52.712" y1="185.522" y2="211.419" gradientUnits="userSpaceOnUse"><stop stop-color="#7A7A7A"/><stop offset=".304" stop-color="#fff"/><stop offset="1" stop-color="#7A7A7A"/></linearGradient><clipPath id="a"><rect width="151" height="241" fill="#fff" rx="10"/></clipPath></defs></svg>