<svg xmlns="http://www.w3.org/2000/svg" xmlns:xlink="http://www.w3.org/1999/xlink" width="266" height="168" viewBox="0 0 266 168">
  <defs>
    <rect id="big---1.-front-a" width="266" height="168" x="0" y="0" rx="10"/>
    <linearGradient id="big---1.-front-c" x1="50%" x2="50%" y1="100%" y2="0%">
      <stop offset="0%" stop-color="#424240"/>
      <stop offset="100%" stop-color="#424240"/>
    </linearGradient>
    <linearGradient id="big---1.-front-f" x1="45.377%" x2="27.08%" y1="19.765%" y2="92.496%">
      <stop offset="0%" stop-color="#FFF"/>
      <stop offset="29.221%" stop-color="#6A6A68"/>
      <stop offset="100%" stop-color="#3A3A38"/>
    </linearGradient>
    <path id="big---1.-front-e" d="M215.810619,46.9175532 L201.217504,22.0681538 C200.144582,20.1885871 199.285868,18.1005872 198.856825,16.011976 L198.212947,17.0565872 C194.564511,23.1121537 194.564511,30.8382424 198.212947,36.8944201 L210.01634,56.7316417 C213.664776,62.7878194 213.664776,70.5139081 210.01634,76.5694746 L209.372462,77.6140858 C208.943419,75.5254746 208.084704,73.4374747 207.011783,71.5579081 L196.281939,53.3905974 L189.41411,41.6969421 C188.341189,39.8173755 187.483103,37.7293756 187.053431,35.6413757 L186.409553,36.6853756 C182.761117,42.7409421 182.761117,50.2585975 186.409553,56.5232085 L198.212947,76.3610413 C201.861382,82.4166078 201.861382,90.1426965 198.212947,96.1988742 L197.569696,97.2428742 C197.140025,95.1548742 196.281939,93.0668743 195.209017,91.1873077 L180.400438,66.3379083 C178.469431,62.9962527 177.610716,59.2377306 177.610716,55.4785973 C161.945308,59.4467751 151,68.0078192 151,77.822519 C151,91.6047854 172.031273,102.671918 197.998111,102.671918 C223.965577,102.671918 244.99685,91.6047854 244.99685,77.822519 C245.211057,68.4259082 234.481214,59.8642528 218.600341,55.8966863 C218.385505,52.7640752 217.527419,49.6320753 215.810619,46.9175532 Z"/>
    <filter id="big---1.-front-d" width="130.9%" height="133.5%" x="-13.3%" y="-17.9%" filterUnits="objectBoundingBox">
      <feOffset dx="2" dy="-1" in="SourceAlpha" result="shadowOffsetOuter1"/>
      <feGaussianBlur in="shadowOffsetOuter1" result="shadowBlurOuter1" stdDeviation="4.5"/>
      <feColorMatrix in="shadowBlurOuter1" values="0 0 0 0 0   0 0 0 0 0   0 0 0 0 0  0 0 0 0.93159965 0"/>
    </filter>
  </defs>
  <g fill="none" fill-rule="evenodd">
    <mask id="big---1.-front-b" fill="#fff">
      <use xlink:href="#big---1.-front-a"/>
    </mask>
    <g mask="url(#big---1.-front-b)">
      <rect width="266" height="168" fill="#000"/>
      <path fill="#FFF" d="M25.9781642,19.3286443 C25.9533485,18.7520768 25.7929928,18.1801004 25.4963179,17.6631044 L22.879659,13.1025216 C22.6801323,12.7548342 22.5422553,12.3820641 22.4658053,12 L22.3564162,12.1904722 C21.7087614,13.3193083 21.7087614,14.7099456 22.3563049,15.8387817 L24.4497211,19.4872032 C25.0972646,20.6160392 25.0972646,22.0067886 24.4497211,23.1355127 L24.340332,23.3260968 C24.2637707,22.9439207 24.1258937,22.5712626 23.926367,22.2235753 L22.0099988,18.8834254 L20.7863541,16.7508311 C20.5868274,16.4031437 20.4490617,16.0303737 20.3723891,15.6483095 L20.2631113,15.8388937 C19.6176821,16.9638106 19.615679,18.3489611 20.2567683,19.4756696 L20.2565457,19.4757816 L22.3564162,23.1355127 C23.004071,24.2643488 23.004071,25.6550981 22.3564162,26.7839342 L22.2470271,26.9745183 C22.1704658,26.5923422 22.0325888,26.2196841 21.8330621,25.8718848 L19.2165145,21.3114139 C18.8655345,20.6996858 18.7051788,20.0111417 18.7345569,19.3290922 C15.9333943,20.0654503 14,21.6290915 14,23.4395291 C14,25.9582187 17.7412637,28 22.3564162,28 C26.9714574,28 30.7127211,25.9582187 30.7127211,23.4395291 C30.7127211,21.6290915 28.7795494,20.0650024 25.9781642,19.3286443"/>
      <path fill="url(#big---1.-front-c)" d="M199,0 L266,0 L266,168 L199,168 L198.576221,102.953515 C213.525407,89.1069007 221,78.2669271 221,70.4335938 C221,62.6002604 213.666667,48.8776042 199,29.265625 L199,0 Z"/>
      <g transform="translate(221 137)">
        <rect width="8.241" height="14.906" x="11.119" y="2.028" fill="#8C8D90"/>
        <path fill="#6D6E71" d="M11.6420905,9.48105386 C11.6420905,6.4523831 13.0548386,3.76608387 15.2262846,2.02789024 C13.6304025,0.763749411 11.6159285,-2.33625502e-06 9.41832046,-2.33625502e-06 C4.21208232,-2.33625502e-06 2.05751352e-07,4.24013667 2.05751352e-07,9.48105386 C2.05751352e-07,14.721971 4.21208232,18.96211 9.41832046,18.96211 C11.6159285,18.96211 13.6304025,18.1983583 15.2262846,16.9342175 C13.0548386,15.22236 11.6420905,12.5097246 11.6420905,9.48105386 Z"/>
        <path fill="#B6B6BA" d="M30.4787311,9.48105386 C30.4787311,14.721971 26.266649,18.96211 21.0604108,18.96211 C18.8628027,18.96211 16.8483286,18.1983583 15.2524467,16.9342175 C17.4500547,15.1960238 18.8366407,12.5097246 18.8366407,9.48105386 C18.8366407,6.4523831 17.4238926,3.76608387 15.2524467,2.02789024 C16.8483286,0.763749411 18.8628027,-2.33625502e-06 21.0604108,-2.33625502e-06 C26.266649,-2.33625502e-06 30.4787311,4.26647294 30.4787311,9.48105386 Z"/>
      </g>
      <use fill="#000" filter="url(#big---1.-front-d)" xlink:href="#big---1.-front-e"/>
      <use fill="url(#big---1.-front-f)" xlink:href="#big---1.-front-e"/>
    </g>
  </g>
</svg>
