<svg xmlns="http://www.w3.org/2000/svg" width="151" height="241" fill="none"><g clip-path="url(#a)"><rect width="151" height="241" fill="#fff" rx="10"/><path fill="#6B686D" d="M144.2 243H5.3c-3.9 0-7.1-3.2-7.1-7.1V6.3c0-3.9 3.2-7.1 7.1-7.1h138.9c3.9 0 7.1 3.2 7.1 7.1v229.6c0 4-3.2 7.1-7.1 7.1Z"/><path fill="#fff" d="M69.4 25.6c-1 0-2.4.2-3.7.5v9.3h2v-7.9c.6-.1 1.1-.1 1.6-.1 2 0 2.5.7 2.5 2.2v5.9h2v-6.2c.1-2.4-1-3.7-4.4-3.7Zm-14.6 5.1c0 3.1 1.6 4.9 4.1 4.9 1.3 0 2.1-.5 2.6-1.3l.1 1.1h1.9v-9.3c-1.1-.4-2.2-.5-3.5-.5-3.5 0-5.2 1.8-5.2 5.1Zm6.6 2.5c-.5.4-1.2.7-2 .7-1.8 0-2.6-1.3-2.6-3.2 0-2.1 1-3.4 3.1-3.4.6 0 1 0 1.5.1v5.8Zm-25.7-7.4c0-.7-.2-1.3-.6-2L32 18.5c-.2-.4-.4-.8-.5-1.3l-.1.2c-.8 1.3-.8 3 0 4.3l2.5 4.3c.8 1.3.8 3 0 4.3l-.1.2c-.1-.4-.3-.9-.5-1.3L31 25.3l-1.4-2.5c-.2-.4-.4-.8-.5-1.3l-.1.2c-.8 1.3-.8 2.9 0 4.3l2.5 4.3c.8 1.3.8 3 0 4.3l-.1.2c-.1-.4-.3-.9-.5-1.3l-3.1-5.3c-.4-.7-.6-1.5-.6-2.3-3.3.9-5.6 2.7-5.6 4.8 0 3 4.4 5.3 9.9 5.3 5.4 0 9.9-2.4 9.9-5.3-.2-2.2-2.4-4-5.7-4.9Zm73.5-.1c-.5-.1-1-.1-1.5-.1-3.4 0-5.2 1.9-5.2 5.1 0 3.1 1.6 4.9 4.1 4.9 1.3 0 2.1-.5 2.6-1.4l.1 1.2h1.9v-13c-.7 0-1.4.1-2 .3v3Zm0 7.5c-.6.4-1.2.7-2 .7-1.8 0-2.6-1.3-2.6-3.2 0-2.1 1-3.4 3-3.4.5 0 1.1.1 1.6.2v5.7Zm-59-5-1-.4c-1.3-.6-2-1.1-2-2.1s.7-1.6 2.4-1.6c.9 0 2 .2 3 .5.2-.5.3-1.1.4-1.9-1.1-.4-2.2-.5-3.4-.5-3 0-4.5 1.4-4.5 3.5 0 2 1.2 2.9 2.9 3.7l.9.4c1.7.8 2.4 1.3 2.4 2.3 0 1.1-1 1.6-2.7 1.6-1 0-2.4-.2-3.4-.7-.1.7-.2 1.2-.2 2 1 .5 2.3.7 3.8.7 3.1 0 4.8-1.5 4.8-3.6-.1-1.8-1.1-2.9-3.4-3.9Zm67.2-2.6c-3.2 0-4.5 2.2-4.5 4.9 0 3.2 1.6 5.1 5.1 5.1 1.1 0 2.1-.2 3-.6.1-.6.2-1.3.3-1.9-1 .5-2.1.7-3.3.7-1.8 0-2.8-.8-3-2.4h6.5c.1-.5.1-1 .1-1.6 0-2.3-1.3-4.2-4.2-4.2Zm-2.5 4.1c.2-1.6.9-2.4 2.4-2.4 1.4 0 2.2.9 2.2 2.4h-4.6ZM81 27.6c.1-.5.1-1.1.2-1.7H78v-3.5c-.6 0-1.4.1-2 .3v9.7c0 2.3 1.3 3.2 3.2 3.2.6 0 1.2-.1 1.7-.3.1-.5.2-1.2.2-1.7-.4.2-1 .3-1.6.3-1 0-1.6-.5-1.6-1.7v-4.5H81v-.1Zm15.4-2c-1 0-2.4.2-3.7.5v9.3h2v-7.9c.6-.1 1.1-.1 1.6-.1 2 0 2.5.7 2.5 2.2v5.9h2v-6.2c.1-2.4-1-3.7-4.4-3.7Zm-14.6 5.1c0 3.1 1.6 4.9 4.1 4.9 1.3 0 2.1-.5 2.6-1.3l.1 1.1h1.9v-9.3c-1.1-.4-2.2-.5-3.5-.5-3.5 0-5.2 1.8-5.2 5.1Zm6.6 2.5c-.5.4-1.2.7-2 .7-1.8 0-2.6-1.3-2.6-3.2 0-2.1 1-3.4 3.1-3.4.6 0 1 0 1.5.1v5.8Zm38.4-7.6c-1.1 0-2.6.2-3.5.5v9.3h2v-7.9c.5-.1 1-.1 1.5-.1.6 0 1.1 0 1.5.1.1-.4.2-1.1.2-1.7-.4-.2-1.1-.2-1.7-.2Z"/><path stroke="#fff" stroke-miterlimit="10" stroke-width=".25" d="M152.7 101.2H36.8v36.6H-2.3"/><path fill="#fff" stroke="#fff" stroke-width="2" d="M127.5 202.5c-3.7 0-7.1 1.3-9.8 3.4-2.7-2.1-6.1-3.4-9.8-3.4-8.7 0-15.8 7.1-15.8 15.8 0 8.7 7.1 15.8 15.8 15.8 3.7 0 7.1-1.3 9.8-3.4 2.7 2.1 6.1 3.4 9.8 3.4 8.7 0 15.8-7.1 15.8-15.8 0-8.7-7.1-15.8-15.8-15.8Z"/><path fill="#F16022" d="M124.6 205.9h-13.8v24.8h13.8v-24.8Z"/><path fill="#E91D25" d="M111.7 218.3c0-5 2.4-9.5 6-12.4-2.7-2.1-6.1-3.4-9.8-3.4-8.7 0-15.8 7.1-15.8 15.8 0 8.7 7.1 15.8 15.8 15.8 3.7 0 7.1-1.3 9.8-3.4-3.6-2.9-6-7.4-6-12.4Z"/><path fill="#F69E1E" d="M143.3 218.3c0 8.7-7.1 15.8-15.8 15.8-3.7 0-7.1-1.3-9.8-3.4 3.7-2.9 6-7.4 6-12.4s-2.4-9.5-6-12.4c2.7-2.1 6.1-3.4 9.8-3.4 8.7 0 15.8 7.1 15.8 15.8Z"/><path fill="#fff" d="M141.8 228.1v-.5h.2v-.1h-.5v.1h.2v.5h.1ZM142.8 228.1v-.6h-.2l-.1.4-.2-.4h-.2v.6h.1v-.5l.2.4h.1l.2-.4v.5h.1Z"/><path fill="url(#b)" d="M71.1 183.2c1.5 0 2.7 1.2 2.7 2.6V211c0 1.5-1.2 2.6-2.7 2.6H54c-1.5 0-2.7-1.2-2.7-2.6v-25.2c0-1.5 1.2-2.6 2.7-2.6h17.1Z"/><path stroke="#000" stroke-width=".5" d="M59.2 183.2v8.8c-5.2.8-7.8 4.8-7.8 4.8v2.7s2.5 4 7.8 4.8v9.5M66.3 183.2v9c3.9 0 7.5 4.5 7.5 4.5v2.8s-3.6 4.5-7.5 4.5v9.6"/><path fill="#000" d="M52.9 197.3c.4 0 .7.3.7.7 0 .4-.3.7-.7.7-.4 0-.7-.3-.7-.7 0-.3.3-.7.7-.7Z"/><path stroke="#000" stroke-width=".5" d="M59.2 204.2s1.4-.6 3.5-.6 3.6.5 3.6.5M59.2 192s1.4.6 3.5.6 3.6-.5 3.6-.5M51.6 204.3v7.9M73.5 204.3v7.9M51.6 184.2v7.9M73.5 184.2v7.9"/><path stroke="#D1D3D4" stroke-width=".3" d="M71.1 183.2c1.5 0 2.7 1.2 2.7 2.6V211c0 1.5-1.2 2.6-2.7 2.6H54c-1.5 0-2.7-1.2-2.7-2.6v-25.2c0-1.5 1.2-2.6 2.7-2.6h17.1Z"/><path fill="#fff" d="M19.3 234.1c-.3-.1-.6-.5-.7-.8 0-.2 0-.4.3-1.1 1.4-2.6 2-5.1 2-8 0-2.8-.5-5.1-1.8-7.7-.3-.6-.5-1.1-.5-1.2 0-.3.2-.7.5-.9.4-.2.9-.2 1.2.1.1.1.4.6.6 1 .9 1.8 1.6 3.8 1.9 5.9.2 1.3.2 3.7.1 4.9-.3 2.2-.9 4.1-1.8 6-.6 1.2-.9 1.6-1.2 1.6h-.2c-.1.2-.3.2-.4.2Zm-3.8-2c-.5-.1-.8-.7-.7-1.2 0-.1.3-.6.5-1.1 1-2.1 1.5-4.4 1.3-6.7-.2-1.8-.5-3-1.3-4.7-.6-1.1-.6-1.3-.3-1.8.3-.4 1.1-.5 1.5-.1.3.3 1.2 2.1 1.5 3.1 1.1 3.4.9 7.1-.5 10.4-.8 1.8-1.3 2.3-2 2.1Zm-3.9-2c-.3-.1-.6-.5-.6-.8 0-.2 0-.4.4-1.1 1.3-2.7 1.3-5.2 0-7.8-.6-1.1-.6-1.4-.1-1.8.2-.2.3-.3.7-.3.6 0 .8.3 1.3 1.3.8 1.6 1.1 2.9 1.1 4.7 0 1.8-.3 3-1.1 4.7-.5.9-.7 1.2-1.2 1.3-.1-.1-.4-.2-.5-.2Zm-3.7-1.9c-.2-.1-.5-.4-.6-.7-.1-.3 0-.6.3-1.2.5-.8.6-1.2.6-2.2 0-1-.1-1.4-.6-2.2-.2-.3-.3-.6-.3-.7-.1-.5.3-1.1.8-1.2.5-.1.8.1 1.2.8 1.3 2 1.3 4.6 0 6.6-.3.8-.8 1-1.4.8Z"/></g><defs><linearGradient id="b" x1="72.205" x2="52.712" y1="185.579" y2="211.477" gradientUnits="userSpaceOnUse"><stop stop-color="#7A7A7A"/><stop offset=".304" stop-color="#fff"/><stop offset="1" stop-color="#7A7A7A"/></linearGradient><clipPath id="a"><rect width="151" height="241" fill="#fff" rx="10"/></clipPath></defs></svg>