<svg xmlns="http://www.w3.org/2000/svg" xmlns:xlink="http://www.w3.org/1999/xlink" width="266" height="168" viewBox="0 0 266 168">
  <defs>
    <rect id="big---1.-front-a" width="266" height="168" x="0" y="0" rx="10"/>
    <linearGradient id="big---1.-front-c" x1="50%" x2="50%" y1="100%" y2="0%">
      <stop offset="0%" stop-color="#6C5C3B"/>
      <stop offset="100%" stop-color="#C4AA71"/>
    </linearGradient>
    <linearGradient id="big---1.-front-f" x1="50%" x2="26.89%" y1="9.859%" y2="76.614%">
      <stop offset="0%" stop-color="#D1B578"/>
      <stop offset="30.465%" stop-color="#BDA56E"/>
      <stop offset="46.075%" stop-color="#968357"/>
      <stop offset="100%" stop-color="#6C5C3B"/>
    </linearGradient>
    <path id="big---1.-front-e" d="M219.44203,43.8148073 L201.58875,13.419722 C200.276134,11.120689 199.225579,8.56670636 198.700686,6.01197605 L197.912962,7.28971503 C193.44945,14.6967133 193.44945,24.1470473 197.912962,31.5547933 L212.353284,55.8191239 C216.816796,63.2268699 216.816796,72.6772038 212.353284,80.0842021 L211.565561,81.3619411 C211.040667,78.8072108 209.990113,76.2532282 208.677496,73.9541952 L195.550559,51.7324526 L187.148428,37.4291029 C185.835812,35.13007 184.786026,32.5760873 184.260364,30.0221046 L183.47264,31.299096 C179.009128,38.7060943 179.009128,47.9014786 183.47264,55.5641742 L197.912962,79.8292525 C202.376474,87.2362508 202.376474,96.6865848 197.912962,104.094331 L197.126007,105.371322 C196.600345,102.817339 195.550559,100.263357 194.237943,97.9643237 L176.121064,67.5692385 C173.758661,63.4818195 172.708106,58.8845012 172.708106,54.2864352 C153.542979,59.1401985 140.152443,69.6118265 140.152443,81.6168908 C140.152443,98.4749708 165.882192,112.011976 197.650132,112.011976 C229.41884,112.011976 255.148589,98.4749708 255.148589,81.6168908 C255.410651,70.1232212 242.283714,59.6508455 222.854987,54.7978299 C222.592157,50.9661082 221.542371,47.1351342 219.44203,43.8148073 Z"/>
    <filter id="big---1.-front-d" width="127.8%" height="130.2%" x="-12.2%" y="-15.1%" filterUnits="objectBoundingBox">
      <feOffset dx="2" in="SourceAlpha" result="shadowOffsetOuter1"/>
      <feGaussianBlur in="shadowOffsetOuter1" result="shadowBlurOuter1" stdDeviation="5"/>
      <feColorMatrix in="shadowBlurOuter1" values="0 0 0 0 0.0901960784   0 0 0 0 0.0549019608   0 0 0 0 0.0235294118  0 0 0 0.6 0"/>
    </filter>
    <filter id="big---1.-front-g" width="119.1%" height="120.8%" x="-7.8%" y="-10.4%" filterUnits="objectBoundingBox">
      <feOffset dx="-2" dy="1" in="SourceAlpha" result="shadowOffsetInner1"/>
      <feComposite in="shadowOffsetInner1" in2="SourceAlpha" k2="-1" k3="1" operator="arithmetic" result="shadowInnerInner1"/>
      <feColorMatrix in="shadowInnerInner1" values="0 0 0 0 0.643137255   0 0 0 0 0.560784314   0 0 0 0 0.37254902  0 0 0 1 0"/>
    </filter>
  </defs>
  <g fill="none" fill-rule="evenodd">
    <mask id="big---1.-front-b" fill="#fff">
      <use xlink:href="#big---1.-front-a"/>
    </mask>
    <g mask="url(#big---1.-front-b)">
      <rect width="266" height="168" fill="#170E06"/>
      <path fill="#D1B578" d="M25.9781642,19.3286443 C25.9533485,18.7520768 25.7929928,18.1801004 25.4963179,17.6631044 L22.879659,13.1025216 C22.6801323,12.7548342 22.5422553,12.3820641 22.4658053,12 L22.3564162,12.1904722 C21.7087614,13.3193083 21.7087614,14.7099456 22.3563049,15.8387817 L24.4497211,19.4872032 C25.0972646,20.6160392 25.0972646,22.0067886 24.4497211,23.1355127 L24.340332,23.3260968 C24.2637707,22.9439207 24.1258937,22.5712626 23.926367,22.2235753 L22.0099988,18.8834254 L20.7863541,16.7508311 C20.5868274,16.4031437 20.4490617,16.0303737 20.3723891,15.6483095 L20.2631113,15.8388937 C19.6176821,16.9638106 19.615679,18.3489611 20.2567683,19.4756696 L20.2565457,19.4757816 L22.3564162,23.1355127 C23.004071,24.2643488 23.004071,25.6550981 22.3564162,26.7839342 L22.2470271,26.9745183 C22.1704658,26.5923422 22.0325888,26.2196841 21.8330621,25.8718848 L19.2165145,21.3114139 C18.8655345,20.6996858 18.7051788,20.0111417 18.7345569,19.3290922 C15.9333943,20.0654503 14,21.6290915 14,23.4395291 C14,25.9582187 17.7412637,28 22.3564162,28 C26.9714574,28 30.7127211,25.9582187 30.7127211,23.4395291 C30.7127211,21.6290915 28.7795494,20.0650024 25.9781642,19.3286443"/>
      <path fill="url(#big---1.-front-c)" d="M199,0 L266,0 L266,168 L199,168 L198.576221,107.736 C215.552751,93.7453333 224.041016,82.8333333 224.041016,75 C224.041016,67.1666667 215.69401,51.921875 199,29.265625 L199,0 Z"/>
      <g transform="translate(221 137)">
        <rect width="8.241" height="14.906" x="11.119" y="2.028" fill="#FF5F00"/>
        <path fill="#EB001B" d="M11.6420905,9.48105386 C11.6420905,6.4523831 13.0548386,3.76608387 15.2262846,2.02789024 C13.6304025,0.763749411 11.6159285,-2.33625502e-06 9.41832046,-2.33625502e-06 C4.21208232,-2.33625502e-06 2.05751352e-07,4.24013667 2.05751352e-07,9.48105386 C2.05751352e-07,14.721971 4.21208232,18.96211 9.41832046,18.96211 C11.6159285,18.96211 13.6304025,18.1983583 15.2262846,16.9342175 C13.0548386,15.22236 11.6420905,12.5097246 11.6420905,9.48105386 Z"/>
        <path fill="#F79E1B" d="M30.4787311,9.48105386 C30.4787311,14.721971 26.266649,18.96211 21.0604108,18.96211 C18.8628027,18.96211 16.8483286,18.1983583 15.2524467,16.9342175 C17.4500547,15.1960238 18.8366407,12.5097246 18.8366407,9.48105386 C18.8366407,6.4523831 17.4238926,3.76608387 15.2524467,2.02789024 C16.8483286,0.763749411 18.8628027,-2.33625502e-06 21.0604108,-2.33625502e-06 C26.266649,-2.33625502e-06 30.4787311,4.26647294 30.4787311,9.48105386 Z"/>
      </g>
      <use fill="#000" filter="url(#big---1.-front-d)" xlink:href="#big---1.-front-e"/>
      <use fill="url(#big---1.-front-f)" xlink:href="#big---1.-front-e"/>
      <use fill="#000" filter="url(#big---1.-front-g)" xlink:href="#big---1.-front-e"/>
    </g>
  </g>
</svg>
