<svg xmlns="http://www.w3.org/2000/svg" xmlns:xlink="http://www.w3.org/1999/xlink" width="266" height="168" viewBox="0 0 266 168">
  <defs>
    <rect id="big---1.-front-a" width="266" height="168" x="0" y="0" rx="10"/>
    <linearGradient id="big---1.-front-c" x1="37.565%" x2="37.565%" y1="0%" y2="100%">
      <stop offset="0%" stop-color="#FFF"/>
      <stop offset="100%" stop-color="#F8F8F8"/>
    </linearGradient>
    <linearGradient id="big---1.-front-d" x1="50%" x2="50%" y1="100%" y2="0%">
      <stop offset="0%" stop-color="#A90000"/>
      <stop offset="100%" stop-color="#DA0000"/>
    </linearGradient>
  </defs>
  <g fill="none" fill-rule="evenodd">
    <mask id="big---1.-front-b" fill="#fff">
      <use xlink:href="#big---1.-front-a"/>
    </mask>
    <g mask="url(#big---1.-front-b)">
      <rect width="266" height="168" fill="url(#big---1.-front-c)"/>
      <path fill="#EC0000" d="M25.9781642,19.3286443 C25.9533485,18.7520768 25.7929928,18.1801004 25.4963179,17.6631044 L22.879659,13.1025216 C22.6801323,12.7548342 22.5422553,12.3820641 22.4658053,12 L22.3564162,12.1904722 C21.7087614,13.3193083 21.7087614,14.7099456 22.3563049,15.8387817 L24.4497211,19.4872032 C25.0972646,20.6160392 25.0972646,22.0067886 24.4497211,23.1355127 L24.340332,23.3260968 C24.2637707,22.9439207 24.1258937,22.5712626 23.926367,22.2235753 L22.0099988,18.8834254 L20.7863541,16.7508311 C20.5868274,16.4031437 20.4490617,16.0303737 20.3723891,15.6483095 L20.2631113,15.8388937 C19.6176821,16.9638106 19.615679,18.3489611 20.2567683,19.4756696 L20.2565457,19.4757816 L22.3564162,23.1355127 C23.004071,24.2643488 23.004071,25.6550981 22.3564162,26.7839342 L22.2470271,26.9745183 C22.1704658,26.5923422 22.0325888,26.2196841 21.8330621,25.8718848 L19.2165145,21.3114139 C18.8655345,20.6996858 18.7051788,20.0111417 18.7345569,19.3290922 C15.9333943,20.0654503 14,21.6290915 14,23.4395291 C14,25.9582187 17.7412637,28 22.3564162,28 C26.9714574,28 30.7127211,25.9582187 30.7127211,23.4395291 C30.7127211,21.6290915 28.7795494,20.0650024 25.9781642,19.3286443"/>
      <rect width="67" height="168" x="199" fill="url(#big---1.-front-d)"/>
      <path fill="#EC0000" d="M202.499946,57.5842837 L186.175459,29.7866769 C184.975243,27.6841128 184.014649,25.3483863 183.534703,23.011976 L182.814432,24.1805231 C178.733135,30.9545402 178.733135,39.5972752 182.814432,46.371976 L196.018216,68.5627453 C200.099514,75.3374461 200.099514,83.9801812 196.018216,90.7541983 L195.297946,91.9227453 C194.818,89.586335 193.857405,87.2506085 192.657189,85.1480444 L180.654324,64.8253094 L172.971676,51.7442837 C171.771459,49.6417196 170.811568,47.3059931 170.330919,44.9702666 L169.610649,46.1381299 C165.529351,52.912147 165.529351,61.3217196 169.610649,68.3295829 L182.814432,90.5210359 C186.89573,97.295053 186.89573,105.937788 182.814432,112.712489 L182.094865,113.880352 C181.614216,111.544626 180.654324,109.208899 179.454108,107.106335 L162.888595,79.3087282 C160.728486,75.5706085 159.767892,71.3661641 159.767892,67.1610359 C142.243892,71.6000102 130,81.1767624 130,92.1559077 C130,107.573344 153.526486,119.953515 182.574108,119.953515 C211.622432,119.953515 235.148919,107.573344 235.148919,92.1559077 C235.388541,81.6444547 223.385676,72.0670188 205.620649,67.6287282 C205.380324,64.1244547 204.420432,60.6208649 202.499946,57.5842837 Z" opacity=".4"/>
      <g transform="translate(221 137)">
        <rect width="8.241" height="14.906" x="11.119" y="2.028" fill="#FF5F00"/>
        <path fill="#EB001B" d="M11.6420905,9.48105386 C11.6420905,6.4523831 13.0548386,3.76608387 15.2262846,2.02789024 C13.6304025,0.763749411 11.6159285,-2.33625502e-06 9.41832046,-2.33625502e-06 C4.21208232,-2.33625502e-06 2.05751352e-07,4.24013667 2.05751352e-07,9.48105386 C2.05751352e-07,14.721971 4.21208232,18.96211 9.41832046,18.96211 C11.6159285,18.96211 13.6304025,18.1983583 15.2262846,16.9342175 C13.0548386,15.22236 11.6420905,12.5097246 11.6420905,9.48105386 Z"/>
        <path fill="#F79E1B" d="M30.4787311,9.48105386 C30.4787311,14.721971 26.266649,18.96211 21.0604108,18.96211 C18.8628027,18.96211 16.8483286,18.1983583 15.2524467,16.9342175 C17.4500547,15.1960238 18.8366407,12.5097246 18.8366407,9.48105386 C18.8366407,6.4523831 17.4238926,3.76608387 15.2524467,2.02789024 C16.8483286,0.763749411 18.8628027,-2.33625502e-06 21.0604108,-2.33625502e-06 C26.266649,-2.33625502e-06 30.4787311,4.26647294 30.4787311,9.48105386 Z"/>
      </g>
    </g>
  </g>
</svg>
