<svg xmlns="http://www.w3.org/2000/svg" xmlns:xlink="http://www.w3.org/1999/xlink" width="266" height="168" viewBox="0 0 266 168">
  <defs>
    <polygon id="big---2.-back-a" points="0 0 266 0 266 168 0 168"/>
    <linearGradient id="big---2.-back-b" x1="37.565%" x2="37.565%" y1="0%" y2="100%">
      <stop offset="0%" stop-color="#FFF"/>
      <stop offset="100%" stop-color="#F8F8F8"/>
    </linearGradient>
  </defs>
  <g fill="none" fill-rule="evenodd">
    <mask id="big---2.-back-c" fill="#fff">
      <use xlink:href="#big---2.-back-a"/>
    </mask>
    <rect width="265.203" height="168" fill="url(#big---2.-back-b)" mask="url(#big---2.-back-c)" rx="11"/>
    <rect width="267.004" height="16" y="24" fill="#D0D0D0" mask="url(#big---2.-back-c)"/>
    <path fill="#000" d="M228.238702,109.137561 C228.067425,106.534882 227.383319,103.932711 226.014607,101.677395 L214.380297,81.0316765 C213.524914,79.4700692 212.840307,77.7352885 212.498254,76 L211.984924,76.8678982 C209.076222,81.8990668 209.076222,88.3181616 211.984924,93.3498381 L221.395138,109.83127 C224.303841,114.862947 224.303841,121.282042 221.395138,126.31321 L220.881808,127.181108 C220.539755,125.44582 219.855148,123.711039 218.999765,122.149432 L210.445435,107.055418 L204.970083,97.3399353 C204.1147,95.7783279 203.430594,94.0435473 203.08804,92.3087666 L202.57471,93.1761569 C199.666008,98.2073256 199.666008,104.453247 202.57471,109.658097 L211.984924,126.140037 C214.893627,131.171205 214.893627,137.5903 211.984924,142.621977 L211.472095,143.489367 C211.129541,141.754586 210.445435,140.019806 209.590052,138.458198 L197.783965,117.81248 C196.244476,115.03612 195.559869,111.913413 195.559869,108.790199 C183.070677,112.087095 174.344569,119.199898 174.344569,127.354282 C174.344569,138.805053 191.111677,148 211.813647,148 C232.516118,148 249.283226,138.805053 249.283226,127.354282 C249.454002,119.547261 240.899672,112.433949 228.238702,109.137561" mask="url(#big---2.-back-c)" opacity=".05"/>
  </g>
</svg>
