<svg xmlns="http://www.w3.org/2000/svg" width="266" height="168" viewBox="0 0 266 168">
  <defs>
    <linearGradient id="big---2.-back-a" x1="52.013%" x2="52.013%" y1="0%" y2="99.215%">
      <stop offset="0%" stop-color="#AA8E60"/>
      <stop offset="100%" stop-color="#81673A"/>
    </linearGradient>
    <linearGradient id="big---2.-back-b" x1="3.215%" x2="100%" y1="50.167%" y2="49.819%">
      <stop offset="0%" stop-color="#3B3B3B"/>
      <stop offset="48.799%" stop-color="#77777A"/>
      <stop offset="100%" stop-color="#525154"/>
    </linearGradient>
  </defs>
  <g fill="none" fill-rule="evenodd">
    <rect width="266" height="168" fill="#D1D1D0" rx="10"/>
    <rect width="266" height="168" fill="url(#big---2.-back-a)" rx="10"/>
    <path fill="#FFF" d="M233.096743,110.137561 C232.924822,107.534882 232.238144,104.932711 230.864286,102.677395 L219.186238,82.0316765 C218.327639,80.4700692 217.640459,78.7352885 217.29712,77 L216.78186,77.8678982 C213.862222,82.8990668 213.862222,89.3181616 216.78186,94.3498381 L226.227451,110.83127 C229.147088,115.862947 229.147088,122.282042 226.227451,127.31321 L225.712191,128.181108 C225.368852,126.44582 224.681671,124.711039 223.823073,123.149432 L215.236583,108.055418 L209.740647,98.3399353 C208.882049,96.7783279 208.195371,95.0435473 207.851529,93.3087666 L207.336269,94.1761569 C204.416632,99.2073256 204.416632,105.453247 207.336269,110.658097 L216.78186,127.140037 C219.701498,132.171205 219.701498,138.5903 216.78186,143.621977 L216.267103,144.489367 C215.923261,142.754586 215.236583,141.019806 214.377985,139.458198 L202.527514,118.81248 C200.982237,116.03612 200.295057,112.913413 200.295057,109.790199 C187.758913,113.087095 179,120.199898 179,128.354282 C179,139.805053 195.830142,149 216.609939,149 C237.390239,149 254.220381,139.805053 254.220381,128.354282 C254.391799,120.547261 245.80531,113.433949 233.096743,110.137561" opacity=".16" style="mix-blend-mode:lighten"/>
    <rect width="266" height="16" y="24" fill="url(#big---2.-back-b)" fill-opacity=".4" style="mix-blend-mode:multiply"/>
  </g>
</svg>
