<svg xmlns="http://www.w3.org/2000/svg" width="151" height="241" fill="none"><g clip-path="url(#a)"><rect width="151" height="241" fill="#fff" rx="10"/><path fill="url(#b)" d="M162.1-7.7h-171v256.1h171V-7.7Z"/><g fill="#fff" opacity=".41"><path d="M2.7 170.1a1.9 1.9 0 1 0 0-3.8 1.9 1.9 0 0 0 0 3.8ZM4.5 160.5c0-1-.8-1.8-1.8-1.8s-1.8.8-1.8 1.8.8 1.8 1.8 1.8c1-.1 1.8-.8 1.8-1.8ZM4.3 152.8c0-.9-.7-1.6-1.6-1.6-.9 0-1.6.7-1.6 1.6 0 .9.7 1.6 1.6 1.6.9-.1 1.6-.8 1.6-1.6ZM3.9 145c0-.6-.5-1.1-1.2-1.1-.6 0-1.2.5-1.2 1.1 0 .7.5 1.2 1.2 1.2s1.2-.6 1.2-1.2ZM3.8 137.3c0-.6-.5-1.2-1.1-1.2-.6 0-1.1.5-1.1 1.2 0 .6.5 1.1 1.1 1.1.6 0 1.1-.5 1.1-1.1ZM3.8 129.5c0-.6-.5-1.1-1.1-1.1-.6 0-1.1.5-1.1 1.1 0 .6.5 1.1 1.1 1.1.6 0 1.1-.5 1.1-1.1ZM3.7 121.8c0-.5-.4-1-.9-1s-.9.4-.9 1c0 .5.4.9.9.9.4 0 .9-.4.9-.9ZM3.7 114c0-.5-.4-.9-.9-.9s-.9.4-.9.9.4.9.9.9c.4 0 .9-.4.9-.9ZM12.4 176c0-1.1-.9-2-2-2s-2 .9-2 2 .9 2 2 2c1.2 0 2-.9 2-2ZM10.5 170.1a1.9 1.9 0 1 0 0-3.8 1.9 1.9 0 0 0 0 3.8ZM12.3 160.5c0-1-.8-1.8-1.8-1.8s-1.8.8-1.8 1.8.8 1.8 1.8 1.8 1.8-.8 1.8-1.8ZM12.1 152.8c0-.9-.7-1.6-1.6-1.6-.9 0-1.6.7-1.6 1.6 0 .9.7 1.6 1.6 1.6.9 0 1.6-.7 1.6-1.6ZM11.8 145c0-.7-.6-1.3-1.3-1.3-.7 0-1.3.6-1.3 1.3 0 .7.6 1.3 1.3 1.3.7 0 1.3-.6 1.3-1.3ZM11.8 137.3c0-.7-.6-1.3-1.3-1.3-.7 0-1.3.6-1.3 1.3 0 .7.6 1.3 1.3 1.3.7-.1 1.3-.6 1.3-1.3ZM11.6 129.5c0-.6-.5-1.2-1.1-1.2-.7 0-1.2.5-1.2 1.2s.5 1.2 1.2 1.2c.6 0 1.1-.5 1.1-1.2ZM20.2 176c0-1.1-.9-2-2-2s-2 .9-2 2 .9 2 2 2 2-.9 2-2ZM18.2 170.1a1.9 1.9 0 1 0 0-3.8 1.9 1.9 0 0 0 0 3.8ZM19.9 160.5c0-.9-.7-1.7-1.7-1.7-.9 0-1.7.7-1.7 1.7 0 .9.7 1.7 1.7 1.7.9 0 1.7-.8 1.7-1.7ZM19.8 152.8c0-.9-.7-1.6-1.6-1.6-.9 0-1.6.7-1.6 1.6 0 .9.7 1.6 1.6 1.6.9 0 1.6-.8 1.6-1.6ZM19.7 145c0-.8-.6-1.4-1.4-1.4-.8 0-1.5.7-1.5 1.4 0 .8.7 1.5 1.5 1.5s1.4-.7 1.4-1.5ZM19.5 137.3c0-.7-.6-1.3-1.3-1.3-.7 0-1.3.6-1.3 1.3 0 .7.6 1.3 1.3 1.3.7-.1 1.3-.6 1.3-1.3ZM19.4 129.5c0-.7-.5-1.2-1.2-1.2s-1.2.5-1.2 1.2.5 1.2 1.2 1.2 1.2-.5 1.2-1.2ZM27.7 183.7c0-1-.8-1.8-1.8-1.8s-1.8.8-1.8 1.8.8 1.8 1.8 1.8c1.1 0 1.8-.8 1.8-1.8ZM27.8 176c0-1-.8-1.8-1.9-1.8-1 0-1.8.8-1.8 1.8s.8 1.8 1.8 1.8c1.1 0 1.9-.8 1.9-1.8ZM27.8 168.2c0-1-.8-1.9-1.9-1.9-1 0-1.8.9-1.8 1.9 0 1 .8 1.8 1.8 1.8 1.1.1 1.9-.7 1.9-1.8ZM27.6 160.5c0-.9-.7-1.6-1.6-1.6-.9 0-1.6.7-1.6 1.6 0 .9.7 1.6 1.6 1.6.8 0 1.6-.7 1.6-1.6ZM27.6 152.8c0-.9-.7-1.6-1.6-1.6-.9 0-1.6.7-1.6 1.6 0 .9.7 1.6 1.6 1.6.8 0 1.6-.8 1.6-1.6ZM27.4 145c0-.8-.7-1.4-1.5-1.4s-1.4.7-1.4 1.4c0 .8.7 1.5 1.4 1.5.9 0 1.5-.7 1.5-1.5ZM27.4 137.3c0-.8-.7-1.5-1.5-1.5s-1.4.7-1.4 1.5.7 1.4 1.4 1.4c.9 0 1.5-.7 1.5-1.4ZM27.3 129.5c0-.7-.6-1.3-1.3-1.3-.7 0-1.3.6-1.3 1.3 0 .7.6 1.3 1.3 1.3.7 0 1.3-.6 1.3-1.3ZM25.9 122.9a1.1 1.1 0 1 0 0-2.2 1.1 1.1 0 0 0 0 2.2ZM35.4 183.7c0-.9-.7-1.7-1.7-1.7-.9 0-1.7.7-1.7 1.7 0 .9.7 1.7 1.7 1.7.9 0 1.7-.8 1.7-1.7ZM35.4 176c0-.9-.8-1.7-1.7-1.7-1 0-1.7.8-1.7 1.7 0 .9.7 1.7 1.7 1.7.9 0 1.7-.8 1.7-1.7ZM35.4 168.2c0-1-.8-1.7-1.7-1.7-1 0-1.7.7-1.7 1.7 0 .9.7 1.7 1.7 1.7.9.1 1.7-.7 1.7-1.7ZM35.2 160.5c0-.9-.7-1.5-1.5-1.5-.9 0-1.6.7-1.6 1.5 0 .9.7 1.6 1.6 1.6.9-.1 1.5-.8 1.5-1.6ZM35.3 152.8c0-.9-.7-1.6-1.6-1.6-.9 0-1.6.7-1.6 1.6 0 .9.7 1.6 1.6 1.6.9-.1 1.6-.8 1.6-1.6ZM35.2 145c0-.9-.7-1.5-1.5-1.5-.9 0-1.6.7-1.6 1.5 0 .9.7 1.6 1.6 1.6.9-.1 1.5-.8 1.5-1.6ZM35.3 137.3c0-.9-.7-1.6-1.6-1.6-.9 0-1.6.7-1.6 1.6 0 .9.7 1.6 1.6 1.6.9-.1 1.6-.8 1.6-1.6ZM35.1 129.5c0-.8-.6-1.4-1.4-1.4-.8 0-1.4.6-1.4 1.4 0 .8.6 1.4 1.4 1.4.8 0 1.4-.6 1.4-1.4ZM34.9 121.8c0-.7-.5-1.2-1.2-1.2s-1.2.5-1.2 1.2.5 1.2 1.2 1.2 1.2-.6 1.2-1.2ZM34.8 114c0-.6-.5-1.1-1.1-1.1-.6 0-1.1.5-1.1 1.1 0 .6.5 1.1 1.1 1.1.6 0 1.1-.5 1.1-1.1ZM43 183.7c0-.9-.7-1.6-1.6-1.6-.9 0-1.6.7-1.6 1.6 0 .9.7 1.5 1.6 1.5.9.1 1.6-.6 1.6-1.5ZM43 176c0-.9-.7-1.6-1.6-1.6-.9 0-1.6.7-1.6 1.6 0 .9.7 1.6 1.6 1.6.9 0 1.6-.7 1.6-1.6ZM43 168.2c0-.9-.7-1.6-1.6-1.6-.9 0-1.6.7-1.6 1.6 0 .9.7 1.6 1.6 1.6.9 0 1.6-.7 1.6-1.6ZM42.8 160.5c0-.8-.6-1.4-1.4-1.4-.8 0-1.4.6-1.4 1.4 0 .8.6 1.4 1.4 1.4.8 0 1.4-.6 1.4-1.4ZM43 152.8c0-.9-.7-1.5-1.5-1.5s-1.5.7-1.5 1.5.7 1.5 1.5 1.5 1.5-.7 1.5-1.5ZM43 145c0-.9-.7-1.5-1.6-1.5-.9 0-1.6.7-1.6 1.5 0 .9.7 1.6 1.6 1.6.9-.1 1.6-.8 1.6-1.6ZM43 137.3c0-.9-.7-1.6-1.6-1.6-.9 0-1.6.7-1.6 1.6 0 .9.7 1.6 1.6 1.6.9-.1 1.6-.8 1.6-1.6ZM43 129.5c0-.9-.7-1.6-1.6-1.6-.9 0-1.6.7-1.6 1.6 0 .9.7 1.6 1.6 1.6.9 0 1.6-.7 1.6-1.6ZM42.7 121.8c0-.7-.5-1.2-1.2-1.2s-1.2.5-1.2 1.2.5 1.2 1.2 1.2c.6 0 1.2-.6 1.2-1.2ZM41.4 115.1a1.1 1.1 0 1 0 0-2.2 1.1 1.1 0 0 0 0 2.2ZM50.6 183.7c0-.8-.7-1.4-1.5-1.4s-1.4.6-1.4 1.4c0 .8.6 1.4 1.4 1.4.9.1 1.5-.6 1.5-1.4ZM50.6 176c0-.8-.7-1.4-1.5-1.4s-1.4.6-1.4 1.4c0 .8.7 1.5 1.4 1.5.9 0 1.5-.7 1.5-1.5ZM50.5 168.2c0-.7-.6-1.3-1.3-1.3-.7 0-1.3.6-1.3 1.3 0 .7.6 1.3 1.3 1.3.7 0 1.3-.6 1.3-1.3ZM50.5 160.5c0-.7-.6-1.3-1.4-1.3-.7 0-1.3.6-1.3 1.3 0 .7.6 1.4 1.3 1.4.8-.1 1.4-.7 1.4-1.4ZM50.6 152.8c0-.8-.7-1.4-1.5-1.4s-1.4.6-1.4 1.4c0 .8.6 1.4 1.4 1.4.9 0 1.5-.7 1.5-1.4ZM50.6 145c0-.8-.7-1.4-1.5-1.4s-1.4.7-1.4 1.4c0 .8.6 1.4 1.4 1.4.9 0 1.5-.6 1.5-1.4ZM50.7 137.3c0-.8-.7-1.5-1.5-1.5s-1.4.7-1.4 1.5.6 1.5 1.4 1.5c.8-.1 1.5-.7 1.5-1.5ZM50.7 129.5c0-.8-.7-1.5-1.5-1.5s-1.4.7-1.4 1.5.6 1.5 1.4 1.5c.8 0 1.5-.7 1.5-1.5ZM50.4 121.8c0-.7-.6-1.3-1.3-1.3-.7 0-1.2.6-1.2 1.3 0 .7.6 1.2 1.2 1.2.8 0 1.3-.5 1.3-1.2ZM58.2 183.7c0-.7-.6-1.3-1.3-1.3-.7 0-1.3.6-1.3 1.3 0 .7.6 1.3 1.3 1.3.7 0 1.3-.6 1.3-1.3ZM58.2 176c0-.7-.6-1.3-1.3-1.3-.7 0-1.3.6-1.3 1.3 0 .7.6 1.3 1.3 1.3.7 0 1.3-.6 1.3-1.3ZM58.1 168.2c0-.7-.5-1.2-1.2-1.2s-1.2.5-1.2 1.2.5 1.2 1.2 1.2c.7.1 1.2-.5 1.2-1.2ZM58.2 160.5c0-.7-.6-1.3-1.3-1.3-.7 0-1.3.6-1.3 1.3 0 .7.6 1.3 1.3 1.3.7 0 1.3-.6 1.3-1.3ZM58.3 152.8c0-.7-.6-1.4-1.3-1.4-.7 0-1.3.6-1.3 1.4 0 .8.6 1.3 1.3 1.3.7 0 1.3-.6 1.3-1.3ZM58.3 145c0-.7-.6-1.3-1.3-1.3-.7 0-1.3.6-1.3 1.3 0 .7.6 1.3 1.3 1.3.7 0 1.3-.6 1.3-1.3ZM58.3 137.3c0-.8-.6-1.4-1.4-1.4-.8 0-1.4.7-1.4 1.4 0 .8.6 1.4 1.4 1.4.8 0 1.4-.7 1.4-1.4ZM58.3 129.5c0-.8-.6-1.4-1.4-1.4-.8 0-1.4.6-1.4 1.4 0 .8.6 1.4 1.4 1.4.8 0 1.4-.6 1.4-1.4ZM58.2 121.8c0-.7-.6-1.3-1.3-1.3-.7 0-1.3.6-1.3 1.3 0 .7.6 1.3 1.3 1.3.7 0 1.3-.6 1.3-1.3ZM65.8 183.7c0-.6-.5-1.2-1.2-1.2-.6 0-1.1.5-1.1 1.2 0 .6.5 1.1 1.1 1.1.7.1 1.2-.4 1.2-1.1ZM65.7 176c0-.6-.5-1.1-1.1-1.1-.6 0-1.1.5-1.1 1.1 0 .6.5 1.1 1.1 1.1.6-.1 1.1-.5 1.1-1.1ZM65.8 168.2c0-.6-.5-1.2-1.2-1.2-.6 0-1.1.5-1.1 1.2 0 .6.5 1.1 1.1 1.1.7.1 1.2-.4 1.2-1.1ZM65.9 160.5c0-.7-.5-1.2-1.2-1.2s-1.2.5-1.2 1.2.5 1.2 1.2 1.2 1.2-.6 1.2-1.2ZM65.9 152.8c0-.7-.5-1.3-1.3-1.3-.7 0-1.3.5-1.3 1.3 0 .7.6 1.3 1.3 1.3.8-.1 1.3-.6 1.3-1.3ZM65.9 145c0-.7-.5-1.3-1.3-1.3-.7 0-1.3.6-1.3 1.3 0 .7.6 1.3 1.3 1.3.8 0 1.3-.6 1.3-1.3ZM66 137.3c0-.7-.6-1.3-1.3-1.3-.7 0-1.3.6-1.3 1.3 0 .7.6 1.3 1.3 1.3.7-.1 1.3-.6 1.3-1.3ZM66 129.5c0-.7-.6-1.3-1.3-1.3-.7 0-1.3.6-1.3 1.3 0 .7.6 1.3 1.3 1.3.7 0 1.3-.6 1.3-1.3ZM65.9 121.8c0-.7-.6-1.3-1.3-1.3-.7 0-1.2.6-1.2 1.3 0 .7.5 1.2 1.2 1.2.8 0 1.3-.5 1.3-1.2ZM73.4 183.7c0-.5-.4-1-1-1-.5 0-1 .5-1 1s.5 1 1 1 1-.4 1-1ZM73.4 176c0-.5-.4-1-1-1-.5 0-1 .4-1 1 0 .5.4 1 1 1 .5 0 1-.5 1-1ZM73.5 168.2c0-.6-.5-1.1-1.1-1.1-.6 0-1.1.5-1.1 1.1 0 .6.5 1.1 1.1 1.1.6 0 1.1-.5 1.1-1.1ZM73.6 160.5c0-.6-.5-1.2-1.2-1.2-.6 0-1.1.5-1.1 1.2s.5 1.2 1.1 1.2c.6 0 1.2-.6 1.2-1.2ZM73.6 152.8c0-.7-.5-1.2-1.2-1.2-.6 0-1.2.5-1.2 1.2s.5 1.2 1.2 1.2 1.2-.6 1.2-1.2ZM73.7 145c0-.7-.5-1.2-1.3-1.2-.7 0-1.3.5-1.3 1.2s.6 1.3 1.3 1.3c.7 0 1.3-.6 1.3-1.3ZM73.6 137.3c0-.7-.5-1.2-1.2-1.2s-1.2.5-1.2 1.2.5 1.2 1.2 1.2 1.2-.6 1.2-1.2ZM73.6 129.5c0-.7-.5-1.2-1.2-1.2s-1.2.5-1.2 1.2.5 1.2 1.2 1.2 1.2-.5 1.2-1.2ZM73.7 121.8c0-.7-.5-1.3-1.3-1.3-.7 0-1.3.6-1.3 1.3 0 .7.6 1.2 1.3 1.2.7 0 1.3-.5 1.3-1.2ZM81 183.7c0-.5-.4-.9-.9-.9s-.9.4-.9.9.4.9.9.9.9-.4.9-.9ZM81.1 176c0-.5-.4-.9-.9-.9s-.9.4-.9.9.4.9.9.9c.4 0 .9-.4.9-.9ZM81.1 168.2c0-.5-.4-1-1-1-.5 0-1 .5-1 1s.4 1 1 1 1-.4 1-1ZM80.1 161.6a1.1 1.1 0 1 0 0-2.2 1.1 1.1 0 0 0 0 2.2ZM80.1 153.9a1.1 1.1 0 1 0 0-2.2 1.1 1.1 0 0 0 0 2.2ZM80.1 146.1a1.1 1.1 0 1 0 0-2.2 1.1 1.1 0 0 0 0 2.2ZM81.3 137.3c0-.7-.5-1.2-1.2-1.2-.6 0-1.1.5-1.1 1.2 0 .6.5 1.1 1.1 1.1.7 0 1.2-.5 1.2-1.1ZM81.3 129.5c0-.7-.5-1.2-1.2-1.2-.6 0-1.2.5-1.2 1.2s.5 1.2 1.2 1.2 1.2-.5 1.2-1.2ZM88.7 183.7c0-.5-.4-.8-.8-.8-.5 0-.8.4-.8.8s.4.8.8.8c.4.1.8-.3.8-.8ZM88.8 176c0-.5-.4-.9-.9-.9s-.9.4-.9.9.4.9.9.9c.5-.1.9-.5.9-.9ZM88.8 168.2c0-.5-.4-1-.9-1s-1 .4-1 1c0 .5.4.9 1 .9.5.1.9-.3.9-.9ZM88.9 160.5c0-.5-.4-1-1-1-.5 0-1 .4-1 1 0 .5.4 1 1 1s1-.5 1-1ZM88.9 152.8c0-.5-.4-1-1-1-.5 0-1 .5-1 1s.4 1 1 1c.6-.1 1-.5 1-1ZM89 145c0-.6-.5-1.1-1.1-1.1-.6 0-1.1.5-1.1 1.1 0 .6.5 1.1 1.1 1.1.6-.1 1.1-.5 1.1-1.1ZM89 137.3c0-.6-.5-1.1-1.1-1.1-.6 0-1.1.5-1.1 1.1 0 .6.5 1.1 1.1 1.1.6-.1 1.1-.6 1.1-1.1ZM89 129.5c0-.6-.5-1.1-1.1-1.1-.6 0-1.1.5-1.1 1.1 0 .6.5 1.1 1.1 1.1.6 0 1.1-.5 1.1-1.1ZM89 121.8c0-.6-.5-1.2-1.1-1.2-.6 0-1.2.5-1.2 1.2 0 .6.5 1.1 1.2 1.1.6 0 1.1-.5 1.1-1.1ZM96.4 183.7c0-.4-.4-.8-.8-.8s-.8.4-.8.8.4.7.8.7M96.5 176c0-.5-.4-.8-.8-.8-.5 0-.8.4-.8.8 0 .5.4.9.8.9.4-.1.8-.5.8-.9ZM96.5 168.2c0-.5-.4-.9-.9-.9s-.9.4-.9.9.4.9.9.9.9-.4.9-.9ZM96.6 160.5c0-.5-.4-.9-.9-.9s-.9.4-.9.9.4.9.9.9.9-.4.9-.9ZM96.6 152.8c0-.5-.4-1-.9-1s-.9.4-.9 1c0 .5.4.9.9.9s.9-.4.9-.9ZM96.6 145c0-.5-.4-1-1-1-.5 0-1 .4-1 1 0 .5.4 1 1 1s1-.5 1-1ZM96.6 137.3c0-.6-.4-1.1-1-1.1s-1 .5-1 1.1c0 .5.5 1 1 1 .6 0 1-.5 1-1ZM96.6 129.5c0-.5-.4-1-1-1s-1 .5-1 1c0 .6.5 1.1 1 1.1.6-.1 1-.5 1-1.1ZM95.6 122.9a1.1 1.1 0 1 0 0-2.2 1.1 1.1 0 0 0 0 2.2ZM104.2 176c0-.4-.4-.8-.8-.8s-.8.4-.8.8.3.8.8.8c.4 0 .8-.4.8-.8ZM104.2 168.2c0-.5-.3-.8-.8-.8-.4 0-.8.3-.8.8 0 .4.4.8.8.8s.8-.3.8-.8ZM104.2 160.5c0-.5-.4-.8-.8-.8s-.8.4-.8.8.4.9.8.9c.4-.1.8-.5.8-.9ZM104.3 152.8c0-.5-.4-.9-.9-.9s-.9.4-.9.9.4.9.9.9.9-.5.9-.9ZM104.3 145c0-.5-.4-.9-.9-.9s-.9.4-.9.9.4.9.9.9.9-.4.9-.9ZM104.4 137.3c0-.5-.4-1-1-1-.5 0-1 .5-1 1s.4 1 1 1c.5-.1 1-.5 1-1ZM104.4 129.5c0-.5-.4-1-1-1-.5 0-1 .4-1 1 0 .5.4 1 1 1 .5 0 1-.5 1-1ZM104.4 121.8c0-.5-.4-1-1-1-.5 0-1 .5-1 1s.4 1 1 1c.5-.1 1-.5 1-1ZM104.4 114c0-.6-.5-1.1-1.1-1.1-.6 0-1 .5-1 1.1 0 .6.4 1.1 1 1.1s1.1-.5 1.1-1.1ZM111.8 176c0-.4-.3-.7-.7-.7-.4 0-.7.3-.7.7 0 .4.3.7.7.7.4-.1.7-.3.7-.7ZM111.8 168.2c0-.4-.3-.7-.7-.7-.4 0-.7.3-.7.7 0 .4.3.7.7.7.4 0 .7-.3.7-.7ZM111.9 160.5c0-.4-.4-.8-.8-.8s-.8.4-.8.8.4.8.8.8c.5 0 .8-.4.8-.8ZM111.9 152.8c0-.5-.4-.9-.8-.9-.5 0-.8.4-.8.9s.4.8.8.8c.5 0 .8-.4.8-.8ZM111.9 145c0-.5-.4-.8-.8-.8-.5 0-.8.4-.8.8 0 .5.4.9.8.9.5-.1.8-.4.8-.9ZM112 137.3c0-.5-.4-.9-.9-.9s-.9.4-.9.9.4.9.9.9.9-.4.9-.9ZM112 129.5c0-.5-.4-.9-.9-.9s-.9.4-.9.9.4.9.9.9.9-.4.9-.9ZM112 121.8c0-.5-.4-.9-.9-.9s-.9.4-.9.9.4.9.9.9.9-.4.9-.9ZM112.1 114c0-.5-.4-1-1-1-.5 0-1 .4-1 1 0 .5.5 1 1 1 .6 0 1-.5 1-1ZM119.4 176c0-.3-.3-.6-.6-.6s-.6.3-.6.6.3.6.6.6.6-.3.6-.6ZM119.5 168.2c0-.4-.3-.7-.7-.7-.4 0-.7.3-.7.7 0 .4.3.7.7.7.4 0 .7-.3.7-.7ZM119.6 160.5c0-.4-.3-.7-.7-.7-.4 0-.7.3-.7.7 0 .4.3.7.7.7.3 0 .7-.3.7-.7ZM119.6 152.8c0-.4-.4-.7-.7-.7-.4 0-.7.3-.7.7 0 .4.4.7.7.7.3 0 .7-.4.7-.7ZM118.9 145.8a.8.8 0 1 0 0-1.6.8.8 0 0 0 0 1.6ZM119.7 137.3c0-.5-.3-.8-.8-.8-.4 0-.8.4-.8.8s.4.8.8.8.8-.4.8-.8ZM119.7 129.5c0-.5-.4-.9-.9-.9s-.9.4-.9.9.4.9.9.9c.6 0 .9-.4.9-.9ZM119.8 121.8c0-.5-.4-.9-.9-.9s-.9.4-.9.9.4.9.9.9.9-.4.9-.9ZM119.8 114c0-.5-.4-.9-.9-.9s-.9.4-.9.9.4.9.9.9.9-.4.9-.9ZM127.1 176c0-.3-.2-.5-.5-.5s-.5.2-.5.5.2.5.5.5.5-.3.5-.5ZM127.2 168.2c0-.4-.2-.6-.5-.6-.4 0-.6.2-.6.6 0 .3.2.5.6.5.2.1.5-.1.5-.5ZM127.2 160.5c0-.4-.3-.6-.6-.6s-.6.3-.6.6c0 .4.3.6.6.6s.6-.3.6-.6ZM126.6 153.5a.7.7 0 1 0 0-1.4.7.7 0 0 0 0 1.4ZM127.3 145c0-.4-.3-.7-.7-.7-.4 0-.7.3-.7.7 0 .4.3.7.7.7.4 0 .7-.3.7-.7ZM127.4 137.3c0-.4-.4-.8-.8-.8s-.8.4-.8.8.4.7.8.7.8-.3.8-.7ZM127.4 129.5c0-.4-.4-.8-.8-.8-.5 0-.8.4-.8.8 0 .5.4.8.8.8.5 0 .8-.3.8-.8ZM127.5 121.8c0-.5-.4-.9-.9-.9s-.9.4-.9.9.4.9.9.9.9-.5.9-.9ZM127.6 114c0-.5-.4-.9-.9-.9s-.9.4-.9.9.4.9.9.9c.4 0 .9-.4.9-.9ZM134.8 176c0-.2-.2-.4-.5-.4-.2 0-.4.2-.4.4 0 .3.2.5.4.5.3-.1.5-.3.5-.5ZM134.9 168.2c0-.3-.2-.5-.5-.5s-.5.2-.5.5.2.5.5.5c.2 0 .5-.2.5-.5ZM134.9 160.5c0-.3-.3-.5-.6-.5s-.5.2-.5.5.3.6.5.6c.4 0 .6-.3.6-.6ZM135 152.8c0-.4-.3-.6-.6-.6s-.6.3-.6.6.3.6.6.6c.3-.1.6-.3.6-.6ZM135.1 145c0-.4-.3-.7-.7-.7-.4 0-.7.3-.7.7 0 .4.3.7.7.7.4 0 .7-.3.7-.7ZM135.1 137.3c0-.4-.3-.7-.7-.7-.4 0-.7.3-.7.7 0 .4.3.7.7.7.4 0 .7-.4.7-.7ZM135.1 129.5c0-.4-.3-.7-.7-.7-.4 0-.7.4-.7.7 0 .4.3.7.7.7.4 0 .7-.3.7-.7ZM134.4 122.6a.8.8 0 1 0 0-1.6.8.8 0 0 0 0 1.6ZM135.2 114c0-.5-.4-.9-.9-.9s-.9.4-.9.9.4.9.9.9c.6 0 .9-.4.9-.9ZM142.5 176c0-.2-.2-.4-.4-.4s-.4.2-.4.4.2.4.4.4.4-.2.4-.4ZM142.5 168.2c0-.3-.2-.5-.4-.5-.3 0-.5.2-.5.5 0 .2.2.4.5.4.3.1.4-.1.4-.4ZM142.6 160.5c0-.3-.2-.5-.5-.5s-.5.2-.5.5.2.5.5.5.5-.2.5-.5ZM142.7 152.8c0-.3-.2-.6-.5-.6s-.6.3-.6.6.3.5.6.5.5-.2.5-.5ZM142.7 145c0-.4-.3-.6-.6-.6-.4 0-.6.3-.6.6 0 .4.3.6.6.6s.6-.3.6-.6ZM142.8 137.3c0-.4-.3-.7-.7-.7-.4 0-.7.3-.7.7 0 .4.3.7.7.7.4-.1.7-.4.7-.7ZM142.8 129.5c0-.4-.3-.7-.7-.7-.4 0-.7.3-.7.7 0 .4.3.7.7.7.4 0 .7-.3.7-.7ZM142.9 121.8c0-.5-.3-.8-.8-.8s-.8.4-.8.8.3.8.8.8c.4-.1.8-.4.8-.8ZM143 114c0-.5-.4-.9-.9-.9s-.9.4-.9.9.4.9.9.9.9-.4.9-.9ZM149.8 128.8c-.4 0-.7.3-.7.7 0 .4.3.7.7.7" opacity=".16"/></g><path fill="#fff" d="M35.8 25.6c0-.7-.2-1.3-.6-2l-3.1-5.3c-.2-.4-.4-.8-.5-1.3l-.1.2c-.8 1.3-.8 3 0 4.3l2.5 4.3c.8 1.3.8 3 0 4.3l-.1.2c-.1-.4-.3-.9-.5-1.3l-2.3-3.9-1.4-2.5c-.2-.4-.4-.8-.5-1.3l-.2.2c-.8 1.3-.8 2.9 0 4.3l2.5 4.3c.8 1.3.8 3 0 4.3l-.1.2c-.1-.4-.3-.9-.5-1.3L27.8 28c-.4-.7-.6-1.5-.6-2.3-3.3.9-5.6 2.7-5.6 4.8 0 3 4.4 5.3 9.9 5.3 5.4 0 9.9-2.4 9.9-5.3-.1-2.2-2.3-4-5.6-4.9Zm9.3 9.1c0-.8.1-1.3.4-1.9 1 .5 2.4.7 3.4.7 1.7 0 2.7-.6 2.7-1.6 0-1.1-.7-1.6-2.4-2.3l-.9-.4c-1.7-.8-2.9-1.7-2.9-3.7 0-2.1 1.5-3.5 4.5-3.5 1.2 0 2.3.2 3.4.5-.1.7-.2 1.3-.4 1.9-1-.4-2.2-.5-3-.5-1.6 0-2.4.6-2.4 1.6s.7 1.5 2 2.1l1 .4c2.4 1 3.3 2.1 3.3 3.8 0 2.1-1.6 3.6-4.8 3.6-1.7 0-2.9-.2-3.9-.7Zm18.4-8.8v9.3h-1.9V34c-.5.8-1.3 1.3-2.6 1.3-2.4 0-4.1-1.8-4.1-4.9 0-3.3 1.7-5.1 5.2-5.1 1.3.1 2.4.2 3.4.6Zm-2 7.1v-5.8c-.4-.1-.9-.1-1.5-.1-2.1 0-3.1 1.3-3.1 3.4 0 1.9.8 3.2 2.6 3.2.8 0 1.5-.3 2-.7ZM74 28.9v6.2h-2v-5.9c0-1.5-.5-2.2-2.5-2.2-.5 0-1.1.1-1.6.1V35h-2v-9.3c1.3-.3 2.7-.5 3.7-.5 3.3.2 4.4 1.5 4.4 3.7Zm5.6 4.7c.6 0 1.1-.1 1.6-.3-.1.6-.1 1.2-.2 1.7-.6.2-1.1.3-1.7.3-2 0-3.2-.9-3.2-3.2v-9.7c.6-.2 1.4-.3 2-.3v3.5h3.2c0 .6-.1 1.2-.2 1.7h-3V32c-.1 1.2.5 1.6 1.5 1.6Zm10.9-7.7v9.3h-1.9l-.1-1.1c-.5.8-1.3 1.3-2.6 1.3-2.4 0-4.1-1.8-4.1-4.9 0-3.3 1.7-5.1 5.2-5.1 1.4 0 2.5.1 3.5.5Zm-2 7.1v-5.8c-.4-.1-.9-.1-1.5-.1-2.1 0-3.1 1.3-3.1 3.4 0 1.9.8 3.2 2.6 3.2.8 0 1.5-.3 2-.7Zm12.5-4.1v6.2h-2v-5.9c0-1.5-.5-2.2-2.5-2.2-.5 0-1.1.1-1.6.1V35h-2v-9.3c1.3-.3 2.7-.5 3.7-.5 3.3.2 4.4 1.5 4.4 3.7Zm10.3-6.7v13h-1.9l-.1-1.2c-.5.9-1.3 1.4-2.6 1.4-2.4 0-4.1-1.8-4.1-4.9 0-3.3 1.7-5.1 5.2-5.1.5 0 1 .1 1.5.1v-3.1c.6-.2 1.3-.2 2-.2Zm-2 10.8v-5.7c-.5-.1-1.1-.2-1.6-.2-2 0-3 1.3-3 3.4 0 1.9.8 3.2 2.6 3.2.7 0 1.4-.3 2-.7Zm12.2-1.8H115c.3 1.6 1.2 2.4 3 2.4 1.1 0 2.2-.2 3.3-.7-.1.5-.2 1.2-.3 1.9-.9.4-1.9.6-3 .6-3.4 0-5.1-1.9-5.1-5.1 0-2.8 1.3-4.9 4.5-4.9 2.9 0 4.2 1.9 4.2 4.2 0 .6 0 1.1-.1 1.6Zm-6.5-1.7h4.6c0-1.5-.8-2.4-2.2-2.4-1.5 0-2.3.8-2.4 2.4Zm13.6-4c0 .6-.1 1.4-.2 1.7-.5-.1-1-.1-1.5-.1s-1 0-1.5.1v7.9h-2v-9.3c.9-.3 2.3-.5 3.5-.5.6.1 1.3.1 1.7.2Z"/><g fill="#fff" opacity=".16"><path d="M2.7 170.1a1.9 1.9 0 1 0 0-3.8 1.9 1.9 0 0 0 0 3.8ZM4.5 160.5c0-1-.8-1.8-1.8-1.8s-1.8.8-1.8 1.8.8 1.8 1.8 1.8c1-.1 1.8-.8 1.8-1.8ZM4.3 152.8c0-.9-.7-1.6-1.6-1.6-.9 0-1.6.7-1.6 1.6 0 .9.7 1.6 1.6 1.6.9-.1 1.6-.8 1.6-1.6ZM3.9 145c0-.6-.5-1.1-1.2-1.1-.6 0-1.2.5-1.2 1.1 0 .7.5 1.2 1.2 1.2s1.2-.6 1.2-1.2ZM3.8 137.3c0-.6-.5-1.2-1.1-1.2-.6 0-1.1.5-1.1 1.2 0 .6.5 1.1 1.1 1.1.6 0 1.1-.5 1.1-1.1ZM12.4 176c0-1.1-.9-2-2-2s-2 .9-2 2 .9 2 2 2c1.2 0 2-.9 2-2ZM10.5 170.1a1.9 1.9 0 1 0 0-3.8 1.9 1.9 0 0 0 0 3.8ZM12.3 160.5c0-1-.8-1.8-1.8-1.8s-1.8.8-1.8 1.8.8 1.8 1.8 1.8 1.8-.8 1.8-1.8ZM12.1 152.8c0-.9-.7-1.6-1.6-1.6-.9 0-1.6.7-1.6 1.6 0 .9.7 1.6 1.6 1.6.9 0 1.6-.7 1.6-1.6ZM11.8 145c0-.7-.6-1.3-1.3-1.3-.7 0-1.3.6-1.3 1.3 0 .7.6 1.3 1.3 1.3.7 0 1.3-.6 1.3-1.3ZM11.8 137.3c0-.7-.6-1.3-1.3-1.3-.7 0-1.3.6-1.3 1.3 0 .7.6 1.3 1.3 1.3.7-.1 1.3-.6 1.3-1.3ZM20.2 176c0-1.1-.9-2-2-2s-2 .9-2 2 .9 2 2 2 2-.9 2-2ZM18.2 170.1a1.9 1.9 0 1 0 0-3.8 1.9 1.9 0 0 0 0 3.8ZM19.9 160.5c0-.9-.7-1.7-1.7-1.7-.9 0-1.7.7-1.7 1.7 0 .9.7 1.7 1.7 1.7.9 0 1.7-.8 1.7-1.7ZM19.8 152.8c0-.9-.7-1.6-1.6-1.6-.9 0-1.6.7-1.6 1.6 0 .9.7 1.6 1.6 1.6.9 0 1.6-.8 1.6-1.6ZM19.7 145c0-.8-.6-1.4-1.4-1.4-.8 0-1.5.7-1.5 1.4 0 .8.7 1.5 1.5 1.5s1.4-.7 1.4-1.5ZM19.5 137.3c0-.7-.6-1.3-1.3-1.3-.7 0-1.3.6-1.3 1.3 0 .7.6 1.3 1.3 1.3.7-.1 1.3-.6 1.3-1.3ZM27.7 183.7c0-1-.8-1.8-1.8-1.8s-1.8.8-1.8 1.8.8 1.8 1.8 1.8c1.1 0 1.8-.8 1.8-1.8ZM27.8 176c0-1-.8-1.8-1.9-1.8-1 0-1.8.8-1.8 1.8s.8 1.8 1.8 1.8c1.1 0 1.9-.8 1.9-1.8ZM27.8 168.2c0-1-.8-1.9-1.9-1.9-1 0-1.8.9-1.8 1.9 0 1 .8 1.8 1.8 1.8 1.1.1 1.9-.7 1.9-1.8ZM27.6 160.5c0-.9-.7-1.6-1.6-1.6-.9 0-1.6.7-1.6 1.6 0 .9.7 1.6 1.6 1.6.8 0 1.6-.7 1.6-1.6ZM27.6 152.8c0-.9-.7-1.6-1.6-1.6-.9 0-1.6.7-1.6 1.6 0 .9.7 1.6 1.6 1.6.8 0 1.6-.8 1.6-1.6ZM27.4 145c0-.8-.7-1.4-1.5-1.4s-1.4.7-1.4 1.4c0 .8.7 1.5 1.4 1.5.9 0 1.5-.7 1.5-1.5ZM27.4 137.3c0-.8-.7-1.5-1.5-1.5s-1.4.7-1.4 1.5.7 1.4 1.4 1.4c.9 0 1.5-.7 1.5-1.4ZM35.4 183.7c0-.9-.7-1.7-1.7-1.7-.9 0-1.7.7-1.7 1.7 0 .9.7 1.7 1.7 1.7.9 0 1.7-.8 1.7-1.7ZM35.4 176c0-.9-.8-1.7-1.7-1.7-1 0-1.7.8-1.7 1.7 0 .9.7 1.7 1.7 1.7.9 0 1.7-.8 1.7-1.7ZM35.4 168.2c0-1-.8-1.7-1.7-1.7-1 0-1.7.7-1.7 1.7 0 .9.7 1.7 1.7 1.7.9.1 1.7-.7 1.7-1.7ZM35.2 160.5c0-.9-.7-1.5-1.5-1.5-.9 0-1.6.7-1.6 1.5 0 .9.7 1.6 1.6 1.6.9-.1 1.5-.8 1.5-1.6ZM35.3 152.8c0-.9-.7-1.6-1.6-1.6-.9 0-1.6.7-1.6 1.6 0 .9.7 1.6 1.6 1.6.9-.1 1.6-.8 1.6-1.6ZM35.2 145c0-.9-.7-1.5-1.5-1.5-.9 0-1.6.7-1.6 1.5 0 .9.7 1.6 1.6 1.6.9-.1 1.5-.8 1.5-1.6ZM35.3 137.3c0-.9-.7-1.6-1.6-1.6-.9 0-1.6.7-1.6 1.6 0 .9.7 1.6 1.6 1.6.9-.1 1.6-.8 1.6-1.6ZM43 183.7c0-.9-.7-1.6-1.6-1.6-.9 0-1.6.7-1.6 1.6 0 .9.7 1.5 1.6 1.5.9.1 1.6-.6 1.6-1.5ZM43 176c0-.9-.7-1.6-1.6-1.6-.9 0-1.6.7-1.6 1.6 0 .9.7 1.6 1.6 1.6.9 0 1.6-.7 1.6-1.6ZM43 168.2c0-.9-.7-1.6-1.6-1.6-.9 0-1.6.7-1.6 1.6 0 .9.7 1.6 1.6 1.6.9 0 1.6-.7 1.6-1.6ZM42.8 160.5c0-.8-.6-1.4-1.4-1.4-.8 0-1.4.6-1.4 1.4 0 .8.6 1.4 1.4 1.4.8 0 1.4-.6 1.4-1.4ZM43 152.8c0-.9-.7-1.5-1.5-1.5s-1.5.7-1.5 1.5.7 1.5 1.5 1.5 1.5-.7 1.5-1.5ZM43 145c0-.9-.7-1.5-1.6-1.5-.9 0-1.6.7-1.6 1.5 0 .9.7 1.6 1.6 1.6.9-.1 1.6-.8 1.6-1.6ZM43 137.3c0-.9-.7-1.6-1.6-1.6-.9 0-1.6.7-1.6 1.6 0 .9.7 1.6 1.6 1.6.9-.1 1.6-.8 1.6-1.6ZM43 129.5c0-.9-.7-1.6-1.6-1.6-.9 0-1.6.7-1.6 1.6 0 .9.7 1.6 1.6 1.6.9 0 1.6-.7 1.6-1.6ZM42.7 121.8c0-.7-.5-1.2-1.2-1.2s-1.2.5-1.2 1.2.5 1.2 1.2 1.2c.6 0 1.2-.6 1.2-1.2ZM41.4 115.1a1.1 1.1 0 1 0 0-2.2 1.1 1.1 0 0 0 0 2.2ZM50.6 183.7c0-.8-.7-1.4-1.5-1.4s-1.4.6-1.4 1.4c0 .8.6 1.4 1.4 1.4.9.1 1.5-.6 1.5-1.4ZM50.6 176c0-.8-.7-1.4-1.5-1.4s-1.4.6-1.4 1.4c0 .8.7 1.5 1.4 1.5.9 0 1.5-.7 1.5-1.5ZM50.5 168.2c0-.7-.6-1.3-1.3-1.3-.7 0-1.3.6-1.3 1.3 0 .7.6 1.3 1.3 1.3.7 0 1.3-.6 1.3-1.3ZM50.5 160.5c0-.7-.6-1.3-1.4-1.3-.7 0-1.3.6-1.3 1.3 0 .7.6 1.4 1.3 1.4.8-.1 1.4-.7 1.4-1.4ZM50.6 152.8c0-.8-.7-1.4-1.5-1.4s-1.4.6-1.4 1.4c0 .8.6 1.4 1.4 1.4.9 0 1.5-.7 1.5-1.4ZM50.6 145c0-.8-.7-1.4-1.5-1.4s-1.4.7-1.4 1.4c0 .8.6 1.4 1.4 1.4.9 0 1.5-.6 1.5-1.4ZM50.7 137.3c0-.8-.7-1.5-1.5-1.5s-1.4.7-1.4 1.5.6 1.5 1.4 1.5c.8-.1 1.5-.7 1.5-1.5ZM50.7 129.5c0-.8-.7-1.5-1.5-1.5s-1.4.7-1.4 1.5.6 1.5 1.4 1.5c.8 0 1.5-.7 1.5-1.5ZM50.4 121.8c0-.7-.6-1.3-1.3-1.3-.7 0-1.2.6-1.2 1.3 0 .7.6 1.2 1.2 1.2.8 0 1.3-.5 1.3-1.2ZM58.2 183.7c0-.7-.6-1.3-1.3-1.3-.7 0-1.3.6-1.3 1.3 0 .7.6 1.3 1.3 1.3.7 0 1.3-.6 1.3-1.3ZM58.2 176c0-.7-.6-1.3-1.3-1.3-.7 0-1.3.6-1.3 1.3 0 .7.6 1.3 1.3 1.3.7 0 1.3-.6 1.3-1.3ZM58.1 168.2c0-.7-.5-1.2-1.2-1.2s-1.2.5-1.2 1.2.5 1.2 1.2 1.2c.7.1 1.2-.5 1.2-1.2ZM58.2 160.5c0-.7-.6-1.3-1.3-1.3-.7 0-1.3.6-1.3 1.3 0 .7.6 1.3 1.3 1.3.7 0 1.3-.6 1.3-1.3ZM58.3 152.8c0-.7-.6-1.4-1.3-1.4-.7 0-1.3.6-1.3 1.4 0 .8.6 1.3 1.3 1.3.7 0 1.3-.6 1.3-1.3ZM58.3 145c0-.7-.6-1.3-1.3-1.3-.7 0-1.3.6-1.3 1.3 0 .7.6 1.3 1.3 1.3.7 0 1.3-.6 1.3-1.3ZM58.3 137.3c0-.8-.6-1.4-1.4-1.4-.8 0-1.4.7-1.4 1.4 0 .8.6 1.4 1.4 1.4.8 0 1.4-.7 1.4-1.4ZM58.3 129.5c0-.8-.6-1.4-1.4-1.4-.8 0-1.4.6-1.4 1.4 0 .8.6 1.4 1.4 1.4.8 0 1.4-.6 1.4-1.4ZM58.2 121.8c0-.7-.6-1.3-1.3-1.3-.7 0-1.3.6-1.3 1.3 0 .7.6 1.3 1.3 1.3.7 0 1.3-.6 1.3-1.3ZM65.8 183.7c0-.6-.5-1.2-1.2-1.2-.6 0-1.1.5-1.1 1.2 0 .6.5 1.1 1.1 1.1.7.1 1.2-.4 1.2-1.1ZM65.7 176c0-.6-.5-1.1-1.1-1.1-.6 0-1.1.5-1.1 1.1 0 .6.5 1.1 1.1 1.1.6-.1 1.1-.5 1.1-1.1ZM65.8 168.2c0-.6-.5-1.2-1.2-1.2-.6 0-1.1.5-1.1 1.2 0 .6.5 1.1 1.1 1.1.7.1 1.2-.4 1.2-1.1ZM65.9 160.5c0-.7-.5-1.2-1.2-1.2s-1.2.5-1.2 1.2.5 1.2 1.2 1.2 1.2-.6 1.2-1.2ZM65.9 152.8c0-.7-.5-1.3-1.3-1.3-.7 0-1.3.5-1.3 1.3 0 .7.6 1.3 1.3 1.3.8-.1 1.3-.6 1.3-1.3ZM65.9 145c0-.7-.5-1.3-1.3-1.3-.7 0-1.3.6-1.3 1.3 0 .7.6 1.3 1.3 1.3.8 0 1.3-.6 1.3-1.3ZM66 137.3c0-.7-.6-1.3-1.3-1.3-.7 0-1.3.6-1.3 1.3 0 .7.6 1.3 1.3 1.3.7-.1 1.3-.6 1.3-1.3ZM66 129.5c0-.7-.6-1.3-1.3-1.3-.7 0-1.3.6-1.3 1.3 0 .7.6 1.3 1.3 1.3.7 0 1.3-.6 1.3-1.3ZM65.9 121.8c0-.7-.6-1.3-1.3-1.3-.7 0-1.2.6-1.2 1.3 0 .7.5 1.2 1.2 1.2.8 0 1.3-.5 1.3-1.2ZM73.4 183.7c0-.5-.4-1-1-1-.5 0-1 .5-1 1s.5 1 1 1 1-.4 1-1ZM73.4 176c0-.5-.4-1-1-1-.5 0-1 .4-1 1 0 .5.4 1 1 1 .5 0 1-.5 1-1ZM73.5 168.2c0-.6-.5-1.1-1.1-1.1-.6 0-1.1.5-1.1 1.1 0 .6.5 1.1 1.1 1.1.6 0 1.1-.5 1.1-1.1ZM73.6 160.5c0-.6-.5-1.2-1.2-1.2-.6 0-1.1.5-1.1 1.2s.5 1.2 1.1 1.2c.6 0 1.2-.6 1.2-1.2ZM73.6 152.8c0-.7-.5-1.2-1.2-1.2-.6 0-1.2.5-1.2 1.2s.5 1.2 1.2 1.2 1.2-.6 1.2-1.2ZM73.7 145c0-.7-.5-1.2-1.3-1.2-.7 0-1.3.5-1.3 1.2s.6 1.3 1.3 1.3c.7 0 1.3-.6 1.3-1.3ZM73.6 137.3c0-.7-.5-1.2-1.2-1.2s-1.2.5-1.2 1.2.5 1.2 1.2 1.2 1.2-.6 1.2-1.2ZM73.6 129.5c0-.7-.5-1.2-1.2-1.2s-1.2.5-1.2 1.2.5 1.2 1.2 1.2 1.2-.5 1.2-1.2ZM73.7 121.8c0-.7-.5-1.3-1.3-1.3-.7 0-1.3.6-1.3 1.3 0 .7.6 1.2 1.3 1.2.7 0 1.3-.5 1.3-1.2ZM81 183.7c0-.5-.4-.9-.9-.9s-.9.4-.9.9.4.9.9.9.9-.4.9-.9ZM81.1 176c0-.5-.4-.9-.9-.9s-.9.4-.9.9.4.9.9.9c.4 0 .9-.4.9-.9ZM81.1 168.2c0-.5-.4-1-1-1-.5 0-1 .5-1 1s.4 1 1 1 1-.4 1-1ZM80.1 161.6a1.1 1.1 0 1 0 0-2.2 1.1 1.1 0 0 0 0 2.2ZM80.1 153.9a1.1 1.1 0 1 0 0-2.2 1.1 1.1 0 0 0 0 2.2ZM80.1 146.1a1.1 1.1 0 1 0 0-2.2 1.1 1.1 0 0 0 0 2.2ZM81.3 137.3c0-.7-.5-1.2-1.2-1.2-.6 0-1.1.5-1.1 1.2 0 .6.5 1.1 1.1 1.1.7 0 1.2-.5 1.2-1.1ZM81.3 129.5c0-.7-.5-1.2-1.2-1.2-.6 0-1.2.5-1.2 1.2s.5 1.2 1.2 1.2 1.2-.5 1.2-1.2ZM88.7 183.7c0-.5-.4-.8-.8-.8-.5 0-.8.4-.8.8s.4.8.8.8c.4.1.8-.3.8-.8ZM88.8 176c0-.5-.4-.9-.9-.9s-.9.4-.9.9.4.9.9.9c.5-.1.9-.5.9-.9ZM88.8 168.2c0-.5-.4-1-.9-1s-1 .4-1 1c0 .5.4.9 1 .9.5.1.9-.3.9-.9ZM88.9 160.5c0-.5-.4-1-1-1-.5 0-1 .4-1 1 0 .5.4 1 1 1s1-.5 1-1ZM88.9 152.8c0-.5-.4-1-1-1-.5 0-1 .5-1 1s.4 1 1 1c.6-.1 1-.5 1-1ZM89 145c0-.6-.5-1.1-1.1-1.1-.6 0-1.1.5-1.1 1.1 0 .6.5 1.1 1.1 1.1.6-.1 1.1-.5 1.1-1.1ZM89 137.3c0-.6-.5-1.1-1.1-1.1-.6 0-1.1.5-1.1 1.1 0 .6.5 1.1 1.1 1.1.6-.1 1.1-.6 1.1-1.1ZM89 129.5c0-.6-.5-1.1-1.1-1.1-.6 0-1.1.5-1.1 1.1 0 .6.5 1.1 1.1 1.1.6 0 1.1-.5 1.1-1.1ZM89 121.8c0-.6-.5-1.2-1.1-1.2-.6 0-1.2.5-1.2 1.2 0 .6.5 1.1 1.2 1.1.6 0 1.1-.5 1.1-1.1ZM96.4 183.7c0-.4-.4-.8-.8-.8s-.8.4-.8.8.4.7.8.7M96.5 176c0-.5-.4-.8-.8-.8-.5 0-.8.4-.8.8 0 .5.4.9.8.9.4-.1.8-.5.8-.9ZM96.5 168.2c0-.5-.4-.9-.9-.9s-.9.4-.9.9.4.9.9.9.9-.4.9-.9ZM96.6 160.5c0-.5-.4-.9-.9-.9s-.9.4-.9.9.4.9.9.9.9-.4.9-.9ZM96.6 152.8c0-.5-.4-1-.9-1s-.9.4-.9 1c0 .5.4.9.9.9s.9-.4.9-.9ZM96.6 145c0-.5-.4-1-1-1-.5 0-1 .4-1 1 0 .5.4 1 1 1s1-.5 1-1ZM96.6 137.3c0-.6-.4-1.1-1-1.1s-1 .5-1 1.1c0 .5.5 1 1 1 .6 0 1-.5 1-1ZM96.6 129.5c0-.5-.4-1-1-1s-1 .5-1 1c0 .6.5 1.1 1 1.1.6-.1 1-.5 1-1.1ZM95.6 122.9a1.1 1.1 0 1 0 0-2.2 1.1 1.1 0 0 0 0 2.2ZM104.1 183.7c0-.4-.3-.7-.7-.7-.4 0-.7.3-.7.7M104.2 176c0-.4-.4-.8-.8-.8s-.8.4-.8.8.3.8.8.8c.4 0 .8-.4.8-.8ZM104.2 168.2c0-.5-.3-.8-.8-.8-.4 0-.8.3-.8.8 0 .4.4.8.8.8s.8-.3.8-.8ZM104.2 160.5c0-.5-.4-.8-.8-.8s-.8.4-.8.8.4.9.8.9c.4-.1.8-.5.8-.9ZM104.3 152.8c0-.5-.4-.9-.9-.9s-.9.4-.9.9.4.9.9.9.9-.5.9-.9ZM104.3 145c0-.5-.4-.9-.9-.9s-.9.4-.9.9.4.9.9.9.9-.4.9-.9ZM104.4 137.3c0-.5-.4-1-1-1-.5 0-1 .5-1 1s.4 1 1 1c.5-.1 1-.5 1-1ZM104.4 129.5c0-.5-.4-1-1-1-.5 0-1 .4-1 1 0 .5.4 1 1 1 .5 0 1-.5 1-1ZM104.4 121.8c0-.5-.4-1-1-1-.5 0-1 .5-1 1s.4 1 1 1c.5-.1 1-.5 1-1ZM104.4 114c0-.6-.5-1.1-1.1-1.1-.6 0-1 .5-1 1.1 0 .6.4 1.1 1 1.1s1.1-.5 1.1-1.1ZM111.8 176c0-.4-.3-.7-.7-.7-.4 0-.7.3-.7.7 0 .4.3.7.7.7.4-.1.7-.3.7-.7ZM111.8 168.2c0-.4-.3-.7-.7-.7-.4 0-.7.3-.7.7 0 .4.3.7.7.7.4 0 .7-.3.7-.7ZM111.9 160.5c0-.4-.4-.8-.8-.8s-.8.4-.8.8.4.8.8.8c.5 0 .8-.4.8-.8ZM111.9 152.8c0-.5-.4-.9-.8-.9-.5 0-.8.4-.8.9s.4.8.8.8c.5 0 .8-.4.8-.8ZM111.9 145c0-.5-.4-.8-.8-.8-.5 0-.8.4-.8.8 0 .5.4.9.8.9.5-.1.8-.4.8-.9ZM112 137.3c0-.5-.4-.9-.9-.9s-.9.4-.9.9.4.9.9.9.9-.4.9-.9ZM112 129.5c0-.5-.4-.9-.9-.9s-.9.4-.9.9.4.9.9.9.9-.4.9-.9ZM112 121.8c0-.5-.4-.9-.9-.9s-.9.4-.9.9.4.9.9.9.9-.4.9-.9ZM112.1 114c0-.5-.4-1-1-1-.5 0-1 .4-1 1 0 .5.5 1 1 1 .6 0 1-.5 1-1ZM119.4 176c0-.3-.3-.6-.6-.6s-.6.3-.6.6.3.6.6.6.6-.3.6-.6ZM119.5 168.2c0-.4-.3-.7-.7-.7-.4 0-.7.3-.7.7 0 .4.3.7.7.7.4 0 .7-.3.7-.7ZM119.6 160.5c0-.4-.3-.7-.7-.7-.4 0-.7.3-.7.7 0 .4.3.7.7.7.3 0 .7-.3.7-.7ZM119.6 152.8c0-.4-.4-.7-.7-.7-.4 0-.7.3-.7.7 0 .4.4.7.7.7.3 0 .7-.4.7-.7ZM118.9 145.8a.8.8 0 1 0 0-1.6.8.8 0 0 0 0 1.6ZM119.7 137.3c0-.5-.3-.8-.8-.8-.4 0-.8.4-.8.8s.4.8.8.8.8-.4.8-.8ZM119.7 129.5c0-.5-.4-.9-.9-.9s-.9.4-.9.9.4.9.9.9c.6 0 .9-.4.9-.9ZM119.8 121.8c0-.5-.4-.9-.9-.9s-.9.4-.9.9.4.9.9.9.9-.4.9-.9ZM119.8 114c0-.5-.4-.9-.9-.9s-.9.4-.9.9.4.9.9.9.9-.4.9-.9ZM127.1 176c0-.3-.2-.5-.5-.5s-.5.2-.5.5.2.5.5.5.5-.3.5-.5ZM127.2 168.2c0-.4-.2-.6-.5-.6-.4 0-.6.2-.6.6 0 .3.2.5.6.5.2.1.5-.1.5-.5ZM127.2 160.5c0-.4-.3-.6-.6-.6s-.6.3-.6.6c0 .4.3.6.6.6s.6-.3.6-.6ZM126.6 153.5a.7.7 0 1 0 .001-1.399.7.7 0 0 0-.001 1.399ZM127.3 145c0-.4-.3-.7-.7-.7-.4 0-.7.3-.7.7 0 .4.3.7.7.7.4 0 .7-.3.7-.7ZM127.4 137.3c0-.4-.4-.8-.8-.8s-.8.4-.8.8.4.7.8.7.8-.3.8-.7ZM127.4 129.5c0-.4-.4-.8-.8-.8-.5 0-.8.4-.8.8 0 .5.4.8.8.8.5 0 .8-.3.8-.8ZM127.5 121.8c0-.5-.4-.9-.9-.9s-.9.4-.9.9.4.9.9.9.9-.5.9-.9ZM127.6 114c0-.5-.4-.9-.9-.9s-.9.4-.9.9.4.9.9.9c.4 0 .9-.4.9-.9ZM134.7 183.7c0-.2-.2-.4-.4-.4s-.4.2-.4.4M134.8 176c0-.2-.2-.4-.5-.4-.2 0-.4.2-.4.4 0 .3.2.5.4.5.3-.1.5-.3.5-.5ZM134.9 168.2c0-.3-.2-.5-.5-.5s-.5.2-.5.5.2.5.5.5c.2 0 .5-.2.5-.5ZM134.9 160.5c0-.3-.3-.5-.6-.5s-.5.2-.5.5.3.6.5.6c.4 0 .6-.3.6-.6ZM135 152.8c0-.4-.3-.6-.6-.6s-.6.3-.6.6.3.6.6.6c.3-.1.6-.3.6-.6ZM135.1 145c0-.4-.3-.7-.7-.7-.4 0-.7.3-.7.7 0 .4.3.7.7.7.4 0 .7-.3.7-.7ZM135.1 137.3c0-.4-.3-.7-.7-.7-.4 0-.7.3-.7.7 0 .4.3.7.7.7.4 0 .7-.4.7-.7ZM135.1 129.5c0-.4-.3-.7-.7-.7-.4 0-.7.4-.7.7 0 .4.3.7.7.7.4 0 .7-.3.7-.7ZM134.4 122.6a.8.8 0 1 0 0-1.6.8.8 0 0 0 0 1.6ZM135.2 114c0-.5-.4-.9-.9-.9s-.9.4-.9.9.4.9.9.9c.6 0 .9-.4.9-.9ZM142.5 183.7c0-.2-.2-.4-.4-.4s-.4.2-.4.4M142.5 176c0-.2-.2-.4-.4-.4s-.4.2-.4.4.2.4.4.4.4-.2.4-.4ZM142.5 168.2c0-.3-.2-.5-.4-.5-.3 0-.5.2-.5.5 0 .2.2.4.5.4.3.1.4-.1.4-.4ZM142.6 160.5c0-.3-.2-.5-.5-.5s-.5.2-.5.5.2.5.5.5.5-.2.5-.5ZM142.7 152.8c0-.3-.2-.6-.5-.6s-.6.3-.6.6.3.5.6.5.5-.2.5-.5ZM142.7 145c0-.4-.3-.6-.6-.6-.4 0-.6.3-.6.6 0 .4.3.6.6.6s.6-.3.6-.6ZM142.8 137.3c0-.4-.3-.7-.7-.7-.4 0-.7.3-.7.7 0 .4.3.7.7.7.4-.1.7-.4.7-.7ZM142.8 129.5c0-.4-.3-.7-.7-.7-.4 0-.7.3-.7.7 0 .4.3.7.7.7.4 0 .7-.3.7-.7ZM142.9 121.8c0-.5-.3-.8-.8-.8s-.8.4-.8.8.3.8.8.8c.4-.1.8-.4.8-.8ZM143 114c0-.5-.4-.9-.9-.9s-.9.4-.9.9.4.9.9.9.9-.4.9-.9ZM149.8 128.8c-.4 0-.7.3-.7.7 0 .4.3.7.7.7"/></g><path fill="#fff" d="M59.5 75.1c.7 0 1.3-.6 1.3-1.3 0-.7-.6-1.3-1.3-1.3-.7 0-1.3.6-1.3 1.3 0 .7.6 1.3 1.3 1.3ZM63 75.1c.7 0 1.3-.6 1.3-1.3 0-.7-.6-1.3-1.3-1.3-.7 0-1.3.6-1.3 1.3 0 .7.6 1.3 1.3 1.3ZM66.6 75.1c.7 0 1.3-.6 1.3-1.3 0-.7-.6-1.3-1.3-1.3-.7 0-1.3.6-1.3 1.3 0 .7.6 1.3 1.3 1.3ZM70.2 72.5c-.7 0-1.3.6-1.3 1.3 0 .7.6 1.3 1.3 1.3.7 0 1.3-.6 1.3-1.3 0-.7-.6-1.3-1.3-1.3ZM73.7 72.5c-.7 0-1.3.6-1.3 1.3 0 .7.6 1.3 1.3 1.3.7 0 1.3-.6 1.3-1.3 0-.7-.6-1.3-1.3-1.3ZM64.3 84.5c0-.7-.6-1.3-1.3-1.3-.7 0-1.3.6-1.3 1.3 0 .7.6 1.3 1.3 1.3.7 0 1.3-.6 1.3-1.3ZM66.6 85.8c.7 0 1.3-.6 1.3-1.3 0-.7-.6-1.3-1.3-1.3-.7 0-1.3.6-1.3 1.3 0 .7.6 1.3 1.3 1.3ZM59.5 78.7c.7 0 1.3-.6 1.3-1.3 0-.7-.6-1.3-1.3-1.3-.7 0-1.3.6-1.3 1.3 0 .7.6 1.3 1.3 1.3ZM59.5 82.2a1.3 1.3 0 1 0 0-2.6 1.3 1.3 0 0 0 0 2.6ZM59.5 85.8c.7 0 1.3-.6 1.3-1.3 0-.7-.6-1.3-1.3-1.3-.7 0-1.3.6-1.3 1.3 0 .7.6 1.3 1.3 1.3ZM59.5 89.4c.7 0 1.3-.6 1.3-1.3 0-.7-.6-1.3-1.3-1.3-.7 0-1.3.6-1.3 1.3 0 .7.6 1.3 1.3 1.3ZM59.5 92.9c.7 0 1.3-.6 1.3-1.3 0-.7-.6-1.3-1.3-1.3-.7 0-1.3.6-1.3 1.3 0 .7.6 1.3 1.3 1.3ZM60.8 95.2c0-.7-.6-1.3-1.3-1.3-.7 0-1.3.6-1.3 1.3 0 .7.6 1.3 1.3 1.3.7 0 1.3-.6 1.3-1.3ZM44.2 103.7h-2.7c-.3 0-.5.2-.5.5v3.8c0 .3.2.5.5.5s.5-.2.5-.5v-1.4h1.8c.3 0 .5-.2.5-.5s-.2-.5-.5-.5H42v-1h2.2c.3 0 .5-.2.5-.5-.1-.2-.3-.4-.5-.4ZM46.7 103.6c-.3 0-.5.2-.5.5v3.8c0 .3.2.5.5.5s.5-.2.5-.5v-3.8c0-.2-.2-.5-.5-.5ZM52.3 107.5h-2.2v-1H52c.3 0 .5-.2.5-.5s-.2-.5-.5-.5h-1.8v-1h2.1c.3 0 .5-.2.5-.5s-.2-.5-.5-.5h-2.7c-.3 0-.5.2-.5.5v3.7c0 .3.2.5.5.5h2.7c.3 0 .5-.2.5-.5 0 0-.2-.2-.5-.2ZM56.3 105.6c-.8-.2-1-.3-1-.6 0-.2.2-.4.6-.4.3 0 .7.1 1 .3.1 0 .2.1.3.1.3 0 .5-.2.5-.5 0-.2-.1-.3-.2-.4-.4-.3-.9-.4-1.5-.4-1 0-1.7.6-1.7 1.4 0 1 .6 1.2 1.6 1.5.8.2 1 .3 1 .6s-.3.5-.7.5c-.5 0-.9-.2-1.2-.4-.1 0-.2-.1-.3-.1-.3 0-.5.2-.5.5 0 .2.1.3.2.4.5.4 1.2.6 1.8.6 1 0 1.8-.5 1.8-1.5-.2-1-.7-1.4-1.7-1.6ZM62.5 103.7h-3.1c-.3 0-.5.2-.5.5s.2.5.5.5h1v3.3c0 .3.2.5.5.5s.5-.2.5-.5v-3.3h1c.3 0 .5-.2.5-.5.1-.3-.1-.5-.4-.5ZM66.6 104c-.1-.3-.3-.4-.6-.4s-.5.2-.6.4l-1.7 3.8c0 .1-.1.2-.1.2 0 .3.2.5.5.5.2 0 .4-.1.5-.3l.3-.8H67l.3.8c.1.2.3.4.5.4.3 0 .5-.2.5-.5 0-.1 0-.1-.1-.2l-1.6-3.9Zm-1.3 2.5.7-1.6.7 1.6h-1.4ZM111.3 102c-.7 0-1.2.5-1.2 1.2 0 .6.5 1.2 1.2 1.2s1.2-.5 1.2-1.2c-.1-.7-.6-1.2-1.2-1.2Zm1 1.2c0 .6-.5 1.1-1.1 1.1-.6 0-1.1-.5-1.1-1.1 0-.6.5-1.1 1.1-1.1.7 0 1.1.5 1.1 1.1Z"/><path fill="#fff" d="M111.9 102.9c0-.3-.2-.4-.5-.4h-.4c-.1 0-.2.1-.2.2v.9c0 .1.1.2.2.2s.2-.1.2-.2v-.2h.2l.4.4c.1 0 .2-.1.2-.2v-.1l-.2-.2s.1-.2.1-.4Zm-.6.2h-.2v-.3h.2c.1 0 .2.1.2.2s-.1.1-.2.1ZM72 103.7h-1.7c-.3 0-.5.2-.5.5v3.8c0 .3.2.5.5.5s.5-.2.5-.5v-1h.8l1 1.3c.1.2.3.3.5.3.3 0 .5-.2.5-.5 0-.2-.1-.3-.2-.4l-.7-.9c.6-.2 1-.7 1-1.5 0-.5-.1-.8-.4-1.1-.2-.4-.6-.5-1.3-.5Zm.8 1.6c0 .4-.3.7-.8.7h-1.1v-1.4h1c.6 0 .9.3.9.7ZM78.7 107.5h-2.2v-1h1.8c.3 0 .5-.2.5-.5s-.2-.5-.5-.5h-1.8v-1h2.1c.3 0 .5-.2.5-.5s-.2-.5-.5-.5H76c-.3 0-.5.2-.5.5v3.7c0 .3.2.5.5.5h2.7c.3 0 .5-.2.5-.5 0 0-.2-.2-.5-.2ZM86.9 103.6c-.3 0-.4.2-.5.4l-1 2.9-1-2.9c-.1-.3-.3-.4-.5-.4h-.1c-.3 0-.5.2-.5.4l-1 2.9-1-2.9c-.1-.2-.3-.4-.5-.4-.3 0-.5.2-.5.5v.2l1.3 3.8c.1.3.3.4.5.4h.1c.3 0 .4-.2.5-.4l.9-2.7.9 2.7c.1.3.3.4.5.4h.1c.3 0 .5-.2.5-.4l1.3-3.8v-.2c.6-.3.3-.5 0-.5ZM91.2 104c-.1-.3-.3-.4-.6-.4h-.1c-.3 0-.5.2-.6.4l-1.7 3.8c0 .1-.1.2-.1.2 0 .3.2.5.5.5.2 0 .4-.1.5-.3l.3-.8h2.1l.3.8c.1.2.3.4.5.4.3 0 .5-.2.5-.5 0-.1 0-.1-.1-.2l-1.5-3.9Zm-1.3 2.5.7-1.6.7 1.6h-1.4ZM96.7 103.7H95c-.3 0-.5.2-.5.5v3.8c0 .3.2.5.5.5s.5-.2.5-.5v-1h.8l1 1.3c.1.2.3.3.5.3.3 0 .5-.2.5-.5 0-.2-.1-.3-.2-.4l-.7-.9c.6-.2 1-.7 1-1.5 0-.5-.1-.8-.4-1.1-.3-.4-.7-.5-1.3-.5Zm.7 1.6c0 .4-.3.7-.8.7h-1.1v-1.4h1c.6 0 .9.3.9.7ZM102 103.7h-1.3c-.3 0-.5.2-.5.5v3.7c0 .3.2.5.5.5h1.3c1.5 0 2.5-1 2.5-2.4 0-1.3-1-2.3-2.5-2.3Zm1.4 2.4c0 .8-.6 1.4-1.4 1.4h-.8v-2.9h.8c.8 0 1.4.6 1.4 1.5ZM108 105.6c-.8-.2-1-.3-1-.6 0-.2.2-.4.6-.4.3 0 .7.1 1 .3.1 0 .2.1.3.1.3 0 .5-.2.5-.5 0-.2-.1-.3-.2-.4-.4-.3-.9-.4-1.5-.4-1 0-1.7.6-1.7 1.4 0 1 .6 1.2 1.6 1.5.8.2 1 .3 1 .6s-.3.5-.7.5c-.5 0-.9-.2-1.2-.4-.1 0-.2-.1-.3-.1-.3 0-.5.2-.5.5 0 .2.1.3.2.4.5.4 1.2.6 1.8.6 1 0 1.8-.5 1.8-1.5-.2-1-.7-1.4-1.7-1.6ZM93.9 78.7c.7 0 1.3-.6 1.3-1.3 0-.7-.6-1.3-1.3-1.3-.7 0-1.3.6-1.3 1.3 0 .7.6 1.3 1.3 1.3ZM90.4 85.8c.7 0 1.3-.6 1.3-1.3 0-.7-.6-1.3-1.3-1.3-.7 0-1.3.6-1.3 1.3 0 .7.5 1.3 1.3 1.3ZM90.4 75.1c.7 0 1.3-.6 1.3-1.3 0-.7-.6-1.3-1.3-1.3-.7 0-1.3.6-1.3 1.3 0 .7.5 1.3 1.3 1.3ZM79.7 78.7c.7 0 1.3-.6 1.3-1.3 0-.7-.6-1.3-1.3-1.3-.7 0-1.3.6-1.3 1.3 0 .7.5 1.3 1.3 1.3ZM86.8 72.5c-.7 0-1.3.6-1.3 1.3 0 .7.6 1.3 1.3 1.3.7 0 1.3-.6 1.3-1.3 0-.7-.6-1.3-1.3-1.3ZM86.8 83.2c-.7 0-1.3.6-1.3 1.3 0 .7.6 1.3 1.3 1.3.7 0 1.3-.6 1.3-1.3 0-.7-.6-1.3-1.3-1.3ZM90.4 89.4c.7 0 1.3-.6 1.3-1.3 0-.7-.6-1.3-1.3-1.3-.7 0-1.3.6-1.3 1.3 0 .7.5 1.3 1.3 1.3ZM95.2 95.2c0-.7-.6-1.3-1.3-1.3-.7 0-1.3.6-1.3 1.3 0 .7.6 1.3 1.3 1.3.7 0 1.3-.6 1.3-1.3ZM90.8 91.6c0 .7.6 1.3 1.3 1.3.7 0 1.3-.6 1.3-1.3 0-.7-.6-1.3-1.3-1.3-.7 0-1.3.6-1.3 1.3ZM93.9 82.2a1.3 1.3 0 1 0 0-2.6 1.3 1.3 0 0 0 0 2.6ZM83.2 75.1c.7 0 1.3-.6 1.3-1.3 0-.7-.6-1.3-1.3-1.3-.7 0-1.3.6-1.3 1.3 0 .7.6 1.3 1.3 1.3ZM79.7 92.9c.7 0 1.3-.6 1.3-1.3 0-.7-.6-1.3-1.3-1.3-.7 0-1.3.6-1.3 1.3 0 .7.5 1.3 1.3 1.3ZM79.7 89.4c.7 0 1.3-.6 1.3-1.3 0-.7-.6-1.3-1.3-1.3-.7 0-1.3.6-1.3 1.3 0 .7.5 1.3 1.3 1.3ZM81 95.2c0-.7-.6-1.3-1.3-1.3-.7 0-1.3.6-1.3 1.3 0 .7.6 1.3 1.3 1.3.7 0 1.3-.6 1.3-1.3ZM79.7 85.8c.7 0 1.3-.6 1.3-1.3 0-.7-.6-1.3-1.3-1.3-.7 0-1.3.6-1.3 1.3 0 .7.5 1.3 1.3 1.3ZM79.7 75.1c.7 0 1.3-.6 1.3-1.3 0-.7-.6-1.3-1.3-1.3-.7 0-1.3.6-1.3 1.3 0 .7.5 1.3 1.3 1.3ZM79.7 82.2a1.3 1.3 0 1 0 0-2.6 1.3 1.3 0 0 0 0 2.6ZM83.2 85.8c.7 0 1.3-.6 1.3-1.3 0-.7-.6-1.3-1.3-1.3-.7 0-1.3.6-1.3 1.3 0 .7.6 1.3 1.3 1.3Z"/><path fill="#F26522" d="M124.7 205.8h-13.8v24.8h13.8v-24.8Z"/><path fill="#E51B24" d="M111.8 218.2c0-5 2.4-9.5 6-12.4-2.7-2.1-6.1-3.4-9.7-3.4-8.7 0-15.8 7.1-15.8 15.8 0 8.7 7.1 15.8 15.8 15.8 3.7 0 7.1-1.3 9.7-3.4-3.7-2.9-6-7.4-6-12.4Z"/><path fill="#fff" d="M141.8 227.9v-.5h.2v-.1h-.5v.1h.2v.5h.1Zm1 0v-.6h-.2l-.2.4-.2-.4h-.2v.6h.1v-.5l.2.4h.1l.2-.4v.5h.2Z"/><path fill="#F99F1C" d="M143.3 218.2c0 8.7-7.1 15.8-15.8 15.8-3.7 0-7.1-1.3-9.7-3.4 3.7-2.9 6-7.4 6-12.4s-2.4-9.5-6-12.4c2.7-2.1 6.1-3.4 9.7-3.4 8.7 0 15.8 7.1 15.8 15.8Z"/><path fill="#fff" d="M19.3 234.1c-.3-.1-.6-.5-.7-.8 0-.2 0-.4.3-1.1 1.4-2.6 2-5.1 2-8 0-2.8-.5-5.1-1.8-7.7-.3-.6-.5-1.1-.5-1.2 0-.3.2-.7.5-.9.4-.2.9-.2 1.2.1.1.1.4.6.6 1 .9 1.8 1.6 3.8 1.9 5.9.2 1.3.2 3.7.1 4.9-.3 2.2-.9 4.1-1.8 6-.6 1.2-.9 1.6-1.2 1.6h-.2c-.1.2-.3.2-.4.2Zm-3.8-2c-.5-.1-.8-.7-.7-1.2 0-.1.3-.6.5-1.1 1-2.1 1.5-4.4 1.3-6.7-.2-1.8-.5-3-1.3-4.7-.6-1.1-.6-1.3-.3-1.8.3-.4 1.1-.5 1.5-.1.3.3 1.2 2.1 1.5 3.1 1.1 3.4.9 7.1-.5 10.4-.8 1.8-1.3 2.3-2 2.1Zm-3.9-2c-.3-.1-.6-.5-.6-.8 0-.2 0-.4.4-1.1 1.3-2.7 1.3-5.2 0-7.8-.6-1.1-.6-1.4-.1-1.8.2-.2.3-.3.7-.3.6 0 .8.3 1.3 1.3.8 1.6 1.1 2.9 1.1 4.7 0 1.8-.3 3-1.1 4.7-.5.9-.7 1.2-1.2 1.3-.1-.1-.4-.2-.5-.2Zm-3.7-1.9c-.2-.1-.5-.4-.6-.7-.1-.3 0-.6.3-1.2.5-.8.6-1.2.6-2.2 0-1-.1-1.4-.6-2.2-.2-.3-.3-.6-.3-.7-.1-.5.3-1.1.8-1.2.5-.1.8.1 1.2.8 1.3 2 1.3 4.6 0 6.6-.3.8-.8 1-1.4.8Z"/><path fill="url(#c)" d="M71.1 183.1c1.5 0 2.7 1.2 2.7 2.6V211c0 1.5-1.2 2.6-2.7 2.6H54c-1.5 0-2.7-1.2-2.7-2.6v-25.2c0-1.5 1.2-2.6 2.7-2.6h17.1v-.1Z"/><path stroke="#000" stroke-width=".5" d="M59.2 183.1v8.8c-5.2.8-7.8 4.8-7.8 4.8v2.7s2.5 4 7.8 4.8v9.5M66.3 183.1v9c3.9 0 7.5 4.5 7.5 4.5v2.9s-3.6 4.5-7.5 4.5v9.6"/><path fill="#000" d="M52.9 197.3c.4 0 .7.3.7.7 0 .4-.3.7-.7.7-.4 0-.7-.3-.7-.7 0-.3.3-.7.7-.7Z"/><path stroke="#000" stroke-width=".5" d="M59.2 204.2s1.4-.6 3.5-.6 3.6.5 3.6.5M59.2 192s1.4.6 3.5.6 3.6-.5 3.6-.5M51.6 204.3v7.9M73.5 204.3v7.9M51.6 184.1v8M73.5 184.1v8"/><path stroke="#D1D3D4" stroke-width=".3" d="M71.1 183.1c1.5 0 2.7 1.2 2.7 2.6V211c0 1.5-1.2 2.6-2.7 2.6H54c-1.5 0-2.7-1.2-2.7-2.6v-25.2c0-1.5 1.2-2.6 2.7-2.6h17.1v-.1Z"/></g><defs><linearGradient id="b" x1="76.894" x2="76.455" y1="227.165" y2="44.769" gradientUnits="userSpaceOnUse"><stop offset=".649" stop-color="#A07D2D"/><stop offset=".756" stop-color="#A07E2E"/><stop offset=".844" stop-color="#A28034"/><stop offset=".925" stop-color="#A5843F"/><stop offset="1" stop-color="#A88A4F"/></linearGradient><linearGradient id="c" x1="72.218" x2="52.699" y1="185.563" y2="211.494" gradientUnits="userSpaceOnUse"><stop stop-color="#7A7A7A"/><stop offset=".304" stop-color="#fff"/><stop offset="1" stop-color="#7A7A7A"/></linearGradient><clipPath id="a"><rect width="151" height="241" fill="#fff" rx="10"/></clipPath></defs></svg>