<svg xmlns="http://www.w3.org/2000/svg" xmlns:xlink="http://www.w3.org/1999/xlink" width="266" height="168" viewBox="0 0 266 168">
  <defs>
    <rect id="big---1.-front-a" width="266" height="168" x="0" y="0" rx="10"/>
    <linearGradient id="big---1.-front-c" x1="100%" x2="2.722%" y1="30.055%" y2="69.945%">
      <stop offset="0%" stop-color="#CAA531"/>
      <stop offset="100%" stop-color="#785C06"/>
    </linearGradient>
    <linearGradient id="big---1.-front-d" x1="50%" x2="50%" y1="3.588%" y2="96.88%">
      <stop offset="0%" stop-color="#8E720D"/>
      <stop offset="100%" stop-color="#9D7C06"/>
    </linearGradient>
  </defs>
  <g fill="none" fill-rule="evenodd">
    <mask id="big---1.-front-b" fill="#fff">
      <use xlink:href="#big---1.-front-a"/>
    </mask>
    <g mask="url(#big---1.-front-b)">
      <rect width="266" height="168" fill="url(#big---1.-front-c)" rx="11"/>
      <rect width="67" height="168" fill="url(#big---1.-front-d)" transform="translate(199)"/>
      <path fill="#8A6C10" d="M205.620649,67.6167521 C205.380324,64.1124786 204.420432,60.6088889 202.499946,57.5723077 L186.175459,29.7747009 C184.975243,27.6721368 184.014649,25.3364103 183.534703,23 L182.814432,24.168547 C178.733135,30.9425641 178.733135,39.5852991 182.814432,46.36 L196.018216,68.5507692 C200.099514,75.3254701 200.099514,83.9682051 196.018216,90.7422222 L195.297946,91.9107692 C194.818,89.574359 193.857405,87.2386325 192.657189,85.1360684 L180.654324,64.8133333 L172.971676,51.7323077 C171.771459,49.6297436 170.811568,47.2940171 170.330919,44.9582906 L169.610649,46.1261538 C165.529351,52.9001709 165.529351,61.3097436 169.610649,68.3176068 L182.814432,90.5090598 C186.89573,97.2830769 186.89573,105.925812 182.814432,112.700513 L182.094865,113.868376 C181.614216,111.53265 180.654324,109.196923 179.454108,107.094359 L162.888595,79.2967521 C160.728486,75.5586325 159.767892,71.354188 159.767892,67.1490598 C142.243892,71.5880342 130,81.1647863 130,92.1439316 C130,107.561368 153.526486,119.941538 182.574108,119.941538 C211.622432,119.941538 235.148919,107.561368 235.148919,92.1439316 C235.388541,81.6324786 223.385676,72.0550427 205.620649,67.6167521"/>
      <path fill="#CEAB1B" d="M27.9781642,19.3286443 C27.9533485,18.7520768 27.7929928,18.1801004 27.4963179,17.6631044 L24.879659,13.1025216 C24.6801323,12.7548342 24.5422553,12.3820641 24.4658053,12 L24.3564162,12.1904722 C23.7087614,13.3193083 23.7087614,14.7099456 24.3563049,15.8387817 L26.4497211,19.4872032 C27.0972646,20.6160392 27.0972646,22.0067886 26.4497211,23.1355127 L26.340332,23.3260968 C26.2637707,22.9439207 26.1258937,22.5712626 25.926367,22.2235753 L24.0099988,18.8834254 L22.7863541,16.7508311 C22.5868274,16.4031437 22.4490617,16.0303737 22.3723891,15.6483095 L22.2631113,15.8388937 C21.6176821,16.9638106 21.615679,18.3489611 22.2567683,19.4756696 L22.2565457,19.4757816 L24.3564162,23.1355127 C25.004071,24.2643488 25.004071,25.6550981 24.3564162,26.7839342 L24.2470271,26.9745183 C24.1704658,26.5923422 24.0325888,26.2196841 23.8330621,25.8718848 L21.2165145,21.3114139 C20.8655345,20.6996858 20.7051788,20.0111417 20.7345569,19.3290922 C17.9333943,20.0654503 16,21.6290915 16,23.4395291 C16,25.9582187 19.7412637,28 24.3564162,28 C28.9714574,28 32.7127211,25.9582187 32.7127211,23.4395291 C32.7127211,21.6290915 30.7795494,20.0650024 27.9781642,19.3286443"/>
      <g transform="translate(223 137)">
        <rect width="8.241" height="14.906" x="11.119" y="2.028" fill="#FF5F00"/>
        <path fill="#EB001B" d="M11.6420905,9.48105386 C11.6420905,6.4523831 13.0548386,3.76608387 15.2262846,2.02789024 C13.6304025,0.763749411 11.6159285,-2.33625502e-06 9.41832046,-2.33625502e-06 C4.21208232,-2.33625502e-06 2.05751352e-07,4.24013667 2.05751352e-07,9.48105386 C2.05751352e-07,14.721971 4.21208232,18.96211 9.41832046,18.96211 C11.6159285,18.96211 13.6304025,18.1983583 15.2262846,16.9342175 C13.0548386,15.22236 11.6420905,12.5097246 11.6420905,9.48105386 Z"/>
        <path fill="#F79E1B" d="M30.4787311,9.48105386 C30.4787311,14.721971 26.266649,18.96211 21.0604108,18.96211 C18.8628027,18.96211 16.8483286,18.1983583 15.2524467,16.9342175 C17.4500547,15.1960238 18.8366407,12.5097246 18.8366407,9.48105386 C18.8366407,6.4523831 17.4238926,3.76608387 15.2524467,2.02789024 C16.8483286,0.763749411 18.8628027,-2.33625502e-06 21.0604108,-2.33625502e-06 C26.266649,-2.33625502e-06 30.4787311,4.26647294 30.4787311,9.48105386 Z"/>
      </g>
    </g>
  </g>
</svg>
