<svg xmlns="http://www.w3.org/2000/svg" xmlns:xlink="http://www.w3.org/1999/xlink" width="266" height="168" viewBox="0 0 266 168">
  <defs>
    <polygon id="big---2.-back-a" points="0 0 266 0 266 168 0 168"/>
  </defs>
  <g fill="none" fill-rule="evenodd">
    <mask id="big---2.-back-b" fill="#fff">
      <use xlink:href="#big---2.-back-a"/>
    </mask>
    <path fill="#C0C0C4" d="M254.641916,168 L11.3573648,168 C5.08488262,168 0,162.877735 0,156.558415 L0,11.4408602 C0,5.12226492 5.08488262,0 11.3573648,0 L254.641916,0 C260.915117,0 266,5.12226492 266,11.4408602 L266,156.558415 C266,162.877735 260.915117,168 254.641916,168" mask="url(#big---2.-back-b)"/>
    <rect width="266.008" height="16" y="24" fill="#9B9C9F" mask="url(#big---2.-back-b)"/>
    <path fill="#9B9C9F" d="M229.096743,115.137561 C228.924822,112.534882 228.238144,109.932711 226.864286,107.677395 L215.186238,87.0316765 C214.327639,85.4700692 213.640459,83.7352885 213.29712,82 L212.78186,82.8678982 C209.862222,87.8990668 209.862222,94.3181616 212.78186,99.3498381 L222.227451,115.83127 C225.147088,120.862947 225.147088,127.282042 222.227451,132.31321 L221.712191,133.181108 C221.368852,131.44582 220.681671,129.711039 219.823073,128.149432 L211.236583,113.055418 L205.740647,103.339935 C204.882049,101.778328 204.195371,100.043547 203.851529,98.3087666 L203.336269,99.1761569 C200.416632,104.207326 200.416632,110.453247 203.336269,115.658097 L212.78186,132.140037 C215.701498,137.171205 215.701498,143.5903 212.78186,148.621977 L212.267103,149.489367 C211.923261,147.754586 211.236583,146.019806 210.377985,144.458198 L198.527514,123.81248 C196.982237,121.03612 196.295057,117.913413 196.295057,114.790199 C183.758913,118.087095 175,125.199898 175,133.354282 C175,144.805053 191.830142,154 212.609939,154 C233.390239,154 250.220381,144.805053 250.220381,133.354282 C250.391799,125.547261 241.80531,118.433949 229.096743,115.137561" mask="url(#big---2.-back-b)" opacity=".4"/>
  </g>
</svg>
