<svg xmlns="http://www.w3.org/2000/svg" width="151" height="241" fill="none"><g clip-path="url(#a)"><rect width="151" height="241" fill="#fff" rx="10"/><path fill="#F0EFEF" stroke="#D6D6D6" stroke-miterlimit="10" stroke-width=".25" d="M142.8-1.2H9.6C4.1-1.2-.3 3.2-.3 8.7v223.9c0 5.5 4.4 9.9 9.9 9.9h133.2c5.5 0 9.9-4.4 9.9-9.9V8.8c0-5.5-4.4-10-9.9-10Z"/><path fill="#ED1C24" d="M36.8 25.7c0-.7-.2-1.3-.6-1.9l-3.1-5.3c-.2-.4-.4-.8-.5-1.3l-.1.2c-.8 1.3-.8 2.9 0 4.3L35 26c.8 1.3.8 2.9 0 4.3l-.1.2c-.1-.4-.3-.9-.5-1.3l-2.3-3.9-1.4-2.5c-.2-.4-.4-.8-.5-1.3l-.1.2c-.8 1.3-.8 2.9 0 4.3l2.5 4.3c.8 1.3.8 2.9 0 4.3l-.1.2c-.1-.4-.3-.9-.5-1.3L28.8 28c-.4-.7-.6-1.5-.6-2.3-3.3.9-5.6 2.7-5.6 4.8 0 2.9 4.4 5.3 9.8 5.3s9.8-2.4 9.8-5.3c.2-2.1-2.1-4-5.4-4.8Zm9.3 9.1c0-.8.1-1.3.4-1.9 1 .5 2.4.7 3.4.7 1.7 0 2.7-.6 2.7-1.6 0-1.1-.7-1.6-2.4-2.3l-.9-.4c-1.7-.8-2.9-1.7-2.9-3.7 0-2.1 1.5-3.5 4.5-3.5 1.2 0 2.3.2 3.4.5-.1.7-.2 1.3-.4 1.8-1-.4-2.2-.5-3-.5-1.6 0-2.3.6-2.3 1.6s.7 1.5 2 2.1l1 .4c2.3 1 3.3 2.1 3.3 3.8 0 2.1-1.6 3.6-4.7 3.6-1.8.1-3.1-.1-4.1-.6Zm18.4-8.9v9.2h-1.9l-.1-1.1c-.5.8-1.3 1.3-2.6 1.3-2.4 0-4.1-1.8-4.1-4.9 0-3.3 1.7-5.1 5.2-5.1 1.4.1 2.5.3 3.5.6Zm-2 7.2v-5.8c-.4-.1-.9-.1-1.5-.1-2.1 0-3.1 1.3-3.1 3.4 0 1.9.8 3.2 2.6 3.2.8-.1 1.5-.3 2-.7ZM75 29v6.2h-2v-5.9c0-1.5-.5-2.2-2.5-2.2-.5 0-1.1.1-1.6.1v7.9h-2v-9.2c1.3-.3 2.7-.5 3.7-.5 3.3 0 4.4 1.3 4.4 3.6Zm5.6 4.7c.6 0 1.1-.1 1.6-.3-.1.6-.1 1.2-.2 1.7-.6.2-1.1.3-1.7.3-2 0-3.2-.9-3.2-3.2v-9.7c.6-.2 1.4-.3 2-.3v3.5h3.2c0 .6-.1 1.2-.2 1.7h-3V32c-.1 1.2.5 1.7 1.5 1.7Zm10.9-7.8v9.2h-1.9l-.1-1.1c-.5.8-1.3 1.3-2.6 1.3-2.4 0-4.1-1.8-4.1-4.9 0-3.3 1.7-5.1 5.2-5.1 1.3.1 2.4.3 3.5.6Zm-2 7.2v-5.8c-.4-.1-.9-.1-1.5-.1-2.1 0-3.1 1.3-3.1 3.4 0 1.9.8 3.2 2.6 3.2.8-.1 1.4-.3 2-.7Zm12.4-4.1v6.2h-2v-5.9c0-1.5-.5-2.2-2.5-2.2-.5 0-1.1.1-1.6.1v7.9h-2v-9.2c1.3-.3 2.7-.5 3.7-.5 3.3 0 4.4 1.3 4.4 3.6Zm10.3-6.7v12.9h-1.9l-.1-1.2c-.5.9-1.3 1.4-2.6 1.4-2.4 0-4.1-1.8-4.1-4.9 0-3.3 1.7-5.1 5.2-5.1.5 0 1 .1 1.5.1v-3c.6-.2 1.3-.2 2-.2Zm-2 10.7v-5.7c-.5-.1-1.1-.2-1.6-.2-2 0-3 1.3-3 3.4 0 1.9.8 3.2 2.6 3.2.8 0 1.4-.2 2-.7Zm12.2-1.8h-6.5c.3 1.6 1.2 2.4 3 2.4 1.1 0 2.2-.2 3.3-.7-.1.5-.2 1.2-.3 1.8-.9.4-1.9.6-3 .6-3.4 0-5-1.9-5-5 0-2.8 1.3-4.9 4.5-4.9 2.9 0 4.2 1.9 4.2 4.2-.1.6-.1 1.1-.2 1.6Zm-6.5-1.7h4.6c0-1.5-.8-2.4-2.2-2.4-1.5 0-2.2.9-2.4 2.4Zm13.6-4c0 .6-.1 1.3-.2 1.7-.5-.1-1-.1-1.5-.1s-1 0-1.5.1v7.9h-2v-9.2c.9-.3 2.3-.5 3.5-.5.6 0 1.3 0 1.7.1Z"/><path fill="#fff" d="M37.8 96.5V133h-38v99.5c0 5.6 4.5 10.1 10.1 10.1h132.6c5.6 0 10.1-4.5 10.1-10.1v-136H37.8Z"/><path fill="url(#b)" d="M72.1 183.2c1.5 0 2.7 1.2 2.7 2.6V211c0 1.5-1.2 2.6-2.7 2.6H55c-1.5 0-2.7-1.2-2.7-2.6v-25.2c0-1.5 1.2-2.6 2.7-2.6h17.1Z"/><path stroke="#000" stroke-width=".5" d="M60.2 183.2v8.8c-5.2.8-7.8 4.8-7.8 4.8v2.7s2.5 4 7.8 4.8v9.5M67.3 183.2v9c3.9 0 7.5 4.5 7.5 4.5v2.8s-3.6 4.5-7.5 4.5v9.6"/><path fill="#000" d="M53.9 197.3c.4 0 .7.3.7.7 0 .4-.3.7-.7.7-.4 0-.7-.3-.7-.7 0-.3.3-.7.7-.7Z"/><path stroke="#000" stroke-width=".5" d="M60.2 204.2s1.4-.6 3.5-.6 3.6.5 3.6.5M60.2 192s1.4.6 3.5.6 3.6-.5 3.6-.5M52.6 204.3v7.9M74.5 204.3v7.9M52.6 184.2v7.9M74.5 184.2v7.9"/><path stroke="#D1D3D4" stroke-width=".3" d="M72.1 183.2c1.5 0 2.7 1.2 2.7 2.6V211c0 1.5-1.2 2.6-2.7 2.6H55c-1.5 0-2.7-1.2-2.7-2.6v-25.2c0-1.5 1.2-2.6 2.7-2.6h17.1Z"/><path fill="#000" d="M20.3 234.3c-.3-.1-.6-.5-.7-.8 0-.2 0-.4.3-1.1 1.4-2.6 2-5.1 2-8 0-2.8-.5-5.1-1.8-7.7-.3-.6-.5-1.1-.5-1.2 0-.3.2-.7.5-.9.4-.2.9-.2 1.2.1.1.1.4.6.6 1 .9 1.8 1.6 3.8 1.9 5.9.2 1.3.2 3.8.1 4.9-.3 2.2-.9 4.1-1.8 6-.6 1.2-.9 1.6-1.2 1.6h-.2c-.1.2-.3.2-.4.2Zm-3.8-2c-.5-.1-.8-.7-.7-1.2 0-.1.3-.6.5-1.1 1-2.1 1.5-4.4 1.3-6.7-.2-1.8-.5-3-1.3-4.7-.6-1.1-.6-1.3-.3-1.8.3-.4 1.1-.5 1.5-.1.3.3 1.2 2.1 1.5 3.1 1.1 3.4.9 7.1-.5 10.4-.8 1.8-1.3 2.3-2 2.1Zm-4-2c-.3-.1-.6-.5-.6-.8 0-.2 0-.4.4-1.1 1.3-2.7 1.3-5.2 0-7.8-.6-1.1-.6-1.4-.1-1.8.2-.2.3-.3.7-.3.6 0 .8.3 1.3 1.3.8 1.6 1.1 2.9 1.1 4.7 0 1.8-.3 3-1.1 4.7-.5.9-.7 1.2-1.2 1.3-.1-.1-.3-.2-.5-.2Zm-3.6-1.9c-.2-.1-.5-.4-.6-.7-.1-.3 0-.6.3-1.2.5-.8.6-1.2.6-2.2 0-1-.1-1.4-.6-2.2-.2-.3-.3-.6-.3-.7-.1-.5.3-1.1.8-1.2.5-.1.8.1 1.2.8 1.3 2 1.3 4.6 0 6.6-.4.8-.9 1-1.4.8Z"/><path fill="#F26522" d="M125.7 205.9h-13.8v24.8h13.8v-24.8Z"/><path fill="#E51B24" d="M112.8 218.3c0-5 2.4-9.5 6-12.4-2.7-2.1-6.1-3.4-9.7-3.4-8.7 0-15.8 7.1-15.8 15.8 0 8.7 7.1 15.8 15.8 15.8 3.7 0 7.1-1.3 9.7-3.4-3.7-2.9-6-7.4-6-12.4Z"/><path fill="#000" d="M142.8 228.1v-.5h.2v-.1h-.5v.1h.2v.5h.1Zm1 0v-.6h-.2l-.2.4-.2-.4h-.2v.6h.1v-.5l.2.4h.1l.2-.4v.5h.2Z"/><path fill="#F99F1C" d="M144.3 218.3c0 8.7-7.1 15.8-15.8 15.8-3.7 0-7.1-1.3-9.7-3.4 3.7-2.9 6-7.4 6-12.4s-2.4-9.5-6-12.4c2.7-2.1 6.1-3.4 9.7-3.4 8.7 0 15.8 7.1 15.8 15.8Z"/><path fill="#000" d="M55.8 60.8h-3.2v-1.7h3.2v-1.2c0-3.4.1-6.7 4.2-6.7.6 0 1.5.1 1.9.3l-.1 1.7c-.4-.2-1-.3-1.6-.3-2.7 0-2.4 2.9-2.4 4.8v1.4h3.6v1.7h-3.6v23h-2v-23ZM63.9 54.9c0-1.8 0-2.4-.1-3.6h2v3.1h.1c.7-1.8 2.1-3.5 4.1-3.5.5 0 1 .1 1.4.2v2.1c-.5-.2-1-.2-1.5-.2-3.1 0-4 3.5-4 6.4v7.9h-2V54.9ZM83.2 66.8c-1.4.6-3.2.9-4.6.9-5.3 0-7.3-3.6-7.3-8.4 0-4.9 2.7-8.4 6.7-8.4 4.5 0 6.4 3.6 6.4 7.9v1h-11c0 3.4 1.8 6.1 5.3 6.1 1.4 0 3.5-.6 4.5-1.2v2.1Zm-1-8.7c0-2.8-1.1-5.6-4.1-5.6-2.9 0-4.7 2.9-4.7 5.6h8.8ZM98 66.8c-1.4.6-3.2.9-4.6.9-5.3 0-7.3-3.6-7.3-8.4 0-4.9 2.7-8.4 6.7-8.4 4.5 0 6.4 3.6 6.4 7.9v1h-11c0 3.4 1.8 6.1 5.3 6.1 1.4 0 3.5-.6 4.5-1.2v2.1Zm-.9-8.7c0-2.8-1.1-5.6-4.1-5.6-2.9 0-4.7 2.9-4.7 5.6h8.8Z"/></g><defs><linearGradient id="b" x1="73.205" x2="53.712" y1="185.579" y2="211.477" gradientUnits="userSpaceOnUse"><stop stop-color="#7A7A7A"/><stop offset=".304" stop-color="#fff"/><stop offset="1" stop-color="#7A7A7A"/></linearGradient><clipPath id="a"><rect width="151" height="241" fill="#fff" rx="10"/></clipPath></defs></svg>