<svg xmlns="http://www.w3.org/2000/svg" xmlns:xlink="http://www.w3.org/1999/xlink" width="266" height="168" viewBox="0 0 266 168">
  <defs>
    <rect id="big---1.-front-a" width="266" height="168" x="0" y="0" rx="10"/>
    <path id="big---1.-front-c" d="M202.573644,67.2269827 L179.286757,27.6560227 C177.574648,24.662942 176.20436,21.3379457 175.519717,18.011976 L174.492251,19.6754476 C168.670279,29.3185208 168.670279,41.6217858 174.492251,51.2658325 L193.327454,82.855244 C199.149426,92.4992906 199.149426,104.802556 193.327454,114.445629 L192.299988,116.1091 C191.615345,112.783131 190.245056,109.458134 188.532947,106.465054 L171.410856,77.5348606 L160.451555,58.9135186 C158.739446,55.9204379 157.37016,52.5954416 156.684514,49.2704453 L155.657048,50.9329435 C149.835076,60.5760168 149.835076,72.5473661 155.657048,82.5233284 L174.492251,114.113713 C180.314223,123.756787 180.314223,136.060052 174.492251,145.704098 L173.465787,147.366596 C172.780142,144.0416 171.410856,140.716604 169.698747,137.723523 L146.068035,98.152563 C142.98664,92.8312062 141.616352,86.8460182 141.616352,80.8598569 C116.618359,87.1789072 99.1524426,100.811781 99.1524426,116.441016 C99.1524426,138.388328 132.712985,156.011976 174.149428,156.011976 C215.586874,156.011976 249.147416,138.388328 249.147416,116.441016 C249.489236,101.477559 232.367145,87.8437118 207.025327,81.5256348 C206.682504,76.537167 205.313218,71.5496726 202.573644,67.2269827 Z"/>
    <filter id="big---1.-front-d" width="100.7%" height="100.7%" x="-.3%" y="-.4%" filterUnits="objectBoundingBox">
      <feOffset dx="1" dy="1" in="SourceAlpha" result="shadowOffsetInner1"/>
      <feComposite in="shadowOffsetInner1" in2="SourceAlpha" k2="-1" k3="1" operator="arithmetic" result="shadowInnerInner1"/>
      <feColorMatrix in="shadowInnerInner1" values="0 0 0 0 1   0 0 0 0 1   0 0 0 0 1  0 0 0 0.868553322 0"/>
    </filter>
  </defs>
  <g fill="none" fill-rule="evenodd">
    <mask id="big---1.-front-b" fill="#fff">
      <use xlink:href="#big---1.-front-a"/>
    </mask>
    <g mask="url(#big---1.-front-b)">
      <rect width="266" height="168" fill="#C7C8CC"/>
      <path fill="#FFF" d="M25.9781642,19.3286443 C25.9533485,18.7520768 25.7929928,18.1801004 25.4963179,17.6631044 L22.879659,13.1025216 C22.6801323,12.7548342 22.5422553,12.3820641 22.4658053,12 L22.3564162,12.1904722 C21.7087614,13.3193083 21.7087614,14.7099456 22.3563049,15.8387817 L24.4497211,19.4872032 C25.0972646,20.6160392 25.0972646,22.0067886 24.4497211,23.1355127 L24.340332,23.3260968 C24.2637707,22.9439207 24.1258937,22.5712626 23.926367,22.2235753 L22.0099988,18.8834254 L20.7863541,16.7508311 C20.5868274,16.4031437 20.4490617,16.0303737 20.3723891,15.6483095 L20.2631113,15.8388937 C19.6176821,16.9638106 19.615679,18.3489611 20.2567683,19.4756696 L20.2565457,19.4757816 L22.3564162,23.1355127 C23.004071,24.2643488 23.004071,25.6550981 22.3564162,26.7839342 L22.2470271,26.9745183 C22.1704658,26.5923422 22.0325888,26.2196841 21.8330621,25.8718848 L19.2165145,21.3114139 C18.8655345,20.6996858 18.7051788,20.0111417 18.7345569,19.3290922 C15.9333943,20.0654503 14,21.6290915 14,23.4395291 C14,25.9582187 17.7412637,28 22.3564162,28 C26.9714574,28 30.7127211,25.9582187 30.7127211,23.4395291 C30.7127211,21.6290915 28.7795494,20.0650024 25.9781642,19.3286443"/>
      <path fill="#FAFAFA" d="M175.423779,0 L272,0 L272,168 L175.423779,168 L175,147.453753 C207.265625,130.218959 216.598958,109.067708 203,84 C189.401042,58.9322917 180.208968,40.6875 175.423779,29.265625 L175.423779,0 Z"/>
      <use fill="#DFE0E2" xlink:href="#big---1.-front-c"/>
      <use fill="#000" filter="url(#big---1.-front-d)" xlink:href="#big---1.-front-c"/>
      <g transform="translate(221 137)">
        <rect width="8.241" height="14.906" x="11.119" y="2.028" fill="#FF5F00"/>
        <path fill="#EB001B" d="M11.6420905,9.48105386 C11.6420905,6.4523831 13.0548386,3.76608387 15.2262846,2.02789024 C13.6304025,0.763749411 11.6159285,-2.33625502e-06 9.41832046,-2.33625502e-06 C4.21208232,-2.33625502e-06 2.05751352e-07,4.24013667 2.05751352e-07,9.48105386 C2.05751352e-07,14.721971 4.21208232,18.96211 9.41832046,18.96211 C11.6159285,18.96211 13.6304025,18.1983583 15.2262846,16.9342175 C13.0548386,15.22236 11.6420905,12.5097246 11.6420905,9.48105386 Z"/>
        <path fill="#F79E1B" d="M30.4787311,9.48105386 C30.4787311,14.721971 26.266649,18.96211 21.0604108,18.96211 C18.8628027,18.96211 16.8483286,18.1983583 15.2524467,16.9342175 C17.4500547,15.1960238 18.8366407,12.5097246 18.8366407,9.48105386 C18.8366407,6.4523831 17.4238926,3.76608387 15.2524467,2.02789024 C16.8483286,0.763749411 18.8628027,-2.33625502e-06 21.0604108,-2.33625502e-06 C26.266649,-2.33625502e-06 30.4787311,4.26647294 30.4787311,9.48105386 Z"/>
      </g>
    </g>
  </g>
</svg>
