<svg xmlns="http://www.w3.org/2000/svg" xmlns:xlink="http://www.w3.org/1999/xlink" width="266" height="168" viewBox="0 0 266 168">
  <defs>
    <rect id="big---1.-front-a" width="266" height="168" x="0" y="0" rx="10"/>
    <linearGradient id="big---1.-front-c" x1="50%" x2="50%" y1="100%" y2="0%">
      <stop offset="0%" stop-color="#BCBDC1"/>
      <stop offset="100%" stop-color="#A0A2A6"/>
    </linearGradient>
    <radialGradient id="big---1.-front-f" cx="59.352%" cy="-24.076%" r="98.93%" fx="59.352%" fy="-24.076%" gradientTransform="scale(-.92191 -1) rotate(-84.115 .242 .686)">
      <stop offset="0%" stop-color="#FFF"/>
      <stop offset="0%" stop-color="#F6F7F7"/>
      <stop offset="100%" stop-color="#8D8E93"/>
    </radialGradient>
    <path id="big---1.-front-e" d="M217.499946,52.5842837 L201.175459,24.7866769 C199.975243,22.6841128 199.014649,20.3483863 198.534703,18.011976 L197.814432,19.1805231 C193.733135,25.9545402 193.733135,34.5972752 197.814432,41.371976 L211.018216,63.5627453 C215.099514,70.3374461 215.099514,78.9801812 211.018216,85.7541983 L210.297946,86.9227453 C209.818,84.586335 208.857405,82.2506085 207.657189,80.1480444 L195.654324,59.8253094 L187.971676,46.7442837 C186.771459,44.6417196 185.811568,42.3059931 185.330919,39.9702666 L184.610649,41.1381299 C180.529351,47.912147 180.529351,56.3217196 184.610649,63.3295829 L197.814432,85.5210359 C201.89573,92.295053 201.89573,100.937788 197.814432,107.712489 L197.094865,108.880352 C196.614216,106.544626 195.654324,104.208899 194.454108,102.106335 L177.888595,74.3087282 C175.728486,70.5706085 174.767892,66.3661641 174.767892,62.1610359 C157.243892,66.6000102 145,76.1767624 145,87.1559077 C145,102.573344 168.526486,114.953515 197.574108,114.953515 C226.622432,114.953515 250.148919,102.573344 250.148919,87.1559077 C250.388541,76.6444547 238.385676,67.0670188 220.620649,62.6287282 C220.380324,59.1244547 219.420432,55.6208649 217.499946,52.5842837 Z"/>
    <filter id="big---1.-front-d" width="119%" height="120.6%" x="-7.6%" y="-12.4%" filterUnits="objectBoundingBox">
      <feOffset dx="2" dy="-2" in="SourceAlpha" result="shadowOffsetOuter1"/>
      <feGaussianBlur in="shadowOffsetOuter1" result="shadowBlurOuter1" stdDeviation="3"/>
      <feColorMatrix in="shadowBlurOuter1" values="0 0 0 0 0.390908062   0 0 0 0 0.390908062   0 0 0 0 0.390908062  0 0 0 0.606779939 0"/>
    </filter>
    <filter id="big---1.-front-g" width="113.3%" height="114.4%" x="-4.8%" y="-9.3%" filterUnits="objectBoundingBox">
      <feOffset dx="-2" dy="1" in="SourceAlpha" result="shadowOffsetInner1"/>
      <feComposite in="shadowOffsetInner1" in2="SourceAlpha" k2="-1" k3="1" operator="arithmetic" result="shadowInnerInner1"/>
      <feColorMatrix in="shadowInnerInner1" values="0 0 0 0 1   0 0 0 0 1   0 0 0 0 1  0 0 0 0.493444056 0"/>
    </filter>
  </defs>
  <g fill="none" fill-rule="evenodd">
    <mask id="big---1.-front-b" fill="#fff">
      <use xlink:href="#big---1.-front-a"/>
    </mask>
    <g mask="url(#big---1.-front-b)">
      <rect width="266" height="168" fill="#7D7E82"/>
      <path fill="#FFF" d="M25.9781642,19.3286443 C25.9533485,18.7520768 25.7929928,18.1801004 25.4963179,17.6631044 L22.879659,13.1025216 C22.6801323,12.7548342 22.5422553,12.3820641 22.4658053,12 L22.3564162,12.1904722 C21.7087614,13.3193083 21.7087614,14.7099456 22.3563049,15.8387817 L24.4497211,19.4872032 C25.0972646,20.6160392 25.0972646,22.0067886 24.4497211,23.1355127 L24.340332,23.3260968 C24.2637707,22.9439207 24.1258937,22.5712626 23.926367,22.2235753 L22.0099988,18.8834254 L20.7863541,16.7508311 C20.5868274,16.4031437 20.4490617,16.0303737 20.3723891,15.6483095 L20.2631113,15.8388937 C19.6176821,16.9638106 19.615679,18.3489611 20.2567683,19.4756696 L20.2565457,19.4757816 L22.3564162,23.1355127 C23.004071,24.2643488 23.004071,25.6550981 22.3564162,26.7839342 L22.2470271,26.9745183 C22.1704658,26.5923422 22.0325888,26.2196841 21.8330621,25.8718848 L19.2165145,21.3114139 C18.8655345,20.6996858 18.7051788,20.0111417 18.7345569,19.3290922 C15.9333943,20.0654503 14,21.6290915 14,23.4395291 C14,25.9582187 17.7412637,28 22.3564162,28 C26.9714574,28 30.7127211,25.9582187 30.7127211,23.4395291 C30.7127211,21.6290915 28.7795494,20.0650024 25.9781642,19.3286443"/>
      <path fill="url(#big---1.-front-c)" d="M199,0 L266,0 L266,168 L199,168 L198.576221,112 C213.525407,92.1223958 221,78.2669271 221,70.4335938 C221,62.6002604 213.666667,48.8776042 199,29.265625 L199,0 Z"/>
      <g transform="translate(221 137)">
        <rect width="8.241" height="14.906" x="11.119" y="2.028" fill="#FF5F00"/>
        <path fill="#EB001B" d="M11.6420905,9.48105386 C11.6420905,6.4523831 13.0548386,3.76608387 15.2262846,2.02789024 C13.6304025,0.763749411 11.6159285,-2.33625502e-06 9.41832046,-2.33625502e-06 C4.21208232,-2.33625502e-06 2.05751352e-07,4.24013667 2.05751352e-07,9.48105386 C2.05751352e-07,14.721971 4.21208232,18.96211 9.41832046,18.96211 C11.6159285,18.96211 13.6304025,18.1983583 15.2262846,16.9342175 C13.0548386,15.22236 11.6420905,12.5097246 11.6420905,9.48105386 Z"/>
        <path fill="#F79E1B" d="M30.4787311,9.48105386 C30.4787311,14.721971 26.266649,18.96211 21.0604108,18.96211 C18.8628027,18.96211 16.8483286,18.1983583 15.2524467,16.9342175 C17.4500547,15.1960238 18.8366407,12.5097246 18.8366407,9.48105386 C18.8366407,6.4523831 17.4238926,3.76608387 15.2524467,2.02789024 C16.8483286,0.763749411 18.8628027,-2.33625502e-06 21.0604108,-2.33625502e-06 C26.266649,-2.33625502e-06 30.4787311,4.26647294 30.4787311,9.48105386 Z"/>
      </g>
      <use fill="#000" filter="url(#big---1.-front-d)" xlink:href="#big---1.-front-e"/>
      <use fill="url(#big---1.-front-f)" xlink:href="#big---1.-front-e"/>
      <use fill="#000" filter="url(#big---1.-front-g)" xlink:href="#big---1.-front-e"/>
    </g>
  </g>
</svg>
