<svg xmlns="http://www.w3.org/2000/svg" xmlns:xlink="http://www.w3.org/1999/xlink" width="266" height="168" viewBox="0 0 266 168">
  <defs>
    <rect id="big---1.-front-a" width="266" height="168" rx="10"/>
    <linearGradient id="big---1.-front-c" x1="28.735%" x2="-14.012%" y1="54.656%" y2="74.997%">
      <stop offset="0%" stop-color="#FFF"/>
      <stop offset="100%" stop-color="#CAC8C8"/>
    </linearGradient>
    <polygon id="big---1.-front-d" points="28.062 .194 .78 31.499 47.131 34.92 44.241 .194"/>
    <linearGradient id="big---1.-front-e" x1="50%" x2="50%" y1="100%" y2="-48.812%">
      <stop offset="0%" stop-color="#FFF"/>
      <stop offset="100%" stop-color="#C1C1C1"/>
    </linearGradient>
    <polygon id="big---1.-front-g" points=".768 .17 50.99 56.192 46.736 3.624"/>
    <linearGradient id="big---1.-front-h" x1="49.999%" x2="49.999%" y1="99.997%" y2=".001%">
      <stop offset="0%" stop-color="#FFF"/>
      <stop offset="100%" stop-color="#C1C1C1"/>
    </linearGradient>
    <polygon id="big---1.-front-j" points=".245 50.078 23.523 50.957 35.118 .691 35.066 .642"/>
    <linearGradient id="big---1.-front-k" x1="49.997%" x2="49.997%" y1="100.002%" y2=".002%">
      <stop offset="0%" stop-color="#FFF"/>
      <stop offset="100%" stop-color="#C1C1C1"/>
    </linearGradient>
    <polygon id="big---1.-front-m" points=".473 .202 4.713 52.201 40.052 3.168"/>
    <linearGradient id="big---1.-front-n" x1="49.999%" x2="49.999%" y1="0%" y2="99.996%">
      <stop offset="0%" stop-color="#FFF"/>
      <stop offset="100%" stop-color="#C1C1C1"/>
    </linearGradient>
    <polygon id="big---1.-front-p" points=".123 .19 10.947 30.888 37.97 .19"/>
    <linearGradient id="big---1.-front-q" x1="52.554%" x2="52.554%" y1="100.002%" y2="-117.315%">
      <stop offset="0%" stop-color="#FFF"/>
      <stop offset="100%" stop-color="#C1C1C1"/>
    </linearGradient>
    <polygon id="big---1.-front-s" points="2.533 2.677 2.587 2.729 2.533 2.619"/>
    <linearGradient id="big---1.-front-t" x1="50%" x2="50%" y1="51.04%" y2="48.99%">
      <stop offset="0%" stop-color="#FFF"/>
      <stop offset="100%" stop-color="#C1C1C1"/>
    </linearGradient>
    <polygon id="big---1.-front-v" points=".707 .239 3.623 35.183 44.032 38.172 44.032 38.119 13.176 .239"/>
    <linearGradient id="big---1.-front-w" x1="100.001%" x2="-3.284%" y1="27.518%" y2="27.518%">
      <stop offset="0%" stop-color="#FFF"/>
      <stop offset="100%" stop-color="#C1C1C1"/>
    </linearGradient>
    <polygon id="big---1.-front-y" points=".011 .239 30.43 38.119 57.725 .239"/>
    <linearGradient id="big---1.-front-z" x1="100.004%" x2="-23.729%" y1="27.488%" y2="27.488%">
      <stop offset="0%" stop-color="#FFF"/>
      <stop offset="100%" stop-color="#C1C1C1"/>
    </linearGradient>
    <polygon id="big---1.-front-B" points=".013 40.96 30.647 21.377 .013 .769"/>
    <linearGradient id="big---1.-front-C" x1="45.082%" x2="45.082%" y1="118.536%" y2="-38.243%">
      <stop offset="0%" stop-color="#FFF"/>
      <stop offset="100%" stop-color="#C1C1C1"/>
    </linearGradient>
    <polygon id="big---1.-front-E" points=".099 1.148 13.359 8.495 13.359 .578"/>
    <linearGradient id="big---1.-front-F" x1="-41.817%" x2="316.711%" y1="137.466%" y2="137.466%">
      <stop offset="0%" stop-color="#FFF"/>
      <stop offset="100%" stop-color="#C1C1C1"/>
    </linearGradient>
    <polygon id="big---1.-front-H" points="13.359 29.231 13.359 7.243 .099 .093"/>
    <linearGradient id="big---1.-front-I" x1="152.208%" x2="152.208%" y1="13.664%" y2="243.235%">
      <stop offset="0%" stop-color="#FFF"/>
      <stop offset="100%" stop-color="#C1C1C1"/>
    </linearGradient>
    <polygon id="big---1.-front-K" points="34.886 48.007 36.382 48.007 57.932 25.473 .117 .024"/>
    <linearGradient id="big---1.-front-L" x1="99.997%" x2=".001%" y1="50.923%" y2="50.923%">
      <stop offset="0%" stop-color="#FFF"/>
      <stop offset="100%" stop-color="#C1C1C1"/>
    </linearGradient>
    <polygon id="big---1.-front-N" points=".099 18.695 13.359 18.146 13.359 .656"/>
    <linearGradient id="big---1.-front-O" x1="152.208%" x2="152.208%" y1="100.005%" y2="-122.878%">
      <stop offset="0%" stop-color="#FFF"/>
      <stop offset="100%" stop-color="#C1C1C1"/>
    </linearGradient>
    <polygon id="big---1.-front-Q" points=".69 .219 28.315 40.868 28.315 .219"/>
    <linearGradient id="big---1.-front-R" x1="67.981%" x2="67.981%" y1="159.662%" y2="-232.723%">
      <stop offset="0%" stop-color="#FFF"/>
      <stop offset="100%" stop-color="#C1C1C1"/>
    </linearGradient>
    <polygon id="big---1.-front-T" points="8.734 37.031 30.681 37.031 .897 .874"/>
    <linearGradient id="big---1.-front-U" x1="51.197%" x2="51.197%" y1="102.398%" y2="-.005%">
      <stop offset="0%" stop-color="#FFF"/>
      <stop offset="100%" stop-color="#C1C1C1"/>
    </linearGradient>
    <polygon id="big---1.-front-W" points=".872 10.945 30.461 48.007 31.158 48.007 28.637 .024"/>
    <linearGradient id="big---1.-front-X" x1="50.08%" x2="50.08%" y1="-.006%" y2="101.852%">
      <stop offset="0%" stop-color="#FFF"/>
      <stop offset="100%" stop-color="#C1C1C1"/>
    </linearGradient>
    <polygon id="big---1.-front-Z" points="2.679 48.007 34.129 48.007 .084 .024"/>
    <linearGradient id="big---1.-front-aa" x1="50.924%" x2="50.924%" y1="101.852%" y2="-.006%">
      <stop offset="0%" stop-color="#FFF"/>
      <stop offset="100%" stop-color="#C1C1C1"/>
    </linearGradient>
    <polygon id="big---1.-front-ac" points=".557 59.005 13.359 59.005 13.359 29.95 .099 .003"/>
    <linearGradient id="big---1.-front-ad" x1="-54.822%" x2="145.13%" y1="50.755%" y2="50.755%">
      <stop offset="0%" stop-color="#FFF"/>
      <stop offset="100%" stop-color="#C1C1C1"/>
    </linearGradient>
    <polygon id="big---1.-front-af" points="49.419 75.017 50.503 75.017 83.896 16.689 .432 .553"/>
    <linearGradient id="big---1.-front-ag" x1="61.847%" x2="-38.153%" y1="50.589%" y2="50.589%">
      <stop offset="0%" stop-color="#FFF"/>
      <stop offset="100%" stop-color="#C1C1C1"/>
    </linearGradient>
    <polygon id="big---1.-front-ai" points=".301 59.005 34.111 59.005 33.638 .003"/>
    <linearGradient id="big---1.-front-aj" x1="49.269%" x2="49.269%" y1=".002%" y2="101.508%">
      <stop offset="0%" stop-color="#FFF"/>
      <stop offset="100%" stop-color="#C1C1C1"/>
    </linearGradient>
    <polygon id="big---1.-front-al" points=".21 52.657 .254 52.657 19.244 75.017 20.407 75.017 50.137 .553"/>
    <linearGradient id="big---1.-front-am" x1="50.001%" x2="50.001%" y1="101.182%" y2="-.003%">
      <stop offset="0%" stop-color="#FFF"/>
      <stop offset="100%" stop-color="#C1C1C1"/>
    </linearGradient>
    <polygon id="big---1.-front-ao" points="13.655 75.017 50.935 75.017 .487 .553"/>
    <linearGradient id="big---1.-front-ap" x1="50.595%" x2="50.595%" y1="101.182%" y2="-.003%">
      <stop offset="0%" stop-color="#FFF"/>
      <stop offset="100%" stop-color="#C1C1C1"/>
    </linearGradient>
    <polygon id="big---1.-front-ar" points="22.301 .773 22.257 .773 .872 22.062 41.212 22.062 22.301 .727"/>
    <linearGradient id="big---1.-front-as" x1="49.874%" x2="49.874%" y1="103.935%" y2=".004%">
      <stop offset="0%" stop-color="#FFF"/>
      <stop offset="100%" stop-color="#C1C1C1"/>
    </linearGradient>
    <polygon id="big---1.-front-au" points=".37 75.017 42.888 75.017 29.958 .553"/>
    <linearGradient id="big---1.-front-av" x1="100.365%" x2="-.829%" y1="50.589%" y2="50.589%">
      <stop offset="0%" stop-color="#FFF"/>
      <stop offset="100%" stop-color="#C1C1C1"/>
    </linearGradient>
    <polygon id="big---1.-front-ax" points="11.832 97.44 40.815 86.607 .778 .169"/>
    <linearGradient id="big---1.-front-ay" x1="50.002%" x2="50.002%" y1=".001%" y2="99.998%">
      <stop offset="0%" stop-color="#FFF"/>
      <stop offset="100%" stop-color="#C1C1C1"/>
    </linearGradient>
    <polygon id="big---1.-front-aA" points=".072 33.568 20.439 5.378 .072 .032"/>
    <linearGradient id="big---1.-front-aB" x1="42.46%" x2="42.46%" y1="196.182%" y2="-31.672%">
      <stop offset="0%" stop-color="#FFF"/>
      <stop offset="100%" stop-color="#C1C1C1"/>
    </linearGradient>
    <polygon id="big---1.-front-aD" points=".768 .169 40.935 86.71 50.99 56.057"/>
    <linearGradient id="big---1.-front-aE" x1="49.999%" x2="49.999%" y1="100.002%" y2=".001%">
      <stop offset="0%" stop-color="#FFF"/>
      <stop offset="100%" stop-color="#C1C1C1"/>
    </linearGradient>
    <polygon id="big---1.-front-aG" points="10.211 .655 .117 31.724 57.932 57.336 57.932 57.287"/>
    <linearGradient id="big---1.-front-aH" x1="49.999%" x2="49.999%" y1="99.999%" y2="-.003%">
      <stop offset="0%" stop-color="#FFF"/>
      <stop offset="100%" stop-color="#C1C1C1"/>
    </linearGradient>
    <polygon id="big---1.-front-aJ" points=".013 28.531 .013 76.561 30.647 97.44 19.988 .169"/>
    <linearGradient id="big---1.-front-aK" x1="45.082%" x2="45.082%" y1="99.998%" y2="0%">
      <stop offset="0%" stop-color="#FFF"/>
      <stop offset="100%" stop-color="#C1C1C1"/>
    </linearGradient>
    <polygon id="big---1.-front-aM" points="2.331 2.746 2.381 2.746 2.381 2.799 2.331 2.799"/>
    <linearGradient id="big---1.-front-aN" x1="49.945%" x2="49.945%" y1="50.49%" y2="49.52%">
      <stop offset="0%" stop-color="#FFF"/>
      <stop offset="100%" stop-color="#C1C1C1"/>
    </linearGradient>
    <polygon id="big---1.-front-aP" points=".432 44.368 83.896 60.655 64.935 .549"/>
    <linearGradient id="big---1.-front-aQ" x1="50.003%" x2="50.003%" y1="-.002%" y2="100.002%">
      <stop offset="0%" stop-color="#FFF"/>
      <stop offset="100%" stop-color="#C1C1C1"/>
    </linearGradient>
    <polygon id="big---1.-front-aS" points="55.005 .066 .434 76.105 65.37 32.386"/>
    <linearGradient id="big---1.-front-aT" x1="50.002%" x2="50.002%" y1="99.997%" y2="-.003%">
      <stop offset="0%" stop-color="#FFF"/>
      <stop offset="100%" stop-color="#C1C1C1"/>
    </linearGradient>
    <polygon id="big---1.-front-aV" points=".641 .544 19.586 60.655 33.319 41.955 33.319 12.656 .732 .452"/>
    <linearGradient id="big---1.-front-aW" x1="75.811%" x2="75.811%" y1="51.425%" y2="-48.583%">
      <stop offset="0%" stop-color="#FFF"/>
      <stop offset="100%" stop-color="#C1C1C1"/>
    </linearGradient>
    <polygon id="big---1.-front-aY" points=".008 .221 34.394 91.108 88.817 15.544"/>
    <linearGradient id="big---1.-front-aZ" x1="99.999%" x2=".002%" y1="49.998%" y2="49.998%">
      <stop offset="0%" stop-color="#FFF"/>
      <stop offset="100%" stop-color="#C1C1C1"/>
    </linearGradient>
    <path id="big---1.-front-bb" d="M2.331,2.74616667 L2.376,2.74616667 L2.331,2.74616667 Z"/>
    <linearGradient id="big---1.-front-bc" x1="49.995%" x2="49.995%" y1="50.02%" y2="49.92%">
      <stop offset="0%" stop-color="#FFF"/>
      <stop offset="100%" stop-color="#C1C1C1"/>
    </linearGradient>
    <polygon id="big---1.-front-be" points=".56 50.417 74.14 53.142 12.34 .678"/>
    <linearGradient id="big---1.-front-bf" x1="-.001%" x2="100.004%" y1="49.998%" y2="49.998%">
      <stop offset="0%" stop-color="#FFF"/>
      <stop offset="100%" stop-color="#C1C1C1"/>
    </linearGradient>
    <polygon id="big---1.-front-bh" points="24.041 1.547 .271 .655 47.949 57.287 24.041 1.591"/>
    <linearGradient id="big---1.-front-bi" x1="99.996%" x2="-.004%" y1="49.999%" y2="49.999%">
      <stop offset="0%" stop-color="#FFF"/>
      <stop offset="100%" stop-color="#C1C1C1"/>
    </linearGradient>
    <polygon id="big---1.-front-bk" points="27.474 .221 .361 38.069 .414 38.17 62.141 91.108"/>
    <linearGradient id="big---1.-front-bl" x1="50.002%" x2="50.002%" y1="99.998%" y2="-.002%">
      <stop offset="0%" stop-color="#FFF"/>
      <stop offset="100%" stop-color="#C1C1C1"/>
    </linearGradient>
    <polygon id="big---1.-front-bn" points=".56 .455 24.344 56.285 74.14 3.21 .56 .41"/>
    <linearGradient id="big---1.-front-bo" x1="100.004%" x2="-.001%" y1="50.002%" y2="50.002%">
      <stop offset="0%" stop-color="#FFF"/>
      <stop offset="100%" stop-color="#C1C1C1"/>
    </linearGradient>
    <polygon id="big---1.-front-bq" points=".008 .196 88.817 15.623 87.624 .196"/>
    <linearGradient id="big---1.-front-br" x1="50.001%" x2="50.001%" y1="100.016%" y2="-170.047%">
      <stop offset="0%" stop-color="#FFF"/>
      <stop offset="100%" stop-color="#C1C1C1"/>
    </linearGradient>
    <polygon id="big---1.-front-bt" points="10.271 32.953 23.873 .12 .109 2.168"/>
    <linearGradient id="big---1.-front-bu" x1="128.832%" x2="-13.544%" y1="49.999%" y2="49.999%">
      <stop offset="0%" stop-color="#FFF"/>
      <stop offset="100%" stop-color="#C1C1C1"/>
    </linearGradient>
    <polygon id="big---1.-front-bw" points=".213 .196 1.383 15.623 1.383 15.681 24.886 13.553 15.89 .196"/>
    <linearGradient id="big---1.-front-bx" x1="45.96%" x2="45.96%" y1="168.406%" y2="-169.406%">
      <stop offset="0%" stop-color="#FFF"/>
      <stop offset="100%" stop-color="#C1C1C1"/>
    </linearGradient>
    <polygon id="big---1.-front-bz" points=".549 34.653 .641 34.948 .732 34.854 33.319 47.179 33.319 28.51 14.209 .14"/>
    <linearGradient id="big---1.-front-bA" x1="75.742%" x2="75.742%" y1="113.569%" y2="-85.24%">
      <stop offset="0%" stop-color="#FFF"/>
      <stop offset="100%" stop-color="#C1C1C1"/>
    </linearGradient>
    <polygon id="big---1.-front-bC" points=".072 .19 .072 25.646 20.439 30.888 20.357 30.761 3.036 .19"/>
    <linearGradient id="big---1.-front-bD" x1="42.46%" x2="42.46%" y1="100.002%" y2="-134.894%">
      <stop offset="0%" stop-color="#FFF"/>
      <stop offset="100%" stop-color="#C1C1C1"/>
    </linearGradient>
    <polygon id="big---1.-front-bF" points=".651 .19 17.438 30.761 7.203 .19"/>
    <linearGradient id="big---1.-front-bG" x1="-135.899%" x2="100.016%" y1="-9.076%" y2="-9.076%">
      <stop offset="0%" stop-color="#FFF"/>
      <stop offset="100%" stop-color="#C1C1C1"/>
    </linearGradient>
    <polygon id="big---1.-front-bI" points=".013 20.443 .013 29.052 30.562 .919"/>
    <linearGradient id="big---1.-front-bJ" x1="45.065%" x2="45.065%" y1="157.056%" y2=".006%">
      <stop offset="0%" stop-color="#FFF"/>
      <stop offset="100%" stop-color="#C1C1C1"/>
    </linearGradient>
    <polygon id="big---1.-front-bL" points="31.751 .917 .05 28.98 .05 37.031 39.972 37.031 31.839 .874"/>
    <linearGradient id="big---1.-front-bM" x1="100.493%" x2="-30.22%" y1="51.196%" y2="51.196%">
      <stop offset="0%" stop-color="#FFF"/>
      <stop offset="100%" stop-color="#C1C1C1"/>
    </linearGradient>
  </defs>
  <g fill="none" fill-rule="evenodd">
    <mask id="big---1.-front-b" fill="#fff">
      <use xlink:href="#big---1.-front-a"/>
    </mask>
    <g mask="url(#big---1.-front-b)">
      <rect width="266" height="168" fill="url(#big---1.-front-c)" rx="10"/>
      <g opacity=".2">
        <g transform="translate(19 1)">
          <mask id="big---1.-front-f" fill="#fff">
            <use xlink:href="#big---1.-front-d"/>
          </mask>
          <polygon fill="url(#big---1.-front-e)" points="28.062 .194 .78 31.499 47.131 34.92 44.241 .194" mask="url(#big---1.-front-f)"/>
        </g>
        <g transform="translate(20 32)">
          <mask id="big---1.-front-i" fill="#fff">
            <use xlink:href="#big---1.-front-g"/>
          </mask>
          <polygon fill="url(#big---1.-front-h)" points=".768 .17 50.99 56.192 46.736 3.624" mask="url(#big---1.-front-i)"/>
        </g>
        <g transform="translate(71 38)">
          <mask id="big---1.-front-l" fill="#fff">
            <use xlink:href="#big---1.-front-j"/>
          </mask>
          <polygon fill="url(#big---1.-front-k)" points=".245 50.078 23.523 50.957 35.118 .691 35.066 .642" mask="url(#big---1.-front-l)"/>
        </g>
        <g transform="translate(66 36)">
          <mask id="big---1.-front-o" fill="#fff">
            <use xlink:href="#big---1.-front-m"/>
          </mask>
          <polygon fill="url(#big---1.-front-n)" points=".473 .202 4.713 52.201 40.052 3.168" mask="url(#big---1.-front-o)"/>
        </g>
        <g transform="translate(9 1)">
          <mask id="big---1.-front-r" fill="#fff">
            <use xlink:href="#big---1.-front-p"/>
          </mask>
          <polygon fill="url(#big---1.-front-q)" points=".123 .19 10.947 30.888 37.97 .19" mask="url(#big---1.-front-r)"/>
        </g>
        <g transform="translate(103 35)">
          <mask id="big---1.-front-u" fill="#fff">
            <use xlink:href="#big---1.-front-s"/>
          </mask>
          <polygon fill="url(#big---1.-front-t)" points="2.533 2.677 2.587 2.729 2.533 2.619" mask="url(#big---1.-front-u)"/>
        </g>
        <g transform="translate(62)">
          <mask id="big---1.-front-x" fill="#fff">
            <use xlink:href="#big---1.-front-v"/>
          </mask>
          <polygon fill="url(#big---1.-front-w)" points=".707 .239 3.623 35.183 44.032 38.172 44.032 38.119 13.176 .239" mask="url(#big---1.-front-x)"/>
        </g>
        <g transform="translate(76)">
          <mask id="big---1.-front-A" fill="#fff">
            <use xlink:href="#big---1.-front-y"/>
          </mask>
          <polygon fill="url(#big---1.-front-z)" points=".011 .239 30.43 38.119 57.725 .239" mask="url(#big---1.-front-A)"/>
        </g>
        <g transform="translate(0 109)">
          <mask id="big---1.-front-D" fill="#fff">
            <use xlink:href="#big---1.-front-B"/>
          </mask>
          <polygon fill="url(#big---1.-front-C)" points=".013 40.96 30.647 21.377 .013 .769" mask="url(#big---1.-front-D)"/>
        </g>
        <g transform="translate(252 107)">
          <mask id="big---1.-front-G" fill="#fff">
            <use xlink:href="#big---1.-front-E"/>
          </mask>
          <polygon fill="url(#big---1.-front-F)" points=".099 1.148 13.359 8.495 13.359 .578" mask="url(#big---1.-front-G)"/>
        </g>
        <g transform="translate(252 108)">
          <mask id="big---1.-front-J" fill="#fff">
            <use xlink:href="#big---1.-front-H"/>
          </mask>
          <polygon fill="url(#big---1.-front-I)" points="13.359 29.231 13.359 7.243 .099 .093" mask="url(#big---1.-front-J)"/>
        </g>
        <g transform="translate(61 118)">
          <mask id="big---1.-front-M" fill="#fff">
            <use xlink:href="#big---1.-front-K"/>
          </mask>
          <polygon fill="url(#big---1.-front-L)" points="34.886 48.007 36.382 48.007 57.932 25.473 .117 .024" mask="url(#big---1.-front-M)"/>
        </g>
        <g transform="translate(252 89)">
          <mask id="big---1.-front-P" fill="#fff">
            <use xlink:href="#big---1.-front-N"/>
          </mask>
          <polygon fill="url(#big---1.-front-O)" points=".099 18.695 13.359 18.146 13.359 .656" mask="url(#big---1.-front-P)"/>
        </g>
        <g transform="translate(237 1)">
          <mask id="big---1.-front-S" fill="#fff">
            <use xlink:href="#big---1.-front-Q"/>
          </mask>
          <polygon fill="url(#big---1.-front-R)" points=".69 .219 28.315 40.868 28.315 .219" mask="url(#big---1.-front-S)"/>
        </g>
        <g transform="translate(32 129)">
          <mask id="big---1.-front-V" fill="#fff">
            <use xlink:href="#big---1.-front-T"/>
          </mask>
          <polygon fill="url(#big---1.-front-U)" points="8.734 37.031 30.681 37.031 .897 .874" mask="url(#big---1.-front-V)"/>
        </g>
        <g transform="translate(32 118)">
          <mask id="big---1.-front-Y" fill="#fff">
            <use xlink:href="#big---1.-front-W"/>
          </mask>
          <polygon fill="url(#big---1.-front-X)" points=".872 10.945 30.461 48.007 31.158 48.007 28.637 .024" mask="url(#big---1.-front-Y)"/>
        </g>
        <g transform="translate(61 118)">
          <mask id="big---1.-front-ab" fill="#fff">
            <use xlink:href="#big---1.-front-Z"/>
          </mask>
          <polygon fill="url(#big---1.-front-aa)" points="2.679 48.007 34.129 48.007 .084 .024" mask="url(#big---1.-front-ab)"/>
        </g>
        <g transform="translate(252 108)">
          <mask id="big---1.-front-ae" fill="#fff">
            <use xlink:href="#big---1.-front-ac"/>
          </mask>
          <polygon fill="url(#big---1.-front-ad)" points=".557 59.005 13.359 59.005 13.359 29.95 .099 .003" mask="url(#big---1.-front-ae)"/>
        </g>
        <g transform="translate(168 91)">
          <mask id="big---1.-front-ah" fill="#fff">
            <use xlink:href="#big---1.-front-af"/>
          </mask>
          <polygon fill="url(#big---1.-front-ag)" points="49.419 75.017 50.503 75.017 83.896 16.689 .432 .553" mask="url(#big---1.-front-ah)"/>
        </g>
        <g transform="translate(218 108)">
          <mask id="big---1.-front-ak" fill="#fff">
            <use xlink:href="#big---1.-front-ai"/>
          </mask>
          <polygon fill="url(#big---1.-front-aj)" points=".301 59.005 34.111 59.005 33.638 .003" mask="url(#big---1.-front-ak)"/>
        </g>
        <g transform="translate(118 91)">
          <mask id="big---1.-front-an" fill="#fff">
            <use xlink:href="#big---1.-front-al"/>
          </mask>
          <polygon fill="url(#big---1.-front-am)" points=".21 52.657 .254 52.657 19.244 75.017 20.407 75.017 50.137 .553" mask="url(#big---1.-front-an)"/>
        </g>
        <g transform="translate(166 91)">
          <mask id="big---1.-front-aq" fill="#fff">
            <use xlink:href="#big---1.-front-ao"/>
          </mask>
          <polygon fill="url(#big---1.-front-ap)" points="13.655 75.017 50.935 75.017 .487 .553" mask="url(#big---1.-front-aq)"/>
        </g>
        <g transform="translate(95 144)">
          <mask id="big---1.-front-at" fill="#fff">
            <use xlink:href="#big---1.-front-ar"/>
          </mask>
          <polygon fill="url(#big---1.-front-as)" points="22.301 .773 22.257 .773 .872 22.062 41.212 22.062 22.301 .727" mask="url(#big---1.-front-at)"/>
        </g>
        <g transform="translate(138 91)">
          <mask id="big---1.-front-aw" fill="#fff">
            <use xlink:href="#big---1.-front-au"/>
          </mask>
          <polygon fill="url(#big---1.-front-av)" points=".37 75.017 42.888 75.017 29.958 .553" mask="url(#big---1.-front-aw)"/>
        </g>
        <g transform="translate(19 32)">
          <mask id="big---1.-front-az" fill="#fff">
            <use xlink:href="#big---1.-front-ax"/>
          </mask>
          <polygon fill="url(#big---1.-front-ay)" points="11.832 97.44 40.815 86.607 .778 .169" mask="url(#big---1.-front-az)"/>
        </g>
        <g transform="translate(0 27)">
          <mask id="big---1.-front-aC" fill="#fff">
            <use xlink:href="#big---1.-front-aA"/>
          </mask>
          <polygon fill="url(#big---1.-front-aB)" points=".072 33.568 20.439 5.378 .072 .032" mask="url(#big---1.-front-aC)"/>
        </g>
        <g transform="translate(20 32)">
          <mask id="big---1.-front-aF" fill="#fff">
            <use xlink:href="#big---1.-front-aD"/>
          </mask>
          <polygon fill="url(#big---1.-front-aE)" points=".768 .169 40.935 86.71 50.99 56.057" mask="url(#big---1.-front-aF)"/>
        </g>
        <g transform="translate(61 88)">
          <mask id="big---1.-front-aI" fill="#fff">
            <use xlink:href="#big---1.-front-aG"/>
          </mask>
          <polygon fill="url(#big---1.-front-aH)" points="10.211 .655 .117 31.724 57.932 57.336 57.932 57.287" mask="url(#big---1.-front-aI)"/>
        </g>
        <g transform="translate(0 32)">
          <mask id="big---1.-front-aL" fill="#fff">
            <use xlink:href="#big---1.-front-aJ"/>
          </mask>
          <polygon fill="url(#big---1.-front-aK)" points=".013 28.531 .013 76.561 30.647 97.44 19.988 .169" mask="url(#big---1.-front-aL)"/>
        </g>
        <g transform="translate(115 142)">
          <mask id="big---1.-front-aO" fill="#fff">
            <use xlink:href="#big---1.-front-aM"/>
          </mask>
          <polygon fill="url(#big---1.-front-aN)" points="2.331 2.799 2.381 2.799 2.381 2.746 2.331 2.746" mask="url(#big---1.-front-aO)"/>
        </g>
        <g transform="translate(168 47)">
          <mask id="big---1.-front-aR" fill="#fff">
            <use xlink:href="#big---1.-front-aP"/>
          </mask>
          <polygon fill="url(#big---1.-front-aQ)" points=".432 44.368 83.896 60.655 64.935 .549" mask="url(#big---1.-front-aR)"/>
        </g>
        <g transform="translate(168 15)">
          <mask id="big---1.-front-aU" fill="#fff">
            <use xlink:href="#big---1.-front-aS"/>
          </mask>
          <polygon fill="url(#big---1.-front-aT)" points="55.005 .066 .434 76.105 65.37 32.386" mask="url(#big---1.-front-aU)"/>
        </g>
        <g transform="translate(232 47)">
          <mask id="big---1.-front-aX" fill="#fff">
            <use xlink:href="#big---1.-front-aV"/>
          </mask>
          <polygon fill="url(#big---1.-front-aW)" points=".641 .544 19.586 60.655 33.319 41.955 33.319 12.656 .732 .452" mask="url(#big---1.-front-aX)"/>
        </g>
        <g transform="translate(132)">
          <mask id="big---1.-front-ba" fill="#fff">
            <use xlink:href="#big---1.-front-aY"/>
          </mask>
          <polygon fill="url(#big---1.-front-aZ)" points=".008 .221 34.394 91.108 88.817 15.544" mask="url(#big---1.-front-ba)"/>
        </g>
        <g transform="translate(115 142)">
          <mask id="big---1.-front-bd" fill="#fff">
            <use xlink:href="#big---1.-front-bb"/>
          </mask>
          <path fill="url(#big---1.-front-bc)" d="M2.331,2.74616667 L2.376,2.74616667 L2.331,2.74616667 Z" mask="url(#big---1.-front-bd)"/>
        </g>
        <g transform="translate(93 38)">
          <mask id="big---1.-front-bg" fill="#fff">
            <use xlink:href="#big---1.-front-be"/>
          </mask>
          <polygon fill="url(#big---1.-front-bf)" points=".56 50.417 74.14 53.142 12.34 .678" mask="url(#big---1.-front-bg)"/>
        </g>
        <g transform="translate(71 88)">
          <mask id="big---1.-front-bj" fill="#fff">
            <use xlink:href="#big---1.-front-bh"/>
          </mask>
          <polygon fill="url(#big---1.-front-bi)" points="24.041 1.547 .271 .655 47.949 57.287 24.041 1.591" mask="url(#big---1.-front-bj)"/>
        </g>
        <g transform="translate(106)">
          <mask id="big---1.-front-bm" fill="#fff">
            <use xlink:href="#big---1.-front-bk"/>
          </mask>
          <polygon fill="url(#big---1.-front-bl)" points="27.474 .221 .361 38.069 .414 38.17 62.141 91.108" mask="url(#big---1.-front-bm)"/>
        </g>
        <g transform="translate(93 89)">
          <mask id="big---1.-front-bp" fill="#fff">
            <use xlink:href="#big---1.-front-bn"/>
          </mask>
          <polygon fill="url(#big---1.-front-bo)" points=".56 .455 24.344 56.285 74.14 3.21 .56 .41" mask="url(#big---1.-front-bp)"/>
        </g>
        <g transform="translate(132 1)">
          <mask id="big---1.-front-bs" fill="#fff">
            <use xlink:href="#big---1.-front-bq"/>
          </mask>
          <polygon fill="url(#big---1.-front-br)" points=".008 .196 88.817 15.623 87.624 .196" mask="url(#big---1.-front-bs)"/>
        </g>
        <g transform="translate(223 15)">
          <mask id="big---1.-front-bv" fill="#fff">
            <use xlink:href="#big---1.-front-bt"/>
          </mask>
          <polygon fill="url(#big---1.-front-bu)" points="10.271 32.953 23.873 .12 .109 2.168" mask="url(#big---1.-front-bv)"/>
        </g>
        <g transform="translate(222 1)">
          <mask id="big---1.-front-by" fill="#fff">
            <use xlink:href="#big---1.-front-bw"/>
          </mask>
          <polygon fill="url(#big---1.-front-bx)" points=".213 .196 1.383 15.623 1.383 15.681 24.886 13.553 15.89 .196" mask="url(#big---1.-front-by)"/>
        </g>
        <g transform="translate(232 13)">
          <mask id="big---1.-front-bB" fill="#fff">
            <use xlink:href="#big---1.-front-bz"/>
          </mask>
          <polygon fill="url(#big---1.-front-bA)" points=".549 34.653 .641 34.948 .732 34.854 33.319 47.179 33.319 28.51 14.209 .14" mask="url(#big---1.-front-bB)"/>
        </g>
        <g transform="translate(0 1)">
          <mask id="big---1.-front-bE" fill="#fff">
            <use xlink:href="#big---1.-front-bC"/>
          </mask>
          <polygon fill="url(#big---1.-front-bD)" points=".072 .19 .072 25.646 20.439 30.888 20.357 30.761 3.036 .19" mask="url(#big---1.-front-bE)"/>
        </g>
        <g transform="translate(2 1)">
          <mask id="big---1.-front-bH" fill="#fff">
            <use xlink:href="#big---1.-front-bF"/>
          </mask>
          <polygon fill="url(#big---1.-front-bG)" points=".651 .19 17.438 30.761 7.203 .19" mask="url(#big---1.-front-bH)"/>
        </g>
        <g transform="translate(0 129)">
          <mask id="big---1.-front-bK" fill="#fff">
            <use xlink:href="#big---1.-front-bI"/>
          </mask>
          <polygon fill="url(#big---1.-front-bJ)" points=".013 20.443 .013 29.052 30.562 .919" mask="url(#big---1.-front-bK)"/>
        </g>
        <g transform="translate(0 129)">
          <mask id="big---1.-front-bN" fill="#fff">
            <use xlink:href="#big---1.-front-bL"/>
          </mask>
          <polygon fill="url(#big---1.-front-bM)" points="31.751 .917 .05 28.98 .05 37.031 39.972 37.031 31.839 .874" mask="url(#big---1.-front-bN)"/>
        </g>
      </g>
      <g transform="translate(221.124 137.954)">
        <rect width="8.241" height="14.906" x="11.119" y="2.028" fill="#FF5F00"/>
        <path fill="#EB001B" d="M11.6420905,9.48105386 C11.6420905,6.4523831 13.0548386,3.76608387 15.2262846,2.02789024 C13.6304025,0.763749411 11.6159285,-2.33625502e-06 9.41832046,-2.33625502e-06 C4.21208232,-2.33625502e-06 2.05751352e-07,4.24013667 2.05751352e-07,9.48105386 C2.05751352e-07,14.721971 4.21208232,18.96211 9.41832046,18.96211 C11.6159285,18.96211 13.6304025,18.1983583 15.2262846,16.9342175 C13.0548386,15.22236 11.6420905,12.5097246 11.6420905,9.48105386 Z"/>
        <path fill="#F79E1B" d="M30.4787311,9.48105386 C30.4787311,14.721971 26.266649,18.96211 21.0604108,18.96211 C18.8628027,18.96211 16.8483286,18.1983583 15.2524467,16.9342175 C17.4500547,15.1960238 18.8366407,12.5097246 18.8366407,9.48105386 C18.8366407,6.4523831 17.4238926,3.76608387 15.2524467,2.02789024 C16.8483286,0.763749411 18.8628027,-2.33625502e-06 21.0604108,-2.33625502e-06 C26.266649,-2.33625502e-06 30.4787311,4.26647294 30.4787311,9.48105386 Z"/>
      </g>
      <path fill="#C00" fill-rule="nonzero" d="M132.009766,20.1005859 C132.009766,20.7288443 131.781903,21.2187482 131.326172,21.5703125 C130.87044,21.9218768 130.251957,22.0976562 129.470703,22.0976562 C128.624345,22.0976562 127.97331,21.9886079 127.517578,21.7705078 L127.517578,20.9697266 C127.810548,21.0934251 128.129556,21.1910804 128.474609,21.2626953 C128.819663,21.3343103 129.161457,21.3701172 129.5,21.3701172 C130.053388,21.3701172 130.470051,21.2651378 130.75,21.0551758 C131.029949,20.8452138 131.169922,20.5530618 131.169922,20.1787109 C131.169922,19.9313139 131.12028,19.7286792 131.020996,19.5708008 C130.921712,19.4129224 130.755698,19.2672533 130.522949,19.1337891 C130.290201,19.0003249 129.9362,18.8489592 129.460938,18.6796875 C128.796872,18.4420561 128.32243,18.1604834 128.037598,17.8349609 C127.752766,17.5094385 127.610352,17.084638 127.610352,16.5605469 C127.610352,16.0104139 127.817055,15.5725928 128.230469,15.2470703 C128.643882,14.9215479 129.190752,14.7587891 129.871094,14.7587891 C130.580733,14.7587891 131.233395,14.8889961 131.829102,15.1494141 L131.570312,15.8720703 C130.981117,15.6246732 130.408206,15.5009766 129.851562,15.5009766 C129.412107,15.5009766 129.068686,15.5953767 128.821289,15.7841797 C128.573892,15.9729827 128.450195,16.2350244 128.450195,16.5703125 C128.450195,16.8177096 128.495768,17.0203443 128.586914,17.1782227 C128.67806,17.336101 128.831867,17.4809564 129.04834,17.612793 C129.264812,17.7446296 129.596026,17.8902987 130.041992,18.0498047 C130.790694,18.3167331 131.305825,18.6031886 131.587402,18.9091797 C131.868979,19.2151708 132.009766,19.6123022 132.009766,20.1005859 Z M134.109375,16.6484375 L134.109375,20.1201172 C134.109375,20.5563173 134.208658,20.8818349 134.407227,21.0966797 C134.605795,21.3115245 134.916665,21.4189453 135.339844,21.4189453 C135.899742,21.4189453 136.309081,21.2659521 136.567871,20.9599609 C136.826661,20.6539698 136.956055,20.1543003 136.956055,19.4609375 L136.956055,16.6484375 L137.766602,16.6484375 L137.766602,22 L137.097656,22 L136.980469,21.2822266 L136.936523,21.2822266 C136.770507,21.5458998 136.540203,21.7477207 136.245605,21.8876953 C135.951008,22.02767 135.614911,22.0976562 135.237305,22.0976562 C134.58626,22.0976562 134.098797,21.9430354 133.774902,21.6337891 C133.451007,21.3245427 133.289062,20.829756 133.289062,20.1494141 L133.289062,16.6484375 L134.109375,16.6484375 Z M134.958984,15.8183594 C135.115235,15.6165354 135.283691,15.3723973 135.464355,15.0859375 C135.64502,14.7994777 135.787434,14.5504568 135.891602,14.3388672 L136.87793,14.3388672 L136.87793,14.4414062 C136.7347,14.6529958 136.521486,14.9134099 136.238281,15.2226562 C135.955077,15.5319026 135.709311,15.771158 135.500977,15.9404297 L134.958984,15.9404297 L134.958984,15.8183594 Z M141.975586,22.0976562 C141.627277,22.0976562 141.309083,22.0333665 141.020996,21.9047852 C140.732909,21.7762038 140.491212,21.5784519 140.295898,21.3115234 L140.237305,21.3115234 C140.276367,21.624025 140.295898,21.920246 140.295898,22.2001953 L140.295898,24.4023438 L139.485352,24.4023438 L139.485352,16.6484375 L140.144531,16.6484375 L140.256836,17.3808594 L140.295898,17.3808594 C140.504233,17.0878892 140.746743,16.8763027 141.023438,16.7460938 C141.300132,16.6158848 141.617511,16.5507812 141.975586,16.5507812 C142.685225,16.5507812 143.232908,16.7932918 143.618652,17.2783203 C144.004396,17.7633488 144.197266,18.4436805 144.197266,19.3193359 C144.197266,20.1982466 144.001141,20.8810197 143.608887,21.3676758 C143.216632,21.8543319 142.672204,22.0976562 141.975586,22.0976562 Z M141.858398,17.2392578 C141.311521,17.2392578 140.916017,17.3906235 140.671875,17.6933594 C140.427733,17.9960953 140.302409,18.4778613 140.295898,19.1386719 L140.295898,19.3193359 C140.295898,20.0712928 140.421223,20.6092106 140.671875,20.9331055 C140.922527,21.2570003 141.324542,21.4189453 141.87793,21.4189453 C142.340172,21.4189453 142.70231,21.2317727 142.964355,20.8574219 C143.226401,20.483071 143.357422,19.9671257 143.357422,19.3095703 C143.357422,18.6422493 143.226401,18.1303729 142.964355,17.7739258 C142.70231,17.4174787 142.333661,17.2392578 141.858398,17.2392578 Z M147.874023,22.0976562 C147.083004,22.0976562 146.458824,21.8567732 146.001465,21.375 C145.544106,20.8932268 145.31543,20.2242881 145.31543,19.3681641 C145.31543,18.5055295 145.52783,17.820315 145.952637,17.3125 C146.377444,16.804685 146.947913,16.5507812 147.664062,16.5507812 C148.334639,16.5507812 148.865232,16.7713194 149.255859,17.2124023 C149.646486,17.6534853 149.841797,18.2353479 149.841797,18.9580078 L149.841797,19.4707031 L146.155273,19.4707031 C146.17155,20.0989615 146.330239,20.5758447 146.631348,20.9013672 C146.932456,21.2268896 147.356443,21.3896484 147.90332,21.3896484 C148.479495,21.3896484 149.049151,21.2692069 149.612305,21.0283203 L149.612305,21.7509766 C149.325845,21.8746751 149.054852,21.9633786 148.799316,22.0170898 C148.543781,22.070801 148.235353,22.0976562 147.874023,22.0976562 Z M147.654297,17.2294922 C147.224607,17.2294922 146.882,17.3694647 146.626465,17.6494141 C146.37093,17.9293634 146.220378,18.3167293 146.174805,18.8115234 L148.972656,18.8115234 C148.972656,18.3004532 148.858725,17.9090183 148.630859,17.637207 C148.402994,17.3653958 148.077476,17.2294922 147.654297,17.2294922 Z M153.665039,16.5507812 C153.90267,16.5507812 154.115884,16.5703123 154.304688,16.609375 L154.192383,17.3613281 C153.971028,17.3124998 153.775717,17.2880859 153.606445,17.2880859 C153.1735,17.2880859 152.803224,17.4638654 152.495605,17.8154297 C152.187987,18.1669939 152.03418,18.6048151 152.03418,19.1289062 L152.03418,22 L151.223633,22 L151.223633,16.6484375 L151.892578,16.6484375 L151.985352,17.6396484 L152.024414,17.6396484 C152.222983,17.2913394 152.462238,17.0227874 152.742188,16.8339844 C153.022137,16.6451813 153.329751,16.5507812 153.665039,16.5507812 Z M161.082031,15.5009766 C160.297522,15.5009766 159.678225,15.7622044 159.224121,16.284668 C158.770017,16.8071315 158.542969,17.5224564 158.542969,18.4306641 C158.542969,19.3649135 158.761879,20.0867488 159.199707,20.5961914 C159.637535,21.1056341 160.261715,21.3603516 161.072266,21.3603516 C161.570315,21.3603516 162.138343,21.2708342 162.776367,21.0917969 L162.776367,21.8193359 C162.281573,22.0048837 161.671228,22.0976562 160.945312,22.0976562 C159.893875,22.0976562 159.082522,21.778649 158.51123,21.140625 C157.939939,20.502601 157.654297,19.5960345 157.654297,18.4208984 C157.654297,17.6852177 157.791828,17.0406929 158.066895,16.4873047 C158.341961,15.9339165 158.739092,15.5074885 159.258301,15.2080078 C159.777509,14.9085271 160.388668,14.7587891 161.091797,14.7587891 C161.840499,14.7587891 162.494789,14.8955064 163.054688,15.1689453 L162.703125,15.8818359 C162.162758,15.6279284 161.622399,15.5009766 161.082031,15.5009766 Z M164.973633,16.6484375 L164.973633,20.1201172 C164.973633,20.5563173 165.072916,20.8818349 165.271484,21.0966797 C165.470053,21.3115245 165.780922,21.4189453 166.204102,21.4189453 C166.764,21.4189453 167.173339,21.2659521 167.432129,20.9599609 C167.690919,20.6539698 167.820312,20.1543003 167.820312,19.4609375 L167.820312,16.6484375 L168.630859,16.6484375 L168.630859,22 L167.961914,22 L167.844727,21.2822266 L167.800781,21.2822266 C167.634765,21.5458998 167.404461,21.7477207 167.109863,21.8876953 C166.815265,22.02767 166.479169,22.0976562 166.101562,22.0976562 C165.450518,22.0976562 164.963055,21.9430354 164.63916,21.6337891 C164.315265,21.3245427 164.15332,20.829756 164.15332,20.1494141 L164.15332,16.6484375 L164.973633,16.6484375 Z M172.610352,22.0976562 C171.819332,22.0976562 171.195152,21.8567732 170.737793,21.375 C170.280434,20.8932268 170.051758,20.2242881 170.051758,19.3681641 C170.051758,18.5055295 170.264158,17.820315 170.688965,17.3125 C171.113772,16.804685 171.684241,16.5507812 172.400391,16.5507812 C173.070967,16.5507812 173.601561,16.7713194 173.992188,17.2124023 C174.382814,17.6534853 174.578125,18.2353479 174.578125,18.9580078 L174.578125,19.4707031 L170.891602,19.4707031 C170.907878,20.0989615 171.066568,20.5758447 171.367676,20.9013672 C171.668784,21.2268896 172.092771,21.3896484 172.639648,21.3896484 C173.215823,21.3896484 173.785479,21.2692069 174.348633,21.0283203 L174.348633,21.7509766 C174.062173,21.8746751 173.79118,21.9633786 173.535645,22.0170898 C173.280109,22.070801 172.971681,22.0976562 172.610352,22.0976562 Z M172.390625,17.2294922 C171.960935,17.2294922 171.618328,17.3694647 171.362793,17.6494141 C171.107258,17.9293634 170.956706,18.3167293 170.911133,18.8115234 L173.708984,18.8115234 C173.708984,18.3004532 173.595053,17.9090183 173.367188,17.637207 C173.139322,17.3653958 172.813804,17.2294922 172.390625,17.2294922 Z M179.62207,22 L179.62207,18.5380859 C179.62207,18.1018858 179.522787,17.7763683 179.324219,17.5615234 C179.12565,17.3466786 178.814781,17.2392578 178.391602,17.2392578 C177.831703,17.2392578 177.421551,17.3906235 177.161133,17.6933594 C176.900715,17.9960953 176.770508,18.4957647 176.770508,19.1923828 L176.770508,22 L175.959961,22 L175.959961,16.6484375 L176.619141,16.6484375 L176.750977,17.3808594 L176.790039,17.3808594 C176.956056,17.1171862 177.188801,16.9129239 177.488281,16.7680664 C177.787762,16.6232089 178.121417,16.5507812 178.489258,16.5507812 C179.133792,16.5507812 179.618813,16.7062159 179.944336,17.0170898 C180.269858,17.3279638 180.432617,17.8251919 180.432617,18.5087891 L180.432617,22 L179.62207,22 Z M183.826172,21.4287109 C183.969402,21.4287109 184.107747,21.4181316 184.241211,21.3969727 C184.374675,21.3758137 184.480468,21.3538413 184.558594,21.3310547 L184.558594,21.9511719 C184.470703,21.9934898 184.341309,22.0284829 184.17041,22.0561523 C183.999511,22.0838218 183.845704,22.0976562 183.708984,22.0976562 C182.673823,22.0976562 182.15625,21.5524143 182.15625,20.4619141 L182.15625,17.2783203 L181.389648,17.2783203 L181.389648,16.8876953 L182.15625,16.5507812 L182.498047,15.4082031 L182.966797,15.4082031 L182.966797,16.6484375 L184.519531,16.6484375 L184.519531,17.2783203 L182.966797,17.2783203 L182.966797,20.4277344 C182.966797,20.7500016 183.043294,20.997395 183.196289,21.1699219 C183.349285,21.3424488 183.559243,21.4287109 183.826172,21.4287109 Z M188.918945,22 L188.757812,21.2382812 L188.71875,21.2382812 C188.451822,21.5735694 188.185711,21.8006179 187.92041,21.9194336 C187.655109,22.0382493 187.323895,22.0976562 186.926758,22.0976562 C186.396156,22.0976562 185.980307,21.9609389 185.679199,21.6875 C185.378091,21.4140611 185.227539,21.0250676 185.227539,20.5205078 C185.227539,19.4397732 186.091788,18.8733727 187.820312,18.8212891 L188.728516,18.7919922 L188.728516,18.4599609 C188.728516,18.040037 188.638184,17.7299815 188.45752,17.5297852 C188.276855,17.3295888 187.987958,17.2294922 187.59082,17.2294922 C187.144855,17.2294922 186.640302,17.3662096 186.077148,17.6396484 L185.828125,17.0195312 C186.091798,16.8763014 186.380695,16.7639978 186.694824,16.6826172 C187.008953,16.6012366 187.323892,16.5605469 187.639648,16.5605469 C188.277672,16.5605469 188.750487,16.702147 189.058105,16.9853516 C189.365724,17.2685561 189.519531,17.7226531 189.519531,18.3476562 L189.519531,22 L188.918945,22 Z M187.087891,21.4287109 C187.59245,21.4287109 187.988768,21.290366 188.276855,21.0136719 C188.564943,20.7369778 188.708984,20.3496119 188.708984,19.8515625 L188.708984,19.3681641 L187.898438,19.4023438 C187.253903,19.4251303 186.789227,19.525227 186.504395,19.7026367 C186.219562,19.8800465 186.077148,20.1559226 186.077148,20.5302734 C186.077148,20.8232437 186.165852,21.0462232 186.343262,21.1992188 C186.520671,21.3522143 186.768879,21.4287109 187.087891,21.4287109 Z M199.299805,14.8613281 L199.299805,19.4804688 C199.299805,20.2942749 199.054039,20.9339169 198.5625,21.3994141 C198.070961,21.8649112 197.395512,22.0976562 196.536133,22.0976562 C195.676754,22.0976562 195.011884,21.8632836 194.541504,21.3945312 C194.071124,20.9257789 193.835938,20.2812541 193.835938,19.4609375 L193.835938,14.8613281 L194.666016,14.8613281 L194.666016,19.5195312 C194.666016,20.1152374 194.828774,20.5725896 195.154297,20.8916016 C195.479819,21.2106136 195.95833,21.3701172 196.589844,21.3701172 C197.19206,21.3701172 197.655923,21.2097998 197.981445,20.8891602 C198.306968,20.5685205 198.469727,20.108727 198.469727,19.5097656 L198.469727,14.8613281 L199.299805,14.8613281 Z M204.729492,22 L204.729492,18.5380859 C204.729492,18.1018858 204.630209,17.7763683 204.431641,17.5615234 C204.233072,17.3466786 203.922203,17.2392578 203.499023,17.2392578 C202.939125,17.2392578 202.528973,17.3906235 202.268555,17.6933594 C202.008137,17.9960953 201.87793,18.4957647 201.87793,19.1923828 L201.87793,22 L201.067383,22 L201.067383,16.6484375 L201.726562,16.6484375 L201.858398,17.3808594 L201.897461,17.3808594 C202.063477,17.1171862 202.296222,16.9129239 202.595703,16.7680664 C202.895184,16.6232089 203.228839,16.5507812 203.59668,16.5507812 C204.241214,16.5507812 204.726235,16.7062159 205.051758,17.0170898 C205.37728,17.3279638 205.540039,17.8251919 205.540039,18.5087891 L205.540039,22 L204.729492,22 Z M208.015625,22 L207.205078,22 L207.205078,16.6484375 L208.015625,16.6484375 L208.015625,22 Z M207.136719,15.1982422 C207.136719,15.0126944 207.182291,14.8767908 207.273438,14.7905273 C207.364584,14.7042639 207.478515,14.6611328 207.615234,14.6611328 C207.745443,14.6611328 207.857747,14.7050777 207.952148,14.7929688 C208.04655,14.8808598 208.09375,15.0159496 208.09375,15.1982422 C208.09375,15.3805348 208.04655,15.5164384 207.952148,15.605957 C207.857747,15.6954757 207.745443,15.7402344 207.615234,15.7402344 C207.478515,15.7402344 207.364584,15.6954757 207.273438,15.605957 C207.182291,15.5164384 207.136719,15.3805348 207.136719,15.1982422 Z M210.90625,22 L208.875,16.6484375 L209.744141,16.6484375 L210.896484,19.8222656 C211.156902,20.5644568 211.309896,21.0462229 211.355469,21.2675781 L211.394531,21.2675781 C211.430339,21.0950512 211.543456,20.7377957 211.733887,20.1958008 C211.924317,19.6538059 212.351559,18.4713633 213.015625,16.6484375 L213.884766,16.6484375 L211.853516,22 L210.90625,22 Z M217.004883,22.0976562 C216.213863,22.0976562 215.589683,21.8567732 215.132324,21.375 C214.674965,20.8932268 214.446289,20.2242881 214.446289,19.3681641 C214.446289,18.5055295 214.658689,17.820315 215.083496,17.3125 C215.508303,16.804685 216.078772,16.5507812 216.794922,16.5507812 C217.465498,16.5507812 217.996092,16.7713194 218.386719,17.2124023 C218.777346,17.6534853 218.972656,18.2353479 218.972656,18.9580078 L218.972656,19.4707031 L215.286133,19.4707031 C215.302409,20.0989615 215.461099,20.5758447 215.762207,20.9013672 C216.063315,21.2268896 216.487302,21.3896484 217.03418,21.3896484 C217.610354,21.3896484 218.18001,21.2692069 218.743164,21.0283203 L218.743164,21.7509766 C218.456704,21.8746751 218.185711,21.9633786 217.930176,22.0170898 C217.674641,22.070801 217.366213,22.0976562 217.004883,22.0976562 Z M216.785156,17.2294922 C216.355467,17.2294922 216.012859,17.3694647 215.757324,17.6494141 C215.501789,17.9293634 215.351237,18.3167293 215.305664,18.8115234 L218.103516,18.8115234 C218.103516,18.3004532 217.989584,17.9090183 217.761719,17.637207 C217.533853,17.3653958 217.208335,17.2294922 216.785156,17.2294922 Z M222.795898,16.5507812 C223.03353,16.5507812 223.246744,16.5703123 223.435547,16.609375 L223.323242,17.3613281 C223.101887,17.3124998 222.906576,17.2880859 222.737305,17.2880859 C222.30436,17.2880859 221.934084,17.4638654 221.626465,17.8154297 C221.318846,18.1669939 221.165039,18.6048151 221.165039,19.1289062 L221.165039,22 L220.354492,22 L220.354492,16.6484375 L221.023438,16.6484375 L221.116211,17.6396484 L221.155273,17.6396484 C221.353842,17.2913394 221.593098,17.0227874 221.873047,16.8339844 C222.152996,16.6451813 222.46061,16.5507812 222.795898,16.5507812 Z M227.888672,20.5400391 C227.888672,21.0380884 227.703127,21.4221992 227.332031,21.6923828 C226.960936,21.9625665 226.440108,22.0976562 225.769531,22.0976562 C225.059892,22.0976562 224.506512,21.9853527 224.109375,21.7607422 L224.109375,21.0087891 C224.366538,21.138998 224.642414,21.2415361 224.937012,21.3164062 C225.23161,21.3912764 225.515624,21.4287109 225.789062,21.4287109 C226.212242,21.4287109 226.537759,21.361166 226.765625,21.2260742 C226.993491,21.0909824 227.107422,20.8850925 227.107422,20.6083984 C227.107422,20.4000641 227.017091,20.2218432 226.836426,20.0737305 C226.655761,19.9256177 226.303388,19.7506521 225.779297,19.5488281 C225.281248,19.3632803 224.927247,19.2013353 224.717285,19.0629883 C224.507323,18.9246412 224.351075,18.767579 224.248535,18.5917969 C224.145996,18.4160147 224.094727,18.2060559 224.094727,17.9619141 C224.094727,17.525714 224.272134,17.1814791 224.626953,16.9291992 C224.981773,16.6769193 225.468421,16.5507812 226.086914,16.5507812 C226.663089,16.5507812 227.226234,16.6679676 227.776367,16.9023438 L227.488281,17.5615234 C226.951169,17.3401682 226.46452,17.2294922 226.02832,17.2294922 C225.644204,17.2294922 225.354493,17.2897129 225.15918,17.4101562 C224.963866,17.5305996 224.866211,17.6966135 224.866211,17.9082031 C224.866211,18.051433 224.902832,18.1735021 224.976074,18.2744141 C225.049317,18.375326 225.167317,18.4713537 225.330078,18.5625 C225.492839,18.6536463 225.805336,18.7854809 226.267578,18.9580078 C226.902347,19.1891288 227.331216,19.4218738 227.554199,19.65625 C227.777182,19.8906262 227.888672,20.1852196 227.888672,20.5400391 Z M230.017578,22 L229.207031,22 L229.207031,16.6484375 L230.017578,16.6484375 L230.017578,22 Z M229.138672,15.1982422 C229.138672,15.0126944 229.184244,14.8767908 229.275391,14.7905273 C229.366537,14.7042639 229.480468,14.6611328 229.617188,14.6611328 C229.747396,14.6611328 229.8597,14.7050777 229.954102,14.7929688 C230.048503,14.8808598 230.095703,15.0159496 230.095703,15.1982422 C230.095703,15.3805348 230.048503,15.5164384 229.954102,15.605957 C229.8597,15.6954757 229.747396,15.7402344 229.617188,15.7402344 C229.480468,15.7402344 229.366537,15.6954757 229.275391,15.605957 C229.184244,15.5164384 229.138672,15.3805348 229.138672,15.1982422 Z M233.464844,21.4287109 C233.608074,21.4287109 233.746419,21.4181316 233.879883,21.3969727 C234.013347,21.3758137 234.11914,21.3538413 234.197266,21.3310547 L234.197266,21.9511719 C234.109375,21.9934898 233.979981,22.0284829 233.809082,22.0561523 C233.638183,22.0838218 233.484376,22.0976562 233.347656,22.0976562 C232.312495,22.0976562 231.794922,21.5524143 231.794922,20.4619141 L231.794922,17.2783203 L231.02832,17.2783203 L231.02832,16.8876953 L231.794922,16.5507812 L232.136719,15.4082031 L232.605469,15.4082031 L232.605469,16.6484375 L234.158203,16.6484375 L234.158203,17.2783203 L232.605469,17.2783203 L232.605469,20.4277344 C232.605469,20.7500016 232.681965,20.997395 232.834961,21.1699219 C232.987956,21.3424488 233.197915,21.4287109 233.464844,21.4287109 Z M238.557617,22 L238.396484,21.2382812 L238.357422,21.2382812 C238.090493,21.5735694 237.824383,21.8006179 237.559082,21.9194336 C237.293781,22.0382493 236.962567,22.0976562 236.56543,22.0976562 C236.034828,22.0976562 235.618979,21.9609389 235.317871,21.6875 C235.016763,21.4140611 234.866211,21.0250676 234.866211,20.5205078 C234.866211,19.4397732 235.73046,18.8733727 237.458984,18.8212891 L238.367188,18.7919922 L238.367188,18.4599609 C238.367188,18.040037 238.276856,17.7299815 238.096191,17.5297852 C237.915526,17.3295888 237.62663,17.2294922 237.229492,17.2294922 C236.783526,17.2294922 236.278974,17.3662096 235.71582,17.6396484 L235.466797,17.0195312 C235.73047,16.8763014 236.019367,16.7639978 236.333496,16.6826172 C236.647625,16.6012366 236.962564,16.5605469 237.27832,16.5605469 C237.916344,16.5605469 238.389159,16.702147 238.696777,16.9853516 C239.004396,17.2685561 239.158203,17.7226531 239.158203,18.3476562 L239.158203,22 L238.557617,22 Z M236.726562,21.4287109 C237.231122,21.4287109 237.62744,21.290366 237.915527,21.0136719 C238.203615,20.7369778 238.347656,20.3496119 238.347656,19.8515625 L238.347656,19.3681641 L237.537109,19.4023438 C236.892575,19.4251303 236.427899,19.525227 236.143066,19.7026367 C235.858234,19.8800465 235.71582,20.1559226 235.71582,20.5302734 C235.71582,20.8232437 235.804524,21.0462232 235.981934,21.1992188 C236.159343,21.3522143 236.40755,21.4287109 236.726562,21.4287109 Z M243.269531,16.5507812 C243.507163,16.5507812 243.720377,16.5703123 243.90918,16.609375 L243.796875,17.3613281 C243.57552,17.3124998 243.380209,17.2880859 243.210938,17.2880859 C242.777993,17.2880859 242.407716,17.4638654 242.100098,17.8154297 C241.792479,18.1669939 241.638672,18.6048151 241.638672,19.1289062 L241.638672,22 L240.828125,22 L240.828125,16.6484375 L241.49707,16.6484375 L241.589844,17.6396484 L241.628906,17.6396484 C241.827475,17.2913394 242.06673,17.0227874 242.34668,16.8339844 C242.626629,16.6451813 242.934243,16.5507812 243.269531,16.5507812 Z M245.720703,22 L244.910156,22 L244.910156,16.6484375 L245.720703,16.6484375 L245.720703,22 Z M244.841797,15.1982422 C244.841797,15.0126944 244.887369,14.8767908 244.978516,14.7905273 C245.069662,14.7042639 245.183593,14.6611328 245.320312,14.6611328 C245.450521,14.6611328 245.562825,14.7050777 245.657227,14.7929688 C245.751628,14.8808598 245.798828,15.0159496 245.798828,15.1982422 C245.798828,15.3805348 245.751628,15.5164384 245.657227,15.605957 C245.562825,15.6954757 245.450521,15.7402344 245.320312,15.7402344 C245.183593,15.7402344 245.069662,15.6954757 244.978516,15.605957 C244.887369,15.5164384 244.841797,15.3805348 244.841797,15.1982422 Z M250.730469,22 L250.569336,21.2382812 L250.530273,21.2382812 C250.263345,21.5735694 249.997234,21.8006179 249.731934,21.9194336 C249.466633,22.0382493 249.135419,22.0976562 248.738281,22.0976562 C248.20768,22.0976562 247.791831,21.9609389 247.490723,21.6875 C247.189614,21.4140611 247.039062,21.0250676 247.039062,20.5205078 C247.039062,19.4397732 247.903312,18.8733727 249.631836,18.8212891 L250.540039,18.7919922 L250.540039,18.4599609 C250.540039,18.040037 250.449708,17.7299815 250.269043,17.5297852 C250.088378,17.3295888 249.799481,17.2294922 249.402344,17.2294922 C248.956378,17.2294922 248.451826,17.3662096 247.888672,17.6396484 L247.639648,17.0195312 C247.903322,16.8763014 248.192218,16.7639978 248.506348,16.6826172 C248.820477,16.6012366 249.135415,16.5605469 249.451172,16.5605469 C250.089196,16.5605469 250.56201,16.702147 250.869629,16.9853516 C251.177248,17.2685561 251.331055,17.7226531 251.331055,18.3476562 L251.331055,22 L250.730469,22 Z M248.899414,21.4287109 C249.403974,21.4287109 249.800292,21.290366 250.088379,21.0136719 C250.376466,20.7369778 250.520508,20.3496119 250.520508,19.8515625 L250.520508,19.3681641 L249.709961,19.4023438 C249.065426,19.4251303 248.60075,19.525227 248.315918,19.7026367 C248.031086,19.8800465 247.888672,20.1559226 247.888672,20.5302734 C247.888672,20.8232437 247.977375,21.0462232 248.154785,21.1992188 C248.332195,21.3522143 248.580402,21.4287109 248.899414,21.4287109 Z"/>
      <path fill="#C00" d="M27.4963179,17.6631044 L24.879659,13.1025216 C24.6801323,12.7548342 24.5422553,12.3820641 24.4658053,12 L24.3564162,12.1904722 C23.7087614,13.3193083 23.7087614,14.7099456 24.3563049,15.8387817 L26.4497211,19.4872032 C27.0972646,20.6160392 27.0972646,22.0067886 26.4497211,23.1355127 L26.340332,23.3260968 C26.2637707,22.9439207 26.1258937,22.5712626 25.926367,22.2235753 L24.0099988,18.8834254 L22.7863541,16.7508311 C22.5868274,16.4031437 22.4490617,16.0303737 22.3723891,15.6483095 L22.2631113,15.8388937 C21.6176821,16.9638106 21.615679,18.3489611 22.2567683,19.4756696 L24.3564162,23.1355127 C25.004071,24.2643488 25.004071,25.6550981 24.3564162,26.7839342 L24.2470271,26.9745183 C24.1704658,26.5923422 24.0325888,26.2196841 23.8330621,25.8718848 L21.2165145,21.3114139 C20.8655345,20.6996858 20.7051788,20.0111417 20.7345569,19.3290922 C17.9333943,20.0654503 16,21.6290915 16,23.4395291 C16,25.9582187 19.7412637,28 24.3564162,28 C28.9714574,28 32.7127211,25.9582187 32.7127211,23.4395291 C32.7127211,21.6290915 30.7795494,20.0650024 27.9781642,19.3286443 C27.9533485,18.7520768 27.7929928,18.1801004 27.4963179,17.6631044 Z"/>
    </g>
  </g>
</svg>
