<svg xmlns="http://www.w3.org/2000/svg" xmlns:xlink="http://www.w3.org/1999/xlink" width="266" height="168" viewBox="0 0 266 168">
  <defs>
    <rect id="big---1.-front-a" width="266" height="168" x="0" y="0" rx="10"/>
    <linearGradient id="big---1.-front-c" x1="99.712%" x2="0%" y1="30.17%" y2="69.945%">
      <stop offset="0%" stop-color="#EAC94C"/>
      <stop offset="35.652%" stop-color="#EBC94C"/>
      <stop offset="72.017%" stop-color="#EDCD55"/>
      <stop offset="100%" stop-color="#EDC64D"/>
    </linearGradient>
    <filter id="big---1.-front-d" width="187.4%" height="344.4%" x="-43.7%" y="-122.2%" filterUnits="objectBoundingBox">
      <feGaussianBlur in="SourceGraphic" stdDeviation="22"/>
    </filter>
    <linearGradient id="big---1.-front-e" x1="75.278%" x2="52.91%" y1="53.665%" y2="56.99%">
      <stop offset="0%" stop-color="#E7C54C"/>
      <stop offset="54.31%" stop-color="#DEC352" stop-opacity=".564"/>
      <stop offset="100%" stop-color="#4BA4B7" stop-opacity=".752"/>
    </linearGradient>
    <linearGradient id="big---1.-front-f" x1="53.843%" x2="21.319%" y1="46.145%" y2="42.762%">
      <stop offset="0%" stop-color="#D51719" stop-opacity=".778"/>
      <stop offset="45.851%" stop-color="#E1B238"/>
      <stop offset="100%" stop-color="#EBCA53"/>
    </linearGradient>
    <linearGradient id="big---1.-front-g" x1="73.049%" x2="84.13%" y1="4.991%" y2="66.345%">
      <stop offset="0%" stop-color="#ACD93F" stop-opacity=".819"/>
      <stop offset="100%" stop-color="#DB8625" stop-opacity=".165"/>
    </linearGradient>
    <linearGradient id="big---1.-front-h" x1="75.42%" x2="72.358%" y1="29.384%" y2="79.314%">
      <stop offset="0%" stop-color="#0DA7B9" stop-opacity=".556"/>
      <stop offset="27.977%" stop-color="#51C967" stop-opacity=".443"/>
      <stop offset="100%" stop-color="#D8C849" stop-opacity=".074"/>
    </linearGradient>
    <linearGradient id="big---1.-front-i" x1="3.268%" x2="5.84%" y1="42.275%" y2="63.515%">
      <stop offset="0%" stop-color="#E16B38" stop-opacity=".84"/>
      <stop offset="100%" stop-color="#EACC4A" stop-opacity=".256"/>
    </linearGradient>
    <linearGradient id="big---1.-front-j" x1="34.106%" x2="76.165%" y1="44.586%" y2="44.739%">
      <stop offset="0%" stop-color="#FFCA00"/>
      <stop offset="23.878%" stop-color="#FF921A"/>
      <stop offset="69.376%" stop-color="#DB8525"/>
      <stop offset="100%" stop-color="#EACC4A"/>
    </linearGradient>
    <linearGradient id="big---1.-front-k" x1="50%" x2="55.023%" y1="38.891%" y2="61.109%">
      <stop offset="0%" stop-color="#FFE752" stop-opacity=".21"/>
      <stop offset="100%" stop-color="#FFC929" stop-opacity=".21"/>
    </linearGradient>
  </defs>
  <g fill="none" fill-rule="evenodd">
    <mask id="big---1.-front-b" fill="#fff">
      <use xlink:href="#big---1.-front-a"/>
    </mask>
    <g mask="url(#big---1.-front-b)">
      <g transform="translate(-228 -132)">
        <rect width="266" height="168" x="228" y="132" fill="url(#big---1.-front-c)"/>
        <ellipse cx="372.5" cy="216" fill="#EAC95D" filter="url(#big---1.-front-d)" opacity=".544" rx="75.5" ry="27" style="mix-blend-mode:soft-light"/>
        <path fill="#FFF" d="M253.978164,151.328644 C253.953349,150.752077 253.792993,150.1801 253.496318,149.663104 L250.879659,145.102522 C250.680132,144.754834 250.542255,144.382064 250.465805,144 L250.356416,144.190472 C249.708761,145.319308 249.708761,146.709946 250.356305,147.838782 L252.449721,151.487203 C253.097265,152.616039 253.097265,154.006789 252.449721,155.135513 L252.340332,155.326097 C252.263771,154.943921 252.125894,154.571263 251.926367,154.223575 L250.009999,150.883425 L248.786354,148.750831 C248.586827,148.403144 248.449062,148.030374 248.372389,147.64831 L248.263111,147.838894 C247.617682,148.963811 247.615679,150.348961 248.256768,151.47567 L248.256546,151.475782 L250.356416,155.135513 C251.004071,156.264349 251.004071,157.655098 250.356416,158.783934 L250.247027,158.974518 C250.170466,158.592342 250.032589,158.219684 249.833062,157.871885 L247.216514,153.311414 C246.865535,152.699686 246.705179,152.011142 246.734557,151.329092 C243.933394,152.06545 242,153.629092 242,155.439529 C242,157.958219 245.741264,160 250.356416,160 C254.971457,160 258.712721,157.958219 258.712721,155.439529 C258.712721,153.629092 256.779549,152.065002 253.978164,151.328644"/>
        <ellipse cx="228.5" cy="90.5" fill="url(#big---1.-front-e)" rx="228.5" ry="90.5"/>
        <ellipse cx="375.5" cy="358.5" fill="url(#big---1.-front-f)" opacity=".758" rx="213.5" ry="90.5"/>
        <circle cx="231" cy="246" r="117" fill="url(#big---1.-front-g)" opacity=".724"/>
        <ellipse cx="197.5" cy="218.5" fill="url(#big---1.-front-h)" opacity=".8" rx="108.5" ry="96.5"/>
        <ellipse cx="534" cy="224.5" fill="url(#big---1.-front-i)" opacity=".559" rx="128" ry="90.5" style="mix-blend-mode:multiply"/>
        <ellipse cx="323.5" cy="309.5" fill="url(#big---1.-front-j)" opacity=".215" rx="213.5" ry="90.5" style="mix-blend-mode:multiply"/>
        <ellipse cx="375" cy="129.5" fill="url(#big---1.-front-k)" rx="192" ry="90.5" style="mix-blend-mode:multiply"/>
        <g transform="translate(449 269)">
          <rect width="8.241" height="14.906" x="11.119" y="2.028" fill="#FF5F00"/>
          <path fill="#EB001B" d="M11.6420905,9.48105386 C11.6420905,6.4523831 13.0548386,3.76608387 15.2262846,2.02789024 C13.6304025,0.763749411 11.6159285,-2.33625502e-06 9.41832046,-2.33625502e-06 C4.21208232,-2.33625502e-06 2.05751352e-07,4.24013667 2.05751352e-07,9.48105386 C2.05751352e-07,14.721971 4.21208232,18.96211 9.41832046,18.96211 C11.6159285,18.96211 13.6304025,18.1983583 15.2262846,16.9342175 C13.0548386,15.22236 11.6420905,12.5097246 11.6420905,9.48105386 Z"/>
          <path fill="#F79E1B" d="M30.4787311,9.48105386 C30.4787311,14.721971 26.266649,18.96211 21.0604108,18.96211 C18.8628027,18.96211 16.8483286,18.1983583 15.2524467,16.9342175 C17.4500547,15.1960238 18.8366407,12.5097246 18.8366407,9.48105386 C18.8366407,6.4523831 17.4238926,3.76608387 15.2524467,2.02789024 C16.8483286,0.763749411 18.8628027,-2.33625502e-06 21.0604108,-2.33625502e-06 C26.266649,-2.33625502e-06 30.4787311,4.26647294 30.4787311,9.48105386 Z"/>
        </g>
        <path fill="#FFF" d="M253.978164,151.328644 C253.953349,150.752077 253.792993,150.1801 253.496318,149.663104 L250.879659,145.102522 C250.680132,144.754834 250.542255,144.382064 250.465805,144 L250.356416,144.190472 C249.708761,145.319308 249.708761,146.709946 250.356305,147.838782 L252.449721,151.487203 C253.097265,152.616039 253.097265,154.006789 252.449721,155.135513 L252.340332,155.326097 C252.263771,154.943921 252.125894,154.571263 251.926367,154.223575 L250.009999,150.883425 L248.786354,148.750831 C248.586827,148.403144 248.449062,148.030374 248.372389,147.64831 L248.263111,147.838894 C247.617682,148.963811 247.615679,150.348961 248.256768,151.47567 L248.256546,151.475782 L250.356416,155.135513 C251.004071,156.264349 251.004071,157.655098 250.356416,158.783934 L250.247027,158.974518 C250.170466,158.592342 250.032589,158.219684 249.833062,157.871885 L247.216514,153.311414 C246.865535,152.699686 246.705179,152.011142 246.734557,151.329092 C243.933394,152.06545 242,153.629092 242,155.439529 C242,157.958219 245.741264,160 250.356416,160 C254.971457,160 258.712721,157.958219 258.712721,155.439529 C258.712721,153.629092 256.779549,152.065002 253.978164,151.328644"/>
      </g>
    </g>
  </g>
</svg>
