<svg xmlns="http://www.w3.org/2000/svg" xmlns:xlink="http://www.w3.org/1999/xlink" width="266" height="168" viewBox="0 0 266 168">
  <defs>
    <rect id="big---1.-front-a" width="266" height="168" x="0" y="0" rx="10"/>
    <linearGradient id="big---1.-front-c" x1="81.514%" x2="-2.113%" y1="33.92%" y2="68.605%">
      <stop offset="0%" stop-color="#911C14"/>
      <stop offset="49.919%" stop-color="#E4382F"/>
      <stop offset="100%" stop-color="#B52920"/>
    </linearGradient>
    <linearGradient id="big---1.-front-d" x1="30.239%" x2="41.653%" y1="65.375%" y2="75.971%">
      <stop offset="0%" stop-color="#91211C"/>
      <stop offset="31.342%" stop-color="#931F19" stop-opacity=".522"/>
      <stop offset="57.174%" stop-color="#9E221B"/>
      <stop offset="100%" stop-color="#AB251E" stop-opacity=".635"/>
    </linearGradient>
    <linearGradient id="big---1.-front-e" x1="30.239%" x2="41.653%" y1="65.375%" y2="75.971%">
      <stop offset="0%" stop-color="#7C160E"/>
      <stop offset="31.342%" stop-color="#931F19" stop-opacity=".522"/>
      <stop offset="57.174%" stop-color="#7E1913"/>
      <stop offset="100%" stop-color="#AB251E" stop-opacity=".635"/>
    </linearGradient>
    <linearGradient id="big---1.-front-f" x1="30.239%" x2="35.391%" y1="65.375%" y2="70.158%">
      <stop offset="0%" stop-color="#91211C" stop-opacity=".252"/>
      <stop offset="0%" stop-color="#931F19" stop-opacity=".522"/>
      <stop offset="100%" stop-color="#AB1E1E" stop-opacity=".3"/>
    </linearGradient>
    <linearGradient id="big---1.-front-g" x1="30.239%" x2="35.391%" y1="65.375%" y2="70.158%">
      <stop offset="0%" stop-color="#91211C" stop-opacity=".252"/>
      <stop offset="0%" stop-color="#931F19" stop-opacity=".522"/>
      <stop offset="100%" stop-color="#B9281D"/>
    </linearGradient>
    <linearGradient id="big---1.-front-h" x1="30.239%" x2="41.653%" y1="65.375%" y2="75.971%">
      <stop offset="0%" stop-color="#78150E" stop-opacity=".75"/>
      <stop offset="31.342%" stop-color="#931F19" stop-opacity=".522"/>
      <stop offset="57.174%" stop-color="#861B14"/>
      <stop offset="100%" stop-color="#AB251E" stop-opacity=".635"/>
    </linearGradient>
    <linearGradient id="big---1.-front-i" x1="30.239%" x2="41.653%" y1="65.349%" y2="75.927%">
      <stop offset="0%" stop-color="#64130D" stop-opacity=".75"/>
      <stop offset="31.342%" stop-color="#931F19" stop-opacity=".522"/>
      <stop offset="57.174%" stop-color="#861B14"/>
      <stop offset="100%" stop-color="#AB251E" stop-opacity=".635"/>
    </linearGradient>
    <linearGradient id="big---1.-front-j" x1="30.239%" x2="41.653%" y1="65.448%" y2="76.095%">
      <stop offset="0%" stop-color="#91211C"/>
      <stop offset="31.342%" stop-color="#931F19" stop-opacity=".522"/>
      <stop offset="57.174%" stop-color="#9E221B"/>
      <stop offset="100%" stop-color="#AB251E" stop-opacity=".635"/>
    </linearGradient>
  </defs>
  <g fill="none" fill-rule="evenodd">
    <mask id="big---1.-front-b" fill="#fff">
      <use xlink:href="#big---1.-front-a"/>
    </mask>
    <g mask="url(#big---1.-front-b)">
      <g transform="translate(0 -124)">
        <rect width="266" height="168" y="124" fill="url(#big---1.-front-c)"/>
        <g transform="translate(100.16)">
          <polygon fill="url(#big---1.-front-d)" points="55.84 232.801 90.328 232.801 222.16 120.098 222.16 82.395" opacity=".618" style="mix-blend-mode:multiply"/>
          <polygon fill="url(#big---1.-front-e)" points="119.84 208.801 154.328 208.801 286.16 96.098 286.16 58.395"/>
          <polygon fill="url(#big---1.-front-f)" points="55.84 216.406 90.328 216.406 222.16 103.703 222.16 66"/>
          <polygon fill="url(#big---1.-front-f)" points="32.84 264.406 67.328 264.406 199.16 151.703 199.16 114" opacity=".324"/>
          <polygon fill="url(#big---1.-front-f)" points="55.84 166.406 90.328 166.406 222.16 53.703 222.16 16"/>
          <polygon fill="url(#big---1.-front-g)" points="10.84 308.406 45.328 308.406 177.16 195.703 177.16 158" opacity=".461"/>
          <polygon fill="url(#big---1.-front-d)" points="111.84 216.801 146.328 216.801 278.16 104.098 278.16 66.395"/>
          <polygon fill="url(#big---1.-front-h)" points="70.84 166.406 105.328 166.406 237.16 53.703 237.16 16"/>
          <polygon fill="url(#big---1.-front-i)" points="96.84 178 137.69 178 293.84 44.62 293.84 0" opacity=".353" style="mix-blend-mode:multiply"/>
          <polygon fill="url(#big---1.-front-i)" points="80.84 308 121.69 308 277.84 174.62 277.84 130" opacity=".599" style="mix-blend-mode:multiply"/>
          <polygon fill="url(#big---1.-front-j)" points="0 351.203 57.646 351.203 278 162.373 278 99.203" opacity=".452"/>
        </g>
        <path fill="#FFF" d="M25.9781642,143.328644 C25.9533485,142.752077 25.7929928,142.1801 25.4963179,141.663104 L22.879659,137.102522 C22.6801323,136.754834 22.5422553,136.382064 22.4658053,136 L22.3564162,136.190472 C21.7087614,137.319308 21.7087614,138.709946 22.3563049,139.838782 L24.4497211,143.487203 C25.0972646,144.616039 25.0972646,146.006789 24.4497211,147.135513 L24.340332,147.326097 C24.2637707,146.943921 24.1258937,146.571263 23.926367,146.223575 L22.0099988,142.883425 L20.7863541,140.750831 C20.5868274,140.403144 20.4490617,140.030374 20.3723891,139.64831 L20.2631113,139.838894 C19.6176821,140.963811 19.615679,142.348961 20.2567683,143.47567 L20.2565457,143.475782 L22.3564162,147.135513 C23.004071,148.264349 23.004071,149.655098 22.3564162,150.783934 L22.2470271,150.974518 C22.1704658,150.592342 22.0325888,150.219684 21.8330621,149.871885 L19.2165145,145.311414 C18.8655345,144.699686 18.7051788,144.011142 18.7345569,143.329092 C15.9333943,144.06545 14,145.629092 14,147.439529 C14,149.958219 17.7412637,152 22.3564162,152 C26.9714574,152 30.7127211,149.958219 30.7127211,147.439529 C30.7127211,145.629092 28.7795494,144.065002 25.9781642,143.328644"/>
        <g transform="translate(221 261)">
          <rect width="8.241" height="14.906" x="11.119" y="2.028" fill="#FF5F00"/>
          <path fill="#EB001B" d="M11.6420905,9.48105386 C11.6420905,6.4523831 13.0548386,3.76608387 15.2262846,2.02789024 C13.6304025,0.763749411 11.6159285,-2.33625502e-06 9.41832046,-2.33625502e-06 C4.21208232,-2.33625502e-06 2.05751352e-07,4.24013667 2.05751352e-07,9.48105386 C2.05751352e-07,14.721971 4.21208232,18.96211 9.41832046,18.96211 C11.6159285,18.96211 13.6304025,18.1983583 15.2262846,16.9342175 C13.0548386,15.22236 11.6420905,12.5097246 11.6420905,9.48105386 Z"/>
          <path fill="#F79E1B" d="M30.4787311,9.48105386 C30.4787311,14.721971 26.266649,18.96211 21.0604108,18.96211 C18.8628027,18.96211 16.8483286,18.1983583 15.2524467,16.9342175 C17.4500547,15.1960238 18.8366407,12.5097246 18.8366407,9.48105386 C18.8366407,6.4523831 17.4238926,3.76608387 15.2524467,2.02789024 C16.8483286,0.763749411 18.8628027,-2.33625502e-06 21.0604108,-2.33625502e-06 C26.266649,-2.33625502e-06 30.4787311,4.26647294 30.4787311,9.48105386 Z"/>
        </g>
        <path fill="#FFF" fill-rule="nonzero" d="M215.762695,158 L209.976562,158 L209.976562,141.31543 L204.74707,141.31543 L204.74707,136.583984 L220.977539,136.583984 L220.977539,141.31543 L215.762695,141.31543 L215.762695,158 Z M242.24707,136.583984 L242.24707,149.474609 C242.24707,152.277358 241.453621,154.447746 239.866699,155.98584 C238.279777,157.523933 235.992202,158.292969 233.003906,158.292969 C230.08397,158.292969 227.84034,157.545906 226.272949,156.051758 C224.705559,154.55761 223.921875,152.409194 223.921875,149.606445 L223.921875,136.583984 L229.737305,136.583984 L229.737305,149.152344 C229.737305,150.666023 230.020505,151.764645 230.586914,152.448242 C231.153323,153.131839 231.988276,153.473633 233.091797,153.473633 C234.273443,153.473633 235.130368,153.134281 235.662598,152.455566 C236.194827,151.776852 236.460938,150.666023 236.460938,149.123047 L236.460938,136.583984 L242.24707,136.583984 Z M246.744141,158 L246.744141,136.583984 L252.55957,136.583984 L252.55957,158 L246.744141,158 Z" opacity=".31"/>
      </g>
    </g>
  </g>
</svg>
