<svg xmlns="http://www.w3.org/2000/svg" xmlns:xlink="http://www.w3.org/1999/xlink" width="266" height="168" viewBox="0 0 266 168">
  <defs>
    <rect id="big---1.-front-a" width="266" height="168" x="0" y="0" rx="10"/>
  </defs>
  <g fill="none" fill-rule="evenodd">
    <mask id="big---1.-front-b" fill="#fff">
      <use xlink:href="#big---1.-front-a"/>
    </mask>
    <use fill="#D9DDDB" xlink:href="#big---1.-front-a"/>
    <g mask="url(#big---1.-front-b)" opacity=".85">
      <g transform="translate(-102)">
        <rect width="147.236" height="168" x="323.73" fill="#C5C5C7"/>
        <polygon fill="#D54737" points="258.607 0 323.632 0 406.085 82.495 323.632 167.569 258.607 167.569"/>
        <polygon fill="#ABAAB0" points="194.427 0 259.453 0 341.905 82.495 259.453 167.569 194.427 167.569"/>
        <polygon fill="#A0A1A7" points="129.303 0 194.329 0 276.781 82.495 194.329 167.569 129.303 167.569"/>
        <polygon fill="#BCBBC0" points="65.124 0 130.149 0 212.601 82.495 130.149 167.569 65.124 167.569"/>
        <polygon fill="#AFAEB3" points="0 0 65.026 0 147.478 82.495 65.026 167.569 0 167.569"/>
      </g>
    </g>
    <g transform="translate(222 136)">
      <rect width="8.644" height="15.629" x="11.662" y="2.126" fill="#FF5F00"/>
      <path fill="#EB001B" d="M12.2110649,9.94074132 C12.2110649,6.76522591 13.692857,3.94868187 15.9704264,2.12621219 C14.29655,0.800779686 12.1836243,-2.44952799e-06 9.87861431,-2.44952799e-06 C4.41793596,-2.44952799e-06 2.15727175e-07,4.44571906 2.15727175e-07,9.94074132 C2.15727175e-07,15.4357635 4.41793596,19.881485 9.87861431,19.881485 C12.1836243,19.881485 14.29655,19.0807029 15.9704264,17.7552704 C13.692857,15.9604138 12.2110649,13.1162567 12.2110649,9.94074132 Z"/>
      <path fill="#F79E1B" d="M31.9682931,9.94074132 C31.9682931,15.4357635 27.5503574,19.881485 22.089679,19.881485 C19.784669,19.881485 17.6717431,19.0807029 15.997867,17.7552704 C18.3028769,15.9328008 19.7572284,13.1162567 19.7572284,9.94074132 C19.7572284,6.76522591 18.2754363,3.94868187 15.997867,2.12621219 C17.6717431,0.800779686 19.784669,-2.44952799e-06 22.089679,-2.44952799e-06 C27.5503574,-2.44952799e-06 31.9682931,4.47333224 31.9682931,9.94074132 Z"/>
    </g>
    <path fill="#EC0000" d="M28.1840597,22.3286443 C28.1588175,21.7520768 27.9957053,21.1801004 27.6939308,20.6631044 L25.0322935,16.1025216 C24.8293372,15.7548342 24.6890901,15.3820641 24.611326,15 L24.5000566,15.1904722 C23.8412691,16.3193083 23.8412691,17.7099456 24.4999434,18.8387817 L26.6293438,22.4872032 C27.2880181,23.6160392 27.2880181,25.0067886 26.6293438,26.1355127 L26.5180744,26.3260968 C26.4401971,25.9439207 26.2999501,25.5712626 26.0969937,25.2235753 L24.1476845,21.8834254 L22.9030063,19.7508311 C22.7000499,19.4031437 22.5599161,19.0303737 22.4819256,18.6483095 L22.3707694,18.8388937 C21.7142458,19.9638106 21.7122083,21.3489611 22.3643173,22.4756696 L22.364091,22.4757816 L24.5000566,26.1355127 C25.1588441,27.2643488 25.1588441,28.6550981 24.5000566,29.7839342 L24.3887872,29.9745183 C24.3109099,29.5923422 24.1706628,29.2196841 23.9677065,28.8718848 L21.3061824,24.3114139 C20.9491694,23.6996858 20.7860572,23.0111417 20.8159403,22.3290922 C17.9666278,23.0654503 16,24.6290915 16,26.4395291 C16,28.9582187 19.8055731,31 24.5000566,31 C29.1944269,31 33,28.9582187 33,26.4395291 C33,24.6290915 31.0335986,23.0650024 28.1840597,22.3286443"/>
  </g>
</svg>
