<svg xmlns="http://www.w3.org/2000/svg" xmlns:xlink="http://www.w3.org/1999/xlink" width="266" height="168" viewBox="0 0 266 168">
  <defs>
    <rect id="big---1.-front-a" width="266" height="168" x="0" y="0" rx="10"/>
    <linearGradient id="big---1.-front-c" x1="18.261%" x2="95.489%" y1="32.541%" y2="78.612%">
      <stop offset="0%" stop-color="#FEFEFE"/>
      <stop offset="100%" stop-color="#C9C9C8"/>
    </linearGradient>
    <linearGradient id="big---1.-front-d" x1="50%" x2="50%" y1="0%" y2="74.935%">
      <stop offset="0%" stop-color="#DFDFDF" stop-opacity="0"/>
      <stop offset="100%" stop-color="#E0E0E0"/>
    </linearGradient>
  </defs>
  <g fill="none" fill-rule="evenodd">
    <mask id="big---1.-front-b" fill="#fff">
      <use xlink:href="#big---1.-front-a"/>
    </mask>
    <g mask="url(#big---1.-front-b)">
      <rect width="266" height="168" fill="url(#big---1.-front-c)"/>
      <g transform="translate(221 137)">
        <rect width="8.241" height="14.906" x="11.119" y="2.028" fill="#FF5F00"/>
        <path fill="#EB001B" d="M11.6420905,9.48105386 C11.6420905,6.4523831 13.0548386,3.76608387 15.2262846,2.02789024 C13.6304025,0.763749411 11.6159285,-2.33625502e-06 9.41832046,-2.33625502e-06 C4.21208232,-2.33625502e-06 2.05751352e-07,4.24013667 2.05751352e-07,9.48105386 C2.05751352e-07,14.721971 4.21208232,18.96211 9.41832046,18.96211 C11.6159285,18.96211 13.6304025,18.1983583 15.2262846,16.9342175 C13.0548386,15.22236 11.6420905,12.5097246 11.6420905,9.48105386 Z"/>
        <path fill="#F79E1B" d="M30.4787311,9.48105386 C30.4787311,14.721971 26.266649,18.96211 21.0604108,18.96211 C18.8628027,18.96211 16.8483286,18.1983583 15.2524467,16.9342175 C17.4500547,15.1960238 18.8366407,12.5097246 18.8366407,9.48105386 C18.8366407,6.4523831 17.4238926,3.76608387 15.2524467,2.02789024 C16.8483286,0.763749411 18.8628027,-2.33625502e-06 21.0604108,-2.33625502e-06 C26.266649,-2.33625502e-06 30.4787311,4.26647294 30.4787311,9.48105386 Z"/>
      </g>
      <g transform="translate(205 13)">
        <path fill="#242424" fill-rule="nonzero" d="M4.78849822 33.2245081L2.72345836 33.2245081 2.72345836 9.84747369 1.70530257e-13 9.84747369 1.70530257e-13 8.15891875 2.72345836 8.15891875 2.72345836 3.93025718C2.72345836 1.33919874 4.24979217 0 7.27253166 0 7.60174092 0 8.67665901.0291130161 8.91608392.0582260323L8.91608392 1.71766795C8.61680278 1.65944192 7.75138149 1.65944192 7.39224412 1.65944192 5.89583843 1.65944192 4.78849822 2.21258923 4.78849822 3.87203115L4.78849822 8.15891875 8.97344613 8.15891875 8.97344613 9.84747369 4.78849822 9.84747369 4.78849822 33.2245081zM13.7987888 16.8023256L11.7692308 16.8023256 11.7692308 1.02184168 13.5928916 1.02184168 13.7987888 4.04047531 13.8576166 4.04047531C15.034172 2.16481946 16.9166607.699463327 19.9462908.699463327L20.152188.699463327 20.3286713 2.57511918C20.2698436 2.54581205 19.652152 2.54581205 19.5933242 2.54581205 17.0343162 2.54581205 14.9753442 3.95255394 13.7987888 6.38504512L13.7987888 16.8023256z"/>
        <g transform="translate(11.77 15.996)">
          <polygon fill="#000" points="0 .608 2.063 .608 2.063 15.829 0 15.829"/>
          <path fill="#D95749" fill-rule="nonzero" d="M14.976622 16.8783542C11.0415504 16.8783542 7.84615385 14.0894356 7.84615385 8.8051689 7.84615385 3.34475993 11.3965944.790697674 14.680752.790697674 18.2903666.790697674 21.041958 3.5502592 21.041958 8.83452594L21.041958 9.21616743 9.88765719 9.21616743C9.91724419 13.0032253 12.1066826 15.175646 15.006209 15.175646 17.0772994 15.175646 18.5566496 14.383006 20.0064129 12.8857971L21.012371 14.2068638C19.2963248 15.9976431 17.5802785 16.8783542 14.976622 16.8783542zM9.62937063 7.78533095L18.9020979 7.78533095C18.6920361 4.78763097 17.2516125 2.53935599 14.4307828 2.53935599 12.150112 2.53935599 9.98947654 4.24804498 9.62937063 7.78533095zM30.3122864 16.8783542C26.3772147 16.8783542 23.1818182 14.0894356 23.1818182 8.8051689 23.1818182 3.34475993 26.7322588.790697674 30.0164163.790697674 33.6260309.790697674 36.3776224 3.5502592 36.3776224 8.83452594L36.3776224 9.21616743 25.2233215 9.21616743C25.2529085 13.0032253 27.4423469 15.175646 30.3418734 15.175646 32.4129637 15.175646 33.892314 14.383006 35.3420772 12.8857971L36.3480354 14.2068638C34.6319891 15.9976431 32.9159428 16.8783542 30.3122864 16.8783542zM24.965035 7.78533095L34.2377622 7.78533095C34.0277005 4.78763097 32.5872768 2.53935599 29.7664471 2.53935599 27.4857764 2.53935599 25.3251409 4.24804498 24.965035 7.78533095z" transform="matrix(1 0 0 -1 0 17.67)"/>
        </g>
        <rect width="41.371" height="17.395" x="9.629" y="16" fill="url(#big---1.-front-d)"/>
        <path fill="#D95749" fill-rule="nonzero" d="M26.7458528 16.7871199C22.8107811 16.7871199 19.6153846 13.9982013 19.6153846 8.71393455 19.6153846 3.25352559 23.1658252.699463327 26.4499828.699463327 30.0595974.699463327 32.8111888 3.45902485 32.8111888 8.74329159L32.8111888 9.12493308 21.656888 9.12493308C21.686475 12.9119909 23.8759133 15.0844117 26.7754398 15.0844117 28.8465302 15.0844117 30.3258804 14.2917717 31.7756436 12.7945628L32.7816018 14.1156294C31.0655555 15.9064087 29.3495092 16.7871199 26.7458528 16.7871199zM21.3986014 7.6940966L30.6713287 7.6940966C30.4612669 4.69639663 29.0208432 2.44812165 26.2000136 2.44812165 23.9193428 2.44812165 21.7587073 4.15681063 21.3986014 7.6940966zM42.0815171 16.7871199C38.1464455 16.7871199 34.951049 13.9982013 34.951049 8.71393455 34.951049 3.25352559 38.5014895.699463327 41.7856471.699463327 45.3952617.699463327 48.1468531 3.45902485 48.1468531 8.74329159L48.1468531 9.12493308 36.9925523 9.12493308C37.0221393 12.9119909 39.2115777 15.0844117 42.1111041 15.0844117 44.1821945 15.0844117 45.6615447 14.2917717 47.111308 12.7945628L48.1172661 14.1156294C46.4012199 15.9064087 44.6851736 16.7871199 42.0815171 16.7871199zM36.7342657 7.6940966L46.006993 7.6940966C45.7969312 4.69639663 44.3565076 2.44812165 41.5356779 2.44812165 39.2550071 2.44812165 37.0943716 4.15681063 36.7342657 7.6940966z"/>
      </g>
      <path fill="#B6B6B8" d="M27.9781642,19.3286443 C27.9533485,18.7520768 27.7929928,18.1801004 27.4963179,17.6631044 L24.879659,13.1025216 C24.6801323,12.7548342 24.5422553,12.3820641 24.4658053,12 L24.3564162,12.1904722 C23.7087614,13.3193083 23.7087614,14.7099456 24.3563049,15.8387817 L26.4497211,19.4872032 C27.0972646,20.6160392 27.0972646,22.0067886 26.4497211,23.1355127 L26.340332,23.3260968 C26.2637707,22.9439207 26.1258937,22.5712626 25.926367,22.2235753 L24.0099988,18.8834254 L22.7863541,16.7508311 C22.5868274,16.4031437 22.4490617,16.0303737 22.3723891,15.6483095 L22.2631113,15.8388937 C21.6176821,16.9638106 21.615679,18.3489611 22.2567683,19.4756696 L22.2565457,19.4757816 L24.3564162,23.1355127 C25.004071,24.2643488 25.004071,25.6550981 24.3564162,26.7839342 L24.2470271,26.9745183 C24.1704658,26.5923422 24.0325888,26.2196841 23.8330621,25.8718848 L21.2165145,21.3114139 C20.8655345,20.6996858 20.7051788,20.0111417 20.7345569,19.3290922 C17.9333943,20.0654503 16,21.6290915 16,23.4395291 C16,25.9582187 19.7412637,28 24.3564162,28 C28.9714574,28 32.7127211,25.9582187 32.7127211,23.4395291 C32.7127211,21.6290915 30.7795494,20.0650024 27.9781642,19.3286443"/>
    </g>
  </g>
</svg>
