<svg xmlns="http://www.w3.org/2000/svg" width="151" height="241" fill="none"><g clip-path="url(#a)"><rect width="151" height="241" fill="#fff" rx="10"/><path fill="#fff" stroke="#7D7D7D" stroke-miterlimit="10" stroke-width=".25" d="M145.7 242.7H6.8c-3.9 0-7.1-3.2-7.1-7.1V6c0-3.9 3.2-7.1 7.1-7.1h138.9c3.9 0 7.1 3.2 7.1 7.1v229.6c-.1 3.9-3.2 7.1-7.1 7.1Z"/><path fill="#ED1C24" d="M56.8 42.2c-.7 0-1.5.1-2.4.4v6.3h.9v-5.7c.5-.1 1-.2 1.5-.2 1.5 0 2 .6 2 1.8v4.1h.9v-4.2c-.1-1.6-.8-2.5-2.9-2.5ZM36.9 25.7c0-.7-.2-1.3-.6-2l-3.1-5.3c-.2-.4-.4-.8-.5-1.3l-.1.2c-.8 1.3-.8 3 0 4.3l2.5 4.3c.8 1.3.8 3 0 4.3l-.1.2c-.1-.4-.3-.9-.5-1.3l-2.3-3.9-1.4-2.5c-.2-.4-.4-.8-.5-1.3l-.1.2c-.8 1.3-.8 2.9 0 4.3l2.5 4.3c.8 1.3.8 3 0 4.3l-.1.2c-.1-.4-.3-.9-.5-1.3L28.9 28c-.4-.7-.6-1.5-.6-2.3-3.3.9-5.6 2.7-5.6 4.8 0 3 4.4 5.3 9.9 5.3 5.4 0 9.9-2.4 9.9-5.3 0-2.1-2.3-4-5.6-4.8Zm35.3 16.5c-2.1 0-2.9 1.5-2.9 3.3 0 2.2 1.1 3.4 3.2 3.4.7 0 1.4-.1 2-.5.1-.3.1-.6.1-.8-.7.4-1.4.5-2.1.5-1.4 0-2.2-.8-2.3-2.3h4.6c0-.3.1-.5.1-.8 0-1.5-.8-2.8-2.7-2.8Zm1.8 2.9h-3.8c.1-1.3.7-2.1 2-2.1 1.2 0 1.8.8 1.8 2.1Zm-3.4-19.7c-1 0-2.4.2-3.7.5v9.3h2v-7.9c.6-.1 1.1-.1 1.6-.1 2 0 2.5.7 2.5 2.2v5.9h2V29c.1-2.2-1-3.6-4.4-3.6Zm5.7 17.2v6.3h.9v-5.7c.4-.1.9-.1 1.2-.1.4 0 .7 0 1 .1.1-.2.1-.5.1-.8-.3 0-.7-.1-1.1-.1-.7 0-1.6.1-2.1.3ZM66.1 48l-2-5.6h-1l2.4 6.5h1.1l2.4-6.5h-.9l-2 5.6Zm-4.4-7.8c-.3 0-.6.3-.6.6s.3.6.6.6.6-.2.6-.6c0-.3-.2-.6-.6-.6Zm-.4 8.7h.9v-6.5h-.9v6.5Zm-9.9-20.8-1-.4c-1.3-.6-2-1.1-2-2.1s.7-1.6 2.4-1.6c.9 0 2 .2 3 .5.2-.5.3-1.1.4-1.9-1.1-.4-2.2-.5-3.4-.5-3 0-4.5 1.4-4.5 3.5 0 2 1.2 2.9 2.9 3.7l.9.4c1.7.8 2.4 1.3 2.4 2.3 0 1.1-1 1.6-2.7 1.6-1 0-2.4-.2-3.4-.7-.2.6-.3 1.1-.4 1.9 1 .5 2.3.7 3.8.7 3.1 0 4.8-1.5 4.8-3.6.1-1.8-.8-2.8-3.2-3.8ZM64.7 26c-1.1-.4-2.2-.5-3.5-.5-3.4 0-5.2 1.9-5.2 5.1 0 3.1 1.6 4.9 4.1 4.9 1.3 0 2.1-.5 2.6-1.3l.1 1.1h1.9V26Zm-2 7.1c-.5.4-1.2.7-2 .7-1.8 0-2.6-1.3-2.6-3.2 0-2.1 1-3.4 3.1-3.4.6 0 1 0 1.5.1v5.8Zm-11 12.8c0 1.4-.8 2.3-2.3 2.3-1.5 0-2.3-1-2.3-2.4v-5.7c-.3 0-.7.1-.9.1v5.7c0 1.7 1.1 3.1 3.2 3.1s3.2-1.3 3.2-3.1v-5.8c-.3 0-.7.1-.9.1v5.7Zm28.7-10.5c.6 0 1.2-.1 1.7-.3.1-.5.2-1.2.2-1.7-.4.2-1 .3-1.6.3-1 0-1.6-.5-1.6-1.7v-4.5h3c.1-.5.1-1.1.2-1.7h-3.2v-3.5c-.6 0-1.4.1-2 .3v9.7c0 2.2 1.3 3.1 3.3 3.1Zm37.7 9.9-.6-.2c-.8-.3-1.3-.5-1.3-1.2 0-.6.5-.9 1.5-.9.6 0 1.3.1 1.8.3.1-.3.1-.5.1-.7-.6-.2-1.3-.3-2-.3-1.4 0-2.3.6-2.3 1.7 0 1 .6 1.6 1.7 1.9l.6.2c.6.2 1.3.5 1.3 1.2s-.6 1-1.6 1c-.6 0-1.5-.2-2-.5-.1.2-.1.4-.1.8.6.3 1.3.5 2.2.5 1.5 0 2.4-.7 2.4-1.8 0-1.2-.7-1.7-1.7-2Zm-11.7-2.9c-.4-.1-.9-.2-1.3-.2-2.2 0-3.3 1.2-3.3 3.4 0 2.1 1.1 3.3 2.7 3.3.9 0 1.5-.3 1.9-.7v.5h.8v-8.8c-.3 0-.6 0-.9.1v2.4h.1Zm0 5.2c-.4.4-1 .7-1.7.7-1.4 0-2-1-2-2.6 0-1.7.8-2.7 2.3-2.7.4 0 .9.1 1.4.2v4.4Zm4.1-13.6.1 1.2h1.9v-13c-.7 0-1.4.1-2 .3v3.1c-.5-.1-1-.1-1.5-.1-3.4 0-5.2 1.9-5.2 5.1 0 3.1 1.6 4.9 4.1 4.9 1.2-.1 2-.6 2.6-1.5Zm-4.7-3.5c0-2.1 1-3.4 3-3.4.5 0 1.1.1 1.6.2V33c-.6.4-1.2.7-2 .7-1.8.1-2.6-1.3-2.6-3.2Zm5.7 11.7c-2.1 0-2.9 1.5-2.9 3.3 0 2.2 1.1 3.4 3.2 3.4.7 0 1.4-.1 2-.5.1-.3.1-.6.1-.8-.7.4-1.4.5-2.1.5-1.4 0-2.2-.8-2.3-2.3h4.6c0-.3.1-.5.1-.8 0-1.5-.8-2.8-2.7-2.8Zm1.8 2.9h-3.8c.1-1.3.7-2.1 2-2.1 1.2 0 1.8.8 1.8 2.1ZM128 25.4c-1.1 0-2.6.2-3.5.5v9.3h2v-7.9c.5-.1 1-.1 1.5-.1.6 0 1.1 0 1.5.1.1-.4.2-1.1.2-1.7-.3-.1-1-.2-1.7-.2Zm-9.4 0c-3.2 0-4.5 2.2-4.5 4.9 0 3.2 1.6 5.1 5.1 5.1 1.1 0 2.1-.2 3-.6.1-.6.2-1.3.3-1.9-1 .5-2.1.7-3.3.7-1.8 0-2.8-.8-3-2.4h6.5c.1-.5.1-1 .1-1.6 0-2.3-1.3-4.2-4.2-4.2Zm-2.5 4.1c.2-1.6.9-2.4 2.4-2.4 1.4 0 2.2.9 2.2 2.4h-4.6ZM86.4 40.2c-.3 0-.6.3-.6.6s.3.6.6.6.6-.2.6-.6c0-.3-.3-.6-.6-.6Zm-3.5 5.1-.6-.2c-.8-.3-1.3-.5-1.3-1.2 0-.6.5-.9 1.5-.9.6 0 1.3.1 1.8.3.1-.3.1-.5.1-.7-.6-.2-1.3-.3-2-.3-1.4 0-2.3.6-2.3 1.7 0 1 .6 1.6 1.7 1.9l.6.2c.6.2 1.3.5 1.3 1.2s-.6 1-1.6 1c-.6 0-1.5-.2-2-.5-.1.2-.1.4-.1.8.6.3 1.3.5 2.2.5 1.5 0 2.4-.7 2.4-1.8.1-1.2-.7-1.7-1.7-2Zm3 3.6h.9v-6.5h-.9v6.5Zm3.8-14.8.1 1.1h1.9V26c-1.1-.4-2.2-.5-3.5-.5-3.4 0-5.2 1.9-5.2 5.1 0 3.1 1.6 4.9 4.1 4.9 1.3-.1 2.1-.6 2.6-1.4Zm-4.6-3.6c0-2.1 1-3.4 3.1-3.4.6 0 1 0 1.5.1V33c-.5.4-1.2.7-2 .7-1.8.1-2.6-1.3-2.6-3.2Zm10.8-3.2c.6-.1 1.1-.1 1.6-.1 2 0 2.5.7 2.5 2.2v5.9h2V29c0-2.2-1.1-3.6-4.5-3.6-1 0-2.4.2-3.7.5v9.3h2v-7.9h.1Zm-3.1 15.1c-.4-.1-.9-.2-1.3-.2-2.2 0-3.3 1.2-3.3 3.4 0 2.1 1.1 3.3 2.7 3.3.9 0 1.5-.3 1.9-.7v.5h.8v-8.8c-.3 0-.6 0-.9.1v2.4h.1Zm0 5.2c-.4.4-1 .7-1.7.7-1.4 0-2-1-2-2.6 0-1.7.8-2.7 2.3-2.7.4 0 .9.1 1.4.2v4.4Zm2.2-1.9c0 2.1 1.1 3.3 2.9 3.3.7 0 1.3-.3 1.7-.6v.5h.8v-6.3c-.7-.3-1.3-.4-2.1-.4-2.2 0-3.3 1.3-3.3 3.5Zm4.6 1.9c-.4.4-.9.6-1.6.6-1.4 0-2.1-1-2.1-2.6 0-1.7.8-2.7 2.4-2.7.5 0 .8.1 1.2.2v4.5h.1Z"/><path fill="#E2E2E2" d="M153 235.5V169H38v36.6H-.3l-.2 29.6s.4 7.8 8.1 7.6h138.2c-.1 0 7.2.2 7.2-7.3Z"/><path fill="url(#b)" d="M71.8 183.2c1.5 0 2.7 1.2 2.7 2.6V211c0 1.5-1.2 2.6-2.7 2.6h-17c-1.5 0-2.7-1.2-2.7-2.6v-25.2c0-1.5 1.2-2.6 2.7-2.6h17Z"/><path stroke="#000" stroke-width=".5" d="M59.9 183.2v8.8c-5.2.8-7.8 4.8-7.8 4.8v2.7s2.5 4 7.8 4.8v9.5M67 183.2v9c3.9 0 7.5 4.5 7.5 4.5v2.8S70.9 204 67 204v9.6"/><path fill="#000" d="M53.7 197.3c.4 0 .7.3.7.7 0 .4-.3.7-.7.7-.4 0-.7-.3-.7-.7 0-.3.3-.7.7-.7Z"/><path stroke="#000" stroke-width=".5" d="M59.9 204.2s1.4-.6 3.5-.6 3.6.5 3.6.5M59.9 192s1.4.6 3.5.6 3.6-.5 3.6-.5M52.4 204.3v7.9M74.3 204.3v7.9M52.4 184.2v7.9M74.3 184.2v7.9"/><path stroke="#D1D3D4" stroke-width=".3" d="M71.8 183.2c1.5 0 2.7 1.2 2.7 2.6V211c0 1.5-1.2 2.6-2.7 2.6h-17c-1.5 0-2.7-1.2-2.7-2.6v-25.2c0-1.5 1.2-2.6 2.7-2.6h17Z"/><path fill="#F26522" d="M125.7 206h-13.8v24.8h13.8V206Z"/><path fill="#E51B24" d="M112.8 218.4c0-5 2.4-9.5 6-12.4-2.7-2.1-6.1-3.4-9.7-3.4-8.7 0-15.8 7.1-15.8 15.8 0 8.7 7.1 15.8 15.8 15.8 3.7 0 7.1-1.3 9.7-3.4-3.7-2.9-6-7.4-6-12.4Z"/><path fill="#000" d="M142.8 228.1v-.5h.2v-.1h-.5v.1h.2v.5h.1Zm1 0v-.6h-.2l-.2.4-.2-.4h-.2v.6h.1v-.5l.2.4h.1l.2-.4v.5h.2Z"/><path fill="#F99F1C" d="M144.3 218.4c0 8.7-7.1 15.8-15.8 15.8-3.7 0-7.1-1.3-9.7-3.4 3.7-2.9 6-7.4 6-12.4s-2.4-9.5-6-12.4c2.7-2.1 6.1-3.4 9.7-3.4 8.7 0 15.8 7.1 15.8 15.8Z"/><path fill="#fff" d="M20.3 234.1c-.3-.1-.6-.5-.7-.8 0-.2 0-.4.3-1.1 1.4-2.6 2-5.1 2-8 0-2.8-.5-5.1-1.8-7.7-.3-.6-.5-1.1-.5-1.2 0-.3.2-.7.5-.9.4-.2.9-.2 1.2.1.1.1.4.6.6 1 .9 1.8 1.6 3.8 1.9 5.9.2 1.3.2 3.7.1 4.9-.3 2.2-.9 4.1-1.8 6-.6 1.2-.9 1.6-1.2 1.6h-.2c-.1.2-.3.2-.4.2Zm-3.8-2c-.5-.1-.8-.7-.7-1.2 0-.1.3-.6.5-1.1 1-2.1 1.5-4.4 1.3-6.7-.2-1.8-.5-3-1.3-4.7-.6-1.1-.6-1.3-.3-1.8.3-.4 1.1-.5 1.5-.1.3.3 1.2 2.1 1.5 3.1 1.1 3.4.9 7.1-.5 10.4-.8 1.7-1.3 2.3-2 2.1Zm-3.9-2c-.3-.1-.6-.5-.6-.8 0-.2 0-.4.4-1.1 1.3-2.7 1.3-5.2 0-7.8-.6-1.1-.6-1.4-.1-1.8.2-.2.3-.3.7-.3.6 0 .8.3 1.3 1.3.8 1.6 1.1 2.9 1.1 4.7 0 1.8-.3 3-1.1 4.7-.5.9-.7 1.2-1.2 1.3-.1-.2-.4-.2-.5-.2Zm-3.7-1.9c-.2-.1-.5-.4-.6-.7-.1-.3 0-.6.3-1.2.5-.8.6-1.2.6-2.2 0-1-.1-1.4-.6-2.2-.2-.3-.3-.6-.3-.7-.1-.5.3-1.1.8-1.2.5-.1.8.1 1.2.8 1.3 2 1.3 4.6 0 6.6-.3.7-.8 1-1.4.8Z"/></g><defs><linearGradient id="b" x1="72.981" x2="53.489" y1="185.579" y2="211.477" gradientUnits="userSpaceOnUse"><stop stop-color="#7A7A7A"/><stop offset=".304" stop-color="#fff"/><stop offset="1" stop-color="#7A7A7A"/></linearGradient><clipPath id="a"><rect width="151" height="241" fill="#fff" rx="10"/></clipPath></defs></svg>