<svg xmlns="http://www.w3.org/2000/svg" width="64" height="44" viewBox="0 0 64 44">
  <g fill="none" fill-rule="evenodd">
    <rect width="64" height="44" fill="#0166B2" rx="2"/>
    <path fill="#FFF" fill-rule="nonzero" d="M32.58,17.99 L33.04,25 L31.88,25 L31.72,22.24 C31.67,21.42 31.64,20.59 31.63,19.75 C31.32,20.78 30.94,21.85 30.59,22.78 L29.77,25 L28.84,25 L28.01,22.73 C27.63,21.73 27.29,20.74 27.01,19.82 C27,20.64 26.95,21.57 26.9,22.4 L26.75,25 L25.61,25 L26.07,18.15 C26.47,18.04 27.09,17.99 27.51,17.99 L29.34,23.39 L31.1,18.15 C31.53,18.02 32.14,17.99 32.58,17.99 Z M35.7,22.03 L35.7,23.96 L38.63,23.96 C38.62,24.27 38.58,24.71 38.52,25 L34.51,25 L34.51,18.08 L38.65,18.08 C38.64,18.39 38.6,18.84 38.54,19.12 L35.7,19.12 L35.7,20.99 L38.32,20.99 C38.32,21.31 38.27,21.74 38.21,22.03 L35.7,22.03 Z"/>
  </g>
</svg>
