<?xml version="1.0" encoding="utf-8"?>
<!-- Generator: Adobe Illustrator 23.0.4, SVG Export Plug-In . SVG Version: 6.00 Build 0)  -->
<svg version="1.1" id="Layer_1" xmlns="http://www.w3.org/2000/svg" xmlns:xlink="http://www.w3.org/1999/xlink" x="0px" y="0px"
	 width="54px" height="34px" viewBox="0 0 54 34" style="enable-background:new 0 0 54 34;" xml:space="preserve">
<style type="text/css">
	.st0{fill:#E3F2FF;}
	.st1{fill:#FE73B1;}
	.st2{fill:#FFC66C;}
	.st3{fill:#FFE058;}
	.st4{fill:#8CDFE4;}
	.st5{fill:#CCCCCC;}
	.st6{fill:#274B72;}
	.st7{fill-rule:evenodd;clip-rule:evenodd;fill:#FFFFFF;stroke:#274B72;stroke-width:1.2;stroke-linejoin:round;}
	.st8{fill:#BEECC0;}
	.st9{fill:none;stroke:#274B72;stroke-width:1.2;stroke-linecap:round;stroke-linejoin:round;}
</style>
<title>mini_Seguro_Enfermedad</title>
<desc>Created with Sketch.</desc>
<g id="Page-1">
	<g id="CD_02_Mis-productos" transform="translate(-23.000000, -944.000000)">
		<g id="mini_Seguro_Enfermedad" transform="translate(24.000000, 945.000000)">
			<g id="Group-9" transform="translate(13.000000, 0.000000)">
				<g id="medicine" transform="translate(0.000000, 4.000000)">
					<polygon id="Path" class="st0" points="16.9,18.2 16.9,12.9 5.4,12.9 5.4,22 11.8,22 11.8,22 					"/>
					<g id="Group" transform="translate(18.072581, 18.210938)">
						<path class="st1" d="M3.2,0.6C3.2,0.6,3.2,0.6,3.2,0.6C3.2,0.6,3.2,0.6,3.2,0.6z"/>
						<path class="st1" d="M3.2,0.6C3.2,0.6,3.2,0.6,3.2,0.6L3.2,0.6z"/>
						<path class="st1" d="M3.2,0.6C3.2,0.6,3.2,0.6,3.2,0.6C3.2,0.6,3.2,0.6,3.2,0.6z"/>
						<path class="st1" d="M3.2,0.6C3.2,0.6,3.2,0.6,3.2,0.6C3.2,0.6,3.2,0.6,3.2,0.6C3.2,0.6,3.2,0.6,3.2,0.6z"/>
						<path class="st1" d="M3.2,0.6C3.2,0.6,3.2,0.6,3.2,0.6C3.2,0.6,3.2,0.6,3.2,0.6C3.2,0.6,3.2,0.6,3.2,0.6z"/>
						<path class="st2" d="M3.2,0.6C3.2,0.6,3.2,0.6,3.2,0.6C3.2,0.6,3.2,0.6,3.2,0.6C3.2,0.6,3.2,0.6,3.2,0.6
							C3.2,0.6,3.2,0.6,3.2,0.6C3.2,0.6,3.2,0.6,3.2,0.6C3.2,0.6,3.2,0.6,3.2,0.6C3.2,0.6,3.2,0.6,3.2,0.6C3.2,0.6,3.2,0.6,3.2,0.6
							C3.1,0.7,2.4,1,0,2.4l2.5,4.3l3.1-1.8c1.4-0.8,2.1-2.5,1.8-4C6.3-0.1,4.6-0.2,3.2,0.6z"/>
					</g>
					<path class="st3" d="M12.5,26.3c1.2,1.2,3.1,1.5,4.6,0.6l3.2-1.8l-2.5-4.3l-3.4,2C13.1,23.6,12.5,24.9,12.5,26.3z"/>
					<path class="st4" d="M16.5,11.2l-2.8-3.8V5.2H8.5v2.2l-2.8,3.8c-0.3,0.4-0.4,0.8-0.4,1.3v0.4h11.7v-0.4
						C16.9,12.1,16.7,11.6,16.5,11.2z"/>
					<path class="st5" d="M14.7,4.2V1.6c0-0.6-0.5-1.1-1.1-1.1H8.1C7.5,0.5,7,1,7,1.6v2.5c0,0.6,0.5,1.1,1.1,1.1h5.6
						C14.2,5.2,14.7,4.8,14.7,4.2z"/>
					<path class="st4" d="M11.8,22L11.8,22l-6.5,0v1.1c0,1.2,1,2.2,2.2,2.2h4.3l0,0L11.8,22z"/>
					<path class="st6" d="M6,8c0.3,0,0.5-0.2,0.5-0.5c0-0.3-0.2-0.5-0.5-0.5c-0.3,0-0.5,0.2-0.5,0.5C5.5,7.7,5.7,8,6,8z"/>
					<path class="st6" d="M10.9,17.1H9.3v-1.6c0-0.3-0.2-0.5-0.5-0.5s-0.5,0.2-0.5,0.5v1.6H6.6c-0.3,0-0.5,0.2-0.5,0.5
						s0.2,0.5,0.5,0.5h1.6v1.6c0,0.3,0.2,0.5,0.5,0.5s0.5-0.2,0.5-0.5v-1.6h1.6c0.3,0,0.5-0.2,0.5-0.5
						C11.5,17.4,11.2,17.1,10.9,17.1z"/>
					<path id="Shape" class="st6" d="M19.7,16l-2.2,1.3v-4.7c0-0.6-0.2-1.2-0.5-1.6l-2.7-3.6V5.7c0.6-0.2,1.1-0.8,1.1-1.5V1.6
						c0-0.9-0.7-1.6-1.6-1.6H3.8C2.9,0,2.2,0.7,2.2,1.6v2.5c0,0.7,0.5,1.3,1.1,1.5v1.6l-2.7,3.6C0.2,11.4,0,12,0,12.5v10.6
						c0,1.5,1.2,2.7,2.7,2.7h8.7c1.2,2.1,3.9,2.7,5.9,1.5l6.6-3.8c2.1-1.2,2.8-3.9,1.6-6C24.4,15.5,21.8,14.8,19.7,16z M11.4,21.5
						H1.1v-8h15.2v4.5l-3.3,1.9C12.4,20.2,11.8,20.8,11.4,21.5z M3.3,1.6c0-0.3,0.2-0.5,0.5-0.5h9.8c0.3,0,0.5,0.2,0.5,0.5v2.5
						c0,0.3-0.2,0.5-0.5,0.5H3.8c-0.3,0-0.5-0.2-0.5-0.5V1.6z M4.3,7.8c0.1-0.1,0.1-0.2,0.1-0.3V5.8h8.7v1.1H8.2
						c-0.3,0-0.5,0.2-0.5,0.5C7.7,7.7,7.9,8,8.2,8h5.2l2.7,3.6c0.2,0.2,0.3,0.5,0.3,0.8H1.1c0-0.3,0.1-0.6,0.3-0.8L4.3,7.8z
						 M1.1,23.1v-0.6H11c-0.2,0.7-0.2,1.5,0,2.2H2.8C1.9,24.8,1.1,24,1.1,23.1z M16.9,26.5c-1.6,0.9-3.6,0.4-4.5-1.2
						c-0.9-1.6-0.4-3.6,1.2-4.5l3-1.7l3.3,5.7L16.9,26.5z M23.5,22.6l-2.7,1.6l-3.3-5.7l2.7-1.6c1.6-0.9,3.6-0.4,4.5,1.2
						C25.6,19.7,25,21.7,23.5,22.6z"/>
				</g>
				<g id="Group-Copy-3" transform="translate(19.000000, 0.000000)">
					<path id="Stroke-679-Copy" class="st7" d="M5.2,0c1.4,1.5,3.1,2.5,5.2,2.8c-0.3,3.8-1.4,7.6-5.2,9c-3.8-1.4-4.9-5.2-5.2-9
						C2.1,2.5,3.8,1.5,5.2,0z"/>
					<path class="st8" d="M5.5,11.1c2.4-1,4.3-4.4,4.3-8C8.8,3,7.3,2.2,6.4,1.7C6.2,1.6,4.6,4.8,4.4,6C4,8.9,5.1,11.3,5.5,11.1z"/>
					<polyline id="Stroke-680-Copy" class="st9" points="3.1,5.9 4.6,7.4 7.6,4.3 					"/>
				</g>
			</g>
		</g>
	</g>
</g>
</svg>
