<?xml version="1.0" encoding="utf-8"?>
<!-- Generator: Adobe Illustrator 23.0.4, SVG Export Plug-In . SVG Version: 6.00 Build 0)  -->
<svg version="1.1" id="Layer_1" xmlns="http://www.w3.org/2000/svg" xmlns:xlink="http://www.w3.org/1999/xlink" x="0px" y="0px"
	 width="54px" height="34px" viewBox="0 0 54 34" style="enable-background:new 0 0 54 34;" xml:space="preserve">
<style type="text/css">
	.st0{fill-rule:evenodd;clip-rule:evenodd;fill:#FFFFFF;stroke:#274B72;stroke-width:1.2;stroke-linejoin:round;}
	.st1{fill:#BEECC0;}
	.st2{fill:none;stroke:#274B72;stroke-width:1.2;stroke-linecap:round;stroke-linejoin:round;}
	.st3{fill:#EDF2FA;}
	.st4{fill:#FFC66C;}
	.st5{fill:#FFE058;}
	.st6{fill:#274B72;}
</style>
<title>mini_Seguro_Fraude</title>
<desc>Created with Sketch.</desc>
<g id="Page-1">
	<g id="CD_02_Mis-productos" transform="translate(-23.000000, -1034.000000)">
		<g id="mini_Seguro_Fraude" transform="translate(24.000000, 1035.000000)">
			<g id="Group-11" transform="translate(9.000000, 0.000000)">
				<g id="Group-Copy-4" transform="translate(23.000000, 0.000000)">
					<path id="Stroke-679-Copy" class="st0" d="M5.2,0c1.4,1.5,3.1,2.5,5.2,2.8c-0.3,3.8-1.4,7.6-5.2,9c-3.8-1.4-4.9-5.2-5.2-9
						C2.1,2.5,3.8,1.5,5.2,0z"/>
					<path class="st1" d="M5.5,11.1c2.4-1,4.3-4.4,4.3-8C8.8,3,7.3,2.2,6.4,1.7C6.2,1.6,4.6,4.8,4.4,6C4,8.9,5.1,11.3,5.5,11.1z"/>
					<polyline id="Stroke-680-Copy" class="st2" points="3.1,5.9 4.6,7.4 7.6,4.3 					"/>
				</g>
				<g id="credit-card" transform="translate(0.000000, 4.000000)">
					<g id="Group" transform="translate(4.867188, 0.546875)">
						<g>
							<path id="Path" class="st3" d="M13.1,0.6c-0.8-0.8-2-0.8-2.8,0l-9.7,9.7c-0.8,0.8-0.8,2,0,2.8l2.7,2.7L15.9,3.4L13.1,0.6z"/>
							<path id="Shape" class="st3" d="M22,9.5l-1.2-1.2l-0.3,0.3L18.8,7l0.3-0.3l-3.3-3.3L3.4,15.9L9.5,22c0.8,0.8,2,0.8,2.8,0
								l9.7-9.7C22.7,11.5,22.7,10.2,22,9.5z M16.2,12.9l-1.6-1.6L17,8.8l1.6,1.7L16.2,12.9z"/>
						</g>
						<polygon id="Rectangle" class="st4" points="1.7,14.2 14.2,1.7 16.7,4.2 4.2,16.7 						"/>
						<polygon class="st5" points="18.6,10.5 16.2,12.9 14.5,11.3 17,8.8 						"/>
					</g>
					<g>
						<path class="st6" d="M27.3,9.6l-8.9-8.9C17.9,0.3,17.3,0,16.6,0c-0.7,0-1.3,0.3-1.8,0.7L0.7,14.8C0.3,15.3,0,15.9,0,16.6
							c0,0.7,0.3,1.3,0.7,1.8l1.1,1.1c0,0,0,0,0,0c0,0,0,0,0,0l7.3,7.3h-1c-0.3,0-0.6,0.3-0.6,0.6c0,0.3,0.3,0.6,0.6,0.6h3.2
							c0,0,0,0,0,0c0,0,0,0,0,0h8.4c0.3,0,0.6-0.3,0.6-0.6c0-0.3-0.3-0.6-0.6-0.6l-6.2,0l13.6-13.6C28.2,12.2,28.2,10.6,27.3,9.6z
							 M26.4,12.4L12.4,26.4c-0.3,0.3-0.6,0.4-1,0.4h0c-0.4,0-0.7-0.1-1-0.4l-7.4-7.4L16.6,5.6c0.2-0.2,0.2-0.6,0-0.8
							c-0.2-0.2-0.6-0.2-0.8,0L2.2,18.2l-0.7-0.7c-0.3-0.3-0.4-0.6-0.4-1c0-0.4,0.1-0.7,0.4-1L15.6,1.6c0.3-0.3,0.6-0.4,1-0.4
							s0.7,0.1,1,0.4l3.2,3.2L7.2,18.2C7,18.4,7,18.8,7.2,19c0.1,0.1,0.3,0.2,0.4,0.2c0.1,0,0.3-0.1,0.4-0.2L21.5,5.5l4.9,4.9
							C27,11,27,11.8,26.4,12.4z"/>
						<path class="st6" d="M14.4,16.8c-0.2-0.2-0.6-0.2-0.8,0L9,21.4c-0.2,0.2-0.2,0.6,0,0.8c0.1,0.1,0.3,0.2,0.4,0.2
							c0.1,0,0.3-0.1,0.4-0.2l4.6-4.6C14.6,17.4,14.6,17.1,14.4,16.8z"/>
						<path class="st6" d="M12.5,21.2l-1.9,1.9c-0.2,0.2-0.2,0.6,0,0.8c0.1,0.1,0.3,0.2,0.4,0.2c0.1,0,0.3-0.1,0.4-0.2l1.9-1.9
							c0.2-0.2,0.2-0.6,0-0.8C13.1,21,12.7,21,12.5,21.2z"/>
						<path class="st6" d="M14.2,19.5L14,19.7c-0.2,0.2-0.2,0.6,0,0.8c0.1,0.1,0.3,0.2,0.4,0.2c0.1,0,0.3-0.1,0.4-0.2l0.2-0.2
							c0.2-0.2,0.2-0.6,0-0.8C14.8,19.2,14.4,19.2,14.2,19.5z"/>
						<path class="st6" d="M22.3,9c-0.1-0.1-0.3-0.2-0.4-0.2S21.5,8.8,21.4,9L19,11.4c-0.1,0.1-0.2,0.3-0.2,0.4s0.1,0.3,0.2,0.4
							l1.6,1.6c0.1,0.1,0.3,0.2,0.4,0.2c0.1,0,0.3-0.1,0.4-0.2l2.5-2.5c0.2-0.2,0.2-0.6,0-0.8L22.3,9z M21,12.7l-0.8-0.8l1.6-1.6
							l0.8,0.8L21,12.7z"/>
						<path class="st6" d="M17.5,4.4c0.1,0,0.3-0.1,0.4-0.2L18.2,4c0.2-0.2,0.2-0.6,0-0.8c-0.2-0.2-0.6-0.2-0.8,0l-0.2,0.2
							c-0.2,0.2-0.2,0.6,0,0.8C17.2,4.3,17.4,4.4,17.5,4.4z"/>
						<path class="st6" d="M5.9,19.6l-0.2,0.2c-0.2,0.2-0.2,0.6,0,0.8c0.1,0.1,0.3,0.2,0.4,0.2c0.1,0,0.3-0.1,0.4-0.2l0.2-0.2
							c0.2-0.2,0.2-0.6,0-0.8C6.5,19.4,6.1,19.4,5.9,19.6z"/>
					</g>
				</g>
			</g>
		</g>
	</g>
</g>
</svg>
