<?xml version="1.0" encoding="utf-8"?>
<!-- Generator: Adobe Illustrator 23.0.4, SVG Export Plug-In . SVG Version: 6.00 Build 0)  -->
<svg version="1.1" id="Layer_1" xmlns="http://www.w3.org/2000/svg" xmlns:xlink="http://www.w3.org/1999/xlink" x="0px" y="0px"
	 width="54px" height="34px" viewBox="0 0 54 34" style="enable-background:new 0 0 54 34;" xml:space="preserve">
<style type="text/css">
	.st0{fill:#B3B6C3;}
	.st1{fill:#FFC66C;}
	.st2{fill:#EDF2FA;}
	.st3{fill:#FFE058;}
	.st4{fill:#FFFFFF;}
	.st5{fill:#274B72;}
	.st6{fill-rule:evenodd;clip-rule:evenodd;fill:#FFFFFF;stroke:#274B72;stroke-width:1.2;stroke-linejoin:round;}
	.st7{fill:#BEECC0;}
	.st8{fill:none;stroke:#274B72;stroke-width:1.2;stroke-linecap:round;stroke-linejoin:round;}
</style>
<title>mini_Seguro_Hogar</title>
<desc>Created with Sketch.</desc>
<g id="Page-1">
	<g id="CD_02_Mis-productos" transform="translate(-23.000000, -1125.000000)">
		<g id="mini_Seguro_Hogar" transform="translate(24.000000, 1126.000000)">
			<g id="Group-2-Copy" transform="translate(11.000000, 1.000000)">
				
					<g id="smart-house" transform="translate(14.000000, 17.000000) scale(-1, 1) translate(-14.000000, -17.000000) translate(0.000000, 3.000000)">
					<polygon id="Path" class="st0" points="8.2,24.9 25.8,24.9 25.8,27.3 8.2,27.3 					"/>
					<polygon class="st1" points="14.7,14.6 18.1,14.6 18.1,24.9 14.7,24.9 					"/>
					<polygon class="st2" points="17,8.7 8.6,15.2 8.6,24.9 12.9,24.9 12.9,14.4 18.2,14.4 18.2,24.9 24.1,24.9 24.1,14.2 					"/>
					<polygon class="st0" points="24.1,6.3 22.7,6.3 22.7,8.6 24.1,9.7 					"/>
					<polygon class="st3" points="5.5,15.1 15.4,7.4 25.6,15.4 27.4,13 16.7,4.7 4.7,14 					"/>
					<path class="st4" d="M4.3,2.6c0,1.1-0.9,2-2,2s-2-0.9-2-2s0.9-2,2-2S4.3,1.5,4.3,2.6z"/>
					<path id="Shape" class="st5" d="M24.8,15.5l0.5,0.4c0.1,0.1,0.3,0.1,0.5,0.1c0.2,0,0.3-0.1,0.4-0.3l1.7-2.4
						c0.2-0.3,0.1-0.7-0.1-0.9l-3-2.3V5.8c0-0.3-0.3-0.6-0.6-0.6h-2.7c-0.3,0-0.6,0.3-0.6,0.6V7l-5-3.9C15.5,3,15.2,3,15,3.2L3,12.4
						c-0.3,0.2-0.3,0.6-0.1,0.9l1.7,2.4C4.7,15.9,4.8,16,5,16c0,0,0.1,0,0.1,0c0.1,0,0.3,0,0.4-0.1L6,15.5v8.8H5
						c-0.3,0-0.6,0.3-0.6,0.6v2.5C4.4,27.7,4.7,28,5,28h20.8c0.3,0,0.6-0.3,0.6-0.6v-2.5c0-0.3-0.3-0.6-0.6-0.6h-1v-2.1
						c0-0.3-0.3-0.6-0.6-0.6c-0.3,0-0.6,0.3-0.6,0.6v2.1h-4.8v-9.9c0-0.3-0.3-0.6-0.6-0.6h-5.4c-0.3,0-0.6,0.3-0.6,0.6v9.9H7.2v-9.7
						l8.1-6.3l8.1,6.3v2.6c0,0.3,0.3,0.6,0.6,0.6c0.3,0,0.6-0.3,0.6-0.6V15.5z M13.3,20.1h0.4c0.3,0,0.6-0.3,0.6-0.6
						c0-0.3-0.3-0.6-0.6-0.6h-0.4V15h4.1v9.2h-4.1V20.1z M25.1,25.5v1.2H5.6v-1.2H25.1z M22,6.5h1.5v2.7L22,8V6.5z M15,6.9l-9.8,7.5
						l-1-1.4l11.1-8.6l11.1,8.6l-1,1.4l-9.8-7.5C15.5,6.8,15.2,6.8,15,6.9z"/>
					<path class="st5" d="M24.1,19c-0.2,0-0.3,0.1-0.4,0.2c-0.1,0.1-0.2,0.3-0.2,0.4c0,0.2,0.1,0.3,0.2,0.4c0.1,0.1,0.3,0.2,0.4,0.2
						s0.3-0.1,0.4-0.2c0.1-0.1,0.2-0.3,0.2-0.4c0-0.2-0.1-0.3-0.2-0.4C24.5,19.1,24.3,19,24.1,19z"/>
				</g>
				<g id="Group-Copy-5" transform="translate(20.000000, 0.000000)">
					<path id="Stroke-679-Copy" class="st6" d="M5.2,0c1.4,1.5,3.1,2.5,5.2,2.8c-0.3,3.8-1.4,7.6-5.2,9c-3.8-1.4-4.9-5.2-5.2-9
						C2.1,2.5,3.8,1.5,5.2,0z"/>
					<path class="st7" d="M5.5,11.1c2.4-1,4.3-4.4,4.3-8C8.8,3,7.3,2.2,6.4,1.7C6.2,1.6,4.6,4.8,4.4,6C4,8.9,5.1,11.3,5.5,11.1z"/>
					<polyline id="Stroke-680-Copy" class="st8" points="3.1,5.9 4.6,7.4 7.6,4.3 					"/>
				</g>
			</g>
		</g>
	</g>
</g>
</svg>
