<?xml version="1.0" encoding="utf-8"?>
<!-- Generator: Adobe Illustrator 23.0.4, SVG Export Plug-In . SVG Version: 6.00 Build 0)  -->
<svg version="1.1" id="Layer_1" xmlns="http://www.w3.org/2000/svg" xmlns:xlink="http://www.w3.org/1999/xlink" x="0px" y="0px"
	 width="54px" height="34px" viewBox="0 0 54 34" style="enable-background:new 0 0 54 34;" xml:space="preserve">
<style type="text/css">
	.st0{fill:#E1EFF3;}
	.st1{fill:#FFE058;}
	.st2{fill:#FFFFFF;}
	.st3{fill:#CCCCCC;}
	.st4{fill:#274B72;}
	.st5{fill-rule:evenodd;clip-rule:evenodd;fill:#FFFFFF;stroke:#274B72;stroke-width:1.2;stroke-linejoin:round;}
	.st6{fill:#BEECC0;}
	.st7{fill:none;stroke:#274B72;stroke-width:1.2;stroke-linecap:round;stroke-linejoin:round;}
</style>
<title>mini_Seguro_Auto</title>
<desc>Created with Sketch.</desc>
<g id="Page-1">
	<g id="CD_02_Mis-productos" transform="translate(-23.000000, -679.000000)">
		<g id="mini_Seguro_Auto" transform="translate(24.000000, 680.000000)">
			<g id="Group-2" transform="translate(7.000000, 1.000000)">
				<g id="car" transform="translate(0.000000, 9.000000)">
					<path id="Path" class="st0" d="M21.7,0.7H17c-2.6,0-4.8,2.1-4.8,4.8v3.8h16.3l-2.4-5.6C25.4,1.9,23.6,0.7,21.7,0.7L21.7,0.7z"
						/>
					<path class="st1" d="M31.4,9.3H12C9.8,9.3,8,11.1,8,13.4V18h27.5v-4.6C35.5,11.1,33.6,9.3,31.4,9.3z"/>
					<g id="Group" transform="translate(0.706347, 9.253150)">
						<path class="st2" d="M0,4.1v0.8h2.8V2.3H0.4C0.1,2.9,0,3.5,0,4.1z"/>
						<path class="st2" d="M29.8,2.7h4.7c-0.6-1.6-2.1-2.7-3.8-2.7h-0.9V2.7z"/>
						<path class="st2" d="M7.4,8.7c0-0.9,0.5-1.6,1.2-2c-0.3-0.2-0.7-0.3-1-0.3c-1.3,0-2.3,1-2.3,2.3c0,1.3,1,2.3,2.3,2.3
							c0.4,0,0.7-0.1,1-0.3C7.9,10.4,7.4,9.6,7.4,8.7z"/>
					</g>
					<path class="st3" d="M10.5,18c0-0.9-0.5-1.6-1.2-2c-0.7,0.4-1.2,1.1-1.2,2c0,0.9,0.5,1.6,1.2,2C10,19.6,10.5,18.9,10.5,18z"/>
					<path class="st2" d="M28.9,18c0-0.9,0.5-1.6,1.2-2c-0.3-0.2-0.7-0.3-1-0.3c-1.3,0-2.3,1-2.3,2.3c0,1.3,1,2.3,2.3,2.3
						c0.4,0,0.7-0.1,1-0.3C29.4,19.6,28.9,18.9,28.9,18L28.9,18z"/>
					<path class="st3" d="M31.3,18c0-0.9-0.5-1.6-1.2-2c-0.7,0.4-1.2,1.1-1.2,2c0,0.9,0.5,1.6,1.2,2C30.8,19.6,31.3,18.9,31.3,18z"
						/>
					<path id="Shape" class="st4" d="M31.4,8.6H29l-2.2-5.2C25.9,1.3,23.9,0,21.7,0h-3.6c-0.4,0-0.7,0.3-0.7,0.7s0.3,0.7,0.7,0.7
						h3.6c1.7,0,3.2,1,3.8,2.5l2,4.6h-9.3V3.4c0-0.4-0.3-0.7-0.7-0.7c-0.4,0-0.7,0.3-0.7,0.7v5.2H7.1V5.5c0-2.2,1.8-4.1,4.1-4.1h1.5
						c0.4,0,0.7-0.3,0.7-0.7S13,0,12.6,0h-1.5c-3,0-5.5,2.5-5.5,5.5v3.1H4.8C2.1,8.6,0,10.7,0,13.4V18c0,0.4,0.3,0.7,0.7,0.7h2.6
						C3.7,18.7,4,18.4,4,18c0-0.4-0.3-0.7-0.7-0.7H1.4v-2.4h2.1c0.4,0,0.7-0.3,0.7-0.7v-2.6c0-0.4-0.3-0.7-0.7-0.7h-1
						C3.1,10.3,3.9,10,4.8,10h25v2c0,0.4,0.3,0.7,0.7,0.7h4.2c0,0.2,0.1,0.4,0.1,0.7v3.9h-1.3c-0.4,0-0.7,0.3-0.7,0.7
						c0,0.4,0.3,0.7,0.7,0.7h2c0.4,0,0.7-0.3,0.7-0.7v-4.6C36.2,10.7,34,8.6,31.4,8.6L31.4,8.6z M2.8,13.5H1.4v-0.1
						c0-0.4,0.1-0.7,0.2-1.1h1.3V13.5z M31.2,11.3V10h0.2c1.1,0,2,0.5,2.6,1.3H31.2z"/>
					<path class="st4" d="M24,17.3c-0.2,0-0.4,0.1-0.5,0.2c-0.1,0.1-0.2,0.3-0.2,0.5c0,0.2,0.1,0.4,0.2,0.5c0.1,0.1,0.3,0.2,0.5,0.2
						c0.2,0,0.4-0.1,0.5-0.2c0.1-0.1,0.2-0.3,0.2-0.5c0-0.2-0.1-0.4-0.2-0.5C24.4,17.4,24.2,17.3,24,17.3L24,17.3z"/>
					<path class="st4" d="M21.4,17.3h-3.2v-1.7c0-0.4-0.3-0.7-0.7-0.7c-0.4,0-0.7,0.3-0.7,0.7v1.7h-3.7c-0.4,0-0.7,0.3-0.7,0.7
						s0.3,0.7,0.7,0.7h8.3c0.4,0,0.7-0.3,0.7-0.7S21.7,17.3,21.4,17.3L21.4,17.3z"/>
					<path class="st4" d="M15.4,1.4c0.2,0,0.4-0.1,0.5-0.2c0.1-0.1,0.2-0.3,0.2-0.5c0-0.2-0.1-0.4-0.2-0.5C15.8,0.1,15.6,0,15.4,0
						c-0.2,0-0.4,0.1-0.5,0.2c-0.1,0.1-0.2,0.3-0.2,0.5c0,0.2,0.1,0.4,0.2,0.5C15,1.3,15.2,1.4,15.4,1.4z"/>
					<path class="st4" d="M14.6,13.3l1.6,0c0.4,0,0.7-0.3,0.7-0.7c0-0.4-0.3-0.7-0.7-0.7c0,0,0,0,0,0l-1.6,0c-0.4,0-0.7,0.3-0.7,0.7
						C13.9,13,14.2,13.3,14.6,13.3L14.6,13.3z"/>
					<path class="st4" d="M8.3,15c-1.6,0-3,1.3-3,3c0,1.6,1.3,3,3,3c1.6,0,3-1.3,3-3C11.2,16.4,9.9,15,8.3,15z M8.3,19.6
						c-0.9,0-1.6-0.7-1.6-1.6c0-0.9,0.7-1.6,1.6-1.6c0.9,0,1.6,0.7,1.6,1.6C9.8,18.9,9.1,19.6,8.3,19.6z"/>
					<path class="st4" d="M29,15c-1.6,0-3,1.3-3,3c0,1.6,1.3,3,3,3c1.6,0,3-1.3,3-3C32,16.4,30.7,15,29,15L29,15z M29,19.6
						c-0.9,0-1.6-0.7-1.6-1.6c0-0.9,0.7-1.6,1.6-1.6c0.9,0,1.6,0.7,1.6,1.6C30.6,18.9,29.9,19.6,29,19.6L29,19.6z"/>
				</g>
				<g id="Group-Copy-2" transform="translate(26.000000, 0.000000)">
					<path id="Stroke-679-Copy" class="st5" d="M5.2,0c1.4,1.5,3.1,2.5,5.2,2.8c-0.3,3.8-1.4,7.6-5.2,9c-3.8-1.4-4.9-5.2-5.2-9
						C2.1,2.5,3.8,1.5,5.2,0z"/>
					<path class="st6" d="M5.5,11.1c2.4-1,4.3-4.4,4.3-8C8.8,3,7.3,2.2,6.4,1.7C6.2,1.6,4.6,4.8,4.4,6C4,8.9,5.1,11.3,5.5,11.1z"/>
					<polyline id="Stroke-680-Copy" class="st7" points="3.1,5.9 4.6,7.4 7.6,4.3 					"/>
				</g>
			</g>
		</g>
	</g>
</g>
</svg>
