<?xml version="1.0" encoding="utf-8"?>
<!-- Generator: Adobe Illustrator 23.0.4, SVG Export Plug-In . SVG Version: 6.00 Build 0)  -->
<svg version="1.1" id="Layer_1" xmlns="http://www.w3.org/2000/svg" xmlns:xlink="http://www.w3.org/1999/xlink" x="0px" y="0px"
	 width="54px" height="34px" viewBox="0 0 54 34" style="enable-background:new 0 0 54 34;" xml:space="preserve">
<style type="text/css">
	.st0{fill:#FEDA9B;}
	.st1{fill:#8CDFE4;}
	.st2{fill:#FF9595;}
	.st3{fill:#274B72;}
	.st4{fill:none;stroke:#274B72;stroke-linecap:round;stroke-linejoin:round;}
</style>
<title>mini_Seguro_Vida</title>
<desc>Created with Sketch.</desc>
<g id="Page-1">
	<g id="CD_02_Mis-productos" transform="translate(-23.000000, -854.000000)">
		<g id="mini_Seguro_Vida" transform="translate(24.000000, 855.000000)">
			<g id="Group-7" transform="translate(12.000000, 6.000000)">
				<g id="respect">
					<path id="Path" class="st0" d="M8.2,13.8l-1.8-2.3c-0.2-0.3-0.5-0.5-0.8-0.5L5.4,9.3l2.6-6.2c0.3-0.8,0.1-1.7-0.6-2.2
						C7.2,1.1,7,1.4,6.8,1.7l-2.5,6c-0.8,1.9-1.2,3.9-1.2,5.9v7.8h6.3v-3.8C9.5,16.2,9,14.9,8.2,13.8z"/>
					<path class="st0" d="M23.7,7.7l-2.5-6c-0.1-0.3-0.4-0.6-0.6-0.8c-0.7,0.5-0.9,1.4-0.6,2.2l2.6,6.2l-0.1,1.6
						c-0.3,0.1-0.6,0.2-0.8,0.5l-1.8,2.3c-0.9,1.1-1.3,2.5-1.3,3.9v3.8h6.3v-7.8C24.8,11.6,24.4,9.6,23.7,7.7z"/>
					<polyline class="st1" points="17.9,25.4 17.9,21.4 24.8,21.4 24.8,25.4 					"/>
					<polyline class="st1" points="10.1,25.4 10.1,21.4 3.4,21.4 3.4,25.4 					"/>
					<path class="st2" d="M16.2,5.6c-0.9,0-1.6,0.4-2.2,1c-0.3-0.3-0.6-0.6-1-0.7c-0.8,0.6-1.3,1.7-1.3,2.9c0,1.7,2.1,3.8,3.7,5.1
						c1.5-1.2,3.8-3.3,3.8-5C19.2,7,17.8,5.6,16.2,5.6z"/>
					<path class="st3" d="M27.5,20.9H19v-3.3c0-1.3,0.4-2.5,1.2-3.5l1.8-2.3c0.2-0.3,0.5-0.4,0.9-0.4c0.3,0,0.6,0.3,0.7,0.6
						c0.1,0.3,0.1,0.6-0.1,0.9l-1.9,2.9c-0.2,0.3-0.1,0.6,0.2,0.8c0.3,0.2,0.6,0.1,0.8-0.2l1.9-2.9c0.4-0.6,0.4-1.3,0.2-1.9
						c-0.3-0.7-0.9-1.2-1.6-1.3c-0.7-0.1-1.4,0.2-1.9,0.8l-1.8,2.3c-0.9,1.2-1.5,2.7-1.5,4.2v3.3c-0.3,0-0.5,0.2-0.5,0.5v4
						c0,0.3,0.2,0.5,0.5,0.5s0.5-0.2,0.5-0.5V22h8.4v3.4c0,0.3,0.2,0.5,0.5,0.5s0.5-0.2,0.5-0.5v-4C28,21.1,27.8,20.9,27.5,20.9z"/>
					<path class="st3" d="M26.9,18.5c-0.1,0-0.3,0.1-0.4,0.2c-0.1,0.1-0.2,0.2-0.2,0.4c0,0.1,0.1,0.3,0.2,0.4
						c0.1,0.1,0.2,0.2,0.4,0.2c0.1,0,0.3-0.1,0.4-0.2c0.1-0.1,0.2-0.2,0.2-0.4c0-0.1-0.1-0.3-0.2-0.4C27.2,18.6,27,18.5,26.9,18.5z"
						/>
					<path class="st3" d="M22.1,9.5c0.1,0.3,0.4,0.4,0.7,0.3c0.3-0.1,0.4-0.4,0.3-0.7l-2.6-6.2c-0.3-0.6,0-1.3,0.6-1.6
						c0.3-0.2,0.7-0.2,1-0.1s0.6,0.4,0.7,0.7l2.5,6c0.7,1.8,1.1,3.7,1.1,5.7v3.2c0,0.3,0.2,0.5,0.5,0.5s0.5-0.2,0.5-0.5v-3.2
						c0-2.1-0.4-4.2-1.2-6.1l-2.5-6c-0.3-0.6-0.8-1.1-1.4-1.3c-0.6-0.2-1.3-0.2-1.9,0.1c-1.1,0.6-1.5,1.9-1,3L22.1,9.5z"/>
					<path class="st3" d="M21,23.3c-0.2-0.2-0.5-0.2-0.8,0c-0.2,0.2-0.2,0.6,0,0.8l0,0c0.1,0.1,0.3,0.2,0.4,0.2c0.1,0,0.3,0,0.4-0.1
						C21.2,23.9,21.2,23.6,21,23.3L21,23.3z"/>
					<path class="st3" d="M10.1,20.9v-3.3c0-1.5-0.5-3-1.5-4.2l-1.8-2.3c-0.5-0.6-1.2-0.9-1.9-0.8c-0.7,0.1-1.3,0.6-1.6,1.3
						C3,12.3,3.1,13,3.5,13.6l1.9,2.9c0.2,0.3,0.5,0.3,0.8,0.2c0.3-0.2,0.3-0.5,0.2-0.8l-1.9-2.9c-0.2-0.3-0.2-0.6-0.1-0.9
						c0.1-0.3,0.4-0.5,0.7-0.6c0.3,0,0.7,0.1,0.9,0.4l1.8,2.3c0.8,1,1.2,2.2,1.2,3.5v3.3H1.6v-7.3c0-2,0.4-3.9,1.1-5.7l2.5-6
						C5.4,1.6,5.7,1.3,6,1.2s0.7-0.1,1,0.1c0.6,0.3,0.8,1,0.6,1.6L4.9,9.1c-0.1,0.3,0,0.6,0.3,0.7c0.3,0.1,0.6,0,0.7-0.3l2.6-6.2
						c0.5-1.1,0-2.4-1-3C6.9,0,6.3-0.1,5.6,0.2S4.5,0.9,4.3,1.5l-2.5,6c-0.8,1.9-1.2,4-1.2,6.1v7.3h0c-0.3,0-0.5,0.2-0.5,0.5v4
						C0,25.7,0.2,26,0.5,26s0.5-0.2,0.5-0.5V22h8.4v3.4c0,0.3,0.2,0.5,0.5,0.5s0.5-0.2,0.5-0.5v-4C10.6,21.1,10.4,20.9,10.1,20.9z"
						/>
					<path class="st3" d="M7,23.3L7,23.3c-0.2,0.2-0.2,0.6,0,0.8c0.1,0.1,0.2,0.1,0.4,0.1c0.1,0,0.3-0.1,0.4-0.2l0,0
						c0.2-0.2,0.2-0.6,0-0.8C7.5,23.1,7.2,23.1,7,23.3z"/>
					<path id="Shape" class="st3" d="M19.7,8.9c0-2.1-1.6-3.8-3.5-3.8c-0.8,0-1.6,0.3-2.2,0.8C13.4,5.3,12.6,5,11.8,5
						C9.9,5,8.3,6.7,8.3,8.9c0,1.2,0.9,2.7,2.8,4.4c1.3,1.2,2.6,2.1,2.6,2.1c0.1,0.1,0.2,0.1,0.3,0.1s0.2,0,0.3-0.1
						c0.1,0,1.3-0.9,2.6-2.1C18.8,11.6,19.7,10.1,19.7,8.9z M16.2,12.4c-0.9,0.8-1.8,1.5-2.2,1.8c-0.5-0.3-1.3-1-2.2-1.8
						C10.2,11,9.4,9.7,9.4,8.9c0-1.5,1.1-2.7,2.4-2.7c0.7,0,1.3,0.3,1.8,0.8c0.1,0.1,0.3,0.2,0.4,0.2s0.3-0.1,0.4-0.2
						c0.5-0.5,1.1-0.8,1.8-0.8c1.3,0,2.4,1.2,2.4,2.7C18.6,9.7,17.8,11,16.2,12.4z"/>
				</g>
				<polyline id="Stroke-680-Copy" class="st4" points="12,9.5 13.5,11.1 16.5,8 				"/>
			</g>
		</g>
	</g>
</g>
</svg>
