<?xml version="1.0" encoding="utf-8"?>
<!-- Generator: Adobe Illustrator 23.0.4, SVG Export Plug-In . SVG Version: 6.00 Build 0)  -->
<svg version="1.1" id="Layer_1" xmlns="http://www.w3.org/2000/svg" xmlns:xlink="http://www.w3.org/1999/xlink" x="0px" y="0px"
	 width="54px" height="34px" viewBox="0 0 54 34" style="enable-background:new 0 0 54 34;" xml:space="preserve">
<style type="text/css">
	.st0{fill:#8CDFE4;}
	.st1{fill:#E1EFF3;}
	.st2{fill:#FFFFFF;}
	.st3{fill:#FEDA9B;}
	.st4{fill:#274B72;}
	.st5{fill-rule:evenodd;clip-rule:evenodd;fill:#FFFFFF;stroke:#274B72;stroke-width:1.2;stroke-linejoin:round;}
	.st6{fill:#BEECC0;}
	.st7{fill:none;stroke:#274B72;stroke-width:1.2;stroke-linecap:round;stroke-linejoin:round;}
</style>
<title>mini_Seguro_Gadget</title>
<desc>Created with Sketch.</desc>
<g id="Page-1">
	<g id="CD_02_Mis-productos" transform="translate(-23.000000, -771.000000)">
		<g id="mini_Seguro_Gadget" transform="translate(24.000000, 772.000000)">
			<g id="Group-5" transform="translate(13.000000, 2.000000)">
				<g id="smartphone">
					<path id="Path" class="st0" d="M10.5,18.3V27c0,1.3,0.7,2.3,1.6,2.3h9c0.9,0,1.6-1,1.6-2.3v-8.6v-6.8V2.9
						c0-1.3-0.7-2.3-1.6-2.3h-9c-0.9,0-1.6,1-1.6,2.3v8.6V18.3z"/>
					<rect id="Rectangle" x="10.4" y="3.7" class="st1" width="12.2" height="22.5"/>
					<path class="st2" d="M11.6,15c0-2.4,1.5-4.4,3.7-5.1c-0.5-0.2-1.1-0.3-1.7-0.3c-3,0-5.3,2.4-5.3,5.4s2.4,5.4,5.3,5.4
						c0.6,0,1.1-0.1,1.7-0.3C13.1,19.4,11.6,17.4,11.6,15z"/>
					<path class="st2" d="M23.8,19.7l0.5-0.4v-5.2c0-0.8,0.6-1.5,1.3-1.8c-0.3-0.7-0.9-1.2-1.7-1.2l0,0c-1,0-1.8,0.8-1.8,1.8v5.2
						l-0.5,0.4c-2.3,1.6-3.6,4.2-3.6,6.9v3.9h2.1v-2.8C20.2,23.8,21.5,21.2,23.8,19.7z"/>
					<g id="Group" transform="translate(2.903698, 11.987837)">
						<path class="st3" d="M22.5,12.3c0.3-0.6,0.4-1.2,0.4-1.9V1c0-0.2,0-0.4-0.1-0.6c-0.8,0.2-1.3,0.9-1.3,1.8v5.2l-0.5,0.4
							c-2.3,1.6-3.6,4.2-3.6,6.9v2.8h3L22.5,12.3z"/>
						<path class="st3" d="M0,10.9L0,10.9c0,0.5,0.3,1,0.8,1.3l0.6,0.2c1,0.3,1.9-0.4,1.9-1.4l0,0c0-0.5-0.3-1-0.8-1.3L2,9.5
							C1,9.2,0,9.9,0,10.9z"/>
						<path class="st3" d="M0,7.8L0,7.8c0,0.5,0.3,1,0.8,1.3l0.6,0.2c1,0.3,1.9-0.4,1.9-1.4l0,0c0-0.5-0.3-1-0.8-1.3L2,6.3
							C1,6,0,6.8,0,7.8z"/>
						<path class="st3" d="M0,4.6L0,4.6c0,0.5,0.3,1,0.8,1.3l0.6,0.2c1,0.3,1.9-0.4,1.9-1.4l0,0c0-0.5-0.3-1-0.8-1.3L2,3.2
							C1,2.9,0,3.6,0,4.6z"/>
						<path class="st3" d="M0,1.5L0,1.5c0,0.5,0.3,1,0.8,1.3L1.4,3c1,0.3,1.9-0.4,1.9-1.4l0,0c0-0.5-0.3-1-0.8-1.3L2,0.1
							C1-0.2,0,0.5,0,1.5z"/>
					</g>
					<path class="st4" d="M6.6,3.2c-0.2,0-0.3,0.1-0.4,0.2C6.1,3.4,6.1,3.6,6.1,3.7S6.1,4,6.2,4.2c0.1,0.1,0.3,0.2,0.4,0.2
						c0.2,0,0.3-0.1,0.4-0.2C7.2,4,7.2,3.9,7.2,3.7S7.2,3.4,7.1,3.3C7,3.2,6.8,3.2,6.6,3.2z"/>
					<path id="Shape" class="st4" d="M24,10.6c-0.3,0-0.5,0-0.8,0.1V2.9c0-1.6-1.3-2.9-2.9-2.9H6.8C5.2,0,3.9,1.3,3.9,2.9v8.2
						l-1.2-0.4c-0.6-0.2-1.3-0.1-1.8,0.3c-0.5,0.4-0.8,1-0.8,1.7c0,0.6,0.3,1.2,0.7,1.6c-0.4,0.4-0.7,1-0.7,1.6
						c0,0.6,0.3,1.2,0.7,1.6C0.3,17.8,0,18.4,0,19c0,0.6,0.3,1.2,0.7,1.6c-0.4,0.4-0.7,1-0.7,1.6c0,0.9,0.6,1.7,1.5,2l2.4,0.8V27
						c0,1.6,1.3,2.9,2.9,2.9H18c0.3,0,0.6-0.3,0.6-0.6v-3.9c0-2.6,1.2-5,3.3-6.4l0.5-0.4c0.2-0.1,0.3-0.3,0.3-0.5V13
						c0-0.7,0.5-1.2,1.2-1.2s1.2,0.6,1.2,1.2v9.5c0,0.6-0.1,1.1-0.3,1.7l-2.2,5.1c-0.1,0.3,0,0.6,0.3,0.8c0.1,0,0.2,0,0.2,0
						c0.2,0,0.4-0.1,0.5-0.4l2.2-5.1c0.3-0.7,0.4-1.4,0.4-2.1V13C26.3,11.6,25.3,10.6,24,10.6z M1.6,12c0.2-0.1,0.3-0.2,0.5-0.2
						c0.1,0,0.2,0,0.3,0l2.7,0.8c0.4,0.1,0.6,0.5,0.6,0.9c0,0.3-0.1,0.6-0.4,0.7c-0.2,0.2-0.5,0.2-0.8,0.1l-2.7-0.8
						c-0.4-0.1-0.6-0.5-0.6-0.9C1.2,12.5,1.3,12.2,1.6,12z M1.8,19.9c-0.4-0.1-0.6-0.5-0.6-0.9c0-0.3,0.1-0.6,0.4-0.7
						c0.2-0.1,0.3-0.2,0.5-0.2c0.1,0,0.2,0,0.3,0l1.8,0.6h0L5.1,19c0.4,0.1,0.6,0.5,0.6,0.9c0,0.3-0.1,0.6-0.4,0.7
						c-0.2,0.2-0.5,0.2-0.8,0.1L4,20.5L1.8,19.9z M2.1,15c0.1,0,0.2,0,0.3,0l2.7,0.8c0.4,0.1,0.6,0.5,0.6,0.9c0,0.3-0.1,0.6-0.4,0.7
						c-0.2,0.2-0.5,0.2-0.8,0.1L4,17.4l-2.1-0.7c-0.4-0.1-0.6-0.5-0.6-0.9c0-0.3,0.1-0.6,0.4-0.7C1.7,15,1.9,15,2.1,15z M1.2,22.1
						c0-0.3,0.1-0.6,0.4-0.7c0.2-0.1,0.3-0.2,0.5-0.2c0.1,0,0.2,0,0.3,0l1.8,0.6h0l0.9,0.3c0.4,0.1,0.6,0.5,0.6,0.9
						c0,0.3-0.1,0.6-0.4,0.7c-0.2,0.2-0.5,0.2-0.8,0.1L1.8,23C1.4,22.9,1.2,22.5,1.2,22.1z M5.1,27v-0.2h12.4v2H6.8
						C5.9,28.8,5.1,28,5.1,27z M21.6,13v4.9L21.3,18c-2.4,1.7-3.8,4.4-3.8,7.4v0.2H5.1V25c0.3,0,0.7-0.2,0.9-0.4
						c0.5-0.4,0.8-1,0.8-1.7c0-0.6-0.3-1.2-0.7-1.6c0.4-0.4,0.7-1,0.7-1.6c0-0.6-0.3-1.2-0.7-1.6c0.4-0.4,0.7-1,0.7-1.6
						c0-0.6-0.3-1.2-0.7-1.6c0.4-0.4,0.7-1,0.7-1.6c0-0.9-0.6-1.7-1.5-2l-0.3-0.1V2.9c0-1,0.8-1.8,1.7-1.8h13.5c1,0,1.7,0.8,1.7,1.8
						v0.2H8.7c-0.3,0-0.6,0.3-0.6,0.6s0.3,0.6,0.6,0.6H22v7.2C21.7,11.9,21.6,12.4,21.6,13z"/>
				</g>
				<g id="Group-Copy" transform="translate(8.000000, 9.000000)">
					<path id="Stroke-679-Copy" class="st5" d="M5.2,0c1.4,1.5,3.1,2.5,5.2,2.8c-0.3,3.8-1.4,7.6-5.2,9c-3.8-1.4-4.9-5.2-5.2-9
						C2.1,2.5,3.8,1.5,5.2,0z"/>
					<path class="st6" d="M5.5,11.1c2.4-1,4.3-4.4,4.3-8C8.8,3,7.3,2.2,6.4,1.7C6.2,1.6,4.6,4.8,4.4,6C4,8.9,5.1,11.3,5.5,11.1z"/>
					<polyline id="Stroke-680-Copy" class="st7" points="3.1,5.9 4.6,7.4 7.6,4.3 					"/>
				</g>
			</g>
		</g>
	</g>
</g>
</svg>
