<svg xmlns="http://www.w3.org/2000/svg" width="64" height="44" viewBox="0 0 64 44">
  <g fill="none" fill-rule="evenodd">
    <rect width="64" height="44" fill="#5BC500" rx="2"/>
    <path fill="#FFF" fill-rule="nonzero" d="M16.335,17.99 L16.795,25 L15.635,25 L15.475,22.24 C15.425,21.42 15.395,20.59 15.385,19.75 C15.075,20.78 14.695,21.85 14.345,22.78 L13.525,25 L12.595,25 L11.765,22.73 C11.385,21.73 11.045,20.74 10.765,19.82 C10.755,20.64 10.705,21.57 10.655,22.4 L10.505,25 L9.365,25 L9.825,18.15 C10.225,18.04 10.845,17.99 11.265,17.99 L13.095,23.39 L14.855,18.15 C15.285,18.02 15.895,17.99 16.335,17.99 Z M20.985,25.17 C18.935,25.17 17.865,23.72 17.865,21.54 C17.865,19.32 19.005,17.91 20.955,17.91 C23.015,17.91 24.075,19.38 24.075,21.54 C24.075,23.81 22.935,25.17 20.985,25.17 Z M20.985,24.11 C22.205,24.11 22.835,23.25 22.835,21.54 C22.835,19.88 22.185,18.96 20.955,18.96 C19.745,18.96 19.105,19.87 19.105,21.54 C19.105,23.2 19.765,24.11 20.985,24.11 Z M29.065,18.08 L30.265,18.08 L28.115,25 L26.755,25 L24.595,18.08 L25.895,18.08 L27.455,23.79 L29.065,18.08 Z M31.185,25 L31.185,18.15 C31.485,18.07 31.995,17.99 32.375,17.99 L32.375,25 L31.185,25 Z M35.465,25.17 C34.775,25.17 34.045,25.02 33.605,24.76 C33.615,24.36 33.645,24.09 33.735,23.75 C34.255,24.02 34.925,24.16 35.475,24.16 C36.315,24.16 36.835,23.82 36.835,23.2 C36.835,22.59 36.455,22.37 35.665,22.05 L35.095,21.82 C34.215,21.47 33.595,20.91 33.595,19.83 C33.595,18.7 34.335,17.91 36.035,17.91 C36.645,17.91 37.265,18.01 37.805,18.22 C37.775,18.63 37.725,18.87 37.635,19.21 C37.105,19.01 36.515,18.92 36.085,18.92 C35.165,18.92 34.825,19.32 34.825,19.8 C34.825,20.41 35.135,20.62 35.835,20.88 L36.425,21.11 C37.255,21.43 38.065,21.95 38.065,23.13 C38.065,24.29 37.205,25.17 35.465,25.17 Z M43.535,18.08 C43.525,18.39 43.475,18.84 43.425,19.13 L41.595,19.13 L41.595,25 L40.385,25 L40.385,19.13 L38.455,19.13 C38.465,18.82 38.505,18.37 38.565,18.08 L43.535,18.08 Z M48.255,25 L47.815,23.46 L45.305,23.46 L44.845,25 L43.675,25 L45.815,18.18 C46.175,18.08 46.805,18.03 47.315,18.03 L49.505,25 L48.255,25 Z M45.605,22.44 L47.525,22.44 L46.585,19.16 L45.605,22.44 Z M53.785,24.99 L52.415,22.39 L51.615,22.39 L51.615,25 L50.425,25 L50.425,18.12 C50.915,18 51.545,17.92 52.275,17.92 C54.225,17.92 54.925,19.03 54.925,20.11 C54.925,21.16 54.355,21.83 53.535,22.17 L55.145,24.99 L53.785,24.99 Z M51.615,21.39 L52.275,21.39 C53.165,21.39 53.685,21.05 53.685,20.17 C53.685,19.37 53.215,18.92 52.265,18.92 C52.055,18.92 51.835,18.93 51.615,18.95 L51.615,21.39 Z"/>
  </g>
</svg>
