<svg xmlns="http://www.w3.org/2000/svg" width="64" height="44" viewBox="0 0 64 44">
  <g fill="none" fill-rule="evenodd">
    <rect width="64" height="44" fill="#E57200" rx="2"/>
    <path fill="#FFF" fill-rule="nonzero" d="M15.7,18.15 C16.01,18.07 16.42,17.99 16.84,17.99 L16.84,25 L15.81,25 L13.41,21.05 C13.18,20.68 12.96,20.28 12.78,19.88 C12.8,20.69 12.81,21.63 12.81,22.44 L12.81,25 L11.68,25 L11.68,18.15 C11.99,18.06 12.44,17.99 12.8,17.99 L15.13,21.73 C15.33,22.06 15.55,22.49 15.76,22.92 C15.73,22.07 15.7,21.09 15.7,20.15 L15.7,18.15 Z M22.33,25 L21.89,23.46 L19.38,23.46 L18.92,25 L17.75,25 L19.89,18.18 C20.25,18.08 20.88,18.03 21.39,18.03 L23.58,25 L22.33,25 Z M19.68,22.44 L21.6,22.44 L20.66,19.16 L19.68,22.44 Z M28.8,18.08 C28.79,18.39 28.74,18.84 28.69,19.13 L26.86,19.13 L26.86,25 L25.65,25 L25.65,19.13 L23.72,19.13 C23.73,18.82 23.77,18.37 23.83,18.08 L28.8,18.08 Z M32.18,25.17 C30.57,25.17 29.58,24.21 29.58,22.74 L29.58,18.15 C29.89,18.07 30.38,17.99 30.77,17.99 L30.77,22.69 C30.77,23.66 31.32,24.12 32.19,24.12 C33.05,24.12 33.61,23.68 33.61,22.68 L33.61,18.15 C33.91,18.07 34.42,17.99 34.8,17.99 L34.8,22.74 C34.8,24.21 33.78,25.17 32.18,25.17 Z M39.72,24.99 L38.35,22.39 L37.55,22.39 L37.55,25 L36.36,25 L36.36,18.12 C36.85,18 37.48,17.92 38.21,17.92 C40.16,17.92 40.86,19.03 40.86,20.11 C40.86,21.16 40.29,21.83 39.47,22.17 L41.08,24.99 L39.72,24.99 Z M37.55,21.39 L38.21,21.39 C39.1,21.39 39.62,21.05 39.62,20.17 C39.62,19.37 39.15,18.92 38.2,18.92 C37.99,18.92 37.77,18.93 37.55,18.95 L37.55,21.39 Z M45.83,21.36 L47.04,21.36 L47.04,24.79 C46.51,25.03 45.7,25.16 45,25.16 C42.8,25.16 41.64,23.7 41.64,21.53 C41.64,19.27 42.86,17.91 45.18,17.91 C45.9,17.91 46.53,18.01 47.01,18.19 C46.98,18.54 46.91,18.89 46.81,19.24 C46.3,19.06 45.78,18.96 45.18,18.96 C43.71,18.96 42.88,19.89 42.88,21.51 C42.88,23.18 43.68,24.11 45.07,24.11 C45.31,24.11 45.58,24.08 45.83,24.04 L45.83,21.36 Z M53.26,18.08 L51.04,22.16 L51.04,25 L49.83,25 L49.83,22.16 L47.6,18.08 L48.91,18.08 L50.46,21.12 L52.01,18.08 L53.26,18.08 Z"/>
  </g>
</svg>
