<svg xmlns="http://www.w3.org/2000/svg" width="64" height="44" viewBox="0 0 64 44">
  <g fill="none" fill-rule="evenodd">
    <rect width="64" height="44" fill="#000" rx="2"/>
    <path fill="#FFF" fill-rule="nonzero" d="M12.885,25.17 C10.835,25.17 9.765,23.72 9.765,21.54 C9.765,19.32 10.905,17.91 12.855,17.91 C14.915,17.91 15.975,19.38 15.975,21.54 C15.975,23.81 14.835,25.17 12.885,25.17 Z M12.885,24.11 C14.105,24.11 14.735,23.25 14.735,21.54 C14.735,19.88 14.085,18.96 12.855,18.96 C11.645,18.96 11.005,19.87 11.005,21.54 C11.005,23.2 11.665,24.11 12.885,24.11 Z M20.595,24.99 L19.225,22.39 L18.425,22.39 L18.425,25 L17.235,25 L17.235,18.12 C17.725,18 18.355,17.92 19.085,17.92 C21.035,17.92 21.735,19.03 21.735,20.11 C21.735,21.16 21.165,21.83 20.345,22.17 L21.955,24.99 L20.595,24.99 Z M18.425,21.39 L19.085,21.39 C19.975,21.39 20.495,21.05 20.495,20.17 C20.495,19.37 20.025,18.92 19.075,18.92 C18.865,18.92 18.645,18.93 18.425,18.95 L18.425,21.39 Z M22.915,25 L22.915,18.15 C23.215,18.07 23.725,17.99 24.105,17.99 L24.105,25 L22.915,25 Z M29.675,19.12 L26.955,19.12 L26.955,21 L29.545,21 C29.535,21.3 29.495,21.76 29.435,22.06 L26.955,22.06 L26.955,25 L25.765,25 L25.765,18.08 L29.785,18.08 C29.785,18.41 29.735,18.82 29.675,19.12 Z M30.845,25 L30.845,18.15 C31.145,18.07 31.655,17.99 32.035,17.99 L32.035,23.95 L34.545,23.95 C34.545,24.25 34.495,24.68 34.445,25 L30.845,25 Z M39.265,25 L38.825,23.46 L36.315,23.46 L35.855,25 L34.685,25 L36.825,18.18 C37.185,18.08 37.815,18.03 38.325,18.03 L40.515,25 L39.265,25 Z M36.615,22.44 L38.535,22.44 L37.595,19.16 L36.615,22.44 Z M48.215,17.99 L48.675,25 L47.515,25 L47.355,22.24 C47.305,21.42 47.275,20.59 47.265,19.75 C46.955,20.78 46.575,21.85 46.225,22.78 L45.405,25 L44.475,25 L43.645,22.73 C43.265,21.73 42.925,20.74 42.645,19.82 C42.635,20.64 42.585,21.57 42.535,22.4 L42.385,25 L41.245,25 L41.705,18.15 C42.105,18.04 42.725,17.99 43.145,17.99 L44.975,23.39 L46.735,18.15 C47.165,18.02 47.775,17.99 48.215,17.99 Z M51.335,22.03 L51.335,23.96 L54.265,23.96 C54.255,24.27 54.215,24.71 54.155,25 L50.145,25 L50.145,18.08 L54.285,18.08 C54.275,18.39 54.235,18.84 54.175,19.12 L51.335,19.12 L51.335,20.99 L53.955,20.99 C53.955,21.31 53.905,21.74 53.845,22.03 L51.335,22.03 Z"/>
  </g>
</svg>
