<svg xmlns="http://www.w3.org/2000/svg" width="64" height="44" viewBox="0 0 64 44">
  <g fill="none" fill-rule="evenodd">
    <rect width="64" height="44" fill="#FFC72C" rx="2"/>
    <path fill="#FFF" fill-rule="nonzero" d="M28.445,17.91 C30.545,17.91 31.225,19.01 31.225,20.24 C31.225,21.69 30.275,22.68 28.525,22.68 L27.745,22.68 L27.745,25 L26.555,25 L26.555,18.08 C27.045,17.99 27.825,17.91 28.445,17.91 Z M28.525,21.68 C29.525,21.66 29.985,21.12 29.985,20.29 C29.985,19.45 29.565,18.92 28.465,18.92 C28.275,18.92 28.005,18.93 27.745,18.96 L27.745,21.69 L28.525,21.68 Z M36.245,18.15 C36.545,18.07 37.055,17.99 37.445,17.99 L37.445,25 L36.245,25 L36.245,22.01 L33.435,22.01 L33.435,25 L32.245,25 L32.245,18.15 C32.545,18.07 33.055,17.99 33.435,17.99 L33.435,20.94 L36.245,20.94 L36.245,18.15 Z"/>
  </g>
</svg>
