<svg xmlns="http://www.w3.org/2000/svg" width="38" height="38" viewBox="0 0 38 38">
    <path fill-rule="evenodd" d="M34.042 7.917c.437 0 .791.381.791.852v20.462c0 .471-.354.852-.791.852H3.958c-.437 0-.791-.381-.791-.852V8.769c0-.471.354-.852.791-.852zm-6.254 1.705H10.212c-.362 3.073-2.608 5.492-5.462 5.882v6.992c2.854.39 5.1 2.81 5.462 5.882h17.576c.362-3.073 2.608-5.492 5.462-5.882v-6.992c-2.854-.39-5.1-2.81-5.462-5.882zM4.75 24.202v4.176h3.878c-.335-2.135-1.895-3.815-3.878-4.176zm28.5 0c-1.983.361-3.543 2.04-3.878 4.176h3.878zM18.98 10.518c.437 0 .792.381.792.852v1.048c1.465.272 2.62 1.008 2.678 1.047.374.244.491.768.264 1.169-.226.403-.713.533-1.085.288-.016-.01-1.412-.906-2.88-.906-1.113 0-2.238.537-2.238 1.564 0 1.156 1.193 1.755 3.013 2.537 1.768.758 3.77 1.617 3.77 3.774 0 1.513-.958 3.105-3.522 3.393v1.044c0 .47-.355.852-.792.852-.438 0-.792-.381-.792-.852v-1.03c-2.105-.211-3.105-1.247-3.222-1.377-.302-.341-.29-.88.025-1.206.315-.326.816-.311 1.12.025.025.028.873.898 2.83.898 1.035 0 2.77-.227 2.77-1.747 0-.931-1.098-1.471-2.773-2.19-1.787-.768-4.01-1.723-4.01-4.121 0-1.728 1.344-3.011 3.26-3.225v-.985c0-.471.354-.852.792-.852zm14.27-.896h-3.878c.335 2.135 1.895 3.815 3.878 4.176V9.622zm-24.622 0H4.75v4.176c1.983-.361 3.543-2.04 3.878-4.176z"/>
</svg>
