<svg xmlns="http://www.w3.org/2000/svg" width="64" height="44" viewBox="0 0 64 44">
  <defs>
    <linearGradient id="santander-a" x1="50%" x2="50%" y1="0%" y2="100%">
      <stop offset="0%" stop-color="#EC0000"/>
      <stop offset="100%" stop-color="#CC0202"/>
    </linearGradient>
  </defs>
  <g fill="none" fill-rule="evenodd">
    <rect width="64" height="44" fill="#770101" rx="4"/>
    <rect width="61" height="44" x="3" fill="url(#santander-a)" rx="4"/>
    <path fill="#FFF" d="M55.5586012,10.4125638 C55.5367265,9.90806721 55.3953749,9.40758781 55.1338598,8.95521636 L52.8273078,4.96470638 C52.6514276,4.66047996 52.5298907,4.33430613 52.462501,4 L52.3660759,4.16666317 C51.7951763,5.15439473 51.7951763,6.37120242 52.3659778,7.35893398 L54.2112978,10.5513028 C54.7820993,11.5390343 54.7820993,12.75594 54.2112978,13.7435736 L54.1148727,13.9103347 C54.0473849,13.5759306 53.925848,13.2498548 53.7499678,12.9456284 L52.0607133,10.0229972 L50.9820858,8.15697719 C50.8062056,7.85275078 50.6847668,7.52657695 50.6171809,7.19227082 L50.5208539,7.35903196 C49.9519162,8.34333424 49.9501505,9.55534093 50.5152626,10.5412109 L50.5150664,10.5413089 L52.3660759,13.7435736 C52.9369754,14.7313052 52.9369754,15.9482108 52.3660759,16.9359424 L52.2696507,17.1027035 C52.2021629,16.7682994 52.0806261,16.4422236 51.9047458,16.1378992 L49.598292,12.1474872 C49.2889076,11.612225 49.147556,11.009749 49.1734524,10.4129557 C46.7042627,11.057269 45,12.4254551 45,14.009588 C45,16.2134414 48.2978769,18 52.3660759,18 C56.4341767,18 59.7320536,16.2134414 59.7320536,14.009588 C59.7320536,12.4254551 58.0279871,11.0568771 55.5586012,10.4125638"/>
    <g transform="translate(8 14)">
      <path fill="#FDCA6C" d="M0.88,0 L4.86111111,0 L4.86111111,0 L4.86111111,7 L0.88,7 C0.39398942,7 2.81563735e-16,6.60601058 0,6.12 L0,0.88 C-2.81563735e-16,0.39398942 0.39398942,-2.43788212e-16 0.88,0 Z"/>
      <path fill="#F7AF3C" d="M5.74111111,0 L7,0 L7,0 L7,7 L5.74111111,7 C5.25510053,7 4.86111111,6.60601058 4.86111111,6.12 L4.86111111,0.88 C4.86111111,0.39398942 5.25510053,-2.43788212e-16 5.74111111,0 Z" transform="matrix(-1 0 0 1 11.861 0)"/>
    </g>
    <rect width="62" height="4" x="2" y="34" fill="#770101" opacity=".5"/>
  </g>
</svg>
