<svg xmlns="http://www.w3.org/2000/svg" width="64" height="44" viewBox="0 0 64 44">
  <g fill="none" fill-rule="evenodd">
    <rect width="64" height="44" fill="#289DCC" rx="2"/>
    <path fill="#FFF" fill-rule="nonzero" d="M20.02,17.17 C19.33,17.17 18.6,17.02 18.16,16.76 C18.17,16.36 18.2,16.09 18.29,15.75 C18.81,16.02 19.48,16.16 20.03,16.16 C20.87,16.16 21.39,15.82 21.39,15.2 C21.39,14.59 21.01,14.37 20.22,14.05 L19.65,13.82 C18.77,13.47 18.15,12.91 18.15,11.83 C18.15,10.7 18.89,9.91 20.59,9.91 C21.2,9.91 21.82,10.01 22.36,10.22 C22.33,10.63 22.28,10.87 22.19,11.21 C21.66,11.01 21.07,10.92 20.64,10.92 C19.72,10.92 19.38,11.32 19.38,11.8 C19.38,12.41 19.69,12.62 20.39,12.88 L20.98,13.11 C21.81,13.43 22.62,13.95 22.62,15.13 C22.62,16.29 21.76,17.17 20.02,17.17 Z M27.63,17 L27.19,15.46 L24.68,15.46 L24.22,17 L23.05,17 L25.19,10.18 C25.55,10.08 26.18,10.03 26.69,10.03 L28.88,17 L27.63,17 Z M24.98,14.44 L26.9,14.44 L25.96,11.16 L24.98,14.44 Z M31.69,9.91 C33.79,9.91 34.47,11.01 34.47,12.24 C34.47,13.69 33.52,14.68 31.77,14.68 L30.99,14.68 L30.99,17 L29.8,17 L29.8,10.08 C30.29,9.99 31.07,9.91 31.69,9.91 Z M31.77,13.68 C32.77,13.66 33.23,13.12 33.23,12.29 C33.23,11.45 32.81,10.92 31.71,10.92 C31.52,10.92 31.25,10.93 30.99,10.96 L30.99,13.69 L31.77,13.68 Z M39.33,17 L38.89,15.46 L36.38,15.46 L35.92,17 L34.75,17 L36.89,10.18 C37.25,10.08 37.88,10.03 38.39,10.03 L40.58,17 L39.33,17 Z M36.68,14.44 L38.6,14.44 L37.66,11.16 L36.68,14.44 Z M44.35,17.17 C42.24,17.17 41.1,15.67 41.1,13.53 C41.1,11.36 42.29,9.91 44.38,9.91 C45.04,9.91 45.58,10.03 45.95,10.22 C45.93,10.66 45.88,10.98 45.78,11.25 C45.44,11.07 44.95,10.96 44.46,10.96 C43.12,10.96 42.34,11.85 42.34,13.54 C42.34,15.22 43.2,16.11 44.45,16.11 C45.03,16.11 45.54,15.99 45.92,15.79 C45.89,16.15 45.84,16.52 45.74,16.95 C45.3,17.09 44.85,17.17 44.35,17.17 Z M27.735,29.36 L28.945,29.36 L28.945,32.79 C28.415,33.03 27.605,33.16 26.905,33.16 C24.705,33.16 23.545,31.7 23.545,29.53 C23.545,27.27 24.765,25.91 27.085,25.91 C27.805,25.91 28.435,26.01 28.915,26.19 C28.885,26.54 28.815,26.89 28.715,27.24 C28.205,27.06 27.685,26.96 27.085,26.96 C25.615,26.96 24.785,27.89 24.785,29.51 C24.785,31.18 25.585,32.11 26.975,32.11 C27.215,32.11 27.485,32.08 27.735,32.04 L27.735,29.36 Z M32.415,25.91 C34.955,25.91 35.875,27.46 35.875,29.48 C35.875,31.65 34.775,33 32.485,33 L30.445,33 L30.445,26.09 C30.975,25.97 31.595,25.91 32.415,25.91 Z M32.515,31.96 C33.975,31.96 34.625,31.13 34.625,29.47 C34.625,27.88 33.985,26.95 32.415,26.95 C32.165,26.95 31.895,26.96 31.635,26.99 L31.635,31.96 L32.515,31.96 Z M37.135,33 L37.135,26.15 C37.435,26.07 37.945,25.99 38.325,25.99 L38.325,31.95 L40.835,31.95 C40.835,32.25 40.785,32.68 40.735,33 L37.135,33 Z"/>
  </g>
</svg>
