<?xml version="1.0" encoding="UTF-8"?>
<svg width="266px" height="165px" viewBox="0 0 266 165" version="1.1" xmlns="http://www.w3.org/2000/svg" xmlns:xlink="http://www.w3.org/1999/xlink">
    <!-- Generator: Sketch 56 (81588) - https://sketch.com -->
    <title>card_Seguro_Auto</title>
    <desc>Created with Sketch.</desc>
    <g id="Page-1" stroke="none" stroke-width="1" fill="none" fill-rule="evenodd">
        <g id="card_Seguro_Auto">
            <rect id="Rectangle-Copy-6" stroke="#FFFFFF" fill="#EFF1F1" x="0.5" y="0.5" width="265" height="164" rx="8"></rect>
            <g id="mini_Seguro_Auto-Copy" transform="translate(109.000000, 28.000000)">
                <g id="Group-2" transform="translate(0.750000, 0.250000)">
                    <g id="car" transform="translate(0.000000, 11.250000)" fill-rule="nonzero">
                        <path d="M27.0864195,0.882934155 L21.265607,0.882934155 C17.9618468,0.882934155 15.2837281,3.56105277 15.2837281,6.86481306 L15.2837281,11.640935 L35.696752,11.640935 L32.7099513,4.60470858 C31.7518298,2.34839789 29.5379414,0.882934155 27.0864195,0.882934155 L27.0864195,0.882934155 Z" id="Path" fill="#E1EFF3"></path>
                        <path d="M39.2488375,11.6405901 L15.0222969,11.6405901 C12.2196708,11.6405901 9.94749484,13.912421 9.94749484,16.7150472 L9.94749484,22.4999904 L44.3232946,22.4999904 L44.3232946,16.7150472 C44.3232946,13.912766 42.0514636,11.6405901 39.2488375,11.6405901 Z" id="Path" fill="#FFE058"></path>
                        <g id="Group" transform="translate(0.882934, 11.566437)" fill="#FFFFFF">
                            <path d="M0,5.14860979 L0,6.16398407 L3.55518956,6.16398407 L3.55518956,2.91609701 L0.517344232,2.91609701 C0.186243923,3.58967918 0,4.347416 0,5.14860979 Z" id="Path"></path>
                            <path d="M37.2501643,3.42343927 L43.1389212,3.42343927 C42.4329188,1.47029233 40.5625469,0.0741526953 38.3659033,0.0741526953 L37.2501643,0.0741526953 L37.2501643,3.42343927 Z" id="Path"></path>
                            <path d="M9.22390275,10.9245857 C9.22390275,9.83023024 9.84368112,8.88142089 10.7514478,8.40822337 C10.3593009,8.20369988 9.91403994,8.0874699 9.44153225,8.0874699 C7.874669,8.0874699 6.60441644,9.35772246 6.60441644,10.9245857 C6.60441644,12.4917938 7.874669,13.7620464 9.44153225,13.7620464 C9.91438481,13.7620464 10.3593009,13.6458163 10.7514478,13.4412929 C9.84368112,12.9680954 9.22390275,12.0192861 9.22390275,10.9245857 Z" id="Path"></path>
                        </g>
                        <path d="M13.161927,22.4910231 C13.161927,21.3966677 12.5418038,20.4478583 11.634382,19.9746608 C10.7266153,20.4478583 10.1068369,21.3970125 10.1068369,22.4910231 C10.1068369,23.5853786 10.7266153,24.5345328 11.634382,25.0077304 C12.5418038,24.5345328 13.161927,23.5857235 13.161927,22.4910231 Z" id="Path" fill="#CCCCCC"></path>
                        <path d="M36.0878642,22.4910231 C36.0878642,21.3966677 36.7076426,20.4478583 37.6154093,19.9746608 C37.2236073,19.7701373 36.7783463,19.6539073 36.3058385,19.6539073 C34.7386304,19.6539073 33.4683779,20.9241599 33.4683779,22.4910231 C33.4683779,24.0582313 34.7386304,25.3284838 36.3058385,25.3284838 C36.7783463,25.3284838 37.2236073,25.2122538 37.6154093,25.0077304 C36.7076426,24.5345328 36.0878642,23.5857235 36.0878642,22.4910231 L36.0878642,22.4910231 Z" id="Path" fill="#FFFFFF"></path>
                        <path d="M39.1429544,22.4910231 C39.1429544,21.3966677 38.5228311,20.4478583 37.6154093,19.9746608 C36.7076426,20.4478583 36.0878642,21.3970125 36.0878642,22.4910231 C36.0878642,23.5853786 36.7076426,24.5345328 37.6154093,25.0077304 C38.5228311,24.5345328 39.1429544,23.5857235 39.1429544,22.4910231 Z" id="Path" fill="#CCCCCC"></path>
                        <path d="M39.2488375,10.757656 L36.281006,10.757656 L33.5225266,4.25946755 C32.4240324,1.67205656 29.8976681,0 27.0864195,0 L22.5893185,0 C22.1019803,0 21.7063844,0.395250949 21.7063844,0.882934155 C21.7063844,1.37061736 22.1019803,1.76586831 22.5893185,1.76586831 L27.0864195,1.76586831 C29.1875269,1.76586831 31.0758333,3.0154271 31.8970311,4.94994961 L34.3626937,10.757656 L22.7265872,10.757656 L22.7265872,4.29292246 C22.7265872,3.80523925 22.3309913,3.4099883 21.8436531,3.4099883 C21.3559699,3.4099883 20.9607189,3.80523925 20.9607189,4.29292246 L20.9607189,10.757656 L8.87314339,10.757656 L8.87314339,6.86481306 C8.87314339,4.05321961 11.1604947,1.76586831 13.9720881,1.76586831 L15.7917602,1.76586831 C16.2794434,1.76586831 16.6746944,1.37061736 16.6746944,0.882934155 C16.6746944,0.395250949 16.2794434,0 15.7917602,0 L13.9720881,0 C10.1868528,0 7.10727508,3.07957774 7.10727508,6.86481306 L7.10727508,10.757656 L5.95739125,10.757656 C2.67260028,10.757656 1.13686838e-13,13.4302563 1.13686838e-13,16.7150472 L1.13686838e-13,22.5 C1.13686838e-13,22.9876736 0.395250949,23.3829246 0.882934155,23.3829246 L4.14979053,23.3829246 C4.63747374,23.3829246 5.03272469,22.9876736 5.03272469,22.5 C5.03272469,22.0126522 4.63747374,21.6170562 4.14979053,21.6170562 L1.76586831,21.6170562 L1.76586831,18.6133557 L4.43812371,18.6133557 C4.92580683,18.6133557 5.32105787,18.2181047 5.32105787,17.7304215 L5.32105787,14.4825344 C5.32105787,13.9948512 4.92580683,13.5996003 4.43812371,13.5996003 L3.15717935,13.5996003 C3.90008571,12.9311915 4.88166013,12.5238692 5.95739125,12.5238692 L37.2501643,12.5238692 L37.2501643,14.9898767 C37.2501643,15.4775598 37.6457602,15.8728109 38.1330984,15.8728109 L43.3551711,15.8728109 C43.4110443,16.1449339 43.4403604,16.426714 43.4403604,16.7153921 L43.4403604,21.6174012 L41.7727875,21.6174012 C41.2854493,21.6174012 40.8898534,22.0126522 40.8898534,22.5003354 C40.8898534,22.9876736 41.2854493,23.3832695 41.7727875,23.3832695 L44.3232946,23.3832695 C44.8109778,23.3832695 45.2062288,22.9876736 45.2062288,22.5003354 L45.2062288,16.7153921 C45.2062288,13.4302563 42.5336285,10.757656 39.2488375,10.757656 L39.2488375,10.757656 Z M3.55518956,16.8474874 L1.76586831,16.8474874 L1.76586831,16.7150472 C1.76586831,16.2428844 1.84553934,15.7893459 1.99005077,15.3654686 L3.55518956,15.3654686 L3.55518956,16.8474874 Z M39.0163774,14.1069426 L39.0163774,12.5235243 L39.2488375,12.5235243 C40.5746183,12.5235243 41.757957,13.1429578 42.5263857,14.1069426 L39.0163774,14.1069426 Z" id="Shape" fill="#274B72"></path>
                        <path d="M30.0197613,21.6170562 C29.7876462,21.6170562 29.5596698,21.7115578 29.3954993,21.8757284 C29.2313286,22.039899 29.1368271,22.2678753 29.1368271,22.4999904 C29.1368271,22.7324505 29.2313286,22.9600819 29.3954993,23.1242525 C29.5596698,23.2884231 29.7876462,23.3829246 30.0197613,23.3829246 C30.2518764,23.3829246 30.4798528,23.2884231 30.6440233,23.1242525 C30.8081939,22.9600819 30.9026954,22.7324505 30.9026954,22.4999904 C30.9026954,22.2678753 30.8081939,22.039899 30.6440233,21.8757284 C30.4798528,21.7115578 30.2518764,21.6170562 30.0197613,21.6170562 L30.0197613,21.6170562 Z" id="Path" fill="#274B72"></path>
                        <path d="M26.6939276,21.6170562 L22.7265872,21.6170562 L22.7265872,19.5052571 C22.7265872,19.0179188 22.3309913,18.6223229 21.8436531,18.6223229 C21.3559699,18.6223229 20.9607189,19.0179188 20.9607189,19.5052571 L20.9607189,21.6170562 L16.3342819,21.6170562 C15.8465987,21.6170562 15.4513477,22.0123073 15.4513477,22.4999904 C15.4513477,22.9876736 15.8465987,23.3829246 16.3342819,23.3829246 L26.6939276,23.3829246 C27.1816108,23.3829246 27.5768618,22.9876736 27.5768618,22.4999904 C27.5768618,22.0123073 27.1816108,21.6170562 26.6939276,21.6170562 L26.6939276,21.6170562 Z" id="Path" fill="#274B72"></path>
                        <path d="M19.2283055,1.76621318 C19.4607655,1.76621318 19.6877072,1.67171168 19.8525675,1.50719615 C20.0170831,1.34337054 20.1112397,1.11539412 20.1112397,0.883279029 C20.1112397,0.650129229 20.0170831,0.423187604 19.8525675,0.259017034 C19.688397,0.0948464645 19.4607655,0.000344896154 19.2283055,0.000344896154 C18.9955006,0.000344896154 18.7685589,0.0945015022 18.6043884,0.259017034 C18.4402177,0.423187604 18.3453714,0.650129229 18.3453714,0.883279029 C18.3453714,1.11539412 18.4398729,1.34337054 18.6043884,1.50719615 C18.7685589,1.67171168 18.9955006,1.76621318 19.2283055,1.76621318 Z" id="Path" fill="#274B72"></path>
                        <path d="M18.2443167,16.6508966 L20.2250554,16.6377905 C20.7127386,16.6343416 21.1055752,16.2363314 21.1021488,15.7486482 C21.0990223,15.2630345 20.7041162,14.8719222 20.219537,14.8719222 C20.2174677,14.8719222 20.2153983,14.8719222 20.2133289,14.8719222 L18.2325903,14.8850283 C17.7449071,14.8881323 17.3524153,15.2861424 17.3555011,15.7738256 C17.3589684,16.2594394 17.7535296,16.6508966 18.2384535,16.6508966 L18.2443167,16.6508966 Z" id="Path" fill="#274B72"></path>
                        <path d="M10.3244664,18.7709732 C8.27336895,18.7709732 6.60441644,20.4399257 6.60441644,22.4910231 C6.60441644,24.5424655 8.27336895,26.211418 10.3244664,26.211418 C12.3759087,26.211418 14.0448612,24.5424655 14.0448612,22.4910231 C14.0448612,20.4399257 12.3759087,18.7709732 10.3244664,18.7709732 Z M10.3244664,24.4455497 C9.24701082,24.4455497 8.37028475,23.5688236 8.37028475,22.4910231 C8.37028475,21.4135676 9.24701082,20.5368415 10.3244664,20.5368415 C11.4022669,20.5368415 12.2789928,21.4135676 12.2789928,22.4910231 C12.2789928,23.5688236 11.4022669,24.4455497 10.3244664,24.4455497 Z" id="Shape" fill="#274B72"></path>
                        <path d="M36.3054937,18.7709732 C34.2543963,18.7709732 32.5854438,20.4399257 32.5854438,22.4910231 C32.5854438,24.5424655 34.2543963,26.211418 36.3054937,26.211418 C38.356936,26.211418 40.0258885,24.5424655 40.0258885,22.4910231 C40.0258885,20.4399257 38.356936,18.7709732 36.3054937,18.7709732 L36.3054937,18.7709732 Z M36.3054937,24.4455497 C35.2280381,24.4455497 34.3513121,23.5688236 34.3513121,22.4910231 C34.3513121,21.4135676 35.2280381,20.5368415 36.3054937,20.5368415 C37.3832942,20.5368415 38.2600202,21.4135676 38.2600202,22.4910231 C38.2600202,23.5688236 37.3832942,24.4455497 36.3054937,24.4455497 L36.3054937,24.4455497 Z" id="Shape" fill="#274B72"></path>
                    </g>
                    <g id="Group-Copy-2" transform="translate(32.500000, 0.000000)">
                        <path d="M6.49350649,-1.42108547e-14 C8.1982684,1.88038415 10.3199134,3.10040816 12.987013,3.45738295 C12.5987013,8.15769508 11.287013,12.9664826 6.49350649,14.6938776 C1.7,12.9664826 0.388311688,8.15769508 0,3.45738295 C2.66709957,3.10040816 4.78874459,1.88038415 6.49350649,-1.42108547e-14 Z" id="Stroke-679-Copy" stroke="#274B72" stroke-width="1.5" fill="#FFFFFF" stroke-linejoin="round"></path>
                        <path d="M10.8179001,13.8858329 C7.81283415,12.6341248 5.39507902,8.43856812 5.39507902,3.94809169 C6.79676209,3.76265738 8.57642507,2.75709569 9.69546354,2.1295166 C9.97734279,1.9714331 12.0456339,6.00330564 12.2414513,7.4472925 C12.7474397,11.1785258 11.4310579,14.1412332 10.8179001,13.8858329 Z" id="Stroke-679-Copy" fill="#BEECC0" fill-rule="nonzero" transform="translate(8.874937, 8.013094) scale(-1, 1) translate(-8.874937, -8.013094) "></path>
                        <polyline id="Stroke-680-Copy" stroke="#274B72" stroke-width="1.5" stroke-linecap="round" stroke-linejoin="round" points="3.84199134 7.34693878 5.73593074 9.26770708 9.52380952 5.42617047"></polyline>
                    </g>
                </g>
            </g>
        </g>
    </g>
</svg>