<?xml version="1.0" encoding="UTF-8"?>
<svg width="266px" height="165px" viewBox="0 0 266 165" version="1.1" xmlns="http://www.w3.org/2000/svg" xmlns:xlink="http://www.w3.org/1999/xlink">
    <!-- Generator: Sketch 56 (81588) - https://sketch.com -->
    <title>card_Seguro_Gadget Copy</title>
    <desc>Created with Sketch.</desc>
    <g id="Page-1" stroke="none" stroke-width="1" fill="none" fill-rule="evenodd">
        <g id="card_Seguro_Gadget-Copy">
            <rect id="Rectangle-Copy-9" stroke="#FFFFFF" fill="#EFF1F1" x="0.5" y="0.5" width="265" height="164" rx="8"></rect>
            <g id="mini_Seguro_Gadget-Copy" transform="translate(116.000000, 30.000000)">
                <g id="Group-5" transform="translate(0.757576, 0.424242)">
                    <g id="smartphone" fill-rule="nonzero">
                        <path d="M12.7059491,22.2152601 L12.7059491,32.7470487 C12.7059491,34.3128923 13.5503797,35.5823094 14.592121,35.5823094 L25.531777,35.5823094 C26.5734479,35.5823094 27.4179488,34.3128923 27.4179488,32.7470487 L27.4179488,22.2980497 L27.4179488,14.0758645 L27.4179488,3.5440759 C27.4179488,1.97823229 26.5735182,0.70881518 25.531777,0.70881518 L14.592121,0.70881518 C13.5504501,0.70881518 12.7059491,1.97823229 12.7059491,3.5440759 L12.7059491,13.9930749 L12.7059491,22.2152601 Z" id="Path" fill="#8CDFE4"></path>
                        <rect id="Rectangle" fill="#E1EFF3" x="12.6290803" y="4.53641715" width="14.7887277" height="27.2183611"></rect>
                        <path d="M14.0081433,18.1455977 C14.0081433,15.2558291 15.8750276,12.805455 18.4604803,11.9497734 C17.8237081,11.7389717 17.1435037,11.624569 16.4366908,11.624569 C12.8600387,11.624569 9.9606346,14.5441787 9.9606346,18.1455977 C9.9606346,21.7470168 12.8601091,24.6666265 16.4366908,24.6666265 C17.1435037,24.6666265 17.8237081,24.5521528 18.4604803,24.3414221 C15.875098,23.4856695 14.0081433,21.0352955 14.0081433,18.1455977 Z" id="Path" fill="#FFFFFF"></path>
                        <path d="M28.8165106,23.8285234 L29.4592662,23.3804105 L29.4592662,17.0785474 C29.4592662,16.0577826 30.1505927,15.1998327 31.0873785,14.9528815 C30.782015,14.1103838 29.9792569,13.5088832 29.0369101,13.5088832 L29.0369101,13.5088832 C27.831717,13.5088832 26.854737,14.4926478 26.854737,15.7062103 L26.854737,22.0080734 L26.2119814,22.4562572 C23.483702,24.3584337 21.8558008,27.4872856 21.8558008,30.8286404 L21.8558008,35.5823094 L24.46033,35.5823094 L24.46033,32.2009066 C24.46033,28.8594809 26.0883015,25.730629 28.8165106,23.8285234 Z" id="Path" fill="#FFFFFF"></path>
                        <g id="Group" transform="translate(3.519634, 14.530711)" fill="#FEDA9B">
                            <path d="M27.2312675,14.9138258 C27.5401505,14.1927481 27.6994492,13.415674 27.6994492,12.6303068 L27.6994492,1.17542821 C27.6994492,0.910756625 27.6529196,0.657071672 27.5677445,0.42209944 C26.6308883,0.669050648 25.9396322,1.52700054 25.9396322,2.54776528 L25.9396322,8.8496284 L25.2968766,9.29774136 C22.5685971,11.1999178 20.940696,14.3287697 20.940696,17.6701245 L20.940696,21.0515982 L24.6021712,21.0515982 L27.2312675,14.9138258 Z" id="Path"></path>
                            <path d="M0.0587778878,13.1978551 L0.0587778878,13.1978551 C0.0587778878,13.8633617 0.420737048,14.4625232 0.981203566,14.7770953 L1.75446715,15.0163205 C2.9098926,15.373776 4.07918541,14.5037762 4.07918541,13.2866697 L4.07918541,13.2866697 C4.07918541,12.6211631 3.71722625,12.0220016 3.15675973,11.7074294 L2.38349614,11.4682043 C1.22807069,11.1107488 0.0587778878,11.9808195 0.0587778878,13.1978551 Z" id="Path"></path>
                            <path d="M0.0587778878,9.41200237 L0.0587778878,9.41200237 C0.0587778878,10.0775089 0.420737048,10.6766704 0.981203566,10.9912426 L1.75446715,11.2304677 C2.9098926,11.5879232 4.07918541,10.7179235 4.07918541,9.50081691 L4.07918541,9.50081691 C4.07918541,8.83531034 3.71722625,8.23614887 3.15675973,7.92157669 L2.38349614,7.68235157 C1.22807069,7.32489607 0.0587778878,8.19489582 0.0587778878,9.41200237 Z" id="Path"></path>
                            <path d="M0.0587778878,5.62614961 L0.0587778878,5.62614961 C0.0587778878,6.29165618 0.420737048,6.89081765 0.981203566,7.20538983 L1.75446715,7.44461495 C2.9098926,7.80207045 4.07918541,6.9320707 4.07918541,5.71496415 L4.07918541,5.71496415 C4.07918541,5.04945758 3.71722625,4.45029611 3.15675973,4.13572393 L2.38349614,3.89649881 C1.22807069,3.53911419 0.0587778878,4.40904306 0.0587778878,5.62614961 Z" id="Path"></path>
                            <path d="M0.0587778878,1.84036773 L0.0587778878,1.84036773 C0.0587778878,2.50587431 0.420737048,3.10503578 0.981203566,3.41960795 L1.75446715,3.65883308 C2.9098926,4.01628857 4.07918541,3.14628882 4.07918541,1.92918228 L4.07918541,1.92918228 C4.07918541,1.2636757 3.71722625,0.664514231 3.15675973,0.349942054 L2.38349614,0.110716931 C1.22807069,-0.246738564 0.0587778878,0.623261188 0.0587778878,1.84036773 Z" id="Path"></path>
                        </g>
                        <path d="M8.05932832,3.82760197 C7.87349164,3.82760197 7.69258246,3.9034452 7.56165207,4.03528482 C7.43001776,4.16712444 7.35540152,4.34999876 7.35540152,4.53641715 C7.35540152,4.72283554 7.43001776,4.90570986 7.56165207,5.03754948 C7.69258246,5.16938911 7.87349164,5.24523233 8.05932832,5.24523233 C8.24446107,5.24523233 8.42607418,5.16938911 8.55700457,5.03754948 C8.68793495,4.90570986 8.76325512,4.72283554 8.76325512,4.53641715 C8.76325512,4.34999876 8.68793495,4.16712444 8.55700457,4.03528482 C8.42607418,3.9034452 8.24453146,3.82760197 8.05932832,3.82760197 Z" id="Path" fill="#274B72"></path>
                        <path d="M29.0369101,12.7999972 C28.7170457,12.7999972 28.4095705,12.8534418 28.1218052,12.9506204 L28.1218052,3.5440759 C28.1218052,1.58987245 26.5428974,0 24.6021712,0 L8.27121029,0 C6.3304841,0 4.75157629,1.58987245 4.75157629,3.5440759 L4.75157629,13.5005192 L3.27065509,13.0423411 C2.50428998,12.8052424 1.69484455,12.9444537 1.04997721,13.4241798 C0.405109873,13.9039768 0.0352667327,14.6422078 0.0352667327,15.4495483 C0.0352667327,16.1968522 0.355623819,16.8781653 0.885751092,17.344353 C0.343234707,17.8220236 0.0352667327,18.4996509 0.0352667327,19.2354011 C0.0352667327,19.9827049 0.355623819,20.6640181 0.885751092,21.1302058 C0.343234707,21.6078764 0.0352667327,22.2855037 0.0352667327,23.0212538 C0.0352667327,23.7685577 0.355623819,24.4498708 0.885751092,24.9160586 C0.343234707,25.3937291 0.0352667327,26.0713564 0.0352667327,26.8071066 C0.0352667327,27.9200882 0.745106517,28.88755 1.80170064,29.2143138 L4.75157629,30.1269134 L4.75157629,32.7471904 C4.75157629,34.7013939 6.3304841,36.291479 8.27121029,36.291479 L21.8558008,36.291479 C22.2445796,36.291479 22.5597276,35.9738589 22.5597276,35.5824512 L22.5597276,30.8287113 C22.5597276,27.7204858 24.0748597,24.8083895 26.612727,23.039116 L27.2554825,22.591003 C27.445402,22.4585963 27.5587342,22.2408483 27.5587342,22.0082152 L27.5587342,15.706352 C27.5587342,14.8855441 28.2218332,14.2178402 29.0369805,14.2178402 C29.8521277,14.2178402 30.5152268,14.8855441 30.5152268,15.706352 L30.5152268,27.1610889 C30.5152268,27.8538848 30.3770459,28.5276845 30.1046263,29.1638462 L27.4755301,35.3017603 C27.3215109,35.6611296 27.486089,36.0782674 27.8431206,36.2333561 C27.9339976,36.2728371 28.0285349,36.291479 28.1215941,36.291479 C28.3940841,36.291479 28.6535515,36.131145 28.7682916,35.863142 L31.3973878,29.7254404 C31.7463243,28.9109409 31.9231507,28.048242 31.9231507,27.1611598 L31.9231507,15.7061394 C31.9231507,14.1037209 30.6283478,12.7999972 29.0369101,12.7999972 Z M1.88659422,14.5644508 C2.07827348,14.4218372 2.3031781,14.3480495 2.53286941,14.3480495 C2.64092217,14.3480495 2.75003083,14.3643523 2.85716849,14.3975248 L6.12282569,15.4077991 C6.58460167,15.5506962 6.89489261,15.9734336 6.89489261,16.4598935 C6.89489261,16.8127417 6.73327101,17.1353943 6.45141872,17.3450619 C6.16963683,17.5547294 5.81584322,17.6156166 5.48084445,17.511917 L2.21518725,16.5016427 C1.75341126,16.3587455 1.44312033,15.9360082 1.44312033,15.4495483 C1.44312033,15.096771 1.60481232,14.7741183 1.88659422,14.5644508 Z M2.21518725,24.0733482 C1.75341126,23.9305219 1.44319072,23.5077846 1.44319072,23.0212538 C1.44319072,22.6683347 1.60481232,22.345753 1.88666461,22.1360145 C2.07834388,21.9934009 2.30324849,21.9196842 2.5329398,21.9196842 C2.64085178,21.9196842 2.74989004,21.9359869 2.85695731,21.9690177 L5.06742824,22.6528826 L5.06756903,22.6528826 L6.12289609,22.9793628 C6.58474246,23.1223309 6.894963,23.5450682 6.894963,24.0315281 C6.894963,24.3844472 6.73334141,24.707029 6.45148912,24.9167674 C6.16970722,25.1264349 5.81605439,25.1871804 5.48112602,25.0836934 L4.81605598,24.8779243 L2.21518725,24.0733482 Z M2.53286941,18.1339023 C2.64092217,18.1339023 2.75003083,18.150205 2.85716849,18.1833776 L6.1227553,19.193581 C6.58460167,19.336549 6.89482222,19.7592864 6.89482222,20.2457462 C6.89482222,20.5986653 6.73320062,20.9212471 6.45134833,21.1309855 C6.16956643,21.340653 5.81584322,21.4013276 5.48098524,21.2979115 L4.8159152,21.0921424 L2.21511685,20.2874954 C1.75334087,20.1446692 1.44312033,19.7219318 1.44312033,19.2354011 C1.44312033,18.882482 1.60474192,18.5599002 1.88659422,18.3502327 C2.07827348,18.2076191 2.3031781,18.1339023 2.53286941,18.1339023 Z M1.44312033,26.8071066 C1.44312033,26.4541875 1.60474192,26.1316057 1.88659422,25.9218673 C2.07827348,25.7792537 2.3031781,25.7055369 2.53286941,25.7055369 C2.64078139,25.7055369 2.74981965,25.7218397 2.85688692,25.7548704 L5.06735785,26.4387353 L5.06749864,26.4387353 L6.12282569,26.7652156 C6.58467207,26.9081836 6.89489261,27.330921 6.89489261,27.8173809 C6.89489261,28.1702999 6.73327101,28.4928817 6.45141872,28.7026201 C6.16956643,28.9122877 5.81584322,28.9731749 5.48084445,28.8694752 L2.21511685,27.8591301 C1.75341126,27.7163747 1.44312033,27.2936373 1.44312033,26.8071066 Z M6.15942989,32.7470487 L6.15942989,32.4635226 L21.151874,32.4635226 L21.151874,34.8734942 L8.27121029,34.8734942 C7.10677457,34.8734942 6.15942989,33.9195707 6.15942989,32.7470487 Z M26.1508102,15.7061394 L26.1508102,21.6367251 L25.8112359,21.8734694 C22.8936705,23.9076272 21.151874,27.2554322 21.151874,30.8286404 L21.151874,31.0459631 L6.15942989,31.0459631 L6.15942989,30.3113471 C6.56109052,30.2531533 6.94761673,30.0960799 7.28803573,29.8428202 C7.93290307,29.3630232 8.30274621,28.6247922 8.30274621,27.8174517 C8.30274621,27.0702188 7.98238912,26.3889056 7.45226185,25.9227179 C7.99484862,25.4450473 8.30274621,24.76742 8.30274621,24.031599 C8.30274621,23.284366 7.98238912,22.6030529 7.45226185,22.1367942 C7.99477823,21.6591237 8.30274621,20.9814964 8.30274621,20.2457462 C8.30274621,19.4985133 7.98238912,18.8172001 7.45226185,18.3509415 C7.99477823,17.8732709 8.30274621,17.1956436 8.30274621,16.4598935 C8.30274621,15.3469119 7.59290642,14.3795918 6.5363123,14.0526862 L6.15942989,13.9360861 L6.15942989,3.5440759 C6.15942989,2.37155383 7.10677457,1.41763036 8.27121029,1.41763036 L24.6022416,1.41763036 C25.7666774,1.41763036 26.714022,2.37155383 26.714022,3.5440759 L26.714022,3.82760197 L10.5580573,3.82760197 C10.1692785,3.82760197 9.85413048,4.14493853 9.85413048,4.53641715 C9.85413048,4.92789578 10.1692785,5.24523233 10.5580573,5.24523233 L26.714022,5.24523233 L26.714022,13.984002 C26.3603692,14.4662799 26.1508102,15.0619682 26.1508102,15.7061394 Z" id="Shape" fill="#274B72"></path>
                    </g>
                    <g id="Group-Copy" transform="translate(9.696970, 10.909091)">
                        <path d="M6.29673357,-1.42108547e-14 C7.94983602,1.82340282 10.0071888,3.0064564 12.5934671,3.35261377 C12.2169225,7.9104922 10.9449823,12.5735589 6.29673357,14.2486085 C1.64848485,12.5735589 0.376544667,7.9104922 0,3.35261377 C2.58627837,3.0064564 4.64363112,1.82340282 6.29673357,-1.42108547e-14 Z" id="Stroke-679-Copy" stroke="#274B72" stroke-width="1.45454545" fill="#FFFFFF" stroke-linejoin="round"></path>
                        <path d="M10.4900849,13.4650501 C7.5760816,12.2512725 5.23159178,8.18285393 5.23159178,3.82845255 C6.5907996,3.64863746 8.3165334,2.67354733 9.40166162,2.0649858 C9.67499907,1.9116927 11.6806147,5.82138729 11.8704983,7.22161697 C12.3611537,10.8397826 11.0846622,13.712711 10.4900849,13.4650501 Z" id="Stroke-679-Copy" fill="#BEECC0" fill-rule="nonzero" transform="translate(8.606000, 7.770273) scale(-1, 1) translate(-8.606000, -7.770273) "></path>
                        <polyline id="Stroke-680-Copy" stroke="#274B72" stroke-width="1.45454545" stroke-linecap="round" stroke-linejoin="round" points="3.72556736 7.12430427 5.56211465 8.98686747 9.23520924 5.26174106"></polyline>
                    </g>
                </g>
            </g>
        </g>
    </g>
</svg>