<?xml version="1.0" encoding="UTF-8"?>
<svg width="266px" height="165px" viewBox="0 0 266 165" version="1.1" xmlns="http://www.w3.org/2000/svg" xmlns:xlink="http://www.w3.org/1999/xlink">
    <!-- Generator: Sketch 56 (81588) - https://sketch.com -->
    <title>card_Seguro_Hogar</title>
    <desc>Created with Sketch.</desc>
    <g id="Page-1" stroke="none" stroke-width="1" fill="none" fill-rule="evenodd">
        <g id="card_Seguro_Hogar">
            <rect id="Rectangle-Copy-13" stroke="#FFFFFF" fill="#EFF1F1" x="0.5" y="0.5" width="265" height="164" rx="8"></rect>
            <g id="mini_Seguro_Hogar-Copy" transform="translate(113.000000, 29.000000)">
                <g id="Group-2-Copy" transform="translate(0.333333, 0.212121)">
                    <g id="smart-house" transform="translate(17.939394, 20.636364) scale(-1, 1) translate(-17.939394, -20.636364) translate(0.939394, 3.636364)" fill-rule="nonzero">
                        <polygon id="Path" fill="#B3B6C3" points="9.94643705 30.1515152 31.2153764 30.1515152 31.2153764 33.1315105 9.94643705 33.1315105"></polygon>
                        <polygon id="Path" fill="#FFC66C" points="17.8062855 17.6408617 21.8971946 17.6408617 21.8971946 30.1515152 17.8062855 30.1515152"></polygon>
                        <polygon id="Path" fill="#EDF2FA" points="20.6424598 10.5471709 10.407197 18.4647254 10.407197 30.1515152 15.583866 30.1515152 15.583866 17.4390388 22.0990175 17.4390388 22.0990175 30.1515152 29.2456795 30.1515152 29.2456795 17.2020005"></polygon>
                        <polygon id="Path" fill="#B3B6C3" points="29.2424242 7.63908621 27.5473485 7.63908621 27.5473485 10.4675663 29.2424242 11.7211174"></polygon>
                        <polygon id="Path" fill="#FFE058" points="6.61843038 18.2981179 18.6363636 8.99769174 31.0825047 18.6292614 33.1584398 15.7146662 20.2021189 5.68862455 5.65666432 16.9445431"></polygon>
                        <path d="M5.19472061,3.19454311 C5.19472061,4.5217803 4.11872636,5.59777462 2.79148909,5.59777462 C1.46425189,5.59777462 0.388257576,4.5217803 0.388257576,3.19454311 C0.388257576,1.86730591 1.46425189,0.791311515 2.79148909,0.791311515 C4.11872636,0.791311515 5.19472061,1.86730591 5.19472061,3.19454311 Z" id="Path" fill="#FFFFFF"></path>
                        <path d="M30,18.7494082 L30.6187855,19.2282197 C30.7818418,19.354285 30.9889915,19.4090317 31.1931818,19.3785511 C31.3970762,19.3483665 31.5796638,19.2365057 31.6995147,19.0687145 L33.7988281,16.1212713 C34.0346827,15.7901279 33.9669152,15.3317353 33.6452415,15.0828598 L30,12.261778 L30,7.08333333 C30,6.66518705 29.6608665,6.32575758 29.2424242,6.32575758 L25.9312855,6.32575758 C25.5128433,6.32575758 25.1737098,6.66518705 25.1737098,7.08333333 L25.1737098,8.5268703 L19.1000829,3.82694129 C18.8269413,3.61564864 18.4454901,3.61564864 18.1726444,3.82694129 L3.62718985,15.0828598 C3.30581205,15.3314394 3.23804455,15.789536 3.47330727,16.1206795 L5.56936553,19.0704901 C5.68862455,19.2385772 5.87180394,19.3507339 6.07569841,19.3812145 C6.11268939,19.3865412 6.14997636,19.3892045 6.18696735,19.3892045 C6.35357485,19.3892045 6.51692712,19.334162 6.65039061,19.230883 L7.27272727,18.7494082 L7.27272727,29.3939394 L6.06060606,29.3939394 C5.64216379,29.3939394 5.3030303,29.7330729 5.3030303,30.1515152 L5.3030303,33.1818182 C5.3030303,33.6002605 5.64216379,33.9393939 6.06060606,33.9393939 L31.2121212,33.9393939 C31.6302675,33.9393939 31.969697,33.6002605 31.969697,33.1818182 L31.969697,30.1515152 C31.969697,29.7330729 31.6302675,29.3939394 31.2121212,29.3939394 L30,29.3939394 L30,26.8181818 C30,26.3997395 29.6605705,26.0606061 29.2424242,26.0606061 C28.823982,26.0606061 28.4848485,26.3997395 28.4848485,26.8181818 L28.4848485,29.3939394 L22.6515152,29.3939394 L22.6515152,17.4242424 C22.6515152,17.0058002 22.3120857,16.6666667 21.8939394,16.6666667 L15.3787879,16.6666667 C14.9603456,16.6666667 14.6212121,17.0058002 14.6212121,17.4242424 L14.6212121,29.3939394 L8.78787879,29.3939394 L8.78787879,17.5769413 L18.6363636,9.95561076 L28.4848485,17.5769413 L28.4848485,20.7575758 C28.4848485,21.176018 28.823982,21.5151515 29.2424242,21.5151515 C29.6605705,21.5151515 30,21.176018 30,20.7575758 L30,18.7494082 Z M16.1363636,24.3939394 L16.5909091,24.3939394 C17.0093514,24.3939394 17.3484848,24.0548059 17.3484848,23.6363636 C17.3484848,23.2182173 17.0093514,22.8787879 16.5909091,22.8787879 L16.1363636,22.8787879 L16.1363636,18.1818182 L21.1363636,18.1818182 L21.1363636,29.3939394 L16.1363636,29.3939394 L16.1363636,24.3939394 Z M30.4545455,30.9090909 L30.4545455,32.4242424 L6.81818182,32.4242424 L6.81818182,30.9090909 L30.4545455,30.9090909 Z M26.6888613,7.84090909 L28.4848485,7.84090909 L28.4848485,11.0893111 L26.6888613,9.69933712 L26.6888613,7.84090909 Z M18.1726444,8.39873341 L6.3473603,17.5497159 L5.12961652,15.8359967 L18.6363636,5.38381864 L32.142223,15.8354048 L30.9227036,17.5476444 L19.1000829,8.39873341 C18.8269413,8.18744083 18.445786,8.18744083 18.1726444,8.39873341 Z" id="Shape" fill="#274B72"></path>
                        <path d="M29.2424242,23.0379971 C29.0432647,23.0379971 28.8476562,23.1181936 28.7067945,23.2590554 C28.5659327,23.4008049 28.4848485,23.5955256 28.4848485,23.7955729 C28.4848485,23.9947325 28.5659327,24.1894531 28.7067945,24.3312027 C28.8476562,24.4720644 29.0432647,24.5531486 29.2424242,24.5531486 C29.4415838,24.5531486 29.6371923,24.4720644 29.7780539,24.3312027 C29.9189158,24.1894531 30,23.9947325 30,23.7955729 C30,23.5955256 29.9189158,23.4008049 29.7780539,23.2590554 C29.6371923,23.1181936 29.4415838,23.0379971 29.2424242,23.0379971 Z" id="Path" fill="#274B72"></path>
                    </g>
                    <g id="Group-Copy-5" transform="translate(25.242424, 0.000000)">
                        <path d="M6.29673357,-1.42108547e-14 C7.94983602,1.82340282 10.0071888,3.0064564 12.5934671,3.35261377 C12.2169225,7.9104922 10.9449823,12.5735589 6.29673357,14.2486085 C1.64848485,12.5735589 0.376544667,7.9104922 0,3.35261377 C2.58627837,3.0064564 4.64363112,1.82340282 6.29673357,-1.42108547e-14 Z" id="Stroke-679-Copy" stroke="#274B72" stroke-width="1.45454545" fill="#FFFFFF" stroke-linejoin="round"></path>
                        <path d="M10.4900849,13.4650501 C7.5760816,12.2512725 5.23159178,8.18285393 5.23159178,3.82845255 C6.5907996,3.64863746 8.3165334,2.67354733 9.40166162,2.0649858 C9.67499907,1.9116927 11.6806147,5.82138729 11.8704983,7.22161697 C12.3611537,10.8397826 11.0846622,13.712711 10.4900849,13.4650501 Z" id="Stroke-679-Copy" fill="#BEECC0" fill-rule="nonzero" transform="translate(8.606000, 7.770273) scale(-1, 1) translate(-8.606000, -7.770273) "></path>
                        <polyline id="Stroke-680-Copy" stroke="#274B72" stroke-width="1.45454545" stroke-linecap="round" stroke-linejoin="round" points="3.72556736 7.12430427 5.56211465 8.98686747 9.23520924 5.26174106"></polyline>
                    </g>
                </g>
            </g>
        </g>
    </g>
</svg>