<?xml version="1.0" encoding="UTF-8"?>
<svg width="266px" height="165px" viewBox="0 0 266 165" version="1.1" xmlns="http://www.w3.org/2000/svg" xmlns:xlink="http://www.w3.org/1999/xlink">
    <!-- Generator: Sketch 56 (81588) - https://sketch.com -->
    <title>card_Seguro_Vida</title>
    <desc>Created with Sketch.</desc>
    <g id="Page-1" stroke="none" stroke-width="1" fill="none" fill-rule="evenodd">
        <g id="card_Seguro_Vida">
            <rect id="Rectangle-Copy-10" stroke="#FFFFFF" fill="#EFF1F1" x="0.5" y="0.5" width="265" height="164" rx="8"></rect>
            <g id="mini_Seguro_Vida-Copy" transform="translate(115.000000, 33.000000)">
                <g id="Group-7" transform="translate(0.545455, 0.272727)">
                    <g id="respect" fill-rule="nonzero">
                        <path d="M9.91392195,16.6955763 L7.71917171,13.9112451 C7.44340373,13.5611866 7.08037405,13.3482887 6.69688833,13.2621404 L6.56301784,11.2752658 L9.7639974,3.73066023 C10.1676802,2.77938611 9.84711616,1.68860914 9.02809833,1.10353001 C8.70908792,1.33126323 8.44678473,1.64852813 8.28443119,2.04153053 L5.26160038,9.35840299 C4.32631984,11.6224614 3.84495589,14.0497069 3.84495589,16.5011572 L3.84495589,25.9839676 L11.5340909,25.9839676 L11.5340909,21.3736065 C11.5340909,19.6753676 10.9631348,18.0268395 9.91392195,16.6955763 Z" id="Path" fill="#FEDA9B"></path>
                        <path d="M28.6777936,9.35840299 L25.6549627,2.04153053 C25.4926092,1.64878838 25.230306,1.33126323 24.9112956,1.10353001 C24.0922778,1.68886939 23.7717137,2.77964636 24.1753965,3.73066023 L27.3763761,11.2752658 L27.2425056,13.2621404 C26.8590199,13.3482887 26.4959902,13.5611866 26.2202222,13.9112451 L24.025472,16.6958365 C22.9762592,18.0268395 22.405303,19.6753676 22.405303,21.3736065 L22.405303,25.9839676 L30.094438,25.9839676 L30.094438,16.5011572 C30.094438,14.0497069 29.6130741,11.6224614 28.6777936,9.35840299 Z" id="Path" fill="#FEDA9B"></path>
                        <polyline id="Path" fill="#8CDFE4" points="21.7424242 30.8145141 21.7424242 25.9839676 30.094438 25.9839676 30.094438 30.8145141"></polyline>
                        <polyline id="Path" fill="#8CDFE4" points="12.1969697 30.8145141 12.1969697 25.9839676 4.14299242 25.9839676 4.14299242 30.8145141"></polyline>
                        <path d="M19.5986846,6.76302532 C18.5631954,6.76302532 17.6294685,7.24139521 16.969697,8.00814032 C16.6426595,7.62815121 16.2480395,7.31921484 15.8073287,7.10397449 C14.8249216,7.88893829 14.1856061,9.16190175 14.1856061,10.599614 C14.1856061,12.6354187 16.7027329,15.1511548 18.6698775,16.8064498 C20.5199826,15.3039312 23.2178474,12.7663327 23.2178474,10.7430208 C23.2178474,8.54507015 21.5976784,6.76302532 19.5986846,6.76302532 Z" id="Path" fill="#FF9595"></path>
                        <path d="M33.2765152,25.3176853 L23.0681818,25.3176853 L23.0681818,21.3736065 C23.0681818,19.832048 23.5925293,18.3178174 24.5448997,17.1094 L26.7396499,14.3250689 C26.9980691,13.9971331 27.3983857,13.8365486 27.8103545,13.8953688 C28.2223233,13.9544494 28.5620487,14.220702 28.7192235,14.6079786 C28.8642282,14.9650642 28.823834,15.3700389 28.6117646,15.691468 L26.2611343,19.2487908 C26.0586455,19.5553847 26.1417644,19.9689482 26.4467921,20.1724766 C26.751561,20.376005 27.163012,20.2924595 27.3655007,19.9858656 L29.7158721,16.4285428 C30.1713423,15.7393571 30.2575683,14.8705875 29.9468439,14.1046231 C29.6097079,13.2738524 28.8808002,12.7025675 27.9970481,12.5760779 C27.1132961,12.4498487 26.2546608,12.7941813 25.7005357,13.4974214 L23.5057854,16.2820128 C22.3685339,17.7246701 21.7424242,19.5330018 21.7424242,21.3736065 L21.7424242,25.3176853 C21.3762873,25.3176853 21.0795455,25.6159508 21.0795455,25.9839676 L21.0795455,30.8145141 C21.0795455,31.1825309 21.3762873,31.4807963 21.7424242,31.4807963 C22.1085612,31.4807963 22.405303,31.1825309 22.405303,30.8145141 L22.405303,26.6502499 L32.6136364,26.6502499 L32.6136364,30.8145141 C32.6136364,31.1825309 32.9103782,31.4807963 33.2765152,31.4807963 C33.6426521,31.4807963 33.9393939,31.1825309 33.9393939,30.8145141 L33.9393939,25.9839676 C33.9393939,25.6159508 33.6426521,25.3176853 33.2765152,25.3176853 Z" id="Path" fill="#274B72"></path>
                        <path d="M32.6084576,22.4412198 C32.4334162,22.4412198 32.2630357,22.5125328 32.1397816,22.63668 C32.0157508,22.7605668 31.9455788,22.9323427 31.9455788,23.1075021 C31.9455788,23.2834422 32.0157508,23.4546976 32.1397816,23.5785844 C32.2630357,23.7032521 32.4334162,23.7737844 32.6084576,23.7737844 C32.7827222,23.7737844 32.9536207,23.7032521 33.0768747,23.5785844 C33.2003876,23.4546976 33.2713364,23.2834422 33.2713364,23.1075021 C33.2713364,22.9323427 33.2003876,22.7605668 33.0768747,22.63668 C32.9536207,22.5125328 32.7827222,22.4412198 32.6084576,22.4412198 Z" id="Path" fill="#274B72"></path>
                        <path d="M26.7668383,11.5365735 C26.9105484,11.8751802 27.2997307,12.0326414 27.6366078,11.8881935 C27.9732259,11.7437456 28.1298828,11.3523047 27.9861727,11.0139583 L24.7851933,3.46935258 C24.4780939,2.74607199 24.7660319,1.9192053 25.4550633,1.54624334 C25.8338882,1.34115332 26.2660541,1.30783921 26.6715495,1.45280771 C27.0770448,1.59777614 27.3913944,1.89760316 27.5563373,2.29711221 L30.5791682,9.61398474 C31.4857067,11.8080314 31.9453199,14.1251842 31.9453199,16.5011572 L31.9453199,20.3538824 C31.9453199,20.7216389 32.2420617,21.0201646 32.6081987,21.0201646 C32.9743356,21.0201646 33.2710775,20.7216389 33.2710775,20.3538824 L33.2710775,16.5011572 C33.2710775,13.9489838 32.7772846,11.4597948 31.8036813,9.10308156 L28.7808505,1.78594884 C28.4747869,1.04497007 27.8678385,0.465877091 27.1156265,0.19728205 C26.3634145,-0.0715733077 25.5291193,-0.00754771222 24.8263643,0.372961896 C23.5301255,1.07490067 22.9879113,2.63077391 23.5655998,3.99196774 L26.7668383,11.5365735 Z" id="Path" fill="#274B72"></path>
                        <path d="M25.4794034,28.2990382 C25.2321185,28.0278405 24.8128995,28.0091013 24.5428282,28.2576558 C24.2730158,28.5062104 24.2543723,28.9275818 24.5016572,29.1990398 L24.5068359,29.2047657 C24.6375991,29.3481725 24.8165246,29.4210471 24.995968,29.4210471 C25.1559911,29.4210471 25.316273,29.363268 25.4434111,29.246148 C25.7134825,28.9978538 25.731867,28.5762221 25.4845821,28.3047641 L25.4794034,28.2990382 Z" id="Path" fill="#274B72"></path>
                        <path d="M12.1969697,25.3176853 L12.1969697,21.3736065 C12.1969697,19.5330018 11.57086,17.7246701 10.4336086,16.2820128 L8.23885828,13.4974214 C7.68447412,12.7941813 6.82609786,12.4498487 5.9423458,12.5760779 C5.05859375,12.7025675 4.329686,13.2738524 3.99255003,14.1046231 C3.6818256,14.8705875 3.76805161,15.7393571 4.22326294,16.4285428 L6.57389323,19.9858656 C6.77638195,20.2924595 7.18783294,20.376005 7.4926018,20.1724766 C7.79762958,19.9686879 7.88074842,19.5553847 7.67800071,19.2487908 L5.32762934,15.691468 C5.11530098,15.3700389 5.07516572,14.9650642 5.22017045,14.6079786 C5.37734525,14.220702 5.71707062,13.9544494 6.12903945,13.8953688 C6.5412672,13.8368089 6.94132489,13.9971331 7.19948509,14.3250689 L9.39423532,17.1094 C10.3468647,18.3175572 10.8712121,19.832048 10.8712121,21.3736065 L10.8712121,25.3176853 L1.99407402,25.3176853 L1.99407402,16.5011572 C1.99407402,14.1254444 2.45368726,11.8082917 3.36022578,9.61398474 L6.38305666,2.29711221 C6.54799953,1.89760316 6.86234911,1.59777614 7.26784446,1.45280771 C7.67333981,1.30783921 8.10550576,1.34115332 8.48433064,1.54624334 C9.17336205,1.9192053 9.46130003,2.74607199 9.15420068,3.46935258 L5.95322119,11.0139583 C5.80951113,11.3523047 5.96616801,11.7437456 6.30278615,11.8881935 C6.63940428,12.0323812 7.02910449,11.8751802 7.17255563,11.5365735 L10.3737941,3.99222806 C10.9514826,2.63077391 10.4092685,1.07490067 9.11302968,0.373222146 C8.41027462,-0.00754771222 7.57597949,-0.0715733077 6.82376744,0.19728205 C6.0715554,0.466137341 5.46460701,1.04523032 5.15854341,1.78620909 L2.13597152,9.10308156 C1.16210937,11.4600551 0.668575436,13.9489838 0.668575436,16.5011572 L0.668575436,25.3176853 L0.662878788,25.3176853 C0.296741799,25.3176853 0,25.6159508 0,25.9839676 L0,30.8145141 C0,31.1822706 0.296741799,31.4807963 0.662878788,31.4807963 C1.02901578,31.4807963 1.32575758,31.1822706 1.32575758,30.8145141 L1.32575758,26.6502499 L11.5340909,26.6502499 L11.5340909,30.8145141 C11.5340909,31.1822706 11.8308327,31.4807963 12.1969697,31.4807963 C12.5631067,31.4807963 12.8598485,31.1822706 12.8598485,30.8145141 L12.8598485,25.9839676 C12.8598485,25.6159508 12.5631067,25.3176853 12.1969697,25.3176853 Z" id="Path" fill="#274B72"></path>
                        <path d="M8.45999053,28.2990382 L8.45481179,28.3047641 C8.20752691,28.5762221 8.22591146,28.9975936 8.49598279,29.246148 C8.62312089,29.363268 8.78340286,29.4210471 8.94342598,29.4210471 C9.12286932,29.4210471 9.30179482,29.3481725 9.432558,29.2047657 L9.43773674,29.1990398 C9.68502162,28.9275818 9.66663707,28.5062104 9.39656574,28.2576558 C9.12649447,28.0091013 8.70727541,28.0278405 8.45999053,28.2990382 Z" id="Path" fill="#274B72"></path>
                        <path d="M23.8807262,10.7430208 C23.8807262,8.18121753 21.9599313,6.0970033 19.5986846,6.0970033 C18.6439838,6.0970033 17.7162124,6.44732206 16.969697,7.07612595 C16.2231815,6.44732206 15.2954102,6.0970033 14.3407094,6.0970033 C11.9794626,6.0970033 10.0586678,8.18121753 10.0586678,10.7430208 C10.0586678,12.2132664 11.1814187,14.0028589 13.3953303,16.061567 C14.9758819,17.5310318 16.5315755,18.598645 16.5970866,18.6434109 C16.7094653,18.7204497 16.8394516,18.7587089 16.969697,18.7587089 C17.0999423,18.7587089 17.2299287,18.7204497 17.3423074,18.6434109 C17.4078184,18.598645 18.963771,17.5310318 20.5440637,16.061567 C22.7582342,14.0028589 23.8807262,12.2132664 23.8807262,10.7430208 Z M19.6548739,15.0728145 C18.5929732,16.061567 17.5181256,16.8767218 16.969438,17.2762309 C16.4235988,16.8785436 15.3557425,16.0691148 14.2956543,15.0834855 C12.4183609,13.3376178 11.3844253,11.7963194 11.3844253,10.7430208 C11.3844253,8.91594992 12.7104418,7.42956784 14.3407094,7.42956784 C15.1496286,7.42956784 15.9052068,7.7897767 16.4683949,8.44408674 C16.5942383,8.59035656 16.7773067,8.67442259 16.969697,8.67442259 C17.1620872,8.67442259 17.3451556,8.59035656 17.4709991,8.44408674 C18.0339282,7.7897767 18.7897653,7.42956784 19.5986846,7.42956784 C21.2289521,7.42956784 22.5549686,8.91594992 22.5549686,10.7430208 C22.5549686,11.793977 21.5251761,13.3316316 19.6548739,15.0728145 Z" id="Shape" fill="#274B72"></path>
                    </g>
                    <polyline id="Stroke-680-Copy" stroke="#274B72" stroke-width="1.21212121" stroke-linecap="round" stroke-linejoin="round" points="14.5454545 11.5595329 16.3820018 13.4220961 20.0550964 9.6969697"></polyline>
                </g>
            </g>
        </g>
    </g>
</svg>