<?xml version="1.0" encoding="UTF-8"?>
<svg width="266px" height="165px" viewBox="0 0 266 165" version="1.1" xmlns="http://www.w3.org/2000/svg" xmlns:xlink="http://www.w3.org/1999/xlink">
    <!-- Generator: Sketch 56 (81588) - https://sketch.com -->
    <title>card_Seguro_Fraude</title>
    <desc>Created with Sketch.</desc>
    <g id="Page-1" stroke="none" stroke-width="1" fill="none" fill-rule="evenodd">
        <g id="card_Seguro_Fraude">
            <rect id="Rectangle-Copy-12" stroke="#FFFFFF" fill="#EFF1F1" x="0.5" y="0.5" width="265" height="164" rx="8"></rect>
            <g id="mini_Seguro_Fraude-Copy" transform="translate(112.000000, 28.000000)">
                <g id="Group-11" transform="translate(0.909091, 0.000000)">
                    <g id="Group-Copy-4" transform="translate(27.878788, 0.000000)">
                        <path d="M6.29673357,-1.42108547e-14 C7.94983602,1.82340282 10.0071888,3.0064564 12.5934671,3.35261377 C12.2169225,7.9104922 10.9449823,12.5735589 6.29673357,14.2486085 C1.64848485,12.5735589 0.376544667,7.9104922 0,3.35261377 C2.58627837,3.0064564 4.64363112,1.82340282 6.29673357,-1.42108547e-14 Z" id="Stroke-679-Copy" stroke="#274B72" stroke-width="1.45454545" fill="#FFFFFF" stroke-linejoin="round"></path>
                        <path d="M10.4900849,13.4650501 C7.5760816,12.2512725 5.23159178,8.18285393 5.23159178,3.82845255 C6.5907996,3.64863746 8.3165334,2.67354733 9.40166162,2.0649858 C9.67499907,1.9116927 11.6806147,5.82138729 11.8704983,7.22161697 C12.3611537,10.8397826 11.0846622,13.712711 10.4900849,13.4650501 Z" id="Stroke-679-Copy" fill="#BEECC0" fill-rule="nonzero" transform="translate(8.606000, 7.770273) scale(-1, 1) translate(-8.606000, -7.770273) "></path>
                        <polyline id="Stroke-680-Copy" stroke="#274B72" stroke-width="1.45454545" stroke-linecap="round" stroke-linejoin="round" points="3.72556736 7.12430427 5.56211465 8.98686747 9.23520924 5.26174106"></polyline>
                    </g>
                    <g id="credit-card" transform="translate(0.000000, 4.848485)" fill-rule="nonzero">
                        <g id="Group" transform="translate(5.899621, 0.662879)">
                            <g fill="#EDF2FA">
                                <path d="M15.8919223,0.737518939 C14.9685322,-0.185672348 13.457964,-0.185672348 12.534839,0.737518939 L0.739573864,12.5326515 C-0.182755682,13.4559754 -0.18249053,14.9658807 0.740501894,15.8888731 L4.06583333,19.2142045 L19.2171875,4.06265152 L15.8919223,0.737518939 Z" id="Path"></path>
                                <path d="M26.638911,11.484375 L25.2166383,10.0621686 L24.8249432,10.4537973 L22.8250379,8.45389205 L23.2166667,8.06226326 L19.2171212,4.06285038 L4.06583333,19.2141383 L11.4875568,26.6359943 C12.4106818,27.5591856 13.9213826,27.5591856 14.8445076,26.6358617 L26.6391098,14.8412595 C27.5621023,13.9179356 27.562036,12.4076326 26.638911,11.484375 Z M19.5844223,15.6943182 L17.584517,13.6944129 L20.584375,10.6946212 L22.5842803,12.6947254 L19.5844223,15.6943182 Z" id="Shape"></path>
                            </g>
                            <polygon id="Rectangle" fill="#FFC66C" transform="translate(11.141968, 11.138021) rotate(-45.000000) translate(-11.141968, -11.138021) " points="0.428689783 9.01712776 21.8552457 9.01712776 21.8552457 13.2589147 0.428689783 13.2589147"></polygon>
                            <polygon id="Rectangle" fill="#FFE058" transform="translate(20.084300, 13.194174) rotate(135.000000) translate(-20.084300, -13.194174) " points="17.9632074 11.7801018 22.2053921 11.7801018 22.2053921 14.608247 17.9632074 14.608247"></polygon>
                        </g>
                        <g id="Group" fill="#274B72">
                            <path d="M33.0384754,11.6472443 L22.2914867,0.900388258 C21.7113352,0.32030303 20.9376894,0.000795454545 20.1129356,0.000795454545 C19.2882481,0.000795454545 18.5146023,0.320236742 17.9344508,0.900255682 L0.899592803,17.9351799 C0.319441288,18.5151989 0,19.2888447 0,20.1136648 C0,20.9384186 0.319441288,21.7121307 0.899592803,22.2921496 L2.22482008,23.6173769 C2.22495265,23.6174432 2.22501894,23.6175758 2.22515152,23.6177083 C2.22528409,23.6178409 2.22541667,23.6179735 2.22554924,23.6180398 L11.1319886,32.5244129 L9.89876894,32.5244129 C9.50833333,32.5244129 9.19174242,32.8410038 9.19174242,33.2314394 C9.19174242,33.6219413 9.50833333,33.9385322 9.89876894,33.9385322 L13.8222822,33.9385322 C13.8232102,33.9385322 13.824072,33.9385322 13.825,33.9385322 C13.825928,33.9385322 13.8267898,33.9385322 13.8277178,33.9385322 L24.0395644,33.9385322 C24.43,33.9385322 24.7465909,33.6219413 24.7465909,33.2315057 C24.7465909,32.8410038 24.43,32.5244792 24.0395644,32.5244792 L16.5182765,32.5244129 L33.0385417,16.0040814 C34.239678,14.8029451 34.239678,12.8483807 33.0384754,11.6472443 Z M32.038589,15.0043939 L15.0036648,32.0392519 C14.69125,32.3516004 14.2736364,32.5238826 13.8275852,32.5245455 L13.8222159,32.5245455 C13.3762973,32.5238163 12.9588163,32.3516667 12.6465341,32.0392519 L3.72504735,23.1177652 L20.0844981,6.75804924 C20.3605871,6.48196023 20.3605871,6.03425189 20.0844981,5.75816288 C19.8083428,5.48207386 19.360767,5.48207386 19.0846117,5.75822917 L2.7250947,22.1178788 L1.89941288,21.292197 C1.5864678,20.9793182 1.41411932,20.5607765 1.41411932,20.1136648 C1.41411932,19.6666193 1.5864678,19.2480114 1.89947917,18.9350663 L18.9342708,1.90034091 C19.2472822,1.58739583 19.6658902,1.41504735 20.1129356,1.41504735 C20.5599811,1.41504735 20.978589,1.58739583 21.2916004,1.9004072 L25.1166098,5.72535038 L8.75682765,22.0851326 C8.48073864,22.3612216 8.48073864,22.8089299 8.75682765,23.0850189 C8.8949053,23.2230966 9.07587121,23.2921023 9.25677083,23.2921023 C9.43780303,23.2921023 9.61863636,23.2230303 9.75671402,23.0850189 L26.1164962,6.72523674 L32.038589,12.6471307 C32.6884091,13.297017 32.6883428,14.3545076 32.038589,15.0043939 Z" id="Shape"></path>
                            <path d="M17.4205208,20.4209754 C17.1444318,20.1448864 16.6968561,20.1448864 16.4206345,20.4209091 L10.8567614,25.9846496 C10.5806723,26.2607386 10.5806723,26.708447 10.8567614,26.984536 C10.994839,27.1226136 11.1758049,27.1916193 11.3567045,27.1916193 C11.5376042,27.1916193 11.7185701,27.1225473 11.8566477,26.984536 L17.4204545,21.4207955 C17.6966098,21.1447727 17.6966098,20.6970644 17.4205208,20.4209754 Z" id="Path"></path>
                            <path d="M15.1384943,25.7025947 L12.8565341,27.9845549 C12.5804451,28.2606439 12.5804451,28.7083523 12.8565341,28.9845076 C12.9946117,29.1225852 13.1755777,29.1915909 13.3564773,29.1915909 C13.5375095,29.1915909 13.7183428,29.1225852 13.8564205,28.9845076 L16.1383807,26.7025473 C16.4144697,26.4264583 16.4144697,25.97875 16.1383807,25.702661 C15.8622917,25.4265057 15.4147822,25.4265057 15.1384943,25.7025947 Z" id="Path"></path>
                            <path d="M17.2383617,23.6029261 L16.9384091,23.9028788 C16.6622538,24.1789678 16.6622538,24.6266098 16.9383428,24.9027652 C17.0763542,25.0408428 17.2573864,25.1098485 17.438286,25.1098485 C17.6192519,25.1098485 17.8001515,25.0408428 17.9381629,24.9027652 L18.2381155,24.6028125 C18.5142708,24.3267235 18.5142708,23.8790814 18.2381818,23.6029261 C17.9622917,23.3268371 17.514517,23.3267045 17.2383617,23.6029261 Z" id="Path"></path>
                            <path d="M26.9840057,10.8575568 C26.8514299,10.7249811 26.6715909,10.6504735 26.4840625,10.6504735 C26.2965341,10.6504735 26.1167614,10.7249811 25.9841193,10.8575568 L22.9842614,13.8573485 C22.8516856,13.9899242 22.777178,14.1697633 22.777178,14.3572917 C22.777178,14.5448201 22.8516856,14.7246591 22.9842614,14.8572348 L24.9841667,16.8569413 C25.1222443,16.9950189 25.3032102,17.0640246 25.4841098,17.0640246 C25.665142,17.0640246 25.8459754,16.9949527 25.984053,16.8569413 L28.9837784,13.8572822 C29.2598674,13.5811932 29.2598674,13.1334848 28.9837784,12.8573958 L26.9840057,10.8575568 Z M25.4840436,15.357178 L24.4840909,14.3572917 L26.4839962,12.3573864 L27.4838826,13.357339 L25.4840436,15.357178 Z" id="Shape"></path>
                            <path d="M21.2345928,5.31549242 C21.4154924,5.31549242 21.5965909,5.24642045 21.7346023,5.10827652 L22.0345549,4.80819129 C22.3105777,4.53203598 22.3105114,4.08432765 22.0343561,3.80830492 C21.758267,3.5322822 21.3104924,3.53234848 21.0344697,3.80850379 L20.734517,4.10858902 C20.4584943,4.38474432 20.4585606,4.83245265 20.7347159,5.10847538 C20.8727936,5.24655303 21.0536269,5.31549242 21.2345928,5.31549242 Z" id="Path"></path>
                            <path d="M7.10698864,23.7349716 L6.80703598,24.0349242 C6.53094697,24.3110133 6.53094697,24.7587216 6.80703598,25.0348106 C6.94511364,25.1728883 7.12607955,25.2418939 7.30697917,25.2418939 C7.48801136,25.2418939 7.6688447,25.1728883 7.80692235,25.0348106 L8.106875,24.734858 C8.38296402,24.4587689 8.38296402,24.0110606 8.106875,23.7349053 C7.83078598,23.4588163 7.38321023,23.4588163 7.10698864,23.7349716 Z" id="Path"></path>
                        </g>
                    </g>
                </g>
            </g>
        </g>
    </g>
</svg>