<?xml version="1.0" encoding="UTF-8"?>
<svg width="266px" height="165px" viewBox="0 0 266 165" version="1.1" xmlns="http://www.w3.org/2000/svg" xmlns:xlink="http://www.w3.org/1999/xlink">
    <!-- Generator: Sketch 56 (81588) - https://sketch.com -->
    <title>card_Seguro_Enfermedad</title>
    <desc>Created with Sketch.</desc>
    <g id="Page-1" stroke="none" stroke-width="1" fill="none" fill-rule="evenodd">
        <g id="card_Seguro_Enfermedad">
            <rect id="Rectangle-Copy-11" stroke="#FFFFFF" fill="#EFF1F1" x="0.5" y="0.5" width="265" height="164" rx="8"></rect>
            <polygon id="Path" fill="#E3F2FF" fill-rule="nonzero" points="135.24089 54.9537027 135.24089 48.4916288 121.25328 48.4916288 121.25328 59.5611742 129.016373 59.5611742 129.017957 59.5611742"></polygon>
            <path d="M140.584856,55.6384441 C140.587159,55.6371108 140.588856,55.6361411 140.589704,55.6356563 C140.588856,55.6361411 140.587159,55.6371108 140.584856,55.6384441 Z" id="Path" fill="#FE73B1" fill-rule="nonzero"></path>
            <path d="M140.588465,55.6363808 C140.589192,55.635896 140.589313,55.6357748 140.588465,55.6363808 L140.588465,55.6363808 Z" id="Path" fill="#FE73B1" fill-rule="nonzero"></path>
            <path d="M140.581,55.6407188 C140.583545,55.6392642 140.585606,55.6380521 140.587424,55.6369612 C140.585727,55.6379309 140.583666,55.639143 140.581,55.6407188 Z" id="Path" fill="#FE73B1" fill-rule="nonzero"></path>
            <path d="M140.564198,55.650464 C140.558258,55.653858 140.552561,55.6572519 140.547349,55.660161 C140.550622,55.6582216 140.553531,55.6565246 140.556561,55.6548277 C140.558986,55.6534943 140.561531,55.6519186 140.564198,55.650464 Z" id="Path" fill="#FE73B1" fill-rule="nonzero"></path>
            <path d="M140.58655,55.6375057 C140.581459,55.6404148 140.575278,55.6440511 140.568611,55.6479299 C140.57249,55.6456269 140.576975,55.6430814 140.581338,55.640536 C140.583156,55.6393239 140.584975,55.6383542 140.58655,55.6375057 Z" id="Path" fill="#FE73B1" fill-rule="nonzero"></path>
            <path d="M140.560127,55.6092898 C140.557158,55.6110133 140.554651,55.6124716 140.551945,55.6140625 C140.549768,55.615322 140.547195,55.6167803 140.544159,55.6185701 C140.544423,55.6184375 140.544687,55.6182386 140.545017,55.6181061 C140.540332,55.6208239 140.536307,55.6231439 140.532744,55.6251989 C140.53446,55.6242045 140.536109,55.6232102 140.537825,55.6222159 C140.535054,55.6238068 140.531953,55.6255966 140.528587,55.6275852 C140.523375,55.6306345 140.519548,55.632822 140.517041,55.6342803 C140.518822,55.633286 140.521,55.6319602 140.523507,55.6305019 C140.365083,55.7223769 139.619152,56.1551042 136.713485,57.8404072 L139.719709,63.07125 L143.529137,60.8616761 C145.271997,59.8505871 146.102517,57.8813731 145.763763,56.0119223 C144.321454,54.8471117 142.259042,54.6237879 140.560127,55.6092898 Z" id="Path" fill="#FFC66C" fill-rule="nonzero"></path>
            <path d="M129.926535,64.7369981 C131.366667,66.2106439 133.667077,66.5820549 135.529892,65.5015625 L139.35806,63.2810511 L136.383639,58.1055587 L132.230904,60.5143277 C130.696022,61.4049716 129.853822,63.0573958 129.926535,64.7369981 Z" id="Path" fill="#FFE058" fill-rule="nonzero"></path>
            <path d="M134.71303,46.4587121 L131.282143,41.8632386 L131.282143,39.2117898 L125.014145,39.2117898 L125.014145,41.8631723 L121.583258,46.4586458 C121.240809,46.9180208 121.055398,47.4760985 121.055398,48.0494886 L121.055398,48.4916288 L135.24089,48.4916288 L135.24089,48.0494886 C135.24089,47.4761648 135.055479,46.9180208 134.71303,46.4587121 Z" id="Path" fill="#8CDFE4" fill-rule="nonzero"></path>
            <path d="M132.601725,37.8860985 L132.601725,34.8369886 C132.601725,34.1045739 132.011183,33.5112973 131.282143,33.5112973 L124.552268,33.5112973 C123.823228,33.5112973 123.232686,34.1045739 123.232686,34.8369886 L123.232686,37.8860985 C123.232686,38.6185133 123.823228,39.2117898 124.552268,39.2117898 L131.282143,39.2117898 C132.011183,39.2117898 132.601725,38.6185795 132.601725,37.8860985 Z" id="Path" fill="#CCCCCC" fill-rule="nonzero"></path>
            <path d="M129.017033,59.5618371 L129.016373,59.5611742 L121.187363,59.5611742 L121.187363,60.8868655 C121.187363,62.3510985 122.369042,63.5382481 123.826527,63.5382481 L129.079123,63.5382481 L129.079783,63.5375852 L129.017033,59.5618371 Z" id="Path" fill="#8CDFE4" fill-rule="nonzero"></path>
            <path d="M122.061564,42.5260511 C122.425787,42.5260511 122.721322,42.2290814 122.721322,41.8632386 C122.721322,41.4973295 122.425721,41.2004261 122.061564,41.2004261 C121.697341,41.2004261 121.401806,41.4973958 121.401806,41.8632386 C121.40174,42.2290814 121.697341,42.5260511 122.061564,42.5260511 Z" id="Path" fill="#274B72" fill-rule="nonzero"></path>
            <path d="M127.999651,53.5955303 L126.02031,53.5955303 L126.02031,51.6070265 C126.02031,51.2409848 125.724841,50.944214 125.360552,50.944214 C124.996263,50.944214 124.700794,51.2410511 124.700794,51.6070265 L124.700794,53.5955303 L122.721454,53.5955303 C122.357099,53.5955303 122.061696,53.8923674 122.061696,54.2584091 C122.061696,54.6244508 122.357165,54.9212216 122.721454,54.9212216 L124.700794,54.9212216 L124.700794,56.9097254 C124.700794,57.275767 124.996263,57.5725379 125.360552,57.5725379 C125.724841,57.5725379 126.02031,57.2757008 126.02031,56.9097254 L126.02031,54.9212216 L127.999651,54.9212216 C128.364005,54.9212216 128.659409,54.6243845 128.659409,54.2584091 C128.659409,53.8923674 128.364071,53.5955303 127.999651,53.5955303 Z" id="Path" fill="#274B72" fill-rule="nonzero"></path>
            <path d="M138.597217,52.2512784 L135.917143,53.8057292 L135.917143,48.0495549 C135.917143,47.3379545 135.682906,46.6317898 135.257319,46.0610511 L131.958397,41.6422348 L131.958397,39.7605871 C132.7263,39.4869508 133.277979,38.7502273 133.277979,37.8860322 L133.277979,34.8369886 C133.277979,33.7405208 132.390054,32.8484848 131.298639,32.8484848 L119.4224,32.8484848 C118.330985,32.8484848 117.442994,33.7405208 117.442994,34.8369886 L117.442994,37.8860985 C117.442994,38.750161 117.994673,39.487017 118.762576,39.7606534 L118.762576,41.6423011 L115.46339,46.0613826 C115.038067,46.6318561 114.803895,47.3379545 114.803895,48.0495549 L114.803895,60.8868655 C114.803895,62.7143561 116.283815,64.2010606 118.102818,64.2010606 L128.706322,64.2010606 C130.185714,66.692358 133.375699,67.5260606 135.876234,66.0756155 L143.875611,61.4356629 C146.379973,59.9827652 147.273309,56.7438731 145.807378,54.1921212 C144.348903,51.6542235 141.123881,50.7855871 138.597217,52.2512784 Z M128.628331,58.8982955 L116.123412,58.8982955 L116.123412,49.1545076 L134.597561,49.1545076 L134.597561,54.5710227 L130.597774,56.8912311 C129.763822,57.3751989 129.089746,58.0641288 128.628331,58.8982955 Z M118.762576,34.8369886 C118.762576,34.4714773 119.058573,34.1741761 119.422334,34.1741761 L131.298573,34.1741761 C131.6624,34.1741761 131.958397,34.4715436 131.958397,34.8369886 L131.958397,37.8860985 C131.958397,38.2516098 131.6624,38.548911 131.298573,38.548911 L119.4224,38.548911 C119.058573,38.548911 118.762576,38.2515436 118.762576,37.8860985 C118.762576,37.8860985 118.762576,34.8369886 118.762576,34.8369886 Z M119.950193,42.2608996 C120.035838,42.1462216 120.082158,42.0066193 120.082158,41.8631723 L120.082158,39.8746686 L130.638815,39.8746686 L130.638815,41.2003598 L124.700728,41.2003598 C124.336373,41.2003598 124.04097,41.497197 124.04097,41.8631723 C124.04097,42.229214 124.336439,42.5259848 124.700728,42.5259848 L130.968727,42.5259848 L134.201403,46.8560417 C134.412678,47.1394223 134.543917,47.4784848 134.583573,47.82875 L116.137466,47.82875 C116.177055,47.4784848 116.308294,47.1394886 116.519372,46.8563731 L119.950193,42.2608996 Z M116.123412,60.8868655 L116.123412,60.2174242 L128.110765,60.2174242 C127.901535,61.0768466 127.90292,61.9948011 128.142502,62.8754356 L118.102818,62.8754356 C117.011403,62.8753693 116.123412,61.9833333 116.123412,60.8868655 Z M135.216476,64.9275095 C133.322979,66.0259659 130.903404,65.3763447 129.809284,63.4727557 C128.709951,61.5508049 129.376175,59.1310322 131.25773,58.0392045 L134.839057,55.961875 L138.797803,62.8501799 L135.216476,64.9275095 Z M143.215787,60.2876231 L139.940618,62.1873674 L135.981806,55.2989299 L139.257041,53.3993182 C141.151791,52.3003977 143.570508,52.9511458 144.664629,54.8548011 C145.763565,56.7680682 145.095296,59.1972538 143.215787,60.2876231 Z" id="Shape" fill="#274B72" fill-rule="nonzero"></path>
            <path d="M144.084612,28 C145.737715,29.8234028 147.795068,31.0064564 150.381346,31.3526138 C150.004801,35.9104922 148.732861,40.5735589 144.084612,42.2486085 C139.436364,40.5735589 138.164423,35.9104922 137.787879,31.3526138 C140.374157,31.0064564 142.43151,29.8234028 144.084612,28 Z" id="Stroke-679-Copy" stroke="#274B72" stroke-width="1.45454545" fill="#FFFFFF" stroke-linejoin="round"></path>
            <path d="M148.277964,41.4650501 C145.36396,40.2512725 143.019471,36.1828539 143.019471,31.8284526 C144.378678,31.6486375 146.104412,30.6735473 147.18954,30.0649858 C147.462878,29.9116927 149.468493,33.8213873 149.658377,35.221617 C150.149032,38.8397826 148.872541,41.712711 148.277964,41.4650501 Z" id="Stroke-679-Copy" fill="#BEECC0" fill-rule="nonzero" transform="translate(146.393878, 35.770273) scale(-1, 1) translate(-146.393878, -35.770273) "></path>
            <polyline id="Stroke-680-Copy" stroke="#274B72" stroke-width="1.45454545" stroke-linecap="round" stroke-linejoin="round" points="141.513446 35.1243043 143.349993 36.9868675 147.023088 33.2617411"></polyline>
        </g>
    </g>
</svg>