<svg xmlns="http://www.w3.org/2000/svg" width="64" height="44" viewBox="0 0 64 44">
  <g fill="none" fill-rule="evenodd">
    <rect width="64" height="44" fill="#0062A0" rx="2"/>
    <path fill="#FFF" fill-rule="nonzero" d="M11.36,25.17 C10.67,25.17 9.94,25.02 9.5,24.76 C9.51,24.36 9.54,24.09 9.63,23.75 C10.15,24.02 10.82,24.16 11.37,24.16 C12.21,24.16 12.73,23.82 12.73,23.2 C12.73,22.59 12.35,22.37 11.56,22.05 L10.99,21.82 C10.11,21.47 9.49,20.91 9.49,19.83 C9.49,18.7 10.23,17.91 11.93,17.91 C12.54,17.91 13.16,18.01 13.7,18.22 C13.67,18.63 13.62,18.87 13.53,19.21 C13,19.01 12.41,18.92 11.98,18.92 C11.06,18.92 10.72,19.32 10.72,19.8 C10.72,20.41 11.03,20.62 11.73,20.88 L12.32,21.11 C13.15,21.43 13.96,21.95 13.96,23.13 C13.96,24.29 13.1,25.17 11.36,25.17 Z M15.13,25 L15.13,18.15 C15.43,18.07 15.94,17.99 16.32,17.99 L16.32,25 L15.13,25 Z M21.82,25 L21.38,23.46 L18.87,23.46 L18.41,25 L17.24,25 L19.38,18.18 C19.74,18.08 20.37,18.03 20.88,18.03 L23.07,25 L21.82,25 Z M19.17,22.44 L21.09,22.44 L20.15,19.16 L19.17,22.44 Z M25.88,17.91 C27.98,17.91 28.66,19.01 28.66,20.24 C28.66,21.69 27.71,22.68 25.96,22.68 L25.18,22.68 L25.18,25 L23.99,25 L23.99,18.08 C24.48,17.99 25.26,17.91 25.88,17.91 Z M25.96,21.68 C26.96,21.66 27.42,21.12 27.42,20.29 C27.42,19.45 27,18.92 25.9,18.92 C25.71,18.92 25.44,18.93 25.18,18.96 L25.18,21.69 L25.96,21.68 Z M33.52,25 L33.08,23.46 L30.57,23.46 L30.11,25 L28.94,25 L31.08,18.18 C31.44,18.08 32.07,18.03 32.58,18.03 L34.77,25 L33.52,25 Z M30.87,22.44 L32.79,22.44 L31.85,19.16 L30.87,22.44 Z M41.75,21.36 L42.96,21.36 L42.96,24.79 C42.43,25.03 41.62,25.16 40.92,25.16 C38.72,25.16 37.56,23.7 37.56,21.53 C37.56,19.27 38.78,17.91 41.1,17.91 C41.82,17.91 42.45,18.01 42.93,18.19 C42.9,18.54 42.83,18.89 42.73,19.24 C42.22,19.06 41.7,18.96 41.1,18.96 C39.63,18.96 38.8,19.89 38.8,21.51 C38.8,23.18 39.6,24.11 40.99,24.11 C41.23,24.11 41.5,24.08 41.75,24.04 L41.75,21.36 Z M46.43,17.91 C48.97,17.91 49.89,19.46 49.89,21.48 C49.89,23.65 48.79,25 46.5,25 L44.46,25 L44.46,18.09 C44.99,17.97 45.61,17.91 46.43,17.91 Z M46.53,23.96 C47.99,23.96 48.64,23.13 48.64,21.47 C48.64,19.88 48,18.95 46.43,18.95 C46.18,18.95 45.91,18.96 45.65,18.99 L45.65,23.96 L46.53,23.96 Z M51.15,25 L51.15,18.15 C51.45,18.07 51.96,17.99 52.34,17.99 L52.34,23.95 L54.85,23.95 C54.85,24.25 54.8,24.68 54.75,25 L51.15,25 Z"/>
  </g>
</svg>
