<svg xmlns="http://www.w3.org/2000/svg" width="64" height="44" viewBox="0 0 64 44">
  <g fill="none" fill-rule="evenodd">
    <rect width="64" height="44" fill="#274A88" rx="2"/>
    <path fill="#FFF" fill-rule="nonzero" d="M26.015,25.17 C25.325,25.17 24.595,25.02 24.155,24.76 C24.165,24.36 24.195,24.09 24.285,23.75 C24.805,24.02 25.475,24.16 26.025,24.16 C26.865,24.16 27.385,23.82 27.385,23.2 C27.385,22.59 27.005,22.37 26.215,22.05 L25.645,21.82 C24.765,21.47 24.145,20.91 24.145,19.83 C24.145,18.7 24.885,17.91 26.585,17.91 C27.195,17.91 27.815,18.01 28.355,18.22 C28.325,18.63 28.275,18.87 28.185,19.21 C27.655,19.01 27.065,18.92 26.635,18.92 C25.715,18.92 25.375,19.32 25.375,19.8 C25.375,20.41 25.685,20.62 26.385,20.88 L26.975,21.11 C27.805,21.43 28.615,21.95 28.615,23.13 C28.615,24.29 27.755,25.17 26.015,25.17 Z M34.815,25 L33.365,25 L30.975,21.6 L30.975,25 L29.785,25 L29.785,18.15 C30.085,18.07 30.595,17.99 30.975,17.99 L30.975,21.42 L33.285,18.08 L34.635,18.08 L32.225,21.48 L34.815,25 Z M40.355,18.08 L38.135,22.16 L38.135,25 L36.925,25 L36.925,22.16 L34.695,18.08 L36.005,18.08 L37.555,21.12 L39.105,18.08 L40.355,18.08 Z"/>
  </g>
</svg>
