<svg xmlns="http://www.w3.org/2000/svg" xmlns:xlink="http://www.w3.org/1999/xlink" width="266" height="168" viewBox="0 0 266 168">
  <defs>
    <rect id="big---1.-front-a" width="266" height="168" x="0" y="0" rx="10"/>
    <rect id="big---1.-front-c" width="266" height="168" x="0" y="0"/>
    <linearGradient id="big---1.-front-d" x1="36.627%" x2="15.515%" y1="53.249%" y2="40.171%">
      <stop offset="0%" stop-color="#D9D9D9"/>
      <stop offset="100%" stop-color="#6E7577"/>
    </linearGradient>
    <linearGradient id="big---1.-front-f" x1="33.226%" x2="61.69%" y1="31.331%" y2="84.17%">
      <stop offset="0%" stop-color="#B5B7B7" stop-opacity=".457"/>
      <stop offset="100%" stop-color="#8F9495"/>
    </linearGradient>
    <linearGradient id="big---1.-front-g" x1="31.699%" x2="68.814%" y1="32.645%" y2="85.269%">
      <stop offset="0%" stop-color="#B5B5B5" stop-opacity="0"/>
      <stop offset="100%" stop-color="#808486"/>
    </linearGradient>
  </defs>
  <g fill="none" fill-rule="evenodd">
    <mask id="big---1.-front-b" fill="#fff">
      <use xlink:href="#big---1.-front-a"/>
    </mask>
    <rect width="266" height="168" fill="#FFF" mask="url(#big---1.-front-b)"/>
    <g mask="url(#big---1.-front-b)" opacity=".82">
      <rect width="266" height="168" fill="#D9DDDB" opacity=".62"/>
      <mask id="big---1.-front-e" fill="#fff">
        <use xlink:href="#big---1.-front-c"/>
      </mask>
      <use fill="#FFF" xlink:href="#big---1.-front-c"/>
      <rect width="266" height="168" fill="url(#big---1.-front-d)" mask="url(#big---1.-front-e)" opacity=".619"/>
      <path fill="url(#big---1.-front-f)" d="M268.570113,167.505094 C328.836897,167.505094 268.570113,144.086333 268.570113,83.887447 C268.570113,23.6885612 330.287358,-4.53396814 268.570113,9.57729654 C206.852868,23.6885612 112.849136,98.8915557 145.821201,167.505094 C178.793265,236.118632 208.303329,167.505094 268.570113,167.505094 Z" mask="url(#big---1.-front-e)" opacity=".775"/>
      <path fill="url(#big---1.-front-g)" d="M117.705493,243 C182.712442,243 226.128607,198.868805 235.410986,131.234488 C244.693364,63.6001719 142.147186,-5 77.1402369,-5 C12.1332881,-5 0,69.5081006 0,131.234488 C0,192.960876 52.6985442,243 117.705493,243 Z" mask="url(#big---1.-front-e)" opacity=".554"/>
    </g>
    <path fill="#FFF" d="M27.4963179,17.6631044 L24.879659,13.1025216 C24.6801323,12.7548342 24.5422553,12.3820641 24.4658053,12 L24.3564162,12.1904722 C23.7087614,13.3193083 23.7087614,14.7099456 24.3563049,15.8387817 L26.4497211,19.4872032 C27.0972646,20.6160392 27.0972646,22.0067886 26.4497211,23.1355127 L26.340332,23.3260968 C26.2637707,22.9439207 26.1258937,22.5712626 25.926367,22.2235753 L24.0099988,18.8834254 L22.7863541,16.7508311 C22.5868274,16.4031437 22.4490617,16.0303737 22.3723891,15.6483095 L22.2631113,15.8388937 C21.6176821,16.9638106 21.615679,18.3489611 22.2567683,19.4756696 L24.3564162,23.1355127 C25.004071,24.2643488 25.004071,25.6550981 24.3564162,26.7839342 L24.2470271,26.9745183 C24.1704658,26.5923422 24.0325888,26.2196841 23.8330621,25.8718848 L21.2165145,21.3114139 C20.8655345,20.6996858 20.7051788,20.0111417 20.7345569,19.3290922 C17.9333943,20.0654503 16,21.6290915 16,23.4395291 C16,25.9582187 19.7412637,28 24.3564162,28 C28.9714574,28 32.7127211,25.9582187 32.7127211,23.4395291 C32.7127211,21.6290915 30.7795494,20.0650024 27.9781642,19.3286443 C27.9533485,18.7520768 27.7929928,18.1801004 27.4963179,17.6631044 Z" mask="url(#big---1.-front-b)"/>
  </g>
</svg>
