<svg xmlns="http://www.w3.org/2000/svg" xmlns:xlink="http://www.w3.org/1999/xlink" width="266" height="168" viewBox="0 0 266 168">
  <defs>
    <linearGradient id="big---1.-front-a" x1="2.01%" x2="97.667%" y1="31.479%" y2="68.385%">
      <stop offset="0%" stop-color="#00AFBF"/>
      <stop offset="100%" stop-color="#5300A0"/>
    </linearGradient>
    <polygon id="big---1.-front-b" points=".301 .195 6.607 .195 6.607 12.336 .301 12.336"/>
    <polygon id="big---1.-front-d" points=".076 .195 2.438 .195 2.438 12.373 .076 12.373"/>
  </defs>
  <g fill="none" fill-rule="evenodd">
    <rect width="266" height="168" fill="url(#big---1.-front-a)" rx="10"/>
    <g transform="translate(175 140)">
      <path fill="#FFF" d="M3.34759819 12.4958222C2.06393756 12.4958222.687335747 12.0798222.0549782805 10.7941333-.0197321267 10.6423111-.038320362 10.4730667.128973756 10.3781333L1.17098733 9.79217778C1.37545792 9.6784 1.46875656 9.6976 1.59887421 9.86684444 2.10111403 10.5100444 2.67806425 10.8133333 3.4033629 10.8133333 3.90560271 10.8133333 4.50078371 10.5296 4.50078371 10.0186667 4.50078371 9.58382222 4.18478371 9.37617778 3.62677919 9.16817778 3.27324525 9.03591111 2.77100543 8.90328889 2.30558462 8.75182222 1.09663439 8.33582222.240860633 7.67342222.240860633 6.42613333.240860633 4.74222222 1.65463891 3.87253333 3.23606878 3.87253333 4.16619548 3.87253333 5.319381 4.15662222 6.10080181 4.89368889 6.23127692 5.02595556 6.17551222 5.19697778 6.08221357 5.34773333L5.48703258 6.23662222C5.43126787 6.29351111 5.35691493 6.3312 5.28220452 6.3312 5.15208688 6.3312 4.94725882 6.16088889 4.70561176 6.04711111 4.14760724 5.78257778 3.64536742 5.61297778 3.16135837 5.61297778 2.62194208 5.61297778 2.1940552 5.87751111 2.1940552 6.3504 2.1940552 6.69066667 2.4732362 6.936 3.06877466 7.14364444 4.51972941 7.61688889 6.51010045 8.08942222 6.51010045 9.96177778 6.51010045 11.5880889 5.11491041 12.4958222 3.34759819 12.4958222M14.6402371 12.4013867L13.1703367 12.4013867C13.0030425 12.4013867 12.9101014 12.3448533 12.9101014 12.1368533L12.9101014 11.9288533C12.9101014 11.83392 12.7796262 11.83392 12.7056308 11.9096533 12.3335086 12.26912 11.7007937 12.5336533 11.0870244 12.5336533 9.15206063 12.5336533 7.98028688 11.2095644 7.98028688 9.29987556L7.98028688 4.30752C7.98028688 4.11872 8.09181629 4.00529778 8.25911041 4.00529778L9.71042262 4.00529778C9.91489321 4.00529778 10.0264226 4.09916444 10.0264226 4.28903111L10.0264226 9.28138667C10.0264226 10.0948978 10.5844271 10.7370311 11.4591466 10.7370311 12.3149204 10.7370311 12.8915131 10.1130311 12.8915131 9.28138667L12.8915131 4.30752C12.8915131 4.11872 12.9844543 4.00529778 13.1892824 4.00529778L14.6216489 4.00529778C14.8075312 4.00529778 14.9380063 4.09916444 14.9380063 4.28903111L14.9380063 12.0984533C14.9380063 12.2879644 14.8261195 12.4013867 14.6402371 12.4013867M23.8495281 9.45137778C23.8495281 11.1527111 22.7521072 12.5532444 20.7613787 12.5532444 20.0914873 12.5532444 19.5334828 12.3260444 19.27289 12.1368889 19.0498312 11.9854222 18.9565326 12.0416 18.9565326 12.1934222L18.9565326 15.5032889C18.9565326 15.7105778 18.8264149 15.8051556 18.6587633 15.8051556L17.2263968 15.8051556C17.0215688 15.8051556 16.9103968 15.7105778 16.9103968 15.5214222L16.9103968 4.30755556C16.9103968 4.13795556 17.0215688 4.02346667 17.2081661 4.02346667L18.6033561 4.02346667C18.7706502 4.02346667 18.8821796 4.13795556 18.8821796 4.28835556L18.8821796 4.43982222C18.8821796 4.5152 18.9383018 4.62897778 19.0870077 4.5152 19.4963063 4.21368889 20.0728991 3.9104 20.8914964 3.9104 22.9008131 3.9104 23.8495281 5.31022222 23.8495281 7.16302222L23.8495281 9.45137778zM21.8216231 7.18186667C21.8216231 6.34986667 21.3193833 5.72551111 20.3892566 5.72551111 19.552071 5.72551111 18.9383018 6.36871111 18.9565326 7.16302222L18.9565326 9.29991111C18.9565326 10.1130667 19.5148946 10.7754667 20.3706683 10.7754667 21.3937362 10.7754667 21.8216231 10.1319111 21.8216231 9.29991111L21.8216231 7.18186667zM31.9232566 8.61909333L27.9049805 8.61909333C27.6447452 8.61909333 27.5332158 8.77091556 27.5332158 8.94016L27.5332158 9.22424889C27.5332158 10.0374044 28.1098086 10.7179378 28.9652249 10.7179378 29.7098267 10.7179378 30.1931208 10.26496 30.5466548 9.82940444 30.6771299 9.67829333 30.770071 9.58371556 30.9931299 9.73553778L31.9050258 10.3211378C32.1277271 10.47296 32.2582023 10.6052267 32.1466729 10.8320711 31.4957271 12.0043378 30.2864195 12.51456 29.0027588 12.51456 26.8819127 12.51456 25.4867226 11.2295822 25.4867226 9.29998222L25.4867226 7.16309333C25.4867226 5.19651556 26.9190891 3.85393778 28.9652249 3.85393778 30.9745416 3.85393778 32.4444421 5.12078222 32.4444421 7.16309333L32.4444421 8.05198222C32.4444421 8.39224889 32.2210258 8.61909333 31.9232566 8.61909333M27.5700348 6.97393778C27.5700348 7.14424889 27.6447452 7.23847111 27.8863923 7.23847111L30.1373561 7.23847111C30.3418267 7.23847111 30.4165371 7.06887111 30.3979489 6.87900444 30.3050077 6.12273778 29.7098267 5.64984889 28.9838131 5.64984889 28.1655733 5.64984889 27.6447452 6.25607111 27.5700348 6.97393778M38.881262 5.66872889C38.8258548 5.95317333 38.7325561 5.97201778 38.5280855 5.95317333 38.3050267 5.89664 38.0816104 5.85824 37.9143163 5.85824 36.6674747 5.85824 36.2771217 6.70944 36.2771217 7.88241778L36.2771217 12.0989511C36.2771217 12.3073067 36.1470041 12.4018844 35.9604068 12.4018844L34.5280403 12.4018844C34.3421579 12.4018844 34.230271 12.3073067 34.230271 12.1177956L34.230271 4.30801778C34.230271 4.11921778 34.3421579 4.00472889 34.5280403 4.00472889L35.7931127 4.00472889C35.9604068 4.00472889 36.0905244 4.09966222 36.0905244 4.28846222L36.0905244 4.87512889C36.0905244 5.02588444 36.2027688 5.08312889 36.29571 4.95015111 36.6860629 4.40188444 37.4120765 3.85397333 38.3050267 3.85397333 38.5091398 3.85397333 38.7883208 3.87246222 38.9745606 3.94819556 39.2347959 4.02357333 39.2533842 4.15619556 39.1979769 4.34499556L38.881262 5.66872889z"/>
      <g transform="translate(39.679 .16)">
        <mask id="big---1.-front-c" fill="#fff">
          <use xlink:href="#big---1.-front-b"/>
        </mask>
        <path fill="#FFF" d="M6.45866109,12.24064 L5.69547104,12.24064 C5.58394163,12.24064 5.54640769,12.1841067 5.54640769,12.0703289 L5.54640769,11.63584 C5.54640769,11.5035733 5.41664751,11.4466844 5.2861724,11.5597511 C4.91440769,11.9565511 4.11404118,12.3355733 3.22109095,12.3355733 C1.28648462,12.3355733 0.300593213,11.0875733 0.300593213,9.29059556 L0.300593213,7.02108444 C0.300593213,5.39477333 1.34224932,3.88224 3.29544389,3.88224 C4.26310452,3.88224 4.89581946,4.26055111 5.21217692,4.63850667 C5.36088281,4.78997333 5.45346652,4.69504 5.45346652,4.54428444 L5.45346652,0.365084444 C5.45346652,0.251306667 5.49100045,0.194773333 5.60252986,0.194773333 L6.43971538,0.194773333 C6.55160226,0.194773333 6.60736697,0.251306667 6.60736697,0.34624 L6.60736697,12.0891733 C6.60736697,12.1841067 6.5701905,12.24064 6.45866109,12.24064 L6.45866109,12.24064 Z M5.47241222,7.00295111 C5.47241222,5.84881778 4.6352267,4.90304 3.46309548,4.90304 C2.10472443,4.90304 1.4351905,5.86766222 1.4351905,7.02108444 L1.4351905,9.27139556 C1.4351905,10.4628622 2.0682629,11.3517511 3.46309548,11.3517511 C4.61663846,11.3517511 5.45346652,10.4628622 5.45346652,9.29059556 L5.47241222,7.00295111 Z" mask="url(#big---1.-front-c)"/>
      </g>
      <path fill="#FFF" d="M48.9465054 2.41664C48.5368493 2.41664 48.1836729 2.07637333 48.1836729 1.64081778 48.1836729 1.22481778 48.5368493.884551111 48.9279172.884551111 49.3558041.884551111 49.6903923 1.20668444 49.6903923 1.64081778 49.6903923 2.05717333 49.3558041 2.41664 48.9465054 2.41664L48.9465054 2.41664zM48.3327362 4.30748444C48.3327362 4.19406222 48.3881434 4.13788444 48.5000303 4.13788444L49.3372158 4.13788444C49.4487452 4.13788444 49.4859217 4.19406222 49.4859217 4.30748444L49.4859217 12.2498844C49.4859217 12.3636622 49.4487452 12.4013511 49.3372158 12.4013511L48.5000303 12.4013511C48.4070891 12.4013511 48.3327362 12.3448178 48.3327362 12.2498844L48.3327362 4.30748444zM60.5365919 2.41664C60.1272932 2.41664 59.7737593 2.07637333 59.7737593 1.64081778 59.7737593 1.22481778 60.1272932.884551111 60.5180036.884551111 60.946248.884551111 61.2804787 1.20668444 61.2804787 1.64081778 61.2804787 2.05717333 60.946248 2.41664 60.5365919 2.41664L60.5365919 2.41664zM59.9224652 4.30748444C59.9224652 4.19406222 59.9785873 4.13788444 60.0901167 4.13788444L60.9273023 4.13788444C61.0391891 4.13788444 61.0760081 4.19406222 61.0760081 4.30748444L61.0760081 12.2498844C61.0760081 12.3636622 61.0391891 12.4013511 60.9273023 12.4013511L60.0901167 12.4013511C59.9971756 12.4013511 59.9224652 12.3448178 59.9224652 12.2498844L59.9224652 4.30748444zM63.8295335 10.2263822L63.8295335 5.31011556C63.8295335 5.19669333 63.7737688 5.13944889 63.6436511 5.13944889L62.7692891 5.13944889C62.6574023 5.13944889 62.6016376 5.08256 62.6016376 4.98869333L62.6016376 4.30780444C62.6016376 4.19402667 62.6574023 4.13749333 62.7507009 4.13749333L63.6436511 4.13749333C63.7737688 4.13749333 63.8295335 4.06176 63.8295335 3.94869333L63.8295335 2.20824889C63.8295335 2.13287111 63.86671 2.05713778 63.9782394 2.01980444L64.7782484 1.83100444C64.909081 1.79224889 64.9644882 1.88718222 64.9644882 1.98211556L64.9644882 3.96718222C64.9644882 4.08096 65.0016647 4.13749333 65.1131941 4.13749333L66.9920357 4.13749333C67.0853344 4.13749333 67.1596873 4.19402667 67.1596873 4.28896L67.1596873 4.96984889C67.1596873 5.08256 67.1039226 5.13944889 66.9920357 5.13944889L65.1324973 5.13944889C65.0202529 5.13944889 64.9644882 5.17820444 64.9644882 5.31011556L64.9644882 9.99918222C64.9644882 10.94496 65.2247235 11.4555378 66.0433208 11.4555378 66.34109 11.4555378 66.9183977 11.36096 67.1782756 11.3047822 67.4013344 11.2478933 67.4385109 11.3428267 67.4574566 11.4555378L67.5686285 12.0414933C67.6061624 12.21216 67.5686285 12.2317156 67.4385109 12.2878933 67.0671036 12.4578489 66.34109 12.5150933 65.8946149 12.5150933 64.2945968 12.5150933 63.8295335 11.5504711 63.8295335 10.2263822M71.2710475 6.84163556C71.9409389 6.84163556 72.5550656 7.04999111 72.982595 7.42759111 73.1127127 7.52216889 73.2431878 7.48519111 73.2431878 7.31452444L73.2431878 6.78510222C73.2431878 5.76430222 72.7967127 5.02652444 71.4011652 5.02652444 70.8803371 5.02652444 69.9319796 5.21568 69.4479706 5.46101333 69.3553869 5.51754667 69.2620882 5.48021333 69.2245543 5.36714667L68.9832647 4.76163556C68.9457308 4.66705778 68.9832647 4.59132444 69.0758484 4.55328 69.7085633 4.21301333 70.6948122 4.02350222 71.5134095 4.02350222 73.6335407 4.02350222 74.3777851 5.12074667 74.3777851 6.93656889L74.3777851 12.2311467C74.3777851 12.3449244 74.3220204 12.4018133 74.2290792 12.4018133L73.4666041 12.4018133C73.3547172 12.4018133 73.336129 12.32608 73.336129 12.2691911L73.336129 11.7394133C73.336129 11.5694578 73.2245995 11.5694578 73.1316584 11.6640356 72.6480068 12.2311467 71.9409389 12.5145244 71.1223416 12.5145244 69.3367986 12.5145244 68.3501923 11.3614578 68.3501923 9.69710222 68.3501923 8.10848 69.3736176 6.84163556 71.2710475 6.84163556M71.2899932 11.5499022C72.4060023 11.5499022 73.1691923 10.6997689 73.1691923 9.64021333 73.1691923 8.61905778 72.5175317 7.76785778 71.308224 7.76785778 70.1175045 7.76785778 69.4111516 8.61905778 69.4111516 9.65941333 69.4111516 10.7179022 69.9873869 11.5499022 71.2899932 11.5499022"/>
      <g transform="translate(76.498 .16)">
        <mask id="big---1.-front-e" fill="#fff">
          <use xlink:href="#big---1.-front-d"/>
        </mask>
        <path fill="#FFF" d="M0.224309955,0.194808889 L1.06149548,0.194808889 C1.15443665,0.194808889 1.21020136,0.251342222 1.21020136,0.346275556 L1.21020136,10.16032 C1.21020136,10.97312 1.39608371,11.2568533 2.06561765,11.2568533 L2.28903394,11.2568533 C2.43773982,11.2568533 2.43773982,11.3709867 2.43773982,11.4844089 L2.43773982,12.1460978 C2.43773982,12.2780089 2.38197511,12.3356089 2.27080317,12.3537422 C2.08456335,12.3732978 1.91691176,12.3732978 1.84255882,12.3732978 C0.354070136,12.3732978 0.0756040724,11.5597867 0.0756040724,10.2925867 L0.0756040724,0.36512 C0.0756040724,0.270542222 0.112780543,0.194808889 0.224309955,0.194808889" mask="url(#big---1.-front-e)"/>
      </g>
      <path fill="#FFF" d="M58.2294701,4.06179556 C57.6528774,4.06179556 57.0762846,4.32632889 56.6108638,4.68650667 C56.5179226,4.76224 56.4807462,4.76224 56.4063932,4.70535111 C55.8673344,4.23210667 55.0855561,4.04295111 54.3788457,4.04295111 C52.685529,4.04295111 51.3092846,5.38588444 51.3092846,6.97379556 C51.3092846,7.97681778 51.7182258,8.78961778 52.369529,9.29984 C52.5554113,9.45130667 52.5739995,9.67886222 52.4621127,9.84810667 C52.2576421,10.1506844 52.090348,10.5289956 52.090348,10.8127289 C52.090348,11.4559289 52.5922303,12.0607289 53.9509588,12.0607289 L55.0855561,12.0607289 C56.4249814,12.0607289 56.8900448,12.64704 56.8900448,13.4420622 C56.8900448,14.0802844 56.5139905,14.5183289 55.855538,14.7423289 C55.7486557,14.7793067 55.7118367,14.9129956 55.7836873,14.9997511 L56.2426738,15.5593956 C56.2884294,15.6152178 56.3670719,15.6365511 56.434633,15.6091733 C57.393357,15.2159289 58.0435878,14.4756622 58.0435878,13.4033067 C58.0435878,11.9284622 57.0015742,11.0591289 55.4762665,11.0591289 L54.3044928,11.0591289 C53.8204837,11.0591289 53.2996557,10.9833956 53.2996557,10.4909511 C53.2996557,10.1137067 53.5784792,9.88650667 53.9509588,9.90535111 L54.3602575,9.90535111 C56.0528593,9.90535111 57.541348,8.78961778 57.541348,6.93646222 C57.541348,6.42552889 57.4108729,5.95264 57.1688683,5.55548444 C57.1324068,5.47975111 57.1324068,5.42321778 57.2435787,5.38588444 C57.541348,5.29095111 57.9134701,5.25361778 58.2294701,5.27210667 C58.4342982,5.29095111 58.4900629,5.25361778 58.4900629,5.06375111 L58.4900629,4.30748444 C58.4900629,4.13788444 58.4342982,4.04295111 58.2294701,4.06179556 M54.3602575,8.97841778 C53.0762394,8.97841778 52.406348,8.03335111 52.406348,7.01219556 C52.406348,5.97148444 53.206357,5.00686222 54.4342529,5.00686222 C55.5692077,5.00686222 56.4063932,5.93450667 56.4063932,6.99299556 C56.4063932,8.05255111 55.7368593,8.97841778 54.3602575,8.97841778"/>
    </g>
    <g transform="translate(16 12)">
      <g transform="translate(3.616 .033)">
        <path fill="#FFF" d="M7.17444384,9.49654018 L5.1267726,15.2864955 C6.00403288,15.6080357 6.45904658,16.5929687 6.14310137,17.4867187 C5.88896438,18.2049107 5.21345753,18.6444196 4.50244384,18.6222098 L4.50288219,18.6226562 L3.94693699,18.6226562 L1.83285479,24.5751116 C1.83285479,24.5751116 3.43647123,24.7726562 4.23559452,24.7726562 L4.24315616,24.7726562 C7.52534795,24.9080357 10.6558685,22.8867187 11.8280329,19.5719866 C13.274937,15.4810268 11.1914301,10.9703125 7.17444384,9.49654018"/>
        <path fill="#EB0100" d="M5.12714521,15.284308 L7.17481644,9.49479911 C6.29755616,9.17325893 5.84265205,8.18810268 6.15848767,7.29457589 C6.41262466,6.57616071 7.08813151,6.13665179 7.79914521,6.15908482 L7.79870685,6.15841518 L8.35465205,6.15841518 L10.4687342,0.206629464 C10.4687342,0.206629464 8.86511781,0.00841517857 8.06599452,0.00841517857 L8.05854247,0.00863839286 C4.7762411,-0.126741071 1.64572055,1.89457589 0.473556164,5.20930804 C-0.973347945,9.29982143 1.1101589,13.8109821 5.12714521,15.284308"/>
      </g>
      <path fill="#EB0100" d="M6.06132603 1.5234933L6.05507945 1.5234933C5.66428493 1.5234933 5.34724384 1.20061384 5.34724384.802622768 5.34724384.404520089 5.66428493.0819754464 6.05507945.0819754464L6.06132603.0819754464C6.45212055.0819754464 6.76905205.404520089 6.76905205.802622768 6.76905205 1.20061384 6.45212055 1.5234933 6.06132603 1.5234933M8.28703562 1.5234933L8.28078904 1.5234933C7.88988493 1.5234933 7.57295342 1.20061384 7.57295342.802622768 7.57295342.404520089 7.88988493.0819754464 8.28078904.0819754464L8.28703562.0819754464C8.67783014.0819754464 8.99476164.404520089 8.99476164.802622768 8.99476164 1.20061384 8.67783014 1.5234933 8.28703562 1.5234933M10.5127342 1.5234933L10.5064877 1.5234933C10.1156932 1.5234933 9.79865205 1.20061384 9.79865205.802622768 9.79865205.404520089 10.1156932.0819754464 10.5064877.0819754464L10.5127342.0819754464C10.9035288.0819754464 11.2204603.404520089 11.2204603.802622768 11.2204603 1.20061384 10.9035288 1.5234933 10.5127342 1.5234933M12.7383342 1.5234933L12.7321973 1.5234933C12.3412932 1.5234933 12.0243616 1.20061384 12.0243616.802622768 12.0243616.404520089 12.3412932.0819754464 12.7321973.0819754464L12.7383342.0819754464C13.1292384.0819754464 13.4461699.404520089 13.4461699.802622768 13.4461699 1.20061384 13.1292384 1.5234933 12.7383342 1.5234933M.788745205 4.32539062L.78249863 4.32539062C.39170411 4.32539062.0747726027 4.00273437.0747726027 3.6047433.0747726027 3.20641741.39170411 2.88387277.78249863 2.88387277L.788745205 2.88387277C1.17953973 2.88387277 1.49658082 3.20641741 1.49658082 3.6047433 1.49658082 4.00273437 1.17953973 4.32539062.788745205 4.32539062M3.01445479 4.32539062L3.00820822 4.32539062C2.6174137 4.32539062 2.3003726 4.00273437 2.3003726 3.6047433 2.3003726 3.20641741 2.6174137 2.88387277 3.00820822 2.88387277L3.01445479 2.88387277C3.40524932 2.88387277 3.72229041 3.20641741 3.72229041 3.6047433 3.72229041 4.00273437 3.40524932 4.32539062 3.01445479 4.32539062M5.24015342 4.32539062L5.23390685 4.32539062C4.84311233 4.32539062 4.52607123 4.00273437 4.52607123 3.6047433 4.52607123 3.20641741 4.84311233 2.88387277 5.23390685 2.88387277L5.24015342 2.88387277C5.63094795 2.88387277 5.94787945 3.20641741 5.94787945 3.6047433 5.94787945 4.00273437 5.63094795 4.32539062 5.24015342 4.32539062M7.46586301 4.32539062L7.45961644 4.32539062C7.06882192 4.32539062 6.75178082 4.00273437 6.75178082 3.6047433 6.75178082 3.20641741 7.06882192 2.88387277 7.45961644 2.88387277L7.46586301 2.88387277C7.85665753 2.88387277 8.17358904 3.20641741 8.17358904 3.6047433 8.17358904 4.00273437 7.85665753 4.32539062 7.46586301 4.32539062M9.6915726 4.32539062L9.68532603 4.32539062C9.29453151 4.32539062 8.97749041 4.00273437 8.97749041 3.6047433 8.97749041 3.20641741 9.29453151 2.88387277 9.68532603 2.88387277L9.6915726 2.88387277C10.0823671 2.88387277 10.3992986 3.20641741 10.3992986 3.6047433 10.3992986 4.00273437 10.0823671 4.32539062 9.6915726 4.32539062M4.12725479 5.68587054L4.12111781 5.68587054C3.7302137 5.68587054 3.41328219 6.00875 3.41328219 6.40662946 3.41328219 6.80484375 3.7302137 7.1275 4.12111781 7.1275L4.12725479 7.1275C4.5181589 7.1275 4.83509041 6.80484375 4.83509041 6.40662946 4.83509041 6.00875 4.5181589 5.68587054 4.12725479 5.68587054M6.35295342 5.68587054L6.34670685 5.68587054C6.31350137 5.68587054 6.28106301 5.68910714 6.24906301 5.69334821 5.90451507 5.74200893 5.63898082 6.04256696 5.63898082 6.40662946 5.63898082 6.59323661 5.70944658 6.76265625 5.82374795 6.89089286 5.95306301 7.03598214 6.13936438 7.1275 6.34670685 7.1275L6.35295342 7.1275C6.74374795 7.1275 7.06078904 6.80484375 7.06078904 6.40662946 7.06078904 6.00875 6.74374795 5.68587054 6.35295342 5.68587054M8.57866301 5.68587054L8.57241644 5.68587054C8.18162192 5.68587054 7.86469041 6.00875 7.86469041 6.40662946 7.86469041 6.80484375 8.18162192 7.1275 8.57241644 7.1275L8.57866301 7.1275C8.96945753 7.1275 9.28649863 6.80484375 9.28649863 6.40662946 9.28649863 6.00875 8.96945753 5.68587054 8.57866301 5.68587054M10.8043726 5.68587054L10.798126 5.68587054C10.4073315 5.68587054 10.0904 6.00875 10.0904 6.40662946 10.0904 6.80484375 10.4073315 7.1275 10.798126 7.1275L10.8043726 7.1275C11.1951671 7.1275 11.5122082 6.80484375 11.5122082 6.40662946 11.5122082 6.00875 11.1951671 5.68587054 10.8043726 5.68587054M13.0300712 5.68587054L13.0238247 5.68587054C12.6330301 5.68587054 12.315989 6.00875 12.315989 6.40662946 12.315989 6.56511161 12.368811 6.7103125 12.4539616 6.82928571 12.8453041 6.56433036 13.2129753 6.26232143 13.5532493 5.92660714 13.4240438 5.78051339 13.2388384 5.68587054 13.0300712 5.68587054" transform="translate(0 16.662)"/>
    </g>
  </g>
</svg>
