<svg xmlns="http://www.w3.org/2000/svg" width="64" height="44" viewBox="0 0 64 44">
  <g fill="none" fill-rule="evenodd">
    <rect width="64" height="44" fill="#263575" rx="2"/>
    <path fill="#FFF" fill-rule="nonzero" d="M21.825,18.08 C21.815,18.39 21.765,18.84 21.715,19.13 L19.885,19.13 L19.885,25 L18.675,25 L18.675,19.13 L16.745,19.13 C16.755,18.82 16.795,18.37 16.855,18.08 L21.825,18.08 Z M23.895,22.03 L23.895,23.96 L26.825,23.96 C26.815,24.27 26.775,24.71 26.715,25 L22.705,25 L22.705,18.08 L26.845,18.08 C26.835,18.39 26.795,18.84 26.735,19.12 L23.895,19.12 L23.895,20.99 L26.515,20.99 C26.515,21.31 26.465,21.74 26.405,22.03 L23.895,22.03 Z M28.055,25 L28.055,18.15 C28.355,18.07 28.865,17.99 29.245,17.99 L29.245,23.95 L31.755,23.95 C31.755,24.25 31.705,24.68 31.655,25 L28.055,25 Z M35.485,25.17 C33.375,25.17 32.235,23.67 32.235,21.53 C32.235,19.36 33.425,17.91 35.515,17.91 C36.175,17.91 36.715,18.03 37.085,18.22 C37.065,18.66 37.015,18.98 36.915,19.25 C36.575,19.07 36.085,18.96 35.595,18.96 C34.255,18.96 33.475,19.85 33.475,21.54 C33.475,23.22 34.335,24.11 35.585,24.11 C36.165,24.11 36.675,23.99 37.055,23.79 C37.025,24.15 36.975,24.52 36.875,24.95 C36.435,25.09 35.985,25.17 35.485,25.17 Z M39.395,22.03 L39.395,23.96 L42.325,23.96 C42.315,24.27 42.275,24.71 42.215,25 L38.205,25 L38.205,18.08 L42.345,18.08 C42.335,18.39 42.295,18.84 42.235,19.12 L39.395,19.12 L39.395,20.99 L42.015,20.99 C42.015,21.31 41.965,21.74 41.905,22.03 L39.395,22.03 Z M43.555,25 L43.555,18.15 C43.855,18.07 44.365,17.99 44.745,17.99 L44.745,23.95 L47.255,23.95 C47.255,24.25 47.205,24.68 47.155,25 L43.555,25 Z"/>
  </g>
</svg>
