<svg xmlns="http://www.w3.org/2000/svg" width="64" height="44" viewBox="0 0 64 44">
  <g fill="none" fill-rule="evenodd">
    <rect width="64" height="44" fill="#199CD7" rx="2"/>
    <path fill="#FFF" fill-rule="nonzero" d="M19.67,18.08 C19.66,18.39 19.61,18.84 19.56,19.13 L17.73,19.13 L17.73,25 L16.52,25 L16.52,19.13 L14.59,19.13 C14.6,18.82 14.64,18.37 14.7,18.08 L19.67,18.08 Z M21.74,22.03 L21.74,23.96 L24.67,23.96 C24.66,24.27 24.62,24.71 24.56,25 L20.55,25 L20.55,18.08 L24.69,18.08 C24.68,18.39 24.64,18.84 24.58,19.12 L21.74,19.12 L21.74,20.99 L24.36,20.99 C24.36,21.31 24.31,21.74 24.25,22.03 L21.74,22.03 Z M25.9,25 L25.9,18.15 C26.2,18.07 26.71,17.99 27.09,17.99 L27.09,23.95 L29.6,23.95 C29.6,24.25 29.55,24.68 29.5,25 L25.9,25 Z M37.26,17.99 L37.72,25 L36.56,25 L36.4,22.24 C36.35,21.42 36.32,20.59 36.31,19.75 C36,20.78 35.62,21.85 35.27,22.78 L34.45,25 L33.52,25 L32.69,22.73 C32.31,21.73 31.97,20.74 31.69,19.82 C31.68,20.64 31.63,21.57 31.58,22.4 L31.43,25 L30.29,25 L30.75,18.15 C31.15,18.04 31.77,17.99 32.19,17.99 L34.02,23.39 L35.78,18.15 C36.21,18.02 36.82,17.99 37.26,17.99 Z M40.38,22.03 L40.38,23.96 L43.31,23.96 C43.3,24.27 43.26,24.71 43.2,25 L39.19,25 L39.19,18.08 L43.33,18.08 C43.32,18.39 43.28,18.84 43.22,19.12 L40.38,19.12 L40.38,20.99 L43,20.99 C43,21.31 42.95,21.74 42.89,22.03 L40.38,22.03 Z M49.46,25 L48.1,25 L46.58,22.44 L45.05,25 L43.7,25 L45.98,21.45 L43.88,18.08 L45.24,18.08 L46.62,20.39 L47.97,18.08 L49.31,18.08 L47.23,21.39 L49.46,25 Z"/>
  </g>
</svg>
