<svg xmlns="http://www.w3.org/2000/svg" width="64" height="44" viewBox="0 0 64 44">
  <g fill="none" fill-rule="evenodd">
    <rect width="64" height="44" fill="#1F6E6A" rx="2"/>
    <path fill="#FFF" fill-rule="nonzero" d="M19.795,18.08 C19.785,18.39 19.735,18.84 19.685,19.13 L17.855,19.13 L17.855,25 L16.645,25 L16.645,19.13 L14.715,19.13 C14.725,18.82 14.765,18.37 14.825,18.08 L19.795,18.08 Z M21.865,22.03 L21.865,23.96 L24.795,23.96 C24.785,24.27 24.745,24.71 24.685,25 L20.675,25 L20.675,18.08 L24.815,18.08 C24.805,18.39 24.765,18.84 24.705,19.12 L21.865,19.12 L21.865,20.99 L24.485,20.99 C24.485,21.31 24.435,21.74 24.375,22.03 L21.865,22.03 Z M26.025,25 L26.025,18.15 C26.325,18.07 26.835,17.99 27.215,17.99 L27.215,23.95 L29.725,23.95 C29.725,24.25 29.675,24.68 29.625,25 L26.025,25 Z M34.625,18.15 C34.935,18.07 35.345,17.99 35.765,17.99 L35.765,25 L34.735,25 L32.335,21.05 C32.105,20.68 31.885,20.28 31.705,19.88 C31.725,20.69 31.735,21.63 31.735,22.44 L31.735,25 L30.605,25 L30.605,18.15 C30.915,18.06 31.365,17.99 31.725,17.99 L34.055,21.73 C34.255,22.06 34.475,22.49 34.685,22.92 C34.655,22.07 34.625,21.09 34.625,20.15 L34.625,18.15 Z M40.135,25.17 C38.085,25.17 37.015,23.72 37.015,21.54 C37.015,19.32 38.155,17.91 40.105,17.91 C42.165,17.91 43.225,19.38 43.225,21.54 C43.225,23.81 42.085,25.17 40.135,25.17 Z M40.135,24.11 C41.355,24.11 41.985,23.25 41.985,21.54 C41.985,19.88 41.335,18.96 40.105,18.96 C38.895,18.96 38.255,19.87 38.255,21.54 C38.255,23.2 38.915,24.11 40.135,24.11 Z M47.845,24.99 L46.475,22.39 L45.675,22.39 L45.675,25 L44.485,25 L44.485,18.12 C44.975,18 45.605,17.92 46.335,17.92 C48.285,17.92 48.985,19.03 48.985,20.11 C48.985,21.16 48.415,21.83 47.595,22.17 L49.205,24.99 L47.845,24.99 Z M45.675,21.39 L46.335,21.39 C47.225,21.39 47.745,21.05 47.745,20.17 C47.745,19.37 47.275,18.92 46.325,18.92 C46.115,18.92 45.895,18.93 45.675,18.95 L45.675,21.39 Z"/>
  </g>
</svg>
