<svg xmlns="http://www.w3.org/2000/svg" width="64" height="44" viewBox="0 0 64 44">
  <g fill="none" fill-rule="evenodd">
    <rect width="64" height="44" fill="#39455B" rx="2"/>
    <path fill="#FFF" fill-rule="nonzero" d="M31.695,18.08 C31.685,18.39 31.635,18.84 31.585,19.13 L29.755,19.13 L29.755,25 L28.545,25 L28.545,19.13 L26.615,19.13 C26.625,18.82 26.665,18.37 26.725,18.08 L31.695,18.08 Z M34.465,17.91 C36.565,17.91 37.245,19.01 37.245,20.24 C37.245,21.69 36.295,22.68 34.545,22.68 L33.765,22.68 L33.765,25 L32.575,25 L32.575,18.08 C33.065,17.99 33.845,17.91 34.465,17.91 Z M34.545,21.68 C35.545,21.66 36.005,21.12 36.005,20.29 C36.005,19.45 35.585,18.92 34.485,18.92 C34.295,18.92 34.025,18.93 33.765,18.96 L33.765,21.69 L34.545,21.68 Z"/>
  </g>
</svg>
