<svg xmlns="http://www.w3.org/2000/svg" xmlns:xlink="http://www.w3.org/1999/xlink" width="266" height="168" viewBox="0 0 266 168">
  <defs>
    <rect id="big---1.-front-a" width="266" height="168" x="0" y="0" rx="10"/>
    <linearGradient id="big---1.-front-c" x1="18.261%" x2="95.489%" y1="32.541%" y2="78.612%">
      <stop offset="0%" stop-color="#FEFEFE"/>
      <stop offset="100%" stop-color="#E4E4E0"/>
    </linearGradient>
    <filter id="big---1.-front-d" width="187.4%" height="344.4%" x="-43.7%" y="-122.2%" filterUnits="objectBoundingBox">
      <feGaussianBlur in="SourceGraphic" stdDeviation="22"/>
    </filter>
    <filter id="big---1.-front-e" width="217.6%" height="233.3%" x="-58.8%" y="-66.7%" filterUnits="objectBoundingBox">
      <feGaussianBlur in="SourceGraphic" stdDeviation="10"/>
    </filter>
    <linearGradient id="big---1.-front-f" x1="4.914%" x2="86.515%" y1="42.733%" y2="42.733%">
      <stop offset="0%" stop-color="#C8C8C5"/>
      <stop offset="44.22%" stop-color="#D9D9DA"/>
      <stop offset="100%" stop-color="#C6C6C5"/>
    </linearGradient>
    <linearGradient id="big---1.-front-g" x1="1.9%" x2="50%" y1="45.025%" y2="55.211%">
      <stop offset="0%" stop-color="#4C4C4C"/>
      <stop offset="100%" stop-color="#2B2B2A"/>
    </linearGradient>
  </defs>
  <g fill="none" fill-rule="evenodd">
    <mask id="big---1.-front-b" fill="#fff">
      <use xlink:href="#big---1.-front-a"/>
    </mask>
    <g mask="url(#big---1.-front-b)">
      <g transform="translate(-24)">
        <rect width="266" height="168" x="24" fill="url(#big---1.-front-c)"/>
        <ellipse cx="168.5" cy="84" fill="#EAEAE9" filter="url(#big---1.-front-d)" opacity=".816" rx="75.5" ry="27" style="mix-blend-mode:soft-light"/>
        <ellipse cx="139.5" cy="95.5" fill="#E8E8E7" filter="url(#big---1.-front-e)" opacity=".74" rx="25.5" ry="22.5" style="mix-blend-mode:hard-light"/>
        <path fill="url(#big---1.-front-f)" fill-opacity=".4" d="M1.05295505,75.0119944 C3.72983265,72.5543141 6.34441467,70.0230451 9.12893537,67.6938023 C9.76975531,67.157656 10.9932221,67.176853 11.9491844,67.1750248 C26.835079,67.145315 41.7214317,67.1635979 56.6073264,67.1338882 C57.6494031,67.1316028 58.7546916,67.0081932 59.7170666,66.6443633 C61.273998,66.0556536 61.8195424,64.7031753 61.5662376,63.1189611 C61.3243841,61.6051361 60.3885763,60.6818491 58.8133227,60.5269014 C58.2077731,60.467482 57.5958106,60.4661107 56.9865965,60.4656537 C45.0029429,60.4597117 33.0197473,60.4619971 21.0360937,60.4450854 C20.0911247,60.4437142 19.1466139,60.3093348 18.202103,60.2362031 L17.939179,59.6369807 C20.8093561,57.1043406 23.6337277,54.5173087 26.5895612,52.0893382 C27.1282347,51.6464347 28.2019173,51.7730439 29.0287079,51.7712156 C38.2654014,51.7515614 47.5025529,51.767559 56.7397045,51.7456195 C57.7231501,51.742877 59.062047,51.9215925 59.6089655,51.3827037 C60.5273672,50.4776996 61.437982,49.0685443 61.4508075,47.8618722 C61.4695878,46.1030562 60.0752662,45.0988674 58.1807478,45.1002386 C51.3946523,45.1061805 44.609473,45.1034381 37.8233776,45.1043522 L34.9087691,45.1043522 C34.8226546,44.9242656 34.7365401,44.744636 34.6504257,44.5645493 C37.5315961,41.9322673 40.3976507,39.2835306 43.2962273,36.6709027 C52.0020342,28.8243346 60.7247892,20.9978776 69.4273898,13.14811 C71.0342492,11.6987323 70.3874745,10.3307135 69.1603433,9.01845757 C67.1723815,6.89124093 67.4632468,5.93138813 70.3031923,5.30337015 C85.6595101,1.90777659 101.218747,-0.0324972868 116.930516,-1.27897692e-13 C125.207125,0.0177807172 133.497017,1.01694178 141.752097,1.85338493 C147.344041,2.42015516 152.926366,3.27716659 158.43586,4.38373975 C161.895097,5.07849035 165.31036,6.24539712 168.56622,7.62210028 C171.817958,8.99651808 173.490319,12.0351378 174.905254,15.1194648 C175.072444,15.484666 174.927698,15.9920167 174.927698,16.6122645 C173.706064,16.6122645 172.581537,16.6707698 171.465255,16.6026659 C164.095597,16.1547346 156.732351,15.5765376 149.357654,15.2693847 C146.796206,15.1628867 144.203611,15.6729799 141.634835,15.9833323 C141.213881,16.0340674 140.845147,16.5107943 140.451677,16.7905228 C140.955538,17.2997019 141.370078,17.9949096 141.978376,18.2860649 C144.369885,19.430118 146.923088,20.2688466 149.224818,21.5614483 C151.598463,22.8942725 153.798962,24.5575603 155.977017,26.2057647 C157.014513,26.9910157 157.773054,27.2186379 159.015301,26.5129176 C168.077017,21.3621646 177.950408,19.6042628 188.143064,20.9494279 C200.033732,22.5185587 209.405552,31.2824719 212.085178,43.0603228 C212.551937,45.1144078 212.842802,47.2361396 212.943116,49.3395885 C213.068624,51.9778124 211.915239,52.6492523 209.338676,51.7369351 C205.763551,50.4708435 202.252554,48.915882 198.579863,48.0542998 C191.273875,46.340277 183.931699,44.5613498 176.500204,43.6613735 C169.571195,42.8221879 162.474079,42.5657701 155.513923,43.0159868 C148.73424,43.4547766 141.931655,44.7062419 135.328782,46.3562745 C128.949898,47.9505443 125.48379,53.8376415 125.477835,61.3871124 C125.461345,81.040327 125.616626,100.69537 125.364696,120.345842 C125.305148,124.973247 123.892047,129.581454 123.127552,134.202917 C122.795919,136.208552 121.561917,136.603463 119.69305,136.599832 C94.1958365,136.549529 68.6990812,136.565526 43.2018678,136.564612 C39.3848895,136.564612 35.5669952,136.51662 31.751391,136.583809 C30.1894211,136.611234 29.5554719,136.055433 29.5824972,134.465734 C29.7153334,126.710123 28.6031741,128.110137 35.7131149,128.091397 C60.0592343,128.02695 84.4058116,128.063516 108.751931,128.06763 C110.658817,128.068087 112.536387,128.05666 112.8868,125.547787 C113.224387,123.1349 111.770976,121.500865 109.210445,121.493552 C102.034544,121.473441 94.8586431,121.485782 87.6827422,121.485782 C69.3614297,121.485325 51.0401172,121.487153 32.7188047,121.483953 C29.6076903,121.483496 29.6076903,121.474355 29.5944067,118.294043 C29.57242,112.949491 29.57242,112.949491 34.8657119,112.949491 C59.3703185,112.949491 83.8749251,112.936693 108.380448,112.972344 C110.503994,112.975544 112.214374,112.528527 112.788318,110.269673 C113.350352,108.055156 111.848388,106.403752 109.30343,106.398724 C99.3036157,106.379527 89.3033434,106.39004 79.303071,106.39004 C53.883269,106.389582 28.4630091,106.390497 3.04274908,106.388211 C0.0104202389,106.387754 0.0104202389,106.37907 8.52651283e-14,103.424551 C-0.0152308812,97.7829023 -0.0152308812,97.7833594 5.63442831,97.7838165 C30.8261185,97.7842736 56.0178087,97.7879302 81.2094989,97.7737609 C82.3473093,97.7728467 83.5148933,97.743137 84.6146851,97.4912899 C86.3836962,97.0844952 87.3776771,95.9134747 87.2095707,94.0189081 C87.0446706,92.1604503 85.905028,91.1576326 84.1181527,90.8993865 C83.3696896,90.7906032 82.5942013,90.8623636 81.8310805,90.8623636 C55.5702882,90.8614495 29.309496,90.8623636 3.0487038,90.8605353 C0.0104202389,90.8600783 0.0104202389,90.8532222 8.52651283e-14,87.9096736 C-0.0152308812,82.2803654 -0.0152308812,82.2744235 5.61473192,82.2739664 C31.0052183,82.271224 56.3947885,82.2721381 81.7852749,82.2716811 C82.2428726,82.2716811 82.7004702,82.2771659 83.1580679,82.2735093 C85.9118988,82.2520269 87.2833177,81.2469239 87.3511099,79.2019804 C87.4253149,76.9655233 85.8729641,75.6614948 83.0055353,75.6601235 C56.5990814,75.6477826 30.1926274,75.6486967 3.7861735,75.6459543 L1.33007876,75.6459543 C1.2375515,75.4347867 1.1454823,75.223162 1.05295505,75.0119944 Z M161.809944,127.795854 C157.536743,127.795854 153.25667,127.647762 148.991713,127.829677 C142.02148,128.127232 133.204365,121.584235 133.147566,112.371019 C133.04771,96.2285807 133.024807,80.0838566 133.156727,63.9414178 C133.2291,55.1217417 142.449304,48.4841311 150.871116,51.3700885 C156.159369,53.182382 161.161796,55.8512299 166.226976,58.2728014 C167.768791,59.0096027 168.967981,59.1380401 170.377877,58.0552347 C172.791372,56.2027188 175.279989,54.4434458 177.793799,52.7266805 C180.952093,50.569297 183.771426,51.0126576 185.356757,54.4841252 C189.200302,62.8979207 192.72046,71.4598077 196.319862,79.9833006 C196.847084,81.2320233 197.091686,82.599128 197.474621,83.9086414 C198.78466,88.3888687 197.668836,90.5334541 193.087363,90.6408662 C187.127142,90.7811875 186.2889,92.869553 186.328293,98.4060754 C186.375014,104.942673 186.424943,111.489326 186.118503,118.015411 C185.873901,123.225583 181.003395,127.639535 175.774231,127.758831 C171.121759,127.864872 166.465165,127.781228 161.809944,127.781228 L161.809944,127.795854 Z M118.742447,144.310304 C116.893276,146.680227 115.119684,149.11551 113.140883,151.372536 C112.649848,151.933364 111.497838,152.131733 110.648144,152.133105 C94.203486,152.158244 77.7579116,152.09791 61.3132534,152.155563 C59.5291264,152.162357 58.9890787,151.599244 59.106799,149.94464 C59.1979521,148.657066 59.2428416,147.34481 59.0976379,146.067292 C58.8640295,144.007722 59.7352515,143.494887 61.6957299,143.502123 C79.2126966,143.570304 96.7301213,143.549735 114.247546,143.55522 C115.601559,143.555677 116.955113,143.55522 118.30821,143.55522 C118.452956,143.80661 118.597701,144.058457 118.742447,144.310304 Z M59.1240677,158.809841 L104.615871,158.809841 C100.909742,161.645977 97.2874377,163.268129 93.5483289,164.649402 C87.4722198,166.895001 81.1377673,167.584267 74.7066651,167.61032 C70.5113328,167.627231 66.3160005,167.620832 62.1211263,167.61032 C59.1323127,167.60255 59.1309385,167.592037 59.1249838,164.515937 C59.1213194,162.703187 59.1240677,160.889522 59.1240677,158.809841 Z" transform="translate(0 20)" style="mix-blend-mode:multiply"/>
        <path fill="#77777A" d="M49.9781642,19.3286443 C49.9533485,18.7520768 49.7929928,18.1801004 49.4963179,17.6631044 L46.879659,13.1025216 C46.6801323,12.7548342 46.5422553,12.3820641 46.4658053,12 L46.3564162,12.1904722 C45.7087614,13.3193083 45.7087614,14.7099456 46.3563049,15.8387817 L48.4497211,19.4872032 C49.0972646,20.6160392 49.0972646,22.0067886 48.4497211,23.1355127 L48.340332,23.3260968 C48.2637707,22.9439207 48.1258937,22.5712626 47.926367,22.2235753 L46.0099988,18.8834254 L44.7863541,16.7508311 C44.5868274,16.4031437 44.4490617,16.0303737 44.3723891,15.6483095 L44.2631113,15.8388937 C43.6176821,16.9638106 43.615679,18.3489611 44.2567683,19.4756696 L44.2565457,19.4757816 L46.3564162,23.1355127 C47.004071,24.2643488 47.004071,25.6550981 46.3564162,26.7839342 L46.2470271,26.9745183 C46.1704658,26.5923422 46.0325888,26.2196841 45.8330621,25.8718848 L43.2165145,21.3114139 C42.8655345,20.6996858 42.7051788,20.0111417 42.7345569,19.3290922 C39.9333943,20.0654503 38,21.6290915 38,23.4395291 C38,25.9582187 41.7412637,28 46.3564162,28 C50.9714574,28 54.7127211,25.9582187 54.7127211,23.4395291 C54.7127211,21.6290915 52.7795494,20.0650024 49.9781642,19.3286443"/>
        <path fill="url(#big---1.-front-g)" d="M14.5825127,11.2189127 L9.55417846,23.2105741 L6.27340125,23.2105741 L3.79871723,13.6401904 C3.64887758,13.0520923 3.51841164,12.835631 3.0617808,12.5870559 C2.31552538,12.1818345 1.08321072,11.8028434 -3.55271368e-15,11.5670158 L0.073080551,11.2189127 L5.35474441,11.2189127 C6.02693834,11.2189127 6.63218262,11.6662987 6.78594607,12.4409507 L8.09354838,19.3807046 L11.3215997,11.2189127 L14.5825127,11.2189127 Z M19.0176194,11.2189127 L16.451462,23.2105741 L13.3477457,23.2105741 L15.9139031,11.2189127 L19.0176194,11.2189127 Z M27.436597,19.2953948 C27.4495945,16.1310887 23.0596114,15.9555663 23.0883042,14.5415813 C23.0988494,14.1118456 23.5083948,13.6541635 24.4049803,13.5372303 C24.849104,13.4798669 26.0760235,13.4340251 27.4657802,14.0740935 L28.00947,11.5297541 C27.262724,11.2598516 26.3018864,11 25.1066025,11 C22.0384455,11 19.880117,12.6289754 19.8629505,14.9634724 C19.842841,16.6902599 21.4045086,17.6526914 22.5789473,18.227797 C23.7887003,18.8151596 24.1943219,19.1926799 24.1886815,19.7175311 C24.1800982,20.5220906 23.2226939,20.8782834 22.3324845,20.8915211 C20.7715526,20.9162806 19.8666289,20.4698751 19.1448973,20.133784 L18.5815885,22.7624527 C19.3077345,23.0951118 20.6459913,23.3841354 22.0320695,23.3988439 C25.2937183,23.3988439 27.4270328,21.7884994 27.436597,19.2953948 L27.436597,19.2953948 Z M35.5384834,23.2105741 L38.4079986,23.2105741 L35.9009433,11.2189127 L33.2533675,11.2189127 C32.6562159,11.2189127 32.1544615,11.5652998 31.9317866,12.0979956 L27.2747407,23.2105741 L30.5339371,23.2105741 L31.1803811,21.419314 L35.1622903,21.419314 L35.5384834,23.2105741 Z M32.0740239,18.9620004 L33.7082815,14.458723 L34.6470479,18.9620004 L32.0740239,18.9620004 Z" transform="translate(239 132)"/>
      </g>
    </g>
  </g>
</svg>
