<svg xmlns="http://www.w3.org/2000/svg" width="151" height="241" fill="none"><g clip-path="url(#a)"><rect width="151" height="241" fill="#fff" rx="10"/><path fill="url(#b)" d="M164.4-9.9H-16.1v262.7h180.5V-9.9Z"/><path fill="#C2BCB8" d="M126 231.3v4.3h-.6v-4.3h.6ZM127.2 233.4v-.8h.5v.5c.2-.3.5-.6 1-.6.4 0 1.1.3 1.1 1.3v1.9h-.6v-1.8c0-.5-.2-.9-.7-.9-.4 0-.7.3-.8.6V235.8h-.6v-2.4h.1ZM131 235.6v-2.7h-.4v-.4h.4v-.1c0-.4.1-.8.4-1.1.2-.2.5-.3.8-.3.2 0 .4 0 .5.1l-.1.4c-.1 0-.2-.1-.4-.1-.5 0-.6.4-.6.9v.2h.8v.4h-.8v2.7h-.6ZM133.6 231.6c0 .2-.1.3-.4.3-.2 0-.3-.2-.3-.3 0-.2.1-.4.4-.4.2.1.3.2.3.4Zm-.6 4v-3.1h.6v3.1h-.6ZM134.6 233.4v-.8h.5v.5c.2-.3.5-.6 1-.6.4 0 1.1.3 1.1 1.3v1.9h-.6v-1.8c0-.5-.2-.9-.7-.9-.4 0-.7.3-.8.6V235.8h-.6v-2.4h.1ZM139 231.6c0 .2-.1.3-.4.3-.2 0-.3-.2-.3-.3 0-.2.1-.4.4-.4.2.1.3.2.3.4Zm-.6 4v-3.1h.6v3.1h-.6ZM140.7 231.6v.9h.8v.4h-.8v1.7c0 .4.1.6.4.6h.3v.4c-.1 0-.3.1-.5.1-.3 0-.5-.1-.6-.2-.2-.2-.2-.4-.2-.8V233h-.5v-.4h.5v-.7l.6-.3ZM142.6 234.2c0 .8.5 1.1 1.1 1.1.4 0 .6-.1.9-.2l.1.4c-.2.1-.5.2-1 .2-1 0-1.5-.6-1.5-1.6 0-.9.6-1.7 1.5-1.7 1 0 1.3.9 1.3 1.5v.3h-2.4Zm1.6-.4c0-.4-.1-.9-.8-.9-.6 0-.8.5-.9.9h1.7Z"/><path fill="url(#c)" d="M124.4 226.8c.7.3 1.9.5 3.2.5 3.2 0 5.3-1.6 5.3-4 0-1.8-1.5-2.6-2.8-3.2-1-.5-1.8-1-1.8-1.8 0-.5.5-1.2 1.7-1.4.4-.1 1.6-.1 3 .4l.4-2c-.6-.2-1.5-.4-2.6-.4-3 0-5.1 1.6-5.2 3.8 0 1.6 1.5 2.6 2.7 3.1 1.2.6 1.9 1.1 1.9 1.9 0 1.1-1.2 1.6-2.3 1.6h-.1c-1.4 0-2.3-.3-3-.6l-.4 2.1Zm17.7.3h2.3l-2.5-11.9h-2.5c-.5 0-.9.3-1.1.7l-4.7 11.2h2.6l.7-1.9h4.7l.5 1.9Zm-23.2 0h2.5l2.5-11.9h-2.5l-2.5 11.9Zm-7.6 0h2.9l5-11.9h-2.7l-3.8 9.5-1.6-8.5c-.1-.6-.6-1-1.2-1h-4.3c.7.2 1.5.5 2 .8.6.3.8.7 1 1.3l2.7 9.8Zm30-3.7h-3.6l2.3-6.4 1.3 6.4Z"/><path fill="url(#d)" d="M124.9 224.7c.7.3 1.6.6 3 .6h.1c1.1 0 2.3-.5 2.3-1.6 0-.8-.7-1.3-1.9-1.9-1.2-.6-2.7-1.5-2.7-3.1 0-2.2 2.1-3.8 5.2-3.8 1.1 0 2 .2 2.6.4l.4-.2c-.8-.3-1.8-.6-3.1-.6-3.2 0-5.5 1.7-5.5 4.2 0 1.8 1.6 2.8 2.9 3.4 1.3.6 1.7 1 1.7 1.6 0 .8-1 1.2-2 1.2-1.6 0-2.6-.4-3.4-.8l.4.6Z"/><path fill="url(#e)" d="m124.4 226.8.4-2-.3-.5-.5 2.7.4-.2Zm-11.4-3.4 3.4-8.6.2.4-3.8 9.5.2-1.3Zm-1.7 3.7-2.5-9.8c-.2-.7-.3-1-1-1.3-.5-.3-1.3-.6-2-.8l-1.3-.4-.1.4c1.1.2 2.4.6 3.2 1.1.5.3.6.5.8 1.1l2.6 10.1.3-.4Zm7.2.4 2.7-12.6.3.4-2.5 11.9-.5.3Zm23.4-12.3.3-.4h-2.8c-.6 0-1.2.4-1.4.9l-4.9 11.7.5-.4 4.7-11.2c.2-.4.6-.7 1.1-.7m1.9 8.3L140 217l-.1 1.3 1 4.7.4.4Zm.8 3.7-.4-1.9-.3.4.4 1.9.3-.4Z"/><path fill="url(#f)" d="m140 217-2.3 6.4.5-.4 1.7-4.7.1-1.3Zm-6.1-1.8-.6 2.7-.3-.5.4-2 .5-.2Zm11 12.3-2.6-12.6-.3.4 2.5 11.9.4.3Zm-23.4-.4 2.5-11.9.4-.4-2.7 12.6-.2-.3Zm-1.7-12.2-5.3 12.6-.2-.4 5-11.9.5-.3Zm16.8 12.6.7-1.9-.2-.4-.7 1.9.2.4Z"/><path fill="url(#g)" d="M141.7 225.2H137l.2.4h4.2l.3-.4Zm-5.1 2.3h-3.4l.5-.4h2.6l.3.4Zm8.3 0h-3l.3-.4h2.3l.4.4Zm-33.8 0h3.5l-.2-.4h-2.9l-.4.4Zm7.8-.4h2.5l.3.4h-3.3l.5-.4Z"/><path fill="url(#h)" d="M105.8 215.2h4.3c.6 0 1 .4 1.2 1l1.6 8.5.1-1.3-1.4-7.3c-.2-.8-.8-1.3-1.5-1.3h-5.6l1.3.4ZM124 227c.8.4 2.2.7 3.6.7 3.4 0 5.7-1.7 5.7-4.3 0-3.3-4.6-3.5-4.6-5 0-.5.4-.9 1.4-1.1.5-.1 1.8-.1 3.2.6l-.3-.5c-1.4-.6-2.6-.5-3-.4-1.2.2-1.7.9-1.7 1.4 0 .8.8 1.3 1.8 1.8 1.3.7 2.8 1.5 2.8 3.2 0 2.4-2.1 4-5.3 4-1.3 0-2.5-.3-3.2-.5l-.4.1Z"/><path fill="url(#i)" d="M140.9 223h-2.7l-.5.4h3.6l-.4-.4Zm-21.1-8.1h-3.4l.2.4h2.7l.5-.4Zm4.2.3h-2.5l-.3-.4h3.3l-.5.4Z"/><g fill="#fff" stroke="#000" stroke-linecap="round" stroke-linejoin="round" stroke-width="1.004" opacity=".29"><path d="M88.5 32.1c.2 0 .4.1.5.1.2.1.5.2.9.4l.6-.4c.2-.1.4 0 .5.1.2.4.6 1.3.8 2 0 .1 0 .2-.2.3-.1 0-.2 0-.4.1-.2 0-.2.2-.2.3v1.3c0 .2-.1.8-.8.8h-1.6c-.6 0-1.1-.5-1.1-1v-3c.1-.7.6-1 1-1Z"/><path d="M86 37h-5v.6h5.9s.2-.5.2-1v-3.8c0-.3.1-.8.7-.9h.1c1.7-.4 3.5 0 4.6.4.2.1.2-.1.2-.1 0-.9-.6-1.8-1.8-1.9-1 0-1.5.3-1.7.4h-.1c-.2-.2-.6-.4-1-.6-.1 0-.1-.1 0-.1.9-.1 1.7 0 2.1.1.1 0 .1 0 .1-.1s0-.1-.1-.2c-.1-.2-.3-.4-.6-.4-.7-.2-2-.4-3-.4-1.2 0-2.5.2-2.9.3h-.2c-.1 0-.1.1-.1.1l.1.1c0 .1.1.1 0 .2l-2.3 2h1.6c.1 0 .2.1.2.2s-.1.2-.2.2h-2l-.6.6h2.7c.1 0 .2.1.2.2s-.1.2-.2.2h-3.1l-.6.6h5.4c.1 0 .2.1.2.2s-.1.2-.2.2h-5.4v.6h5.4c.1 0 .2.1.2.2s-.1.2-.2.2h-5.4v.6h7c.1 0 .2.1.2.2s-.1.2-.2.2H81v.6h5.1c.1 0 .2.1.2.2s-.1.2-.2.2H86V37ZM82.9 38.9v.6h1.2c1.1 0 1.8-.6 1.8-.6h-3ZM82.9 37.9v.6h3.4c.2-.2.4-.5.4-.6h-3.8ZM135.7 36.4h-.2c-.2 0-.4-.1-.5-.2l-.1-.1c-.2-.3-.3-.7-.4-1-.1-.8.1-1.9 1.1-2h.2c1 .1 1.1 1.2 1.1 2 0 .3-.1.8-.4 1l-.1.1c-.3.1-.5.2-.7.2Zm2.3-1.9c0-.5-.2-.9-.4-1.2-.4-.7-1.2-1-2.1-1-.9 0-1.6.3-2.1 1-.2.3-.3.7-.4 1.1-.1 1.5.7 2.5 2.2 2.6h.6c1.5 0 2.4-1.1 2.2-2.5ZM128.4 33.4v-1h-1.2V37h1.2v-3.6ZM121.5 36.3h-.8V34.9h1.4v-.6h-1.4v-1.2h1.7v-.7h-2.9V37h3v-.7c-.1-.1-.6 0-1 0ZM101.6 36.3h-.8V34.9h1.4v-.6h-1.4v-1.2h1.7v-.7h-2.9V37h3v-.7c0-.1-.6 0-1 0Z"/><path d="m125.3 34.5 1.3-2.1h-.9c-.3.5-.6 1.1-.8 1.3l-.1.1-.8-1.4h-1.4l1.3 2.4-1.4 2.2h.9l.9-1.5.8 1.5h1.4l-1.2-2.5ZM132.1 36.4c-1.1 0-1.6-.8-1.6-1.7 0-.8.4-1.5 1.3-1.6.3 0 .6 0 1.1.2l-.1-.7s-.4-.1-1-.2c-.8 0-1.4.1-2 .6-.5.4-.8 1.1-.8 1.7 0 .7.3 1.4.8 1.8.6.5 1.2.6 1.9.6.5 0 .8 0 1.2-.2l-.1-.7c.1 0-.2.2-.7.2ZM116.8 31.7h1.3v.3c.3 3.1.5 5 .5 5h-1.4l-.1-1.9-.1-1.7-1.2 3.6h-.7s-.4-1.3-.4-1.4l-.7-2.1s-.1 1.2-.1 1.7c-.1 1-.2 1.9-.2 1.9h-1s.4-4.3.5-4.5c0-.3.1-.7.1-.7h1.4l1.1 3.1 1-3.3ZM109.8 36.4h-.2c-.2 0-.4-.1-.5-.2l-.1-.1c-.2-.3-.3-.7-.4-1-.1-.8.1-1.9 1.1-2h.2c1 .1 1.1 1.2 1.1 2 0 .3-.1.8-.4 1l-.1.1c-.3.1-.5.2-.7.2Zm2.3-1.9c0-.5-.2-.9-.4-1.2-.4-.7-1.2-1-2.1-1-.9 0-1.6.3-2.1 1-.2.3-.3.7-.4 1.1-.1 1.5.7 2.5 2.2 2.6h.6c1.5-.1 2.4-1.1 2.2-2.5ZM96 34.7l.6-1.7v-.1l.6 1.8H96Zm3.3 2.3c0-.1-.3-.7-.5-1.1l-1.5-4.1h-1.2s-.3 1-.4 1.1l-1.1 3.2c-.1.4-.4.9-.4.9h1s.3-.9.3-1l.2-.4h1.7l.2.7c0 .1.3.8.3.8h1.4V37Z"/><path d="M105.3 34.4c-.2.1-.6.1-.8.1v-1.3h.1c.4 0 .6 0 .7.1.2.1.3.2.3.5s-.1.5-.3.6Zm2.1 2.6c-.3-.4-.4-.6-.6-.9l-.8-1.3c.4-.2.8-.5.8-1.2 0-.4-.2-.8-.3-.9-.2-.2-.4-.2-.7-.3h-2.4V37h1.2v-1.8h.4l.8 1.4c.1.2.2.4.3.4h1.3ZM138.3 36.5c.1 0 .2 0 .2-.1s-.1-.1-.1-.1h-.1v.2Zm-.1-.2h.2c.1 0 .2 0 .2.2 0 .1 0 .1-.1.1l.1.2h-.1l-.1-.2h-.1v.2h-.1v-.5Zm.5.2c0-.2-.2-.4-.3-.4-.2 0-.3.2-.3.4s.2.4.3.4c.2 0 .3-.2.3-.4Zm-.8 0c0-.2.2-.5.4-.5s.4.2.4.5c0 .2-.2.5-.4.5s-.4-.2-.4-.5ZM125.4 38.4c-8.9-1.9-12.6 1.1-12.6 1.1s4.1-2.4 12.6-.6c8.7 1.9 12.6-1.3 12.6-1.3s-4.4 2.5-12.6.8Z"/></g><path fill="#fff" d="M88.5 32c.2 0 .4.1.5.1.2.1.5.2.9.4l.6-.4c.2-.1.4 0 .5.1.2.4.6 1.3.8 2 0 .1 0 .2-.2.3-.1 0-.2 0-.4.1-.2 0-.2.2-.2.3v1.3c0 .2-.1.8-.8.8h-1.6c-.6 0-1.1-.5-1.1-1v-3c.1-.6.6-1 1-1Z"/><path fill="#fff" d="M86 36.9h-5v.6h5.9s.2-.5.2-1v-3.8c0-.3.1-.8.7-.9h.1c1.7-.4 3.5 0 4.6.4.2.1.2-.1.2-.1 0-.9-.6-1.8-1.8-1.9-1 0-1.5.3-1.7.4h-.1c-.2-.2-.6-.4-1-.6-.1 0-.1-.1 0-.1.9-.1 1.7 0 2.1.1.1 0 .1 0 .1-.1s0-.1-.1-.2c-.1-.2-.3-.4-.6-.4-.7-.2-2-.4-3-.4-1.2 0-2.5.2-2.9.3h-.2c-.1 0-.1.1-.1.1l.1.1c0 .1.1.1 0 .2l-2.3 2h1.6c.1 0 .2.1.2.2s-.1.2-.2.2h-2l-.6.6h2.7c.1 0 .2.1.2.2s-.1.2-.2.2h-3.1l-.6.6h5.4c.1 0 .2.1.2.2s-.1.2-.2.2h-5.4v.6h5.4c.1 0 .2.1.2.2s-.1.2-.2.2h-5.4v.6h7c.1 0 .2.1.2.2s-.1.2-.2.2H81v.6h5.1c.1 0 .2.1.2.2s-.1.2-.2.2H86v-.1ZM82.9 38.9v.6h1.2c1.1 0 1.8-.6 1.8-.6h-3ZM82.9 37.9v.6h3.4c.2-.2.4-.5.4-.6h-3.8ZM135.7 36.3h-.2c-.2 0-.4-.1-.5-.2l-.1-.1c-.2-.3-.3-.7-.4-1-.1-.8.1-1.9 1.1-2h.2c1 .1 1.1 1.2 1.1 2 0 .3-.1.8-.4 1l-.1.1c-.3.1-.5.2-.7.2Zm2.3-1.9c0-.5-.2-.9-.4-1.2-.4-.7-1.2-1-2.1-1-.9 0-1.6.3-2.1 1-.2.3-.3.7-.4 1.1-.1 1.5.7 2.5 2.2 2.6h.6c1.5 0 2.4-1 2.2-2.5ZM128.4 33.3v-1h-1.2v4.6h1.2v-3.6ZM121.5 36.2h-.8V34.8h1.4v-.6h-1.4V33h1.7v-.7h-2.9v4.6h3v-.7h-1ZM101.6 36.2h-.8V34.8h1.4v-.6h-1.4V33h1.7v-.7h-2.9v4.6h3v-.7h-1ZM125.3 34.5l1.3-2.1h-.9c-.3.5-.6 1.1-.8 1.3l-.1.1-.8-1.4h-1.4l1.3 2.4-1.4 2.2h.9l.9-1.5.8 1.5h1.4l-1.2-2.5ZM132.1 36.3c-1.1 0-1.6-.8-1.6-1.7 0-.8.4-1.5 1.3-1.6.3 0 .6 0 1.1.2l-.1-.7s-.4-.1-1-.2c-.8 0-1.4.1-2 .6-.5.4-.8 1.1-.8 1.7 0 .7.3 1.4.8 1.8.6.5 1.2.6 1.9.6.5 0 .8 0 1.2-.2l-.1-.7c.1.1-.2.2-.7.2ZM116.8 31.7h1.3v.3c.3 3.1.5 5 .5 5h-1.4l-.1-1.9-.1-1.7-1.2 3.6h-.7s-.4-1.3-.4-1.4l-.7-2.1s-.1 1.2-.1 1.7c-.1 1-.2 1.9-.2 1.9h-1s.4-4.3.5-4.5c0-.3.1-.7.1-.7h1.4l1.1 3.1 1-3.3ZM109.8 36.3h-.2c-.2 0-.4-.1-.5-.2l-.1-.1c-.2-.3-.3-.7-.4-1-.1-.8.1-1.9 1.1-2h.2c1 .1 1.1 1.2 1.1 2 0 .3-.1.8-.4 1l-.1.1c-.3.1-.5.2-.7.2Zm2.3-1.9c0-.5-.2-.9-.4-1.2-.4-.7-1.2-1-2.1-1-.9 0-1.6.3-2.1 1-.2.3-.3.7-.4 1.1-.1 1.5.7 2.5 2.2 2.6h.6c1.5 0 2.4-1 2.2-2.5ZM96 34.7l.6-1.7v-.1l.6 1.8H96Zm3.3 2.2c0-.1-.3-.7-.5-1.1l-1.5-4.1h-1.2s-.3 1-.4 1.1L94.6 36c-.1.4-.4.9-.4.9h1s.3-.9.3-1l.2-.4h1.7l.2.7c0 .1.3.8.3.8h1.4v-.1Z"/><path fill="#fff" d="M105.3 34.4c-.2.1-.6.1-.8.1v-1.3h.1c.4 0 .6 0 .7.1.2.1.3.2.3.5 0 .2-.1.5-.3.6Zm2.1 2.5c-.3-.4-.4-.6-.6-.9l-.8-1.3c.4-.2.8-.5.8-1.2 0-.4-.2-.8-.3-.9-.2-.2-.4-.2-.7-.3h-2.4v4.6h1.2v-1.8h.4l.8 1.4c.1.2.2.4.3.4h1.3ZM138.3 36.4c.1 0 .2 0 .2-.1s-.1-.1-.1-.1h-.1v.2Zm-.1-.2h.2c.1 0 .2 0 .2.2 0 .1 0 .1-.1.1l.1.2h-.1l-.1-.2h-.1v.2h-.1v-.5Zm.5.3c0-.2-.2-.4-.3-.4-.2 0-.3.2-.3.4s.2.4.3.4c.2-.1.3-.2.3-.4Zm-.8 0c0-.3.2-.5.4-.5s.4.2.4.5c0 .2-.2.4-.4.4s-.4-.2-.4-.4ZM125.4 38.3c-8.9-1.9-12.6 1.1-12.6 1.1s4.1-2.4 12.6-.6c8.7 1.9 12.6-1.3 12.6-1.3s-4.4 2.6-12.6.8ZM88.5 32.1c.2 0 .4.1.5.1.2.1.5.3.9.4l.6-.4c.2-.1.4 0 .5.1.2.4.6 1.3.8 2 0 .1 0 .2-.2.3-.1 0-.2 0-.4.1-.2 0-.2.2-.2.3v1.3c0 .2-.1.8-.8.8h-1.6c-.6 0-1.1-.5-1.1-1v-3c.1-.7.6-1 1-1Z"/><path fill="#fff" d="M86 37h-5v.6h5.9s.2-.5.2-1v-3.8c0-.3.1-.8.7-.9h.1c1.7-.4 3.5 0 4.6.4.2.1.2-.1.2-.1 0-.9-.6-1.8-1.8-1.9-1 0-1.5.3-1.7.4h-.1c-.2-.2-.6-.4-1-.6-.1 0-.1-.1 0-.1.9-.1 1.7 0 2.1.1.1 0 .1 0 .1-.1s0-.1-.1-.2c-.1-.2-.3-.4-.6-.4-.7-.2-2-.4-3-.4-1.2 0-2.5.2-2.9.3-.1 0-.2 0-.2.1-.1 0-.1.1-.1.1l.1.1c0 .1.1.1 0 .2l-2.3 2h1.6c.1 0 .2.1.2.2s-.1.2-.2.2h-2l-.6.6h2.7c.1 0 .2.1.2.2s-.1.2-.2.2h-3.1l-.6.6h5.4c.1 0 .2.1.2.2s-.1.2-.2.2h-5.4v.6h5.4c.1 0 .2.1.2.2s-.1.2-.2.2h-5.4v.6h7c.1 0 .2.1.2.2s-.1.2-.2.2H81v.6h5.1c.1 0 .2.1.2.2s-.1.2-.2.2H86V37ZM82.9 38.9v.6h1.2c1.1 0 1.8-.6 1.8-.6h-3ZM82.9 37.9v.6h3.4c.2-.2.4-.5.4-.6h-3.8ZM135.7 36.4h-.2c-.2 0-.4-.1-.5-.2l-.1-.1c-.2-.3-.3-.7-.4-1-.1-.8.1-1.9 1.1-2h.2c1 .1 1.1 1.2 1.1 2 0 .3-.1.8-.4 1l-.1.1c-.3.1-.5.2-.7.2Zm2.3-1.9c0-.5-.2-.9-.4-1.2-.4-.7-1.2-1-2.1-1-.9 0-1.6.3-2.1 1-.2.3-.3.7-.4 1.1-.1 1.5.7 2.5 2.2 2.6h.6c1.5 0 2.4-1.1 2.2-2.5ZM128.4 33.4v-1h-1.2V37h1.2v-3.6ZM121.5 36.3h-.8V34.9h1.4v-.6h-1.4v-1.2h1.7v-.7h-2.9V37h3v-.7c-.1-.1-.6 0-1 0ZM101.6 36.3h-.8V34.9h1.4v-.6h-1.4v-1.2h1.7v-.7h-2.9V37h3v-.7c0-.1-.6 0-1 0Z"/><path fill="#fff" d="m125.3 34.5 1.3-2.1h-.9c-.3.5-.6 1.1-.8 1.3l-.1.1-.8-1.4h-1.4l1.3 2.4-1.4 2.2h.9l.9-1.5.8 1.5h1.4l-1.2-2.5ZM132.1 36.4c-1.1 0-1.6-.8-1.6-1.7 0-.8.4-1.5 1.3-1.6.3 0 .6 0 1.1.2l-.1-.7s-.4-.1-1-.2c-.8 0-1.4.1-2 .6-.5.4-.8 1.1-.8 1.7 0 .7.3 1.4.8 1.8.6.5 1.2.6 1.9.6.5 0 .8 0 1.2-.2l-.1-.7c.1 0-.2.2-.7.2ZM116.8 31.7h1.3v.3c.3 3.1.5 5 .5 5h-1.4l-.1-1.9-.1-1.7-1.2 3.6h-.7s-.4-1.3-.4-1.4l-.7-2.1s-.1 1.2-.1 1.7c-.1 1-.2 1.9-.2 1.9h-1s.4-4.3.5-4.5c0-.3.1-.7.1-.7h1.4l1.1 3.1 1-3.3ZM109.8 36.4h-.2c-.2 0-.4-.1-.5-.2l-.1-.1c-.2-.3-.3-.7-.4-1-.1-.8.1-1.9 1.1-2h.2c1 .1 1.1 1.2 1.1 2 0 .3-.1.8-.4 1l-.1.1c-.3.1-.5.2-.7.2Zm2.3-1.9c0-.5-.2-.9-.4-1.1-.4-.7-1.2-1-2.1-1-.9 0-1.6.3-2.1 1-.2.3-.3.7-.4 1.1-.1 1.5.7 2.5 2.2 2.6h.6c1.5-.2 2.4-1.2 2.2-2.6ZM96 34.7l.6-1.7v-.1l.6 1.8H96Zm3.3 2.3c0-.1-.3-.7-.5-1.1l-1.5-4.1h-1.2s-.3 1-.4 1.1l-1.1 3.2c-.1.4-.4.9-.4.9h1s.3-.9.3-1l.2-.4h1.7l.2.7c0 .1.3.8.3.8h1.4V37Z"/><path fill="#fff" d="M105.3 34.4c-.2.1-.6.1-.8.1v-1.3h.1c.4 0 .6 0 .7.1.2.1.3.2.3.5s-.1.5-.3.6Zm2.1 2.6c-.3-.4-.4-.6-.6-.9l-.8-1.3c.4-.2.8-.5.8-1.2 0-.4-.2-.8-.3-.9-.2-.2-.4-.2-.7-.3h-2.4V37h1.2v-1.8h.4l.8 1.4c.1.2.2.4.3.4h1.3ZM138.3 36.5c.1 0 .2 0 .2-.1s-.1-.1-.1-.1h-.1v.2Zm-.1-.2h.2c.1 0 .2 0 .2.2 0 .1 0 .1-.1.1l.1.2h-.1l-.1-.2h-.1v.2h-.1v-.5Zm.5.2c0-.2-.2-.4-.3-.4-.2 0-.3.2-.3.4s.2.4.3.4c.2 0 .3-.2.3-.4Zm-.8 0c0-.3.2-.5.4-.5s.4.2.4.5c0 .2-.2.5-.4.5s-.4-.2-.4-.5ZM125.4 38.4c-8.9-1.9-12.6 1.1-12.6 1.1s4.1-2.4 12.6-.6c8.7 1.9 12.6-1.3 12.6-1.3s-4.4 2.5-12.6.8Z"/><g fill="#fff" stroke="#000" stroke-linecap="round" stroke-linejoin="round" stroke-width=".846" opacity=".3"><path d="M62.2 30.5c-.4 0-.7.2-.9.6h-2.1c-.1-.3-.5-.6-.9-.6-.5 0-.9.4-.9.9s.4.9.9.9c.4 0 .7-.2.9-.6h2.1c.1.3.5.6.9.6.5 0 .9-.4.9-.9s-.4-.9-.9-.9ZM25.2 36.4c-.4 0-.9-.2-.9-.7V33H23v2.7c0 1 .8 1.7 2.1 1.7s2.1-.6 2.1-1.7V33H26v2.7c0 .5-.3.7-.8.7ZM32.2 35c.4-.2.6-.5.6-.8 0-.2-.1-.4-.2-.6-.3-.3-.7-.4-1.4-.4h-2.7v4.2h2.8c.7 0 1-.1 1.3-.4.3-.3.4-.6.4-.9 0-.6-.2-.9-.8-1.1Zm-2.4-1H31c.2 0 .3 0 .4.1.1.1.1.1.1.2s0 .2-.1.2c-.1.1-.2.1-.4.1h-1.3V34h.1Zm1.8 2.2c-.1.1-.2.1-.4.1h-1.4v-.8h1.4c.3 0 .4.1.4.1.1.1.1.2.1.3 0 .2 0 .3-.1.3ZM39.7 33.6c-.3-.3-.8-.5-1.4-.5h-2.5v4.2H37v-1.5h1.3c.6 0 1.1-.2 1.4-.5.2-.2.4-.6.4-.9 0-.3-.2-.6-.4-.8Zm-1 1.2c-.1.1-.3.1-.4.1H37V34h1.3c.1 0 .3 0 .4.1.1.1.1.2.1.3 0 .2 0 .3-.1.4ZM53.8 35.2l-1.4-2.1h-1.1v4.2h1.2v-2h.1l.9 1.5h.5l1-1.5v2h1.2v-4.2h-1l-1.4 2.1ZM58.7 33.1h-1.2v4.2h1.2v-4.2ZM20.5 36.3v-3.2h-1.2v3.5s0 .7.5.7h2.6v-.9h-1.9v-.1ZM61.2 36.3v-.7h2.2v-.9h-2.2V34h2.6v-.9H60v3.5s0 .7.6.7H64v-.9h-2.8v-.1ZM47.4 36.3v-.7h2.2v-.9h-2.2V34H50v-.9h-3.8v3.5s0 .7.6.7h3.4v-.9h-2.8v-.1ZM13.8 35.2c0 1.3 1 2.2 2.5 2.2 1.1 0 1.9-.5 2.3-.8l-.3-.3c-.4-.4-1 0-1 0-.3.1-.6.2-.8.2-.8 0-1.4-.5-1.4-1.3 0-.7.6-1.3 1.4-1.3.3 0 .6.1.9.2 0 0 .5.3.8-.2l.3-.3c-.7-.4-1.5-.6-2.3-.6-1.4 0-2.4.9-2.4 2.2ZM44.4 35.6c.5-.3.8-.7.8-1.2 0-.3-.1-.7-.4-.9-.3-.3-.7-.5-1.4-.5h-2.5v4.2h1.3v-1.5h1l.6 1.1s.2.4.7.4h.9l-1-1.6Zm-.6-.9c-.1.1-.2.1-.4.1h-1.3V34h1.3c.1 0 .3 0 .4.1.1.1.1.2.1.3 0 .1 0 .2-.1.3ZM68.6 35.6c.5-.3.8-.7.8-1.2 0-.3-.1-.7-.4-.9-.3-.3-.7-.5-1.4-.5h-2.5v4.2h1.3v-1.5h1l.6 1.1s.2.4.7.4h.9l-1-1.6Zm-.6-.8c-.1.1-.2.1-.4.1h-1.3v-.8h1.3c.1 0 .3 0 .4.1.1.1.1.2.1.3 0 .1 0 .2-.1.3Z"/></g><path fill="#fff" d="M62.2 30.5c-.4 0-.7.2-.9.6h-2.1c-.1-.3-.5-.6-.9-.6-.5 0-.9.4-.9.9s.4.9.9.9c.4 0 .7-.2.9-.6h2.1c.1.3.5.6.9.6.5 0 .9-.4.9-.9s-.4-.9-.9-.9ZM25.2 36.4c-.4 0-.9-.2-.9-.7V33H23v2.7c0 1 .8 1.7 2.1 1.7s2.1-.6 2.1-1.7V33H26v2.7c0 .5-.3.7-.8.7ZM32.2 35c.4-.2.6-.5.6-.8 0-.2-.1-.4-.2-.6-.3-.3-.7-.4-1.4-.4h-2.7v4.2h2.8c.7 0 1-.1 1.3-.4.3-.3.4-.6.4-.9 0-.6-.2-.9-.8-1.1Zm-2.4-1H31c.2 0 .3 0 .4.1.1.1.1.1.1.2s0 .2-.1.2c-.1.1-.2.1-.4.1h-1.3V34h.1Zm1.8 2.2c-.1.1-.2.1-.4.1h-1.4v-.8h1.4c.3 0 .4.1.4.1.1.1.1.2.1.3 0 .2 0 .3-.1.3ZM39.7 33.6c-.3-.3-.8-.5-1.4-.5h-2.5v4.2H37v-1.5h1.3c.6 0 1.1-.2 1.4-.5.2-.2.4-.6.4-.9 0-.3-.2-.6-.4-.8Zm-1 1.2c-.1.1-.3.1-.4.1H37V34h1.3c.1 0 .3 0 .4.1.1.1.1.2.1.3 0 .2 0 .3-.1.4ZM53.8 35.2l-1.4-2.1h-1.1v4.2h1.2v-2h.1l.9 1.5h.5l1-1.5v2h1.2v-4.2h-1l-1.4 2.1ZM58.7 33.1h-1.2v4.2h1.2v-4.2ZM20.5 36.3v-3.2h-1.2v3.5s0 .7.5.7h2.6v-.9h-1.9v-.1ZM61.2 36.3v-.7h2.2v-.9h-2.2V34h2.6v-.9H60v3.5s0 .7.6.7H64v-.9h-2.8v-.1ZM47.4 36.3v-.7h2.2v-.9h-2.2V34H50v-.9h-3.8v3.5s0 .7.6.7h3.4v-.9h-2.8v-.1ZM13.8 35.2c0 1.3 1 2.2 2.5 2.2 1.1 0 1.9-.5 2.3-.8l-.3-.3c-.4-.4-1 0-1 0-.3.1-.6.2-.8.2-.8 0-1.4-.5-1.4-1.3 0-.7.6-1.3 1.4-1.3.3 0 .6.1.9.2 0 0 .5.3.8-.2l.3-.3c-.7-.4-1.5-.6-2.3-.6-1.4 0-2.4.9-2.4 2.2ZM44.4 35.6c.5-.3.8-.7.8-1.2 0-.3-.1-.7-.4-.9-.3-.3-.7-.5-1.4-.5h-2.5v4.2h1.3v-1.5h1l.6 1.1s.2.4.7.4h.9l-1-1.6Zm-.6-.9c-.1.1-.2.1-.4.1h-1.3V34h1.3c.1 0 .3 0 .4.1.1.1.1.2.1.3 0 .1 0 .2-.1.3ZM68.6 35.6c.5-.3.8-.7.8-1.2 0-.3-.1-.7-.4-.9-.3-.3-.7-.5-1.4-.5h-2.5v4.2h1.3v-1.5h1l.6 1.1s.2.4.7.4h.9l-1-1.6Zm-.6-.8c-.1.1-.2.1-.4.1h-1.3v-.8h1.3c.1 0 .3 0 .4.1.1.1.1.2.1.3 0 .1 0 .2-.1.3Z"/><path fill="#fff" d="M62.2 30.4c-.4 0-.7.2-.9.6h-2.1c-.1-.3-.5-.6-.9-.6-.5 0-.9.4-.9.9s.4.9.9.9c.4 0 .7-.2.9-.6h2.1c.1.3.5.6.9.6.5 0 .9-.4.9-.9s-.4-.9-.9-.9ZM25.2 36.3c-.4 0-.9-.2-.9-.7V33H23v2.7c0 1 .8 1.7 2.1 1.7s2.1-.6 2.1-1.7V33H26v2.7c0 .4-.3.6-.8.6ZM32.2 34.8c.4-.2.6-.5.6-.8 0-.2-.1-.4-.2-.6-.3-.3-.7-.4-1.4-.4h-2.7v4.2h2.8c.7 0 1-.1 1.3-.4.3-.3.4-.6.4-.9 0-.5-.2-.8-.8-1.1Zm-2.4-.9H31c.2 0 .3 0 .4.1.1.1.1.1.1.2s0 .2-.1.2c-.1.1-.2.1-.4.1h-1.3v-.6h.1Zm1.8 2.2c-.1.1-.2.1-.4.1h-1.4v-.8h1.4c.3 0 .4.1.4.1.1.1.1.2.1.3 0 .2 0 .3-.1.3ZM39.7 33.5c-.3-.3-.8-.5-1.4-.5h-2.5v4.2H37v-1.5h1.3c.6 0 1.1-.2 1.4-.5.2-.2.4-.6.4-.9 0-.3-.2-.6-.4-.8Zm-1 1.1c-.1.1-.3.1-.4.1H37v-.8h1.3c.1 0 .3 0 .4.1.1.1.1.2.1.3 0 .1 0 .3-.1.3ZM53.8 35.1 52.4 33h-1.1v4.2h1.2v-2h.1l.9 1.5h.5l1-1.5v2h1.2V33h-1l-1.4 2.1ZM58.7 33h-1.2v4.2h1.2V33ZM20.5 36.2V33h-1.2v3.5s0 .7.5.7h2.6v-.9h-1.9v-.1ZM61.2 36.2v-.7h2.2v-.9h-2.2v-.7h2.6V33H60v3.5s0 .7.6.7H64v-.9h-2.8v-.1ZM47.4 36.2v-.7h2.2v-.9h-2.2v-.7H50V33h-3.8v3.5s0 .7.6.7h3.4v-.9h-2.8v-.1ZM13.8 35.1c0 1.3 1 2.2 2.5 2.2 1.1 0 1.9-.5 2.3-.8l-.3-.3c-.4-.4-1 0-1 0-.3.1-.6.2-.8.2-.8 0-1.4-.5-1.4-1.3 0-.7.6-1.3 1.4-1.3.3 0 .6.1.9.2 0 0 .5.3.8-.2l.3-.3c-.6-.4-1.4-.7-2.2-.7-1.5.1-2.5 1-2.5 2.3ZM44.4 35.5c.5-.3.8-.7.8-1.2 0-.3-.1-.7-.4-.9-.3-.3-.7-.5-1.4-.5h-2.5v4.2h1.3v-1.5h1l.6 1.1s.2.4.7.4h.9l-1-1.6Zm-.6-.9c-.1.1-.2.1-.4.1h-1.3v-.8h1.3c.1 0 .3 0 .4.1.1.1.1.2.1.3 0 .1 0 .2-.1.3ZM68.6 35.5c.5-.3.8-.7.8-1.2 0-.3-.1-.7-.4-.9-.3-.3-.7-.5-1.4-.5h-2.5v4.2h1.3v-1.5h1l.6 1.1s.2.4.7.4h.9l-1-1.6Zm-.6-.9c-.1.1-.2.1-.4.1h-1.3v-.8h1.3c.1 0 .3 0 .4.1.1.1.1.2.1.3 0 .2 0 .3-.1.3Z"/><path stroke="#fff" stroke-width=".75" d="M74.1 28.8v11.4"/><path fill="#fff" d="M53.2 16.7c0-.4-.1-.7-.3-1.1l-1.7-3c-.1-.2-.2-.5-.3-.7l-.1.1c-.4.7-.4 1.6 0 2.4l1.4 2.4c.4.7.4 1.6 0 2.4l-.1.1c-.1-.2-.1-.5-.3-.7l-1.3-2.2-.7-1.4c-.1-.2-.2-.5-.3-.7l-.1.1c-.4.7-.4 1.6 0 2.4l1.4 2.4c.4.7.4 1.6 0 2.4l-.1.1c-.1-.2-.1-.5-.3-.7l-1.7-3c-.2-.4-.3-.8-.3-1.3-1.8.5-3.1 1.5-3.1 2.7 0 1.6 2.5 3 5.5 3s5.5-1.3 5.5-3c.1-1.2-1.2-2.2-3.1-2.7Zm5.2 5.1c0-.4.1-.7.2-1 .6.3 1.3.4 1.9.4 1 0 1.5-.3 1.5-.9 0-.6-.4-.9-1.4-1.3l-.5-.2c-1-.4-1.6-1-1.6-2.1 0-1.2.8-1.9 2.5-1.9.7 0 1.3.1 1.9.3 0 .4-.1.7-.2 1-.6-.2-1.2-.3-1.7-.3-.9 0-1.3.3-1.3.9 0 .5.4.8 1.1 1.2l.6.2c1.3.6 1.9 1.1 1.9 2.1 0 1.2-.9 2-2.6 2-1 0-1.7-.1-2.3-.4Zm10.3-4.9V22h-1l-.1-.6c-.3.5-.7.7-1.5.7-1.4 0-2.3-1-2.3-2.7 0-1.8 1-2.8 2.9-2.8.8 0 1.4.1 2 .3Zm-1.1 3.9v-3.2c-.2 0-.5-.1-.8-.1-1.2 0-1.7.7-1.7 1.9 0 1 .4 1.8 1.4 1.8.4 0 .8-.1 1.1-.4Zm6.9-2.2V22h-1.1v-3.3c0-.8-.3-1.2-1.4-1.2-.3 0-.6 0-.9.1V22H70v-5.1c.7-.2 1.5-.3 2.1-.3 1.8 0 2.4.7 2.4 2Zm3.1 2.6c.3 0 .6-.1.9-.2 0 .3-.1.7-.1 1-.3.1-.6.2-1 .2-1.1 0-1.8-.5-1.8-1.8V15c.3-.1.8-.2 1.1-.2v1.9h1.8c0 .3-.1.7-.1 1h-1.7v2.5c.1.7.4 1 .9 1Zm6.1-4.3V22h-1l-.1-.6c-.3.5-.7.7-1.5.7-1.4 0-2.3-1-2.3-2.7 0-1.8 1-2.8 2.9-2.8.8 0 1.4.1 2 .3Zm-1.1 3.9v-3.2c-.2 0-.5-.1-.8-.1-1.2 0-1.7.7-1.7 1.9 0 1 .4 1.8 1.4 1.8.4 0 .8-.1 1.1-.4Zm6.9-2.2V22h-1.1v-3.3c0-.8-.3-1.2-1.4-1.2-.3 0-.6 0-.9.1V22H85v-5.1c.7-.2 1.5-.3 2.1-.3 1.8 0 2.4.7 2.4 2Zm5.7-3.8V22h-1l-.1-.7c-.3.5-.7.8-1.5.8-1.4 0-2.3-1-2.3-2.7 0-1.8 1-2.8 2.9-2.8.3 0 .6 0 .8.1V15c.5-.2.9-.2 1.2-.2Zm-1.1 6v-3.2c-.3-.1-.6-.1-.9-.1-1.1 0-1.7.7-1.7 1.9 0 1 .4 1.8 1.4 1.8.5 0 .9-.1 1.2-.4Zm6.8-1h-3.6c.1.9.7 1.4 1.7 1.4.6 0 1.2-.1 1.8-.4 0 .3-.1.7-.2 1-.5.2-1.1.3-1.7.3-1.9 0-2.8-1-2.8-2.8 0-1.5.7-2.7 2.5-2.7 1.6 0 2.3 1.1 2.3 2.4.1.3.1.5 0 .8Zm-3.6-.9h2.6c0-.8-.5-1.3-1.2-1.3-.9-.1-1.3.4-1.4 1.3Zm7.6-2.3c0 .3 0 .8-.1 1h-.9c-.3 0-.6 0-.8.1V22H102v-5.1c.5-.2 1.3-.3 1.9-.3h1Z"/><path fill="#fff" d="M53.3 16.7c0-.4-.1-.7-.3-1.1l-1.7-3c-.1-.2-.2-.5-.3-.7l-.1.1c-.4.7-.4 1.6 0 2.4l1.4 2.4c.4.7.4 1.6 0 2.4l-.1.1c-.1-.2-.1-.5-.3-.7l-1.3-2.2-.7-1.4c-.1-.2-.2-.5-.3-.7l-.1.1c-.4.7-.4 1.6 0 2.4l1.4 2.4c.4.7.4 1.6 0 2.4l-.1.1c-.1-.2-.1-.5-.3-.7l-1.7-3c-.2-.4-.3-.8-.3-1.3-1.8.5-3.1 1.5-3.1 2.7 0 1.6 2.5 3 5.5 3s5.5-1.3 5.5-3c0-1.2-1.3-2.2-3.1-2.7Zm5.2 5.1c0-.4.1-.7.2-1 .6.3 1.3.4 1.9.4 1 0 1.5-.3 1.5-.9 0-.6-.4-.9-1.4-1.3l-.5-.2c-1-.4-1.6-1-1.6-2.1 0-1.2.8-1.9 2.5-1.9.7 0 1.3.1 1.9.3 0 .4-.1.7-.2 1-.6-.2-1.2-.3-1.7-.3-.9 0-1.3.3-1.3.9 0 .5.4.8 1.1 1.2l.6.2c1.3.6 1.9 1.1 1.9 2.1 0 1.2-.9 2-2.6 2-1.1 0-1.8-.1-2.3-.4Zm10.2-4.9V22h-1l-.1-.6c-.3.5-.7.7-1.5.7-1.4 0-2.3-1-2.3-2.7 0-1.8 1-2.8 2.9-2.8.8 0 1.4.1 2 .3Zm-1.1 3.9v-3.2c-.2 0-.5-.1-.8-.1-1.2 0-1.7.7-1.7 1.9 0 1 .4 1.8 1.4 1.8.5 0 .8-.1 1.1-.4Zm6.9-2.2V22h-1.1v-3.3c0-.8-.3-1.2-1.4-1.2-.3 0-.6 0-.9.1V22H70v-5.1c.7-.2 1.5-.3 2.1-.3 1.8 0 2.4.7 2.4 2Zm3.2 2.6c.3 0 .6-.1.9-.2 0 .3-.1.7-.1 1-.3.1-.6.2-1 .2-1.1 0-1.8-.5-1.8-1.8V15c.3-.1.8-.2 1.1-.2v1.9h1.8c0 .3-.1.7-.1 1h-1.7v2.5c0 .7.3 1 .9 1Zm6.1-4.3V22h-1l-.1-.6c-.3.5-.7.7-1.5.7-1.4 0-2.3-1-2.3-2.7 0-1.8 1-2.8 2.9-2.8.7 0 1.4.1 2 .3Zm-1.2 3.9v-3.2c-.2 0-.5-.1-.8-.1-1.2 0-1.7.7-1.7 1.9 0 1 .4 1.8 1.4 1.8.5 0 .8-.1 1.1-.4Zm6.9-2.2V22h-1.1v-3.3c0-.8-.3-1.2-1.4-1.2-.3 0-.6 0-.9.1V22H85v-5.1c.7-.2 1.5-.3 2.1-.3 1.8 0 2.4.7 2.4 2Zm5.8-3.8V22h-1l-.1-.7c-.3.5-.7.8-1.5.8-1.4 0-2.3-1-2.3-2.7 0-1.8 1-2.8 2.9-2.8.3 0 .6 0 .8.1V15c.4-.2.8-.2 1.2-.2Zm-1.1 6v-3.2c-.3-.1-.6-.1-.9-.1-1.1 0-1.7.7-1.7 1.9 0 1 .4 1.8 1.4 1.8.5 0 .9-.1 1.2-.4Zm6.8-1h-3.6c.1.9.7 1.4 1.7 1.4.6 0 1.2-.1 1.8-.4 0 .3-.1.7-.2 1-.5.2-1.1.3-1.7.3-1.9 0-2.8-1-2.8-2.8 0-1.5.7-2.7 2.5-2.7 1.6 0 2.3 1.1 2.3 2.4v.8Zm-3.7-.9h2.6c0-.8-.5-1.3-1.2-1.3-.8-.1-1.3.4-1.4 1.3Zm7.6-2.3c0 .3 0 .8-.1 1h-.9c-.3 0-.6 0-.8.1V22H102v-5.1c.5-.2 1.3-.3 1.9-.3h1Z"/><path fill="#2D2D2D" fill-rule="evenodd" d="M19.3 235.9c-.3-.1-.6-.5-.7-.8 0-.2 0-.4.3-1.1 1.4-2.6 2-5.1 2-8 0-2.8-.5-5.1-1.8-7.7-.3-.6-.5-1.1-.5-1.2 0-.3.2-.7.5-.9.4-.2.9-.2 1.2.1.1.1.4.6.6 1 .9 1.8 1.6 3.8 1.9 5.9.2 1.3.2 3.7.1 4.9-.3 2.2-.9 4.1-1.8 6-.6 1.2-.9 1.6-1.2 1.6h-.2c-.1.3-.3.3-.4.2Zm-3.8-2c-.5-.1-.8-.7-.7-1.2 0-.1.3-.6.5-1.1 1-2.1 1.5-4.4 1.3-6.7-.2-1.8-.5-3-1.3-4.7-.6-1.1-.6-1.3-.3-1.8.3-.4 1.1-.5 1.5-.1.3.3 1.2 2.1 1.5 3.1 1.1 3.4.9 7.1-.5 10.4-.7 1.8-1.3 2.4-2 2.1Zm-3.9-2c-.3-.1-.6-.5-.6-.8 0-.2 0-.4.4-1.1 1.3-2.7 1.3-5.2 0-7.8-.6-1.1-.6-1.4-.1-1.8.2-.2.3-.3.7-.3.6 0 .8.3 1.3 1.3.8 1.6 1.1 2.9 1.1 4.7 0 1.8-.3 3-1.1 4.7-.5.9-.7 1.2-1.2 1.3-.1-.1-.4-.1-.5-.2Zm-3.7-1.8c-.2-.1-.5-.4-.6-.7-.1-.3 0-.6.3-1.2.5-.8.6-1.2.6-2.2 0-1-.1-1.4-.6-2.2-.2-.3-.3-.6-.3-.7-.1-.5.3-1.1.8-1.2.5-.1.8.1 1.2.8 1.3 2 1.3 4.6 0 6.6-.3.7-.8 1-1.4.8Z" clip-rule="evenodd"/><path fill="url(#j)" d="M112 107.5c-.4-.8-1.7-1.5-3.1-.6-.2.2-4.3 3-4.3 3-2.5-1.2-4.5-2.1-6.2-2.9-.8-.4-1.8-.8-3.3-.9-3 0-6.2 2.4-6.2 6.1v21.1c0 3.7 3.3 7.1 7.4 7.1h10.8c4.7 0 5.7-4.1 5.6-5.3v-8.9c0-.7 0-1.9 1.4-2.1 1-.1 2.1-.3 2.6-.4 1-.3 1.2-1.3 1.1-2-1.5-5.5-4.3-11.4-5.8-14.2Z"/><path fill="url(#k)" d="M124.4 105.9c.2-5.9-4.4-12.7-12.7-13.1-6.8-.2-10.5 2.3-11.9 2.9-.1.1-.3 0-.4-.2-1.2-1.2-3.9-3.1-6.9-3.9-.4-.1-.5-.8 0-.8 6.4-.7 12 0 14.3.4.5.1.9-.2.7-.7-.2-.4-.3-.5-.6-1.1-.6-1.2-2.1-2.5-4-3.1-5-1.4-13.6-2.6-21.2-2.6-8.6-.1-17.6 1.7-19.9 2.2-.5.1-1.3.3-1.5.3-.6.1-.8.7-.5 1l.9.9c.3.3.4.9-.1 1.4l-15.9 14.3h11c.7 0 1.4.6 1.4 1.4 0 .7-.6 1.4-1.3 1.4H41.7l-4.3 3.9H56c.7 0 1.3.8 1.3 1.4 0 .6-.5 1.4-1.3 1.4H34.2l-4.3 3.9h37.4c.7 0 1.3.8 1.3 1.4 0 .8-.5 1.5-1.3 1.5H29.9v3.9H67.2c.9 0 1.3.8 1.3 1.5 0 .6-.6 1.3-1.4 1.3H29.9v3.9h48.7c.8 0 1.3.7 1.3 1.5 0 .7-.6 1.4-1.3 1.4H43v3.9h35.7c.7 0 1.2.8 1.2 1.5s-.6 1.4-1.2 1.4H43v3.9h41.2s1.5-3.4 1.5-7.3v-26.4c0-2.1.9-5.6 5.1-6.5.1 0 .2-.1.4-.1 12.2-2.9 24.7-.3 31.7 2.8 1.2.5 1.5-.5 1.5-.9Z"/><path fill="url(#l)" d="M56 157.8h8.3c7.4 0 12.3-4 12.3-4H56.1l-.1 4Z"/><path fill="url(#m)" d="M56 151h23.8c1.1-1.1 2.5-3.1 2.9-3.9H56.1L56 151Z"/><path fill="url(#n)" d="M72.1 184.1c1.5 0 2.7 1.2 2.7 2.6v25.2c0 1.5-1.2 2.6-2.7 2.6h-17c-1.5 0-2.7-1.2-2.7-2.6v-25.2c0-1.5 1.2-2.6 2.7-2.6h17Z"/><path stroke="#231F20" stroke-width=".5" d="M60.2 184.1v8.8c-5.2.8-7.8 4.8-7.8 4.8v2.7s2.5 4 7.8 4.8v9.5M67.3 184.1v9c3.9 0 7.5 4.5 7.5 4.5v2.8s-3.6 4.5-7.5 4.5v9.6"/><path fill="#231F20" d="M53.9 198.2c.4 0 .7.3.7.7 0 .4-.3.7-.7.7-.4 0-.7-.3-.7-.7 0-.3.3-.7.7-.7Z"/><path stroke="#231F20" stroke-width=".5" d="M60.2 205.1s1.4-.6 3.5-.6 3.6.5 3.6.5M60.2 192.9s1.4.6 3.5.6 3.6-.5 3.6-.5M52.6 205.2v7.9M74.5 205.2v7.9M52.6 185.1v7.9M74.5 185.1v7.9"/><path stroke="#D1D3D4" stroke-width=".3" d="M72.1 184.1c1.5 0 2.7 1.2 2.7 2.6v25.2c0 1.5-1.2 2.6-2.7 2.6h-17c-1.5 0-2.7-1.2-2.7-2.6v-25.2c0-1.5 1.2-2.6 2.7-2.6h17Z"/></g><defs><linearGradient id="b" x1="74.149" x2="74.149" y1="-9.861" y2="252.827" gradientUnits="userSpaceOnUse"><stop stop-color="#30302F"/><stop offset="1" stop-color="#151515"/></linearGradient><linearGradient id="c" x1="125.137" x2="125.137" y1="214.984" y2="227.319" gradientUnits="userSpaceOnUse"><stop stop-color="#6D6F71"/><stop offset=".067" stop-color="#888A8C"/><stop offset=".17" stop-color="#ADAFB1"/><stop offset=".268" stop-color="#CCCECF"/><stop offset=".359" stop-color="#E2E3E4"/><stop offset=".439" stop-color="#F0F1F1"/><stop offset=".5" stop-color="#F5F6F6"/><stop offset=".593" stop-color="#F2F3F3"/><stop offset=".668" stop-color="#EAEBEC"/><stop offset=".737" stop-color="#DCDDDE"/><stop offset=".801" stop-color="#C8CACC"/><stop offset=".863" stop-color="#AFB1B3"/><stop offset=".923" stop-color="#919396"/><stop offset=".981" stop-color="#707274"/><stop offset="1" stop-color="#636467"/></linearGradient><linearGradient id="d" x1="124.603" x2="133.925" y1="220.01" y2="220.01" gradientUnits="userSpaceOnUse"><stop stop-color="#F1F1F2"/><stop offset=".5" stop-color="#BCBDC0"/><stop offset="1" stop-color="#DCDDDE"/></linearGradient><linearGradient id="e" x1="123.35" x2="123.35" y1="214.86" y2="227.478" gradientUnits="userSpaceOnUse"><stop stop-color="#F1F1F2"/><stop offset=".5" stop-color="#939598"/><stop offset="1" stop-color="#DCDDDE"/></linearGradient><linearGradient id="f" x1="129.572" x2="129.572" y1="227.477" y2="214.861" gradientUnits="userSpaceOnUse"><stop stop-color="#636467"/><stop offset=".009" stop-color="#67686B"/><stop offset=".077" stop-color="#838588"/><stop offset=".15" stop-color="#9B9D9F"/><stop offset=".225" stop-color="#ADB0B2"/><stop offset=".304" stop-color="#BBBDBF"/><stop offset=".392" stop-color="#C4C5C8"/><stop offset=".5" stop-color="#C6C8CA"/><stop offset=".608" stop-color="#C4C5C8"/><stop offset=".696" stop-color="#BBBDBF"/><stop offset=".775" stop-color="#ADB0B2"/><stop offset=".85" stop-color="#9B9D9F"/><stop offset=".923" stop-color="#838588"/><stop offset=".992" stop-color="#67686B"/><stop offset="1" stop-color="#636467"/></linearGradient><linearGradient id="g" x1="111.069" x2="144.861" y1="226.358" y2="226.358" gradientUnits="userSpaceOnUse"><stop stop-color="#F1F1F2"/><stop offset=".5" stop-color="#E6E7E8"/><stop offset="1" stop-color="#DCDDDE"/></linearGradient><linearGradient id="h" x1="118.951" x2="118.951" y1="214.86" y2="227.673" gradientUnits="userSpaceOnUse"><stop stop-color="#939598"/><stop offset=".119" stop-color="#95979A"/><stop offset=".214" stop-color="#9D9FA2"/><stop offset=".301" stop-color="#AAACAF"/><stop offset=".384" stop-color="#BEC0C2"/><stop offset=".462" stop-color="#D7D9DA"/><stop offset=".5" stop-color="#E6E7E8"/><stop offset="1" stop-color="#939598"/></linearGradient><linearGradient id="i" x1="116.379" x2="141.345" y1="219.108" y2="219.108" gradientUnits="userSpaceOnUse"><stop stop-color="#F1F1F2"/><stop offset=".5" stop-color="#E6E7E8"/><stop offset="1" stop-color="#DCDDDE"/></linearGradient><linearGradient id="j" x1="103.329" x2="103.329" y1="140.342" y2="106.093" gradientUnits="userSpaceOnUse"><stop stop-color="#383838"/><stop offset="1"/></linearGradient><linearGradient id="k" x1="77.112" x2="77.112" y1="144.24" y2="83.677" gradientUnits="userSpaceOnUse"><stop stop-color="#383838"/><stop offset="1"/></linearGradient><linearGradient id="l" x1="56.044" x2="76.588" y1="155.807" y2="155.807" gradientUnits="userSpaceOnUse"><stop stop-color="#5C5C5C"/><stop offset="1"/></linearGradient><linearGradient id="m" x1="56.044" x2="82.737" y1="149.05" y2="149.05" gradientUnits="userSpaceOnUse"><stop stop-color="#5C5C5C"/><stop offset="1"/></linearGradient><linearGradient id="n" x1="73.239" x2="53.746" y1="186.488" y2="212.386" gradientUnits="userSpaceOnUse"><stop stop-color="#7A7A7A"/><stop offset=".304" stop-color="#fff"/><stop offset="1" stop-color="#7A7A7A"/></linearGradient><clipPath id="a"><rect width="151" height="241" fill="#fff" rx="10"/></clipPath></defs></svg>