<svg xmlns="http://www.w3.org/2000/svg" width="266" height="168" viewBox="0 0 266 168">
  <g fill="none" fill-rule="evenodd">
    <rect width="266" height="168" fill="#221F20" rx="10"/>
    <g transform="translate(157 15)">
      <g opacity=".3" transform="translate(0 13.77)">
        <path stroke="#888686" d="M-4.26325641e-14 6.15384615C2.45454545 16 6.95454545 18.8717949 13.5 14.7692308 20.0454545 10.6666667 21.6818182 5.94871795 18.4090909.615384615M22.7045455 8.61538462C22.2954545 14.7692308 24.75 15.7948718 30.0681818 11.6923077 38.0454545 5.53846154 27 19.0769231 37.4318182 14.7692308M41.7272727 1.84615385C40.5 14.974359 42.9545455 18.0512821 49.0909091 11.0769231M52.7727273 14.7692308C48.6818182 15.5897436 47.4545455 14.3589744 49.0909091 11.0769231"/>
        <ellipse cx="50.932" cy="5.538" fill="#D8D8D8" rx="1" ry="1"/>
        <ellipse cx="74.25" cy="5.538" fill="#D8D8D8" rx="1" ry="1"/>
        <path stroke="#888686" d="M57.6818182 10.4615385C58.0909091 15.3846154 59.5227273 16 61.9772727 12.3076923M61.9772727 12.3076923C61.9772727 16.4102564 63.6136364 16.6153846 66.8863636 12.9230769 71.7954545 7.38461538 63.2045455 21.5384615 72.4090909 12.3076923 81.6136364 3.07692308 63.8181818 20.3076923 76.7045455 15.3846154M85.2954545 3.07692308C82.4318182 12.5128205 83.25 16.2051282 87.75 14.1538462"/>
        <path stroke="#888686" d="M87.75,14.1538462 C90.6136364,13.3333333 92.0454545,12.1025641 92.0454545,10.4615385 C92.0454545,8 82.8409091,14.9762503 92.6590909,15.6322424"/>
        <path stroke="#979797" d="M82.2272727,5.53846154 L99.4090909,5.53846154"/>
        <path stroke="#888686"/>
        <path stroke="#888686" d="M101.863636,10.4615385 C96.9545455,10.8717949 95.7272727,12.3076923 98.1818182,14.7692308 C101.863636,18.4615385 106.159091,8.61538462 105.545455,6.76923077 C104.931818,4.92307692 98.7954545,7.84075618 108,16.2882345"/>
      </g>
      <path fill="#000" d="M35.8692627,0.385817308 L41.4591064,0.385817308 C42.3907517,0.385817308 43.1059545,0.617185186 43.6047363,1.07992788 C44.1035181,1.54267058 44.3529053,2.11558152 44.3529053,2.79867788 C44.3529053,3.37159742 44.1749285,3.86297872 43.8189697,4.27283654 C43.5816639,4.54607508 43.2344994,4.76201844 42.7774658,4.92067308 C43.4718052,5.08814186 43.9826644,5.37569908 44.3100586,5.78335337 C44.6374528,6.19100765 44.8011475,6.70332224 44.8011475,7.3203125 C44.8011475,7.82271886 44.6846935,8.2744371 44.4517822,8.67548077 C44.2188709,9.07652444 43.9002706,9.39382896 43.4959717,9.62740385 C43.2454821,9.77283727 42.8675562,9.87860544 42.3621826,9.94471154 C41.689816,10.032853 41.2437755,10.0769231 41.0240479,10.0769231 L35.8692627,10.0769231 L35.8692627,0.385817308 Z M38.8817139,4.18689904 L40.1802979,4.18689904 C40.6461205,4.18689904 40.9702139,4.10647116 41.1525879,3.94561298 C41.3349618,3.7847548 41.4261475,3.55228517 41.4261475,3.24819712 C41.4261475,2.96614442 41.3349618,2.74579406 41.1525879,2.58713942 C40.9702139,2.42848478 40.6527122,2.34915865 40.2000732,2.34915865 L38.8817139,2.34915865 L38.8817139,4.18689904 Z M38.8817139,7.99459135 L40.4044189,7.99459135 C40.9185817,7.99459135 41.2811269,7.90314595 41.4920654,7.7202524 C41.703004,7.53735886 41.8084717,7.29166821 41.8084717,6.98317308 C41.8084717,6.69671331 41.7041026,6.46644718 41.4953613,6.29236779 C41.2866201,6.11828839 40.920779,6.03125 40.3978271,6.03125 L38.8817139,6.03125 L38.8817139,7.99459135 Z M46.3634033,0.385817308 L49.3494873,0.385817308 L49.3494873,7.69050481 L54.0098877,7.69050481 L54.0098877,10.0769231 L46.3634033,10.0769231 L46.3634033,0.385817308 Z M61.3135986,8.47716346 L57.9122314,8.47716346 L57.4442139,10.0769231 L54.3922119,10.0769231 L58.024292,0.385817308 L61.2806396,0.385817308 L64.9127197,10.0769231 L61.788208,10.0769231 L61.3135986,8.47716346 Z M60.6873779,6.38161058 L59.6195068,2.89783654 L58.5582275,6.38161058 L60.6873779,6.38161058 Z M72.302124,6.1171875 L74.9190674,6.91045673 C74.7432853,7.64643797 74.4664326,8.26121548 74.088501,8.75480769 C73.7105694,9.2483999 73.2414579,9.62079201 72.6811523,9.87199519 C72.1208468,10.1231984 71.4078412,10.2487981 70.5421143,10.2487981 C69.491816,10.2487981 68.6337924,10.0956546 67.9680176,9.78936298 C67.3022428,9.48307139 66.7276635,8.94431475 66.2442627,8.17307692 C65.7608618,7.40183909 65.519165,6.41466948 65.519165,5.21153846 C65.519165,3.60736377 65.9443317,2.37450351 66.7946777,1.51292067 C67.6450238,0.65133784 68.8480147,0.220552885 70.4036865,0.220552885 C71.6209778,0.220552885 72.5778774,0.467345288 73.2744141,0.9609375 C73.9709507,1.45452971 74.4884016,2.21253495 74.8267822,3.23497596 L72.1900635,3.82331731 C72.0977779,3.5280434 72.0010991,3.31210004 71.9000244,3.17548077 C71.7330314,2.94631296 71.5286877,2.77003267 71.2869873,2.64663462 C71.0452869,2.52323656 70.7750259,2.46153846 70.4761963,2.46153846 C69.7994351,2.46153846 69.2808856,2.73477291 68.9205322,3.28125 C68.6480699,3.68670075 68.5118408,4.32351329 68.5118408,5.19170673 C68.5118408,6.26703262 68.6744369,7.00410458 68.9996338,7.40294471 C69.3248307,7.80178485 69.7818574,8.00120192 70.3707275,8.00120192 C70.9420195,8.00120192 71.3737778,7.84034616 71.6660156,7.51862981 C71.9582534,7.19691346 72.1702874,6.72977069 72.302124,6.1171875 Z M76.3824463,0.385817308 L79.3685303,0.385817308 L79.3685303,4.04807692 L82.4996338,0.385817308 L86.4678955,0.385817308 L82.947876,4.04146635 L86.6260986,10.0769231 L82.947876,10.0769231 L80.9110107,6.09074519 L79.3685303,7.71033654 L79.3685303,10.0769231 L76.3824463,10.0769231 L76.3824463,0.385817308 Z"/>
    </g>
    <path fill="#FFF" fill-rule="nonzero" d="M14.5825127,11.2189127 L9.55417846,23.2105741 L6.27340125,23.2105741 L3.79871723,13.6401904 C3.64887758,13.0520923 3.51841164,12.835631 3.0617808,12.5870559 C2.31552538,12.1818345 1.08321072,11.8028434 -3.55271368e-15,11.5670158 L0.073080551,11.2189127 L5.35474441,11.2189127 C6.02693834,11.2189127 6.63218262,11.6662987 6.78594607,12.4409507 L8.09354838,19.3807046 L11.3215997,11.2189127 L14.5825127,11.2189127 Z M19.0176194,11.2189127 L16.451462,23.2105741 L13.3477457,23.2105741 L15.9139031,11.2189127 L19.0176194,11.2189127 Z M27.436597,19.2953948 C27.4495945,16.1310887 23.0596114,15.9555663 23.0883042,14.5415813 C23.0988494,14.1118456 23.5083948,13.6541635 24.4049803,13.5372303 C24.849104,13.4798669 26.0760235,13.4340251 27.4657802,14.0740935 L28.00947,11.5297541 C27.262724,11.2598516 26.3018864,11 25.1066025,11 C22.0384455,11 19.880117,12.6289754 19.8629505,14.9634724 C19.842841,16.6902599 21.4045086,17.6526914 22.5789473,18.227797 C23.7887003,18.8151596 24.1943219,19.1926799 24.1886815,19.7175311 C24.1800982,20.5220906 23.2226939,20.8782834 22.3324845,20.8915211 C20.7715526,20.9162806 19.8666289,20.4698751 19.1448973,20.133784 L18.5815885,22.7624527 C19.3077345,23.0951118 20.6459913,23.3841354 22.0320695,23.3988439 C25.2937183,23.3988439 27.4270328,21.7884994 27.436597,19.2953948 L27.436597,19.2953948 Z M35.5384834,23.2105741 L38.4079986,23.2105741 L35.9009433,11.2189127 L33.2533675,11.2189127 C32.6562159,11.2189127 32.1544615,11.5652998 31.9317866,12.0979956 L27.2747407,23.2105741 L30.5339371,23.2105741 L31.1803811,21.419314 L35.1622903,21.419314 L35.5384834,23.2105741 Z M32.0740239,18.9620004 L33.7082815,14.458723 L34.6470479,18.9620004 L32.0740239,18.9620004 Z" transform="translate(213 132)"/>
    <path fill="#C2C6CB" d="M27.4963179,17.6631044 L24.879659,13.1025216 C24.6801323,12.7548342 24.5422553,12.3820641 24.4658053,12 L24.3564162,12.1904722 C23.7087614,13.3193083 23.7087614,14.7099456 24.3563049,15.8387817 L26.4497211,19.4872032 C27.0972646,20.6160392 27.0972646,22.0067886 26.4497211,23.1355127 L26.340332,23.3260968 C26.2637707,22.9439207 26.1258937,22.5712626 25.926367,22.2235753 L24.0099988,18.8834254 L22.7863541,16.7508311 C22.5868274,16.4031437 22.4490617,16.0303737 22.3723891,15.6483095 L22.2631113,15.8388937 C21.6176821,16.9638106 21.615679,18.3489611 22.2567683,19.4756696 L24.3564162,23.1355127 C25.004071,24.2643488 25.004071,25.6550981 24.3564162,26.7839342 L24.2470271,26.9745183 C24.1704658,26.5923422 24.0325888,26.2196841 23.8330621,25.8718848 L21.2165145,21.3114139 C20.8655345,20.6996858 20.7051788,20.0111417 20.7345569,19.3290922 C17.9333943,20.0654503 16,21.6290915 16,23.4395291 C16,25.9582187 19.7412637,28 24.3564162,28 C28.9714574,28 32.7127211,25.9582187 32.7127211,23.4395291 C32.7127211,21.6290915 30.7795494,20.0650024 27.9781642,19.3286443 C27.9533485,18.7520768 27.7929928,18.1801004 27.4963179,17.6631044 Z"/>
  </g>
</svg>
