<svg xmlns="http://www.w3.org/2000/svg" xmlns:xlink="http://www.w3.org/1999/xlink" width="266" height="168" viewBox="0 0 266 168">
  <defs>
    <rect id="big---1.-front-a" width="266" height="168" x="0" y="0" rx="10"/>
    <linearGradient id="big---1.-front-d" x1="97.351%" x2="35.425%" y1="30.803%" y2="69.945%">
      <stop offset="0%" stop-color="#E4816B"/>
      <stop offset="100%" stop-color="#77201E"/>
    </linearGradient>
    <rect id="big---1.-front-c" width="266" height="168" x="0" y="0"/>
    <filter id="big---1.-front-e" width="167.4%" height="212.2%" x="-33.7%" y="-56.1%" filterUnits="objectBoundingBox">
      <feGaussianBlur in="SourceGraphic" stdDeviation="22"/>
    </filter>
    <filter id="big---1.-front-g" width="139.8%" height="166.3%" x="-19.9%" y="-33.1%" filterUnits="objectBoundingBox">
      <feGaussianBlur in="SourceGraphic" stdDeviation="13"/>
    </filter>
    <filter id="big---1.-front-h" width="187.4%" height="344.4%" x="-43.7%" y="-122.2%" filterUnits="objectBoundingBox">
      <feGaussianBlur in="SourceGraphic" stdDeviation="22"/>
    </filter>
    <path id="big---1.-front-i" d="M19.640905,170 L5.696905,170 L5.696905,150.232 L19.304905,150.232 L19.304905,152.556 L8.216905,152.556 L8.216905,158.66 L17.848905,158.66 L17.848905,160.956 L8.216905,160.956 L8.216905,167.704 L19.640905,167.704 L19.640905,170 Z M38.25222,170 L26.04422,170 L26.04422,150.232 L28.67622,150.232 L28.67622,167.648 L38.25222,167.648 L38.25222,170 Z M47.007535,170 L44.347535,170 L44.347535,150.232 L47.007535,150.232 L47.007535,170 Z M67.41085,152.528 L61.50285,152.528 L61.50285,170 L58.87085,170 L58.87085,152.528 L52.93485,152.528 L52.93485,150.232 L67.41085,150.232 L67.41085,152.528 Z M87.702165,170 L73.758165,170 L73.758165,150.232 L87.366165,150.232 L87.366165,152.556 L76.278165,152.556 L76.278165,158.66 L85.910165,158.66 L85.910165,160.956 L76.278165,160.956 L76.278165,167.704 L87.702165,167.704 L87.702165,170 Z M121.928795,170 L118.792795,170 L113.388795,161.6 L108.292795,161.6 L108.292795,170 L105.716795,170 L105.716795,150.232 L113.080795,150.232 C113.696795,150.232 114.340795,150.204 114.956795,150.232 C117.700795,150.344 118.988795,151.212 119.828795,152.22 C120.360795,152.864 121.032795,154.04 121.032795,156 C121.032795,156.812 120.920795,159.5 118.400795,160.788 C117.924795,161.04 117.448795,161.236 116.384795,161.432 L121.928795,170 Z M118.428795,156 C118.428795,155.44 118.372795,153.9 116.860795,152.976 C115.824795,152.36 114.592795,152.416 113.416795,152.416 L108.292795,152.416 L108.292795,159.388043 L113.556795,159.388043 C115.040795,159.388043 116.804795,159.416 117.812795,158.044 C118.260795,157.428 118.428795,156.756 118.428795,156 Z M142.10811,170 L128.16411,170 L128.16411,150.232 L141.77211,150.232 L141.77211,152.556 L130.68411,152.556 L130.68411,158.66 L140.31611,158.66 L140.31611,160.956 L130.68411,160.956 L130.68411,167.704 L142.10811,167.704 L142.10811,170 Z M174.691425,150.232 L168.643425,170 L166.067425,170 L160.859425,153.62 L155.819425,170 L153.187425,170 L147.111425,150.232 L149.883425,150.232 L154.559425,166.612 L159.571425,150.232 L162.147425,150.232 L167.355425,166.612 L171.975425,150.232 L174.691425,150.232 Z M195.51474,170 L192.74274,170 L190.58674,163.952 L183.05474,163.952 L180.84274,170 L178.04274,170 L185.57474,150.232 L188.31874,150.232 L195.51474,170 Z M189.80274,161.74 L186.91874,153.48 L183.89474,161.74 L189.80274,161.74 Z M217.990055,170 L214.854055,170 L209.450055,161.6 L204.354055,161.6 L204.354055,170 L201.778055,170 L201.778055,150.232 L209.142055,150.232 C209.758055,150.232 210.402055,150.204 211.018055,150.232 C213.762055,150.344 215.050055,151.212 215.890055,152.22 C216.422055,152.864 217.094055,154.04 217.094055,156 C217.094055,156.812 216.982055,159.5 214.462055,160.788 C213.986055,161.04 213.510055,161.236 212.446055,161.432 L217.990055,170 Z M214.490055,156 C214.490055,155.44 214.434055,153.9 212.922055,152.976 C211.886055,152.36 210.654055,152.416 209.478055,152.416 L204.354055,152.416 L204.354055,159.388043 L209.618055,159.388043 C211.102055,159.388043 212.866055,159.416 213.874055,158.044 C214.322055,157.428 214.490055,156.756 214.490055,156 Z M240.43737,160.144 C240.43737,161.236 240.35337,162.468 240.10137,163.532 C239.76537,164.932 238.61737,168.488 234.41737,169.636 C233.54937,169.888 232.84937,169.972 231.11337,169.972 C230.46937,169.972 229.82537,170 229.20937,170 L224.19737,170 L224.19737,150.232 L232.03737,150.232 C233.04537,150.232 235.22937,150.288 237.35737,152.08 C238.86937,153.368 240.43737,155.692 240.43737,160.144 Z M237.74937,160.116 C237.74937,158.296 237.41337,156.084 236.20937,154.6 C235.90137,154.236 235.59337,153.928 235.22937,153.676 C234.50137,153.144 233.88537,152.948 233.54937,152.864 C232.62537,152.584 231.86937,152.556 230.02137,152.556 L226.91337,152.556 L226.91337,167.704 L231.58937,167.704 C232.31737,167.704 234.52937,167.62 236.04137,165.856 C236.93737,164.848 237.74937,163.112 237.74937,160.116 Z M262.884685,164.316 C262.884685,165.1 262.772685,166.864 261.232685,168.376 C260.140685,169.44 258.348685,170.504 254.988685,170.504 C254.344685,170.504 251.656685,170.476 249.584685,169.132 C248.968685,168.74 248.408685,168.208 247.988685,167.648 C246.812685,166.08 246.672685,164.288 246.616685,163.672 L249.444685,163.308 C249.472685,163.896 249.528685,165.548 250.788685,166.864 C251.488685,167.592 252.804685,168.432 255.128685,168.432 C255.408685,168.432 256.164685,168.432 256.948685,168.208 C257.788685,167.984 260.056685,167.2 260.056685,164.484 C260.056685,163.168 259.496685,162.608 259.048685,162.244 C258.264685,161.628 257.228685,161.404 256.304685,161.208 L254.596685,160.844 C253.168685,160.536 251.572685,160.2 250.256685,159.472 C247.876685,158.184 247.568685,156.392 247.568685,155.216 C247.568685,153.648 248.268685,152.332 249.444685,151.352 C251.460685,149.672 253.924685,149.728 254.736685,149.728 C256.640685,149.728 258.488685,150.036 260.028685,151.212 C260.952685,151.912 261.400685,152.584 261.624685,152.976 C262.156685,153.872 262.380685,154.796 262.548685,155.804 L259.888685,155.972 C259.860685,155.58 259.804685,155.188 259.692685,154.796 C259.300685,153.396 258.040685,151.772 254.792685,151.772 C253.532685,151.772 251.824685,152.052 250.956685,153.088 C250.536685,153.564 250.284685,154.236 250.284685,154.88 C250.284685,155.16 250.340685,155.776 250.760685,156.336 C251.516685,157.372 253.056685,157.68 254.204685,157.96 L256.388685,158.492 C256.892685,158.604 257.424685,158.744 257.928685,158.884 C258.544685,159.024 260.952685,159.556 262.156685,161.572 C262.436685,162.048 262.884685,162.916 262.884685,164.316 Z"/>
    <filter id="big---1.-front-j" width="200%" height="220%" x="-50%" y="-60%" filterUnits="objectBoundingBox">
      <feGaussianBlur in="SourceGraphic" stdDeviation="10"/>
    </filter>
    <filter id="big---1.-front-k" width="167.4%" height="212.2%" x="-33.7%" y="-56.1%" filterUnits="objectBoundingBox">
      <feGaussianBlur in="SourceGraphic" stdDeviation="22"/>
    </filter>
    <linearGradient id="big---1.-front-l" x1="3.215%" x2="100%" y1="50.171%" y2="49.815%">
      <stop offset="0%" stop-color="#3B3B3B"/>
      <stop offset="48.799%" stop-color="#77777A"/>
      <stop offset="100%" stop-color="#525154"/>
    </linearGradient>
  </defs>
  <g fill="none" fill-rule="evenodd">
    <mask id="big---1.-front-b" fill="#fff">
      <use xlink:href="#big---1.-front-a"/>
    </mask>
    <g mask="url(#big---1.-front-b)">
      <mask id="big---1.-front-f" fill="#fff">
        <use xlink:href="#big---1.-front-c"/>
      </mask>
      <use fill="url(#big---1.-front-d)" xlink:href="#big---1.-front-c"/>
      <path fill="#631D16" fill-rule="nonzero" d="M79.7427401,168.488592 C78.2464144,168.729876 76.639336,169.020532 74.8589539,169.367456 C75.7289426,169.197931 65.6543214,171.2726 63.8990904,171.45861 C31.929416,174.846596 4.67897671,154.741284 2.53532891,123.04592 C1.95768337,114.505018 8.41317821,107.112974 16.9540802,106.535329 C25.4949822,105.957683 32.8870255,112.413178 33.4646711,120.95408 C34.3542807,134.107593 45.2382096,142.188035 60.4475428,140.650349 C60.5421761,140.63422 60.6730091,140.61064 60.8360703,140.579966 C61.2824542,140.495997 61.877824,140.376672 62.7701643,140.192913 C63.0369065,140.137982 64.9428396,139.74307 65.563993,139.61546 C66.7946257,139.362636 67.8640264,139.147429 68.9298277,138.939748 C71.0182828,138.532792 72.9467832,138.184004 74.8077068,137.883929 C84.120958,136.382157 90.3646743,136.085382 96.2361413,138.200733 C101.555183,140.117058 105.788878,143.491343 109.209886,147.972832 C111.472984,150.937469 113.179258,154.022386 115.23427,158.412639 C115.733003,159.478114 117.344427,163.017877 117.513196,163.383727 C118.337548,165.170718 118.995938,166.528502 119.657781,167.786943 C122.292673,172.796976 124.884685,175.917896 128.433189,178.124532 C129.922532,179.050679 131.956593,178.916198 140.262656,176.564376 C143.064466,175.771057 144.410647,175.403878 146.144757,174.98326 C153.854178,173.113296 160.341078,172.658543 167.241367,174.32647 C173.912995,175.939127 179.468173,179.145477 184.114443,183.745072 C187.335366,186.933639 189.503393,189.953822 192.710219,195.114594 C192.922478,195.456184 193.645473,196.62423 193.639163,196.614048 C193.989167,197.178777 194.252499,197.600964 194.506134,198.003013 C194.990448,198.77072 195.407186,199.412757 195.802721,199.997953 C200.596432,207.090274 198.73304,216.725807 191.640719,221.519518 C184.548398,226.313228 174.912865,224.449837 170.119154,217.357516 C169.521916,216.473898 168.933551,215.567448 168.287442,214.543271 C167.982282,214.05955 167.679166,213.573579 167.289499,212.944854 C167.28318,212.934658 166.574992,211.790535 166.379581,211.476057 C162.969151,205.987624 161.898564,204.927792 159.957852,204.458686 C158.733142,204.162651 156.797004,204.298381 153.452097,205.109707 C152.223935,205.407604 151.135463,205.704492 148.708139,206.391777 C141.418773,208.455725 138.06858,209.226374 133.228224,209.546393 C125.698737,210.044202 118.614635,208.523877 112.062904,204.449687 C103.234177,198.959546 97.2143903,191.711404 92.2208772,182.216646 C91.2702901,180.409182 90.394291,178.602626 89.3639774,176.36916 C89.1330024,175.868463 87.5727971,172.441211 87.1578725,171.554781 C86.3648853,169.860672 85.7449468,168.6532 85.2416433,167.803344 C83.7717446,167.90694 81.9133012,168.138587 79.7427401,168.488592 Z" filter="url(#big---1.-front-e)" mask="url(#big---1.-front-f)" transform="rotate(172 100.48 165.34)"/>
      <path fill="#72211D" fill-opacity=".982" fill-rule="nonzero" d="M200.74274,130.488592 C199.246414,130.729876 197.639336,131.020532 195.858954,131.367456 C196.728943,131.197931 186.654321,133.2726 184.89909,133.45861 C152.929416,136.846596 125.678977,116.741284 123.535329,85.0459198 C122.957683,76.5050178 129.413178,69.1129745 137.95408,68.5353289 C146.494982,67.9576834 153.887026,74.4131782 154.464671,82.9540802 C155.354281,96.1075933 166.23821,104.188035 181.447543,102.650349 C181.542176,102.63422 181.673009,102.61064 181.83607,102.579966 C182.282454,102.495997 182.877824,102.376672 183.770164,102.192913 C184.036906,102.137982 185.94284,101.74307 186.563993,101.61546 C187.794626,101.362636 188.864026,101.147429 189.929828,100.939748 C192.018283,100.532792 193.946783,100.184004 195.807707,99.8839285 C205.120958,98.3821572 211.364674,98.0853822 217.236141,100.200733 C222.555183,102.117058 226.788878,105.491343 230.209886,109.972832 C232.472984,112.937469 234.179258,116.022386 236.23427,120.412639 C236.733003,121.478114 238.344427,125.017877 238.513196,125.383727 C239.337548,127.170718 239.995938,128.528502 240.657781,129.786943 C243.292673,134.796976 245.884685,137.917896 249.433189,140.124532 C250.922532,141.050679 252.956593,140.916198 261.262656,138.564376 C264.064466,137.771057 265.410647,137.403878 267.144757,136.98326 C274.854178,135.113296 281.341078,134.658543 288.241367,136.32647 C294.912995,137.939127 300.468173,141.145477 305.114443,145.745072 C308.335366,148.933639 310.503393,151.953822 313.710219,157.114594 C313.922478,157.456184 314.645473,158.62423 314.639163,158.614048 C314.989167,159.178777 315.252499,159.600964 315.506134,160.003013 C315.990448,160.77072 316.407186,161.412757 316.802721,161.997953 C321.596432,169.090274 319.73304,178.725807 312.640719,183.519518 C305.548398,188.313228 295.912865,186.449837 291.119154,179.357516 C290.521916,178.473898 289.933551,177.567448 289.287442,176.543271 C288.982282,176.05955 288.679166,175.573579 288.289499,174.944854 C288.28318,174.934658 287.574992,173.790535 287.379581,173.476057 C283.969151,167.987624 282.898564,166.927792 280.957852,166.458686 C279.733142,166.162651 277.797004,166.298381 274.452097,167.109707 C273.223935,167.407604 272.135463,167.704492 269.708139,168.391777 C262.418773,170.455725 259.06858,171.226374 254.228224,171.546393 C246.698737,172.044202 239.614635,170.523877 233.062904,166.449687 C224.234177,160.959546 218.21439,153.711404 213.220877,144.216646 C212.27029,142.409182 211.394291,140.602626 210.363977,138.36916 C210.133002,137.868463 208.572797,134.441211 208.157872,133.554781 C207.364885,131.860672 206.744947,130.6532 206.241643,129.803344 C204.771745,129.90694 202.913301,130.138587 200.74274,130.488592 Z" filter="url(#big---1.-front-g)" mask="url(#big---1.-front-f)"/>
      <ellipse cx="184.5" cy="50" fill="#E89982" fill-opacity=".704" filter="url(#big---1.-front-h)" rx="75.5" ry="27" style="mix-blend-mode:soft-light"/>
      <g fill="#FFF" fill-rule="nonzero" opacity=".08">
        <use xlink:href="#big---1.-front-i"/>
        <use fill-opacity=".07" xlink:href="#big---1.-front-i" style="mix-blend-mode:difference"/>
      </g>
      <ellipse cx="238" cy="50" fill="#FEF8F1" fill-opacity=".859" filter="url(#big---1.-front-j)" opacity=".665" rx="30" ry="25" style="mix-blend-mode:hard-light"/>
      <path fill="#D87266" fill-rule="nonzero" d="M78.3482089,107.603827 C76.8518832,107.845111 75.2448048,108.135766 73.4644226,108.482691 C74.3344114,108.313165 64.2597901,110.387834 62.5045591,110.573845 C30.5348848,113.96183 3.28444546,93.856518 1.14079766,62.1611542 C0.563152118,53.6202522 7.01864696,46.2282088 15.559549,45.6505633 C24.100451,45.0729177 31.4924943,51.5284126 32.0701398,60.0693146 C32.9597494,73.2228277 43.8436784,81.3032697 59.0530115,79.7655831 C59.1476449,79.7494539 59.2784779,79.7258743 59.441539,79.6952007 C59.887923,79.611231 60.4832927,79.4919068 61.3756331,79.308147 C61.6423752,79.2532167 63.5483083,78.8583048 64.1694617,78.730694 C65.4000944,78.4778708 66.4694951,78.2626634 67.5352965,78.0549819 C69.6237515,77.6480268 71.5522519,77.2992387 73.4131755,76.9991629 C82.7264267,75.4973916 88.970143,75.2006166 94.8416101,77.3159675 C100.160652,79.2322926 104.394347,82.6065769 107.815355,87.0880662 C110.078452,90.0527035 111.784727,93.1376206 113.839739,97.5278737 C114.338472,98.5933482 115.949896,102.133112 116.118665,102.498961 C116.943017,104.285952 117.601406,105.643737 118.263249,106.902177 C120.898142,111.912211 123.490154,115.033131 127.038658,117.239766 C128.528,118.165913 130.562062,118.031432 138.868124,115.679611 C141.669934,114.886292 143.016115,114.519113 144.750226,114.098494 C152.459647,112.228531 158.946547,111.773777 165.846836,113.441705 C172.518464,115.054361 178.073641,118.260711 182.719911,122.860306 C185.940835,126.048873 188.108862,129.069056 191.315688,134.229829 C191.527947,134.571418 192.250942,135.739464 192.244632,135.729282 C192.594635,136.294011 192.857968,136.716199 193.111603,137.118247 C193.595917,137.885954 194.012655,138.527992 194.408189,139.113187 C199.2019,146.205508 197.338509,155.841041 190.246188,160.634752 C183.153867,165.428463 173.518334,163.565071 168.724623,156.47275 C168.127384,155.589132 167.53902,154.682682 166.89291,153.658506 C166.587751,153.174784 166.284635,152.688814 165.894968,152.060089 C165.888649,152.049893 165.180461,150.905769 164.98505,150.591292 C161.574619,145.102858 160.504033,144.043026 158.56332,143.57392 C157.33861,143.277885 155.402473,143.413615 152.057566,144.224941 C150.829404,144.522839 149.740932,144.819726 147.313607,145.507011 C140.024241,147.57096 136.674049,148.341609 131.833693,148.661627 C124.304206,149.159436 117.220103,147.639111 110.668373,143.564921 C101.839645,138.074781 95.8198591,130.826638 90.8263459,121.33188 C89.8757588,119.524416 88.9997598,117.71786 87.9694461,115.484394 C87.7384712,114.983697 86.1782658,111.556445 85.7633412,110.670015 C84.9703541,108.975906 84.3504156,107.768434 83.847112,106.918578 C82.3772133,107.022175 80.51877,107.253821 78.3482089,107.603827 Z" filter="url(#big---1.-front-k)"/>
      <path fill="#FFF" fill-rule="nonzero" d="M14.5825127,11.2189127 L9.55417846,23.2105741 L6.27340125,23.2105741 L3.79871723,13.6401904 C3.64887758,13.0520923 3.51841164,12.835631 3.0617808,12.5870559 C2.31552538,12.1818345 1.08321072,11.8028434 -3.55271368e-15,11.5670158 L0.073080551,11.2189127 L5.35474441,11.2189127 C6.02693834,11.2189127 6.63218262,11.6662987 6.78594607,12.4409507 L8.09354838,19.3807046 L11.3215997,11.2189127 L14.5825127,11.2189127 Z M19.0176194,11.2189127 L16.451462,23.2105741 L13.3477457,23.2105741 L15.9139031,11.2189127 L19.0176194,11.2189127 Z M27.436597,19.2953948 C27.4495945,16.1310887 23.0596114,15.9555663 23.0883042,14.5415813 C23.0988494,14.1118456 23.5083948,13.6541635 24.4049803,13.5372303 C24.849104,13.4798669 26.0760235,13.4340251 27.4657802,14.0740935 L28.00947,11.5297541 C27.262724,11.2598516 26.3018864,11 25.1066025,11 C22.0384455,11 19.880117,12.6289754 19.8629505,14.9634724 C19.842841,16.6902599 21.4045086,17.6526914 22.5789473,18.227797 C23.7887003,18.8151596 24.1943219,19.1926799 24.1886815,19.7175311 C24.1800982,20.5220906 23.2226939,20.8782834 22.3324845,20.8915211 C20.7715526,20.9162806 19.8666289,20.4698751 19.1448973,20.133784 L18.5815885,22.7624527 C19.3077345,23.0951118 20.6459913,23.3841354 22.0320695,23.3988439 C25.2937183,23.3988439 27.4270328,21.7884994 27.436597,19.2953948 L27.436597,19.2953948 Z M35.5384834,23.2105741 L38.4079986,23.2105741 L35.9009433,11.2189127 L33.2533675,11.2189127 C32.6562159,11.2189127 32.1544615,11.5652998 31.9317866,12.0979956 L27.2747407,23.2105741 L30.5339371,23.2105741 L31.1803811,21.419314 L35.1622903,21.419314 L35.5384834,23.2105741 Z M32.0740239,18.9620004 L33.7082815,14.458723 L34.6470479,18.9620004 L32.0740239,18.9620004 Z" transform="translate(215 132)"/>
      <path fill="#FFF" d="M27.9781642,19.3286443 C27.9533485,18.7520768 27.7929928,18.1801004 27.4963179,17.6631044 L24.879659,13.1025216 C24.6801323,12.7548342 24.5422553,12.3820641 24.4658053,12 L24.3564162,12.1904722 C23.7087614,13.3193083 23.7087614,14.7099456 24.3563049,15.8387817 L26.4497211,19.4872032 C27.0972646,20.6160392 27.0972646,22.0067886 26.4497211,23.1355127 L26.340332,23.3260968 C26.2637707,22.9439207 26.1258937,22.5712626 25.926367,22.2235753 L24.0099988,18.8834254 L22.7863541,16.7508311 C22.5868274,16.4031437 22.4490617,16.0303737 22.3723891,15.6483095 L22.2631113,15.8388937 C21.6176821,16.9638106 21.615679,18.3489611 22.2567683,19.4756696 L22.2565457,19.4757816 L24.3564162,23.1355127 C25.004071,24.2643488 25.004071,25.6550981 24.3564162,26.7839342 L24.2470271,26.9745183 C24.1704658,26.5923422 24.0325888,26.2196841 23.8330621,25.8718848 L21.2165145,21.3114139 C20.8655345,20.6996858 20.7051788,20.0111417 20.7345569,19.3290922 C17.9333943,20.0654503 16,21.6290915 16,23.4395291 C16,25.9582187 19.7412637,28 24.3564162,28 C28.9714574,28 32.7127211,25.9582187 32.7127211,23.4395291 C32.7127211,21.6290915 30.7795494,20.0650024 27.9781642,19.3286443"/>
      <path fill="url(#big---1.-front-l)" fill-opacity=".6" d="M152.261083,26 L148.292765,26 L148.292765,19.6575488 L152.081094,19.6575488 L152.081094,20.2232269 L148.901298,20.2232269 L148.901298,22.3745178 L151.275432,22.3745178 L151.369711,22.9230541 L148.901298,22.9230541 L148.901298,25.4428928 L152.261083,25.4428928 L152.261083,26 Z M160.823622,26 L157.069577,26 L157.069577,19.6575488 L157.678109,19.6575488 L157.678109,25.4428928 L160.729342,25.4428928 L160.823622,26 Z M166.206365,26 L165.597833,26 L165.597833,19.6575488 L166.206365,19.6575488 L166.206365,26 Z M173.65469,26 L173.046158,26 L173.046158,20.2232269 L170.997717,20.2232269 L170.997717,19.6575488 L175.651705,19.6575488 L175.745985,20.2232269 L173.65469,20.2232269 L173.65469,26 Z M184.377091,26 L180.408774,26 L180.408774,19.6575488 L184.197103,19.6575488 L184.197103,20.2232269 L181.017306,20.2232269 L181.017306,22.3745178 L183.39144,22.3745178 L183.48572,22.9230541 L181.017306,22.9230541 L181.017306,25.4428928 L184.377091,25.4428928 L184.377091,26 Z M195.322566,26 L194.722604,26 L194.722604,19.6575488 L196.848182,19.6575488 C198.253807,19.6575488 199.042328,20.2575104 199.042328,21.3888666 C199.042328,22.4088013 198.450937,22.9059123 197.533853,23.0859008 L199.153749,25.9485747 L198.528075,26.0514253 L196.899608,23.1544678 L195.322566,23.1544678 L195.322566,26 Z M195.322566,20.214656 L195.322566,22.6145024 L196.805328,22.6145024 C197.850975,22.6145024 198.442366,22.3059507 198.442366,21.3974374 C198.442366,20.5317786 197.859546,20.214656 196.796757,20.214656 L195.322566,20.214656 Z M208.041982,26 L204.073664,26 L204.073664,19.6575488 L207.861993,19.6575488 L207.861993,20.2232269 L204.682197,20.2232269 L204.682197,22.3745178 L207.056331,22.3745178 L207.15061,22.9230541 L204.682197,22.9230541 L204.682197,25.4428928 L208.041982,25.4428928 L208.041982,26 Z M214.556081,26 L213.981832,26 L212.30194,19.7089741 L212.89333,19.6061235 L213.896123,23.5058739 C214.050399,24.0886938 214.187533,24.6629427 214.281813,25.1000576 L214.298955,25.1000576 C214.384663,24.6715136 214.521798,24.0886938 214.667502,23.5144448 L215.610299,19.6575488 L216.253115,19.6575488 L217.213054,23.5487283 C217.350188,24.1229773 217.487322,24.6286592 217.573031,25.1000576 L217.590173,25.1000576 C217.701594,24.5943757 217.821586,24.140119 217.95872,23.5830118 L218.952942,19.6575488 L219.535762,19.6575488 L217.85587,26 L217.281621,26 L215.935993,20.497495 L215.918851,20.497495 L214.556081,26 Z M223.949996,26 L223.358605,26 L225.604176,19.6318362 L226.255563,19.6318362 L228.492562,25.9485747 L227.892601,26.0514253 L227.198359,24.0458394 L224.627095,24.0458394 L223.949996,26 Z M225.904156,20.3517901 L224.815655,23.5058739 L227.0098,23.5058739 L225.921298,20.3517901 L225.904156,20.3517901 Z M233.82388,26 L233.223918,26 L233.223918,19.6575488 L235.349497,19.6575488 C236.755121,19.6575488 237.543642,20.2575104 237.543642,21.3888666 C237.543642,22.4088013 236.952251,22.9059123 236.035167,23.0859008 L237.655063,25.9485747 L237.029389,26.0514253 L235.400922,23.1544678 L233.82388,23.1544678 L233.82388,26 Z M233.82388,20.214656 L233.82388,22.6145024 L235.306642,22.6145024 C236.352289,22.6145024 236.94368,22.3059507 236.94368,21.3974374 C236.94368,20.5317786 236.36086,20.214656 235.298071,20.214656 L233.82388,20.214656 Z M244.177733,26 L242.574979,26 L242.574979,19.6575488 L244.177733,19.6575488 C246.234744,19.6575488 247.331817,20.7289088 247.331817,22.8202035 C247.331817,24.9114982 246.209032,26 244.177733,26 Z M243.183511,20.2232269 L243.183511,25.4428928 L244.272013,25.4428928 C245.849055,25.4428928 246.723285,24.6372301 246.723285,22.8287744 C246.723285,21.0460314 245.840484,20.2232269 244.254871,20.2232269 L243.183511,20.2232269 Z M254.27446,26.1199923 C253.220242,26.1199923 252.380296,25.7428736 251.746051,25.1086285 L252.097457,24.6543718 C252.628851,25.1943373 253.39166,25.571456 254.265889,25.571456 C255.24297,25.571456 255.868644,25.1343411 255.868644,24.431529 C255.868644,23.7715712 255.54295,23.428736 254.197322,23.0087629 C252.834552,22.5802189 252.140311,22.211671 252.140311,21.1660237 C252.140311,20.2575104 252.954545,19.5375565 254.111613,19.5375565 C255.080123,19.5375565 255.782935,19.9146752 256.365755,20.4374989 L256.057203,20.9174682 C255.482954,20.4032154 254.882993,20.0860928 254.111613,20.0860928 C253.254525,20.0860928 252.740273,20.5574912 252.740273,21.1231693 C252.740273,21.8345523 253.168817,22.0831078 254.497303,22.503081 C255.817219,22.9230541 256.468605,23.360169 256.468605,24.3972454 C256.468605,25.4428928 255.54295,26.1199923 254.27446,26.1199923 Z" style="mix-blend-mode:multiply"/>
    </g>
  </g>
</svg>
