<svg xmlns="http://www.w3.org/2000/svg" xmlns:xlink="http://www.w3.org/1999/xlink" width="266" height="168" viewBox="0 0 266 168">
  <defs>
    <rect id="front-a" width="266" height="168" rx="10"/>
    <linearGradient id="front-c" x1="79.287%" x2="1.149%" y1="66.621%" y2="30.965%">
      <stop offset="0%" stop-color="#8B8B8B"/>
      <stop offset="100%" stop-color="#E9E9E9"/>
    </linearGradient>
    <linearGradient id="front-d" x1="79.287%" x2="1.149%" y1="66.026%" y2="31.647%">
      <stop offset="0%" stop-color="#8B8B8B"/>
      <stop offset="100%" stop-color="#FAFAFA"/>
    </linearGradient>
    <linearGradient id="front-e" x1="44.298%" x2="84.584%" y1="57.708%" y2="40.678%">
      <stop offset="0%" stop-color="#FFF"/>
      <stop offset="100%" stop-color="#5B5D60"/>
    </linearGradient>
    <linearGradient id="front-f" x1="64.036%" x2="64.036%" y1="119.278%" y2="0%">
      <stop offset="0%" stop-color="#C2C6CB"/>
      <stop offset="48.139%" stop-color="#FFF"/>
      <stop offset="100%" stop-color="#5B5D60"/>
    </linearGradient>
  </defs>
  <g fill="none" fill-rule="evenodd">
    <mask id="front-b" fill="#fff">
      <use xlink:href="#front-a"/>
    </mask>
    <g mask="url(#front-b)">
      <rect width="266" height="168" fill="url(#front-c)" style="mix-blend-mode:soft-light"/>
      <rect width="258" height="160" x="4" y="4" fill="#221F20" rx="8"/>
      <rect width="258" height="160" x="4" y="4" fill="url(#front-d)" rx="8" style="mix-blend-mode:soft-light"/>
      <path fill="url(#front-e)" d="M14.5825127,11.2189127 L9.55417846,23.2105741 L6.27340125,23.2105741 L3.79871723,13.6401904 C3.64887758,13.0520923 3.51841164,12.835631 3.0617808,12.5870559 C2.31552538,12.1818345 1.08321072,11.8028434 0,11.5670158 L0.073080551,11.2189127 L5.35474441,11.2189127 C6.02693834,11.2189127 6.63218262,11.6662987 6.78594607,12.4409507 L8.09354838,19.3807046 L11.3215997,11.2189127 L14.5825127,11.2189127 Z M19.0176194,11.2189127 L16.451462,23.2105741 L13.3477457,23.2105741 L15.9139031,11.2189127 L19.0176194,11.2189127 Z M27.436597,19.2953948 C27.4495945,16.1310887 23.0596114,15.9555663 23.0883042,14.5415813 C23.0988494,14.1118456 23.5083948,13.6541635 24.4049803,13.5372303 C24.849104,13.4798669 26.0760235,13.4340251 27.4657802,14.0740935 L28.00947,11.5297541 C27.262724,11.2598516 26.3018864,11 25.1066025,11 C22.0384455,11 19.880117,12.6289754 19.8629505,14.9634724 C19.842841,16.6902599 21.4045086,17.6526914 22.5789473,18.227797 C23.7887003,18.8151596 24.1943219,19.1926799 24.1886815,19.7175311 C24.1800982,20.5220906 23.2226939,20.8782834 22.3324845,20.8915211 C20.7715526,20.9162806 19.8666289,20.4698751 19.1448973,20.133784 L18.5815885,22.7624527 C19.3077345,23.0951118 20.6459913,23.3841354 22.0320695,23.3988439 C25.2937183,23.3988439 27.4270328,21.7884994 27.436597,19.2953948 L27.436597,19.2953948 Z M35.5384834,23.2105741 L38.4079986,23.2105741 L35.9009433,11.2189127 L33.2533675,11.2189127 C32.6562159,11.2189127 32.1544615,11.5652998 31.9317866,12.0979956 L27.2747407,23.2105741 L30.5339371,23.2105741 L31.1803811,21.419314 L35.1622903,21.419314 L35.5384834,23.2105741 Z M32.0740239,18.9620004 L33.7082815,14.458723 L34.6470479,18.9620004 L32.0740239,18.9620004 Z" transform="translate(213 132)"/>
      <path fill="#D2D3D3" fill-rule="nonzero" d="M130.044,20.336 L131.772,20.336 C132.076002,20.336 132.353332,20.3666664 132.604,20.428 C132.854668,20.4893336 133.067999,20.5839994 133.244,20.712 C133.420001,20.8400006 133.556,21.0026657 133.652,21.2 C133.748,21.3973343 133.796,21.6346653 133.796,21.912 C133.796,22.1946681 133.744001,22.4373323 133.64,22.64 C133.535999,22.8426677 133.392001,23.0079994 133.208,23.136 C133.023999,23.2640006 132.805335,23.3586664 132.552,23.42 C132.298665,23.4813336 132.025335,23.512 131.732,23.512 L130.836,23.512 L130.836,26 L130.044,26 L130.044,20.336 Z M130.836,22.84 L131.676,22.84 C131.868001,22.84 132.045333,22.8226668 132.208,22.788 C132.370667,22.7533332 132.510666,22.7000004 132.628,22.628 C132.745334,22.5559996 132.836,22.4613339 132.9,22.344 C132.964,22.2266661 132.996,22.0826675 132.996,21.912 C132.996,21.7413325 132.962667,21.5986672 132.896,21.484 C132.829333,21.3693328 132.738667,21.2760004 132.624,21.204 C132.509333,21.1319996 132.372001,21.0813335 132.212,21.052 C132.051999,21.0226665 131.878668,21.008 131.692,21.008 L130.836,21.008 L130.836,22.84 Z M139.096,26 L138.304,26 L138.304,20.336 L140.12,20.336 C140.392001,20.336 140.650665,20.3639997 140.896,20.42 C141.141335,20.4760003 141.355999,20.5653327 141.54,20.688 C141.724001,20.8106673 141.869333,20.971999 141.976,21.172 C142.082667,21.372001 142.136,21.6159986 142.136,21.904 C142.136,22.3200021 142.008001,22.6559987 141.752,22.912 C141.495999,23.1680013 141.165335,23.3306663 140.76,23.4 L142.344,26 L141.384,26 L139.944,23.48 L139.096,23.48 L139.096,26 Z M139.096,22.816 L140.008,22.816 C140.194668,22.816 140.367999,22.8000002 140.528,22.768 C140.688001,22.7359998 140.827999,22.6840004 140.948,22.612 C141.068001,22.5399996 141.162666,22.4466672 141.232,22.332 C141.301334,22.2173328 141.336,22.0746675 141.336,21.904 C141.336,21.7333325 141.301334,21.5906672 141.232,21.476 C141.162666,21.3613328 141.070667,21.2693337 140.956,21.2 C140.841333,21.1306663 140.706667,21.0813335 140.552,21.052 C140.397333,21.0226665 140.234668,21.008 140.064,21.008 L139.096,21.008 L139.096,22.816 Z M147.508,26 L146.716,26 L146.716,20.336 L147.508,20.336 L147.508,26 Z M154.264,24.976 L154.288,24.976 L155.992,20.336 L156.848,20.336 L154.624,26 L153.888,26 L151.68,20.336 L152.56,20.336 L154.264,24.976 Z M161.012,26 L160.132,26 L162.588,20.336 L163.308,20.336 L165.74,26 L164.844,26 L164.268,24.608 L161.58,24.608 L161.012,26 Z M161.86,23.912 L163.98,23.912 L162.924,21.256 L161.86,23.912 Z M171.472,26 L170.68,26 L170.68,21.032 L168.864,21.032 L168.864,20.336 L173.288,20.336 L173.288,21.032 L171.472,21.032 L171.472,26 Z M178.332,25.296 L181.292,25.296 L181.292,26 L177.54,26 L177.54,20.336 L181.172,20.336 L181.172,21.032 L178.332,21.032 L178.332,22.728 L181.004,22.728 L181.004,23.408 L178.332,23.408 L178.332,25.296 Z M191.348,20.336 L193.3,20.336 C193.513334,20.336 193.726666,20.3599998 193.94,20.408 C194.153334,20.4560002 194.343999,20.5359994 194.512,20.648 C194.680001,20.7600006 194.815999,20.9066658 194.92,21.088 C195.024001,21.2693342 195.076,21.4959986 195.076,21.768 C195.076,22.0826682 194.985334,22.3466656 194.804,22.56 C194.622666,22.7733344 194.382668,22.9199996 194.084,23 L194.084,23.016 C194.265334,23.0373334 194.433333,23.0839996 194.588,23.156 C194.742667,23.2280004 194.875999,23.3226661 194.988,23.44 C195.100001,23.5573339 195.186666,23.6959992 195.248,23.856 C195.309334,24.0160008 195.34,24.1946657 195.34,24.392 C195.34,24.6640014 195.284001,24.9013323 195.172,25.104 C195.059999,25.3066677 194.908001,25.4733327 194.716,25.604 C194.523999,25.7346673 194.298668,25.833333 194.04,25.9 C193.781332,25.966667 193.505335,26 193.212,26 L191.348,26 L191.348,20.336 Z M192.14,22.728 L193.172,22.728 C193.321334,22.728 193.463999,22.7106668 193.6,22.676 C193.736001,22.6413332 193.854666,22.5880004 193.956,22.516 C194.057334,22.4439996 194.137333,22.3533339 194.196,22.244 C194.254667,22.1346661 194.284,22.0026674 194.284,21.848 C194.284,21.5439985 194.172001,21.3266673 193.948,21.196 C193.723999,21.0653327 193.422669,21 193.044,21 L192.14,21 L192.14,22.728 Z M192.14,25.328 L193.132,25.328 C193.297334,25.328 193.463999,25.3133335 193.632,25.284 C193.800001,25.2546665 193.951999,25.202667 194.088,25.128 C194.224001,25.053333 194.333333,24.953334 194.416,24.828 C194.498667,24.702666 194.54,24.544001 194.54,24.352 C194.54,24.0159983 194.425334,23.7733341 194.196,23.624 C193.966666,23.4746659 193.636002,23.4 193.204,23.4 L192.14,23.4 L192.14,25.328 Z M200.216,26 L199.336,26 L201.792,20.336 L202.512,20.336 L204.944,26 L204.048,26 L203.472,24.608 L200.784,24.608 L200.216,26 Z M201.064,23.912 L203.184,23.912 L202.128,21.256 L201.064,23.912 Z M213.164,24.864 L213.18,24.864 L213.18,20.336 L213.972,20.336 L213.972,26 L212.972,26 L209.98,21.376 L209.964,21.376 L209.964,26 L209.172,26 L209.172,20.336 L210.204,20.336 L213.164,24.864 Z M219.64,22.832 L219.656,22.832 L222.184,20.336 L223.28,20.336 L220.528,22.928 L223.448,26 L222.312,26 L219.656,23.072 L219.64,23.072 L219.64,26 L218.848,26 L218.848,20.336 L219.64,20.336 L219.64,22.832 Z M228.412,26 L227.62,26 L227.62,20.336 L228.412,20.336 L228.412,26 Z M237.28,24.864 L237.296,24.864 L237.296,20.336 L238.088,20.336 L238.088,26 L237.088,26 L234.096,21.376 L234.08,21.376 L234.08,26 L233.288,26 L233.288,20.336 L234.32,20.336 L237.28,24.864 Z M247.236,21.504 C247.065332,21.3173324 246.848001,21.1680006 246.584,21.056 C246.319999,20.9439994 246.025335,20.888 245.7,20.888 C245.369332,20.888 245.070668,20.9479994 244.804,21.068 C244.537332,21.1880006 244.310668,21.351999 244.124,21.56 C243.937332,21.768001 243.793334,22.009332 243.692,22.284 C243.590666,22.558668 243.54,22.8506651 243.54,23.16 C243.54,23.4746682 243.590666,23.7706653 243.692,24.048 C243.793334,24.3253347 243.937332,24.5666656 244.124,24.772 C244.310668,24.9773344 244.539999,25.1386661 244.812,25.256 C245.084001,25.3733339 245.387998,25.432 245.724,25.432 C245.990668,25.432 246.235999,25.4080002 246.46,25.36 C246.684001,25.3119998 246.878666,25.2426671 247.044,25.152 L247.044,23.576 L245.788,23.576 L245.788,22.904 L247.828,22.904 L247.828,25.648 C247.529332,25.8080008 247.204002,25.9306662 246.852,26.016 C246.499998,26.1013338 246.116002,26.144 245.7,26.144 C245.257331,26.144 244.850669,26.0706674 244.48,25.924 C244.109331,25.7773326 243.790668,25.5720013 243.524,25.308 C243.257332,25.0439987 243.049334,24.7293352 242.9,24.364 C242.750666,23.9986648 242.676,23.5973355 242.676,23.16 C242.676,22.7173311 242.751999,22.3133352 242.904,21.948 C243.056001,21.5826648 243.266665,21.270668 243.536,21.012 C243.805335,20.753332 244.123998,20.5520007 244.492,20.408 C244.860002,20.2639993 245.259998,20.192 245.692,20.192 C246.145336,20.192 246.549332,20.258666 246.904,20.392 C247.258668,20.525334 247.553332,20.7039989 247.788,20.928 L247.236,21.504 Z"/>
      <path fill="url(#front-f)" d="M27.9781642,19.3286443 C27.9533485,18.7520768 27.7929928,18.1801004 27.4963179,17.6631044 L24.879659,13.1025216 C24.6801323,12.7548342 24.5422553,12.3820641 24.4658053,12 L24.3564162,12.1904722 C23.7087614,13.3193083 23.7087614,14.7099456 24.3563049,15.8387817 L26.4497211,19.4872032 C27.0972646,20.6160392 27.0972646,22.0067886 26.4497211,23.1355127 L26.340332,23.3260968 C26.2637707,22.9439207 26.1258937,22.5712626 25.926367,22.2235753 L24.0099988,18.8834254 L22.7863541,16.7508311 C22.5868274,16.4031437 22.4490617,16.0303737 22.3723891,15.6483095 L22.2631113,15.8388937 C21.6176821,16.9638106 21.615679,18.3489611 22.2567683,19.4756696 L22.2565457,19.4757816 L24.3564162,23.1355127 C25.004071,24.2643488 25.004071,25.6550981 24.3564162,26.7839342 L24.2470271,26.9745183 C24.1704658,26.5923422 24.0325888,26.2196841 23.8330621,25.8718848 L21.2165145,21.3114139 C20.8655345,20.6996858 20.7051788,20.0111417 20.7345569,19.3290922 C17.9333943,20.0654503 16,21.6290915 16,23.4395291 C16,25.9582187 19.7412637,28 24.3564162,28 C28.9714574,28 32.7127211,25.9582187 32.7127211,23.4395291 C32.7127211,21.6290915 30.7795494,20.0650024 27.9781642,19.3286443"/>
    </g>
  </g>
</svg>
