<svg xmlns="http://www.w3.org/2000/svg" xmlns:xlink="http://www.w3.org/1999/xlink" width="266" height="168" viewBox="0 0 266 168">
  <defs>
    <rect id="big---1.-front-a" width="266" height="168" x="0" y="0" rx="10"/>
    <linearGradient id="big---1.-front-c" x1="79.287%" x2="1.149%" y1="66.621%" y2="30.965%">
      <stop offset="0%" stop-color="#8B8B8B"/>
      <stop offset="100%" stop-color="#E9E9E9"/>
    </linearGradient>
    <linearGradient id="big---1.-front-d" x1="79.287%" x2="1.149%" y1="66.026%" y2="31.647%">
      <stop offset="0%" stop-color="#8B8B8B"/>
      <stop offset="100%" stop-color="#FAFAFA"/>
    </linearGradient>
    <linearGradient id="big---1.-front-e" x1="44.298%" x2="84.584%" y1="57.708%" y2="40.678%">
      <stop offset="0%" stop-color="#FFF"/>
      <stop offset="100%" stop-color="#5B5D60"/>
    </linearGradient>
    <linearGradient id="big---1.-front-h" x1="-.757%" x2="29.74%" y1="49.795%" y2="50.634%">
      <stop offset="0%" stop-color="#FFF"/>
      <stop offset="100%" stop-color="#C8C9CA"/>
      <stop offset="100%" stop-color="#C7C8C9"/>
    </linearGradient>
    <path id="big---1.-front-g" d="M171.236808,23.8144256 C171.236808,23.8744218 171.245379,24.2343987 171.185382,24.5172378 C171.133957,24.7915059 170.945398,25.3743258 170.302582,25.785728 C170.054026,25.9400038 169.60834,26.1542758 168.896957,26.1542758 C168.579835,26.1542758 168.219858,26.1114214 167.911306,25.9914291 C167.36277,25.785728 166.917084,25.3314714 166.737096,24.7657933 C166.651387,24.4743834 166.651387,24.2601114 166.651387,23.6944333 L166.651387,19.9489587 L167.45705,19.9489587 L167.45705,23.5830118 C167.45705,23.8144256 167.448479,24.0544102 167.482762,24.285824 C167.499904,24.4229581 167.568471,24.8257894 167.877023,25.1171994 C168.022728,25.2543334 168.194145,25.3486131 168.382705,25.4086093 C168.596977,25.4686054 168.836961,25.4686054 168.905528,25.4686054 C169.051233,25.4686054 169.436923,25.4686054 169.805471,25.2286208 C170.405432,24.8429312 170.422574,24.1915443 170.422574,23.5658701 L170.422574,19.9489587 L171.236808,19.9489587 L171.236808,23.8144256 Z M182.2961,26 L181.567576,26 L178.250645,21.0803149 L178.327783,26 L177.564975,26 L177.564975,19.9489587 L178.327783,19.9489587 L181.601859,24.8000768 L181.567576,19.9489587 L182.2961,19.9489587 L182.2961,26 Z M192.284033,26 L188.54713,26 L188.54713,19.9489587 L189.352792,19.9489587 L189.352792,25.2800461 L192.284033,25.2800461 L192.284033,26 Z M198.817901,26 L198.003668,26 L198.003668,19.9489587 L198.817901,19.9489587 L198.817901,26 Z M210.785707,26 L209.980045,26 L210.091466,20.926039 L208.18016,26 L207.554486,26 L205.677463,21.003177 L205.763172,26 L204.974651,26 L204.974651,19.9489587 L206.020298,19.9489587 L207.871608,24.9114982 L209.74006,19.9489587 L210.785707,19.9489587 L210.785707,26 Z M217.739549,26 L216.925315,26 L216.925315,19.9489587 L217.739549,19.9489587 L217.739549,26 Z M227.838903,20.6517709 L226.030447,20.6517709 L226.030447,26 L225.224785,26 L225.224785,20.6517709 L223.407758,20.6517709 L223.407758,19.9489587 L227.838903,19.9489587 L227.838903,20.6517709 Z M237.903974,26 L233.635675,26 L233.635675,19.9489587 L237.801123,19.9489587 L237.801123,20.6603418 L234.407055,20.6603418 L234.407055,22.5287936 L237.355437,22.5287936 L237.355437,23.2316058 L234.407055,23.2316058 L234.407055,25.2971878 L237.903974,25.2971878 L237.903974,26 Z M248.774707,22.9830502 C248.774707,23.3173146 248.748995,23.6944333 248.671857,24.0201267 C248.569006,24.4486707 248.2176,25.5371725 246.931968,25.8885786 C246.666271,25.9657165 246.451999,25.9914291 245.920604,25.9914291 C245.723474,25.9914291 245.526344,26 245.337784,26 L243.803597,26 L243.803597,19.9489587 L246.203443,19.9489587 C246.511995,19.9489587 247.180523,19.9661005 247.83191,20.5146368 C248.294738,20.9088973 248.774707,21.6202803 248.774707,22.9830502 Z M247.951903,22.9744794 C247.951903,22.4173722 247.849052,21.7402726 247.480504,21.286016 C247.386225,21.1745946 247.291945,21.0803149 247.180523,21.003177 C246.957681,20.8403302 246.769121,20.7803341 246.666271,20.7546214 C246.383432,20.6689126 246.152018,20.6603418 245.58634,20.6603418 L244.634972,20.6603418 L244.634972,25.2971878 L246.066309,25.2971878 C246.289152,25.2971878 246.966251,25.2714752 247.429079,24.7315098 C247.703347,24.4229581 247.951903,23.8915635 247.951903,22.9744794 Z"/>
    <filter id="big---1.-front-f" width="107.3%" height="196.7%" x="-3.7%" y="-48.3%" filterUnits="objectBoundingBox">
      <feOffset in="SourceAlpha" result="shadowOffsetOuter1"/>
      <feGaussianBlur in="shadowOffsetOuter1" result="shadowBlurOuter1" stdDeviation="1"/>
      <feColorMatrix in="shadowBlurOuter1" values="0 0 0 0 0   0 0 0 0 0   0 0 0 0 0  0 0 0 0.5 0"/>
    </filter>
    <linearGradient id="big---1.-front-i" x1="64.036%" x2="64.036%" y1="119.278%" y2="0%">
      <stop offset="0%" stop-color="#C2C6CB"/>
      <stop offset="48.139%" stop-color="#FFF"/>
      <stop offset="100%" stop-color="#5B5D60"/>
    </linearGradient>
  </defs>
  <g fill="none" fill-rule="evenodd">
    <mask id="big---1.-front-b" fill="#fff">
      <use xlink:href="#big---1.-front-a"/>
    </mask>
    <g mask="url(#big---1.-front-b)">
      <rect width="266" height="168" fill="url(#big---1.-front-c)" style="mix-blend-mode:soft-light"/>
      <rect width="258" height="160" x="4" y="4" fill="#221F20" rx="8"/>
      <rect width="258" height="160" x="4" y="4" fill="url(#big---1.-front-d)" rx="8" style="mix-blend-mode:soft-light"/>
      <path fill="url(#big---1.-front-e)" d="M14.5825127,11.2189127 L9.55417846,23.2105741 L6.27340125,23.2105741 L3.79871723,13.6401904 C3.64887758,13.0520923 3.51841164,12.835631 3.0617808,12.5870559 C2.31552538,12.1818345 1.08321072,11.8028434 0,11.5670158 L0.073080551,11.2189127 L5.35474441,11.2189127 C6.02693834,11.2189127 6.63218262,11.6662987 6.78594607,12.4409507 L8.09354838,19.3807046 L11.3215997,11.2189127 L14.5825127,11.2189127 Z M19.0176194,11.2189127 L16.451462,23.2105741 L13.3477457,23.2105741 L15.9139031,11.2189127 L19.0176194,11.2189127 Z M27.436597,19.2953948 C27.4495945,16.1310887 23.0596114,15.9555663 23.0883042,14.5415813 C23.0988494,14.1118456 23.5083948,13.6541635 24.4049803,13.5372303 C24.849104,13.4798669 26.0760235,13.4340251 27.4657802,14.0740935 L28.00947,11.5297541 C27.262724,11.2598516 26.3018864,11 25.1066025,11 C22.0384455,11 19.880117,12.6289754 19.8629505,14.9634724 C19.842841,16.6902599 21.4045086,17.6526914 22.5789473,18.227797 C23.7887003,18.8151596 24.1943219,19.1926799 24.1886815,19.7175311 C24.1800982,20.5220906 23.2226939,20.8782834 22.3324845,20.8915211 C20.7715526,20.9162806 19.8666289,20.4698751 19.1448973,20.133784 L18.5815885,22.7624527 C19.3077345,23.0951118 20.6459913,23.3841354 22.0320695,23.3988439 C25.2937183,23.3988439 27.4270328,21.7884994 27.436597,19.2953948 L27.436597,19.2953948 Z M35.5384834,23.2105741 L38.4079986,23.2105741 L35.9009433,11.2189127 L33.2533675,11.2189127 C32.6562159,11.2189127 32.1544615,11.5652998 31.9317866,12.0979956 L27.2747407,23.2105741 L30.5339371,23.2105741 L31.1803811,21.419314 L35.1622903,21.419314 L35.5384834,23.2105741 Z M32.0740239,18.9620004 L33.7082815,14.458723 L34.6470479,18.9620004 L32.0740239,18.9620004 Z" transform="translate(213 132)"/>
      <g fill-rule="nonzero">
        <use fill="#000" filter="url(#big---1.-front-f)" xlink:href="#big---1.-front-g"/>
        <use fill="#C2C6CB" xlink:href="#big---1.-front-g"/>
        <use fill="url(#big---1.-front-h)" xlink:href="#big---1.-front-g"/>
      </g>
      <path fill="url(#big---1.-front-i)" d="M27.9781642,19.3286443 C27.9533485,18.7520768 27.7929928,18.1801004 27.4963179,17.6631044 L24.879659,13.1025216 C24.6801323,12.7548342 24.5422553,12.3820641 24.4658053,12 L24.3564162,12.1904722 C23.7087614,13.3193083 23.7087614,14.7099456 24.3563049,15.8387817 L26.4497211,19.4872032 C27.0972646,20.6160392 27.0972646,22.0067886 26.4497211,23.1355127 L26.340332,23.3260968 C26.2637707,22.9439207 26.1258937,22.5712626 25.926367,22.2235753 L24.0099988,18.8834254 L22.7863541,16.7508311 C22.5868274,16.4031437 22.4490617,16.0303737 22.3723891,15.6483095 L22.2631113,15.8388937 C21.6176821,16.9638106 21.615679,18.3489611 22.2567683,19.4756696 L22.2565457,19.4757816 L24.3564162,23.1355127 C25.004071,24.2643488 25.004071,25.6550981 24.3564162,26.7839342 L24.2470271,26.9745183 C24.1704658,26.5923422 24.0325888,26.2196841 23.8330621,25.8718848 L21.2165145,21.3114139 C20.8655345,20.6996858 20.7051788,20.0111417 20.7345569,19.3290922 C17.9333943,20.0654503 16,21.6290915 16,23.4395291 C16,25.9582187 19.7412637,28 24.3564162,28 C28.9714574,28 32.7127211,25.9582187 32.7127211,23.4395291 C32.7127211,21.6290915 30.7795494,20.0650024 27.9781642,19.3286443"/>
    </g>
  </g>
</svg>
