<svg xmlns="http://www.w3.org/2000/svg" width="154" height="244" fill="none"><g clip-path="url(#a)"><path fill="url(#b)" d="M8.8 0h135.8c4.9 0 8.8 3.9 8.8 8.8V235c0 4.9-3.9 8.8-8.8 8.8H8.8c-4.9 0-8.8-3.9-8.8-8.8V8.8C.1 3.9 4 0 8.8 0Z"/><path fill="url(#c)" d="M153.2 234.7c0 5-4.1 9.1-9.1 9.1H9.1c-5 0-9.1-4.1-9.1-9.1v-113h38.4V85.2h114.8v149.5Z" opacity=".31"/><path fill="#F26522" d="M129.8 207.8H116v24.8h13.8v-24.8Z"/><path fill="#E51B24" d="M116.9 220.1c0-4.8 2.2-9.4 6-12.4-6.8-5.4-16.8-4.2-22.1 2.7-5.4 6.8-4.2 16.8 2.7 22.1 5.7 4.5 13.8 4.5 19.5 0-3.9-3-6.1-7.5-6.1-12.4Z"/><path fill="#fff" d="M146.9 229.9v-.5h.2v-.1h-.5v.1h.2v.5h.1Zm1 0v-.6h-.2l-.2.4-.2-.4h-.2v.6h.1v-.5l.2.4h.1l.2-.4v.5h.2Z"/><path fill="#F99F1C" d="M148.4 220.1c0 8.7-7.1 15.8-15.8 15.8-3.5 0-7-1.2-9.8-3.4 6.8-5.4 8-15.3 2.7-22.1-.8-1-1.7-1.9-2.7-2.7 6.8-5.4 16.8-4.2 22.1 2.6 2.3 2.9 3.5 6.3 3.5 9.8Z"/><path fill="#F6E8AC" d="M86.2 119.4c-.1-1.5-.5-3-1.2-4.3l-6.9-11.9c-.5-.9-.9-1.9-1.1-2.9l-.3.5c-1.7 2.9-1.7 6.6 0 9.5l5.5 9.5c1.7 2.9 1.7 6.6 0 9.5l-.3.5c-.2-1-.6-2-1.1-2.9l-5-8.7-3.2-5.6c-.5-.9-.9-1.9-1.1-2.9l-.3.5c-1.7 2.9-1.7 6.6 0 9.5l5.5 9.6c1.7 2.9 1.7 6.6 0 9.5l-.3.5c-.2-1-.6-2-1.1-2.9l-6.9-11.9c-.9-1.6-1.3-3.4-1.3-5.2-7.4 1.9-12.4 6-12.4 10.7 0 6.6 9.8 11.9 21.9 11.9 12.1 0 22-5.3 22-11.9.1-4.6-5-8.6-12.4-10.6Z"/><path fill="#FFF6D3" d="M69.9 24.4v5.8c0 .9-.2 1.5-.7 1.9-.5.4-1.1.6-1.9.6-.5 0-1.1-.1-1.6-.3 0-.2 0-.4.1-.5.2.1.5.2.7.3.3.1.5.1.8.1.6 0 1.1-.2 1.5-.5.4-.3.6-.8.6-1.6v-1c-.2.3-.5.6-.8.7-.3.2-.6.2-1 .2-.5 0-.9-.1-1.3-.4-.4-.2-.6-.6-.8-1-.2-.5-.3-1-.3-1.6 0-1 .2-1.8.7-2.4.5-.5 1.1-.8 2.1-.8.4 0 .7 0 1 .1.3.1.7.3.9.4Zm-1.2 5.2c.3-.1.5-.3.7-.6v-4.2c-.4-.2-.9-.3-1.4-.3-.7 0-1.3.2-1.7.7-.4.5-.6 1.1-.6 2 0 .8.2 1.5.5 1.9.3.4.8.7 1.5.7.4 0 .7-.1 1-.2ZM72.8 29.9c-.4-.3-.7-.6-.9-1.1-.2-.5-.3-1-.3-1.6 0-.6.1-1.2.3-1.6.2-.5.5-.8.9-1.1.4-.3.8-.4 1.4-.4.5 0 1 .1 1.4.4.4.3.7.6.9 1.1.2.5.3 1 .3 1.6 0 .6-.1 1.2-.3 1.7-.2.5-.5.8-.9 1.1-.4.2-.8.4-1.4.4-.5-.2-1-.3-1.4-.5Zm2.9-.8c.3-.5.5-1.1.5-1.9 0-.5-.1-1-.2-1.4-.2-.4-.4-.7-.7-.9-.3-.2-.7-.3-1.1-.3-.4 0-.8.1-1.1.3-.3.2-.5.5-.7.9-.2.4-.2.9-.2 1.4 0 .5.1 1 .2 1.4.2.4.4.7.7.9.3.2.7.3 1.1.3.7 0 1.2-.2 1.5-.7ZM78.8 29.9c-.2-.2-.3-.6-.3-1.1v-7.1c.2-.1.3-.1.5-.1v7.1c0 .3.1.6.2.8.2.2.4.3.7.3.2 0 .5 0 .7-.1 0 .1 0 .3-.1.5-.3.1-.5.1-.8.1-.4-.1-.7-.2-.9-.4ZM86 21.6v8.5h-.5v-.8c-.2.3-.5.6-.7.7-.3.2-.6.2-1 .2-.5 0-.9-.1-1.3-.4-.4-.2-.6-.6-.8-1-.2-.5-.3-1-.3-1.6 0-1 .2-1.8.7-2.4.5-.5 1.1-.8 2.1-.8.5 0 1 .1 1.4.2v-2.5c.1 0 .2-.1.4-.1Zm-1.3 8c.3-.1.5-.4.7-.6v-4.2c-.4-.2-.9-.3-1.4-.3-.7 0-1.3.2-1.7.7-.4.5-.6 1.1-.6 2 0 .8.2 1.5.5 1.9.3.4.8.7 1.5.7.5 0 .8-.1 1-.2Z"/><path fill="#EFE19E" d="M13.1 235.9c-.2-.1-.4-.3-.4-.5 0-.1 0-.2.2-.6.8-1.4 1.2-3 1.1-4.6 0-1.5-.3-3-1-4.4-.1-.2-.2-.4-.3-.7 0-.2.1-.4.3-.5.2-.1.5-.1.7.1.1.2.3.4.4.6.5 1.1.9 2.2 1.1 3.4.1.9.1 1.9 0 2.8-.1 1.2-.5 2.4-1 3.5-.3.7-.5.9-.7.9h-.4Zm-2.1-1.1c-.3-.1-.5-.4-.4-.7l.3-.6c.6-1.2.8-2.5.7-3.8-.1-.9-.3-1.9-.8-2.7-.3-.7-.3-.8-.2-1 .2-.3.6-.3.8-.1.4.6.6 1.2.8 1.8.6 2 .5 4.1-.3 6-.2 1-.5 1.3-.9 1.1Zm-2.2-1.1c-.2-.1-.3-.3-.4-.4 0-.1 0-.2.2-.6.7-1.4.7-3.1 0-4.5-.3-.7-.3-.8 0-1 .1-.1.2-.2.4-.1.3 0 .5.2.8.7.4.8.6 1.7.6 2.7 0 .9-.2 1.8-.6 2.7-.3.5-.4.7-.7.7-.2-.1-.3-.1-.3-.2Zm-2.2-1c-.2-.1-.3-.2-.3-.4s0-.3.2-.7c.2-.4.4-.8.3-1.2 0-.4-.1-.9-.3-1.2-.1-.1-.1-.3-.2-.4-.1-.3.1-.6.5-.7.3-.1.5.1.7.5.7 1.1.7 2.6 0 3.8-.3.3-.6.4-.9.3Z"/><path fill="url(#d)" d="M72.9 173.3c1.5 0 2.7 1.2 2.7 2.6v25.2c0 1.5-1.2 2.6-2.7 2.6h-17c-1.5 0-2.7-1.2-2.7-2.6v-25.2c0-1.5 1.2-2.6 2.7-2.6h17Z"/><mask id="e" width="23" height="31" x="53" y="173" maskUnits="userSpaceOnUse" style="mask-type:luminance"><path fill="#fff" d="M72.9 173.3c1.5 0 2.7 1.2 2.7 2.6v25.2c0 1.5-1.2 2.6-2.7 2.6h-17c-1.5 0-2.7-1.2-2.7-2.6v-25.2c0-1.5 1.2-2.6 2.7-2.6h17Z"/></mask><g mask="url(#e)"><path stroke="#231F20" stroke-width=".5" d="M61 173.3v8.8c-3.1.5-5.9 2.2-7.8 4.8v2.7c1.8 2.6 4.6 4.3 7.8 4.8v9.5M68.1 173.3v9c3.9 0 7.5 4.5 7.5 4.5v2.9s-3.6 4.5-7.5 4.5v9.6"/><path fill="#231F20" d="M54.8 187.5c.4 0 .7.3.7.7 0 .4-.3.7-.7.7-.4 0-.7-.3-.7-.7 0-.4.3-.7.7-.7Z"/><path stroke="#231F20" stroke-width=".5" d="M61 194.3c1.1-.4 2.3-.6 3.5-.6 1.2 0 2.4.2 3.6.5M61 182.1c1.1.4 2.3.6 3.5.6 1.2 0 2.4-.2 3.6-.5M53.4 194.4v8M75.4 194.4v8M53.4 174.3v7.9M75.4 174.3v7.9"/></g><path stroke="#A89A33" stroke-width=".3" d="M72.9 173.3c1.5 0 2.7 1.2 2.7 2.6v25.2c0 1.5-1.2 2.6-2.7 2.6h-17c-1.5 0-2.7-1.2-2.7-2.6v-25.2c0-1.5 1.2-2.6 2.7-2.6h17Z"/></g><defs><linearGradient id="b" x1="76.725" x2="76.725" y1="0" y2="243.74" gradientUnits="userSpaceOnUse"><stop stop-color="#D2B15B"/><stop offset="1" stop-color="#D0B05B"/></linearGradient><linearGradient id="c" x1="1.479" x2="166.349" y1="119.207" y2="214.406" gradientUnits="userSpaceOnUse"><stop stop-color="#fff"/><stop offset=".03" stop-color="#fff" stop-opacity=".91"/><stop offset=".1" stop-color="#fff" stop-opacity=".72"/><stop offset=".17" stop-color="#fff" stop-opacity=".55"/><stop offset=".25" stop-color="#fff" stop-opacity=".4"/><stop offset=".33" stop-color="#fff" stop-opacity=".28"/><stop offset=".42" stop-color="#fff" stop-opacity=".18"/><stop offset=".52" stop-color="#fff" stop-opacity=".1"/><stop offset=".63" stop-color="#fff" stop-opacity=".04"/><stop offset=".76" stop-color="#fff" stop-opacity=".01"/><stop offset="1" stop-color="#fff" stop-opacity="0"/></linearGradient><linearGradient id="d" x1="74.074" x2="54.584" y1="175.705" y2="201.605" gradientUnits="userSpaceOnUse"><stop stop-color="#FBF171"/><stop offset=".3" stop-color="#E6B722"/><stop offset="1" stop-color="#E8C31F"/></linearGradient><clipPath id="a"><path fill="#fff" d="M0 0h154v244H0z"/></clipPath></defs></svg>