<svg xmlns="http://www.w3.org/2000/svg" xmlns:xlink="http://www.w3.org/1999/xlink" width="266" height="168" viewBox="0 0 266 168">
  <defs>
    <rect id="big---1.-front-a" width="266" height="168" rx="10"/>
    <linearGradient id="big---1.-front-c" x1="100%" x2=".951%" y1="30.055%" y2="42.006%">
      <stop offset="0%" stop-color="#8C5F1E"/>
      <stop offset="39.234%" stop-color="#946420"/>
      <stop offset="53.36%" stop-color="#8F601E"/>
      <stop offset="64.54%" stop-color="#82571A"/>
      <stop offset="100%" stop-color="#764D16"/>
    </linearGradient>
    <rect id="big---1.-front-d" width="266" height="168"/>
    <linearGradient id="big---1.-front-e" x1="50%" x2="50%" y1="0%" y2="100%">
      <stop offset="0%" stop-color="#81561A"/>
      <stop offset="100%" stop-color="#754C17"/>
    </linearGradient>
    <linearGradient id="big---1.-front-f" x1="45.239%" x2="74.55%" y1="17.721%" y2="60.406%">
      <stop offset="0%" stop-color="#624013" stop-opacity="0"/>
      <stop offset="52.067%" stop-color="#6F4814" stop-opacity=".496"/>
      <stop offset="100%" stop-color="#684414"/>
    </linearGradient>
    <filter id="big---1.-front-g" width="146.2%" height="142.9%" x="-23.1%" y="-21.4%" filterUnits="objectBoundingBox">
      <feGaussianBlur in="SourceGraphic" stdDeviation="3"/>
    </filter>
    <filter id="big---1.-front-h" width="132.7%" height="130.5%" x="-16.4%" y="-15.3%" filterUnits="objectBoundingBox">
      <feGaussianBlur in="SourceGraphic" stdDeviation="3"/>
    </filter>
    <filter id="big---1.-front-i" width="200%" height="134%" x="-50%" y="-17%" filterUnits="objectBoundingBox">
      <feGaussianBlur in="SourceGraphic" stdDeviation="3"/>
    </filter>
  </defs>
  <g fill="none" fill-rule="evenodd">
    <mask id="big---1.-front-b" fill="#fff">
      <use xlink:href="#big---1.-front-a"/>
    </mask>
    <g mask="url(#big---1.-front-b)">
      <use fill="url(#big---1.-front-c)" xlink:href="#big---1.-front-d"/>
      <path fill="url(#big---1.-front-e)" d="M266,168 L262,168 C259.183636,167.982745 255.995324,168 252,168 C244.506391,168 239.812434,168 234.5,168 C213.5,168 205,168.680763 205,168 C256.529948,92.7445644 253.029948,36.7445644 194.5,-4.26325641e-14 C242.166667,22.8485517 266,78.8485517 266,168 Z" opacity=".719"/>
      <path fill="url(#big---1.-front-f)" fill-opacity=".85" d="M0,168 L0,149.546176 C162.914628,132.298298 225.581294,82.4495727 188,-1.89848137e-13 C235.646362,55.6809099 214.891228,111.68091 125.734597,168 L0,168 Z"/>
      <path fill="#B7842C" d="M55.2620509,86.7506415 C54.4499549,85.2937797 54,83.6875708 54,82 C54,75.372583 60.9395864,70 69.5,70 C78.0604136,70 85,75.372583 85,82 C85,83.6875708 84.5500451,85.2937797 83.7379491,86.7506415 C87.0017448,89.4323297 89,93.0366581 89,97 C89,105.284271 80.2695526,112 69.5,112 C58.7304474,112 50,105.284271 50,97 C50,93.0366581 51.9982552,89.4323297 55.2620509,86.7506415 Z" filter="url(#big---1.-front-g)" opacity=".563" style="mix-blend-mode:soft-light"/>
      <path fill="#B7842C" d="M120.010642,71.2222735 C119.065945,69.3068535 118.547619,67.2233977 118.547619,65.0444444 C118.547619,55.6310577 128.221466,48 140.154762,48 C152.088057,48 161.761905,55.6310577 161.761905,65.0444444 C161.761905,67.5069963 161.099874,69.8475742 159.90855,71.9614703 C164.316033,75.6817509 167,80.6128879 167,86.0222222 C167,97.607929 154.687831,107 139.5,107 C124.312169,107 112,97.607929 112,86.0222222 C112,80.2464303 115.059938,75.0158216 120.010642,71.2222735 Z" filter="url(#big---1.-front-h)" opacity=".145" style="mix-blend-mode:soft-light"/>
      <path fill="#FFF" d="M27.9781642,19.3286443 C27.9533485,18.7520768 27.7929928,18.1801004 27.4963179,17.6631044 L24.879659,13.1025216 C24.6801323,12.7548342 24.5422553,12.3820641 24.4658053,12 L24.3564162,12.1904722 C23.7087614,13.3193083 23.7087614,14.7099456 24.3563049,15.8387817 L26.4497211,19.4872032 C27.0972646,20.6160392 27.0972646,22.0067886 26.4497211,23.1355127 L26.340332,23.3260968 C26.2637707,22.9439207 26.1258937,22.5712626 25.926367,22.2235753 L24.0099988,18.8834254 L22.7863541,16.7508311 C22.5868274,16.4031437 22.4490617,16.0303737 22.3723891,15.6483095 L22.2631113,15.8388937 C21.6176821,16.9638106 21.615679,18.3489611 22.2567683,19.4756696 L22.2565457,19.4757816 L24.3564162,23.1355127 C25.004071,24.2643488 25.004071,25.6550981 24.3564162,26.7839342 L24.2470271,26.9745183 C24.1704658,26.5923422 24.0325888,26.2196841 23.8330621,25.8718848 L21.2165145,21.3114139 C20.8655345,20.6996858 20.7051788,20.0111417 20.7345569,19.3290922 C17.9333943,20.0654503 16,21.6290915 16,23.4395291 C16,25.9582187 19.7412637,28 24.3564162,28 C28.9714574,28 32.7127211,25.9582187 32.7127211,23.4395291 C32.7127211,21.6290915 30.7795494,20.0650024 27.9781642,19.3286443"/>
      <path fill="#FFF" fill-rule="nonzero" d="M14.5825127,11.2189127 L9.55417846,23.2105741 L6.27340125,23.2105741 L3.79871723,13.6401904 C3.64887758,13.0520923 3.51841164,12.835631 3.0617808,12.5870559 C2.31552538,12.1818345 1.08321072,11.8028434 -3.55271368e-15,11.5670158 L0.073080551,11.2189127 L5.35474441,11.2189127 C6.02693834,11.2189127 6.63218262,11.6662987 6.78594607,12.4409507 L8.09354838,19.3807046 L11.3215997,11.2189127 L14.5825127,11.2189127 Z M19.0176194,11.2189127 L16.451462,23.2105741 L13.3477457,23.2105741 L15.9139031,11.2189127 L19.0176194,11.2189127 Z M27.436597,19.2953948 C27.4495945,16.1310887 23.0596114,15.9555663 23.0883042,14.5415813 C23.0988494,14.1118456 23.5083948,13.6541635 24.4049803,13.5372303 C24.849104,13.4798669 26.0760235,13.4340251 27.4657802,14.0740935 L28.00947,11.5297541 C27.262724,11.2598516 26.3018864,11 25.1066025,11 C22.0384455,11 19.880117,12.6289754 19.8629505,14.9634724 C19.842841,16.6902599 21.4045086,17.6526914 22.5789473,18.227797 C23.7887003,18.8151596 24.1943219,19.1926799 24.1886815,19.7175311 C24.1800982,20.5220906 23.2226939,20.8782834 22.3324845,20.8915211 C20.7715526,20.9162806 19.8666289,20.4698751 19.1448973,20.133784 L18.5815885,22.7624527 C19.3077345,23.0951118 20.6459913,23.3841354 22.0320695,23.3988439 C25.2937183,23.3988439 27.4270328,21.7884994 27.436597,19.2953948 L27.436597,19.2953948 Z M35.5384834,23.2105741 L38.4079986,23.2105741 L35.9009433,11.2189127 L33.2533675,11.2189127 C32.6562159,11.2189127 32.1544615,11.5652998 31.9317866,12.0979956 L27.2747407,23.2105741 L30.5339371,23.2105741 L31.1803811,21.419314 L35.1622903,21.419314 L35.5384834,23.2105741 Z M32.0740239,18.9620004 L33.7082815,14.458723 L34.6470479,18.9620004 L32.0740239,18.9620004 Z" transform="translate(215 132)"/>
      <g fill="#B7842C" opacity=".4" transform="translate(0 35)">
        <path d="M99.1841 31.1525L98.7331 31.3665C98.9081 31.7015 99.0701 32.0445 99.2771 32.3585 99.2971 32.3885 99.5901 32.2405 99.7561 32.1745 99.5661 31.8345 99.3741 31.4935 99.1841 31.1525M116.5051 43.7335C116.2151 43.5115 115.9571 43.2545 115.9111 43.2885 115.6751 43.4595 115.4951 43.7055 115.2951 43.9255 115.4591 44.0475 115.6551 44.2925 115.7831 44.2595 116.0051 44.2055 116.1861 43.9805 116.5051 43.7335M139.6991 33.3765C139.6501 33.3615 139.6211 33.3535 139.5941 33.3455 139.4271 34.2435 139.2591 35.1405 139.0831 36.0865 140.1061 35.3305 139.9791 34.3695 139.6991 33.3765M102.4291 73.4095C103.2881 73.3615 103.3451 72.7045 103.6011 72.1595 102.4941 71.9285 102.3761 72.0535 102.4291 73.4095M112.2051 42.9295C110.6951 42.2935 110.0471 43.2725 109.2581 43.8205 109.1191 43.9175 109.0551 44.3635 109.1551 44.5235 109.7671 45.5075 110.4361 46.4555 110.9901 47.2725 110.9671 47.9645 110.7151 48.7335 110.9801 49.2245 111.3691 49.9455 112.6351 50.0145 113.5561 49.5695 112.7951 47.8295 112.3491 45.9325 110.8221 44.5425 111.2861 44.0015 111.7081 43.5085 112.2051 42.9295M102.0281 44.8155C101.7721 44.5035 101.5871 44.2465 101.3721 44.0205 101.1541 43.7945 100.9301 43.4965 100.6601 43.4275 100.4991 43.3875 100.1691 43.6905 100.0441 43.9125 99.7701 44.3975 99.6301 44.9635 99.3361 45.4335 99.0341 45.9205 98.8981 46.4875 99.3881 46.7185 99.8571 46.9395 100.5921 46.9695 101.0521 46.7515 101.9131 46.3415 102.6801 46.3385 103.5431 46.6385 104.1271 46.8415 104.7531 46.9845 105.3671 47.0125 105.6641 47.0275 105.9781 46.7175 106.2841 46.5545 106.0991 46.2575 105.9771 45.8815 105.7181 45.6815 105.0391 45.1595 104.3011 44.7155 103.6521 44.2825 103.8281 43.7905 103.9831 43.3565 104.2181 42.6985 103.4961 43.0605 102.9981 43.3095 102.5001 43.5595 102.5201 43.6295 102.5381 43.6985 102.5571 43.7675 102.8521 43.8605 103.1471 43.9535 103.6141 44.0995 102.9851 44.3835 102.5281 44.5905 102.0281 44.8155M95.7291 27.6815C94.9221 27.4435 94.1681 27.2265 94.1191 28.0395 94.0561 29.0475 93.5181 29.5925 92.8721 30.1975 92.2001 30.8255 92.2701 31.7205 92.9061 32.4625 93.3181 32.9425 93.3191 33.3655 92.8311 33.8985 92.5201 34.2395 92.2881 34.9205 92.4111 35.3305 92.6051 35.9715 92.3231 36.0945 91.8901 36.2555 91.3821 36.4415 90.6251 36.4855 90.4201 36.8445 90.0631 37.4705 89.6901 37.4645 89.1141 37.2385 89.1211 37.3335 89.1281 37.4265 89.1361 37.5215 89.8641 37.5965 90.5921 37.6735 91.3211 37.7485 92.1191 37.6825 92.7401 36.6065 93.9601 37.5695 94.1571 37.0405 94.4531 36.5905 94.4651 36.1335 94.4981 34.9665 94.8651 34.6725 95.8901 35.1705 96.1581 34.1415 95.4591 34.3575 94.8781 34.4705 95.2301 33.4655 95.9571 33.0405 96.9861 33.0765 97.3711 33.0905 97.7611 32.9245 98.3351 32.7995 97.4981 32.2835 97.0351 32.2905 95.9981 32.6945 95.1231 33.0355 94.2601 32.4935 94.1921 31.5765 94.1681 31.2615 94.0161 30.9455 94.0441 30.6405 94.0751 30.3205 94.2031 29.9845 94.3721 29.7075 94.7731 29.0525 95.2231 28.4295 95.7291 27.6815M103.6311 50.4605C102.7081 50.3845 101.9351 50.3195 101.1611 50.2635 101.0831 50.2585 100.9931 50.3055 100.9221 50.3505 100.1091 50.8695 99.5111 50.3025 98.9281 49.8985 98.6391 49.6975 98.4001 49.3245 98.2941 48.9805 98.1591 48.5405 98.3441 47.9205 98.0981 47.6105 97.5591 46.9335 97.2141 47.8325 96.7531 47.9495 96.6771 47.9685 96.6001 47.9885 96.4651 48.0235 96.8101 48.4785 97.1271 48.8985 97.3821 49.2345 97.1181 49.5785 96.9611 49.8465 96.7411 50.0415 96.6051 50.1615 96.2811 50.2745 96.1931 50.2045 95.8491 49.9235 95.4611 49.6175 95.2801 49.2315 94.9171 48.4595 94.6961 47.6215 94.3811 46.8245 94.3011 46.6225 94.1201 46.4275 93.9351 46.3025 92.9211 45.6165 91.8921 44.9535 90.8691 44.2835 90.7681 44.6135 90.8141 44.9215 90.9751 45.1485 91.6641 46.1215 92.6141 46.7925 93.6461 47.3645 93.8341 47.4695 93.9441 47.7175 94.0891 47.9005 94.0441 47.9395 93.9981 47.9785 93.9541 48.0165 93.7551 47.9565 93.5571 47.8955 93.0971 47.7555 93.9651 49.1275 92.4431 49.3985 92.3011 50.3785 91.7821 50.1025 91.3191 49.8585 90.6631 49.5115 91.0181 49.3995 91.1441 49.3635 91.2671 49.3195 91.7531 49.1475 92.2391 48.9735 92.7241 48.8005 92.3441 48.3285 91.9721 47.8475 91.5771 47.3875 91.4921 47.2895 91.2971 47.2915 91.1921 47.2025 90.6641 46.7615 90.0601 46.3755 89.6531 45.8405 88.9981 44.9765 88.9101 44.8755 88.0621 45.5285 87.6581 45.8405 87.3281 46.0065 86.8311 45.7805 86.2731 45.5245 86.0191 45.7315 85.8901 46.3535 85.8171 46.7045 85.4111 46.9805 85.1701 47.3025 84.8731 47.7005 84.3961 48.0885 84.3471 48.5195 84.2461 49.4115 83.7051 50.1295 82.8141 50.2355 82.3561 50.2905 81.9091 50.4305 81.4571 50.5325L81.4731 50.8225C82.0401 51.2415 82.9361 51.3575 83.3571 51.0915 84.9911 50.0635 86.7661 50.0835 88.5561 50.0315 89.0731 50.0155 89.5901 50.0285 90.1261 50.0285 90.0901 50.7725 90.0611 51.3825 90.0211 52.1985 90.4281 52.3075 91.0241 52.4655 91.6201 52.6275 91.8971 52.7025 92.3371 52.7035 92.4231 52.8765 92.8441 53.7295 93.8131 53.6085 94.4321 54.0975 94.7911 54.3825 95.0721 54.2155 95.0991 53.7135 95.1521 52.7175 95.8721 52.3285 96.8151 52.7175 97.4491 52.9805 98.1021 53.2835 98.7701 53.3545 100.0361 53.4905 101.3171 53.4875 102.5921 53.5025 102.7681 53.5045 103.0501 53.3105 103.1061 53.1475 103.4151 52.2355 103.9941 51.3555 103.6311 50.4605M108.7601 64.9565C108.9811 65.8985 109.2581 66.0535 110.1931 65.8475 111.2031 65.6255 112.2211 65.4425 113.4841 65.1935 113.2951 65.9195 113.2051 66.5615 112.9641 67.1415 112.1801 69.0315 110.8871 70.4915 109.2471 71.7365 108.3301 72.4335 107.6661 73.4715 106.9091 74.3745 106.0241 75.4275 106.7121 76.5195 106.8791 77.5905 106.9511 78.0485 107.1751 78.4845 107.2311 78.9415 107.4131 80.4365 107.0951 81.6745 105.4601 82.2235 105.1501 82.3285 104.9221 82.6605 104.6301 82.8485 103.9221 83.3055 103.6641 83.8315 103.9551 84.7195 104.2981 85.7705 103.9661 86.1985 102.9761 86.6835 102.7231 86.8075 102.5821 87.1995 102.4321 87.4895 102.1601 88.0135 101.9811 88.5985 101.6481 89.0775 101.1691 89.7625 100.6181 90.4055 100.0411 91.0135 99.2041 91.8975 98.1711 92.3155 96.9221 92.2595 96.3871 92.2365 95.8381 92.4055 95.3041 92.5235 94.4421 92.7135 93.8871 92.2215 93.7941 91.3635 93.7071 90.5605 93.6291 89.6345 93.1901 89.0195 92.4881 88.0355 92.3701 86.9435 92.0761 85.8635 91.8201 84.9235 91.6101 83.9055 91.0861 83.1175 90.2501 81.8575 90.6951 80.7165 91.2611 79.6975 91.6701 78.9595 92.0681 78.4055 91.5961 77.5875 91.5071 77.4315 91.6271 77.1645 91.5541 76.9905 91.1681 76.0745 90.9581 74.9615 90.2971 74.3145 89.2841 73.3235 89.1491 72.3735 89.5661 71.1515 89.9841 69.9265 89.5491 69.4165 88.3161 69.6725 87.7491 69.7905 87.4261 69.6545 87.1141 69.1265 86.9211 68.8005 86.2881 68.3825 86.0681 68.4825 84.2951 69.2805 82.3581 69.0525 80.5361 69.4795 80.3971 69.5125 80.2041 69.6065 80.1241 69.5495 79.0881 68.8025 78.0171 68.0915 77.0621 67.2495 76.4171 66.6785 75.9821 65.8755 75.3761 65.2515 74.9681 64.8305 74.5911 63.6715 74.8251 63.1305 75.2851 62.0695 75.3631 61.0515 74.9691 59.8885 74.7961 59.3805 75.3121 58.5465 75.6811 57.9655 76.3521 56.9105 77.0071 55.8325 78.2471 55.2515 78.6091 55.0815 78.8391 54.4475 78.9581 53.9815 79.1341 53.2915 79.2781 52.6345 79.9871 52.2875 80.1431 52.2115 80.3451 52.1445 80.4251 52.0125 80.6841 51.5855 81.0251 51.1395 81.0621 50.6795 81.0781 50.4915 80.4131 50.1975 80.0211 50.0435 79.6751 49.9065 79.1921 48.9055 79.2781 48.4235 79.4301 47.5615 79.5411 46.6935 79.7141 45.5305 80.1051 45.4995 80.7271 45.4335 81.3511 45.4065 81.6061 45.3945 81.8861 45.5375 82.1201 45.4755 82.5901 45.3525 83.2751 45.9275 83.5271 45.0915 83.7761 44.2705 83.3871 43.2075 82.7491 42.7995 82.4541 42.6115 81.7581 42.7095 82.0321 42.0985 82.1241 41.8915 82.7201 41.9115 83.0861 41.8275 83.1421 41.8145 83.1981 41.8055 83.3021 41.7865 83.3361 41.5945 83.3731 41.3865 83.4141 41.1555 84.2151 41.4625 84.6001 40.9825 85.1071 40.5115 86.1031 39.5875 86.5531 37.9085 88.4401 38.1435 88.3701 36.9625 87.3961 35.6065 89.2761 35.0085 89.3271 35.6495 89.3731 36.2295 89.4241 36.8615 89.7421 36.5685 90.0041 36.3275 90.2741 36.0795 89.9711 35.3375 89.6591 34.5735 89.3141 33.7295 89.0881 33.8775 88.8091 33.9885 88.6331 34.1895 88.2591 34.6175 87.8921 34.8695 87.2801 34.6665 86.5391 34.4205 86.8531 33.7365 86.6311 33.2805 86.6071 33.2295 86.7461 33.0985 86.7201 33.0495 85.7031 31.0565 87.4221 30.5125 88.4621 29.4945 89.0401 28.9275 89.7461 28.3045 89.8521 27.2885 89.9151 26.6775 90.4251 26.1215 90.6901 25.5195 90.7791 25.3185 91.2041 24.9465 90.5501 24.8655 90.6211 24.5395 90.6921 24.2125 90.7631 23.8845 90.8201 23.8945 90.8771 23.9045 90.9351 23.9135 91.0081 24.1415 91.0821 24.3705 91.1561 24.5975 91.2101 24.4395 91.2661 24.2805 91.3211 24.1215 91.6231 23.7945 91.8751 23.3845 92.2411 23.1555 92.9521 22.7075 93.7121 22.3295 94.4801 21.9835 94.8191 21.8305 95.2241 21.8245 95.6441 21.7875 96.4161 21.4845 97.0251 22.0615 97.8661 22.2025 97.5851 22.4965 97.4251 22.6645 97.2371 22.8625 97.3041 22.9035 97.3631 22.9715 97.4231 22.9725 99.2751 23.0065 100.8841 23.7365 102.3601 24.7685 102.6491 24.9705 102.9501 25.5595 102.8511 25.8195 102.7051 26.2005 102.2211 26.6735 101.8511 26.7005 101.0991 26.7565 100.3271 26.5405 99.7121 26.4565 99.8521 26.7805 100.0811 27.2145 100.2271 27.6735 100.4441 28.3545 100.9021 28.6745 101.7721 28.8775 101.3851 28.3795 100.5801 28.2025 101.2361 27.5655 101.6951 27.7375 102.1621 27.9125 102.7291 28.1255 102.2011 26.8895 102.7621 26.2975 104.2601 26.0175 104.0691 25.3185 103.8781 24.6235 103.6211 23.6855 104.2001 23.8795 104.6931 24.0435 105.3351 24.2565 105.0201 24.6395 104.8671 24.8265 104.7001 25.0285 105.0791 25.5405 105.2761 25.6585 105.7711 25.0225 106.4061 24.2095 107.3021 23.5995 108.1771 22.8225 108.2951 23.2115 108.3501 23.3935 108.4221 23.6325 108.9231 23.4155 109.4061 23.1895 109.9001 22.9985 110.1041 22.9205 110.3341 22.9025 110.5551 22.8795 110.7321 22.8615 110.9131 22.8765 111.0911 22.8775 111.0201 22.6785 110.9991 22.4255 110.8641 22.2935 110.6411 22.0765 110.3161 21.9665 110.0841 21.7565 109.9061 21.5915 109.8041 21.3425 109.5431 20.9375 111.5131 21.5665 113.1851 22.1005 115.0381 22.6915 114.1911 22.0295 113.2881 21.4475 113.2221 20.3665 113.1621 19.3675 113.2091 18.3625 113.2091 17.4155 114.6591 16.9885 114.8561 17.2495 115.2251 18.4215 115.6361 19.7235 116.4201 20.9035 116.9551 22.1735 117.1631 22.6685 117.1931 23.2615 117.1931 23.8115 117.1931 24.1575 116.9871 24.5045 116.8731 24.8485 117.5381 24.7195 118.1701 23.5085 117.7461 22.9105 117.2821 22.2565 117.5541 21.9275 118.1161 21.5245 117.6641 21.5935 117.1401 21.8025 117.0261 21.6665 116.7481 21.3385 116.6561 20.8495 116.5041 20.4215 116.4481 20.2605 116.4941 19.9925 116.3951 19.9295 115.2591 19.2145 115.7951 18.1945 115.9031 17.0045 116.1361 17.5235 116.2811 17.8435 116.4251 18.1655 116.6801 18.0845 116.9761 17.9895 117.2231 17.9115 117.1311 17.7145 117.0161 17.4695 116.9021 17.2245 117.1691 17.2085 117.4601 17.1165 117.6981 17.1915 118.2781 17.3755 118.8331 17.6355 119.3991 17.8665 119.4311 17.7985 119.4631 17.7305 119.4951 17.6635 119.2671 17.5225 118.9941 17.4225 118.8191 17.2315 118.4301 16.8085 118.0681 16.3545 117.7541 15.8745 117.7111 15.8085 117.9701 15.4405 118.1571 15.3505 118.7671 15.0545 119.4091 14.8245 120.1171 14.5365 119.9201 14.4265 119.7981 14.3575 119.6741 14.2905 118.7651 13.7925 118.6971 13.4955 119.4031 12.7345 119.8301 12.2755 120.3611 11.9145 120.7771 11.4485 121.0631 11.1285 121.0151 10.5175 121.6611 10.5075 121.9211 10.5045 122.1791 10.4105 122.4391 10.3565L122.5531 10.6055C122.8771 10.1935 123.2011 9.7815 123.4301 9.4895 123.3611 8.8305 123.2511 8.2285 123.2591 7.6295 123.2621 7.4005 123.5181 7.0065 123.6911 6.9875 123.9991 6.9555 124.3551 7.1085 124.6501 7.2615 124.9411 7.4145 125.1821 7.6625 125.4451 7.8695 125.5101 7.8075 125.5751 7.7475 125.6401 7.6865 125.7461 8.0025 125.8531 8.3175 125.9721 8.6715 126.2551 7.7785 127.0651 7.4375 127.8501 7.8225 128.2051 7.9965 128.5961 8.1065 128.9301 8.3115 129.5791 8.7115 129.9031 9.6435 129.6871 10.4555 129.4321 11.4165 129.1451 12.3685 128.9401 13.3565 129.2801 13.1215 129.9981 13.1305 129.5031 12.3655 129.4671 12.3095 129.8711 11.8375 129.9381 11.8665 130.9311 12.2905 131.7841 11.7105 132.6901 11.5355 133.1071 11.4555 133.3861 11.5245 133.7951 11.8475 134.1901 12.1605 135.0241 11.9155 135.6981 11.9155 135.4861 10.5725 135.5011 10.7085 136.7251 10.5695 138.0641 10.4185 138.8591 11.2055 139.2571 12.1065 139.6581 13.0125 140.3781 13.1485 141.1531 13.5115 141.0321 13.0665 140.9121 12.6215 140.8461 12.3815 141.9541 12.0655 143.0131 11.7635 144.1501 11.4405 143.8271 11.0565 143.5571 10.7355 143.3051 10.4345 143.3711 10.1295 143.4401 9.8115 143.5451 9.3285 144.2671 9.3285 145.1281 9.3315 145.9891 9.3255 146.1561 9.3245 146.3411 9.3285 146.4861 9.2605 147.2261 8.9155 147.9411 8.5405 148.3291 9.7125 148.3741 9.8465 148.7311 9.8925 148.9501 9.9535 149.4141 10.0805 149.8841 10.1905 150.5711 10.3635 150.8911 10.1895 151.4301 9.8475 152.0081 9.5945 152.9021 9.2035 153.8121 9.4665 154.2141 10.3565 154.5471 11.0945 154.9541 11.0015 155.5181 10.7835 156.1311 10.5485 156.7761 10.3845 157.3741 10.1175 157.6231 10.0065 157.7931 9.7125 157.9911 9.4935 158.1121 9.3585 158.2171 9.2095 158.3301 9.0665 158.4581 9.2195 158.7001 9.3755 158.6981 9.5265 158.6901 10.3605 159.6211 10.0905 159.8831 10.5825 159.9771 10.5225 160.1581 10.4415 160.1491 10.4055 160.1071 10.2275 160.0491 10.0325 159.9351 9.8955 159.6121 9.5065 159.2571 9.1425 158.8381 8.6855 160.7481 8.1805 162.3971 7.6735 164.1341 8.4685 164.6241 8.6935 165.2751 8.5535 165.8481 8.6165 167.2611 8.7725 167.2601 8.7815 168.2611 9.6525 167.9791 8.8555 168.5001 8.2915 169.3151 8.5115 169.6481 8.6025 169.9821 8.6885 170.4191 8.8035 170.4571 9.3465 170.4971 9.9065 170.5381 10.4655 170.4741 10.4765 170.4101 10.4885 170.3461 10.4995 170.6401 10.9405 170.9711 11.3645 171.2031 11.8365 171.2611 11.9565 171.0111 12.3985 170.8841 12.4075 170.3041 12.4465 169.7181 12.3825 169.1341 12.3565 169.1151 12.2785 169.0941 12.1995 169.0741 12.1205 168.8941 12.3335 168.7141 12.5465 168.4721 12.8325 168.2231 12.7055 167.9541 12.5675 167.6861 12.4295 168.4971 13.3465 169.1191 14.2825 168.0211 15.3235 168.7401 15.9455 169.5411 16.5425 170.2181 17.2575 170.7371 17.8045 170.5501 18.0785 169.8171 18.2495 168.7071 18.5085 168.6261 19.5685 168.3301 20.3995 168.1221 20.9825 168.1261 21.6415 168.0361 22.2665 166.4011 22.0185 166.4011 22.0185 166.1861 22.6335 165.6341 22.8935 165.2481 23.0755 164.9031 23.2385 164.9961 23.9725 165.0721 24.6255 165.1671 25.2755 165.1871 25.4095 165.2821 25.6405 165.3451 25.6415 166.6221 25.6695 166.0521 27.2055 167.0391 27.4305 166.3981 28.0825 166.3981 28.0825 167.1211 29.4915 166.4981 29.8495 166.4921 30.3405 166.5741 31.0605 166.6721 31.9255 166.3261 32.8415 166.1721 33.7355 166.0761 33.7595 165.9791 33.7855 165.8831 33.8095 165.5791 33.3265 165.2701 32.8465 164.9741 32.3575 164.3601 31.3425 163.6751 30.3605 163.1641 29.2955 162.6401 28.1975 162.6861 27.0865 163.1871 25.8905 163.5391 25.0495 163.2011 23.9145 163.5681 23.0865 164.1031 21.8775 163.5051 20.9585 163.2651 19.9255 163.1781 19.9455 163.0911 19.9655 163.0041 19.9855 163.0981 20.3695 163.1921 20.7525 163.2941 21.1725 163.1421 21.5915 162.9611 22.0935 162.7011 22.8125 162.3401 22.4085 162.0511 22.0855 161.7131 21.7075 160.5581 21.7475 160.5101 21.7955 160.4521 23.0625 160.4441 23.2355 160.4441 23.4185 160.3861 23.5775 160.1811 24.1475 160.1701 24.6425 161.0401 24.9315 160.4441 25.2845 160.0281 25.5585 159.5831 25.7715 159.4831 25.8195 159.2201 25.6955 159.1351 25.5765 158.7851 25.0845 158.2621 25.1265 157.8101 25.4515 157.3351 25.7925 156.7151 26.0295 156.1321 26.1005 155.1821 26.2175 154.6791 26.5745 154.4871 27.5835 154.2201 28.9825 153.7501 30.3425 153.3761 31.6915 153.8391 31.8905 154.3851 32.1255 154.9781 32.3805 155.6601 31.4325 156.2471 32.3805 157.0341 32.6575L157.0341 31.7435C157.0961 31.7005 157.1601 31.6575 157.2231 31.6145 157.5381 32.0415 157.9011 32.4415 158.1591 32.9005 158.6791 33.8235 159.1471 34.7765 159.6271 35.7215 159.8041 36.0685 160.1461 36.3295 159.6581 36.8245 159.4591 37.0255 159.7901 37.8285 159.9881 38.3135 160.1201 38.6355 160.4411 38.8805 160.7011 39.1875 160.3051 39.3125 159.9851 39.4135 159.6701 39.5125 159.0881 37.7945 158.4961 36.0445 157.9041 34.2955 157.7741 34.3255 157.6441 34.3555 157.5151 34.3855 157.5661 34.8425 157.4821 35.3785 157.6931 35.7425 158.5611 37.2425 157.9061 38.6865 157.5951 40.1235 157.4331 40.8725 157.0641 41.5995 156.6641 42.2615 156.4841 42.5625 156.0121 42.8225 155.6521 42.8505 155.0721 42.8985 154.4351 43.4555 154.3561 44.0515 154.2931 44.5255 154.1271 45.0275 153.8641 45.4215 153.6081 45.8035 153.6591 45.9325 153.9561 46.2655 154.4871 46.8575 154.9661 47.5275 155.3131 48.2395 155.6211 48.8745 155.5701 49.5125 154.5961 49.5905 154.3861 49.6065 154.1891 49.7765 153.8711 49.9315 153.7061 49.2545 153.5841 48.6295 153.3901 48.0275 153.3161 47.7985 153.0801 47.6185 152.9091 47.4235 152.7301 47.2185 152.5051 47.0455 152.3661 46.8185 152.2051 46.5595 152.1291 46.0255 151.9961 46.0185 151.6351 46.0005 151.2491 46.1685 150.9001 46.3215 150.7091 46.4055 150.5721 46.6085 150.2331 46.9225 150.2721 46.3155 150.3091 45.9235 150.3171 45.5315 150.3201 45.4055 150.2471 45.2765 150.2091 45.1495 150.0651 45.2035 149.8711 45.2155 149.7861 45.3175 149.3401 45.8475 148.9231 46.4015 148.4311 47.0305 148.7061 47.2725 149.0611 47.5845 149.4141 47.8955 149.4131 47.8295 149.4131 47.7625 149.4131 47.6975 149.9301 47.6625 150.4481 47.6025 150.9641 47.6095 151.1041 47.6125 151.2421 47.8165 151.3801 47.9275 151.2531 48.0525 151.1301 48.1805 151.0001 48.3035 150.6941 48.5935 150.3131 48.8385 150.1061 49.1865 149.9971 49.3705 150.1291 49.7695 150.2651 50.0065 150.4741 50.3685 150.7881 50.6695 151.0431 51.0065 151.4751 51.5735 152.1111 52.0835 151.6431 52.9325 152.7371 54.0195 151.4871 54.7625 151.2941 55.6775 151.1571 56.3335 150.9831 56.9155 150.4981 57.3145 149.9381 57.7765 149.2991 58.1555 148.6571 58.5005 148.0581 58.8205 147.3931 59.0155 146.7991 59.3415 146.6801 59.4085 146.6651 59.8485 146.7481 60.0585 146.9341 60.5315 146.6921 61.1465 146.1921 61.1735 145.9821 61.1835 145.5641 60.9455 145.5761 60.8835 145.6371 60.5595 145.8051 60.2565 146.0131 59.7625 145.8881 59.3475 145.5811 59.0405 144.8901 59.4205 144.2101 59.7945 143.8111 60.5495 144.1431 61.0285 144.4001 61.4005 144.7011 61.7815 145.0671 62.0325 145.9201 62.6145 146.2921 63.4535 146.3091 64.4035 146.3181 64.8585 146.0691 65.4255 145.7461 65.7555 145.2341 66.2775 144.5621 66.6435 144.1471 66.9405 143.1891 66.0445 142.2621 65.1765 141.3211 64.2965 140.4491 65.9325 140.7431 67.2125 142.1651 68.2545 142.7571 68.6855 143.2521 69.1255 143.2691 69.9965 143.2791 70.5435 143.6571 71.0835 143.8981 71.6985 142.5001 71.2125 141.5821 70.4135 141.2831 68.9965 141.2141 68.6735 141.0821 68.2965 140.8491 68.0915 140.0831 67.4235 140.1681 66.6085 140.1211 65.7005 140.0591 64.5365 139.6161 63.3925 139.3161 62.1495 138.8621 62.4095 138.6471 62.5545 138.4141 62.6605 137.7701 62.9505 137.6321 62.7495 137.4941 62.0895 137.3591 61.4445 136.9841 60.8305 136.6261 60.2575 136.3321 59.7865 135.9091 59.3965 135.5021 58.9245 134.9801 59.0385 134.3181 59.1775 133.6591 59.3295 133.5501 59.3545 133.4301 59.4125 133.3581 59.4925 132.5271 60.4235 131.7071 61.3665 130.8721 62.2935 130.7241 62.4585 130.4751 62.5395 130.3451 62.7135 130.1241 63.0085 129.8471 63.3315 129.7981 63.6725 129.7041 64.3405 129.9131 65.0865 129.6951 65.6905 129.4601 66.3405 128.8891 66.8745 128.4241 67.4245 128.4001 67.4535 127.8751 67.2115 127.7861 67.0065 126.9261 65.0555 126.0941 63.0935 125.2981 61.1175 125.1191 60.6715 125.1111 60.1555 125.0501 59.8145 124.5721 59.8145 124.0661 59.9495 123.7151 59.7745 123.4131 59.6225 123.3411 59.0645 123.0691 58.7825 122.5361 58.2285 122.0031 57.5905 121.3341 57.2755 120.8181 57.0325 120.0931 57.2555 119.4631 57.2215 118.4591 57.1685 117.4491 57.1285 116.4601 56.9655 116.1751 56.9195 115.9551 56.4745 115.6771 56.1825 114.0791 56.7735 113.0261 55.9655 112.1041 54.7265 111.9351 54.4995 111.4921 54.4745 111.1741 54.3565 111.2051 54.6685 111.1411 55.0345 111.2851 55.2785 111.6021 55.8135 112.0251 56.2875 112.4691 56.8715 112.5131 56.8495 112.6651 56.7775 112.8581 56.6865 112.9091 56.7855 112.9661 56.8795 113.0071 56.9795 113.1291 57.2745 113.2611 57.8315 113.3611 57.8245 113.8201 57.7965 114.3091 57.6835 114.7081 57.4605 115.0381 57.2755 115.2561 56.8935 115.7151 56.3885 115.7241 57.5115 116.1581 57.9555 117.0661 58.1605 117.8131 58.3295 117.9331 59.1395 117.4621 59.7655 116.8501 60.5815 116.3731 61.5175 115.4551 62.0675 115.3831 62.1105 115.3401 62.2075 115.2671 62.2395 113.5811 62.9805 111.8971 63.7245 110.2051 64.4495 109.7371 64.6495 109.2431 64.7905 108.7611 64.9585 108.6141 64.3725 108.3901 63.7945 108.3361 63.1995 108.2281 62.0125 107.3301 61.3225 106.7471 60.4295 106.4781 60.0165 106.2491 59.5755 106.0241 59.1355 105.8941 58.8825 105.8531 58.5725 105.6931 58.3435 105.1371 57.5505 104.5711 56.7635 103.9551 56.0195 103.8011 55.8345 103.4441 55.8175 103.1801 55.7225 103.4881 56.8505 103.7181 57.8985 104.3461 58.5825 104.9741 59.2655 105.2111 59.9665 105.3521 60.7935 105.3701 60.9005 105.4201 61.0225 105.4961 61.0955 106.4911 62.0555 106.9131 63.5045 108.1971 64.2265 108.4441 64.3655 108.5761 64.7075 108.7601 64.9565M40.771 20.8967C40.831 20.9177 41.075 21.0977 41.275 21.0587 42.213 20.8757 41.708 19.9467 42.165 19.4977 42.095 19.4507 42.025 19.4027 41.956 19.3557 41.597 19.8217 41.239 20.2887 40.771 20.8967L40.771 20.8967zM31.145 25.8567C30.383 25.9457 29.612 26.9877 29.044 25.9667 28.575 26.3657 28.121 26.7507 27.489 27.2877 29.023 27.2047 30.117 26.6327 31.145 25.8567L31.145 25.8567zM39.201 42.5457C38.688 42.4577 38.193 42.6067 38.022 43.3707 37.941 43.7347 37.773 44.0797 37.698 44.4447 37.63 44.7757 37.633 45.1217 37.605 45.4607 37.688 45.4797 37.771 45.4977 37.854 45.5157 38.302 44.5287 38.75 43.5417 39.201 42.5457L39.201 42.5457zM39.894 42.5867C40.167 43.2597 40.405 43.8517 40.703 44.5857 40.94 44.0337 41.098 43.6667 41.262 43.2847 41.458 43.3707 41.643 43.4517 41.875 43.5527 41.63 42.5287 40.768 42.1597 39.894 42.5867L39.894 42.5867zM28.961 20.0277C28.348 20.1407 27.825 20.2367 27.256 20.3407 27.515 20.5367 27.719 20.6917 27.903 20.8307 27.42 21.1727 27.002 21.4697 26.488 21.8337 27.172 22.0897 27.401 21.1247 28.063 21.6827 28.258 21.8467 29.019 21.3387 29.549 21.1267 29.113 20.8707 28.836 20.7077 28.558 20.5427 28.67 20.3997 28.782 20.2567 28.961 20.0277L28.961 20.0277zM39.744 41.8407C39.681 40.8887 38.984 40.0837 38.424 40.3067 37.711 40.5887 37.048 40.9957 36.334 41.3637 37.03 42.0697 37.5 41.2917 38.116 41.2337 38.305 42.2697 39.084 41.7627 39.744 41.8407L39.744 41.8407zM36.797 19.1427C36.841 20.4547 37.01 20.5847 39.205 21.0347 39.504 20.7567 39.785 20.4977 40.195 20.1167 39.983 20.0207 39.74 19.9107 39.443 19.7757 40.014 19.3407 40.412 19.0367 40.847 18.7057 41.037 18.8637 41.241 19.0347 41.594 19.3317 41.341 17.9847 42.169 17.2407 42.724 16.3747L42.692 16.4057C42.958 16.1037 43.275 15.8337 43.475 15.4927 43.689 15.1267 43.747 14.6697 43.954 14.2987 44.638 13.0717 45.276 12.9397 46.406 13.7647 46.512 13.8417 46.617 14.1277 46.577 14.1667 46.087 14.6397 45.639 15.2717 45.042 15.4937 44.18 15.8127 43.829 16.1767 43.799 17.0947 43.774 17.8687 44.171 18.7917 43.195 19.3957 43.47 19.5837 43.695 19.7367 43.921 19.8907 43.809 20.1627 43.705 20.4147 43.6 20.6657L43.747 20.7827C43.867 20.5507 43.987 20.3197 44.094 20.1137 45.27 20.8497 43.807 21.7667 44.503 22.4427 45.204 21.5547 45.889 20.6877 46.572 19.8237 46.135 19.5637 45.748 19.3837 45.423 19.1257 45.067 18.8407 45.099 18.5127 45.154 18.0187 45.23 17.3287 45.298 16.7067 45.751 16.1897 46.205 15.6717 46.68 15.1607 47.213 14.7287 47.701 14.3337 48.265 14.3107 48.806 14.7987 48.67 14.9667 48.553 15.1137 48.577 15.0837 49.411 15.1677 50.36 15.1917 51.271 15.3947 51.569 15.4607 51.844 15.9577 51.986 16.3137 52.147 16.7207 52.134 17.1937 52.22 17.6327 52.305 18.0717 52.292 18.6037 52.99 18.5467 53.072 18.5407 53.225 18.6677 53.245 18.7567 53.502 19.8757 55.192 20.3867 54.393 21.9177 53.762 22.0777 53.682 22.3037 54.206 22.9337 54.506 23.2927 54.811 23.6517 55.139 23.9847 55.471 24.3227 55.835 24.6277 56.254 25.0107 55.65 25.5727 55.097 26.0857 54.391 26.7417 54.092 26.2407 53.792 25.7397 53.469 25.1987 52.864 25.3477 52.831 25.8967 53.093 26.1817 53.957 27.1237 54.026 28.0637 53.315 29.0797 52.967 28.7667 52.563 28.4027 52.016 27.9107 52.319 28.5267 52.533 28.9617 52.774 29.4527 51.628 29.4617 50.403 28.5647 50.164 27.6387 49.939 26.7677 49.349 26.5627 48.53 26.6227 48.225 26.6447 47.892 26.5007 47.604 26.3647 47.555 26.3407 47.604 25.8467 47.719 25.7887 48.004 25.6447 48.351 25.5817 48.676 25.5677 49.187 25.5467 49.738 25.8037 49.884 24.9357 49.941 24.5937 50.445 24.3187 50.762 24.0307 51.482 23.3737 51.429 22.7887 50.619 22.2967 49.854 21.8337 50.067 20.9697 49.844 20.2857 49.811 20.1817 49.83 20.0607 49.814 19.7517 49.152 20.9197 48.388 20.3627 47.467 20.0077 47.677 20.4257 47.923 20.6937 47.906 20.9417 47.885 21.2337 47.639 21.5107 47.483 21.7907 47.371 21.9917 47.096 22.2517 47.149 22.3717 47.525 23.2087 46.873 23.4477 46.388 23.7817 45.841 24.1597 45.284 24.2807 44.728 23.7847 44.697 23.7557 44.62 23.7807 44.405 23.7807 44.697 24.3187 44.938 24.8047 45.219 25.2677 45.542 25.8017 45.899 26.3147 46.259 26.8637 45.646 27.5347 45.309 27.0517 44.952 26.5627 44.547 26.8487 44.159 27.1237 43.732 27.4247 43.511 27.0817 43.333 26.8017 43.173 26.5537 43.44 26.0007 43.698 25.4637 43.956 24.9287 43.914 24.9017 43.872 24.8757 43.83 24.8477 43.657 25.0657 43.516 25.3217 43.306 25.4907 42.887 25.8277 42.629 26.5047 41.875 26.2177 41.802 26.1907 41.645 26.3557 41.54 26.4467 40.557 27.2987 39.522 28.1027 38.618 29.0327 38.142 29.5217 37.896 30.2347 37.507 30.9157 38.597 31.2827 38.236 32.0677 38.294 32.7267 39.196 32.7097 39.767 33.1797 40.372 33.7937 40.983 34.4147 41.845 34.7867 42.758 35.3697 42.69 35.6947 42.57 36.2727 42.458 36.8167 42.662 36.8407 42.867 36.8647 43.073 36.8887 43.072 36.9587 43.071 37.0287 43.071 37.0977 42.875 37.1317 42.679 37.1667 42.411 37.2127 42.635 37.5957 42.848 37.9587 43.068 38.3357 43.69 38.2417 43.893 37.8897 43.861 37.3087 43.841 36.9357 43.966 36.5517 43.929 36.1827 43.876 35.6537 44.085 35.3767 44.567 35.2137 46.029 34.7197 46.238 33.9257 45.645 32.4277 45.577 32.2587 45.505 31.9557 45.585 31.8847 46.542 31.0497 46.483 29.8927 46.639 28.7937 46.662 28.6287 46.845 28.4287 47.005 28.3507 47.41 28.1547 49.274 28.9397 49.538 29.3297 49.734 29.6197 50.04 29.8337 50.253 30.1137 50.387 30.2897 50.513 30.5237 50.516 30.7337 50.519 31.0127 50.305 31.3107 50.354 31.5697 50.425 31.9547 50.579 32.3727 50.834 32.6487 50.925 32.7477 51.498 32.5587 51.709 32.3537 52.11 31.9627 52.411 31.4677 52.862 31.0237 52.931 32.3177 53.873 33.3947 53.561 34.7927 53.491 35.1057 54.178 35.5917 54.525 35.9917 54.901 36.4247 55.273 36.8627 55.669 37.2767 56.195 37.8277 55.842 38.3227 55.667 38.8807 55.503 39.4077 55.52 39.9897 55.445 40.6507 55.892 40.5777 56.135 40.5377 56.494 40.4777 56.461 41.2777 57.052 41.9917 56.575 42.9217 56.269 42.6857 56.042 42.5117 55.792 42.3197 55.677 42.3857 55.505 42.4857 55.335 42.5847 54.959 41.5537 53.99 42.3197 53.312 41.8147 53.852 40.9997 54.409 40.1607 55.024 39.2327 54.74 39.2497 54.468 39.1847 54.38 39.2837 53.632 40.1257 52.668 40.0657 51.721 39.9017 50.66 39.7187 49.723 39.7737 49.1 40.7617 49.66 40.8137 50.395 40.1437 50.87 40.9547 50.697 41.4187 50.538 41.8487 50.414 42.1827 50.971 42.5237 51.413 42.7937 51.893 43.0867 52.055 42.9147 52.288 42.6667 52.583 42.3517 52.721 42.6657 52.828 42.9107 52.977 43.2487 52.426 43.4847 51.909 43.7027 51.395 43.9277 51.008 44.0977 50.631 44.2907 50.241 44.4507 49.969 44.5617 49.682 44.6337 49.402 44.7237 49.373 44.4247 49.343 44.1257 49.313 43.8147 48.528 44.5007 46.575 44.0047 46.871 46.2097 44.99 46.1797 44.29 47.8667 43.203 49.2867 43.446 50.0747 43.15 50.7927 42.151 51.2847 41.492 51.6087 40.934 52.1357 40.323 52.5617 39.581 53.0797 39.737 53.8217 39.832 54.5357 39.908 55.1057 40.093 55.6667 40.12 56.2367 40.134 56.5477 39.92 56.8697 39.765 57.3147 38.93 56.7437 38.634 56.0087 38.579 55.2097 38.533 54.5467 38.486 54.1357 37.626 54.1877 37.028 54.2237 36.417 53.9167 35.801 53.8447 35.571 53.8187 35.131 53.9867 35.1 54.1327 34.951 54.8277 34.382 54.7017 34.1 54.5357 32.847 53.7987 31.913 54.6457 30.903 55.0867 30.734 55.1617 30.611 55.4527 30.561 55.6647 30.381 56.4187 30.238 57.1827 30.089 57.9457 29.902 58.9037 30.02 59.8297 30.671 60.5677 30.983 60.9207 31.528 61.3387 31.919 61.2947 32.603 61.2177 33.526 61.3637 33.791 60.2987 33.954 59.6467 35.17 59.0737 35.79 59.3107 35.915 59.3587 36.022 59.7637 35.959 59.9407 35.629 60.8577 35.241 61.7537 34.83 62.7627 35.559 62.7627 36.135 62.7307 36.706 62.7697 37.794 62.8457 38.007 63.1527 37.769 64.2227 37.603 64.9737 37.212 65.7787 38.011 66.3757 38.315 66.6027 38.873 66.8237 39.15 66.6937 39.94 66.3237 40.542 66.5137 41.233 67.1407 41.849 65.6827 43.172 65.3307 44.542 64.8067 44.484 65.1307 44.447 65.3437 44.41 65.5567 44.515 65.6527 44.621 65.7477 44.727 65.8427 44.838 65.5497 44.95 65.2567 44.994 65.1397 45.967 65.4617 46.829 65.7527 47.696 66.0277 47.826 66.0697 48.018 66.0917 48.115 66.0267 48.759 65.5957 49.215 65.5937 49.778 66.2807 50.337 66.9627 51.115 67.4847 51.853 67.9967 52.233 68.2597 52.726 68.4597 53.184 68.4987 54.455 68.6037 55.377 69.0327 56.023 70.2637 56.387 70.9567 56.261 72.0247 57.278 72.3327 57.843 72.5037 58.474 72.5717 58.958 72.8747 59.862 73.4397 60.83 73.5127 61.839 73.6097 62.285 73.6527 62.71 74.0117 63.124 74.2607 63.444 74.4537 63.704 74.7617 64.039 74.9067 65.066 75.3487 65.458 76.4717 64.823 77.4077 64.355 78.0967 63.794 78.7247 63.33 79.4177 63.113 79.7437 62.891 80.1637 62.906 80.5307 62.968 82.0497 62.542 83.4457 61.907 84.7787 61.763 85.0827 61.292 85.4017 60.958 85.4157 59.787 85.4617 59.011 86.1837 58.204 86.8587 58.001 87.0277 57.755 87.3907 57.81 87.5847 58.168 88.8457 57.262 89.6467 56.78 90.5907 56.489 91.1617 56.088 91.6757 55.743 92.2197 55.044 93.3237 54.848 93.4057 53.477 93.1057 53.499 93.8767 54.349 94.7267 53.56 95.3557 52.976 95.8207 52.125 95.9507 51.3 96.2657 51.087 97.7277 51.087 97.7277 49.726 97.6627 49.929 97.8327 50.129 98.0047 50.334 98.1717 50.456 98.2727 50.693 98.3767 50.686 98.4597 50.671 98.6107 50.521 98.7547 50.41 98.8887 50.301 99.0207 50.065 99.1387 50.069 99.2577 50.091 100.0437 49.779 100.6227 49.107 101.0167 49.278 101.3007 49.382 101.7297 49.63 101.8437 50.357 102.1767 50.336 102.5467 49.936 103.1337 49.555 103.6917 49.265 104.3107 48.933 104.9057 49.413 106.2087 49.738 107.6987 51.561 107.9977 50.099 109.2227 49.468 109.2177 48.237 108.1447 48.047 107.9797 47.645 108.0507 47.469 107.8797 47.108 107.5297 46.33 107.4807 46.543 106.6457 46.585 106.4807 46.248 106.2197 46.045 105.9497 46.127 105.8787 46.255 105.7687 46.492 105.5637 46.184 105.6007 46.027 105.6207 45.886 105.6377 45.663 105.0537 45.433 104.4867 45.231 103.9097 45.085 103.4927 44.946 103.1617 45.332 102.6697 45.849 102.0097 45.064 102.1227 44.579 102.0127 45.366 100.8977 45.874 99.7477 45.549 98.1627 45.407 98.7057 45.319 99.0417 45.17 99.6137 44.988 99.2437 44.844 99.0867 44.845 98.9317 44.854 98.2077 44.901 97.4827 44.937 96.7587 44.944 96.6177 45.027 96.4277 44.964 96.3407 44.284 95.4117 44.94 94.5267 45.016 93.6197 45.092 92.7097 45.08 91.7937 45.098 90.8797 45.107 90.4277 45.079 89.9737 45.1 89.5227 45.164 88.1127 45.207 86.7007 45.327 85.2947 45.488 83.4217 45.105 82.5537 43.384 81.7667 41.697 80.9967 41.316 79.2987 40.419 77.9607 39.947 77.2577 39.449 76.5667 38.898 75.9247 38.487 75.4487 38.571 74.6767 39.207 74.0627 38.733 73.3957 38.8 72.2587 39.38 71.6287 39.764 71.2117 40.213 70.8537 40.586 70.4287 41.162 69.7727 40.815 69.0017 40.717 68.3007 40.653 67.8437 40.316 67.4247 40.02 66.8227 39.718 67.2347 39.485 67.5527 39.163 67.9927 38.217 67.4647 37.221 66.9477 36.274 66.3507 36.065 66.2177 36.059 65.7917 35.915 65.5237 35.492 64.7397 34.712 64.5467 33.937 64.2827 33.308 64.0687 32.71 63.7057 32.168 63.3117 31.702 62.9737 31.306 62.8877 30.702 62.8887 29.797 62.8907 28.856 62.5457 27.996 62.1927 27.208 61.8687 26.482 61.3697 25.78 60.8757 25.54 60.7077 25.26 60.2467 25.334 60.0417 25.69 59.0637 25.105 58.4447 24.628 57.7597 23.858 56.6577 23.082 55.5587 22.351 54.4307 22.137 54.1007 22.088 53.6677 21.926 53.2997 21.816 53.0507 21.64 52.8317 21.494 52.5977L21.149 52.7447C21.29 53.2077 21.382 53.6937 21.58 54.1297 22.15 55.3877 22.769 56.6247 23.35 57.8767 23.408 58.0037 23.337 58.1917 23.232 58.4007 22.777 57.8247 21.948 57.5927 21.913 56.6597 21.902 56.4027 21.609 56.1327 21.398 55.9167 21.182 55.6947 20.907 55.5307 20.57 55.2747 21.246 54.8467 20.975 54.5077 20.681 54.0117 20.292 53.3567 20.16 52.5557 19.854 51.8437 19.683 51.4487 19.464 50.9307 19.127 50.7767 18.151 50.3317 17.92 49.5167 17.752 48.6087 17.587 47.7177 17.289 46.8347 17.258 45.9417 17.228 45.0477 17.279 44.0747 17.608 43.2637 18.203 41.8017 18.721 40.3507 18.731 38.7637 18.732 38.5237 18.548 38.2677 18.41 38.0437 18.078 37.5077 17.723 36.9867 17.377 36.4597 17.454 36.3917 17.531 36.3237 17.607 36.2537 17.853 36.3557 18.098 36.4567 18.306 36.5417 18.148 35.6587 17.988 34.7547 17.821 33.8247 17.741 33.8097 17.58 33.7807 17.44 33.7557 17.523 33.1257 17.6 32.5397 17.688 31.8687 17.187 31.9987 16.927 32.0657 16.877 32.0787 16.682 31.4387 16.515 30.9107 16.362 30.3787 16.302 30.1697 16.235 29.9537 16.233 29.7407 16.225 28.2617 15.826 26.9397 14.613 26.0077 13.701 25.3087 12.726 24.6937 11.68 23.9717 11.743 24.1817 11.795 24.2987 11.813 24.4217 11.847 24.6497 11.861 24.8787 11.884 25.1077 11.727 25.0567 11.554 24.9377 11.414 24.9667 11.023 25.0477 10.645 25.1907 10.262 25.3107 9.876 25.4327 9.491 25.5577 8.868 25.7557 9.286 25.0457 9.553 24.5907 9.819 24.1367 9.43 24.8127 8.127 24.4307 8.132 25.6507 8.133 25.8887 7.622 26.1667 7.307 26.3627 5.256 27.6407 3.149 28.8077.781 29.4067.549 29.4647.289 29.4147 0 29.3227 1.994 28.0547 4.629 27.7527 5.888 25.4167 5.251 25.2197 4.666 25.0387 3.971 24.8237 4.08 24.4007 4.204 23.9227 4.326 23.4467 3.269 23.2857 3.415 23.0427 3.354 21.9587 3.272 20.5097 4.46 20.1297 5.033 19.2507 5.091 19.1617 5.216 19.0687 5.317 19.0607 5.909 19.0137 6.503 19.0007 7.096 18.9597 7.977 18.8997 7.801 18.1517 7.979 17.7097 7.34 17.6607 6.729 17.6617 6.138 17.5527 5.611 17.4577 5.473 17.0747 5.626 16.5557 5.726 16.2227 5.752 15.8697 5.811 15.5247 5.737 15.4417 5.664 15.3597 5.59 15.2777 6.489 15.0107 7.388 14.7457 8.287 14.4787 8.262 14.5857 8.238 14.6937 8.213 14.8007 8.444 15.0767 8.625 15.4717 8.92 15.5947 9.254 15.7347 9.467 14.8837 9.325 14.3197 9.13 13.5457 8.931 12.7397 8.963 11.9567 8.981 11.5297 9.348 11.0497 10.064 11.1127 10.555 11.1557 11.124 10.9887 11.565 10.7477 12.264 10.3637 12.969 10.0377 13.694 9.7247 14.514 9.3717 15.368 9.6087 16.117 9.2027 16.248 9.1317 16.591 9.2347 16.691 9.3667 17.138 9.9567 17.533 10.5847 17.968 11.1517 19.624 12.5897 22.124 12.9757 22.902 15.4597 23.593 15.0587 24.039 14.5797 24.809 14.9847 25.117 15.1467 25.677 14.7777 26.13 14.7347 26.498 14.7007 26.877 14.7927 27.251 14.8297 27.28 14.9237 27.31 15.0187 27.339 15.1127 27.58 14.8537 27.82 14.5937 28.24 14.1417 28.207 14.8657 28.182 15.4037 28.154 16.0217 28.474 15.8377 28.756 15.6747 29.118 15.4667 29.099 15.8157 29.083 16.0847 29.064 16.4337 29.746 15.8117 30.107 16.0927 30.53 16.7247 30.851 17.2037 31.366 17.6367 31.893 17.8647 32.318 18.0487 32.79 18.1407 32.737 18.6407 32.71 18.8907 32.271 19.0967 31.862 19.4607 32.298 19.5987 32.741 19.8877 33.132 19.8307 34.015 19.7007 34.511 19.9957 34.671 20.8377 35.012 20.4327 35.325 20.0597 35.607 19.7237 35.524 19.6997 35.303 19.6347 34.94 19.5277 35.59 18.9077 36.171 18.8517 36.823 19.1707L36.797 19.1427zM63.085 4.0471C63.828 3.8731 64.569 3.6951 65.313 3.5271 66.433 3.2751 66.623 3.4041 66.779 4.5051 66.794 4.6121 66.82 4.7191 66.89 5.0771 67.105 4.7591 67.266 4.6221 67.295 4.4611 67.478 3.4781 67.468 3.4761 68.163 3.6471 68.382 4.2851 68.571 4.8371 68.761 5.3881 68.829 5.3711 68.897 5.3541 68.965 5.3361 68.87 4.7061 68.774 4.0761 68.669 3.3791L69.555 3.3791C69.481 3.1671 69.418 2.9861 69.271 2.5651 69.897 2.5241 70.466 2.5181 71.023 2.4351 71.317 2.3911 71.659 2.2801 71.861 2.0811 72.485 1.4661 73.184 1.6101 73.89 1.7941 74.395 1.9251 74.903 2.0721 75.374 2.2901 75.584 2.3891 75.705 2.6801 75.714 2.9771 76.324 3.4461 76.942 3.9061 77.521 4.4111 77.556 4.4421 77.331 4.9521 77.145 5.0221 76.639 5.2111 76.09 5.2831 75.625 5.3871 75.601 5.6701 75.578 5.9371 75.542 6.3521 75.789 6.1881 75.985 6.0341 76.202 5.9201 76.399 5.8181 76.619 5.7581 76.829 5.6791 76.861 5.9081 76.992 6.1901 76.905 6.3571 76.732 6.6881 76.44 6.9561 76.047 7.4301 76.776 7.0341 77.36 6.7861 77.865 6.4271 78.519 5.9611 79.654 6.0871 79.985 6.7961 80.073 6.9841 79.936 7.4141 79.759 7.5651 78.372 8.7411 77.283 10.0691 76.907 11.9291 76.771 12.6041 76.485 13.1321 77.037 13.8041 77.245 14.0561 76.926 14.7411 76.854 15.1861 76.578 14.8801 76.163 14.3371 76.108 14.3711 75.458 14.7771 76.318 15.0281 76.263 15.4151 76.202 15.8391 76.173 16.2691 76.137 16.6961 76.126 16.8261 76.081 16.9941 76.141 17.0831 76.607 17.7711 76.105 17.8581 75.796 18.0801L75.102 19.1411C74.609 20.1381 74.694 21.2621 74.88 22.3571 73.939 22.7471 73.662 22.1331 73.391 21.5271 73.258 21.8631 73.145 22.1491 73.036 22.4231 73.404 22.5141 73.867 22.6291 74.33 22.7431 74.369 22.8281 74.408 22.9121 74.446 22.9971 73.649 23.4581 72.899 24.0691 72.043 24.3471 70.734 24.7691 69.378 24.8751 68.496 26.2351 68.162 26.7511 67.199 26.9391 66.483 27.1021 65.861 27.2431 65.523 27.5071 65.269 28.0841 64.699 29.3831 64.069 30.6561 63.426 31.9211 63.148 32.4661 62.717 32.1751 62.401 31.9501 62.208 31.8131 62.12 31.5281 61.981 31.3051 61.057 31.4071 60.756 31.1561 60.533 30.1501 60.251 28.8731 59.902 27.6101 59.662 26.3261 59.482 25.3701 59.558 24.4201 60.351 23.6971 60.524 23.5401 60.741 23.4211 60.953 23.3161 61.476 23.0561 61.625 22.6291 61.442 22.1311 61.103 22.2901 60.757 22.5751 60.43 22.5541 60.263 22.5441 59.95 21.9371 60.019 21.6851 60.183 21.0801 60.4 20.3271 61.399 20.9071 61.305 20.4931 61.246 20.2321 61.194 19.9991L60.339 19.9991C60.351 19.7401 60.281 19.4421 60.387 19.2311 61.08 17.8491 60.624 16.4541 60.579 15.0421 60.544 13.9671 60.043 13.5081 59.237 13.2401 58.725 13.0701 58.124 13.1781 57.565 13.1261 57.341 13.1051 56.989 13.0491 56.931 12.9091 56.719 12.4021 56.544 11.8591 56.497792 11.3181 56.486 11.1791 56.996 10.9951 57.309 10.8071 57.154 10.5381 56.96 10.1671 56.733 9.8181 56.359 9.2421 56.607 8.8501 57.155 8.7141 57.979 8.5081 58.855 8.4991 59.663 8.2551 60.093 8.1251 60.425 7.6751 60.893 7.2971 60.499 7.0671 60.284 6.9411 60.051 6.8041 60.056 6.7261 60.031 6.6261 60.069 6.5661 60.587 5.7441 61.299 5.2171 62.3 5.1871 63.118 5.1611 63.017 4.5301 63.11 4.0211L63.085 4.0471zM170.2065 87.9494C170.2065 88.7484 170.3705 89.5064 170.1715 90.1534 169.7985 91.3724 169.2795 92.5584 168.7035 93.6984 168.1095 94.8714 167.3825 95.9764 166.6945 97.0994 166.5295 97.3714 166.3345 97.6734 166.0735 97.8274 165.5645 98.1274 165.0185 98.4064 164.4505 98.5494 164.1445 98.6264 163.7625 98.4024 163.4145 98.3144 163.4255 98.2374 163.4355 98.1594 163.4465 98.0824 163.1705 98.2244 162.8945 98.3674 162.6595 98.4884 162.2635 98.2734 161.8845 98.1184 161.5655 97.8804 161.2995 97.6814 160.9875 97.4224 160.9005 97.1294 160.7015 96.4534 160.6255 95.7404 160.5005 95.0464 160.1505 95.1124 159.9215 95.1554 159.6205 95.2124 159.8575 94.7594 160.0455 94.4024 160.2315 94.0464 160.1935 94.0194 160.1545 93.9934 160.1155 93.9674 159.7765 94.2634 159.4365 94.5594 159.0295 94.9154 158.9495 94.6924 158.8735 94.5494 158.8465 94.3954 158.5555 92.7534 157.1375 91.9184 155.5265 92.4294 154.4425 92.7744 153.2315 92.8014 152.3835 93.7294 152.3075 93.8124 152.1025 93.8264 151.9685 93.8034 151.0025 93.6324 150.1585 93.9264 149.3185 94.3814 148.6965 94.7184 148.1255 94.4904 147.7215 93.9314 147.6245 93.7984 147.5625 93.4864 147.6425 93.3984 148.5745 92.3634 148.1785 91.1534 147.9285 90.0894 147.5775 88.5994 147.6185 87.1444 148.1485 85.8034 148.3715 85.2364 149.3285 84.8914 150.0175 84.5964 150.6985 84.3054 151.5015 84.2914 152.1745 83.9874 152.5705 83.8074 152.9195 83.3454 153.1035 82.9284 153.2845 82.5204 153.2795 82.1194 153.9095 82.1434 154.1215 82.1524 154.3525 81.7764 154.5685 81.5694 154.8725 81.2784 155.1435 80.9464 155.4755 80.6944 155.8965 80.3744 156.3345 80.2214 156.7345 80.7974 156.8365 80.9424 157.1365 80.9504 157.2475 80.9884 157.6865 80.3914 158.0715 79.8684 158.4685 79.3294 158.4035 79.2494 158.3075 79.1264 158.0365 78.7854 158.4595 78.8754 158.6615 78.8814 158.8225 78.9644 158.9635 79.0364 159.0595 79.1954 159.1745 79.3164 159.2285 79.1604 159.2835 79.0044 159.3345 78.8594 160.1835 79.0574 161.0395 79.2584 162.0205 79.4874 161.8695 79.7184 161.7025 79.9824 161.5265 80.2424 161.1435 80.8074 161.1285 81.2884 161.7815 81.6854 162.2875 81.9944 162.7365 82.4054 163.2645 82.6594 163.4485 82.7484 163.9535 82.5744 164.0325 82.3964 164.2515 81.9044 164.3285 81.3474 164.4515 80.8134 164.6185 80.0904 164.7755 79.3644 164.9345 78.6564 165.1305 78.6784 165.2275 78.6714 165.2335 78.6934 165.7335 80.2204 166.9165 81.4834 166.9775 83.1814 166.9825 83.3524 166.9945 83.6344 167.0875 83.6764 168.1495 84.1524 168.3035 85.3314 168.9845 86.0994 169.3125 86.4694 169.4655 86.9894 169.7315 87.4194 169.8715 87.6434 170.0885 87.8204 170.2065 87.9494"/>
        <path d="M63.1099 4.0207C62.7399 4.0667 62.3689 4.1117 62.0419 4.1527 61.7139 5.4547 60.3689 5.2787 59.6029 5.9087 58.7859 6.5797 57.9919 7.3857 56.7619 7.1107 56.8229 8.0647 55.7349 9.3207 54.9149 9.5657 54.3949 9.7207 53.9679 10.1837 53.6829 10.3817 53.5959 10.8717 53.6259 11.3827 53.4699 11.4467 53.0479 11.6207 52.5439 11.6737 52.0799 11.6437 51.6009 11.6117 51.1309 11.4227 50.6569 11.3037 50.3579 11.2287 50.0409 11.1937 49.7619 11.0727 49.2409 10.8457 48.7429 10.4927 48.2449 11.1227 48.5389 11.8027 49.1089 12.0707 49.8859 12.0187 50.2589 11.9947 50.6419 12.0027 51.0099 12.0637 51.5589 12.1527 52.0489 12.4137 51.9669 13.0577 51.8869 13.6877 51.4519 14.2207 50.7999 14.0807 49.5169 13.8017 48.2419 13.4317 47.0179 12.9597 46.3199 12.6917 46.6569 12.0537 46.9469 11.6387 47.3499 11.0617 47.6279 10.6327 46.7509 10.2077 46.5169 10.0937 46.4499 9.5707 46.3859 9.2197 46.3669 9.1187 46.6729 8.8337 46.7479 8.8607 47.0569 8.9717 47.4769 9.1027 47.5949 9.3507 47.9729 10.1387 48.5989 9.9967 49.2069 9.8817 49.6229 9.8027 50.0159 9.6077 50.3469 9.4897 50.4509 9.1587 50.5459 8.8557 50.6409 8.5517 50.9229 8.6507 51.2049 8.7497 51.5819 8.8827 51.3809 8.5467 51.1809 8.2127 50.9499 7.8277 50.2879 8.0737 49.5099 7.9167 49.3779 7.3727 49.2219 6.7267 49.2299 6.0737 50.0599 5.8447 48.6519 4.9107 50.5209 4.2277 50.2919 3.5477 50.8609 2.9667 51.3769 2.4407 52.0419 1.7627 52.3079 1.7707 52.5469 2.0417 52.5089 2.5717 52.4669 3.1517 52.3869 3.7297 53.0589 4.0677 53.1549 4.1167 53.1169 4.4307 53.1329 4.5647 53.9149 4.6867 54.7139 4.8127 55.5129 4.9377 55.5199 4.9047 55.5269 4.8727 55.5339 4.8397 54.8669 4.5317 54.1969 4.2297 53.5339 3.9147 53.0499 3.6847 53.0099 3.3297 53.1489 2.8317 53.2519 2.4627 53.1689 2.0427 53.1689 1.4837 53.7349 1.0827 54.4689.8937 55.2829 1.3477 55.8789.3327 56.0759.2917 56.6259 1.0187 57.0369.7477 57.4129.3907 57.8599.2387 58.2419.1077 58.7039.2107 59.3309.2107 59.3689.1947 59.6509-.0503 59.8329.0097 60.9189.3667 62.1369.4477 62.9979 1.3107 63.2989 1.6117 63.7149 1.6717 63.9309 2.2557 64.2639 3.1577 63.9659 3.4647 63.3179 3.8137 63.2259 3.8627 63.1629 3.9667 63.0859 4.0457 63.0849 4.0467 63.1099 4.0207 63.1099 4.0207M36.8228 19.1711C36.5148 18.1451 35.8198 18.9311 35.3188 18.8811 34.8328 18.8321 34.3288 18.9881 33.8308 19.0311 32.9988 19.1021 32.7968 18.6921 33.1028 17.9551 32.8338 17.8141 32.5208 17.7501 32.4028 17.5641 32.2338 17.2961 32.0968 16.9141 32.1598 16.6281 32.2018 16.4421 32.6298 16.2111 32.8718 16.2261 33.4598 16.2621 34.0388 16.4281 34.7328 16.3811 34.4238 16.2131 34.1248 16.0251 33.8038 15.8871 33.6538 15.8231 33.4278 15.9151 33.2938 15.8391 32.9948 15.6671 32.7318 15.4351 32.4538 15.2271 32.6528 14.9861 32.8508 14.7451 33.0518 14.5011 32.2138 13.9001 33.0818 13.5661 33.5478 13.0211 32.4438 13.2651 31.9088 14.6631 30.6588 13.9851 30.5828 13.6061 30.4928 13.1621 30.4038 12.7181L30.6298 12.9551C31.1698 12.2761 31.7078 11.5971 32.2498 10.9201 32.3568 10.7871 32.5138 10.6871 32.5918 10.5401 33.0898 9.6011 33.7998 9.4541 34.6678 10.1121 34.8468 10.2481 35.1068 10.2911 35.2608 10.4451 35.5148 10.7001 35.7628 10.9861 35.9178 11.3061 36.0218 11.5221 35.9458 11.8191 35.9778 12.0771 36.0078 12.3171 36.0728 12.5511 36.0708 12.5401 36.5158 13.0361 36.8368 13.3931 37.1808 13.7751 37.2408 13.6801 37.3638 13.4831 37.4848 13.2871 37.8968 13.2441 37.9268 13.7001 37.6818 15.1581 37.7438 15.0371 37.8138 14.9201 37.8648 14.7951 37.9318 14.6351 38.0238 14.4711 38.0348 14.3051 38.0988 13.3001 38.9958 13.0381 39.6318 12.5831 39.7958 12.4661 40.2378 12.7361 40.5518 12.8291 40.4578 13.0741 40.4318 13.4531 40.2568 13.5431 39.0868 14.1451 39.2278 15.4191 38.8088 16.3821 38.6798 16.6781 39.1798 17.2301 39.3458 17.6811 39.4438 17.9471 39.4498 18.2481 39.4978 18.5321 39.2278 18.5561 38.9588 18.5791 38.6778 18.6041 38.6568 19.4581 38.3828 19.6731 37.5208 19.4251 37.2738 19.3531 37.0378 19.2381 36.7968 19.1431L36.8228 19.1711zM161.2173 74.1857C162.3213 72.5077 163.6043 73.2177 164.7923 73.7417 166.0023 74.2747 167.1443 74.9637 168.2593 75.5557 168.1893 76.6947 168.3383 77.2317 170.1243 77.9647 169.6353 78.5137 168.5253 78.5147 167.9633 77.9487 167.7393 77.7227 167.5783 77.4367 167.3543 77.2117 166.7663 76.6237 166.2603 76.6977 165.7983 77.4177 165.3593 78.1047 164.7833 77.5817 164.3123 77.5217 163.7663 77.4527 163.2523 77.1297 162.7173 76.9147 163.1613 75.7007 163.0253 75.4477 161.5633 74.9617 161.0243 74.7837 160.4883 74.5987 159.7473 74.3477 159.6433 73.9277 159.5613 73.1647 158.5753 72.9577 159.2123 72.4907 159.7963 72.0737 160.3633 72.5597 160.7523 72.8937 160.8873 73.5237 161.2173 74.1857M152.0415 69.132C151.0365 70.146 151.0055 70.52 151.6745 71.375 151.2485 72.305 150.7555 73.092 150.5415 73.947 150.3935 74.535 150.1325 74.69 149.6745 74.608 148.9265 74.475 148.1885 74.273 147.4565 74.067 146.8095 73.885 145.9845 71.972 146.3785 71.433 146.5555 71.19 147.0345 71.166 147.5995 70.963 148.1075 70.502 148.8155 69.855 149.5295 69.214 149.6145 69.138 149.7345 69.104 149.8265 69.034 150.2035 68.752 150.5945 68.218 150.9455 68.243 151.3295 68.271 151.6775 68.814 152.0415 69.132M144.9673 73.6223C144.7933 74.3503 144.6673 74.8803 144.5073 75.5493 145.6403 75.4793 146.4103 76.2423 147.5543 76.0463 148.2763 75.9223 149.1453 76.6543 149.9463 77.0033 149.9293 77.1043 149.9113 77.2053 149.8943 77.3073 149.0713 77.2443 148.2423 77.2143 147.4253 77.1083 146.7123 77.0163 146.0033 76.8663 145.3073 76.6893 144.8213 76.5653 144.2523 76.4493 144.4223 75.7153 143.1013 75.5363 142.2683 74.6053 141.6933 73.6253 140.8433 72.1773 140.1323 70.6713 138.7623 69.6093 138.5893 69.4763 138.5303 69.1953 138.4053 68.9593 139.6993 68.6133 140.2263 69.6523 141.0113 70.1473 141.3493 70.3613 141.6473 70.6393 141.9613 70.8903 142.5693 71.3743 143.4183 71.6233 143.4883 72.6343 143.4973 72.7553 143.8393 73.4633 144.4833 73.2623 144.6393 73.2143 144.9273 73.5903 144.9673 73.6223M112.0835 78.8664C112.5595 79.7774 112.8385 80.4804 112.3875 81.4584 111.7385 82.8634 111.3125 84.3734 110.8235 85.8494 110.6195 86.4664 110.2705 86.9194 109.6115 86.8704 109.2225 86.8424 108.6075 86.6324 108.5195 86.3634 108.2715 85.6234 108.0625 84.8334 108.6175 84.0444 108.8555 83.7064 108.7535 83.1434 108.8795 82.7054 109.0195 82.2154 109.1475 81.4134 109.4455 81.3294 110.7355 80.9664 111.4315 80.0514 112.0835 78.8664M106.606 15.3058C107.002 14.7408 107.367 14.1328 107.823 13.6038 108.045 13.3448 108.451 13.2518 108.747 13.0448 109.082 12.8118 109.384 12.5318 109.706 12.2778 109.963 12.0738 110.215 11.7538 110.495 11.7248 110.681 11.7038 111.056 12.0838 111.086 12.3188 111.122 12.5888 110.928 12.9458 110.733 13.1788 109.961 14.0968 108.888 14.8658 108.426 15.9098 107.97 16.9428 107.452 18.1888 107.991 19.4118 108.177 19.8348 108.592 20.1548 108.889 20.5318 109.002 20.6758 109.08 20.8498 109.172 21.0098 109.01 21.0928 108.803 21.2848 108.694 21.2398 107.842 20.8868 107.006 20.4968 106.178 20.0918 106.092 20.0498 106.038 19.8248 106.059 19.6988 106.251 18.5878 106.48 17.4838 106.658 16.3698 106.71 16.0458 106.629 15.7018 106.606 15.3058M160.4067 43.6252C161.1767 44.0462 161.7647 45.2832 161.6417 46.0852 161.5577 46.6372 161.3917 47.2722 161.5787 47.7472 162.0027 48.8272 161.2517 48.9872 160.6037 49.3142 160.1257 49.5562 159.6727 49.8462 159.2777 50.2062 158.9337 50.2832 158.5797 50.3282 158.2527 50.4472 157.9657 50.5522 157.7087 50.7382 157.3417 50.9432 157.3047 51.1652 157.2797 51.5772 157.1547 51.9552 157.1067 52.0982 156.8077 52.2712 156.6587 52.2442 156.3187 52.1802 155.8917 50.7432 156.0887 50.4352 156.6607 49.5352 157.1967 48.6522 158.4597 48.5262 158.7477 48.4972 158.9667 47.7712 159.2777 47.4662 159.5427 47.2482 159.9497 47.0782 160.0417 46.8042 160.2077 46.3072 160.1827 45.7472 160.2427 45.2142 160.3037 44.6732 160.3717 44.1342 160.4357 43.5942L160.4067 43.6252zM90.7163 9.9318C90.9833 10.2378 91.2443 10.5488 91.5183 10.8488 92.0903 11.4748 92.6883 12.0798 93.2283 12.7328 93.3183 12.8408 93.2283 13.1798 93.1193 13.3458 93.0393 13.4678 92.7953 13.5208 92.6203 13.5328 92.4173 13.5458 92.2103 13.4818 92.0933 13.4628 91.9383 12.8758 91.7933 12.3278 91.6493 11.7788L91.4383 11.8048C91.1853 12.8668 90.9333 13.9268 90.6813 14.9888 90.5773 15.0158 90.4743 15.0438 90.3703 15.0718 89.9623 14.3478 89.5293 13.6368 89.1543 12.8958 88.9713 12.5348 88.9863 12.0138 88.3493 12.2118 88.3253 12.2188 88.2723 12.2058 88.2693 12.1948 88.1423 11.5618 87.9373 10.9248 87.9503 10.2938 87.9543 10.1338 88.6523 9.9788 89.0373 9.8418 89.2983 9.7478 89.5713 9.6908 89.8273 9.4068 90.0543 9.5108 90.2813 9.6168 90.5083 9.7218 90.5773 9.7908 90.6473 9.8618 90.7163 9.9318M82.6402 34.2101C82.0882 35.0491 82.9532 34.7981 83.2022 35.1571 83.1052 35.4421 82.9872 35.7871 82.8882 36.0771 83.3522 36.7651 83.7982 37.4221 84.2402 38.0831 84.3192 38.2031 84.3602 38.4301 84.4502 38.4481 85.4952 38.6571 84.8832 39.4751 85.0052 40.0061 85.0302 40.1091 84.7302 40.3851 84.5452 40.4241 83.5472 40.6381 82.5392 40.8031 81.3302 41.0221 81.6732 40.6121 81.9152 40.3221 82.1972 39.9851 82.0382 39.8981 81.8602 39.8011 81.7032 39.7151 81.8222 39.3051 81.9402 38.8971 82.0682 38.4591 82.2022 38.3561 82.5272 38.2211 82.5362 38.0651 82.5502 37.8551 82.3742 37.5071 82.1902 37.4291 81.4182 37.1031 81.2402 36.5041 81.1632 35.7471 81.0752 34.8761 81.5292 34.2751 82.6402 34.2101M38.064 7.6398C39.016 7.2818 39.521 7.6418 39.618 8.7048 39.64 8.9448 39.806 9.1698 39.905 9.4028 40.088 9.1998 40.346 9.0268 40.44 8.7878 40.777 7.9438 40.756 7.9358 41.514 7.6188 41.454 8.1658 41.399 8.6518 41.356 9.0508 41.687 9.1958 41.939 9.3048 42.191 9.4148 42.072 9.6608 41.988 9.9338 41.826 10.1478 41.386 10.7288 40.862 10.9938 40.09 10.6988 39.786 10.5808 39.367 10.7538 39.001 10.8048 38.664 10.8518 38.318 10.9838 37.993 10.9438 37.762 10.9138 37.559 10.6608 37.343 10.5058 37.483 10.3278 37.623 10.1498 37.746 9.9938 37.538 9.9088 37.212 9.8328 36.955 9.6568 36.599 9.4128 36.429 9.1748 36.963 8.8238 37.411 8.5288 37.722 8.0288 38.094 7.6188L38.064 7.6398zM178.1851 101.718C178.3191 101.803 178.5981 101.98 178.9911 102.23 178.7721 102.611 178.6071 103.043 178.3221 103.369 177.3721 104.454 176.4101 105.533 175.3861 106.548 174.9651 106.967 174.5431 107.599 173.7121 106.916 173.1051 106.418 173.1201 106.06 173.5901 105.614 174.0651 105.165 174.6191 104.8 175.1191 104.375 176.1081 103.532 177.0841 102.674 178.1851 101.718M73.5401 29.1291C73.5891 29.0111 73.6621 28.8371 73.7491 28.6261 73.5311 28.4971 73.3191 28.3711 73.0101 28.1901 73.2931 28.0471 73.5021 27.9421 73.8301 27.7781 73.4901 27.7171 73.2661 27.6761 72.7481 27.5811 73.2281 27.1871 73.5121 26.7791 73.8391 26.7401 74.0891 26.7101 74.3951 27.1481 74.6511 27.3581 74.7471 27.2981 74.9241 27.1271 75.1331 27.0691 75.6771 26.9201 76.2561 26.6711 76.7771 26.7511 77.1501 26.8081 77.5971 27.2781 77.7361 27.6631 77.8431 27.9581 77.6351 28.5661 77.3671 28.7621 76.2071 29.6131 74.9431 30.0911 73.5401 29.1291M117.6441 5.0656C117.4141 5.1446 117.0951 5.3616 116.9501 5.2776 116.7481 5.1616 116.6621 4.8256 116.5491 4.5736 116.3911 4.2206 116.1701 3.8666 116.1331 3.4966 116.0961 3.1266 116.2091 2.7206 116.3481 2.3666 116.3911 2.2526 116.8111 2.1446 116.9141 2.2226 117.3041 2.5226 117.6181 2.9226 117.9981 3.2406 118.2621 3.4616 118.6141 3.7876 118.8851 3.7516 119.6531 3.6516 119.9251 4.0866 120.1601 4.6506 120.2141 4.7846 120.2631 4.9196 120.3141 5.0546 120.4111 5.3186 120.5061 5.5826 120.6021 5.8466 120.2511 5.9186 119.8981 6.0576 119.5491 6.0466 118.7501 6.0236 117.9831 5.8756 117.6441 5.0656M180.103 96.0353C180.264 96.5143 180.557 96.9953 180.557 97.4753 180.556 98.4223 181.219 99.2163 182.251 99.1543 182.173 99.4213 182.166 99.7013 182.027 99.8733 181.354 100.7053 180.662 101.5243 179.933 102.3073 179.786 102.4673 179.453 102.4523 179.206 102.5173 179.245 102.2963 179.27 102.0693 179.329 101.8513 179.378 101.6653 179.578 101.3773 179.523 101.3243 178.807 100.6173 179.503 100.2313 179.753 99.6453 180.022 99.0193 179.901 98.2143 179.895 97.4873 179.89 97.0393 179.782 96.5923 179.72 96.1443 179.847 96.1073 179.975 96.0713 180.103 96.0353M139.4233 4.7199C139.5493 4.6029 139.7543 4.2629 139.9273 4.2789 140.6163 4.3419 141.3773 4.3699 141.9513 4.6959 142.4213 4.9599 142.0673 5.8909 141.4753 6.1439 141.2953 6.2209 141.0733 6.2619 140.9473 6.3929 140.5983 6.7569 140.3763 7.2629 139.6883 6.9649 138.8773 6.6149 138.4123 6.0019 138.1783 5.1999 138.1273 5.0269 138.2943 4.6109 138.3863 4.6029 138.7243 4.5739 139.0723 4.6699 139.4233 4.7199M42.7241 16.3742C42.3291 16.5342 41.9351 16.6952 41.4541 16.8912 41.1811 16.2012 40.8651 15.5152 40.6511 14.7972 40.5911 14.5972 40.8331 14.3062 40.9361 14.0572 41.1931 14.1672 41.4491 14.2762 41.7011 14.3852 41.8271 13.0322 41.8921 12.9812 43.8531 12.9092 43.6631 13.4572 43.5031 13.9212 43.2731 14.5852 43.7371 15.1842 43.1011 15.7692 42.6931 16.4052 42.6921 16.4052 42.7241 16.3742 42.7241 16.3742"/>
        <path d="M43.3584 8.3879C43.4664 8.7419 43.5544 9.0249 43.6404 9.3059L44.2944 9.3059C44.3264 9.1499 44.3754 8.9149 44.4224 8.6839 45.9274 9.1589 45.9594 9.2669 45.0874 10.8319 46.4894 11.6959 46.5404 11.8239 45.7604 12.6819 45.3724 12.3899 44.6254 12.3309 45.1224 11.5169 45.1544 11.4639 45.0274 11.2269 44.9714 11.2259 44.8274 11.2219 44.6844 11.3189 44.5354 11.3479 44.2194 11.4089 43.8834 11.5299 43.5904 11.4659 43.4854 11.4439 43.4794 10.9619 43.4044 10.5699 42.6754 10.1089 42.5774 9.3479 43.3584 8.3879M154.6411 72.7932C154.3461 73.0152 154.0501 73.2362 153.7171 73.4862 153.9441 74.0622 154.1951 74.6992 154.4471 75.3372 154.3411 75.3982 154.2371 75.4602 154.1321 75.5222 153.7301 75.1572 153.3281 74.7922 152.8701 74.3782 152.8361 74.6802 152.8371 74.9622 152.7601 75.2202 152.7241 75.3412 152.5301 75.5012 152.4211 75.4912 152.3031 75.4812 152.1481 75.3122 152.1001 75.1792 151.7541 74.2152 151.9301 73.2942 152.2771 72.3512 152.5221 71.6852 152.9241 71.4592 153.5791 71.4812 154.2011 71.5032 154.8241 71.4862 155.5711 71.4862 155.3821 71.9622 154.9851 72.1622 154.3881 72.1212 153.9551 72.0922 153.5161 72.0582 153.0881 72.1062 152.9481 72.1222 152.8361 72.3922 152.7111 72.5452 152.8901 72.6212 153.0791 72.7772 153.2461 72.7582 153.6421 72.7132 154.0271 72.5842 154.4161 72.4902 154.4911 72.5912 154.5661 72.6922 154.6411 72.7932M38.0942 7.6193C37.9012 7.4453 37.7092 7.2713 37.5322 7.1123 37.1922 7.3143 36.7832 7.5583 36.2832 7.8563 36.0042 7.5673 35.7072 7.2613 35.4112 6.9543 35.7912 6.7253 36.1672 6.4903 36.5522 6.2703 36.6752 6.2013 36.8332 6.1913 36.9582 6.1243 37.7762 5.6823 38.5622 5.1193 39.6592 5.5713 39.6202 6.2543 39.0852 6.7023 38.5612 7.1603 38.3872 7.3123 38.2282 7.4803 38.0632 7.6403 38.0642 7.6403 38.0942 7.6193 38.0942 7.6193M160.436 43.5939C159.855 43.6799 159.313 43.0949 159.629 42.5829 160.102 41.8199 160.104 41.1189 159.825 40.3379 159.81 40.2969 159.923 40.2089 159.975 40.1449 162.008 41.1829 162.008 41.1829 162.616 40.8389 162.548 41.2379 162.576 41.6989 162.383 42.0379 162.182 42.3949 161.771 42.6329 161.365 43.0019 161.157 42.9279 160.799 42.8009 160.408 42.6619 160.408 43.0599 160.408 43.3419 160.407 43.6239237 160.407 43.6249 160.436 43.5939 160.436 43.5939M90.7163 9.9318C90.6473 9.8618 90.5773 9.7908 90.5083 9.7218 90.6033 9.3338 90.6973 8.9468 90.7503 8.7278 91.5193 8.7278 92.0383 8.7238 92.5573 8.7308 92.6973 8.7328 92.8533 8.7348 92.9753 8.7908 93.3363 8.9568 94.0173 8.7778 93.8453 9.5518 93.6753 10.3218 92.9593 10.8868 92.3373 10.6728 91.7783 10.4798 91.2553 10.1828 90.7163 9.9318M81.4644 37.3869C81.4114 38.8839 81.0464 39.4359 79.9134 39.7369 79.6694 39.8019 79.3744 39.6779 79.1024 39.6409 79.1344 39.4079 79.1564 39.1719 79.2034 38.9419 79.2254 38.8329 79.3634 38.6929 79.3304 38.6349 78.7494 37.6349 79.8214 37.4489 80.1994 36.9529 80.3144 36.8039 80.7974 36.8469 81.0684 36.9359 81.2614 36.9979 81.3814 37.2849 81.4644 37.3869M153.1362 63.9221L153.1362 64.9431C152.2682 64.1711 151.8002 62.0111 152.3162 61.1901 152.4492 60.9771 152.9122 60.9721 153.2242 60.8721 153.3252 60.9401 153.4272 61.0081 153.5292 61.0761 153.4282 61.6211 153.2542 62.1661 153.2602 62.7101 153.2632 62.9691 153.5542 63.3351 153.8082 63.4591 154.3412 63.7191 154.7092 64.0481 154.7402 64.6511 154.7462 64.7781 154.6042 64.9231 154.5032 65.0361 154.4902 65.0521 154.2402 64.9241 154.2452 64.8851 154.3772 63.9881 153.5902 64.2601 153.1362 63.9221M44.7627 5.6252C45.0867 5.4792 45.3197 5.3722 45.5607 5.2622 45.5307 5.0142 45.4407 4.7492 45.4887 4.5132 45.5257 4.3252 45.7037 4.0852 45.8727 4.0272 46.0567 3.9652 46.3657 4.0142 46.5127 4.1402 47.4547 4.9432 47.4847 6.3742 46.5737 7.2592 46.4637 7.3662 46.1587 7.2722 45.9447 7.2712 46.1647 6.3662 45.2987 6.1752 44.7627 5.6252M42.9478 60.3527C42.2858 60.4767 41.6878 60.9157 40.9988 60.0537 40.6078 59.5647 39.8098 59.3157 39.1478 59.1527 38.5468 59.0047 37.8798 59.1217 37.1958 59.1217 37.4688 58.3777 38.2518 58.1737 38.8288 58.3407 40.2698 58.7577 41.6468 59.3937 43.0498 59.9427 43.0158 60.0797 42.9818 60.2157 42.9478 60.3527M162.5972 100.1379C163.4232 100.2959 164.0482 100.4149 164.7432 100.5479 164.5742 101.3969 164.3432 102.1819 163.4652 102.6739 162.9012 102.9909 162.6622 102.7199 162.6182 102.2849 162.5412 101.5659 162.5972 100.8319 162.5972 100.1379M121.5659 7.4377C121.3349 6.4897 121.1219 5.6797 120.9619 4.8587 120.9469 4.7747 121.3009 4.4957 121.4069 4.5317 121.9189 4.7067 122.4469 4.8967 122.8879 5.1997 123.3369 5.5077 123.3809 5.9597 122.9099 6.3497 122.5349 6.6597 122.1539 6.9617 121.5659 7.4377M153.6265 67.927C153.7155 66.599 155.4985 67.51 155.5275 66.237 156.4645 67.036 156.5505 68.111 155.7505 68.737 155.6095 68.847 155.1585 68.695 154.9435 68.536 154.7715 68.408 154.7375 68.09 154.6215 67.805 154.3205 67.842 154.0185 67.879 153.6265 67.927M42.7764 61.3078C43.1814 61.1758 43.4204 61.0978 43.7194 60.9998 43.6834 60.8058 43.6474 60.6098 43.6164 60.4418 44.0784 59.9838 45.6874 60.5058 46.2914 61.2848 45.1674 61.5278 44.0794 61.9558 42.7764 61.3078M99.6079 7.4269C99.8609 6.7519 100.3519 6.5919 101.0649 6.9959 101.1819 6.8019 101.2949 6.6149 101.5069 6.2659 101.7149 6.6149 102.0219 6.9049 101.9669 7.0839 101.8389 7.5099 101.5609 7.8989 101.2949 8.2679 101.2329 8.3539 100.9339 8.3709 100.8199 8.2999 100.4159 8.0499 100.0439 7.7469 99.6079 7.4269M130.0415 66.3937C130.3075 66.8537 130.6725 67.2887 130.7975 67.7847 130.8605 68.0337 130.4855 68.3917 130.3095 68.7017 130.0695 68.4827 129.6675 68.2897 129.6275 68.0397 129.5455 67.5297 129.6595 66.9877 129.6925 66.4587 129.8095 66.4367 129.9255 66.4147 130.0415 66.3937M42.6011 5.6232C42.3531 5.9312 42.1611 6.2092 41.9301 6.4492 41.5351 6.8582 40.9611 6.7492 40.7471 6.2302 40.6431 5.9772 40.5351 5.7122 40.5151 5.4452 40.5051 5.3172 40.7271 5.0422 40.7861 5.0572 41.3751 5.2122 41.9531 5.4132 42.6011 5.6232M47.936 5.6144C48.291 6.2884 49.023 6.7424 48.411 7.4424 48.24 7.6384 47.438 7.6414 47.378 7.5154 47.06 6.8514 47.344 6.2564 47.936 5.6144M103.3755 4.6525C103.7235 5.1785 104.0605 5.5805 104.2515 6.0425 104.3125 6.1915 104.0425 6.5745 103.8325 6.7115 103.6545 6.8275 103.2945 6.8295 103.1105 6.7195 102.9415 6.6195 102.7845 6.2765 102.8285 6.0875 102.9335 5.6295 103.1575 5.1985 103.3755 4.6525M171.4917 74.5031C171.1227 74.9301 170.8197 75.4591 170.3667 75.7581 169.8017 76.1311 169.1757 75.9941 168.7087 75.5441 169.5987 75.1711 170.4627 74.8101 171.3257 74.4481 171.3817 74.4671 171.4357 74.4841 171.4917 74.5031M152.353 58.8547C151.589 58.3547 151.491 57.8347 151.724 57.2827 151.862 56.9567 152.152 56.6937 152.374 56.4017 152.483 56.4577 152.591 56.5127 152.701 56.5687 152.592 57.2817 152.484 57.9957 152.353 58.8547M6.5317 28.0256C6.5847 27.5696 6.5137 27.1376 6.6687 27.0306 7.1807 26.6726 7.7747 26.4326 8.4357 26.0966 8.2607 27.1736 7.5007 27.5166 6.5317 28.0256M142.6997 4.465C143.2467 4.426 143.7947 4.36 144.3417 4.367 144.4747 4.369 144.7327 4.641 144.7117 4.738 144.6707 4.92 144.4567 5.208 144.3307 5.199 143.7757 5.162 143.2257 5.036 142.6757 4.942 142.6827 4.782 142.6917 4.623 142.6997 4.465M41.5098 4.5226C42.1148 4.4436 42.5168 4.3596 42.9198 4.3516 43.0838 4.3486 43.3738 4.4896 43.3898 4.5966 43.4208 4.7996 43.3558 5.0916 43.2148 5.2246 43.0858 5.3456 42.7608 5.3946 42.5988 5.3176 42.2768 5.1616 42.0068 4.8966 41.5098 4.5226M155.0464 66.092C154.7504 66.303 154.4554 66.513 154.1594 66.724 154.0704 66.496 154.0044 66.256 153.8884 66.044 153.7314 65.757 153.5364 65.491 153.3584 65.216 153.4424 65.145 153.5254 65.072 153.6084 65L155.0754 66.122 155.0464 66.092zM142.062 8.5471C142.268 8.2521 142.466 7.7191 142.68 7.7131 143.083 7.7011 143.495 7.9921 143.904 8.1571 143.877 8.2761 143.851 8.3931 143.825 8.5111 143.288 8.5891 142.75 8.6681 142.214 8.7461L142.062 8.5471zM50.6074 22.6301C50.1224 23.0001 49.8264 23.2651 49.4874 23.4501 49.4194 23.4881 49.1854 23.2251 49.0284 23.1001 49.3074 22.8071 49.5684 22.4901 49.8824 22.2391 49.9404 22.1931 50.2094 22.4091 50.6074 22.6301M156.6118 77.2932C155.7278 77.7642 155.0778 78.1092 154.3288 78.5082 154.5618 77.4752 155.1528 77.1532 156.6118 77.2932M16.2739 34.7004C16.2029 34.1854 16.0939 33.6714 16.0869 33.1554 16.0849 33.0264 16.4079 32.8914 16.5819 32.7594 16.6559 32.9574 16.8109 33.1634 16.7899 33.3494 16.7379 33.7964 16.6029 34.2324 16.5019 34.6744 16.4259 34.6824 16.3499 34.6914 16.2739 34.7004M156.9028 72.6574C157.0008 72.0294 156.3358 71.1734 157.3488 70.8154 157.8688 71.6094 157.3368 72.1264 156.9028 72.6574M104.8501 6.9592L104.8501 5.4462C105.1351 5.6152 105.3521 5.7442 105.5701 5.8732L105.6131 5.8872C105.7481 6.5372 105.8111 7.1332 104.8211 6.9312L104.8501 6.9592zM3.4067 18.4435C3.2217 18.4725 2.9607 18.5915 2.8677 18.5135 2.5767 18.2685 2.3497 17.9485 2.0977 17.6565 2.2507 17.5465 2.4927 17.3095 2.5427 17.3445 2.8927 17.5915 3.2027 17.8955 3.5257 18.1805 3.4857 18.2675 3.4467 18.3555 3.4067 18.4435M47.0156 8.1086C47.8386 7.5996 48.1786 8.0026 48.5626 8.4866 47.8926 8.9276 47.5156 8.5656 47.0156 8.1086M151.937 77.4299L150.173 77.4299C150.174 77.3259 150.175 77.2209 150.177 77.1179 150.764 77.1779 151.36 76.7359 151.941 77.1559 151.939 77.2469 151.938 77.3379 151.937 77.4299"/>
        <path d="M155.0757 66.1223C155.0127 65.7673 154.9187 65.4123 154.8987 65.0553 154.8907 64.9083 155.0467 64.7533 155.1267 64.6023 155.2717 64.7173 155.5587 64.8763 155.5397 64.9373 155.4117 65.3343 155.2177 65.7093 155.0457 66.0913 155.0467 66.0923 155.0757 66.1223 155.0757 66.1223M158.6733 74.4035C158.1553 74.3565 157.6393 74.3085 157.1213 74.2615L157.0393 74.0895C157.2743 73.9805 157.5223 73.7635 157.7393 73.7905 158.0913 73.8335 158.4243 74.0365 158.7653 74.1715 158.7343 74.2495 158.7033 74.3265 158.6733 74.4035M105.6128 5.8869L105.5698 5.8729C105.6068 5.4699 105.6438 5.0669 105.6798 4.6629 105.7988 4.6539 105.9158 4.6439 106.0338 4.6339 106.1298 4.8939 106.3578 5.2019 106.2868 5.4009 106.2078 5.6159 105.8488 5.7289 105.6128 5.8869M104.8208 6.9308C104.7988 7.4398 104.6188 7.8348 104.0358 7.8068 103.9208 7.8008 103.8178 7.5348 103.7098 7.3888 104.0898 7.2448 104.4688 7.1028 104.8498 6.9588L104.8208 6.9308zM178.0278 86.383C177.6218 85.944 177.2148 85.503 176.8078 85.063 176.9078 84.965 177.0078 84.866 177.1078 84.768 177.5108 85.212 177.9148 85.655 178.3188 86.099 178.2208 86.194 178.1248 86.288 178.0278 86.383M88.5728 48.7209C88.6008 48.1449 88.6308 47.5699 88.6588 46.9939 88.7258 47.0049 88.7938 47.0149 88.8608 47.0249 88.7788 46.8029 88.6508 46.5839 88.6358 46.3579 88.6298 46.2589 88.8398 46.1089 88.9788 46.0549 89.0348 46.0329 89.2418 46.1999 89.2518 46.2939 89.3148 46.9219 89.3858 47.5539 89.3618 48.1809 89.3538 48.4129 89.0968 48.6359 88.9538 48.8639 88.8268 48.8159 88.6998 48.7679 88.5728 48.7209"/>
      </g>
      <path fill="#B7842C" d="M266,68.0693375 L266,120.944623 C255.931328,120.198325 248,112.001643 248,102 C248,96.9673612 250.008143,92.3917231 253.28627,88.9923186 C252.458906,87.1569577 252,85.1303417 252,83 C252,75.2054351 258.143399,68.7994519 266,68.0693375 Z" filter="url(#big---1.-front-i)" opacity=".68" style="mix-blend-mode:soft-light"/>
    </g>
  </g>
</svg>
