<svg xmlns="http://www.w3.org/2000/svg" width="154" height="244" fill="none"><g clip-path="url(#a)"><path fill="url(#b)" d="M9 0h135.3c5 0 9 4 9 9v225.3c0 5-4 9-9 9H9c-5 0-9-4-9-9V9c0-5 4-9 9-9Z"/><path fill="url(#c)" d="M153.3 234.5c0 5-4.1 9.1-9.1 9.1H9.2c-5 0-9.1-4.1-9.1-9.1V84.7h38.4V48.2h114.8v186.3Z" opacity=".31"/><path fill="#666" d="m143.2 229.3-.1.1v2c-.3-.3-.8-.5-1.3-.5-.8 0-1.5.4-1.9 1.1-.3.4-.4.9-.4 1.3-.1 1.2.9 2.2 2.1 2.3h.1c.4 0 .7-.1 1-.3.1-.1.3-.2.4-.3v.5h.9l.1-.1v-6.2l-.9.1Zm-.1 4.7c-.2.4-.6.6-1.1.6-.7 0-1.3-.5-1.3-1.2v-.1c0-.5.2-.9.6-1.2.2-.1.4-.2.6-.1.7 0 1.3.6 1.3 1.3v.1c0 .2 0 .4-.1.6ZM101.6 230.9c-.6 0-1.2.3-1.5.8-.3-.5-.9-.8-1.4-.8-.5 0-1 .2-1.2.6v-.5h-1l-.1.1v4.4h1l.1-.1V233c0-.4.1-.7.4-.9.2-.1.4-.1.5-.1.6 0 1 .4 1 1.1v2.4h1l.1-.1V233c0-.4.1-.7.4-.9.2-.1.3-.1.5-.1.6 0 1 .4 1 1.1v2.4h1l.1-.1v-2.8c.1-.9-.6-1.7-1.5-1.8-.1.1-.2.1-.4.1ZM125.6 230.9c-.4 0-.9.2-1.1.6v-.5h-1l-.1.1v4.4h.9l.1-.1V233c0-.4.1-.7.4-.9.1 0 .3-.1.4-.1.2 0 .4 0 .6.1l.1-.1.3-1c-.1 0-.4-.1-.6-.1ZM120.4 230.9c-.8 0-1.5.4-1.9 1.1-.3.4-.4.9-.4 1.4-.1 1.2.8 2.2 2 2.3h.2c.5 0 1-.1 1.5-.4.2-.1.3-.2.4-.3l-.5-.8c-.4.3-.8.4-1.2.4-.6 0-1.1-.4-1.2-.9h3.1l.1-.1v-.4c.1-1.2-.7-2.2-1.9-2.3h-.2Zm-.6 1.1c.2-.1.4-.1.6-.1.5 0 1 .4 1.1.9h-2.1c-.1-.3.1-.6.4-.8ZM111.9 232.8l-.4-.1c-.4-.1-.7-.1-.7-.4 0-.1.1-.2.2-.3.2-.1.3-.1.5-.1.5 0 .9.1 1.4.4h.1l.4-.8c-.5-.3-1.2-.5-1.8-.5-.7-.1-1.4.2-1.7.8-.1.2-.2.4-.2.7 0 .7.5 1.1 1.5 1.3l.4.1c.5.1.8.2.8.5v.1c-.2.2-.6.3-.9.2-.5 0-1-.1-1.4-.5l-.5.8-.1.1c.6.4 1.2.6 1.9.6.5 0 1-.1 1.4-.3.5-.2.7-.7.7-1.2 0-.8-.6-1.3-1.6-1.4ZM138.8 230.9c-.4 0-.9.2-1.1.6v-.5h-1l-.1.1v4.4h1l.1-.1V233c0-.3.1-.7.4-.9.1 0 .3-.1.4-.1.2 0 .4 0 .6.1l.1-.1.3-1c-.3 0-.5-.1-.7-.1ZM117.4 234.4c-.3.1-.5.2-.8.2-.4 0-.6-.2-.6-.7V232h1.4l.1-.1v-.9H116v-1.3h-1l-.1.1v1.2h-.8l-.1.1v.9h.9v2c0 1 .4 1.6 1.5 1.6.4 0 .8-.1 1.1-.3l.2-.1-.3-.8ZM128.1 232.1c.2-.1.4-.1.6-.1.4 0 .8.1 1.1.4h.1l.5-.8c-.4-.4-1-.6-1.6-.5-.8 0-1.6.4-2 1.1-.2.4-.4.9-.4 1.3-.1 1.2.9 2.2 2.1 2.3h.2c.5 0 .9-.1 1.3-.3.1-.1.3-.2.4-.3l-.5-.8c-.3.2-.7.4-1.1.4-.7 0-1.3-.6-1.3-1.3v-.1c.1-.6.3-1 .6-1.3ZM107.6 231.2v.3c-.3-.3-.8-.5-1.3-.5-.8 0-1.5.4-1.9 1.1-.3.4-.4.9-.4 1.3-.1 1.2.9 2.2 2.1 2.3h.1c.4 0 .7-.1 1-.3.1-.1.3-.2.4-.3v.5h1l.1-.1v-4.4h-1l-.1.1Zm-.1 2.8c-.2.4-.6.6-1.1.6-.7 0-1.3-.5-1.3-1.2v-.1c0-.5.2-.9.6-1.2.2-.1.4-.2.6-.1.7 0 1.3.6 1.3 1.3v.1c.1.2 0 .4-.1.6ZM134.4 231.2v.3c-.3-.3-.8-.5-1.3-.5-.8 0-1.5.4-1.9 1.1-.2.4-.4.9-.4 1.3-.1 1.2.9 2.2 2.1 2.3h.1c.4 0 .7-.1 1-.3.1-.1.3-.2.4-.3v.5h.9l.1-.1V231h-1v.2Zm-.1 2.8c-.2.4-.6.6-1.1.6-.7 0-1.3-.5-1.3-1.2v-.1c0-.5.2-.9.6-1.2.2-.1.4-.2.6-.1.7 0 1.3.6 1.3 1.3v.1c0 .2 0 .4-.1.6Z"/><path fill="url(#d)" d="M130.4 194.3c-9.1 0-16.4 7.3-16.4 16.4 0 9.1 7.3 16.4 16.4 16.4 9.1 0 16.4-7.3 16.4-16.4 0-9-7.4-16.4-16.4-16.4Z"/><path fill="url(#e)" d="M110.1 194.3c-9.1 0-16.4 7.3-16.4 16.4 0 9.1 7.3 16.4 16.4 16.4 9.1 0 16.4-7.3 16.4-16.4 0-9-7.4-16.4-16.4-16.4Z"/><path fill="#737373" d="M126.1 210.8c0-4.9-2.1-9.5-5.9-12.7-7 5.9-7.9 16.3-2 23.3.6.7 1.3 1.4 2 2 3.7-3.2 5.9-7.8 5.9-12.6Z"/><path fill="#999" d="M145.2 220.9v-.5h.2v-.1h-.5v.1h.2v.5h.1Zm1.1 0v-.6h-.2l-.2.4-.2-.4h-.1v.6h.1v-.5l.2.4h.1l.2-.4v.5h.1ZM145.8 234.8h.2c.1 0 .1 0 .1.1l.1.1v.4l-.1.1-.1.1h-.3c-.1 0-.1-.1-.1-.1l-.1-.1v-.4c0-.1.1-.1.1-.1l.1-.1h.1Zm0 .8h.1c.1 0 .1-.1.2-.2v-.2s0-.1-.1-.1l-.1-.1h-.3s-.1 0-.1.1l-.1.1v.2s0 .1.1.1l.1.1h.2Zm0-.6h.1v.2h-.1l.1.1h-.1l-.1-.1v.1h-.1v-.4l.2.1Zm-.1.1v.1h.1l-.1-.1Z"/><path fill="url(#f)" d="M130.4 195c8.7 0 15.8 7.1 15.8 15.8 0 8.7-7.1 15.8-15.8 15.8-8.7 0-15.8-7.1-15.8-15.8 0-8.7 7.1-15.8 15.8-15.8Zm0-.7c-9.1 0-16.4 7.3-16.4 16.4 0 9.1 7.3 16.4 16.4 16.4 9.1 0 16.4-7.3 16.4-16.4 0-9-7.4-16.4-16.4-16.4Z"/><path fill="url(#g)" d="M130.4 195c8.7 0 15.8 7.1 15.8 15.8 0 8.7-7.1 15.8-15.8 15.8-8.7 0-15.8-7.1-15.8-15.8 0-8.7 7.1-15.8 15.8-15.8Zm0-.7c-9.1 0-16.4 7.3-16.4 16.4 0 9.1 7.3 16.4 16.4 16.4 9.1 0 16.4-7.3 16.4-16.4 0-9-7.4-16.4-16.4-16.4Z"/><path fill="url(#h)" d="M130.4 195c8.7 0 15.8 7.1 15.8 15.8 0 8.7-7.1 15.8-15.8 15.8-8.7 0-15.8-7.1-15.8-15.8 0-8.7 7.1-15.8 15.8-15.8Zm0-.7c-9.1 0-16.4 7.3-16.4 16.4 0 9.1 7.3 16.4 16.4 16.4 9.1 0 16.4-7.3 16.4-16.4 0-9-7.4-16.4-16.4-16.4Z"/><path fill="url(#i)" d="M116.6 225.1c-7.9 3.6-17.3.2-20.9-7.7-3.6-7.9-.2-17.3 7.7-20.9 7.9-3.6 17.3-.2 20.9 7.7 3.7 7.9.3 17.2-7.7 20.9Zm.3.6c8.2-3.8 11.8-13.5 8.1-21.8-3.8-8.2-13.5-11.8-21.8-8.1-8.2 3.8-11.8 13.5-8.1 21.8 3.8 8.3 13.6 11.9 21.8 8.1Z"/><path fill="url(#j)" d="M110.1 194.3c-9.1 0-16.4 7.3-16.4 16.4 0 9.1 7.3 16.4 16.4 16.4 9.1 0 16.4-7.3 16.4-16.4 0-9-7.4-16.4-16.4-16.4Zm0 .7c8.7 0 15.8 7.1 15.8 15.8 0 8.7-7.1 15.8-15.8 15.8-8.7 0-15.8-7.1-15.8-15.8 0-8.7 7.1-15.8 15.8-15.8Z"/><path fill="url(#k)" d="M103.3 235.4v-2.7c.1-.9-.6-1.7-1.5-1.7h-.2c-.6 0-1.2.3-1.5.8-.3-.5-.9-.8-1.4-.8-.5 0-1 .2-1.3.6v-.5h-.9v4.4h1V233c-.1-.5.3-1.1.8-1.2h.2c.6 0 .9.4.9 1.1v2.4h1V233c-.1-.5.3-1.1.8-1.2h.2c.6 0 1 .4 1 1.1v2.4l.9.1Zm14.2-4.3h-1.6v-1.3h-1v1.3h-.9v.9h.9v2c0 1 .4 1.6 1.5 1.6.4 0 .8-.1 1.2-.3l-.3-.8c-.3.1-.5.2-.8.2-.5 0-.6-.3-.6-.7v-2h1.6v-.9Zm8.1-.1c-.5 0-.9.2-1.1.6v-.5h-.9v4.4h1V233c0-.7.3-1.1.9-1.1.2 0 .4 0 .6.1l.3-.9c-.3-.1-.5-.1-.8-.1Zm-12.3.4c-.5-.3-1.2-.5-1.8-.4-1.1 0-1.8.5-1.8 1.4 0 .7.5 1.1 1.5 1.3l.4.1c.5.1.8.2.8.5 0 .2-.4.5-1 .5-.5 0-1-.1-1.4-.5l-.4.7c.6.4 1.2.6 1.9.6 1.3 0 2-.6 2-1.4 0-.8-.6-1.2-1.5-1.3l-.4-.1c-.4-.1-.7-.1-.7-.4 0-.3.3-.5.8-.5s.9.1 1.4.4l.2-.9Zm25.5-.4c-.5 0-.9.2-1.1.6v-.5h-.9v4.4h.9V233c0-.7.3-1.1.9-1.1.2 0 .4 0 .6.1l.3-.9c-.3-.1-.5-.1-.7-.1Zm-12.3 2.3c-.1 1.2.9 2.2 2.1 2.3h.2c.6 0 1.1-.2 1.6-.5l-.4-.8c-.3.2-.7.4-1.1.4-.8-.1-1.3-.7-1.3-1.5.1-.7.6-1.2 1.3-1.3.4 0 .8.1 1.1.4l.4-.8c-.4-.4-1-.6-1.6-.5-1.2-.1-2.3.9-2.3 2.1v.2Zm8.9 0v-2.2h-1v.5c-.3-.4-.8-.7-1.4-.6-1.3 0-2.3 1-2.3 2.3 0 1.3 1 2.3 2.3 2.3.5 0 1-.2 1.4-.6v.5h1v-2.2Zm-3.5 0c0-.7.7-1.3 1.4-1.2.7 0 1.3.7 1.2 1.4 0 .7-.6 1.2-1.3 1.2-.7 0-1.3-.6-1.3-1.4Zm-11.5-2.3c-1.2 0-2.2.9-2.2 2.1v.2c-.1 1.2.8 2.2 2 2.3h.2c.7 0 1.3-.2 1.8-.6l-.5-.7c-.4.3-.8.4-1.3.5-.7.1-1.2-.4-1.3-1.1h3.2v-.4c.1-1.1-.7-2.2-1.9-2.3.1 0 .1 0 0 0Zm0 .8c.6 0 1.1.5 1.1 1.1h-2.3c.1-.6.6-1.1 1.2-1.1Zm23.8 1.5v-3.9h-.9v2.3c-.3-.4-.8-.7-1.4-.6-1.3 0-2.3 1-2.3 2.3 0 1.3 1 2.3 2.3 2.3.5 0 1-.2 1.4-.6v.5h.9v-2.3Zm-3.5 0c0-.7.7-1.3 1.4-1.2.7 0 1.3.7 1.2 1.4 0 .7-.6 1.2-1.3 1.2-.7 0-1.3-.6-1.3-1.4Zm-32 0v-2.2h-1v.5c-.3-.4-.8-.7-1.4-.6-1.3 0-2.3 1-2.3 2.3 0 1.3 1 2.3 2.3 2.3.5 0 1-.2 1.4-.6v.5h1v-2.2Zm-3.5 0c0-.7.7-1.3 1.4-1.2.7 0 1.3.7 1.2 1.4 0 .7-.6 1.2-1.3 1.2-.7.1-1.3-.5-1.4-1.2 0-.1 0-.2.1-.2Z"/><path fill="#3A3A3A" d="M86.3 118.7c-.1-1.5-.5-3-1.3-4.4l-6.9-11.9c-.5-.9-.9-1.9-1.1-2.9l-.3.5c-1.7 2.9-1.7 6.6 0 9.5l5.5 9.5c1.7 2.9 1.7 6.6 0 9.5l-.3.5c-.2-1-.6-2-1.1-2.9l-5-8.7-3.2-5.6c-.5-.9-.9-1.8-1.2-2.8l-.3.5c-1.7 2.9-1.7 6.6 0 9.5l5.5 9.6c1.7 2.9 1.7 6.6 0 9.5l-.3.5c-.2-1-.6-2-1.1-2.9l-6.9-12c-.9-1.6-1.3-3.4-1.3-5.2-7.4 1.9-12.4 6-12.4 10.7 0 6.6 9.8 11.9 21.9 11.9 12.1 0 22-5.3 22-11.9.3-4.5-4.8-8.6-12.2-10.5Z"/><path fill="#2B2B2B" d="M57.6 27.3c.4.2.6.6.8 1.1.2.5.3 1 .3 1.7 0 1.1-.2 1.9-.7 2.4-.5.5-1.2.8-2.1.8-.5 0-1-.1-1.4-.2v2.6H54V27h.5v.9c.2-.3.5-.6.8-.8.3-.2.6-.3 1-.3.5.1.9.2 1.3.5Zm0 4.8c.4-.5.6-1.2.6-2.1 0-.9-.2-1.5-.5-2s-.8-.7-1.5-.7c-.4 0-.7.1-.9.2-.3.1-.5.4-.7.6v4.3c.4.2.9.3 1.4.3.7.1 1.2-.1 1.6-.6ZM60.9 32.9c-.2-.2-.3-.6-.3-1.1v-7.2c.2-.1.3-.1.5-.1v7.3c0 .3.1.6.2.8.2.2.4.3.7.3.2 0 .5 0 .7-.1 0 .2 0 .3-.1.5-.3.1-.5.1-.8.1-.4-.1-.7-.3-.9-.5ZM67.5 27.4c.3.3.5.8.5 1.5v4.2h-.5v-.9c-.2.3-.5.6-.8.8-.4.2-.8.3-1.2.3-.4 0-.7-.1-1-.2-.3-.1-.5-.3-.6-.6-.2-.3-.2-.6-.2-.9 0-.5.1-.9.4-1.2.2-.3.6-.6 1.2-.7.5-.2 1.2-.3 2.1-.4h.2V29c0-.5-.1-.9-.4-1.2-.2-.3-.7-.4-1.2-.4-.7 0-1.4.2-2 .5v-.5c.6-.3 1.3-.5 2-.5.6 0 1.1.2 1.5.5Zm-.9 5.2c.4-.2.6-.4.8-.7v-2.2h-.2c-.8.1-1.5.2-1.9.3-.5.2-.8.4-1 .6-.2.2-.3.5-.3.9 0 .3.1.5.2.7.1.2.3.3.5.5.2.1.5.2.8.2.4-.1.8-.2 1.1-.3ZM71.8 32.8c.4 0 .7-.1 1-.2 0 .1 0 .3-.1.5-.4.1-.7.2-1.1.2-.5 0-.9-.1-1.2-.4-.3-.3-.5-.7-.5-1.3v-6.2c.2-.1.3-.1.5-.1v1.8h2.3c0 .2 0 .4-.1.5h-2.3v4c.3.8.7 1.2 1.5 1.2ZM74.4 25.5c-.1-.1-.1-.2-.1-.3 0-.1 0-.2.1-.3.1-.1.2-.1.3-.1.1 0 .2 0 .3.1.1.1.1.2.1.3 0 .1 0 .2-.1.3-.1.1-.2.1-.3.1-.1 0-.2 0-.3-.1Zm.1 1.6h.5v6.1h-.5v-6.1ZM81.2 27.5c.3.4.5.9.5 1.6v4.1h-.5v-3.9c0-.6-.1-1.1-.4-1.4-.3-.3-.7-.5-1.2-.5-.7 0-1.3.3-1.8.9v4.8h-.5V27h.5v1c.3-.4.5-.6.9-.8.3-.2.7-.3 1.1-.3.6 0 1.1.2 1.4.6ZM88.4 27.1v6.1h-.5v-1c-.3.4-.5.6-.9.8-.3.2-.7.3-1.1.3-.6 0-1.1-.2-1.5-.5-.4-.3-.5-.9-.5-1.6v-4.1h.5V31c0 .6.1 1.1.4 1.4.3.3.7.5 1.2.5.7 0 1.3-.3 1.8-.9v-4.8h.6v-.1ZM98.5 27.5c.3.4.5.9.5 1.6v4.1h-.5v-4c0-.6-.1-1-.4-1.3-.3-.3-.7-.5-1.2-.5-.7 0-1.3.3-1.8.9.1.2.1.5.1.8v4.1h-.5v-3.9c0-.6-.1-1.1-.4-1.4-.3-.3-.7-.5-1.2-.5-.7 0-1.3.3-1.8.9v4.8h-.5V27h.5v1c.3-.4.5-.6.9-.8.3-.2.7-.3 1.1-.3.5 0 .8.1 1.1.3.3.2.5.5.6.8.3-.4.6-.6.9-.8.3-.2.7-.3 1.2-.3.6 0 1.1.2 1.4.6Z"/><path fill="#1E1E1E" d="M12.8 236.4c-.2-.1-.4-.3-.4-.5 0-.1 0-.2.2-.6.8-1.4 1.1-3 1.1-4.6 0-1.5-.3-3-1-4.4-.1-.2-.2-.4-.3-.7 0-.2.1-.4.3-.5.2-.1.5-.1.7 0 .1.2.3.4.4.6.5 1.1.9 2.2 1.1 3.4.1.9.1 1.9 0 2.8-.1 1.2-.5 2.4-1 3.5-.3.7-.5.9-.7.9h-.1c-.1.1-.2.1-.3.1Zm-2.1-1.2c-.3-.1-.5-.4-.4-.7 0-.1.2-.4.3-.6.6-1.2.8-2.5.7-3.8-.1-.9-.3-1.8-.8-2.7-.3-.7-.3-.8-.2-1 .2-.3.6-.3.8-.1.4.6.6 1.2.8 1.8.6 2 .5 4.1-.3 6-.2 1-.5 1.3-.9 1.1Zm-2.3-1.1c-.2-.1-.3-.2-.4-.4 0-.1 0-.2.2-.6.7-1.4.7-3.1 0-4.5-.3-.6-.3-.8-.1-1 .1-.1.2-.2.4-.1.3 0 .5.1.8.7.4.8.6 1.7.6 2.7 0 .9-.2 1.9-.6 2.7-.3.5-.4.7-.7.7 0-.1-.1-.1-.2-.2Zm-2.1-1c-.1-.1-.3-.2-.3-.4s0-.3.2-.7c.2-.4.4-.8.3-1.2 0-.4-.1-.9-.3-1.2-.1-.1-.1-.3-.2-.4-.1-.3.1-.6.5-.7.3-.1.5.1.7.5.7 1.1.7 2.6 0 3.8-.3.3-.6.4-.9.3Z"/></g><defs><linearGradient id="b" x1="76.675" x2="76.675" y1="243.36" y2="3.4" gradientUnits="userSpaceOnUse"><stop stop-color="#1C1C1C"/><stop offset=".18" stop-color="#272727"/><stop offset=".5" stop-color="#444"/><stop offset=".92" stop-color="#737373"/><stop offset="1" stop-color="#7D7D7D"/></linearGradient><linearGradient id="c" x1="-6.471" x2="174.375" y1="96.003" y2="200.417" gradientUnits="userSpaceOnUse"><stop stop-color="#fff"/><stop offset=".03" stop-color="#fff" stop-opacity=".91"/><stop offset=".1" stop-color="#fff" stop-opacity=".72"/><stop offset=".17" stop-color="#fff" stop-opacity=".55"/><stop offset=".25" stop-color="#fff" stop-opacity=".4"/><stop offset=".33" stop-color="#fff" stop-opacity=".28"/><stop offset=".42" stop-color="#fff" stop-opacity=".18"/><stop offset=".52" stop-color="#fff" stop-opacity=".1"/><stop offset=".63" stop-color="#fff" stop-opacity=".04"/><stop offset=".76" stop-color="#fff" stop-opacity=".01"/><stop offset="1" stop-color="#fff" stop-opacity="0"/></linearGradient><linearGradient id="d" x1="116.899" x2="143.818" y1="220.183" y2="201.339" gradientUnits="userSpaceOnUse"><stop stop-color="#BFBFBF"/><stop offset=".18" stop-color="#BFBFBF"/><stop offset=".52" stop-color="#A6A6A6"/><stop offset=".72" stop-color="#A9A9A9"/><stop offset=".89" stop-color="#B4B4B4"/><stop offset="1" stop-color="#BFBFBF"/></linearGradient><linearGradient id="e" x1="96.589" x2="123.504" y1="220.183" y2="201.342" gradientUnits="userSpaceOnUse"><stop stop-color="#363636"/><stop offset=".05" stop-color="#424242"/><stop offset=".12" stop-color="#4A4A4A"/><stop offset=".23" stop-color="#4D4D4D"/><stop offset=".5" stop-color="#3D3D3D"/><stop offset=".59" stop-color="#363636"/><stop offset=".73" stop-color="#393939"/><stop offset=".86" stop-color="#444"/><stop offset=".98" stop-color="#565656"/><stop offset="1" stop-color="#595959"/></linearGradient><linearGradient id="f" x1="116.889" x2="143.808" y1="220.183" y2="201.339" gradientUnits="userSpaceOnUse"><stop stop-color="#34302C"/><stop offset=".2" stop-color="#37342F"/><stop offset=".41" stop-color="#40403A"/><stop offset=".5" stop-color="#464840"/><stop offset=".55" stop-color="#415045"/><stop offset=".61" stop-color="#356751"/><stop offset=".64" stop-color="#2E7358"/><stop offset=".66" stop-color="#48846D"/><stop offset=".7" stop-color="#8BAEA1"/><stop offset=".74" stop-color="#BCCDC8"/><stop offset=".77" stop-color="#DBE0DF"/><stop offset=".78" stop-color="#E6E7E8"/><stop offset=".81" stop-color="#E1E2E3"/><stop offset=".84" stop-color="#D4D5D5"/><stop offset=".87" stop-color="#BEBFBE"/><stop offset=".9" stop-color="#9FA19E"/><stop offset=".93" stop-color="#787974"/><stop offset=".96" stop-color="#464840"/><stop offset=".98" stop-color="#464840"/><stop offset="1" stop-color="#48373A"/></linearGradient><linearGradient id="g" x1="124.251" x2="137.311" y1="206.494" y2="215.634" gradientUnits="userSpaceOnUse"><stop stop-color="#34302C"/><stop offset=".11" stop-color="#3E3B37"/><stop offset=".3" stop-color="#5A5856"/><stop offset=".56" stop-color="#878686"/><stop offset=".58" stop-color="#8C8C8C"/><stop offset=".67" stop-color="#838181"/><stop offset=".82" stop-color="#6B6364"/><stop offset="1" stop-color="#48373A"/></linearGradient><linearGradient id="h" x1="116.889" x2="143.808" y1="220.183" y2="201.339" gradientUnits="userSpaceOnUse"><stop stop-color="#34302C"/><stop offset=".05" stop-color="#37342F"/><stop offset=".09" stop-color="#40403A"/><stop offset=".11" stop-color="#464840"/><stop offset=".12" stop-color="#4B4A40"/><stop offset=".13" stop-color="#595240"/><stop offset=".14" stop-color="#705D40"/><stop offset=".15" stop-color="#906E40"/><stop offset=".16" stop-color="#BA8341"/><stop offset=".17" stop-color="#FAA441"/><stop offset=".18" stop-color="#F7E589"/><stop offset=".19" stop-color="#F7F297"/><stop offset=".2" stop-color="#F9F5AB"/><stop offset=".22" stop-color="#FCFAD8"/><stop offset=".24" stop-color="#FEFEF5"/><stop offset=".25" stop-color="#fff"/><stop offset=".26" stop-color="#FEFEF5"/><stop offset=".27" stop-color="#FCFAD9"/><stop offset=".29" stop-color="#F9F5AD"/><stop offset=".3" stop-color="#F7F297"/><stop offset=".31" stop-color="#EFEE92"/><stop offset=".32" stop-color="#D9E583"/><stop offset=".33" stop-color="#BDD971"/><stop offset=".36" stop-color="#C2E3D1"/><stop offset=".42" stop-color="#89C3EA"/><stop offset=".44" stop-color="#7CB0DF"/><stop offset=".47" stop-color="#6D9CD2"/><stop offset=".48" stop-color="#6895CE"/><stop offset=".5" stop-color="#6F98CF"/><stop offset=".53" stop-color="#83A0D3"/><stop offset=".54" stop-color="#87A2D4"/><stop offset=".57" stop-color="#88BFE8"/><stop offset=".64" stop-color="#AEE0F9"/><stop offset=".68" stop-color="#DAF1FB"/><stop offset=".75" stop-color="#fff"/><stop offset=".81" stop-color="#FFFCD7"/><stop offset=".84" stop-color="#FFF795"/><stop offset=".87" stop-color="#FFF456"/><stop offset=".89" stop-color="#FEC353"/><stop offset=".91" stop-color="#DD88B9"/><stop offset=".92" stop-color="#1B2018"/><stop offset=".95" stop-color="#000900"/><stop offset=".96" stop-color="#FCD4A4"/><stop offset=".97" stop-color="#F3F8F6"/><stop offset=".98" stop-color="#007250"/><stop offset="1" stop-color="#48373A"/></linearGradient><linearGradient id="i" x1="118.247" x2="101.668" y1="196.768" y2="225.115" gradientUnits="userSpaceOnUse"><stop offset=".07" stop-color="#464840"/><stop offset=".08" stop-color="#4B4943"/><stop offset=".11" stop-color="#524B48"/><stop offset=".14" stop-color="#5F5855"/><stop offset=".18" stop-color="#807A78"/><stop offset=".25" stop-color="#B6B1B1"/><stop offset=".32" stop-color="#F6F3F4"/><stop offset=".34" stop-color="#F8F3CB"/><stop offset=".4" stop-color="#FFF456"/><stop offset=".43" stop-color="#FBB13F"/><stop offset=".44" stop-color="#F9A12C"/><stop offset=".45" stop-color="#F79721"/><stop offset=".46" stop-color="#D18C2B"/><stop offset=".47" stop-color="#A3833C"/><stop offset=".48" stop-color="#6D7850"/><stop offset=".49" stop-color="#6D7759"/><stop offset=".5" stop-color="#827A6B"/><stop offset=".51" stop-color="#A47F88"/><stop offset=".52" stop-color="#DD88B9"/><stop offset=".53" stop-color="#D958A0"/><stop offset=".55" stop-color="#C87DA8"/><stop offset=".56" stop-color="#8C5E76"/><stop offset=".57" stop-color="#34302C"/><stop offset=".8" stop-color="#282A24"/></linearGradient><linearGradient id="j" x1="96.589" x2="123.504" y1="220.183" y2="201.342" gradientUnits="userSpaceOnUse"><stop offset=".01" stop-color="#1B1912"/><stop offset=".03" stop-color="#5E56A5"/><stop offset=".05" stop-color="#AD75B2"/><stop offset=".07" stop-color="#D80B8C"/><stop offset=".09" stop-color="#F78F33"/><stop offset=".12" stop-color="#F9EE4C"/><stop offset=".13" stop-color="#CBE089"/><stop offset=".14" stop-color="#C3C18B"/><stop offset=".15" stop-color="#C0867D"/><stop offset=".16" stop-color="#EDB25E"/><stop offset=".17" stop-color="#FEC353"/><stop offset=".19" stop-color="#FFF795"/><stop offset=".2" stop-color="#FFF044"/><stop offset=".22" stop-color="#FFF68F"/><stop offset=".24" stop-color="#FFFCDF"/><stop offset=".25" stop-color="#fff"/><stop offset=".29" stop-color="#F4FBFE"/><stop offset=".36" stop-color="#E3F2E6"/><stop offset=".37" stop-color="#F9F5B1"/><stop offset=".38" stop-color="#FCF5AA"/><stop offset=".4" stop-color="#C4DF9B"/><stop offset=".41" stop-color="#BEDDA5"/><stop offset=".42" stop-color="#97CCEE"/><stop offset=".45" stop-color="#87ADDC"/><stop offset=".46" stop-color="#87A2D4"/><stop offset=".48" stop-color="#9297CB"/><stop offset=".49" stop-color="#9990C5"/><stop offset=".5" stop-color="#8592C9"/><stop offset=".51" stop-color="#6895CE"/><stop offset=".53" stop-color="#6D9CD2"/><stop offset=".55" stop-color="#7CB0DF"/><stop offset=".57" stop-color="#89C3EA"/><stop offset=".63" stop-color="#C2E3D1"/><stop offset=".7" stop-color="#F7F297"/><stop offset=".72" stop-color="#F9F5AD"/><stop offset=".75" stop-color="#FCFAD9"/><stop offset=".77" stop-color="#FEFEF5"/><stop offset=".79" stop-color="#fff"/><stop offset=".8" stop-color="#FEFEF5"/><stop offset=".81" stop-color="#FCFAD8"/><stop offset=".83" stop-color="#F9F5AB"/><stop offset=".84" stop-color="#F7F297"/><stop offset=".85" stop-color="#F8F289"/><stop offset=".86" stop-color="#FAF178"/><stop offset=".87" stop-color="#FFF044"/><stop offset=".89" stop-color="#FAA441"/><stop offset=".9" stop-color="#FAA841"/><stop offset=".91" stop-color="#FAAD42"/><stop offset=".94" stop-color="#94719D"/><stop offset=".95" stop-color="#725A75"/><stop offset=".96" stop-color="#574855"/><stop offset=".97" stop-color="#443B3E"/><stop offset=".98" stop-color="#383331"/><stop offset=".99" stop-color="#34302C"/><stop offset="1" stop-color="#34302C"/></linearGradient><linearGradient id="k" x1="133.805" x2="107.69" y1="245.895" y2="219.78" gradientUnits="userSpaceOnUse"><stop stop-color="#999"/><stop offset=".1" stop-color="#B3B3B3"/><stop offset=".24" stop-color="#B0B0B0"/><stop offset=".43" stop-color="#BFBFBF"/><stop offset=".61" stop-color="#BFBFBF"/><stop offset=".71" stop-color="#999"/><stop offset=".8" stop-color="#B3B3B3"/><stop offset="1" stop-color="#999"/></linearGradient><clipPath id="a"><path fill="#fff" d="M0 0h153.4v243.6H0z"/></clipPath></defs></svg>