<svg xmlns="http://www.w3.org/2000/svg" width="266" height="168" viewBox="0 0 266 168">
  <defs>
    <linearGradient id="big---1.-front-a" x1="65.229%" x2="28.397%" y1="73.632%" y2="35.495%">
      <stop offset="0%" stop-color="#61615F"/>
      <stop offset="100%" stop-color="#FAFAFA"/>
    </linearGradient>
  </defs>
  <g fill="none" fill-rule="evenodd">
    <rect width="266" height="168" fill="url(#big---1.-front-a)" rx="10"/>
    <rect width="266" height="168" fill="#797D80" rx="10"/>
    <path fill="#FFF" fill-rule="nonzero" d="M230.582513,144.218913 L225.554178,156.210574 L222.273401,156.210574 L219.798717,146.64019 C219.648878,146.052092 219.518412,145.835631 219.061781,145.587056 C218.315525,145.181835 217.083211,144.802843 216,144.567016 L216.073081,144.218913 L221.354744,144.218913 C222.026938,144.218913 222.632183,144.666299 222.785946,145.440951 L224.093548,152.380705 L227.3216,144.218913 L230.582513,144.218913 Z M235.017619,144.218913 L232.451462,156.210574 L229.347746,156.210574 L231.913903,144.218913 L235.017619,144.218913 Z M243.436597,152.295395 C243.449595,149.131089 239.059611,148.955566 239.088304,147.541581 C239.098849,147.111846 239.508395,146.654164 240.40498,146.53723 C240.849104,146.479867 242.076024,146.434025 243.46578,147.074094 L244.00947,144.529754 C243.262724,144.259852 242.301886,144 241.106602,144 C238.038446,144 235.880117,145.628975 235.86295,147.963472 C235.842841,149.69026 237.404509,150.652691 238.578947,151.227797 C239.7887,151.81516 240.194322,152.19268 240.188681,152.717531 C240.180098,153.522091 239.222694,153.878283 238.332485,153.891521 C236.771553,153.916281 235.866629,153.469875 235.144897,153.133784 L234.581589,155.762453 C235.307734,156.095112 236.645991,156.384135 238.032069,156.398844 C241.293718,156.398844 243.427033,154.788499 243.436597,152.295395 L243.436597,152.295395 Z M251.538483,156.210574 L254.407999,156.210574 L251.900943,144.218913 L249.253367,144.218913 C248.656216,144.218913 248.154462,144.5653 247.931787,145.097996 L243.274741,156.210574 L246.533937,156.210574 L247.180381,154.419314 L251.16229,154.419314 L251.538483,156.210574 Z M248.074024,151.962 L249.708282,147.458723 L250.647048,151.962 L248.074024,151.962 Z"/>
    <path fill="#FFF" d="M27.4963179,17.6631044 L24.879659,13.1025216 C24.6801323,12.7548342 24.5422553,12.3820641 24.4658053,12 L24.3564162,12.1904722 C23.7087614,13.3193083 23.7087614,14.7099456 24.3563049,15.8387817 L26.4497211,19.4872032 C27.0972646,20.6160392 27.0972646,22.0067886 26.4497211,23.1355127 L26.340332,23.3260968 C26.2637707,22.9439207 26.1258937,22.5712626 25.926367,22.2235753 L24.0099988,18.8834254 L22.7863541,16.7508311 C22.5868274,16.4031437 22.4490617,16.0303737 22.3723891,15.6483095 L22.2631113,15.8388937 C21.6176821,16.9638106 21.615679,18.3489611 22.2567683,19.4756696 L24.3564162,23.1355127 C25.004071,24.2643488 25.004071,25.6550981 24.3564162,26.7839342 L24.2470271,26.9745183 C24.1704658,26.5923422 24.0325888,26.2196841 23.8330621,25.8718848 L21.2165145,21.3114139 C20.8655345,20.6996858 20.7051788,20.0111417 20.7345569,19.3290922 C17.9333943,20.0654503 16,21.6290915 16,23.4395291 C16,25.9582187 19.7412637,28 24.3564162,28 C28.9714574,28 32.7127211,25.9582187 32.7127211,23.4395291 C32.7127211,21.6290915 30.7795494,20.0650024 27.9781642,19.3286443 C27.9533485,18.7520768 27.7929928,18.1801004 27.4963179,17.6631044 Z" opacity=".4"/>
    <path fill="#FFF" fill-rule="nonzero" d="M56.4954523 18.3326008C55.6899315 17.1450475 54.8051172 15.661074 53.8328284 13.7602399L53.8328284 13.7602399C52.8523585 11.8469249 51.9681735 9.88618271 51.4200417 8.39472064L51.4200417 8.39472064 54.6905822 8.39472064C54.8907038 9.01626718 55.134248 9.64530223 55.3922663 10.2356466L55.3922663 10.2356466 60.7659713 10.2356466C61.0258777 9.6477984 61.2562063 9.05558187 61.4695434 8.39472064L61.4695434 8.39472064 64.7407132 8.39472064C64.1585985 9.88930293 63.3121724 11.8369402 62.3342197 13.748383L62.3342197 13.748383C61.3594136 15.6517133 60.485927 17.1425513 59.6646733 18.3326008L59.6646733 18.3326008 56.4954523 18.3326008zM58.0769162 15.9843281C58.7515399 14.7861661 59.3569392 13.5711549 60.0309336 12.0753245L60.0309336 12.0753245 56.1279334 12.0753245C56.7855657 13.5418249 57.3915942 14.756212 58.0769162 15.9843281L58.0769162 15.9843281zM33.0503908 18.3326008C32.8905453 16.8080645 32.8087346 14.9927242 32.8087346 13.3645968L32.8087346 13.3645968C32.8087346 11.7489502 32.889916 10.1233189 33.0522788 8.39472064L33.0522788 8.39472064 36.1522754 8.39472064C36.018861 9.68087266 35.9534124 10.7829321 35.9093605 12.0840611L35.9093605 12.0840611 39.0288658 12.0840611C39.2560478 11.8350681 39.6286012 11.3614197 40.020034 10.7479857L40.020034 10.7479857C40.4756567 10.0378251 40.8274428 9.33827321 41.2188755 8.39472064L41.2188755 8.39472064 44.6845031 8.39472064C44.2295097 9.25527553 43.7367575 10.0322087 42.9960559 11.0681196L42.9960559 11.0681196C42.5725281 11.6590881 42.172285 12.1396009 41.8053954 12.4996736L41.8053954 12.4996736C43.1055564 12.9527286 43.9098186 14.0410591 43.9098186 15.3640296L43.9098186 15.3640296C43.9098186 16.1203694 43.6360674 16.8361464 43.1603066 17.3303882L43.1603066 17.3303882C42.483795 18.0236997 41.4334713 18.3326008 39.7519466 18.3326008L39.7519466 18.3326008 33.0503908 18.3326008 33.0503908 18.3326008zM36.0024988 16.4710814L38.7293127 16.4710814C39.7330672 16.4710814 40.2214142 16.3493931 40.5335535 16.0198985L40.5335535 16.0198985C40.7192009 15.8351819 40.82996 15.5400097 40.82996 15.2292364L40.82996 15.2292364C40.82996 14.6931837 40.5511743 14.2189113 40.062198 13.9218669L40.062198 13.9218669 35.9074725 13.9218669C35.9093605 14.6563652 35.9408261 15.4932065 36.0024988 16.4710814L36.0024988 16.4710814zM20.6598442 18.3326008C20.5119556 16.757517 20.4163 14.975251 20.4163 13.3583564L20.4163 13.3583564C20.4163 11.7489502 20.5245419 9.98166125 20.6604735 8.39347255L20.6604735 8.39347255 30.2241455 8.39347255C30.1744297 9.05620591 30.1354123 9.6609033 30.1001708 10.3754322L30.1001708 10.3754322 23.5899262 10.3754322C23.5395812 11.1199152 23.5162966 11.8057381 23.515038 12.4747119L23.515038 12.4747119 29.5205734 12.4747119 29.5205734 14.3493362 23.515038 14.3493362C23.515038 14.8941255 23.5339173 15.690404 23.5892969 16.3512652L23.5892969 16.3512652 30.0919897 16.3512652C30.1240847 17.0483209 30.1631021 17.633673 30.2266627 18.3326008L30.2266627 18.3326008 20.6598442 18.3326008zM7.01067124 18.3326008C6.85145501 16.8480032 6.76775636 14.9771231 6.76775636 13.3645968L6.76775636 13.3645968C6.76775636 11.7489502 6.84201531 10.167626 7.01067124 8.39472064L7.01067124 8.39472064 12.920551 8.39472064C15.0117586 8.39472064 16.2993334 8.63497708 17.0985611 9.17664615L17.0985611 9.17664615C17.7146586 9.59600285 18.0960224 10.4290999 18.0960224 11.352059L18.0960224 11.352059C18.0960224 12.4378934 17.4704851 13.3053127 16.372963 13.7490071L16.372963 13.7490071C17.1029663 14.1558829 17.5673994 14.9390565 17.5673994 15.7858825L17.5673994 15.7858825C17.5673994 16.5703042 17.3389587 17.1138454 16.8260685 17.5456829L16.8260685 17.5456829C15.9645388 18.2726927 14.3849628 18.3326008 12.7053259 18.3326008L12.7053259 18.3326008 7.01067124 18.3326008zM9.96089129 16.4523601L12.5832392 16.4523601C13.6430025 16.4523601 13.9960472 16.3724826 14.2993762 16.0698219L14.2993762 16.0698219C14.4548165 15.9138113 14.5473255 15.6398565 14.5473255 15.3353237L14.5473255 15.3353237C14.5473255 14.9147189 14.3767817 14.5527741 14.0652717 14.3143898L14.0652717 14.3143898 9.86838226 14.3143898C9.87845127 15.0576247 9.9086583 15.749064 9.96089129 16.4523601L9.96089129 16.4523601zM9.86586501 12.5140266L13.6404853 12.5140266C14.1867291 12.5140266 14.4648855 12.4403895 14.7096883 12.2338314L14.7096883 12.2338314C14.9387583 12.0397541 15.0451122 11.7994977 15.0451122 11.4737474L15.0451122 11.4737474C15.0451122 11.131772 14.9450515 10.8653057 14.7398954 10.6631159L14.7398954 10.6631159C14.4460061 10.3897852 14.0319181 10.2730892 13.3088373 10.2730892L13.3088373 10.2730892 9.96089129 10.2730892C9.89481341 11.0637513 9.86901157 11.8606538 9.86586501 12.5140266L9.86586501 12.5140266zM46.9563235 18.3319768C46.7977366 16.9097834 46.7077448 15.0351591 46.7115207 13.2791029L46.7115207 13.2791029C46.7152966 11.5960597 46.7826331 9.97729295 46.9563235 8.39472064L46.9563235 8.39472064 49.6246113 8.39472064C49.8052242 9.96918039 49.8643796 11.5923155 49.8687848 13.279727L49.8687848 13.279727C49.8738193 15.0320389 49.7724999 16.9228883 49.6271286 18.3319768L49.6271286 18.3319768 46.9563235 18.3319768 46.9563235 18.3319768zM.674746427 18.3319768C.516159512 16.9097834.426797045 15.0351591.430572924 13.2791029L.430572924 13.2791029C.434348803 11.5960597.501055997 9.97729295.674746427 8.39472064L.674746427 8.39472064 3.34492213 8.39472064C3.52427638 9.96918039 3.58343181 11.5923155 3.58846632 13.279727L3.58846632 13.279727C3.59287151 15.0320389 3.49218141 16.9228883 3.34618076 18.3319768L3.34618076 18.3319768.674746427 18.3319768.674746427 18.3319768zM69.4561567 5.15219471L64.7444891.436303954 64.7444891.435679911C81.0997086.435679911 84.9555103 4.24858087 87.2053048 9.43874409L87.2053048 9.43874409 89.0945029 14.3243745C83.5842369 14.1671157 75.2691222 10.9464313 69.4561567 5.15219471M80.4420763 16.1827737L75.1407424 10.8578172C80.1739889 14.4429426 85.1933906 16.6058746 90.1939129 17.1643928L90.1939129 17.1643928 91.4128925 20.3170566C84.0102819 20.3170566 83.0021222 18.7120188 80.4420763 16.1827737" opacity=".4" transform="matrix(1 0 0 -1 162 33)"/>
  </g>
</svg>
