<svg xmlns="http://www.w3.org/2000/svg" xmlns:xlink="http://www.w3.org/1999/xlink" width="266" height="168" viewBox="0 0 266 168">
  <defs>
    <rect id="big---1.-front-a" width="266" height="168" x="0" y="0" rx="10"/>
    <linearGradient id="big---1.-front-c" x1="65.229%" x2="28.397%" y1="73.632%" y2="35.495%">
      <stop offset="0%" stop-color="#8B8B8B"/>
      <stop offset="100%" stop-color="#FAFAFA"/>
    </linearGradient>
  </defs>
  <g fill="none" fill-rule="evenodd">
    <mask id="big---1.-front-b" fill="#fff">
      <use xlink:href="#big---1.-front-a"/>
    </mask>
    <g mask="url(#big---1.-front-b)">
      <rect width="266" height="168" fill="url(#big---1.-front-c)" rx="10"/>
      <g transform="translate(196 5)">
        <text font-family="AvenirNextCondensed-Italic, Avenir Next Condensed" font-size="20" font-style="italic">
          <tspan x=".46" y="20" fill="#000">acce</tspan> <tspan x="30.1" y="20" fill="#E54F43">s</tspan> <tspan x="36.82" y="20" fill="#000">s</tspan>
        </text>
        <rect width="6" height="70" x="64" y="9" fill="#DC5041"/>
      </g>
      <path fill="#FFF" fill-rule="nonzero" d="M14.5825127,11.2189127 L9.55417846,23.2105741 L6.27340125,23.2105741 L3.79871723,13.6401904 C3.64887758,13.0520923 3.51841164,12.835631 3.0617808,12.5870559 C2.31552538,12.1818345 1.08321072,11.8028434 -3.55271368e-15,11.5670158 L0.073080551,11.2189127 L5.35474441,11.2189127 C6.02693834,11.2189127 6.63218262,11.6662987 6.78594607,12.4409507 L8.09354838,19.3807046 L11.3215997,11.2189127 L14.5825127,11.2189127 Z M19.0176194,11.2189127 L16.451462,23.2105741 L13.3477457,23.2105741 L15.9139031,11.2189127 L19.0176194,11.2189127 Z M27.436597,19.2953948 C27.4495945,16.1310887 23.0596114,15.9555663 23.0883042,14.5415813 C23.0988494,14.1118456 23.5083948,13.6541635 24.4049803,13.5372303 C24.849104,13.4798669 26.0760235,13.4340251 27.4657802,14.0740935 L28.00947,11.5297541 C27.262724,11.2598516 26.3018864,11 25.1066025,11 C22.0384455,11 19.880117,12.6289754 19.8629505,14.9634724 C19.842841,16.6902599 21.4045086,17.6526914 22.5789473,18.227797 C23.7887003,18.8151596 24.1943219,19.1926799 24.1886815,19.7175311 C24.1800982,20.5220906 23.2226939,20.8782834 22.3324845,20.8915211 C20.7715526,20.9162806 19.8666289,20.4698751 19.1448973,20.133784 L18.5815885,22.7624527 C19.3077345,23.0951118 20.6459913,23.3841354 22.0320695,23.3988439 C25.2937183,23.3988439 27.4270328,21.7884994 27.436597,19.2953948 L27.436597,19.2953948 Z M35.5384834,23.2105741 L38.4079986,23.2105741 L35.9009433,11.2189127 L33.2533675,11.2189127 C32.6562159,11.2189127 32.1544615,11.5652998 31.9317866,12.0979956 L27.2747407,23.2105741 L30.5339371,23.2105741 L31.1803811,21.419314 L35.1622903,21.419314 L35.5384834,23.2105741 Z M32.0740239,18.9620004 L33.7082815,14.458723 L34.6470479,18.9620004 L32.0740239,18.9620004 Z" transform="translate(215 132)"/>
      <path fill="#C00" d="M27.4963179,17.6631044 L24.879659,13.1025216 C24.6801323,12.7548342 24.5422553,12.3820641 24.4658053,12 L24.3564162,12.1904722 C23.7087614,13.3193083 23.7087614,14.7099456 24.3563049,15.8387817 L26.4497211,19.4872032 C27.0972646,20.6160392 27.0972646,22.0067886 26.4497211,23.1355127 L26.340332,23.3260968 C26.2637707,22.9439207 26.1258937,22.5712626 25.926367,22.2235753 L24.0099988,18.8834254 L22.7863541,16.7508311 C22.5868274,16.4031437 22.4490617,16.0303737 22.3723891,15.6483095 L22.2631113,15.8388937 C21.6176821,16.9638106 21.615679,18.3489611 22.2567683,19.4756696 L24.3564162,23.1355127 C25.004071,24.2643488 25.004071,25.6550981 24.3564162,26.7839342 L24.2470271,26.9745183 C24.1704658,26.5923422 24.0325888,26.2196841 23.8330621,25.8718848 L21.2165145,21.3114139 C20.8655345,20.6996858 20.7051788,20.0111417 20.7345569,19.3290922 C17.9333943,20.0654503 16,21.6290915 16,23.4395291 C16,25.9582187 19.7412637,28 24.3564162,28 C28.9714574,28 32.7127211,25.9582187 32.7127211,23.4395291 C32.7127211,21.6290915 30.7795494,20.0650024 27.9781642,19.3286443 C27.9533485,18.7520768 27.7929928,18.1801004 27.4963179,17.6631044 Z"/>
    </g>
  </g>
</svg>
