<?xml version="1.0" encoding="UTF-8"?>
<svg width="266px" height="168px" viewBox="0 0 266 168" version="1.1" xmlns="http://www.w3.org/2000/svg" xmlns:xlink="http://www.w3.org/1999/xlink">
    <!-- Generator: Sketch 55.2 (78181) - https://sketchapp.com -->
    <title>02. Elements / Products / Modelo / Front Copy 46</title>
    <desc>Created with Sketch.</desc>
    <defs>
        <rect id="path-1" x="0" y="0" width="266" height="168" rx="10"></rect>
        <linearGradient x1="49.3285688%" y1="0%" x2="49.3285688%" y2="100%" id="linearGradient-3">
            <stop stop-color="#C7E1EA" offset="0%"></stop>
            <stop stop-color="#F3FAFE" offset="46.4494978%"></stop>
            <stop stop-color="#869736" offset="47.5254029%"></stop>
            <stop stop-color="#205D2A" offset="100%"></stop>
        </linearGradient>
        <linearGradient x1="48.1782058%" y1="49.6097389%" x2="51.8080518%" y2="50.3902611%" id="linearGradient-4">
            <stop stop-color="#73A28D" offset="0%"></stop>
            <stop stop-color="#6E9A7F" offset="100%"></stop>
        </linearGradient>
        <filter x="-0.8%" y="-9.3%" width="101.6%" height="118.5%" filterUnits="objectBoundingBox" id="filter-5">
            <feGaussianBlur stdDeviation="1" in="SourceGraphic"></feGaussianBlur>
        </filter>
        <polygon id="path-6" points="0.448335 27.6105576 328 27.6105576 328 94.9999313 0.448335 94.9999313"></polygon>
        <linearGradient x1="50%" y1="1.03801229%" x2="50%" y2="98.6697635%" id="linearGradient-8">
            <stop stop-color="#11411A" stop-opacity="0.371257649" offset="0%"></stop>
            <stop stop-color="#234616" stop-opacity="0" offset="100%"></stop>
        </linearGradient>
        <linearGradient x1="88.2892452%" y1="38.7041284%" x2="14.6598593%" y2="38.7041284%" id="linearGradient-9">
            <stop stop-color="#15401E" stop-opacity="0.507211538" offset="0%"></stop>
            <stop stop-color="#809229" stop-opacity="0.23628715" offset="50.213788%"></stop>
            <stop stop-color="#15401E" stop-opacity="0.5" offset="100%"></stop>
        </linearGradient>
        <linearGradient x1="50%" y1="0%" x2="50%" y2="100%" id="linearGradient-10">
            <stop stop-color="#7B8D29" offset="0%"></stop>
            <stop stop-color="#3D6A36" offset="100%"></stop>
        </linearGradient>
        <filter x="0.0%" y="-0.0%" width="100.0%" height="100.0%" filterUnits="objectBoundingBox" id="filter-11">
            <feGaussianBlur stdDeviation="0" in="SourceGraphic"></feGaussianBlur>
        </filter>
        <linearGradient x1="48.7933918%" y1="49.3099007%" x2="50%" y2="50.376085%" id="linearGradient-12">
            <stop stop-color="#7B8D29" offset="0%"></stop>
            <stop stop-color="#456E31" offset="100%"></stop>
        </linearGradient>
        <filter x="0.0%" y="-0.0%" width="100.0%" height="100.0%" filterUnits="objectBoundingBox" id="filter-13">
            <feGaussianBlur stdDeviation="0" in="SourceGraphic"></feGaussianBlur>
        </filter>
        <linearGradient x1="50%" y1="50%" x2="50%" y2="100%" id="linearGradient-14">
            <stop stop-color="#3D6F2E" offset="0%"></stop>
            <stop stop-color="#19341D" offset="100%"></stop>
        </linearGradient>
    </defs>
    <g id="Modelo" stroke="none" stroke-width="1" fill="none" fill-rule="evenodd">
        <g id="02.-Elements-/-Products-/-Superagro-/-Front">
            <g id="02.-Elements-/-Products-/-Acces-/-Big---Front-/-Amex">
                <mask id="mask-2" fill="white">
                    <use xlink:href="#path-1"></use>
                </mask>
                <g id="Mask"></g>
                <g id="Group-4" mask="url(#mask-2)">
                    <g transform="translate(-95.000000, 0.000000)">
                        <rect id="Surface" fill="url(#linearGradient-3)" fill-rule="evenodd" x="95" y="0" width="266" height="168" rx="10"></rect>
                        <g id="Group-6" stroke-width="1" fill="none" fill-rule="evenodd" transform="translate(0.000000, 39.000000)">
                            <polygon id="Fill-1" fill="#618F4D" points="54 141 396 141 396 32 54 32"></polygon>
                            <path d="M86.3991347,32.9035953 C89.9896592,32.7322373 124.993197,12.826853 190.995549,7.18244702 C199.258045,6.47585278 233.613546,0.607845244 241.929365,0.607845244 C250.66119,0.607845244 286.761159,3.00691882 294.544438,3.45402441 C347.222817,6.48010107 351.727958,11.7550875 408.718648,2.18948171 C415.386099,1.0703829 430.119178,3.86997632 438.156791,2.18948171 C447.004833,2.18948171 450.208737,6.12965788 452.144523,7.18244702 C455.090461,8.78461363 450.427883,17.3583297 438.156791,32.9035953 C200.958351,33.0321349 83.7057988,33.0321349 86.3991347,32.9035953 Z" id="Path-19-Copy-2" fill="url(#linearGradient-4)" opacity="0.392322359" filter="url(#filter-5)" transform="translate(269.676888, 16.803923) scale(-1, 1) translate(-269.676888, -16.803923) "></path>
                            <g id="Group" opacity="0.79985119" transform="translate(60.388568, 32.000000)" fill="#527C43" fill-opacity="0.4">
                                <polygon id="Path" points="269.611432 0 321.613309 103 328.611432 103 276.610238 0"></polygon>
                                <polygon id="Path" points="253.611432 0 297.849955 103 304.611432 103 260.374274 0"></polygon>
                                <polygon id="Path" points="237.611432 0 274.078285 103 280.611432 103 244.144579 0"></polygon>
                                <polygon id="Path" points="222.611432 0 252.131639 103 258.611432 103 229.090537 0"></polygon>
                                <polygon id="Path" points="100.132451 0 70.611432 103 77.0911015 103 106.611432 0"></polygon>
                                <polygon id="Path" points="85.0775038 0 48.611432 103 55.1446823 103 91.611432 0"></polygon>
                                <polygon id="Path" points="68.8487711 0 24.611432 103 31.3740929 103 75.611432 0"></polygon>
                                <polygon id="Path" points="52.6127066 0 0.611432 103 7.60947369 103 59.611432 0"></polygon>
                            </g>
                            <g id="Group-5" transform="translate(68.000000, 32.000000)">
                                <g id="Group-2" opacity="0.660644531" transform="translate(86.000000, 0.000000)" fill="#527C43">
                                    <polygon id="Path" points="114 0 135.741615 103 142 103 120.259741 0"></polygon>
                                    <polygon id="Path" points="98 0 112.718491 103 119 103 104.280819 0"></polygon>
                                    <polygon id="Path" points="83 0 90.0377033 103 96 103 88.9622967 0"></polygon>
                                    <polygon id="Path" points="68 103 74 103 74 0 68 0"></polygon>
                                    <polygon id="Path" points="53.0377033 0 46 103 51.9622967 103 59 0"></polygon>
                                    <polygon id="Path" points="37.7184913 0 23 103 29.2815087 103 44 0"></polygon>
                                    <polygon id="Path" points="21.7409372 0 0 103 6.25906284 103 28 0"></polygon>
                                </g>
                                <mask id="mask-7" fill="white">
                                    <use xlink:href="#path-6"></use>
                                </mask>
                                <g id="Clip-4"></g>
                            </g>
                            <polygon id="Fill-1" fill="url(#linearGradient-8)" points="57 141 399 141 399 32 57 32"></polygon>
                            <polygon id="Fill-1" fill="url(#linearGradient-9)" points="57 141 399 141 399 32 57 32"></polygon>
                            <path d="M0.0431153242,33.3664633 C3.88333878,33.1913412 121.054982,-1.40176161 190.984575,4.0333461 C260.914168,9.46845381 311.218488,15.1676495 334.406163,5.46989202 C349.864612,-0.995279627 349.864612,8.30357747 334.406163,33.3664633 C108.937315,33.4832114 -2.51703364,33.4832114 0.0431153242,33.3664633 Z" id="Path-19-Copy" fill="url(#linearGradient-10)" opacity="0.987467448" filter="url(#filter-11)" transform="translate(173.000000, 18.454024) scale(-1, 1) translate(-173.000000, -18.454024) "></path>
                            <path d="M167.941466,33.4032071 C170.169616,33.3015724 238.1542,13.2249682 278.728302,16.379311 C319.302405,19.5336539 348.489656,22.841264 361.943461,17.2130311 C370.912664,13.4608758 370.912664,18.8576012 361.943461,33.4032071 C231.123365,33.4709635 166.456033,33.4709635 167.941466,33.4032071 Z" id="Path-19" fill="url(#linearGradient-12)" opacity="0.987467448" filter="url(#filter-13)"></path>
                        </g>
                        <path d="M122.496318,17.6631044 L119.879659,13.1025216 C119.680132,12.7548342 119.542255,12.3820641 119.465805,12 L119.356416,12.1904722 C118.708761,13.3193083 118.708761,14.7099456 119.356305,15.8387817 L121.449721,19.4872032 C122.097265,20.6160392 122.097265,22.0067886 121.449721,23.1355127 L121.340332,23.3260968 C121.263771,22.9439207 121.125894,22.5712626 120.926367,22.2235753 L119.009999,18.8834254 L117.786354,16.7508311 C117.586827,16.4031437 117.449062,16.0303737 117.372389,15.6483095 L117.263111,15.8388937 C116.617682,16.9638106 116.615679,18.3489611 117.256768,19.4756696 L119.356416,23.1355127 C120.004071,24.2643488 120.004071,25.6550981 119.356416,26.7839342 L119.247027,26.9745183 C119.170466,26.5923422 119.032589,26.2196841 118.833062,25.8718848 L116.216514,21.3114139 C115.865535,20.6996858 115.705179,20.0111417 115.734557,19.3290922 C112.933394,20.0654503 111,21.6290915 111,23.4395291 C111,25.9582187 114.741264,28 119.356416,28 C123.971457,28 127.712721,25.9582187 127.712721,23.4395291 C127.712721,21.6290915 125.779549,20.0650024 122.978164,19.3286443 C122.953349,18.7520768 122.792993,18.1801004 122.496318,17.6631044 Z" id="Santander-(isotipo)" fill="#CC0000" fill-rule="evenodd"></path>
                        <path d="M324.582513,143.218913 L319.554178,155.210574 L316.273401,155.210574 L313.798717,145.64019 C313.648878,145.052092 313.518412,144.835631 313.061781,144.587056 C312.315525,144.181835 311.083211,143.802843 310,143.567016 L310.073081,143.218913 L315.354744,143.218913 C316.026938,143.218913 316.632183,143.666299 316.785946,144.440951 L318.093548,151.380705 L321.3216,143.218913 L324.582513,143.218913 Z M329.017619,143.218913 L326.451462,155.210574 L323.347746,155.210574 L325.913903,143.218913 L329.017619,143.218913 Z M337.436597,151.295395 C337.449595,148.131089 333.059611,147.955566 333.088304,146.541581 C333.098849,146.111846 333.508395,145.654164 334.40498,145.53723 C334.849104,145.479867 336.076024,145.434025 337.46578,146.074094 L338.00947,143.529754 C337.262724,143.259852 336.301886,143 335.106602,143 C332.038446,143 329.880117,144.628975 329.86295,146.963472 C329.842841,148.69026 331.404509,149.652691 332.578947,150.227797 C333.7887,150.81516 334.194322,151.19268 334.188681,151.717531 C334.180098,152.522091 333.222694,152.878283 332.332485,152.891521 C330.771553,152.916281 329.866629,152.469875 329.144897,152.133784 L328.581589,154.762453 C329.307734,155.095112 330.645991,155.384135 332.032069,155.398844 C335.293718,155.398844 337.427033,153.788499 337.436597,151.295395 L337.436597,151.295395 Z M345.538483,155.210574 L348.407999,155.210574 L345.900943,143.218913 L343.253367,143.218913 C342.656216,143.218913 342.154462,143.5653 341.931787,144.097996 L337.274741,155.210574 L340.533937,155.210574 L341.180381,153.419314 L345.16229,153.419314 L345.538483,155.210574 Z M342.074024,150.962 L343.708282,146.458723 L344.647048,150.962 L342.074024,150.962 Z" id="VISA-logo" fill="#FFFFFF" fill-rule="nonzero"></path>
                        <path d="M280.370287,19.5588765 C280.370287,20.3582408 280.08129,20.985425 279.503289,21.4404478 C278.925287,21.8954705 278.127984,22.1229785 277.111356,22.1229785 C276.094729,22.1229785 275.262583,21.9651577 274.614893,21.6495112 L274.614893,20.259854 C275.024823,20.4525213 275.460368,20.6041933 275.921539,20.7148745 C276.382711,20.8255557 276.812107,20.8808955 277.209739,20.8808955 C277.79184,20.8808955 278.221236,20.770216 278.497939,20.5488535 C278.774642,20.3274911 278.912992,20.030296 278.912992,19.6572593 C278.912992,19.3211163 278.785915,19.0362189 278.531758,18.8025586 C278.277601,18.5688982 277.752898,18.2921994 276.957633,17.9724536 C276.137772,17.64041 275.559779,17.26123 275.223636,16.8349023 C274.887493,16.4085747 274.719424,15.8961693 274.719424,15.2976709 C274.719424,14.5474982 274.985875,13.9572072 275.518785,13.5267803 C276.051694,13.0963533 276.767012,12.8811431 277.66476,12.8811431 C278.525614,12.8811431 279.382355,13.0697082 280.235011,13.4468442 L279.767692,14.6458848 C278.968328,14.3097418 278.25506,14.1416729 277.627866,14.1416729 C277.152347,14.1416729 276.791614,14.2451787 276.545655,14.4521936 C276.299697,14.6592085 276.17672,14.9328329 276.17672,15.2730752 C276.17672,15.5067355 276.225911,15.7065736 276.324294,15.8725955 C276.422677,16.0386173 276.584597,16.1954133 276.810059,16.3429883 C277.035521,16.4905632 277.441346,16.6852773 278.027546,16.9271362 C278.687534,17.2017896 279.171245,17.4579923 279.478693,17.695752 C279.786141,17.9335116 280.011599,18.202012 280.155075,18.5012612 C280.29855,18.8005104 280.370287,19.1530453 280.370287,19.5588765 Z M289.157102,13.0102705 L289.157102,18.8271543 C289.157102,19.4912416 289.014653,20.0723093 288.729752,20.5703748 C288.44485,21.0684402 288.032876,21.4517194 287.493818,21.7202239 C286.954759,21.9887283 286.310153,22.1229785 285.55998,22.1229785 C284.44497,22.1229785 283.57798,21.827833 282.958985,21.2375332 C282.33999,20.6472334 282.030497,19.8355833 282.030497,18.8025586 L282.030497,13.0102705 L283.506239,13.0102705 L283.506239,18.6980269 C283.506239,19.4400009 283.678407,19.9872499 284.022749,20.33979 C284.367091,20.6923302 284.895893,20.8685977 285.609172,20.8685977 C286.994737,20.8685977 287.687509,20.140982 287.687509,18.685729 L287.687509,13.0102705 L289.157102,13.0102705 Z M284.613046,12.2908462 L284.613046,12.137123 C284.846706,11.8501717 285.087537,11.5304308 285.335545,11.1778906 C285.583553,10.8253505 285.779291,10.5240561 285.922767,10.2739985 L287.601424,10.2739985 L287.601424,10.403126 C287.38826,10.6531835 287.069544,10.9759989 286.645266,11.3715818 C286.220988,11.7671647 285.863329,12.0735831 285.572278,12.2908462 L284.613046,12.2908462 Z M297.40896,15.7280957 C297.40896,16.6668364 297.101517,17.3862535 296.486622,17.8863687 C295.871726,18.3864838 294.996538,18.6365376 293.86103,18.6365376 L292.926394,18.6365376 L292.926394,22 L291.4568,22 L291.4568,13.0102705 L294.045498,13.0102705 C295.168707,13.0102705 296.010077,13.2398281 296.569632,13.6989502 C297.129187,14.1580723 297.40896,14.8344474 297.40896,15.7280957 Z M292.926394,17.4006035 L293.707307,17.4006035 C294.461579,17.4006035 295.014977,17.2694277 295.367517,17.0070723 C295.720057,16.7447168 295.896325,16.3347925 295.896325,15.7772871 C295.896325,15.2607748 295.738504,14.8754459 295.422857,14.6212891 C295.107211,14.3671322 294.615302,14.2400557 293.947115,14.2400557 L292.926394,14.2400557 L292.926394,17.4006035 Z M304.289608,22 L299.204447,22 L299.204447,13.0102705 L304.289608,13.0102705 L304.289608,14.2523535 L300.67404,14.2523535 L300.67404,16.699626 L304.062098,16.699626 L304.062098,17.9294111 L300.67404,17.9294111 L300.67404,20.7517681 L304.289608,20.7517681 L304.289608,22 Z M307.702262,17.19154 L308.722984,17.19154 C309.407568,17.19154 309.903576,17.0644635 310.211024,16.8103066 C310.518472,16.5561498 310.672193,16.1790194 310.672193,15.6789043 C310.672193,15.1705906 310.506174,14.8057579 310.17413,14.5843955 C309.842087,14.3630331 309.341979,14.2523535 308.673792,14.2523535 L307.702262,14.2523535 L307.702262,17.19154 Z M307.702262,18.4090273 L307.702262,22 L306.232669,22 L306.232669,13.0102705 L308.772175,13.0102705 C309.932278,13.0102705 310.79107,13.2275304 311.348575,13.6620566 C311.906081,14.0965829 312.184829,14.7524618 312.184829,15.6297129 C312.184829,16.748823 311.602737,17.5461257 310.438534,18.021645 L312.978041,22 L311.305533,22 L309.153409,18.4090273 L307.702262,18.4090273 Z M319.581987,22 L319.139264,20.3151943 L316.218524,20.3151943 L315.763504,22 L313.09487,22 L316.027908,12.973377 L319.268392,12.973377 L322.238323,22 L319.581987,22 Z M318.635052,18.3229424 L318.24767,16.8472002 C318.157485,16.5192558 318.04783,16.0949842 317.918702,15.5743726 C317.789574,15.0537609 317.704515,14.6807298 317.663522,14.4552681 C317.626628,14.6643326 317.553867,15.008669 317.445235,15.4882876 C317.336604,15.9679062 317.095773,16.9127817 316.722736,18.3229424 L318.635052,18.3229424 Z M326.819272,16.7365195 L330.699245,16.7365195 L330.699245,21.581873 C329.645723,21.9426118 328.487687,22.1229785 327.225102,22.1229785 C325.839537,22.1229785 324.768609,21.7212527 324.012288,20.9177891 C323.255966,20.1143254 322.877811,18.968587 322.877811,17.4805396 C322.877811,16.0293858 323.291835,14.9000444 324.119894,14.0924814 C324.947954,13.2849185 326.108039,12.8811431 327.600186,12.8811431 C328.16589,12.8811431 328.699816,12.9344332 329.201981,13.0410151 C329.704146,13.147597 330.14174,13.2828721 330.514777,13.4468442 L329.746161,15.3530112 C329.098471,15.0332655 328.387252,14.873395 327.612484,14.873395 C326.903304,14.873395 326.355031,15.1039774 325.967646,15.5651492 C325.580262,16.0263209 325.386573,16.6852742 325.386573,17.5420288 C325.386573,18.3823862 325.561815,19.0228929 325.912306,19.4635681 C326.262796,19.9042433 326.768028,20.1245776 327.428016,20.1245776 C327.788755,20.1245776 328.120794,20.0897341 328.424142,20.0200459 L328.424142,18.6119419 L326.819272,18.6119419 L326.819272,16.7365195 Z M334.96045,18.7287715 L334.96045,22 L332.531625,22 L332.531625,13.0102705 L335.47696,13.0102705 C337.920145,13.0102705 339.14172,13.895707 339.14172,15.6666064 C339.14172,16.7078298 338.633414,17.513331 337.616786,18.0831343 L340.236229,22 L337.48151,22 L335.575343,18.7287715 L334.96045,18.7287715 Z M334.96045,16.9025405 L335.415471,16.9025405 C336.264027,16.9025405 336.688298,16.5274598 336.688298,15.7772871 C336.688298,15.1582922 336.272225,14.8487993 335.440066,14.8487993 L334.96045,14.8487993 L334.96045,16.9025405 Z M349.465766,17.4928374 C349.465766,19.0054807 349.094785,20.1553183 348.352811,20.9423848 C347.610836,21.7294512 346.524537,22.1229785 345.09388,22.1229785 C343.683719,22.1229785 342.602544,21.7274016 341.850322,20.9362358 C341.098099,20.1450701 340.721994,18.9931829 340.721994,17.4805396 C340.721994,15.9842935 341.09605,14.8416295 341.844173,14.0525134 C342.592296,13.2633973 343.67962,12.8688452 345.106178,12.8688452 C346.536835,12.8688452 347.621085,13.2603229 348.358959,14.04329 C349.096834,14.8262572 349.465766,15.9760948 349.465766,17.4928374 Z M343.279947,17.4928374 C343.279947,19.2309424 343.884585,20.0999819 345.09388,20.0999819 C345.708776,20.0999819 346.164816,19.8888709 346.462016,19.4666426 C346.759215,19.0444142 346.907813,18.3864858 346.907813,17.4928374 C346.907813,16.5950897 346.757166,15.9320372 346.455867,15.5036599 C346.154568,15.0752826 345.704676,14.8610972 345.106178,14.8610972 C343.888684,14.8610972 343.279947,15.7383351 343.279947,17.4928374 Z" id="SÚPERAGRO" fill="url(#linearGradient-14)" fill-rule="nonzero"></path>
                    </g>
                </g>
            </g>
        </g>
    </g>
</svg>