<svg xmlns="http://www.w3.org/2000/svg" width="151" height="241" fill="none"><g clip-path="url(#a)"><rect width="151" height="241" fill="#fff" rx="10"/><path fill="#E6E7E8" d="M167-11H-9.3v259.7H167V-11Z"/><path fill="#F6F6F6" d="M163.3 243.1H-20.1v-38.3l58.2.1v-36.6l125.7-.1-.5 74.9Z"/><path fill="#F6F6F6" d="M145.2 87.5v49.8c0 18-14.5 32.6-32.5 32.6h-11.4c-18 0-32.5-14.6-32.5-32.6V87.5c0-18 14.5-32.6 32.5-32.6h11.4c17.9.1 32.5 14.6 32.5 32.6Zm-15.3 0c0-9.5-7.8-17.3-17.2-17.3h-11.4c-9.4 0-17.2 7.8-17.2 17.3v49.8c0 9.5 7.8 17.3 17.2 17.3h11.4c9.4 0 17.2-7.8 17.2-17.3V87.5Z"/><path fill="#ED1C24" d="M36.7 25.7c0-.7-.2-1.3-.6-2L33 18.4c-.2-.4-.4-.8-.5-1.3l-.1.2c-.8 1.3-.8 3 0 4.3l2.5 4.3c.8 1.3.8 3 0 4.3l-.1.2c-.1-.4-.3-.9-.5-1.3l-2.3-4-1.4-2.5c-.2-.4-.4-.8-.5-1.3l-.1.2c-.8 1.3-.8 2.9 0 4.3l2.5 4.3c.8 1.3.8 3 0 4.3l-.1.2c-.1-.4-.3-.9-.5-1.3L28.7 28c-.4-.7-.6-1.5-.6-2.3-3.3.9-5.6 2.7-5.6 4.8 0 3 4.4 5.4 9.9 5.4s9.9-2.4 9.9-5.4c0-2.1-2.3-4-5.6-4.8Zm9.3 9.1c0-.8.1-1.3.4-1.9 1 .5 2.4.7 3.4.7 1.7 0 2.7-.6 2.7-1.7s-.7-1.6-2.4-2.3l-.9-.4c-1.7-.8-2.9-1.7-2.9-3.7 0-2.1 1.5-3.5 4.5-3.5 1.2 0 2.3.2 3.4.5-.1.7-.2 1.3-.4 1.9-1-.4-2.2-.5-3-.5-1.6 0-2.4.6-2.4 1.6s.7 1.5 2 2.1l1 .4c2.4 1 3.3 2.1 3.3 3.9 0 2.1-1.6 3.6-4.8 3.6-1.6 0-2.8-.2-3.9-.7Zm18.5-8.9v9.3h-1.9l-.1-1.1c-.5.8-1.3 1.3-2.6 1.3-2.4 0-4.1-1.8-4.1-4.9 0-3.3 1.7-5.1 5.2-5.1 1.4 0 2.5.2 3.5.5Zm-2 7.2v-5.8c-.4-.1-.9-.1-1.5-.1-2.1 0-3.1 1.3-3.1 3.4 0 1.9.8 3.2 2.6 3.2.8 0 1.5-.3 2-.7ZM75 29v6.2h-2v-5.9c0-1.5-.5-2.2-2.5-2.2-.5 0-1.1.1-1.6.1v7.9h-2v-9.3c1.3-.3 2.7-.5 3.7-.5 3.3.1 4.4 1.4 4.4 3.7Zm5.6 4.7c.6 0 1.2-.1 1.6-.3-.1.6-.1 1.2-.2 1.7-.6.2-1.2.3-1.7.3-2 0-3.2-.9-3.2-3.2v-9.7c.6-.2 1.4-.3 2-.3v3.5h3.2c0 .6-.1 1.2-.2 1.7h-3V32c0 1.2.6 1.7 1.5 1.7Zm11-7.8v9.3h-1.9l-.1-1.1c-.5.8-1.3 1.3-2.6 1.3-2.4 0-4.1-1.8-4.1-4.9 0-3.3 1.7-5.1 5.2-5.1 1.3 0 2.4.2 3.5.5Zm-2 7.2v-5.8c-.4-.1-.9-.1-1.5-.1-2.1 0-3.1 1.3-3.1 3.4 0 1.9.8 3.2 2.6 3.2.8 0 1.4-.3 2-.7ZM102 29v6.2h-2v-5.9c0-1.5-.5-2.2-2.5-2.2-.5 0-1.1.1-1.6.1v7.9h-2v-9.3c1.3-.3 2.7-.5 3.7-.5 3.3.1 4.4 1.4 4.4 3.7Zm10.4-6.8v13h-1.9l-.1-1.2c-.5.9-1.3 1.4-2.7 1.4-2.4 0-4.1-1.8-4.1-4.9 0-3.3 1.7-5.1 5.2-5.1.5 0 1 .1 1.5.1v-3.1c.7-.1 1.4-.2 2.1-.2Zm-2 10.9v-5.7c-.5-.1-1.1-.2-1.6-.2-2 0-3 1.3-3 3.4 0 1.9.8 3.2 2.6 3.2.7 0 1.4-.3 2-.7Zm12.2-1.8h-6.5c.3 1.7 1.2 2.4 3 2.4 1.1 0 2.2-.2 3.3-.7-.1.5-.2 1.2-.3 1.9-.9.4-1.9.6-3 .6-3.4 0-5.1-1.9-5.1-5.1 0-2.8 1.3-5 4.5-5 2.9 0 4.2 1.9 4.2 4.2.1.7 0 1.1-.1 1.7Zm-6.5-1.8h4.6c0-1.5-.8-2.4-2.2-2.4-1.5 0-2.2.9-2.4 2.4Zm13.7-4c0 .6-.1 1.4-.2 1.7-.5-.1-1-.1-1.5-.1s-1 0-1.5.1v7.9h-2v-9.3c.9-.3 2.3-.5 3.5-.5.5.1 1.2.1 1.7.2Z"/><path fill="#F6F6F6" d="M20.7 160.3h7.6v2.2h-11v-2.2l7.6-6.6h-7.6v-2.2h11v2.2l-7.6 6.6ZM35.2 160.3h5.5v2.2h-5.5c-3 0-5.5-2.5-5.5-5.5s2.5-5.5 5.5-5.5h5.5v6.6h-5.5v-2.2h3.3v-2.2h-3.3c-1.8 0-3.3 1.5-3.3 3.3 0 1.9 1.4 3.3 3.3 3.3ZM49.3 151.6v2.2h-1.1c-1.8 0-3.3 1.5-3.3 3.3v5.5h-2.2V157c0-3 2.5-5.5 5.5-5.5h1.1v.1ZM61.4 157c0 3-2.5 5.5-5.5 5.5s-5.5-2.5-5.5-5.5 2.5-5.5 5.5-5.5c3 .1 5.5 2.5 5.5 5.5Zm-2.2 0c0-1.8-1.5-3.3-3.3-3.3-1.8 0-3.3 1.5-3.3 3.3 0 1.8 1.5 3.3 3.3 3.3 1.8 0 3.3-1.4 3.3-3.3Z"/><path fill="#F26522" d="M125.7 206.1h-13.8v24.8h13.8v-24.8Z"/><path fill="#E51B24" d="M112.8 218.5c0-5 2.4-9.5 6-12.4-2.7-2.1-6.1-3.4-9.7-3.4-8.7 0-15.8 7.1-15.8 15.8 0 8.7 7.1 15.8 15.8 15.8 3.7 0 7.1-1.3 9.7-3.4-3.7-2.9-6-7.4-6-12.4Z"/><path fill="#000" d="M142.8 228.3v-.5h.2v-.1h-.5v.1h.2v.5h.1Zm1 0v-.6h-.2l-.2.4-.2-.4h-.2v.6h.1v-.5l.2.4h.1l.2-.4v.5h.2Z"/><path fill="#F99F1C" d="M144.3 218.5c0 8.7-7.1 15.8-15.8 15.8-3.7 0-7.1-1.3-9.7-3.4 3.7-2.9 6-7.4 6-12.4s-2.4-9.5-6-12.4c2.7-2.1 6.1-3.4 9.7-3.4 8.7 0 15.8 7.1 15.8 15.8Z"/><path fill="url(#b)" d="M72.1 182.5c1.5 0 2.7 1.2 2.7 2.6v25.2c0 1.5-1.2 2.6-2.7 2.6h-17c-1.5 0-2.7-1.2-2.7-2.6v-25.2c0-1.5 1.2-2.6 2.7-2.6h17Z"/><path stroke="#000" stroke-width=".5" d="M60.2 182.5v8.8c-5.2.8-7.8 4.8-7.8 4.8v2.7s2.5 4 7.8 4.8v9.5M67.3 182.5v9c3.9 0 7.5 4.5 7.5 4.5v2.8s-3.6 4.5-7.5 4.5v9.6"/><path fill="#000" d="M54 196.7c.4 0 .7.3.7.7 0 .4-.3.7-.7.7-.4 0-.7-.3-.7-.7-.1-.4.3-.7.7-.7Z"/><path stroke="#000" stroke-width=".5" d="M60.2 203.6s1.4-.6 3.5-.6 3.6.5 3.6.5M60.2 191.4s1.4.6 3.5.6 3.6-.5 3.6-.5M52.6 203.7v7.9M74.6 203.7v7.9M52.6 183.5v8M74.6 183.5v8"/><path stroke="#D1D3D4" stroke-width=".3" d="M72.1 182.5c1.5 0 2.7 1.2 2.7 2.6v25.2c0 1.5-1.2 2.6-2.7 2.6h-17c-1.5 0-2.7-1.2-2.7-2.6v-25.2c0-1.5 1.2-2.6 2.7-2.6h17Z"/><path fill="#CCCCCB" d="M20.3 234.3c-.3-.1-.6-.5-.7-.8 0-.2 0-.4.3-1.1 1.4-2.6 2-5.1 2-8 0-2.8-.5-5.1-1.8-7.7-.3-.6-.5-1.1-.5-1.2 0-.3.2-.7.5-.9.4-.2.9-.2 1.2.1.1.1.4.6.6 1 .9 1.8 1.6 3.8 1.9 5.9.2 1.3.2 3.8.1 4.9-.3 2.2-.9 4.1-1.8 6-.6 1.2-.9 1.6-1.2 1.6h-.2c-.1.2-.3.2-.4.2Zm-3.8-2c-.5-.1-.8-.7-.7-1.2 0-.1.3-.6.5-1.1 1-2.1 1.5-4.4 1.3-6.7-.2-1.8-.5-3-1.3-4.7-.6-1.1-.6-1.3-.3-1.8.3-.4 1.1-.5 1.5-.1.3.3 1.2 2.1 1.5 3.1 1.1 3.4.9 7.1-.5 10.4-.8 1.8-1.3 2.3-2 2.1Zm-4-2c-.3-.1-.6-.5-.6-.8 0-.2 0-.4.4-1.1 1.3-2.7 1.3-5.2 0-7.8-.6-1.1-.6-1.4-.1-1.8.2-.2.3-.3.7-.3.6 0 .8.3 1.3 1.3.8 1.6 1.1 2.9 1.1 4.7 0 1.8-.3 3-1.1 4.7-.5.9-.7 1.2-1.2 1.3-.1-.1-.3-.2-.5-.2Zm-3.6-1.9c-.2-.1-.5-.4-.6-.7-.1-.3 0-.6.3-1.2.5-.8.6-1.2.6-2.2 0-1-.1-1.4-.6-2.2-.2-.3-.3-.6-.3-.7-.1-.5.3-1.1.8-1.2.5-.1.8.1 1.2.8 1.3 2 1.3 4.6 0 6.6-.4.8-.9 1-1.4.8Z"/></g><defs><linearGradient id="b" x1="73.259" x2="53.767" y1="184.959" y2="210.856" gradientUnits="userSpaceOnUse"><stop stop-color="#7A7A7A"/><stop offset=".304" stop-color="#fff"/><stop offset="1" stop-color="#7A7A7A"/></linearGradient><clipPath id="a"><rect width="151" height="241" fill="#fff" rx="10"/></clipPath></defs></svg>