<svg width="160" height="160" viewBox="0 0 160 160" fill="none" xmlns="http://www.w3.org/2000/svg">
<path fill-rule="evenodd" clip-rule="evenodd" d="M112.001 121.523C112.001 121.523 115.012 121.523 112.001 121.523C95.4176 121.523 81.2695 122.475 55.9601 130.539C19.1722 142.261 18.7306 109.247 25.5111 91.897C2.75894 82.0119 10.9415 50.3062 21.8318 38.5634C29.8608 29.9054 40.715 26.1102 54.3924 27.1758C59.552 27.1758 67.5309 30.5966 78.3309 37.4372C91.9621 46.0721 97.8072 46.0206 109.883 48.1478C156.059 56.2821 154.031 93.5751 140.754 107.423C132.074 116.477 122.038 121.523 112.001 121.523" fill="#191919"/>
<path fill-rule="evenodd" clip-rule="evenodd" d="M116.078 41.3178H61.3902C60.9105 41.3178 60.5281 41.6963 60.498 42.1705H55.3855C55.3554 41.6963 54.973 41.3178 54.4943 41.3178H35.4686C28.5526 41.3249 22.9524 46.991 22.9444 53.9809V77.3162C22.9444 77.7592 23.2655 78.1104 23.682 78.1911C23.7382 78.2022 23.7894 78.2244 23.8486 78.2244C23.9841 78.2244 24.1096 78.1901 24.225 78.1356V81.4888C24.1096 81.4343 23.9841 81.4 23.8486 81.4C23.7894 81.4 23.7382 81.4222 23.682 81.4333C23.2655 81.5141 22.9444 81.8652 22.9444 82.3082V82.5675V82.5686V83.175V84.4112C22.9444 84.8531 23.2655 85.2053 23.682 85.285C23.7382 85.2961 23.7894 85.3193 23.8486 85.3193C23.9841 85.3193 24.1096 85.284 24.225 85.2305V93.045C24.1096 92.9915 23.9841 92.9562 23.8486 92.9562C23.7894 92.9562 23.7382 92.9784 23.682 92.9895C23.2655 93.0702 22.9444 93.4214 22.9444 93.8643V101.791C22.9524 108.781 28.5526 114.448 35.4676 114.455H116.089C122.999 114.441 128.593 108.777 128.6 101.792V53.982C128.593 46.991 122.992 41.3249 116.078 41.3178" fill="#5C5C5C"/>
<path fill-rule="evenodd" clip-rule="evenodd" d="M24.7515 93.864V101.056V101.789C24.7555 106.226 27.391 110.033 31.1587 111.714C32.4774 112.303 33.9327 112.637 35.4682 112.638H116.086C121.998 112.626 126.787 107.775 126.793 101.79V53.9826C126.787 47.9916 121.992 43.1399 116.076 43.1338H61.3898C60.891 43.1338 60.4856 42.7272 60.4856 42.2257C60.4856 42.2065 60.4966 42.1893 60.4976 42.1702H55.3851C55.3861 42.1893 55.3962 42.2065 55.3962 42.2257C55.3962 42.7272 54.9927 43.1338 54.4939 43.1338H48.7753H35.4692C32.4062 43.1369 29.6502 44.4467 27.6972 46.5335C25.8776 48.476 24.7545 51.0936 24.7515 53.9816V58.9595V74.0959V77.3169C24.7515 77.6812 24.5337 77.992 24.2256 78.1363V81.4885C24.5337 81.6328 24.7515 81.9436 24.7515 82.3079V82.5682V83.1757V84.4108C24.7515 84.7761 24.5337 85.0859 24.2256 85.2302V93.0446C24.5337 93.1889 24.7515 93.4997 24.7515 93.864" fill="white"/>
<path fill-rule="evenodd" clip-rule="evenodd" d="M139.749 44.0333L138.559 45.2301L136.602 43.2623L134.65 45.226L133.454 44.0232L135.406 42.0605L133.449 40.0928L134.64 38.896L136.597 40.8627L138.55 38.9L139.745 40.1019L137.793 42.0656L139.749 44.0333Z" fill="#6EE3FF"/>
<path fill-rule="evenodd" clip-rule="evenodd" d="M24.752 74.0953H27.6976V58.9589H24.752V74.0953Z" fill="#6EE3FF"/>
<path fill-rule="evenodd" clip-rule="evenodd" d="M116.076 43.1339H94.5306L85.515 58.9595H126.793V53.9827C126.787 47.9917 121.992 43.14 116.076 43.1339V43.1339ZM54.9308 112.638H116.087C121.997 112.626 126.787 107.775 126.793 101.79V74.0959H76.8911L54.9308 112.638ZM27.6966 46.5332C25.8781 48.4768 24.754 51.0933 24.751 53.9814V58.9592H27.6966V46.5332Z" fill="#E8E8E8"/>
<path fill-rule="evenodd" clip-rule="evenodd" d="M27.6973 74.0953H126.052V58.9589H27.6973V74.0953Z" fill="#0D4F80"/>
<path fill-rule="evenodd" clip-rule="evenodd" d="M85.5158 58.9589L76.8916 74.0953H126.794V58.9589H85.5158Z" fill="#0F2B4A"/>
<path fill-rule="evenodd" clip-rule="evenodd" d="M90.4273 89.4012L89.3193 90.5153L87.9564 89.1459L86.5895 90.5203L85.4815 89.4073L86.8494 88.0329L85.4865 86.6625L86.5955 85.5485L87.9574 86.9189L89.3254 85.5435L90.4324 86.6565L89.0654 88.0319L90.4273 89.4012Z" fill="#0D4F80"/>
<path fill-rule="evenodd" clip-rule="evenodd" d="M24.7515 77.3164C24.7515 77.8179 24.347 78.2246 23.8482 78.2246C23.789 78.2246 23.7378 78.2014 23.6826 78.1913V81.4335C23.7378 81.4224 23.789 81.3992 23.8482 81.3992C24.347 81.3992 24.7515 81.8059 24.7515 82.3074V82.5677V83.1752V84.4103C24.7515 84.9119 24.347 85.3185 23.8482 85.3185C23.789 85.3185 23.7378 85.2963 23.6826 85.2852V92.9897C23.7378 92.9786 23.789 92.9564 23.8482 92.9564C24.347 92.9564 24.7515 93.362 24.7515 93.8635V101.055V101.79C24.7555 106.226 27.391 110.032 31.1586 111.714C32.3901 112.175 33.7159 112.44 35.1049 112.441H38.2553C32.3489 111.952 27.7032 106.959 27.6971 100.859V74.0954H24.7515V77.3164Z" fill="#E8E8E8"/>
<path fill-rule="evenodd" clip-rule="evenodd" d="M110.428 99.9063V87.3047C110.414 86.1402 110.593 84.9818 110.956 83.8758C111.273 82.9232 111.778 82.0453 112.442 81.2946C113.096 80.5741 113.9 80.0059 114.796 79.6306C115.066 79.5236 115.342 79.4328 115.62 79.3551C115.627 79.3531 115.634 79.352 115.64 79.35C115.913 79.2754 116.189 79.2128 116.468 79.1633C118.031 78.8879 119.652 79.0412 121.151 79.6306C122.028 80.011 122.813 80.5761 123.454 81.2885C124.118 82.0383 124.623 82.9172 124.939 83.8698C125.302 84.9777 125.481 86.1382 125.467 87.3047V99.9063H110.428ZM121.696 115.989C121.702 116.757 121.404 117.496 120.866 118.041C120.328 118.587 119.597 118.892 118.833 118.892H117.027C115.749 118.889 114.68 118.04 114.314 116.874C114.275 116.747 114.243 116.618 114.217 116.486C114.189 116.334 114.171 116.18 114.171 116.02V109.922C114.173 108.336 115.451 107.053 117.027 107.05H118.541H118.833C120.411 107.05 121.693 108.334 121.696 109.922V115.989ZM136.204 99.9083C136.195 99.9083 136.188 99.9063 136.181 99.9063H133.193V87.7487C133.225 85.5317 132.892 83.3259 132.204 81.2189C131.569 79.3157 130.557 77.5619 129.227 76.0634C127.898 74.5962 126.266 73.4398 124.446 72.6719C122.736 71.9897 120.943 71.6073 119.138 71.5053C119.216 71.5255 119.293 71.5518 119.372 71.5729C116.778 71.354 114.148 71.7283 111.687 72.7092C109.866 73.4771 108.235 74.6345 106.905 76.1007C105.583 77.6013 104.576 79.3551 103.947 81.2572C103.254 83.3602 102.91 85.564 102.934 87.779V99.9063H100.073H99.6856C98.3438 99.9063 97.2569 101 97.2569 102.348V119.627C97.2589 122.026 98.3568 124.166 100.073 125.572C101.385 126.646 103.058 127.293 104.883 127.295H130.984C133.005 127.293 134.839 126.496 136.204 125.203C137.679 123.807 138.606 121.832 138.61 119.633V102.348C138.61 101.007 137.534 99.9214 136.204 99.9083V99.9083Z" fill="#EC0000"/>
<path fill-rule="evenodd" clip-rule="evenodd" d="M99.6856 99.9062C98.3438 99.9062 97.2569 101 97.2569 102.348V119.627C97.2589 122.026 98.3568 124.166 100.073 125.572V99.9062H99.6856Z" fill="#F38F95"/>
<path fill-rule="evenodd" clip-rule="evenodd" d="M136.203 99.9089V125.204C137.679 123.807 138.607 121.831 138.61 119.633V102.349C138.61 101.008 137.534 99.921 136.203 99.9089ZM118.833 107.049H118.541H117.027C115.451 107.052 114.173 108.337 114.17 109.922V116.021C114.17 116.181 114.189 116.335 114.217 116.486C114.243 116.618 114.275 116.748 114.314 116.874V116.875C114.68 118.039 115.749 118.89 117.027 118.893H118.833C119.597 118.893 120.328 118.586 120.866 118.041C121.404 117.496 121.702 116.757 121.696 115.989V109.922C121.693 108.334 120.411 107.049 118.833 107.049" fill="#990000"/>
<path fill-rule="evenodd" clip-rule="evenodd" d="M117.856 116.023C118.393 115.477 118.692 114.739 118.685 113.97V107.904C118.685 107.604 118.627 107.32 118.542 107.049H117.028C115.452 107.053 114.174 108.336 114.171 109.922V116.021C114.171 116.18 114.19 116.334 114.218 116.486C114.243 116.618 114.276 116.747 114.315 116.874H115.823C116.586 116.874 117.318 116.569 117.856 116.023" fill="#700309"/>
<path fill-rule="evenodd" clip-rule="evenodd" d="M132.205 81.2191C131.569 79.316 130.557 77.5612 129.228 76.0627C127.898 74.5964 126.266 73.44 124.446 72.6721C122.735 71.99 120.943 71.6065 119.137 71.5056C119.217 71.5258 119.294 71.552 119.372 71.5722C116.779 71.3542 114.148 71.7276 111.687 72.7084C109.867 73.4763 108.235 74.6338 106.905 76.1C105.583 77.6005 104.577 79.3543 103.947 81.2565C103.253 83.3594 102.911 85.5633 102.935 87.7792V99.9065H107.418H110.429V87.305C110.415 86.1405 110.593 84.982 110.957 83.8761C111.274 82.9225 111.778 82.0446 112.442 81.2948C113.097 80.5743 113.9 80.0062 114.796 79.6308C115.067 79.5238 115.342 79.432 115.621 79.3553C115.627 79.3533 115.634 79.3523 115.641 79.3503C115.914 79.2746 116.19 79.213 116.468 79.1636C118.031 78.8881 119.652 79.0405 121.151 79.6308C122.028 80.0112 122.814 80.5763 123.454 81.2877C124.117 82.0385 124.622 82.9164 124.939 83.869C125.303 84.977 125.481 86.1384 125.467 87.305V99.9065H130.181H133.192V87.7479C133.225 85.532 132.892 83.3251 132.205 81.2191" fill="#EC0000"/>
<path fill-rule="evenodd" clip-rule="evenodd" d="M125.986 75.5609C127.034 76.7425 127.877 78.0887 128.502 79.5367C128.762 80.0836 129 80.6417 129.193 81.2189C129.881 83.3259 130.214 85.5317 130.182 87.7487V99.9063H133.192V87.7487C133.225 85.5317 132.891 83.3259 132.204 81.2189C131.569 79.3157 130.557 77.5619 129.227 76.0634C127.897 74.5962 126.265 73.4398 124.446 72.6719C122.736 71.9897 120.943 71.6073 119.138 71.5053C119.216 71.5255 119.293 71.5518 119.372 71.5729C119.99 71.7384 120.604 71.9302 121.204 72.1703C123.025 72.9372 124.657 74.0947 125.986 75.5609ZM110.957 83.876C111.273 82.9234 111.778 82.0455 112.441 81.2948C113.096 80.5743 113.9 80.0061 114.795 79.6308C115.066 79.5238 115.341 79.433 115.619 79.3553C115.626 79.3533 115.633 79.3523 115.64 79.3502C115.912 79.2746 116.189 79.213 116.467 79.1635C114.904 78.8881 113.283 79.0404 111.785 79.6308C110.889 80.0061 110.085 80.5743 109.43 81.2948C108.767 82.0455 108.262 82.9234 107.946 83.876C107.582 84.982 107.404 86.1404 107.418 87.3049V99.9065H110.429V87.3049C110.415 86.1404 110.593 84.982 110.957 83.876" fill="#990000"/>
</svg>
