<svg width="160" height="160" viewBox="0 0 160 160" fill="none" xmlns="http://www.w3.org/2000/svg">
<path fill-rule="evenodd" clip-rule="evenodd" d="M112.002 121.523C112.002 121.523 115.013 121.523 112.002 121.523C95.417 121.523 81.2689 122.475 55.9605 130.539C19.1716 142.261 18.731 109.247 25.5115 91.897C2.75934 82.0119 10.9409 50.3062 21.8312 38.5634C29.8612 29.9054 40.7144 26.1102 54.3918 27.1758C59.5515 27.1758 67.5313 30.5966 78.3313 37.4372C91.9625 46.0721 97.8066 46.0206 109.882 48.1478C156.059 56.2821 154.031 93.5751 140.755 107.423C132.074 116.477 122.038 121.523 112.002 121.523Z" fill="#191919"/>
<path fill-rule="evenodd" clip-rule="evenodd" d="M116.078 41.3178H61.3901C60.9104 41.3178 60.528 41.6962 60.4979 42.1705H55.3855C55.3564 41.6962 54.973 41.3178 54.4942 41.3178H35.4685C28.5525 41.3249 22.9513 46.9909 22.9453 53.9809V77.3162C22.9453 77.7592 23.2655 78.1104 23.683 78.1911C23.7382 78.2022 23.7893 78.2244 23.8486 78.2244C23.984 78.2244 24.1095 78.1901 24.2249 78.1356V81.4888C24.1095 81.4343 23.984 81.4 23.8486 81.4C23.7893 81.4 23.7382 81.4222 23.683 81.4333C23.2655 81.514 22.9453 81.8652 22.9453 82.3082V82.5675V82.5685V83.175V84.4111C22.9453 84.8531 23.2655 85.2053 23.683 85.285C23.7382 85.2961 23.7893 85.3193 23.8486 85.3193C23.984 85.3193 24.1095 85.284 24.2249 85.2305V93.0449C24.1095 92.9914 23.984 92.9561 23.8486 92.9561C23.7893 92.9561 23.7382 92.9783 23.683 92.9894C23.2655 93.0702 22.9453 93.4213 22.9453 93.8643V101.791C22.9513 108.781 28.5525 114.448 35.4675 114.455H116.089C123 114.441 128.593 108.777 128.6 101.792V53.9819C128.593 46.9909 122.992 41.3249 116.078 41.3178" fill="#5C5C5C"/>
<path fill-rule="evenodd" clip-rule="evenodd" d="M114.659 33.9425L113.468 35.1393L111.512 33.1715L109.559 35.1352L108.363 33.9324L110.315 31.9697L108.358 30.002L109.55 28.8052L111.506 30.7719L113.459 28.8092L114.655 30.011L112.702 31.9747L114.659 33.9425Z" fill="#6EE3FF"/>
<path fill-rule="evenodd" clip-rule="evenodd" d="M42.2525 124.72L41.1455 125.834L39.7816 124.464L38.4146 125.839L37.3066 124.726L38.6756 123.351L37.3126 121.981L38.4217 120.867L39.7836 122.237L41.1515 120.862L42.2575 121.975L40.8916 123.35L42.2525 124.72Z" fill="white"/>
<path fill-rule="evenodd" clip-rule="evenodd" d="M24.7515 93.864V101.056V101.789C24.7555 106.226 27.391 110.033 31.1586 111.714C32.4784 112.303 33.9336 112.637 35.4682 112.638H116.086C121.999 112.626 126.787 107.775 126.793 101.79V53.9827C126.787 47.9917 121.992 43.14 116.077 43.1339H61.3898C60.891 43.1339 60.4865 42.7272 60.4865 42.2257C60.4865 42.2066 60.4966 42.1894 60.4986 42.1702H55.3861C55.3871 42.1894 55.3972 42.2066 55.3972 42.2257C55.3972 42.7272 54.9927 43.1339 54.4939 43.1339H48.7762H35.4692C32.4061 43.1369 29.6502 44.4467 27.6981 46.5335C25.8785 48.476 24.7545 51.0936 24.7515 53.9817V58.9595V74.0959V77.3169C24.7515 77.6812 24.5347 77.992 24.2256 78.1363V81.4885C24.5347 81.6328 24.7515 81.9436 24.7515 82.3079V82.5683V83.1757V84.4109C24.7515 84.7762 24.5347 85.0859 24.2256 85.2302V93.0447C24.5347 93.189 24.7515 93.4998 24.7515 93.864" fill="white"/>
<path fill-rule="evenodd" clip-rule="evenodd" d="M116.077 43.134H94.5322L85.5156 58.9596H126.794V53.9827C126.788 47.9917 121.991 43.14 116.077 43.134" fill="#E8E8E8"/>
<path fill-rule="evenodd" clip-rule="evenodd" d="M24.7519 74.0954H27.6986V58.959H24.7519V74.0954Z" fill="#6EE3FF"/>
<path fill-rule="evenodd" clip-rule="evenodd" d="M54.9317 112.638H116.087C121.998 112.626 126.787 107.775 126.793 101.79V74.0959H76.891L54.9317 112.638ZM24.7514 77.3166C24.7514 77.8181 24.347 78.2247 23.8482 78.2247C23.79 78.2247 23.7388 78.2015 23.6836 78.1914V81.4337C23.7388 81.4226 23.79 81.3993 23.8482 81.3993C24.347 81.3993 24.7514 81.806 24.7514 82.3075V82.5679V83.1754V84.4105C24.7514 84.912 24.347 85.3187 23.8482 85.3187C23.79 85.3187 23.7388 85.2965 23.6836 85.2854V92.9898C23.7388 92.9787 23.79 92.9565 23.8482 92.9565C24.347 92.9565 24.7514 93.3621 24.7514 93.8637V101.055V101.79C24.7554 106.226 27.391 110.032 31.1586 111.715C32.39 112.175 33.7158 112.44 35.1058 112.441H38.2562C32.3489 111.952 27.7031 106.959 27.6981 100.859V74.0955H24.7514V77.3166ZM27.6976 46.5333C25.879 48.4768 24.7539 51.0934 24.7509 53.9814V58.9592H27.6976V46.5333Z" fill="#E8E8E8"/>
<path fill-rule="evenodd" clip-rule="evenodd" d="M27.6973 74.0954H126.052V58.959H27.6973V74.0954Z" fill="#0D4F80"/>
<path fill-rule="evenodd" clip-rule="evenodd" d="M67.7509 82.1412H115.615C116.114 82.1412 116.518 82.5479 116.518 83.0494C116.518 83.5509 116.114 83.9576 115.615 83.9576H67.7509C67.2521 83.9576 66.8476 83.5509 66.8476 83.0494C66.8476 82.5479 67.2521 82.1412 67.7509 82.1412Z" fill="#0D4F80"/>
<path fill-rule="evenodd" clip-rule="evenodd" d="M85.5157 58.959L76.8916 74.0954H126.794V58.959H85.5157Z" fill="#0F2B4A"/>
<path fill-rule="evenodd" clip-rule="evenodd" d="M83.1054 87.5903H115.614C116.113 87.5903 116.518 87.9969 116.518 88.4985C116.518 89 116.113 89.4066 115.614 89.4066H83.1054C82.6066 89.4066 82.2021 89 82.2021 88.4985C82.2021 87.9969 82.6066 87.5903 83.1054 87.5903" fill="#0D4F80"/>
<path fill-rule="evenodd" clip-rule="evenodd" d="M97.9503 101.846C97.9503 90.9777 106.712 82.1683 117.521 82.1683C119.735 82.1683 121.855 82.5548 123.839 83.237C121.172 81.9191 118.183 81.1592 115.012 81.1592C103.926 81.1592 94.9394 90.1957 94.9394 101.341C94.9394 112.488 103.926 121.523 115.012 121.523C115.435 121.523 115.849 121.486 116.266 121.459C106.045 120.807 97.9503 112.288 97.9503 101.846Z" fill="#5C5C5C"/>
<path fill-rule="evenodd" clip-rule="evenodd" d="M123.841 83.2365H123.84C123.411 83.0892 122.975 82.962 122.533 82.8439C122.398 82.8076 122.266 82.7733 122.13 82.74C121.77 82.6522 121.406 82.5725 121.038 82.5049C121.022 82.5019 121.008 82.4988 120.994 82.4958C120.727 82.4464 120.457 82.41 120.187 82.3727C119.899 82.3323 119.613 82.2869 119.32 82.2597C118.728 82.2032 118.13 82.1678 117.523 82.1678C112.425 82.1678 107.8 84.1426 104.317 87.3526C100.414 90.95 97.9521 96.1024 97.9521 101.845C97.9521 102.512 97.9863 103.169 98.0505 103.818C98.0736 104.05 98.1197 104.275 98.1508 104.505C98.206 104.916 98.2562 105.33 98.3365 105.731C98.3927 106.012 98.473 106.282 98.5403 106.558C98.6236 106.899 98.6988 107.242 98.8002 107.576C98.8925 107.881 99.0079 108.176 99.1143 108.475C99.2177 108.764 99.313 109.056 99.4295 109.339C99.5619 109.663 99.7155 109.974 99.865 110.289C99.9805 110.531 100.088 110.777 100.212 111.013C100.389 111.35 100.586 111.673 100.78 111.998C100.9 112.195 101.012 112.396 101.139 112.59C101.362 112.934 101.603 113.263 101.847 113.592C101.965 113.748 102.076 113.909 102.197 114.062C102.471 114.408 102.76 114.739 103.057 115.065C103.164 115.184 103.267 115.305 103.378 115.422C103.703 115.764 104.043 116.089 104.391 116.406C104.485 116.492 104.577 116.579 104.672 116.663C105.049 116.994 105.44 117.305 105.841 117.607C105.918 117.665 105.992 117.723 106.069 117.779C106.498 118.091 106.94 118.382 107.392 118.659C107.449 118.694 107.507 118.729 107.564 118.764C107.762 118.882 107.971 118.982 108.174 119.093C108.459 119.248 108.738 119.411 109.031 119.554C109.07 119.573 109.109 119.592 109.149 119.61C109.669 119.859 110.202 120.085 110.747 120.287C110.77 120.295 110.794 120.303 110.817 120.313C111.378 120.518 111.949 120.699 112.532 120.852C112.542 120.855 112.553 120.858 112.563 120.861C113.156 121.017 113.76 121.145 114.373 121.246C114.376 121.246 114.379 121.246 114.382 121.247C115.002 121.348 115.63 121.419 116.267 121.459C116.308 121.462 116.351 121.463 116.391 121.466C116.767 121.491 117.14 121.522 117.523 121.522C128.331 121.522 137.094 112.713 137.094 101.845C137.094 93.2043 131.544 85.8813 123.841 83.2365" fill="#EC0000"/>
<path fill-rule="evenodd" clip-rule="evenodd" d="M123.841 83.2365H123.84C123.411 83.0891 122.974 82.962 122.533 82.8439C122.398 82.8076 122.266 82.7733 122.13 82.74C121.77 82.6522 121.406 82.5725 121.037 82.5049C126.897 85.399 131.072 92.724 131.072 101.341C131.072 112.104 124.572 120.873 116.391 121.466C116.767 121.491 117.14 121.522 117.523 121.522C128.331 121.522 137.093 112.713 137.093 101.845C137.093 93.2043 131.544 85.8813 123.841 83.2365Z" fill="#990000"/>
<path fill-rule="evenodd" clip-rule="evenodd" d="M115.727 112.113C115.563 112.113 115.408 112.037 115.306 111.905L109.66 104.546C108.949 103.619 109.125 102.285 110.053 101.575C110.981 100.863 112.316 101.04 113.027 101.967L115.316 104.951L122.436 93.1794C123.028 92.1703 124.331 91.8333 125.339 92.4236C126.347 93.0149 126.685 94.3156 126.094 95.3237L116.185 111.852C116.095 112.003 115.936 112.101 115.76 112.112C115.749 112.113 115.738 112.113 115.727 112.113" fill="white"/>
</svg>
