<svg width="160" height="160" viewBox="0 0 160 160" fill="none" xmlns="http://www.w3.org/2000/svg">
<path fill-rule="evenodd" clip-rule="evenodd" d="M74.6847 133.007C119.469 137.538 142.545 126.567 143.914 100.094C145.967 60.3839 110.623 65.1794 100.07 55.3603C89.5159 45.5413 102.244 58.6008 82.7146 36.9066C69.6963 22.4444 52.354 22.3647 30.6895 36.6685C13.2161 50.8398 11.3312 69.43 25.0358 92.4412C38.7404 115.452 55.2904 128.974 74.6847 133.007" fill="#E5E5E5"/>
<path fill-rule="evenodd" clip-rule="evenodd" d="M29.1385 93.6856V100.785V101.509C29.1435 105.889 31.7698 109.647 35.5256 111.307C36.8412 111.888 38.2919 112.218 39.8217 112.219H120.188C126.081 112.207 130.856 107.419 130.862 101.51V54.3156C130.856 48.4024 126.074 43.6119 120.178 43.606H65.6621C65.1649 43.606 64.7617 43.2045 64.7617 42.7094C64.7617 42.6905 64.7717 42.6736 64.7737 42.6546H59.6772C59.6782 42.6736 59.6882 42.6905 59.6882 42.7094C59.6882 43.2045 59.2851 43.606 58.7878 43.606H53.0881H39.8227C36.7692 43.6089 34.0219 44.902 32.0759 46.962C30.2621 48.8796 29.1415 51.4636 29.1385 54.3146V59.2286V74.1709V77.3507C29.1385 77.7103 28.9224 78.0171 28.6143 78.1595V81.4688C28.9224 81.6112 29.1385 81.918 29.1385 82.2776V82.5346V83.1343V84.3536C29.1385 84.7142 28.9224 85.0201 28.6143 85.1625V92.8767C28.9224 93.0192 29.1385 93.326 29.1385 93.6856" fill="white"/>
<path fill-rule="evenodd" clip-rule="evenodd" d="M29.1388 84.3535V83.1342V82.5346V82.2776C29.1388 81.9179 28.9227 81.6111 28.6145 81.4687C28.4995 81.4159 28.3744 81.381 28.2383 81.381C28.1803 81.381 28.1293 81.4039 28.0742 81.4139C27.658 81.4936 27.3379 81.8412 27.3379 82.2776V82.5346V83.1342V84.3535C27.3379 84.7899 27.658 85.1375 28.0742 85.2172C28.1293 85.2272 28.1803 85.2501 28.2383 85.2501C28.3744 85.2501 28.4995 85.2162 28.6145 85.1624C28.9227 85.02 29.1388 84.7141 29.1388 84.3535ZM120.18 41.8133H65.6625C65.1852 41.8133 64.8031 42.1869 64.7741 42.655C64.7721 42.674 64.762 42.6899 64.762 42.7098C64.762 43.2049 65.1652 43.6064 65.6625 43.6064H120.179C126.075 43.6123 130.856 48.4019 130.862 54.316V101.511C130.856 107.419 126.081 112.207 120.189 112.219H39.822C38.2923 112.217 36.8416 111.889 35.5259 111.307C31.7701 109.647 29.1439 105.89 29.1389 101.51V100.786V93.686C29.1389 93.3254 28.9228 93.0196 28.6146 92.8771C28.4996 92.8243 28.3745 92.7895 28.2384 92.7895C28.1804 92.7895 28.1294 92.8114 28.0733 92.8223C27.6581 92.902 27.338 93.2487 27.338 93.686V101.511C27.345 108.411 32.9287 114.006 39.821 114.013H120.191C127.079 113.999 132.656 108.407 132.663 101.512V54.315C132.656 47.4137 127.072 41.8203 120.18 41.8133V41.8133ZM29.1388 77.3504V74.1707V59.2284V54.3143C29.1418 51.4633 30.2623 48.8803 32.0762 46.9617C34.0221 44.9017 36.7694 43.6087 39.8229 43.6057H53.0883H58.7881C59.2853 43.6057 59.6885 43.2052 59.6885 42.7101C59.6885 42.6902 59.6785 42.6733 59.6775 42.6543C59.6475 42.1871 59.2663 41.8136 58.7881 41.8136H39.8219C32.9286 41.8206 27.3449 47.414 27.3379 54.3143V77.3504C27.3379 77.7867 27.658 78.1344 28.0742 78.214C28.1293 78.224 28.1803 78.2469 28.2383 78.2469C28.3744 78.2469 28.4995 78.2131 28.6145 78.1593C28.9227 78.0168 29.1388 77.711 29.1388 77.3504" fill="#0F2B4A"/>
<path fill-rule="evenodd" clip-rule="evenodd" d="M29.1377 74.171H32.0751V59.2287H29.1377V74.171Z" fill="#6EE3FF"/>
<path fill-rule="evenodd" clip-rule="evenodd" d="M120.179 43.606H98.7004L89.7121 59.2287H130.862V54.3157C130.856 48.4015 126.075 43.612 120.179 43.606V43.606ZM59.2245 112.219H120.189C126.081 112.207 130.856 107.419 130.862 101.51V74.1709H81.1151L59.2245 112.219ZM29.1387 77.3502C29.1387 77.8453 28.7355 78.2468 28.2383 78.2468C28.1803 78.2468 28.1292 78.2239 28.0742 78.2139V81.4145C28.1292 81.4036 28.1803 81.3807 28.2383 81.3807C28.7355 81.3807 29.1387 81.7821 29.1387 82.2772V82.5342V83.1339V84.3532C29.1387 84.8483 28.7355 85.2497 28.2383 85.2497C28.1803 85.2497 28.1292 85.2278 28.0742 85.2169V92.8225C28.1292 92.8115 28.1803 92.7896 28.2383 92.7896C28.7355 92.7896 29.1387 93.1901 29.1387 93.6852V100.785V101.51C29.1437 105.889 31.77 109.647 35.5258 111.307C36.7534 111.761 38.076 112.023 39.4607 112.024H42.6012C36.7134 111.541 32.0812 106.613 32.0761 100.59V74.1705H29.1387V77.3502ZM32.0757 46.9617C30.2619 48.8803 29.1413 51.4633 29.1383 54.3143V59.2283H32.0757V46.9617Z" fill="#E9F4F7"/>
<path fill-rule="evenodd" clip-rule="evenodd" d="M32.0762 74.171H130.123V59.2287H32.0762V74.171Z" fill="#0D4F80"/>
<path fill-rule="evenodd" clip-rule="evenodd" d="M81.1152 74.171H132.025V59.2287H89.7124L81.1152 74.171Z" fill="#0F2B4A"/>
<path fill-rule="evenodd" clip-rule="evenodd" d="M118.765 34.5333L117.578 35.7147L115.628 33.7722L113.681 35.7107L112.489 34.5233L114.435 32.5858L112.485 30.6433L113.672 29.4618L115.623 31.4033L117.569 29.4658L118.761 30.6522L116.814 32.5908L118.765 34.5333Z" fill="#6EE3FF"/>
<path fill-rule="evenodd" clip-rule="evenodd" d="M46.5857 124.145L45.4811 125.245L44.1225 123.893L42.7598 125.25L41.6553 124.151L43.0189 122.794L41.6613 121.441L42.7658 120.342L44.1245 121.694L45.4871 120.337L46.5907 121.435L45.228 122.793L46.5857 124.145Z" fill="#0F2B4A"/>
<path fill-rule="evenodd" clip-rule="evenodd" d="M32.1895 87.9687H90.2174V83.9841H32.1895V87.9687Z" fill="#EC0000"/>
<path fill-rule="evenodd" clip-rule="evenodd" d="M73.1768 87.9687H90.217V83.9841H75.4689L73.1768 87.9687Z" fill="#990000"/>
</svg>
