<svg width="160" height="160" viewBox="0 0 160 160" fill="none" xmlns="http://www.w3.org/2000/svg">
<path fill-rule="evenodd" clip-rule="evenodd" d="M74.6847 133.007C119.469 137.538 142.545 126.567 143.914 100.094C145.967 60.3839 110.623 65.1794 100.07 55.3603C89.5159 45.5413 102.244 58.6008 82.7146 36.9066C69.6963 22.4444 52.354 22.3647 30.6895 36.6685C13.2161 50.8398 11.3312 69.43 25.0358 92.4412C38.7404 115.452 55.2904 128.974 74.6847 133.007" fill="#191919"/>
<path fill-rule="evenodd" clip-rule="evenodd" d="M120.18 41.8132H65.6624C65.1851 41.8132 64.803 42.1868 64.774 42.655H59.6775C59.6475 42.1868 59.2663 41.8132 58.7881 41.8132H39.8219C32.9286 41.8202 27.3449 47.4136 27.3379 54.3139V77.35C27.3379 77.7873 27.658 78.134 28.0732 78.2137C28.1293 78.2246 28.1803 78.2465 28.2383 78.2465C28.3744 78.2465 28.4995 78.2127 28.6145 78.1589V81.4691C28.9227 81.6115 29.1388 81.9174 29.1388 82.278V82.534V83.1337V84.354C29.1388 84.7136 28.9227 85.0204 28.6145 85.1628V92.877C28.4995 92.8242 28.3744 92.7894 28.2383 92.7894C28.1803 92.7894 28.1293 92.8113 28.0732 92.8223C27.658 92.9019 27.3379 93.2486 27.3379 93.6859V101.511C27.3449 108.411 32.9286 114.005 39.8209 114.012H120.191C127.079 113.998 132.656 108.407 132.663 101.512V54.3149C132.656 47.4136 127.072 41.8202 120.18 41.8132" fill="#5C5C5C"/>
<path fill-rule="evenodd" clip-rule="evenodd" d="M118.764 34.5329L117.577 35.7143L115.627 33.7718L113.68 35.7104L112.488 34.5229L114.434 32.5854L112.484 30.6429L113.671 29.4615L115.622 31.403L117.568 29.4655L118.76 30.6519L116.813 32.5904L118.764 34.5329Z" fill="#6EE3FF"/>
<path fill-rule="evenodd" clip-rule="evenodd" d="M29.1385 93.6856V100.785V101.509C29.1435 105.89 31.7698 109.647 35.5256 111.307C36.8412 111.888 38.2919 112.218 39.8217 112.219H120.188C126.081 112.207 130.856 107.419 130.862 101.51V54.3157C130.856 48.4025 126.074 43.612 120.178 43.606H65.6621C65.1649 43.606 64.7617 43.2046 64.7617 42.7095C64.7617 42.6905 64.7717 42.6736 64.7737 42.6547H59.6772C59.6782 42.6736 59.6883 42.6905 59.6883 42.7095C59.6883 43.2046 59.2851 43.606 58.7878 43.606H53.0881H39.8227C36.7692 43.609 34.0219 44.902 32.0759 46.9621C30.2621 48.8796 29.1415 51.4637 29.1385 54.3147V59.2287V74.171V77.3507C29.1385 77.7103 28.9224 78.0171 28.6143 78.1596V81.4688C28.9224 81.6113 29.1385 81.9181 29.1385 82.2777V82.5347V83.1344V84.3537C29.1385 84.7143 28.9224 85.0201 28.6143 85.1626V92.8768C28.9224 93.0192 29.1385 93.326 29.1385 93.6856" fill="white"/>
<path fill-rule="evenodd" clip-rule="evenodd" d="M29.1379 84.3534V83.1341V82.5344V82.2774C29.1379 81.9178 28.9219 81.611 28.6139 81.4686C28.4989 81.4158 28.3739 81.3809 28.2379 81.3809C28.1799 81.3809 28.1289 81.4038 28.0739 81.4138C27.6579 81.4935 27.3379 81.8411 27.3379 82.2774V82.5344V83.1341V84.3534C27.3379 84.7897 27.6579 85.1374 28.0739 85.2171C28.1289 85.227 28.1799 85.25 28.2379 85.25C28.3739 85.25 28.4989 85.2161 28.6139 85.1623C28.9219 85.0198 29.1379 84.714 29.1379 84.3534Z" fill="white"/>
<path fill-rule="evenodd" clip-rule="evenodd" d="M29.1377 74.1709H32.0751V59.2286H29.1377V74.1709Z" fill="#6EE3FF"/>
<path fill-rule="evenodd" clip-rule="evenodd" d="M120.179 43.6061H98.7004L89.7121 59.2288H130.862V54.3157C130.856 48.4016 126.075 43.6121 120.179 43.6061ZM59.2245 112.219H120.189C126.081 112.207 130.856 107.419 130.862 101.51V74.171H81.1151L59.2245 112.219ZM29.1387 77.3503C29.1387 77.8454 28.7355 78.2468 28.2383 78.2468C28.1803 78.2468 28.1292 78.2239 28.0742 78.214V81.4146C28.1292 81.4036 28.1803 81.3807 28.2383 81.3807C28.7355 81.3807 29.1387 81.7822 29.1387 82.2773V82.5343V83.134V84.3533C29.1387 84.8484 28.7355 85.2498 28.2383 85.2498C28.1803 85.2498 28.1292 85.2279 28.0742 85.2169V92.8226C28.1292 92.8116 28.1803 92.7897 28.2383 92.7897C28.7355 92.7897 29.1387 93.1901 29.1387 93.6852V100.785V101.51C29.1437 105.889 31.77 109.647 35.5258 111.307C36.7534 111.761 38.076 112.023 39.4607 112.024H42.6012C36.7134 111.541 32.0812 106.613 32.0761 100.591V74.1706H29.1387V77.3503ZM32.0757 46.9617C30.2619 48.8803 29.1413 51.4634 29.1383 54.3143V59.2284H32.0757V46.9617Z" fill="#E8E8E8"/>
<path fill-rule="evenodd" clip-rule="evenodd" d="M32.0752 74.1709H130.122V59.2286H32.0752V74.1709Z" fill="#0D4F80"/>
<path fill-rule="evenodd" clip-rule="evenodd" d="M131.024 59.2286H130.861H89.7124L81.1152 74.1709H130.861H131.024V59.2286Z" fill="#0F2B4A"/>
<path fill-rule="evenodd" clip-rule="evenodd" d="M32.1895 87.9687H90.2174V83.9841H32.1895V87.9687Z" fill="#EC0000"/>
<path fill-rule="evenodd" clip-rule="evenodd" d="M73.1758 87.9687H90.216V83.9841H75.4679L73.1758 87.9687Z" fill="#990000"/>
<path fill-rule="evenodd" clip-rule="evenodd" d="M46.5857 124.145L45.4811 125.245L44.1225 123.893L42.7598 125.25L41.6553 124.151L43.0189 122.794L41.6613 121.441L42.7658 120.342L44.1245 121.694L45.4871 120.337L46.5907 121.435L45.228 122.793L46.5857 124.145Z" fill="#0D4F80"/>
</svg>
