<svg width="160" height="160" viewBox="0 0 160 160" fill="none" xmlns="http://www.w3.org/2000/svg">
<path fill-rule="evenodd" clip-rule="evenodd" d="M74.6847 131.007C119.469 135.538 142.545 124.567 143.914 98.0936C145.967 58.3839 110.623 63.1794 100.07 53.3603C89.5159 43.5413 102.244 56.6008 82.7146 34.9066C69.6963 20.4444 52.354 20.3647 30.6895 34.6685C13.2161 48.8398 11.3312 67.43 25.0358 90.4412C38.7404 113.452 55.2904 126.974 74.6847 131.007" fill="#262626"/>
<path fill-rule="evenodd" clip-rule="evenodd" d="M29.1385 91.6856V98.7852V99.5094C29.1435 103.89 31.7698 107.647 35.5256 109.307C36.8412 109.888 38.2919 110.218 39.8217 110.219H120.188C126.081 110.207 130.856 105.419 130.862 99.5104V52.3157C130.856 46.4025 126.074 41.612 120.178 41.606H65.6621C65.1649 41.606 64.7617 41.2046 64.7617 40.7095C64.7617 40.6905 64.7717 40.6736 64.7737 40.6547H59.6772C59.6782 40.6736 59.6883 40.6905 59.6883 40.7095C59.6883 41.2046 59.2851 41.606 58.7878 41.606H53.0881H39.8227C36.7692 41.609 34.0219 42.902 32.0759 44.9621C30.2621 46.8796 29.1415 49.4637 29.1385 52.3147V57.2287V72.171V75.3507C29.1385 75.7103 28.9224 76.0171 28.6143 76.1596V79.4688C28.9224 79.6113 29.1385 79.9181 29.1385 80.2777V80.5347V81.1344V82.3537C29.1385 82.7143 28.9224 83.0201 28.6143 83.1626V90.8768C28.9224 91.0192 29.1385 91.326 29.1385 91.6856" fill="white"/>
<path fill-rule="evenodd" clip-rule="evenodd" d="M29.1388 82.3535V81.1342V80.5345V80.2775C29.1388 79.9179 28.9227 79.611 28.6145 79.4686C28.4995 79.4158 28.3744 79.3809 28.2383 79.3809C28.1803 79.3809 28.1293 79.4038 28.0742 79.4138C27.658 79.4935 27.3379 79.8412 27.3379 80.2775V80.5345V81.1342V82.3535C27.3379 82.7898 27.658 83.1374 28.0742 83.2171C28.1293 83.2271 28.1803 83.25 28.2383 83.25C28.3744 83.25 28.4995 83.2161 28.6145 83.1623C28.9227 83.0199 29.1388 82.7141 29.1388 82.3535ZM120.18 39.8132H65.6625C65.1852 39.8132 64.8031 40.1868 64.774 40.655C64.772 40.6739 64.762 40.6898 64.762 40.7097C64.762 41.2048 65.1652 41.6063 65.6625 41.6063H120.179C126.075 41.6123 130.856 46.4018 130.862 52.3159V99.5107C130.856 105.419 126.081 110.207 120.189 110.219H39.822C38.2923 110.217 36.8416 109.889 35.5259 109.307C31.7701 107.647 29.1439 103.89 29.1389 99.5097V98.7855V91.6859C29.1389 91.3253 28.9228 91.0195 28.6146 90.877C28.4996 90.8242 28.3745 90.7894 28.2384 90.7894C28.1804 90.7894 28.1294 90.8113 28.0733 90.8223C27.6581 90.9019 27.338 91.2486 27.338 91.6859V99.5107C27.345 106.411 32.9287 112.005 39.821 112.012H120.191C127.079 111.998 132.656 106.407 132.663 99.5117V52.3149C132.656 45.4136 127.072 39.8202 120.18 39.8132V39.8132ZM29.1388 75.3503V72.1706V57.2283V52.3142C29.1418 49.4632 30.2623 46.8802 32.0762 44.9616C34.0221 42.9016 36.7694 41.6086 39.8229 41.6056H53.0883H58.7881C59.2853 41.6056 59.6885 41.2051 59.6885 40.71C59.6885 40.6901 59.6785 40.6732 59.6775 40.6543C59.6475 40.1871 59.2663 39.8135 58.7881 39.8135H39.8219C32.9286 39.8205 27.3449 45.4139 27.3379 52.3142V75.3503C27.3379 75.7866 27.658 76.1343 28.0742 76.214C28.1293 76.2239 28.1803 76.2468 28.2383 76.2468C28.3744 76.2468 28.4995 76.213 28.6145 76.1592C28.9227 76.0167 29.1388 75.7109 29.1388 75.3503" fill="#4C4C4C"/>
<path fill-rule="evenodd" clip-rule="evenodd" d="M29.1377 72.1709H32.0751V57.2286H29.1377V72.1709Z" fill="#A6A6A6"/>
<path fill-rule="evenodd" clip-rule="evenodd" d="M120.179 41.6061H98.7004L89.7121 57.2288H130.862V52.3157C130.856 46.4016 126.075 41.6121 120.179 41.6061ZM59.2245 110.219H120.189C126.081 110.207 130.856 105.419 130.862 99.5104V72.171H81.1151L59.2245 110.219ZM29.1387 75.3503C29.1387 75.8454 28.7355 76.2468 28.2383 76.2468C28.1803 76.2468 28.1292 76.2239 28.0742 76.214V79.4146C28.1292 79.4036 28.1803 79.3807 28.2383 79.3807C28.7355 79.3807 29.1387 79.7822 29.1387 80.2773V80.5343V81.134V82.3533C29.1387 82.8484 28.7355 83.2498 28.2383 83.2498C28.1803 83.2498 28.1292 83.2279 28.0742 83.2169V90.8226C28.1292 90.8116 28.1803 90.7897 28.2383 90.7897C28.7355 90.7897 29.1387 91.1901 29.1387 91.6852V98.7848V99.51C29.1437 103.889 31.77 107.647 35.5258 109.307C36.7534 109.761 38.076 110.023 39.4607 110.024H42.6012C36.7134 109.541 32.0812 104.613 32.0761 98.5906V72.1706H29.1387V75.3503ZM32.0757 44.9617C30.2619 46.8803 29.1413 49.4634 29.1383 52.3143V57.2284H32.0757V44.9617Z" fill="#E5E5E5"/>
<path fill-rule="evenodd" clip-rule="evenodd" d="M32.0752 72.1709H130.122V57.2286H32.0752V72.1709Z" fill="#4C4C4C"/>
<path fill-rule="evenodd" clip-rule="evenodd" d="M81.1152 72.1709H132.025V57.2286H89.7124L81.1152 72.1709Z" fill="#404040"/>
<path fill-rule="evenodd" clip-rule="evenodd" d="M118.764 32.5329L117.577 33.7143L115.627 31.7718L113.68 33.7104L112.488 32.5229L114.434 30.5854L112.484 28.6429L113.671 27.4615L115.622 29.403L117.568 27.4655L118.76 28.6519L116.813 30.5904L118.764 32.5329Z" fill="#999999"/>
<path fill-rule="evenodd" clip-rule="evenodd" d="M46.5857 122.145L45.4811 123.245L44.1225 121.893L42.7598 123.25L41.6553 122.151L43.0189 120.794L41.6613 119.441L42.7658 118.342L44.1245 119.694L45.4871 118.337L46.5907 119.435L45.228 120.793L46.5857 122.145Z" fill="#7F7F7F"/>
<path fill-rule="evenodd" clip-rule="evenodd" d="M32.1895 85.9687H90.2174V81.9841H32.1895V85.9687Z" fill="#A6A6A6"/>
<path fill-rule="evenodd" clip-rule="evenodd" d="M73.1758 85.9687H90.216V81.9841H75.4679L73.1758 85.9687Z" fill="#7F7F7F"/>
</svg>
