<svg width="160" height="160" viewBox="0 0 160 160" fill="none" xmlns="http://www.w3.org/2000/svg">
<path fill-rule="evenodd" clip-rule="evenodd" d="M112.002 121.523C112.002 121.523 115.013 121.523 112.002 121.523C95.417 121.523 81.2689 122.475 55.9605 130.539C19.1716 142.261 18.731 109.247 25.5115 91.897C2.75936 82.0119 10.9409 50.3062 21.8312 38.5634C29.8612 29.9054 40.7144 26.1102 54.3918 27.1758C59.5515 27.1758 67.5313 30.5966 78.3313 37.4372C91.9625 46.0721 97.8066 46.0206 109.882 48.1478C156.059 56.2821 154.031 93.5751 140.755 107.423C132.074 116.477 122.038 121.523 112.002 121.523Z" fill="#E5E5E5"/>
<path fill-rule="evenodd" clip-rule="evenodd" d="M24.7515 93.864V101.056V101.789C24.7555 106.226 27.391 110.033 31.1586 111.714C32.4784 112.303 33.9336 112.637 35.4682 112.638H116.086C121.999 112.626 126.787 107.775 126.793 101.79V53.9827C126.787 47.9917 121.992 43.14 116.077 43.1339H61.3898C60.891 43.1339 60.4865 42.7272 60.4865 42.2257C60.4865 42.2066 60.4966 42.1894 60.4986 42.1702H55.3861C55.3871 42.1894 55.3972 42.2066 55.3972 42.2257C55.3972 42.7272 54.9927 43.1339 54.4939 43.1339H48.7763H35.4692C32.4061 43.1369 29.6502 44.4467 27.6981 46.5335C25.8786 48.476 24.7545 51.0936 24.7515 53.9817V58.9595V74.0959V77.3169C24.7515 77.6812 24.5347 77.992 24.2256 78.1363V81.4885C24.5347 81.6328 24.7515 81.9436 24.7515 82.3079V82.5683V83.1757V84.4109C24.7515 84.7762 24.5347 85.0859 24.2256 85.2302V93.0447C24.5347 93.189 24.7515 93.4998 24.7515 93.864" fill="white"/>
<path fill-rule="evenodd" clip-rule="evenodd" d="M24.7509 84.4107V83.1756V82.5681V82.3078C24.7509 81.9435 24.5341 81.6327 24.225 81.4884C24.1095 81.4349 23.9831 81.3996 23.8476 81.3996C23.7894 81.3996 23.7382 81.4228 23.683 81.4329C23.2655 81.5136 22.9443 81.8658 22.9443 82.3078V82.5681V83.1756V84.4107C22.9443 84.8527 23.2655 85.2049 23.683 85.2856C23.7382 85.2957 23.7894 85.3189 23.8476 85.3189C23.9831 85.3189 24.1095 85.2846 24.225 85.2301C24.5341 85.0858 24.7509 84.776 24.7509 84.4107ZM116.077 41.3178H61.3898C60.9101 41.3178 60.5277 41.6962 60.4976 42.1705C60.4966 42.1897 60.4865 42.2058 60.4865 42.226C60.4865 42.7275 60.891 43.1342 61.3898 43.1342H116.076C121.991 43.1402 126.787 47.992 126.793 53.9829V101.791C126.787 107.776 121.998 112.626 116.086 112.638H35.4682C33.9336 112.636 32.4774 112.303 31.1586 111.714C27.39 110.033 24.7555 106.227 24.7505 101.79V101.056V93.8643C24.7505 93.499 24.5337 93.1892 24.2246 93.0449C24.1091 92.9914 23.9837 92.9561 23.8482 92.9561C23.789 92.9561 23.7378 92.9783 23.6826 92.9894C23.2651 93.0702 22.9449 93.4213 22.9449 93.8643V101.791C22.951 108.781 28.5522 114.448 35.4672 114.455H116.088C122.999 114.441 128.593 108.777 128.6 101.792V53.9819C128.593 46.9909 122.991 41.3249 116.077 41.3178V41.3178ZM24.7509 77.3166V74.0956V58.9592V53.9813C24.7539 51.0933 25.8779 48.4767 27.6975 46.5332C29.6496 44.4464 32.4055 43.1366 35.4686 43.1336H48.7756H54.4933C54.9921 43.1336 55.3965 42.7279 55.3965 42.2264C55.3965 42.2062 55.3865 42.1891 55.3855 42.1699C55.3554 41.6966 54.973 41.3182 54.4933 41.3182H35.4676C28.5526 41.3253 22.9514 46.9913 22.9443 53.9803V77.3166C22.9443 77.7586 23.2655 78.1108 23.683 78.1915C23.7382 78.2016 23.7894 78.2248 23.8476 78.2248C23.9831 78.2248 24.1095 78.1905 24.225 78.136C24.5341 77.9917 24.7509 77.6819 24.7509 77.3166" fill="#0F2B4A"/>
<path fill-rule="evenodd" clip-rule="evenodd" d="M24.752 74.0954H27.6986V58.959H24.752V74.0954Z" fill="#6EE3FF"/>
<path fill-rule="evenodd" clip-rule="evenodd" d="M116.077 43.134H94.5321L85.5155 58.9596H126.794V53.9827C126.788 47.9917 121.991 43.14 116.077 43.134V43.134ZM54.9318 112.638H116.087C121.998 112.626 126.787 107.775 126.793 101.791V74.096H76.8911L54.9318 112.638ZM24.7515 77.3166C24.7515 77.8181 24.347 78.2248 23.8482 78.2248C23.79 78.2248 23.7388 78.2016 23.6836 78.1915V81.4337C23.7388 81.4226 23.79 81.3994 23.8482 81.3994C24.347 81.3994 24.7515 81.8061 24.7515 82.3076V82.5679V83.1754V84.4105C24.7515 84.912 24.347 85.3187 23.8482 85.3187C23.79 85.3187 23.7388 85.2965 23.6836 85.2854V92.9898C23.7388 92.9787 23.79 92.9565 23.8482 92.9565C24.347 92.9565 24.7515 93.3622 24.7515 93.8637V101.056V101.79C24.7555 106.226 27.391 110.032 31.1586 111.715C32.39 112.175 33.7158 112.44 35.1058 112.441H38.2562C32.3489 111.952 27.7031 106.959 27.6981 100.859V74.0956H24.7515V77.3166ZM27.6976 46.5333C25.879 48.4768 24.754 51.0934 24.7509 53.9814V58.9593H27.6976V46.5333Z" fill="#E9F4F7"/>
<path fill-rule="evenodd" clip-rule="evenodd" d="M27.6973 74.0954H126.052V58.959H27.6973V74.0954Z" fill="#0D4F80"/>
<path fill-rule="evenodd" clip-rule="evenodd" d="M76.8916 74.0954H128.175V58.959H85.5158L76.8916 74.0954Z" fill="#0F2B4A"/>
<path fill-rule="evenodd" clip-rule="evenodd" d="M67.7509 82.1412H115.615C116.114 82.1412 116.518 82.5479 116.518 83.0494C116.518 83.5509 116.114 83.9576 115.615 83.9576H67.7509C67.2521 83.9576 66.8477 83.5509 66.8477 83.0494C66.8477 82.5479 67.2521 82.1412 67.7509 82.1412ZM83.1062 87.5902H115.615C116.113 87.5902 116.519 87.9969 116.519 88.4984C116.519 88.9999 116.113 89.4066 115.615 89.4066H83.1062C82.6074 89.4066 82.2029 88.9999 82.2029 88.4984C82.2029 87.9969 82.6074 87.5902 83.1062 87.5902" fill="#0D4F80"/>
<path fill-rule="evenodd" clip-rule="evenodd" d="M97.9503 101.846C97.9503 90.9777 106.712 82.1683 117.521 82.1683C119.735 82.1683 121.855 82.5548 123.839 83.237C121.172 81.9191 118.183 81.1592 115.012 81.1592C103.926 81.1592 94.9395 90.1957 94.9395 101.341C94.9395 112.488 103.926 121.523 115.012 121.523C115.435 121.523 115.849 121.486 116.266 121.459C106.045 120.807 97.9503 112.288 97.9503 101.846Z" fill="#C6EDF7"/>
<path fill-rule="evenodd" clip-rule="evenodd" d="M123.841 83.2365H123.84C123.411 83.0892 122.975 82.962 122.533 82.8439C122.398 82.8076 122.266 82.7733 122.13 82.74C121.77 82.6522 121.406 82.5725 121.038 82.5049C121.022 82.5019 121.008 82.4988 120.994 82.4958C120.727 82.4464 120.457 82.41 120.187 82.3727C119.899 82.3323 119.613 82.2869 119.32 82.2597C118.728 82.2032 118.13 82.1678 117.523 82.1678C112.425 82.1678 107.8 84.1426 104.317 87.3526C100.414 90.95 97.9521 96.1024 97.9521 101.845C97.9521 102.512 97.9863 103.169 98.0505 103.818C98.0736 104.05 98.1198 104.275 98.1509 104.505C98.2061 104.916 98.2562 105.33 98.3365 105.731C98.3927 106.012 98.473 106.282 98.5403 106.558C98.6236 106.899 98.6988 107.242 98.8002 107.576C98.8925 107.881 99.008 108.176 99.1143 108.475C99.2177 108.764 99.3131 109.056 99.4295 109.339C99.562 109.663 99.7155 109.974 99.8651 110.289C99.9805 110.531 100.088 110.777 100.212 111.013C100.389 111.35 100.586 111.673 100.78 111.998C100.9 112.195 101.012 112.396 101.139 112.59C101.362 112.934 101.603 113.263 101.847 113.592C101.965 113.748 102.076 113.909 102.197 114.062C102.471 114.408 102.761 114.739 103.057 115.065C103.164 115.184 103.267 115.305 103.378 115.422C103.703 115.764 104.043 116.089 104.391 116.406C104.485 116.492 104.577 116.579 104.672 116.663C105.049 116.994 105.44 117.305 105.841 117.607C105.918 117.665 105.992 117.723 106.069 117.779C106.498 118.091 106.94 118.382 107.392 118.659C107.449 118.694 107.507 118.729 107.564 118.764C107.762 118.882 107.971 118.982 108.174 119.093C108.459 119.248 108.738 119.411 109.031 119.554C109.07 119.573 109.109 119.592 109.149 119.61C109.669 119.859 110.202 120.085 110.747 120.287C110.771 120.295 110.794 120.303 110.817 120.313C111.378 120.518 111.949 120.699 112.532 120.852C112.542 120.855 112.553 120.858 112.563 120.861C113.156 121.017 113.76 121.145 114.373 121.246C114.376 121.246 114.379 121.246 114.382 121.247C115.002 121.348 115.63 121.419 116.267 121.459C116.308 121.462 116.351 121.463 116.391 121.466C116.767 121.491 117.14 121.522 117.523 121.522C128.331 121.522 137.094 112.713 137.094 101.845C137.094 93.2043 131.544 85.8813 123.841 83.2365" fill="#EC0000"/>
<path fill-rule="evenodd" clip-rule="evenodd" d="M123.841 83.2365H123.84C123.411 83.0891 122.974 82.962 122.533 82.8439C122.398 82.8076 122.266 82.7733 122.13 82.74C121.77 82.6522 121.406 82.5725 121.037 82.5049C126.897 85.399 131.072 92.724 131.072 101.341C131.072 112.104 124.572 120.873 116.391 121.466C116.767 121.491 117.14 121.522 117.523 121.522C128.331 121.522 137.093 112.713 137.093 101.845C137.093 93.2043 131.544 85.8813 123.841 83.2365Z" fill="#990000"/>
<path fill-rule="evenodd" clip-rule="evenodd" d="M115.727 112.113C115.563 112.113 115.408 112.037 115.306 111.905L109.66 104.546C108.949 103.619 109.125 102.285 110.053 101.575C110.981 100.863 112.316 101.04 113.027 101.967L115.316 104.951L122.436 93.1794C123.028 92.1703 124.331 91.8333 125.339 92.4236C126.347 93.0149 126.685 94.3156 126.094 95.3237L116.185 111.852C116.095 112.003 115.936 112.101 115.76 112.112C115.749 112.113 115.738 112.113 115.727 112.113" fill="white"/>
<path fill-rule="evenodd" clip-rule="evenodd" d="M114.659 33.9425L113.468 35.1393L111.512 33.1715L109.559 35.1352L108.363 33.9324L110.315 31.9697L108.358 30.002L109.55 28.8052L111.506 30.7719L113.459 28.8092L114.655 30.011L112.702 31.9747L114.659 33.9425Z" fill="#6EE3FF"/>
<path fill-rule="evenodd" clip-rule="evenodd" d="M42.2525 124.72L41.1455 125.834L39.7816 124.464L38.4146 125.839L37.3066 124.726L38.6756 123.351L37.3127 121.981L38.4217 120.867L39.7836 122.237L41.1515 120.862L42.2575 121.975L40.8916 123.35L42.2525 124.72Z" fill="#0F2B4A"/>
</svg>
