<svg width="160" height="160" viewBox="0 0 160 160" fill="none" xmlns="http://www.w3.org/2000/svg">
<path fill-rule="evenodd" clip-rule="evenodd" d="M112.001 121.523C112.001 121.523 115.012 121.523 112.001 121.523C95.4175 121.523 81.2694 122.475 55.96 130.539C19.1722 142.261 18.7306 109.247 25.5111 91.897C2.75891 82.0119 10.9415 50.3062 21.8318 38.5634C29.8608 29.9054 40.715 26.1102 54.3924 27.1758C59.552 27.1758 67.5308 30.5966 78.3308 37.4372C91.9621 46.0721 97.8072 46.0206 109.883 48.1478C156.059 56.2821 154.031 93.5751 140.754 107.423C132.074 116.477 122.038 121.523 112.001 121.523" fill="#262626"/>
<path fill-rule="evenodd" clip-rule="evenodd" d="M24.7514 93.8641V101.056V101.789C24.7554 106.226 27.391 110.033 31.1586 111.714C32.4773 112.303 33.9326 112.637 35.4681 112.638H116.086C121.998 112.626 126.787 107.775 126.793 101.791V53.9827C126.787 47.9917 121.992 43.14 116.076 43.1339H61.3897C60.8909 43.1339 60.4855 42.7273 60.4855 42.2258C60.4855 42.2066 60.4965 42.1894 60.4975 42.1703H55.3851C55.3861 42.1894 55.3961 42.2066 55.3961 42.2258C55.3961 42.7273 54.9926 43.1339 54.4938 43.1339H48.7752H35.4691C32.4061 43.137 29.6501 44.4468 27.6971 46.5336C25.8775 48.4761 24.7544 51.0937 24.7514 53.9817V58.9595V74.0959V77.317C24.7514 77.6812 24.5336 77.992 24.2255 78.1364V81.4886C24.5336 81.6329 24.7514 81.9437 24.7514 82.3079V82.5683V83.1758V84.4109C24.7514 84.7762 24.5336 85.086 24.2255 85.2303V93.0447C24.5336 93.189 24.7514 93.4998 24.7514 93.8641" fill="white"/>
<path fill-rule="evenodd" clip-rule="evenodd" d="M24.752 84.4106V83.1755V82.568V82.3077C24.752 81.9434 24.5343 81.6326 24.2261 81.4883C24.1097 81.4348 23.9843 81.3995 23.8488 81.3995C23.7896 81.3995 23.7384 81.4227 23.6832 81.4328C23.2667 81.5135 22.9445 81.8657 22.9445 82.3077V82.568V83.1755V84.4106C22.9445 84.8526 23.2667 85.2048 23.6832 85.2855C23.7384 85.2956 23.7896 85.3188 23.8488 85.3188C23.9843 85.3188 24.1097 85.2845 24.2261 85.23C24.5343 85.0857 24.752 84.7759 24.752 84.4106" fill="#4C4C4C"/>
<path fill-rule="evenodd" clip-rule="evenodd" d="M54.9311 112.638H116.087C121.997 112.626 126.788 107.775 126.794 101.79V74.0958H76.8914L54.9311 112.638Z" fill="#E5E5E5"/>
<path fill-rule="evenodd" clip-rule="evenodd" d="M116.078 41.3177H61.3905C60.9107 41.3177 60.5283 41.6961 60.4982 42.1704C60.4972 42.1896 60.4862 42.2057 60.4862 42.2259C60.4862 42.7274 60.8917 43.1341 61.3905 43.1341H116.077C121.992 43.1401 126.788 47.9919 126.794 53.9828V101.791C126.788 107.776 121.997 112.626 116.087 112.638H35.4688C33.9333 112.636 32.478 112.303 31.1593 111.714C27.3917 110.033 24.7562 106.227 24.7521 101.79V101.056V93.8642C24.7521 93.4989 24.5344 93.1891 24.2252 93.0448C24.1098 92.9914 23.9844 92.956 23.8489 92.956C23.7897 92.956 23.7385 92.9782 23.6823 92.9893C23.2658 93.0701 22.9446 93.4212 22.9446 93.8642V101.791C22.9526 108.781 28.5529 114.448 35.4678 114.455H116.089C122.999 114.441 128.593 108.777 128.6 101.792V53.9818C128.593 46.9908 122.992 41.3248 116.078 41.3177V41.3177ZM24.752 77.3165V74.0955V58.9591V53.9812C24.7551 51.0932 25.8781 48.4766 27.6977 46.5331C29.6507 44.4463 32.4067 43.1365 35.4698 43.1335H48.7758H54.4945C54.9933 43.1335 55.3967 42.7278 55.3967 42.2263C55.3967 42.2061 55.3867 42.189 55.3857 42.1698C55.3556 41.6965 54.9732 41.3181 54.4945 41.3181H35.4687C28.5528 41.3252 22.9525 46.9912 22.9445 53.9802V77.3165C22.9445 77.7585 23.2667 78.1107 23.6832 78.1914C23.7384 78.2015 23.7896 78.2247 23.8488 78.2247C23.9843 78.2247 24.1097 78.1904 24.2261 78.1359C24.5343 77.9916 24.752 77.6818 24.752 77.3165" fill="#4C4C4C"/>
<path fill-rule="evenodd" clip-rule="evenodd" d="M24.7518 74.0955H27.6975V58.9591H24.7518V74.0955Z" fill="#A6A6A6"/>
<path fill-rule="evenodd" clip-rule="evenodd" d="M116.076 43.1339H94.5305L85.5149 58.9595H126.793V53.9826C126.787 47.9917 121.992 43.1399 116.076 43.1339V43.1339ZM24.7514 77.3165C24.7514 77.818 24.3469 78.2247 23.8481 78.2247C23.7889 78.2247 23.7377 78.2015 23.6825 78.1914V81.4336C23.7377 81.4225 23.7889 81.3993 23.8481 81.3993C24.3469 81.3993 24.7514 81.806 24.7514 82.3075V82.5678V83.1753V84.4104C24.7514 84.9119 24.3469 85.3186 23.8481 85.3186C23.7889 85.3186 23.7377 85.2964 23.6825 85.2853V92.9897C23.7377 92.9786 23.7889 92.9564 23.8481 92.9564C24.3469 92.9564 24.7514 93.3621 24.7514 93.8636V101.055V101.79C24.7554 106.226 27.3909 110.032 31.1585 111.714C32.3899 112.175 33.7157 112.44 35.1047 112.441H38.2551C32.3488 111.952 27.703 106.959 27.697 100.859V74.0955H24.7514V77.3165ZM27.6965 46.5332C25.8779 48.4767 24.7539 51.0933 24.7509 53.9813V58.9592H27.6965V46.5332Z" fill="#E5E5E5"/>
<path fill-rule="evenodd" clip-rule="evenodd" d="M27.697 74.0955H126.052V58.9591H27.697V74.0955Z" fill="#4C4C4C"/>
<path fill-rule="evenodd" clip-rule="evenodd" d="M76.8913 74.0955H127.171V58.9591H85.5154L76.8913 74.0955Z" fill="#404040"/>
<path fill-rule="evenodd" clip-rule="evenodd" d="M90.4277 89.4013L89.3197 90.5154L87.9568 89.146L86.5899 90.5204L85.4819 89.4074L86.8498 88.033L85.4869 86.6626L86.5959 85.5486L87.9578 86.9189L89.3258 85.5435L90.4328 86.6566L89.0658 88.032L90.4277 89.4013Z" fill="#4C4C4C"/>
<path fill-rule="evenodd" clip-rule="evenodd" d="M139.749 44.0334L138.558 45.2302L136.601 43.2624L134.649 45.2261L133.454 44.0233L135.406 42.0606L133.449 40.0929L134.639 38.8961L136.596 40.8628L138.549 38.9001L139.745 40.102L137.793 42.0656L139.749 44.0334Z" fill="#999999"/>
<path fill-rule="evenodd" clip-rule="evenodd" d="M110.428 99.9064V87.3048C110.414 86.1403 110.593 84.9819 110.956 83.8759C111.273 82.9233 111.778 82.0454 112.442 81.2947C113.096 80.5742 113.9 80.0061 114.796 79.6307C115.066 79.5237 115.342 79.4329 115.62 79.3552C115.627 79.3532 115.634 79.3522 115.64 79.3502C115.913 79.2755 116.189 79.2129 116.468 79.1635C118.031 78.888 119.652 79.0414 121.151 79.6307C122.028 80.0111 122.813 80.5762 123.454 81.2886C124.118 82.0384 124.623 82.9173 124.939 83.8699C125.302 84.9779 125.481 86.1383 125.467 87.3048V99.9064H110.428ZM121.696 115.989C121.702 116.757 121.404 117.496 120.866 118.041C120.328 118.587 119.597 118.892 118.833 118.892H117.027C115.749 118.889 114.68 118.04 114.315 116.874C114.314 116.874 114.314 116.874 114.314 116.874C114.275 116.747 114.243 116.618 114.217 116.486C114.189 116.334 114.171 116.18 114.171 116.021V109.922C114.173 108.336 115.451 107.053 117.027 107.05H118.541H118.833C120.411 107.05 121.693 108.334 121.696 109.922V115.989ZM136.203 99.9084C136.195 99.9084 136.188 99.9064 136.181 99.9064H133.193V87.7488C133.225 85.5319 132.892 83.326 132.204 81.219C131.569 79.3158 130.557 77.562 129.227 76.0635C127.897 74.5963 126.266 73.4399 124.446 72.672C122.736 71.9898 120.943 71.6074 119.138 71.5055C119.216 71.5256 119.293 71.5519 119.373 71.5731C116.778 71.3541 114.148 71.7285 111.687 72.7093C109.866 73.4772 108.234 74.6347 106.905 76.1009C105.583 77.6014 104.576 79.3552 103.947 81.2573C103.253 83.3603 102.91 85.5641 102.934 87.7791V99.9064H100.073H99.6856C98.3438 99.9064 97.2568 101 97.2568 102.348V119.627C97.2588 122.026 98.3568 124.166 100.073 125.572C101.385 126.646 103.058 127.293 104.883 127.295H130.984C133.006 127.293 134.839 126.496 136.203 125.203C137.679 123.807 138.606 121.832 138.61 119.633V102.348C138.61 101.007 137.534 99.9215 136.203 99.9084Z" fill="#A6A6A6"/>
<path fill-rule="evenodd" clip-rule="evenodd" d="M99.6856 99.9063C98.3438 99.9063 97.2568 101 97.2568 102.348V119.627C97.2588 122.026 98.3568 124.166 100.073 125.572V99.9063H99.6856Z" fill="#BFBFBF"/>
<path fill-rule="evenodd" clip-rule="evenodd" d="M136.203 99.9088V125.204C137.679 123.807 138.606 121.831 138.609 119.633V102.349C138.609 101.008 137.533 99.9209 136.203 99.9088ZM118.832 107.049H118.54H117.027C115.45 107.052 114.172 108.337 114.169 109.922V116.021C114.169 116.181 114.188 116.335 114.217 116.486C114.243 116.618 114.275 116.748 114.314 116.874C114.314 116.875 114.314 116.875 114.315 116.875C114.679 118.039 115.748 118.89 117.027 118.893H118.832C119.596 118.893 120.328 118.586 120.866 118.041C121.404 117.495 121.702 116.757 121.696 115.989V109.922C121.693 108.334 120.411 107.049 118.832 107.049" fill="#7F7F7F"/>
<path fill-rule="evenodd" clip-rule="evenodd" d="M117.856 116.023C118.393 115.477 118.692 114.739 118.685 113.97V107.904C118.685 107.604 118.627 107.32 118.541 107.049H117.028C115.451 107.053 114.173 108.337 114.17 109.922V116.021C114.17 116.18 114.189 116.335 114.218 116.486C114.243 116.618 114.276 116.747 114.315 116.874H114.316H115.822C116.585 116.874 117.318 116.569 117.856 116.023Z" fill="#404040"/>
<path fill-rule="evenodd" clip-rule="evenodd" d="M132.204 81.2192C131.569 79.3161 130.557 77.5613 129.228 76.0628C127.898 74.5966 126.266 73.4401 124.446 72.6722C122.735 71.9901 120.943 71.6066 119.137 71.5057C119.217 71.5259 119.294 71.5521 119.373 71.5723C116.779 71.3543 114.148 71.7277 111.687 72.7085C109.867 73.4765 108.235 74.6339 106.905 76.1001C105.583 77.6006 104.577 79.3544 103.947 81.2566C103.253 83.3595 102.911 85.5634 102.935 87.7794V99.9066H107.418H110.429V87.3051C110.415 86.1406 110.593 84.9821 110.957 83.8762C111.274 82.9226 111.778 82.0447 112.442 81.2949C113.096 80.5744 113.9 80.0063 114.796 79.6309C115.067 79.524 115.342 79.4321 115.621 79.3554C115.627 79.3534 115.634 79.3524 115.641 79.3504C115.914 79.2747 116.19 79.2132 116.468 79.1637C118.031 78.8882 119.652 79.0406 121.151 79.6309C122.028 80.0114 122.814 80.5764 123.454 81.2879C124.117 82.0386 124.622 82.9165 124.939 83.8691C125.303 84.9771 125.481 86.1386 125.467 87.3051V99.9066H130.181H133.192V87.7481C133.225 85.5321 132.892 83.3252 132.204 81.2192" fill="#A6A6A6"/>
<path fill-rule="evenodd" clip-rule="evenodd" d="M125.986 75.561C127.035 76.7427 127.877 78.0888 128.501 79.5368C128.762 80.0838 129 80.6418 129.193 81.219C129.88 83.326 130.213 85.5319 130.181 87.7488V99.9064H133.192V87.7488C133.224 85.5319 132.891 83.326 132.203 81.219C131.568 79.3158 130.556 77.562 129.227 76.0635C127.897 74.5963 126.265 73.4399 124.445 72.672C122.735 71.9898 120.943 71.6074 119.137 71.5055C119.216 71.5256 119.293 71.5519 119.372 71.5731C119.989 71.7386 120.604 71.9303 121.204 72.1705C123.024 72.9374 124.656 74.0948 125.986 75.561ZM110.956 83.8761C111.272 82.9235 111.777 82.0456 112.44 81.2949C113.096 80.5744 113.9 80.0063 114.795 79.6309C115.066 79.5239 115.341 79.4331 115.619 79.3554C115.626 79.3534 115.633 79.3524 115.64 79.3504C115.912 79.2747 116.189 79.2131 116.467 79.1637C114.903 78.8882 113.283 79.0406 111.784 79.6309C110.889 80.0063 110.085 80.5744 109.43 81.2949C108.766 82.0456 108.261 82.9235 107.945 83.8761C107.582 84.9821 107.403 86.1405 107.417 87.305V99.9066H110.428V87.305C110.414 86.1405 110.593 84.9821 110.956 83.8761" fill="#7F7F7F"/>
</svg>
