<svg width="160" height="160" viewBox="0 0 160 160" fill="none" xmlns="http://www.w3.org/2000/svg">
<path fill-rule="evenodd" clip-rule="evenodd" d="M85.1729 124.143C121.793 119.299 128.94 110.893 134.588 101.804C145.527 84.199 136.932 54.4567 115.187 54.3007C93.8957 58.394 97.8339 19.975 56.8448 30.9944C31.1618 37.8986 22.5087 59.3713 25.8676 78.7123C29.2266 98.0544 47.3582 129.144 85.1729 124.143Z" fill="#D9D9D9"/>
<path fill-rule="evenodd" clip-rule="evenodd" d="M126.316 42.9072C115.882 42.9072 107.425 51.3888 107.425 61.8501C107.425 72.3114 115.882 80.792 126.316 80.792C136.745 80.78 145.197 72.3054 145.208 61.8501C145.208 51.3888 136.75 42.9072 126.316 42.9072Z" fill="white"/>
<path fill-rule="evenodd" clip-rule="evenodd" d="M121.574 60.0399C121.964 63.1779 124.383 65.6747 127.499 66.1548C127.111 66.2269 126.714 66.2629 126.318 66.2619C129.303 66.3429 131.864 64.1432 132.243 61.1723L133.014 54.9553C133.264 53.4029 132.81 51.8194 131.778 50.635C130.396 49.0695 128.41 48.1732 126.325 48.1732C126.321 48.1732 126.317 48.1742 126.313 48.1742L121.196 57.041L121.574 60.0399Z" fill="#D9D9D9"/>
<path fill-rule="evenodd" clip-rule="evenodd" d="M120.398 61.1546C120.761 64.1335 123.327 66.3452 126.317 66.2612H126.318C126.715 66.2622 127.11 66.2271 127.5 66.1551C124.384 65.675 121.964 63.1772 121.575 60.0402L121.197 57.0413L120.123 58.9039L119.627 54.9376C119.474 53.9793 119.591 53.01 119.945 52.1307C119.586 53.012 119.464 53.9813 119.618 54.9376L120.398 61.1546Z" fill="#E5E5E5"/>
<path fill-rule="evenodd" clip-rule="evenodd" d="M119.626 54.9377L120.123 58.903L121.197 57.0414L126.313 48.1736L126.323 48.1576C124.239 48.1606 122.256 49.0559 120.871 50.6174C120.684 50.8314 120.522 51.0625 120.373 51.3006C120.325 51.3766 120.276 51.4516 120.232 51.5296C120.206 51.5777 120.182 51.6267 120.156 51.6757C120.09 51.8057 120.024 51.9368 119.969 52.0708C119.96 52.0898 119.954 52.1098 119.945 52.1298C119.592 53.0101 119.475 53.9794 119.626 54.9377Z" fill="#E5E5E5"/>
<path fill-rule="evenodd" clip-rule="evenodd" d="M119.93 79.9264C119.562 79.7984 119.197 79.6624 118.838 79.5124C119.198 79.6624 119.563 79.7984 119.93 79.9264Z" fill="#EC0000"/>
<path fill-rule="evenodd" clip-rule="evenodd" d="M141.252 73.8405C140.225 70.9766 137.307 69.195 133.63 69.195C131.545 69.195 129.105 70.0263 127.431 70.7275C127.257 70.7985 127.077 70.8506 126.895 70.8876C126.881 70.8906 126.866 70.8926 126.852 70.8946C126.702 70.9236 126.548 70.9356 126.396 70.9416C126.301 70.9456 126.206 70.9396 126.111 70.9336C126.058 70.9306 126.003 70.9266 125.949 70.9206C125.692 70.8896 125.435 70.8276 125.189 70.7275C123.485 70.0263 121.027 69.191 118.99 69.191C115.57 69.191 112.537 71.0336 111.43 73.7825L111.346 73.9645C111.346 73.9655 111.347 73.9655 111.348 73.9655L111.43 73.7865C112.537 71.0386 115.57 69.195 118.99 69.195C120.889 69.195 123.148 69.9233 124.83 70.5895C124.784 70.5735 124.736 70.5635 124.689 70.5475C123.024 69.8963 120.834 69.209 118.985 69.209C115.566 69.209 112.532 71.0516 111.426 73.8005L111.342 73.9825C111.787 74.5187 112.269 75.0199 112.767 75.503C112.793 75.529 112.819 75.556 112.848 75.582C113.069 75.7941 113.293 76.0002 113.523 76.2002C113.604 76.2703 113.686 76.3393 113.767 76.4073C113.973 76.5814 114.178 76.7544 114.392 76.9185C114.531 77.0275 114.677 77.1305 114.819 77.2366C115.066 77.4156 115.314 77.5917 115.568 77.7607C115.807 77.9198 116.049 78.0768 116.296 78.2249C116.415 78.2969 116.535 78.3629 116.655 78.4319C116.905 78.575 117.158 78.715 117.416 78.8471C117.521 78.9021 117.628 78.9551 117.734 79.0081C118.047 79.1612 118.364 79.3082 118.685 79.4452C118.737 79.4673 118.787 79.4913 118.839 79.5123C119.197 79.6623 119.562 79.7984 119.93 79.9264C119.971 79.9414 120.011 79.9584 120.052 79.9724L120.055 79.9684C122.05 80.6506 124.162 81.0167 126.318 81.0167C132.108 81.0167 137.596 78.4319 141.292 73.9645L141.252 73.8405Z" fill="#595959"/>
<path fill-rule="evenodd" clip-rule="evenodd" d="M127.125 71.4205C127.843 71.7136 128.647 71.7136 129.366 71.4205C131.045 70.7233 129.104 70.0301 127.427 70.7323C127.254 70.8023 127.076 70.8504 126.896 70.8874C126.881 70.8904 126.866 70.8924 126.853 70.8954C126.702 70.9234 126.548 70.9354 126.396 70.9414C126.301 70.9454 126.206 70.9394 126.111 70.9344C126.057 70.9314 126.003 70.9264 125.949 70.9204C125.888 70.9134 125.826 70.9164 125.766 70.9054C126.252 71.0694 126.709 71.2425 127.125 71.4205ZM111.341 73.9828C111.787 74.519 112.269 75.0202 112.767 75.5033C112.793 75.5293 112.82 75.5563 112.848 75.5823C113.068 75.7944 113.294 76.0005 113.523 76.2005C113.604 76.2706 113.686 76.3386 113.767 76.4076C113.972 76.5817 114.178 76.7547 114.391 76.9188C114.531 77.0278 114.677 77.1308 114.819 77.2359C115.066 77.4159 115.314 77.592 115.568 77.761C115.807 77.9201 116.05 78.0771 116.296 78.2252C116.415 78.2962 116.535 78.3632 116.655 78.4322C116.906 78.5753 117.159 78.7153 117.417 78.8474C117.521 78.9014 117.628 78.9554 117.734 79.0074C118.047 79.1615 118.364 79.3085 118.685 79.4455C118.737 79.4676 118.787 79.4916 118.839 79.5126C119.197 79.6626 119.562 79.7987 119.93 79.9267C119.971 79.9417 120.011 79.9587 120.052 79.9727L120.055 79.9687L125.34 70.7988L125.185 70.7458C125.028 70.6808 124.858 70.6138 124.689 70.5478C123.024 69.8966 120.833 69.2094 118.985 69.2094C115.566 69.2094 112.532 71.0519 111.426 73.8008" fill="#767676"/>
<path fill-rule="evenodd" clip-rule="evenodd" d="M126.47 81.4909C115.512 81.4909 106.63 72.5841 106.63 61.5957C106.63 50.6083 115.512 41.7015 126.469 41.7015C137.427 41.7015 146.31 50.6083 146.31 61.5967C146.298 72.5791 137.423 81.4779 126.47 81.4909ZM126.469 43.502C116.503 43.502 108.424 51.6036 108.424 61.5957C108.424 71.5888 116.503 79.6903 126.469 79.6903C136.432 79.6783 144.504 71.5838 144.516 61.5957C144.516 51.6036 136.437 43.502 126.469 43.502Z" fill="#595959"/>
<mask id="mask0_2089_37622" style="mask-type:alpha" maskUnits="userSpaceOnUse" x="129" y="97" width="20" height="20">
<path d="M129.465 97.8326H148V116.418H129.465V97.8326Z" fill="white"/>
</mask>
<g mask="url(#mask0_2089_37622)">
<path fill-rule="evenodd" clip-rule="evenodd" d="M138.732 97.8325C133.623 97.8325 129.465 102.001 129.465 107.125C129.465 112.249 133.623 116.418 138.732 116.418C143.837 116.412 147.995 112.244 148.001 107.125C148.001 102.001 143.843 97.8325 138.732 97.8325Z" fill="#CCCCCC"/>
</g>
<path fill-rule="evenodd" clip-rule="evenodd" d="M136.47 106.261C136.655 107.76 137.811 108.951 139.298 109.18C139.112 109.215 138.923 109.232 138.734 109.231C140.158 109.27 141.382 108.22 141.561 106.803L141.93 103.835C142.05 103.093 141.833 102.337 141.34 101.772C140.681 101.025 139.732 100.597 138.736 100.597H138.732L136.288 104.83L136.47 106.261Z" fill="#F2F2F2"/>
<path fill-rule="evenodd" clip-rule="evenodd" d="M135.907 106.794C136.081 108.215 137.305 109.271 138.733 109.231C138.923 109.232 139.112 109.214 139.298 109.18C137.81 108.951 136.655 107.759 136.469 106.262L136.289 104.83L135.775 105.718L135.539 103.826C135.467 103.368 135.522 102.905 135.69 102.485C135.519 102.906 135.462 103.37 135.535 103.826L135.907 106.794Z" fill="#E5E5E5"/>
<path fill-rule="evenodd" clip-rule="evenodd" d="M135.539 103.826L135.775 105.719L136.288 104.83L138.731 100.597L138.735 100.589C137.741 100.591 136.794 101.018 136.133 101.763C136.043 101.866 135.966 101.976 135.895 102.089C135.873 102.126 135.849 102.161 135.828 102.199C135.815 102.221 135.804 102.245 135.792 102.268C135.76 102.33 135.728 102.393 135.702 102.457C135.698 102.466 135.694 102.476 135.69 102.485C135.522 102.905 135.467 103.367 135.539 103.826Z" fill="#F2F2F2"/>
<path fill-rule="evenodd" clip-rule="evenodd" d="M145.862 112.849C145.373 111.482 143.978 110.633 142.224 110.633C141.229 110.633 140.064 111.029 139.264 111.364C139.182 111.397 139.097 111.422 139.012 111.439C139.011 111.439 139.01 111.44 139.009 111.44C139.002 111.441 138.995 111.442 138.988 111.443C138.916 111.457 138.843 111.463 138.77 111.466C138.725 111.468 138.68 111.465 138.635 111.462C138.609 111.461 138.582 111.459 138.557 111.456C138.434 111.441 138.312 111.412 138.195 111.364C138.141 111.342 138.076 111.319 138.021 111.297C137.999 111.29 137.977 111.285 137.955 111.278C137.16 110.967 136.115 110.639 135.233 110.639C133.6 110.639 132.152 111.518 131.624 112.83L131.586 112.911L131.584 112.917C131.796 113.173 132.026 113.413 132.263 113.643C132.277 113.656 132.29 113.669 132.302 113.682C132.408 113.783 132.515 113.881 132.626 113.976C132.664 114.01 132.703 114.042 132.742 114.075C132.839 114.158 132.937 114.241 133.04 114.319C133.106 114.371 133.175 114.42 133.244 114.471C133.362 114.557 133.48 114.641 133.601 114.721C133.716 114.797 133.831 114.872 133.949 114.943C134.005 114.976 134.063 115.009 134.12 115.041C134.24 115.11 134.361 115.177 134.483 115.24C134.534 115.266 134.584 115.291 134.635 115.316C134.785 115.39 134.936 115.459 135.088 115.525C135.114 115.536 135.137 115.547 135.163 115.557C135.334 115.628 135.507 115.693 135.684 115.755C135.704 115.762 135.722 115.77 135.743 115.777L135.744 115.775C136.696 116.1 137.704 116.275 138.735 116.275C141.497 116.275 144.117 115.041 145.882 112.909L145.862 112.849Z" fill="#595959"/>
<path fill-rule="evenodd" clip-rule="evenodd" d="M139.261 111.365C139.18 111.399 139.094 111.422 139.008 111.439C139.001 111.441 138.994 111.442 138.988 111.443C138.916 111.457 138.843 111.462 138.77 111.465C138.724 111.467 138.679 111.464 138.634 111.462C138.608 111.46 138.582 111.458 138.557 111.455C138.528 111.452 138.498 111.453 138.469 111.448C138.701 111.526 138.919 111.61 139.117 111.695C139.461 111.834 139.845 111.834 140.188 111.695C140.988 111.361 140.063 111.031 139.261 111.365ZM137.955 111.278C137.16 110.966 136.114 110.638 135.233 110.638C133.6 110.638 132.152 111.519 131.623 112.83L131.585 112.911L131.583 112.917C131.795 113.173 132.026 113.412 132.263 113.643C132.277 113.655 132.289 113.668 132.302 113.681C132.408 113.782 132.515 113.88 132.625 113.976C132.663 114.009 132.702 114.042 132.742 114.074C132.839 114.157 132.937 114.24 133.039 114.319C133.106 114.371 133.175 114.42 133.243 114.471C133.362 114.557 133.48 114.641 133.601 114.721C133.716 114.797 133.83 114.872 133.948 114.943C134.005 114.977 134.063 115.009 134.119 115.042C134.239 115.11 134.361 115.177 134.483 115.24C134.533 115.266 134.584 115.292 134.635 115.317C134.784 115.39 134.936 115.46 135.089 115.525C135.113 115.536 135.137 115.547 135.162 115.557C135.334 115.629 135.507 115.694 135.684 115.755C135.703 115.762 135.722 115.77 135.742 115.777L135.743 115.775L138.266 111.398L138.192 111.372C138.116 111.341 138.036 111.31 137.955 111.278Z" fill="#767676"/>
<path fill-rule="evenodd" clip-rule="evenodd" d="M63.2244 95.3727V45.4621C63.2244 42.3161 65.7648 39.7663 68.8984 39.7663H89.2943H99.7429C102.874 39.7663 105.412 42.3101 105.417 45.4521V118.074C105.396 119.554 104.784 120.964 103.715 121.986C102.648 123.007 101.217 123.557 99.7429 123.509H68.8984C67.4248 123.557 65.9931 123.007 64.9263 121.986C63.8595 120.964 63.2453 119.554 63.2244 118.074V95.3727ZM59.9941 70.9981V118.238C59.9931 120.54 60.9233 122.743 62.5753 124.348C64.2264 125.951 66.4567 126.819 68.7847 126.749L99.8845 126.75C102.185 126.819 104.415 125.951 106.067 124.348C107.718 122.743 108.649 120.54 108.648 118.238L108.627 45.319C108.621 40.4725 104.701 36.5403 99.8566 36.5243H75.2922C74.8276 36.5243 74.4587 36.1662 74.4129 35.712H69.6641C69.6182 36.1662 69.2503 36.5243 68.7857 36.5243C63.9323 36.5303 59.9991 40.4645 59.9941 45.318V61.0079C59.9941 61.5051 59.5913 61.9072 59.0958 61.9072C59.0788 61.9072 59.0629 61.8982 59.0449 61.8972V63.9169C59.0629 63.9159 59.0788 63.9069 59.0958 63.9069C59.5913 63.9069 59.9941 64.31 59.9941 64.8071V67.2559C59.9941 67.7531 59.5913 68.1562 59.0958 68.1562C59.0788 68.1562 59.0629 68.1462 59.0449 68.1452V70.1078C59.0629 70.1068 59.0788 70.0978 59.0958 70.0978C59.5913 70.0978 59.9941 70.5009 59.9941 70.9981Z" fill="white"/>
<path fill-rule="evenodd" clip-rule="evenodd" d="M68.8986 123.509H99.7432C101.217 123.556 102.648 123.008 103.715 121.986C104.783 120.964 105.395 119.554 105.417 118.074V45.4521C105.412 42.3101 102.873 39.7663 99.7432 39.7663H89.2945C76.5497 67.3819 67.8627 85.9107 63.2246 95.3727V118.074C63.2455 119.554 63.8587 120.964 64.9265 121.986C65.9933 123.008 67.424 123.556 68.8986 123.509Z" fill="#E5E5E5"/>
<path fill-rule="evenodd" clip-rule="evenodd" d="M68.8986 39.7661C65.764 39.7661 63.2246 42.3158 63.2246 45.4618V95.3724C67.8627 85.9105 76.5497 67.3817 89.2945 39.7661H68.8986Z" fill="#F2F2F2"/>
<path fill-rule="evenodd" clip-rule="evenodd" d="M110.421 45.3179C110.414 39.4781 105.693 34.7426 99.8585 34.7246H75.2911C74.7956 34.7246 74.3938 35.1267 74.3938 35.6249C74.3938 35.6559 74.4088 35.6819 74.4117 35.7119C74.4576 36.166 74.8265 36.5241 75.2911 36.5241H99.8555C104.7 36.5401 108.62 40.4724 108.626 45.3189L108.647 118.238C108.648 120.539 107.717 122.743 106.066 124.348C104.415 125.951 102.184 126.818 99.8834 126.749L68.7836 126.748C66.4556 126.818 64.2253 125.951 62.5742 124.348C60.9232 122.743 59.992 120.539 59.993 118.238V70.9979C59.993 70.5008 59.5912 70.0976 59.0957 70.0976C59.0777 70.0976 59.0618 70.1066 59.0438 70.1076C58.5732 70.1367 58.1983 70.5188 58.1983 70.9979V118.237C58.1973 121.027 59.325 123.697 61.326 125.641C63.325 127.584 66.0259 128.633 68.8115 128.549H99.8555C102.614 128.633 105.315 127.584 107.315 125.641C109.315 123.697 110.443 121.027 110.442 118.237L110.421 45.3179ZM59.9929 61.0074V45.3185C59.9978 40.465 63.9311 36.5297 68.7845 36.5247C69.2491 36.5237 69.617 36.1656 69.6629 35.7125C69.6669 35.6815 69.6818 35.6545 69.6818 35.6235C69.6808 35.1263 69.278 34.7242 68.7825 34.7242C62.94 34.7302 58.2042 39.4687 58.1982 45.3175V61.0074C58.1982 61.4865 58.5731 61.8687 59.0437 61.8977C59.0617 61.8987 59.0776 61.9077 59.0956 61.9077C59.5911 61.9077 59.9929 61.5046 59.9929 61.0074Z" fill="#595959"/>
<path fill-rule="evenodd" clip-rule="evenodd" d="M59.9929 67.2555V64.8067C59.9929 64.3096 59.5911 63.9064 59.0956 63.9064C59.0776 63.9064 59.0617 63.9164 59.0437 63.9174C58.5731 63.9454 58.1982 64.3286 58.1982 64.8067V67.2555C58.1982 67.7346 58.5731 68.1167 59.0437 68.1458C59.0617 68.1468 59.0776 68.1558 59.0956 68.1558C59.5911 68.1558 59.9929 67.7526 59.9929 67.2555Z" fill="#595959"/>
<path fill-rule="evenodd" clip-rule="evenodd" d="M82.0251 45.931H90.0012C90.4967 45.931 90.8985 45.528 90.8985 45.031C90.8985 44.534 90.4967 44.131 90.0012 44.131H82.0251C81.5296 44.131 81.1288 44.534 81.1288 45.031C81.1288 45.528 81.5296 45.931 82.0251 45.931ZM78.0371 46.0311C78.5884 46.0311 79.0341 45.5831 79.0341 45.0311C79.0341 44.4791 78.5884 44.0311 78.0371 44.0311C77.4867 44.0311 77.04 44.4791 77.04 45.0311C77.04 45.5831 77.4867 46.0311 78.0371 46.0311Z" fill="#767676"/>
<path fill-rule="evenodd" clip-rule="evenodd" d="M46.6954 58.9586L45.5748 60.0839L44.1959 58.7005L42.812 60.0889L41.6914 58.9646L43.0753 57.5761L41.6964 56.1927L42.818 55.0684L44.1969 56.4518L45.5807 55.0634L46.7014 56.1867L45.3165 57.5751L46.6954 58.9586Z" fill="#595959"/>
<path fill-rule="evenodd" clip-rule="evenodd" d="M123.885 97.6996L123.073 98.5148L122.07 97.5095L121.066 98.5158L120.251 97.6986L121.254 96.6923L120.251 95.6859L121.066 94.8697L122.068 95.876L123.072 94.8697L123.886 95.6869L122.882 96.6933L123.885 97.6996Z" fill="#999999"/>
<path fill-rule="evenodd" clip-rule="evenodd" d="M42.3085 72.0173C26.5597 72.0173 13.793 84.8173 13.793 100.608C13.793 116.398 26.5597 129.199 42.3075 129.199C58.0483 129.181 70.8051 116.39 70.823 100.608C70.823 84.8173 58.0563 72.0173 42.3085 72.0173Z" fill="white"/>
<path fill-rule="evenodd" clip-rule="evenodd" d="M35.1523 97.8775C35.7406 102.613 39.3926 106.382 44.0965 107.107C43.5083 107.215 42.9101 107.269 42.3119 107.267C46.8184 107.39 50.6838 104.069 51.2551 99.586L52.4186 90.2031C52.7954 87.8594 52.1115 85.4686 50.5532 83.6811C48.4664 81.3183 45.4704 79.9649 42.3218 79.9649C42.3159 79.9649 42.3099 79.9659 42.3039 79.9659L34.582 93.3501L35.1523 97.8775Z" fill="#D9D9D9"/>
<path fill-rule="evenodd" clip-rule="evenodd" d="M33.3733 99.5597C33.9236 104.056 37.794 107.394 42.3095 107.268H42.3105C42.9087 107.269 43.5069 107.215 44.0951 107.107C39.3912 106.382 35.7392 102.613 35.1509 97.8772L34.5807 93.3498L32.9595 96.1617L32.2108 90.1758C31.9814 88.7293 32.1579 87.2659 32.6913 85.9385C32.1479 87.2689 31.9655 88.7324 32.1968 90.1758L33.3733 99.5597Z" fill="#E5E5E5"/>
<path fill-rule="evenodd" clip-rule="evenodd" d="M32.2116 90.1759L32.9604 96.1618L34.5815 93.3499L42.3034 79.9657L42.3183 79.9417C39.1727 79.9467 36.1787 81.2981 34.09 83.6539C33.8068 83.978 33.5626 84.3271 33.3382 84.6862C33.2674 84.8002 33.1907 84.9133 33.1259 85.0313C33.085 85.1043 33.0491 85.1784 33.0112 85.2524C32.9095 85.4484 32.8128 85.6455 32.7281 85.8486C32.7161 85.8786 32.7041 85.9076 32.6922 85.9386C32.1588 87.266 31.9823 88.7295 32.2116 90.1759Z" fill="#E5E5E5"/>
<path fill-rule="evenodd" clip-rule="evenodd" d="M32.6695 127.893C32.1142 127.7 31.5638 127.494 31.0225 127.268C31.5648 127.495 32.1152 127.699 32.6695 127.893Z" fill="#EC0000"/>
<path fill-rule="evenodd" clip-rule="evenodd" d="M31.2424 111.716C34.033 111.716 37.3381 112.754 39.8506 113.738C39.9213 113.76 39.9941 113.777 40.0659 113.801C37.5255 112.796 34.1167 111.696 31.2493 111.696C26.0888 111.696 21.5095 114.478 19.8385 118.626L19.7139 118.898L19.7119 118.902C19.7129 118.903 19.7129 118.903 19.7139 118.904L19.8326 118.646C21.5025 114.498 26.0818 111.716 31.2424 111.716Z" fill="#990000"/>
<path fill-rule="evenodd" clip-rule="evenodd" d="M64.8518 118.707C63.3014 114.384 58.8956 111.696 53.3482 111.696C50.1997 111.696 46.5157 112.949 43.9893 114.009C43.7281 114.116 43.4569 114.195 43.1827 114.25C43.1608 114.255 43.1388 114.258 43.1169 114.262C42.8906 114.305 42.6583 114.323 42.428 114.332C42.2844 114.338 42.1418 114.329 41.9983 114.32C41.9165 114.316 41.8358 114.31 41.754 114.3C41.3632 114.253 40.9783 114.16 40.6074 114.009C38.0341 112.949 34.3243 111.689 31.2495 111.689C26.0889 111.689 21.5097 114.471 19.8387 118.62L19.7121 118.894C19.7121 118.895 19.7131 118.896 19.7141 118.897L19.8387 118.626C21.5097 114.478 26.0889 111.696 31.2495 111.696C34.1169 111.696 37.5257 112.795 40.0661 113.801C39.9943 113.777 39.9215 113.761 39.8507 113.738C37.3382 112.753 34.0331 111.716 31.2425 111.716C26.082 111.716 21.5027 114.498 19.8327 118.646L19.7141 118.903L19.7051 118.921C20.3791 119.73 21.1039 120.488 21.8556 121.216C21.8965 121.256 21.9374 121.297 21.9783 121.336C22.3123 121.656 22.6522 121.967 22.9982 122.27C23.1198 122.375 23.2425 122.478 23.3651 122.582C23.6762 122.843 23.9872 123.105 24.3073 123.354C24.5196 123.519 24.739 123.674 24.9553 123.833C25.3262 124.105 25.7011 124.37 26.085 124.624C26.4469 124.864 26.8108 125.102 27.1837 125.325C27.3621 125.433 27.5446 125.534 27.726 125.637C28.1049 125.854 28.4858 126.064 28.8736 126.265C29.0331 126.347 29.1926 126.428 29.3542 126.507C29.8257 126.739 30.3043 126.96 30.7889 127.167C30.8666 127.2 30.9434 127.236 31.0212 127.269C31.5625 127.494 32.1139 127.7 32.6692 127.894C32.731 127.915 32.7909 127.942 32.8527 127.963L32.8567 127.957C35.8696 128.986 39.0571 129.54 42.3123 129.54C51.0491 129.54 59.3333 125.638 64.9126 118.894L64.8518 118.707Z" fill="#767676"/>
<path fill-rule="evenodd" clip-rule="evenodd" d="M43.9828 114.015C43.7236 114.122 43.4554 114.194 43.1822 114.249C43.1613 114.254 43.1383 114.257 43.1174 114.261C42.8901 114.305 42.6588 114.322 42.4275 114.332C42.2849 114.338 42.1413 114.328 41.9988 114.32C41.917 114.315 41.8362 114.309 41.7545 114.3C41.6618 114.289 41.5681 114.293 41.4763 114.276C42.2121 114.525 42.9001 114.787 43.5292 115.055C44.6129 115.497 45.8273 115.497 46.912 115.055C49.4454 114.002 46.5162 112.956 43.9828 114.015ZM39.8507 113.737C37.3382 112.754 34.0331 111.716 31.2425 111.716C26.082 111.716 21.5037 114.498 19.8327 118.647L19.7141 118.904L19.7051 118.922C20.3791 119.731 21.1039 120.489 21.8556 121.217C21.8965 121.257 21.9374 121.297 21.9783 121.337C22.3123 121.656 22.6522 121.967 22.9992 122.27C23.1198 122.375 23.2425 122.478 23.3651 122.582C23.6762 122.844 23.9872 123.105 24.3073 123.353C24.5196 123.519 24.739 123.674 24.9563 123.833C25.3272 124.105 25.7021 124.37 26.085 124.624C26.4479 124.865 26.8108 125.102 27.1837 125.325C27.3631 125.433 27.5446 125.534 27.726 125.637C28.1049 125.854 28.4868 126.065 28.8736 126.264C29.0331 126.346 29.1936 126.428 29.3542 126.507C29.8257 126.74 30.3043 126.961 30.7889 127.167C30.8666 127.2 30.9434 127.237 31.0222 127.269C31.5625 127.494 32.1139 127.7 32.6692 127.894C32.731 127.915 32.7909 127.943 32.8527 127.964L32.8567 127.957L40.8348 114.116L40.6005 114.036C40.3632 113.938 40.1069 113.837 39.8507 113.737Z" fill="#595959"/>
<path fill-rule="evenodd" clip-rule="evenodd" d="M42.3082 129.199C26.5604 129.199 13.7936 116.398 13.7936 100.608C13.7936 84.8173 26.5604 72.0173 42.3092 72.0173C58.057 72.0173 70.8237 84.8173 70.8237 100.608C70.8058 116.39 58.049 129.181 42.3082 129.199ZM42.3092 70.2167C25.5693 70.2167 12 83.823 12 100.608C12 117.393 25.5693 131 42.3102 131C59.04 130.981 72.5994 117.385 72.6173 100.609C72.6173 83.823 59.048 70.2167 42.3092 70.2167Z" fill="#595959"/>
<path fill-rule="evenodd" clip-rule="evenodd" d="M74.4978 98.7323C74.4978 82.1591 61.107 68.7229 44.5875 68.7229C38.2804 68.7229 32.4329 70.6865 27.6094 74.0306C31.9633 71.6038 36.9733 70.2164 42.3093 70.2164C59.0481 70.2164 72.6175 83.8236 72.6175 100.609C72.6095 108.139 69.8667 115.024 65.3403 120.332C70.9834 114.874 74.4978 107.217 74.4978 98.7323Z" fill="#E5E5E5"/>
</svg>
