<svg width="160" height="160" viewBox="0 0 160 160" fill="none" xmlns="http://www.w3.org/2000/svg">
<path fill-rule="evenodd" clip-rule="evenodd" d="M80.7912 124.943C122.266 128.273 143.002 118.96 143 97.0034C142.996 64.0701 118.648 67.474 107.577 59.0624C96.506 50.6519 103.042 59.0624 88.0948 40.3741C78.1296 27.9152 62.7215 27.8751 41.8708 40.2538C26.321 52.7528 24.6141 69.1138 36.7499 89.3367C48.8858 109.56 63.5659 121.429 80.7912 124.943Z" fill="#D9D9D9"/>
<path fill-rule="evenodd" clip-rule="evenodd" d="M112.214 97.8409L103.814 94.2697L100.495 98.8242L99.4138 100.208L93.5367 107.736L90.2058 103.247L87.9511 100.208L86.6127 98.4042L86.0812 97.6886L85.5325 98.4042L84.1485 100.208L81.9799 103.038L78.3878 107.72L72.047 99.601C71.7393 99.2061 71.8132 98.6398 72.211 98.3351C72.5796 98.0534 73.0939 98.0935 73.4138 98.4123L73.4897 98.4975L73.7489 98.8302L74.8251 100.208L78.3747 104.753L81.8614 100.208L83.2454 98.4042L84.9058 96.2382L75.9378 91.5143L74.16 90.5771L74.1235 90.558L70.8909 93.5179L69.8521 93.9579L71.1338 95.5576C71.4224 95.9185 71.389 96.4287 71.0711 96.7494L70.986 96.8246C70.5922 97.1343 70.0192 97.0691 69.7063 96.6782L68.1168 94.6956L60.7211 97.8409C56.229 99.7504 52.5701 103.093 50.2324 107.267C59.33 116.734 69.5099 122.642 80.7903 124.944C100.412 126.518 115.385 125.26 125.722 121.176L124.278 110.706C122.265 104.924 117.885 100.252 112.214 97.8409" fill="white"/>
<path fill-rule="evenodd" clip-rule="evenodd" d="M96.3209 85.8684C94.1918 87.5282 92.7308 88.5115 91.8956 88.713L91.6789 88.739H83.8306L83.6221 88.715C82.6076 88.4784 80.927 87.3418 78.5752 85.4564C78.2917 85.2299 78.0021 84.9943 77.7055 84.7508C77.253 84.3769 76.7933 83.989 76.3337 83.5971L76.0391 89.5229L86.469 95.0186L97.232 89.3474L96.6691 85.5947C96.5527 85.686 96.4343 85.7792 96.3209 85.8684" fill="#E5E5E5"/>
<path fill-rule="evenodd" clip-rule="evenodd" d="M68.4454 67.8783C68.4687 67.8733 68.4919 67.8652 68.5152 67.8542L69.5216 67.3972L69.7808 68.4626C70.2657 70.4573 70.9855 72.485 71.8765 74.4956C72.4869 75.8728 73.142 77.1588 73.796 78.3175C74.0248 78.7214 74.2364 79.0803 74.4247 79.389C74.4966 79.5052 74.5523 79.5965 74.5958 79.6636C74.6221 79.6867 74.6667 79.7278 74.6991 79.7568C74.7517 79.8039 74.7953 79.845 74.8661 79.9072C75.1526 80.1658 75.4756 80.4544 75.8279 80.7642C76.0324 80.9446 76.24 81.122 76.4465 81.3014C77.2544 82.006 78.0715 82.7047 78.8703 83.3632C79.1598 83.6027 79.4433 83.8323 79.7207 84.0548C81.7202 85.6575 83.2733 86.718 83.9526 86.9345H91.5458C92.0783 86.744 93.439 85.8169 95.1925 84.4507C95.3899 84.2954 95.5934 84.136 95.8009 83.9716C95.9832 83.8263 96.1715 83.6719 96.3568 83.5216C96.9004 83.0825 97.4482 82.6335 97.9969 82.1764C98.1477 82.0501 98.2996 81.9259 98.4505 81.7996C98.7572 81.54 99.0417 81.2994 99.2938 81.0829C99.394 80.9967 99.475 80.9275 99.5348 80.8764C99.5661 80.8343 99.6066 80.7782 99.6573 80.71C99.8041 80.5066 99.9721 80.269 100.157 79.9984C100.689 79.2206 101.249 78.3405 101.815 77.3743C103.425 74.6199 104.742 71.7392 105.553 68.8846L105.787 68.0627L106.629 68.2491L106.643 68.2521C107.615 68.4626 109.057 66.9431 109.595 64.6668C110.142 62.4016 109.553 60.4761 108.608 60.2616C108.368 60.2105 108.084 60.2686 107.765 60.4541L106.414 61.2399L106.392 59.6893C106.292 52.4615 105.521 47.925 103.332 44.3707C100.607 39.9465 95.7048 37.6211 87.7553 37.6211C80.1459 37.6211 75.3025 40.0327 72.493 44.5993C70.205 48.3179 69.2887 53.2103 69.1328 60.3007L69.0913 62.1991L67.6304 60.9672C67.3378 60.7207 67.1039 60.6445 66.9531 60.6796C66.2818 60.852 65.7989 62.6111 66.2302 64.6598C66.6757 66.7005 67.8065 68.0336 68.4454 67.8783" fill="#F2F2F2"/>
<path fill-rule="evenodd" clip-rule="evenodd" d="M96.5908 47.2333C94.5811 46.698 92.4733 46.7832 90.3765 46.9977C85.9229 47.4508 80.1926 49.7581 75.8159 48.0271C75.5922 47.9359 75.4261 48.1434 75.5041 48.3268C76.5914 51.6615 82.6174 51.1854 85.3448 50.8938C88.4165 50.57 91.5803 50.1831 94.6844 50.57C96.3893 50.8005 97.6376 51.8901 98.7938 53.0337C98.9558 53.3084 99.1056 53.603 99.2757 53.8717C101.885 58.306 102.264 65.3733 100.388 70.1895C99.2757 73.5162 95.5196 76.1173 92.9045 79.0902C90.1163 82.5412 85.5392 82.3577 80.6249 83.1195C82.178 84.3634 83.9092 85.9972 83.9092 86.9544H91.5803C93.2326 86.5334 99.9176 80.4423 99.9176 80.4423C99.9176 80.4423 106.87 70.8751 106.87 61.7329C106.87 51.2255 107.055 41.8949 96.5908 38.053C96.041 41.9129 95.7494 43.5357 96.5908 47.2333V47.2333ZM59.4862 112.404C60.369 104.093 64.1403 99.1848 70.7969 97.6783C70.7969 97.6783 70.0903 96.4835 68.6739 94.094L56.4267 99.0154L50.3359 106.863L56.4267 116.486L59.4862 119.163V112.404Z" fill="#E5E5E5"/>
<path fill-rule="evenodd" clip-rule="evenodd" d="M130.43 52.4547L129.228 53.6445L127.254 51.6899L125.285 53.6405L124.079 52.4457L126.048 50.4952L124.075 48.5406L125.276 47.3519L127.249 49.3064L129.219 47.3559L130.426 48.5496L128.456 50.5002L130.43 52.4547Z" fill="#999999"/>
<path fill-rule="evenodd" clip-rule="evenodd" d="M86.2875 105.423C86.0304 105.4 85.7793 105.343 85.59 105.225L84.048 104.307L81.6162 125.444L90.728 125.447L88.8064 104.109L86.983 105.219C86.7856 105.336 86.5386 105.4 86.2875 105.423" fill="#767676"/>
<path fill-rule="evenodd" clip-rule="evenodd" d="M88.8398 104.344L90.7503 125.447H92.9543L89.5161 103.901L88.8398 104.344Z" fill="#CCCCCC"/>
<path fill-rule="evenodd" clip-rule="evenodd" d="M102.007 93.9707L100.125 96.3502L98.5784 98.3288L98.5905 98.404H98.5217L97.1114 100.208L93.575 104.738L90.2138 100.208L88.8753 98.404L87.4823 96.5267L97.5153 91.2404L98.8123 90.5578L99.3266 91.0279L102.045 93.5177L102.007 93.9707ZM86.4678 95.0182L76.0389 89.5224L76.3335 83.5967C76.7931 83.9886 77.2528 84.3765 77.7053 84.7503C78.002 84.9939 78.2915 85.2295 78.574 85.456C80.9268 87.3414 82.6075 88.478 83.6219 88.7145L83.8305 88.7386H91.6787L91.8954 88.7125C92.7306 88.5111 94.1916 87.5278 96.3207 85.8679C96.4341 85.7787 96.5515 85.6855 96.669 85.5943L97.2319 89.347L86.4678 95.0182ZM75.8293 80.7641C75.477 80.4544 75.154 80.1657 74.8665 79.9071C74.7966 79.845 74.7521 79.8039 74.6995 79.7568C74.6671 79.7277 74.6225 79.6866 74.5972 79.6635C74.5537 79.5964 74.497 79.5042 74.4261 79.3889C74.2368 79.0802 74.0252 78.7214 73.7974 78.3164C73.1424 77.1587 72.4883 75.8717 71.8768 74.4946C70.9859 72.4849 70.2661 70.4572 69.7821 68.4626L69.5229 67.3971L68.5166 67.8542C68.4923 67.8652 68.47 67.8722 68.4467 67.8782C67.8079 68.0336 66.677 66.7005 66.2316 64.6597C65.9106 63.1352 66.0959 61.7741 66.4887 61.1045C67.1934 63.8088 68.5541 68.9156 69.0815 63.9431C69.116 62.8355 70.0221 52.7802 71.2947 50.99C71.6824 50.4337 72.0965 49.9536 72.5308 49.5457C72.9257 49.7111 73.279 49.8755 73.6172 49.9627C75.4324 50.4077 77.3429 50.3275 79.2118 50.2162C85.341 49.8173 92.2963 48.4491 98.4073 49.3352C99.7447 49.5216 101.15 49.8163 102.53 50.2533C102.723 50.4819 102.914 50.7274 103.095 50.99C104.357 52.7802 105.277 62.8355 105.314 63.9431C105.889 69.4679 107.493 62.5498 108.115 60.3107C108.294 60.2555 108.462 60.2305 108.609 60.2615C109.553 60.476 110.142 62.4015 109.596 64.6668C109.058 66.943 107.616 68.4626 106.644 68.2521L106.629 68.2491L105.788 68.0626L105.554 68.8845C104.742 71.7392 103.426 74.6198 101.816 77.3742C101.25 78.3405 100.689 79.2205 100.159 79.9983C99.9725 80.269 99.8044 80.5065 99.6586 80.71C99.608 80.7781 99.5675 80.8343 99.5361 80.8764C99.4764 80.9275 99.3954 80.9966 99.2942 81.0828C99.0421 81.2993 98.7586 81.5399 98.4508 81.7995C98.301 81.9258 98.1481 82.0501 97.9983 82.1754C97.4495 82.6334 96.9018 83.0825 96.3581 83.5215C96.1719 83.6718 95.9846 83.8262 95.8013 83.9715C95.5948 84.1359 95.3913 84.2953 95.1939 84.4506C93.4404 85.8168 92.0786 86.744 91.5471 86.9344H83.954C83.2746 86.7179 81.7216 85.6574 79.7211 84.0537C79.4447 83.8322 79.1612 83.6017 78.8706 83.3631C78.0718 82.7046 77.2558 82.005 76.4479 81.3013C76.2414 81.1219 76.0338 80.9445 75.8293 80.7641V80.7641ZM81.593 36.4353C80.2303 36.733 78.9779 37.1389 77.8268 37.6501C78.9769 37.1379 80.2313 36.733 81.593 36.4353ZM93.8089 36.3451C93.7714 36.3381 93.736 36.329 93.6975 36.322C93.656 36.2769 93.6135 36.2328 93.572 36.1897C93.653 36.2388 93.7279 36.295 93.8089 36.3451V36.3451ZM126.073 110.375L126.032 110.206C123.867 103.903 119.106 98.8069 112.934 96.1829L103.052 91.9821L99.0988 88.3627L98.9388 88.4469L98.3131 84.2702C98.7525 83.9084 99.1949 83.5415 99.6313 83.1737C99.9441 82.9111 100.231 82.6665 100.487 82.447C100.641 82.3157 100.751 82.2205 100.809 82.1704L100.935 82.035C100.974 81.9849 101.043 81.8937 101.138 81.7614C101.295 81.5459 101.473 81.2943 101.667 81.0087C102.221 80.1988 102.805 79.2827 103.392 78.2783C104.945 75.6222 106.238 72.8497 107.102 70.0653C108.989 69.8849 110.729 67.788 111.368 65.0817C111.689 63.7567 111.704 62.4596 111.449 61.3651C111.105 59.8917 110.269 58.7871 109.004 58.5005C108.86 58.4694 108.715 58.4523 108.569 58.4453C108.862 56.9158 109.13 54.8009 109.295 52.6379C109.402 51.7819 109.49 50.5961 109.459 49.2941C109.495 47.2063 109.379 45.381 109.027 44.4108C108.495 42.9414 107.712 41.6825 106.74 40.5959C106.562 40.209 106.366 39.8472 106.142 39.5254C102.393 34.139 92.6284 29.5022 80.1696 31.7644C75.475 32.6044 73.2537 34.9458 72.22 36.4463C69.0097 37.618 66.5586 39.6187 65.3538 42.9474C64.4224 45.5324 65.1574 55.4233 65.9795 59.159C64.4669 59.9869 63.903 62.4476 64.4487 65.0346C65.0106 67.6146 66.5211 69.6092 68.219 69.6944C68.7181 71.5347 69.3954 73.387 70.2084 75.2202C70.8442 76.6536 71.5255 77.9907 72.2059 79.1975C72.4458 79.6204 72.6685 79.9983 72.868 80.3251C72.9895 80.5235 73.0786 80.6629 73.1272 80.738L73.1889 80.8333L73.274 80.9104C73.3418 80.9716 73.4663 81.0848 73.6405 81.2422C73.9229 81.4958 74.2408 81.7795 74.584 82.0822L74.2601 88.5852L73.8379 88.3627L69.8844 91.9821L60.0032 96.1829C55.3167 98.1745 51.4482 101.594 48.907 105.883C49.3434 106.36 49.7909 106.807 50.2333 107.267C52.571 103.093 56.2299 99.7501 60.722 97.8407L68.1177 94.6954L69.7072 96.678C70.02 97.0689 70.5931 97.1341 70.9869 96.8243L71.072 96.7482C71.3899 96.4284 71.4233 95.9172 71.1347 95.5574L69.853 93.9577L70.8917 93.5177L74.1244 90.5578L74.1608 90.5769L75.9387 91.514L84.9067 96.238L83.2463 98.404L81.8623 100.208L78.3755 104.753L74.826 100.208L73.7498 98.83L73.4906 98.4972L73.4147 98.412C73.0948 98.0933 72.5805 98.0532 72.2119 98.3349C71.8141 98.6396 71.7401 99.2059 72.0479 99.6008L78.3887 107.72L81.9808 103.037C82.0152 103.071 82.0486 103.107 82.0901 103.132L82.9557 103.655L84.0481 104.307L85.589 105.225C85.7794 105.343 86.0305 105.4 86.2876 105.423C86.5387 105.4 86.7857 105.336 86.9821 105.219L88.8065 104.109L89.6063 103.622L90.2067 103.246L93.5375 107.735L99.4146 100.208L100.496 98.824L103.815 94.2684L112.215 97.8407C117.886 100.251 122.266 104.924 124.279 110.706L125.723 121.176C126.317 120.941 126.901 120.702 127.463 120.449L126.073 110.375Z" fill="#595959"/>
<path fill-rule="evenodd" clip-rule="evenodd" d="M36.5163 128.359C47.1406 128.359 55.7522 119.833 55.7522 109.315C55.7522 98.7968 47.1406 90.271 36.5163 90.271C25.8929 90.271 17.2803 98.7968 17.2803 109.315C17.2803 119.833 25.8929 128.359 36.5163 128.359" fill="white"/>
<path fill-rule="evenodd" clip-rule="evenodd" d="M18.292 108.971C18.5765 103.308 21.1389 98.0042 25.3901 94.2806L52.2192 119.388C48.6018 124.339 42.9454 127.37 36.8405 127.628C26.6151 128.202 18.292 119.278 18.292 108.971" fill="#F2F2F2"/>
<path fill-rule="evenodd" clip-rule="evenodd" d="M27.4826 91.607C28.2034 92.1603 28.2389 93.364 27.9321 95.3597C27.8552 95.8659 27.7539 96.4141 27.6304 96.9965C27.4441 97.8815 27.2194 98.8037 26.9774 99.7088C26.8924 100.025 26.8124 100.317 26.7385 100.579C26.6929 100.736 26.6605 100.848 26.6423 100.91C26.5157 101.334 26.0713 101.591 25.6501 101.485C25.2289 101.379 24.989 100.95 25.1156 100.525C25.1318 100.471 25.1631 100.363 25.2057 100.213C25.2775 99.9593 25.3555 99.6757 25.4385 99.368C25.6734 98.4889 25.8921 97.5949 26.0713 96.7409C26.1887 96.1856 26.2849 95.6654 26.3578 95.1913C26.4074 94.8715 26.4449 94.5749 26.4702 94.3052C21.7169 97.6841 18.8213 103.124 18.8213 109.053C18.8213 119.073 27.027 127.195 37.1472 127.195C47.2673 127.195 55.472 119.073 55.472 109.053C55.472 105.995 54.7076 103.05 53.271 100.424L53.0381 100.012L54.6175 99.1124C56.3619 102.111 57.2933 105.516 57.2933 109.053C57.2933 120.069 48.2736 129 37.1472 129C26.0207 129 17 120.069 17 109.053C17 102.862 19.8712 97.1548 24.6357 93.4172C24.1173 93.6267 23.5291 93.8923 22.8872 94.206C22.0763 94.6029 21.2289 95.053 20.3977 95.518C20.1071 95.6804 19.8378 95.8338 19.5999 95.9721C19.4571 96.0553 19.3569 96.1144 19.3043 96.1455C18.9206 96.375 18.4346 96.2598 18.222 95.8879C18.0074 95.516 18.145 95.0289 18.5298 94.7994C18.5875 94.7643 18.6938 94.7022 18.8426 94.616C19.0886 94.4726 19.365 94.3153 19.6637 94.1479C20.5202 93.6688 21.3939 93.2047 22.2352 92.7927C23.2851 92.2785 24.2125 91.8816 24.9799 91.63C26.1249 91.2572 26.9248 91.18 27.4826 91.607V91.607ZM32.3928 102.541C33.6695 102.541 34.6931 102.871 35.4635 103.531C36.234 104.191 36.6187 105.079 36.6187 106.196C36.6187 106.809 36.5073 107.393 36.2846 107.944C36.0639 108.495 35.7217 109.064 35.262 109.65C34.8014 110.235 34.036 111.028 32.9648 112.026L30.5796 114.314V114.407H37.0975V116.331H27.7904V114.676L31.3308 111.152C32.3766 110.092 33.0701 109.34 33.4103 108.897C33.7525 108.454 34.0006 108.037 34.1585 107.646C34.3144 107.255 34.3924 106.837 34.3924 106.391C34.3924 105.777 34.2071 105.294 33.8335 104.94C33.4609 104.587 32.9456 104.41 32.2886 104.41C31.7631 104.41 31.2549 104.506 30.7618 104.698C30.2708 104.891 29.7018 105.238 29.0579 105.74L27.8653 104.298C28.6287 103.66 29.3708 103.208 30.0906 102.941C30.8104 102.675 31.5778 102.541 32.3928 102.541V102.541ZM46.3207 102.699V111.551H48.1724V113.365H46.3207V116.331H44.1703V113.365H37.8963V111.682L44.1703 102.699H46.3207ZM44.2645 105.154H44.1895C44.0134 105.563 43.739 106.058 43.3634 106.642L39.9526 111.551H44.1703V108.139C44.1703 106.923 44.2017 105.929 44.2645 105.154V105.154Z" fill="#767676"/>
<path fill-rule="evenodd" clip-rule="evenodd" d="M102.008 93.971L102.045 93.5179L99.3267 91.0281L98.8124 90.558L97.5155 91.2406L87.4824 96.5269L88.8755 98.4042L90.2139 100.208L93.5752 104.738L97.1115 100.208L98.5219 98.4042H98.5907L98.5785 98.3291L100.126 96.3505L102.008 93.971Z" fill="#F2F2F2"/>
<path fill-rule="evenodd" clip-rule="evenodd" d="M99.5857 47.2153C98.9499 45.3489 98.3111 43.5979 97.4222 41.8398C99.1716 42.6407 100.828 44.5671 102.302 45.801C101.156 43.3433 99.6708 41.2815 97.8565 39.5084C97.2865 39.2378 96.6831 38.9952 96.0443 38.7827C96.6882 39.4573 97.329 40.1308 97.9729 40.8054C96.6153 39.9444 95.2617 39.0784 93.9101 38.2194C94.6684 39.2067 95.4206 40.194 96.1789 41.1813C94.4872 39.6998 92.5302 38.5341 90.4365 37.7192C90.1935 37.7012 89.9434 37.6892 89.6934 37.6761C93.3917 40.3935 96.7388 43.6029 99.5857 47.2153Z" fill="#333333"/>
<path fill-rule="evenodd" clip-rule="evenodd" d="M89.3207 81.5976C88.7851 81.5976 88.29 81.2498 88.126 80.7095C87.9266 80.048 88.2992 79.3494 88.9593 79.1489L93.4585 77.7807C99.8701 75.8332 104.893 70.8426 106.893 64.4338C107.1 63.7742 107.799 63.4064 108.457 63.6139C109.116 63.8193 109.482 64.522 109.276 65.1815C107.028 72.3812 101.386 77.9872 94.1833 80.1763L89.6831 81.5435C89.5627 81.5795 89.4402 81.5976 89.3207 81.5976" fill="#767676"/>
<path fill-rule="evenodd" clip-rule="evenodd" d="M66.8788 69.3857H64.29V55.729C64.29 44.4689 74.5094 35.3066 87.0695 35.3066C99.6316 35.3066 109.849 44.4689 109.849 55.729V68.8344H107.262V55.729C107.262 45.7479 98.2031 37.627 87.0695 37.627C75.9369 37.627 66.8788 45.7479 66.8788 55.729V69.3857Z" fill="#767676"/>
<path fill-rule="evenodd" clip-rule="evenodd" d="M65.8346 55.3154C63.0383 55.3154 60.7725 57.3431 60.7725 59.8459V65.8208C60.7725 68.3226 63.0383 70.3503 65.8346 70.3503V70.3483V55.3184V55.3154Z" fill="#595959"/>
<path fill-rule="evenodd" clip-rule="evenodd" d="M68.7457 54.3131H66.97C66.3423 54.3131 65.833 54.7632 65.833 55.3184V70.3483C65.833 70.9026 66.3423 71.3526 66.97 71.3526H68.7457C69.3734 71.3526 69.8827 70.9026 69.8827 70.3483V55.3184C69.8827 54.7632 69.3734 54.3131 68.7457 54.3131" fill="#767676"/>
<path fill-rule="evenodd" clip-rule="evenodd" d="M109.368 55.3154V55.3174V70.3483V70.3503C112.164 70.3503 114.43 68.3226 114.43 65.8208V59.8459C114.43 57.3431 112.164 55.3154 109.368 55.3154" fill="#595959"/>
<path fill-rule="evenodd" clip-rule="evenodd" d="M108.23 54.3131H106.454C105.827 54.3131 105.317 54.7632 105.317 55.3174V70.3483C105.317 70.9026 105.827 71.3526 106.454 71.3526H108.23C108.858 71.3526 109.367 70.9026 109.367 70.3483V55.3174C109.367 54.7632 108.858 54.3131 108.23 54.3131Z" fill="#767676"/>
</svg>
