<svg width="160" height="160" viewBox="0 0 160 160" fill="none" xmlns="http://www.w3.org/2000/svg">
<path fill-rule="evenodd" clip-rule="evenodd" d="M80.7908 124.943C122.266 128.273 143.002 118.96 143 97.0034C142.996 64.0701 118.647 67.474 107.576 59.0624C96.5056 50.6519 103.042 59.0624 88.0944 40.3741C78.1292 27.9152 62.7212 27.8751 41.8705 40.2538C26.3208 52.7528 24.6138 69.1138 36.7497 89.3367C48.8855 109.56 63.5656 121.429 80.7908 124.943Z" fill="#E5E5E5"/>
<path fill-rule="evenodd" clip-rule="evenodd" d="M112.214 97.841L103.814 94.2697L100.495 98.8243L99.4136 100.208L93.5365 107.736L90.2057 103.248L87.951 100.208L86.6126 98.4043L86.0811 97.6886L85.5324 98.4043L84.1484 100.208L81.9798 103.038L78.3877 107.72L72.047 99.6011C71.7392 99.2062 71.8131 98.6399 72.211 98.3351C72.5795 98.0535 73.0938 98.0936 73.4137 98.4123L73.4897 98.4975L73.7488 98.8303L74.825 100.208L78.3746 104.753L81.8613 100.208L83.2453 98.4043L84.9057 96.2383L75.9377 91.5143L74.1599 90.5772L74.1234 90.5581L70.8908 93.518L69.852 93.958L71.1338 95.5577C71.4223 95.9185 71.3889 96.4287 71.071 96.7495L70.986 96.8246C70.5921 97.1344 70.0191 97.0692 69.7063 96.6783L68.1168 94.6957L60.7211 97.841C56.229 99.7504 52.5701 103.093 50.2324 107.267C59.33 116.734 69.5099 122.643 80.7902 124.944C100.412 126.519 115.384 125.26 125.722 121.176L124.278 110.706C122.265 104.924 117.885 100.252 112.214 97.841" fill="white"/>
<path fill-rule="evenodd" clip-rule="evenodd" d="M96.3204 85.8684C94.1913 87.5283 92.7304 88.5116 91.8952 88.713L91.6785 88.7391H83.8303L83.6217 88.715C82.6073 88.4785 80.9266 87.3419 78.5748 85.4565C78.2913 85.23 78.0018 84.9944 77.7051 84.7508C77.2526 84.377 76.7929 83.9891 76.3333 83.5972L76.0387 89.5229L86.4686 95.0187L97.2316 89.3475L96.6687 85.5948C96.5523 85.686 96.4338 85.7792 96.3204 85.8684" fill="#F6C7B4"/>
<path fill-rule="evenodd" clip-rule="evenodd" d="M68.446 67.8783C68.4693 67.8733 68.4925 67.8652 68.5158 67.8542L69.5222 67.3972L69.7814 68.4626C70.2663 70.4573 70.9861 72.485 71.8771 74.4956C72.4875 75.8728 73.1426 77.1588 73.7966 78.3175C74.0254 78.7214 74.237 79.0803 74.4253 79.389C74.4972 79.5052 74.5529 79.5965 74.5964 79.6636C74.6227 79.6867 74.6673 79.7278 74.6997 79.7568C74.7523 79.8039 74.7959 79.845 74.8667 79.9072C75.1532 80.1658 75.4762 80.4544 75.8285 80.7642C76.033 80.9446 76.2406 81.122 76.4471 81.3014C77.255 82.006 78.072 82.7047 78.8708 83.3632C79.1604 83.6027 79.4439 83.8323 79.7213 84.0548C81.7208 85.6575 83.2738 86.718 83.9532 86.9345H91.5463C92.0788 86.744 93.4395 85.8169 95.193 84.4507C95.3904 84.2954 95.5939 84.136 95.8015 83.9716C95.9837 83.8263 96.172 83.6719 96.3573 83.5216C96.901 83.0825 97.4487 82.6335 97.9974 82.1764C98.1483 82.0501 98.3001 81.9259 98.451 81.7996C98.7577 81.54 99.0422 81.2994 99.2943 81.0829C99.3945 80.9967 99.4755 80.9275 99.5353 80.8764C99.5667 80.8343 99.6072 80.7782 99.6578 80.71C99.8046 80.5066 99.9726 80.269 100.158 79.9984C100.689 79.2206 101.249 78.3405 101.815 77.3743C103.426 74.6199 104.742 71.7392 105.553 68.8846L105.788 68.0627L106.629 68.2491L106.643 68.2521C107.615 68.4626 109.057 66.9431 109.596 64.6668C110.142 62.4016 109.553 60.4761 108.609 60.2616C108.369 60.2105 108.084 60.2686 107.765 60.4541L106.415 61.2399L106.392 59.6893C106.292 52.4615 105.522 47.925 103.333 44.3707C100.607 39.9465 95.7053 37.6211 87.7558 37.6211C80.1465 37.6211 75.3031 40.0327 72.4936 44.5993C70.2056 48.3179 69.2893 53.2103 69.1334 60.3007L69.0919 62.1991L67.631 60.9672C67.3384 60.7207 67.1045 60.6445 66.9537 60.6796C66.2824 60.852 65.7995 62.6111 66.2308 64.6598C66.6763 66.7005 67.8071 68.0336 68.446 67.8783" fill="#FEDAC6"/>
<path fill-rule="evenodd" clip-rule="evenodd" d="M96.5897 47.2333C94.58 46.698 92.4722 46.7832 90.3754 46.9977C85.9218 47.4508 80.1915 49.7581 75.8149 48.0271C75.5911 47.9359 75.4251 48.1434 75.503 48.3268C76.5904 51.6615 82.6163 51.1854 85.3437 50.8938C88.4154 50.57 91.5792 50.1831 94.6833 50.57C96.3882 50.8005 97.6365 51.8901 98.7927 53.0337C98.9547 53.3084 99.1045 53.603 99.2746 53.8717C101.884 58.306 102.263 65.3733 100.387 70.1895C99.2746 73.5162 95.5185 76.1173 92.9034 79.0902C90.1153 82.5412 85.5381 82.3577 80.6238 83.1195C82.1769 84.3634 83.9081 85.9972 83.9081 86.9544H91.5792C93.2315 86.5334 99.9165 80.4423 99.9165 80.4423C99.9165 80.4423 106.869 70.8751 106.869 61.7329C106.869 51.2255 107.054 41.8949 96.5897 38.053C96.0399 41.9129 95.7483 43.5357 96.5897 47.2333" fill="#F6C7B4"/>
<path fill-rule="evenodd" clip-rule="evenodd" d="M59.486 112.404C60.3688 104.093 64.1401 99.1848 70.7967 97.6783C70.7967 97.6783 70.09 96.4835 68.6737 94.094L56.4265 99.0154L50.3358 106.863L56.4265 116.486L59.486 119.163V112.404Z" fill="#C6EDF6"/>
<path fill-rule="evenodd" clip-rule="evenodd" d="M130.43 52.4546L129.228 53.6444L127.254 51.6899L125.285 53.6404L124.079 52.4456L126.048 50.4951L124.075 48.5406L125.276 47.3518L127.249 49.3063L129.219 47.3558L130.426 48.5496L128.456 50.5001L130.43 52.4546Z" fill="#6EE3FF"/>
<path fill-rule="evenodd" clip-rule="evenodd" d="M86.2874 105.423C86.0303 105.4 85.7792 105.343 85.5899 105.225L84.048 104.307L81.6161 125.444L90.7279 125.447L88.8063 104.109L86.983 105.219C86.7855 105.336 86.5385 105.4 86.2874 105.423" fill="#0D4F80"/>
<path fill-rule="evenodd" clip-rule="evenodd" d="M88.8405 104.344L90.7509 125.447H92.9549L89.5167 103.901L88.8405 104.344Z" fill="#6EE3FF"/>
<path fill-rule="evenodd" clip-rule="evenodd" d="M102.008 93.9707L100.126 96.3502L98.5787 98.3288L98.5908 98.404H98.522L97.1117 100.208L93.5753 104.738L90.2141 100.208L88.8757 98.404L87.4826 96.5267L97.5156 91.2404L98.8125 90.5578L99.3268 91.0279L102.045 93.5177L102.008 93.9707ZM86.4681 95.0182L76.0392 89.5224L76.3338 83.5967C76.7935 83.9886 77.2531 84.3765 77.7057 84.7503C78.0023 84.9939 78.2919 85.2295 78.5743 85.456C80.9272 87.3414 82.6078 88.478 83.6222 88.7145L83.8308 88.7386H91.679L91.8957 88.7125C92.7309 88.5111 94.1919 87.5278 96.321 85.8679C96.4344 85.7787 96.5518 85.6855 96.6693 85.5943L97.2322 89.347L86.4681 95.0182ZM75.8297 80.7641C75.4773 80.4544 75.1544 80.1657 74.8669 79.9071C74.797 79.845 74.7524 79.8039 74.6998 79.7568C74.6674 79.7277 74.6229 79.6866 74.5975 79.6635C74.554 79.5964 74.4973 79.5042 74.4264 79.3889C74.2371 79.0802 74.0255 78.7214 73.7977 78.3164C73.1427 77.1587 72.4887 75.8717 71.8772 74.4946C70.9863 72.4849 70.2664 70.4572 69.7825 68.4626L69.5233 67.3971L68.517 67.8542C68.4927 67.8652 68.4704 67.8722 68.4471 67.8782C67.8083 68.0336 66.6774 66.7005 66.2319 64.6597C65.911 63.1352 66.0963 61.7741 66.4891 61.1045C67.1937 63.8088 68.5544 68.9156 69.0819 63.9431C69.1163 62.8355 70.0224 52.7802 71.295 50.99C71.6828 50.4337 72.0969 49.9536 72.5312 49.5457C72.926 49.7111 73.2794 49.8755 73.6175 49.9627C75.4328 50.4077 77.3432 50.3275 79.2121 50.2162C85.3413 49.8173 92.2966 48.4491 98.4076 49.3352C99.745 49.5216 101.15 49.8163 102.53 50.2533C102.723 50.4819 102.914 50.7274 103.095 50.99C104.358 52.7802 105.277 62.8355 105.314 63.9431C105.889 69.4679 107.493 62.5498 108.116 60.3107C108.294 60.2555 108.462 60.2305 108.61 60.2615C109.553 60.476 110.142 62.4015 109.596 64.6668C109.058 66.943 107.617 68.4626 106.645 68.2521L106.629 68.2491L105.788 68.0626L105.554 68.8845C104.742 71.7392 103.426 74.6198 101.816 77.3742C101.25 78.3405 100.69 79.2205 100.159 79.9983C99.9728 80.269 99.8047 80.5065 99.6589 80.71C99.6083 80.7781 99.5678 80.8343 99.5364 80.8764C99.4767 80.9275 99.3957 80.9966 99.2944 81.0828C99.0423 81.2993 98.7589 81.5399 98.4511 81.7995C98.3013 81.9258 98.1484 82.0501 97.9985 82.1754C97.4498 82.6334 96.9021 83.0825 96.3584 83.5215C96.1721 83.6718 95.9849 83.8262 95.8016 83.9715C95.5951 84.1359 95.3916 84.2953 95.1942 84.4506C93.4407 85.8168 92.0789 86.744 91.5474 86.9344H83.9543C83.275 86.7179 81.7219 85.6574 79.7214 84.0537C79.445 83.8322 79.1615 83.6017 78.871 83.3631C78.0722 82.7046 77.2562 82.005 76.4482 81.3013C76.2417 81.1219 76.0342 80.9445 75.8297 80.7641V80.7641ZM81.5934 36.4353C80.2306 36.733 78.9783 37.1389 77.8272 37.6501C78.9773 37.1379 80.2317 36.733 81.5934 36.4353ZM93.8092 36.3451C93.7717 36.3381 93.7363 36.329 93.6978 36.322C93.6563 36.2769 93.6138 36.2328 93.5723 36.1897C93.6533 36.2388 93.7282 36.295 93.8092 36.3451V36.3451ZM126.073 110.375L126.032 110.206C123.867 103.903 119.106 98.8069 112.935 96.1829L103.053 91.9821L99.099 88.3627L98.9391 88.4469L98.3134 84.2702C98.7528 83.9084 99.1952 83.5415 99.6316 83.1737C99.9444 82.9111 100.231 82.6665 100.487 82.447C100.641 82.3157 100.751 82.2205 100.809 82.1704L100.936 82.035C100.974 81.9849 101.043 81.8937 101.138 81.7614C101.295 81.5459 101.473 81.2943 101.668 81.0087C102.221 80.1988 102.806 79.2827 103.393 78.2783C104.946 75.6222 106.239 72.8497 107.102 70.0653C108.989 69.8849 110.73 67.788 111.369 65.0817C111.689 63.7567 111.705 62.4596 111.45 61.3651C111.105 59.8917 110.269 58.7871 109.005 58.5005C108.86 58.4694 108.715 58.4523 108.569 58.4453C108.862 56.9158 109.13 54.8009 109.295 52.6379C109.402 51.7819 109.49 50.5961 109.459 49.2941C109.496 47.2063 109.379 45.381 109.027 44.4108C108.495 42.9414 107.713 41.6825 106.74 40.5959C106.563 40.209 106.366 39.8472 106.142 39.5254C102.393 34.139 92.6287 29.5022 80.1699 31.7644C75.4753 32.6044 73.2541 34.9458 72.2204 36.4463C69.01 37.618 66.559 39.6187 65.3542 42.9474C64.4228 45.5324 65.1578 55.4233 65.9799 59.159C64.4673 59.9869 63.9034 62.4476 64.4491 65.0346C65.011 67.6146 66.5215 69.6092 68.2193 69.6944C68.7184 71.5347 69.3957 73.387 70.2087 75.2202C70.8445 76.6536 71.5259 77.9907 72.2062 79.1975C72.4462 79.6204 72.6689 79.9983 72.8683 80.3251C72.9898 80.5235 73.0789 80.6629 73.1275 80.738L73.1893 80.8333L73.2743 80.9104C73.3422 80.9716 73.4667 81.0848 73.6408 81.2422C73.9233 81.4958 74.2412 81.7795 74.5844 82.0822L74.2604 88.5852L73.8382 88.3627L69.8847 91.9821L60.0036 96.1829C55.3171 98.1745 51.4486 101.594 48.9075 105.883C49.3438 106.36 49.7913 106.807 50.2337 107.267C52.5714 103.093 56.2303 99.7501 60.7224 97.8407L68.1181 94.6954L69.7076 96.678C70.0204 97.0689 70.5934 97.1341 70.9873 96.8243L71.0723 96.7482C71.3902 96.4284 71.4236 95.9172 71.1351 95.5574L69.8534 93.9577L70.8921 93.5177L74.1247 90.5578L74.1612 90.5769L75.939 91.514L84.907 96.238L83.2466 98.404L81.8627 100.208L78.3759 104.753L74.8264 100.208L73.7502 98.83L73.491 98.4972L73.415 98.412C73.0951 98.0933 72.5808 98.0532 72.2123 98.3349C71.8144 98.6396 71.7405 99.2059 72.0483 99.6008L78.389 107.72L81.9811 103.037C82.0155 103.071 82.0489 103.107 82.0904 103.132L82.9561 103.655L84.0485 104.307L85.5894 105.225C85.7797 105.343 86.0308 105.4 86.2879 105.423C86.539 105.4 86.786 105.336 86.9824 105.219L88.8068 104.109L89.6066 103.622L90.207 103.246L93.5378 107.735L99.4149 100.208L100.496 98.824L103.815 94.2684L112.215 97.8407C117.886 100.251 122.266 104.924 124.279 110.706L125.724 121.176C126.317 120.941 126.901 120.702 127.463 120.449L126.073 110.375Z" fill="#0F2B4A"/>
<path fill-rule="evenodd" clip-rule="evenodd" d="M36.5155 128.359C47.1398 128.359 55.7514 119.833 55.7514 109.315C55.7514 98.7968 47.1398 90.271 36.5155 90.271C25.8922 90.271 17.2795 98.7968 17.2795 109.315C17.2795 119.833 25.8922 128.359 36.5155 128.359" fill="white"/>
<path fill-rule="evenodd" clip-rule="evenodd" d="M27.4826 91.607C28.2034 92.1603 28.2388 93.364 27.9321 95.3597C27.8551 95.8659 27.7539 96.4141 27.6304 96.9965C27.4441 97.8815 27.2193 98.8037 26.9774 99.7088C26.8923 100.025 26.8123 100.317 26.7384 100.579C26.6929 100.736 26.6605 100.848 26.6423 100.91C26.5157 101.334 26.0713 101.591 25.6501 101.485C25.2289 101.379 24.989 100.95 25.1155 100.525C25.1317 100.471 25.1631 100.363 25.2056 100.213C25.2775 99.9593 25.3555 99.6757 25.4385 99.368C25.6734 98.4889 25.8921 97.5949 26.0713 96.7409C26.1887 96.1856 26.2849 95.6654 26.3578 95.1913C26.4074 94.8715 26.4448 94.5749 26.4701 94.3052C21.7168 97.6841 18.8213 103.124 18.8213 109.053C18.8213 119.073 27.027 127.195 37.1471 127.195C47.2672 127.195 55.4718 119.073 55.4718 109.053C55.4718 105.995 54.7075 103.05 53.2708 100.424L53.038 100.012L54.6174 99.1124C56.3618 102.111 57.2932 105.516 57.2932 109.053C57.2932 120.069 48.2736 129 37.1471 129C26.0206 129 17 120.069 17 109.053C17 102.862 19.8712 97.1548 24.6356 93.4172C24.1173 93.6267 23.5291 93.8923 22.8872 94.206C22.0763 94.6029 21.2289 95.053 20.3977 95.518C20.1071 95.6804 19.8378 95.8338 19.5999 95.9721C19.4571 96.0553 19.3569 96.1144 19.3043 96.1455C18.9206 96.375 18.4346 96.2598 18.222 95.8879C18.0074 95.516 18.145 95.0289 18.5298 94.7994C18.5875 94.7643 18.6938 94.7022 18.8426 94.616C19.0886 94.4726 19.365 94.3153 19.6637 94.1479C20.5202 93.6688 21.3939 93.2047 22.2352 92.7927C23.2851 92.2785 24.2125 91.8816 24.9799 91.63C26.1249 91.2572 26.9247 91.18 27.4826 91.607ZM32.3928 102.541C33.6694 102.541 34.693 102.871 35.4634 103.531C36.2339 104.191 36.6186 105.079 36.6186 106.196C36.6186 106.809 36.5072 107.393 36.2845 107.944C36.0638 108.495 35.7216 109.064 35.262 109.65C34.8013 110.235 34.0359 111.028 32.9648 112.026L30.5795 114.314V114.407H37.0975V116.331H27.7903V114.676L31.3308 111.152C32.3766 110.092 33.0701 109.34 33.4103 108.897C33.7525 108.454 34.0005 108.037 34.1584 107.646C34.3144 107.255 34.3923 106.837 34.3923 106.391C34.3923 105.777 34.207 105.294 33.8335 104.94C33.4609 104.587 32.9456 104.41 32.2885 104.41C31.7631 104.41 31.2548 104.506 30.7618 104.698C30.2708 104.891 29.7018 105.238 29.0579 105.74L27.8653 104.298C28.6286 103.66 29.3707 103.208 30.0905 102.941C30.8104 102.675 31.5778 102.541 32.3928 102.541ZM46.3206 102.699V111.551H48.1723V113.365H46.3206V116.331H44.1702V113.365H37.8963V111.682L44.1702 102.699H46.3206ZM44.2644 105.154H44.1895C44.0133 105.563 43.7389 106.058 43.3633 106.642L39.9525 111.551H44.1702V108.139C44.1702 106.923 44.2016 105.929 44.2644 105.154Z" fill="#EC0000"/>
<path fill-rule="evenodd" clip-rule="evenodd" d="M102.008 93.971L102.046 93.518L99.3273 91.0282L98.813 90.5581L97.5161 91.2407L87.483 96.527L88.8761 98.4043L90.2145 100.208L93.5758 104.738L97.1121 100.208L98.5224 98.4043H98.5913L98.5791 98.3291L100.126 96.3505L102.008 93.971Z" fill="#E9F4F7"/>
<path fill-rule="evenodd" clip-rule="evenodd" d="M99.5853 47.2152C98.9495 45.3488 98.3106 43.5978 97.4217 41.8397C99.1712 42.6405 100.827 44.567 102.302 45.8009C101.156 43.3432 99.6703 41.2814 97.856 39.5083C97.2861 39.2376 96.6827 38.9951 96.0438 38.7826C96.6877 39.4572 97.3286 40.1307 97.9725 40.8053C96.6148 39.9443 95.2612 39.0783 93.9096 38.2193C94.668 39.2066 95.4202 40.1939 96.1785 41.1812C94.4867 39.6997 92.5297 38.534 90.436 37.7191C90.1931 37.7011 89.943 37.6891 89.6929 37.676C93.3913 40.3933 96.7383 43.6028 99.5853 47.2152Z" fill="#0D4F80"/>
<path fill-rule="evenodd" clip-rule="evenodd" d="M89.3201 81.5975C88.7845 81.5975 88.2894 81.2497 88.1254 80.7095C87.926 80.0479 88.2985 79.3493 88.9586 79.1488L93.4578 77.7807C99.8695 75.8332 104.892 70.8426 106.893 64.4337C107.099 63.7742 107.799 63.4063 108.457 63.6138C109.115 63.8193 109.481 64.5219 109.276 65.1814C107.027 72.3811 101.385 77.9872 94.1827 80.1762L89.6825 81.5434C89.562 81.5795 89.4395 81.5975 89.3201 81.5975" fill="#990000"/>
<path fill-rule="evenodd" clip-rule="evenodd" d="M66.879 69.3857H64.2902V55.729C64.2902 44.4689 74.5096 35.3066 87.0696 35.3066C99.6317 35.3066 109.849 44.4689 109.849 55.729V68.8344H107.262V55.729C107.262 45.7479 98.2032 37.627 87.0696 37.627C75.9371 37.627 66.879 45.7479 66.879 55.729V69.3857Z" fill="#990000"/>
<path fill-rule="evenodd" clip-rule="evenodd" d="M65.8342 55.3154C63.0379 55.3154 60.7721 57.3431 60.7721 59.8459V65.8208C60.7721 68.3226 63.0379 70.3503 65.8342 70.3503V70.3483V55.3184V55.3154Z" fill="#EC0000"/>
<path fill-rule="evenodd" clip-rule="evenodd" d="M68.7465 54.313H66.9707C66.343 54.313 65.8337 54.763 65.8337 55.3183V70.3482C65.8337 70.9025 66.343 71.3525 66.9707 71.3525H68.7465C69.3742 71.3525 69.8834 70.9025 69.8834 70.3482V55.3183C69.8834 54.763 69.3742 54.313 68.7465 54.313" fill="#990000"/>
<path fill-rule="evenodd" clip-rule="evenodd" d="M109.369 55.3154V55.3174V70.3483V70.3503C112.165 70.3503 114.431 68.3226 114.431 65.8208V59.8459C114.431 57.3431 112.165 55.3154 109.369 55.3154" fill="#EC0000"/>
<path fill-rule="evenodd" clip-rule="evenodd" d="M108.231 54.313H106.455C105.827 54.313 105.318 54.763 105.318 55.3173V70.3482C105.318 70.9025 105.827 71.3525 106.455 71.3525H108.231C108.858 71.3525 109.368 70.9025 109.368 70.3482V55.3173C109.368 54.763 108.858 54.313 108.231 54.313Z" fill="#990000"/>
</svg>
