<svg width="160" height="160" viewBox="0 0 160 160" fill="none" xmlns="http://www.w3.org/2000/svg">
<path fill-rule="evenodd" clip-rule="evenodd" d="M80.7915 124.944C122.266 128.273 143.003 118.961 143.001 97.0037C142.997 64.0702 118.648 67.4741 107.577 59.0626C96.5063 50.652 103.042 59.0626 88.0951 40.3742C78.1299 27.9153 62.7219 27.8752 41.8711 40.2539C26.3213 52.7529 24.6144 69.1139 36.7503 89.3369C48.8861 109.56 63.5662 121.429 80.7915 124.944Z" fill="#262626"/>
<path fill-rule="evenodd" clip-rule="evenodd" d="M112.214 97.841L103.814 94.2697L100.495 98.8243L99.4141 100.209L93.537 107.736L90.2061 103.248L87.9514 100.209L86.613 98.4043L86.0815 97.6887L85.5328 98.4043L84.1488 100.209L81.9802 103.038L78.3881 107.72L72.0473 99.6011C71.7396 99.2062 71.8135 98.6399 72.2113 98.3352C72.5799 98.0535 73.0942 98.0936 73.4141 98.4123L73.49 98.4975L73.7492 98.8303L74.8254 100.209L78.375 104.753L81.8617 100.209L83.2457 98.4043L84.9061 96.2383L75.9381 91.5143L74.1603 90.5772L74.1238 90.5581L70.8912 93.518L69.8524 93.958L71.1341 95.5577C71.4227 95.9186 71.3893 96.4287 71.0714 96.7495L70.9863 96.8247C70.5925 97.1344 70.0195 97.0692 69.7066 96.6783L68.1171 94.6957L60.7214 97.841C56.2293 99.7505 52.5704 103.093 50.2327 107.267C59.3303 116.734 69.5102 122.643 80.7906 124.944C100.412 126.519 115.385 125.26 125.723 121.176L124.278 110.706C122.265 104.924 117.886 100.252 112.214 97.841" fill="white"/>
<path fill-rule="evenodd" clip-rule="evenodd" d="M96.3212 85.8686C94.1921 87.5284 92.7311 88.5117 91.8959 88.7132L91.6792 88.7392H83.8309L83.6224 88.7152C82.6079 88.4786 80.9273 87.342 78.5755 85.4566C78.292 85.2301 78.0024 84.9945 77.7058 84.751C77.2533 84.3771 76.7936 83.9892 76.334 83.5973L76.0394 89.523L86.4693 95.0188L97.2324 89.3476L96.6694 85.5949C96.553 85.6861 96.4346 85.7794 96.3212 85.8686" fill="#BFBFBF"/>
<path fill-rule="evenodd" clip-rule="evenodd" d="M68.4457 67.8785C68.469 67.8735 68.4922 67.8654 68.5155 67.8544L69.5219 67.3974L69.7811 68.4628C70.266 70.4575 70.9858 72.4852 71.8768 74.4958C72.4873 75.873 73.1423 77.159 73.7963 78.3177C74.0251 78.7216 74.2367 79.0805 74.425 79.3892C74.4969 79.5055 74.5526 79.5967 74.5961 79.6638C74.6224 79.6869 74.667 79.728 74.6994 79.757C74.752 79.8042 74.7956 79.8453 74.8664 79.9074C75.153 80.166 75.4759 80.4547 75.8282 80.7644C76.0327 80.9448 76.2403 81.1222 76.4468 81.3016C77.2547 82.0063 78.0718 82.7049 78.8706 83.3634C79.1601 83.603 79.4436 83.8325 79.721 84.055C81.7205 85.6578 83.2736 86.7182 83.9529 86.9347H91.5461C92.0786 86.7443 93.4393 85.8171 95.1928 84.451C95.3902 84.2956 95.5937 84.1362 95.8013 83.9718C95.9835 83.8265 96.1718 83.6721 96.3571 83.5218C96.9007 83.0828 97.4485 82.6337 97.9972 82.1767C98.1481 82.0504 98.2999 81.9261 98.4508 81.7998C98.7575 81.5402 99.042 81.2996 99.2941 81.0831C99.3943 80.9969 99.4753 80.9278 99.5351 80.8767C99.5664 80.8346 99.6069 80.7784 99.6576 80.7103C99.8044 80.5068 99.9724 80.2692 100.158 79.9986C100.689 79.2208 101.249 78.3408 101.815 77.3745C103.426 74.6201 104.742 71.7394 105.553 68.8848L105.788 68.0629L106.629 68.2493L106.643 68.2523C107.615 68.4628 109.057 66.9433 109.595 64.667C110.142 62.4018 109.553 60.4763 108.608 60.2618C108.368 60.2107 108.084 60.2688 107.765 60.4542L106.414 61.2401L106.392 59.6895C106.292 52.4617 105.521 47.9251 103.333 44.3709C100.607 39.9466 95.7051 37.6212 87.7556 37.6212C80.1462 37.6212 75.3028 40.0328 72.4933 44.5994C70.2053 48.3181 69.289 53.2104 69.1331 60.3009L69.0916 62.1993L67.6307 60.9674C67.3381 60.7209 67.1042 60.6447 66.9534 60.6798C66.2821 60.8522 65.7992 62.6112 66.2305 64.66C66.676 66.7007 67.8068 68.0338 68.4457 67.8785" fill="#E5E5E5"/>
<path fill-rule="evenodd" clip-rule="evenodd" d="M96.5909 47.2334C94.5812 46.6982 92.4734 46.7834 90.3766 46.9979C85.923 47.4509 80.1927 49.7583 75.816 48.0273C75.5923 47.936 75.4262 48.1435 75.5042 48.327C76.5915 51.6617 82.6175 51.1856 85.3449 50.8939C88.4166 50.5702 91.5804 50.1833 94.6845 50.5702C96.3894 50.8007 97.6377 51.8902 98.7939 53.0339C98.9559 53.3085 99.1057 53.6032 99.2758 53.8718C101.885 58.3061 102.264 65.3735 100.388 70.1897C99.2758 73.5164 95.5197 76.1175 92.9047 79.0904C90.1165 82.5414 85.5393 82.358 80.625 83.1197C82.1781 84.3636 83.9093 85.9974 83.9093 86.9546H91.5804C93.2327 86.5337 99.9177 80.4425 99.9177 80.4425C99.9177 80.4425 106.87 70.8753 106.87 61.7331C106.87 51.2257 107.055 41.895 96.5909 38.0531C96.0411 41.9131 95.7496 43.5358 96.5909 47.2334" fill="#BFBFBF"/>
<path fill-rule="evenodd" clip-rule="evenodd" d="M130.43 52.455L129.229 53.6448L127.254 51.6905L125.285 53.6407L124.08 52.4459L126.049 50.4957L124.076 48.5405L125.276 47.3517L127.249 49.307L129.22 47.3558L130.426 48.5496L128.456 50.5008L130.43 52.455Z" fill="#999999"/>
<path fill-rule="evenodd" clip-rule="evenodd" d="M86.2878 105.424C86.0307 105.4 85.7796 105.343 85.5903 105.225L84.0484 104.307L81.6165 125.444L90.7283 125.447L88.8067 104.109L86.9834 105.219C86.7859 105.336 86.5389 105.4 86.2878 105.424" fill="#4C4C4C"/>
<path fill-rule="evenodd" clip-rule="evenodd" d="M88.8401 104.345L90.7506 125.447H92.9546L89.5164 103.901L88.8401 104.345Z" fill="#999999"/>
<path fill-rule="evenodd" clip-rule="evenodd" d="M71.809 97.6781C71.809 97.6781 71.6845 97.4686 71.4486 97.0697C71.1044 97.1609 70.7227 97.0506 70.4868 96.757L68.877 94.7483L61.3872 97.9337C59.0798 98.914 56.9922 100.271 55.1841 101.919L51.347 106.862L53.3597 110.043C55.6731 112.233 58.0512 114.206 60.4972 115.961V112.404C61.3811 104.093 65.1513 99.1846 71.809 97.6781" fill="#E5E5E5"/>
<path fill-rule="evenodd" clip-rule="evenodd" d="M102.008 93.9714L100.126 96.351L98.5789 98.3296L98.591 98.4047H98.5222L97.1119 100.209L93.5755 104.738L90.2143 100.209L88.8758 98.4047L87.4827 96.5274L97.5158 91.2411L98.8127 90.5585L99.3271 91.0286L102.045 93.5184L102.008 93.9714ZM86.4683 95.0189L76.0394 89.5231L76.334 83.5973C76.7936 83.9893 77.2533 84.3772 77.7058 84.751C78.0025 84.9946 78.292 85.2301 78.5745 85.4567C80.9273 87.342 82.608 88.4787 83.6224 88.7152L83.8309 88.7393H91.6792L91.8959 88.7132C92.7311 88.5118 94.1921 87.5285 96.3212 85.8686C96.4346 85.7794 96.552 85.6862 96.6695 85.595L97.2324 89.3477L86.4683 95.0189ZM75.8298 80.7648C75.4775 80.4551 75.1545 80.1664 74.867 79.9078C74.7971 79.8456 74.7526 79.8045 74.6999 79.7574C74.6675 79.7284 74.623 79.6873 74.5977 79.6642C74.5542 79.5971 74.4975 79.5048 74.4266 79.3896C74.2373 79.0809 74.0257 78.722 73.7979 78.3171C73.1428 77.1594 72.4888 75.8724 71.8773 74.4952C70.9864 72.4855 70.2666 70.4578 69.7826 68.4632L69.5234 67.3977L68.5171 67.8548C68.4928 67.8658 68.4705 67.8728 68.4472 67.8788C67.8084 68.0342 66.6775 66.7011 66.2321 64.6604C65.9111 63.1358 66.0964 61.7747 66.4892 61.1051C67.1939 63.8094 68.5546 68.9163 69.082 63.9437C69.1164 62.8361 70.0226 52.7808 71.2952 50.9906C71.6829 50.4343 72.097 49.9542 72.5313 49.5463C72.9262 49.7117 73.2795 49.876 73.6177 49.9633C75.4329 50.4083 77.3434 50.3281 79.2123 50.2168C85.3415 49.8179 92.2968 48.4497 98.4078 49.3358C99.7452 49.5222 101.15 49.8169 102.53 50.2539C102.724 50.4825 102.914 50.728 103.095 50.9906C104.358 52.7808 105.277 62.8361 105.314 63.9437C105.89 69.4685 107.493 62.5505 108.116 60.3113C108.294 60.2562 108.462 60.2311 108.61 60.2622C109.554 60.4767 110.143 62.4021 109.596 64.6674C109.058 66.9437 107.617 68.4632 106.645 68.2527L106.63 68.2497L105.788 68.0633L105.554 68.8852C104.742 71.7398 103.426 74.6205 101.817 77.3749C101.251 78.3411 100.69 79.2212 100.159 79.999C99.973 80.2696 99.8049 80.5072 99.6591 80.7106C99.6085 80.7788 99.568 80.8349 99.5366 80.877C99.4769 80.9281 99.3959 80.9973 99.2947 81.0835C99.0426 81.3 98.7591 81.5406 98.4513 81.8002C98.3015 81.9265 98.1486 82.0508 97.9988 82.176C97.45 82.6341 96.9023 83.0832 96.3586 83.5222C96.1723 83.6725 95.9851 83.8269 95.8018 83.9722C95.5953 84.1366 95.3918 84.296 95.1944 84.4513C93.4408 85.8175 92.0791 86.7447 91.5476 86.9351H83.9545C83.2751 86.7186 81.7221 85.6581 79.7215 84.0544C79.4451 83.8329 79.1617 83.6024 78.8711 83.3638C78.0723 82.7053 77.2563 82.0057 76.4484 81.302C76.2419 81.1226 76.0343 80.9452 75.8298 80.7648V80.7648ZM81.5935 36.4358C80.2308 36.7335 78.9784 37.1395 77.8273 37.6507C78.9774 37.1385 80.2318 36.7335 81.5935 36.4358ZM93.8094 36.3456C93.7719 36.3386 93.7365 36.3296 93.698 36.3226C93.6565 36.2775 93.614 36.2334 93.5725 36.1903C93.6534 36.2394 93.7284 36.2955 93.8094 36.3456V36.3456ZM126.073 110.376L126.033 110.207C123.867 103.903 119.107 98.8077 112.935 96.1836L103.053 91.9828L99.0993 88.3634L98.9393 88.4476L98.3136 84.2709C98.753 83.9091 99.1954 83.5422 99.6318 83.1744C99.9446 82.9118 100.231 82.6672 100.487 82.4477C100.641 82.3164 100.752 82.2212 100.809 82.171L100.936 82.0357C100.974 81.9856 101.043 81.8944 101.138 81.7621C101.295 81.5466 101.473 81.295 101.668 81.0093C102.222 80.1995 102.806 79.2833 103.393 78.279C104.946 75.6228 106.239 72.8504 107.102 70.0659C108.99 69.8855 110.73 67.7886 111.369 65.0824C111.69 63.7573 111.705 62.4603 111.45 61.3657C111.106 59.8923 110.269 58.7877 109.005 58.5011C108.86 58.47 108.715 58.453 108.569 58.4459C108.862 56.9164 109.13 54.8015 109.295 52.6385C109.403 51.7825 109.491 50.5967 109.459 49.2947C109.496 47.2069 109.379 45.3816 109.027 44.4114C108.496 42.9419 107.713 41.683 106.74 40.5965C106.563 40.2096 106.366 39.8478 106.143 39.526C102.394 34.1395 92.6289 29.5027 80.17 31.765C75.4755 32.6049 73.2542 34.9464 72.2205 36.4469C69.0101 37.6186 66.5591 39.6192 65.3543 42.948C64.4229 45.533 65.1579 55.4239 65.98 59.1596C64.4674 59.9875 63.9035 62.4482 64.4492 65.0352C65.0111 67.6152 66.5216 69.6099 68.2194 69.6951C68.7186 71.5353 69.3959 73.3876 70.2088 75.2209C70.8446 76.6542 71.526 77.9913 72.2064 79.1981C72.4463 79.6211 72.669 79.999 72.8685 80.3258C72.99 80.5242 73.0791 80.6635 73.1277 80.7387L73.1894 80.8339L73.2745 80.9111C73.3423 80.9722 73.4668 81.0855 73.641 81.2429C73.9234 81.4965 74.2413 81.7801 74.5845 82.0828L74.2606 88.5859L73.8384 88.3634L69.8849 91.9828L60.0037 96.1836C55.3172 98.1752 51.4487 101.595 48.9075 105.884C49.3439 106.361 49.7914 106.807 50.2338 107.267C52.5715 103.094 56.2304 99.7509 60.7225 97.8414L68.1182 94.6961L69.7077 96.6787C70.0205 97.0696 70.5936 97.1348 70.9874 96.8251L71.0724 96.7489C71.3903 96.4291 71.4237 95.918 71.1352 95.5581L69.8535 93.9584L70.8922 93.5184L74.1249 90.5585L74.1613 90.5776L75.9391 91.5147L84.9072 96.2387L83.2468 98.4047L81.8628 100.209L78.376 104.753L74.8265 100.209L73.7503 98.8307L73.4911 98.4979L73.4152 98.4127C73.0953 98.094 72.5809 98.0539 72.2124 98.3356C71.8145 98.6403 71.7406 99.2066 72.0484 99.6015L78.3892 107.72L81.9813 103.037C82.0157 103.072 82.0491 103.108 82.0906 103.133L82.9562 103.656L84.0486 104.307L85.5895 105.226C85.7799 105.344 86.0309 105.401 86.2881 105.424C86.5392 105.401 86.7862 105.337 86.9826 105.22L88.807 104.11L89.6068 103.623L90.2072 103.247L93.538 107.735L99.4151 100.209L100.496 98.8247L103.815 94.2691L112.215 97.8414C117.887 100.252 122.266 104.925 124.279 110.706L125.724 121.177C126.317 120.942 126.901 120.703 127.463 120.45L126.073 110.376Z" fill="#4C4C4C"/>
<path fill-rule="evenodd" clip-rule="evenodd" d="M36.5166 128.36C47.1409 128.36 55.7525 119.833 55.7525 109.316C55.7525 98.7972 47.1409 90.2714 36.5166 90.2714C25.8932 90.2714 17.2806 98.7972 17.2806 109.316C17.2806 119.833 25.8932 128.36 36.5166 128.36" fill="#191919"/>
<path fill-rule="evenodd" clip-rule="evenodd" d="M18.2923 108.971C18.5768 103.308 21.1392 98.0045 25.3904 94.2808L52.2195 119.388C48.6021 124.34 42.9457 127.371 36.8408 127.628C26.6154 128.203 18.2923 119.278 18.2923 108.971" fill="#262626"/>
<path fill-rule="evenodd" clip-rule="evenodd" d="M27.4829 91.6069C28.2037 92.1602 28.2392 93.364 27.9324 95.3596C27.8555 95.8658 27.7542 96.4141 27.6307 96.9964C27.4444 97.8815 27.2197 98.8036 26.9777 99.7087C26.8927 100.025 26.8127 100.317 26.7388 100.579C26.6932 100.736 26.6608 100.848 26.6426 100.91C26.516 101.333 26.0716 101.591 25.6504 101.485C25.2293 101.379 24.9893 100.95 25.1159 100.525C25.1321 100.47 25.1634 100.363 25.206 100.213C25.2778 99.9593 25.3558 99.6756 25.4388 99.3679C25.6737 98.4889 25.8924 97.5948 26.0716 96.7408C26.189 96.1855 26.2852 95.6653 26.3581 95.1912C26.4077 94.8715 26.4452 94.5748 26.4705 94.3052C21.7172 97.684 18.8216 103.124 18.8216 109.053C18.8216 119.073 27.0273 127.195 37.1475 127.195C47.2676 127.195 55.4723 119.073 55.4723 109.053C55.4723 105.995 54.7079 103.049 53.2713 100.424L53.0384 100.012L54.6178 99.1123C56.3622 102.111 57.2936 105.516 57.2936 109.053C57.2936 120.069 48.274 129 37.1475 129C26.021 129 17.0003 120.069 17.0003 109.053C17.0003 102.862 19.8715 97.1548 24.636 93.4171C24.1176 93.6266 23.5294 93.8922 22.8875 94.2059C22.0766 94.6029 21.2292 95.0529 20.398 95.518C20.1074 95.6804 19.8381 95.8337 19.6002 95.972C19.4574 96.0552 19.3572 96.1144 19.3046 96.1455C18.9209 96.375 18.4349 96.2597 18.2223 95.8879C18.0077 95.516 18.1454 95.0289 18.5301 94.7993C18.5878 94.7642 18.6941 94.7021 18.8429 94.6159C19.0889 94.4726 19.3653 94.3152 19.664 94.1478C20.5205 93.6687 21.3942 93.2046 22.2355 92.7927C23.2854 92.2785 24.2128 91.8816 24.9802 91.63C26.1252 91.2571 26.9251 91.1799 27.4829 91.6069V91.6069ZM32.3931 102.541C33.6698 102.541 34.6934 102.871 35.4638 103.531C36.2343 104.191 36.619 105.079 36.619 106.196C36.619 106.809 36.5076 107.393 36.2849 107.944C36.0642 108.495 35.722 109.064 35.2623 109.65C34.8017 110.235 34.0363 111.028 32.9652 112.026L30.5799 114.314V114.407H37.0979V116.331H27.7907V114.676L31.3311 111.152C32.3769 110.092 33.0704 109.34 33.4106 108.897C33.7528 108.454 34.0009 108.037 34.1588 107.646C34.3147 107.255 34.3927 106.837 34.3927 106.391C34.3927 105.777 34.2074 105.294 33.8338 104.94C33.4612 104.587 32.9459 104.41 32.2889 104.41C31.7634 104.41 31.2552 104.506 30.7621 104.698C30.2711 104.891 29.7021 105.238 29.0582 105.74L27.8656 104.298C28.629 103.66 29.3711 103.208 30.0909 102.941C30.8107 102.675 31.5781 102.541 32.3931 102.541V102.541ZM46.321 102.699V111.551H48.1727V113.365H46.321V116.331H44.1706V113.365H37.8967V111.682L44.1706 102.699H46.321ZM44.2648 105.154H44.1899C44.0137 105.563 43.7393 106.058 43.3637 106.642L39.9529 111.551H44.1706V108.139C44.1706 106.923 44.202 105.929 44.2648 105.154V105.154Z" fill="#A6A6A6"/>
<path fill-rule="evenodd" clip-rule="evenodd" d="M102.008 93.972L102.045 93.5184L99.327 91.0285L98.8127 90.5587L97.5158 91.2411L87.4827 96.5277L88.8758 98.4049L90.2142 100.209L93.5755 104.738L97.1119 100.209L98.5222 98.4049H98.591L98.5789 98.33L100.126 96.3515L102.008 93.972Z" fill="#E5E5E5"/>
<path fill-rule="evenodd" clip-rule="evenodd" d="M99.586 47.2152C98.9502 45.3489 98.3114 43.5978 97.4225 41.8398C99.1719 42.6406 100.828 44.5671 102.302 45.801C101.156 43.3432 99.6711 41.2815 97.8568 39.5083C97.2868 39.2377 96.6834 38.9951 96.0446 38.7827C96.6885 39.4572 97.3293 40.1308 97.9732 40.8054C96.6156 39.9444 95.262 39.0783 93.9104 38.2193C94.6687 39.2066 95.4209 40.1939 96.1792 41.1812C94.4875 39.6998 92.5305 38.5341 90.4368 37.7192C90.1938 37.7011 89.9437 37.6891 89.6937 37.6761C93.392 40.3934 96.7391 43.6028 99.586 47.2152Z" fill="#333333"/>
<path fill-rule="evenodd" clip-rule="evenodd" d="M89.321 81.5978C88.7854 81.5978 88.2904 81.2499 88.1263 80.7097C87.9269 80.0482 88.2995 79.3495 88.9596 79.1491L93.4588 77.7809C99.8704 75.8334 104.893 70.8428 106.894 64.4339C107.1 63.7744 107.8 63.4065 108.458 63.614C109.116 63.8195 109.482 64.5221 109.277 65.1816C107.028 72.3814 101.386 77.9874 94.1836 80.1765L89.6834 81.5436C89.563 81.5797 89.4405 81.5978 89.321 81.5978" fill="#7F7F7F"/>
<path fill-rule="evenodd" clip-rule="evenodd" d="M66.8791 69.3858H64.2903V55.7291C64.2903 44.4689 74.5097 35.3066 87.0698 35.3066C99.6319 35.3066 109.849 44.4689 109.849 55.7291V68.8345H107.263V55.7291C107.263 45.7479 98.2034 37.627 87.0698 37.627C75.9372 37.627 66.8791 45.7479 66.8791 55.7291V69.3858Z" fill="#7F7F7F"/>
<path fill-rule="evenodd" clip-rule="evenodd" d="M65.8349 55.3155C63.0386 55.3155 60.7728 57.3432 60.7728 59.846V65.8209C60.7728 68.3227 63.0386 70.3504 65.8349 70.3504V70.3484V55.3185V55.3155Z" fill="#A6A6A6"/>
<path fill-rule="evenodd" clip-rule="evenodd" d="M68.746 54.3133H66.9703C66.3426 54.3133 65.8333 54.7633 65.8333 55.3186V70.3485C65.8333 70.9028 66.3426 71.3529 66.9703 71.3529H68.746C69.3737 71.3529 69.883 70.9028 69.883 70.3485V55.3186C69.883 54.7633 69.3737 54.3133 68.746 54.3133Z" fill="#7F7F7F"/>
<path fill-rule="evenodd" clip-rule="evenodd" d="M109.368 55.3155V55.3175V70.3484V70.3504C112.165 70.3504 114.431 68.3227 114.431 65.8209V59.846C114.431 57.3432 112.165 55.3155 109.368 55.3155Z" fill="#A6A6A6"/>
<path fill-rule="evenodd" clip-rule="evenodd" d="M108.23 54.3133H106.455C105.827 54.3133 105.318 54.7633 105.318 55.3176V70.3485C105.318 70.9028 105.827 71.3529 106.455 71.3529H108.23C108.858 71.3529 109.367 70.9028 109.367 70.3485V55.3176C109.367 54.7633 108.858 54.3133 108.23 54.3133Z" fill="#7F7F7F"/>
</svg>
