<svg width="160" height="160" viewBox="0 0 160 160" fill="none" xmlns="http://www.w3.org/2000/svg">
<path fill-rule="evenodd" clip-rule="evenodd" d="M85.1728 124.142C121.793 119.299 128.939 110.893 134.588 101.802C145.527 84.199 136.932 54.4567 115.187 54.3007C93.8956 58.3939 97.8338 19.975 56.8447 30.9944C31.1617 37.8985 22.5087 59.3712 25.8676 78.7123C29.2266 98.0543 47.3582 129.144 85.1728 124.142" fill="#262626"/>
<path fill-rule="evenodd" clip-rule="evenodd" d="M126.316 42.9072C115.882 42.9072 107.425 51.3878 107.425 61.8501C107.425 72.3113 115.882 80.792 126.316 80.792C136.745 80.78 145.197 72.3053 145.207 61.8501C145.207 51.3878 136.75 42.9072 126.316 42.9072" fill="#262626"/>
<path fill-rule="evenodd" clip-rule="evenodd" d="M131.778 50.6346C130.396 49.0691 128.41 48.1729 126.325 48.1729C126.32 48.1729 126.316 48.1739 126.314 48.1739L126.322 48.1569C124.239 48.1609 122.255 49.0551 120.871 50.6166C120.684 50.8317 120.522 51.0628 120.374 51.3008C120.326 51.3769 120.276 51.4509 120.232 51.5289C120.206 51.5769 120.181 51.6269 120.156 51.676C120.089 51.805 120.025 51.936 119.969 52.0711C119.96 52.0901 119.953 52.1101 119.945 52.1301C119.586 53.0114 119.464 53.9817 119.618 54.938L120.398 61.1549C120.761 64.1328 123.325 66.3455 126.317 66.2615H126.318C129.304 66.3425 131.865 64.1428 132.244 61.1719L133.014 54.955C133.263 53.4025 132.81 51.819 131.778 50.6346" fill="#D9D9D9"/>
<path fill-rule="evenodd" clip-rule="evenodd" d="M120.398 61.1546C120.761 64.1335 123.327 66.3452 126.317 66.2612H126.318C126.715 66.2622 127.11 66.2262 127.5 66.1551C124.384 65.675 121.964 63.1772 121.575 60.0402L121.197 57.0413L120.123 58.9039L119.627 54.9376C119.474 53.9793 119.591 53.01 119.945 52.1298C119.586 53.012 119.464 53.9813 119.618 54.9376L120.398 61.1546Z" fill="#E5E5E5"/>
<path fill-rule="evenodd" clip-rule="evenodd" d="M119.626 54.9377L120.123 58.903L121.197 57.0414L126.313 48.1736L126.323 48.1566C124.239 48.1606 122.256 49.0559 120.871 50.6174C120.684 50.8315 120.522 51.0625 120.373 51.3006C120.325 51.3766 120.276 51.4506 120.232 51.5287C120.206 51.5777 120.182 51.6267 120.156 51.6757C120.09 51.8058 120.024 51.9368 119.969 52.0708C119.96 52.0898 119.954 52.1098 119.945 52.1299C119.592 53.0101 119.475 53.9794 119.626 54.9377" fill="#E5E5E5"/>
<path fill-rule="evenodd" clip-rule="evenodd" d="M126.396 70.9417C126.301 70.9447 126.206 70.9407 126.111 70.9337C126.207 70.9397 126.301 70.9457 126.396 70.9417Z" fill="#EC0000"/>
<path fill-rule="evenodd" clip-rule="evenodd" d="M118.985 69.2089C120.833 69.2089 123.024 69.8961 124.689 70.5473C124.736 70.5633 124.783 70.5743 124.83 70.5893C123.148 69.9241 120.889 69.1959 118.99 69.1959C115.57 69.1959 112.537 71.0384 111.429 73.7873L111.347 73.9663L111.346 73.9693L111.347 73.9703L111.425 73.8003C112.532 71.0514 115.566 69.2089 118.985 69.2089" fill="#990000"/>
<path fill-rule="evenodd" clip-rule="evenodd" d="M141.252 73.8402C140.225 70.9763 137.306 69.1957 133.63 69.1957C131.545 69.1957 129.104 70.026 127.431 70.7272C127.256 70.7982 127.077 70.8503 126.895 70.8873C126.881 70.8903 126.866 70.8923 126.852 70.8953C126.702 70.9233 126.548 70.9353 126.396 70.9423C126.301 70.9453 126.206 70.9393 126.111 70.9343C126.057 70.9313 126.003 70.9263 125.949 70.9203C125.691 70.8893 125.435 70.8272 125.189 70.7272C123.484 70.026 121.027 69.1907 118.99 69.1907C115.57 69.1907 112.536 71.0333 111.43 73.7822L111.346 73.9652C111.346 73.9652 111.347 73.9652 111.347 73.9662L111.43 73.7872C112.536 71.0383 115.57 69.1957 118.99 69.1957C120.889 69.1957 123.148 69.924 124.83 70.5892C124.784 70.5742 124.736 70.5632 124.689 70.5472C123.024 69.896 120.834 69.2087 118.985 69.2087C115.566 69.2087 112.532 71.0513 111.426 73.8002L111.341 73.9822C111.787 74.5184 112.269 75.0206 112.767 75.5027C112.793 75.5287 112.819 75.5557 112.848 75.5827C113.068 75.7938 113.293 75.9999 113.523 76.2009C113.604 76.2709 113.686 76.339 113.767 76.407C113.972 76.581 114.178 76.7541 114.391 76.9191C114.531 77.0282 114.677 77.1312 114.819 77.2362C115.066 77.4163 115.314 77.5924 115.568 77.7604C115.807 77.9195 116.049 78.0765 116.296 78.2256C116.415 78.2966 116.535 78.3626 116.655 78.4316C116.905 78.5747 117.158 78.7147 117.416 78.8467C117.521 78.9018 117.628 78.9548 117.734 79.0078C118.047 79.1618 118.363 79.3079 118.685 79.4449C118.737 79.4669 118.787 79.4909 118.839 79.512C119.197 79.662 119.562 79.798 119.93 79.9261C119.971 79.9411 120.011 79.9591 120.052 79.9731L120.055 79.9681C122.05 80.6503 124.161 81.0164 126.318 81.0164C132.108 81.0164 137.596 78.4316 141.292 73.9652L141.252 73.8402Z" fill="#404040"/>
<path fill-rule="evenodd" clip-rule="evenodd" d="M127.124 71.4198C127.842 71.7129 128.646 71.7129 129.365 71.4198C131.044 70.7226 129.103 70.0304 127.426 70.7316C127.253 70.8026 127.075 70.8506 126.895 70.8866C126.88 70.8906 126.865 70.8926 126.852 70.8946C126.701 70.9236 126.547 70.9357 126.395 70.9417C126.3 70.9457 126.205 70.9397 126.11 70.9337C126.056 70.9307 126.002 70.9267 125.948 70.9197C125.887 70.9136 125.825 70.9166 125.765 70.9046C126.251 71.0687 126.708 71.2428 127.124 71.4198V71.4198ZM111.34 73.9821C111.787 74.5183 112.268 75.0204 112.766 75.5026C112.792 75.5286 112.819 75.5556 112.847 75.5826C113.067 75.7937 113.293 75.9997 113.522 76.2008C113.603 76.2708 113.685 76.3388 113.766 76.4069C113.971 76.5809 114.177 76.754 114.39 76.919C114.53 77.0271 114.676 77.1301 114.818 77.2351C115.065 77.4162 115.313 77.5922 115.567 77.7603C115.806 77.9193 116.049 78.0764 116.295 78.2254C116.414 78.2954 116.534 78.3625 116.654 78.4315C116.905 78.5745 117.158 78.7146 117.416 78.8466C117.52 78.9016 117.627 78.9557 117.733 79.0077C118.046 79.1617 118.363 79.3078 118.684 79.4448C118.736 79.4668 118.787 79.4908 118.838 79.5128C119.196 79.6619 119.561 79.7979 119.929 79.926C119.97 79.941 120.01 79.959 120.051 79.973L120.054 79.968L125.339 70.7981L125.184 70.7451C125.027 70.6801 124.857 70.6141 124.688 70.547C123.023 69.8958 120.832 69.2086 118.984 69.2086C115.565 69.2086 112.531 71.0512 111.425 73.8" fill="#4C4C4C"/>
<path fill-rule="evenodd" clip-rule="evenodd" d="M126.469 81.4905C115.511 81.4905 106.629 72.5837 106.629 61.5963C106.629 50.6078 115.511 41.701 126.468 41.701C137.426 41.701 146.309 50.6078 146.309 61.5973C146.297 72.5787 137.421 81.4784 126.469 81.4905V81.4905ZM144.515 61.5963C144.515 51.6031 136.436 43.5016 126.468 43.5016C116.502 43.5016 108.423 51.6031 108.423 61.5963C108.423 71.5894 116.502 79.6899 126.468 79.6899C136.431 79.6779 144.503 71.5834 144.515 61.5963Z" fill="#4C4C4C"/>
<path fill-rule="evenodd" clip-rule="evenodd" d="M110.421 45.318C110.414 39.4782 105.693 34.7427 99.8583 34.7237H75.291C74.7955 34.7237 74.3937 35.1268 74.3937 35.625C74.3937 35.656 74.4086 35.682 74.4116 35.712H69.6629C69.617 36.1661 69.2491 36.5243 68.7845 36.5243C63.9301 36.5303 59.9978 40.4645 59.9929 45.318V61.0079C59.9929 61.505 59.5911 61.9072 59.0956 61.9072C59.0776 61.9072 59.0617 61.8982 59.0437 61.8972V63.9168C59.0617 63.9158 59.0776 63.9068 59.0956 63.9068C59.5911 63.9068 59.9929 64.3099 59.9929 64.8071V67.2558C59.9929 67.753 59.5911 68.1561 59.0956 68.1561C59.0776 68.1561 59.0617 68.1461 59.0437 68.1451V70.1077C58.5731 70.1367 58.1982 70.5188 58.1982 70.998V118.237C58.1972 121.027 59.3249 123.697 61.3249 125.641C63.3249 127.584 66.0258 128.633 68.8104 128.549H99.8553C102.614 128.633 105.315 127.584 107.314 125.641C109.315 123.697 110.443 121.027 110.442 118.237L110.421 45.318Z" fill="#4C4C4C"/>
<path fill-rule="evenodd" clip-rule="evenodd" d="M108.627 45.3195C108.621 40.472 104.701 36.5408 99.8565 36.5248H75.2912C74.8276 36.5248 74.4587 36.1667 74.4128 35.7125H69.6641C69.6182 36.1657 69.2503 36.5248 68.7857 36.5248C63.9313 36.5298 59.9991 40.465 59.9941 45.3185V61.0074C59.9941 61.5046 59.5913 61.9077 59.0958 61.9077C59.0778 61.9077 59.0629 61.8987 59.0449 61.8967V63.9173C59.0629 63.9163 59.0778 63.9063 59.0958 63.9063C59.5913 63.9063 59.9941 64.3094 59.9941 64.8066V67.2554C59.9941 67.7525 59.5913 68.1556 59.0958 68.1556C59.0778 68.1556 59.0629 68.1466 59.0449 68.1446V70.1082C59.0629 70.1072 59.0778 70.0972 59.0958 70.0972C59.5913 70.0972 59.9941 70.5004 59.9941 70.9975V118.238C59.9931 120.539 60.9233 122.744 62.5753 124.347C64.2264 125.952 66.4567 126.818 68.7847 126.749H99.8824C102.185 126.818 104.415 125.952 106.067 124.347C107.718 122.744 108.648 120.539 108.648 118.238L108.627 45.3195Z" fill="white"/>
<path fill-rule="evenodd" clip-rule="evenodd" d="M119.93 79.9263C119.562 79.7983 119.197 79.6613 118.838 79.5123C119.198 79.6623 119.563 79.7983 119.93 79.9263Z" fill="#EC0000"/>
<path fill-rule="evenodd" clip-rule="evenodd" d="M138.732 97.8325C133.622 97.8325 129.465 102.001 129.465 107.125C129.465 112.249 133.622 116.418 138.732 116.418C143.837 116.412 147.994 112.244 148 107.125C148 102.001 143.843 97.8325 138.732 97.8325Z" fill="#262626"/>
<path fill-rule="evenodd" clip-rule="evenodd" d="M141.34 101.771C140.68 101.024 139.733 100.596 138.737 100.596C138.735 100.596 138.733 100.597 138.731 100.597L136.289 104.829L136.469 106.262C136.492 106.449 136.531 106.631 136.583 106.808C136.688 107.16 136.847 107.489 137.054 107.783C136.847 107.489 136.688 107.16 136.583 106.808C136.531 106.631 136.492 106.449 136.469 106.262L136.289 104.829L138.731 100.597L138.736 100.589C137.741 100.59 136.794 101.018 136.133 101.763C136.044 101.865 135.966 101.975 135.895 102.089C135.873 102.125 135.848 102.161 135.828 102.198C135.815 102.221 135.804 102.245 135.793 102.268C135.76 102.33 135.729 102.392 135.703 102.457C135.699 102.466 135.695 102.475 135.691 102.485C135.519 102.906 135.462 103.369 135.535 103.826L135.907 106.794C136.081 108.215 137.305 109.271 138.734 109.231C140.158 109.27 141.382 108.22 141.562 106.802L141.93 103.834C142.049 103.093 141.832 102.336 141.34 101.771" fill="#D9D9D9"/>
<path fill-rule="evenodd" clip-rule="evenodd" d="M135.907 106.793C136.081 108.216 137.305 109.271 138.733 109.232C138.923 109.232 139.112 109.215 139.298 109.18C137.81 108.951 136.655 107.758 136.469 106.261L136.289 104.83L135.775 105.719L135.539 103.825C135.467 103.368 135.522 102.905 135.69 102.485C135.519 102.906 135.462 103.369 135.535 103.825L135.907 106.793Z" fill="#E5E5E5"/>
<path fill-rule="evenodd" clip-rule="evenodd" d="M135.539 103.826L135.775 105.719L136.288 104.83L138.731 100.597L138.735 100.589C137.741 100.591 136.794 101.018 136.133 101.763C136.043 101.866 135.966 101.975 135.895 102.089C135.873 102.125 135.849 102.161 135.828 102.198C135.815 102.221 135.804 102.245 135.792 102.268C135.76 102.33 135.728 102.392 135.702 102.457C135.698 102.466 135.694 102.475 135.69 102.485C135.522 102.905 135.467 103.367 135.539 103.826Z" fill="#E5E5E5"/>
<path fill-rule="evenodd" clip-rule="evenodd" d="M135.684 115.755C135.508 115.693 135.334 115.629 135.163 115.557C135.334 115.629 135.508 115.693 135.684 115.755Z" fill="#EC0000"/>
<path fill-rule="evenodd" clip-rule="evenodd" d="M135.233 110.638C136.115 110.638 137.161 110.966 137.955 111.277C137.978 111.284 138.001 111.29 138.024 111.297C137.22 110.979 136.141 110.632 135.235 110.632C133.602 110.632 132.154 111.511 131.626 112.823L131.587 112.909L131.586 112.91L131.624 112.829C132.152 111.517 133.6 110.638 135.233 110.638" fill="#990000"/>
<path fill-rule="evenodd" clip-rule="evenodd" d="M145.862 112.849C145.372 111.482 143.978 110.632 142.224 110.632C141.228 110.632 140.064 111.029 139.264 111.364C139.182 111.397 139.097 111.421 139.012 111.439C139.011 111.439 139.01 111.439 139.009 111.44C139.002 111.441 138.995 111.442 138.988 111.443C138.916 111.457 138.843 111.463 138.77 111.466C138.725 111.468 138.68 111.465 138.634 111.462C138.609 111.46 138.582 111.458 138.557 111.455C138.433 111.441 138.312 111.411 138.195 111.364C138.141 111.342 138.076 111.319 138.021 111.297C137.999 111.29 137.977 111.285 137.955 111.278C137.16 110.967 136.115 110.639 135.232 110.639C133.6 110.639 132.152 111.518 131.624 112.83L131.586 112.911L131.584 112.917C131.796 113.173 132.026 113.413 132.263 113.643C132.277 113.656 132.29 113.669 132.302 113.682C132.408 113.782 132.515 113.881 132.626 113.976C132.664 114.01 132.703 114.042 132.742 114.075C132.839 114.158 132.937 114.241 133.04 114.319C133.106 114.371 133.175 114.42 133.244 114.471C133.362 114.557 133.479 114.641 133.601 114.721C133.716 114.797 133.831 114.872 133.949 114.943C134.005 114.976 134.063 115.009 134.12 115.041C134.24 115.11 134.361 115.176 134.483 115.24C134.534 115.266 134.584 115.291 134.635 115.316C134.784 115.39 134.936 115.459 135.088 115.525C135.113 115.536 135.137 115.547 135.163 115.557C135.334 115.628 135.507 115.693 135.684 115.755C135.704 115.762 135.722 115.77 135.743 115.777L135.744 115.774C136.696 116.1 137.704 116.275 138.734 116.275C141.497 116.275 144.117 115.041 145.882 112.909L145.862 112.849Z" fill="#404040"/>
<path fill-rule="evenodd" clip-rule="evenodd" d="M131.626 112.823C132.154 111.511 133.602 110.632 135.235 110.632C135.373 110.632 135.518 110.653 135.662 110.668C135.518 110.653 135.372 110.63 135.235 110.63C133.602 110.63 132.154 111.509 131.626 112.821L131.586 112.908L131.626 112.823Z" fill="#083F6B"/>
<path fill-rule="evenodd" clip-rule="evenodd" d="M139.261 111.365C139.179 111.399 139.094 111.422 139.008 111.439C139.001 111.441 138.994 111.442 138.988 111.443C138.915 111.456 138.842 111.462 138.769 111.465C138.724 111.467 138.679 111.464 138.633 111.461C138.608 111.46 138.581 111.458 138.556 111.455C138.527 111.451 138.497 111.453 138.468 111.448C138.701 111.526 138.918 111.609 139.116 111.694C139.46 111.834 139.844 111.834 140.187 111.694C140.988 111.361 140.063 111.03 139.261 111.365V111.365ZM137.954 111.277C137.16 110.966 136.114 110.638 135.232 110.638C133.599 110.638 132.152 111.518 131.622 112.83L131.584 112.911L131.582 112.917C131.795 113.173 132.025 113.412 132.262 113.643C132.276 113.655 132.288 113.668 132.301 113.681C132.407 113.781 132.515 113.88 132.624 113.976C132.662 114.009 132.701 114.042 132.741 114.074C132.839 114.157 132.936 114.24 133.038 114.319C133.106 114.37 133.175 114.42 133.242 114.47C133.361 114.556 133.479 114.64 133.6 114.721C133.715 114.797 133.83 114.872 133.947 114.943C134.004 114.977 134.062 115.009 134.119 115.042C134.238 115.11 134.36 115.176 134.483 115.24C134.533 115.266 134.583 115.291 134.634 115.317C134.783 115.39 134.935 115.46 135.088 115.525C135.112 115.536 135.137 115.547 135.162 115.557C135.333 115.629 135.507 115.694 135.683 115.755C135.702 115.762 135.721 115.77 135.741 115.777L135.742 115.775L138.265 111.397L138.191 111.371C138.116 111.34 138.035 111.309 137.954 111.277V111.277ZM59.9929 67.2554V64.8067C59.9929 64.3095 59.5911 63.9064 59.0956 63.9064C59.0776 63.9064 59.0617 63.9164 59.0437 63.9174C58.5731 63.9454 58.1982 64.3275 58.1982 64.8067V67.2554C58.1982 67.7346 58.5731 68.1167 59.0437 68.1447C59.0617 68.1467 59.0776 68.1557 59.0956 68.1557C59.5911 68.1557 59.9929 67.7526 59.9929 67.2554" fill="#4C4C4C"/>
<path fill-rule="evenodd" clip-rule="evenodd" d="M46.6954 58.9583L45.5748 60.0836L44.1959 58.7002L42.811 60.0876L41.6914 58.9643L43.0753 57.5759L41.6964 56.1924L42.818 55.0681L44.1969 56.4515L45.5807 55.0621L46.7014 56.1864L45.3165 57.5749L46.6954 58.9583Z" fill="#595959"/>
<path fill-rule="evenodd" clip-rule="evenodd" d="M123.885 97.6993L123.073 98.5145L122.07 97.5092L121.066 98.5155L120.251 97.6983L121.254 96.692L120.251 95.6857L121.065 94.8694L122.068 95.8757L123.072 94.8684L123.886 95.6867L122.882 96.693L123.885 97.6993Z" fill="#999999"/>
<path fill-rule="evenodd" clip-rule="evenodd" d="M60.1179 61.2812V45.5923C60.1228 40.7388 64.056 36.8035 68.9095 36.7985C69.3741 36.7975 69.742 36.4394 69.7879 35.9863C69.7918 35.9553 69.8068 35.9283 69.8068 35.8973C69.8058 35.4001 69.403 34.998 68.9075 34.998C63.065 35.004 58.3292 39.7425 58.3232 45.5913V61.2812C58.3232 61.7603 58.6981 62.1424 59.1687 62.1715C59.1867 62.1725 59.2026 62.1815 59.2206 62.1815C59.7161 62.1815 60.1179 61.7783 60.1179 61.2812" fill="#4C4C4C"/>
<path fill-rule="evenodd" clip-rule="evenodd" d="M99.7431 39.7661H89.2954H68.8986C65.765 39.7661 63.2246 42.3158 63.2246 45.4618V95.3724V118.073C63.2465 119.554 63.8587 120.963 64.9255 121.986C65.9933 123.008 67.425 123.557 68.8986 123.509H99.7431C101.218 123.557 102.648 123.008 103.715 121.986C104.783 120.963 105.396 119.554 105.417 118.073V45.4518C105.412 42.3098 102.874 39.7661 99.7431 39.7661" fill="#BFBFBF"/>
<path fill-rule="evenodd" clip-rule="evenodd" d="M68.8986 39.7661C65.764 39.7661 63.2246 42.3158 63.2246 45.4618V95.3724C67.8627 85.9104 76.5496 67.3817 89.2944 39.7661H68.8986Z" fill="#E5E5E5"/>
<path fill-rule="evenodd" clip-rule="evenodd" d="M82.0251 45.9311H90.0012C90.4967 45.9311 90.8985 45.5281 90.8985 45.0311C90.8985 44.5341 90.4967 44.1311 90.0012 44.1311H82.0251C81.5296 44.1311 81.1288 44.5341 81.1288 45.0311C81.1288 45.5281 81.5296 45.9311 82.0251 45.9311ZM78.037 46.0311C78.5884 46.0311 79.0341 45.5831 79.0341 45.0311C79.0341 44.4791 78.5884 44.0311 78.037 44.0311C77.4867 44.0311 77.04 44.4791 77.04 45.0311C77.04 45.5831 77.4867 46.0311 78.037 46.0311Z" fill="#7F7F7F"/>
<path fill-rule="evenodd" clip-rule="evenodd" d="M42.3084 72.0168C26.5597 72.0168 13.793 84.8178 13.793 100.609C13.793 116.399 26.5597 129.2 42.3074 129.2C58.0482 129.181 70.805 116.391 70.8229 100.609C70.8229 84.8178 58.0562 72.0168 42.3084 72.0168" fill="#262626"/>
<path fill-rule="evenodd" clip-rule="evenodd" d="M50.5522 83.6811C48.4655 81.3183 45.4685 79.9649 42.3199 79.9649C42.3139 79.9649 42.3079 79.9659 42.3029 79.9659L42.3169 79.9409C39.1723 79.9469 36.1783 81.2973 34.0886 83.6541C33.8054 83.9772 33.5622 84.3263 33.3368 84.6854C33.2661 84.8004 33.1903 84.9125 33.1255 85.0305C33.0836 85.1035 33.0477 85.1786 33.0098 85.2526C32.9091 85.4486 32.8114 85.6447 32.7267 85.8478C32.7147 85.8778 32.7037 85.9078 32.6908 85.9378C32.1484 87.2692 31.965 88.7327 32.1973 90.1761L33.3737 99.56C33.9231 104.055 37.7935 107.394 42.3089 107.267H42.3099C46.8164 107.39 50.6828 104.069 51.2541 99.586L52.4176 90.2031C52.7935 87.8584 52.1095 85.4686 50.5522 83.6811Z" fill="#BFBFBF"/>
<path fill-rule="evenodd" clip-rule="evenodd" d="M33.3733 99.5597C33.9236 104.055 37.794 107.394 42.3095 107.268H42.3105C42.9087 107.269 43.5069 107.215 44.0951 107.106C39.3912 106.382 35.7392 102.613 35.1509 97.8772L34.5807 93.3497L32.9595 96.1616L32.2108 90.1758C31.9814 88.7293 32.1579 87.2659 32.6913 85.9374C32.1479 87.2689 31.9655 88.7323 32.1968 90.1758L33.3733 99.5597Z" fill="#E5E5E5"/>
<path fill-rule="evenodd" clip-rule="evenodd" d="M32.2116 90.1758L32.9604 96.1607L34.5815 93.3498L42.3033 79.9657L42.3183 79.9417C39.1727 79.9467 36.1787 81.2971 34.09 83.6538C33.8068 83.9779 33.5626 84.326 33.3382 84.6861C33.2674 84.8002 33.1907 84.9132 33.1259 85.0302C33.085 85.1033 33.0491 85.1783 33.0112 85.2523C32.9095 85.4484 32.8128 85.6454 32.7281 85.8475C32.7161 85.8775 32.7041 85.9075 32.6922 85.9375C32.1588 87.2659 31.9823 88.7294 32.2116 90.1758" fill="#E5E5E5"/>
<path fill-rule="evenodd" clip-rule="evenodd" d="M32.6695 127.893C32.1142 127.699 31.5638 127.494 31.0225 127.268C31.5648 127.495 32.1152 127.699 32.6695 127.893Z" fill="#EC0000"/>
<path fill-rule="evenodd" clip-rule="evenodd" d="M31.2423 111.716C34.033 111.716 37.338 112.753 39.8505 113.737C39.9213 113.76 39.9941 113.777 40.0659 113.801C37.5255 112.796 34.1167 111.696 31.2493 111.696C26.0888 111.696 21.5095 114.478 19.8385 118.626L19.7139 118.897L19.7119 118.901C19.7129 118.902 19.7129 118.902 19.7139 118.903L19.8326 118.646C21.5025 114.498 26.0818 111.716 31.2423 111.716" fill="#990000"/>
<path fill-rule="evenodd" clip-rule="evenodd" d="M64.8517 118.707C63.3003 114.384 58.8955 111.696 53.3482 111.696C50.1996 111.696 46.5157 112.949 43.9892 114.009C43.727 114.116 43.4558 114.195 43.1827 114.25C43.1607 114.254 43.1388 114.257 43.1169 114.262C42.8895 114.305 42.6582 114.323 42.4279 114.332C42.2844 114.338 42.1418 114.329 41.9972 114.32C41.9165 114.316 41.8357 114.31 41.7539 114.3C41.3631 114.253 40.9783 114.16 40.6074 114.009C38.0341 112.949 34.3242 111.689 31.2495 111.689C26.0879 111.689 21.5097 114.471 19.8387 118.62L19.7121 118.894C19.7121 118.895 19.7131 118.896 19.7141 118.897L19.8387 118.626C21.5097 114.478 26.0879 111.696 31.2495 111.696C34.1169 111.696 37.5256 112.795 40.066 113.801C39.9942 113.776 39.9214 113.76 39.8507 113.736C37.3372 112.753 34.0331 111.716 31.2425 111.716C26.082 111.716 21.5027 114.498 19.8317 118.646L19.7141 118.903L19.7051 118.921C20.3791 119.73 21.1039 120.488 21.8556 121.216C21.8965 121.256 21.9374 121.297 21.9783 121.336C22.3123 121.656 22.6512 121.967 22.9982 122.27C23.1198 122.375 23.2425 122.478 23.3651 122.581C23.6752 122.843 23.9872 123.104 24.3073 123.353C24.5196 123.519 24.739 123.674 24.9553 123.833C25.3262 124.104 25.7011 124.37 26.0849 124.624C26.4469 124.864 26.8108 125.102 27.1836 125.325C27.3621 125.433 27.5446 125.533 27.726 125.637C28.1039 125.854 28.4857 126.064 28.8736 126.264C29.0331 126.346 29.1926 126.427 29.3541 126.506C29.8257 126.739 30.3043 126.96 30.7888 127.167C30.8666 127.2 30.9434 127.236 31.0211 127.269C31.5625 127.494 32.1129 127.7 32.6692 127.894C32.731 127.915 32.7908 127.942 32.8526 127.963L32.8566 127.956C35.8696 128.985 39.057 129.539 42.3123 129.539C51.0491 129.539 59.3332 125.637 64.9125 118.894L64.8517 118.707Z" fill="#A6A6A6"/>
<path fill-rule="evenodd" clip-rule="evenodd" d="M43.9828 114.015C43.7235 114.121 43.4543 114.194 43.1822 114.249C43.1612 114.254 43.1383 114.257 43.1174 114.261C42.889 114.304 42.6587 114.322 42.4274 114.331C42.2849 114.338 42.1413 114.328 41.9977 114.32C41.917 114.315 41.8362 114.309 41.7544 114.3C41.6617 114.289 41.568 114.293 41.4763 114.276C42.2121 114.524 42.9 114.787 43.5281 115.055C44.6129 115.497 45.8272 115.497 46.911 115.055C49.4444 114.001 46.5162 112.956 43.9828 114.015ZM39.8507 113.737C37.3372 112.754 34.0331 111.716 31.2425 111.716C26.082 111.716 21.5037 114.498 19.8317 118.646L19.7141 118.903L19.7051 118.921C20.3791 119.731 21.1039 120.488 21.8556 121.216C21.8965 121.256 21.9374 121.297 21.9783 121.336C22.3123 121.656 22.6512 121.967 22.9992 122.269C23.1198 122.376 23.2425 122.479 23.3651 122.582C23.6752 122.844 23.9872 123.105 24.3073 123.354C24.5196 123.518 24.739 123.674 24.9563 123.832C25.3272 124.104 25.7021 124.37 26.0849 124.624C26.4479 124.864 26.8108 125.101 27.1836 125.325C27.3631 125.432 27.5446 125.533 27.726 125.638C28.1039 125.854 28.4867 126.065 28.8736 126.264C29.0331 126.346 29.1936 126.428 29.3541 126.507C29.8257 126.739 30.3043 126.96 30.7888 127.167C30.8666 127.2 30.9434 127.236 31.0221 127.269C31.5625 127.494 32.1129 127.699 32.6692 127.893C32.731 127.915 32.7908 127.942 32.8526 127.963L32.8566 127.956L40.8347 114.116L40.6004 114.035C40.3631 113.938 40.1069 113.837 39.8507 113.737" fill="#767676"/>
<path fill-rule="evenodd" clip-rule="evenodd" d="M42.3081 129.199C26.5603 129.199 13.7936 116.398 13.7936 100.608C13.7936 84.8172 26.5603 72.0162 42.3091 72.0162C58.0569 72.0162 70.8236 84.8172 70.8236 100.608C70.8056 116.39 58.0489 129.181 42.3081 129.199ZM42.3091 70.2167C25.5693 70.2167 12 83.8229 12 100.608C12 117.393 25.5693 131 42.3101 131C59.0399 130.981 72.5992 117.385 72.6172 100.609C72.6172 83.8229 59.0479 70.2167 42.3091 70.2167" fill="#4C4C4C"/>
<path fill-rule="evenodd" clip-rule="evenodd" d="M74.4977 98.7322C74.4977 82.158 61.1069 68.7228 44.5875 68.7228C38.2804 68.7228 32.4329 70.6855 27.6094 74.0305C31.9633 71.6037 36.9733 70.2163 42.3093 70.2163C59.0481 70.2163 72.6174 83.8235 72.6174 100.609C72.6094 108.139 69.8666 115.023 65.3402 120.332C70.9833 114.873 74.4977 107.217 74.4977 98.7322" fill="#262626"/>
</svg>
