<svg width="160" height="160" viewBox="0 0 160 160" fill="none" xmlns="http://www.w3.org/2000/svg">
<path fill-rule="evenodd" clip-rule="evenodd" d="M85.1732 124.143C121.794 119.299 128.94 110.893 134.588 101.804C145.527 84.199 136.932 54.4567 115.187 54.3007C93.8961 58.394 97.8343 19.975 56.8451 30.9944C31.162 37.8986 22.5089 59.3713 25.8679 78.7123C29.2268 98.0544 47.3585 129.144 85.1732 124.143Z" fill="#E5E5E5"/>
<path fill-rule="evenodd" clip-rule="evenodd" d="M126.317 42.9072C115.883 42.9072 107.425 51.3889 107.425 61.8501C107.425 72.3114 115.883 80.7921 126.317 80.7921C136.746 80.7801 145.197 72.3054 145.208 61.8501C145.208 51.3889 136.751 42.9072 126.317 42.9072Z" fill="white"/>
<path fill-rule="evenodd" clip-rule="evenodd" d="M121.574 60.04C121.964 63.178 124.383 65.6748 127.499 66.155C127.111 66.227 126.714 66.263 126.318 66.262C129.303 66.343 131.864 64.1433 132.243 61.1724L133.014 54.9555C133.264 53.403 132.81 51.8195 131.778 50.6351C130.396 49.0696 128.41 48.1733 126.325 48.1733C126.321 48.1733 126.317 48.1743 126.313 48.1743L121.196 57.0411L121.574 60.04Z" fill="#FEDAC6"/>
<path fill-rule="evenodd" clip-rule="evenodd" d="M120.398 61.1547C120.762 64.1336 123.327 66.3453 126.317 66.2613H126.318C126.715 66.2623 127.111 66.2273 127.501 66.1552C124.384 65.6751 121.964 63.1773 121.575 60.0403L121.197 57.0414L120.124 58.904L119.627 54.9377C119.475 53.9794 119.591 53.0101 119.945 52.1309C119.586 53.0121 119.465 53.9814 119.618 54.9377L120.398 61.1547Z" fill="#F6C7B4"/>
<path fill-rule="evenodd" clip-rule="evenodd" d="M119.627 54.9378L120.123 58.9031L121.197 57.0415L126.314 48.1737L126.324 48.1577C124.239 48.1607 122.256 49.056 120.871 50.6175C120.685 50.8316 120.522 51.0626 120.373 51.3007C120.326 51.3767 120.276 51.4517 120.232 51.5298C120.206 51.5778 120.182 51.6268 120.156 51.6758C120.09 51.8059 120.025 51.9369 119.97 52.0709C119.961 52.0899 119.954 52.1099 119.945 52.13C119.592 53.0102 119.475 53.9795 119.627 54.9378Z" fill="#FEE5D7"/>
<path fill-rule="evenodd" clip-rule="evenodd" d="M119.93 79.9265C119.562 79.7985 119.198 79.6625 118.839 79.5125C119.199 79.6625 119.563 79.7985 119.93 79.9265Z" fill="#EC0000"/>
<path fill-rule="evenodd" clip-rule="evenodd" d="M141.252 73.8404C140.225 70.9765 137.307 69.1949 133.63 69.1949C131.545 69.1949 129.105 70.0262 127.431 70.7274C127.257 70.7984 127.077 70.8504 126.895 70.8874C126.881 70.8904 126.866 70.8924 126.853 70.8944C126.702 70.9235 126.548 70.9355 126.396 70.9415C126.301 70.9455 126.206 70.9395 126.111 70.9335C126.058 70.9305 126.003 70.9265 125.949 70.9205C125.692 70.8894 125.435 70.8274 125.189 70.7274C123.486 70.0262 121.027 69.1909 118.99 69.1909C115.57 69.1909 112.537 71.0335 111.43 73.7824L111.346 73.9644C111.346 73.9654 111.347 73.9654 111.348 73.9654L111.43 73.7864C112.537 71.0385 115.57 69.1949 118.99 69.1949C120.889 69.1949 123.149 69.9231 124.831 70.5894C124.784 70.5733 124.736 70.5633 124.689 70.5473C123.024 69.8961 120.835 69.2089 118.985 69.2089C115.566 69.2089 112.532 71.0515 111.426 73.8004L111.342 73.9824C111.788 74.5186 112.269 75.0197 112.767 75.5029C112.794 75.5289 112.82 75.5559 112.848 75.5819C113.069 75.794 113.293 76 113.523 76.2001C113.604 76.2701 113.686 76.3392 113.767 76.4072C113.973 76.5812 114.178 76.7543 114.392 76.9183C114.531 77.0274 114.677 77.1304 114.82 77.2364C115.066 77.4155 115.314 77.5915 115.568 77.7606C115.808 77.9196 116.049 78.0767 116.296 78.2247C116.415 78.2968 116.535 78.3628 116.655 78.4318C116.905 78.5749 117.159 78.7149 117.416 78.8469C117.521 78.902 117.628 78.955 117.734 79.008C118.047 79.161 118.364 79.3081 118.685 79.4451C118.737 79.4671 118.788 79.4911 118.84 79.5121C119.197 79.6622 119.562 79.7982 119.93 79.9263C119.971 79.9413 120.011 79.9583 120.052 79.9723L120.055 79.9683C122.05 80.6505 124.163 81.0166 126.318 81.0166C132.108 81.0166 137.596 78.4318 141.292 73.9644L141.252 73.8404Z" fill="#0F2B4A"/>
<path fill-rule="evenodd" clip-rule="evenodd" d="M127.125 71.4207C127.844 71.7138 128.647 71.7138 129.366 71.4207C131.045 70.7234 129.104 70.0302 127.427 70.7324C127.254 70.8025 127.076 70.8505 126.896 70.8875C126.881 70.8905 126.866 70.8925 126.854 70.8955C126.702 70.9235 126.548 70.9355 126.396 70.9415C126.301 70.9455 126.206 70.9395 126.111 70.9345C126.057 70.9315 126.003 70.9265 125.949 70.9205C125.888 70.9135 125.827 70.9165 125.766 70.9055C126.252 71.0696 126.709 71.2426 127.125 71.4207ZM111.341 73.983C111.788 74.5191 112.269 75.0203 112.767 75.5034C112.794 75.5294 112.821 75.5565 112.848 75.5825C113.068 75.7945 113.294 76.0006 113.523 76.2007C113.604 76.2707 113.686 76.3387 113.767 76.4077C113.972 76.5818 114.179 76.7548 114.391 76.9189C114.531 77.0279 114.677 77.1309 114.82 77.236C115.066 77.416 115.314 77.5921 115.568 77.7611C115.808 77.9202 116.05 78.0772 116.296 78.2253C116.415 78.2963 116.535 78.3633 116.655 78.4324C116.906 78.5754 117.16 78.7154 117.417 78.8475C117.521 78.9015 117.628 78.9555 117.734 79.0075C118.047 79.1616 118.364 79.3086 118.685 79.4457C118.737 79.4677 118.788 79.4917 118.84 79.5127C119.197 79.6627 119.562 79.7988 119.93 79.9268C119.971 79.9418 120.011 79.9588 120.052 79.9728L120.055 79.9688L125.34 70.799L125.186 70.746C125.028 70.6809 124.859 70.6139 124.689 70.5479C123.024 69.8967 120.834 69.2095 118.985 69.2095C115.566 69.2095 112.532 71.052 111.426 73.8009" fill="#0D4F80"/>
<path fill-rule="evenodd" clip-rule="evenodd" d="M126.47 81.4909C115.512 81.4909 106.63 72.5841 106.63 61.5956C106.63 50.6082 115.512 41.7014 126.469 41.7014C137.426 41.7014 146.31 50.6082 146.31 61.5966C146.298 72.5791 137.422 81.4779 126.47 81.4909ZM144.516 61.5956C144.516 51.6035 136.436 43.502 126.469 43.502C116.503 43.502 108.423 51.6035 108.423 61.5956C108.423 71.5888 116.503 79.6903 126.469 79.6903C136.431 79.6783 144.504 71.5838 144.516 61.5956Z" fill="#0F2B4A"/>
<mask id="mask0_2089_37660" style="mask-type:alpha" maskUnits="userSpaceOnUse" x="129" y="97" width="19" height="20">
<path d="M129.465 97.8325H148V116.418H129.465V97.8325Z" fill="white"/>
</mask>
<g mask="url(#mask0_2089_37660)">
<path fill-rule="evenodd" clip-rule="evenodd" d="M138.732 97.8324C133.622 97.8324 129.465 102.001 129.465 107.125C129.465 112.249 133.622 116.418 138.732 116.418C143.837 116.412 147.994 112.244 148 107.125C148 102.001 143.843 97.8324 138.732 97.8324Z" fill="#E9F4F7"/>
</g>
<path fill-rule="evenodd" clip-rule="evenodd" d="M136.469 106.261C136.654 107.76 137.81 108.951 139.297 109.18C139.111 109.215 138.923 109.232 138.733 109.231C140.158 109.27 141.381 108.22 141.561 106.803L141.93 103.835C142.049 103.093 141.833 102.337 141.339 101.772C140.68 101.025 139.731 100.597 138.735 100.597H138.731L136.287 104.83L136.469 106.261Z" fill="#FEDAC6"/>
<path fill-rule="evenodd" clip-rule="evenodd" d="M135.907 106.794C136.082 108.215 137.305 109.271 138.734 109.231C138.923 109.232 139.112 109.214 139.298 109.18C137.81 108.951 136.655 107.759 136.469 106.262L136.289 104.83L135.775 105.718L135.539 103.826C135.467 103.368 135.522 102.905 135.691 102.485C135.519 102.906 135.462 103.37 135.535 103.826L135.907 106.794Z" fill="#F6C7B4"/>
<path fill-rule="evenodd" clip-rule="evenodd" d="M135.539 103.826L135.775 105.719L136.289 104.83L138.731 100.597L138.735 100.589C137.741 100.591 136.794 101.018 136.133 101.763C136.043 101.866 135.967 101.976 135.895 102.089C135.873 102.126 135.849 102.161 135.828 102.199C135.815 102.221 135.804 102.245 135.792 102.268C135.76 102.33 135.728 102.393 135.702 102.457C135.698 102.466 135.694 102.476 135.69 102.485C135.522 102.905 135.467 103.367 135.539 103.826Z" fill="#FEE5D7"/>
<path fill-rule="evenodd" clip-rule="evenodd" d="M145.862 112.85C145.372 111.482 143.978 110.633 142.224 110.633C141.229 110.633 140.063 111.029 139.264 111.364C139.182 111.397 139.097 111.422 139.011 111.439C139.01 111.439 139.009 111.44 139.008 111.44C139.002 111.441 138.995 111.442 138.988 111.443C138.916 111.457 138.843 111.463 138.77 111.466C138.724 111.468 138.679 111.465 138.635 111.462C138.609 111.461 138.582 111.459 138.557 111.456C138.434 111.441 138.312 111.412 138.195 111.364C138.141 111.342 138.075 111.319 138.02 111.297C137.999 111.29 137.977 111.285 137.955 111.278C137.16 110.967 136.115 110.639 135.233 110.639C133.6 110.639 132.152 111.518 131.624 112.83L131.586 112.912L131.584 112.918C131.796 113.174 132.025 113.413 132.263 113.643C132.277 113.656 132.29 113.669 132.302 113.682C132.407 113.783 132.515 113.881 132.626 113.976C132.664 114.01 132.702 114.042 132.741 114.075C132.839 114.158 132.937 114.241 133.039 114.319C133.106 114.371 133.175 114.42 133.244 114.471C133.361 114.557 133.48 114.641 133.601 114.721C133.715 114.797 133.831 114.872 133.949 114.943C134.004 114.976 134.062 115.009 134.12 115.041C134.24 115.11 134.36 115.177 134.483 115.24C134.534 115.266 134.584 115.291 134.635 115.316C134.785 115.39 134.936 115.459 135.088 115.525C135.114 115.536 135.137 115.547 135.163 115.557C135.334 115.628 135.507 115.693 135.683 115.755C135.703 115.762 135.721 115.77 135.742 115.777L135.743 115.775C136.695 116.101 137.703 116.276 138.734 116.276C141.497 116.276 144.117 115.041 145.882 112.91L145.862 112.85Z" fill="#083F6B"/>
<path fill-rule="evenodd" clip-rule="evenodd" d="M139.261 111.366C139.18 111.4 139.094 111.423 139.008 111.44C139.001 111.442 138.994 111.443 138.988 111.444C138.915 111.458 138.843 111.463 138.77 111.466C138.724 111.468 138.679 111.465 138.634 111.463C138.608 111.461 138.581 111.459 138.556 111.456C138.528 111.453 138.498 111.454 138.469 111.449C138.701 111.527 138.918 111.61 139.117 111.695C139.461 111.834 139.845 111.834 140.188 111.695C140.988 111.362 140.063 111.031 139.261 111.366ZM137.955 111.278C137.16 110.967 136.114 110.638 135.233 110.638C133.6 110.638 132.152 111.519 131.623 112.83L131.585 112.911L131.583 112.917C131.795 113.173 132.025 113.412 132.263 113.643C132.277 113.655 132.289 113.668 132.302 113.681C132.407 113.782 132.515 113.88 132.625 113.976C132.663 114.009 132.701 114.042 132.741 114.074C132.839 114.158 132.937 114.241 133.038 114.32C133.106 114.372 133.175 114.421 133.243 114.471C133.361 114.557 133.48 114.641 133.601 114.721C133.715 114.797 133.83 114.872 133.948 114.943C134.005 114.977 134.062 115.009 134.119 115.042C134.239 115.11 134.361 115.177 134.483 115.24C134.533 115.266 134.584 115.292 134.635 115.317C134.784 115.39 134.936 115.46 135.088 115.525C135.113 115.536 135.137 115.547 135.162 115.557C135.334 115.629 135.507 115.694 135.684 115.755C135.702 115.762 135.721 115.77 135.741 115.777L135.742 115.775L138.266 111.398L138.192 111.372C138.116 111.341 138.035 111.31 137.955 111.278Z" fill="#0D4F80"/>
<path fill-rule="evenodd" clip-rule="evenodd" d="M63.2243 95.3728V45.4622C63.2243 42.3162 65.7647 39.7664 68.8983 39.7664H89.2942H99.7429C102.874 39.7664 105.412 42.3102 105.417 45.4522V118.074C105.396 119.554 104.784 120.964 103.715 121.986C102.648 123.007 101.216 123.557 99.7429 123.51H68.8983C67.4247 123.557 65.993 123.007 64.9262 121.986C63.8594 120.964 63.2452 119.554 63.2243 118.074V95.3728ZM59.994 70.9982V118.238C59.993 120.54 60.9232 122.743 62.5752 124.348C64.2263 125.951 66.4566 126.819 68.7846 126.749L99.8845 126.75C102.185 126.819 104.415 125.951 106.067 124.348C107.718 122.743 108.649 120.54 108.648 118.238L108.627 45.3192C108.621 40.4726 104.701 36.5404 99.8565 36.5244H75.2921C74.8275 36.5244 74.4586 36.1663 74.4128 35.7122H69.664C69.6181 36.1663 69.2502 36.5244 68.7856 36.5244C63.9322 36.5304 59.9989 40.4646 59.994 45.3182V61.0081C59.994 61.5052 59.5912 61.9073 59.0956 61.9073C59.0787 61.9073 59.0627 61.8983 59.0448 61.8973V63.917C59.0627 63.916 59.0787 63.907 59.0956 63.907C59.5912 63.907 59.994 64.3101 59.994 64.8073V67.256C59.994 67.7532 59.5912 68.1563 59.0956 68.1563C59.0787 68.1563 59.0627 68.1463 59.0448 68.1453V70.1079C59.0627 70.1069 59.0787 70.0979 59.0956 70.0979C59.5912 70.0979 59.994 70.501 59.994 70.9982Z" fill="white"/>
<path fill-rule="evenodd" clip-rule="evenodd" d="M68.898 123.51H99.7426C101.216 123.557 102.648 123.008 103.715 121.986C104.783 120.964 105.395 119.554 105.417 118.074V45.4521C105.412 42.3102 102.872 39.7664 99.7426 39.7664H89.2939C76.5491 67.382 67.8621 85.9108 63.224 95.3727V118.074C63.2449 119.554 63.8581 120.964 64.9259 121.986C65.9927 123.008 67.4234 123.557 68.898 123.51Z" fill="#E9F4F7"/>
<path fill-rule="evenodd" clip-rule="evenodd" d="M68.898 39.7661C65.7634 39.7661 63.224 42.3159 63.224 45.4619V95.3725C67.8621 85.9105 76.5491 67.3817 89.2939 39.7661H68.898Z" fill="#F9F9F9"/>
<path fill-rule="evenodd" clip-rule="evenodd" d="M110.421 45.3178C110.414 39.478 105.693 34.7425 99.8588 34.7245H75.2914C74.7959 34.7245 74.3941 35.1266 74.3941 35.6248C74.3941 35.6558 74.409 35.6818 74.412 35.7118C74.4579 36.166 74.8268 36.5241 75.2914 36.5241H99.8558C104.7 36.5401 108.621 40.4723 108.627 45.3188L108.647 118.238C108.648 120.539 107.717 122.743 106.066 124.348C104.415 125.951 102.184 126.818 99.8837 126.749L68.7839 126.748C66.4558 126.818 64.2255 125.951 62.5745 124.348C60.9234 122.743 59.9922 120.539 59.9932 118.238V70.9979C59.9932 70.5007 59.5914 70.0976 59.0959 70.0976C59.078 70.0976 59.062 70.1066 59.0441 70.1076C58.5735 70.1366 58.1986 70.5187 58.1986 70.9979V118.237C58.1976 121.027 59.3252 123.697 61.3262 125.641C63.3252 127.584 66.0261 128.633 68.8118 128.549H99.8558C102.615 128.633 105.315 127.584 107.315 125.641C109.315 123.697 110.443 121.027 110.442 118.237L110.421 45.3178ZM59.9931 61.0073V45.3184C59.9981 40.4649 63.9313 36.5297 68.7848 36.5247C69.2494 36.5237 69.6173 36.1656 69.6631 35.7124C69.6671 35.6814 69.6821 35.6544 69.6821 35.6234C69.6811 35.1262 69.2783 34.7241 68.7828 34.7241C62.9403 34.7301 58.2045 39.4686 58.1985 45.3174V61.0073C58.1985 61.4865 58.5734 61.8686 59.044 61.8976C59.0619 61.8986 59.0779 61.9076 59.0958 61.9076C59.5913 61.9076 59.9931 61.5045 59.9931 61.0073Z" fill="#0F2B4A"/>
<path fill-rule="evenodd" clip-rule="evenodd" d="M59.9931 67.2555V64.8068C59.9931 64.3096 59.5913 63.9065 59.0958 63.9065C59.0779 63.9065 59.0619 63.9165 59.044 63.9175C58.5734 63.9455 58.1985 64.3286 58.1985 64.8068V67.2555C58.1985 67.7347 58.5734 68.1168 59.044 68.1458C59.0619 68.1468 59.0779 68.1558 59.0958 68.1558C59.5913 68.1558 59.9931 67.7527 59.9931 67.2555Z" fill="#0F2B4A"/>
<path fill-rule="evenodd" clip-rule="evenodd" d="M82.0255 45.9309H90.0016C90.4971 45.9309 90.8989 45.5279 90.8989 45.0309C90.8989 44.5339 90.4971 44.1309 90.0016 44.1309H82.0255C81.53 44.1309 81.1292 44.5339 81.1292 45.0309C81.1292 45.5279 81.53 45.9309 82.0255 45.9309ZM78.0374 46.031C78.5888 46.031 79.0344 45.583 79.0344 45.031C79.0344 44.479 78.5888 44.031 78.0374 44.031C77.4871 44.031 77.0404 44.479 77.0404 45.031C77.0404 45.583 77.4871 46.031 78.0374 46.031Z" fill="#EC0000"/>
<path fill-rule="evenodd" clip-rule="evenodd" d="M46.6949 58.9584L45.5743 60.0838L44.1954 58.7004L42.8116 60.0888L41.6909 58.9645L43.0748 57.576L41.6959 56.1926L42.8175 55.0682L44.1964 56.4517L45.5803 55.0632L46.7009 56.1866L45.3161 57.575L46.6949 58.9584Z" fill="#0D4F80"/>
<path fill-rule="evenodd" clip-rule="evenodd" d="M123.885 97.6995L123.073 98.5148L122.07 97.5095L121.066 98.5158L120.251 97.6985L121.254 96.6922L120.251 95.6859L121.066 94.8696L122.068 95.8759L123.072 94.8696L123.886 95.6869L122.882 96.6932L123.885 97.6995Z" fill="#6EE3FF"/>
<path fill-rule="evenodd" clip-rule="evenodd" d="M42.309 72.0173C26.5602 72.0173 13.7935 84.8173 13.7935 100.608C13.7935 116.398 26.5602 129.199 42.308 129.199C58.0489 129.181 70.8057 116.39 70.8236 100.608C70.8236 84.8173 58.0569 72.0173 42.309 72.0173Z" fill="white"/>
<path fill-rule="evenodd" clip-rule="evenodd" d="M35.1523 97.8774C35.7406 102.613 39.3926 106.382 44.0965 107.107C43.5083 107.215 42.9101 107.269 42.3119 107.267C46.8184 107.39 50.6838 104.069 51.2551 99.586L52.4186 90.203C52.7955 87.8593 52.1115 85.4686 50.5532 83.681C48.4664 81.3183 45.4704 79.9648 42.3218 79.9648C42.3159 79.9648 42.3099 79.9658 42.3039 79.9658L34.582 93.35L35.1523 97.8774Z" fill="#FEDAC6"/>
<path fill-rule="evenodd" clip-rule="evenodd" d="M33.3739 99.5597C33.9243 104.056 37.7947 107.394 42.3102 107.268H42.3112C42.9094 107.269 43.5076 107.215 44.0958 107.107C39.3919 106.382 35.7399 102.613 35.1516 97.8772L34.5813 93.3498L32.9602 96.1617L32.2114 90.1758C31.9821 88.7293 32.1586 87.2659 32.692 85.9385C32.1486 87.2689 31.9662 88.7324 32.1975 90.1758L33.3739 99.5597Z" fill="#F6C7B4"/>
<path fill-rule="evenodd" clip-rule="evenodd" d="M32.2122 90.1759L32.9609 96.1617L34.5821 93.3498L42.3039 79.9657L42.3189 79.9417C39.1733 79.9467 36.1793 81.2981 34.0905 83.6538C33.8074 83.9779 33.5631 84.327 33.3388 84.6861C33.268 84.8002 33.1912 84.9132 33.1264 85.0312C33.0855 85.1043 33.0496 85.1783 33.0118 85.2523C32.9101 85.4484 32.8134 85.6454 32.7286 85.8485C32.7166 85.8785 32.7047 85.9075 32.6927 85.9385C32.1593 87.2659 31.9828 88.7294 32.2122 90.1759Z" fill="#FEE5D7"/>
<path fill-rule="evenodd" clip-rule="evenodd" d="M32.6693 127.894C32.114 127.701 31.5637 127.495 31.0223 127.269C31.5647 127.496 32.115 127.7 32.6693 127.894Z" fill="#EC0000"/>
<path fill-rule="evenodd" clip-rule="evenodd" d="M31.2423 111.716C34.033 111.716 37.3381 112.754 39.8505 113.738C39.9213 113.76 39.9941 113.777 40.0659 113.801C37.5255 112.796 34.1167 111.696 31.2493 111.696C26.0888 111.696 21.5095 114.478 19.8385 118.626L19.7138 118.898L19.7119 118.902C19.7129 118.903 19.7129 118.903 19.7138 118.904L19.8325 118.646C21.5025 114.498 26.0818 111.716 31.2423 111.716Z" fill="#990000"/>
<path fill-rule="evenodd" clip-rule="evenodd" d="M64.8518 118.707C63.3015 114.384 58.8957 111.696 53.3483 111.696C50.1997 111.696 46.5158 112.949 43.9893 114.009C43.7281 114.116 43.4569 114.195 43.1827 114.25C43.1608 114.255 43.1389 114.258 43.1169 114.262C42.8906 114.305 42.6583 114.323 42.428 114.332C42.2844 114.338 42.1419 114.329 41.9983 114.32C41.9165 114.316 41.8358 114.31 41.754 114.3C41.3632 114.253 40.9783 114.16 40.6075 114.009C38.0342 112.949 34.3243 111.689 31.2495 111.689C26.089 111.689 21.5097 114.471 19.8387 118.62L19.7121 118.894C19.7121 118.895 19.7131 118.896 19.7141 118.897L19.8387 118.626C21.5097 114.478 26.089 111.696 31.2495 111.696C34.1169 111.696 37.5257 112.795 40.0661 113.801C39.9943 113.777 39.9215 113.761 39.8507 113.738C37.3383 112.753 34.0332 111.716 31.2425 111.716C26.082 111.716 21.5027 114.498 19.8327 118.646L19.7141 118.903L19.7051 118.921C20.3791 119.73 21.1039 120.488 21.8556 121.216C21.8965 121.256 21.9374 121.297 21.9783 121.336C22.3123 121.656 22.6522 121.967 22.9982 122.27C23.1198 122.375 23.2425 122.478 23.3651 122.582C23.6762 122.843 23.9872 123.105 24.3073 123.354C24.5197 123.519 24.739 123.674 24.9553 123.833C25.3262 124.105 25.7011 124.37 26.085 124.624C26.4469 124.864 26.8108 125.102 27.1837 125.325C27.3621 125.433 27.5446 125.534 27.726 125.637C28.1049 125.854 28.4858 126.064 28.8736 126.265C29.0331 126.347 29.1927 126.428 29.3542 126.507C29.8258 126.739 30.3043 126.96 30.7889 127.167C30.8666 127.2 30.9434 127.236 31.0212 127.269C31.5626 127.494 32.1139 127.7 32.6692 127.894C32.7311 127.915 32.7909 127.942 32.8527 127.963L32.8567 127.957C35.8697 128.986 39.0571 129.54 42.3124 129.54C51.0492 129.54 59.3334 125.638 64.9127 118.894L64.8518 118.707Z" fill="#EC0000"/>
<path fill-rule="evenodd" clip-rule="evenodd" d="M43.9829 114.015C43.7236 114.122 43.4554 114.194 43.1822 114.249C43.1613 114.254 43.1384 114.257 43.1174 114.261C42.8901 114.305 42.6588 114.322 42.4275 114.332C42.2849 114.338 42.1414 114.328 41.9988 114.32C41.917 114.315 41.8363 114.309 41.7545 114.3C41.6618 114.289 41.5681 114.293 41.4764 114.276C42.2122 114.525 42.9001 114.787 43.5292 115.055C44.613 115.497 45.8273 115.497 46.9121 115.055C49.4455 114.002 46.5163 112.956 43.9829 114.015ZM39.8507 113.737C37.3383 112.754 34.0332 111.716 31.2425 111.716C26.082 111.716 21.5037 114.498 19.8327 118.647L19.7141 118.904L19.7051 118.922C20.3791 119.731 21.1039 120.489 21.8556 121.217C21.8965 121.257 21.9374 121.297 21.9783 121.337C22.3123 121.656 22.6522 121.967 22.9992 122.27C23.1198 122.375 23.2425 122.478 23.3651 122.582C23.6762 122.844 23.9872 123.105 24.3073 123.353C24.5197 123.519 24.739 123.674 24.9563 123.833C25.3272 124.105 25.7021 124.37 26.085 124.624C26.4479 124.865 26.8108 125.102 27.1837 125.325C27.3631 125.433 27.5446 125.534 27.726 125.637C28.1049 125.854 28.4868 126.065 28.8736 126.264C29.0331 126.346 29.1937 126.428 29.3542 126.507C29.8258 126.74 30.3043 126.961 30.7889 127.167C30.8666 127.2 30.9434 127.237 31.0222 127.269C31.5626 127.494 32.1139 127.7 32.6692 127.894C32.7311 127.915 32.7909 127.943 32.8527 127.964L32.8567 127.957L40.8348 114.116L40.6005 114.036C40.3632 113.938 40.107 113.837 39.8507 113.737Z" fill="#990000"/>
<path fill-rule="evenodd" clip-rule="evenodd" d="M42.3082 129.199C26.5604 129.199 13.7936 116.398 13.7936 100.608C13.7936 84.8173 26.5604 72.0173 42.3092 72.0173C58.057 72.0173 70.8238 84.8173 70.8238 100.608C70.8058 116.39 58.0491 129.181 42.3082 129.199ZM42.3092 70.2167C25.5693 70.2167 12 83.823 12 100.608C12 117.393 25.5693 131 42.3102 131C59.0401 130.981 72.5995 117.385 72.6174 100.609C72.6174 83.823 59.0481 70.2167 42.3092 70.2167Z" fill="#0F2B4A"/>
<path fill-rule="evenodd" clip-rule="evenodd" d="M74.4984 98.7323C74.4984 82.1591 61.1075 68.7229 44.588 68.7229C38.2809 68.7229 32.4334 70.6865 27.6099 74.0306C31.9638 71.6038 36.9738 70.2164 42.3098 70.2164C59.0487 70.2164 72.618 83.8236 72.618 100.609C72.6101 108.139 69.8673 115.024 65.3408 120.332C70.9839 114.874 74.4984 107.217 74.4984 98.7323Z" fill="#C6EDF7"/>
</svg>
