<svg width="160" height="160" viewBox="0 0 160 160" fill="none" xmlns="http://www.w3.org/2000/svg">
<path fill-rule="evenodd" clip-rule="evenodd" d="M80.7908 124.943C122.266 128.273 143.002 118.961 143 97.0036C142.996 64.0703 118.647 67.4742 107.576 59.0627C96.5056 50.6522 103.042 59.0627 88.0944 40.3743C78.1292 27.9154 62.7212 27.8754 41.8715 40.2541C26.3207 52.753 24.6138 69.114 36.7496 89.3368C48.8855 109.56 63.5655 121.429 80.7908 124.943Z" fill="#191919"/>
<path fill-rule="evenodd" clip-rule="evenodd" d="M96.3201 85.8682C94.191 87.528 92.7301 88.5113 91.8948 88.7128L91.6782 88.7388H83.8299L83.6214 88.7148C82.6069 88.4782 80.9263 87.3416 78.5745 85.4562C78.291 85.2297 78.0014 84.9942 77.7058 84.7506C77.2522 84.3767 76.7926 83.9888 76.333 83.5969L76.0383 89.5227L86.4683 95.0184L97.2313 89.3473L96.6684 85.5946C96.5519 85.6858 96.4335 85.779 96.3201 85.8682" fill="#F6C7B4"/>
<path fill-rule="evenodd" clip-rule="evenodd" d="M68.4457 67.8785C68.469 67.8735 68.4923 67.8655 68.5156 67.8544L69.5219 67.3974L69.7811 68.4628C70.266 70.4575 70.9859 72.4852 71.8768 74.4958C72.4873 75.873 73.1423 77.159 73.7963 78.3177C74.0251 78.7216 74.2367 79.0805 74.4251 79.3892C74.4969 79.5054 74.5536 79.5967 74.5961 79.6638C74.6225 79.6869 74.667 79.728 74.6994 79.757C74.7521 79.8041 74.7966 79.8452 74.8665 79.9074C75.153 80.166 75.4759 80.4536 75.8283 80.7644C76.0328 80.9448 76.2403 81.1222 76.4469 81.3016C77.2548 82.0062 78.0718 82.7049 78.8706 83.3634C79.1601 83.6029 79.4436 83.8325 79.721 84.054C81.7205 85.6577 83.2736 86.7182 83.9529 86.9347H91.546C92.0786 86.7442 93.4393 85.8171 95.1928 84.4509C95.3902 84.2955 95.5937 84.1362 95.8012 83.9718C95.9835 83.8265 96.1718 83.6721 96.3571 83.5218C96.9017 83.0827 97.4484 82.6337 97.9972 82.1766C98.148 82.0503 98.2999 81.9261 98.4507 81.7998C98.7585 81.5402 99.042 81.2996 99.2941 81.0831C99.3943 80.9969 99.4753 80.9277 99.535 80.8766C99.5664 80.8345 99.6069 80.7784 99.6575 80.7092C99.8043 80.5068 99.9724 80.2692 100.158 79.9976C100.689 79.2208 101.25 78.3407 101.815 77.3745C103.426 74.6201 104.742 71.7394 105.553 68.8848L105.788 68.0629L106.629 68.2493L106.643 68.2523C107.615 68.4628 109.057 66.9433 109.595 64.667C110.142 62.4018 109.553 60.4763 108.608 60.2618C108.368 60.2107 108.084 60.2688 107.765 60.4543L106.414 61.2401L106.392 59.6895C106.292 52.4617 105.521 47.9252 103.333 44.371C100.607 39.9467 95.7051 37.6213 87.7556 37.6213C80.1462 37.6213 75.3028 40.0329 72.4934 44.5995C70.2053 48.3181 69.2891 53.2105 69.1331 60.3009L69.0916 62.1993L67.6307 60.9675C67.3381 60.7209 67.1043 60.6447 66.9534 60.6798C66.2822 60.8522 65.7993 62.6113 66.2305 64.66C66.676 66.7008 67.8069 68.0338 68.4457 67.8785" fill="#FEDAC6"/>
<path fill-rule="evenodd" clip-rule="evenodd" d="M96.5905 47.2335C94.5798 46.6983 92.472 46.7835 90.3753 46.998C85.9216 47.451 80.1913 49.7584 75.8147 48.0273C75.5909 47.9361 75.4259 48.1436 75.5028 48.327C76.5902 51.6618 82.6161 51.1857 85.3435 50.894C88.4152 50.5702 91.579 50.1833 94.6841 50.5702C96.389 50.8008 97.6363 51.8903 98.7925 53.034C98.9545 53.3086 99.1043 53.6033 99.2744 53.8719C101.884 58.3062 102.263 65.3736 100.388 70.1897C99.2744 73.5164 95.5183 76.1175 92.9033 79.0904C90.1151 82.5414 85.5379 82.3579 80.6236 83.1197C82.1767 84.3636 83.9079 85.9974 83.9079 86.9546H91.579C93.2313 86.5336 99.9163 80.4425 99.9163 80.4425C99.9163 80.4425 106.869 70.8753 106.869 61.7331C106.869 51.2258 107.054 41.8951 96.5905 38.0532C96.0397 41.9132 95.7482 43.5359 96.5905 47.2335" fill="#F6C7B4"/>
<path fill-rule="evenodd" clip-rule="evenodd" d="M96.3853 83.9242C96.2081 84.0665 96.029 84.2138 95.8558 84.3522C95.6584 84.5085 95.465 84.6609 95.2757 84.8082C93.6073 86.1102 92.3114 86.9923 91.8041 87.1747H84.5714C83.9245 86.9682 82.4453 85.9579 80.541 84.4303C80.2778 84.2199 80.0074 84.0004 79.7321 83.7728C78.9707 83.1464 78.1932 82.4798 77.4238 81.8093C77.2263 81.6379 77.0289 81.4695 76.8335 81.2981C76.7839 81.253 76.7464 81.2189 76.6968 81.1748V83.7768C77.3185 84.5847 78.0302 85.2994 78.8259 85.8907L84.5441 90.1456C87.8061 92.5732 91.9013 92.5732 95.1643 90.1456L96.9452 88.8205V83.4651C96.7589 83.6175 96.5716 83.7748 96.3853 83.9242" fill="#EABCAC"/>
<path fill-rule="evenodd" clip-rule="evenodd" d="M54.1726 101.919C52.4151 103.52 50.9207 105.396 49.7544 107.48C50.6079 108.369 51.4755 109.216 52.3482 110.043L50.3356 106.862L54.1726 101.919Z" fill="white"/>
<path fill-rule="evenodd" clip-rule="evenodd" d="M67.8655 94.7483L69.4753 96.7559C69.7102 97.0506 70.0918 97.1609 70.4361 97.0696C70.0939 96.4923 69.5107 95.508 68.6734 94.0938L56.4252 99.0152L54.1726 101.919C55.9808 100.271 58.0673 98.9139 60.3757 97.9337L67.8655 94.7483Z" fill="#E8E8E8"/>
<path fill-rule="evenodd" clip-rule="evenodd" d="M124.741 110.962C122.702 105.107 118.266 100.375 112.524 97.933L104.016 94.3166L100.655 98.9293L99.5608 100.331L93.6088 107.954L90.2354 103.408L87.9524 100.331L86.5968 98.5033L86.0592 97.7796L85.5034 98.5033L84.1012 100.331L81.9042 103.196L78.2676 107.937L71.8468 99.7151C71.535 99.3162 71.6099 98.7428 72.0119 98.4341C72.3844 98.1495 72.9069 98.1896 73.2298 98.5123L73.3068 98.5985L73.57 98.9343L74.6593 100.331L78.2544 104.934L81.7847 100.331L83.1859 98.5033L84.8686 96.3102L75.7862 91.5261L73.9861 90.5779L73.9486 90.5579L70.6745 93.5558L69.6236 94.0018L70.9215 95.6206C71.2141 95.9864 71.1797 96.5036 70.8577 96.8274L70.7717 96.9046C70.6694 96.9848 70.555 97.0379 70.4366 97.07C70.0923 97.1612 69.7117 97.0509 69.4758 96.7562L67.866 94.7486L60.3762 97.933C58.0689 98.9142 55.9813 100.27 54.1731 101.919L50.336 106.863L52.3487 110.043C54.6611 112.233 57.0402 114.206 59.4862 115.961C66.0751 120.687 73.1417 123.838 80.7004 125.38C100.571 126.975 115.734 125.701 126.203 121.565L124.741 110.962Z" fill="white"/>
<path fill-rule="evenodd" clip-rule="evenodd" d="M130.43 52.4549L129.228 53.6446L127.255 51.6901L125.284 53.6396L124.079 52.4459L126.048 50.4953L124.075 48.5408L125.275 47.3521L127.249 49.3066L129.22 47.3561L130.425 48.5498L128.455 50.5004L130.43 52.4549Z" fill="#6EE3FF"/>
<path fill-rule="evenodd" clip-rule="evenodd" d="M86.2881 105.423C86.031 105.4 85.7799 105.343 85.5896 105.225L84.0476 104.307L81.6158 125.444L90.7276 125.447L88.806 104.109L86.9826 105.219C86.7852 105.336 86.5382 105.4 86.2881 105.423" fill="#0D4F80"/>
<path fill-rule="evenodd" clip-rule="evenodd" d="M88.84 104.344L90.7504 125.447H92.9545L89.5163 103.901L88.84 104.344Z" fill="#6EE3FF"/>
<path fill-rule="evenodd" clip-rule="evenodd" d="M93.9104 38.2194C95.262 39.0784 96.6156 39.9444 97.9742 40.8064C97.3293 40.1308 96.6874 39.4573 96.0435 38.7827C94.4095 38.2374 92.5497 37.8786 90.4358 37.7192C92.5305 38.5341 94.4864 39.6998 96.1782 41.1823C95.4209 40.194 94.6677 39.2067 93.9104 38.2194" fill="#0F2B4A"/>
<path fill-rule="evenodd" clip-rule="evenodd" d="M102.007 93.9707L100.125 96.3502L98.5788 98.3288L98.5899 98.4029H98.5211L97.1118 100.208L93.5744 104.738L90.2132 100.208L88.8748 98.4029L87.4817 96.5266L97.5148 91.2403L98.8117 90.5578L99.326 91.0278L102.044 93.5176L102.007 93.9707ZM86.4672 95.0181L76.0383 89.5223L76.3329 83.5966C76.7926 83.9885 77.2522 84.3764 77.7058 84.7503C78.0014 84.9938 78.291 85.2294 78.5734 85.4559C80.9263 87.3413 82.6069 88.4779 83.6213 88.7145L83.8299 88.7385H91.6782L91.8948 88.7125C92.7301 88.511 94.191 87.5277 96.3201 85.8679C96.4335 85.7787 96.5509 85.6855 96.6684 85.5942L97.2313 89.3469L86.4672 95.0181ZM66.4882 61.1045C67.1939 63.8087 68.5535 68.9146 69.081 63.943C69.1154 62.8355 70.0215 52.7802 71.2941 50.99C71.6819 50.4337 72.096 49.9536 72.5303 49.5457C72.9252 49.7111 73.2785 49.8754 73.6166 49.9626C75.4319 50.4077 77.3423 50.3275 79.2113 50.2162C85.3404 49.8173 92.2957 48.4491 98.4067 49.3352C99.7441 49.5216 101.149 49.8163 102.529 50.2523C102.723 50.4818 102.913 50.7274 103.095 50.99C104.357 52.7802 105.276 62.8355 105.313 63.943C105.888 69.4679 107.492 62.5498 108.115 60.3096C108.293 60.2555 108.461 60.2304 108.609 60.2615C109.552 60.476 110.142 62.4015 109.595 64.6667C109.057 66.943 107.616 68.4625 106.644 68.252L106.629 68.249L105.787 68.0626L105.553 68.8845C104.741 71.7391 103.425 74.6198 101.815 77.3742C101.251 78.3404 100.689 79.2205 100.158 79.9973C99.9719 80.2689 99.8038 80.5064 99.658 80.7089C99.6074 80.7781 99.5669 80.8342 99.5355 80.8763C99.4758 80.9274 99.3948 80.9966 99.2936 81.0828C99.0415 81.2993 98.759 81.5398 98.4502 81.7994C98.3004 81.9257 98.1475 82.05 97.9977 82.1753C97.4489 82.6334 96.9022 83.0824 96.3576 83.5214C96.1713 83.6718 95.984 83.8261 95.8007 83.9715C95.5942 84.1359 95.3907 84.2952 95.1933 84.4496C93.4398 85.8168 92.0781 86.7439 91.5465 86.9343H83.9534C83.2741 86.7178 81.721 85.6574 79.7205 84.0537C79.4441 83.8322 79.1606 83.6016 78.8701 83.3631C78.0713 82.7045 77.2553 82.0049 76.4474 81.3013C76.2408 81.1219 76.0333 80.9435 75.8288 80.764C75.4764 80.4533 75.1535 80.1657 74.866 79.9071C74.7971 79.8449 74.7516 79.8038 74.6989 79.7567C74.6665 79.7276 74.622 79.6865 74.5967 79.6635C74.5541 79.5963 74.4964 79.5041 74.4256 79.3889C74.2362 79.0801 74.0246 78.7213 73.7968 78.3164C73.1418 77.1587 72.4878 75.8717 71.8763 74.4945C70.9854 72.4849 70.2655 70.4571 69.7816 68.4625L69.5224 67.3971L68.5161 67.8541C68.4918 67.8651 68.4695 67.8722 68.4462 67.8782C67.8074 68.0335 66.6765 66.7004 66.231 64.6597C65.9101 63.1352 66.0954 61.774 66.4882 61.1045V61.1045ZM81.5935 36.4353C80.2308 36.733 78.9774 37.1389 77.8263 37.6501C78.9764 37.1379 80.2308 36.733 81.5935 36.4353V36.4353ZM93.8083 36.3451C93.7708 36.338 93.7354 36.329 93.6969 36.322C93.6554 36.2769 93.6129 36.2328 93.5714 36.1897C93.6524 36.2388 93.7273 36.2949 93.8083 36.3451V36.3451ZM65.979 59.159C64.4664 59.9869 63.9025 62.4476 64.4482 65.0336C65.0111 67.6146 66.5206 69.6092 68.2184 69.6944C68.7175 71.5346 69.3949 73.3869 70.2078 75.2202C70.8436 76.6535 71.525 77.9906 72.2053 79.1974C72.4453 79.6204 72.668 79.9983 72.8674 80.325C72.9889 80.5235 73.078 80.6628 73.1266 80.738L73.1894 80.8332L73.2734 80.9104C73.3413 80.9715 73.4658 81.0848 73.6399 81.2422C73.9224 81.4957 74.2403 81.7794 74.5835 82.0821L74.2595 88.5852L73.8373 88.3627L69.8838 91.9821L60.0027 96.1828C55.3162 98.1744 51.4477 101.594 48.9066 105.883C49.3429 106.36 49.7904 106.806 50.2328 107.266C52.5705 103.092 56.2294 99.7501 60.7215 97.8406L68.1172 94.6953L69.7067 96.6779C70.0195 97.0688 70.5925 97.134 70.9864 96.8243L71.0714 96.7481C71.3893 96.4284 71.4227 95.9172 71.1342 95.5573L69.8525 93.9576L70.8912 93.5176L74.1239 90.5578L74.1603 90.5768L75.9381 91.513L84.9061 96.2379L83.2457 98.4029L81.8618 100.208L78.375 104.753L74.8255 100.208L73.7493 98.8289L73.4901 98.4972L73.4141 98.412C73.0942 98.0932 72.5799 98.0531 72.2114 98.3348C71.8135 98.6395 71.7396 99.2058 72.0484 99.6007L78.3882 107.72L81.9802 103.037C82.0146 103.071 82.048 103.107 82.0896 103.132L82.9552 103.655L84.0476 104.307L85.5885 105.225C85.7798 105.343 86.0309 105.4 86.288 105.423C86.5381 105.4 86.7851 105.336 86.9816 105.219L88.8059 104.109L89.6057 103.622L90.2071 103.246L93.537 107.735L99.414 100.208L100.495 98.8239L103.814 94.2684L112.214 97.8406C117.886 100.251 122.266 104.924 124.279 110.705L125.723 121.176C126.316 120.941 126.9 120.702 127.462 120.449L126.073 110.375L126.032 110.206C123.866 103.903 119.106 98.8069 112.934 96.1828L103.052 91.9821L99.0982 88.3627L98.9382 88.4469L98.3125 84.2702C98.7529 83.9083 99.1944 83.5415 99.6307 83.1736C99.9435 82.911 100.23 82.6665 100.486 82.4469C100.64 82.3156 100.75 82.2204 100.808 82.1703L100.935 82.035C100.973 81.9849 101.042 81.8937 101.137 81.7614C101.294 81.5459 101.472 81.2943 101.667 81.0086C102.22 80.1987 102.805 79.2826 103.392 78.2783C104.945 75.6221 106.238 72.8497 107.101 70.0652C108.988 69.8848 110.729 67.788 111.369 65.0817C111.689 63.7566 111.704 62.4596 111.449 61.3651C111.104 59.8917 110.268 58.7871 109.004 58.5004C108.859 58.4694 108.714 58.4523 108.568 58.4453C108.861 56.9158 109.129 54.8009 109.294 52.6378C109.402 51.7819 109.49 50.5961 109.458 49.2941C109.495 47.2062 109.378 45.381 109.026 44.4108C108.494 42.9414 107.712 41.6824 106.739 40.5959C106.562 40.209 106.366 39.8472 106.142 39.5254C102.393 34.139 92.6278 29.5022 80.169 31.7644C75.4744 32.6044 73.2532 34.9458 72.2205 36.4463C69.0091 37.618 66.5591 39.6187 65.3533 42.9474C64.4219 45.5324 65.1569 55.4233 65.979 59.159V59.159Z" fill="#5C5C5C"/>
<path fill-rule="evenodd" clip-rule="evenodd" d="M102.008 93.9713L102.045 93.5182L99.3269 91.0284L98.8126 90.5583L97.5157 91.2409L87.4826 96.5272L88.8757 98.4035L90.2141 100.209L93.5754 104.738L97.1128 100.209L98.522 98.4035H98.5909L98.5798 98.3294L100.126 96.3508L102.008 93.9713Z" fill="#E8E8E8"/>
<path fill-rule="evenodd" clip-rule="evenodd" d="M99.586 47.2151C98.9512 45.3488 98.3113 43.5978 97.4224 41.8397C99.1719 42.6405 100.828 44.567 102.302 45.8009C101.156 43.3432 99.671 41.2814 97.8578 39.5083C97.2868 39.2376 96.6834 38.9951 96.0445 38.7826C96.6884 39.4572 97.3293 40.1307 97.9742 40.8053C96.6155 39.9443 95.2619 39.0783 93.9114 38.2193C94.6687 39.2066 95.4219 40.1939 96.1792 41.1812C94.4874 39.6997 92.5304 38.534 90.4367 37.7191C90.1938 37.7011 89.9437 37.6891 89.6936 37.676C93.392 40.3933 96.739 43.6018 99.586 47.2151" fill="#191919"/>
<path fill-rule="evenodd" clip-rule="evenodd" d="M89.3203 81.5978C88.7858 81.5978 88.2897 81.2489 88.1257 80.7097C87.9262 80.0482 88.2988 79.3495 88.9589 79.1491L93.4581 77.7809C99.8697 75.8334 104.892 70.8428 106.893 64.434C107.099 63.7744 107.799 63.4066 108.457 63.6141C109.115 63.8195 109.482 64.5222 109.276 65.1817C107.028 72.3814 101.385 77.9874 94.183 80.1765L89.6828 81.5436C89.5623 81.5797 89.4398 81.5978 89.3203 81.5978" fill="#990000"/>
<path fill-rule="evenodd" clip-rule="evenodd" d="M66.879 69.3859H64.2912V55.7292C64.2912 44.4691 74.5096 35.3069 87.0696 35.3069C99.6317 35.3069 109.85 44.4691 109.85 55.7292V68.8346H107.262V55.7292C107.262 45.7481 98.2042 37.6273 87.0696 37.6273C75.9371 37.6273 66.879 45.7481 66.879 55.7292V69.3859Z" fill="#990000"/>
<path fill-rule="evenodd" clip-rule="evenodd" d="M65.834 55.3157C63.0377 55.3157 60.7719 57.3434 60.7719 59.8462V65.821C60.7719 68.3228 63.0377 70.3505 65.834 70.3505V70.3485V55.3187V55.3157Z" fill="#EC0000"/>
<path fill-rule="evenodd" clip-rule="evenodd" d="M68.7459 54.3132H66.9701C66.3424 54.3132 65.8332 54.7633 65.8332 55.3186V70.3484C65.8332 70.9027 66.3424 71.3527 66.9701 71.3527H68.7459C69.3736 71.3527 69.8828 70.9027 69.8828 70.3484V55.3186C69.8828 54.7633 69.3736 54.3132 68.7459 54.3132Z" fill="#990000"/>
<path fill-rule="evenodd" clip-rule="evenodd" d="M109.369 55.3157V55.3177V70.3485V70.3505C112.165 70.3505 114.431 68.3228 114.431 65.821V59.8462C114.431 57.3434 112.165 55.3157 109.369 55.3157" fill="#EC0000"/>
<path fill-rule="evenodd" clip-rule="evenodd" d="M108.23 54.3132H106.455C105.827 54.3132 105.318 54.7633 105.318 55.3176V70.3484C105.318 70.9027 105.827 71.3527 106.455 71.3527H108.23C108.858 71.3527 109.367 70.9027 109.367 70.3484V55.3176C109.367 54.7633 108.858 54.3132 108.23 54.3132" fill="#990000"/>
<path fill-rule="evenodd" clip-rule="evenodd" d="M70.797 97.6778C70.797 97.6778 70.6725 97.4684 70.4366 97.0694C70.0924 97.1606 69.7107 97.0504 69.4748 96.7567L67.8651 94.748L60.3752 97.9334C58.0679 98.9137 55.9803 100.271 54.1721 101.919L50.3351 106.862L52.3477 110.043C54.6611 112.233 57.0393 114.206 59.4853 115.96V112.404C60.3691 104.093 64.1394 99.1843 70.797 97.6778" fill="#E8E8E8"/>
<path fill-rule="evenodd" clip-rule="evenodd" d="M36.5166 128.36C47.1399 128.36 55.7526 119.833 55.7526 109.315C55.7526 98.797 47.1399 90.2712 36.5166 90.2712C25.8923 90.2712 17.2807 98.797 17.2807 109.315C17.2807 119.833 25.8923 128.36 36.5166 128.36" fill="white"/>
<path fill-rule="evenodd" clip-rule="evenodd" d="M27.4826 91.6074C28.2034 92.1607 28.2388 93.3645 27.9321 95.3601C27.8551 95.8663 27.7539 96.4145 27.6304 96.9969C27.4441 97.8819 27.2193 98.8041 26.9774 99.7092C26.8933 100.025 26.8124 100.318 26.7384 100.579C26.6939 100.737 26.6605 100.849 26.6423 100.91C26.5157 101.334 26.0713 101.592 25.6501 101.485C25.2289 101.379 24.989 100.949 25.1155 100.525C25.1328 100.471 25.1631 100.364 25.2056 100.213C25.2775 99.9598 25.3565 99.6761 25.4385 99.3684C25.6744 98.4894 25.8921 97.5953 26.0713 96.7413C26.1887 96.186 26.2849 95.6658 26.3578 95.1917C26.4074 94.872 26.4448 94.5753 26.4702 94.3057C21.7169 97.6845 18.8213 103.124 18.8213 109.054C18.8213 119.073 27.027 127.195 37.1471 127.195C47.2672 127.195 55.4719 119.073 55.4719 109.054C55.4719 105.996 54.7075 103.05 53.2709 100.425L53.038 100.013L54.6174 99.1128C56.3618 102.112 57.2932 105.517 57.2932 109.054C57.2932 120.069 48.2736 129 37.1471 129C26.0206 129 17 120.069 17 109.054C17 102.862 19.8712 97.1553 24.6357 93.4176C24.1173 93.6271 23.5291 93.8927 22.8872 94.2064C22.0763 94.6033 21.2289 95.0534 20.3977 95.5185C20.1071 95.6808 19.8378 95.8342 19.5999 95.9725C19.4571 96.0557 19.3569 96.1148 19.3053 96.1459C18.9206 96.3755 18.4346 96.2602 18.222 95.8883C18.0074 95.5165 18.145 95.0293 18.5298 94.7998C18.5875 94.7647 18.6938 94.7026 18.8426 94.6164C19.0886 94.473 19.365 94.3157 19.6637 94.1483C20.5202 93.6692 21.3939 93.2051 22.2352 92.7931C23.2851 92.279 24.2125 91.882 24.9799 91.6305C26.1249 91.2576 26.9257 91.1804 27.4826 91.6074V91.6074ZM32.3928 102.542C33.6695 102.542 34.693 102.872 35.4635 103.531C36.2339 104.192 36.6186 105.08 36.6186 106.196C36.6186 106.81 36.5073 107.393 36.2855 107.944C36.0638 108.496 35.7226 109.065 35.262 109.65C34.8013 110.236 34.036 111.028 32.9648 112.027L30.5796 114.314V114.407H37.0975V116.332H27.7903V114.677L31.3308 111.153C32.3766 110.092 33.0701 109.341 33.4113 108.897C33.7525 108.454 34.0005 108.037 34.1585 107.647C34.3144 107.256 34.3923 106.838 34.3923 106.392C34.3923 105.777 34.207 105.294 33.8335 104.94C33.4609 104.587 32.9456 104.41 32.2885 104.41C31.7631 104.41 31.2548 104.506 30.7628 104.699C30.2708 104.891 29.7028 105.238 29.0579 105.74L27.8653 104.299C28.6286 103.66 29.3707 103.208 30.0906 102.942C30.8114 102.675 31.5778 102.542 32.3928 102.542V102.542ZM46.3206 102.699V111.552H48.1723V113.366H46.3206V116.332H44.1703V113.366H37.8963V111.682L44.1703 102.699H46.3206ZM44.2644 105.155H44.1895C44.0143 105.564 43.739 106.059 43.3634 106.642L39.9525 111.552H44.1703V108.14C44.1703 106.924 44.2027 105.93 44.2644 105.155Z" fill="#EC0000"/>
</svg>
