<svg width="160" height="160" viewBox="0 0 160 160" fill="none" xmlns="http://www.w3.org/2000/svg">
<path fill-rule="evenodd" clip-rule="evenodd" d="M122.022 90.0605C122.022 115.838 101.127 136.736 75.352 136.736C49.5765 136.736 28.6816 115.838 28.6816 90.0605C28.6816 64.2821 49.5765 43.3848 75.352 43.3848C101.127 43.3848 122.022 64.2821 122.022 90.0605Z" fill="white"/>
<path fill-rule="evenodd" clip-rule="evenodd" d="M122.022 90.0605C122.022 115.838 101.127 136.736 75.352 136.736C49.5765 136.736 28.6816 115.838 28.6816 90.0605C28.6816 64.2821 49.5765 43.3848 75.352 43.3848C101.127 43.3848 122.022 64.2821 122.022 90.0605Z" fill="#E5E5E5"/>
<path d="M30.7239 53.7682C30.7239 51.1364 28.5904 49.0029 25.9586 49.0029C23.3268 49.0029 21.1934 51.1364 21.1934 53.7682C21.1934 56.4 23.3268 58.5335 25.9586 58.5335C28.5904 58.5335 30.7239 56.4 30.7239 53.7682Z" stroke="#D9D9D9" stroke-width="1.46624"/>
<path d="M134.984 122.072C134.984 120.047 133.343 118.406 131.318 118.406C129.294 118.406 127.653 120.047 127.653 122.072C127.653 124.096 129.294 125.737 131.318 125.737C133.343 125.737 134.984 124.096 134.984 122.072Z" stroke="#767676" stroke-width="1.46624"/>
<path d="M77.7726 35.9254L74.9868 38.7113L70.4204 34.1449L65.8516 38.7137L63.0613 35.923L67.6297 31.3542L63.0633 26.7883L65.8491 24.0024L70.4155 28.5683L74.9843 24L77.7746 26.7903L73.2063 31.3591L77.7726 35.9254Z" fill="#767676"/>
<path d="M9.13163 96.3313C6.00365 100.632 4.89581 116.859 4.73291 124.434L26.7265 126.39C27.8669 125.005 31.0275 121.258 34.5464 117.348C38.9452 112.46 42.122 112.216 43.0995 110.505C44.077 108.795 44.5657 107.084 45.5432 106.351C46.5207 105.618 48.7201 102.685 47.2538 101.464C43.0995 99.0199 39.9227 103.663 38.7008 105.129C37.4789 106.595 35.0352 106.595 33.5689 106.351C32.1027 106.107 32.3471 105.862 31.614 103.174C30.5891 99.4158 31.1252 90.7107 31.614 86.8007L31.8028 86.4234L31.8583 86.3125C31.8583 86.3125 34.6279 85.2533 35.0352 85.0906C36.9902 85.335 40.6558 84.3575 39.9227 82.4025C39.3362 80.8385 35.1167 79.3068 33.0802 78.7364C30.1477 75.8039 22.5722 77.5145 21.3503 77.5145C20.3728 77.5145 19.4768 79.7955 19.1509 80.9358C17.4403 80.447 16.2185 81.1801 14.2635 86.8007C12.3085 92.4213 13.0416 90.9551 9.13163 96.3313Z" fill="#F2F2F2"/>
<path d="M27.7042 87.2837C27.7042 83.9602 31.1254 82.8034 32.836 82.6406C34.0579 83.2105 36.1594 84.3512 34.7909 84.3512C33.0803 84.3512 32.836 85.8175 31.6141 86.795C30.3921 87.7725 30.6366 95.1037 30.881 101.213C31.1253 107.322 33.8134 106.589 36.5015 105.612C39.1896 104.634 40.4115 102.19 42.3665 101.213C44.3215 100.235 46.0321 101.457 47.4983 102.19C48.9646 102.924 46.2765 105.612 44.8102 107.322C43.344 109.033 43.0996 108.789 40.6559 110.01C38.2122 111.232 36.9903 111.721 34.7909 112.21C32.5916 112.699 30.6367 112.21 27.7042 105.612C24.7717 99.0136 27.7042 91.4381 27.7042 87.2837Z" fill="#EBEBEB"/>
<path d="M145.248 65.4433C150.722 69.5488 154.697 71.2271 156 71.5526L154.534 90.3694C153.557 89.2291 150.868 86.5571 147.936 84.9932C144.27 83.0382 142.56 84.9932 140.849 86.215C139.138 87.4369 131.563 85.7263 127.164 85.7263C122.765 85.7263 117.145 86.9481 115.434 87.9256C114.066 88.7076 111.28 88.7404 110.058 88.6588C107.126 89.6363 101.603 90.6626 102.971 86.9481C104.682 82.3051 109.081 80.5944 110.791 80.5944C112.502 80.5944 114.212 80.1057 117.145 78.8838C119.491 77.9063 121.381 75.0555 122.032 73.752V65.932C121.055 65.3455 120.648 64.0587 120.566 63.4883C119.393 63.2928 117.308 62.2664 116.412 61.7777C115.19 62.2664 112.257 61.0446 111.524 61.7777C110.938 62.3642 108.673 64.1403 107.614 64.9546L104.926 61.0446C105.419 60.5197 106.133 59.7826 106.85 59.0896H104.926C105.578 57.7866 106.881 55.0819 106.881 54.6909C106.881 54.2999 111.769 54.5281 114.212 54.6909L111.524 52.0028H102.238C100.772 52.8991 97.0086 54.4465 93.6851 53.469C89.5307 52.2471 92.7511 50.5312 95.8844 48.3372C98.3277 46.6266 99.0613 46.1378 100.039 45.6491C100.772 45.6491 103.167 45.4536 106.881 44.6716C111.524 43.6941 113.724 42.961 116.412 45.6491C119.1 48.3372 122.032 49.559 125.942 50.2922C129.852 51.0253 130.585 52.0028 132.052 53.469C133.518 54.9353 138.405 60.3115 145.248 65.4433Z" fill="#F2F2F2"/>
<path d="M145.248 65.4433C150.722 69.5488 154.697 71.2271 156 71.5526L154.534 90.3694C153.557 89.2291 150.868 86.5571 147.936 84.9932C144.27 83.0382 142.56 84.9932 140.849 86.215C139.138 87.4369 131.563 85.7263 127.164 85.7263C122.765 85.7263 117.145 86.9481 115.434 87.9256C114.066 88.7076 111.28 88.7404 110.058 88.6588C107.126 89.6363 101.603 90.6626 102.971 86.9481C104.682 82.3051 109.081 80.5944 110.791 80.5944C112.502 80.5944 114.212 80.1057 117.145 78.8838C119.491 77.9063 121.381 75.0555 122.032 73.752V65.932C121.055 65.3455 120.648 64.0587 120.566 63.4883C119.393 63.2928 117.308 62.2664 116.412 61.7777C115.19 62.2664 112.257 61.0446 111.524 61.7777C110.938 62.3642 108.673 64.1403 107.614 64.9546L104.926 61.0446C105.419 60.5197 106.133 59.7826 106.85 59.0896H104.926C105.578 57.7866 106.881 55.0819 106.881 54.6909C106.881 54.2999 111.769 54.5281 114.212 54.6909L111.524 52.0028H102.238C100.772 52.8991 97.0086 54.4465 93.6851 53.469C89.5307 52.2471 92.7511 50.5312 95.8844 48.3372C98.3277 46.6266 99.0613 46.1378 100.039 45.6491C100.772 45.6491 103.167 45.4536 106.881 44.6716C111.524 43.6941 113.724 42.961 116.412 45.6491C119.1 48.3372 122.032 49.559 125.942 50.2922C129.852 51.0253 130.585 52.0028 132.052 53.469C133.518 54.9353 138.405 60.3115 145.248 65.4433Z" fill="#F2F2F2"/>
<path d="M113.235 46.4719C111.671 45.2989 108.999 45.9832 107.858 46.4719C108.103 45.9832 109.031 44.7613 110.791 43.7838C112.99 42.5619 116.411 45.4944 118.611 47.205C120.81 48.9156 123.254 49.6488 127.164 50.3819C130.292 50.9684 131.4 52.0925 131.563 52.5812C133.762 54.699 139.04 59.7658 142.559 63.0893C146.078 66.4128 152.66 70.1761 155.511 71.6424V74.5748L150.379 72.6198C144.759 71.1536 133.029 60.6456 131.563 58.935C130.096 57.2243 124.231 52.3369 119.833 51.115C115.434 49.8931 115.19 47.9382 113.235 46.4719Z" fill="#EBEBEB"/>
<path d="M9.13169 96.3244L8.53879 95.8928L9.13169 96.3244ZM19.151 80.9289L18.9496 81.6336L19.6545 81.835L19.8559 81.1302L19.151 80.9289ZM33.0803 78.7295L32.5619 79.2476L32.6977 79.3834L32.8826 79.4353L33.0803 78.7295ZM39.9227 82.3951L40.6089 82.1375L39.9227 82.3951ZM35.0352 85.0832L35.1262 84.3555L35.0989 84.352L35.0714 84.3506L35.0352 85.0832ZM31.8584 86.3051L31.5966 85.6203L31.3302 85.722L31.2027 85.9771L31.8584 86.3051ZM31.614 86.7938L30.9583 86.4659L30.9022 86.5778L30.8866 86.7024L31.614 86.7938ZM31.614 103.167L32.3213 102.974L31.614 103.167ZM47.2539 101.456L47.7231 100.893L47.6772 100.855L47.6258 100.824L47.2539 101.456ZM34.5465 117.34L34.0016 116.85L34.5465 117.34ZM31.8028 86.416L31.1471 86.0881L31.8028 86.416ZM5.46594 124.443C5.54698 120.673 5.86344 114.749 6.54798 109.238C6.8903 106.482 7.32294 103.844 7.86002 101.638C8.40351 99.4049 9.03306 97.7061 9.72459 96.7554L8.53879 95.8928C7.66633 97.0927 6.98443 99.035 6.43537 101.291C5.87986 103.573 5.43887 106.272 5.09289 109.057C4.40077 114.629 4.08187 120.605 4 124.411L5.46594 124.443ZM9.72459 96.7554C11.6445 94.1152 12.4942 93.0654 13.0743 92.0014C13.6623 90.9237 13.9968 89.7918 14.9559 87.0343L13.5711 86.5529C12.5753 89.4159 12.2989 90.3612 11.7871 91.2996C11.2676 92.2521 10.5288 93.1568 8.53879 95.8928L9.72459 96.7554ZM14.9559 87.0343C15.9343 84.2216 16.6882 82.7685 17.3368 82.0681C17.6422 81.7382 17.8926 81.6112 18.1034 81.5633C18.3235 81.5129 18.5861 81.5295 18.9496 81.6336L19.3524 80.2236C18.8605 80.0833 18.3289 80.0081 17.7778 80.1337C17.2172 80.2612 16.7192 80.577 16.261 81.0721C15.3823 82.0212 14.5477 83.745 13.5711 86.5529L14.9559 87.0343ZM19.8559 81.1302C20.0093 80.5931 20.297 79.7916 20.6506 79.1401C20.8287 78.8121 21.0048 78.5575 21.1643 78.3942C21.3359 78.2188 21.3966 78.2408 21.3504 78.2408V76.7745C20.8153 76.7745 20.3975 77.081 20.116 77.3688C19.8224 77.6694 19.5709 78.056 19.362 78.4407C18.9418 79.2148 18.6185 80.1239 18.4461 80.727L19.8559 81.1302ZM21.3504 78.2408C21.5573 78.2408 21.8571 78.2065 22.1755 78.167C22.5447 78.121 22.884 78.0741 23.3761 78.0135C24.2951 77.9001 25.4209 77.7813 26.5924 77.7515C27.7673 77.7217 28.9623 77.7828 30.0241 78.0169C31.0905 78.2525 31.9641 78.6498 32.5619 79.2476L33.5987 78.2109C32.7302 77.3424 31.5572 76.8542 30.3402 76.5854C29.1186 76.3156 27.7935 76.2545 26.5553 76.2858C25.3135 76.3171 24.1331 76.4427 23.1964 76.5585C22.7606 76.6122 22.2847 76.6758 21.9944 76.712C21.6531 76.7545 21.4488 76.7745 21.3504 76.7745V78.2408ZM32.8826 79.4353C33.8731 79.7124 35.3969 80.2251 36.7336 80.8531C37.4027 81.1674 38.0029 81.5007 38.4599 81.8345C38.9389 82.1845 39.1671 82.4679 39.2365 82.6522L40.6089 82.1375C40.3851 81.5403 39.8655 81.0457 39.325 80.6508C38.7624 80.2397 38.0704 79.861 37.3568 79.5262C35.9282 78.8546 34.3239 78.316 33.278 78.0233L32.8826 79.4353ZM39.2365 82.6522C39.3255 82.8907 39.2883 83.0578 39.1559 83.2353C38.9941 83.4523 38.6754 83.6854 38.1984 83.8897C37.2454 84.2983 35.9712 84.461 35.1262 84.3555L34.9443 85.8105C36.0543 85.9493 37.5904 85.7455 38.7756 85.2376C39.368 84.984 39.9506 84.6213 40.3303 84.113C40.7404 83.5647 40.8865 82.8765 40.6089 82.1375L39.2365 82.6522ZM34.763 84.4024C34.5656 84.4811 33.7783 84.7841 33.0315 85.0705C32.6601 85.2132 32.3013 85.3506 32.0354 85.4522C31.9025 85.503 31.7928 85.5451 31.7163 85.5744C31.678 85.5891 31.6481 85.6003 31.6277 85.6081C31.6175 85.612 31.6097 85.615 31.6045 85.6169C31.6019 85.6179 31.5999 85.6189 31.5986 85.6194C31.5979 85.6198 31.5974 85.6199 31.5971 85.6199C31.5969 85.6199 31.5968 85.6199 31.5967 85.6203C31.5966 85.6203 31.5966 85.6203 31.5966 85.6203C31.5966 85.6203 31.5966 85.6203 31.8584 86.3051C32.1202 86.9898 32.1202 86.9898 32.1203 86.9898C32.1203 86.9898 32.1203 86.9898 32.1204 86.9898C32.1205 86.9898 32.1206 86.9893 32.1208 86.9893C32.1211 86.9893 32.1216 86.9893 32.1223 86.9888C32.1236 86.9883 32.1256 86.9878 32.1282 86.9864C32.1335 86.9844 32.1413 86.9815 32.1515 86.9776C32.1719 86.9698 32.2018 86.9585 32.2402 86.9439C32.3167 86.9145 32.4265 86.8725 32.5596 86.8217C32.8257 86.7195 33.1848 86.5822 33.5566 86.4395C34.2964 86.156 35.0976 85.8476 35.3075 85.7635L34.763 84.4024ZM30.8866 86.7024C30.639 88.6833 30.381 91.8621 30.3135 95.0214C30.2465 98.1533 30.3632 101.367 30.9068 103.359L32.3213 102.974C31.8399 101.208 31.7123 98.1904 31.7794 95.0527C31.8458 91.9423 32.1003 88.8138 32.3415 86.8847L30.8866 86.7024ZM30.9068 103.359C31.088 104.025 31.2051 104.524 31.3122 104.944C31.4129 105.339 31.5134 105.704 31.6609 105.999C31.8287 106.335 32.0636 106.596 32.4151 106.775C32.7205 106.931 33.0813 107.005 33.4485 107.067L33.6895 105.62C33.3236 105.559 33.1651 105.512 33.081 105.469C33.0431 105.45 33.0183 105.436 32.9723 105.344C32.906 105.211 32.8385 104.996 32.733 104.582C32.6339 104.193 32.5066 103.653 32.3213 102.974L30.9068 103.359ZM33.4485 107.067C34.2365 107.198 35.2972 107.266 36.3431 107.098C37.3832 106.93 38.4961 106.512 39.2639 105.591L38.1378 104.652C37.6838 105.197 36.9638 105.512 36.11 105.65C35.262 105.787 34.3677 105.733 33.6895 105.62L33.4485 107.067ZM39.2639 105.591C39.9208 104.803 40.9364 103.388 42.3014 102.421C42.971 101.947 43.6831 101.614 44.429 101.519C45.1611 101.426 45.9763 101.555 46.882 102.088L47.6258 100.824C46.4543 100.135 45.3146 99.9284 44.2442 100.064C43.188 100.199 42.2506 100.66 41.454 101.225C39.8865 102.334 38.7028 103.974 38.1378 104.652L39.2639 105.591ZM46.7847 102.019C46.9411 102.15 47.0193 102.323 47.01 102.608C46.9998 102.918 46.88 103.314 46.6591 103.755C46.2139 104.646 45.4886 105.468 45.1034 105.757L45.9832 106.93C46.5755 106.486 47.4387 105.475 47.9709 104.411C48.2387 103.875 48.4553 103.262 48.4753 102.657C48.4963 102.025 48.2998 101.374 47.7231 100.893L46.7847 102.019ZM45.1034 105.757C44.4627 106.238 44.0316 106.994 43.6655 107.726C43.2721 108.513 42.9402 109.299 42.4632 110.134L43.7359 110.862C44.2364 109.986 44.6377 109.061 44.9773 108.382C45.3444 107.648 45.6464 107.182 45.9832 106.93L45.1034 105.757ZM42.4632 110.134C42.301 110.417 42.0282 110.677 41.5595 110.994C41.0742 111.321 40.4994 111.633 39.7267 112.1C38.2185 113.012 36.2625 114.338 34.0016 116.85L35.0914 117.831C37.2292 115.455 39.0611 114.215 40.4853 113.355C41.1788 112.936 41.8567 112.562 42.3792 112.209C42.9182 111.845 43.4094 111.433 43.7359 110.862L42.4632 110.134ZM34.0016 116.85C30.4746 120.769 27.3069 124.524 26.1606 125.916L27.2925 126.848C28.427 125.471 31.5805 121.732 35.0914 117.831L34.0016 116.85ZM31.2027 85.9771L31.1471 86.0881L32.4586 86.744L32.5141 86.633L31.2027 85.9771ZM31.1471 86.0881L30.9583 86.4659L32.2697 87.1213L32.4586 86.744L31.1471 86.0881ZM32.9133 84.1888C33.0778 84.5182 33.3537 84.8872 33.6785 85.1849C33.986 85.4669 34.4504 85.788 34.9991 85.8153L35.0714 84.3506C35.0336 84.3491 34.8871 84.3037 34.6692 84.1042C34.4686 83.9205 34.3046 83.6932 34.2247 83.5334L32.9133 84.1888Z" fill="#595959"/>
<path d="M19.1509 81.1719C18.4178 83.7784 16.756 90.0182 15.974 91.1912C15.192 92.3642 14.3449 92.6574 14.019 92.6574" stroke="#595959" stroke-width="1.46624"/>
<path d="M34.5463 79.4629C32.3002 79.544 27.5583 79.9028 26.56 80.6848C25.5617 81.4668 23.6483 88.3415 22.8164 91.6816" stroke="#595959" stroke-width="1.46624"/>
<path d="M98.8721 52.6969L60.5962 71.0648C59.3795 71.6487 58.8664 73.1085 59.4503 74.3253L69.9844 96.2766C70.5683 97.4934 72.0281 98.0064 73.2449 97.4225L111.521 79.0546C112.737 78.4706 113.251 77.0109 112.667 75.7941L102.133 53.8428C101.549 52.626 100.089 52.1129 98.8721 52.6969Z" fill="#F5F5F5"/>
<path d="M156 71.1532C154.697 70.8272 150.722 69.1494 145.248 65.0439C138.405 59.912 133.518 54.5358 132.052 53.0696C130.585 51.6034 129.852 50.6259 125.942 49.8927C122.032 49.1596 119.1 47.9378 116.412 45.2497C113.724 42.5615 111.524 43.2947 106.881 44.2722C103.167 45.0542 100.772 45.2497 100.039 45.2497C99.0613 45.7384 98.3277 46.2271 95.8844 47.9378C92.7511 50.1313 89.5307 51.8477 93.6851 53.0696C97.0086 54.0471 100.772 52.4992 102.238 51.6034H111.524L114.212 54.2915C111.769 54.1282 106.881 53.9005 106.881 54.2915C106.881 54.6825 105.089 58.4543 104.437 59.7578M106.881 65.3784C107.94 64.5636 110.938 61.9648 111.524 61.3783C112.257 60.6452 115.19 61.867 116.412 61.3783C117.308 61.867 119.393 62.8934 120.566 63.0889C120.648 63.6588 121.055 64.9461 122.032 65.5326M122.032 65.5326V73.3526C121.381 74.6556 119.491 77.5069 117.145 78.4844C114.212 79.7063 112.502 80.195 110.791 80.195C109.081 80.195 104.682 81.9056 102.971 86.5487C101.603 90.2632 107.126 89.2368 110.058 88.2593C111.28 88.3405 114.066 88.3082 115.434 87.5262C117.145 86.5487 122.765 85.3269 127.164 85.3269C131.563 85.3269 139.138 87.0375 140.849 85.8156C142.56 84.5937 144.27 82.6388 147.936 84.5937C150.868 86.1577 153.557 88.8292 154.534 89.97M122.032 65.5326C122.521 64.3919 122.521 60.3192 122.032 59.912C120.566 58.6902 116.412 56.2464 115.679 55.5133C114.212 55.269 110.058 56.7352 109.325 56.7352C108.738 56.7352 106.148 59.3417 104.926 60.6452" stroke="#595959" stroke-width="1.46624"/>
<path d="M96.0544 59.1513L65.6221 73.1689L74.2321 91.8614L104.664 77.8438L96.0544 59.1513Z" fill="white" stroke="black" stroke-width="1.46624"/>
<path d="M55.1888 76.2936L33.157 86.8664C32.3052 87.2751 31.9461 88.2969 32.3548 89.1487L37.5467 99.9677C37.9555 100.819 38.9773 101.179 39.829 100.77L61.8608 90.1971C62.7126 89.7884 63.0717 88.7666 62.663 87.9148L57.4711 77.0958C57.0624 76.244 56.0405 75.8849 55.1888 76.2936Z" stroke="#595959" stroke-width="1.46624"/>
<path d="M48.2313 90.9484L59.4725 85.8166M46.2763 87.7716L57.5175 82.6397L46.2763 87.7716ZM35.5239 88.9934L56.0513 79.4629L35.5239 88.9934Z" stroke="#595959" stroke-width="1.46624"/>
<path fill-rule="evenodd" clip-rule="evenodd" d="M42.4457 94.3253L44.474 93.361L42.9711 91.1191L41.481 92.0101L42.4457 94.3253Z" fill="#595959"/>
<path fill-rule="evenodd" clip-rule="evenodd" d="M42.1437 93.1944C42.2258 93.2369 42.3113 93.2682 42.3993 93.2863L43.0293 93.4163C43.389 93.4906 43.7213 93.3327 43.8909 93.0067L43.9833 92.8288L43.1642 91.1064L41.5225 91.8875L42.1437 93.1944Z" fill="#595959"/>
<path fill-rule="evenodd" clip-rule="evenodd" d="M41.1959 92.3824C40.9764 92.4053 40.7765 92.2397 40.606 92.0852C40.4491 91.942 40.2888 91.7959 40.1822 91.6101C40.1338 91.5266 40.0977 91.4235 40.1338 91.3374C40.1622 91.271 40.2301 91.2309 40.3 91.2177C40.3699 91.205 40.4422 91.2157 40.5136 91.226C40.9574 91.2915 41.1802 91.9195 41.1959 92.3824Z" fill="#595959"/>
<path fill-rule="evenodd" clip-rule="evenodd" d="M43.8338 91.0838C43.9897 90.9283 43.9877 90.6688 43.975 90.4386C43.9638 90.2265 43.9511 90.01 43.8744 89.8101C43.8401 89.7201 43.783 89.6263 43.6935 89.6004C43.6236 89.5804 43.5498 89.6077 43.4961 89.6537C43.4418 89.7001 43.4042 89.7627 43.3675 89.8247C43.1378 90.2104 43.4843 90.7798 43.8338 91.0838Z" fill="#595959"/>
<path d="M44.539 96.1873L44.5483 96.2059L47.8517 94.6346L47.014 93.2998C46.6294 92.9328 46.081 92.7495 45.5043 92.7945L44.5302 92.8712L44.1192 92.7686L43.3245 93.7431L43.3523 93.7993L42.0845 93.7358L41.9227 94.1468L41.2781 94.8863C40.8959 95.3237 40.718 95.9063 40.7879 96.4884L41.1994 97.7753L44.539 96.1873Z" fill="#595959"/>
<path fill-rule="evenodd" clip-rule="evenodd" d="M42.7885 88.3966C42.2289 88.0384 41.1937 87.9929 40.2402 88.7084C39.7021 89.1102 39.7827 89.6087 39.7686 89.6292C39.4176 90.1346 39.9939 90.6835 40.38 90.5808C40.4714 90.5569 40.5584 90.5828 40.6224 90.5755C40.7847 90.5549 40.9284 90.4767 41.0676 90.3961C41.5217 90.1297 41.9919 89.7314 42.508 89.5989C42.8174 89.5173 43.2084 89.5017 43.5588 89.6942C43.5803 89.7055 43.224 88.6757 42.7885 88.3966Z" fill="#595959"/>
<path fill-rule="evenodd" clip-rule="evenodd" d="M42.3931 94.4636L43.1301 94.839L43.3632 93.7061" fill="#595959"/>
<path fill-rule="evenodd" clip-rule="evenodd" d="M44.6442 92.9316L44.3598 94.2547L43.4111 93.741" fill="#595959"/>
<path fill-rule="evenodd" clip-rule="evenodd" d="M43.334 93.6748L43.2323 94.341C43.2035 94.3854 43.2435 94.468 43.2963 94.4734L43.3872 94.4832L43.6619 94.511C43.6819 94.5135 43.7049 94.5086 43.7264 94.5003C43.746 94.4891 43.7636 94.4739 43.7748 94.4568L43.9253 94.2242L43.9732 94.1469C44.0026 94.1025 43.963 94.0199 43.9102 94.015L43.334 93.6748Z" fill="#595959"/>
<path fill-rule="evenodd" clip-rule="evenodd" d="M44.6825 92.8106L44.4249 94.2446L43.3115 93.7299L44.096 92.7617L44.4855 92.8409L44.6825 92.8106Z" fill="#595959"/>
<path fill-rule="evenodd" clip-rule="evenodd" d="M42.4457 94.3253L44.474 93.361L42.9711 91.1191L41.481 92.0101L42.4457 94.3253Z" fill="#595959"/>
<path fill-rule="evenodd" clip-rule="evenodd" d="M42.1437 93.1944C42.2258 93.2369 42.3113 93.2682 42.3993 93.2863L43.0293 93.4163C43.389 93.4906 43.7213 93.3327 43.8909 93.0067L43.9833 92.8288L43.1642 91.1064L41.5225 91.8875L42.1437 93.1944Z" fill="#595959"/>
<path fill-rule="evenodd" clip-rule="evenodd" d="M41.1959 92.3824C40.9764 92.4053 40.7765 92.2397 40.606 92.0852C40.4491 91.942 40.2888 91.7959 40.1822 91.6101C40.1338 91.5266 40.0977 91.4235 40.1338 91.3374C40.1622 91.271 40.2301 91.2309 40.3 91.2177C40.3699 91.205 40.4422 91.2157 40.5136 91.226C40.9574 91.2915 41.1802 91.9195 41.1959 92.3824Z" fill="#595959"/>
<path fill-rule="evenodd" clip-rule="evenodd" d="M43.8338 91.0838C43.9897 90.9283 43.9877 90.6688 43.975 90.4386C43.9638 90.2265 43.9511 90.01 43.8744 89.8101C43.8401 89.7201 43.783 89.6263 43.6935 89.6004C43.6236 89.5804 43.5498 89.6077 43.4961 89.6537C43.4418 89.7001 43.4042 89.7627 43.3675 89.8247C43.1378 90.2104 43.4843 90.7798 43.8338 91.0838Z" fill="#595959"/>
<path fill-rule="evenodd" clip-rule="evenodd" d="M40.988 92.1594C41.0384 91.9443 40.8991 91.7259 40.7666 91.5372C40.6444 91.3632 40.5193 91.1863 40.3482 91.0573C40.271 90.9991 40.1733 90.9502 40.0838 90.9756C40.0139 90.9952 39.9656 91.0577 39.9441 91.1252C39.923 91.1931 39.924 91.2664 39.9255 91.3383C39.9353 91.787 40.5305 92.0861 40.988 92.1594Z" fill="#595959"/>
<path fill-rule="evenodd" clip-rule="evenodd" d="M43.76 91.0562C43.5621 90.9594 43.48 90.7131 43.4174 90.4917C43.3597 90.2874 43.3011 90.0782 43.3094 89.8641C43.3128 89.7678 43.3363 89.6608 43.4125 89.6075C43.4721 89.566 43.5508 89.5679 43.6168 89.5938C43.6828 89.6197 43.739 89.6671 43.7937 89.7141C44.1359 90.0044 43.9922 90.6554 43.76 91.0562Z" fill="#595959"/>
<path d="M40.5188 91.676C40.0315 90.6487 39.5828 89.4561 41.072 88.7479C42.6585 87.9938 43.2084 89.1502 43.6981 90.18C44.047 90.9141 43.8354 91.9561 43.8354 91.9561C43.8354 91.9561 43.5133 92.7088 43.3921 92.8075L42.7558 93.11C42.5578 93.1525 41.6527 92.8681 41.6527 92.8681C41.6527 92.8681 40.8492 92.3705 40.5251 91.6887C40.5237 91.6858 40.5222 91.6829 40.5207 91.6799C40.5203 91.6785 40.5198 91.677 40.5188 91.676Z" fill="#595959"/>
<path fill-rule="evenodd" clip-rule="evenodd" d="M42.1863 89.294C42.0025 89.3273 41.8349 89.4157 41.6731 89.514C41.33 89.7231 40.9557 90.1342 40.5329 90.1606C40.5109 90.1616 40.5055 90.185 40.5192 90.1972C40.7382 90.4299 41.2078 90.1581 41.4175 90.0291C41.6541 89.8839 41.8955 89.73 42.1624 89.642C42.31 89.5956 42.4537 89.6371 42.592 89.687C42.6159 89.7031 42.6399 89.7217 42.6643 89.7373C43.0494 90.0017 43.3569 90.5692 43.3935 91.0384C43.4336 91.3551 43.2308 91.7143 43.135 92.0598C43.0441 92.4518 42.6658 92.6131 42.2973 92.8653C42.4717 92.9078 42.676 92.9758 42.7137 93.0549L43.3359 92.7588C43.4531 92.6605 43.7567 91.901 43.7567 91.901C43.7567 91.901 43.9458 90.8448 43.588 90.0917C43.1765 89.2266 42.8261 88.4509 41.8271 88.5379C41.9336 88.8771 41.9732 89.0218 42.1863 89.294Z" fill="#595959"/>
<path d="M41.1245 88.6284C41.0267 88.669 40.928 88.7149 40.8283 88.7663C40.08 89.1006 39.4794 89.5057 39.5478 90.1792C39.5757 90.4485 40.0972 91.3488 40.2814 91.5487C40.2961 91.5653 40.3176 91.5912 40.3435 91.622C40.5043 91.8151 40.8264 92.2017 40.6724 91.7647C40.6318 91.6723 40.3112 90.8092 40.3445 90.6127C40.3542 90.5516 40.3689 90.4964 40.388 90.4461C40.3953 90.4456 40.4031 90.4456 40.4099 90.4451C40.4403 90.4441 40.4676 90.4431 40.4925 90.4383C40.6573 90.405 40.8088 90.3249 40.9564 90.2437C41.0957 90.1655 41.2374 90.0785 41.3816 89.9896C41.7349 89.7721 42.1015 89.5463 42.4783 89.4309C42.5942 89.3948 42.7193 89.365 42.8483 89.3474C42.8732 89.3591 42.8982 89.3718 42.9231 89.3865C43.0956 89.4852 43.5638 90.278 43.6103 90.3679C43.8463 90.7555 43.7574 90.2887 43.7095 90.037C43.7012 89.9915 43.6938 89.9529 43.6899 89.928C43.6704 89.8004 43.5897 89.5399 43.49 89.2819C43.4651 89.2071 43.426 89.1064 43.3727 89.0009C43.2936 88.8274 43.2129 88.6822 43.1464 88.6157C42.6543 88.124 41.8835 88.2506 41.1245 88.6284Z" fill="#595959"/>
<path fill-rule="evenodd" clip-rule="evenodd" d="M41.4171 88.7234C41.3892 88.7253 41.3609 88.7287 41.3325 88.7327C41.7607 88.8123 42.179 88.9536 42.57 89.151C42.4454 89.0215 42.3252 88.9018 42.1839 88.7913C42.3574 88.7898 42.5671 88.8847 42.7347 88.9296C42.4136 88.6608 42.0593 88.521 41.6507 88.4746C41.8296 88.5445 42.0089 88.6149 42.1883 88.6853C42.0446 88.6662 41.9009 88.6471 41.7577 88.6286C41.8574 88.6809 41.9571 88.7331 42.0573 88.7854C41.8496 88.7248 41.6316 88.7038 41.4171 88.7234Z" fill="#595959"/>
<path fill-rule="evenodd" clip-rule="evenodd" d="M44.6442 92.9316L44.3598 94.2547L43.4111 93.741" fill="#595959"/>
<path fill-rule="evenodd" clip-rule="evenodd" d="M43.334 93.6748L43.2323 94.341C43.2035 94.3854 43.2435 94.468 43.2963 94.4734L43.3872 94.4832L43.6619 94.511C43.6819 94.5135 43.7049 94.5086 43.7264 94.5003C43.746 94.4891 43.7636 94.4739 43.7748 94.4568L43.9253 94.2242L43.9732 94.1469C44.0026 94.1025 43.963 94.0199 43.9102 94.015L43.334 93.6748Z" fill="#595959"/>
<path fill-rule="evenodd" clip-rule="evenodd" d="M44.6825 92.8106L44.4249 94.2446L43.3115 93.7299L44.096 92.7617L44.4855 92.8409L44.6825 92.8106Z" fill="#595959"/>
<path d="M92.5551 63.7606L72.6501 73.3126C71.7984 73.7214 71.4393 74.7432 71.848 75.595L76.4521 85.1892C76.8608 86.0409 77.8827 86.4 78.7344 85.9913L98.6394 76.4392C99.4911 76.0305 99.8502 75.0087 99.4415 74.1569L94.8374 64.5627C94.4287 63.711 93.4068 63.3518 92.5551 63.7606Z" stroke="#595959" stroke-width="1.46624"/>
<path d="M86.3085 77.0955L96.6455 72.3766M84.5109 74.1743L94.8474 69.4554L84.5109 74.1743ZM74.6235 75.2979L93.4994 66.5342L74.6235 75.2979Z" stroke="#595959" stroke-width="1.46624"/>
<path fill-rule="evenodd" clip-rule="evenodd" d="M80.9882 80.2006L82.8532 79.314L81.4715 77.2529L80.1011 78.0721L80.9882 80.2006Z" fill="#595959"/>
<path fill-rule="evenodd" clip-rule="evenodd" d="M80.7105 79.16C80.7858 79.1991 80.8649 79.228 80.9456 79.2446L81.5252 79.3638C81.8556 79.4323 82.1611 79.2871 82.317 78.9875L82.4021 78.8238L81.6489 77.2402L80.1392 77.9582L80.7105 79.16Z" fill="#595959"/>
<path fill-rule="evenodd" clip-rule="evenodd" d="M79.8393 78.417C79.6375 78.438 79.4537 78.2861 79.2968 78.1433C79.1522 78.0124 79.0051 77.8779 78.9073 77.7069C78.8628 77.6301 78.8291 77.5353 78.8628 77.4562C78.8887 77.3951 78.9513 77.3579 79.0153 77.3462C79.0798 77.3345 79.1463 77.3442 79.2118 77.3535C79.6199 77.4136 79.8247 77.9913 79.8393 78.417Z" fill="#595959"/>
<path fill-rule="evenodd" clip-rule="evenodd" d="M82.2647 77.2236C82.4079 77.0804 82.4059 76.8419 82.3947 76.6302C82.3839 76.4352 82.3727 76.2363 82.3018 76.0525C82.2701 75.9694 82.2178 75.8834 82.1357 75.8595C82.0716 75.8414 82.0037 75.8663 81.9539 75.9088C81.904 75.9509 81.8693 76.009 81.8356 76.0657C81.6244 76.4201 81.9436 76.944 82.2647 77.2236Z" fill="#595959"/>
<path d="M82.9134 81.9166L82.9217 81.9332L85.9592 80.4889L85.189 79.2612C84.8356 78.924 84.3312 78.7549 83.8009 78.7969L82.9051 78.8673L82.5273 78.7725L81.7961 79.6688L81.822 79.7206L80.6564 79.6625L80.5073 80.0403L79.9144 80.7201C79.5635 81.1224 79.3998 81.658 79.4638 82.1932L79.8426 83.377L82.9134 81.9166Z" fill="#595959"/>
<path fill-rule="evenodd" clip-rule="evenodd" d="M81.3036 74.7482C80.789 74.4188 79.8369 74.3773 78.9606 75.0351C78.4655 75.4046 78.5397 75.8631 78.5265 75.8821C78.2035 76.3464 78.7338 76.8513 79.0886 76.757C79.1732 76.735 79.2528 76.7584 79.3115 76.7521C79.461 76.7335 79.593 76.6612 79.721 76.5874C80.1384 76.342 80.571 75.976 81.0455 75.8543C81.33 75.779 81.6892 75.7643 82.0118 75.9417C82.0318 75.952 81.7039 75.0053 81.3036 74.7482Z" fill="#595959"/>
<path fill-rule="evenodd" clip-rule="evenodd" d="M80.9399 80.3307L81.6173 80.6763L81.8319 79.6348" fill="#595959"/>
<path fill-rule="evenodd" clip-rule="evenodd" d="M83.0099 78.9219L82.7484 80.1384L81.876 79.6662" fill="#595959"/>
<path fill-rule="evenodd" clip-rule="evenodd" d="M81.8055 79.6064L81.7122 80.2193C81.6853 80.2604 81.7224 80.3361 81.7708 80.341L81.8544 80.3498L82.1071 80.3752C82.1256 80.3777 82.1466 80.3733 82.1667 80.3655C82.1843 80.3552 82.2004 80.3415 82.2107 80.3254L82.349 80.1118L82.3935 80.0409C82.4203 79.9999 82.3842 79.9241 82.3353 79.9193L81.8055 79.6064Z" fill="#595959"/>
<path fill-rule="evenodd" clip-rule="evenodd" d="M83.0451 78.8135L82.8081 80.1321L81.7847 79.659L82.5056 78.7686L82.8643 78.8409L83.0451 78.8135Z" fill="#595959"/>
<path fill-rule="evenodd" clip-rule="evenodd" d="M80.9882 80.2006L82.8532 79.314L81.4715 77.2529L80.1011 78.0721L80.9882 80.2006Z" fill="#595959"/>
<path fill-rule="evenodd" clip-rule="evenodd" d="M80.7105 79.16C80.7858 79.1991 80.8649 79.228 80.9456 79.2446L81.5252 79.3638C81.8556 79.4323 82.1611 79.2871 82.317 78.9875L82.4021 78.8238L81.6489 77.2402L80.1392 77.9582L80.7105 79.16Z" fill="#595959"/>
<path fill-rule="evenodd" clip-rule="evenodd" d="M79.8393 78.417C79.6375 78.438 79.4537 78.2861 79.2968 78.1433C79.1522 78.0124 79.0051 77.8779 78.9073 77.7069C78.8628 77.6301 78.8291 77.5353 78.8628 77.4562C78.8887 77.3951 78.9513 77.3579 79.0153 77.3462C79.0798 77.3345 79.1463 77.3442 79.2118 77.3535C79.6199 77.4136 79.8247 77.9913 79.8393 78.417Z" fill="#595959"/>
<path fill-rule="evenodd" clip-rule="evenodd" d="M82.2647 77.2236C82.4079 77.0804 82.4059 76.8419 82.3947 76.6302C82.3839 76.4352 82.3727 76.2363 82.3018 76.0525C82.2701 75.9694 82.2178 75.8834 82.1357 75.8595C82.0716 75.8414 82.0037 75.8663 81.9539 75.9088C81.904 75.9509 81.8693 76.009 81.8356 76.0657C81.6244 76.4201 81.9436 76.944 82.2647 77.2236Z" fill="#595959"/>
<path fill-rule="evenodd" clip-rule="evenodd" d="M79.6479 78.2139C79.6938 78.0165 79.5658 77.8151 79.4441 77.6421C79.3322 77.4823 79.2168 77.3195 79.0595 77.2007C78.9891 77.1475 78.8987 77.102 78.8165 77.1255C78.752 77.1436 78.708 77.2012 78.688 77.2633C78.6685 77.3254 78.6699 77.3928 78.6709 77.4593C78.6797 77.8718 79.2276 78.1469 79.6479 78.2139Z" fill="#595959"/>
<path fill-rule="evenodd" clip-rule="evenodd" d="M82.1969 77.1971C82.0146 77.1082 81.9393 76.8814 81.8816 76.6776C81.8288 76.4899 81.7751 76.2978 81.7824 76.1008C81.7853 76.0124 81.8073 75.9141 81.8772 75.8648C81.932 75.8267 82.0043 75.8281 82.0654 75.8521C82.126 75.876 82.1773 75.92 82.2277 75.9625C82.5424 76.2299 82.41 76.8281 82.1969 77.1971Z" fill="#595959"/>
<path d="M79.2165 77.7675C78.7683 76.8227 78.3553 75.7264 79.7248 75.0754C81.1837 74.3814 81.6896 75.4449 82.1397 76.3921C82.4608 77.0666 82.2658 78.025 82.2658 78.025C82.2658 78.025 81.9696 78.7171 81.8587 78.808L81.2732 79.0861C81.0913 79.1252 80.2585 78.8637 80.2585 78.8637C80.2585 78.8637 79.52 78.4062 79.2219 77.7792C79.2209 77.7767 79.2194 77.7738 79.218 77.7714C79.2175 77.7699 79.217 77.7684 79.2165 77.7675Z" fill="#595959"/>
<path fill-rule="evenodd" clip-rule="evenodd" d="M80.7498 75.5767C80.5807 75.6074 80.4267 75.6886 80.2782 75.779C79.9619 75.9711 79.6179 76.3493 79.2293 76.3733C79.2093 76.3743 79.2044 76.3958 79.2166 76.407C79.418 76.6211 79.85 76.3714 80.0431 76.2526C80.2606 76.1192 80.4824 75.9774 80.7278 75.8968C80.8632 75.8538 80.9956 75.8919 81.1232 75.9378C81.1452 75.953 81.1667 75.9696 81.1892 75.9843C81.5435 76.2277 81.826 76.7491 81.8597 77.1807C81.8969 77.472 81.7102 77.8019 81.6222 78.1201C81.5386 78.4803 81.1906 78.6289 80.8519 78.8605C81.0122 78.8996 81.2004 78.9622 81.2346 79.0345L81.807 78.7628C81.915 78.6724 82.194 77.974 82.194 77.974C82.194 77.974 82.368 77.0028 82.0386 76.3103C81.6603 75.5146 81.3378 74.801 80.4194 74.8812C80.5172 75.193 80.5538 75.3264 80.7498 75.5767Z" fill="#595959"/>
<path d="M79.7739 74.9639C79.6839 75.001 79.593 75.0435 79.5011 75.0904C78.8135 75.3984 78.2607 75.7708 78.3238 76.39C78.3492 76.6378 78.8291 77.4653 78.9982 77.649C79.0119 77.6647 79.0319 77.6886 79.0554 77.7165C79.2035 77.8939 79.4997 78.2497 79.3579 77.848C79.3203 77.7629 79.0261 76.9692 79.0564 76.7883C79.0652 76.7326 79.0789 76.6818 79.0965 76.6354C79.1033 76.6349 79.1101 76.6349 79.117 76.6344C79.1444 76.6334 79.1698 76.6324 79.1927 76.6285C79.3438 76.5977 79.4835 76.5239 79.6189 76.4492C79.747 76.3773 79.8775 76.2972 80.0099 76.2155C80.3349 76.0156 80.6722 75.8079 81.0187 75.7019C81.1248 75.6686 81.2406 75.6408 81.3589 75.6251C81.3818 75.6354 81.4048 75.6476 81.4278 75.6608C81.5861 75.7517 82.0172 76.4809 82.0597 76.563C82.2762 76.9198 82.1946 76.4902 82.1511 76.2595C82.1428 76.217 82.136 76.1818 82.1326 76.1588C82.115 76.0415 82.0407 75.8021 81.9493 75.565C81.9263 75.4961 81.8901 75.4032 81.8408 75.306C81.7684 75.1471 81.6941 75.0132 81.6331 74.9521C81.1805 74.5 80.4718 74.6164 79.7739 74.9639Z" fill="#595959"/>
<path fill-rule="evenodd" clip-rule="evenodd" d="M80.043 75.05C80.0171 75.052 79.9912 75.0549 79.9653 75.0588C80.3588 75.1321 80.7434 75.2616 81.1031 75.4435C80.9883 75.3247 80.8778 75.2147 80.7483 75.1131C80.9076 75.1116 81.1002 75.1986 81.2546 75.2401C80.9594 74.9928 80.6334 74.8643 80.2576 74.8213C80.4218 74.8858 80.587 74.9503 80.7522 75.0148C80.6198 74.9977 80.4878 74.9801 80.3558 74.963C80.4477 75.0109 80.5396 75.0593 80.6315 75.1072C80.4404 75.0515 80.24 75.0324 80.043 75.05Z" fill="#595959"/>
<path fill-rule="evenodd" clip-rule="evenodd" d="M83.0099 78.9219L82.7484 80.1384L81.876 79.6662" fill="#595959"/>
<path fill-rule="evenodd" clip-rule="evenodd" d="M81.8055 79.6064L81.7122 80.2193C81.6853 80.2604 81.7224 80.3361 81.7708 80.341L81.8544 80.3498L82.1071 80.3752C82.1256 80.3777 82.1466 80.3733 82.1667 80.3655C82.1843 80.3552 82.2004 80.3415 82.2107 80.3254L82.349 80.1118L82.3935 80.0409C82.4203 79.9999 82.3842 79.9241 82.3353 79.9193L81.8055 79.6064Z" fill="#595959"/>
<path fill-rule="evenodd" clip-rule="evenodd" d="M83.0451 78.8135L82.8081 80.1321L81.7847 79.659L82.5056 78.7686L82.8643 78.8409L83.0451 78.8135Z" fill="#595959"/>
<path d="M68.6527 87.1021C68.7728 87.3668 69.0847 87.484 69.3494 87.3639C69.6141 87.2438 69.7313 86.9319 69.6112 86.6673L67.0022 80.9165C66.8821 80.6518 66.5702 80.5346 66.3055 80.6546C66.0408 80.7747 65.9236 81.0866 66.0437 81.3513L68.6527 87.1021Z" fill="#595959"/>
<path d="M73.6463 94.3688C70.9093 95.7373 71.0173 96.6068 71.4244 97.5027L81.1994 93.8375C89.5897 89.52 106.761 80.7391 108.325 80.1526C109.889 79.5662 111.583 78.116 112.235 77.4645L108.325 69.889C106.125 64.9199 101.433 54.8351 100.26 54.2486C99.0875 53.6621 98.9575 54.493 99.0386 54.9817L106.881 77.4645C97.5948 81.7 76.3833 93.0003 73.6463 94.3688Z" fill="#D9D9D9" stroke="#D9D9D9" stroke-width="0.488746"/>
<path d="M104.682 66.2652C105.087 66.2652 105.415 66.5934 105.415 66.9983C105.415 67.4032 105.087 67.7314 104.682 67.7314C104.277 67.7314 103.949 67.4032 103.949 66.9983C103.949 66.5934 104.277 66.2652 104.682 66.2652Z" fill="#595959"/>
<path d="M99.2912 53.3207L61.0154 71.6886C60.1636 72.0974 59.8045 73.1192 60.2132 73.9709L70.7473 95.9223C71.1561 96.774 72.1779 97.1332 73.0296 96.7244L111.305 78.3565C112.157 77.9477 112.516 76.9259 112.108 76.0742L101.573 54.1228C101.165 53.2711 100.143 52.9119 99.2912 53.3207Z" stroke="#595959" stroke-width="1.46624"/>
</svg>
