<svg width="160" height="160" viewBox="0 0 160 160" fill="none" xmlns="http://www.w3.org/2000/svg">
<path fill-rule="evenodd" clip-rule="evenodd" d="M76.7558 127.122C116.963 131.138 137.685 121.378 138.921 97.8437C140.776 62.5414 109.527 66.355 100.427 57.0506C91.3251 47.7472 101.521 60.9692 83.9938 41.6893C72.3082 28.8364 56.7384 28.7704 37.2836 41.4923C21.5902 54.0952 19.8924 70.6226 32.1903 91.0747C44.4882 111.528 59.3433 123.544 76.7558 127.122Z" fill="#E5E5E5"/>
<path fill-rule="evenodd" clip-rule="evenodd" d="M47.5832 91.8993C47.5812 93.5295 47.5802 94.8627 47.5781 96.2369C47.5741 99.9535 47.571 103.517 47.568 107.095L82.5317 107.096C83.3061 107.101 83.9305 107.731 83.9254 108.501V110.362C83.9143 114.547 86.7422 118.21 90.8067 119.277C91.726 119.513 92.691 119.513 93.6103 119.277C94.5458 119.034 95.4124 118.648 96.198 118.155C98.6661 116.487 100.234 113.683 100.24 110.583V58.2573V49.2839C100.244 46.5325 101.541 44.0691 103.573 42.4829H99.7688H75.4721L47.5862 89.925C47.5852 90.4501 47.5842 91.0842 47.5832 91.8993" fill="white"/>
<path fill-rule="evenodd" clip-rule="evenodd" d="M47.5924 83.2805V84.4617C47.5914 85.3098 47.5903 86.406 47.5883 87.9122V88.2672C47.5873 88.6943 47.5873 89.2024 47.5863 89.9245L75.4721 42.4824H58.4165C56.2089 42.4864 54.1584 43.1385 52.4292 44.2477C49.5141 46.235 47.5984 49.5685 47.5924 53.351V68.6473C47.5924 69.0264 47.3542 69.3464 47.0187 69.4794C46.9842 69.5094 46.9437 69.5304 46.9052 69.5545V73.149C47.3673 73.193 47.7343 73.5651 47.7343 74.0321V75.8704C47.7343 76.3385 47.3673 76.7105 46.9052 76.7535V82.4254C47.2974 82.5264 47.5924 82.8624 47.5924 83.2805" fill="#E9F4F7"/>
<path fill-rule="evenodd" clip-rule="evenodd" d="M110.665 43.7756L109.5 43.5335C109.28 43.5085 109.055 43.4955 108.828 43.4955C108.648 43.4855 108.471 43.4855 108.292 43.4955C107.241 43.5886 106.284 43.9546 105.462 44.4977C104.023 45.5588 103.095 47.2281 103.07 49.1004V56.0914H114.852V49.3584C114.847 46.746 113.091 44.5337 110.665 43.7756" fill="#0D4F80"/>
<path fill-rule="evenodd" clip-rule="evenodd" d="M47.7339 75.8698V74.0328C47.7339 73.5648 47.368 73.1928 46.9058 73.1488C46.8764 73.1468 46.8521 73.1328 46.8227 73.1328C46.3189 73.1328 45.9094 73.5358 45.9094 74.0328V75.8698C45.9094 76.3668 46.3189 76.7698 46.8227 76.7698C46.8521 76.7698 46.8764 76.7558 46.9058 76.7528C47.368 76.7098 47.7339 76.3378 47.7339 75.8698" fill="#0F2B4A"/>
<path fill-rule="evenodd" clip-rule="evenodd" d="M89.5213 68.0961H58.4416C57.9378 68.0961 57.5294 68.4991 57.5294 68.9962C57.5294 69.4933 57.9378 69.8963 58.4416 69.8963H89.5213C90.025 69.8963 90.4325 69.4933 90.4325 68.9962C90.4325 68.4991 90.025 68.0961 89.5213 68.0961ZM93.1124 55.1938H58.4416C57.9378 55.1938 57.5294 55.5969 57.5294 56.094C57.5294 56.5911 57.9378 56.9941 58.4416 56.9941H93.1124C93.6162 56.9941 94.0236 56.5911 94.0236 56.094C94.0236 55.5969 93.6162 55.1938 93.1124 55.1938Z" fill="#0D4F80"/>
<path fill-rule="evenodd" clip-rule="evenodd" d="M72.1524 80.998H58.4416C57.9379 80.998 57.5284 81.4011 57.5284 81.8982C57.5284 82.3953 57.9379 82.7983 58.4416 82.7983H72.1524C72.6562 82.7983 73.0647 82.3953 73.0647 81.8982C73.0647 81.4011 72.6562 80.998 72.1524 80.998ZM72.1524 93.8999H58.4416C57.9379 93.8999 57.5284 94.3029 57.5284 94.8C57.5284 95.2971 57.9379 95.7001 58.4416 95.7001H72.1524C72.6562 95.7001 73.0647 95.2971 73.0647 94.8C73.0647 94.3029 72.6562 93.8999 72.1524 93.8999Z" fill="#A6CED7"/>
<path fill-rule="evenodd" clip-rule="evenodd" d="M27.3471 105.971L26.144 107.158L24.1756 105.215L22.2031 107.161L21 105.973L22.9724 104.028L21.003 102.085L22.2062 100.899L24.1746 102.842L26.146 100.896L27.3501 102.083L25.3777 104.029L27.3471 105.971Z" fill="#0F2B4A"/>
<path fill-rule="evenodd" clip-rule="evenodd" d="M130.241 60.7104C128.495 60.7104 127.082 59.3094 127.082 57.5814C127.082 55.8544 128.495 54.4534 130.241 54.4534C131.988 54.4534 133.401 55.8544 133.401 57.5814C133.401 59.3094 131.988 60.7104 130.241 60.7104ZM130.241 58.9274C130.988 58.9274 131.595 58.3254 131.595 57.5814C131.595 56.8374 130.988 56.2364 130.241 56.2364C129.494 56.2364 128.887 56.8374 128.887 57.5814C128.887 58.3254 129.494 58.9274 130.241 58.9274Z" fill="#6EE3FF"/>
<path fill-rule="evenodd" clip-rule="evenodd" d="M108.99 40.6572H108.093L58.4143 40.6832C55.8276 40.6872 53.4254 41.4533 51.4063 42.7575C47.8638 45.0459 45.5143 49.0045 45.5072 53.5151V68.8124C45.5072 69.3095 45.9157 69.7126 46.4205 69.7126C46.6019 69.7126 46.762 69.6465 46.905 69.5555C46.9435 69.5305 46.983 69.5095 47.0175 69.4795C47.207 69.3145 47.3317 69.0805 47.3317 68.8124V53.5161C47.3378 49.6246 49.371 46.2121 52.429 44.2478C54.1572 43.1386 56.2087 42.4865 58.4163 42.4835H75.472L99.7687 42.4825H103.572C101.54 44.0687 100.244 46.5331 100.24 49.2835V58.2578V110.584C100.234 113.682 98.6659 116.487 96.1978 118.155C95.3464 118.731 94.3896 119.173 93.3496 119.442C92.4303 119.679 91.4654 119.679 90.5461 119.442C86.4816 118.376 83.6536 114.711 83.6648 110.528V108.666C83.6709 107.896 83.0455 107.266 82.2721 107.261L47.3084 107.26C47.3104 103.682 47.3134 100.119 47.3175 96.4015C47.3195 95.0273 47.3205 93.6951 47.3226 92.0639C47.3256 90.1276 47.3266 89.1695 47.3276 88.4333V88.0783C47.3297 86.5711 47.3307 85.4759 47.3317 84.6268V83.4456C47.3317 82.9485 46.9242 82.5455 46.4205 82.5455C46.2998 82.5455 46.1863 82.5715 46.0819 82.6135C45.7464 82.7465 45.5072 83.0665 45.5072 83.4456C45.5072 84.4628 45.5062 85.894 45.5032 88.4303L45.5022 88.5554C45.5022 89.2765 45.5001 90.2326 45.4981 92.0619C45.4961 93.6931 45.494 95.0253 45.493 96.3995C45.49 100.06 45.4869 103.572 45.4839 107.095V107.26L36.7914 107.261C36.5704 107.261 36.3657 107.315 36.1802 107.406C35.7129 107.632 35.3886 108.105 35.3886 108.656V110.63C35.3825 117.219 40.7454 122.564 47.3641 122.569H91.0782C91.3873 122.569 91.8647 122.569 92.1718 122.523C92.7172 122.473 93.2584 122.383 93.7895 122.252C95.1994 121.926 96.4979 121.356 97.6544 120.6C100.955 118.442 103.068 114.739 103.073 110.63V58.2578V56.0915H114.852H116.249H116.255C116.585 56.0915 116.885 55.8745 117.125 55.6835C117.448 55.4274 117.658 55.0384 117.658 54.5973V49.3585C117.677 44.5738 113.798 40.6782 108.99 40.6572" fill="#0F2B4A"/>
<path fill-rule="evenodd" clip-rule="evenodd" d="M110.665 43.7756L109.5 43.5335C109.28 43.5085 109.055 43.4955 108.828 43.4955C108.648 43.4855 108.471 43.4855 108.292 43.4955C107.241 43.5886 106.284 43.9546 105.462 44.4977C104.023 45.5588 103.095 47.2281 103.07 49.1004V56.0914H114.852V49.3584C114.847 46.746 113.091 44.5337 110.665 43.7756" fill="#0D4F80"/>
<path fill-rule="evenodd" clip-rule="evenodd" d="M106.81 88.3121L102.359 83.9204L97.9413 88.2781L96.203 86.5628L100.62 82.2051L96.1686 77.8125L97.8977 76.1062L102.349 80.4989L106.766 76.1402L108.505 77.8555L104.087 82.2142L108.538 86.6068L106.81 88.3121ZM102.567 64.8206C92.9747 64.8206 85.1985 72.4777 85.1985 81.9231C85.1985 91.3685 92.9747 99.0257 102.567 99.0257C106.169 99.0257 109.512 97.9465 112.287 96.1002C113.644 95.1961 114.861 94.1049 115.909 92.8697C118.422 89.9033 119.937 86.0887 119.937 81.9231C119.937 72.4777 112.161 64.8206 102.567 64.8206V64.8206Z" fill="white"/>
<path fill-rule="evenodd" clip-rule="evenodd" d="M112.287 96.0999C109.513 97.9472 106.169 99.0254 102.568 99.0254C92.9742 99.0254 85.1979 91.3682 85.1979 81.9228C85.1979 72.4784 92.9742 64.8203 102.568 64.8203C112.161 64.8203 119.938 72.4784 119.938 81.9228C119.938 86.0885 118.422 89.904 115.909 92.8705C114.862 94.1056 113.644 95.1958 112.287 96.0999V96.0999ZM127.834 104.618L117.2 94.1417C120.04 90.8462 121.763 86.5855 121.763 81.9228C121.763 71.4833 113.168 63.02 102.568 63.02C95.9855 63.02 90.1807 66.2865 86.7233 71.2602C86.5683 71.4843 86.4294 71.7203 86.2845 71.9513C86.1243 72.2054 85.9591 72.4564 85.8111 72.7185C85.6763 72.9545 85.5557 73.2005 85.431 73.4436C85.2922 73.7156 85.1533 73.9887 85.0266 74.2687C84.9181 74.5117 84.8168 74.7588 84.7185 75.0068C84.5999 75.3038 84.4874 75.6029 84.384 75.9069C84.3009 76.151 84.2218 76.396 84.1478 76.644C84.0515 76.9721 83.9674 77.3051 83.8873 77.6402C83.8326 77.8742 83.7748 78.1083 83.7282 78.3463C83.6542 78.7284 83.5985 79.1174 83.5478 79.5065C83.5224 79.7075 83.487 79.9055 83.4667 80.1086C83.4099 80.7067 83.3745 81.3107 83.3745 81.9228C83.3745 82.5499 83.4089 83.169 83.4687 83.7801C83.49 83.9911 83.5305 84.1952 83.5579 84.4032C83.6106 84.7993 83.6643 85.1953 83.7414 85.5834C83.791 85.8324 83.8579 86.0755 83.9177 86.3205C83.9988 86.6565 84.0799 86.9926 84.1792 87.3206C84.2593 87.5857 84.3536 87.8447 84.4448 88.1048C84.5492 88.3998 84.6536 88.6948 84.7722 88.9839C84.8847 89.2569 85.0073 89.525 85.132 89.792C85.2526 90.051 85.3763 90.3081 85.5091 90.5611C85.656 90.8402 85.8101 91.1152 85.9692 91.3852C86.101 91.6073 86.2358 91.8273 86.3757 92.0433C86.5591 92.3284 86.7497 92.6084 86.9484 92.8815C87.0801 93.0635 87.218 93.2415 87.3558 93.4185C87.5829 93.7086 87.814 93.9966 88.0582 94.2737C88.1778 94.4097 88.3035 94.5397 88.4272 94.6727C88.7069 94.9738 88.9907 95.2698 89.2898 95.5519C89.3749 95.6319 89.4641 95.7069 89.5502 95.7869C92.3873 98.3643 96.0088 100.118 100.03 100.642C100.863 100.751 101.706 100.826 102.568 100.826C106.672 100.826 110.466 99.5475 113.585 97.3871L124.376 108.018C125.331 108.958 126.877 108.958 127.832 108.019C127.834 108.018 127.836 108.016 127.837 108.015C128.786 107.076 128.784 105.555 127.834 104.618Z" fill="#0F2B4A"/>
<path fill-rule="evenodd" clip-rule="evenodd" d="M108.504 77.8557L106.765 76.1405L102.348 80.4991L97.8967 76.1064L96.1675 77.8127L100.619 82.2044L96.2019 86.563L97.9402 88.2783L102.358 83.9196L106.809 88.3123L108.537 86.607L104.087 82.2144L108.504 77.8557Z" fill="#EC0000"/>
<path fill-rule="evenodd" clip-rule="evenodd" d="M89.2894 95.5519C88.9904 95.2699 88.7076 94.9728 88.4268 94.6728C88.3031 94.5408 88.1775 94.4097 88.0579 94.2737C87.8146 93.9967 87.5825 93.7086 87.3565 93.4186C87.2176 93.2416 87.0808 93.0636 86.948 92.8815C86.7493 92.6085 86.5598 92.3274 86.3753 92.0434C86.2354 91.8264 86.1006 91.6073 85.9699 91.3853C85.8097 91.1143 85.6556 90.8402 85.5097 90.5612C85.3769 90.3081 85.2543 90.0511 85.1316 89.7921C85.007 89.525 84.8843 89.257 84.7718 88.9839C84.6542 88.6949 84.5498 88.3999 84.4454 88.1048C84.3542 87.8448 84.2589 87.5857 84.1789 87.3207C84.0785 86.9916 83.9984 86.6556 83.9173 86.3205C83.8586 86.0745 83.7906 85.8325 83.741 85.5834C83.6629 85.1954 83.6102 84.7993 83.5585 84.4033C83.5302 84.1952 83.4896 83.9902 83.4693 83.7802C83.4085 83.1691 83.3741 82.55 83.3741 81.9229C83.3741 81.3108 83.4095 80.7067 83.4673 80.1086C83.4866 79.9056 83.5231 79.7076 83.5484 79.5065C83.5991 79.1165 83.6528 78.7284 83.7288 78.3464C83.7754 78.1083 83.8322 77.8743 83.888 77.6403C83.967 77.3052 84.0511 76.9722 84.1484 76.6441C84.2214 76.3961 84.3005 76.151 84.3836 75.907C84.488 75.6029 84.5995 75.3039 84.7181 75.0069C84.8174 74.7588 84.9188 74.5118 85.0272 74.2687C85.1539 73.9887 85.2918 73.7157 85.4306 73.4436C85.5553 73.2006 85.6769 72.9546 85.8107 72.7175C85.9597 72.4565 86.1229 72.2054 86.2841 71.9514C86.43 71.7204 86.5679 71.4843 86.724 71.2603C87.0291 70.8212 87.3524 70.3952 87.693 69.9851C84.042 73.6016 81.7858 78.5884 81.7858 84.0952C81.7858 94.4678 89.786 102.994 100.03 103.997V100.642C96.0095 100.117 92.3879 98.3643 89.5509 95.786C89.4647 95.7069 89.3745 95.6319 89.2894 95.5519" fill="#C6ECF6"/>
<circle cx="102.5" cy="81.5" r="12.5" fill="white"/>
<path d="M106.425 91.1526L106.424 91.1523C106.424 91.1501 106.423 91.1475 106.422 91.1445C106.416 91.1201 106.402 91.0694 106.396 91.011C106.395 91.0076 106.394 91.004 106.393 91.0003C106.389 90.9802 106.385 90.952 106.385 90.9184V85.6091C106.385 85.1047 106.785 84.6775 107.301 84.6775C107.817 84.6775 108.216 85.1047 108.216 85.6091V88.9941C109.862 87.2884 110.972 84.6039 110.972 82C110.972 77.2963 107.257 73.4882 102.714 73.4882C98.1715 73.4882 94.4563 77.2963 94.4563 82C94.4563 86.7037 98.1715 90.5118 102.714 90.5118C103.23 90.5118 103.63 90.939 103.63 91.4434C103.63 91.9478 103.23 92.375 102.714 92.375C97.1403 92.375 92.625 87.7104 92.625 82C92.625 76.2896 97.1403 71.625 102.714 71.625C108.288 71.625 112.803 76.2896 112.803 82C112.803 84.919 111.613 87.9243 109.786 89.9868H112.459C112.975 89.9868 113.375 90.4139 113.375 90.9184C113.375 91.4228 112.975 91.8499 112.459 91.8499H107.301C107.133 91.8499 106.993 91.7982 106.884 91.741C106.848 91.7223 106.821 91.7026 106.807 91.6921L106.791 91.6805C106.79 91.6796 106.79 91.6791 106.789 91.6788C106.707 91.6218 106.637 91.5534 106.578 91.4742C106.577 91.4727 106.575 91.4712 106.574 91.4697L106.425 91.1526ZM106.425 91.1526C106.425 91.1548 106.426 91.1573 106.426 91.1601C106.433 91.1871 106.447 91.24 106.471 91.2967C106.471 91.299 106.472 91.3014 106.473 91.3038C106.479 91.3233 106.489 91.3502 106.506 91.3801L106.425 91.1526ZM107.022 91.3847C107.034 91.3936 107.045 91.4022 107.058 91.4091L106.849 91.213C106.854 91.2172 106.859 91.2213 106.863 91.2272C106.901 91.2846 106.948 91.3322 107.004 91.3713C107.01 91.3757 107.016 91.3802 107.022 91.3847Z" fill="#0F2B4A" stroke="#0F2B4A" stroke-width="0.75"/>
</svg>
