<svg width="160" height="160" viewBox="0 0 160 160" fill="none" xmlns="http://www.w3.org/2000/svg">
<path fill-rule="evenodd" clip-rule="evenodd" d="M128.734 79.9744C128.734 108.679 105.467 131.948 76.7656 131.948C48.0646 131.948 24.7976 108.679 24.7976 79.9744C24.7976 51.2696 48.0646 28 76.7656 28C105.467 28 128.734 51.2696 128.734 79.9744Z" fill="white"/>
<path fill-rule="evenodd" clip-rule="evenodd" d="M128.734 79.9744C128.734 108.679 105.467 131.948 76.7656 131.948C48.0646 131.948 24.7976 108.679 24.7976 79.9744C24.7976 51.2696 48.0646 28 76.7656 28C105.467 28 128.734 51.2696 128.734 79.9744Z" fill="#191919"/>
<mask id="mask0_2089_36986" style="mask-type:alpha" maskUnits="userSpaceOnUse" x="24" y="28" width="105" height="104">
<path fill-rule="evenodd" clip-rule="evenodd" d="M128.734 79.9744C128.734 108.679 105.467 131.948 76.7656 131.948C48.0646 131.948 24.7976 108.679 24.7976 79.9744C24.7976 51.2696 48.0646 28 76.7656 28C105.467 28 128.734 51.2696 128.734 79.9744Z" fill="#191919"/>
</mask>
<g mask="url(#mask0_2089_36986)">
<path fill-rule="evenodd" clip-rule="evenodd" d="M66.2356 96.256H88.3313L84.4509 69.9883L67.4438 71.6073L66.2356 96.256Z" fill="#F6C7B4" stroke="#5C5C5C" stroke-width="2.376"/>
<path fill-rule="evenodd" clip-rule="evenodd" d="M68.3381 84.912C68.8878 85.6369 69.5169 86.2785 70.2195 86.8097L75.2716 90.6274C78.1544 92.806 81.7724 92.806 84.6552 90.6274L86.228 89.4383V70.6738H68.3381V84.912Z" fill="#CFA694"/>
<path fill-rule="evenodd" clip-rule="evenodd" d="M63.331 73.7265C61.2858 73.0027 60.2093 70.6881 59.3484 68.5912C58.5543 66.6581 57.75 64.682 57.5867 62.5813C57.5132 61.6348 57.6242 60.5627 58.3105 59.9543C58.8444 59.4808 59.6167 59.4106 60.2915 59.5918C60.9658 59.7736 61.5666 60.1731 62.1555 60.5671C65.8241 63.0226 65.1488 69.5468 63.331 73.7265Z" fill="#EDCD99"/>
<path fill-rule="evenodd" clip-rule="evenodd" d="M66.2507 88.6641L77.2833 94.5684L88.3165 88.6641L91.4915 91.616L100.349 95.4408C105.593 97.7048 109.637 102.102 111.478 107.542L113.257 120.647L77.7476 132.905L77.6948 128.583L41.3098 120.647L43.0894 107.542C44.93 102.102 48.9742 97.7048 54.2178 95.4408L63.0757 91.616L66.2507 88.6641Z" fill="white"/>
<path d="M77.2832 94.5691L76.9023 95.282L77.2832 95.4861L77.6647 95.282L77.2832 94.5691ZM66.2506 88.6647L66.6321 87.9524L66.1233 87.6797L65.7004 88.0726L66.2506 88.6647ZM88.3164 88.6647L88.8666 88.0726L88.4437 87.6797L87.9349 87.9524L88.3164 88.6647ZM91.4914 91.6166L90.9406 92.2088L91.043 92.3035L91.1708 92.359L91.4914 91.6166ZM100.349 95.4415L100.669 94.6992L100.349 95.4415ZM111.478 107.543L112.278 107.434L112.268 107.357L112.243 107.284L111.478 107.543ZM113.257 120.648L113.521 121.412L114.148 121.195L114.058 120.539L113.257 120.648ZM77.7474 132.906L76.9393 132.915L76.9529 134.035L78.0108 133.67L77.7474 132.906ZM77.6947 128.584L78.5028 128.574L78.4952 127.931L77.8672 127.794L77.6947 128.584ZM41.3097 120.648L40.5086 120.539L40.4084 121.279L41.1372 121.438L41.3097 120.648ZM43.0893 107.543L42.3241 107.284L42.2991 107.357L42.2888 107.434L43.0893 107.543ZM54.2177 95.4415L53.8977 94.6992L54.2177 95.4415ZM63.0756 91.6166L63.3961 92.359L63.524 92.3035L63.6263 92.2088L63.0756 91.6166ZM77.6647 93.8567L66.6321 87.9524L65.8691 89.3771L76.9023 95.282L77.6647 93.8567ZM77.6647 95.282L88.6979 89.3771L87.9349 87.9524L76.9023 93.8567L77.6647 95.282ZM87.7662 89.2563L90.9406 92.2088L92.0416 91.0251L88.8666 88.0726L87.7662 89.2563ZM91.1708 92.359L100.029 96.1833L100.669 94.6992L91.8114 90.8749L91.1708 92.359ZM100.029 96.1833C105.061 98.3564 108.944 102.577 110.712 107.802L112.243 107.284C110.33 101.629 106.125 97.0546 100.669 94.6992L100.029 96.1833ZM110.677 107.652L112.457 120.757L114.058 120.539L112.278 107.434L110.677 107.652ZM112.994 119.884L77.4835 132.142L78.0108 133.67L113.521 121.412L112.994 119.884ZM78.5551 132.896L78.5028 128.574L76.887 128.593L76.9393 132.915L78.5551 132.896ZM41.1372 121.438L77.5227 129.373L77.8672 127.794L41.4817 119.858L41.1372 121.438ZM42.2888 107.434L40.5086 120.539L42.1103 120.757L43.8904 107.652L42.2888 107.434ZM53.8977 94.6992C48.4424 97.0546 44.2371 101.629 42.3241 107.284L43.855 107.802C45.6227 102.577 49.5058 98.3564 54.5383 96.1833L53.8977 94.6992ZM62.7556 90.8749L53.8977 94.6992L54.5383 96.1833L63.3961 92.359L62.7556 90.8749ZM65.7004 88.0726L62.5254 91.0251L63.6263 92.2088L66.8008 89.2563L65.7004 88.0726Z" fill="#5C5C5C"/>
<path fill-rule="evenodd" clip-rule="evenodd" d="M95.7099 48.3109C93.4094 41.3192 85.7494 38.7472 77.3013 39.151C68.85 38.7472 61.184 41.3192 58.8775 48.3109C58.0275 50.9025 58.8226 61.4334 59.5763 64.0685C60.0003 65.6588 61.4975 73.1789 62.021 67.7562C62.0504 66.7309 62.815 57.4181 63.8883 55.7603C66.1408 52.2043 69.4802 52.0525 71.3877 53.1937C73.3758 54.3965 74.9829 54.4955 77.3013 54.3802C79.6148 54.4955 81.2247 54.3965 83.2111 53.1937C85.1246 52.0525 88.4537 52.2043 90.7078 55.7603C91.7724 57.4181 92.5473 66.7309 92.5784 67.7562C93.0927 73.1789 94.5811 65.6588 95.0274 64.0685C95.7616 61.4334 96.5692 50.9025 95.7099 48.3109Z" fill="#5C5C5C"/>
<path fill-rule="evenodd" clip-rule="evenodd" d="M94.3363 45.0093C90.8777 39.4598 81.8697 34.6831 70.3745 37.014C63.8949 38.3082 62.5076 43.0789 62.2899 43.2019C57.0376 46.2093 59.8398 53.5221 63.7038 54.2421C64.6198 54.4136 65.2805 55.0106 65.8797 55.2185C67.4089 55.723 69.0182 55.6321 70.5932 55.5058C75.7563 55.0547 81.6155 53.5053 86.7639 54.5077C89.8584 55.0879 93.3964 56.6008 95.6969 59.7933C95.8411 59.9865 97.0242 49.3288 94.3363 45.0093Z" fill="#5C5C5C"/>
<path d="M65.1799 97.2703L70.1389 103.721L76.9973 94.6406" stroke="#5C5C5C" stroke-width="2.376" stroke-linecap="round"/>
<path d="M91.6604 93.1641L83.5454 103.719L77.283 95.1461" stroke="#5C5C5C" stroke-width="2.376" stroke-linecap="round"/>
<path fill-rule="evenodd" clip-rule="evenodd" d="M76.8713 94.248L73.1526 99.7399C72.7085 100.014 72.7145 100.916 73.1629 101.187L73.9264 101.656L76.2541 103.065C76.4223 103.171 76.6443 103.222 76.8713 103.243C77.0922 103.222 77.3116 103.165 77.4852 103.06L79.8036 101.627L80.5573 101.148C81.0074 100.874 81.0036 99.9733 80.553 99.7045L76.8713 94.248Z" fill="#5C5C5C"/>
<path d="M61.2297 92.2637L63.1057 94.6419" stroke="#5C5C5C" stroke-width="2.376" stroke-linecap="round"/>
<g style="mix-blend-mode:multiply">
<path fill-rule="evenodd" clip-rule="evenodd" d="M92.502 92.2612L84.153 103.915L76.4358 94.6395L87.4956 89.3496L90.626 91.6963L92.502 92.2612Z" fill="#E9F4F7"/>
</g>
<g style="mix-blend-mode:multiply">
<path fill-rule="evenodd" clip-rule="evenodd" d="M53.1111 108.696C53.1111 108.696 54.2818 97.5079 63.1053 95.4801L61.2294 92.2637L50.4079 96.6801L45.0266 103.722L50.4079 112.359L53.1111 114.76V108.696Z" fill="#C6EDF6"/>
</g>
<g style="mix-blend-mode:multiply">
<path fill-rule="evenodd" clip-rule="evenodd" d="M80.8929 120.962L78.3269 99.6992L83.5455 103.719L91.6605 93.1641L101.52 96.6319L110.113 103.915L112.769 120.242L80.8929 120.962Z" fill="#E9F4F7"/>
</g>
<path fill-rule="evenodd" clip-rule="evenodd" d="M66.2356 96.256H88.3313L84.4509 69.9883L67.4438 71.6073L66.2356 96.256Z" fill="#FEDAC6" stroke="#5C5C5C" stroke-width="2.376"/>
<path fill-rule="evenodd" clip-rule="evenodd" d="M68.3381 84.912C68.8878 85.6369 69.5169 86.2785 70.2195 86.8097L75.2716 90.6274C78.1544 92.806 81.7724 92.806 84.6552 90.6274L86.228 89.4383V70.6738H68.3381V84.912Z" fill="#F6C7B4"/>
<path fill-rule="evenodd" clip-rule="evenodd" d="M63.331 73.7265C61.2858 73.0027 60.2093 70.6881 59.3484 68.5912C58.5543 66.6581 57.75 64.682 57.5867 62.5813C57.5132 61.6348 57.6242 60.5627 58.3105 59.9543C58.8444 59.4808 59.6167 59.4106 60.2915 59.5918C60.9658 59.7736 61.5666 60.1731 62.1555 60.5671C65.8241 63.0226 65.1488 69.5468 63.331 73.7265Z" fill="#FEDAC6"/>
<path fill-rule="evenodd" clip-rule="evenodd" d="M66.2507 88.6641L77.2833 94.5684L88.3165 88.6641L91.4915 91.616L100.349 95.4408C105.593 97.7048 109.637 102.102 111.478 107.542L113.257 120.647L78.325 142.997L78.3272 143.103L78.2412 143.051L78.159 143.103L78.1574 143L41.3098 120.647L43.0894 107.542C44.93 102.102 48.9742 97.7048 54.2178 95.4408L63.0757 91.616L66.2507 88.6641Z" fill="white"/>
<path d="M77.2832 94.5691L76.9022 95.282L77.2832 95.4861L77.6647 95.282L77.2832 94.5691ZM66.2506 88.6647L66.6321 87.9523L66.1232 87.6797L65.7004 88.0726L66.2506 88.6647ZM88.3163 88.6647L88.8665 88.0726L88.4437 87.6797L87.9348 87.9523L88.3163 88.6647ZM91.4914 91.6166L90.9406 92.2088L91.0429 92.3035L91.1708 92.359L91.4914 91.6166ZM111.478 107.543L112.278 107.434L112.268 107.357L112.243 107.284L111.478 107.543ZM78.3248 142.998L77.8894 142.317L77.5069 142.561L77.5167 143.015L78.3248 142.998ZM78.327 143.104L77.9079 143.795L79.1668 144.559L79.1352 143.087L78.327 143.104ZM78.241 143.052L78.6601 142.361L78.2296 142.099L77.8051 142.371L78.241 143.052ZM43.0893 107.543L42.3241 107.284L42.2991 107.357L42.2887 107.434L43.0893 107.543ZM63.0755 91.6166L63.3961 92.359L63.524 92.3035L63.6263 92.2088L63.0755 91.6166ZM77.6647 93.8567L66.6321 87.9523L65.8691 89.3771L76.9022 95.282L77.6647 93.8567ZM77.6647 95.282L88.6978 89.3771L87.9348 87.9523L76.9022 93.8567L77.6647 95.282ZM87.7661 89.2563L90.9406 92.2088L92.0416 91.0251L88.8665 88.0726L87.7661 89.2563ZM91.1708 92.359L100.029 96.1833L100.669 94.6992L91.8114 90.8749L91.1708 92.359ZM100.029 96.1833C105.061 98.3564 108.944 102.577 110.712 107.802L112.243 107.284C110.33 101.629 106.125 97.0546 100.669 94.6992L100.029 96.1833ZM110.677 107.652L112.457 120.757L113.257 120.648L114.058 120.539L112.278 107.434L110.677 107.652ZM79.1352 143.087L79.133 142.98L77.5167 143.015L77.5194 143.121L79.1352 143.087ZM77.8214 143.742L77.9079 143.795L78.7461 142.413L78.6601 142.361L77.8214 143.742ZM77.8051 142.371L77.7235 142.423L78.5948 143.785L78.6764 143.733L77.8051 142.371ZM42.2887 107.434L40.5085 120.539L41.3096 120.648L42.1102 120.757L43.8904 107.652L42.2887 107.434ZM53.8977 94.6992C48.4423 97.0546 44.2371 101.629 42.3241 107.284L43.855 107.802C45.6227 102.577 49.5057 98.3564 54.5382 96.1833L53.8977 94.6992ZM62.7555 90.8749L53.8977 94.6992L54.5382 96.1833L63.3961 92.359L62.7555 90.8749ZM65.7004 88.0726L62.5253 91.0251L63.6263 92.2088L66.8008 89.2563L65.7004 88.0726Z" fill="#5C5C5C"/>
<path fill-rule="evenodd" clip-rule="evenodd" d="M77.5842 40.9092C61.3597 40.9092 60.3088 53.4014 60.3 64.587V64.6327V64.7301C60.3 72.1545 65.3347 79.9723 65.3347 79.9723C65.3347 79.9723 72.1773 86.3234 74.1158 86.7828H81.0499C82.5427 86.4165 88.5863 81.0891 88.5863 81.0891C88.5863 81.0891 92.3976 76.0157 94.0836 69.9949C94.089 69.996 94.0945 69.9971 94.0999 69.9982C95.497 70.3062 97.1008 68.5957 97.6624 66.1783C98.2366 63.7646 97.5732 61.5676 96.1772 61.2454C95.7446 61.1518 95.2912 61.2541 94.8553 61.5115C94.7149 51.2316 93.2308 40.9092 77.5842 40.9092Z" fill="#FEDAC6"/>
<path d="M60.2996 64.5846L59.4915 64.584L60.2996 64.5846ZM60.2996 64.6303L59.4915 64.6298V64.6303H60.2996ZM60.2996 64.7277L59.4915 64.7272V64.7277H60.2996ZM65.3343 79.9699L64.6546 80.4075L64.7095 80.4935L64.7841 80.5626L65.3343 79.9699ZM74.1154 86.7804L73.9288 87.5668L74.0207 87.5886H74.1154V86.7804ZM81.0494 86.7804V87.5886H81.1469L81.2421 87.5657L81.0494 86.7804ZM88.5859 81.0867L89.1204 81.693L89.1824 81.638L89.2319 81.5721L88.5859 81.0867ZM94.0832 69.9926L94.2606 69.204L93.5117 69.0358L93.3049 69.7743L94.0832 69.9926ZM94.0995 69.9958L94.2731 69.2067L94.2682 69.2056L94.0995 69.9958ZM97.662 66.1759L96.8762 65.9887L96.8751 65.9925L97.662 66.1759ZM96.1768 61.243L96.3586 60.4555L96.3532 60.4544L96.3477 60.4533L96.1768 61.243ZM94.8549 61.5091L94.0467 61.5206L94.0658 62.9143L95.2663 62.2052L94.8549 61.5091ZM61.1078 64.5851C61.1122 58.9741 61.3886 53.2428 63.5813 48.9162C64.6654 46.778 66.2138 44.994 68.4375 43.7368C70.6677 42.4758 73.63 41.715 77.5838 41.715V40.0986C73.4253 40.0986 70.172 40.8992 67.6418 42.33C65.1046 43.7646 63.3479 45.8027 62.1397 48.1853C59.7489 52.9016 59.4958 59.009 59.4915 64.584L61.1078 64.5851ZM61.1078 64.6308V64.5851L59.4915 64.584V64.6298L61.1078 64.6308ZM61.1078 64.7277V64.6303H59.4915V64.7272L61.1078 64.7277ZM65.3343 79.9699C66.0135 79.5324 66.0135 79.5329 66.0135 79.5329V79.5324C66.013 79.5318 66.0124 79.5307 66.0113 79.5291C66.0097 79.5264 66.0064 79.5215 66.0021 79.5144C65.9934 79.5013 65.9803 79.4807 65.9629 79.4524C65.9286 79.3969 65.8763 79.3125 65.81 79.2026C65.6766 78.9816 65.4845 78.6551 65.2538 78.2398C64.7917 77.4082 64.1745 76.2224 63.5574 74.8095C62.3166 71.9676 61.1078 68.2766 61.1078 64.7277H59.4915C59.4915 68.6026 60.7998 72.533 62.076 75.4566C62.7176 76.9261 63.3593 78.1587 63.8409 79.0251C64.082 79.4589 64.2834 79.8012 64.4254 80.0369C64.4967 80.155 64.5528 80.2459 64.592 80.3084C64.6116 80.3395 64.6268 80.3639 64.6371 80.3803C64.6426 80.3884 64.6464 80.395 64.6497 80.3999C64.6508 80.402 64.6524 80.4037 64.6529 80.4053C64.6535 80.4059 64.654 80.4064 64.654 80.4069C64.654 80.4069 64.6546 80.4069 64.6546 80.4075C64.6546 80.4075 64.6546 80.4075 65.3343 79.9699ZM74.3016 85.994C74.1807 85.9657 73.9462 85.8666 73.5892 85.6582C73.2474 85.4585 72.8441 85.1891 72.3984 84.8674C71.508 84.2247 70.4887 83.4024 69.5183 82.5849C68.5507 81.7697 67.6413 80.967 66.973 80.3678C66.6394 80.0684 66.3667 79.8208 66.1773 79.6478C66.0826 79.5612 66.0091 79.4932 65.9591 79.4475C65.934 79.4241 65.915 79.4066 65.9025 79.3952C65.8965 79.3892 65.8916 79.3849 65.8883 79.3822C65.8867 79.3805 65.8856 79.3794 65.8851 79.3789C65.8845 79.3783 65.884 79.3784 65.884 79.3778C65.884 79.3778 65.884 79.3778 65.3343 79.9699C64.7841 80.5626 64.7846 80.5626 64.7846 80.5626C64.7846 80.5626 64.7846 80.5626 64.7846 80.5631C64.7852 80.5631 64.7852 80.5637 64.7857 80.5637C64.7868 80.5648 64.7879 80.5658 64.7895 80.5675C64.7933 80.5707 64.7982 80.5756 64.8048 80.5816C64.8184 80.5942 64.838 80.6121 64.8635 80.6361C64.9152 80.6829 64.9903 80.7525 65.0867 80.8401C65.2793 81.0165 65.5558 81.2679 65.8938 81.5711C66.5697 82.1773 67.4922 82.9915 68.4772 83.8209C69.4601 84.6492 70.5148 85.5009 71.4525 86.1779C71.9211 86.5159 72.3706 86.818 72.7739 87.0541C73.1619 87.2805 73.5658 87.4808 73.9288 87.5668L74.3016 85.994ZM81.0494 85.9722H74.1154V87.5886H81.0494V85.9722ZM88.5859 81.0867C88.0515 80.4804 88.0515 80.4804 88.0515 80.4804C88.051 80.4804 88.051 80.4804 88.051 80.4804C88.051 80.4804 88.051 80.481 88.0504 80.481C88.0499 80.4815 88.0488 80.4826 88.0471 80.4837C88.0444 80.4864 88.0401 80.4902 88.0346 80.4951C88.0237 80.5049 88.0069 80.5196 87.9846 80.5386C87.941 80.5773 87.8757 80.6339 87.7924 80.7068C87.6259 80.8516 87.3854 81.06 87.0926 81.3109C86.5059 81.8132 85.7097 82.4859 84.8683 83.1689C84.0248 83.853 83.1447 84.5409 82.3888 85.077C82.0106 85.3458 81.6731 85.5695 81.3929 85.7339C81.0941 85.9091 80.9221 85.9798 80.8568 85.9956L81.2421 87.5657C81.5501 87.4901 81.8935 87.3143 82.2108 87.1276C82.5466 86.9306 82.9265 86.6781 83.3243 86.3956C84.1216 85.8296 85.0327 85.1167 85.8866 84.4239C86.7426 83.7289 87.5503 83.0464 88.144 82.5387C88.4406 82.2845 88.6844 82.0734 88.8537 81.9259C88.9386 81.8519 89.005 81.7942 89.0502 81.7544C89.073 81.7343 89.0899 81.7191 89.1019 81.7087C89.1078 81.7038 89.1122 81.7 89.1155 81.6973C89.1171 81.6957 89.1182 81.6946 89.1187 81.694C89.1193 81.6935 89.1193 81.6935 89.1198 81.693C89.1198 81.693 89.1204 81.693 88.5859 81.0867ZM93.3049 69.7743C92.4864 72.6968 91.1465 75.406 90.002 77.3941C89.4311 78.3857 88.9119 79.1917 88.5375 79.7484C88.3497 80.0265 88.1984 80.242 88.095 80.3868C88.0433 80.4597 88.0036 80.5142 87.9769 80.5501C87.9639 80.568 87.9541 80.5816 87.9475 80.5904C87.9448 80.5942 87.9421 80.5974 87.941 80.5991C87.9405 80.6001 87.9399 80.6007 87.9394 80.6012C87.9394 80.6012 87.9394 80.6012 88.5859 81.0867C89.2319 81.5721 89.2319 81.5721 89.2319 81.5716H89.2325C89.2325 81.571 89.233 81.5705 89.233 81.57C89.2341 81.5694 89.2347 81.5678 89.2357 81.5667C89.2385 81.5634 89.2417 81.5591 89.2455 81.5536C89.2537 81.5427 89.2657 81.5264 89.2809 81.5063C89.3108 81.4649 89.3544 81.4045 89.4104 81.3267C89.522 81.1705 89.6815 80.9425 89.8779 80.6513C90.2703 80.0684 90.8097 79.2298 91.4023 78.2006C92.5849 76.1467 93.9939 73.3091 94.8614 70.2103L93.3049 69.7743ZM93.9058 70.7812C93.9145 70.7828 93.9226 70.7844 93.9308 70.7866L94.2682 69.2056C94.2655 69.2051 94.2633 69.2045 94.2606 69.204L93.9058 70.7812ZM93.9259 70.7855C95.0225 71.0272 96.0451 70.4514 96.7847 69.6595C97.5423 68.8486 98.142 67.6823 98.4495 66.3588L96.8751 65.9925C96.6209 67.0869 96.1377 67.9844 95.6038 68.5564C95.0514 69.1474 94.5735 69.2731 94.2731 69.2067L93.9259 70.7855ZM98.4484 66.3626C98.7619 65.0439 98.7489 63.7437 98.4321 62.6923C98.1214 61.661 97.4558 60.7091 96.3586 60.4555L95.9951 62.0305C96.2938 62.0996 96.6579 62.4071 96.8843 63.1587C97.1047 63.8891 97.1363 64.8942 96.8762 65.9887L98.4484 66.3626ZM96.3477 60.4533C95.6691 60.3064 95.0089 60.48 94.444 60.8136L95.2663 62.2052C95.5733 62.0234 95.8193 61.993 96.0059 62.0332L96.3477 60.4533ZM77.5838 41.715C85.2079 41.715 89.1835 44.2114 91.343 47.7717C93.5607 51.4289 93.9765 56.3711 94.0467 61.5206L95.6631 61.4982C95.5929 56.3673 95.1961 51.0082 92.7253 46.9336C90.1958 42.7632 85.6063 40.0986 77.5838 40.0986V41.715Z" fill="#5C5C5C"/>
<path fill-rule="evenodd" clip-rule="evenodd" d="M85.1949 50.4387C83.4186 49.9582 81.5562 50.0344 79.7042 50.227C75.7689 50.6341 70.7059 52.7038 66.8397 51.1511C66.6411 51.0689 66.4952 51.2556 66.5638 51.42C67.5249 54.4127 72.8491 53.9849 75.2579 53.7237C77.9719 53.4325 80.7676 53.0859 83.5105 53.4325C85.0164 53.6399 86.1196 54.6179 87.1405 55.6437C87.2837 55.8903 87.4165 56.1548 87.5672 56.3959C89.872 60.3753 90.2067 66.7177 88.5501 71.0394C87.5672 74.0251 84.2485 76.3593 81.9377 79.0271C79.4745 82.1237 75.4298 81.9594 71.0885 82.6429C72.46 83.7591 73.9898 85.2253 73.9898 86.0846H80.7676C82.2267 85.7069 88.1338 80.2407 88.1338 80.2407C88.1338 80.2407 94.2759 71.655 94.2759 63.4502C94.2759 54.0219 94.4397 45.6479 85.1949 42.2002C84.7084 45.6642 84.4515 47.12 85.1949 50.4387Z" fill="#F6C7B4"/>
<path fill-rule="evenodd" clip-rule="evenodd" d="M78.5649 40.0554C77.5254 40.0042 76.4528 39.9933 75.3502 40.0276C67.289 39.8398 60.2369 40.9011 58.0001 47.1739C57.1092 49.6855 57.9425 59.8887 58.7321 62.4422C58.7931 62.6545 58.8758 62.975 58.9738 63.3565C59.5882 65.75 60.8198 70.5469 61.2927 66.0156C61.3243 65.0219 62.1249 55.9985 63.2492 54.392C63.5915 53.8924 63.9578 53.4624 64.3399 53.0951C64.4079 53.1245 64.4748 53.1533 64.5407 53.1816C64.8112 53.2986 65.0604 53.4069 65.3004 53.4701C66.9048 53.8695 68.5925 53.7971 70.2447 53.6975C71.8121 53.5936 73.4415 53.4173 75.096 53.2382C79.1554 52.7985 83.3677 52.3419 87.204 52.9062C88.385 53.0739 89.6269 53.3389 90.846 53.7302C91.0174 53.9359 91.1845 54.1563 91.3461 54.392C92.4613 55.9985 93.2727 65.0219 93.3054 66.0156C93.7614 70.4592 94.9468 65.9329 95.5846 63.4986C95.7005 63.0545 95.799 62.68 95.8709 62.4422C96.2371 61.2269 96.6208 58.5755 96.8249 55.8598C96.919 55.0902 96.9952 54.0279 96.9686 52.8632C97.0001 50.9916 96.8978 49.3573 96.586 48.4876C94.2915 42.0374 86.9063 39.9068 78.5649 40.0554Z" fill="#5C5C5C"/>
<path fill-rule="evenodd" clip-rule="evenodd" d="M80.7706 42.1326C80.5105 42.033 80.2482 41.9427 79.9788 41.8605C83.4455 44.3737 86.565 47.3964 89.2078 50.8033C88.6472 49.1287 88.0823 47.5569 87.297 45.9792C88.8421 46.6976 90.3055 48.4272 91.6073 49.5341C89.8886 45.7893 87.3313 43.0485 83.8939 40.9092C85.1881 42.2883 86.485 43.6684 87.7841 45.0513C86.5841 44.278 85.3884 43.5008 84.1938 42.7302C84.8632 43.6162 85.5288 44.5022 86.1982 45.3893C84.6069 43.9732 82.757 42.8651 80.7706 42.1326Z" fill="#404040"/>
<path fill-rule="evenodd" clip-rule="evenodd" d="M74.3612 99.0397L71.4998 132.496L81.4998 132.5L79.2609 99.0397L76.7766 95.5L74.3612 99.0397Z" fill="#5C5C5C"/>
<path d="M65.1799 97.2703L70.1389 103.721L76.9973 94.6406" stroke="#5C5C5C" stroke-width="2.376" stroke-linecap="round"/>
<path d="M91.6604 93.1641L83.5454 103.719L77.283 95.1461" stroke="#5C5C5C" stroke-width="2.376" stroke-linecap="round"/>
<path fill-rule="evenodd" clip-rule="evenodd" d="M76.8713 94.248L73.1526 99.7399C72.7085 100.014 72.7145 100.916 73.1629 101.187L73.9264 101.656L76.2541 103.065C76.4223 103.171 76.6443 103.222 76.8713 103.243C77.0922 103.222 77.3116 103.165 77.4852 103.06L79.8036 101.627L80.5573 101.148C81.0074 100.874 81.0036 99.9733 80.553 99.7045L76.8713 94.248Z" fill="#5C5C5C"/>
<path d="M61.2297 92.2637L63.1057 94.6419" stroke="#5C5C5C" stroke-width="2.376" stroke-linecap="round"/>
<g style="mix-blend-mode:multiply">
<path fill-rule="evenodd" clip-rule="evenodd" d="M92.502 92.2612L88.153 98.3316L84.153 103.915L76.4358 94.6395L87.4956 89.3496L90.626 91.6963L92.502 92.2612Z" fill="#E9F4F7"/>
</g>
<g style="mix-blend-mode:multiply">
<path fill-rule="evenodd" clip-rule="evenodd" d="M50.6297 115.735C50.6297 115.735 52.2684 100.308 64.6191 97.5121L61.9932 93.0767C61.9932 93.0767 58.8732 89.8848 50.6297 97.5121C42.3863 105.14 41.3098 118.238 41.3098 118.238L46.8457 120.786L50.6297 124.098V115.735Z" fill="#C6EDF6"/>
</g>
</g>
<path d="M28.8796 39.0201C28.8796 36.0895 26.5039 33.7139 23.5733 33.7139C20.6428 33.7139 18.2671 36.0895 18.2671 39.0201C18.2671 41.9506 20.6428 44.3263 23.5733 44.3263C26.5039 44.3263 28.8796 41.9506 28.8796 39.0201Z" stroke="#E10714" stroke-width="2.4"/>
<path d="M144.8 88.4089C144.8 86.1546 142.973 84.3271 140.718 84.3271C138.464 84.3271 136.637 86.1546 136.637 88.4089C136.637 90.6631 138.464 92.4906 140.718 92.4906C142.973 92.4906 144.8 90.6631 144.8 88.4089Z" stroke="#990000" stroke-width="2.4"/>
<path d="M143.602 49.8231L140.499 52.9252L135.415 47.8405L130.328 52.9274L127.22 49.8204L132.308 44.733L127.223 39.6482L130.325 36.5461L135.41 41.6309L140.497 36.5439L143.604 39.651L138.517 44.7384L143.602 49.8231Z" fill="#B1D0D7"/>
<path d="M19.2383 90.9206L18.3367 91.8224L17.2216 90.7072L16.1092 91.8191L15.2031 90.913L16.3154 89.8011L15.2002 88.6854L16.1017 87.7842L17.2169 88.8993L18.3292 87.7869L19.2354 88.693L18.123 89.8055L19.2383 90.9206Z" fill="#2B465B"/>
<path fill-rule="evenodd" clip-rule="evenodd" d="M48.8404 81.4684C47.2714 81.7356 46.123 83.0956 46.123 84.6875V108.548C46.123 109.757 47.0063 110.786 48.2015 110.969L60.814 112.9V79.4297L48.8404 81.4684ZM63.2663 81.8787C63.2663 80.5263 62.1702 79.4297 60.8172 79.4297V112.9H60.9843C62.2447 112.9 63.2663 111.878 63.2663 110.618V81.8787Z" fill="#C3DEE7"/>
<path fill-rule="evenodd" clip-rule="evenodd" d="M60.8174 79.4297C62.2977 79.4297 63.4977 80.6297 63.4977 82.11V110.219C63.4977 111.7 62.2977 112.9 60.8174 112.9V79.4297Z" fill="#9BC3D3"/>
<path fill-rule="evenodd" clip-rule="evenodd" d="M46.123 84.6875C46.123 83.0956 47.2714 81.7356 48.8404 81.4684L60.814 79.4297C62.1685 79.4297 63.2663 80.5274 63.2663 81.882V110.447C63.2663 111.802 62.1685 112.9 60.814 112.9L48.2015 110.969C47.0063 110.786 46.123 109.757 46.123 108.548V84.6875Z" stroke="#5C5C5C" stroke-width="1.8"/>
<path fill-rule="evenodd" clip-rule="evenodd" d="M37.4305 109.396C37.4305 109.396 37.9638 98.073 41.1993 96.7195C44.4342 95.3665 54.0115 89.8617 55.2513 89.3833C56.4905 88.9049 57.6431 89.897 57.6431 89.897C57.6431 89.897 58.0823 91.625 56.6668 92.69C55.2513 93.7551 48.5507 97.5092 48.5507 97.5092L46.7727 97.8041L56.6668 97.1941C56.6668 97.1941 58.5525 97.2556 58.5525 98.4866C58.5525 99.7176 57.8401 100.264 56.6668 100.469C55.4934 100.674 47.0573 101.127 47.0573 101.127L55.7443 101.929C55.7443 101.929 57.0521 102.21 57.0521 103.351C57.0521 104.492 54.7451 104.505 54.7451 104.505C54.7451 104.505 48.1839 104.071 47.8481 104.505C47.5123 104.938 46.5512 106.332 47.8481 106.56C49.145 106.787 52.0664 106.56 52.0664 106.56C52.0664 106.56 53.8988 106.409 54.1198 107.143C54.3413 107.875 53.0874 108.258 52.4555 108.442C51.8232 108.627 47.435 108.871 47.435 108.871C47.435 108.871 45.546 109.646 45.1983 111.028C44.8505 112.41 44.6948 115.562 44.0108 115.97C43.3267 116.377 38.0036 117.945 37.4305 114.892C36.8574 111.838 37.4305 109.396 37.4305 109.396Z" fill="#FEDAC6"/>
<path fill-rule="evenodd" clip-rule="evenodd" d="M38.6924 116.394C38.6924 116.394 41.5392 117.085 44.2549 115.891C45.1469 112.902 45.3445 110.397 45.3445 110.397C45.3445 110.397 46.0465 109.11 46.7774 109.11C47.5083 109.11 48.7378 108.726 48.7378 108.726H50.5076H51.8736C51.8736 108.726 53.7964 108.299 53.4693 108.034C53.1422 107.77 52.3514 107.497 50.8962 107.497C49.4409 107.497 46.6174 107.299 46.1238 107.497C45.6302 107.695 43.616 107.963 42.1923 109.411C40.7692 110.859 39.3912 112.628 39.0418 113.428C38.6924 114.228 38.6924 116.394 38.6924 116.394Z" fill="#F6C7B4"/>
<path fill-rule="evenodd" clip-rule="evenodd" d="M37.1435 109.329C37.1435 109.329 37.9636 98.073 41.1985 96.7195C44.434 95.3665 54.0113 89.8617 55.2505 89.3833C56.4903 88.9049 57.6429 89.897 57.6429 89.897C57.6429 89.897 58.0816 91.625 56.6661 92.69C55.2505 93.7551 48.5505 97.5092 48.5505 97.5092L46.772 97.8041L56.6661 97.1941C56.6661 97.1941 58.5523 97.2556 58.5523 98.4866C58.5523 99.7176 57.84 100.264 56.6661 100.469C55.4927 100.674 47.0572 101.127 47.0572 101.127L55.7441 101.929C55.7441 101.929 57.0519 102.21 57.0519 103.351C57.0519 104.492 54.7444 104.505 54.7444 104.505C54.7444 104.505 48.1837 104.071 47.8479 104.505C47.5121 104.938 46.551 106.332 47.8479 106.56C49.1448 106.787 52.0657 106.56 52.0657 106.56C52.0657 106.56 53.8981 106.409 54.1196 107.143C54.3411 107.875 53.0872 108.258 52.4548 108.442C51.823 108.627 47.4348 108.871 47.4348 108.871C47.4348 108.871 45.5453 109.646 45.1975 111.028C44.8503 112.41 44.6947 115.562 44.0106 115.97C43.3265 116.377 38.0034 117.945 37.4303 114.892C36.8567 111.838 37.1435 109.329 37.1435 109.329Z" stroke="#5C5C5C" stroke-width="1.8" stroke-linejoin="round"/>
<path d="M48.1641 84.6093C48.1641 84.1892 48.4835 83.8371 48.902 83.7968C49.3815 83.7506 49.7967 84.1277 49.7967 84.6093V86.9343C49.7967 87.3854 49.4316 87.7506 48.9804 87.7506C48.5298 87.7506 48.1641 87.3854 48.1641 86.9343V84.6093Z" fill="#9BC3D3" stroke="#5C5C5C" stroke-width="1.2"/>
<path fill-rule="evenodd" clip-rule="evenodd" d="M37.379 115.15C40.2569 115.817 43.4842 115.608 44.6842 115.15C45.8837 114.693 45.7787 117.457 45.5691 118.894C45.4755 119.537 45.0108 120.062 44.3844 120.234C42.6156 121.096 38.3597 121.069 36.5317 119.941C36.1812 118.994 36.1328 117.624 36.3858 115.831C36.449 115.385 36.862 115.074 37.3083 115.137" fill="white"/>
<path d="M37.379 115.15C40.2569 115.817 43.4842 115.608 44.6842 115.15C45.8837 114.693 45.7787 117.457 45.5691 118.894C45.4755 119.537 45.0108 120.062 44.3844 120.234C42.6156 121.096 38.3597 121.069 36.5317 119.941C36.1812 118.994 36.1328 117.624 36.3858 115.831C36.449 115.385 36.862 115.074 37.3083 115.137" stroke="#5C5C5C" stroke-width="1.8" stroke-linecap="round" stroke-linejoin="round"/>
</svg>
