<svg width="160" height="160" viewBox="0 0 160 160" fill="none" xmlns="http://www.w3.org/2000/svg">
<path fill-rule="evenodd" clip-rule="evenodd" d="M66.6569 49.655C29.6106 62.9581 25.3036 72.4583 21.4766 82.7279C14.0652 102.615 29.2228 132.512 51.1445 127.873C71.7435 119.113 73.9661 155.806 112.979 135.828C137.422 123.312 145.11 100.328 135.655 81.6754C126.198 63.0236 103.703 36.352 66.6569 49.655" fill="#E5E5E5"/>
<path fill-rule="evenodd" clip-rule="evenodd" d="M49.4368 38.2957L48.3695 39.3683L46.9055 37.8969L45.4404 39.3693L44.3722 38.2957L45.8362 36.8243L44.3722 35.3519L45.4404 34.2793L46.9045 35.7507L48.3695 34.2783L49.4378 35.3519L47.9727 36.8243L49.4368 38.2957Z" fill="#6EE3FF"/>
<path fill-rule="evenodd" clip-rule="evenodd" d="M124.041 49.219C122.103 49.219 120.533 47.6409 120.533 45.6941C120.533 43.7473 122.103 42.1692 124.041 42.1692C125.979 42.1692 127.548 43.7473 127.548 45.6941C127.548 47.6409 125.979 49.219 124.041 49.219ZM124.041 47.2048C124.87 47.2048 125.544 46.529 125.544 45.6941C125.544 44.8592 124.87 44.1834 124.041 44.1834C123.211 44.1834 122.538 44.8592 122.538 45.6941C122.538 46.529 123.211 47.2048 124.041 47.2048Z" fill="#0F2B4A"/>
<path fill-rule="evenodd" clip-rule="evenodd" d="M94.1382 24.2185C94.4118 24.6959 94.2484 25.3072 93.7735 25.5821C93.2975 25.8581 92.6902 25.6959 92.4156 25.2186L89.4264 20.0158C89.1518 19.5384 89.3162 18.9281 89.7911 18.6511C90.2681 18.3752 90.8754 18.5383 91.15 19.0157L94.1382 24.2185ZM102.739 28.035C102.263 28.3109 101.656 28.1478 101.382 27.6704C101.108 27.194 101.271 26.5827 101.747 26.3068L106.916 23.3076C107.392 23.0316 107.999 23.1948 108.273 23.6711C108.548 24.1495 108.385 24.7598 107.908 25.0358L102.739 28.035ZM99.1419 24.935C98.9986 25.4677 98.4534 25.784 97.9243 25.641C97.3952 25.4979 97.0816 24.9501 97.2239 24.4163L98.7761 18.6133C98.9184 18.0805 99.4635 17.7643 99.9936 17.9063C100.523 18.0503 100.835 18.5982 100.694 19.1309L99.1419 24.935Z" fill="#EC0000"/>
<path fill-rule="evenodd" clip-rule="evenodd" d="M117.236 105.892L56.3156 122.298C51.4785 123.6 48.2688 123.126 46.2195 121.326C44.7745 120.058 44.0991 118.545 43.3505 115.736L30.4256 67.2596C30.3454 66.9604 30.2913 66.6674 30.2482 66.3773C30.2382 66.2998 30.2282 66.2242 30.2191 66.1477C30.1901 65.8939 30.1731 65.6421 30.1721 65.3954C30.1721 65.3581 30.1689 65.3219 30.1689 65.2856C30.1731 65.0086 30.1991 64.7367 30.2382 64.4688C30.2472 64.4003 30.2612 64.3319 30.2733 64.2644C30.3143 64.0408 30.3665 63.8212 30.4316 63.6057C30.4516 63.5362 30.4667 63.4667 30.4907 63.3983L30.4977 63.3751C30.5078 63.3469 30.5218 63.3197 30.5318 63.2925C30.5689 63.5836 30.627 63.8756 30.7112 64.1647C31.2202 66.0762 32.6632 67.0914 34.5833 67.3713L34.8759 67.4086C35.8439 67.5133 36.7227 67.4287 37.338 67.2948L105.33 48.9854C107.974 49.5191 110.102 51.5072 110.802 54.1368L122.261 97.1136C123.279 100.937 121.031 104.864 117.236 105.892" fill="white"/>
<path fill-rule="evenodd" clip-rule="evenodd" d="M117.236 105.892L56.3156 122.298C51.4785 123.6 48.2688 123.126 46.2195 121.326C44.7745 120.058 44.0991 118.545 43.3505 115.736L30.4256 67.2596C30.3454 66.9604 30.2913 66.6674 30.2482 66.3773C30.2382 66.2998 30.2282 66.2242 30.2191 66.1477C30.1901 65.8939 30.1731 65.6421 30.1721 65.3954C30.1721 65.3581 30.1689 65.3219 30.1689 65.2856C30.1731 65.0086 30.1991 64.7367 30.2382 64.4688C30.2472 64.4003 30.2612 64.3319 30.2733 64.2644C30.3143 64.0408 30.3665 63.8212 30.4316 63.6057C30.4516 63.5362 30.4667 63.4667 30.4907 63.3983L30.4977 63.3751C30.5078 63.3469 30.5218 63.3197 30.5318 63.2925C30.5689 63.5836 30.627 63.8756 30.7112 64.1647C31.2202 66.0762 32.6632 67.0914 34.5833 67.3713L34.8759 67.4086C35.8439 67.5133 36.7227 67.4287 37.338 67.2948L105.33 48.9854C107.974 49.5191 110.102 51.5072 110.802 54.1368L122.261 97.1136C123.279 100.937 121.031 104.864 117.236 105.892" fill="white"/>
<path fill-rule="evenodd" clip-rule="evenodd" d="M115.352 82.4681C115.009 83.0663 114.446 83.5024 113.783 83.6807L110.865 84.4662C110.203 84.6455 109.497 84.5498 108.903 84.2044C108.609 84.0311 108.353 83.8035 108.15 83.5356C107.714 83.5276 107.283 83.4208 106.899 83.1972C106.307 82.8508 105.875 82.2808 105.698 81.6131L104.916 78.6763C104.735 78.0106 104.827 77.2996 105.168 76.7013C105.51 76.1041 106.074 75.667 106.736 75.4888L109.654 74.7032C110.316 74.5249 111.023 74.6196 111.615 74.9661C111.91 75.1383 112.166 75.3669 112.369 75.6348C112.805 75.6428 113.236 75.7486 113.619 75.9732C114.212 76.3196 114.645 76.8887 114.82 77.5564L115.603 80.4931C115.783 81.1588 115.692 81.8699 115.352 82.4681ZM110.803 54.1368C110.103 51.5062 107.975 49.5192 105.331 48.9844L89.2642 53.311L71.8138 118.123L117.237 105.892C121.031 104.864 123.28 100.937 122.262 97.1136L110.803 54.1368Z" fill="#E9F4F7"/>
<path fill-rule="evenodd" clip-rule="evenodd" d="M57.2127 121.883C53.509 122.881 49.7021 120.672 48.709 116.95L36.9925 73.0029C36.4284 70.8859 36.8984 68.7367 38.0868 67.0931L37.3383 67.2945C36.724 67.4285 35.8452 67.5131 34.8761 67.4083L34.5835 67.3721C33.863 67.2663 33.2117 67.0579 32.6495 66.7376C31.8999 66.3106 31.3127 65.6841 30.9459 64.8392C30.8537 64.6277 30.7756 64.4031 30.7125 64.1644C30.6283 63.8754 30.5692 63.5833 30.5321 63.2922C30.5221 63.3204 30.509 63.3466 30.499 63.3748L30.491 63.398C30.4679 63.4665 30.4529 63.536 30.4319 63.6055C30.3667 63.821 30.3146 64.0405 30.2735 64.2641C30.2615 64.3316 30.2485 64.4001 30.2385 64.4686C30.1994 64.7364 30.1743 65.0084 30.1702 65.2853C30.1693 65.3216 30.1733 65.3588 30.1733 65.3951C30.1743 65.6418 30.1904 65.8936 30.2194 66.1474C30.2284 66.224 30.2385 66.3005 30.2495 66.377C30.2926 66.6671 30.3457 66.9602 30.4269 67.2593L43.3508 115.736C44.0994 118.546 44.7758 120.058 46.2198 121.326C48.2691 123.125 51.4788 123.6 56.3159 122.297L57.2728 122.04L57.2127 121.883Z" fill="#C6EDF6"/>
<path fill-rule="evenodd" clip-rule="evenodd" d="M114.82 77.5563C114.644 76.8886 114.213 76.3186 113.619 75.9732C113.235 75.7486 112.805 75.6428 112.37 75.6348C112.575 75.9037 112.727 76.2139 112.816 76.5492L113.598 79.486C113.779 80.1517 113.687 80.8627 113.347 81.461C113.004 82.0592 112.441 82.4953 111.778 82.6735L108.861 83.4591C108.626 83.5225 108.387 83.5387 108.149 83.5356C108.352 83.8035 108.608 84.0311 108.903 84.2044C109.497 84.5498 110.203 84.6455 110.866 84.4662L113.783 83.6807C114.445 83.5024 115.008 83.0663 115.351 82.4681C115.692 81.8698 115.783 81.1588 115.602 80.4931L114.82 77.5563Z" fill="#6EE3FF"/>
<path fill-rule="evenodd" clip-rule="evenodd" d="M111.778 82.6736C112.44 82.4954 113.004 82.0593 113.346 81.4611C113.687 80.8628 113.778 80.1518 113.597 79.4861L112.815 76.5493C112.727 76.214 112.574 75.9038 112.369 75.6349C112.165 75.367 111.91 75.1384 111.614 74.9661C111.021 74.6187 110.315 74.525 109.653 74.7033L106.735 75.4888C106.074 75.6671 105.508 76.1042 105.167 76.7014C104.826 77.2996 104.735 78.0107 104.914 78.6764L105.698 81.6131C105.873 82.2809 106.305 82.8509 106.898 83.1973C107.282 83.4209 107.712 83.5277 108.148 83.5347C108.386 83.5388 108.625 83.5226 108.86 83.4592L111.778 82.6736Z" fill="#0F2B4A"/>
<path fill-rule="evenodd" clip-rule="evenodd" d="M117.236 105.891L56.3163 122.297C51.4792 123.6 48.2695 123.125 46.2203 121.326C44.7753 120.058 44.0999 118.545 43.3513 115.736L30.4263 67.2593C30.3462 66.9601 30.2921 66.6671 30.249 66.377C30.2389 66.2995 30.2289 66.2239 30.2199 66.1474C30.1908 65.8936 30.1738 65.6418 30.1728 65.3951C30.1728 65.3578 30.1696 65.3216 30.1696 65.2853C30.1738 65.0083 30.1999 64.7364 30.2389 64.4685C30.248 64.4 30.262 64.3316 30.274 64.2641C30.3151 64.0405 30.3672 63.821 30.4323 63.6054C30.4524 63.5359 30.4674 63.4664 30.4915 63.398L30.4985 63.3748C30.5085 63.3466 30.5225 63.3194 30.5326 63.2922C30.5696 63.5833 30.6278 63.8753 30.7119 64.1644C30.7761 64.4031 30.8542 64.6277 30.9464 64.8392C31.3132 65.6841 31.9004 66.3106 32.65 66.7376C33.2111 67.0578 33.8635 67.2663 34.584 67.3711L34.8766 67.4083C35.8446 67.5131 36.7235 67.4285 37.3388 67.2945L38.0873 67.0931L89.2641 53.3117L105.331 48.9851C107.975 49.5188 110.103 51.5069 110.803 54.1365L122.262 97.1133C123.28 100.936 121.031 104.864 117.236 105.891V105.891ZM124.003 96.644L112.546 53.6682C111.699 50.4897 109.196 48.0495 106.047 47.278L103.142 36.3769C101.863 31.584 96.9671 28.7379 92.2052 30.02L92.0579 30.0734L34.8466 56.7812L34.8395 56.7842H34.8385C30.4213 58.8941 28.0774 62.1481 28.3871 66.0286C28.4312 66.5825 28.5304 67.1495 28.6837 67.7276L41.6077 116.205C42.4454 119.346 43.235 121.112 45.0328 122.691C47.5821 124.93 51.4101 125.495 56.7833 124.048L117.704 107.643C122.462 106.355 125.28 101.433 124.003 96.644" fill="#0F2B4A"/>
<path fill-rule="evenodd" clip-rule="evenodd" d="M74.1693 55.5002L104.215 47.409L101.399 36.8463C101.336 36.6107 101.262 36.38 101.178 36.1565C101.151 36.0819 101.115 36.0114 101.083 35.9389C101.023 35.7929 100.964 35.6448 100.895 35.5048C100.854 35.4213 100.805 35.3437 100.761 35.2621C100.694 35.1383 100.628 35.0124 100.555 34.8935C100.501 34.8079 100.442 34.7294 100.385 34.6468C100.312 34.539 100.241 34.4282 100.162 34.3255C100.099 34.2439 100.03 34.1684 99.9641 34.0898C99.8829 33.9942 99.8048 33.8935 99.7186 33.8018C99.6494 33.7263 99.5733 33.6578 99.4981 33.5853C99.4099 33.4987 99.3248 33.408 99.2316 33.3264C99.1544 33.258 99.0702 33.1955 98.9901 33.1301C98.8959 33.0525 98.8027 32.9729 98.7035 32.9014C98.6193 32.84 98.5301 32.7846 98.4429 32.7272C98.3417 32.6597 98.2435 32.5902 98.1403 32.5288C98.0501 32.4754 97.9559 32.4291 97.8637 32.3798C97.7575 32.3223 97.6533 32.2629 97.5431 32.2106C97.4479 32.1662 97.3497 32.128 97.2524 32.0877C97.1422 32.0414 97.032 31.992 96.9198 31.9517C96.8195 31.9155 96.7173 31.8863 96.6151 31.855C96.5009 31.8188 96.3876 31.7815 96.2724 31.7513C96.1672 31.7251 96.062 31.706 95.9557 31.6838C95.8395 31.6587 95.7233 31.6325 95.605 31.6133C95.4978 31.5972 95.3886 31.5882 95.2793 31.5761C95.1611 31.563 95.0418 31.5479 94.9226 31.5408C94.8134 31.5348 94.7021 31.5368 94.5929 31.5348C94.4717 31.5338 94.3504 31.5308 94.2281 31.5358C94.1169 31.5398 94.0057 31.5529 93.8944 31.562C93.7722 31.573 93.6499 31.5821 93.5277 31.5992C93.4154 31.6153 93.3032 31.6395 93.19 31.6607C93.0487 31.6879 92.9064 31.712 92.7651 31.7483L92.741 31.7543L78.8481 38.2392L74.1693 55.5002Z" fill="#0D4F80"/>
<path d="M68.3305 86.6263C67.2772 88.4932 66.128 90.3043 64.8878 92.0522C64.2738 92.9988 63.6879 93.9782 63.0661 94.9303C63.2154 95.2437 63.2944 95.5868 63.2978 95.9356C63.3011 96.2844 63.2287 96.6304 63.0855 96.9494C62.8283 97.5495 62.4178 98.0714 61.896 98.4618C61.4721 99.2771 60.1486 99.4418 59.3278 99.4221C58.3619 99.4106 57.4286 99.0855 56.6668 98.4951C55.9359 97.9124 55.4129 97.1069 55.175 96.1976C55.1204 95.9807 55.0868 95.7588 55.0749 95.535L54.9825 95.5872C54.828 95.6764 54.6709 95.7791 54.5205 95.883C54.1759 97.1774 53.5598 98.3849 52.7138 99.4239C51.8678 100.463 50.8116 101.309 49.6167 101.905C48.3839 102.53 46.8017 102.467 46.2622 100.975C46.1054 100.528 46.1209 100.037 46.3057 99.598C45.7082 99.9304 45.1275 100.293 44.5656 100.683C43.2792 101.589 41.994 102.488 40.7141 103.395C38.8167 104.728 36.4416 106.763 34.0072 105.622C31.8096 104.607 32.0359 101.878 32.3574 99.8732C32.7773 97.3076 33.4881 94.7962 34.4758 92.3884C34.9763 91.1707 35.5476 89.9831 36.1867 88.8319C36.7524 87.8141 37.3882 86.3936 38.3927 85.7407C39.2636 84.5645 40.156 83.4199 41.1415 82.3271C42.5866 80.7195 44.2018 79.2751 45.9577 78.0202C48.8265 75.9132 52.201 74.6206 55.7237 74.2794C59.1929 74.0066 62.6272 75.0371 65.3622 77.1716C68.1383 79.4011 70.1254 83.1338 68.3305 86.6263Z" fill="white"/>
<path d="M69.1115 85.8094C69.1847 85.6963 69.2109 85.5592 69.1845 85.4277C69.0383 84.6106 68.9015 83.816 68.6984 83.0091C68.4967 82.2404 68.2073 81.4985 67.8358 80.7983C67.6866 80.5004 67.327 80.6559 67.2186 80.8993C67.1567 80.7561 67.0868 80.6185 67.0181 80.4741C66.4674 79.333 65.7954 78.2562 65.0137 77.2624C64.6147 76.7606 64.1596 76.3068 63.6572 75.9101C63.1822 75.4762 62.6673 75.0887 62.1191 74.7529C62.048 74.7219 61.9686 74.7147 61.8927 74.7324C61.8167 74.75 61.7482 74.7916 61.6969 74.851C61.6457 74.9104 61.6145 74.9845 61.6078 75.0626C61.6012 75.1407 61.6195 75.2186 61.6601 75.2851C61.9589 75.7353 62.3751 76.1102 62.6923 76.536C63.0095 76.9619 63.2753 77.4407 63.5846 77.8721C64.2512 78.7471 64.8659 79.6613 65.4253 80.61C65.9751 81.5744 66.437 82.5875 66.8054 83.6371C66.9945 84.1503 67.1068 84.6896 67.1386 85.2374L67.0168 85.2634C66.5529 85.2818 66.0435 84.6749 65.7574 84.3379C64.9845 83.535 64.0788 82.8732 63.0802 82.3814C61.1123 81.4021 58.8412 81.216 56.7269 81.8606V81.8606C52.9052 81.7931 49.2649 83.6167 46.3996 86.0962C45.5479 86.834 44.7409 87.6225 43.9829 88.4575C43.5829 88.8966 43.1949 89.3448 42.8283 89.8248C42.4617 90.3047 42.1223 90.8936 41.732 91.39C41.7046 91.4353 41.6939 91.4887 41.7017 91.5409C41.7096 91.593 41.7354 91.6406 41.7747 91.6751C41.8141 91.7097 41.8644 91.7291 41.9168 91.7299C41.9693 91.7307 42.0205 91.7128 42.0615 91.6795C42.1563 91.5792 42.2497 91.4855 42.3499 91.3931C41.8436 91.9928 41.3469 92.6497 40.8914 93.3073C40.4359 93.9649 41.2424 94.599 41.7398 94.0461C43.0252 92.6059 44.2346 91.0962 45.6188 89.7505C46.9757 88.4192 48.511 87.286 50.1791 86.3847C53.2041 84.7595 56.863 84.0969 60.0695 85.5133C61.3175 86.0336 62.4223 86.8456 63.2933 87.8826C62.5199 88.6356 61.8963 89.5301 61.4566 90.5172C61.2172 91.0589 61.0482 91.6288 60.9539 92.2128C60.7938 92.7267 60.6925 93.2568 60.6519 93.7928C60.5543 94.4982 60.6145 95.215 60.8282 95.8909C60.8912 96.6732 60.6906 97.4565 60.2589 98.1148V98.1148C59.4462 98.1122 58.6534 97.8752 57.9745 97.4318C57.2956 96.9883 56.759 96.3571 56.4283 95.6127C56.3889 95.5324 56.3326 95.4617 56.2634 95.4055C56.1942 95.3493 56.1136 95.3088 56.0271 95.287C55.9406 95.2651 55.8503 95.2623 55.7623 95.2787C55.6743 95.2952 55.5907 95.3305 55.5171 95.3822C55.4519 95.4304 55.4065 95.5011 55.3899 95.5806C55.3783 95.6223 55.3702 95.6648 55.3656 95.7078C55.2812 96.6742 55.5407 97.636 56.0977 98.4213C56.0424 98.52 56.0184 98.6331 56.0289 98.7454C56.0394 98.8577 56.0839 98.9636 56.1564 99.049C57.0878 100.288 58.9276 100.406 60.2852 99.8109C60.5112 99.715 60.7286 99.5998 60.9352 99.4664C61.3653 99.4226 61.787 99.3135 62.1859 99.1427C62.2858 99.1033 62.3742 99.0389 62.443 98.9558C62.5117 98.8727 62.5583 98.7735 62.5786 98.6676C62.5988 98.5617 62.592 98.4526 62.5586 98.3506C62.5253 98.2486 62.4666 98.1572 62.3881 98.0848C62.8539 97.4855 63.2387 96.8268 63.532 96.1264C64.2436 94.3447 64.5034 92.4102 65.3692 90.6847C65.7363 89.9569 66.1961 89.2798 66.7368 88.6705C66.8688 88.5909 67.0062 88.5192 67.1423 88.4542C67.2747 88.3947 67.3894 88.3011 67.4748 88.1829C67.5601 88.0647 67.6131 87.9262 67.6283 87.7814C68.0544 87.4083 68.5097 87.0704 68.9896 86.7711C69.0657 86.7196 69.13 86.6524 69.1782 86.5739C69.2264 86.4954 69.2573 86.4075 69.2689 86.3163C69.2805 86.225 69.2724 86.1325 69.2453 86.045C69.2181 85.9575 69.1725 85.8772 69.1115 85.8094V85.8094ZM64.884 86.679C64.2181 85.4616 63.2785 84.4197 62.1395 83.6357C62.9566 83.987 63.7139 84.4634 64.3848 85.0481C64.8208 85.4801 65.3032 85.862 65.8233 86.1869C65.5061 86.3363 65.1864 86.4991 64.884 86.679Z" fill="#F5F5F5"/>
<path d="M70.6652 86.0269C70.6429 85.0343 70.4614 84.0533 70.1279 83.1219C69.7016 81.8636 69.134 80.6596 68.4362 79.5329C67.0664 77.2457 65.1155 75.3704 62.7819 74.0978C57.6079 71.3977 51.1418 72.9765 46.3465 75.9165C41.3053 78.9566 37.6092 83.8036 34.826 88.9437C33.2657 91.7776 32.0034 94.7655 31.06 97.8585C30.3577 100.202 29.5151 103.352 31.1462 105.495C33.0985 108.045 36.7275 107.287 39.2086 105.991C41.5225 104.688 43.6588 103.086 45.5624 101.226C45.6455 101.806 45.8706 102.356 46.2175 102.825C46.5643 103.294 47.0222 103.668 47.5501 103.913C48.14 104.13 48.7772 104.189 49.3995 104.084C50.0218 103.979 50.608 103.714 51.1007 103.314C52.092 102.431 52.9106 101.369 53.5134 100.184C53.9643 99.4428 54.4086 98.7003 54.853 97.9578C55.1467 98.7193 55.6246 99.3936 56.2437 99.9202C56.8627 100.447 57.6035 100.809 58.3996 100.974C59.0355 101.089 59.6894 101.072 60.3207 100.922C60.9521 100.773 61.5476 100.495 62.0703 100.106C62.0703 100.106 64.6904 98.4108 67.0374 95.4798C68.9627 93.0755 70.7042 89.8399 70.6652 86.0269ZM62.5748 96.3889C62.4878 96.8439 62.4021 97.2923 62.3189 97.7273C61.9487 98.3248 61.4163 98.8041 60.7855 99.1079C60.1547 99.4117 59.4521 99.5272 58.7615 99.4407C57.9461 99.2635 57.2259 98.792 56.7365 98.1148C56.2471 97.4377 56.0221 96.6015 56.104 95.7636C56.137 95.573 56.1013 95.3774 56.0034 95.2122C55.9054 95.047 55.7516 94.923 55.5698 94.8627C55.388 94.8024 55.1901 94.8097 55.0119 94.8834C54.8338 94.957 54.687 95.0921 54.5982 95.2643C53.7914 96.5011 53.0177 97.744 52.2441 98.987C51.5964 100.038 50.9729 101.323 49.905 102.02C49.7319 102.16 49.5316 102.263 49.3172 102.32C49.1029 102.378 48.8792 102.39 48.6609 102.355C48.4426 102.32 48.2345 102.239 48.0502 102.117C47.8659 101.995 47.7096 101.836 47.5914 101.648C47.0122 100.724 47.4309 99.5404 48.054 98.7616C48.2044 98.5951 48.2887 98.3789 48.2905 98.1549C48.2923 97.9309 48.2115 97.715 48.0636 97.5489C47.9158 97.3829 47.7115 97.2785 47.4903 97.256C47.269 97.2335 47.0466 97.2944 46.8659 97.4271C44.7519 99.382 42.5352 101.221 40.2256 102.937C39.2118 103.708 38.0932 104.328 36.905 104.777C35.8554 105.224 34.6825 105.269 33.6097 104.903C33.2055 104.715 32.8646 104.414 32.6277 104.035C32.3907 103.656 32.2675 103.215 32.2729 102.766C32.2277 101.657 32.3724 100.547 32.7009 99.4843C33.4754 96.6094 34.5629 93.8266 35.9434 91.1866C38.3462 86.4544 41.4517 81.8934 45.7721 78.7411C49.8181 75.7669 55.2829 73.7818 60.2296 75.2621C62.3439 75.9635 64.2046 77.2693 65.5859 79.0211C67.1357 80.9 68.2718 83.0901 68.9202 85.4487C69.0377 85.8594 69.1044 86.2835 69.1186 86.7116C68.4291 87.0539 67.7704 87.4564 67.15 87.9143C66.2454 86.149 64.931 84.632 63.3173 83.4905C61.7036 82.3491 59.8376 81.6165 57.876 81.3544C55.6577 81.073 53.3994 81.3723 51.3188 82.2235C49.4892 83.027 47.8188 84.1609 46.3911 85.5686C44.7277 87.2557 43.2459 89.1144 41.9705 91.1134C41.9552 91.1317 41.9476 91.1553 41.9495 91.1791C41.9514 91.2028 41.9626 91.2247 41.9807 91.24C41.9987 91.2553 42.0221 91.2626 42.0457 91.2605C42.0693 91.2583 42.0912 91.2469 42.1066 91.2286C43.4265 89.7884 44.7716 88.3599 46.1903 87.0142C47.545 85.6845 49.0909 84.5679 50.7748 83.7028C52.5768 82.8133 54.5772 82.4207 56.5702 82.5654C58.5633 82.7101 60.477 83.3869 62.1145 84.5262C63.7375 85.664 65.0488 87.1941 65.9296 88.9779C64.0605 90.9541 63.1453 93.7644 62.5748 96.3889Z" fill="#0F2B4A"/>
<path d="M57.3856 92.6634C57.4271 92.6466 57.4639 92.6195 57.4924 92.5846C57.5209 92.5496 57.5403 92.508 57.5487 92.4636C57.5571 92.4192 57.5543 92.3735 57.5405 92.3307C57.5267 92.2879 57.5024 92.2495 57.4699 92.2189C57.3329 92.0362 57.1609 91.8834 56.9641 91.7696C56.6723 91.6465 56.3925 91.4967 56.128 91.3219C55.6855 90.9456 55.2917 90.5143 54.9558 90.038C54.9041 89.9617 54.8335 89.9006 54.751 89.8607C54.6685 89.8208 54.577 89.8035 54.4854 89.8105C54.3939 89.8175 54.3055 89.8485 54.229 89.9005C54.1525 89.9525 54.0906 90.0237 54.0492 90.107C53.7532 90.7729 53.3228 91.3696 52.7862 91.8586C52.2495 92.3476 51.6184 92.718 50.9338 92.9457C50.2876 93.1674 49.6153 93.2984 48.9356 93.3353C48.2449 93.3537 47.595 93.1566 46.9132 93.1278C46.5789 93.1147 46.5651 93.5862 46.7995 93.7272C48.038 94.4447 50.0604 94.1085 51.2869 93.548C52.4944 93.021 53.5796 92.2406 54.47 91.2586C55.1283 92.2451 56.3517 93.0783 57.3856 92.6634Z" fill="#F5F5F5"/>
<path d="M63.3248 87.6692C63.0082 87.3457 62.3356 87.6671 62.4252 88.1367C62.5435 88.5092 62.5612 88.908 62.4763 89.2917C62.3914 89.6753 62.2071 90.0301 61.9424 90.3192C61.2502 90.9255 60.4186 91.3447 59.5259 91.5371C59.0628 91.6201 58.5882 91.5978 58.1366 91.4719C57.685 91.3461 57.2677 91.1198 56.9149 90.8094C56.543 90.5604 56.2364 90.2242 56.0208 89.8289C55.8052 89.4337 55.6869 88.9909 55.6759 88.5378C55.6617 88.4071 55.6065 88.2848 55.5183 88.1889C55.4302 88.0929 55.3137 88.0284 55.186 88.0047C55.0583 87.9811 54.9261 87.9995 54.8087 88.0574C54.6914 88.1152 54.5951 88.2095 54.534 88.3262C53.831 89.9357 52.6102 91.2604 51.0723 92.0825C50.3629 92.4528 49.1724 93.0407 48.3913 92.6659C47.3827 92.1863 47.3713 90.7973 47.3883 89.8387C47.3972 89.7916 47.3216 89.7915 47.3152 89.8252C47.1109 90.9024 46.9394 92.1321 47.7269 93.0167C48.5143 93.9014 49.8664 93.6571 50.8953 93.2693C52.4547 92.6829 53.8105 91.6408 54.7894 90.2762C55.0682 90.8521 55.4699 91.3573 55.9657 91.7556C56.4854 92.2172 57.103 92.5521 57.7719 92.7352C58.4408 92.9183 59.1434 92.9448 59.8268 92.8125C61.0865 92.5683 62.2428 91.9321 63.134 90.9931C63.8369 90.0779 64.2226 88.5882 63.3248 87.6692Z" fill="#0F2B4A"/>
<ellipse cx="4.85462" cy="8.28283" rx="4.85462" ry="8.28283" transform="matrix(0.904593 0.426277 -0.426275 0.904593 66.5344 84.6272)" fill="white"/>
</svg>
