<svg width="160" height="160" viewBox="0 0 160 160" fill="none" xmlns="http://www.w3.org/2000/svg">
<path fill-rule="evenodd" clip-rule="evenodd" d="M79.5533 138C117.065 138 147.474 136.436 147.474 134.507C147.474 132.578 117.065 131.014 79.5533 131.014C42.0412 131.014 11.6328 132.578 11.6328 134.507C11.6328 136.436 42.0412 138 79.5533 138" fill="#191919"/>
<path fill-rule="evenodd" clip-rule="evenodd" d="M133.938 89.9149C136.615 89.9159 139.247 89.1714 141.549 87.7633C145.672 85.2394 148.292 80.7943 148.525 75.9591L148.555 75.3493L148.438 75.2964L147.997 75.0978C146.094 74.2366 144.017 73.7875 141.931 73.7875C139.249 73.7875 136.616 74.531 134.32 75.9371C132.057 77.3224 130.272 79.2964 129.065 81.5857V78.5888V63.8086C140.144 63.2757 149 54.1292 149 42.9298C149 31.3891 139.603 22 128.052 22C123.245 22 118.725 23.5818 114.979 26.5758L115.407 27.1107L116.103 27.9779C119.526 25.2425 123.658 23.7964 128.052 23.7964C138.611 23.7964 147.201 32.3791 147.201 42.9298C147.201 53.4805 138.611 62.0641 128.052 62.0641C117.493 62.0641 108.903 53.4805 108.903 42.9298H107.958H107.104C107.104 54.206 116.082 63.4034 127.267 63.8206V80.9071C126.08 78.9131 124.457 77.1816 122.426 75.9381C120.129 74.531 117.496 73.7875 114.814 73.7875C112.725 73.7875 110.649 74.2366 108.747 75.0978L108.192 75.3503L108.221 75.9591C108.453 80.7953 111.072 85.2394 115.197 87.7633C117.496 89.1704 120.128 89.9149 122.808 89.9149C124.322 89.9149 125.826 89.6575 127.267 89.1924V105.794C126.08 103.82 124.441 102.121 122.426 100.888C120.129 99.4806 117.496 98.7371 114.814 98.7371C112.725 98.7371 110.649 99.1862 108.747 100.047L108.192 100.3L108.221 100.909C108.453 105.745 111.072 110.189 115.197 112.713C117.496 114.12 120.128 114.865 122.808 114.865C124.322 114.865 125.826 114.607 127.267 114.142V134.199C127.267 134.695 127.671 135.097 128.167 135.097C128.664 135.097 129.065 134.695 129.065 134.199V113.995C130.632 114.55 132.277 114.865 133.938 114.865C136.615 114.866 139.247 114.121 141.549 112.713C145.672 110.189 148.292 105.744 148.525 100.909L148.555 100.299L147.997 100.047C146.094 99.1862 144.017 98.7371 141.931 98.7371C139.249 98.7371 136.616 99.4806 134.32 100.887C132.057 102.272 130.272 104.246 129.065 106.535V89.0457C130.632 89.6006 132.277 89.9149 133.938 89.9149V89.9149ZM37.495 117.757C35.9448 118.701 34.1739 119.2 32.369 119.2C31.1734 119.2 29.9788 118.982 28.8571 118.559C29.1947 115.56 30.9077 112.846 33.5046 111.261C35.0528 110.318 36.8248 109.819 38.6306 109.819C39.8292 109.819 41.0228 110.038 42.1425 110.46C41.8049 113.46 40.0929 116.174 37.495 117.757ZM22.6494 119.2C20.8455 119.2 19.0735 118.701 17.5234 117.757C14.9264 116.174 13.2134 113.46 12.8758 110.46C13.9955 110.038 15.1891 109.819 16.3877 109.819C18.1936 109.819 19.9655 110.318 21.5137 111.261C24.1106 112.846 25.8226 115.56 26.1612 118.559C25.0396 118.982 23.845 119.2 22.6494 119.2V119.2ZM43.462 109.063C41.9468 108.379 40.2937 108.023 38.6306 108.023C36.4941 108.023 34.3976 108.613 32.5677 109.728C30.1156 111.224 28.3337 113.57 27.5097 116.258C26.6846 113.57 24.9027 111.224 22.4496 109.728C20.6207 108.613 18.5242 108.023 16.3877 108.023C14.7246 108.023 13.0716 108.379 11.5573 109.063L11 109.314L11.03 109.924C11.2147 113.762 13.3013 117.288 16.5865 119.291C18.4183 120.407 20.5139 120.997 22.6494 120.997C23.9179 120.997 25.1824 120.785 26.386 120.381V134.275C26.386 134.77 26.7885 135.173 27.2849 135.173C27.7813 135.173 28.1839 134.77 28.1839 134.275V120.207C29.5213 120.717 30.9406 120.997 32.369 120.997C34.5045 120.997 36.6 120.407 38.4309 119.291C41.717 117.288 43.8026 113.762 43.9884 109.924L44.0183 109.314L43.462 109.063Z" fill="#E8E8E8"/>
<path fill-rule="evenodd" clip-rule="evenodd" d="M21.5139 111.261C19.9657 110.318 18.1937 109.819 16.3879 109.819C15.1893 109.819 13.9957 110.038 12.876 110.46C13.2136 113.46 14.9266 116.175 17.5235 117.757C19.0737 118.701 20.8456 119.2 22.6495 119.2C23.8451 119.2 25.0397 118.981 26.1614 118.559C25.8228 115.56 24.1108 112.845 21.5139 111.261ZM33.5047 111.261C30.9078 112.845 29.1958 115.56 28.8572 118.559C29.9788 118.981 31.1735 119.2 32.3691 119.2C34.1739 119.2 35.9449 118.701 37.495 117.757C40.093 116.175 41.806 113.46 42.1426 110.46C41.0229 110.038 39.8293 109.819 38.6307 109.819C36.8248 109.819 35.0529 110.318 33.5047 111.261Z" fill="#0D4F80"/>
<path fill-rule="evenodd" clip-rule="evenodd" d="M88.572 108.023C86.4356 108.023 84.34 108.613 82.5101 109.728C80.7182 110.821 79.2889 112.37 78.3251 114.173V102.321C79.6036 102.782 80.953 103.033 82.3104 103.033C84.4459 103.033 86.5414 102.443 88.3733 101.327C91.6584 99.3243 93.745 95.7974 93.9298 91.9601L93.9607 91.3494L93.4034 91.0989C91.8882 90.4142 90.2351 90.059 88.572 90.059C86.4356 90.059 84.34 90.6488 82.5101 91.7645C80.058 93.2605 78.2751 95.6058 77.4511 98.2933C76.626 95.6058 74.8441 93.2605 72.392 91.7645C70.5631 90.6488 68.4656 90.059 66.3291 90.059C64.666 90.059 63.013 90.4142 61.4998 91.0989L60.9414 91.3494L60.9714 91.9601C61.1572 95.7974 63.2437 99.3243 66.5289 101.327C68.3607 102.443 70.4553 103.033 72.5908 103.033C73.9312 103.033 75.2646 102.789 76.5272 102.34V114.087C75.5643 112.322 74.1539 110.804 72.392 109.728C70.5631 108.613 68.4656 108.023 66.3291 108.023C64.666 108.023 63.013 108.378 61.4998 109.063L60.9414 109.313L60.9714 109.924C61.1572 113.761 63.2437 117.288 66.5289 119.291C68.3607 120.407 70.4553 120.997 72.5908 120.997C73.9312 120.997 75.2646 120.753 76.5272 120.304V134.275C76.5272 134.77 76.9307 135.173 77.4261 135.173C77.9235 135.173 78.3251 134.77 78.3251 134.275V120.285C79.6036 120.746 80.953 120.997 82.3104 120.997C84.4459 120.997 86.5414 120.407 88.3733 119.291C91.6584 117.288 93.745 113.761 93.9298 109.924L93.9607 109.313L93.4034 109.063C91.8882 108.378 90.2351 108.023 88.572 108.023" fill="#E8E8E8"/>
<path fill-rule="evenodd" clip-rule="evenodd" d="M71.4553 111.261C69.9071 110.318 68.1352 109.819 66.3293 109.819C65.1307 109.819 63.9371 110.038 62.8174 110.46C63.155 113.46 64.868 116.175 67.4649 117.757C69.0151 118.701 70.787 119.2 72.5909 119.2C73.7865 119.2 74.9811 118.981 76.1028 118.559C75.7642 115.56 74.0522 112.845 71.4553 111.261ZM83.4461 111.261C80.8492 112.845 79.1372 115.56 78.7986 118.559C79.9203 118.981 81.1149 119.2 82.3105 119.2C84.1153 119.2 85.8863 118.701 87.4365 117.757C90.0344 116.175 91.7474 113.46 92.084 110.46C90.9643 110.038 89.7707 109.819 88.5721 109.819C86.7662 109.819 84.9943 110.318 83.4461 111.261Z" fill="#0F2B4A"/>
<path fill-rule="evenodd" clip-rule="evenodd" d="M71.4553 93.2974C69.9071 92.3543 68.1352 91.8553 66.3293 91.8553C65.1307 91.8553 63.9371 92.0739 62.8174 92.496C63.155 95.496 64.868 98.2105 67.4649 99.7933C69.0151 100.737 70.787 101.236 72.5909 101.236C73.7865 101.236 74.9811 101.017 76.1028 100.595C75.7642 97.5957 74.0522 94.8812 71.4553 93.2974ZM87.4366 99.7931C90.0345 98.2103 91.7465 95.4958 92.0841 92.4958C90.9644 92.0737 89.7708 91.8551 88.5722 91.8551C86.7663 91.8551 84.9944 92.3541 83.4462 93.2972C80.8493 94.882 79.1363 97.5955 78.7987 100.594C79.9204 101.018 81.115 101.236 82.3106 101.236C84.1154 101.236 85.8864 100.737 87.4366 99.7931Z" fill="#0D4F80"/>
<path fill-rule="evenodd" clip-rule="evenodd" d="M134.319 75.9372C136.616 74.531 139.25 73.7875 141.93 73.7875C144.016 73.7875 146.094 74.2366 147.996 75.0979L148.437 75.2965C148.436 75.2486 148.44 75.2007 148.438 75.1518C148.426 74.6558 148.148 74.2037 147.709 73.9682C145.622 72.8434 143.266 72.2496 140.894 72.2496C138.285 72.2496 135.723 72.9672 133.486 74.3254C131.687 75.4182 130.195 76.8883 129.064 78.5888V81.5858C130.271 79.2964 132.056 77.3224 134.319 75.9372" fill="#6EE3FF"/>
<path fill-rule="evenodd" clip-rule="evenodd" d="M121.486 102.419C119.472 101.185 117.164 100.534 114.814 100.534C113.188 100.534 111.571 100.843 110.062 101.441C110.448 105.443 112.696 109.076 116.136 111.181C118.153 112.416 120.459 113.067 122.808 113.067C124.327 113.067 125.839 112.784 127.267 112.257V110.564C126.51 107.21 124.46 104.239 121.486 102.419V102.419ZM133.937 113.068C136.284 113.069 138.59 112.417 140.61 111.181C144.048 109.076 146.297 105.442 146.684 101.441C145.173 100.843 143.554 100.533 141.931 100.533C139.581 100.533 137.273 101.185 135.258 102.418C131.993 104.418 129.821 107.8 129.277 111.561C129.304 111.778 129.332 111.996 129.349 112.215C130.814 112.772 132.373 113.068 133.937 113.068" fill="#0F2B4A"/>
<path fill-rule="evenodd" clip-rule="evenodd" d="M121.486 77.4688C119.472 76.2353 117.164 75.5836 114.814 75.5836C113.188 75.5836 111.571 75.893 110.062 76.4908C110.448 80.4927 112.696 84.1264 116.136 86.2311C118.153 87.4656 120.459 88.1173 122.808 88.1173C124.327 88.1173 125.839 87.8339 127.267 87.3069V85.6144C126.51 82.2601 124.46 79.2891 121.486 77.4688ZM133.937 88.1177C136.284 88.1187 138.59 87.467 140.61 86.2315C144.048 84.1258 146.297 80.4921 146.684 76.4912C145.173 75.8934 143.554 75.583 141.931 75.583C139.581 75.583 137.273 76.2347 135.258 77.4682C131.993 79.4682 129.821 82.8503 129.277 86.6108C129.304 86.8283 129.332 87.0459 129.349 87.2654C130.814 87.8223 132.373 88.1177 133.937 88.1177" fill="#0D4F80"/>
<path fill-rule="evenodd" clip-rule="evenodd" d="M96.4453 31.266H99.7874V29.4696H96.4453V31.266Z" fill="#0D4F80"/>
<path fill-rule="evenodd" clip-rule="evenodd" d="M101.394 27.8639H103.193V24.5256H101.394V27.8639Z" fill="#0D4F80"/>
<path fill-rule="evenodd" clip-rule="evenodd" d="M104.8 31.266H108.142V29.4696H104.8V31.266Z" fill="#0D4F80"/>
<path fill-rule="evenodd" clip-rule="evenodd" d="M101.395 36.2096H103.193V32.8704H101.395V36.2096Z" fill="#0D4F80"/>
<path fill-rule="evenodd" clip-rule="evenodd" d="M35.3359 80.1504L37.6372 80.1604L37.6452 78.363L35.3439 78.354L35.3359 80.1504Z" fill="#EC0000"/>
<path fill-rule="evenodd" clip-rule="evenodd" d="M38.4746 77.6238L40.2725 77.6298L40.2815 75.4402L38.4836 75.4332L38.4746 77.6238Z" fill="#EC0000"/>
<path fill-rule="evenodd" clip-rule="evenodd" d="M41.0969 78.3784L41.0889 80.1748L43.3902 80.1848L43.3972 78.3884L41.0969 78.3784Z" fill="#EC0000"/>
<path fill-rule="evenodd" clip-rule="evenodd" d="M38.4521 83.0975L40.25 83.1055L40.259 80.9149L38.4611 80.908L38.4521 83.0975Z" fill="#EC0000"/>
<path fill-rule="evenodd" clip-rule="evenodd" d="M128.034 57.9359C136.338 57.9359 143.071 51.2095 143.071 42.9113C143.071 34.614 136.338 27.8876 128.034 27.8876C119.73 27.8876 112.997 34.614 112.997 42.9113C112.997 51.2095 119.73 57.9359 128.034 57.9359Z" fill="#FDD463"/>
<path fill-rule="evenodd" clip-rule="evenodd" d="M129.001 41.508L128.057 41.1338C126.857 40.6228 126.129 40.053 126.129 38.9712C126.129 37.9892 126.777 37.2027 128.411 37.2027C129.257 37.2027 130.379 37.3594 131.245 37.7337C131.421 37.1429 131.519 36.6718 131.579 35.8654C130.752 35.5311 129.847 35.3545 128.922 35.3145V33.2118C128.392 33.2118 127.663 33.3485 127.21 33.5451V35.3934C125.066 35.7676 123.904 37.1628 123.904 39.07C123.904 41.016 125.086 42.2555 126.876 43.002L127.762 43.3763C129.415 44.0839 130.044 44.6537 130.044 45.6756C130.044 46.8752 129.297 47.6217 127.565 47.6217C126.68 47.6217 125.263 47.3672 124.358 46.8363C124.181 47.465 124.121 47.9371 124.102 48.7434C124.79 49.2145 126.069 49.471 127.21 49.5299V51.8492H128.922V49.4111C131.265 48.979 132.269 47.4061 132.269 45.5978C132.269 43.6906 131.107 42.3923 129.001 41.508" fill="#0D0D0D"/>
</svg>
