<svg width="160" height="160" viewBox="0 0 160 160" fill="none" xmlns="http://www.w3.org/2000/svg">
<path fill-rule="evenodd" clip-rule="evenodd" d="M55.2235 43.8025H58.5291V41.9899H55.2235V43.8025Z" fill="#0F2B4A"/>
<path fill-rule="evenodd" clip-rule="evenodd" d="M60.1176 40.3685H61.8959V37H60.1176V40.3685Z" fill="#0F2B4A"/>
<path fill-rule="evenodd" clip-rule="evenodd" d="M63.4852 43.8025H66.7908V41.9899H63.4852V43.8025Z" fill="#0F2B4A"/>
<path fill-rule="evenodd" clip-rule="evenodd" d="M60.118 48.791H61.8963V45.4215H60.118V48.791Z" fill="#0F2B4A"/>
<path fill-rule="evenodd" clip-rule="evenodd" d="M83.771 108.915C77.1351 108.915 66.9339 115.446 59.0068 123H118.999C111.253 114.526 93.7835 108.915 83.771 108.915ZM102.884 67.0556C110.265 62.4475 114.914 54.342 115.329 45.5719C111.936 44.0029 108.231 43.1832 104.504 43.1832C99.7235 43.1832 95.0289 44.5346 90.929 47.0985C83.5513 51.7066 78.8992 59.8121 78.4842 68.5823C81.8758 70.1472 85.5814 70.9709 89.3098 70.9709C94.0904 70.9709 98.782 69.6185 102.884 67.0556ZM64.7072 51.5019L77.5502 68.6212C78.5381 58.5511 69.6468 49.4134 64.7072 51.5019Z" fill="#E5E5E5"/>
<path fill-rule="evenodd" clip-rule="evenodd" d="M92.0803 50.5071C96.0379 48.0328 100.571 46.7257 105.19 46.7257C108.583 46.7257 111.964 47.4296 115.091 48.7841C114.504 57.0457 110.037 64.5923 103.106 68.9194C99.1459 71.3947 94.6143 72.7008 89.9968 72.7008C86.6063 72.7008 83.2266 71.9959 80.0959 70.6424C80.6827 62.3819 85.1511 54.8352 92.0803 50.5071V50.5071ZM89.9968 74.5134C94.9433 74.5134 99.796 73.1147 104.036 70.4652C111.642 65.7161 116.473 57.3518 116.904 48.2514L116.932 47.6361L116.383 47.3823C112.871 45.759 109.041 44.9131 105.19 44.9131C100.243 44.9131 95.3879 46.3128 91.1517 48.9613C84.9505 52.8353 80.5948 59.1111 78.9637 66.2287C77.7466 60.9207 75.014 56.0477 71.0752 52.2955C70.7166 51.9542 70.1545 51.9733 69.8196 52.3388C69.4837 52.7044 69.5024 53.2774 69.862 53.6198C74.5122 58.0517 77.3752 64.1562 77.8355 70.6434C74.7058 71.9959 71.3242 72.7018 67.9356 72.7018C63.32 72.7018 58.7865 71.3937 54.8259 68.9204C47.8957 64.5933 43.4283 57.0446 42.8415 48.7821C44.8865 47.8989 47.0431 47.2897 49.2462 46.9755C49.7322 46.906 50.0711 46.4478 50.0029 45.9523C49.9357 45.4569 49.4862 45.1115 49.0002 45.1799C46.4276 45.5475 43.9134 46.2897 41.5503 47.3803L41 47.6341L41.0286 48.2493C41.4594 57.3508 46.2903 65.7171 53.8973 70.4662C58.1364 73.1137 62.9911 74.5134 67.9356 74.5134C71.4417 74.5134 74.935 73.7974 78.1872 72.443V108.388C63.7705 108.723 50.6935 113.324 42.9077 120.681C42.5471 121.021 42.5263 121.595 42.8603 121.962C43.1942 122.329 43.7563 122.35 44.1159 122.009C51.8493 114.705 65.2119 110.168 79.8726 110.168C93.5612 110.168 106.146 114.118 114.083 120.649C114.466 120.963 115.026 120.902 115.334 120.513C115.642 120.123 115.582 119.552 115.2 119.238C106.944 112.445 94.0018 108.374 79.9655 108.356V72.5356C83.1564 73.8307 86.5687 74.5134 89.9968 74.5134" fill="#0F2B4A"/>
</svg>
