<svg width="160" height="160" viewBox="0 0 160 160" fill="none" xmlns="http://www.w3.org/2000/svg">
<path fill-rule="evenodd" clip-rule="evenodd" d="M73.9675 129.436C117.27 136.261 139.569 127.488 140.869 103.116C142.817 66.5609 116.975 70.4353 105.829 60.9049C94.6833 51.3735 101.067 60.6596 86.4342 40.0022C76.6778 26.2299 60.5025 25.3562 37.9084 37.38C20.8717 49.8176 18.1515 67.1034 29.7469 89.2396C41.3411 111.375 56.0814 124.774 73.9675 129.436" fill="#191919"/>
<path d="M111.773 82.3784H103.062V57.0962C103.062 51.507 100.885 46.253 96.9321 42.3006C92.9797 38.3481 87.7256 36.1708 82.1365 36.1708C76.5473 36.1708 71.2932 38.3481 67.3408 42.3006C63.3883 46.253 61.211 51.507 61.211 57.0962V82.3784H52.4997V57.0962C52.4997 53.0962 53.2846 49.2152 54.8305 45.5589C56.3224 42.0303 58.4608 38.8606 61.1808 36.1406C63.9008 33.4206 67.0705 31.2843 70.5991 29.7903C74.2554 28.2443 78.1365 27.4595 82.1365 27.4595C86.1365 27.4595 90.0175 28.2443 93.6737 29.7903C97.2024 31.2822 100.372 33.4206 103.092 36.1406C105.812 38.8606 107.948 42.0303 109.442 45.5589C110.988 49.2152 111.773 53.0962 111.773 57.0962V82.3784V82.3784Z" fill="#5C5C5C"/>
<path fill-rule="evenodd" clip-rule="evenodd" d="M43.8757 32.4575C44.0166 33.4736 44.9505 34.1827 45.9642 34.0422C46.976 33.9019 47.6818 32.9654 47.5409 31.9494L46.0046 20.8679C45.8637 19.8519 44.9296 19.1408 43.9177 19.2811C42.904 19.4217 42.1985 20.36 42.3394 21.3761L43.8757 32.4575ZM35.6 47.9422C36.6119 47.8019 37.3174 46.8635 37.1765 45.8475C37.0357 44.8315 36.1018 44.1223 35.0899 44.2626L24.0924 45.7873C23.0787 45.9278 22.3729 46.8643 22.5138 47.8803C22.6546 48.8964 23.5888 49.6074 24.6025 49.4669L35.6 47.9422ZM37.3506 39.2532C38.1667 39.8727 39.3266 39.7138 39.9394 38.8943C40.5543 38.0764 40.3907 36.9102 39.5728 36.291L28.4387 28.0887C27.6226 27.4692 26.4631 27.63 25.85 28.4476C25.2351 29.2655 25.4005 30.4315 26.2168 31.0528L37.3506 39.2532Z" fill="#A6A6A6"/>
<path fill-rule="evenodd" clip-rule="evenodd" d="M30.0543 83.0471V84.9533H27.4406V87.5678H25.5341V84.9533H22.9191V83.0471H25.5341V80.4326H27.4406V83.0471H30.0543Z" fill="#A6A6A6"/>
<path fill-rule="evenodd" clip-rule="evenodd" d="M27.2435 142.27C24.854 142.27 22.9191 140.286 22.9191 137.838C22.9191 135.39 24.854 133.406 27.2435 133.406C29.6317 133.406 31.5678 135.39 31.5678 137.838C31.5678 140.286 29.6317 142.27 27.2435 142.27ZM27.2435 139.738C28.2665 139.738 29.0967 138.888 29.0967 137.838C29.0967 136.788 28.2665 135.938 27.2435 135.938C26.2204 135.938 25.3902 136.788 25.3902 137.838C25.3902 138.888 26.2204 139.738 27.2435 139.738Z" fill="#5C5C5C"/>
<path fill-rule="evenodd" clip-rule="evenodd" d="M138.593 41.4885L137.227 42.8096L135.352 40.9973L133.476 42.8108L132.108 41.4885L133.983 39.6763L132.108 37.8628L133.476 36.5418L135.351 38.354L137.227 36.5405L138.595 37.8628L136.719 39.6763L138.593 41.4885Z" fill="#A6A6A6"/>
<path d="M117.036 133.76H47.2369C43.9569 133.76 41.2975 131.101 41.2975 127.821V77.1677C41.2975 73.8877 43.9569 71.2283 47.2369 71.2283H117.036C120.316 71.2283 122.975 73.8877 122.975 77.1677V127.821C122.975 131.101 120.316 133.76 117.036 133.76Z" fill="white"/>
<path d="M42.5948 79.3515C42.5948 75.5303 45.6925 72.4326 49.5137 72.4326V72.4326V132.757V132.757C45.6925 132.757 42.5948 129.659 42.5948 125.838V79.3515Z" fill="#A6A6A6"/>
<path d="M121.946 101.946L108.541 119.676L97.9462 132.973V132.973C111.201 132.973 121.946 122.228 121.946 108.973V101.946Z" fill="#F5F5F5"/>
<path fill-rule="evenodd" clip-rule="evenodd" d="M47.2369 131.937H117.036C119.361 131.937 121.246 130.052 121.246 127.728V77.0747C121.246 74.75 119.361 72.865 117.036 72.865H47.2369C44.9122 72.865 43.0272 74.75 43.0272 77.0747V127.728C43.0272 130.052 44.9122 131.937 47.2369 131.937ZM47.2369 133.667H117.036C120.316 133.667 122.975 131.008 122.975 127.728V77.0747C122.975 73.7947 120.316 71.1353 117.036 71.1353H47.2369C43.9569 71.1353 41.2975 73.7947 41.2975 77.0747V127.728C41.2975 131.008 43.9569 133.667 47.2369 133.667Z" fill="#5C5C5C"/>
<rect x="41.2975" y="101.622" width="1.72973" height="15.3514" fill="#7F7F7F"/>
<path fill-rule="evenodd" clip-rule="evenodd" d="M43.0272 111.009V106.072C43.0272 105.525 42.6402 105.081 42.1628 105.081C42.0159 105.081 41.8862 105.133 41.7652 105.206C41.4905 105.372 41.2975 105.691 41.2975 106.072V111.009C41.2975 111.389 41.4905 111.708 41.7652 111.875C41.8862 111.948 42.0159 112 42.1628 112C42.6402 112 43.0272 111.557 43.0272 111.009Z" fill="#5C5C5C"/>
<path fill-rule="evenodd" clip-rule="evenodd" d="M43.0272 101.496V96.5586C43.0272 96.0113 42.6402 95.5676 42.1628 95.5676C42.0159 95.5676 41.8862 95.6194 41.7652 95.692C41.4905 95.8583 41.2975 96.1776 41.2975 96.5586V101.496C41.2975 101.875 41.4905 102.195 41.7652 102.361C41.8862 102.435 42.0159 102.487 42.1628 102.487C42.6402 102.487 43.0272 102.043 43.0272 101.496Z" fill="#5C5C5C"/>
<path fill-rule="evenodd" clip-rule="evenodd" d="M43.0272 120.523V115.586C43.0272 115.038 42.6402 114.595 42.1628 114.595C42.0159 114.595 41.8862 114.646 41.7652 114.719C41.4905 114.885 41.2975 115.205 41.2975 115.586V120.523C41.2975 120.903 41.4905 121.222 41.7652 121.388C41.8862 121.462 42.0159 121.514 42.1628 121.514C42.6402 121.514 43.0272 121.07 43.0272 120.523Z" fill="#5C5C5C"/>
<path d="M81.9726 103.947C85.3157 103.892 87.9814 101.138 87.9265 97.7946C87.8717 94.4515 85.1171 91.7858 81.774 91.8407C78.4309 91.8955 75.7652 94.6501 75.82 97.9932C75.8749 101.336 78.6295 104.002 81.9726 103.947Z" fill="#A6A6A6"/>
<rect x="79.3516" y="100.108" width="5.18919" height="9.72973" fill="#A6A6A6"/>
</svg>
