<svg width="160" height="160" viewBox="0 0 160 160" fill="none" xmlns="http://www.w3.org/2000/svg">
<path fill-rule="evenodd" clip-rule="evenodd" d="M124.841 33L99.0383 52.9399H86.1618L59.9234 77.0179H45.5784L27.089 94.7749L28.3435 96.0754L46.3092 78.8228H60.6281L86.8675 54.7448H99.6575L125.949 34.4269L124.841 33Z" fill="#0F2B4A"/>
<path fill-rule="evenodd" clip-rule="evenodd" d="M101.109 125.569H111.161V59.3901H101.109V125.569Z" fill="#E7E7E7"/>
<path fill-rule="evenodd" clip-rule="evenodd" d="M70.9534 125.569H81.0053V80.447H70.9534V125.569Z" fill="#E7E7E7"/>
<path fill-rule="evenodd" clip-rule="evenodd" d="M41.803 125.569H51.8549V98.4958H41.803V125.569Z" fill="#E7E7E7"/>
<path fill-rule="evenodd" clip-rule="evenodd" d="M99.5879 58.9049V125.195H89.8195V78.3926H70.2837V125.195H60.5163V97.8802H40.9804V125.195H27.0003V127H133V125.195H119.124V58.9049H99.5879ZM101.396 125.195H117.314V60.7098H101.396V125.195ZM72.093 125.196H88.0101V80.1984H72.093V125.196ZM42.7888 125.195H58.7059V99.6851H42.7888V125.195Z" fill="#0F2B4A"/>
</svg>
