<svg width="160" height="160" viewBox="0 0 160 160" fill="none" xmlns="http://www.w3.org/2000/svg">
<path fill-rule="evenodd" clip-rule="evenodd" d="M84.3312 129.296C123.672 123.466 129.709 114.733 135.411 105.12C146.454 86.5036 136.864 53.0889 114.179 53.2644C92.0534 57.8854 96.5959 20.2569 54.0679 32.441C27.4217 40.0754 15.5344 61.7703 21.5172 82.6167C27.5 103.463 44.9908 135.125 84.3312 129.296Z" fill="#E5E5E5"/>
<path fill-rule="evenodd" clip-rule="evenodd" d="M106.33 40.1874H106.354C106.494 40.1894 106.631 40.2024 106.768 40.2124C106.878 40.2215 106.987 40.2275 107.095 40.2405C107.212 40.2546 107.325 40.2766 107.44 40.2967C107.546 40.3157 107.652 40.3318 107.758 40.3558C107.87 40.3809 107.98 40.414 108.09 40.4451C108.191 40.4742 108.296 40.5003 108.397 40.5333C108.504 40.5694 108.609 40.6126 108.715 40.6537C108.814 40.6918 108.912 40.7279 109.008 40.77C109.112 40.8161 109.213 40.8703 109.315 40.9214C109.407 40.9686 109.5 41.0127 109.589 41.0628C109.69 41.12 109.784 41.1832 109.881 41.2443C109.967 41.2985 110.055 41.3506 110.138 41.4088C110.233 41.474 110.321 41.5462 110.41 41.6164C110.491 41.6786 110.574 41.7377 110.651 41.8039C110.739 41.8781 110.82 41.9583 110.903 42.0376C110.976 42.1068 111.053 42.1719 111.122 42.2451C111.202 42.3274 111.278 42.4156 111.354 42.5029C111.419 42.5781 111.489 42.6503 111.552 42.7285C111.624 42.8188 111.69 42.915 111.758 43.0083C111.818 43.0905 111.879 43.1687 111.934 43.252C111.998 43.3492 112.055 43.4525 112.115 43.5528C112.165 43.6391 112.22 43.7233 112.267 43.8125C112.323 43.9168 112.37 44.0261 112.42 44.1334C112.462 44.2237 112.508 44.3119 112.546 44.4052C112.594 44.5195 112.633 44.6399 112.675 44.7582C112.707 44.8474 112.742 44.9347 112.77 45.0259C112.809 45.1553 112.837 45.2877 112.87 45.4201C112.89 45.5053 112.916 45.5885 112.934 45.6748C112.963 45.8232 112.982 45.9746 113.001 46.127C113.011 46.2002 113.027 46.2714 113.035 46.3466C113.057 46.5733 113.069 46.8039 113.069 47.0376L113.068 57.4438L46.0798 57.4448C46.0256 57.4408 45.8199 57.4177 45.5459 57.3645C45.0872 57.2773 44.6295 57.1379 44.211 56.9414C43.0969 56.4169 42.4771 55.6086 42.4771 54.3501C42.4616 53.5208 42.7677 51.8762 44.6466 51.2664C44.7319 51.2394 44.8313 51.2073 45.018 51.1471C45.5017 50.9917 45.7928 50.8924 46.0889 50.7761C46.2856 50.7319 46.4823 50.6868 46.688 50.6487C55.9317 49.0272 55.9317 49.0272 61.8192 47.9943L106.33 40.1874Z" fill="#0F2B4A"/>
<path fill-rule="evenodd" clip-rule="evenodd" d="M113.207 59.25L46.0313 59.249H48.1901C45.9179 60.322 44.3421 62.6265 44.3421 65.304V108.977C44.3421 111.516 45.7533 113.723 47.8348 114.86C46.1969 114.699 44.852 114.35 43.752 113.841C45.3177 114.572 47.3852 114.977 50.0911 114.977H79.7271L111.798 59.25H113.207Z" fill="white"/>
<path fill-rule="evenodd" clip-rule="evenodd" d="M44.3418 108.977V65.3039C44.3418 62.6264 45.9175 60.3219 48.1898 59.2489H46.0319C45.3625 59.2128 44.412 59.0303 43.4425 58.574C41.7413 57.7738 40.6704 56.3779 40.6714 54.3662C40.6694 54.2559 40.6714 54.1496 40.6764 54.0463C40.6292 54.1205 40.5851 54.1988 40.5399 54.275C40.4395 54.4475 40.3482 54.6249 40.2649 54.8085C40.2428 54.8586 40.2177 54.9077 40.1957 54.9579C40.1003 55.1885 40.019 55.4272 39.9518 55.6729C39.9357 55.73 39.9257 55.7902 39.9116 55.8484C39.8624 56.0479 39.8233 56.2535 39.7932 56.4631C39.7821 56.5383 39.7711 56.6125 39.7631 56.6877C39.733 56.9565 39.7129 57.2303 39.7129 57.5151V105.689C39.7129 108.476 39.9658 110.042 40.9875 111.573C41.1531 111.82 41.3428 112.053 41.5466 112.276C41.6269 112.363 41.7172 112.444 41.8035 112.527C41.933 112.652 42.0625 112.775 42.205 112.89C42.3294 112.993 42.4629 113.09 42.5994 113.184C42.7128 113.264 42.8313 113.342 42.9537 113.417C43.1263 113.522 43.303 113.625 43.4907 113.721C43.575 113.763 43.6653 113.802 43.7516 113.842C44.8516 114.349 46.1975 114.698 47.8345 114.86C45.7529 113.723 44.3418 111.515 44.3418 108.977Z" fill="#C6EDF6"/>
<path fill-rule="evenodd" clip-rule="evenodd" d="M113.589 59.2221L113.524 59.1931C113.425 59.2302 113.318 59.2502 113.207 59.2502H111.798L79.7266 114.977H110.718C114.474 114.973 117.52 111.908 117.52 108.126V65.4175C117.52 62.7591 115.986 60.3423 113.589 59.2221Z" fill="#F5F5F5"/>
<path fill-rule="evenodd" clip-rule="evenodd" d="M117.521 108.126C117.521 111.907 114.474 114.973 110.718 114.978H50.0907C45.2892 114.978 42.4378 113.742 40.9875 111.573C39.9658 110.042 39.7128 108.476 39.7128 105.689V57.5149C39.7128 57.2311 39.7329 56.9574 39.762 56.6876C39.7711 56.6124 39.7821 56.5382 39.7931 56.463C39.8232 56.2534 39.8624 56.0478 39.9116 55.8483C39.9246 55.7901 39.9357 55.7299 39.9517 55.6728C40.019 55.4271 40.1003 55.1884 40.1956 54.9578C40.2177 54.9076 40.2428 54.8585 40.2649 54.8094C40.3472 54.6248 40.4395 54.4473 40.5399 54.2749C40.585 54.1986 40.6292 54.1204 40.6764 54.0462C40.6713 54.1495 40.6693 54.2558 40.6713 54.3671C40.6703 56.3778 41.7412 57.7747 43.4414 58.5739C44.412 59.0302 45.3614 59.2127 46.0309 59.2488L113.207 59.2498H113.589C115.986 60.3699 117.521 62.7586 117.521 65.4181V108.126ZM114.875 57.8529V47.0376C114.875 42.2572 111.018 38.3813 106.257 38.3813L106.101 38.3943L46.3671 48.8727C46.3651 48.8727 46.3631 48.8737 46.3611 48.8737H46.3601C41.39 49.7913 38.3087 52.528 37.9434 56.6686C37.9183 56.9443 37.9062 57.2271 37.9062 57.5149V105.689C37.9062 108.816 38.2023 110.655 39.486 112.575C41.3056 115.298 44.7311 116.783 50.0907 116.783H110.719C115.476 116.777 119.327 112.902 119.327 108.126V65.4181C119.327 62.2552 117.608 59.3631 114.875 57.8529Z" fill="#0F2B4A"/>
<path fill-rule="evenodd" clip-rule="evenodd" d="M113.001 46.1268C112.981 45.9754 112.963 45.8229 112.934 45.6745C112.916 45.5883 112.891 45.505 112.87 45.4198C112.838 45.2874 112.81 45.1551 112.771 45.0257C112.742 44.9354 112.706 44.8472 112.675 44.758C112.633 44.6396 112.595 44.5193 112.547 44.405C112.509 44.3117 112.462 44.2235 112.42 44.1332C112.369 44.0259 112.323 43.9166 112.268 43.8123C112.221 43.723 112.165 43.6398 112.114 43.5526C112.056 43.4523 111.999 43.349 111.935 43.2517C111.879 43.1685 111.817 43.0903 111.759 43.009C111.69 42.9148 111.624 42.8185 111.552 42.7283C111.489 42.65 111.42 42.5778 111.353 42.5026C111.277 42.4154 111.203 42.3271 111.123 42.2449C111.053 42.1727 110.976 42.1065 110.903 42.0373C110.819 41.9581 110.738 41.8779 110.651 41.8037C110.574 41.7385 110.491 41.6783 110.411 41.6161C110.321 41.5459 110.232 41.4737 110.138 41.4086C110.055 41.3504 109.967 41.2982 109.882 41.2441C109.785 41.1829 109.689 41.1197 109.59 41.0626C109.501 41.0124 109.407 40.9683 109.315 40.9222C109.214 40.87 109.112 40.8169 109.008 40.7698C108.913 40.7276 108.813 40.6926 108.715 40.6534C108.609 40.6123 108.505 40.5692 108.397 40.5331C108.296 40.5 108.192 40.4739 108.09 40.4449C107.979 40.4138 107.871 40.3817 107.757 40.3556C107.653 40.3315 107.546 40.3155 107.44 40.2974C107.326 40.2764 107.211 40.2553 107.095 40.2403C106.988 40.2272 106.877 40.2212 106.769 40.2132C106.63 40.2022 106.495 40.1891 106.354 40.1871H106.33L83.818 44.1362L75.9082 57.4445H113.068L113.069 47.0373C113.069 46.8037 113.058 46.573 113.035 46.3464C113.027 46.2722 113.011 46.2 113.001 46.1268Z" fill="#0D4F80"/>
<mask id="mask0_2089_38158" style="mask-type:alpha" maskUnits="userSpaceOnUse" x="42" y="31" width="72" height="27">
<path d="M48.8559 38.7351L44.6466 51.2672C42.7667 51.8759 42.4616 53.5215 42.4771 54.3499C42.4771 55.6094 43.0969 56.4167 44.212 56.9411C44.6295 57.1377 45.0882 57.2771 45.5469 57.3653C45.8199 57.4175 46.0256 57.4415 46.0798 57.4445H113.068L113.069 47.0374C113.069 46.8037 113.057 46.5741 113.034 46.3464C113.026 46.2712 113.011 46.2 113.001 46.1268C112.981 45.9754 112.963 45.823 112.934 45.6745C112.917 45.5883 112.89 45.5051 112.87 45.4188C112.837 45.2875 112.809 45.1551 112.77 45.0257C112.742 44.9345 112.707 44.8472 112.675 44.758C112.633 44.6396 112.594 44.5193 112.547 44.405C112.508 44.3117 112.462 44.2235 112.42 44.1332C112.369 44.0259 112.322 43.9166 112.266 43.8123C112.22 43.7231 112.166 43.6398 112.114 43.5526C112.055 43.4523 111.998 43.35 111.934 43.2527C111.879 43.1685 111.817 43.0903 111.758 43.0091C111.689 42.9148 111.625 42.8195 111.552 42.7293C111.489 42.6501 111.419 42.5779 111.354 42.5026C111.278 42.4154 111.202 42.3271 111.122 42.2449C111.053 42.1717 110.975 42.1065 110.903 42.0373C110.82 41.9581 110.739 41.8779 110.65 41.8037C110.573 41.7375 110.491 41.6793 110.41 41.6172C110.32 41.546 110.233 41.4748 110.138 41.4086C110.054 41.3494 109.967 41.2983 109.881 41.2441C109.784 41.1829 109.69 41.1198 109.589 41.0626C109.5 41.0125 109.407 40.9683 109.314 40.9222C109.213 40.8701 109.113 40.8159 109.008 40.7708C108.912 40.7277 108.814 40.6916 108.715 40.6535C108.609 40.6123 108.504 40.5692 108.396 40.5341C108.296 40.5 108.192 40.474 108.09 40.4449C107.979 40.4138 107.87 40.3817 107.758 40.3556C107.652 40.3316 107.546 40.3155 107.44 40.2965C107.326 40.2764 107.212 40.2553 107.095 40.2403C106.987 40.2273 106.878 40.2212 106.768 40.2122C106.63 40.2022 106.494 40.1892 106.354 40.1871H106.33L96.028 31.7154C90.1405 32.7473 58.1007 37.1135 48.8559 38.7351Z" fill="white"/>
</mask>
<g mask="url(#mask0_2089_38158)">
<path fill-rule="evenodd" clip-rule="evenodd" d="M102.628 49.9745L53.6631 73.6519L59.8276 86.3796C61.057 88.9177 64.1242 89.9837 66.6645 88.7553L106.414 69.5334C108.957 68.3049 110.022 65.2403 108.793 62.7022L102.628 49.9745Z" fill="white"/>
</g>
<mask id="mask1_2089_38158" style="mask-type:alpha" maskUnits="userSpaceOnUse" x="42" y="31" width="72" height="27">
<path d="M48.8559 38.7351L44.6466 51.2672C42.7667 51.8759 42.4616 53.5215 42.4771 54.3499C42.4771 55.6094 43.0969 56.4167 44.212 56.9411C44.6295 57.1377 45.0882 57.2771 45.5469 57.3653C45.8199 57.4175 46.0256 57.4415 46.0798 57.4445H113.068L113.069 47.0374C113.069 46.8037 113.057 46.5741 113.034 46.3464C113.026 46.2712 113.011 46.2 113.001 46.1268C112.981 45.9754 112.963 45.823 112.934 45.6745C112.917 45.5883 112.89 45.5051 112.87 45.4188C112.837 45.2875 112.809 45.1551 112.77 45.0257C112.742 44.9345 112.707 44.8472 112.675 44.758C112.633 44.6396 112.594 44.5193 112.547 44.405C112.508 44.3117 112.462 44.2235 112.42 44.1332C112.369 44.0259 112.322 43.9166 112.266 43.8123C112.22 43.7231 112.166 43.6398 112.114 43.5526C112.055 43.4523 111.998 43.35 111.934 43.2527C111.879 43.1685 111.817 43.0903 111.758 43.0091C111.689 42.9148 111.625 42.8195 111.552 42.7293C111.489 42.6501 111.419 42.5779 111.354 42.5026C111.278 42.4154 111.202 42.3271 111.122 42.2449C111.053 42.1717 110.975 42.1065 110.903 42.0373C110.82 41.9581 110.739 41.8779 110.65 41.8037C110.573 41.7375 110.491 41.6793 110.41 41.6172C110.32 41.546 110.233 41.4748 110.138 41.4086C110.054 41.3494 109.967 41.2983 109.881 41.2441C109.784 41.1829 109.69 41.1198 109.589 41.0626C109.5 41.0125 109.407 40.9683 109.314 40.9222C109.213 40.8701 109.113 40.8159 109.008 40.7708C108.912 40.7277 108.814 40.6916 108.715 40.6535C108.609 40.6123 108.504 40.5692 108.396 40.5341C108.296 40.5 108.192 40.474 108.09 40.4449C107.979 40.4138 107.87 40.3817 107.758 40.3556C107.652 40.3316 107.546 40.3155 107.44 40.2965C107.326 40.2764 107.212 40.2553 107.095 40.2403C106.987 40.2273 106.878 40.2212 106.768 40.2122C106.63 40.2022 106.494 40.1892 106.354 40.1871H106.33L96.028 31.7154C90.1405 32.7473 58.1007 37.1135 48.8559 38.7351Z" fill="white"/>
</mask>
<g mask="url(#mask1_2089_38158)">
<path fill-rule="evenodd" clip-rule="evenodd" d="M106.415 69.5338L66.6653 88.7547C64.1241 89.9842 61.0579 88.9182 59.8284 86.379L53.6629 73.6524L102.628 49.975L108.793 62.7027C110.022 65.2408 108.957 68.3054 106.415 69.5338ZM48.8564 65.8114L78.6571 50.7692L78.5828 52.6896L99.1297 42.7537L101.841 48.3504L78.3088 59.7293L78.2676 60.7973L52.871 72.8311L48.8564 65.8114ZM50.8376 56.0791L79.1047 42.4108L90.5876 36.8582C93.1288 35.6287 96.195 36.6947 97.4245 39.2338L98.3428 41.1292L78.6189 50.6669L49.3783 64.8066L48.4599 62.9102C47.2305 60.3721 48.2964 57.3075 50.8376 56.0791ZM110.419 61.9154L104.254 49.1878L99.9698 40.342L99.0514 38.4466C97.3884 35.012 93.2382 33.571 89.8007 35.2326L50.0507 54.4545C46.6132 56.1172 45.17 60.2628 46.834 63.6974L47.7514 65.5928L48.2231 66.5655L52.036 74.4386L58.2015 87.1663C59.8645 90.6009 64.0147 92.0419 67.4522 90.3803L107.202 71.1584C110.64 69.4957 112.083 65.3501 110.419 61.9154Z" fill="#0F2B4A"/>
<path fill-rule="evenodd" clip-rule="evenodd" d="M78.3088 59.729L78.4072 57.2169L78.5818 52.6892L78.6571 50.7689L48.8564 65.811L52.8711 72.8307L78.2677 60.797L78.3088 59.729Z" fill="#0F2B4A"/>
</g>
<mask id="mask2_2089_38158" style="mask-type:alpha" maskUnits="userSpaceOnUse" x="42" y="31" width="72" height="27">
<path d="M48.8559 38.7351L44.6466 51.2672C42.7667 51.8759 42.4616 53.5215 42.4771 54.3499C42.4771 55.6094 43.0969 56.4167 44.212 56.9411C44.6295 57.1377 45.0882 57.2771 45.5469 57.3653C45.8199 57.4175 46.0256 57.4415 46.0798 57.4445H113.068L113.069 47.0374C113.069 46.8037 113.057 46.5741 113.034 46.3464C113.026 46.2712 113.011 46.2 113.001 46.1268C112.981 45.9754 112.963 45.823 112.934 45.6745C112.917 45.5883 112.89 45.5051 112.87 45.4188C112.837 45.2875 112.809 45.1551 112.77 45.0257C112.742 44.9345 112.707 44.8472 112.675 44.758C112.633 44.6396 112.594 44.5193 112.547 44.405C112.508 44.3117 112.462 44.2235 112.42 44.1332C112.369 44.0259 112.322 43.9166 112.266 43.8123C112.22 43.7231 112.166 43.6398 112.114 43.5526C112.055 43.4523 111.998 43.35 111.934 43.2527C111.879 43.1685 111.817 43.0903 111.758 43.0091C111.689 42.9148 111.625 42.8195 111.552 42.7293C111.489 42.6501 111.419 42.5779 111.354 42.5026C111.278 42.4154 111.202 42.3271 111.122 42.2449C111.053 42.1717 110.975 42.1065 110.903 42.0373C110.82 41.9581 110.739 41.8779 110.65 41.8037C110.573 41.7375 110.491 41.6793 110.41 41.6172C110.32 41.546 110.233 41.4748 110.138 41.4086C110.054 41.3494 109.967 41.2983 109.881 41.2441C109.784 41.1829 109.69 41.1198 109.589 41.0626C109.5 41.0125 109.407 40.9683 109.314 40.9222C109.213 40.8701 109.113 40.8159 109.008 40.7708C108.912 40.7277 108.814 40.6916 108.715 40.6535C108.609 40.6123 108.504 40.5692 108.396 40.5341C108.296 40.5 108.192 40.474 108.09 40.4449C107.979 40.4138 107.87 40.3817 107.758 40.3556C107.652 40.3316 107.546 40.3155 107.44 40.2965C107.326 40.2764 107.212 40.2553 107.095 40.2403C106.987 40.2273 106.878 40.2212 106.768 40.2122C106.63 40.2022 106.494 40.1892 106.354 40.1871H106.33L96.028 31.7154C90.1405 32.7473 58.1007 37.1135 48.8559 38.7351Z" fill="white"/>
</mask>
<g mask="url(#mask2_2089_38158)">
<path fill-rule="evenodd" clip-rule="evenodd" d="M97.4237 39.2335C96.1942 36.6954 93.128 35.6284 90.5868 36.8578L79.1039 42.4104L50.8368 56.0787C48.2956 57.3072 47.2297 60.3728 48.4592 62.9099L49.3775 64.8062L78.6181 50.6666L98.3421 41.1288L97.4237 39.2335Z" fill="white"/>
</g>
<mask id="mask3_2089_38158" style="mask-type:alpha" maskUnits="userSpaceOnUse" x="42" y="31" width="72" height="27">
<path d="M48.8559 38.7351L44.6466 51.2672C42.7667 51.8759 42.4616 53.5215 42.4771 54.3499C42.4771 55.6094 43.0969 56.4167 44.212 56.9411C44.6295 57.1377 45.0882 57.2771 45.5469 57.3653C45.8199 57.4175 46.0256 57.4415 46.0798 57.4445H113.068L113.069 47.0374C113.069 46.8037 113.057 46.5741 113.034 46.3464C113.026 46.2712 113.011 46.2 113.001 46.1268C112.981 45.9754 112.963 45.823 112.934 45.6745C112.917 45.5883 112.89 45.5051 112.87 45.4188C112.837 45.2875 112.809 45.1551 112.77 45.0257C112.742 44.9345 112.707 44.8472 112.675 44.758C112.633 44.6396 112.594 44.5193 112.547 44.405C112.508 44.3117 112.462 44.2235 112.42 44.1332C112.369 44.0259 112.322 43.9166 112.266 43.8123C112.22 43.7231 112.166 43.6398 112.114 43.5526C112.055 43.4523 111.998 43.35 111.934 43.2527C111.879 43.1685 111.817 43.0903 111.758 43.0091C111.689 42.9148 111.625 42.8195 111.552 42.7293C111.489 42.6501 111.419 42.5779 111.354 42.5026C111.278 42.4154 111.202 42.3271 111.122 42.2449C111.053 42.1717 110.975 42.1065 110.903 42.0373C110.82 41.9581 110.739 41.8779 110.65 41.8037C110.573 41.7375 110.491 41.6793 110.41 41.6172C110.32 41.546 110.233 41.4748 110.138 41.4086C110.054 41.3494 109.967 41.2983 109.881 41.2441C109.784 41.1829 109.69 41.1198 109.589 41.0626C109.5 41.0125 109.407 40.9683 109.314 40.9222C109.213 40.8701 109.113 40.8159 109.008 40.7708C108.912 40.7277 108.814 40.6916 108.715 40.6535C108.609 40.6123 108.504 40.5692 108.396 40.5341C108.296 40.5 108.192 40.474 108.09 40.4449C107.979 40.4138 107.87 40.3817 107.758 40.3556C107.652 40.3316 107.546 40.3155 107.44 40.2965C107.326 40.2764 107.212 40.2553 107.095 40.2403C106.987 40.2273 106.878 40.2212 106.768 40.2122C106.63 40.2022 106.494 40.1892 106.354 40.1871H106.33L96.028 31.7154C90.1405 32.7473 58.1007 37.1135 48.8559 38.7351Z" fill="white"/>
</mask>
<g mask="url(#mask3_2089_38158)">
<path fill-rule="evenodd" clip-rule="evenodd" d="M78.6177 50.667L79.1035 42.4108L50.8364 56.0792C48.2951 57.3076 47.2302 60.3722 48.4587 62.9103L49.3771 64.8066L78.6177 50.667Z" fill="#C6ECF6"/>
</g>
<path fill-rule="evenodd" clip-rule="evenodd" d="M111.023 94.8279H108.344C107.736 94.8279 107.154 94.5872 106.724 94.161C106.295 93.7338 106.055 93.1552 106.057 92.5525V89.8981C106.055 89.2964 106.295 88.7178 106.724 88.2906C107.154 87.8634 107.736 87.6237 108.344 87.6237H111.023C111.631 87.6237 112.214 87.8634 112.644 88.2906C113.072 88.7178 113.312 89.2964 113.31 89.8981V92.5525C113.312 93.1552 113.072 93.7338 112.644 94.161C112.214 94.5872 111.631 94.8279 111.023 94.8279Z" fill="#6EE3FF"/>
<path fill-rule="evenodd" clip-rule="evenodd" d="M109.129 93.1806H106.224C105.566 93.1806 104.933 92.9169 104.468 92.4475C104.004 91.9782 103.743 91.3414 103.746 90.6786V87.7614C103.743 87.0985 104.004 86.4618 104.468 85.9924C104.933 85.5231 105.566 85.2594 106.224 85.2594H109.129C109.787 85.2594 110.419 85.5231 110.885 85.9924C111.35 86.4618 111.611 87.0985 111.608 87.7614V90.6786C111.611 91.3414 111.35 91.9782 110.885 92.4475C110.419 92.9169 109.787 93.1806 109.129 93.1806Z" fill="#0F2B4A"/>
<path fill-rule="evenodd" clip-rule="evenodd" d="M47.3969 105.487C49.3249 106.282 51.4216 107.185 51.4216 109.371C51.4216 111.421 50.0978 112.816 47.702 113.156V116.249H45.7459V113.211L45.6867 113.243C44.3287 113.166 43.022 112.71 41.9129 111.928L42.7951 110.371C43.8299 111.118 45.0724 111.529 46.3511 111.55C48.252 111.55 49.3249 110.868 49.3249 109.663C49.3249 108.186 47.3698 107.694 45.512 106.872C43.8299 106.131 42.2441 105.173 42.2441 103.042C42.2441 101.792 42.8915 100.748 43.9945 100.118C44.4843 99.8373 45.0544 99.6307 45.7138 99.5374V96.6874H47.6689V99.5054C48.8512 99.6297 49.9793 100.065 50.9358 100.766L49.9723 102.242C49.0248 101.55 47.8817 101.171 46.7054 101.161C46.1865 101.161 45.7379 101.239 45.3645 101.384C44.6499 101.658 44.2273 102.183 44.2273 102.94C44.2273 104.228 45.7419 104.8 47.3969 105.487ZM57.8641 109.989C58.0247 109.693 58.2063 109.365 58.4061 109.01C58.9771 107.998 59.5793 106.985 60.1845 106.037C60.584 105.413 60.9714 104.837 61.3448 104.319C62.8181 102.275 63.9121 101.225 65.0744 101.325C65.1406 101.331 65.2028 101.349 65.2671 101.361C64.2433 97.7384 62.1888 94.5545 59.4318 92.1267C59.4137 92.3162 59.3585 92.5037 59.227 92.6612C58.8768 93.0833 58.2485 93.1435 57.8239 92.7955C52.0218 88.0472 43.862 87.3783 37.3553 91.1178C36.722 91.4818 36.1258 91.887 35.5507 92.3162C30.6047 96.0126 27.8908 101.998 28.4378 108.157C28.8683 107.742 29.3712 107.157 29.9322 106.416C30.2785 105.958 30.6428 105.45 31.0172 104.9C31.6435 103.984 32.2707 102.999 32.8679 102.014C33.0777 101.668 33.2684 101.349 33.437 101.061L33.5835 100.808C33.6096 100.766 33.6287 100.731 33.6428 100.706C33.9137 100.229 34.523 100.061 35.0017 100.331C35.4815 100.599 35.6511 101.204 35.3791 101.68C35.3399 101.751 35.2657 101.879 35.1623 102.058C34.9887 102.353 34.7919 102.682 34.5772 103.037C33.9619 104.05 33.3166 105.064 32.6682 106.012C32.2768 106.587 31.8944 107.121 31.526 107.607C30.0547 109.551 28.9516 110.626 27.8707 110.707C27.8496 110.712 27.8275 110.717 27.8045 110.72C27.7091 110.736 27.6158 110.73 27.5234 110.719C28.3314 114.399 30.1851 117.691 32.7726 120.261C32.8147 120.163 32.8619 120.068 32.9362 119.986C33.3035 119.578 33.9348 119.545 34.3443 119.91C40.1495 125.083 48.6475 125.959 55.3981 122.079C57.9283 120.625 59.9888 118.622 61.5013 116.293C63.8338 112.703 64.8536 108.333 64.1932 103.953C63.8318 104.333 63.4183 104.846 62.9677 105.472C62.6174 105.957 62.2501 106.504 61.8697 107.099C61.2855 108.013 60.7014 108.996 60.1464 109.979C59.9517 110.324 59.775 110.644 59.6195 110.929C59.5261 111.101 59.4619 111.222 59.4278 111.284C59.1728 111.77 58.5707 111.956 58.0819 111.703C57.5941 111.449 57.4054 110.85 57.6613 110.366C57.6985 110.296 57.7667 110.167 57.8641 109.989Z" fill="white"/>
<path fill-rule="evenodd" clip-rule="evenodd" d="M27.8051 110.72C27.8272 110.717 27.8502 110.712 27.8703 110.706C28.9523 110.626 30.0543 109.551 31.5266 107.607C31.894 107.121 32.2764 106.586 32.6688 106.012C33.3162 105.063 33.9625 104.05 34.5768 103.036C34.7926 102.682 34.9883 102.353 35.1619 102.057C35.2663 101.879 35.3405 101.751 35.3797 101.681C35.6507 101.204 35.4811 100.6 35.0023 100.331C34.5226 100.061 33.9143 100.23 33.6424 100.706C33.6293 100.731 33.6092 100.765 33.5841 100.808L33.4366 101.061C33.268 101.349 33.0783 101.669 32.8685 102.014C32.2704 102.999 31.6431 103.984 31.0168 104.901C30.6424 105.45 30.2791 105.958 29.9318 106.416C29.3718 107.156 28.869 107.742 28.4384 108.157C27.8914 101.999 30.6043 96.0127 35.5513 92.3164C36.1254 91.8872 36.7226 91.482 37.3559 91.118C43.8616 87.3785 52.0224 88.0474 57.8235 92.7957C58.2481 93.1437 58.8774 93.0835 59.2276 92.6613C59.3581 92.5029 59.4133 92.3164 59.4324 92.1268C59.4635 91.8099 59.3581 91.484 59.0922 91.2664C52.6487 85.9926 43.5836 85.2506 36.3563 89.4032C30.252 92.912 26.5445 99.2889 26.3799 106.113C26.1862 105.633 25.9874 105.102 25.7877 104.528C25.4254 103.483 25.0791 102.36 24.762 101.235C24.6496 100.841 24.5512 100.476 24.4639 100.148C24.4117 99.9528 24.3766 99.8144 24.3585 99.7422C24.226 99.2117 23.685 98.8878 23.1501 99.0202C22.6162 99.1515 22.29 99.689 22.4234 100.221C22.4425 100.3 22.4807 100.447 22.5339 100.651C22.6242 100.989 22.7256 101.366 22.841 101.771C23.1682 102.929 23.5255 104.088 23.9018 105.173C24.5532 107.045 25.1905 108.5 25.8249 109.424C26.2303 110.016 26.6499 110.427 27.1487 110.607C27.2591 110.668 27.3825 110.702 27.512 110.719C27.516 110.719 27.52 110.718 27.524 110.719C27.6164 110.729 27.7087 110.736 27.8051 110.72ZM70.6381 111.602C70.615 111.523 70.5708 111.379 70.5066 111.179C70.4032 110.846 70.2828 110.476 70.1513 110.078C69.7719 108.94 69.3624 107.801 68.9389 106.734C68.4089 105.404 67.893 104.28 67.3952 103.418C66.7067 102.23 66.0694 101.521 65.2665 101.361C65.2032 101.348 65.14 101.332 65.0748 101.326C63.9125 101.224 62.8185 102.275 61.3452 104.319C60.9718 104.836 60.5834 105.413 60.1849 106.037C59.5787 106.985 58.9775 107.998 58.4055 109.01C58.2057 109.365 58.0251 109.693 57.8635 109.989C57.7671 110.167 57.6979 110.296 57.6607 110.366C57.4048 110.85 57.5945 111.449 58.0823 111.703C58.5711 111.956 59.1733 111.77 59.4282 111.284C59.4613 111.222 59.5265 111.101 59.6189 110.929C59.7754 110.643 59.9521 110.324 60.1468 109.979C60.7018 108.996 61.286 108.012 61.8701 107.099C62.2505 106.504 62.6178 105.958 62.9671 105.472C63.4187 104.846 63.8322 104.332 64.1936 103.953C64.853 108.333 63.8342 112.703 61.5007 116.294C59.9892 118.622 57.9287 120.625 55.3975 122.079C48.6479 125.958 40.1499 125.082 34.3447 119.91C33.9352 119.544 33.3039 119.578 32.9366 119.985C32.8613 120.068 32.8141 120.163 32.772 120.261C32.7499 120.314 32.7338 120.367 32.7218 120.423C32.6415 120.763 32.7308 121.134 33.0129 121.384C39.4604 127.13 48.8998 128.103 56.3981 123.794C62.9069 120.052 66.6696 113.069 66.3695 105.786C66.6023 106.29 66.8402 106.852 67.0831 107.462C67.4916 108.49 67.889 109.595 68.2564 110.7C68.3858 111.087 68.5013 111.447 68.6026 111.769C68.6629 111.961 68.705 112.098 68.7261 112.168C68.8837 112.692 69.4397 112.991 69.9666 112.835C70.4945 112.678 70.7956 112.126 70.6381 111.602Z" fill="#EC0000"/>
<path fill-rule="evenodd" clip-rule="evenodd" d="M42.2443 103.043C42.2443 105.174 43.8301 106.131 45.5122 106.871C47.369 107.694 49.3251 108.186 49.3251 109.662C49.3251 110.869 48.2512 111.55 46.3513 111.55C45.0716 111.529 43.8301 111.117 42.7953 110.371L41.9131 111.929C43.0211 112.71 44.3289 113.165 45.6868 113.242L45.7461 113.21V116.25H47.7012V113.156C50.0979 112.816 51.4218 111.42 51.4218 109.37C51.4218 107.185 49.3251 106.282 47.3971 105.488C45.741 104.8 44.2275 104.227 44.2275 102.939C44.2275 102.183 44.6491 101.658 45.3637 101.383C45.737 101.24 46.1867 101.16 46.7046 101.16C47.8819 101.172 49.025 101.55 49.9725 102.243L50.936 100.765C49.9795 100.065 48.8514 99.6302 47.6691 99.5058V96.6879H45.7139V99.5379C45.0545 99.6312 44.4835 99.8378 43.9947 100.118C42.8917 100.747 42.2443 101.791 42.2443 103.043Z" fill="#EC0000"/>
<path fill-rule="evenodd" clip-rule="evenodd" d="M127.152 45.8059L126.232 46.7255L125.092 45.5863L123.958 46.7185L123.033 45.7929L124.165 44.6607L123.026 43.5225L123.947 42.603L125.086 43.7412L126.219 42.609L127.145 43.5346L126.012 44.6668L127.152 45.8059Z" fill="#6EE3FF"/>
</svg>
