<svg width="160" height="160" viewBox="0 0 160 160" fill="none" xmlns="http://www.w3.org/2000/svg">
<path fill-rule="evenodd" clip-rule="evenodd" d="M84.3315 129.296C123.672 123.467 129.709 114.733 135.412 105.12C146.454 86.504 136.864 53.0893 114.179 53.2648C92.0536 57.8858 96.5962 20.2573 54.0681 32.4414C27.422 40.0759 15.5346 61.7707 21.5174 82.6171C27.5003 103.464 44.991 135.125 84.3315 129.296Z" fill="#D9D9D9"/>
<path fill-rule="evenodd" clip-rule="evenodd" d="M106.33 40.1878H106.354C106.494 40.1898 106.631 40.2028 106.768 40.2129C106.878 40.2219 106.987 40.2279 107.096 40.241C107.212 40.255 107.325 40.2771 107.44 40.2971C107.546 40.3162 107.653 40.3322 107.758 40.3563C107.87 40.3813 107.98 40.4144 108.09 40.4455C108.192 40.4746 108.296 40.5007 108.397 40.5338C108.505 40.5699 108.609 40.613 108.715 40.6541C108.814 40.6922 108.912 40.7283 109.009 40.7704C109.112 40.8166 109.213 40.8707 109.316 40.9219C109.407 40.969 109.5 41.0131 109.59 41.0633C109.69 41.1204 109.784 41.1836 109.882 41.2448C109.967 41.2989 110.055 41.3511 110.139 41.4092C110.233 41.4744 110.321 41.5466 110.411 41.6168C110.491 41.679 110.574 41.7382 110.652 41.8043C110.739 41.8785 110.82 41.9588 110.903 42.038C110.977 42.1072 111.053 42.1724 111.122 42.2456C111.203 42.3278 111.278 42.4161 111.354 42.5033C111.419 42.5785 111.49 42.6507 111.552 42.7289C111.624 42.8192 111.69 42.9155 111.759 43.0087C111.818 43.0909 111.879 43.1692 111.934 43.2524C111.998 43.3497 112.056 43.453 112.115 43.5532C112.165 43.6395 112.22 43.7237 112.267 43.813C112.324 43.9173 112.37 44.0266 112.42 44.1339C112.462 44.2241 112.508 44.3124 112.546 44.4056C112.595 44.52 112.633 44.6403 112.675 44.7586C112.707 44.8479 112.742 44.9351 112.77 45.0264C112.809 45.1557 112.838 45.2881 112.871 45.4205C112.891 45.5057 112.916 45.589 112.934 45.6752C112.963 45.8236 112.982 45.975 113.001 46.1275C113.011 46.2007 113.027 46.2719 113.035 46.3471C113.057 46.5737 113.069 46.8044 113.069 47.038L113.068 57.4442L46.0801 57.4452C46.0259 57.4412 45.8201 57.4181 45.5461 57.365C45.0875 57.2777 44.6298 57.1383 44.2113 56.9418C43.0972 56.4173 42.4774 55.6091 42.4774 54.3505C42.4619 53.5212 42.768 51.8766 44.6469 51.2669C44.7322 51.2398 44.8315 51.2077 45.0182 51.1475C45.502 50.9921 45.793 50.8928 46.0891 50.7765C46.2858 50.7324 46.4826 50.6872 46.6883 50.6491C55.932 49.0276 55.932 49.0276 61.8195 47.9947L106.33 40.1878Z" fill="#0F2B4A"/>
<path fill-rule="evenodd" clip-rule="evenodd" d="M113.207 59.2505L46.0315 59.2495H48.1904C45.9181 60.3225 44.3424 62.6269 44.3424 65.3044V108.978C44.3424 111.516 45.7535 113.723 47.8351 114.86C46.1971 114.699 44.8522 114.35 43.7522 113.842C45.3179 114.573 47.3855 114.978 50.0913 114.978H79.7274L111.798 59.2505H113.207Z" fill="white"/>
<path fill-rule="evenodd" clip-rule="evenodd" d="M44.342 108.978V65.3043C44.342 62.6268 45.9178 60.3224 48.1901 59.2493H46.0322C45.3628 59.2132 44.4123 59.0307 43.4428 58.5744C41.7415 57.7742 40.6706 56.3783 40.6716 54.3667C40.6696 54.2563 40.6716 54.15 40.6767 54.0468C40.6295 54.121 40.5853 54.1992 40.5402 54.2754C40.4398 54.4479 40.3485 54.6254 40.2652 54.8089C40.2431 54.859 40.218 54.9082 40.1959 54.9583C40.1006 55.189 40.0193 55.4276 39.952 55.6733C39.936 55.7305 39.9259 55.7906 39.9119 55.8488C39.8627 56.0484 39.8236 56.2539 39.7934 56.4635C39.7824 56.5387 39.7714 56.6129 39.7633 56.6882C39.7332 56.9569 39.7132 57.2307 39.7132 57.5155V105.69C39.7132 108.476 39.9661 110.043 40.9878 111.573C41.1534 111.821 41.3431 112.053 41.5468 112.276C41.6271 112.363 41.7175 112.445 41.8038 112.528C41.9332 112.652 42.0627 112.775 42.2052 112.891C42.3297 112.993 42.4632 113.09 42.5997 113.185C42.7131 113.265 42.8315 113.342 42.954 113.417C43.1266 113.523 43.3032 113.626 43.4909 113.721C43.5752 113.763 43.6656 113.802 43.7519 113.842C44.8519 114.35 46.1978 114.699 47.8348 114.86C45.7532 113.723 44.342 111.516 44.342 108.978Z" fill="#E5E5E5"/>
<path fill-rule="evenodd" clip-rule="evenodd" d="M113.589 59.2226L113.524 59.1935C113.426 59.2306 113.318 59.2506 113.207 59.2506H111.798L79.7268 114.978H110.718C114.475 114.974 117.521 111.908 117.521 108.127V65.4179C117.521 62.7595 115.986 60.3427 113.589 59.2226Z" fill="#F2F2F2"/>
<path fill-rule="evenodd" clip-rule="evenodd" d="M117.521 108.126C117.521 111.908 114.475 114.974 110.718 114.979H50.0909C45.2894 114.979 42.438 113.742 40.9877 111.573C39.966 110.043 39.7131 108.476 39.7131 105.689V57.5154C39.7131 57.2316 39.7332 56.9578 39.7623 56.6881C39.7713 56.6128 39.7824 56.5386 39.7934 56.4634C39.8235 56.2538 39.8626 56.0483 39.9118 55.8487C39.9249 55.7905 39.9359 55.7304 39.952 55.6732C40.0192 55.4275 40.1005 55.1888 40.1959 54.9582C40.2179 54.9081 40.243 54.8589 40.2651 54.8098C40.3474 54.6253 40.4397 54.4478 40.5401 54.2753C40.5853 54.1991 40.6294 54.1208 40.6766 54.0466C40.6716 54.1499 40.6696 54.2562 40.6716 54.3675C40.6706 56.3782 41.7415 57.7751 43.4417 58.5743C44.4122 59.0306 45.3617 59.2131 46.0311 59.2492L113.207 59.2502H113.589C115.986 60.3704 117.521 62.7591 117.521 65.4185V108.126ZM114.875 57.8533V47.038C114.875 42.2576 111.018 38.3817 106.258 38.3817L106.101 38.3948L46.3674 48.8731C46.3654 48.8731 46.3633 48.8741 46.3613 48.8741H46.3603C41.3902 49.7917 38.309 52.5284 37.9436 56.669C37.9186 56.9448 37.9065 57.2276 37.9065 57.5154V105.689C37.9065 108.816 38.2026 110.655 39.4863 112.576C41.3059 115.298 44.7314 116.784 50.0909 116.784H110.719C115.476 116.778 119.327 112.903 119.327 108.126V65.4185C119.327 62.2557 117.608 59.3636 114.875 57.8533Z" fill="#595959"/>
<path fill-rule="evenodd" clip-rule="evenodd" d="M113.002 46.1272C112.982 45.9758 112.964 45.8234 112.934 45.6749C112.916 45.5887 112.891 45.5055 112.87 45.4202C112.838 45.2879 112.81 45.1555 112.771 45.0261C112.742 44.9359 112.707 44.8476 112.676 44.7584C112.633 44.64 112.595 44.5197 112.547 44.4054C112.509 44.3121 112.463 44.2239 112.421 44.1336C112.369 44.0263 112.323 43.917 112.268 43.8127C112.221 43.7235 112.166 43.6402 112.114 43.553C112.056 43.4527 111.999 43.3494 111.935 43.2522C111.88 43.1689 111.817 43.0907 111.759 43.0095C111.69 42.9152 111.625 42.8189 111.552 42.7287C111.489 42.6505 111.42 42.5783 111.354 42.5031C111.277 42.4158 111.203 42.3276 111.123 42.2453C111.054 42.1731 110.976 42.1069 110.903 42.0377C110.82 41.9585 110.738 41.8783 110.651 41.8041C110.574 41.7389 110.492 41.6787 110.411 41.6166C110.321 41.5464 110.233 41.4742 110.138 41.409C110.055 41.3508 109.968 41.2987 109.882 41.2445C109.785 41.1834 109.69 41.1202 109.59 41.063C109.501 41.0129 109.408 40.9688 109.315 40.9226C109.214 40.8705 109.113 40.8173 109.008 40.7702C108.913 40.7281 108.813 40.693 108.715 40.6539C108.61 40.6128 108.505 40.5696 108.397 40.5335C108.297 40.5004 108.192 40.4744 108.09 40.4453C107.979 40.4142 107.871 40.3821 107.758 40.356C107.653 40.332 107.546 40.3159 107.44 40.2979C107.326 40.2768 107.212 40.2558 107.095 40.2407C106.988 40.2277 106.877 40.2217 106.769 40.2136C106.63 40.2026 106.495 40.1896 106.354 40.1876H106.33L83.8183 44.1366L75.9085 57.445H113.068L113.069 47.0378C113.069 46.8041 113.058 46.5735 113.035 46.3468C113.027 46.2726 113.012 46.2004 113.002 46.1272Z" fill="#767676"/>
<mask id="mask0_2089_38116" style="mask-type:alpha" maskUnits="userSpaceOnUse" x="42" y="31" width="72" height="27">
<path d="M48.8562 38.7355L44.6469 51.2676C42.767 51.8764 42.4619 53.522 42.4774 54.3503C42.4774 55.6098 43.0972 56.4171 44.2123 56.9416C44.6298 57.1381 45.0885 57.2775 45.5471 57.3657C45.8201 57.4179 46.0259 57.442 46.0801 57.445H113.068L113.069 47.0378C113.069 46.8041 113.057 46.5745 113.034 46.3468C113.026 46.2716 113.011 46.2004 113.001 46.1272C112.981 45.9758 112.963 45.8234 112.934 45.675C112.917 45.5887 112.891 45.5055 112.871 45.4192C112.838 45.2879 112.809 45.1555 112.77 45.0261C112.742 44.9349 112.707 44.8476 112.675 44.7584C112.633 44.6401 112.595 44.5197 112.547 44.4054C112.508 44.3121 112.462 44.2239 112.42 44.1336C112.369 44.0263 112.323 43.917 112.266 43.8127C112.22 43.7235 112.166 43.6403 112.114 43.553C112.056 43.4527 111.998 43.3504 111.934 43.2532C111.879 43.1689 111.817 43.0907 111.759 43.0095C111.689 42.9152 111.625 42.82 111.552 42.7297C111.49 42.6505 111.419 42.5783 111.354 42.5031C111.278 42.4158 111.203 42.3276 111.122 42.2453C111.053 42.1721 110.976 42.107 110.903 42.0378C110.82 41.9585 110.739 41.8783 110.651 41.8041C110.573 41.7379 110.491 41.6798 110.411 41.6176C110.32 41.5464 110.233 41.4752 110.139 41.409C110.054 41.3498 109.967 41.2987 109.882 41.2445C109.784 41.1834 109.69 41.1202 109.59 41.063C109.5 41.0129 109.407 40.9688 109.315 40.9226C109.213 40.8705 109.113 40.8163 109.009 40.7712C108.912 40.7281 108.814 40.692 108.715 40.6539C108.609 40.6128 108.505 40.5696 108.396 40.5345C108.296 40.5005 108.193 40.4744 108.09 40.4453C107.979 40.4142 107.87 40.3821 107.758 40.356C107.653 40.332 107.546 40.3159 107.44 40.2969C107.326 40.2768 107.212 40.2558 107.096 40.2407C106.987 40.2277 106.878 40.2217 106.768 40.2126C106.63 40.2026 106.494 40.1896 106.354 40.1876H106.33L96.0282 31.7158C90.1407 32.7477 58.1009 37.114 48.8562 38.7355Z" fill="white"/>
</mask>
<g mask="url(#mask0_2089_38116)">
<path fill-rule="evenodd" clip-rule="evenodd" d="M102.628 49.9749L53.6633 73.6523L59.8278 86.38C61.0573 88.9181 64.1245 89.9841 66.6648 88.7557L106.415 69.5338C108.957 68.3053 110.022 65.2408 108.793 62.7026L102.628 49.9749Z" fill="white"/>
</g>
<mask id="mask1_2089_38116" style="mask-type:alpha" maskUnits="userSpaceOnUse" x="42" y="31" width="72" height="27">
<path d="M48.8562 38.7355L44.6469 51.2676C42.767 51.8764 42.4619 53.522 42.4774 54.3503C42.4774 55.6098 43.0972 56.4171 44.2123 56.9416C44.6298 57.1381 45.0885 57.2775 45.5471 57.3657C45.8201 57.4179 46.0259 57.442 46.0801 57.445H113.068L113.069 47.0378C113.069 46.8041 113.057 46.5745 113.034 46.3468C113.026 46.2716 113.011 46.2004 113.001 46.1272C112.981 45.9758 112.963 45.8234 112.934 45.675C112.917 45.5887 112.891 45.5055 112.871 45.4192C112.838 45.2879 112.809 45.1555 112.77 45.0261C112.742 44.9349 112.707 44.8476 112.675 44.7584C112.633 44.6401 112.595 44.5197 112.547 44.4054C112.508 44.3121 112.462 44.2239 112.42 44.1336C112.369 44.0263 112.323 43.917 112.266 43.8127C112.22 43.7235 112.166 43.6403 112.114 43.553C112.056 43.4527 111.998 43.3504 111.934 43.2532C111.879 43.1689 111.817 43.0907 111.759 43.0095C111.689 42.9152 111.625 42.82 111.552 42.7297C111.49 42.6505 111.419 42.5783 111.354 42.5031C111.278 42.4158 111.203 42.3276 111.122 42.2453C111.053 42.1721 110.976 42.107 110.903 42.0378C110.82 41.9585 110.739 41.8783 110.651 41.8041C110.573 41.7379 110.491 41.6798 110.411 41.6176C110.32 41.5464 110.233 41.4752 110.139 41.409C110.054 41.3498 109.967 41.2987 109.882 41.2445C109.784 41.1834 109.69 41.1202 109.59 41.063C109.5 41.0129 109.407 40.9688 109.315 40.9226C109.213 40.8705 109.113 40.8163 109.009 40.7712C108.912 40.7281 108.814 40.692 108.715 40.6539C108.609 40.6128 108.505 40.5696 108.396 40.5345C108.296 40.5005 108.193 40.4744 108.09 40.4453C107.979 40.4142 107.87 40.3821 107.758 40.356C107.653 40.332 107.546 40.3159 107.44 40.2969C107.326 40.2768 107.212 40.2558 107.096 40.2407C106.987 40.2277 106.878 40.2217 106.768 40.2126C106.63 40.2026 106.494 40.1896 106.354 40.1876H106.33L96.0282 31.7158C90.1407 32.7477 58.1009 37.114 48.8562 38.7355Z" fill="white"/>
</mask>
<g mask="url(#mask1_2089_38116)">
<path fill-rule="evenodd" clip-rule="evenodd" d="M106.416 69.5342L66.6656 88.7551C64.1243 89.9846 61.0581 88.9186 59.8287 86.3795L53.6632 73.6528L102.629 49.9754L108.793 62.7031C110.023 65.2412 108.957 68.3058 106.416 69.5342ZM48.8567 65.8118L78.6573 50.7696L78.583 52.69L99.13 42.7541L101.841 48.3508L78.309 59.7297L78.2679 60.7977L52.8713 72.8315L48.8567 65.8118ZM50.8379 56.0795L79.105 42.4112L90.5878 36.8586C93.1291 35.6292 96.1953 36.6952 97.4248 39.2343L98.3431 41.1296L78.6192 50.6673L49.3786 64.807L48.4602 62.9107C47.2307 60.3725 48.2966 57.308 50.8379 56.0795ZM110.419 61.9159L104.255 49.1882L99.97 40.3424L99.0517 38.4471C97.3886 35.0124 93.2385 33.5714 89.801 35.2331L50.051 54.455C46.6135 56.1176 45.1702 60.2632 46.8343 63.6979L47.7516 65.5932L48.2233 66.5659L52.0362 74.439L58.2017 87.1667C59.8648 90.6013 64.0149 92.0424 67.4525 90.3807L107.202 71.1588C110.64 69.4961 112.083 65.3505 110.419 61.9159Z" fill="#595959"/>
</g>
<mask id="mask2_2089_38116" style="mask-type:alpha" maskUnits="userSpaceOnUse" x="42" y="31" width="72" height="27">
<path d="M48.8562 38.7355L44.6469 51.2676C42.767 51.8764 42.4619 53.522 42.4774 54.3503C42.4774 55.6098 43.0972 56.4171 44.2123 56.9416C44.6298 57.1381 45.0885 57.2775 45.5471 57.3657C45.8201 57.4179 46.0259 57.442 46.0801 57.445H113.068L113.069 47.0378C113.069 46.8041 113.057 46.5745 113.034 46.3468C113.026 46.2716 113.011 46.2004 113.001 46.1272C112.981 45.9758 112.963 45.8234 112.934 45.675C112.917 45.5887 112.891 45.5055 112.871 45.4192C112.838 45.2879 112.809 45.1555 112.77 45.0261C112.742 44.9349 112.707 44.8476 112.675 44.7584C112.633 44.6401 112.595 44.5197 112.547 44.4054C112.508 44.3121 112.462 44.2239 112.42 44.1336C112.369 44.0263 112.323 43.917 112.266 43.8127C112.22 43.7235 112.166 43.6403 112.114 43.553C112.056 43.4527 111.998 43.3504 111.934 43.2532C111.879 43.1689 111.817 43.0907 111.759 43.0095C111.689 42.9152 111.625 42.82 111.552 42.7297C111.49 42.6505 111.419 42.5783 111.354 42.5031C111.278 42.4158 111.203 42.3276 111.122 42.2453C111.053 42.1721 110.976 42.107 110.903 42.0378C110.82 41.9585 110.739 41.8783 110.651 41.8041C110.573 41.7379 110.491 41.6798 110.411 41.6176C110.32 41.5464 110.233 41.4752 110.139 41.409C110.054 41.3498 109.967 41.2987 109.882 41.2445C109.784 41.1834 109.69 41.1202 109.59 41.063C109.5 41.0129 109.407 40.9688 109.315 40.9226C109.213 40.8705 109.113 40.8163 109.009 40.7712C108.912 40.7281 108.814 40.692 108.715 40.6539C108.609 40.6128 108.505 40.5696 108.396 40.5345C108.296 40.5005 108.193 40.4744 108.09 40.4453C107.979 40.4142 107.87 40.3821 107.758 40.356C107.653 40.332 107.546 40.3159 107.44 40.2969C107.326 40.2768 107.212 40.2558 107.096 40.2407C106.987 40.2277 106.878 40.2217 106.768 40.2126C106.63 40.2026 106.494 40.1896 106.354 40.1876H106.33L96.0282 31.7158C90.1407 32.7477 58.1009 37.114 48.8562 38.7355Z" fill="white"/>
</mask>
<g mask="url(#mask2_2089_38116)">
<path fill-rule="evenodd" clip-rule="evenodd" d="M78.3091 59.7294L78.4075 57.2174L78.5821 52.6897L78.6574 50.7693L48.8567 65.8115L52.8713 72.8312L78.268 60.7974L78.3091 59.7294Z" fill="#595959"/>
</g>
<mask id="mask3_2089_38116" style="mask-type:alpha" maskUnits="userSpaceOnUse" x="42" y="31" width="72" height="27">
<path d="M48.8562 38.7355L44.6469 51.2676C42.767 51.8764 42.4619 53.522 42.4774 54.3503C42.4774 55.6098 43.0972 56.4171 44.2123 56.9416C44.6298 57.1381 45.0885 57.2775 45.5471 57.3657C45.8201 57.4179 46.0259 57.442 46.0801 57.445H113.068L113.069 47.0378C113.069 46.8041 113.057 46.5745 113.034 46.3468C113.026 46.2716 113.011 46.2004 113.001 46.1272C112.981 45.9758 112.963 45.8234 112.934 45.675C112.917 45.5887 112.891 45.5055 112.871 45.4192C112.838 45.2879 112.809 45.1555 112.77 45.0261C112.742 44.9349 112.707 44.8476 112.675 44.7584C112.633 44.6401 112.595 44.5197 112.547 44.4054C112.508 44.3121 112.462 44.2239 112.42 44.1336C112.369 44.0263 112.323 43.917 112.266 43.8127C112.22 43.7235 112.166 43.6403 112.114 43.553C112.056 43.4527 111.998 43.3504 111.934 43.2532C111.879 43.1689 111.817 43.0907 111.759 43.0095C111.689 42.9152 111.625 42.82 111.552 42.7297C111.49 42.6505 111.419 42.5783 111.354 42.5031C111.278 42.4158 111.203 42.3276 111.122 42.2453C111.053 42.1721 110.976 42.107 110.903 42.0378C110.82 41.9585 110.739 41.8783 110.651 41.8041C110.573 41.7379 110.491 41.6798 110.411 41.6176C110.32 41.5464 110.233 41.4752 110.139 41.409C110.054 41.3498 109.967 41.2987 109.882 41.2445C109.784 41.1834 109.69 41.1202 109.59 41.063C109.5 41.0129 109.407 40.9688 109.315 40.9226C109.213 40.8705 109.113 40.8163 109.009 40.7712C108.912 40.7281 108.814 40.692 108.715 40.6539C108.609 40.6128 108.505 40.5696 108.396 40.5345C108.296 40.5005 108.193 40.4744 108.09 40.4453C107.979 40.4142 107.87 40.3821 107.758 40.356C107.653 40.332 107.546 40.3159 107.44 40.2969C107.326 40.2768 107.212 40.2558 107.096 40.2407C106.987 40.2277 106.878 40.2217 106.768 40.2126C106.63 40.2026 106.494 40.1896 106.354 40.1876H106.33L96.0282 31.7158C90.1407 32.7477 58.1009 37.114 48.8562 38.7355Z" fill="white"/>
</mask>
<g mask="url(#mask3_2089_38116)">
<path fill-rule="evenodd" clip-rule="evenodd" d="M97.424 39.2339C96.1945 36.6958 93.1283 35.6288 90.587 36.8583L79.1042 42.4108L50.8371 56.0792C48.2958 57.3076 47.2299 60.3732 48.4594 62.9103L49.3778 64.8066L78.6184 50.667L98.3423 41.1292L97.424 39.2339Z" fill="white"/>
</g>
<mask id="mask4_2089_38116" style="mask-type:alpha" maskUnits="userSpaceOnUse" x="42" y="31" width="72" height="27">
<path d="M48.8562 38.7355L44.6469 51.2676C42.767 51.8764 42.4619 53.522 42.4774 54.3503C42.4774 55.6098 43.0972 56.4171 44.2123 56.9416C44.6298 57.1381 45.0885 57.2775 45.5471 57.3657C45.8201 57.4179 46.0259 57.442 46.0801 57.445H113.068L113.069 47.0378C113.069 46.8041 113.057 46.5745 113.034 46.3468C113.026 46.2716 113.011 46.2004 113.001 46.1272C112.981 45.9758 112.963 45.8234 112.934 45.675C112.917 45.5887 112.891 45.5055 112.871 45.4192C112.838 45.2879 112.809 45.1555 112.77 45.0261C112.742 44.9349 112.707 44.8476 112.675 44.7584C112.633 44.6401 112.595 44.5197 112.547 44.4054C112.508 44.3121 112.462 44.2239 112.42 44.1336C112.369 44.0263 112.323 43.917 112.266 43.8127C112.22 43.7235 112.166 43.6403 112.114 43.553C112.056 43.4527 111.998 43.3504 111.934 43.2532C111.879 43.1689 111.817 43.0907 111.759 43.0095C111.689 42.9152 111.625 42.82 111.552 42.7297C111.49 42.6505 111.419 42.5783 111.354 42.5031C111.278 42.4158 111.203 42.3276 111.122 42.2453C111.053 42.1721 110.976 42.107 110.903 42.0378C110.82 41.9585 110.739 41.8783 110.651 41.8041C110.573 41.7379 110.491 41.6798 110.411 41.6176C110.32 41.5464 110.233 41.4752 110.139 41.409C110.054 41.3498 109.967 41.2987 109.882 41.2445C109.784 41.1834 109.69 41.1202 109.59 41.063C109.5 41.0129 109.407 40.9688 109.315 40.9226C109.213 40.8705 109.113 40.8163 109.009 40.7712C108.912 40.7281 108.814 40.692 108.715 40.6539C108.609 40.6128 108.505 40.5696 108.396 40.5345C108.296 40.5005 108.193 40.4744 108.09 40.4453C107.979 40.4142 107.87 40.3821 107.758 40.356C107.653 40.332 107.546 40.3159 107.44 40.2969C107.326 40.2768 107.212 40.2558 107.096 40.2407C106.987 40.2277 106.878 40.2217 106.768 40.2126C106.63 40.2026 106.494 40.1896 106.354 40.1876H106.33L96.0282 31.7158C90.1407 32.7477 58.1009 37.114 48.8562 38.7355Z" fill="white"/>
</mask>
<g mask="url(#mask4_2089_38116)">
<path fill-rule="evenodd" clip-rule="evenodd" d="M78.618 50.6674L79.1037 42.4113L50.8367 56.0796C48.2954 57.308 47.2305 60.3726 48.459 62.9107L49.3773 64.8071L78.618 50.6674Z" fill="#F2F2F2"/>
</g>
<mask id="mask5_2089_38116" style="mask-type:alpha" maskUnits="userSpaceOnUse" x="42" y="31" width="72" height="27">
<path d="M48.8562 38.7355L44.6469 51.2676C42.767 51.8764 42.4619 53.522 42.4774 54.3503C42.4774 55.6098 43.0972 56.4171 44.2123 56.9416C44.6298 57.1381 45.0885 57.2775 45.5471 57.3657C45.8201 57.4179 46.0259 57.442 46.0801 57.445H113.068L113.069 47.0378C113.069 46.8041 113.057 46.5745 113.034 46.3468C113.026 46.2716 113.011 46.2004 113.001 46.1272C112.981 45.9758 112.963 45.8234 112.934 45.675C112.917 45.5887 112.891 45.5055 112.871 45.4192C112.838 45.2879 112.809 45.1555 112.77 45.0261C112.742 44.9349 112.707 44.8476 112.675 44.7584C112.633 44.6401 112.595 44.5197 112.547 44.4054C112.508 44.3121 112.462 44.2239 112.42 44.1336C112.369 44.0263 112.323 43.917 112.266 43.8127C112.22 43.7235 112.166 43.6403 112.114 43.553C112.056 43.4527 111.998 43.3504 111.934 43.2532C111.879 43.1689 111.817 43.0907 111.759 43.0095C111.689 42.9152 111.625 42.82 111.552 42.7297C111.49 42.6505 111.419 42.5783 111.354 42.5031C111.278 42.4158 111.203 42.3276 111.122 42.2453C111.053 42.1721 110.976 42.107 110.903 42.0378C110.82 41.9585 110.739 41.8783 110.651 41.8041C110.573 41.7379 110.491 41.6798 110.411 41.6176C110.32 41.5464 110.233 41.4752 110.139 41.409C110.054 41.3498 109.967 41.2987 109.882 41.2445C109.784 41.1834 109.69 41.1202 109.59 41.063C109.5 41.0129 109.407 40.9688 109.315 40.9226C109.213 40.8705 109.113 40.8163 109.009 40.7712C108.912 40.7281 108.814 40.692 108.715 40.6539C108.609 40.6128 108.505 40.5696 108.396 40.5345C108.296 40.5005 108.193 40.4744 108.09 40.4453C107.979 40.4142 107.87 40.3821 107.758 40.356C107.653 40.332 107.546 40.3159 107.44 40.2969C107.326 40.2768 107.212 40.2558 107.096 40.2407C106.987 40.2277 106.878 40.2217 106.768 40.2126C106.63 40.2026 106.494 40.1896 106.354 40.1876H106.33L96.0282 31.7158C90.1407 32.7477 58.1009 37.114 48.8562 38.7355Z" fill="white"/>
</mask>
<g mask="url(#mask5_2089_38116)">
<path fill-rule="evenodd" clip-rule="evenodd" d="M79.1042 42.4109L50.8372 56.0792L79.1042 42.4109Z" fill="#595959"/>
</g>
<mask id="mask6_2089_38116" style="mask-type:alpha" maskUnits="userSpaceOnUse" x="42" y="31" width="72" height="27">
<path d="M48.8562 38.7355L44.6469 51.2676C42.767 51.8764 42.4619 53.522 42.4774 54.3503C42.4774 55.6098 43.0972 56.4171 44.2123 56.9416C44.6298 57.1381 45.0885 57.2775 45.5471 57.3657C45.8201 57.4179 46.0259 57.442 46.0801 57.445H113.068L113.069 47.0378C113.069 46.8041 113.057 46.5745 113.034 46.3468C113.026 46.2716 113.011 46.2004 113.001 46.1272C112.981 45.9758 112.963 45.8234 112.934 45.675C112.917 45.5887 112.891 45.5055 112.871 45.4192C112.838 45.2879 112.809 45.1555 112.77 45.0261C112.742 44.9349 112.707 44.8476 112.675 44.7584C112.633 44.6401 112.595 44.5197 112.547 44.4054C112.508 44.3121 112.462 44.2239 112.42 44.1336C112.369 44.0263 112.323 43.917 112.266 43.8127C112.22 43.7235 112.166 43.6403 112.114 43.553C112.056 43.4527 111.998 43.3504 111.934 43.2532C111.879 43.1689 111.817 43.0907 111.759 43.0095C111.689 42.9152 111.625 42.82 111.552 42.7297C111.49 42.6505 111.419 42.5783 111.354 42.5031C111.278 42.4158 111.203 42.3276 111.122 42.2453C111.053 42.1721 110.976 42.107 110.903 42.0378C110.82 41.9585 110.739 41.8783 110.651 41.8041C110.573 41.7379 110.491 41.6798 110.411 41.6176C110.32 41.5464 110.233 41.4752 110.139 41.409C110.054 41.3498 109.967 41.2987 109.882 41.2445C109.784 41.1834 109.69 41.1202 109.59 41.063C109.5 41.0129 109.407 40.9688 109.315 40.9226C109.213 40.8705 109.113 40.8163 109.009 40.7712C108.912 40.7281 108.814 40.692 108.715 40.6539C108.609 40.6128 108.505 40.5696 108.396 40.5345C108.296 40.5005 108.193 40.4744 108.09 40.4453C107.979 40.4142 107.87 40.3821 107.758 40.356C107.653 40.332 107.546 40.3159 107.44 40.2969C107.326 40.2768 107.212 40.2558 107.096 40.2407C106.987 40.2277 106.878 40.2217 106.768 40.2126C106.63 40.2026 106.494 40.1896 106.354 40.1876H106.33L96.0282 31.7158C90.1407 32.7477 58.1009 37.114 48.8562 38.7355Z" fill="white"/>
</mask>
<g mask="url(#mask6_2089_38116)">
<path fill-rule="evenodd" clip-rule="evenodd" d="M78.6178 50.667L49.3782 64.8066L78.6178 50.667Z" fill="#595959"/>
</g>
<mask id="mask7_2089_38116" style="mask-type:alpha" maskUnits="userSpaceOnUse" x="42" y="31" width="72" height="27">
<path d="M48.8562 38.7355L44.6469 51.2676C42.767 51.8764 42.4619 53.522 42.4774 54.3503C42.4774 55.6098 43.0972 56.4171 44.2123 56.9416C44.6298 57.1381 45.0885 57.2775 45.5471 57.3657C45.8201 57.4179 46.0259 57.442 46.0801 57.445H113.068L113.069 47.0378C113.069 46.8041 113.057 46.5745 113.034 46.3468C113.026 46.2716 113.011 46.2004 113.001 46.1272C112.981 45.9758 112.963 45.8234 112.934 45.675C112.917 45.5887 112.891 45.5055 112.871 45.4192C112.838 45.2879 112.809 45.1555 112.77 45.0261C112.742 44.9349 112.707 44.8476 112.675 44.7584C112.633 44.6401 112.595 44.5197 112.547 44.4054C112.508 44.3121 112.462 44.2239 112.42 44.1336C112.369 44.0263 112.323 43.917 112.266 43.8127C112.22 43.7235 112.166 43.6403 112.114 43.553C112.056 43.4527 111.998 43.3504 111.934 43.2532C111.879 43.1689 111.817 43.0907 111.759 43.0095C111.689 42.9152 111.625 42.82 111.552 42.7297C111.49 42.6505 111.419 42.5783 111.354 42.5031C111.278 42.4158 111.203 42.3276 111.122 42.2453C111.053 42.1721 110.976 42.107 110.903 42.0378C110.82 41.9585 110.739 41.8783 110.651 41.8041C110.573 41.7379 110.491 41.6798 110.411 41.6176C110.32 41.5464 110.233 41.4752 110.139 41.409C110.054 41.3498 109.967 41.2987 109.882 41.2445C109.784 41.1834 109.69 41.1202 109.59 41.063C109.5 41.0129 109.407 40.9688 109.315 40.9226C109.213 40.8705 109.113 40.8163 109.009 40.7712C108.912 40.7281 108.814 40.692 108.715 40.6539C108.609 40.6128 108.505 40.5696 108.396 40.5345C108.296 40.5005 108.193 40.4744 108.09 40.4453C107.979 40.4142 107.87 40.3821 107.758 40.356C107.653 40.332 107.546 40.3159 107.44 40.2969C107.326 40.2768 107.212 40.2558 107.096 40.2407C106.987 40.2277 106.878 40.2217 106.768 40.2126C106.63 40.2026 106.494 40.1896 106.354 40.1876H106.33L96.0282 31.7158C90.1407 32.7477 58.1009 37.114 48.8562 38.7355Z" fill="white"/>
</mask>
<g mask="url(#mask7_2089_38116)">
<path fill-rule="evenodd" clip-rule="evenodd" d="M78.6178 50.667L49.3782 64.8066L78.6178 50.667Z" fill="#C6ECF6"/>
</g>
<path fill-rule="evenodd" clip-rule="evenodd" d="M111.023 94.8283H108.344C107.736 94.8283 107.154 94.5876 106.724 94.1614C106.295 93.7342 106.055 93.1556 106.057 92.5529V89.8985C106.055 89.2968 106.295 88.7182 106.724 88.291C107.154 87.8638 107.736 87.6241 108.344 87.6241H111.023C111.631 87.6241 112.214 87.8638 112.644 88.291C113.073 88.7182 113.312 89.2968 113.31 89.8985V92.5529C113.312 93.1556 113.073 93.7342 112.644 94.1614C112.214 94.5876 111.631 94.8283 111.023 94.8283Z" fill="#999999"/>
<path fill-rule="evenodd" clip-rule="evenodd" d="M109.129 93.181H106.224C105.566 93.181 104.934 92.9173 104.468 92.448C104.004 91.9787 103.743 91.3419 103.746 90.679V87.7618C103.743 87.099 104.004 86.4622 104.468 85.9929C104.934 85.5235 105.566 85.2598 106.224 85.2598H109.129C109.787 85.2598 110.42 85.5235 110.885 85.9929C111.35 86.4622 111.611 87.099 111.608 87.7618V90.679C111.611 91.3419 111.35 91.9787 110.885 92.448C110.42 92.9173 109.787 93.181 109.129 93.181Z" fill="#595959"/>
<path fill-rule="evenodd" clip-rule="evenodd" d="M47.3972 105.488C49.3252 106.283 51.4218 107.185 51.4218 109.371C51.4218 111.421 50.098 112.816 47.7023 113.156V116.25H45.7461V113.211L45.6869 113.243C44.329 113.166 43.0222 112.711 41.9132 111.929L42.7954 110.371C43.8302 111.118 45.0727 111.529 46.3514 111.551C48.2523 111.551 49.3252 110.869 49.3252 109.663C49.3252 108.186 47.3701 107.695 45.5123 106.872C43.8302 106.131 42.2444 105.174 42.2444 103.043C42.2444 101.792 42.8917 100.748 43.9948 100.118C44.4845 99.8377 45.0546 99.6311 45.714 99.5379V96.6879H47.6692V99.5058C48.8515 99.6301 49.9796 100.065 50.9361 100.766L49.9726 102.242C49.0251 101.551 47.8819 101.171 46.7056 101.161C46.1868 101.161 45.7381 101.24 45.3648 101.384C44.6501 101.659 44.2276 102.183 44.2276 102.94C44.2276 104.228 45.7421 104.801 47.3972 105.488ZM57.8643 109.989C58.0249 109.693 58.2066 109.365 58.4063 109.01C58.9774 107.999 59.5796 106.986 60.1848 106.037C60.5843 105.413 60.9717 104.838 61.345 104.319C62.8184 102.276 63.9124 101.226 65.0746 101.326C65.1409 101.332 65.2031 101.349 65.2673 101.361C64.2436 97.7388 62.1891 94.5549 59.4321 92.1271C59.414 92.3166 59.3588 92.5041 59.2273 92.6616C58.877 93.0838 58.2487 93.1439 57.8242 92.796C52.022 88.0476 43.8623 87.3788 37.3555 91.1183C36.7222 91.4823 36.1261 91.8874 35.551 92.3166C30.6049 96.013 27.891 101.999 28.438 108.157C28.8686 107.743 29.3714 107.157 29.9325 106.416C30.2787 105.959 30.6431 105.45 31.0174 104.901C31.6437 103.984 32.271 103 32.8682 102.015C33.078 101.669 33.2686 101.349 33.4373 101.061L33.5838 100.808C33.6099 100.766 33.629 100.731 33.643 100.706C33.914 100.23 34.5232 100.061 35.002 100.331C35.4817 100.6 35.6513 101.205 35.3793 101.681C35.3402 101.751 35.2659 101.879 35.1626 102.058C34.9889 102.354 34.7922 102.683 34.5774 103.038C33.9622 104.051 33.3168 105.064 32.6685 106.012C32.277 106.588 31.8946 107.121 31.5263 107.607C30.0549 109.551 28.9519 110.626 27.871 110.707C27.8499 110.712 27.8278 110.717 27.8047 110.72C27.7094 110.736 27.616 110.73 27.5237 110.719C28.3316 114.4 30.1854 117.692 32.7728 120.261C32.815 120.164 32.8622 120.068 32.9364 119.986C33.3038 119.578 33.9351 119.545 34.3446 119.91C40.1497 125.083 48.6477 125.959 55.3983 122.079C57.9286 120.625 59.9891 118.622 61.5016 116.294C63.8341 112.704 64.8538 108.334 64.1934 103.953C63.8321 104.333 63.4186 104.847 62.9679 105.473C62.6177 105.958 62.2503 106.504 61.8699 107.099C61.2858 108.014 60.7017 108.996 60.1467 109.979C59.9519 110.324 59.7753 110.644 59.6197 110.93C59.5264 111.101 59.4622 111.223 59.428 111.285C59.1731 111.77 58.5709 111.957 58.0821 111.703C57.5944 111.449 57.4057 110.851 57.6616 110.366C57.6987 110.296 57.767 110.168 57.8643 109.989Z" fill="white"/>
<path fill-rule="evenodd" clip-rule="evenodd" d="M27.8053 110.72C27.8274 110.717 27.8505 110.712 27.8706 110.706C28.9525 110.626 30.0545 109.551 31.5269 107.608C31.8942 107.121 32.2766 106.587 32.6691 106.012C33.3164 105.064 33.9628 104.051 34.577 103.037C34.7928 102.683 34.9885 102.353 35.1622 102.057C35.2665 101.88 35.3408 101.751 35.38 101.681C35.6509 101.205 35.4813 100.6 35.0026 100.331C34.5228 100.062 33.9146 100.23 33.6426 100.706C33.6296 100.731 33.6095 100.765 33.5844 100.809L33.4369 101.061C33.2683 101.349 33.0786 101.669 32.8688 102.014C32.2706 103 31.6433 103.985 31.017 104.901C30.6427 105.451 30.2794 105.958 29.9321 106.416C29.372 107.156 28.8692 107.742 28.4386 108.157C27.8916 101.999 30.6045 96.0132 35.5516 92.3168C36.1257 91.8876 36.7228 91.4825 37.3562 91.1184C43.8619 87.3789 52.0226 88.0478 57.8238 92.7961C58.2483 93.1441 58.8776 93.0839 59.2279 92.6618C59.3584 92.5033 59.4136 92.3168 59.4327 92.1273C59.4638 91.8104 59.3584 91.4845 59.0924 91.2669C52.6489 85.9931 43.5839 85.251 36.3565 89.4036C30.2523 92.9125 26.5447 99.2893 26.3801 106.113C26.1864 105.633 25.9877 105.103 25.788 104.528C25.4257 103.483 25.0794 102.36 24.7622 101.236C24.6498 100.842 24.5515 100.477 24.4641 100.149C24.412 99.9532 24.3768 99.8148 24.3588 99.7426C24.2263 99.2121 23.6853 98.8882 23.1504 99.0206C22.6164 99.152 22.2902 99.6895 22.4237 100.221C22.4428 100.3 22.4809 100.448 22.5341 100.651C22.6244 100.989 22.7258 101.366 22.8412 101.771C23.1684 102.93 23.5257 104.089 23.9021 105.174C24.5535 107.045 25.1908 108.5 25.8251 109.425C26.2306 110.016 26.6501 110.428 27.1489 110.607C27.2593 110.668 27.3828 110.702 27.5123 110.719C27.5163 110.719 27.5203 110.718 27.5243 110.719C27.6166 110.729 27.709 110.736 27.8053 110.72ZM70.6383 111.603C70.6152 111.524 70.5711 111.379 70.5068 111.18C70.4035 110.847 70.283 110.477 70.1515 110.079C69.7722 108.94 69.3627 107.801 68.9391 106.734C68.4092 105.404 67.8933 104.28 67.3955 103.419C66.707 102.23 66.0697 101.522 65.2667 101.361C65.2035 101.348 65.1403 101.332 65.075 101.326C63.9128 101.225 62.8188 102.276 61.3454 104.319C60.9721 104.837 60.5837 105.413 60.1852 106.037C59.579 106.986 58.9778 107.999 58.4057 109.011C58.206 109.366 58.0253 109.693 57.8637 109.989C57.7674 110.168 57.6981 110.296 57.661 110.366C57.4051 110.851 57.5948 111.449 58.0825 111.703C58.5713 111.957 59.1735 111.77 59.4284 111.285C59.4616 111.223 59.5268 111.101 59.6191 110.93C59.7757 110.643 59.9524 110.324 60.1471 109.979C60.7021 108.996 61.2862 108.013 61.8703 107.099C62.2507 106.504 62.6181 105.958 62.9673 105.473C63.419 104.847 63.8325 104.332 64.1938 103.953C64.8532 108.334 63.8345 112.704 61.501 116.294C59.9895 118.622 57.929 120.625 55.3977 122.079C48.6481 125.958 40.1501 125.083 34.345 119.91C33.9355 119.544 33.3042 119.578 32.9368 119.985C32.8616 120.069 32.8144 120.164 32.7722 120.261C32.7502 120.314 32.7341 120.367 32.7221 120.424C32.6418 120.763 32.7311 121.134 33.0131 121.384C39.4606 127.13 48.9001 128.103 56.3984 123.794C62.9071 120.052 66.6698 113.07 66.3698 105.786C66.6026 106.291 66.8405 106.852 67.0834 107.462C67.4918 108.49 67.8893 109.595 68.2566 110.7C68.3861 111.087 68.5015 111.447 68.6029 111.769C68.6631 111.962 68.7053 112.098 68.7263 112.168C68.8839 112.693 69.4399 112.992 69.9669 112.835C70.4948 112.679 70.7959 112.126 70.6383 111.603Z" fill="#767676"/>
<path fill-rule="evenodd" clip-rule="evenodd" d="M42.2446 103.043C42.2446 105.174 43.8303 106.132 45.5125 106.872C47.3692 107.694 49.3254 108.187 49.3254 109.663C49.3254 110.869 48.2515 111.55 46.3515 111.55C45.0719 111.529 43.8303 111.118 42.7956 110.372L41.9133 111.929C43.0214 112.71 44.3292 113.166 45.6871 113.243L45.7463 113.211V116.25H47.7015V113.157C50.0982 112.817 51.422 111.421 51.422 109.371C51.422 107.186 49.3254 106.282 47.3973 105.488C45.7413 104.8 44.2278 104.227 44.2278 102.94C44.2278 102.184 44.6493 101.658 45.3639 101.384C45.7373 101.24 46.1869 101.161 46.7048 101.161C47.8821 101.172 49.0253 101.55 49.9727 102.243L50.9362 100.766C49.9798 100.066 48.8516 99.6306 47.6693 99.5063V96.6884H45.7142V99.5383C45.0548 99.6316 44.4837 99.8382 43.9949 100.118C42.8919 100.748 42.2446 101.792 42.2446 103.043Z" fill="#767676"/>
<path fill-rule="evenodd" clip-rule="evenodd" d="M127.152 45.8064L126.232 46.726L125.092 45.5868L123.959 46.7189L123.033 45.7933L124.165 44.6612L123.026 43.523L123.948 42.6034L125.086 43.7416L126.219 42.6094L127.145 43.535L126.012 44.6672L127.152 45.8064Z" fill="#999999"/>
</svg>
