<svg width="160" height="160" viewBox="0 0 160 160" fill="none" xmlns="http://www.w3.org/2000/svg">
<path fill-rule="evenodd" clip-rule="evenodd" d="M84.3315 129.296C123.672 123.466 129.709 114.733 135.412 105.12C146.454 86.5036 136.864 53.0889 114.179 53.2644C92.0536 57.8853 96.5962 20.2568 54.0681 32.441C27.422 40.0754 15.5346 61.7702 21.5174 82.6167C27.5003 103.463 44.991 135.125 84.3315 129.296Z" fill="#191919"/>
<path fill-rule="evenodd" clip-rule="evenodd" d="M114.875 57.8525V47.0371C114.875 42.2577 111.018 38.3809 106.258 38.3809L106.101 38.3939L46.3674 48.8723C46.3654 48.8723 46.3623 48.8733 46.3603 48.8733H46.3593C41.3902 49.7909 38.309 52.5275 37.9436 56.6681C37.9186 56.9449 37.9065 57.2267 37.9065 57.5155V105.69C37.9065 108.816 38.2016 110.656 39.4863 112.575C41.3059 115.298 44.7304 116.783 50.0909 116.783H110.718C115.476 116.777 119.327 112.902 119.327 108.125V65.4177C119.327 62.2558 117.608 59.3627 114.875 57.8525Z" fill="#5C5C5C"/>
<path fill-rule="evenodd" clip-rule="evenodd" d="M113.002 46.1267C112.982 45.9753 112.964 45.8229 112.934 45.6745C112.916 45.5882 112.891 45.505 112.87 45.4197C112.838 45.2874 112.81 45.155 112.771 45.0256C112.742 44.9354 112.707 44.8471 112.676 44.7579C112.633 44.6396 112.595 44.5192 112.547 44.4049C112.509 44.3116 112.463 44.2234 112.421 44.1331C112.369 44.0258 112.323 43.9165 112.268 43.8122C112.221 43.723 112.166 43.6398 112.114 43.5525C112.056 43.4522 111.999 43.3489 111.935 43.2517C111.88 43.1684 111.817 43.0902 111.759 43.009C111.69 42.9147 111.625 42.8185 111.552 42.7282C111.489 42.65 111.42 42.5778 111.354 42.5026C111.277 42.4153 111.203 42.3271 111.123 42.2448C111.054 42.1726 110.976 42.1065 110.903 42.0373C110.82 41.958 110.738 41.8778 110.651 41.8036C110.574 41.7384 110.492 41.6783 110.411 41.6161C110.321 41.5459 110.233 41.4737 110.138 41.4085C110.055 41.3503 109.968 41.2982 109.882 41.244C109.785 41.1829 109.69 41.1197 109.59 41.0625C109.501 41.0124 109.408 40.9683 109.315 40.9221C109.214 40.87 109.113 40.8168 109.008 40.7697C108.913 40.7276 108.813 40.6925 108.715 40.6534C108.61 40.6123 108.505 40.5691 108.397 40.533C108.297 40.5 108.192 40.4739 108.09 40.4448C107.979 40.4137 107.871 40.3816 107.758 40.3555C107.653 40.3315 107.546 40.3154 107.44 40.2974C107.326 40.2763 107.212 40.2553 107.095 40.2402C106.988 40.2272 106.877 40.2212 106.769 40.2131C106.63 40.2021 106.495 40.1891 106.354 40.1871H106.33L83.8183 44.1361L75.9085 57.4445H113.068L113.069 47.0373C113.069 46.8036 113.058 46.573 113.035 46.3463C113.027 46.2721 113.012 46.1999 113.002 46.1267Z" fill="#0D4F80"/>
<path fill-rule="evenodd" clip-rule="evenodd" d="M127.152 45.8053L126.231 46.7249L125.091 45.5857L123.958 46.7178L123.033 45.7922L124.165 44.6601L123.026 43.5219L123.947 42.6023L125.085 43.7405L126.218 42.6083L127.145 43.5339L126.012 44.6661L127.152 45.8053Z" fill="#6EE3FF"/>
<path fill-rule="evenodd" clip-rule="evenodd" d="M106.33 40.1873H106.354C106.494 40.1893 106.631 40.2024 106.768 40.2124C106.878 40.2214 106.987 40.2274 107.096 40.2405C107.212 40.2545 107.325 40.2766 107.44 40.2966C107.546 40.3157 107.653 40.3317 107.758 40.3558C107.87 40.3809 107.98 40.414 108.09 40.445C108.192 40.4741 108.296 40.5002 108.397 40.5333C108.505 40.5694 108.609 40.6125 108.715 40.6536C108.814 40.6917 108.912 40.7278 109.009 40.77C109.112 40.8161 109.213 40.8702 109.316 40.9214C109.407 40.9685 109.5 41.0126 109.59 41.0628C109.69 41.1199 109.784 41.1831 109.882 41.2443C109.967 41.2984 110.055 41.3506 110.139 41.4087C110.233 41.4739 110.321 41.5461 110.411 41.6163C110.491 41.6785 110.574 41.7377 110.652 41.8039C110.739 41.8781 110.82 41.9583 110.903 42.0375C110.977 42.1067 111.053 42.1719 111.122 42.2451C111.203 42.3273 111.278 42.4156 111.354 42.5028C111.419 42.578 111.49 42.6502 111.552 42.7284C111.624 42.8187 111.69 42.915 111.759 43.0082C111.818 43.0905 111.879 43.1687 111.934 43.2519C111.998 43.3492 112.056 43.4525 112.115 43.5528C112.165 43.639 112.22 43.7232 112.267 43.8125C112.324 43.9168 112.37 44.0261 112.42 44.1334C112.462 44.2236 112.508 44.3119 112.546 44.4051C112.595 44.5195 112.633 44.6398 112.675 44.7581C112.707 44.8474 112.742 44.9346 112.77 45.0259C112.809 45.1552 112.838 45.2876 112.871 45.42C112.891 45.5052 112.916 45.5885 112.934 45.6747C112.963 45.8231 112.982 45.9745 113.001 46.127C113.011 46.2002 113.027 46.2714 113.035 46.3466C113.057 46.5732 113.069 46.8039 113.069 47.0375L113.068 57.4437L46.0801 57.4447C46.0259 57.4407 45.8201 57.4176 45.5461 57.3645C45.0875 57.2772 44.6298 57.1379 44.2113 56.9413C43.0972 56.4168 42.4774 55.6086 42.4774 54.35C42.4619 53.5207 42.768 51.8761 44.6469 51.2664C44.7322 51.2393 44.8315 51.2072 45.0182 51.1471C45.502 50.9916 45.793 50.8923 46.0891 50.776C46.2858 50.7319 46.4826 50.6868 46.6883 50.6487C55.932 49.0271 55.932 49.0271 61.8195 47.9942L106.33 40.1873Z" fill="#0F2B4A"/>
<mask id="mask0_2089_38083" style="mask-type:alpha" maskUnits="userSpaceOnUse" x="42" y="31" width="72" height="27">
<path d="M48.8562 38.7355L44.6469 51.2677C42.767 51.8764 42.4619 53.522 42.4774 54.3503C42.4774 55.6098 43.0972 56.4171 44.2123 56.9416C44.6298 57.1381 45.0885 57.2775 45.5471 57.3658C45.8201 57.4179 46.0259 57.442 46.0801 57.445H113.068L113.069 47.0378C113.069 46.8041 113.057 46.5745 113.034 46.3468C113.026 46.2716 113.011 46.2004 113.001 46.1272C112.981 45.9758 112.963 45.8234 112.934 45.675C112.917 45.5887 112.891 45.5055 112.871 45.4192C112.838 45.2879 112.809 45.1555 112.77 45.0261C112.742 44.9349 112.707 44.8476 112.675 44.7584C112.633 44.6401 112.595 44.5197 112.547 44.4054C112.508 44.3121 112.462 44.2239 112.42 44.1336C112.369 44.0263 112.323 43.917 112.266 43.8127C112.22 43.7235 112.166 43.6403 112.114 43.553C112.056 43.4527 111.998 43.3504 111.934 43.2532C111.879 43.1689 111.817 43.0907 111.759 43.0095C111.689 42.9152 111.625 42.82 111.552 42.7297C111.49 42.6505 111.419 42.5783 111.354 42.5031C111.278 42.4158 111.203 42.3276 111.122 42.2453C111.053 42.1721 110.976 42.107 110.903 42.0378C110.82 41.9585 110.739 41.8783 110.651 41.8041C110.573 41.7379 110.491 41.6798 110.411 41.6176C110.32 41.5464 110.233 41.4752 110.139 41.409C110.054 41.3498 109.967 41.2987 109.882 41.2445C109.784 41.1834 109.69 41.1202 109.59 41.063C109.5 41.0129 109.407 40.9688 109.315 40.9226C109.213 40.8705 109.113 40.8163 109.009 40.7712C108.912 40.7281 108.814 40.692 108.715 40.6539C108.609 40.6128 108.505 40.5696 108.396 40.5346C108.296 40.5005 108.193 40.4744 108.09 40.4453C107.979 40.4142 107.87 40.3821 107.758 40.356C107.653 40.332 107.546 40.3159 107.44 40.2969C107.326 40.2768 107.212 40.2558 107.096 40.2407C106.987 40.2277 106.878 40.2217 106.768 40.2126C106.63 40.2026 106.494 40.1896 106.354 40.1876H106.33L96.0282 31.7158C90.1407 32.7477 58.1009 37.114 48.8562 38.7355Z" fill="white"/>
</mask>
<g mask="url(#mask0_2089_38083)">
<path fill-rule="evenodd" clip-rule="evenodd" d="M78.5818 52.6896L78.6561 52.6535L78.4062 57.2173L78.3089 59.7294L101.841 48.3505L99.1298 42.7538L78.5818 52.6896Z" fill="#0D4F80"/>
</g>
<mask id="mask1_2089_38083" style="mask-type:alpha" maskUnits="userSpaceOnUse" x="42" y="31" width="72" height="27">
<path d="M48.8562 38.7355L44.6469 51.2677C42.767 51.8764 42.4619 53.522 42.4774 54.3503C42.4774 55.6098 43.0972 56.4171 44.2123 56.9416C44.6298 57.1381 45.0885 57.2775 45.5471 57.3658C45.8201 57.4179 46.0259 57.442 46.0801 57.445H113.068L113.069 47.0378C113.069 46.8041 113.057 46.5745 113.034 46.3468C113.026 46.2716 113.011 46.2004 113.001 46.1272C112.981 45.9758 112.963 45.8234 112.934 45.675C112.917 45.5887 112.891 45.5055 112.871 45.4192C112.838 45.2879 112.809 45.1555 112.77 45.0261C112.742 44.9349 112.707 44.8476 112.675 44.7584C112.633 44.6401 112.595 44.5197 112.547 44.4054C112.508 44.3121 112.462 44.2239 112.42 44.1336C112.369 44.0263 112.323 43.917 112.266 43.8127C112.22 43.7235 112.166 43.6403 112.114 43.553C112.056 43.4527 111.998 43.3504 111.934 43.2532C111.879 43.1689 111.817 43.0907 111.759 43.0095C111.689 42.9152 111.625 42.82 111.552 42.7297C111.49 42.6505 111.419 42.5783 111.354 42.5031C111.278 42.4158 111.203 42.3276 111.122 42.2453C111.053 42.1721 110.976 42.107 110.903 42.0378C110.82 41.9585 110.739 41.8783 110.651 41.8041C110.573 41.7379 110.491 41.6798 110.411 41.6176C110.32 41.5464 110.233 41.4752 110.139 41.409C110.054 41.3498 109.967 41.2987 109.882 41.2445C109.784 41.1834 109.69 41.1202 109.59 41.063C109.5 41.0129 109.407 40.9688 109.315 40.9226C109.213 40.8705 109.113 40.8163 109.009 40.7712C108.912 40.7281 108.814 40.692 108.715 40.6539C108.609 40.6128 108.505 40.5696 108.396 40.5346C108.296 40.5005 108.193 40.4744 108.09 40.4453C107.979 40.4142 107.87 40.3821 107.758 40.356C107.653 40.332 107.546 40.3159 107.44 40.2969C107.326 40.2768 107.212 40.2558 107.096 40.2407C106.987 40.2277 106.878 40.2217 106.768 40.2126C106.63 40.2026 106.494 40.1896 106.354 40.1876H106.33L96.0282 31.7158C90.1407 32.7477 58.1009 37.114 48.8562 38.7355Z" fill="white"/>
</mask>
<g mask="url(#mask1_2089_38083)">
<path fill-rule="evenodd" clip-rule="evenodd" d="M102.628 49.975L53.6633 73.6524L59.8278 86.3801C61.0573 88.9182 64.1245 89.9842 66.6648 88.7557L106.415 69.5338C108.957 68.3054 110.022 65.2408 108.793 62.7027L102.628 49.975Z" fill="#E8E8E8"/>
</g>
<mask id="mask2_2089_38083" style="mask-type:alpha" maskUnits="userSpaceOnUse" x="42" y="31" width="72" height="27">
<path d="M48.8562 38.7355L44.6469 51.2677C42.767 51.8764 42.4619 53.522 42.4774 54.3503C42.4774 55.6098 43.0972 56.4171 44.2123 56.9416C44.6298 57.1381 45.0885 57.2775 45.5471 57.3658C45.8201 57.4179 46.0259 57.442 46.0801 57.445H113.068L113.069 47.0378C113.069 46.8041 113.057 46.5745 113.034 46.3468C113.026 46.2716 113.011 46.2004 113.001 46.1272C112.981 45.9758 112.963 45.8234 112.934 45.675C112.917 45.5887 112.891 45.5055 112.871 45.4192C112.838 45.2879 112.809 45.1555 112.77 45.0261C112.742 44.9349 112.707 44.8476 112.675 44.7584C112.633 44.6401 112.595 44.5197 112.547 44.4054C112.508 44.3121 112.462 44.2239 112.42 44.1336C112.369 44.0263 112.323 43.917 112.266 43.8127C112.22 43.7235 112.166 43.6403 112.114 43.553C112.056 43.4527 111.998 43.3504 111.934 43.2532C111.879 43.1689 111.817 43.0907 111.759 43.0095C111.689 42.9152 111.625 42.82 111.552 42.7297C111.49 42.6505 111.419 42.5783 111.354 42.5031C111.278 42.4158 111.203 42.3276 111.122 42.2453C111.053 42.1721 110.976 42.107 110.903 42.0378C110.82 41.9585 110.739 41.8783 110.651 41.8041C110.573 41.7379 110.491 41.6798 110.411 41.6176C110.32 41.5464 110.233 41.4752 110.139 41.409C110.054 41.3498 109.967 41.2987 109.882 41.2445C109.784 41.1834 109.69 41.1202 109.59 41.063C109.5 41.0129 109.407 40.9688 109.315 40.9226C109.213 40.8705 109.113 40.8163 109.009 40.7712C108.912 40.7281 108.814 40.692 108.715 40.6539C108.609 40.6128 108.505 40.5696 108.396 40.5346C108.296 40.5005 108.193 40.4744 108.09 40.4453C107.979 40.4142 107.87 40.3821 107.758 40.356C107.653 40.332 107.546 40.3159 107.44 40.2969C107.326 40.2768 107.212 40.2558 107.096 40.2407C106.987 40.2277 106.878 40.2217 106.768 40.2126C106.63 40.2026 106.494 40.1896 106.354 40.1876H106.33L96.0282 31.7158C90.1407 32.7477 58.1009 37.114 48.8562 38.7355Z" fill="white"/>
</mask>
<g mask="url(#mask2_2089_38083)">
<path fill-rule="evenodd" clip-rule="evenodd" d="M106.416 69.5342L66.6656 88.7551C64.1243 89.9846 61.0581 88.9186 59.8287 86.3795L53.6632 73.6528L102.629 49.9754L108.793 62.7031C110.023 65.2412 108.957 68.3058 106.416 69.5342ZM48.8567 65.8118L78.6573 50.7696L78.583 52.69L99.13 42.7541L101.841 48.3508L78.309 59.7297L78.2679 60.7977L52.8713 72.8315L48.8567 65.8118ZM50.8379 56.0795L79.105 42.4112L90.5878 36.8586C93.1291 35.6292 96.1953 36.6952 97.4248 39.2343L98.3431 41.1296L78.6192 50.6673L49.3786 64.807L48.4602 62.9107C47.2307 60.3726 48.2966 57.308 50.8379 56.0795ZM110.419 61.9159L104.255 49.1882L99.97 40.3424L99.0517 38.4471C97.3886 35.0124 93.2385 33.5714 89.801 35.2331L50.051 54.455C46.6135 56.1176 45.1702 60.2632 46.8343 63.6979L47.7516 65.5932L48.2233 66.5659L52.0362 74.439L58.2017 87.1667C59.8648 90.6013 64.0149 92.0424 67.4525 90.3807L107.202 71.1588C110.64 69.4961 112.083 65.3505 110.419 61.9159Z" fill="#5C5C5C"/>
</g>
<mask id="mask3_2089_38083" style="mask-type:alpha" maskUnits="userSpaceOnUse" x="42" y="31" width="72" height="27">
<path d="M48.8562 38.7355L44.6469 51.2677C42.767 51.8764 42.4619 53.522 42.4774 54.3503C42.4774 55.6098 43.0972 56.4171 44.2123 56.9416C44.6298 57.1381 45.0885 57.2775 45.5471 57.3658C45.8201 57.4179 46.0259 57.442 46.0801 57.445H113.068L113.069 47.0378C113.069 46.8041 113.057 46.5745 113.034 46.3468C113.026 46.2716 113.011 46.2004 113.001 46.1272C112.981 45.9758 112.963 45.8234 112.934 45.675C112.917 45.5887 112.891 45.5055 112.871 45.4192C112.838 45.2879 112.809 45.1555 112.77 45.0261C112.742 44.9349 112.707 44.8476 112.675 44.7584C112.633 44.6401 112.595 44.5197 112.547 44.4054C112.508 44.3121 112.462 44.2239 112.42 44.1336C112.369 44.0263 112.323 43.917 112.266 43.8127C112.22 43.7235 112.166 43.6403 112.114 43.553C112.056 43.4527 111.998 43.3504 111.934 43.2532C111.879 43.1689 111.817 43.0907 111.759 43.0095C111.689 42.9152 111.625 42.82 111.552 42.7297C111.49 42.6505 111.419 42.5783 111.354 42.5031C111.278 42.4158 111.203 42.3276 111.122 42.2453C111.053 42.1721 110.976 42.107 110.903 42.0378C110.82 41.9585 110.739 41.8783 110.651 41.8041C110.573 41.7379 110.491 41.6798 110.411 41.6176C110.32 41.5464 110.233 41.4752 110.139 41.409C110.054 41.3498 109.967 41.2987 109.882 41.2445C109.784 41.1834 109.69 41.1202 109.59 41.063C109.5 41.0129 109.407 40.9688 109.315 40.9226C109.213 40.8705 109.113 40.8163 109.009 40.7712C108.912 40.7281 108.814 40.692 108.715 40.6539C108.609 40.6128 108.505 40.5696 108.396 40.5346C108.296 40.5005 108.193 40.4744 108.09 40.4453C107.979 40.4142 107.87 40.3821 107.758 40.356C107.653 40.332 107.546 40.3159 107.44 40.2969C107.326 40.2768 107.212 40.2558 107.096 40.2407C106.987 40.2277 106.878 40.2217 106.768 40.2126C106.63 40.2026 106.494 40.1896 106.354 40.1876H106.33L96.0282 31.7158C90.1407 32.7477 58.1009 37.114 48.8562 38.7355Z" fill="white"/>
</mask>
<g mask="url(#mask3_2089_38083)">
<path fill-rule="evenodd" clip-rule="evenodd" d="M97.424 39.2339C96.1945 36.6958 93.1283 35.6288 90.587 36.8583L79.1042 42.4108L50.8371 56.0792C48.2958 57.3076 47.2299 60.3732 48.4594 62.9103L49.3778 64.8066L78.6184 50.667L98.3423 41.1292L97.424 39.2339Z" fill="#E8E8E8"/>
</g>
<path fill-rule="evenodd" clip-rule="evenodd" d="M44.342 108.977V65.3038C44.342 62.6263 45.9178 60.3219 48.1901 59.2489H46.0322C45.3628 59.2128 44.4123 59.0302 43.4428 58.574C41.7415 57.7737 40.6706 56.3778 40.6716 54.3662C40.6696 54.2559 40.6716 54.1496 40.6767 54.0463C40.6295 54.1205 40.5853 54.1987 40.5402 54.2749C40.4398 54.4474 40.3485 54.6249 40.2652 54.8084C40.2431 54.8585 40.218 54.9077 40.1959 54.9578C40.1006 55.1885 40.0193 55.4271 39.952 55.6728C39.936 55.73 39.9259 55.7902 39.9119 55.8483C39.8627 56.0479 39.8236 56.2535 39.7934 56.463C39.7824 56.5383 39.7714 56.6125 39.7633 56.6877C39.7332 56.9564 39.7132 57.2302 39.7132 57.515V105.689C39.7132 108.476 39.9661 110.042 40.9878 111.573C41.1534 111.82 41.3431 112.053 41.5468 112.276C41.6271 112.363 41.7175 112.444 41.8038 112.527C41.9332 112.652 42.0627 112.775 42.2052 112.89C42.3297 112.993 42.4632 113.09 42.5997 113.184C42.7131 113.264 42.8315 113.342 42.954 113.417C43.1266 113.522 43.3032 113.625 43.4909 113.721C43.5752 113.763 43.6656 113.802 43.7519 113.842C44.8519 114.349 46.1978 114.698 47.8348 114.86C45.7532 113.723 44.342 111.515 44.342 108.977Z" fill="#E8E8E8"/>
<path fill-rule="evenodd" clip-rule="evenodd" d="M113.59 59.2221L113.525 59.193C113.426 59.2301 113.319 59.2502 113.207 59.2502L46.0314 59.2482H48.1903C45.918 60.3222 44.3423 62.6267 44.3423 65.3042V108.978C44.3423 111.515 45.7534 113.723 47.835 114.86C46.6276 114.741 45.5818 114.519 44.6745 114.207C46.1067 114.704 47.8832 114.977 50.0912 114.977H79.7273H110.718C114.475 114.973 117.521 111.908 117.521 108.126V65.4175C117.521 62.759 115.987 60.3422 113.59 59.2221ZM44.6744 114.207C44.6443 114.197 44.6132 114.186 44.583 114.176C44.6132 114.186 44.6443 114.197 44.6744 114.207ZM44.5832 114.176C44.2932 114.074 44.0152 113.963 43.7522 113.842C44.0142 113.963 44.2942 114.073 44.5832 114.176Z" fill="white"/>
<path fill-rule="evenodd" clip-rule="evenodd" d="M113.589 59.2221L113.524 59.193C113.426 59.2301 113.318 59.2502 113.207 59.2502H111.798L79.7268 114.977H110.718C114.475 114.973 117.521 111.908 117.521 108.126V65.4175C117.521 62.759 115.986 60.3422 113.589 59.2221Z" fill="#E8E8E8"/>
<path fill-rule="evenodd" clip-rule="evenodd" d="M27.524 110.719C27.52 110.719 27.516 110.719 27.512 110.719C28.3109 114.43 30.1556 117.8 32.722 120.423C32.734 120.367 32.7501 120.314 32.7722 120.26C30.1847 117.692 28.332 114.399 27.524 110.719Z" fill="#F8C7BA"/>
<path fill-rule="evenodd" clip-rule="evenodd" d="M44.2276 102.94C44.2276 104.227 45.7421 104.8 47.3972 105.487C49.3252 106.282 51.4218 107.185 51.4218 109.371C51.4218 111.421 50.099 112.816 47.7023 113.156V116.249H45.7471V113.211L45.6869 113.243C44.33 113.166 43.0222 112.71 41.9132 111.928L42.7954 110.371C43.8302 111.118 45.0727 111.529 46.3513 111.55C48.2523 111.55 49.3252 110.868 49.3252 109.663C49.3252 108.186 47.3701 107.694 45.5123 106.872C43.8302 106.131 42.2444 105.173 42.2444 103.043C42.2444 101.792 42.8917 100.748 43.9958 100.118L35.551 92.316C30.6049 96.0124 27.892 101.999 28.439 108.156C28.8686 107.742 29.3714 107.157 29.9325 106.416C30.2797 105.958 30.6431 105.45 31.0174 104.9C31.6437 103.984 32.271 102.999 32.8692 102.014C33.079 101.668 33.2686 101.348 33.4373 101.061L33.5848 100.809C33.6099 100.766 33.629 100.731 33.643 100.706C33.915 100.229 34.5232 100.061 35.003 100.331C35.4817 100.6 35.6513 101.204 35.3803 101.68C35.3412 101.75 35.2659 101.879 35.1626 102.057C34.9889 102.353 34.7932 102.682 34.5774 103.037C33.9622 104.05 33.3168 105.064 32.6685 106.011C32.277 106.587 31.8946 107.121 31.5273 107.607C30.0549 109.55 28.9519 110.625 27.871 110.707C27.8509 110.712 27.8278 110.717 27.8057 110.72C27.7094 110.736 27.616 110.73 27.5237 110.719C28.3316 114.399 30.1854 117.691 32.7728 120.26C32.815 120.163 32.8622 120.068 32.9364 119.986C33.3038 119.577 33.9351 119.544 34.3446 119.909C40.1507 125.083 48.6477 125.958 55.3983 122.078C57.9286 120.624 59.9891 118.622 61.5016 116.293L45.3648 101.383C44.6501 101.658 44.2276 102.183 44.2276 102.94Z" fill="white"/>
<path fill-rule="evenodd" clip-rule="evenodd" d="M47.3972 105.487C49.3252 106.282 51.4218 107.185 51.4218 109.371C51.4218 111.421 50.098 112.816 47.7023 113.156V116.249H45.7461V113.211L45.6869 113.243C44.329 113.166 43.0222 112.71 41.9132 111.928L42.7954 110.371C43.8302 111.118 45.0727 111.529 46.3514 111.55C48.2523 111.55 49.3252 110.868 49.3252 109.663C49.3252 108.186 47.3701 107.694 45.5123 106.872C43.8302 106.131 42.2444 105.173 42.2444 103.042C42.2444 101.792 42.8917 100.748 43.9948 100.118C44.4845 99.8373 45.0546 99.6307 45.714 99.5374V96.6874H47.6692V99.5054C48.8515 99.6297 49.9796 100.065 50.9361 100.766L49.9726 102.242C49.0251 101.55 47.8819 101.171 46.7056 101.161C46.1868 101.161 45.7381 101.239 45.3648 101.384C44.6501 101.658 44.2276 102.183 44.2276 102.94C44.2276 104.228 45.7421 104.8 47.3972 105.487ZM57.8643 109.989C58.0249 109.693 58.2066 109.365 58.4063 109.01C58.9774 107.998 59.5796 106.985 60.1848 106.037C60.5843 105.413 60.9717 104.837 61.345 104.319C62.8184 102.275 63.9124 101.225 65.0746 101.325C65.1409 101.331 65.2031 101.349 65.2673 101.361C64.2436 97.7384 62.1891 94.5545 59.4321 92.1267C59.414 92.3162 59.3588 92.5037 59.2273 92.6612C58.877 93.0833 58.2487 93.1435 57.8242 92.7955C52.022 88.0472 43.8623 87.3783 37.3556 91.1178C36.7222 91.4818 36.1261 91.887 35.551 92.3162C30.6049 96.0126 27.891 101.998 28.438 108.157C28.8686 107.742 29.3714 107.157 29.9325 106.416C30.2787 105.958 30.6431 105.45 31.0174 104.9C31.6437 103.984 32.271 102.999 32.8682 102.014C33.078 101.668 33.2686 101.349 33.4373 101.061L33.5838 100.808C33.6099 100.766 33.629 100.731 33.643 100.706C33.914 100.229 34.5232 100.061 35.002 100.331C35.4817 100.599 35.6513 101.204 35.3793 101.68C35.3402 101.751 35.2659 101.879 35.1626 102.058C34.9889 102.353 34.7922 102.682 34.5774 103.037C33.9622 104.05 33.3168 105.064 32.6685 106.012C32.277 106.587 31.8946 107.121 31.5263 107.607C30.0549 109.551 28.9519 110.626 27.871 110.707C27.8499 110.712 27.8278 110.717 27.8047 110.72C27.7094 110.736 27.616 110.73 27.5237 110.719C28.3316 114.399 30.1854 117.691 32.7728 120.261C32.815 120.163 32.8622 120.068 32.9364 119.986C33.3038 119.578 33.9351 119.545 34.3446 119.91C40.1497 125.083 48.6477 125.959 55.3983 122.079C57.9286 120.625 59.9891 118.622 61.5016 116.293C63.8341 112.703 64.8538 108.333 64.1934 103.953C63.8321 104.333 63.4186 104.846 62.9679 105.472C62.6177 105.957 62.2503 106.504 61.8699 107.099C61.2858 108.013 60.7017 108.996 60.1467 109.979C59.9519 110.324 59.7753 110.644 59.6197 110.929C59.5264 111.101 59.4622 111.222 59.428 111.284C59.1731 111.77 58.5709 111.956 58.0821 111.703C57.5944 111.449 57.4057 110.85 57.6616 110.366C57.6987 110.296 57.767 110.167 57.8643 109.989Z" fill="white"/>
<path fill-rule="evenodd" clip-rule="evenodd" d="M27.8053 110.72C27.8274 110.717 27.8505 110.712 27.8706 110.706C28.9525 110.626 30.0545 109.551 31.5269 107.607C31.8942 107.121 32.2766 106.586 32.6691 106.012C33.3164 105.063 33.9628 104.05 34.577 103.036C34.7928 102.682 34.9885 102.353 35.1622 102.057C35.2665 101.879 35.3408 101.751 35.38 101.681C35.6509 101.204 35.4813 100.6 35.0026 100.331C34.5228 100.061 33.9146 100.23 33.6426 100.706C33.6296 100.731 33.6095 100.765 33.5844 100.808L33.4369 101.061C33.2683 101.349 33.0786 101.669 32.8688 102.014C32.2706 102.999 31.6433 103.984 31.017 104.901C30.6427 105.45 30.2794 105.958 29.9321 106.416C29.372 107.156 28.8692 107.742 28.4386 108.157C27.8916 101.999 30.6045 96.0127 35.5516 92.3164C36.1257 91.8872 36.7228 91.482 37.3562 91.118C43.8619 87.3785 52.0226 88.0474 57.8238 92.7957C58.2483 93.1437 58.8776 93.0835 59.2279 92.6613C59.3584 92.5029 59.4136 92.3164 59.4327 92.1268C59.4638 91.8099 59.3584 91.484 59.0924 91.2664C52.6489 85.9926 43.5839 85.2506 36.3565 89.4032C30.2523 92.912 26.5447 99.2889 26.3801 106.113C26.1864 105.633 25.9877 105.102 25.788 104.528C25.4257 103.483 25.0794 102.36 24.7622 101.235C24.6498 100.841 24.5515 100.476 24.4641 100.148C24.412 99.9528 24.3768 99.8144 24.3588 99.7422C24.2263 99.2117 23.6853 98.8878 23.1504 99.0202C22.6164 99.1515 22.2902 99.689 22.4237 100.221C22.4428 100.3 22.4809 100.447 22.5341 100.651C22.6244 100.989 22.7258 101.366 22.8412 101.771C23.1684 102.929 23.5257 104.088 23.9021 105.173C24.5535 107.045 25.1908 108.5 25.8251 109.424C26.2306 110.016 26.6501 110.427 27.1489 110.607C27.2593 110.668 27.3828 110.702 27.5123 110.719C27.5163 110.719 27.5203 110.718 27.5243 110.719C27.6166 110.729 27.709 110.736 27.8053 110.72ZM70.6383 111.602C70.6152 111.523 70.5711 111.379 70.5068 111.179C70.4035 110.846 70.283 110.476 70.1515 110.078C69.7722 108.94 69.3627 107.801 68.9391 106.734C68.4092 105.404 67.8933 104.28 67.3955 103.418C66.707 102.23 66.0697 101.521 65.2667 101.361C65.2035 101.348 65.1403 101.332 65.075 101.326C63.9128 101.224 62.8188 102.275 61.3454 104.319C60.9721 104.836 60.5837 105.413 60.1852 106.037C59.579 106.985 58.9778 107.998 58.4057 109.01C58.206 109.365 58.0253 109.693 57.8637 109.989C57.7674 110.167 57.6981 110.296 57.661 110.366C57.4051 110.85 57.5948 111.449 58.0825 111.703C58.5713 111.956 59.1735 111.77 59.4284 111.284C59.4616 111.222 59.5268 111.101 59.6191 110.929C59.7757 110.643 59.9524 110.324 60.1471 109.979C60.7021 108.996 61.2862 108.012 61.8703 107.099C62.2507 106.504 62.6181 105.958 62.9673 105.472C63.419 104.846 63.8325 104.332 64.1938 103.953C64.8532 108.333 63.8345 112.703 61.501 116.294C59.9895 118.622 57.929 120.625 55.3977 122.079C48.6481 125.958 40.1501 125.082 34.345 119.91C33.9355 119.544 33.3042 119.578 32.9368 119.985C32.8616 120.068 32.8144 120.163 32.7722 120.261C32.7502 120.314 32.7341 120.367 32.7221 120.423C32.6418 120.763 32.7311 121.134 33.0131 121.384C39.4606 127.13 48.9001 128.103 56.3984 123.794C62.9071 120.052 66.6698 113.069 66.3698 105.786C66.6026 106.29 66.8405 106.852 67.0834 107.462C67.4918 108.49 67.8893 109.595 68.2566 110.7C68.3861 111.087 68.5015 111.447 68.6029 111.769C68.6631 111.961 68.7053 112.098 68.7263 112.168C68.8839 112.692 69.4399 112.991 69.9669 112.835C70.4948 112.678 70.7959 112.126 70.6383 111.602Z" fill="#EC0000"/>
<path fill-rule="evenodd" clip-rule="evenodd" d="M42.2446 103.043C42.2446 105.174 43.8303 106.131 45.5125 106.871C47.3692 107.694 49.3254 108.186 49.3254 109.662C49.3254 110.869 48.2515 111.55 46.3515 111.55C45.0719 111.529 43.8303 111.117 42.7956 110.371L41.9133 111.929C43.0214 112.71 44.3292 113.165 45.6871 113.242L45.7463 113.21V116.25H47.7015V113.156C50.0982 112.816 51.422 111.42 51.422 109.37C51.422 107.185 49.3254 106.282 47.3973 105.488C45.7413 104.8 44.2278 104.227 44.2278 102.939C44.2278 102.183 44.6493 101.658 45.3639 101.383C45.7373 101.24 46.1869 101.16 46.7048 101.16C47.8821 101.171 49.0253 101.55 49.9727 102.243L50.9362 100.765C49.9798 100.065 48.8516 99.6302 47.6693 99.5058V96.6879H45.7142V99.5379C45.0548 99.6312 44.4837 99.8378 43.9949 100.118C42.8919 100.747 42.2446 101.791 42.2446 103.043Z" fill="#EC0000"/>
<path fill-rule="evenodd" clip-rule="evenodd" d="M111.023 94.8278H108.344C107.736 94.8278 107.154 94.5871 106.724 94.1609C106.295 93.7337 106.055 93.1551 106.057 92.5524V89.8979C106.055 89.2963 106.295 88.7176 106.724 88.2904C107.154 87.8632 107.736 87.6236 108.344 87.6236H111.023C111.631 87.6236 112.214 87.8632 112.644 88.2904C113.073 88.7176 113.312 89.2963 113.31 89.8979V92.5524C113.312 93.1551 113.073 93.7337 112.644 94.1609C112.214 94.5871 111.631 94.8278 111.023 94.8278Z" fill="#6EE3FF"/>
<path fill-rule="evenodd" clip-rule="evenodd" d="M109.129 93.1806H106.224C105.566 93.1806 104.934 92.9169 104.468 92.4476C104.004 91.9782 103.743 91.3415 103.746 90.6786V87.7614C103.743 87.0986 104.004 86.4618 104.468 85.9925C104.934 85.5231 105.566 85.2594 106.224 85.2594H109.129C109.787 85.2594 110.42 85.5231 110.885 85.9925C111.35 86.4618 111.611 87.0986 111.608 87.7614V90.6786C111.611 91.3415 111.35 91.9782 110.885 92.4476C110.42 92.9169 109.787 93.1806 109.129 93.1806Z" fill="#0F2B4A"/>
</svg>
