<svg width="160" height="160" viewBox="0 0 160 160" fill="none" xmlns="http://www.w3.org/2000/svg">
<path fill-rule="evenodd" clip-rule="evenodd" d="M85.3455 131.47C123.115 126.341 128.726 117.414 133.994 107.566C144.196 88.4936 134.169 53.5715 112.316 53.2199C91.1066 57.4989 94.5952 18.5318 53.9055 30.1843C28.4106 37.4864 17.4669 59.7353 23.7219 81.5231C29.9779 103.311 47.576 136.599 85.3455 131.47" fill="#191919"/>
<path fill-rule="evenodd" clip-rule="evenodd" d="M37.4643 58.3269H40.8302V56.5184H37.4643V58.3269Z" fill="#0D4F80"/>
<path fill-rule="evenodd" clip-rule="evenodd" d="M42.4476 54.9017H44.2583V51.541H42.4476V54.9017Z" fill="#0D4F80"/>
<path fill-rule="evenodd" clip-rule="evenodd" d="M45.8774 58.3269H49.2433V56.5184H45.8774V58.3269Z" fill="#0D4F80"/>
<path fill-rule="evenodd" clip-rule="evenodd" d="M42.4477 63.3038H44.2584V59.9421H42.4477V63.3038Z" fill="#0D4F80"/>
<path fill-rule="evenodd" clip-rule="evenodd" d="M120.111 86.8095L122.429 86.8185L122.437 85.011L120.119 85L120.111 86.8095Z" fill="#EC0000"/>
<path fill-rule="evenodd" clip-rule="evenodd" d="M123.274 84.2648L125.085 84.2729L125.095 82.0676L123.284 82.0605L123.274 84.2648Z" fill="#EC0000"/>
<path fill-rule="evenodd" clip-rule="evenodd" d="M125.915 85.0255L125.907 86.834L128.224 86.844L128.232 85.0356L125.915 85.0255Z" fill="#EC0000"/>
<path fill-rule="evenodd" clip-rule="evenodd" d="M123.248 89.7764L125.059 89.7835L125.069 87.5792L123.259 87.5721L123.248 89.7764Z" fill="#EC0000"/>
<path fill-rule="evenodd" clip-rule="evenodd" d="M45.9452 88.7162H45.8862C45.9062 88.7402 45.9272 88.7632 45.9452 88.7882V88.7162Z" fill="white"/>
<path fill-rule="evenodd" clip-rule="evenodd" d="M111.796 69.1051C109.169 67.6905 106.202 66.942 103.216 66.942C99.9305 66.942 96.7065 67.8462 93.8908 69.5552C89.1558 72.4307 86.0595 77.3436 85.4428 82.7509C85.5334 83.5496 85.5726 84.3594 85.5525 85.1752C85.5474 85.3631 85.5032 85.5419 85.4428 85.7137C85.5857 86.1126 85.8633 86.4572 86.2486 86.6652C88.8751 88.0798 91.8417 88.8273 94.8304 88.8273C98.1138 88.8273 101.338 87.924 104.154 86.214C109.589 82.9136 112.868 76.9297 112.713 70.5941C112.697 69.9702 112.348 69.4025 111.796 69.1051" fill="#0D0D0D"/>
<path fill-rule="evenodd" clip-rule="evenodd" d="M85.4431 82.7507C84.8254 77.3444 81.7281 72.4305 76.9941 69.5561C74.1784 67.8461 70.9543 66.9418 67.6689 66.9418C64.6812 66.9418 61.7147 67.6903 59.0891 69.1049C58.5369 69.4023 58.1868 69.971 58.1717 70.5949C58.0168 76.9295 61.2962 82.9145 66.7304 86.2149C69.546 87.9239 72.7701 88.8271 76.0555 88.8271C79.0422 88.8271 82.0097 88.0806 84.6353 86.665C85.0206 86.457 85.2992 86.1134 85.4431 85.7145C85.5044 85.5417 85.5477 85.3629 85.5527 85.175C85.5728 84.3592 85.5336 83.5494 85.4431 82.7507V82.7507ZM85.4431 58.5875C85.5869 58.9864 85.8635 59.331 86.2498 59.538C88.8754 60.9536 91.8419 61.7011 94.8306 61.7011C98.115 61.7011 101.339 60.7978 104.155 59.0879C109.589 55.7874 112.869 49.8025 112.713 43.4679C112.698 42.844 112.348 42.2763 111.796 41.9789C109.169 40.5643 106.203 39.8148 103.216 39.8148C99.9308 39.8148 96.7067 40.719 93.891 42.429C89.156 45.3035 86.0597 50.2174 85.4431 55.6237C85.5336 56.4234 85.5728 57.2322 85.5527 58.048C85.5477 58.2359 85.5044 58.4157 85.4431 58.5875" fill="#0D0D0D"/>
<path fill-rule="evenodd" clip-rule="evenodd" d="M66.7303 59.0879C69.546 60.7978 72.7701 61.7011 76.0555 61.7011C79.0412 61.7011 82.0087 60.9536 84.6352 59.538C85.0205 59.331 85.2992 58.9864 85.443 58.5875C85.5034 58.4157 85.5477 58.2359 85.5527 58.048C85.5718 57.2322 85.5326 56.4234 85.443 55.6237C84.8244 50.2174 81.727 45.3035 76.993 42.429C74.1774 40.719 70.9533 39.8148 67.6689 39.8148C64.6812 39.8148 61.7146 40.5643 59.0881 41.9789C58.5358 42.2763 58.1868 42.844 58.1707 43.4679C58.0168 49.8025 61.2962 55.7874 66.7303 59.0879" fill="#0D0D0D"/>
<path fill-rule="evenodd" clip-rule="evenodd" d="M103.089 69.0492C99.755 69.0492 96.4816 69.9735 93.6237 71.7217C90.3674 73.715 87.8757 76.6477 86.411 80.0637L86.3205 61.4597C88.4531 62.2997 90.7467 62.7628 93.0242 62.7628C96.3599 62.7628 99.6333 61.8385 102.488 60.0893C107.629 56.9457 110.871 51.461 111.163 45.4188L111.194 44.8049L110.633 44.5508C108.277 43.4848 105.669 42.9211 103.089 42.9211C99.753 42.9211 96.4796 43.8455 93.6237 45.5946C89.4078 48.1747 86.4734 52.3281 85.39 57.0692C84.3086 52.3271 81.3722 48.1737 77.1583 45.5956C74.3024 43.8465 71.029 42.9211 67.6933 42.9211C65.114 42.9211 62.5046 43.4848 60.1497 44.5508L59.5883 44.8039L59.6175 45.4178C59.9102 51.46 63.1534 56.9457 68.2928 60.0903C71.1517 61.8395 74.4241 62.7638 77.7568 62.7638C80.0524 62.7638 82.3631 62.2936 84.5088 61.4417L84.6023 80.6403C83.1769 76.9792 80.5956 73.8265 77.1583 71.7217C74.3014 69.9735 71.029 69.0492 67.6933 69.0492C65.11 69.0492 62.5016 69.6128 60.1486 70.6778L59.5883 70.932L59.6175 71.5459C59.9102 77.5881 63.1534 83.0737 68.2928 86.2184C71.1528 87.9676 74.4251 88.8919 77.7568 88.8919C80.0967 88.8919 82.4536 88.4046 84.6355 87.5205L84.713 103.542C84.716 104.041 85.1214 104.443 85.6193 104.443H85.6234C86.1233 104.44 86.5267 104.034 86.5247 103.534L86.4472 87.638C88.5447 88.4448 90.7919 88.8919 93.0252 88.8919H93.0332C96.3599 88.8919 99.6292 87.9676 102.488 86.2184H102.489C107.63 83.0717 110.872 77.5871 111.163 71.5459L111.194 70.931L110.632 70.6778C108.276 69.6128 105.668 69.0492 103.089 69.0492" fill="#5C5C5C"/>
<path fill-rule="evenodd" clip-rule="evenodd" d="M101.541 84.6763H101.542C98.9661 86.2517 96.0247 87.0836 93.032 87.0836H93.0239C90.9094 87.0836 88.7708 86.6626 86.8001 85.8599C87.2437 80.6656 90.1157 75.9898 94.5681 73.264C97.1413 71.6897 100.088 70.8578 103.087 70.8578C105.204 70.8578 107.344 71.2798 109.312 72.0795C108.866 77.2768 105.995 81.9516 101.541 84.6763V84.6763ZM69.2372 84.6763C64.7859 81.9526 61.9139 77.2778 61.4672 72.0795C63.4339 71.2788 65.5725 70.8578 67.6921 70.8578C70.6928 70.8578 73.6393 71.6897 76.2095 73.264C80.6628 75.9898 83.5348 80.6656 83.9804 85.8599C79.2122 87.7989 73.6272 87.3619 69.2372 84.6763" fill="#C6EDF6" fill-opacity="0.8"/>
<path fill-rule="evenodd" clip-rule="evenodd" d="M77.7556 60.9552C74.7569 60.9552 71.8114 60.1233 69.2372 58.5479C64.7859 55.8242 61.9139 51.1494 61.4672 45.9521C63.4369 45.1513 65.5755 44.7294 67.6921 44.7294C70.6938 44.7294 73.6403 45.5623 76.2105 47.1376C80.6628 49.8613 83.5348 54.5352 83.9804 59.7315C82.0098 60.5332 79.8701 60.9552 77.7556 60.9552ZM94.5691 47.1366C97.1393 45.5613 100.086 44.7294 103.087 44.7294C105.205 44.7294 107.344 45.1513 109.312 45.9521C108.865 51.1494 105.994 55.8242 101.541 58.5479C98.9691 60.1223 96.0247 60.9552 93.0229 60.9552C90.9094 60.9552 88.7698 60.5332 86.7991 59.7315C87.2447 54.5362 90.1167 49.8613 94.5691 47.1366" fill="white"/>
<path fill-rule="evenodd" clip-rule="evenodd" d="M37.7594 94.5549C36.6488 94.5549 35.7475 95.4551 35.7475 96.5643C35.7475 97.6735 36.6488 98.5737 37.7594 98.5737C38.87 98.5737 39.7713 97.6735 39.7713 96.5643C39.7713 95.4551 38.87 94.5549 37.7594 94.5549Z" fill="#6EE3FF"/>
<path fill-rule="evenodd" clip-rule="evenodd" d="M26.6086 89.6651C26.1086 89.6651 25.7032 89.2602 25.7032 88.7609C25.7032 88.7448 25.7112 88.7317 25.7112 88.7167H25.3481L32.087 123.317H32.1272C32.1524 122.84 32.5396 122.457 33.0245 122.457H36.3472L30.7822 89.6651H26.6086Z" fill="#0D0D0D"/>
<path fill-rule="evenodd" clip-rule="evenodd" d="M37.7589 98.5735C36.6484 98.5735 35.747 97.6733 35.747 96.5642C35.747 95.455 36.6484 94.5548 37.7589 94.5548C38.8695 94.5548 39.7708 95.455 39.7708 96.5642C39.7708 97.6733 38.8695 98.5735 37.7589 98.5735ZM44.1105 89.6649H30.7827L36.3476 122.457H44.1105C44.3751 122.457 44.5904 122.242 44.5904 121.977V90.1442C44.5904 89.8799 44.3751 89.6649 44.1105 89.6649" fill="#0D4F80"/>
<path fill-rule="evenodd" clip-rule="evenodd" d="M47.0909 117.503L53.4616 119.005L46.4018 117.142V117.345C46.4018 117.345 46.8454 117.445 47.0909 117.503V117.503ZM115.682 107.55C115.614 107.677 115.521 107.814 115.41 107.957C115.521 107.814 115.614 107.677 115.682 107.55Z" fill="#FEDAC6"/>
<path fill-rule="evenodd" clip-rule="evenodd" d="M117.293 105.212C115.767 102.447 112.589 99.2454 102.597 103.356C98.8514 104.896 94.8859 106.408 90.7454 107.88V106.004C90.7454 103.476 86.4238 102.711 80.4424 101.652C75.2719 100.735 68.8368 99.597 67.0371 97.1747C64.2929 93.4825 59.9301 91.7564 54.0704 92.0397L46.6354 94.1204C46.5479 94.1456 46.4755 94.1938 46.401 94.241V90.1449C46.401 89.6355 46.227 89.1693 45.9443 88.7885C45.9272 88.7634 45.9051 88.7403 45.886 88.7162C45.4655 88.1958 44.8308 87.8572 44.1105 87.8572H26.609C26.1241 87.8572 25.7358 88.239 25.7116 88.7162C25.7116 88.7323 25.7026 88.7453 25.7026 88.7604C25.7026 89.2607 26.108 89.6646 26.609 89.6646H30.7826H44.1105C44.3751 89.6646 44.5903 89.8806 44.5903 90.1449V121.978C44.5903 122.242 44.3751 122.458 44.1105 122.458H36.3466H33.0239C32.54 122.458 32.1517 122.84 32.1276 123.317C32.1266 123.333 32.1185 123.346 32.1185 123.361C32.1185 123.861 32.5239 124.265 33.0239 124.265H44.1105C45.374 124.265 46.401 123.239 46.401 121.978V119.138C46.4845 119.192 46.5721 119.24 46.6737 119.264L75.8563 126.143C77.839 126.735 79.7554 127.03 81.5902 127.03C82.2109 127.03 82.8185 126.983 83.4211 126.916C83.4865 126.909 83.5508 126.9 83.6142 126.892C84.7399 126.751 85.8354 126.506 86.8876 126.128C90.1378 124.961 99.5203 119.783 115.57 110.299L115.678 110.226C118.188 108.21 117.942 106.387 117.293 105.212" fill="#5C5C5C"/>
<path fill-rule="evenodd" clip-rule="evenodd" d="M115.709 106.085C114.807 104.452 112.938 101.057 103.286 105.027C96.5203 107.812 89.0582 110.505 81.1081 113.033L80.8395 113.118L65.0119 108.31C64.5331 108.165 64.2624 107.66 64.4083 107.182C64.5532 106.704 65.0612 106.435 65.538 106.58L80.8275 111.225C83.5938 110.342 86.2978 109.439 88.9354 108.519V106.004C88.9354 104.992 83.2055 103.977 80.1273 103.433C74.3552 102.41 67.8125 101.251 65.5843 98.2513C63.2062 95.0514 59.5103 93.6087 54.2623 93.8407L47.1291 95.8602C46.8695 95.9335 46.4028 96.0661 46.4028 96.0661V117.025V117.142L53.4615 119.005L76.3238 124.397C79.9804 125.486 83.3122 125.49 86.2757 124.426C86.4809 124.352 86.7193 124.258 86.9809 124.147C87.0613 124.113 87.1579 124.069 87.2434 124.032C87.4376 123.947 87.6377 123.86 87.8591 123.756C87.9727 123.705 88.0995 123.644 88.2202 123.587C88.4415 123.482 88.6668 123.375 88.9123 123.255C89.0491 123.188 89.196 123.114 89.3398 123.043C89.5983 122.914 89.8659 122.78 90.1486 122.636C90.2985 122.559 90.4544 122.48 90.6123 122.398C90.9202 122.239 91.2411 122.072 91.576 121.896C91.732 121.813 91.8889 121.731 92.0499 121.646C92.421 121.449 92.8073 121.242 93.2077 121.027C93.3566 120.946 93.5014 120.868 93.6533 120.786C94.111 120.537 94.5909 120.276 95.0838 120.004C95.2005 119.941 95.3122 119.879 95.4299 119.815C96.0505 119.472 96.6953 119.115 97.3713 118.737C97.3713 118.737 97.3713 118.737 97.3713 118.736C101.884 116.213 107.627 112.892 114.592 108.778C114.958 108.478 115.211 108.209 115.408 107.958C115.409 107.958 115.409 107.958 115.409 107.957C115.521 107.814 115.613 107.677 115.683 107.55C116.085 106.804 115.835 106.314 115.709 106.085" fill="#FEDAC6"/>
<path fill-rule="evenodd" clip-rule="evenodd" d="M82.1735 122.13L46.4018 117.024V117.142L53.4616 119.006L76.3238 124.397C79.9805 125.485 83.3122 125.489 86.2757 124.426C86.4809 124.352 86.7193 124.257 86.9809 124.147C87.0614 124.113 87.1579 124.069 87.2434 124.032C87.4376 123.947 87.6378 123.859 87.8591 123.757C87.9728 123.705 88.0995 123.643 88.2202 123.586C88.4405 123.483 88.6669 123.375 88.9123 123.255C89.0491 123.188 89.195 123.114 89.3398 123.043C89.5984 122.914 89.865 122.779 90.1486 122.636C90.2985 122.559 90.4534 122.479 90.6124 122.399C90.9202 122.239 91.2411 122.071 91.5761 121.895C91.732 121.814 91.8889 121.731 92.0499 121.645C92.4211 121.449 92.8074 121.241 93.2077 121.026C93.3566 120.946 93.5015 120.868 93.6534 120.785C94.1111 120.538 94.5909 120.276 95.0838 120.004C95.2005 119.94 95.3122 119.88 95.4299 119.814C96.0506 119.472 96.6954 119.115 97.3704 118.737C97.3704 118.736 97.3704 118.736 97.3714 118.736C101.884 116.213 107.627 112.891 114.592 108.777C114.958 108.478 115.211 108.209 115.408 107.957H115.409C115.521 107.813 115.613 107.678 115.683 107.549L82.1735 122.13Z" fill="#F6C7B4"/>
</svg>
