<svg width="160" height="160" viewBox="0 0 160 160" fill="none" xmlns="http://www.w3.org/2000/svg">
<path fill-rule="evenodd" clip-rule="evenodd" d="M103.616 77.3621C108.342 74.5024 111.319 69.4724 111.584 64.03C109.412 63.0576 107.04 62.5482 104.653 62.5482C101.592 62.5482 98.5871 63.387 95.9607 64.9776C91.2374 67.8373 88.2585 72.8673 87.9932 78.3097C90.165 79.2811 92.5382 79.7915 94.9243 79.7915C97.9854 79.7915 100.989 78.9527 103.616 77.3621" fill="#D9D9D9"/>
<path fill-rule="evenodd" clip-rule="evenodd" d="M103.935 79.1101C101.369 80.6622 98.4365 81.4822 95.4556 81.4802C93.3378 81.4802 91.226 81.0687 89.2594 80.2764C89.703 75.1851 92.5748 70.5498 96.9936 67.8741C99.554 66.3241 102.487 65.506 105.473 65.506C107.591 65.506 109.704 65.9175 111.669 66.7079C111.223 71.8001 108.352 76.4364 103.935 79.1101ZM81.2589 81.4802C78.2749 81.4802 75.343 80.6612 72.7797 79.1101C68.3628 76.4374 65.49 71.8011 65.0465 66.7079C67.008 65.9165 69.1198 65.506 71.2426 65.506C74.2286 65.506 77.1604 66.3241 79.7198 67.8741C83.5969 70.2224 86.2825 74.0802 87.1837 78.4296V80.3703C85.2942 81.0944 83.2795 81.4802 81.2589 81.4802ZM72.7807 53.3856C68.3628 50.7129 65.49 46.0766 65.0465 40.9843C67.01 40.192 69.1218 39.7815 71.2426 39.7815C74.2286 39.7815 77.1614 40.6005 79.7198 42.1516C84.0485 44.7699 86.8883 49.2746 87.419 54.2462C87.3209 54.354 87.2598 54.4866 87.2247 54.632C85.3232 55.366 83.2945 55.7567 81.2589 55.7567C78.2739 55.7567 75.341 54.9367 72.7807 53.3856V53.3856ZM96.9936 42.1506C99.553 40.5996 102.485 39.7805 105.473 39.7805C107.593 39.7805 109.704 40.192 111.669 40.9853C111.223 46.0766 108.353 50.7119 103.934 53.3856C101.371 54.9377 98.4425 55.7557 95.4546 55.7557C93.3378 55.7557 91.226 55.3442 89.2594 54.5509C89.704 49.4596 92.5758 44.8243 96.9936 42.1506V42.1506ZM112.982 65.3289C110.627 64.2745 108.054 63.7255 105.473 63.7255C102.154 63.7255 98.8961 64.6345 96.0524 66.3557C92.8992 68.2648 90.459 71.0711 88.985 74.3304V56.3314C91.0528 57.1099 93.2457 57.5362 95.4546 57.5362C98.775 57.5362 102.031 56.6262 104.876 54.903C109.98 51.8148 113.221 46.3763 113.51 40.4591L113.539 39.8547L112.982 39.6054C110.627 38.55 108.056 38 105.473 38C102.152 38 98.8941 38.91 96.0514 40.6332C92.3945 42.847 89.7 46.2695 88.3562 50.2084C87.0134 46.2695 84.3189 42.846 80.6621 40.6332C77.8203 38.911 74.562 38 71.2426 38C68.6592 38 66.0888 38.55 63.7327 39.6044L63.175 39.8537L63.204 40.4581C63.4924 46.3763 66.7347 51.8158 71.8384 54.904C74.6822 56.6262 77.9405 57.5362 81.2589 57.5362C83.2715 57.5362 85.2772 57.191 87.1837 56.5431V73.2334C85.6827 70.443 83.4547 68.0472 80.6631 66.3557C77.8193 64.6345 74.561 63.7255 71.2426 63.7255C68.6572 63.7255 66.0858 64.2735 63.7327 65.3289L63.175 65.5782L63.204 66.1826C63.4924 72.1008 66.7347 77.5403 71.8384 80.6285C74.6852 82.3507 77.9415 83.2607 81.2589 83.2607C83.2715 83.2607 85.2772 82.9155 87.1837 82.2666V98.6701C87.1837 99.1617 87.5862 99.5604 88.0839 99.5604C88.5815 99.5604 88.985 99.1617 88.985 98.6701V82.0569C91.0528 82.8344 93.2457 83.2607 95.4556 83.2607C98.769 83.2627 102.028 82.3517 104.876 80.6285C109.979 77.5393 113.221 72.0999 113.51 66.1826L113.54 65.5782L112.982 65.3289Z" fill="#595959"/>
<path fill-rule="evenodd" clip-rule="evenodd" d="M49.6035 112.15V112.265L56.6308 114.1L79.3868 119.408C83.0276 120.479 86.343 120.483 89.2939 119.437C89.4982 119.363 89.7345 119.27 89.9958 119.162C90.0749 119.129 90.1711 119.085 90.2572 119.049C90.4504 118.965 90.6477 118.879 90.87 118.778C90.9821 118.726 91.1083 118.666 91.2284 118.611C91.4487 118.508 91.674 118.402 91.9174 118.284C92.0545 118.218 92.1997 118.146 92.3439 118.075C92.6003 117.948 92.8666 117.816 93.148 117.674C93.2982 117.599 93.4524 117.521 93.6086 117.44C93.916 117.283 94.2354 117.118 94.5689 116.945C94.7251 116.865 94.8803 116.784 95.0415 116.699C95.409 116.506 95.7955 116.301 96.193 116.089C96.3412 116.01 96.4854 115.934 96.6376 115.852C97.0932 115.608 97.5688 115.35 98.0615 115.083C98.1776 115.02 98.2868 114.961 98.4049 114.896C99.0227 114.56 99.6636 114.208 100.336 113.836C100.337 113.836 100.337 113.835 100.337 113.835L118.292 103.223V103.222C118.404 103.081 118.495 102.947 118.565 102.821V102.82L85.2095 117.176L49.6035 112.15Z" fill="#D9D9D9"/>
<path fill-rule="evenodd" clip-rule="evenodd" d="M41.0007 90.0273C39.8952 90.0273 38.998 90.9136 38.998 92.0057C38.998 93.0977 39.8952 93.984 41.0007 93.984C42.1061 93.984 43.0033 93.0977 43.0033 92.0057C43.0033 90.9136 42.1061 90.0273 41.0007 90.0273Z" fill="#6EE3FF"/>
<path fill-rule="evenodd" clip-rule="evenodd" d="M47.3231 85.2124H34.0566L39.5939 117.498H47.3231C47.5865 117.498 47.8008 117.286 47.8008 117.026V85.6852C47.8008 85.4241 47.5865 85.2124 47.3231 85.2124Z" fill="#D9D9D9"/>
<path fill-rule="evenodd" clip-rule="evenodd" d="M41.0007 93.9837C39.8952 93.9837 38.998 93.0974 38.998 92.0053C38.998 90.9133 39.8952 90.027 41.0007 90.027C42.1061 90.027 43.0033 90.9133 43.0033 92.0053C43.0033 93.0974 42.1061 93.9837 41.0007 93.9837Z" fill="#595959"/>
<path fill-rule="evenodd" clip-rule="evenodd" d="M118.564 102.821C118.495 102.948 118.404 103.081 118.292 103.223C118.094 103.47 117.843 103.735 117.479 104.03C110.546 108.08 104.829 111.351 100.337 113.835C100.337 113.835 100.337 113.835 100.336 113.835C99.6632 114.207 99.0214 114.56 98.4046 114.897C98.2864 114.961 98.1773 115.02 98.0601 115.083C97.5685 115.351 97.0918 115.609 96.6372 115.852C96.485 115.933 96.3409 116.011 96.1927 116.09C95.7951 116.301 95.4086 116.506 95.0411 116.699C94.8799 116.783 94.7237 116.864 94.5685 116.945C94.2351 117.119 93.9157 117.284 93.6083 117.44C93.4521 117.52 93.2978 117.599 93.1477 117.674C92.8663 117.817 92.5999 117.948 92.3426 118.075C92.1994 118.146 92.0532 118.217 91.917 118.284C91.6737 118.401 91.4484 118.507 91.2281 118.61C91.108 118.667 90.9818 118.727 90.8696 118.778C90.6473 118.879 90.4501 118.965 90.2558 119.048C90.1707 119.085 90.0746 119.129 89.9955 119.162C89.7341 119.271 89.4978 119.364 89.2936 119.436C86.3427 120.484 83.0273 120.48 79.3865 119.408L56.6295 114.101L49.6032 112.493V112.266V112.151V91.486L57.4265 89.3237C62.6504 89.0952 66.3293 90.5156 68.6964 93.6661C70.9143 96.6198 77.4269 97.7603 83.1725 98.7673C86.2375 99.3035 91.9401 100.303 91.9401 101.299V103.777C89.3146 104.681 86.624 105.571 83.8704 106.439L68.6503 101.866C68.1767 101.723 67.671 101.988 67.5258 102.459C67.3816 102.93 67.65 103.426 68.1266 103.57L83.8814 108.303L84.1498 108.22C92.0622 105.73 99.49 103.079 106.226 100.337C115.833 96.4289 117.694 99.7713 118.59 101.379C118.715 101.604 118.965 102.087 118.564 102.821V102.821ZM120.169 100.519C118.65 97.7969 115.486 94.6444 105.539 98.6912C101.812 100.209 97.8629 101.696 93.7434 103.146V101.299C93.7434 98.8099 89.4408 98.0571 83.4879 97.0135C78.3401 96.1124 71.9357 94.9906 70.1443 92.6057C67.4127 88.9705 63.069 87.2711 57.2373 87.5501L49.8355 89.5986C49.7474 89.6234 49.6753 89.6718 49.6032 89.7174V85.6845C49.6032 85.183 49.43 84.724 49.1486 84.3491C49.1296 84.3244 49.1095 84.3026 49.0895 84.2779C48.671 83.7665 48.0381 83.4321 47.3232 83.4321H29.9012C29.4196 83.4321 29.033 83.808 29.008 84.2779C29.008 84.2937 29 84.3066 29 84.3224C29 84.814 29.4035 85.2126 29.9012 85.2126H34.0567H47.3232C47.5855 85.2126 47.7998 85.4243 47.7998 85.6845V117.026C47.7998 117.287 47.5855 117.498 47.3232 117.498H39.594H36.2876C35.806 117.498 35.4195 117.874 35.3944 118.344C35.3934 118.36 35.3864 118.373 35.3864 118.389C35.3864 118.88 35.79 119.279 36.2876 119.279H47.3232C48.5798 119.279 49.6032 118.268 49.6032 117.026V114.231C49.6853 114.283 49.7734 114.331 49.8735 114.354L78.9219 121.128C80.8965 121.709 82.803 122 84.6294 122C85.2482 122 85.853 121.955 86.4528 121.888C86.5169 121.881 86.581 121.872 86.6451 121.864C87.7645 121.726 88.854 121.485 89.9034 121.112C93.1376 119.963 102.478 114.865 118.454 105.528L118.56 105.456C121.058 103.471 120.814 101.675 120.169 100.519" fill="#595959"/>
<path fill-rule="evenodd" clip-rule="evenodd" d="M40.0811 55.6451H43.4315V53.8646H40.0811V55.6451Z" fill="#595959"/>
<path fill-rule="evenodd" clip-rule="evenodd" d="M45.0426 52.2728H46.845V48.964H45.0426V52.2728Z" fill="#595959"/>
<path fill-rule="evenodd" clip-rule="evenodd" d="M48.4561 55.6451H51.8055V53.8646H48.4561V55.6451Z" fill="#595959"/>
<path fill-rule="evenodd" clip-rule="evenodd" d="M45.043 60.5453H46.8453V57.2355H45.043V60.5453Z" fill="#595959"/>
<path fill-rule="evenodd" clip-rule="evenodd" d="M122.917 82.3538L125.224 82.3636L125.232 80.5831L122.925 80.5732L122.917 82.3538Z" fill="#767676"/>
<path fill-rule="evenodd" clip-rule="evenodd" d="M126.064 79.8493L127.867 79.8572L127.877 77.686L126.074 77.6791L126.064 79.8493Z" fill="#767676"/>
<path fill-rule="evenodd" clip-rule="evenodd" d="M128.694 80.5978L128.686 82.3783L130.993 82.3882L131.001 80.6077L128.694 80.5978Z" fill="#767676"/>
<path fill-rule="evenodd" clip-rule="evenodd" d="M126.04 85.2758L127.842 85.2828L127.852 83.1125L126.05 83.1056L126.04 85.2758Z" fill="#767676"/>
</svg>
