<svg width="160" height="160" viewBox="0 0 160 160" fill="none" xmlns="http://www.w3.org/2000/svg">
<path fill-rule="evenodd" clip-rule="evenodd" d="M103.617 77.3621C108.343 74.5024 111.32 69.4724 111.585 64.03C109.413 63.0576 107.041 62.5482 104.654 62.5482C101.593 62.5482 98.5881 63.387 95.9617 64.9776C91.2384 67.8373 88.2595 72.8673 87.9941 78.3097C90.166 79.2811 92.5391 79.7915 94.9253 79.7915C97.9863 79.7915 100.99 78.9527 103.617 77.3621" fill="#262626"/>
<path fill-rule="evenodd" clip-rule="evenodd" d="M103.936 79.1101C101.37 80.6622 98.4375 81.4822 95.4566 81.4802C93.3388 81.4802 91.227 81.0687 89.2604 80.2764C89.704 75.1851 92.5758 70.5498 96.9946 67.8741C99.555 66.3241 102.488 65.506 105.474 65.506C107.592 65.506 109.705 65.9175 111.67 66.7079C111.224 71.8001 108.353 76.4364 103.936 79.1101ZM81.2598 81.4802C78.2759 81.4802 75.344 80.6612 72.7806 79.1101C68.3638 76.4374 65.491 71.8011 65.0474 66.7079C67.009 65.9165 69.1208 65.506 71.2436 65.506C74.2295 65.506 77.1614 66.3241 79.7208 67.8741C83.5979 70.2224 86.2835 74.0802 87.1846 78.4296V80.3703C85.2952 81.0944 83.2805 81.4802 81.2598 81.4802ZM72.7816 53.3856C68.3638 50.7129 65.491 46.0766 65.0474 40.9843C67.011 40.192 69.1228 39.7815 71.2436 39.7815C74.2295 39.7815 77.1624 40.6005 79.7208 42.1516C84.0495 44.7699 86.8893 49.2746 87.42 54.2462C87.3218 54.354 87.2607 54.4866 87.2257 54.632C85.3242 55.366 83.2955 55.7567 81.2598 55.7567C78.2749 55.7567 75.342 54.9367 72.7816 53.3856V53.3856ZM96.9946 42.1506C99.554 40.5996 102.486 39.7805 105.474 39.7805C107.594 39.7805 109.705 40.192 111.67 40.9853C111.224 46.0766 108.354 50.7119 103.935 53.3856C101.372 54.9377 98.4435 55.7557 95.4556 55.7557C93.3388 55.7557 91.227 55.3442 89.2604 54.5509C89.705 49.4596 92.5768 44.8243 96.9946 42.1506V42.1506ZM112.983 65.3289C110.628 64.2745 108.055 63.7255 105.474 63.7255C102.155 63.7255 98.8971 64.6345 96.0534 66.3557C92.9002 68.2648 90.46 71.0711 88.986 74.3304V56.3314C91.0538 57.1099 93.2466 57.5362 95.4556 57.5362C98.7759 57.5362 102.032 56.6262 104.877 54.903C109.981 51.8148 113.222 46.3763 113.511 40.4591L113.54 39.8547L112.983 39.6054C110.628 38.55 108.057 38 105.474 38C102.153 38 98.8951 38.91 96.0524 40.6332C92.3955 42.847 89.701 46.2695 88.3572 50.2084C87.0144 46.2695 84.3199 42.846 80.663 40.6332C77.8213 38.911 74.563 38 71.2436 38C68.6602 38 66.0898 38.55 63.7337 39.6044L63.176 39.8537L63.205 40.4581C63.4934 46.3763 66.7357 51.8158 71.8394 54.904C74.6831 56.6262 77.9414 57.5362 81.2598 57.5362C83.2725 57.5362 85.2781 57.191 87.1846 56.5431V73.2334C85.6837 70.443 83.4557 68.0472 80.664 66.3557C77.8203 64.6345 74.562 63.7255 71.2436 63.7255C68.6582 63.7255 66.0868 64.2735 63.7337 65.3289L63.176 65.5782L63.205 66.1826C63.4934 72.1008 66.7357 77.5403 71.8394 80.6285C74.6862 82.3507 77.9425 83.2607 81.2598 83.2607C83.2725 83.2607 85.2781 82.9155 87.1846 82.2666V98.6701C87.1846 99.1617 87.5872 99.5604 88.0848 99.5604C88.5825 99.5604 88.986 99.1617 88.986 98.6701V82.0569C91.0538 82.8344 93.2466 83.2607 95.4566 83.2607C98.7699 83.2627 102.029 82.3517 104.877 80.6285C109.98 77.5393 113.222 72.0999 113.511 66.1826L113.541 65.5782L112.983 65.3289Z" fill="#7F7F7F"/>
<path fill-rule="evenodd" clip-rule="evenodd" d="M49.6045 112.15V112.265L56.6318 114.1L79.3878 119.408C83.0286 120.479 86.344 120.483 89.2949 119.437C89.4991 119.363 89.7355 119.27 89.9968 119.162C90.0759 119.129 90.172 119.085 90.2581 119.049C90.4514 118.965 90.6487 118.879 90.8709 118.778C90.9831 118.726 91.1093 118.666 91.2294 118.611C91.4497 118.508 91.675 118.402 91.9183 118.284C92.0555 118.218 92.2007 118.146 92.3449 118.075C92.6012 117.948 92.8676 117.816 93.149 117.674C93.2992 117.599 93.4534 117.521 93.6096 117.44C93.917 117.283 94.2364 117.118 94.5698 116.945C94.726 116.865 94.8812 116.784 95.0425 116.699C95.4099 116.506 95.7965 116.301 96.194 116.089C96.3422 116.01 96.4864 115.934 96.6386 115.852C97.0942 115.608 97.5698 115.35 98.0624 115.083C98.1786 115.02 98.2877 114.961 98.4059 114.896C99.0237 114.56 99.6646 114.208 100.337 113.836C100.338 113.836 100.338 113.835 100.338 113.835L118.293 103.223V103.222C118.405 103.081 118.496 102.947 118.566 102.821V102.82L85.2105 117.176L49.6045 112.15Z" fill="#262626"/>
<path fill-rule="evenodd" clip-rule="evenodd" d="M41.0017 90.0273C39.8962 90.0273 38.999 90.9136 38.999 92.0057C38.999 93.0977 39.8962 93.984 41.0017 93.984C42.1071 93.984 43.0043 93.0977 43.0043 92.0057C43.0043 90.9136 42.1071 90.0273 41.0017 90.0273Z" fill="#6EE3FF"/>
<path fill-rule="evenodd" clip-rule="evenodd" d="M47.3241 85.2124H34.0576L39.5949 117.498H47.3241C47.5875 117.498 47.8018 117.286 47.8018 117.026V85.6852C47.8018 85.4241 47.5875 85.2124 47.3241 85.2124Z" fill="#262626"/>
<path fill-rule="evenodd" clip-rule="evenodd" d="M41.0017 93.984C39.8962 93.984 38.999 93.0977 38.999 92.0057C38.999 90.9136 39.8962 90.0273 41.0017 90.0273C42.1071 90.0273 43.0043 90.9136 43.0043 92.0057C43.0043 93.0977 42.1071 93.984 41.0017 93.984Z" fill="#7F7F7F"/>
<path fill-rule="evenodd" clip-rule="evenodd" d="M118.565 102.821C118.496 102.947 118.405 103.081 118.293 103.222C118.095 103.47 117.844 103.735 117.48 104.03C110.547 108.08 104.83 111.35 100.338 113.835C100.338 113.835 100.338 113.835 100.337 113.835C99.6642 114.207 99.0224 114.56 98.4056 114.897C98.2874 114.961 98.1783 115.02 98.0611 115.083C97.5695 115.351 97.0928 115.609 96.6382 115.852C96.486 115.933 96.3418 116.011 96.1936 116.09C95.7961 116.301 95.4096 116.506 95.0421 116.699C94.8809 116.783 94.7247 116.864 94.5695 116.945C94.2361 117.118 93.9166 117.284 93.6092 117.44C93.453 117.52 93.2988 117.599 93.1486 117.674C92.8673 117.817 92.6009 117.948 92.3436 118.075C92.2004 118.146 92.0542 118.217 91.918 118.284C91.6747 118.401 91.4494 118.507 91.2291 118.61C91.1089 118.666 90.9828 118.727 90.8706 118.778C90.6483 118.879 90.4511 118.965 90.2568 119.048C90.1717 119.085 90.0756 119.128 89.9965 119.162C89.7351 119.271 89.4988 119.364 89.2945 119.436C86.3437 120.484 83.0283 120.48 79.3875 119.408L56.6304 114.1L49.6042 112.493V112.265V112.151V91.4859L57.4275 89.3235C62.6514 89.095 66.3302 90.5155 68.6974 93.666C70.9153 96.6197 77.4279 97.7602 83.1735 98.7672C86.2385 99.3033 91.941 100.302 91.941 101.298V103.776C89.3156 104.68 86.625 105.571 83.8714 106.439L68.6513 101.866C68.1777 101.723 67.672 101.988 67.5268 102.459C67.3826 102.93 67.651 103.426 68.1276 103.57L83.8824 108.303L84.1508 108.22C92.0632 105.73 99.491 103.079 106.227 100.337C115.834 96.4288 117.695 99.7712 118.591 101.379C118.716 101.604 118.966 102.087 118.565 102.821V102.821ZM120.17 100.519C118.651 97.7968 115.487 94.6443 105.54 98.691C101.813 100.208 97.8639 101.696 93.7444 103.146V101.298C93.7444 98.8097 89.4417 98.057 83.4889 97.0134C78.3411 96.1122 71.9366 94.9905 70.1453 92.6056C67.4137 88.9704 63.0699 87.271 57.2382 87.5499L49.8365 89.5985C49.7484 89.6233 49.6763 89.6717 49.6042 89.7172V85.6844C49.6042 85.1828 49.4309 84.7239 49.1496 84.349C49.1305 84.3242 49.1105 84.3025 49.0905 84.2778C48.6719 83.7663 48.0391 83.432 47.3242 83.432H29.9022C29.4205 83.432 29.034 83.8079 29.009 84.2778C29.009 84.2936 29.001 84.3064 29.001 84.3223C29.001 84.8139 29.4045 85.2125 29.9022 85.2125H34.0577H47.3242C47.5865 85.2125 47.8008 85.4242 47.8008 85.6844V117.025C47.8008 117.287 47.5865 117.498 47.3242 117.498H39.595H36.2886C35.807 117.498 35.4204 117.874 35.3954 118.344C35.3944 118.36 35.3874 118.373 35.3874 118.388C35.3874 118.88 35.7909 119.279 36.2886 119.279H47.3242C48.5808 119.279 49.6042 118.268 49.6042 117.025V114.231C49.6863 114.282 49.7744 114.331 49.8745 114.354L78.9229 121.128C80.8975 121.709 82.804 122 84.6304 122C85.2492 122 85.854 121.954 86.4538 121.888C86.5179 121.881 86.582 121.872 86.6461 121.863C87.7655 121.726 88.855 121.485 89.9044 121.112C93.1386 119.963 102.479 114.865 118.455 105.528L118.561 105.456C121.059 103.471 120.815 101.675 120.17 100.519" fill="#7F7F7F"/>
<path fill-rule="evenodd" clip-rule="evenodd" d="M40.082 55.6451H43.4325V53.8646H40.082V55.6451Z" fill="#A6A6A6"/>
<path fill-rule="evenodd" clip-rule="evenodd" d="M45.0436 52.2728H46.846V48.964H45.0436V52.2728Z" fill="#A6A6A6"/>
<path fill-rule="evenodd" clip-rule="evenodd" d="M48.457 55.6451H51.8065V53.8646H48.457V55.6451Z" fill="#A6A6A6"/>
<path fill-rule="evenodd" clip-rule="evenodd" d="M45.0439 60.5453H46.8463V57.2355H45.0439V60.5453Z" fill="#A6A6A6"/>
<path fill-rule="evenodd" clip-rule="evenodd" d="M122.918 82.3539L125.225 82.3638L125.233 80.5833L122.926 80.5734L122.918 82.3539Z" fill="#A6A6A6"/>
<path fill-rule="evenodd" clip-rule="evenodd" d="M126.065 79.849L127.868 79.8569L127.878 77.6856L126.075 77.6787L126.065 79.849Z" fill="#A6A6A6"/>
<path fill-rule="evenodd" clip-rule="evenodd" d="M128.695 80.5979L128.687 82.3784L130.994 82.3883L131.002 80.6078L128.695 80.5979Z" fill="#A6A6A6"/>
<path fill-rule="evenodd" clip-rule="evenodd" d="M126.041 85.276L127.843 85.2829L127.853 83.1126L126.051 83.1057L126.041 85.276Z" fill="#A6A6A6"/>
</svg>
