<svg width="160" height="160" viewBox="0 0 160 160" fill="none" xmlns="http://www.w3.org/2000/svg">
<path fill-rule="evenodd" clip-rule="evenodd" d="M85.3455 131.47C123.115 126.341 128.726 117.414 133.994 107.566C144.196 88.4936 134.169 53.5715 112.316 53.2199C91.1066 57.4989 94.5952 18.5318 53.9055 30.1843C28.4106 37.4864 17.4669 59.7353 23.7219 81.5231C29.9779 103.311 47.576 136.599 85.3455 131.47" fill="#E5E5E5"/>
<path fill-rule="evenodd" clip-rule="evenodd" d="M37.4643 58.3269H40.8302V56.5184H37.4643V58.3269Z" fill="#0F2B4A"/>
<path fill-rule="evenodd" clip-rule="evenodd" d="M42.4476 54.9017H44.2583V51.541H42.4476V54.9017Z" fill="#0F2B4A"/>
<path fill-rule="evenodd" clip-rule="evenodd" d="M45.8774 58.3269H49.2433V56.5184H45.8774V58.3269Z" fill="#0F2B4A"/>
<path fill-rule="evenodd" clip-rule="evenodd" d="M42.4477 63.3038H44.2584V59.9421H42.4477V63.3038Z" fill="#0F2B4A"/>
<path fill-rule="evenodd" clip-rule="evenodd" d="M120.111 86.8095L122.428 86.8185L122.437 85.011L120.119 85L120.111 86.8095Z" fill="#EC0000"/>
<path fill-rule="evenodd" clip-rule="evenodd" d="M123.274 84.2648L125.085 84.2729L125.095 82.0676L123.284 82.0605L123.274 84.2648Z" fill="#EC0000"/>
<path fill-rule="evenodd" clip-rule="evenodd" d="M125.915 85.0255L125.907 86.834L128.224 86.844L128.232 85.0356L125.915 85.0255Z" fill="#EC0000"/>
<path fill-rule="evenodd" clip-rule="evenodd" d="M123.248 89.7764L125.059 89.7835L125.069 87.5792L123.259 87.5721L123.248 89.7764Z" fill="#EC0000"/>
<path fill-rule="evenodd" clip-rule="evenodd" d="M111.796 69.1051C109.169 67.6905 106.202 66.942 103.216 66.942C99.9305 66.942 96.7064 67.8462 93.8908 69.5552C89.1558 72.4307 86.0595 77.3436 85.4428 82.7509C85.5333 83.5496 85.5726 84.3594 85.5525 85.1752C85.5474 85.3631 85.5032 85.5419 85.4428 85.7137C85.5857 86.1126 85.8633 86.4572 86.2486 86.6652C88.8751 88.0798 91.8417 88.8273 94.8303 88.8273C98.1138 88.8273 101.338 87.924 104.154 86.214C109.589 82.9136 112.868 76.9297 112.713 70.5941C112.697 69.9702 112.348 69.4025 111.796 69.1051" fill="#E9F4F7"/>
<path fill-rule="evenodd" clip-rule="evenodd" d="M85.443 82.7504C84.8254 77.3441 81.7281 72.4302 76.9941 69.5557C74.1784 67.8458 70.9543 66.9415 67.6689 66.9415C64.6812 66.9415 61.7147 67.69 59.0891 69.1046C58.5369 69.402 58.1868 69.9707 58.1717 70.5946C58.0168 76.9292 61.2962 82.9141 66.7303 86.2146C69.546 87.9235 72.7701 88.8268 76.0555 88.8268C79.0422 88.8268 82.0097 88.0803 84.6353 86.6647C85.0205 86.4567 85.2992 86.1131 85.443 85.7142C85.5044 85.5414 85.5477 85.3626 85.5527 85.1747C85.5728 84.3589 85.5336 83.5491 85.443 82.7504" fill="#E9F4F7"/>
<path fill-rule="evenodd" clip-rule="evenodd" d="M85.4428 58.5875C85.5867 58.9864 85.8633 59.331 86.2496 59.538C88.8751 60.9536 91.8417 61.7011 94.8304 61.7011C98.1148 61.7011 101.339 60.7978 104.155 59.0879C109.589 55.7874 112.869 49.8025 112.713 43.4679C112.698 42.844 112.348 42.2763 111.796 41.9789C109.169 40.5643 106.203 39.8148 103.216 39.8148C99.9305 39.8148 96.7065 40.719 93.8908 42.429C89.1558 45.3035 86.0595 50.2174 85.4428 55.6237C85.5333 56.4234 85.5726 57.2322 85.5525 58.048C85.5474 58.2359 85.5042 58.4157 85.4428 58.5875" fill="white"/>
<path fill-rule="evenodd" clip-rule="evenodd" d="M66.7303 59.0879C69.546 60.7978 72.77 61.7011 76.0555 61.7011C79.0411 61.7011 82.0087 60.9536 84.6352 59.538C85.0205 59.331 85.2992 58.9864 85.443 58.5875C85.5034 58.4157 85.5476 58.2359 85.5527 58.048C85.5718 57.2322 85.5325 56.4234 85.443 55.6237C84.8244 50.2174 81.727 45.3035 76.993 42.429C74.1774 40.719 70.9533 39.8148 67.6689 39.8148C64.6812 39.8148 61.7146 40.5643 59.0881 41.9789C58.5358 42.2763 58.1868 42.844 58.1707 43.4679C58.0167 49.8025 61.2961 55.7874 66.7303 59.0879" fill="white"/>
<path fill-rule="evenodd" clip-rule="evenodd" d="M101.543 84.6762H101.544C98.9673 86.2516 96.0259 87.0834 93.0332 87.0834H93.0251C90.9106 87.0834 88.772 86.6625 86.8013 85.8597C87.2449 80.6655 90.1169 75.9896 94.5693 73.2639C97.1425 71.6895 100.089 70.8576 103.089 70.8576C105.205 70.8576 107.345 71.2796 109.314 72.0794C108.867 77.2766 105.996 81.9515 101.543 84.6762V84.6762ZM77.7568 60.9554C74.7581 60.9554 71.8126 60.1235 69.2384 58.5481C64.7871 55.8244 61.9151 51.1496 61.4684 45.9523C63.4381 45.1516 65.5767 44.7296 67.6933 44.7296C70.695 44.7296 73.6415 45.5625 76.2117 47.1378C80.664 49.8616 83.536 54.5354 83.9816 59.7317C82.011 60.5334 79.8713 60.9554 77.7568 60.9554ZM94.5703 47.1368C97.1405 45.5615 100.087 44.7296 103.089 44.7296C105.206 44.7296 107.345 45.1516 109.314 45.9523C108.866 51.1496 105.995 55.8244 101.543 58.5481C98.9703 60.1225 96.0259 60.9554 93.0241 60.9554C90.9106 60.9554 88.771 60.5334 86.8003 59.7317C87.246 54.5364 90.1179 49.8616 94.5703 47.1368V47.1368ZM69.2384 84.6762C64.7871 81.9525 61.9151 77.2776 61.4684 72.0794C63.4351 71.2786 65.5737 70.8576 67.6933 70.8576C70.694 70.8576 73.6405 71.6895 76.2107 73.2639C80.664 75.9896 83.536 80.6655 83.9816 85.8597C79.2134 87.7988 73.6284 87.3617 69.2384 84.6762V84.6762ZM103.089 69.0492C99.755 69.0492 96.4816 69.9735 93.6237 71.7217C90.3674 73.715 87.8757 76.6477 86.411 80.0637L86.3205 61.4597C88.4531 62.2997 90.7467 62.7628 93.0241 62.7628C96.3599 62.7628 99.6332 61.8385 102.488 60.0893C107.629 56.9457 110.871 51.461 111.163 45.4188L111.194 44.8049L110.633 44.5508C108.277 43.4848 105.669 42.9211 103.089 42.9211C99.7529 42.9211 96.4796 43.8455 93.6237 45.5946C89.4077 48.1747 86.4734 52.3281 85.39 57.0692C84.3086 52.3271 81.3722 48.1737 77.1583 45.5956C74.3024 43.8465 71.029 42.9211 67.6933 42.9211C65.114 42.9211 62.5046 43.4848 60.1496 44.5508L59.5883 44.8039L59.6175 45.4178C59.9102 51.46 63.1534 56.9457 68.2928 60.0903C71.1517 61.8395 74.4241 62.7638 77.7568 62.7638C80.0524 62.7638 82.3631 62.2936 84.5088 61.4417L84.6023 80.6403C83.1769 76.9792 80.5956 73.8265 77.1583 71.7217C74.3014 69.9735 71.029 69.0492 67.6933 69.0492C65.11 69.0492 62.5016 69.6128 60.1486 70.6778L59.5883 70.932L59.6175 71.5459C59.9102 77.5881 63.1534 83.0737 68.2928 86.2184C71.1527 87.9676 74.4251 88.8919 77.7568 88.8919C80.0967 88.8919 82.4536 88.4046 84.6355 87.5205L84.713 103.542C84.716 104.041 85.1214 104.443 85.6193 104.443H85.6234C86.1233 104.44 86.5267 104.034 86.5247 103.534L86.4472 87.638C88.5446 88.4448 90.7919 88.8919 93.0251 88.8919H93.0332C96.3599 88.8919 99.6292 87.9676 102.488 86.2184H102.489C107.63 83.0717 110.872 77.5871 111.163 71.5459L111.194 70.931L110.632 70.6778C108.276 69.6128 105.668 69.0492 103.089 69.0492" fill="#0F2B4A"/>
<path fill-rule="evenodd" clip-rule="evenodd" d="M37.7594 94.5549C36.6488 94.5549 35.7475 95.4551 35.7475 96.5643C35.7475 97.6735 36.6488 98.5737 37.7594 98.5737C38.87 98.5737 39.7713 97.6735 39.7713 96.5643C39.7713 95.4551 38.87 94.5549 37.7594 94.5549Z" fill="#6EE3FF"/>
<path fill-rule="evenodd" clip-rule="evenodd" d="M26.6085 89.6651C26.1086 89.6651 25.7032 89.2602 25.7032 88.7609C25.7032 88.7448 25.7112 88.7317 25.7112 88.7167H25.3481L32.087 123.317H32.1272C32.1523 122.84 32.5396 122.457 33.0245 122.457H36.3472L30.7822 89.6651H26.6085Z" fill="white"/>
<path fill-rule="evenodd" clip-rule="evenodd" d="M37.7589 98.5735C36.6484 98.5735 35.747 97.6733 35.747 96.5642C35.747 95.455 36.6484 94.5548 37.7589 94.5548C38.8695 94.5548 39.7708 95.455 39.7708 96.5642C39.7708 97.6733 38.8695 98.5735 37.7589 98.5735ZM44.1105 89.6649H30.7827L36.3476 122.457H44.1105C44.3751 122.457 44.5903 122.242 44.5903 121.977V90.1442C44.5903 89.8799 44.3751 89.6649 44.1105 89.6649" fill="#0D4F80"/>
<path fill-rule="evenodd" clip-rule="evenodd" d="M115.682 107.549C115.613 107.678 115.521 107.813 115.409 107.957C115.409 107.957 115.409 107.957 115.408 107.957C115.21 108.209 114.958 108.478 114.591 108.777C107.626 112.891 101.883 116.213 97.3716 118.736C97.3706 118.736 97.3706 118.736 97.3706 118.737C96.6946 119.115 96.0498 119.473 95.4291 119.814C95.3114 119.88 95.2007 119.94 95.083 120.004C94.5901 120.276 94.1113 120.538 93.6536 120.785C93.5007 120.868 93.3568 120.946 93.2069 121.026C92.8086 121.241 92.4193 121.449 92.0501 121.645C91.8891 121.731 91.7312 121.814 91.5753 121.895C91.2413 122.072 90.9194 122.24 90.6116 122.399C90.4536 122.479 90.2987 122.559 90.1478 122.637C89.8652 122.78 89.5976 122.914 89.339 123.043C89.1952 123.115 89.0483 123.188 88.9125 123.255C88.6671 123.374 88.4407 123.483 88.2194 123.586C88.0987 123.643 87.972 123.705 87.8593 123.757C87.637 123.859 87.4378 123.947 87.2426 124.032C87.1581 124.069 87.0616 124.113 86.9811 124.147C86.7185 124.257 86.4811 124.353 86.2759 124.426C83.3114 125.489 79.9807 125.486 76.323 124.397L53.4608 119.006L47.0901 117.504C46.8446 117.445 46.402 117.345 46.402 117.345V117.142V117.025V96.1278C46.402 96.1278 46.8698 95.9329 47.1293 95.8596L54.2615 93.8402C59.5096 93.6091 63.2054 95.0508 65.5835 98.2518C67.8117 101.251 74.3544 102.41 80.1265 103.432C83.2058 103.978 88.9347 104.992 88.9347 106.003V108.52C86.2971 109.439 83.5941 110.342 80.8277 111.224L65.5372 106.581C65.0614 106.434 64.5534 106.704 64.4075 107.182C64.2627 107.66 64.5323 108.165 65.0111 108.31L80.8388 113.118L81.1084 113.033C89.0574 110.505 96.5195 107.811 103.287 105.027C112.938 101.058 114.808 104.453 115.708 106.084C115.834 106.313 116.084 106.804 115.682 107.549V107.549ZM117.294 105.212C115.768 102.446 112.59 99.2454 102.596 103.356C98.8523 104.896 94.8859 106.408 90.7464 107.88V106.003C90.7464 103.476 86.4238 102.711 80.4434 101.652C75.2718 100.735 68.8378 99.596 67.0381 97.1737C64.2939 93.4825 59.9301 91.7564 54.0714 92.0387L46.6354 94.1205C46.5479 94.1456 46.4754 94.1938 46.402 94.24V90.1449C46.402 89.6345 46.228 89.1693 45.9453 88.7886C45.9272 88.7634 45.9061 88.7403 45.886 88.7162C45.4655 88.1958 44.8307 87.8562 44.1115 87.8562H26.6089C26.125 87.8562 25.7367 88.239 25.7116 88.7162C25.7116 88.7323 25.7036 88.7454 25.7036 88.7604C25.7036 89.2598 26.109 89.6646 26.6089 89.6646H30.7836H44.1115C44.375 89.6646 44.5903 89.8807 44.5903 90.1449V121.978C44.5903 122.242 44.375 122.457 44.1115 122.457H36.3475H33.0249C32.541 122.457 32.1527 122.84 32.1276 123.317C32.1266 123.332 32.1195 123.346 32.1195 123.361C32.1195 123.86 32.5249 124.265 33.0249 124.265H44.1115C45.3739 124.265 46.402 123.239 46.402 121.978V119.138C46.4855 119.192 46.573 119.24 46.6736 119.264L75.8563 126.143C77.84 126.735 79.7553 127.03 81.5902 127.03C82.2119 127.03 82.8195 126.983 83.422 126.916C83.4864 126.909 83.5518 126.9 83.6152 126.891C84.7398 126.751 85.8353 126.506 86.8885 126.128C90.1378 124.961 99.5213 119.783 115.571 110.299L115.678 110.226C118.188 108.21 117.942 106.387 117.294 105.212Z" fill="#0F2B4A"/>
<path fill-rule="evenodd" clip-rule="evenodd" d="M115.709 106.085C114.807 104.452 112.938 101.057 103.286 105.027C96.5202 107.812 89.0581 110.505 81.108 113.033L80.8394 113.118L65.0118 108.31C64.533 108.165 64.2624 107.66 64.4082 107.182C64.5531 106.704 65.0611 106.435 65.5379 106.58L80.8274 111.225C83.5937 110.342 86.2977 109.439 88.9353 108.519V106.004C88.9353 104.992 83.2054 103.977 80.1272 103.433C74.3551 102.41 67.8124 101.251 65.5842 98.2513C63.2061 95.0514 59.5102 93.6087 54.2622 93.8407L47.129 95.8602C46.8695 95.9335 46.4027 96.0661 46.4027 96.0661V117.025L82.1733 122.131L115.683 107.55C116.085 106.804 115.834 106.314 115.709 106.085V106.085ZM47.0909 117.504L53.4616 119.006L46.4018 117.142V117.345C46.4018 117.345 46.8454 117.445 47.0909 117.504" fill="#FEDAC6"/>
<path fill-rule="evenodd" clip-rule="evenodd" d="M115.682 107.55C115.614 107.677 115.521 107.814 115.41 107.957C115.521 107.814 115.614 107.677 115.682 107.55Z" fill="#FEDAC6"/>
<path fill-rule="evenodd" clip-rule="evenodd" d="M82.1734 122.13L46.4018 117.024V117.142L53.4616 119.006L76.3238 124.397C79.9805 125.485 83.3122 125.489 86.2757 124.426C86.4809 124.352 86.7193 124.257 86.9809 124.147C87.0614 124.113 87.1579 124.069 87.2434 124.032C87.4376 123.947 87.6378 123.859 87.8591 123.757C87.9727 123.705 88.0995 123.643 88.2202 123.586C88.4405 123.483 88.6669 123.375 88.9123 123.255C89.0491 123.188 89.195 123.114 89.3398 123.043C89.5984 122.914 89.8649 122.779 90.1486 122.636C90.2985 122.559 90.4534 122.479 90.6124 122.399C90.9202 122.239 91.2411 122.071 91.5761 121.895C91.732 121.814 91.8889 121.731 92.0499 121.645C92.4211 121.449 92.8073 121.241 93.2077 121.026C93.3566 120.946 93.5015 120.868 93.6534 120.785C94.1111 120.538 94.5909 120.276 95.0838 120.004C95.2005 119.94 95.3122 119.88 95.4299 119.814C96.0505 119.472 96.6954 119.115 97.3703 118.737C97.3703 118.736 97.3703 118.736 97.3714 118.736C101.884 116.213 107.627 112.891 114.592 108.777C114.958 108.478 115.211 108.209 115.408 107.957H115.409C115.521 107.813 115.613 107.678 115.683 107.549L82.1734 122.13Z" fill="#F6C7B4"/>
</svg>
