<svg width="160" height="160" viewBox="0 0 160 160" fill="none" xmlns="http://www.w3.org/2000/svg">
<path fill-rule="evenodd" clip-rule="evenodd" d="M103.618 77.3621C108.344 74.5024 111.321 69.4724 111.586 64.03C109.415 63.0576 107.042 62.5482 104.655 62.5482C101.594 62.5482 98.5892 63.387 95.9627 64.9776C91.2394 67.8373 88.2605 72.8673 87.9951 78.3097C90.167 79.2811 92.5401 79.7915 94.9263 79.7915C97.9874 79.7915 100.991 78.9527 103.618 77.3621" fill="#5C5C5C"/>
<path fill-rule="evenodd" clip-rule="evenodd" d="M103.936 79.1101C101.37 80.6622 98.4373 81.4822 95.4564 81.4802C93.3386 81.4802 91.2268 81.0687 89.2602 80.2764C89.7038 75.1851 92.5756 70.5498 96.9944 67.8741C99.5548 66.3241 102.488 65.506 105.474 65.506C107.591 65.506 109.705 65.9175 111.67 66.7079C111.224 71.8001 108.352 76.4364 103.936 79.1101V79.1101ZM81.2596 81.4802C78.2756 81.4802 75.3437 80.6612 72.7803 79.1101C68.3634 76.4374 65.4906 71.8011 65.0471 66.7079C67.0087 65.9165 69.1205 65.506 71.2433 65.506C74.2292 65.506 77.1611 66.3241 79.7205 67.8741C83.5977 70.2224 86.2832 74.0802 87.1844 78.4296V80.3703C85.2949 81.0944 83.2802 81.4802 81.2596 81.4802V81.4802ZM72.7813 53.3856C68.3634 50.7129 65.4906 46.0766 65.0471 40.9843C67.0107 40.192 69.1225 39.7815 71.2433 39.7815C74.2292 39.7815 77.1621 40.6005 79.7205 42.1516C84.0493 44.7699 86.889 49.2746 87.4197 54.2462C87.3216 54.354 87.2605 54.4866 87.2255 54.632C85.3239 55.366 83.2953 55.7567 81.2596 55.7567C78.2746 55.7567 75.3417 54.9367 72.7813 53.3856V53.3856ZM96.9944 42.1506C99.5538 40.5996 102.486 39.7805 105.474 39.7805C107.593 39.7805 109.705 40.192 111.67 40.9853C111.224 46.0766 108.353 50.7119 103.935 53.3856C101.372 54.9377 98.4433 55.7557 95.4554 55.7557C93.3386 55.7557 91.2268 55.3442 89.2602 54.5509C89.7048 49.4596 92.5766 44.8243 96.9944 42.1506V42.1506ZM112.983 65.3289C110.627 64.2745 108.055 63.7255 105.474 63.7255C102.155 63.7255 98.8969 64.6345 96.0532 66.3557C92.9 68.2648 90.4598 71.0711 88.9858 74.3304V56.3314C91.0535 57.1099 93.2465 57.5362 95.4554 57.5362C98.7758 57.5362 102.032 56.6262 104.877 54.903C109.981 51.8148 113.222 46.3763 113.511 40.4591L113.54 39.8547L112.983 39.6054C110.627 38.55 108.057 38 105.474 38C102.153 38 98.8949 38.91 96.0522 40.6332C92.3953 42.847 89.7007 46.2695 88.357 50.2084C87.0142 46.2695 84.3196 42.846 80.6628 40.6332C77.821 38.911 74.5627 38 71.2433 38C68.6598 38 66.0894 38.55 63.7333 39.6044L63.1756 39.8537L63.2046 40.4581C63.493 46.3763 66.7353 51.8158 71.8391 54.904C74.6828 56.6262 77.9412 57.5362 81.2596 57.5362C83.2722 57.5362 85.2779 57.191 87.1844 56.5431V73.2334C85.6834 70.443 83.4555 68.0472 80.6638 66.3557C77.82 64.6345 74.5617 63.7255 71.2433 63.7255C68.6578 63.7255 66.0864 64.2735 63.7333 65.3289L63.1756 65.5782L63.2046 66.1826C63.493 72.1008 66.7353 77.5403 71.8391 80.6285C74.6858 82.3507 77.9422 83.2607 81.2596 83.2607C83.2722 83.2607 85.2779 82.9155 87.1844 82.2666V98.6701C87.1844 99.1617 87.5869 99.5604 88.0846 99.5604C88.5823 99.5604 88.9858 99.1617 88.9858 98.6701V82.0569C91.0535 82.8344 93.2464 83.2607 95.4564 83.2607C98.7698 83.2627 102.029 82.3517 104.877 80.6285C109.98 77.5393 113.222 72.0999 113.511 66.1826L113.541 65.5782L112.983 65.3289Z" fill="#E8E8E8"/>
<path fill-rule="evenodd" clip-rule="evenodd" d="M49.6035 112.15V112.265L56.6308 114.1L79.387 119.408C83.0278 120.479 86.3432 120.483 89.2942 119.437C89.4984 119.363 89.7347 119.27 89.9961 119.162C90.0752 119.129 90.1713 119.085 90.2574 119.049C90.4507 118.965 90.648 118.879 90.8702 118.778C90.9824 118.726 91.1086 118.666 91.2287 118.611C91.449 118.508 91.6743 118.402 91.9176 118.284C92.0548 118.218 92.2 118.146 92.3442 118.075C92.6005 117.948 92.8669 117.816 93.1483 117.674C93.2985 117.599 93.4527 117.521 93.6089 117.44C93.9163 117.283 94.2357 117.118 94.5692 116.945C94.7254 116.865 94.8806 116.784 95.0418 116.699C95.4093 116.506 95.7958 116.301 96.1933 116.089C96.3415 116.01 96.4857 115.934 96.6379 115.852C97.0935 115.608 97.5691 115.35 98.0618 115.083C98.1779 115.02 98.2871 114.961 98.4052 114.896C99.0231 114.56 99.6639 114.208 100.337 113.836C100.338 113.836 100.338 113.835 100.338 113.835L118.293 103.223V103.222C118.405 103.081 118.496 102.947 118.565 102.821V102.82L85.2097 117.176L49.6035 112.15Z" fill="#5C5C5C"/>
<path fill-rule="evenodd" clip-rule="evenodd" d="M41.0007 90.0273C39.8952 90.0273 38.998 90.9136 38.998 92.0057C38.998 93.0977 39.8952 93.984 41.0007 93.984C42.1062 93.984 43.0034 93.0977 43.0034 92.0057C43.0034 90.9136 42.1062 90.0273 41.0007 90.0273Z" fill="#6EE3FF"/>
<path fill-rule="evenodd" clip-rule="evenodd" d="M47.3232 85.2124H34.0566L39.594 117.498H47.3232C47.5866 117.498 47.8009 117.286 47.8009 117.026V85.6852C47.8009 85.4241 47.5866 85.2124 47.3232 85.2124Z" fill="#5C5C5C"/>
<path fill-rule="evenodd" clip-rule="evenodd" d="M41.0007 93.984C39.8952 93.984 38.998 93.0977 38.998 92.0057C38.998 90.9136 39.8952 90.0273 41.0007 90.0273C42.1062 90.0273 43.0034 90.9136 43.0034 92.0057C43.0034 93.0977 42.1062 93.984 41.0007 93.984Z" fill="white"/>
<path fill-rule="evenodd" clip-rule="evenodd" d="M118.566 102.821C118.497 102.948 118.406 103.081 118.293 103.223C118.095 103.47 117.845 103.735 117.48 104.03C110.547 108.08 104.831 111.351 100.339 113.835C100.339 113.835 100.339 113.835 100.338 113.835C99.6647 114.207 99.0228 114.56 98.406 114.897C98.2879 114.961 98.1787 115.02 98.0616 115.083C97.5699 115.351 97.0933 115.609 96.6387 115.852C96.4865 115.933 96.3423 116.011 96.1941 116.09C95.7966 116.301 95.4101 116.506 95.0426 116.699C94.8813 116.783 94.7251 116.864 94.5699 116.945C94.2365 117.119 93.9171 117.284 93.6097 117.44C93.4535 117.52 93.2993 117.599 93.1491 117.674C92.8677 117.817 92.6013 117.948 92.344 118.075C92.2008 118.146 92.0546 118.217 91.9184 118.284C91.6751 118.401 91.4498 118.507 91.2295 118.61C91.1093 118.667 90.9832 118.727 90.871 118.778C90.6487 118.879 90.4515 118.965 90.2572 119.048C90.1721 119.085 90.076 119.129 89.9969 119.162C89.7355 119.271 89.4992 119.364 89.2949 119.436C86.344 120.484 83.0286 120.48 79.3878 119.408L56.6306 114.101L49.6043 112.493V112.266V112.151V91.486L57.4277 89.3237C62.6516 89.0952 66.3305 90.5156 68.6976 93.6661C70.9156 96.6198 77.4282 97.7603 83.1738 98.7673C86.2389 99.3035 91.9414 100.303 91.9414 101.299V103.777C89.316 104.681 86.6254 105.571 83.8717 106.439L68.6516 101.866C68.1779 101.723 67.6723 101.988 67.5271 102.459C67.3829 102.93 67.6512 103.426 68.1279 103.57L83.8828 108.303L84.1511 108.22C92.0636 105.73 99.4915 103.079 106.227 100.337C115.834 96.4289 117.696 99.7713 118.592 101.379C118.717 101.604 118.966 102.087 118.566 102.821V102.821ZM120.171 100.519C118.652 97.7969 115.488 94.6444 105.54 98.6912C101.814 100.209 97.8643 101.696 93.7448 103.146V101.299C93.7448 98.8099 89.4421 98.0571 83.4892 97.0135C78.3414 96.1124 71.9369 94.9906 70.1455 92.6057C67.4139 88.9705 63.0702 87.2711 57.2384 87.5501L49.8366 89.5986C49.7485 89.6234 49.6764 89.6718 49.6043 89.7174V85.6845C49.6043 85.183 49.4311 84.724 49.1497 84.3491C49.1307 84.3244 49.1106 84.3026 49.0906 84.2779C48.6721 83.7665 48.0392 83.4321 47.3243 83.4321H29.9022C29.4205 83.4321 29.034 83.808 29.009 84.2779C29.009 84.2937 29.001 84.3066 29.001 84.3224C29.001 84.814 29.4045 85.2126 29.9022 85.2126H34.0577H47.3243C47.5866 85.2126 47.8009 85.4243 47.8009 85.6845V117.026C47.8009 117.287 47.5866 117.498 47.3243 117.498H39.595H36.2886C35.807 117.498 35.4205 117.874 35.3955 118.344C35.3945 118.36 35.3874 118.373 35.3874 118.389C35.3874 118.88 35.791 119.279 36.2886 119.279H47.3243C48.5809 119.279 49.6043 118.268 49.6043 117.026V114.231C49.6864 114.283 49.7745 114.331 49.8747 114.354L78.9232 121.128C80.8978 121.709 82.8043 122 84.6308 122C85.2496 122 85.8544 121.955 86.4542 121.888C86.5183 121.881 86.5823 121.872 86.6464 121.864C87.7659 121.726 88.8554 121.485 89.9047 121.112C93.139 119.963 102.479 114.865 118.456 105.528L118.562 105.456C121.06 103.471 120.816 101.675 120.171 100.519" fill="#E8E8E8"/>
<path fill-rule="evenodd" clip-rule="evenodd" d="M40.082 55.6451H43.4327V53.8646H40.082V55.6451Z" fill="#E8E8E8"/>
<path fill-rule="evenodd" clip-rule="evenodd" d="M45.0439 52.2728H46.8466V48.964H45.0439V52.2728Z" fill="#E8E8E8"/>
<path fill-rule="evenodd" clip-rule="evenodd" d="M48.457 55.6451H51.8057V53.8646H48.457V55.6451Z" fill="#E8E8E8"/>
<path fill-rule="evenodd" clip-rule="evenodd" d="M45.0439 60.5453H46.8467V57.2355H45.0439V60.5453Z" fill="#E8E8E8"/>
<path fill-rule="evenodd" clip-rule="evenodd" d="M122.92 82.3539L125.226 82.3638L125.234 80.5833L122.928 80.5734L122.92 82.3539Z" fill="#E8E8E8"/>
<path fill-rule="evenodd" clip-rule="evenodd" d="M126.066 79.849L127.869 79.8569L127.879 77.6856L126.076 77.6787L126.066 79.849Z" fill="#E8E8E8"/>
<path fill-rule="evenodd" clip-rule="evenodd" d="M128.694 80.5979L128.687 82.3784L130.993 82.3883L131.001 80.6078L128.694 80.5979Z" fill="#E8E8E8"/>
<path fill-rule="evenodd" clip-rule="evenodd" d="M126.043 85.276L127.845 85.2829L127.855 83.1126L126.053 83.1057L126.043 85.276Z" fill="#E8E8E8"/>
</svg>
