<svg width="160" height="160" viewBox="0 0 160 160" fill="none" xmlns="http://www.w3.org/2000/svg">
<path fill-rule="evenodd" clip-rule="evenodd" d="M112.002 121.523C112.002 121.523 115.013 121.523 112.002 121.523C95.417 121.523 81.2689 122.474 55.9605 130.539C19.1716 142.261 18.731 109.247 25.5115 91.8969C2.75936 82.0118 10.9409 50.3061 21.8312 38.5633C29.8612 29.9053 40.7144 26.1101 54.3918 27.1757C59.5515 27.1757 67.5313 30.5965 78.3313 37.4372C91.9625 46.072 97.8066 46.0205 109.882 48.1477C156.059 56.282 154.031 93.575 140.755 107.423C132.074 116.477 122.038 121.523 112.002 121.523Z" fill="#E5E5E5"/>
<path fill-rule="evenodd" clip-rule="evenodd" d="M24.7515 93.8642V101.056V101.79C24.7555 106.227 27.391 110.033 31.1586 111.714C32.4784 112.303 33.9337 112.637 35.4682 112.638H116.086C121.999 112.626 126.787 107.776 126.793 101.791V53.9829C126.787 47.9919 121.992 43.1401 116.077 43.1341H61.3898C60.891 43.1341 60.4866 42.7274 60.4866 42.2259C60.4866 42.2067 60.4966 42.1896 60.4986 42.1704H55.3861C55.3871 42.1896 55.3972 42.2067 55.3972 42.2259C55.3972 42.7274 54.9927 43.1341 54.4939 43.1341H48.7763H35.4692C32.4061 43.1371 29.6502 44.4469 27.6981 46.5337C25.8786 48.4762 24.7545 51.0938 24.7515 53.9818V58.9597V74.0961V77.3171C24.7515 77.6814 24.5347 77.9922 24.2256 78.1365V81.4887C24.5347 81.633 24.7515 81.9438 24.7515 82.3081V82.5684V83.1759V84.411C24.7515 84.7763 24.5347 85.0861 24.2256 85.2304V93.0448C24.5347 93.1891 24.7515 93.4999 24.7515 93.8642" fill="white"/>
<path fill-rule="evenodd" clip-rule="evenodd" d="M24.7509 84.4108V83.1756V82.5682V82.3078C24.7509 81.9435 24.5341 81.6327 24.225 81.4884C24.1095 81.435 23.9831 81.3997 23.8476 81.3997C23.7894 81.3997 23.7382 81.4229 23.683 81.4329C23.2655 81.5137 22.9443 81.8658 22.9443 82.3078V82.5682V83.1756V84.4108C22.9443 84.8528 23.2655 85.2049 23.683 85.2857C23.7382 85.2958 23.7894 85.319 23.8476 85.319C23.9831 85.319 24.1095 85.2847 24.225 85.2302C24.5341 85.0859 24.7509 84.7761 24.7509 84.4108ZM116.077 41.3179H61.3898C60.9101 41.3179 60.5277 41.6963 60.4976 42.1706C60.4966 42.1897 60.4865 42.2059 60.4865 42.2261C60.4865 42.7276 60.891 43.1342 61.3898 43.1342H116.076C121.991 43.1403 126.787 47.992 126.793 53.983V101.791C126.787 107.776 121.998 112.626 116.086 112.639H35.4682C33.9336 112.637 32.4774 112.304 31.1586 111.714C27.39 110.033 24.7555 106.227 24.7505 101.79V101.056V93.8644C24.7505 93.4991 24.5337 93.1893 24.2246 93.045C24.1091 92.9915 23.9837 92.9562 23.8482 92.9562C23.789 92.9562 23.7378 92.9784 23.6826 92.9895C23.2651 93.0702 22.9449 93.4214 22.9449 93.8644V101.791C22.951 108.781 28.5522 114.448 35.4672 114.455H116.088C122.999 114.441 128.593 108.777 128.6 101.792V53.982C128.593 46.991 122.991 41.3249 116.077 41.3179V41.3179ZM24.7509 77.3167V74.0956V58.9592V53.9814C24.7539 51.0934 25.8779 48.4768 27.6975 46.5333C29.6496 44.4465 32.4055 43.1367 35.4686 43.1336H48.7756H54.4933C54.9921 43.1336 55.3965 42.728 55.3965 42.2265C55.3965 42.2063 55.3865 42.1891 55.3855 42.1699C55.3554 41.6967 54.973 41.3183 54.4933 41.3183H35.4676C28.5526 41.3253 22.9514 46.9914 22.9443 53.9804V77.3167C22.9443 77.7586 23.2655 78.1108 23.683 78.1915C23.7382 78.2016 23.7894 78.2248 23.8476 78.2248C23.9831 78.2248 24.1095 78.1905 24.225 78.136C24.5341 77.9917 24.7509 77.6819 24.7509 77.3167" fill="#0F2B4A"/>
<path fill-rule="evenodd" clip-rule="evenodd" d="M24.752 74.0954H27.6986V58.959H24.752V74.0954Z" fill="#6EE3FF"/>
<path fill-rule="evenodd" clip-rule="evenodd" d="M116.077 43.134H94.5321L85.5155 58.9596H126.794V53.9828C126.788 47.9918 121.991 43.1401 116.077 43.134V43.134ZM54.9317 112.638H116.087C121.998 112.626 126.787 107.776 126.793 101.791V74.096H76.8911L54.9317 112.638ZM24.7515 77.3167C24.7515 77.8182 24.347 78.2248 23.8482 78.2248C23.79 78.2248 23.7388 78.2016 23.6836 78.1915V81.4338C23.7388 81.4227 23.79 81.3994 23.8482 81.3994C24.347 81.3994 24.7515 81.8061 24.7515 82.3076V82.568V83.1755V84.4106C24.7515 84.9121 24.347 85.3188 23.8482 85.3188C23.79 85.3188 23.7388 85.2966 23.6836 85.2855V92.9899C23.7388 92.9788 23.79 92.9566 23.8482 92.9566C24.347 92.9566 24.7515 93.3622 24.7515 93.8638V101.056V101.79C24.7555 106.226 27.391 110.032 31.1586 111.715C32.39 112.175 33.7158 112.44 35.1058 112.441H38.2562C32.3489 111.952 27.7031 106.959 27.6981 100.859V74.0956H24.7515V77.3167ZM27.6976 46.5334C25.879 48.4769 24.754 51.0935 24.7509 53.9815V58.9593H27.6976V46.5334Z" fill="#E9F4F7"/>
<path fill-rule="evenodd" clip-rule="evenodd" d="M27.6973 74.0954H126.052V58.959H27.6973V74.0954Z" fill="#0D4F80"/>
<path fill-rule="evenodd" clip-rule="evenodd" d="M76.8916 74.0954H128.175V58.959H85.5158L76.8916 74.0954Z" fill="#0F2B4A"/>
<path fill-rule="evenodd" clip-rule="evenodd" d="M67.7509 82.1411H115.615C116.114 82.1411 116.518 82.5478 116.518 83.0493C116.518 83.5508 116.114 83.9575 115.615 83.9575H67.7509C67.2521 83.9575 66.8477 83.5508 66.8477 83.0493C66.8477 82.5478 67.2521 82.1411 67.7509 82.1411ZM83.1062 87.5901H115.615C116.113 87.5901 116.519 87.9968 116.519 88.4983C116.519 88.9998 116.113 89.4065 115.615 89.4065H83.1062C82.6074 89.4065 82.2029 88.9998 82.2029 88.4983C82.2029 87.9968 82.6074 87.5901 83.1062 87.5901" fill="#0D4F80"/>
<mask id="path-9-outside-1_2089_36969" maskUnits="userSpaceOnUse" x="94.9521" y="79.1677" width="45" height="45" fill="black">
<rect fill="white" x="94.9521" y="79.1677" width="45" height="45"/>
<path fill-rule="evenodd" clip-rule="evenodd" d="M123.841 83.2364H123.84C123.411 83.089 122.975 82.9619 122.533 82.8438C122.398 82.8075 122.266 82.7732 122.13 82.7399C121.77 82.6521 121.406 82.5724 121.038 82.5048C121.022 82.5017 121.008 82.4987 120.994 82.4957C120.727 82.4462 120.457 82.4099 120.187 82.3726C119.899 82.3322 119.613 82.2868 119.32 82.2596C118.728 82.203 118.13 82.1677 117.523 82.1677C112.425 82.1677 107.8 84.1425 104.317 87.3524C100.414 90.9499 97.9521 96.1023 97.9521 101.845C97.9521 102.512 97.9863 103.169 98.0505 103.818C98.0736 104.05 98.1198 104.275 98.1509 104.505C98.2061 104.916 98.2562 105.329 98.3365 105.731C98.3927 106.012 98.473 106.282 98.5403 106.557C98.6236 106.899 98.6988 107.242 98.8002 107.576C98.8925 107.88 99.008 108.176 99.1143 108.475C99.2177 108.763 99.3131 109.056 99.4295 109.339C99.562 109.662 99.7155 109.974 99.8651 110.289C99.9805 110.531 100.088 110.777 100.212 111.013C100.389 111.35 100.586 111.673 100.78 111.998C100.9 112.195 101.012 112.396 101.139 112.59C101.362 112.934 101.603 113.263 101.847 113.592C101.965 113.748 102.076 113.909 102.197 114.062C102.471 114.408 102.761 114.739 103.057 115.065C103.164 115.184 103.267 115.305 103.378 115.421C103.703 115.763 104.043 116.088 104.391 116.406C104.485 116.492 104.577 116.579 104.672 116.663C105.049 116.994 105.44 117.305 105.841 117.607C105.918 117.665 105.992 117.723 106.069 117.779C106.498 118.09 106.94 118.382 107.392 118.659C107.449 118.694 107.507 118.729 107.564 118.763C107.762 118.882 107.971 118.981 108.174 119.092C108.459 119.248 108.738 119.411 109.031 119.554C109.07 119.573 109.109 119.592 109.149 119.61C109.669 119.859 110.202 120.084 110.747 120.287C110.771 120.295 110.794 120.303 110.817 120.312C111.378 120.518 111.949 120.699 112.532 120.852C112.542 120.855 112.553 120.858 112.563 120.86C113.156 121.017 113.76 121.145 114.373 121.246C114.376 121.246 114.379 121.246 114.382 121.247C115.002 121.348 115.63 121.418 116.267 121.459C116.308 121.462 116.351 121.463 116.391 121.466C116.767 121.491 117.14 121.522 117.523 121.522C128.331 121.522 137.094 112.713 137.094 101.845C137.094 93.2042 131.544 85.8812 123.841 83.2364"/>
</mask>
<path fill-rule="evenodd" clip-rule="evenodd" d="M123.841 83.2364H123.84C123.411 83.089 122.975 82.9619 122.533 82.8438C122.398 82.8075 122.266 82.7732 122.13 82.7399C121.77 82.6521 121.406 82.5724 121.038 82.5048C121.022 82.5017 121.008 82.4987 120.994 82.4957C120.727 82.4462 120.457 82.4099 120.187 82.3726C119.899 82.3322 119.613 82.2868 119.32 82.2596C118.728 82.203 118.13 82.1677 117.523 82.1677C112.425 82.1677 107.8 84.1425 104.317 87.3524C100.414 90.9499 97.9521 96.1023 97.9521 101.845C97.9521 102.512 97.9863 103.169 98.0505 103.818C98.0736 104.05 98.1198 104.275 98.1509 104.505C98.2061 104.916 98.2562 105.329 98.3365 105.731C98.3927 106.012 98.473 106.282 98.5403 106.557C98.6236 106.899 98.6988 107.242 98.8002 107.576C98.8925 107.88 99.008 108.176 99.1143 108.475C99.2177 108.763 99.3131 109.056 99.4295 109.339C99.562 109.662 99.7155 109.974 99.8651 110.289C99.9805 110.531 100.088 110.777 100.212 111.013C100.389 111.35 100.586 111.673 100.78 111.998C100.9 112.195 101.012 112.396 101.139 112.59C101.362 112.934 101.603 113.263 101.847 113.592C101.965 113.748 102.076 113.909 102.197 114.062C102.471 114.408 102.761 114.739 103.057 115.065C103.164 115.184 103.267 115.305 103.378 115.421C103.703 115.763 104.043 116.088 104.391 116.406C104.485 116.492 104.577 116.579 104.672 116.663C105.049 116.994 105.44 117.305 105.841 117.607C105.918 117.665 105.992 117.723 106.069 117.779C106.498 118.09 106.94 118.382 107.392 118.659C107.449 118.694 107.507 118.729 107.564 118.763C107.762 118.882 107.971 118.981 108.174 119.092C108.459 119.248 108.738 119.411 109.031 119.554C109.07 119.573 109.109 119.592 109.149 119.61C109.669 119.859 110.202 120.084 110.747 120.287C110.771 120.295 110.794 120.303 110.817 120.312C111.378 120.518 111.949 120.699 112.532 120.852C112.542 120.855 112.553 120.858 112.563 120.86C113.156 121.017 113.76 121.145 114.373 121.246C114.376 121.246 114.379 121.246 114.382 121.247C115.002 121.348 115.63 121.418 116.267 121.459C116.308 121.462 116.351 121.463 116.391 121.466C116.767 121.491 117.14 121.522 117.523 121.522C128.331 121.522 137.094 112.713 137.094 101.845C137.094 93.2042 131.544 85.8812 123.841 83.2364" fill="white"/>
<path d="M123.84 83.2364L123.059 85.506L123.439 85.6364H123.84V83.2364ZM122.533 82.8438L121.907 85.1608L121.913 85.1624L122.533 82.8438ZM122.13 82.7399L122.703 80.4092L122.699 80.4081L122.13 82.7399ZM121.038 82.5048L120.564 84.8577L120.584 84.8617L120.604 84.8653L121.038 82.5048ZM120.994 82.4957L121.5 80.1495L121.466 80.1422L121.431 80.1358L120.994 82.4957ZM120.187 82.3726L119.854 84.7494L119.859 84.7499L120.187 82.3726ZM119.32 82.2596L119.092 84.6487L119.098 84.6492L119.32 82.2596ZM104.317 87.3524L105.944 89.1172L105.944 89.1172L104.317 87.3524ZM98.0505 103.818L95.6622 104.054L95.6623 104.055L98.0505 103.818ZM98.1509 104.505L100.529 104.185L100.529 104.183L98.1509 104.505ZM98.3365 105.731L95.9831 106.202L95.9833 106.203L98.3365 105.731ZM98.5403 106.557L96.2087 107.127L96.2088 107.127L98.5403 106.557ZM98.8002 107.576L101.097 106.88L101.097 106.879L98.8002 107.576ZM99.1143 108.475L96.8535 109.28L96.8549 109.284L99.1143 108.475ZM99.4295 109.339L101.651 108.43L101.648 108.424L99.4295 109.339ZM99.8651 110.289L97.6972 111.319L97.6985 111.322L99.8651 110.289ZM100.212 111.013L102.338 109.899L102.335 109.894L100.212 111.013ZM100.78 111.998L98.7217 113.231L98.7259 113.238L100.78 111.998ZM101.139 112.59L103.151 111.281L103.148 111.278L101.139 112.59ZM101.847 113.592L99.9192 115.021L99.9236 115.027L99.9279 115.033L101.847 113.592ZM102.197 114.062L104.079 112.573L104.079 112.572L102.197 114.062ZM103.057 115.065L104.839 113.458L104.833 113.451L103.057 115.065ZM103.378 115.421L105.117 113.768L105.117 113.767L103.378 115.421ZM104.391 116.406L106.015 114.639L106.009 114.634L104.391 116.406ZM104.672 116.663L106.257 114.86L106.256 114.859L104.672 116.663ZM105.841 117.607L104.396 119.524L104.408 119.532L105.841 117.607ZM106.069 117.779L107.481 115.838L107.475 115.834L107.469 115.829L106.069 117.779ZM107.392 118.659L108.653 116.616L108.643 116.61L107.392 118.659ZM107.564 118.763L106.329 120.822L106.333 120.824L107.564 118.763ZM108.174 119.092L107.021 121.198L107.025 121.2L108.174 119.092ZM109.031 119.554L110.087 117.398L110.079 117.395L109.031 119.554ZM109.149 119.61L110.185 117.445L110.172 117.439L110.159 117.433L109.149 119.61ZM110.747 120.287L109.91 122.536L109.947 122.55L109.985 122.563L110.747 120.287ZM110.817 120.312L109.938 122.546L109.964 122.556L109.99 122.566L110.817 120.312ZM112.532 120.852L113.225 118.555L113.184 118.542L113.142 118.531L112.532 120.852ZM112.563 120.86L113.175 118.54L113.106 118.522L113.036 118.507L112.563 120.86ZM114.373 121.246L113.984 123.614L114.177 123.646H114.373V121.246ZM114.382 121.247L113.62 123.522L113.804 123.584L113.996 123.616L114.382 121.247ZM116.267 121.459L116.443 119.065L116.431 119.064L116.419 119.064L116.267 121.459ZM116.391 121.466L116.21 123.859L116.22 123.86L116.23 123.86L116.391 121.466ZM123.841 80.8364H123.84V85.6364H123.841V80.8364ZM124.62 80.9667C124.121 80.7951 123.627 80.6519 123.153 80.5253L121.913 85.1624C122.322 85.2719 122.701 85.3829 123.059 85.506L124.62 80.9667ZM123.159 80.5269C123.008 80.4862 122.858 80.4473 122.703 80.4092L121.558 85.0705C121.674 85.0991 121.789 85.1288 121.907 85.1608L123.159 80.5269ZM122.699 80.4081C122.302 80.3114 121.892 80.2215 121.471 80.1442L120.604 84.8653C120.92 84.9232 121.239 84.9928 121.562 85.0717L122.699 80.4081ZM121.511 80.1519C121.513 80.1524 121.514 80.1526 121.512 80.1522C121.51 80.1518 121.507 80.1512 121.5 80.1495L120.489 84.8418C120.501 84.8445 120.531 84.8509 120.564 84.8577L121.511 80.1519ZM121.431 80.1358C121.099 80.0742 120.768 80.03 120.516 79.9952L119.859 84.7499C120.147 84.7898 120.356 84.8183 120.557 84.8555L121.431 80.1358ZM120.521 79.9958C120.29 79.9634 119.909 79.9039 119.542 79.8699L119.098 84.6492C119.318 84.6696 119.509 84.701 119.854 84.7493L120.521 79.9958ZM119.548 79.8704C118.899 79.8084 118.223 79.7677 117.523 79.7677V84.5677C118.037 84.5677 118.558 84.5977 119.092 84.6487L119.548 79.8704ZM117.523 79.7677C111.791 79.7677 106.592 81.9916 102.691 85.5877L105.944 89.1172C109.007 86.2934 113.06 84.5677 117.523 84.5677V79.7677ZM102.691 85.5877C98.3184 89.6174 95.5521 95.3999 95.5521 101.845H100.352C100.352 96.8046 102.51 92.2823 105.944 89.1172L102.691 85.5877ZM95.5521 101.845C95.5521 102.594 95.5905 103.33 95.6622 104.054L100.439 103.581C100.382 103.008 100.352 102.43 100.352 101.845H95.5521ZM95.6623 104.055C95.6813 104.247 95.7084 104.42 95.728 104.543C95.7509 104.685 95.7622 104.751 95.7725 104.827L100.529 104.183C100.462 103.684 100.462 103.812 100.439 103.58L95.6623 104.055ZM95.7723 104.825C95.8212 105.189 95.8837 105.704 95.9831 106.202L100.69 105.261C100.629 104.955 100.591 104.643 100.529 104.185L95.7723 104.825ZM95.9833 106.203C96.0497 106.534 96.182 107.017 96.2087 107.127L100.872 105.988C100.764 105.547 100.736 105.489 100.69 105.26L95.9833 106.203ZM96.2088 107.127C96.274 107.394 96.3767 107.854 96.5036 108.273L101.097 106.879C101.021 106.629 100.973 106.403 100.872 105.988L96.2088 107.127ZM96.5033 108.272C96.6177 108.649 96.7794 109.072 96.8535 109.28L101.375 107.67C101.236 107.28 101.167 107.112 101.097 106.88L96.5033 108.272ZM96.8549 109.284C96.9266 109.484 97.0657 109.901 97.2105 110.253L101.648 108.424C101.56 108.211 101.509 108.043 101.374 107.665L96.8549 109.284ZM97.2081 110.247C97.373 110.65 97.5681 111.047 97.6972 111.319L102.033 109.259C101.863 108.902 101.751 108.675 101.651 108.43L97.2081 110.247ZM97.6985 111.322C97.7687 111.469 97.9359 111.841 98.0891 112.132L102.335 109.894C102.24 109.712 102.192 109.594 102.032 109.257L97.6985 111.322ZM98.0866 112.127C98.3026 112.539 98.542 112.931 98.7217 113.231L102.839 110.764C102.629 110.414 102.475 110.16 102.338 109.899L98.0866 112.127ZM98.7259 113.238C98.7883 113.341 98.9747 113.665 99.1289 113.902L103.148 111.278C103.05 111.127 103.011 111.049 102.835 110.757L98.7259 113.238ZM99.1268 113.898C99.3945 114.31 99.6743 114.691 99.9192 115.021L103.775 112.163C103.532 111.835 103.33 111.558 103.151 111.281L99.1268 113.898ZM99.9279 115.033C99.9632 115.08 100.18 115.381 100.316 115.552L104.079 112.572C103.972 112.437 103.966 112.417 103.767 112.151L99.9279 115.033ZM100.316 115.552C100.636 115.956 100.965 116.332 101.28 116.679L104.833 113.451C104.556 113.147 104.307 112.86 104.079 112.573L100.316 115.552ZM101.274 116.673C101.32 116.723 101.503 116.933 101.639 117.076L105.117 113.767C105.032 113.678 105.008 113.646 104.839 113.458L101.274 116.673ZM101.638 117.075C102.015 117.472 102.4 117.838 102.773 118.179L106.009 114.634C105.686 114.339 105.39 114.055 105.117 113.768L101.638 117.075ZM102.767 118.173C102.835 118.235 102.966 118.358 103.088 118.466L106.256 114.859C106.188 114.799 106.135 114.749 106.015 114.639L102.767 118.173ZM103.087 118.465C103.521 118.846 103.962 119.197 104.396 119.524L107.285 115.69C106.918 115.414 106.576 115.141 106.257 114.86L103.087 118.465ZM104.408 119.532C104.434 119.552 104.455 119.568 104.504 119.605C104.545 119.637 104.604 119.681 104.669 119.728L107.469 115.829C107.401 115.78 107.435 115.802 107.274 115.682L104.408 119.532ZM104.657 119.719C105.144 120.074 105.641 120.401 106.141 120.707L108.643 116.61C108.239 116.363 107.852 116.107 107.481 115.838L104.657 119.719ZM106.131 120.701C106.186 120.735 106.257 120.778 106.329 120.822L108.798 116.705C108.757 116.68 108.712 116.653 108.653 116.616L106.131 120.701ZM106.333 120.824C106.556 120.957 107.005 121.189 107.021 121.198L109.327 116.987C108.937 116.774 108.967 116.806 108.794 116.703L106.333 120.824ZM107.025 121.2C107.223 121.308 107.623 121.538 107.983 121.713L110.079 117.395C109.853 117.285 109.695 117.188 109.323 116.985L107.025 121.2ZM107.975 121.709C108.011 121.726 108.072 121.757 108.138 121.787L110.159 117.433C110.146 117.427 110.13 117.419 110.087 117.398L107.975 121.709ZM108.113 121.775C108.701 122.057 109.301 122.31 109.91 122.536L111.584 118.038C111.104 117.859 110.638 117.662 110.185 117.445L108.113 121.775ZM109.985 122.563C109.977 122.56 109.969 122.557 109.96 122.554C109.951 122.551 109.944 122.548 109.938 122.546L111.695 118.079C111.636 118.056 111.575 118.033 111.51 118.012L109.985 122.563ZM109.99 122.566C110.619 122.797 111.262 123 111.921 123.173L113.142 118.531C112.635 118.398 112.136 118.24 111.643 118.059L109.99 122.566ZM111.839 123.15C111.88 123.163 111.973 123.19 112.09 123.213L113.036 118.507C113.089 118.518 113.132 118.529 113.159 118.536C113.187 118.543 113.21 118.55 113.225 118.555L111.839 123.15ZM111.951 123.181C112.62 123.358 113.299 123.501 113.984 123.614L114.763 118.878C114.222 118.789 113.692 118.676 113.175 118.54L111.951 123.181ZM114.373 123.646C114.392 123.646 114.293 123.647 114.178 123.638C114.047 123.627 113.849 123.599 113.62 123.522L115.145 118.971C114.913 118.893 114.712 118.866 114.578 118.854C114.512 118.849 114.459 118.847 114.426 118.846C114.409 118.846 114.395 118.846 114.387 118.846C114.383 118.846 114.379 118.846 114.377 118.846C114.376 118.846 114.375 118.846 114.374 118.846C114.374 118.846 114.373 118.846 114.373 118.846V123.646ZM113.996 123.616C114.695 123.729 115.401 123.809 116.116 123.854L116.419 119.064C115.859 119.028 115.309 118.966 114.768 118.878L113.996 123.616ZM116.091 123.852C116.121 123.855 116.147 123.856 116.167 123.857C116.186 123.858 116.204 123.859 116.213 123.859C116.218 123.86 116.221 123.86 116.224 123.86C116.227 123.86 116.228 123.86 116.228 123.86C116.228 123.86 116.226 123.86 116.223 123.86C116.22 123.86 116.216 123.859 116.21 123.859L116.571 119.073C116.54 119.07 116.513 119.069 116.493 119.068C116.474 119.066 116.455 119.066 116.446 119.065C116.434 119.065 116.431 119.064 116.429 119.064C116.428 119.064 116.434 119.065 116.443 119.065L116.091 123.852ZM116.23 123.86C116.552 123.882 117.037 123.922 117.523 123.922V119.122C117.244 119.122 116.983 119.1 116.551 119.071L116.23 123.86ZM117.523 123.922C129.669 123.922 139.494 114.026 139.494 101.845H134.694C134.694 111.4 126.993 119.122 117.523 119.122V123.922ZM139.494 101.845C139.494 92.1505 133.266 83.9347 124.62 80.9664L123.061 85.5063C129.823 87.8276 134.694 94.2579 134.694 101.845H139.494Z" fill="#DEEDF2" mask="url(#path-9-outside-1_2089_36969)"/>
<path fill-rule="evenodd" clip-rule="evenodd" d="M115.727 112.113C115.563 112.113 115.408 112.037 115.306 111.905L109.66 104.546C108.949 103.619 109.125 102.285 110.053 101.575C110.981 100.863 112.316 101.04 113.027 101.966L115.316 104.951L122.436 93.1793C123.028 92.1702 124.331 91.8331 125.339 92.4235C126.347 93.0148 126.685 94.3155 126.094 95.3236L116.185 111.852C116.095 112.003 115.936 112.101 115.76 112.112C115.749 112.113 115.738 112.113 115.727 112.113" fill="white"/>
<path fill-rule="evenodd" clip-rule="evenodd" d="M114.659 33.9425L113.468 35.1393L111.512 33.1715L109.559 35.1352L108.363 33.9324L110.315 31.9697L108.358 30.002L109.55 28.8052L111.506 30.7719L113.459 28.8092L114.655 30.011L112.702 31.9747L114.659 33.9425Z" fill="#6EE3FF"/>
<path fill-rule="evenodd" clip-rule="evenodd" d="M42.2525 124.72L41.1455 125.834L39.7816 124.464L38.4146 125.839L37.3066 124.726L38.6756 123.351L37.3127 121.981L38.4217 120.867L39.7836 122.237L41.1515 120.862L42.2575 121.975L40.8916 123.35L42.2525 124.72Z" fill="#0F2B4A"/>
<path d="M137.6 97.6002C137.6 96.2747 136.526 95.2002 135.2 95.2002C133.875 95.2002 132.8 96.2747 132.8 97.6002C132.8 98.9257 133.875 100 135.2 100C136.526 100 137.6 98.9257 137.6 97.6002Z" stroke="#E10714" stroke-width="1.46624"/>
<path d="M103.331 113.266C103.331 111.242 101.69 109.601 99.6656 109.601C97.6411 109.601 96 111.242 96 113.266C96 115.291 97.6411 116.932 99.6656 116.932C101.69 116.932 103.331 115.291 103.331 113.266Z" fill="white" stroke="#990000" stroke-width="1.46624"/>
<path d="M123.018 121.264H112.188H104.4L104.8 114.4L111.2 105.6L110.8 102.4L105.6 94L104 87.2L126.4 87.6H130.8L127.6 98L123.2 104.8L128 112.4L131.2 121.264H123.018Z" fill="white"/>
<path d="M125.172 91.2335L119.08 98.002L115.2 96.3973L112.988 93.2641L120.434 90.5566L125.172 91.2335Z" fill="#0D4F80"/>
<path d="M112.988 119.661L118.403 114.923L123.818 119.661H112.988Z" fill="#0D4F80"/>
<path d="M134.648 80.4043H101.482L102.159 85.1423L116.373 85.8191L135.325 84.4654L134.648 80.4043Z" fill="#C4C4C4"/>
<path d="M133.294 120.339H102.836L101.482 125.077H135.325L133.294 120.339Z" fill="#C4C4C4"/>
<path d="M124.784 118.834L124.784 118.834C123.165 117.161 121.282 115.775 119.214 114.732C119.214 114.732 119.214 114.732 119.214 114.732L119.144 114.697V110.674C119.144 110.476 119.066 110.286 118.928 110.146C118.789 110.005 118.601 109.925 118.403 109.925C118.206 109.925 118.017 110.005 117.879 110.146C117.74 110.286 117.663 110.476 117.663 110.674V114.707C115.498 115.876 113.554 117.427 111.923 119.287C111.923 119.287 111.923 119.287 111.923 119.287L111.119 120.202L110.828 120.534H111.27H125.957H126.428L126.1 120.195L124.784 118.834ZM118.553 116.073L118.554 116.073C120.112 116.859 121.558 117.856 122.852 119.035H114.225C115.479 117.838 116.887 116.817 118.409 116L118.553 116.073Z" fill="#0D4F80" stroke="#0D4F80" stroke-width="0.4"/>
<path d="M117.946 106.061C118.085 106.202 118.274 106.281 118.471 106.281C118.668 106.281 118.857 106.202 118.996 106.061C119.134 105.92 119.211 105.73 119.211 105.532V103.728C119.211 103.53 119.134 103.34 118.996 103.199C118.857 103.058 118.668 102.979 118.471 102.979C118.274 102.979 118.085 103.058 117.946 103.199C117.808 103.34 117.731 103.53 117.731 103.728V105.532C117.731 105.73 117.808 105.92 117.946 106.061Z" fill="#0D4F80" stroke="#0D4F80" stroke-width="0.4"/>
<path d="M117.961 99.0227L117.961 99.0225L117.15 98.5522C117.15 98.5522 117.15 98.5522 117.15 98.5522C114.883 97.2373 112.888 95.4878 111.277 93.4008L117.961 99.0227ZM117.961 99.0227C118.116 99.1122 118.291 99.1594 118.47 99.1593L118.47 98.9593L118.472 99.1593C118.653 99.1579 118.83 99.1076 118.986 99.014C118.986 99.0138 118.986 99.0136 118.987 99.0134L119.264 98.8497L119.264 98.8497C122.098 97.1746 124.492 94.8285 126.24 92.0113L126.241 92.0102L126.397 91.7548C126.397 91.7547 126.397 91.7546 126.397 91.7545C126.481 91.6192 126.532 91.4662 126.548 91.3076C126.564 91.1489 126.543 90.9886 126.487 90.8392C126.432 90.6898 126.343 90.5552 126.227 90.4461C126.112 90.337 125.972 90.2564 125.821 90.2108L125.82 90.2106L124.013 89.6771C124.013 89.6771 124.013 89.6771 124.013 89.6771C122.241 89.1512 120.339 89.3378 118.699 90.1978L117.603 90.7704C117.603 90.7704 117.603 90.7704 117.603 90.7705C116.497 91.3469 115.265 91.6287 114.023 91.5897C114.023 91.5897 114.023 91.5897 114.023 91.5897L112.211 91.5321L112.205 91.732M117.961 99.0227L112.205 91.732M112.205 91.732L112.211 91.5321C111.993 91.5253 111.778 91.5817 111.591 91.6944C111.405 91.8072 111.254 91.9714 111.156 92.1674C111.059 92.3635 111.019 92.5835 111.04 92.8017C111.061 93.0199 111.143 93.2277 111.277 93.4007L112.205 91.732ZM124.823 91.4736C123.217 93.9724 121.057 96.0561 118.517 97.5573L118.517 97.5573L118.515 97.5583L118.465 97.5885L117.887 97.2527L117.887 97.2526C115.998 96.157 114.313 94.7353 112.906 93.0524L113.972 93.0867L113.972 93.0867C115.468 93.1339 116.951 92.7939 118.282 92.0987C118.282 92.0987 118.282 92.0987 118.282 92.0987L119.379 91.5258L119.379 91.5257C120.681 90.8431 122.191 90.6952 123.598 91.1121L123.598 91.1121L124.823 91.4736Z" fill="#0D4F80" stroke="#0D4F80" stroke-width="0.4"/>
<path d="M127.466 98.9336L127.466 98.9337L125.694 100.989C125.694 100.989 125.694 100.989 125.694 100.989C125.28 101.473 125.052 102.093 125.052 102.735C125.052 103.377 125.28 103.997 125.694 104.481L127.477 106.56L127.466 98.9336ZM127.466 98.9336C128.708 97.493 129.641 95.8062 130.208 93.9803M127.466 98.9336L130.208 93.9803M130.208 93.9803L132.564 86.4288C133.519 86.374 134.422 85.9597 135.094 85.2648C135.8 84.5348 136.195 83.5534 136.197 82.5312V82.531V80.1217C136.197 79.7903 135.928 79.5217 135.597 79.5217H101.204C100.873 79.5217 100.604 79.7903 100.604 80.1217L100.604 82.531L100.604 82.5312C100.605 83.5534 101.001 84.5348 101.707 85.2648C102.379 85.9597 103.281 86.374 104.237 86.4288L106.593 93.9803C107.159 95.8063 108.093 97.493 109.334 98.9336L111.105 100.991C111.105 100.991 111.105 100.991 111.105 100.991C111.519 101.475 111.747 102.095 111.747 102.737C111.747 103.379 111.519 103.999 111.105 104.483C111.105 104.483 111.105 104.483 111.105 104.483L109.323 106.56L130.208 93.9803ZM100.6 122.94V122.94C100.602 121.917 100.997 120.936 101.704 120.205C102.376 119.51 103.279 119.096 104.235 119.042L106.592 111.495L100.6 122.94ZM100.6 122.94V125.35C100.6 125.681 100.869 125.95 101.2 125.95H135.6C135.932 125.95 136.2 125.681 136.2 125.35V122.94V122.94M100.6 122.94L136.2 122.94M136.2 122.94C136.199 121.917 135.803 120.935 135.096 120.205M136.2 122.94L135.096 120.205M135.096 120.205C134.424 119.51 133.521 119.096 132.565 119.041M135.096 120.205L132.565 119.041M132.565 119.041L130.209 111.495C129.643 109.677 128.713 107.996 127.477 106.56L132.565 119.041ZM132.35 84.9399H132.35H104.451C103.824 84.9392 103.223 84.6862 102.779 84.2352C102.336 83.7842 102.085 83.172 102.085 82.5327C102.085 82.5327 102.085 82.5327 102.085 82.5326L102.085 81.0216H134.72V82.5326C134.719 83.1725 134.468 83.7852 134.024 84.2364C133.579 84.6875 132.977 84.9401 132.35 84.9399ZM124.574 105.463L124.575 105.463L126.359 107.542L126.359 107.542C127.462 108.823 128.292 110.323 128.796 111.946L128.796 111.947L130.992 118.978H105.811L108.007 111.947L108.007 111.946C108.512 110.323 109.342 108.824 110.444 107.542L110.444 107.542L112.228 105.463L112.229 105.463C112.876 104.706 113.231 103.737 113.231 102.736C113.231 101.734 112.876 100.766 112.229 100.008L112.228 100.008L110.458 97.9497L110.458 97.9494C109.349 96.6646 108.514 95.1595 108.008 93.5295L108.008 93.5293L105.795 86.438H131.013L128.799 93.5293L128.799 93.5296C128.293 95.1595 127.459 96.6646 126.35 97.9495L126.35 97.9495L124.579 100.005L124.578 100.005C123.93 100.762 123.574 101.731 123.573 102.733C123.572 103.736 123.928 104.705 124.574 105.463ZM109.323 106.56C108.088 107.996 107.158 109.677 106.592 111.495L109.323 106.56ZM134.72 122.94V124.451H102.085L102.085 122.94C102.085 122.94 102.085 122.94 102.085 122.94C102.085 122.301 102.336 121.689 102.779 121.238C103.223 120.786 103.824 120.533 104.451 120.532H132.35C132.977 120.532 133.579 120.785 134.024 121.236C134.468 121.688 134.719 122.301 134.72 122.94Z" fill="#0F2B4A" stroke="#0F2B4A" stroke-width="0.4"/>
</svg>
