<svg width="160" height="160" viewBox="0 0 160 160" fill="none" xmlns="http://www.w3.org/2000/svg">
<path fill-rule="evenodd" clip-rule="evenodd" d="M67.0824 49.7828C30.0361 63.0858 25.7292 72.586 21.9022 82.8556C14.4907 102.743 29.6483 132.64 51.5701 128.001C72.169 119.241 74.3916 155.933 113.405 135.956C137.848 123.44 145.536 100.456 136.08 81.8031C126.624 63.1513 104.129 36.4797 67.0824 49.7828" fill="#D9D9D9"/>
<path fill-rule="evenodd" clip-rule="evenodd" d="M49.8624 38.4233L48.7952 39.4954L47.3311 38.0243L45.8661 39.4964L44.7979 38.4233L46.2619 36.9522L44.7979 35.4791L45.8661 34.407L47.3301 35.8781L48.7952 34.406L49.8634 35.4791L48.3984 36.9522L49.8624 38.4233Z" fill="#999999"/>
<path fill-rule="evenodd" clip-rule="evenodd" d="M124.466 49.3467C122.528 49.3467 120.959 47.7686 120.959 45.8218C120.959 43.8751 122.528 42.2969 124.466 42.2969C126.404 42.2969 127.974 43.8751 127.974 45.8218C127.974 47.7686 126.404 49.3467 124.466 49.3467ZM124.466 47.3325C125.296 47.3325 125.969 46.6567 125.969 45.8218C125.969 44.9869 125.296 44.3111 124.466 44.3111C123.637 44.3111 122.963 44.9869 122.963 45.8218C122.963 46.6567 123.637 47.3325 124.466 47.3325Z" fill="#595959"/>
<path fill-rule="evenodd" clip-rule="evenodd" d="M94.5635 24.3462C94.8371 24.8236 94.6737 25.4349 94.1987 25.7098C93.7227 25.9858 93.1155 25.8236 92.8409 25.3463L89.8517 20.1435C89.5771 19.6661 89.7414 19.0558 90.2164 18.7788C90.6934 18.5029 91.3007 18.666 91.5753 19.1434L94.5635 24.3462ZM103.164 28.1627C102.688 28.4386 102.081 28.2755 101.808 27.7981C101.533 27.3217 101.696 26.7104 102.172 26.4345L107.341 23.4352C107.817 23.1593 108.424 23.3225 108.698 23.7988C108.974 24.2772 108.81 24.8875 108.333 25.1635L103.164 28.1627ZM99.5671 25.0627C99.4238 25.5954 98.8787 25.9117 98.3496 25.7686C97.8205 25.6256 97.5068 25.0778 97.6491 24.544L99.2014 18.741C99.3437 18.2082 99.8888 17.892 100.419 18.034C100.948 18.178 101.261 18.7259 101.119 19.2586L99.5671 25.0627Z" fill="#767676"/>
<path fill-rule="evenodd" clip-rule="evenodd" d="M117.661 106.019L56.7414 122.425C51.9043 123.728 48.6946 123.253 46.6454 121.454C45.2003 120.186 44.5249 118.673 43.7764 115.864L30.8514 67.3873C30.7713 67.0882 30.7171 66.7951 30.6741 66.5051C30.664 66.4275 30.654 66.352 30.645 66.2754C30.6159 66.0216 30.5989 65.7699 30.5979 65.5231C30.5979 65.4859 30.5947 65.4496 30.5947 65.4133C30.5989 65.1364 30.625 64.8645 30.664 64.5966C30.6731 64.5281 30.6871 64.4596 30.6991 64.3921C30.7402 64.1685 30.7923 63.949 30.8574 63.7335C30.8775 63.664 30.8925 63.5945 30.9166 63.526L30.9236 63.5028C30.9336 63.4746 30.9476 63.4474 30.9576 63.4203C30.9947 63.7113 31.0528 64.0034 31.137 64.2924C31.6461 66.2039 33.0891 67.2191 35.0091 67.4991L35.3017 67.5364C36.2697 67.6411 37.1486 67.5565 37.7638 67.4226L105.756 49.1131C108.4 49.6469 110.528 51.6349 111.228 54.2645L122.687 97.2414C123.705 101.064 121.456 104.992 117.661 106.019" fill="white"/>
<path fill-rule="evenodd" clip-rule="evenodd" d="M117.661 106.019L56.7414 122.425C51.9043 123.728 48.6946 123.253 46.6454 121.454C45.2003 120.186 44.5249 118.673 43.7764 115.864L30.8514 67.3873C30.7713 67.0882 30.7171 66.7951 30.6741 66.5051C30.664 66.4275 30.654 66.352 30.645 66.2754C30.6159 66.0216 30.5989 65.7699 30.5979 65.5231C30.5979 65.4859 30.5947 65.4496 30.5947 65.4133C30.5989 65.1364 30.625 64.8645 30.664 64.5966C30.6731 64.5281 30.6871 64.4596 30.6991 64.3921C30.7402 64.1685 30.7923 63.949 30.8574 63.7335C30.8775 63.664 30.8925 63.5945 30.9166 63.526L30.9236 63.5028C30.9336 63.4746 30.9476 63.4474 30.9576 63.4203C30.9947 63.7113 31.0528 64.0034 31.137 64.2924C31.6461 66.2039 33.0891 67.2191 35.0091 67.4991L35.3017 67.5364C36.2697 67.6411 37.1486 67.5565 37.7638 67.4226L105.756 49.1131C108.4 49.6469 110.528 51.6349 111.228 54.2645L122.687 97.2414C123.705 101.064 121.456 104.992 117.661 106.019" fill="white"/>
<path fill-rule="evenodd" clip-rule="evenodd" d="M115.777 82.5958C115.434 83.1941 114.871 83.6302 114.209 83.8084L111.291 84.594C110.628 84.7732 109.923 84.6776 109.329 84.3321C109.034 84.1589 108.778 83.9313 108.575 83.6634C108.139 83.6553 107.708 83.5486 107.324 83.325C106.732 82.9785 106.3 82.4085 106.124 81.7408L105.341 78.804C105.161 78.1383 105.252 77.4273 105.594 76.8291C105.936 76.2318 106.5 75.7948 107.161 75.6165L110.079 74.8309C110.742 74.6527 111.448 74.7474 112.04 75.0938C112.336 75.266 112.591 75.4946 112.795 75.7625C113.231 75.7706 113.662 75.8763 114.044 76.1009C114.638 76.4474 115.071 77.0164 115.246 77.6841L116.029 80.6209C116.209 81.2866 116.118 81.9976 115.777 82.5958V82.5958ZM111.229 54.2645C110.528 51.6339 108.401 49.6469 105.756 49.1121L89.6896 53.4387L72.2393 118.251L117.662 106.019C121.457 104.992 123.706 101.064 122.687 97.2414L111.229 54.2645Z" fill="#F2F2F2"/>
<path fill-rule="evenodd" clip-rule="evenodd" d="M57.6384 122.011C53.9346 123.008 50.1277 120.8 49.1346 117.077L37.4182 73.1306C36.854 71.0136 37.324 68.8644 38.5125 67.2208L37.7639 67.4222C37.1496 67.5562 36.2708 67.6408 35.3018 67.536L35.0092 67.4998C34.2887 67.394 33.6373 67.1856 33.0752 66.8653C32.3256 66.4383 31.7384 65.8119 31.3716 64.9669C31.2794 64.7554 31.2012 64.5308 31.1381 64.2921C31.0539 64.0031 30.9948 63.711 30.9577 63.4199C30.9477 63.4481 30.9347 63.4743 30.9247 63.5025L30.9166 63.5257C30.8936 63.5942 30.8786 63.6637 30.8575 63.7332C30.7924 63.9487 30.7403 64.1682 30.6992 64.3918C30.6872 64.4593 30.6741 64.5278 30.6641 64.5963C30.625 64.8641 30.6 65.1361 30.5958 65.413C30.595 65.4493 30.599 65.4865 30.599 65.5228C30.6 65.7695 30.616 66.0213 30.6451 66.2751C30.6541 66.3517 30.6641 66.4282 30.6751 66.5047C30.7182 66.7948 30.7713 67.0879 30.8525 67.387L43.7765 115.864C44.525 118.674 45.2014 120.185 46.6454 121.453C48.6947 123.253 51.9044 123.727 56.7415 122.425L57.6985 122.167L57.6384 122.011Z" fill="#E5E5E5"/>
<path fill-rule="evenodd" clip-rule="evenodd" d="M115.245 77.6843C115.07 77.0166 114.638 76.4466 114.045 76.1011C113.661 75.8765 113.23 75.7708 112.795 75.7627C113 76.0316 113.153 76.3418 113.241 76.6772L114.024 79.6139C114.204 80.2797 114.113 80.9907 113.772 81.5889C113.429 82.1871 112.866 82.6232 112.204 82.8015L109.287 83.587C109.051 83.6505 108.813 83.6666 108.574 83.6636C108.778 83.9315 109.033 84.1591 109.329 84.3323C109.922 84.6777 110.629 84.7734 111.291 84.5942L114.208 83.8086C114.87 83.6303 115.434 83.1943 115.776 82.596C116.117 81.9978 116.208 81.2868 116.028 80.6211L115.245 77.6843Z" fill="#999999"/>
<path fill-rule="evenodd" clip-rule="evenodd" d="M112.203 82.8014C112.866 82.6232 113.43 82.1871 113.772 81.5888C114.112 80.9906 114.203 80.2796 114.023 79.6139L113.24 76.6771C113.152 76.3417 113 76.0315 112.795 75.7626C112.591 75.4948 112.336 75.2661 112.04 75.0939C111.447 74.7465 110.74 74.6528 110.079 74.8311L107.161 75.6166C106.499 75.7949 105.934 76.232 105.592 76.8292C105.252 77.4274 105.161 78.1384 105.34 78.8041L106.124 81.7409C106.299 82.4086 106.731 82.9787 107.324 83.3251C107.708 83.5487 108.138 83.6554 108.574 83.6625C108.812 83.6665 109.051 83.6504 109.286 83.587L112.203 82.8014Z" fill="#595959"/>
<path fill-rule="evenodd" clip-rule="evenodd" d="M117.662 106.019L56.7416 122.425C51.9045 123.728 48.6948 123.253 46.6456 121.453C45.2005 120.186 44.5251 118.673 43.7766 115.864L30.8516 67.3872C30.7715 67.0881 30.7173 66.795 30.6743 66.505C30.6642 66.4274 30.6542 66.3519 30.6452 66.2754C30.6161 66.0216 30.5991 65.7698 30.5981 65.523C30.5981 65.4858 30.5949 65.4495 30.5949 65.4133C30.5991 65.1363 30.6252 64.8644 30.6642 64.5965C30.6733 64.528 30.6873 64.4595 30.6993 64.392C30.7404 64.1685 30.7925 63.9489 30.8576 63.7334C30.8777 63.6639 30.8927 63.5944 30.9168 63.5259L30.9238 63.5028C30.9338 63.4746 30.9478 63.4474 30.9578 63.4202C30.9949 63.7112 31.053 64.0033 31.1372 64.2923C31.2014 64.531 31.2795 64.7556 31.3717 64.9671C31.7385 65.8121 32.3257 66.4385 33.0753 66.8655C33.6364 67.1858 34.2888 67.3943 35.0093 67.499L35.3019 67.5363C36.2699 67.641 37.1488 67.5564 37.764 67.4225L38.5126 67.221L89.6893 53.4396L105.756 49.113C108.4 49.6468 110.528 51.6349 111.228 54.2644L122.687 97.2413C123.705 101.064 121.457 104.992 117.662 106.019V106.019ZM124.429 96.772L112.971 53.7961C112.124 50.6177 109.621 48.1774 106.472 47.406L103.567 36.5049C102.289 31.712 97.3924 28.8659 92.6305 30.1479L92.4832 30.2013L35.2718 56.9091L35.2648 56.9122H35.2638C30.8466 59.0221 28.5027 62.2761 28.8124 66.1565C28.8565 66.7104 28.9557 67.2774 29.109 67.8555L42.0329 116.333C42.8707 119.473 43.6603 121.24 45.4581 122.819C48.0074 125.058 51.8354 125.623 57.2086 124.176L118.13 107.771C122.888 106.483 125.705 101.561 124.429 96.772Z" fill="#595959"/>
<path fill-rule="evenodd" clip-rule="evenodd" d="M74.5947 55.6279L104.64 47.5367L101.825 36.974C101.761 36.7384 101.687 36.5077 101.603 36.2842C101.576 36.2096 101.54 36.1391 101.509 36.0666C101.449 35.9206 101.39 35.7725 101.32 35.6325C101.279 35.549 101.23 35.4714 101.186 35.3898C101.119 35.266 101.054 35.1401 100.981 35.0212C100.927 34.9356 100.868 34.8571 100.81 34.7745C100.737 34.6667 100.666 34.5559 100.587 34.4532C100.525 34.3716 100.456 34.2961 100.39 34.2175C100.308 34.1219 100.23 34.0212 100.144 33.9295C100.075 33.854 99.9987 33.7855 99.9235 33.713C99.8354 33.6264 99.7502 33.5357 99.657 33.4541C99.5798 33.3857 99.4957 33.3232 99.4155 33.2578C99.3213 33.1802 99.2281 33.1006 99.1289 33.0291C99.0447 32.9677 98.9555 32.9123 98.8683 32.8549C98.7671 32.7874 98.6689 32.7179 98.5657 32.6565C98.4755 32.6031 98.3813 32.5568 98.2891 32.5075C98.1829 32.45 98.0787 32.3906 97.9685 32.3383C97.8733 32.2939 97.7751 32.2557 97.6779 32.2154C97.5676 32.1691 97.4574 32.1197 97.3452 32.0794C97.245 32.0432 97.1427 32.014 97.0405 31.9827C96.9263 31.9465 96.8131 31.9092 96.6978 31.879C96.5926 31.8528 96.4874 31.8337 96.3812 31.8115C96.2649 31.7864 96.1487 31.7602 96.0304 31.741C95.9232 31.7249 95.814 31.7159 95.7048 31.7038C95.5865 31.6907 95.4673 31.6756 95.348 31.6685C95.2388 31.6625 95.1275 31.6645 95.0183 31.6625C94.8971 31.6615 94.7758 31.6585 94.6536 31.6635C94.5423 31.6675 94.4311 31.6806 94.3199 31.6897C94.1976 31.7008 94.0754 31.7098 93.9531 31.7269C93.8409 31.743 93.7286 31.7672 93.6154 31.7884C93.4741 31.8156 93.3318 31.8397 93.1905 31.876L93.1665 31.882L79.2735 38.3669L74.5947 55.6279Z" fill="#767676"/>
</svg>
