<svg width="160" height="160" viewBox="0 0 160 160" fill="none" xmlns="http://www.w3.org/2000/svg">
<path fill-rule="evenodd" clip-rule="evenodd" d="M67.0824 49.7828C30.0361 63.0858 25.7292 72.586 21.9022 82.8556C14.4907 102.743 29.6483 132.64 51.5701 128.001C72.169 119.241 74.3916 155.933 113.405 135.956C137.848 123.44 145.536 100.456 136.08 81.8031C126.624 63.1513 104.129 36.4797 67.0824 49.7828" fill="#191919"/>
<path fill-rule="evenodd" clip-rule="evenodd" d="M49.8624 38.4233L48.7952 39.4954L47.3311 38.0243L45.8661 39.4964L44.7979 38.4233L46.2619 36.9522L44.7979 35.4791L45.8661 34.407L47.3301 35.8781L48.7952 34.406L49.8634 35.4791L48.3984 36.9522L49.8624 38.4233Z" fill="#6EE3FF"/>
<path fill-rule="evenodd" clip-rule="evenodd" d="M124.466 49.3467C122.528 49.3467 120.959 47.7686 120.959 45.8218C120.959 43.8751 122.528 42.2969 124.466 42.2969C126.404 42.2969 127.974 43.8751 127.974 45.8218C127.974 47.7686 126.404 49.3467 124.466 49.3467ZM124.466 47.3325C125.296 47.3325 125.969 46.6567 125.969 45.8218C125.969 44.9869 125.296 44.3111 124.466 44.3111C123.637 44.3111 122.963 44.9869 122.963 45.8218C122.963 46.6567 123.637 47.3325 124.466 47.3325Z" fill="#0D4F80"/>
<path fill-rule="evenodd" clip-rule="evenodd" d="M94.5635 24.3462C94.8371 24.8236 94.6737 25.4349 94.1987 25.7098C93.7227 25.9858 93.1155 25.8236 92.8409 25.3463L89.8517 20.1435C89.5771 19.6661 89.7414 19.0558 90.2164 18.7788C90.6934 18.5029 91.3007 18.666 91.5753 19.1434L94.5635 24.3462ZM103.164 28.1627C102.688 28.4386 102.081 28.2755 101.808 27.7981C101.533 27.3217 101.696 26.7104 102.172 26.4345L107.341 23.4352C107.817 23.1593 108.424 23.3225 108.698 23.7988C108.974 24.2772 108.81 24.8875 108.333 25.1635L103.164 28.1627ZM99.5671 25.0627C99.4238 25.5954 98.8787 25.9117 98.3496 25.7686C97.8205 25.6256 97.5068 25.0778 97.6491 24.544L99.2014 18.741C99.3437 18.2082 99.8888 17.892 100.419 18.034C100.948 18.178 101.261 18.7259 101.119 19.2586L99.5671 25.0627Z" fill="#EC0000"/>
<path fill-rule="evenodd" clip-rule="evenodd" d="M117.661 106.019L56.7414 122.425C51.9043 123.728 48.6946 123.253 46.6454 121.454C45.2003 120.186 44.5249 118.673 43.7764 115.864L30.8514 67.3873C30.7713 67.0882 30.7171 66.7951 30.6741 66.5051C30.664 66.4275 30.654 66.352 30.645 66.2754C30.6159 66.0216 30.5989 65.7699 30.5979 65.5231C30.5979 65.4859 30.5947 65.4496 30.5947 65.4133C30.5989 65.1364 30.625 64.8645 30.664 64.5966C30.6731 64.5281 30.6871 64.4596 30.6991 64.3921C30.7402 64.1685 30.7923 63.949 30.8574 63.7335C30.8775 63.664 30.8925 63.5945 30.9166 63.526L30.9236 63.5028C30.9336 63.4746 30.9476 63.4474 30.9576 63.4203C30.9947 63.7113 31.0528 64.0034 31.137 64.2924C31.6461 66.2039 33.0891 67.2191 35.0091 67.4991L35.3017 67.5364C36.2697 67.6411 37.1486 67.5565 37.7638 67.4226L105.756 49.1131C108.4 49.6469 110.528 51.6349 111.228 54.2645L122.687 97.2414C123.705 101.064 121.456 104.992 117.661 106.019" fill="white"/>
<path fill-rule="evenodd" clip-rule="evenodd" d="M117.661 106.019L56.7414 122.425C51.9043 123.728 48.6946 123.253 46.6454 121.454C45.2003 120.186 44.5249 118.673 43.7764 115.864L30.8514 67.3873C30.7713 67.0882 30.7171 66.7951 30.6741 66.5051C30.664 66.4275 30.654 66.352 30.645 66.2754C30.6159 66.0216 30.5989 65.7699 30.5979 65.5231C30.5979 65.4859 30.5947 65.4496 30.5947 65.4133C30.5989 65.1364 30.625 64.8645 30.664 64.5966C30.6731 64.5281 30.6871 64.4596 30.6991 64.3921C30.7402 64.1685 30.7923 63.949 30.8574 63.7335C30.8775 63.664 30.8925 63.5945 30.9166 63.526L30.9236 63.5028C30.9336 63.4746 30.9476 63.4474 30.9576 63.4203C30.9947 63.7113 31.0528 64.0034 31.137 64.2924C31.6461 66.2039 33.0891 67.2191 35.0091 67.4991L35.3017 67.5364C36.2697 67.6411 37.1486 67.5565 37.7638 67.4226L105.756 49.1131C108.4 49.6469 110.528 51.6349 111.228 54.2645L122.687 97.2414C123.705 101.064 121.456 104.992 117.661 106.019" fill="white"/>
<path fill-rule="evenodd" clip-rule="evenodd" d="M115.777 82.5958C115.435 83.1941 114.871 83.6302 114.209 83.8084L111.291 84.594C110.628 84.7732 109.923 84.6776 109.329 84.3321C109.034 84.1589 108.779 83.9313 108.575 83.6634C108.139 83.6553 107.708 83.5486 107.325 83.325C106.732 82.9785 106.3 82.4085 106.124 81.7408L105.341 78.804C105.161 78.1383 105.252 77.4273 105.594 76.8291C105.936 76.2318 106.5 75.7948 107.161 75.6165L110.079 74.8309C110.742 74.6527 111.448 74.7474 112.04 75.0938C112.336 75.266 112.592 75.4946 112.795 75.7625C113.231 75.7706 113.662 75.8763 114.045 76.1009C114.638 76.4474 115.071 77.0164 115.246 77.6841L116.029 80.6209C116.209 81.2866 116.118 81.9976 115.777 82.5958V82.5958ZM111.229 54.2645C110.528 51.6339 108.401 49.6469 105.756 49.1121L89.6898 53.4387L72.2394 118.251L117.662 106.019C121.457 104.992 123.706 101.064 122.688 97.2414L111.229 54.2645ZM57.6384 122.011C53.9347 123.008 50.1277 120.8 49.1346 117.077L37.4182 73.1307C36.854 71.0138 37.324 68.8646 38.5125 67.2209L37.7639 67.4224C37.1496 67.5563 36.2708 67.6409 35.3018 67.5362L35.0092 67.4999C34.2887 67.3942 33.6373 67.1857 33.0752 66.8654C32.3256 66.4384 31.7384 65.812 31.3716 64.967C31.2794 64.7555 31.2012 64.5309 31.1381 64.2922C31.0539 64.0032 30.9948 63.7111 30.9577 63.4201C30.9477 63.4483 30.9347 63.4745 30.9247 63.5027L30.9166 63.5258C30.8936 63.5943 30.8786 63.6638 30.8575 63.7333C30.7924 63.9488 30.7403 64.1684 30.6992 64.3919C30.6872 64.4594 30.6741 64.5279 30.6641 64.5964C30.625 64.8643 30.6 65.1362 30.5958 65.4132C30.595 65.4494 30.599 65.4867 30.599 65.5229C30.6 65.7697 30.616 66.0215 30.6451 66.2753C30.6541 66.3518 30.6641 66.4283 30.6751 66.5049C30.7182 66.7949 30.7713 67.088 30.8525 67.3871L43.7765 115.864C44.525 118.674 45.2014 120.185 46.6455 121.453C48.6947 123.253 51.9044 123.727 56.7415 122.425L57.6985 122.167L57.6384 122.011Z" fill="#E8E8E8"/>
<path fill-rule="evenodd" clip-rule="evenodd" d="M115.245 77.6843C115.07 77.0166 114.638 76.4466 114.045 76.1011C113.661 75.8765 113.23 75.7708 112.795 75.7627C113 76.0316 113.153 76.3418 113.241 76.6772L114.024 79.6139C114.204 80.2797 114.113 80.9907 113.772 81.5889C113.429 82.1871 112.866 82.6232 112.204 82.8015L109.287 83.587C109.051 83.6505 108.813 83.6666 108.574 83.6636C108.778 83.9315 109.033 84.1591 109.329 84.3323C109.922 84.6777 110.629 84.7734 111.291 84.5942L114.208 83.8086C114.87 83.6303 115.434 83.1943 115.776 82.596C116.117 81.9978 116.208 81.2868 116.028 80.6211L115.245 77.6843Z" fill="#6EE3FF"/>
<path fill-rule="evenodd" clip-rule="evenodd" d="M112.203 82.8014C112.866 82.6232 113.43 82.1871 113.772 81.5888C114.112 80.9906 114.203 80.2796 114.023 79.6139L113.24 76.6771C113.152 76.3417 113 76.0315 112.795 75.7626C112.591 75.4948 112.336 75.2661 112.04 75.0939C111.447 74.7465 110.74 74.6528 110.079 74.8311L107.161 75.6166C106.499 75.7949 105.934 76.232 105.592 76.8292C105.252 77.4274 105.161 78.1384 105.34 78.8041L106.124 81.7409C106.299 82.4086 106.731 82.9787 107.324 83.3251C107.708 83.5487 108.138 83.6554 108.574 83.6625C108.812 83.6665 109.051 83.6504 109.286 83.587L112.203 82.8014Z" fill="#0F2B4A"/>
<path fill-rule="evenodd" clip-rule="evenodd" d="M117.662 106.019L56.7416 122.425C51.9045 123.728 48.6948 123.253 46.6456 121.453C45.2005 120.186 44.5251 118.673 43.7766 115.864L30.8516 67.3872C30.7715 67.0881 30.7173 66.795 30.6743 66.505C30.6642 66.4274 30.6542 66.3519 30.6452 66.2754C30.6161 66.0216 30.5991 65.7698 30.5981 65.523C30.5981 65.4858 30.5949 65.4495 30.5949 65.4133C30.5991 65.1363 30.6252 64.8644 30.6642 64.5965C30.6733 64.528 30.6873 64.4595 30.6993 64.392C30.7404 64.1685 30.7925 63.9489 30.8576 63.7334C30.8777 63.6639 30.8927 63.5944 30.9168 63.5259L30.9238 63.5028C30.9338 63.4746 30.9478 63.4474 30.9578 63.4202C30.9949 63.7112 31.053 64.0033 31.1372 64.2923C31.2014 64.531 31.2795 64.7556 31.3717 64.9671C31.7385 65.8121 32.3257 66.4385 33.0753 66.8655C33.6364 67.1858 34.2888 67.3943 35.0093 67.499L35.3019 67.5363C36.2699 67.641 37.1488 67.5564 37.764 67.4225L38.5126 67.221L89.6893 53.4396L105.756 49.113C108.4 49.6468 110.528 51.6349 111.228 54.2644L122.687 97.2413C123.705 101.064 121.457 104.992 117.662 106.019V106.019ZM124.429 96.772L112.971 53.7961C112.124 50.6177 109.621 48.1774 106.472 47.406L103.567 36.5049C102.289 31.712 97.3924 28.8659 92.6305 30.1479L92.4832 30.2013L35.2718 56.9091L35.2648 56.9122H35.2638C30.8466 59.0221 28.5027 62.2761 28.8124 66.1565C28.8565 66.7104 28.9557 67.2774 29.109 67.8555L42.0329 116.333C42.8707 119.473 43.6603 121.24 45.4581 122.819C48.0074 125.058 51.8354 125.623 57.2086 124.176L118.13 107.771C122.888 106.483 125.705 101.561 124.429 96.772Z" fill="#5C5C5C"/>
<path fill-rule="evenodd" clip-rule="evenodd" d="M101.79 36.9327L104.607 47.4954L37.3478 65.6095C37.3088 65.6165 33.5439 66.4041 32.8344 63.7463C32.3685 62.1268 32.9777 60.3936 34.3536 59.4338C34.3616 59.4277 34.3656 59.4187 34.3736 59.4126C34.9098 59.0692 35.4619 58.7681 36.006 58.5093V58.5082L93.1232 31.8447C93.2414 31.8145 93.3607 31.7924 93.4789 31.7682C93.5801 31.7471 93.6813 31.7209 93.7835 31.7048C93.9238 31.6816 94.0661 31.6695 94.2074 31.6554C94.2956 31.6463 94.3838 31.6322 94.472 31.6262C94.6173 31.6181 94.7626 31.6202 94.9079 31.6202C94.9931 31.6202 95.0792 31.6141 95.1634 31.6171C95.3057 31.6222 95.447 31.6383 95.5893 31.6524C95.6755 31.6604 95.7637 31.6645 95.8509 31.6755C95.9871 31.6937 96.1214 31.7239 96.2557 31.7501C96.3469 31.7682 96.4391 31.7803 96.5303 31.8014C96.6565 31.8316 96.7808 31.8729 96.9061 31.9102C97.0033 31.9384 97.0995 31.9616 97.1957 31.9948C97.3259 32.0391 97.4532 32.0955 97.5815 32.1479C97.6676 32.1841 97.7568 32.2133 97.842 32.2526C98.0535 32.3493 98.2629 32.4581 98.4683 32.5769C100.117 33.5347 101.297 35.0826 101.79 36.9327" fill="#0F2B4A"/>
<path fill-rule="evenodd" clip-rule="evenodd" d="M101.79 36.9327L104.607 47.4954L37.3478 65.6095C37.3088 65.6165 33.5439 66.4041 32.8344 63.7463C32.3685 62.1268 32.9777 60.3936 34.3536 59.4338C34.3616 59.4277 34.3656 59.4187 34.3736 59.4126C34.9098 59.0692 35.4619 58.7681 36.006 58.5093V58.5082L93.1232 31.8447C93.2414 31.8145 93.3607 31.7924 93.4789 31.7682C93.5801 31.7471 93.6813 31.7209 93.7835 31.7048C93.9238 31.6816 94.0661 31.6695 94.2074 31.6554C94.2956 31.6463 94.3838 31.6322 94.472 31.6262C94.6173 31.6181 94.7626 31.6202 94.9079 31.6202C94.9931 31.6202 95.0792 31.6141 95.1634 31.6171C95.3057 31.6222 95.447 31.6383 95.5893 31.6524C95.6755 31.6604 95.7637 31.6645 95.8509 31.6755C95.9871 31.6937 96.1214 31.7239 96.2557 31.7501C96.3469 31.7682 96.4391 31.7803 96.5303 31.8014C96.6565 31.8316 96.7808 31.8729 96.9061 31.9102C97.0033 31.9384 97.0995 31.9616 97.1957 31.9948C97.3259 32.0391 97.4532 32.0955 97.5815 32.1479C97.6676 32.1841 97.7568 32.2133 97.842 32.2526C98.0535 32.3493 98.2629 32.4581 98.4683 32.5769C100.117 33.5347 101.297 35.0826 101.79 36.9327V36.9327Z" stroke="#0F2B4A" stroke-width="0.1"/>
<path fill-rule="evenodd" clip-rule="evenodd" d="M74.5615 55.5837L104.607 47.4925L101.791 36.9298C101.728 36.6942 101.654 36.4646 101.57 36.24C101.543 36.1654 101.507 36.0959 101.476 36.0224C101.416 35.8764 101.356 35.7283 101.287 35.5884C101.246 35.5048 101.197 35.4272 101.153 35.3456C101.087 35.2218 101.021 35.0959 100.948 34.978C100.894 34.8924 100.834 34.8129 100.777 34.7303C100.704 34.6225 100.633 34.5128 100.554 34.409C100.492 34.3274 100.422 34.2529 100.356 34.1744C100.275 34.0777 100.197 33.978 100.112 33.8863C100.042 33.8098 99.9655 33.7413 99.8913 33.6698C99.8022 33.5822 99.717 33.4925 99.6248 33.41C99.5466 33.3415 99.4635 33.279 99.3823 33.2136C99.2881 33.136 99.1949 33.0575 99.0967 32.986C99.0115 32.9235 98.9233 32.8681 98.8351 32.8107C98.7349 32.7432 98.6357 32.6737 98.5325 32.6123C98.4423 32.5589 98.3481 32.5126 98.2569 32.4633C98.1497 32.4059 98.0455 32.3464 97.9353 32.2951C97.8401 32.2498 97.7419 32.2125 97.6447 32.1712C97.5344 32.1249 97.4242 32.0755 97.312 32.0352C97.2128 31.999 97.1095 31.9708 97.0073 31.9386C96.8931 31.9033 96.7809 31.865 96.6646 31.8348C96.5604 31.8086 96.4542 31.7895 96.348 31.7673C96.2317 31.7432 96.1155 31.716 95.9982 31.6979C95.89 31.6807 95.7808 31.6717 95.6715 31.6596C95.5533 31.6465 95.434 31.6314 95.3148 31.6243C95.2056 31.6183 95.0943 31.6203 94.9851 31.6193C94.8639 31.6173 94.7436 31.6143 94.6214 31.6193C94.5101 31.6233 94.3979 31.6364 94.2877 31.6455C94.1644 31.6566 94.0421 31.6656 93.9209 31.6838C93.8077 31.6989 93.6954 31.723 93.5822 31.7452C93.4409 31.7714 93.2986 31.7955 93.1583 31.8318L93.1333 31.8378L79.2403 38.3237L74.5615 55.5837Z" fill="#0D4F80"/>
</svg>
