<svg width="160" height="160" viewBox="0 0 160 160" fill="none" xmlns="http://www.w3.org/2000/svg">
<path fill-rule="evenodd" clip-rule="evenodd" d="M67.0824 49.7821C30.0361 63.0852 25.7292 72.5854 21.9022 82.855C14.4907 102.743 29.6483 132.639 51.5701 128C72.169 119.24 74.3916 155.933 113.405 135.955C137.848 123.439 145.536 100.455 136.08 81.8025C126.624 63.1507 104.129 36.4791 67.0824 49.7821" fill="#262626"/>
<path fill-rule="evenodd" clip-rule="evenodd" d="M49.8624 38.4225L48.7952 39.495L47.3311 38.0236L45.8661 39.4961L44.7979 38.4225L46.2619 36.9511L44.7979 35.4786L45.8661 34.4061L47.3301 35.8775L48.7952 34.4051L49.8634 35.4786L48.3984 36.9511L49.8624 38.4225Z" fill="#999999"/>
<path fill-rule="evenodd" clip-rule="evenodd" d="M124.466 49.3459C122.528 49.3459 120.958 47.7678 120.958 45.821C120.958 43.8742 122.528 42.2961 124.466 42.2961C126.404 42.2961 127.973 43.8742 127.973 45.821C127.973 47.7678 126.404 49.3459 124.466 49.3459ZM124.466 47.3317C125.295 47.3317 125.969 46.6559 125.969 45.821C125.969 44.9861 125.295 44.3103 124.466 44.3103C123.636 44.3103 122.963 44.9861 122.963 45.821C122.963 46.6559 123.636 47.3317 124.466 47.3317ZM94.5635 24.3455C94.8371 24.8228 94.6737 25.4342 94.1987 25.7091C93.7227 25.9851 93.1155 25.8229 92.8409 25.3455L89.8517 20.1428C89.5771 19.6654 89.7414 19.0551 90.2164 18.7781C90.6934 18.5022 91.3007 18.6653 91.5753 19.1427L94.5635 24.3455ZM103.164 28.1619C102.688 28.4379 102.081 28.2747 101.808 27.7974C101.533 27.321 101.696 26.7097 102.172 26.4337L107.341 23.4345C107.817 23.1586 108.424 23.3217 108.698 23.7981C108.974 24.2765 108.81 24.8868 108.333 25.1627L103.164 28.1619ZM99.5671 25.0619C99.4238 25.5947 98.8787 25.9109 98.3496 25.7679C97.8205 25.6249 97.5068 25.077 97.6491 24.5433L99.2014 18.7402C99.3437 18.2075 99.8888 17.8912 100.419 18.0332C100.948 18.1773 101.261 18.7251 101.119 19.2579L99.5671 25.0619Z" fill="#7F7F7F"/>
<path fill-rule="evenodd" clip-rule="evenodd" d="M117.661 106.019L56.7414 122.425C51.9043 123.727 48.6946 123.252 46.6454 121.453C45.2003 120.185 44.5249 118.672 43.7764 115.863L30.8514 67.3865C30.7713 67.0874 30.7171 66.7943 30.6741 66.5043C30.664 66.4267 30.654 66.3512 30.645 66.2746C30.6159 66.0208 30.5989 65.7691 30.5979 65.5223C30.5979 65.4851 30.5947 65.4488 30.5947 65.4125C30.5989 65.1356 30.625 64.8637 30.664 64.5958C30.6731 64.5273 30.6871 64.4588 30.6991 64.3913C30.7402 64.1677 30.7923 63.9482 30.8574 63.7327C30.8775 63.6632 30.8925 63.5937 30.9166 63.5252L30.9236 63.502C30.9336 63.4738 30.9476 63.4466 30.9576 63.4195C30.9947 63.7105 31.0528 64.0026 31.137 64.2916C31.6461 66.2031 33.0891 67.2183 35.0091 67.4983L35.3017 67.5356C36.2697 67.6403 37.1486 67.5557 37.7638 67.4217L105.756 49.1123C108.4 49.6461 110.528 51.6341 111.228 54.2637L122.687 97.2406C123.705 101.064 121.456 104.991 117.661 106.019" fill="white"/>
<path fill-rule="evenodd" clip-rule="evenodd" d="M117.661 106.019L56.7414 122.425C51.9043 123.727 48.6946 123.252 46.6454 121.453C45.2003 120.185 44.5249 118.672 43.7764 115.863L30.8514 67.3865C30.7713 67.0874 30.7171 66.7943 30.6741 66.5043C30.664 66.4267 30.654 66.3512 30.645 66.2746C30.6159 66.0208 30.5989 65.7691 30.5979 65.5223C30.5979 65.4851 30.5947 65.4488 30.5947 65.4125C30.5989 65.1356 30.625 64.8637 30.664 64.5958C30.6731 64.5273 30.6871 64.4588 30.6991 64.3913C30.7402 64.1677 30.7923 63.9482 30.8574 63.7327C30.8775 63.6632 30.8925 63.5937 30.9166 63.5252L30.9236 63.502C30.9336 63.4738 30.9476 63.4466 30.9576 63.4195C30.9947 63.7105 31.0528 64.0026 31.137 64.2916C31.6461 66.2031 33.0891 67.2183 35.0091 67.4983L35.3017 67.5356C36.2697 67.6403 37.1486 67.5557 37.7638 67.4217L105.756 49.1123C108.4 49.6461 110.528 51.6341 111.228 54.2637L122.687 97.2406C123.705 101.064 121.456 104.991 117.661 106.019" fill="#F2F2F2"/>
<path fill-rule="evenodd" clip-rule="evenodd" d="M115.777 82.595C115.435 83.1933 114.871 83.6294 114.209 83.8076L111.291 84.5932C110.628 84.7724 109.923 84.6768 109.329 84.3313C109.034 84.1581 108.779 83.9305 108.575 83.6626C108.139 83.6545 107.708 83.5478 107.325 83.3242C106.732 82.9778 106.3 82.4077 106.124 81.74L105.341 78.8032C105.161 78.1375 105.252 77.4265 105.594 76.8283C105.936 76.2311 106.5 75.794 107.161 75.6157L110.079 74.8301C110.742 74.6519 111.448 74.7466 112.04 75.093C112.336 75.2652 112.592 75.4938 112.795 75.7617C113.231 75.7698 113.662 75.8755 114.045 76.1001C114.638 76.4466 115.071 77.0156 115.246 77.6833L116.029 80.6201C116.209 81.2858 116.118 81.9968 115.777 82.595V82.595ZM111.229 54.2637C110.528 51.6332 108.401 49.6461 105.756 49.1113L89.6898 53.4379L72.2394 118.25L117.662 106.019C121.457 104.991 123.706 101.064 122.688 97.2406L111.229 54.2637ZM57.6384 122.011C53.9347 123.008 50.1277 120.799 49.1346 117.077L37.4182 73.1299C36.854 71.013 37.324 68.8638 38.5125 67.2201L37.7639 67.4216C37.1496 67.5555 36.2708 67.6401 35.3018 67.5354L35.0092 67.4991C34.2887 67.3934 33.6373 67.1849 33.0752 66.8646C32.3256 66.4376 31.7384 65.8112 31.3716 64.9662C31.2794 64.7547 31.2012 64.5301 31.1381 64.2914C31.0539 64.0024 30.9948 63.7103 30.9577 63.4193C30.9477 63.4475 30.9347 63.4737 30.9247 63.5019L30.9166 63.525C30.8936 63.5935 30.8786 63.663 30.8575 63.7325C30.7924 63.948 30.7403 64.1676 30.6992 64.3912C30.6872 64.4586 30.6741 64.5271 30.6641 64.5956C30.625 64.8635 30.6 65.1354 30.5958 65.4124C30.595 65.4486 30.599 65.4859 30.599 65.5221C30.6 65.7689 30.616 66.0207 30.6451 66.2745C30.6541 66.351 30.6641 66.4275 30.6751 66.5041C30.7182 66.7941 30.7713 67.0872 30.8525 67.3863L43.7765 115.863C44.525 118.673 45.2014 120.185 46.6455 121.453C48.6947 123.252 51.9044 123.727 56.7415 122.424L57.6985 122.167L57.6384 122.011Z" fill="#E5E5E5"/>
<path fill-rule="evenodd" clip-rule="evenodd" d="M115.245 77.6835C115.07 77.0158 114.638 76.4457 114.045 76.1003C113.661 75.8757 113.23 75.77 112.795 75.7619C113 76.0308 113.153 76.341 113.241 76.6764L114.024 79.6131C114.204 80.2788 114.113 80.9899 113.772 81.5881C113.429 82.1863 112.866 82.6224 112.204 82.8007L109.287 83.5862C109.051 83.6497 108.813 83.6658 108.574 83.6628C108.778 83.9307 109.033 84.1583 109.329 84.3315C109.922 84.6769 110.629 84.7726 111.291 84.5933L114.208 83.8078C114.87 83.6295 115.434 83.1934 115.776 82.5952C116.117 81.997 116.208 81.286 116.028 80.6202L115.245 77.6835Z" fill="#7F7F7F"/>
<path fill-rule="evenodd" clip-rule="evenodd" d="M112.203 82.8006C112.866 82.6224 113.43 82.1863 113.772 81.5881C114.112 80.9898 114.203 80.2788 114.023 79.6131L113.24 76.6763C113.152 76.341 113 76.0308 112.795 75.7619C112.591 75.494 112.336 75.2654 112.04 75.0931C111.447 74.7457 110.74 74.652 110.079 74.8303L107.161 75.6158C106.499 75.7941 105.934 76.2312 105.592 76.8284C105.252 77.4266 105.161 78.1377 105.34 78.8034L106.124 81.7401C106.299 82.4079 106.731 82.9779 107.324 83.3243C107.708 83.5479 108.138 83.6547 108.574 83.6617C108.812 83.6658 109.051 83.6496 109.286 83.5862L112.203 82.8006Z" fill="#404040"/>
<path fill-rule="evenodd" clip-rule="evenodd" d="M117.662 106.019L56.7416 122.425C51.9045 123.727 48.6948 123.252 46.6456 121.453C45.2005 120.185 44.5251 118.672 43.7766 115.863L30.8516 67.3864C30.7715 67.0873 30.7173 66.7942 30.6743 66.5042C30.6642 66.4266 30.6542 66.3511 30.6452 66.2746C30.6161 66.0208 30.5991 65.769 30.5981 65.5223C30.5981 65.485 30.5949 65.4487 30.5949 65.4125C30.5991 65.1355 30.6252 64.8636 30.6642 64.5957C30.6733 64.5272 30.6873 64.4587 30.6993 64.3913C30.7404 64.1677 30.7925 63.9481 30.8576 63.7326C30.8777 63.6631 30.8927 63.5936 30.9168 63.5251L30.9238 63.502C30.9338 63.4738 30.9478 63.4466 30.9578 63.4194C30.9949 63.7104 31.053 64.0025 31.1372 64.2916C31.2014 64.5302 31.2795 64.7548 31.3717 64.9663C31.7385 65.8113 32.3257 66.4377 33.0753 66.8647C33.6364 67.185 34.2888 67.3935 35.0093 67.4982L35.3019 67.5355C36.2699 67.6402 37.1488 67.5556 37.764 67.4217L38.5126 67.2203L89.6893 53.4388L105.756 49.1122C108.4 49.646 110.528 51.6341 111.228 54.2637L122.687 97.2405C123.705 101.064 121.457 104.991 117.662 106.019V106.019ZM124.429 96.7712L112.971 53.7953C112.124 50.6169 109.621 48.1766 106.472 47.4052L103.567 36.5041C102.289 31.7112 97.3924 28.8651 92.6305 30.1472L92.4832 30.2005L35.2718 56.9084L35.2648 56.9114H35.2638C30.8466 59.0213 28.5027 62.2753 28.8124 66.1557C28.8565 66.7096 28.9557 67.2767 29.109 67.8547L42.0329 116.332C42.8707 119.473 43.6603 121.239 45.4581 122.818C48.0074 125.057 51.8354 125.622 57.2086 124.175L118.13 107.77C122.888 106.482 125.705 101.56 124.429 96.7712" fill="#4C4C4C"/>
<path fill-rule="evenodd" clip-rule="evenodd" d="M101.79 36.932L104.607 47.4947L37.3478 65.6087C37.3088 65.6158 33.5439 66.4033 32.8344 63.7456C32.3685 62.1261 32.9777 60.3929 34.3536 59.4331C34.3616 59.427 34.3656 59.418 34.3736 59.4119C34.9098 59.0685 35.4619 58.7674 36.006 58.5085V58.5075L93.1232 31.844C93.2414 31.8138 93.3607 31.7916 93.4789 31.7675C93.5801 31.7463 93.6813 31.7201 93.7835 31.704C93.9238 31.6809 94.0661 31.6688 94.2074 31.6547C94.2956 31.6456 94.3838 31.6315 94.472 31.6255C94.6173 31.6174 94.7626 31.6194 94.9079 31.6194C94.9931 31.6194 95.0792 31.6134 95.1634 31.6164C95.3057 31.6214 95.447 31.6376 95.5893 31.6517C95.6755 31.6597 95.7637 31.6637 95.8509 31.6748C95.9871 31.693 96.1214 31.7232 96.2557 31.7493C96.3469 31.7675 96.4391 31.7796 96.5303 31.8007C96.6565 31.8309 96.7808 31.8722 96.9061 31.9095C97.0033 31.9377 97.0995 31.9608 97.1957 31.9941C97.3259 32.0384 97.4532 32.0948 97.5815 32.1472C97.6676 32.1834 97.7568 32.2126 97.842 32.2519C98.0535 32.3486 98.2629 32.4574 98.4683 32.5762C100.117 33.534 101.297 35.0819 101.79 36.932Z" fill="#404040"/>
<path fill-rule="evenodd" clip-rule="evenodd" d="M101.79 36.932L104.607 47.4947L37.3478 65.6087C37.3088 65.6158 33.5439 66.4033 32.8344 63.7456C32.3685 62.1261 32.9777 60.3929 34.3536 59.4331C34.3616 59.427 34.3656 59.418 34.3736 59.4119C34.9098 59.0685 35.4619 58.7674 36.006 58.5085V58.5075L93.1232 31.844C93.2414 31.8138 93.3607 31.7916 93.4789 31.7675C93.5801 31.7463 93.6813 31.7201 93.7835 31.704C93.9238 31.6809 94.0661 31.6688 94.2074 31.6547C94.2956 31.6456 94.3838 31.6315 94.472 31.6255C94.6173 31.6174 94.7626 31.6194 94.9079 31.6194C94.9931 31.6194 95.0792 31.6134 95.1634 31.6164C95.3057 31.6214 95.447 31.6376 95.5893 31.6517C95.6755 31.6597 95.7637 31.6637 95.8509 31.6748C95.9871 31.693 96.1214 31.7232 96.2557 31.7493C96.3469 31.7675 96.4391 31.7796 96.5303 31.8007C96.6565 31.8309 96.7808 31.8722 96.9061 31.9095C97.0033 31.9377 97.0995 31.9608 97.1957 31.9941C97.3259 32.0384 97.4532 32.0948 97.5815 32.1472C97.6676 32.1834 97.7568 32.2126 97.842 32.2519C98.0535 32.3486 98.2629 32.4574 98.4683 32.5762C100.117 33.534 101.297 35.0819 101.79 36.932Z" fill="#404040"/>
<path fill-rule="evenodd" clip-rule="evenodd" d="M74.5615 55.583L104.607 47.4918L101.791 36.9291C101.728 36.6934 101.654 36.4638 101.57 36.2392C101.543 36.1647 101.507 36.0952 101.476 36.0217C101.416 35.8757 101.356 35.7276 101.287 35.5876C101.246 35.504 101.197 35.4265 101.153 35.3449C101.087 35.221 101.021 35.0951 100.948 34.9773C100.894 34.8917 100.834 34.8121 100.777 34.7296C100.704 34.6218 100.633 34.512 100.554 34.4083C100.492 34.3267 100.422 34.2522 100.356 34.1736C100.275 34.0769 100.197 33.9772 100.112 33.8856C100.042 33.809 99.9655 33.7406 99.8913 33.6691C99.8022 33.5814 99.717 33.4918 99.6248 33.4092C99.5466 33.3407 99.4635 33.2783 99.3823 33.2128C99.2881 33.1353 99.1949 33.0567 99.0967 32.9852C99.0115 32.9228 98.9233 32.8674 98.8351 32.81C98.7349 32.7425 98.6357 32.673 98.5325 32.6116C98.4423 32.5582 98.3481 32.5119 98.2569 32.4625C98.1497 32.4051 98.0455 32.3457 97.9353 32.2943C97.8401 32.249 97.7419 32.2118 97.6447 32.1705C97.5344 32.1241 97.4242 32.0748 97.312 32.0345C97.2128 31.9982 97.1095 31.97 97.0073 31.9378C96.8931 31.9026 96.7809 31.8643 96.6646 31.8341C96.5604 31.8079 96.4542 31.7888 96.348 31.7666C96.2317 31.7424 96.1155 31.7152 95.9982 31.6971C95.89 31.68 95.7808 31.6709 95.6715 31.6588C95.5533 31.6458 95.434 31.6306 95.3148 31.6236C95.2056 31.6176 95.0943 31.6196 94.9851 31.6186C94.8639 31.6165 94.7436 31.6135 94.6214 31.6186C94.5101 31.6226 94.3979 31.6357 94.2877 31.6447C94.1644 31.6558 94.0421 31.6649 93.9209 31.683C93.8077 31.6981 93.6954 31.7223 93.5822 31.7445C93.4409 31.7706 93.2986 31.7948 93.1583 31.8311L93.1333 31.8371L79.2403 38.323L74.5615 55.583Z" fill="#7F7F7F"/>
</svg>
