<svg width="160" height="160" viewBox="0 0 160 160" fill="none" xmlns="http://www.w3.org/2000/svg">
<path fill-rule="evenodd" clip-rule="evenodd" d="M67.4061 132.59C110.046 138.078 118.928 131.015 127.724 122.968C144.759 107.384 144.759 70.9152 121.122 64.5366C96.7416 62.8037 112.69 26.1682 64.8424 26.1682C34.8621 26.1682 16.0309 44.6122 16.0309 67.365C16.0309 90.1178 24.7669 127.102 67.4061 132.59Z" fill="#E5E5E5"/>
<path fill-rule="evenodd" clip-rule="evenodd" d="M24.0938 87.2653L30.7773 77.2504C30.745 74.5823 30.4231 73.7063 29.8126 74.621L26.814 79.1142L24.5378 76.2985C24.3681 76.0887 24.0437 76.1036 23.894 76.328L19.0785 83.5436C18.9768 83.696 18.9922 83.899 19.1159 84.0341C21.8661 87.0399 23.5253 88.117 24.0938 87.2653Z" fill="#FEDAC6"/>
<path d="M21.7949 78.6596L20.4274 80.5977L14.4853 74.941C14.3432 74.8057 14.3201 74.5874 14.4309 74.4255L15.4059 72.9997C15.5469 72.7937 15.8401 72.7656 16.0175 72.9413L21.7949 78.6596Z" fill="#FEDAC6"/>
<path d="M23.8863 75.7452L22.5188 77.6833L17.319 72.8275C17.1414 72.6585 17.1126 72.3856 17.251 72.1831L18.1104 70.9266C18.2865 70.669 18.653 70.634 18.8748 70.8535L23.8863 75.7452Z" fill="#FEDAC6"/>
<path d="M19.8785 81.4032L18.511 83.3413L13.4128 78.6535C13.2352 78.4845 13.2064 78.2115 13.3448 78.0091L14.2042 76.7526C14.3803 76.495 14.7468 76.4599 14.9686 76.6795L19.8785 81.4032Z" fill="#FEDAC6"/>
<path fill-rule="evenodd" clip-rule="evenodd" d="M64.0164 119.822L59.4219 91.2391L42.915 104.73L28.7312 88.7596L29.9118 82.896L42.915 92.97L61.4368 71.0801L70.6019 68.205L77.9587 73.8837L85.598 67.5359L96.269 70.4797L111 106.001C111 106.001 113 114.001 113 117.001C112.999 120.001 112.999 121.001 112.999 121.001L112.999 124.001L105 128.501L102 108.001L98.3457 94.1938L93.5007 123.758" fill="white"/>
<path fill-rule="evenodd" clip-rule="evenodd" d="M84.9902 69.063L101 72.5005L109 99.5005L96.4296 78.453L81.9963 71.0513L84.9902 69.063Z" fill="#6EE3FF"/>
<path d="M105 85.5007L111 105.001L112 123.501M98.4997 93.5007L102.5 106.501L105 127.501" stroke="#0F2B4A" stroke-width="1.4" stroke-linecap="round"/>
<path fill-rule="evenodd" clip-rule="evenodd" d="M43.0763 104.855L29.0343 89.0691L30.2148 83.8129L44.3667 94.8165L61.706 70.5913L79.3556 122.02L64.1519 119.809L61.706 94.8165L43.0763 104.855Z" fill="#E9F4F7"/>
<path fill-rule="evenodd" clip-rule="evenodd" d="M86.8763 46.3929C85.2467 43.4611 83.5841 42.3555 81.8906 43.0902C80.2879 43.7842 78.1952 44.2127 75.6126 44.3737C75.2273 44.4841 74.8731 44.5765 74.5897 44.6193C73.9021 44.7326 74.0997 46.8423 73.6326 47.404C73.5678 47.5392 73.5069 47.6843 73.438 47.8156C72.3852 49.9948 73.1896 53.4685 73.946 55.8356C74.3951 57.471 75.9109 58.7485 76.9658 60.21C78.0914 61.9061 79.9396 61.8166 81.9216 62.1904C81.2948 62.8018 80.5963 63.6041 80.5963 64.0754H77.5007C76.834 63.8686 74.1356 60.8741 74.1356 60.8741C74.1356 60.8741 73.7763 60.2687 73.3173 59.2944V68.6029L78.5415 73.2447L82.7808 70.8C82.7229 70.7563 82.661 70.7195 82.6131 70.6598C82.3048 70.2731 82.3676 69.7114 82.7558 69.4022L85.0401 67.5878V60.3641C85.0401 60.2388 85.0671 60.1146 85.118 60.0002L87.4931 54.6824C87.546 54.564 87.6238 54.4587 87.7226 54.3732C88.3563 53.8204 88.7026 53.3502 88.7894 53.0052C89.1387 51.5974 88.6816 50.1887 88.2645 50.1887C88.2076 50.1887 88.1537 50.1926 88.1038 50.2016C87.5789 50.2871 87.0939 49.9023 87.061 49.3734L86.8763 46.3929ZM71.4489 47.0017L70.8142 48.1212C70.6705 49.4872 70.5079 51.8096 70.4939 52.8276L71.5008 53.6617C71.3961 53.0056 71.3302 52.3415 71.3302 51.6793C71.3302 50.0389 71.3242 48.4572 71.4489 47.0017Z" fill="#FEDAC6"/>
<path fill-rule="evenodd" clip-rule="evenodd" d="M72.8992 44.4459L72.1307 45.801L73.2504 44.5066L73.2512 44.5063L72.1315 45.8007L71.4499 47.0017C71.3252 48.4571 71.3311 50.0389 71.3311 51.6793C71.3311 52.3414 71.3971 53.0065 71.5018 53.6617L72.0088 54.0822C72.3361 54.118 72.6445 54.3248 72.7592 54.7274L73.2842 56.5637C73.3061 56.6432 73.3181 56.7257 73.3181 56.8082V59.2947C73.7771 60.269 74.1364 60.8744 74.1364 60.8744C74.1364 60.8744 76.8348 63.8679 77.5015 64.0747H80.5971C80.5971 63.6045 81.2957 62.8022 81.9224 62.1897C79.9404 61.8159 78.0923 61.9064 76.9666 60.2103C75.9117 58.7489 74.3959 57.4704 73.9468 55.8359C73.1904 53.4688 72.386 49.9951 73.4388 47.8159C73.5087 47.6847 73.5686 47.5395 73.6334 47.4043C74.1005 46.8426 73.9029 44.7329 74.5905 44.6196C74.8739 44.5769 75.2282 44.4844 75.6134 44.373C74.8869 44.4188 74.1154 44.4387 73.3121 44.4416L72.8992 44.4459Z" fill="#F6C7B4"/>
<path fill-rule="evenodd" clip-rule="evenodd" d="M72.7595 54.7269L73.2834 56.5641C73.3064 56.6437 73.3184 56.7262 73.3184 56.8087V59.2942C72.6797 57.9401 71.8504 55.8672 71.5011 53.6611L72.0081 54.0817C72.3354 54.1175 72.6448 54.3243 72.7595 54.7269" fill="#F6C7B4"/>
<path fill-rule="evenodd" clip-rule="evenodd" d="M73.0548 41.9244C72.491 42.3937 71.9521 42.9246 71.4491 43.3282C72.6127 40.9332 74.3442 39.1795 76.6704 37.8115C75.7952 38.6934 74.917 39.5762 74.0368 40.461C74.8501 39.9669 75.6585 39.4698 76.4678 38.9767C76.1445 39.3813 75.8221 39.786 75.4988 40.1906C75.3731 40.3487 75.2473 40.5057 75.1226 40.6628C75.1186 40.6678 75.1146 40.6728 75.1116 40.6777C75.1166 40.6718 75.1236 40.6678 75.1296 40.6628C75.2553 40.5574 75.392 40.463 75.5228 40.3626C76.5047 39.611 77.6065 39.0055 78.785 38.5939C78.9617 38.5303 79.1403 38.4727 79.3209 38.42C78.319 39.1069 77.3699 39.8645 76.4598 40.6628C76.357 40.7543 76.2463 40.8398 76.1445 40.9332C75.0417 41.9284 74.0109 42.9982 73.0738 44.1405C73.453 43.0687 73.8352 42.0636 74.3661 41.0545C74.1466 41.152 73.928 41.2822 73.7115 41.4274C73.4899 41.5775 73.2704 41.7445 73.0548 41.9244" fill="#0F2B4A"/>
<path fill-rule="evenodd" clip-rule="evenodd" d="M64.1522 119.81L79.3549 122.02L92.8491 123.981L93.4999 134.499C91.8483 134.831 89.7653 134.272 87.9999 134.499C74.9999 133.999 68.4999 132.999 61.4999 131.499L64.1363 119.808L64.1522 119.81Z" fill="#0D4F80"/>
<path fill-rule="evenodd" clip-rule="evenodd" d="M43.9612 92.0464L61.2406 70.4478L71.5205 67.6422V56.9339L71.1751 55.719L69.0176 53.9335C68.812 53.7625 68.6933 53.509 68.6942 53.2425C68.6982 51.9889 68.7531 50.9639 68.8669 50.1178C68.4957 48.6126 68.3001 46.7366 68.3001 44.447C68.3001 40.2456 69.7182 35.8354 74.8656 35.8354C80.013 35.8354 81.0389 34.5758 86.0006 36.9261C89.3078 38.4919 90.7269 40.5469 90.2579 43.09L90.2359 49.7659C90.7339 50.7561 90.8556 52.139 90.5323 53.4364C90.3537 54.1562 89.8537 54.861 89.0563 55.5858L86.8369 60.5547V67.9315L100.999 71.4983L102.87 75.8421C103.19 76.2198 103.143 76.7845 102.764 77.1037C102.385 77.4228 101.819 77.3761 101.499 76.9983L99.5337 72.9253L86.8369 69.7757L85.5655 69.4596L85.0406 69.8771L83.876 70.8017C83.5477 71.0632 83.1006 71.0433 82.7803 70.8007C82.7234 70.756 82.6615 70.7192 82.6136 70.6606C82.3052 70.2738 82.3681 69.7111 82.7563 69.4029L85.0406 67.5875V60.3638C85.0406 60.2386 85.0666 60.1153 85.1184 60.001L87.4936 54.6831C87.5464 54.5648 87.6243 54.4584 87.7231 54.3729C88.3568 53.8201 88.7031 53.3509 88.7899 53.0049C89.1392 51.5982 88.6811 50.1894 88.264 50.1894C88.2081 50.1894 88.1542 50.1934 88.1033 50.2013C87.5794 50.2878 87.0944 49.9031 87.0614 49.3742L86.8768 46.3936C85.2462 43.4618 83.5846 42.3563 81.8911 43.09C80.2884 43.7849 78.1957 44.2124 75.612 44.3735C74.8865 44.4192 74.1151 44.4391 73.3118 44.442C73.1721 44.443 73.0403 44.448 72.8986 44.447L72.1312 45.8011L71.4496 47.0021L70.8149 48.1215C70.6712 49.4875 70.5075 51.8099 70.4935 52.828L71.5015 53.6621C71.8498 55.8672 72.6781 57.941 73.3178 59.2951V68.6036L78.541 73.2454L78.7326 73.4154C79.1597 73.4413 79.492 73.7604 79.5539 74.173C79.5609 74.2157 79.5779 74.2545 79.5779 74.2993V76.2707V79.2393C79.5779 79.7334 79.1767 80.1341 78.6807 80.1341C78.1847 80.1341 77.7826 79.7334 77.7826 79.2393V77.3941V75.2805V74.9176C77.7267 74.8868 77.6668 74.8659 77.6179 74.8222L73.3178 71.0016L71.6003 69.4755L71.5205 69.4974L62.2795 72.0196L44.3335 94.4513L29.5351 84.5482V87.7396C33.951 93.13 37.4277 97.2111 39.9605 99.9799C42.3496 102.59 43.9622 104.062 44.3195 104.132C44.6199 104.19 46.2685 103.386 48.7563 101.77C51.4847 99.9988 55.2709 97.2678 60.1089 93.5814L61.3564 92.6319L64.7883 120.626C64.8182 120.879 64.7374 121.117 64.5877 121.299L62.6996 131.798C61.6996 131.498 61.5704 131.509 60.9996 131.498L62.9561 120.747L62.993 120.749L59.9523 95.9505C50.5776 103.046 45.6178 106.207 43.9752 105.887C42.3386 105.569 37.341 100.109 27.9404 88.6244L27.7378 88.3778V81.1899L43.9612 92.0464Z" fill="#0F2B4A"/>
<path fill-rule="evenodd" clip-rule="evenodd" d="M73.0548 41.9244C72.491 42.3937 71.9521 42.9246 71.4491 43.3282C72.6127 40.9332 74.3442 39.1795 76.6704 37.8115C75.7952 38.6934 74.917 39.5762 74.0368 40.461C74.8501 39.9669 75.6585 39.4698 76.4678 38.9767C76.1445 39.3813 75.8221 39.786 75.4988 40.1906C75.3731 40.3487 75.2473 40.5057 75.1226 40.6628C75.1186 40.6678 75.1146 40.6728 75.1116 40.6777C75.1166 40.6718 75.1236 40.6678 75.1296 40.6628C75.2553 40.5574 75.392 40.463 75.5228 40.3626C76.5047 39.611 77.6065 39.0055 78.785 38.5939C78.9617 38.5303 79.1403 38.4727 79.3209 38.42C78.319 39.1069 77.3699 39.8645 76.4598 40.6628C76.357 40.7543 76.2463 40.8398 76.1445 40.9332C75.0417 41.9284 74.0109 42.9982 73.0738 44.1405C73.453 43.0687 73.8352 42.0636 74.3661 41.0545C74.1466 41.152 73.928 41.2822 73.7115 41.4274C73.4899 41.5775 73.2704 41.7445 73.0548 41.9244" fill="#0D4F80"/>
<path fill-rule="evenodd" clip-rule="evenodd" d="M94.2296 117.681C94.6946 117.762 95.004 118.203 94.9222 118.665L94.2645 122.399L95.4995 134.501C94.9436 134.624 94.0673 134.388 93.4995 134.501L92.5471 122.314L93.2426 118.371C93.3234 117.908 93.7615 117.601 94.2296 117.681ZM94.5365 110.501L94.8868 108.155C94.9587 107.667 95.4257 107.328 95.9067 107.402C96.3977 107.474 96.736 107.93 96.6642 108.419L96.3139 110.765C96.248 111.208 95.8638 111.527 95.4267 111.527C95.3828 111.527 95.3379 111.524 95.294 111.518C94.803 111.446 94.4647 110.991 94.5365 110.501Z" fill="#0F2B4A"/>
<path d="M95.5081 104.848L97.7485 92.6375L98.9281 93.5998C99.2711 93.8797 99.0983 95.278 98.969 95.9421L97.2755 105.17C97.1867 105.656 96.7187 105.978 96.2307 105.889C95.7417 105.8 95.4193 105.334 95.5081 104.848Z" fill="#0F2B4A"/>
<path d="M103.5 80.5L104 82" stroke="#0F2B4A" stroke-width="1.4" stroke-linecap="round"/>
<path d="M25.9172 84.152C24.3352 83.5305 21.7762 81.1767 24.196 76.7333" stroke="#0F2B4A" stroke-width="1.4" stroke-linecap="round"/>
<path d="M18.4457 83.326L13.2433 78.3325M20.5383 80.1446L14.4395 74.4829M21.2422 76.2071L17.3404 72.4619" stroke="#F6C7B4" stroke-width="1.4" stroke-linecap="round"/>
<path d="M29.6462 74.6602L26.8855 78.7379" stroke="#F6C7B4" stroke-width="1.4" stroke-linecap="round"/>
</svg>
